<?xml version="1.0" encoding="utf-8"?>
<!-- Generator: Adobe Illustrator 19.0.0, SVG Export Plug-In . SVG Version: 6.00 Build 0)  -->
<svg version="1.1" id="logo" xmlns="http://www.w3.org/2000/svg" xmlns:xlink="http://www.w3.org/1999/xlink" x="0px" y="0px"
	 viewBox="0 0 1000 303.7" style="enable-background:new 0 0 1000 303.7;" xml:space="preserve">
<style type="text/css">
	.st0{fill:#6C8096;}
	.st1{fill:#FFFFFF;}
</style>
<g id="XMLID_185_">
	<g id="XMLID_523_">
		<g id="XMLID_548_">
			<path id="XMLID_554_" class="st0" d="M85,302.7c-26,0-46-7.2-61.4-22.1C8.4,265.4,1,247.5,1,225.8c0-20.9,7.8-39.6,23.1-55.3
				C39.2,154.9,62.8,147,94.3,147h71v-8c0-29.1-17.6-44.4-50.9-44.4c-29.4,0-45.7,10.2-48.5,30.3H15.5c2.8-42.5,40.8-69.9,97-69.9
				c65.6,0,101.7,30.1,101.7,84.9v156.8h-47v-21.9h-12.7l-0.3,0.4C140,293.5,116.7,302.7,85,302.7z M103.6,182.3
				c-33.2,0-51.4,14.3-51.4,40.2c0,25,17.9,39.3,49.1,39.3c18.1,0,33.4-5.9,45.5-17.6c12.3-11.8,18.5-26.2,18.5-42.7v-19.2H103.6z"
				/>
			<path id="XMLID_549_" class="st1" d="M112.5,56c31.9,0,56.9,7.1,74.1,21c17.7,14.3,26.6,35.5,26.6,62.9v155.8h-45v-19.9v-2h-2
				H155h-1l-0.6,0.8c-14,18.1-37,27.2-68.4,27.2c-25.7,0-45.5-7.1-60.7-21.8C9.3,264.9,2,247.2,2,225.8c0-20.7,7.7-39.1,22.8-54.6
				C39.7,155.8,63.1,148,94.3,148h70h2v-2v-7c0-29.7-18-45.4-51.9-45.4c-29.6,0-46.2,10.2-49.4,30.3H16.6c1.6-20.1,11.2-37,27.7-49
				C61.4,62.6,85,56,112.5,56 M101.3,262.8c18.4,0,33.9-6,46.2-17.8c12.5-12,18.8-26.6,18.8-43.5v-18.2v-2h-2h-60.7
				c-16.8,0-29.9,3.6-38.9,10.8c-9,7.1-13.5,17.4-13.5,30.4C51.2,247.7,69.9,262.8,101.3,262.8 M112.5,54c-56.5,0-95.7,27.5-98,71.9
				h52.3c2.3-20.1,18.2-30.3,47.6-30.3c33.6,0,49.9,15.9,49.9,43.4v7h-70c-31.7,0-55.5,7.9-71,23.8C7.9,185.7,0,204.3,0,225.8
				c0,21.9,7.5,40.1,22.9,55.5c15.4,14.9,35.9,22.4,62.1,22.4c32.2,0,55.5-9.3,70-28h11.2v21.9h49V139.9
				C215.2,82.5,176.4,54,112.5,54L112.5,54z M101.3,260.8c-30.3,0-48.1-14-48.1-38.3c0-24.7,17.3-39.2,50.4-39.2h60.7v18.2
				c0,16.3-6.1,30.3-18.2,42C134,255.2,119,260.8,101.3,260.8L101.3,260.8z"/>
		</g>
		<g id="XMLID_543_">
			<path id="XMLID_547_" class="st0" d="M252.1,296.7V61.1H301v27.5h12.7l0.3-0.4c13.4-18,35.4-27.1,65.5-27.1h19.1v47h-20.5
				c-48.5,0-75.2,27.9-75.2,78.5v110.1H252.1z"/>
			<path id="XMLID_544_" class="st1" d="M397.6,62.1v45h-19.5c-49.2,0-76.2,28.2-76.2,79.5v109.1h-48.7V62.1H300v25.5v2h2h11.2h1
				l0.6-0.8c13.2-17.7,35-26.7,64.7-26.7H397.6 M399.6,60.1h-20.1c-30.3,0-52.7,9.3-66.3,27.5H302V60.1h-50.9v237.6h52.7V186.6
				c0-49.9,26.1-77.5,74.2-77.5h21.5V60.1L399.6,60.1z"/>
		</g>
		<g id="XMLID_538_">
			<path id="XMLID_542_" class="st0" d="M509.5,296.7c-60.3,0-87.2-21.3-87.2-69V1h50.7v60.1h56v42.8h-56v116.8
				c0,21.4,12.6,32.3,37.4,32.3h18.6v43.7H509.5z"/>
			<path id="XMLID_539_" class="st1" d="M472.1,2v58.1v2h2h54v40.8h-54h-2v2v115.8c0,22.1,12.9,33.3,38.4,33.3h17.6v41.7h-18.5
				c-59.6,0-86.2-21-86.2-68V2H472.1 M474.1,0h-52.7v227.7c0,50.9,30.8,70,88.2,70h20.5v-45.7h-19.6c-24.3,0-36.4-10.3-36.4-31.3
				V104.9h56V60.1h-56V0L474.1,0z"/>
		</g>
		<g id="XMLID_529_">
			<path id="XMLID_535_" class="st0" d="M660.9,302.7c-36.5,0-64.9-11.2-87-34.2c-21.2-23-31.9-53.3-31.9-89.9
				c0-36.4,10.7-66.4,31.9-88.9c21.9-23.3,50.4-34.7,87-34.7c36.8,0,65.1,11.3,86.6,34.7c21.5,22.4,32.4,52.3,32.4,88.9
				c0,36.8-10.9,67-32.4,89.9C726.1,291.2,697,302.7,660.9,302.7z M660.9,97.8c-41.4,0-68.2,31.7-68.2,80.8
				c0,49.4,26.8,81.3,68.2,81.3s68.2-31.9,68.2-81.3C729.1,129.6,702.3,97.8,660.9,97.8z"/>
			<path id="XMLID_530_" class="st1" d="M660.9,56c18.1,0,34.5,2.9,48.7,8.6c14.2,5.7,26.6,14.3,37.2,25.8
				c10.7,11.1,18.8,24.2,24.1,38.9c5.3,14.6,8,31.2,8,49.4c0,36.5-10.8,66.5-32.1,89.2c-10.5,11.2-23,19.7-37.1,25.4
				c-14.3,5.7-30.7,8.6-48.7,8.6c-18,0-34.4-2.9-48.7-8.6c-14.2-5.6-26.8-14.1-37.5-25.3c-21-22.8-31.7-52.9-31.7-89.2
				c0-36.2,10.7-65.9,31.7-88.3C596.3,67.3,624.6,56,660.9,56 M660.9,260.9c42,0,69.2-32.3,69.2-82.3c0-49.7-27.2-81.8-69.2-81.8
				c-42,0-69.2,32.1-69.2,81.8C591.7,228.6,618.8,260.9,660.9,260.9 M660.9,54c-36.9,0-65.8,11.7-87.8,35
				c-21.5,22.9-32.2,52.7-32.2,89.6s10.7,67.2,32.2,90.6c21.9,22.9,50.9,34.5,87.8,34.5c36.9,0,65.8-11.7,87.3-34.5
				c21.9-23.3,32.7-53.7,32.7-90.6s-10.7-66.8-32.7-89.6C726.7,65.7,697.8,54,660.9,54L660.9,54z M660.9,258.9
				c-43.4,0-67.2-35-67.2-80.3c0-44.8,23.8-79.8,67.2-79.8c43.4,0,67.2,35,67.2,79.8C728.1,223.9,704.3,258.9,660.9,258.9
				L660.9,258.9z"/>
		</g>
		<g id="XMLID_524_">
			<path id="XMLID_528_" class="st0" d="M898.2,302.7c-63.8,0-101.9-27-107.6-76h50.8c4.6,22.9,22.9,34.1,55.9,34.1
				c33.8,0,50.9-10.7,50.9-31.8c0-18.2-11.1-27.4-39.6-32.7l-49.5-8.4c-38.6-6.3-59.8-28.1-59.8-61.6c0-21.1,8.4-38.9,24.4-51.3
				c16.8-13.1,41.8-20,72.1-20c27.3,0,50.6,6.5,67.4,18.7c16.2,11.8,26.2,28.6,29,48.9h-50.8c-3.2-17.3-18.8-25.7-47.5-25.7
				c-29.2,0-43.9,8.7-43.9,25.7c0,16.1,11.4,21.3,31.2,24.8l46.2,7.5c23.8,3.9,41.8,12,53.7,24c11.9,12,17.9,28.4,17.9,48.8
				c0,20.9-9,38.8-26.7,53.4C954.6,295.4,929.7,302.7,898.2,302.7z"/>
			<path id="XMLID_525_" class="st1" d="M895.9,56c27.1,0,50.2,6.4,66.9,18.5c15.7,11.4,25.5,27.6,28.4,47.1h-48.8
				c-1.8-8.4-6.6-14.8-14.4-19.1c-8.1-4.4-19.2-6.6-33.9-6.6c-14.5,0-25.7,2.2-33.1,6.5c-7.8,4.5-11.8,11.3-11.8,20.2
				c0,16.7,12.2,22.3,32,25.8l46.2,7.5c23.6,3.9,41.4,11.9,53.1,23.7c11.7,11.8,17.6,28,17.6,48.1c0,20.6-8.9,38.3-26.3,52.6
				c-17.5,14.3-42.2,21.5-73.4,21.5c-32.5,0-58.2-6.9-76.5-20.4c-17-12.6-27.1-30.6-30-53.6h48.9c4.9,22.6,24,34.1,56.7,34.1
				c34.5,0,51.9-11,51.9-32.8c0-18.8-11.3-28.3-40.4-33.7l-49.5-8.4c-18.6-3-33.2-9.6-43.3-19.7c-10.4-10.4-15.7-24.1-15.7-40.9
				c0-20.8,8.3-38.3,24-50.5C841,62.9,865.8,56,895.9,56 M895.9,54c-64,0-97.6,29.9-97.6,72.4c0,35.5,23.3,56.5,60.7,62.5l49.5,8.4
				c27.5,5.1,38.7,13.5,38.7,31.7c0,20.5-16.8,30.8-49.9,30.8c-32.7,0-50.9-11.2-55.1-34.1h-52.7c5.1,48.5,41.5,78,108.8,78
				c32.2,0,56.9-7.5,74.7-21.9c18.2-14.9,27.1-33.1,27.1-54.1c0-41.5-24.3-65.8-72.4-73.8l-46.2-7.5c-21-3.7-30.3-9.3-30.3-23.8
				c0-16.3,14.5-24.7,42.9-24.7c28.5,0,43.9,8.4,46.7,25.7h52.7C988.3,81.1,952.4,54,895.9,54L895.9,54z"/>
		</g>
	</g>
</g>
</svg>
