<?xml version="1.0" encoding="utf-8"?>
<!-- Generator: Adobe Illustrator 19.0.0, SVG Export Plug-In . SVG Version: 6.00 Build 0)  -->
<svg version="1.1" id="logo" xmlns="http://www.w3.org/2000/svg" xmlns:xlink="http://www.w3.org/1999/xlink" x="0px" y="0px"
	 viewBox="-749 680.3 1000 303.7" style="enable-background:new -749 680.3 1000 303.7;" xml:space="preserve">
<style type="text/css">
	.st0{fill:#36AFA7;}
	.st1{fill:#FFFFFF;}
</style>
<g id="XMLID_185_">
	<g id="XMLID_326_">
		<g id="XMLID_353_">
			<path class="st0" d="M-664,982.6c-25.4,0-46-7.4-61.1-22c-15.1-15.2-22.4-33-22.4-54.5c0-20.8,7.7-39.3,22.9-55
				c15-15.5,38.5-23.3,69.9-23.3h71.5v-8.5c0-29.4-17.8-44.9-51.4-44.9c-29.5,0-46,10.2-48.9,30.3h-49.4
				c3.1-41.9,40.7-68.9,96.4-68.9c32,0,57.1,7.1,74.4,21.1c17.8,14.4,26.8,35.7,26.8,63.3v156.3h-46v-21.9h-13.4l-0.5,0.6
				C-609.3,973.4-632.4,982.6-664,982.6z M-645.4,862.1c-33.5,0-51.9,14.5-51.9,40.7c0,25.3,18.1,39.8,49.6,39.8
				c18.3,0,33.7-6,45.8-17.7c12.4-12,18.7-26.5,18.7-43.1v-19.7H-645.4z"/>
			<path class="st1" d="M-636.5,737.3c31.7,0,56.4,7,73.4,20.8c17.4,14.1,26.3,35,26.3,62.1V975h-43v-18.9v-3h-3H-594h-1.5l-0.9,1.2
				c-6.9,8.9-16,15.6-27.1,20.1c-11.2,4.5-24.9,6.8-40.5,6.8c-25.4,0-45-7-60-21.5c-14.8-14.9-22-32.4-22-53.5
				c0-20.4,7.6-38.5,22.5-53.9c14.7-15.2,37.9-22.9,68.8-22.9h70h3v-3v-7c0-29.9-18.8-46.4-52.9-46.4c-36.4,0-47.6,15.9-50.2,30.3
				h-46.5c1.8-19.3,11.2-35.5,27.2-47.1C-687.1,743.8-663.8,737.3-636.5,737.3 M-647.7,944.1c18.7,0,34.4-6.1,46.9-18.1
				c12.7-12.3,19.1-27.1,19.1-44.2v-18.2v-3h-3h-60.7c-33.9,0-53.4,15.4-53.4,42.2C-698.8,928.7-679.7,944.1-647.7,944.1
				 M-636.5,734.3c-56.5,0-95.7,27.6-98,71.9h52.3c2.3-20,18.2-30.3,47.6-30.3c33.6,0,49.9,15.9,49.9,43.4v7h-70
				c-31.8,0-55.6,7.9-71,23.8c-15.4,15.9-23.3,34.5-23.3,56c0,21.9,7.5,40.1,22.9,55.6c15.4,14.9,36,22.4,62.1,22.4
				c32.2,0,55.5-9.3,70-28h11.2V978h49V820.2C-533.8,762.8-572.6,734.3-636.5,734.3L-636.5,734.3z M-647.7,941.1
				c-30.4,0-48.1-14-48.1-38.3c0-24.7,17.3-39.2,50.4-39.2h60.7v18.2c0,16.3-6.1,30.3-18.2,42C-615,935.5-630,941.1-647.7,941.1
				L-647.7,941.1z"/>
		</g>
		<g id="XMLID_351_">
			<path class="st0" d="M-496.3,976.5V741.9h47.8v27.5h13.5l0.4-0.6c13.2-17.8,35.1-26.9,65.1-26.9h18.6v46h-20
				c-48.8,0-75.7,28.1-75.7,79v109.6H-496.3z"/>
			<path class="st1" d="M-352.4,743.4v43h-18.5c-49.8,0-77.2,28.6-77.2,80.5V975h-46.7V743.4h44.8v24.5v3h3h11.2h1.5l0.9-1.2
				c12.9-17.4,34.4-26.3,63.9-26.3H-352.4 M-349.4,740.4h-20.1c-30.4,0-52.8,9.3-66.3,27.5H-447v-27.5h-50.8V978h52.7V866.9
				c0-50,26.1-77.5,74.2-77.5h21.5V740.4L-349.4,740.4z"/>
		</g>
		<g id="XMLID_349_">
			<path class="st0" d="M-239.4,976.5c-60,0-86.7-21.1-86.7-68.5V681.8h49.7v60.1h56v41.8h-56V901c0,21.8,12.8,32.8,37.9,32.8h18.1
				v42.7H-239.4z"/>
			<path class="st1" d="M-277.9,683.3l0,57.1v3h3h53v38.8h-53h-3v3V901c0,11.4,3.4,20,10.1,25.8c6.6,5.6,16.4,8.5,29.3,8.5h16.6V975
				h-17.5c-29.2,0-50.1-5-63.8-15.3c-14.4-10.8-21.4-27.7-21.4-51.7V683.3H-277.9 M-274.9,680.3h-52.7V908c0,50.9,30.8,70,88.2,70
				h20.5v-45.7h-19.6c-24.3,0-36.4-10.3-36.4-31.3V785.2h56v-44.8h-56h0V680.3L-274.9,680.3z"/>
		</g>
		<g id="XMLID_329_">
			<path class="st0" d="M-88.1,982.5c-36.3,0-64.6-11.1-86.7-34c-21.1-22.8-31.8-53-31.8-89.6c0-36.4,10.7-66.2,31.8-88.6
				c21.8-23.2,50.2-34.5,86.7-34.5c36.6,0,64.8,11.3,86.2,34.5c21.4,22.4,32.3,52.2,32.3,88.6c0,36.6-10.9,66.8-32.3,89.6
				C-23.4,971.4-51.6,982.5-88.1,982.5z M-88.1,777.6c-41.7,0-68.7,31.9-68.7,81.3c0,49.7,27,81.8,68.7,81.8s68.7-32.1,68.7-81.8
				C-19.4,809.5-46.4,777.6-88.1,777.6z"/>
			<path class="st1" d="M-88.1,737.3c17.9,0,34.2,2.9,48.3,8.5c14,5.6,26.4,14.2,36.8,25.5l0,0l0,0c10.6,11.1,18.6,24,23.9,38.5
				c5.3,14.5,8,31,8,49c0,36.2-10.7,66-31.9,88.5c-10.4,11.1-22.8,19.6-36.8,25.1c-14.1,5.6-30.4,8.5-48.3,8.5
				c-35.8,0-63.8-11-85.6-33.6c-20.8-22.6-31.4-52.4-31.4-88.5c0-36,10.6-65.5,31.4-87.5C-152.2,748.4-124.2,737.3-88.1,737.3
				 M-88.1,942.2c42.6,0,70.2-32.7,70.2-83.3c0-49.5-28.2-82.8-70.2-82.8c-42,0-70.2,33.3-70.2,82.8
				C-158.3,909.5-130.7,942.2-88.1,942.2 M-88.1,734.3c-36.9,0-65.9,11.7-87.8,35c-21.5,22.8-32.2,52.7-32.2,89.6
				c0,36.9,10.7,67.3,32.2,90.6c22,22.8,50.9,34.5,87.8,34.5c36.9,0,65.8-11.6,87.3-34.5c21.9-23.3,32.7-53.7,32.7-90.6
				c0-36.9-10.8-66.7-32.7-89.6C-22.3,746-51.2,734.3-88.1,734.3L-88.1,734.3z M-88.1,939.2c-43.4,0-67.2-35-67.2-80.3
				c0-44.8,23.8-79.8,67.2-79.8c43.4,0,67.2,35,67.2,79.8C-20.9,904.2-44.7,939.2-88.1,939.2L-88.1,939.2z"/>
		</g>
		<g id="XMLID_327_">
			<path class="st0" d="M149.2,982.5c-32.6,0-58.4-6.9-76.8-20.5c-17.3-12.8-27.5-31.1-30.4-54.5h49.8c4.8,22.9,23.2,34.1,56.3,34.1
				c34.1,0,51.4-10.9,51.4-32.3c0-18.5-11.2-27.8-39.9-33.2l-49.5-8.4c-38.3-6.3-59.5-27.9-59.5-61c0-21,8.4-38.6,24.2-51
				c16.7-13,41.6-19.9,71.9-19.9c27.2,0,50.4,6.4,67.2,18.6c16,11.6,25.9,28.1,28.7,48H193c-3.5-17.3-19.2-25.7-48-25.7
				c-29.5,0-44.4,8.8-44.4,26.2c0,16.5,11.6,21.8,31.5,25.3l46.2,7.5c47.9,7.9,71.1,31.5,71.1,72.3c0,20.7-8.9,38.5-26.5,52.9
				C205.5,975.2,180.7,982.5,149.2,982.5z"/>
			<path class="st1" d="M146.8,737.3c26.8,0,49.8,6.3,66.3,18.3c15.2,11,24.8,26.6,27.9,45.3h-46.8c-2-8.3-6.9-14.7-14.7-19
				c-8.3-4.5-19.5-6.7-34.4-6.7c-14.7,0-26,2.2-33.6,6.6c-8.1,4.7-12.3,11.8-12.3,21.1c0,17.5,12.5,23.2,32.8,26.8l46.2,7.5
				c47,7.7,69.9,30.9,69.9,70.8c0,20.2-8.7,37.7-26,51.8c-17.2,14.1-41.7,21.2-72.8,21.2c-32.2,0-57.8-6.8-75.9-20.2
				c-16.5-12.2-26.4-29.6-29.5-51.8h46.9c5.3,22.6,24.6,34.1,57.5,34.1c17.1,0,30.2-2.7,38.9-8.2c9.3-5.7,14-14.3,14-25.6
				c0-22.4-16.5-30.1-41.2-34.7l-49.5-8.4c-18.4-3-32.7-9.5-42.7-19.4c-10.3-10.2-15.5-23.7-15.5-40.1c0-20.5,8.2-37.7,23.6-49.8
				C92.3,744.1,116.8,737.3,146.8,737.3 M146.8,734.3c-64,0-97.6,29.9-97.6,72.4c0,35.4,23.4,56.4,60.7,62.5l49.5,8.4
				c27.5,5.1,38.7,13.5,38.7,31.7c0,20.5-16.8,30.8-49.9,30.8c-32.7,0-50.9-11.2-55.1-34.1H40.4c5.2,48.6,41.6,78,108.8,78
				c32.2,0,57-7.4,74.7-21.9C242.1,947.2,251,929,251,908c0-41.6-24.3-65.9-72.4-73.8l-46.2-7.5c-21-3.7-30.3-9.3-30.3-23.8
				c0-16.3,14.4-24.7,42.9-24.7s43.9,8.4,46.7,25.7h52.7C239.2,761.4,203.3,734.3,146.8,734.3L146.8,734.3z"/>
		</g>
	</g>
</g>
</svg>
