<?xml version="1.0" encoding="utf-8"?>
<!-- Generator: Adobe Illustrator 19.0.0, SVG Export Plug-In . SVG Version: 6.00 Build 0)  -->
<svg version="1.1" id="logo" xmlns="http://www.w3.org/2000/svg" xmlns:xlink="http://www.w3.org/1999/xlink" x="0px" y="0px"
	 viewBox="-139 489.3 1000 303.7" style="enable-background:new -139 489.3 1000 303.7;" xml:space="preserve">
<style type="text/css">
	.st0{fill:#FFFFFF;}
</style>
<g id="XMLID_353_">
	<path class="st0" d="M-26.5,546.3c31.7,0,56.4,7,73.4,20.8c17.4,14.1,26.3,35,26.3,62.1V784h-43v-18.9v-3h-3H16h-1.5l-0.9,1.2
		c-6.9,8.9-16,15.6-27.1,20.1c-11.2,4.5-24.9,6.8-40.5,6.8c-25.4,0-45-7-60-21.5c-14.8-14.9-22-32.4-22-53.5
		c0-20.4,7.6-38.5,22.5-53.9c14.7-15.2,37.9-22.9,68.8-22.9h70h3v-3v-7c0-29.9-18.8-46.4-52.9-46.4c-36.4,0-47.6,15.9-50.2,30.3
		h-46.5c1.8-19.3,11.2-35.5,27.2-47.1C-77.1,552.8-53.8,546.3-26.5,546.3 M-37.7,753.1c18.7,0,34.4-6.1,46.9-18.1
		c12.7-12.3,19.1-27.1,19.1-44.2v-18.2v-3h-3h-60.7c-33.9,0-53.4,15.4-53.4,42.2C-88.8,737.7-69.7,753.1-37.7,753.1 M-26.5,543.3
		c-56.5,0-95.7,27.6-98,71.9h52.3c2.3-20,18.2-30.3,47.6-30.3c33.6,0,49.9,15.9,49.9,43.4v7h-70c-31.8,0-55.6,7.9-71,23.8
		c-15.4,15.9-23.3,34.5-23.3,56c0,21.9,7.5,40.1,22.9,55.6c15.4,14.9,36,22.4,62.1,22.4c32.2,0,55.5-9.3,70-28h11.2V787h49V629.2
		C76.2,571.8,37.4,543.3-26.5,543.3L-26.5,543.3z M-37.7,750.1c-30.4,0-48.1-14-48.1-38.3c0-24.7,17.3-39.2,50.4-39.2h60.7v18.2
		c0,16.3-6.1,30.3-18.2,42S-20,750.1-37.7,750.1L-37.7,750.1z"/>
</g>
<g id="XMLID_351_">
	<path class="st0" d="M257.6,552.4v43h-18.5c-49.8,0-77.2,28.6-77.2,80.5V784h-46.7V552.4H160v24.5v3h3h11.2h1.5l0.9-1.2
		c12.9-17.4,34.4-26.3,63.9-26.3H257.6 M260.6,549.4h-20.1c-30.4,0-52.8,9.3-66.3,27.5H163v-27.5h-50.8V787h52.7V675.9
		c0-50,26.1-77.5,74.2-77.5h21.5L260.6,549.4L260.6,549.4z"/>
</g>
<g id="XMLID_349_">
	<path class="st0" d="M332.1,492.3v57.1v3h3h53v38.8h-53h-3v3V710c0,11.4,3.4,20,10.1,25.8c6.6,5.6,16.4,8.5,29.3,8.5h16.6V784
		h-17.5c-29.2,0-50.1-5-63.8-15.3c-14.4-10.8-21.4-27.7-21.4-51.7V492.3H332.1 M335.1,489.3h-52.7V717c0,50.9,30.8,70,88.2,70h20.5
		v-45.7h-19.6c-24.3,0-36.4-10.3-36.4-31.3V594.2h56v-44.8h-56l0,0L335.1,489.3L335.1,489.3z"/>
</g>
<g id="XMLID_329_">
	<path class="st0" d="M521.9,546.3c17.9,0,34.2,2.9,48.3,8.5c14,5.6,26.4,14.2,36.8,25.5l0,0l0,0c10.6,11.1,18.6,24,23.9,38.5
		c5.3,14.5,8,31,8,49c0,36.2-10.7,66-31.9,88.5c-10.4,11.1-22.8,19.6-36.8,25.1c-14.1,5.6-30.4,8.5-48.3,8.5
		c-35.8,0-63.8-11-85.6-33.6c-20.8-22.6-31.4-52.4-31.4-88.5c0-36,10.6-65.5,31.4-87.5C457.8,557.4,485.8,546.3,521.9,546.3
		 M521.9,751.2c42.6,0,70.2-32.7,70.2-83.3c0-49.5-28.2-82.8-70.2-82.8s-70.2,33.3-70.2,82.8C451.7,718.5,479.3,751.2,521.9,751.2
		 M521.9,543.3c-36.9,0-65.9,11.7-87.8,35c-21.5,22.8-32.2,52.7-32.2,89.6c0,36.9,10.7,67.3,32.2,90.6c22,22.8,50.9,34.5,87.8,34.5
		c36.9,0,65.8-11.6,87.3-34.5c21.9-23.3,32.7-53.7,32.7-90.6c0-36.9-10.8-66.7-32.7-89.6C587.7,555,558.8,543.3,521.9,543.3
		L521.9,543.3z M521.9,748.2c-43.4,0-67.2-35-67.2-80.3c0-44.8,23.8-79.8,67.2-79.8c43.4,0,67.2,35,67.2,79.8
		C589.1,713.2,565.3,748.2,521.9,748.2L521.9,748.2z"/>
</g>
<g id="XMLID_327_">
	<path class="st0" d="M756.8,546.3c26.8,0,49.8,6.3,66.3,18.3c15.2,11,24.8,26.6,27.9,45.3h-46.8c-2-8.3-6.9-14.7-14.7-19
		c-8.3-4.5-19.5-6.7-34.4-6.7c-14.7,0-26,2.2-33.6,6.6c-8.1,4.7-12.3,11.8-12.3,21.1c0,17.5,12.5,23.2,32.8,26.8l46.2,7.5
		c47,7.7,69.9,30.9,69.9,70.8c0,20.2-8.7,37.7-26,51.8c-17.2,14.1-41.7,21.2-72.8,21.2c-32.2,0-57.8-6.8-75.9-20.2
		c-16.5-12.2-26.4-29.6-29.5-51.8h46.9c5.3,22.6,24.6,34.1,57.5,34.1c17.1,0,30.2-2.7,38.9-8.2c9.3-5.7,14-14.3,14-25.6
		c0-22.4-16.5-30.1-41.2-34.7l-49.5-8.4c-18.4-3-32.7-9.5-42.7-19.4c-10.3-10.2-15.5-23.7-15.5-40.1c0-20.5,8.2-37.7,23.6-49.8
		C702.3,553.1,726.8,546.3,756.8,546.3 M756.8,543.3c-64,0-97.6,29.9-97.6,72.4c0,35.4,23.4,56.4,60.7,62.5l49.5,8.4
		c27.5,5.1,38.7,13.5,38.7,31.7c0,20.5-16.8,30.8-49.9,30.8c-32.7,0-50.9-11.2-55.1-34.1h-52.7c5.2,48.6,41.6,78,108.8,78
		c32.2,0,57-7.4,74.7-21.9C852.1,756.2,861,738,861,717c0-41.6-24.3-65.9-72.4-73.8l-46.2-7.5c-21-3.7-30.3-9.3-30.3-23.8
		c0-16.3,14.4-24.7,42.9-24.7s43.9,8.4,46.7,25.7h52.7C849.2,570.4,813.3,543.3,756.8,543.3L756.8,543.3z"/>
</g>
</svg>
