<?xml version="1.0" encoding="utf-8"?>
<!-- Generator: Adobe Illustrator 19.0.0, SVG Export Plug-In . SVG Version: 6.00 Build 0)  -->
<svg version="1.1" id="logo" xmlns="http://www.w3.org/2000/svg" xmlns:xlink="http://www.w3.org/1999/xlink" x="0px" y="0px"
	 viewBox="-139 489.3 1000 303.7" style="enable-background:new -139 489.3 1000 303.7;" xml:space="preserve">
<style type="text/css">
	.st0{fill:#2BB9AF;}
</style>
<g id="XMLID_185_">
	<g id="XMLID_326_">
		<g id="XMLID_353_">
			<path class="st0" d="M27.2,787v-21.9H16c-14.5,18.7-37.8,28-70,28c-26.1,0-46.7-7.5-62.1-22.4c-15.4-15.5-22.9-33.7-22.9-55.6
				c0-21.5,7.9-40.1,23.3-56c15.4-15.9,39.2-23.8,71-23.8h70v-7c0-27.5-16.3-43.4-49.9-43.4c-29.4,0-45.3,10.3-47.6,30.3h-52.3
				c2.3-44.3,41.5-71.9,98-71.9c63.9,0,102.7,28.5,102.7,85.9V787H27.2z M7.1,732.8c12.1-11.7,18.2-25.7,18.2-42v-18.2h-60.7
				c-33.1,0-50.4,14.5-50.4,39.2c0,24.3,17.7,38.3,48.1,38.3C-20,750.1-5,744.5,7.1,732.8z"/>
		</g>
		<g id="XMLID_351_">
			<path class="st0" d="M260.6,549.4v49h-21.5c-48.1,0-74.2,27.5-74.2,77.5V787h-52.7V549.4H163v27.5h11.2
				c13.5-18.2,35.9-27.5,66.3-27.5H260.6z"/>
		</g>
		<g id="XMLID_349_">
			<path class="st0" d="M335.1,549.4h56v44.8h-56V710c0,21,12.1,31.3,36.4,31.3h19.6V787h-20.5c-57.4,0-88.2-19.1-88.2-70V489.3
				h52.7L335.1,549.4L335.1,549.4z"/>
		</g>
		<g id="XMLID_329_">
			<path class="st0" d="M609.2,758.5c-21.5,22.9-50.4,34.5-87.3,34.5c-36.9,0-65.8-11.7-87.8-34.5c-21.5-23.3-32.2-53.7-32.2-90.6
				c0-36.9,10.7-66.8,32.2-89.6c21.9-23.3,50.9-35,87.8-35c36.9,0,65.8,11.7,87.3,35c21.9,22.9,32.7,52.7,32.7,89.6
				S631.1,735.2,609.2,758.5z M521.9,588.1c-43.4,0-67.2,35-67.2,79.8c0,45.3,23.8,80.3,67.2,80.3c43.4,0,67.2-35,67.2-80.3
				C589.1,623.1,565.3,588.1,521.9,588.1z"/>
		</g>
		<g id="XMLID_327_">
			<path class="st0" d="M801.7,612.9c-2.8-17.3-18.2-25.7-46.7-25.7s-42.9,8.4-42.9,24.7c0,14.5,9.3,20.1,30.3,23.8l46.2,7.5
				c48.1,7.9,72.4,32.2,72.4,73.8c0,21-8.9,39.2-27.1,54.1c-17.7,14.5-42.5,21.9-74.7,21.9c-67.2,0-103.6-29.4-108.8-78h52.7
				c4.2,22.9,22.4,34.1,55.1,34.1c33.1,0,49.9-10.3,49.9-30.8c0-18.2-11.2-26.6-38.7-31.7l-49.5-8.4c-37.3-6.1-60.7-27.1-60.7-62.5
				c0-42.5,33.6-72.4,97.6-72.4c56.5,0,92.4,27.1,97.6,69.6C854.4,612.9,801.7,612.9,801.7,612.9z"/>
		</g>
	</g>
</g>
</svg>
