<?xml version="1.0" encoding="utf-8"?>
<!-- Generator: Adobe Illustrator 19.0.0, SVG Export Plug-In . SVG Version: 6.00 Build 0)  -->
<svg version="1.1" id="Layer_1" xmlns="http://www.w3.org/2000/svg" xmlns:xlink="http://www.w3.org/1999/xlink" x="0px" y="0px"
	 viewBox="-226 482 825.5 317" style="enable-background:new -226 482 825.5 317;" xml:space="preserve">
<style type="text/css">
	.st0{fill:#FFFFFF;}
	.st1{fill:#2BB9AF;}
</style>
<rect x="-226" y="482" class="st0" width="825.5" height="317"/>
<g id="logo">
	<g id="XMLID_4_">
		<g id="XMLID_113_">
			<path id="XMLID_123_" class="st1" d="M-35.8,719.7v-14.6h-7.5c-9.7,12.5-25.2,18.7-46.7,18.7c-17.4,0-31.1-5-41.4-14.9
				c-10.3-10.3-15.3-22.4-15.3-37c0-14.3,5.3-26.8,15.6-37.4c10.3-10.6,26.2-15.9,47.3-15.9h46.7v-4.7c0-18.4-10.9-29-33.3-29
				c-19.6,0-30.2,6.8-31.8,20.2h-34.9c1.6-29.6,27.7-47.9,65.4-47.9c42.6,0,68.5,19,68.5,57.3v105.2H-35.8L-35.8,719.7z
				 M-49.2,683.6c8.1-7.8,12.1-17.1,12.1-28v-12.1h-40.5c-22.1,0-33.6,9.6-33.6,26.1c0,16.2,11.8,25.5,32.1,25.5
				C-67.3,695.1-57.3,691.4-49.2,683.6z"/>
			<path id="XMLID_121_" class="st1" d="M119.8,561.3V594h-14.3C73.4,594,56,612.4,56,645.7v74.1H20.8V561.3h33.9v18.4h7.5
				c9-12.1,24-18.4,44.2-18.4H119.8z"/>
			<path id="XMLID_119_" class="st1" d="M169.5,561.3h37.4v29.9h-37.4v77.2c0,14,8.1,20.9,24.3,20.9h13.1v30.5h-13.7
				c-38.3,0-58.8-12.8-58.8-46.7V521.2h35.2v40.1H169.5z"/>
			<path id="XMLID_116_" class="st1" d="M352.3,700.7c-14.3,15.3-33.6,23-58.2,23c-24.6,0-43.9-7.8-58.5-23
				c-14.3-15.6-21.5-35.8-21.5-60.4s7.2-44.5,21.5-59.8c14.6-15.6,33.9-23.3,58.5-23.3c24.6,0,43.9,7.8,58.2,23.3
				c14.6,15.3,21.8,35.2,21.8,59.8C374.1,664.9,366.9,685.2,352.3,700.7z M294.1,587.1c-29,0-44.8,23.3-44.8,53.2
				c0,30.2,15.9,53.5,44.8,53.5c29,0,44.8-23.3,44.8-53.5C338.9,610.4,323.1,587.1,294.1,587.1z"/>
			<path id="XMLID_114_" class="st1" d="M480.7,603.6c-1.9-11.5-12.1-17.1-31.1-17.1S421,592.1,421,603c0,9.7,6.2,13.4,20.2,15.9
				l30.8,5c32.1,5.3,48.3,21.5,48.3,49.2c0,14-5.9,26.2-18.1,36.1c-11.8,9.6-28.3,14.6-49.8,14.6c-44.8,0-69.1-19.6-72.5-52h35.2
				c2.8,15.3,14.9,22.7,36.7,22.7c22.1,0,33.3-6.8,33.3-20.5c0-12.1-7.5-17.7-25.8-21.2l-33-5.6c-24.9-4-40.5-18.1-40.5-41.7
				c0-28.3,22.4-48.3,65.1-48.3c37.7,0,61.6,18.1,65.1,46.4L480.7,603.6L480.7,603.6z"/>
		</g>
	</g>
</g>
</svg>
