<?xml version="1.0" encoding="utf-8"?>
<!-- Generator: Adobe Illustrator 19.0.0, SVG Export Plug-In . SVG Version: 6.00 Build 0)  -->
<svg version="1.1" id="logo" xmlns="http://www.w3.org/2000/svg" xmlns:xlink="http://www.w3.org/1999/xlink" x="0px" y="0px"
	 viewBox="-749 680.3 1000 303.7" style="enable-background:new -749 680.3 1000 303.7;" xml:space="preserve">
<style type="text/css">
	.st0{fill:#101010;}
</style>
<g id="XMLID_185_">
	<g id="XMLID_326_">
		<g id="XMLID_353_">
			<path class="st0" d="M-582.8,978v-21.9H-594c-14.5,18.7-37.8,28-70,28c-26.1,0-46.7-7.5-62.1-22.4
				c-15.4-15.5-22.9-33.7-22.9-55.6c0-21.5,7.9-40.1,23.3-56c15.4-15.9,39.2-23.8,71-23.8h70v-7c0-27.5-16.3-43.4-49.9-43.4
				c-29.4,0-45.3,10.3-47.6,30.3h-52.3c2.3-44.3,41.5-71.9,98-71.9c63.9,0,102.7,28.5,102.7,85.9V978H-582.8z M-602.9,923.8
				c12.1-11.7,18.2-25.7,18.2-42v-18.2h-60.7c-33.1,0-50.4,14.5-50.4,39.2c0,24.3,17.7,38.3,48.1,38.3
				C-630,941.1-615,935.5-602.9,923.8z"/>
		</g>
		<g id="XMLID_351_">
			<path class="st0" d="M-349.4,740.4v49h-21.5c-48.1,0-74.2,27.5-74.2,77.5V978h-52.7V740.4h50.8v27.5h11.2
				c13.5-18.2,35.9-27.5,66.3-27.5H-349.4z"/>
		</g>
		<g id="XMLID_349_">
			<path class="st0" d="M-274.9,740.4h56v44.8h-56V901c0,21,12.1,31.3,36.4,31.3h19.6V978h-20.5c-57.4,0-88.2-19.1-88.2-70V680.3
				h52.7L-274.9,740.4L-274.9,740.4z"/>
		</g>
		<g id="XMLID_329_">
			<path class="st0" d="M-0.8,949.5C-22.3,972.4-51.2,984-88.1,984c-36.9,0-65.8-11.7-87.8-34.5c-21.5-23.3-32.2-53.7-32.2-90.6
				c0-36.9,10.7-66.8,32.2-89.6c21.9-23.3,50.9-35,87.8-35c36.9,0,65.8,11.7,87.3,35c21.9,22.9,32.7,52.7,32.7,89.6
				C31.9,895.8,21.1,926.2-0.8,949.5z M-88.1,779.1c-43.4,0-67.2,35-67.2,79.8c0,45.3,23.8,80.3,67.2,80.3s67.2-35,67.2-80.3
				C-20.9,814.1-44.7,779.1-88.1,779.1z"/>
		</g>
		<g id="XMLID_327_">
			<path class="st0" d="M191.7,803.9c-2.8-17.3-18.2-25.7-46.7-25.7s-42.9,8.4-42.9,24.7c0,14.5,9.3,20.1,30.3,23.8l46.2,7.5
				c48.1,7.9,72.4,32.2,72.4,73.8c0,21-8.9,39.2-27.1,54.1c-17.7,14.5-42.5,21.9-74.7,21.9C82,984,45.6,954.6,40.4,906h52.7
				c4.2,22.9,22.4,34.1,55.1,34.1c33.1,0,49.9-10.3,49.9-30.8c0-18.2-11.2-26.6-38.7-31.7l-49.5-8.4c-37.3-6.1-60.7-27.1-60.7-62.5
				c0-42.5,33.6-72.4,97.6-72.4c56.5,0,92.4,27.1,97.6,69.6C244.4,803.9,191.7,803.9,191.7,803.9z"/>
		</g>
	</g>
</g>
</svg>
