<?xml version="1.0" encoding="utf-8"?>
<!-- Generator: Adobe Illustrator 19.0.0, SVG Export Plug-In . SVG Version: 6.00 Build 0)  -->
<svg version="1.1" id="logo" xmlns="http://www.w3.org/2000/svg" xmlns:xlink="http://www.w3.org/1999/xlink" x="0px" y="0px"
	 viewBox="0 0 1000 303.7" style="enable-background:new 0 0 1000 303.7;" xml:space="preserve">
<style type="text/css">
	.st0{fill:#6C8096;}
</style>
<g id="XMLID_185_">
	<g id="XMLID_395_">
		<g id="XMLID_409_">
			<path id="XMLID_410_" class="st0" d="M166.2,297.7v-21.9H155c-14.5,18.7-37.8,28-70,28c-26.1,0-46.7-7.5-62.1-22.4
				C7.5,265.9,0,247.7,0,225.8c0-21.5,7.9-40.1,23.3-56c15.4-15.9,39.2-23.8,71-23.8h70v-7c0-27.5-16.3-43.4-49.9-43.4
				c-29.4,0-45.3,10.3-47.6,30.3H14.5C16.8,81.6,56,54,112.5,54c63.9,0,102.7,28.5,102.7,85.9v157.8H166.2z M146.1,243.5
				c12.1-11.7,18.2-25.7,18.2-42v-18.2h-60.7c-33.1,0-50.4,14.5-50.4,39.2c0,24.3,17.7,38.3,48.1,38.3
				C119,260.8,134,255.2,146.1,243.5z"/>
		</g>
		<g id="XMLID_406_">
			<path id="XMLID_407_" class="st0" d="M399.6,60.1v49h-21.5c-48.1,0-74.2,27.5-74.2,77.5v111.1h-52.7V60.1H302v27.5h11.2
				c13.5-18.2,35.9-27.5,66.3-27.5H399.6z"/>
		</g>
		<g id="XMLID_403_">
			<path id="XMLID_404_" class="st0" d="M474.1,60.1h56v44.8h-56v115.8c0,21,12.1,31.3,36.4,31.3h19.6v45.7h-20.5
				c-57.4,0-88.2-19.1-88.2-70V0h52.7V60.1z"/>
		</g>
		<g id="XMLID_399_">
			<path id="XMLID_400_" class="st0" d="M748.2,269.2c-21.5,22.9-50.4,34.5-87.3,34.5c-36.9,0-65.8-11.7-87.8-34.5
				c-21.5-23.3-32.2-53.7-32.2-90.6s10.7-66.8,32.2-89.6c21.9-23.3,50.9-35,87.8-35c36.9,0,65.8,11.7,87.3,35
				c21.9,22.9,32.7,52.7,32.7,89.6S770.1,245.9,748.2,269.2z M660.9,98.8c-43.4,0-67.2,35-67.2,79.8c0,45.3,23.8,80.3,67.2,80.3
				c43.4,0,67.2-35,67.2-80.3C728.1,133.8,704.3,98.8,660.9,98.8z"/>
		</g>
		<g id="XMLID_396_">
			<path id="XMLID_397_" class="st0" d="M940.7,123.6c-2.8-17.3-18.2-25.7-46.7-25.7c-28.5,0-42.9,8.4-42.9,24.7
				c0,14.5,9.3,20.1,30.3,23.8l46.2,7.5c48.1,7.9,72.4,32.2,72.4,73.8c0,21-8.9,39.2-27.1,54.1c-17.7,14.5-42.5,21.9-74.7,21.9
				c-67.2,0-103.6-29.4-108.8-78h52.7c4.2,22.9,22.4,34.1,55.1,34.1c33.1,0,49.9-10.3,49.9-30.8c0-18.2-11.2-26.6-38.7-31.7
				l-49.5-8.4c-37.3-6.1-60.7-27.1-60.7-62.5c0-42.5,33.6-72.4,97.6-72.4c56.5,0,92.4,27.1,97.6,69.6H940.7z"/>
		</g>
	</g>
</g>
</svg>
