<?xml version="1.0" encoding="utf-8"?>
<!-- Generator: Adobe Illustrator 19.0.0, SVG Export Plug-In . SVG Version: 6.00 Build 0)  -->
<svg version="1.1" id="Layer_1" xmlns="http://www.w3.org/2000/svg" xmlns:xlink="http://www.w3.org/1999/xlink" x="0px" y="0px"
	 viewBox="-757 594.6 983.8 475.4" style="enable-background:new -757 594.6 983.8 475.4;" xml:space="preserve">
<style type="text/css">
	.st0{fill:#FFFFFF;}
	.st1{fill:#36AFA7;}
</style>
<g id="bg">
	<g id="XMLID_184_">
		<rect id="XMLID_217_" x="-757" y="594.6" class="st0" width="983.8" height="475.4"/>
	</g>
</g>
<g id="logo">
	<g id="XMLID_185_">
		<g id="XMLID_316_">
			<path id="XMLID_326_" class="st1" d="M-487.7,911.5v-14.6h-7.5c-9.7,12.5-25.2,18.7-46.7,18.7c-17.4,0-31.1-5-41.4-14.9
				c-10.3-10.3-15.3-22.4-15.3-37c0-14.3,5.3-26.8,15.6-37.4c10.3-10.6,26.2-15.9,47.3-15.9h46.7v-4.7c0-18.4-10.9-29-33.3-29
				c-19.6,0-30.2,6.8-31.8,20.2H-589c1.6-29.6,27.7-47.9,65.4-47.9c42.6,0,68.5,19,68.5,57.3v105.2H-487.7L-487.7,911.5z
				 M-501.1,875.4c8.1-7.8,12.1-17.1,12.1-28v-12.1h-40.5c-22.1,0-33.6,9.6-33.6,26.1c0,16.2,11.8,25.5,32.1,25.5
				C-519.2,886.9-509.2,883.2-501.1,875.4z"/>
			<path id="XMLID_324_" class="st1" d="M-332.1,753.1v32.7h-14.3c-32.1,0-49.5,18.4-49.5,51.7v74.1h-35.2V753.1h33.9v18.4h7.5
				c9-12.1,24-18.4,44.2-18.4H-332.1z"/>
			<path id="XMLID_322_" class="st1" d="M-282.4,753.1h37.4V783h-37.4v77.2c0,14,8.1,20.9,24.3,20.9h13.1v30.5h-13.7
				c-38.3,0-58.8-12.8-58.8-46.7V713h35.2v40.1H-282.4z"/>
			<path id="XMLID_319_" class="st1" d="M-99.6,892.5c-14.3,15.3-33.6,23-58.2,23c-24.6,0-43.9-7.8-58.5-23
				c-14.3-15.6-21.5-35.8-21.5-60.4s7.2-44.5,21.5-59.8c14.6-15.6,33.9-23.3,58.5-23.3s43.9,7.8,58.2,23.3
				c14.6,15.3,21.8,35.2,21.8,59.8S-85,877-99.6,892.5z M-157.8,778.9c-29,0-44.8,23.3-44.8,53.2c0,30.2,15.9,53.5,44.8,53.5
				c29,0,44.8-23.3,44.8-53.5C-113,802.2-128.8,778.9-157.8,778.9z"/>
			<path id="XMLID_317_" class="st1" d="M28.8,795.4c-1.9-11.5-12.1-17.1-31.1-17.1s-28.6,5.6-28.6,16.5c0,9.7,6.2,13.4,20.2,15.9
				l30.8,5c32.1,5.3,48.3,21.5,48.3,49.2c0,14-5.9,26.2-18.1,36.1c-11.8,9.6-28.3,14.6-49.8,14.6c-44.8,0-69.1-19.6-72.5-52h35.2
				c2.8,15.3,14.9,22.7,36.7,22.7c22.1,0,33.3-6.8,33.3-20.5c0-12.1-7.5-17.7-25.8-21.2l-33-5.6c-24.9-4-40.5-18.1-40.5-41.7
				C-66.1,769-43.7,749-1,749c37.7,0,61.6,18.1,65.1,46.4L28.8,795.4L28.8,795.4z"/>
		</g>
	</g>
</g>
</svg>
