<?xml version="1.0" encoding="utf-8"?>
<!-- Generator: Adobe Illustrator 22.0.0, SVG Export Plug-In . SVG Version: 6.00 Build 0)  -->
<svg version="1.1" id="logotype_v" xmlns="http://www.w3.org/2000/svg" xmlns:xlink="http://www.w3.org/1999/xlink" x="0px" y="0px"
	 viewBox="0 0 1200 1200" style="enable-background:new 0 0 1200 1200;" xml:space="preserve">
<style type="text/css">
	.st0{fill:#F5F1FE;}
	.st1{fill:#9829E0;}
</style>
<rect id="bg" x="0" y="0" class="st0" width="1200" height="1200"/>
<g id="logo">
	<g>
		<path class="st1" d="M368.6,856.9h41.7v84.4h-16.6v-32.4h-13.3l-24.7,32.4h-20.7l25.3-33.2c-14.2-2.7-20.8-13.5-20.8-25.3
			C339.4,868.9,348.5,856.9,368.6,856.9z M393.6,871.7h-23.9c-8.6,0-13.7,4.3-13.7,11.1s5.1,11.2,13.7,11.2h23.9V871.7z"/>
		<path class="st1" d="M478.6,856.9h16.8l-32.9,64.6c-7.8,14.9-11.2,19.8-24,19.8h-10.8v-14.9h9.4c5.1,0,7.5-1.7,9.5-6.1l1-2.3
			L416,856.9h17l22.7,44L478.6,856.9z"/>
		<path class="st1" d="M563.5,916.5c0,13.7-12.3,26.4-35.1,26.4c-22,0-32.7-10.8-37.1-25h16.9c3.7,7.1,10.9,10.2,20.2,10.2
			c10.7,0,18.4-4.3,18.4-11.4c0-6.7-5.1-10-13.2-10H515v-14.9h18.7c8.1,0,13.2-3.4,13.2-9.9c0-6.5-6.4-11.7-17.5-11.7
			c-9.3,0-17.8,3.7-20.5,10.2h-16.8c3.7-12.8,15.8-25,37-25c20.7,0,34.4,10.9,34.4,26.4c0,7.6-3.3,13.7-9.8,17.4
			C560.2,902.8,563.5,908.9,563.5,916.5z"/>
		<path class="st1" d="M631.2,941.3v-34.8h-40.9v34.8h-16.6v-84.4h16.6v34.7h40.9v-34.7h16.6v84.4H631.2z"/>
		<path class="st1" d="M742.3,941.3h-17.7l-8.3-18.7h-38.5l-8.3,18.7h-17l36.7-84.4h16.3L742.3,941.3z M684.5,907.7h25.3L697.2,879
			L684.5,907.7z"/>
		<path class="st1" d="M779,906.4h-15.4v34.8H747v-84.4h16.6v34.7H779c3.1-21,19.8-36.3,42.7-36.3c25.9,0,43.3,19.1,43.3,43.8
			c0,24.4-17.4,43.8-43.3,43.8C798.9,942.9,782.1,927.4,779,906.4z M848.4,899.1c0-16.4-10.9-29-26.7-29c-15.6,0-26.6,12.6-26.6,29
			c0,16.3,10.9,29,26.6,29C837.5,928,848.4,915.3,848.4,899.1z"/>
	</g>
	<g>
		<polygon class="st1" points="572.8,459.1 461.8,459.1 654.7,635.7 452.5,812.3 563.4,812.3 758.7,635.7 		"/>
		<g>
			<path class="st1" d="M673.9,257.1H527.4c-101.5,0-183.8,82.3-183.8,183.8v54.4c0,101.5,82.3,183.8,183.8,183.8H680v-85.5H439
				c-5.5,0-10-4.5-10-10V352.5c0-5.5,4.5-10,10-10h323.3c5.5,0,10,4.5,10,10v459.7h85.5V440.9C857.7,339.4,775.4,257.1,673.9,257.1z
				"/>
		</g>
	</g>
</g>
</svg>
