<?xml version="1.0" encoding="utf-8"?>
<!-- Generator: Adobe Illustrator 22.0.0, SVG Export Plug-In . SVG Version: 6.00 Build 0)  -->
<svg version="1.1" id="logotype_v" xmlns="http://www.w3.org/2000/svg" xmlns:xlink="http://www.w3.org/1999/xlink" x="0px" y="0px"
	 viewBox="0 0 864 170.1" style="enable-background:new 0 0 864 170.1;" xml:space="preserve">
<style type="text/css">
	.st0{fill:#C06CF5;}
</style>
<g id="logo">
	<g>
		<path class="st0" d="M235.1,61.1h52.8V168h-21.1v-41h-16.9l-31.2,41h-26.2l32-42c-18-3.4-26.4-17.1-26.4-32
			C198.1,76.4,209.7,61.1,235.1,61.1z M266.8,80h-30.3c-10.9,0-17.4,5.5-17.4,14s6.4,14.2,17.4,14.2h30.3V80z"/>
		<path class="st0" d="M374.4,61.1h21.2l-41.7,81.8c-9.8,18.8-14.2,25.1-30.4,25.1h-13.7v-18.8h11.9c6.4,0,9.5-2.1,12.1-7.7l1.3-2.9
			l-39.9-77.4h21.6l28.8,55.7L374.4,61.1z"/>
		<path class="st0" d="M482,136.6c0,17.4-15.6,33.5-44.4,33.5c-27.8,0-41.4-13.7-47-31.7H412c4.7,9,13.8,12.9,25.6,12.9
			c13.5,0,23.3-5.5,23.3-14.5c0-8.5-6.4-12.7-16.7-12.7h-23.7v-18.8h23.7c10.3,0,16.7-4.3,16.7-12.6s-8-14.8-22.2-14.8
			c-11.8,0-22.5,4.7-25.9,12.9h-21.2c4.7-16.3,20-31.7,46.8-31.7c26.2,0,43.6,13.8,43.6,33.5c0,9.7-4.2,17.4-12.4,22.1
			C477.8,119.2,482,127,482,136.6z"/>
		<path class="st0" d="M567.8,168v-44.1h-51.8V168h-21.1V61.1h21.1v43.9h51.8V61.1h21.1V168H567.8z"/>
		<path class="st0" d="M708.5,168h-22.4l-10.5-23.7h-48.8L616.4,168h-21.6l46.5-106.9h20.6L708.5,168z M635.2,125.5h32l-15.9-36.4
			L635.2,125.5z"/>
		<path class="st0" d="M755,123.9h-19.5V168h-21.1V61.1h21.1v43.9H755c3.9-26.6,25.1-46,54.1-46c32.8,0,54.9,24.1,54.9,55.5
			c0,30.9-22.1,55.5-54.9,55.5C780.1,170.1,758.8,150.5,755,123.9z M842.9,114.6c0-20.8-13.8-36.7-33.8-36.7
			c-19.8,0-33.6,15.9-33.6,36.7c0,20.6,13.8,36.7,33.6,36.7C829,151.3,842.9,135.2,842.9,114.6z"/>
	</g>
	<g>
		<polygon class="st0" points="69.4,61.1 35.8,61.1 94.2,114.6 33,168 66.5,168 125.6,114.6 		"/>
		<g>
			<path class="st0" d="M100,0H55.6C24.9,0,0,24.9,0,55.6v16.5c0,30.7,24.9,55.6,55.6,55.6h46.2v-25.9H28.9c-1.7,0-3-1.4-3-3v-70
				c0-1.7,1.4-3,3-3h97.8c1.7,0,3,1.4,3,3V168h25.9V55.6C155.6,24.9,130.7,0,100,0z"/>
		</g>
	</g>
</g>
</svg>
