<?xml version="1.0" encoding="utf-8"?>
<!-- Generator: Adobe Illustrator 22.0.0, SVG Export Plug-In . SVG Version: 6.00 Build 0)  -->
<svg version="1.1" id="logotype_v" xmlns="http://www.w3.org/2000/svg" xmlns:xlink="http://www.w3.org/1999/xlink" x="0px" y="0px"
	 viewBox="0 0 530.1 685.8" style="enable-background:new 0 0 530.1 685.8;" xml:space="preserve">
<style type="text/css">
	.st0{fill:#FFFFFF;}
</style>
<g id="logo">
	<g>
		<path class="st0" d="M33.7,599.8h41.7v84.4H58.7v-32.4H45.4l-24.7,32.4H0L25.3,651c-14.2-2.7-20.8-13.5-20.8-25.3
			C4.4,611.9,13.6,599.8,33.7,599.8z M58.7,614.7H34.8c-8.6,0-13.7,4.3-13.7,11.1s5.1,11.2,13.7,11.2h23.9V614.7z"/>
		<path class="st0" d="M143.6,599.8h16.8l-32.9,64.6c-7.8,14.9-11.2,19.8-24,19.8H92.7v-14.9h9.4c5.1,0,7.5-1.7,9.5-6.1l1-2.3
			l-31.5-61.1h17l22.7,44L143.6,599.8z"/>
		<path class="st0" d="M228.6,659.4c0,13.7-12.3,26.4-35.1,26.4c-22,0-32.7-10.8-37.1-25h16.9c3.7,7.1,10.9,10.2,20.2,10.2
			c10.7,0,18.4-4.3,18.4-11.4c0-6.7-5.1-10-13.2-10h-18.7v-14.9h18.7c8.1,0,13.2-3.4,13.2-9.9c0-6.5-6.4-11.7-17.5-11.7
			c-9.3,0-17.8,3.7-20.5,10.2h-16.8c3.7-12.8,15.8-25,37-25c20.7,0,34.4,10.9,34.4,26.4c0,7.6-3.3,13.7-9.8,17.4
			C225.3,645.7,228.6,651.8,228.6,659.4z"/>
		<path class="st0" d="M296.3,684.2v-34.8h-40.9v34.8h-16.6v-84.4h16.6v34.7h40.9v-34.7H313v84.4H296.3z"/>
		<path class="st0" d="M407.4,684.2h-17.7l-8.3-18.7h-38.5l-8.3,18.7h-17l36.7-84.4h16.3L407.4,684.2z M349.6,650.6h25.3l-12.6-28.7
			L349.6,650.6z"/>
		<path class="st0" d="M444.1,649.3h-15.4v34.8h-16.6v-84.4h16.6v34.7h15.4c3.1-21,19.8-36.3,42.7-36.3c25.9,0,43.3,19.1,43.3,43.8
			c0,24.4-17.4,43.8-43.3,43.8C463.9,685.8,447.2,670.3,444.1,649.3z M513.5,642c0-16.4-10.9-29-26.7-29c-15.6,0-26.6,12.6-26.6,29
			c0,16.3,10.9,29,26.6,29C502.6,671,513.5,658.2,513.5,642z"/>
	</g>
	<g>
		<polygon class="st0" points="237.8,202 126.9,202 319.8,378.6 117.5,555.2 228.5,555.2 423.7,378.6 		"/>
		<g>
			<path class="st0" d="M339,0H192.5C90.9,0,8.6,82.3,8.6,183.8v54.4C8.6,339.7,90.9,422,192.5,422h152.6v-85.5h-241
				c-5.5,0-10-4.5-10-10V95.5c0-5.5,4.5-10,10-10h323.3c5.5,0,10,4.5,10,10v459.7h85.5V183.8C522.8,82.3,440.5,0,339,0z"/>
		</g>
	</g>
</g>
</svg>
