<?xml version="1.0" encoding="utf-8"?>
<!-- Generator: Adobe Illustrator 22.0.0, SVG Export Plug-In . SVG Version: 6.00 Build 0)  -->
<svg version="1.1" id="Layer_1" xmlns="http://www.w3.org/2000/svg" xmlns:xlink="http://www.w3.org/1999/xlink" x="0px" y="0px"
	 viewBox="0 0 1200 1200" style="enable-background:new 0 0 1200 1200;" xml:space="preserve">
<style type="text/css">
	.st0{fill:#9829E0;}
	.st1{fill:#FFFFFF;}
</style>
<rect id="XMLID_76_" class="st0" width="1200" height="1200"/>
<g id="XMLID_6_">
	<g>
		<path class="st1" d="M403.1,576.1h52.8V683h-21.1v-41h-16.9l-31.2,41h-26.2l32-42c-18-3.4-26.4-17.1-26.4-32
			C366.1,591.4,377.7,576.1,403.1,576.1z M434.8,594.9h-30.3c-10.9,0-17.4,5.5-17.4,14c0,8.5,6.4,14.2,17.4,14.2h30.3V594.9z"/>
		<path class="st1" d="M542.4,576.1h21.2l-41.7,81.8c-9.8,18.8-14.2,25.1-30.4,25.1h-13.7v-18.8h11.9c6.4,0,9.5-2.1,12.1-7.7
			l1.3-2.9l-39.9-77.4h21.6l28.8,55.7L542.4,576.1z"/>
		<path class="st1" d="M650,651.6c0,17.4-15.6,33.5-44.4,33.5c-27.8,0-41.4-13.7-47-31.7H580c4.7,9,13.8,12.9,25.6,12.9
			c13.5,0,23.3-5.5,23.3-14.5c0-8.5-6.4-12.7-16.7-12.7h-23.7v-18.8h23.7c10.3,0,16.7-4.3,16.7-12.6c0-8.2-8-14.8-22.2-14.8
			c-11.8,0-22.5,4.7-25.9,12.9h-21.2c4.7-16.3,20-31.7,46.8-31.7c26.2,0,43.6,13.8,43.6,33.5c0,9.7-4.2,17.4-12.4,22.1
			C645.9,634.2,650,641.9,650,651.6z"/>
		<path class="st1" d="M735.8,683v-44.1h-51.8V683h-21.1V576.1h21.1V620h51.8v-43.9h21.1V683H735.8z"/>
		<path class="st1" d="M876.5,683h-22.4l-10.5-23.7h-48.8L784.4,683h-21.6l46.5-106.9H830L876.5,683z M803.2,640.5h32l-15.9-36.4
			L803.2,640.5z"/>
		<path class="st1" d="M923,638.9h-19.5V683h-21.1V576.1h21.1V620H923c3.9-26.6,25.1-46,54.1-46c32.8,0,54.9,24.1,54.9,55.5
			c0,30.9-22.1,55.5-54.9,55.5C948.1,685.1,926.9,665.4,923,638.9z M1010.9,629.5c0-20.8-13.8-36.7-33.8-36.7
			c-19.8,0-33.6,15.9-33.6,36.7c0,20.6,13.8,36.7,33.6,36.7C997,666.2,1010.9,650.1,1010.9,629.5z"/>
	</g>
	<g>
		<polygon class="st1" points="237.4,576.1 203.8,576.1 262.2,629.5 201,683 234.6,683 293.7,629.5 		"/>
		<g>
			<path class="st1" d="M268,514.9h-44.3c-30.7,0-55.6,24.9-55.6,55.6V587c0,30.7,24.9,55.6,55.6,55.6h46.2v-25.9h-72.9
				c-1.7,0-3-1.4-3-3v-70c0-1.7,1.4-3,3-3h97.8c1.7,0,3,1.4,3,3V683h25.9V570.6C323.7,539.9,298.7,514.9,268,514.9z"/>
		</g>
	</g>
</g>
</svg>
