<?xml version="1.0" encoding="utf-8"?>
<!-- Generator: Adobe Illustrator 22.0.0, SVG Export Plug-In . SVG Version: 6.00 Build 0)  -->
<svg version="1.1" id="symbol" xmlns="http://www.w3.org/2000/svg" xmlns:xlink="http://www.w3.org/1999/xlink" x="0px" y="0px"
	 viewBox="0 0 555.7 600" style="enable-background:new 0 0 555.7 600;" xml:space="preserve">
<style type="text/css">
	.st0{fill:#FFFFFF;}
</style>
<g id="logo">
	<polygon class="st0" points="247.7,218.3 127.8,218.3 336.3,409.1 117.7,600 237.6,600 448.6,409.1 	"/>
	<g>
		<path class="st0" d="M357,0H198.7C88.9,0,0,88.9,0,198.7v58.8c0,109.7,88.9,198.7,198.7,198.7h164.9v-92.4H103.2
			c-6,0-10.8-4.8-10.8-10.8V103.2c0-6,4.8-10.8,10.8-10.8h349.4c6,0,10.8,4.8,10.8,10.8V600h92.4V198.7C555.7,88.9,466.7,0,357,0z"
			/>
	</g>
</g>
</svg>
