<?xml version="1.0" encoding="utf-8"?>
<!-- Generator: Adobe Illustrator 19.0.0, SVG Export Plug-In . SVG Version: 6.00 Build 0)  -->
<svg version="1.1" id="avatar" xmlns="http://www.w3.org/2000/svg" xmlns:xlink="http://www.w3.org/1999/xlink" x="0px" y="0px"
	 viewBox="-239 241 800 800" style="enable-background:new -239 241 800 800;" xml:space="preserve">
<style type="text/css">
	.st0{fill:#FFFFFF;}
	.st1{fill:#2BB9AF;}
</style>
<g id="XMLID_1_">
	<path id="XMLID_2_" class="st0" d="M161,241L161,241c220.9,0,400,179.1,400,400l0,0c0,220.9-179.1,400-400,400l0,0
		c-220.9,0-400-179.1-400-400l0,0C-239,420.1-59.9,241,161,241z"/>
</g>
<g id="XMLID_6_">
	<g id="XMLID_106_">
		<path id="XMLID_116_" class="st1" d="M-67.9,722.2v-15h-7.7c-9.9,12.8-25.9,19.2-48,19.2c-17.9,0-32-5.1-42.6-15.4
			c-10.6-10.6-15.7-23-15.7-38.1c0-14.7,5.4-27.5,16-38.4s26.9-16.3,48.6-16.3h48v-4.8c0-18.9-11.2-29.8-34.2-29.8
			c-20.2,0-31,7-32.6,20.8h-35.8c1.6-30.4,28.5-49.3,67.2-49.3c43.8,0,70.4,19.5,70.4,58.9v108.2H-67.9L-67.9,722.2z M-81.6,685.1
			c8.3-8,12.5-17.6,12.5-28.8v-12.5h-41.6c-22.7,0-34.6,9.9-34.6,26.9c0,16.6,12.2,26.2,33,26.2C-100.2,696.9-90,693.1-81.6,685.1z"
			/>
		<path id="XMLID_114_" class="st1" d="M92.1,559.3v33.6H77.4c-33,0-50.9,18.9-50.9,53.1v76.2H-9.7V559.3h34.9v18.9h7.7
			c9.3-12.5,24.6-18.9,45.4-18.9H92.1z"/>
		<path id="XMLID_112_" class="st1" d="M143.2,559.3h38.4V590h-38.4v79.4c0,14.4,8.3,21.4,25,21.4h13.4v31.4h-14.1
			c-39.4,0-60.5-13.1-60.5-48V518.1h36.2V559.3z"/>
		<path id="XMLID_109_" class="st1" d="M331.2,702.7c-14.7,15.7-34.6,23.7-59.8,23.7c-25.3,0-45.1-8-60.2-23.7
			c-14.7-16-22.1-36.8-22.1-62.1c0-25.3,7.4-45.8,22.1-61.4c15-16,34.9-24,60.2-24c25.3,0,45.1,8,59.8,24
			c15,15.7,22.4,36.2,22.4,61.4C353.6,665.8,346.2,686.7,331.2,702.7z M271.3,585.9c-29.8,0-46.1,24-46.1,54.7c0,31,16.3,55,46.1,55
			s46.1-24,46.1-55C317.4,609.9,301.1,585.9,271.3,585.9z"/>
		<path id="XMLID_107_" class="st1" d="M463.2,602.9c-1.9-11.8-12.5-17.6-32-17.6s-29.4,5.8-29.4,17c0,9.9,6.4,13.8,20.8,16.3
			l31.7,5.1c33,5.4,49.6,22.1,49.6,50.6c0,14.4-6.1,26.9-18.6,37.1c-12.2,9.9-29.1,15-51.2,15c-46.1,0-71-20.2-74.6-53.4h36.2
			c2.9,15.7,15.4,23.4,37.8,23.4c22.7,0,34.2-7,34.2-21.1c0-12.5-7.7-18.2-26.6-21.8l-33.9-5.8c-25.6-4.2-41.6-18.6-41.6-42.9
			c0-29.1,23-49.6,66.9-49.6c38.7,0,63.4,18.6,66.9,47.7H463.2L463.2,602.9z"/>
	</g>
</g>
</svg>
