<?xml version="1.0" encoding="utf-8"?>
<!-- Generator: Adobe Illustrator 19.0.0, SVG Export Plug-In . SVG Version: 6.00 Build 0)  -->
<svg version="1.1" id="avatar" xmlns="http://www.w3.org/2000/svg" xmlns:xlink="http://www.w3.org/1999/xlink" x="0px" y="0px"
	 viewBox="-239 241 800 800" style="enable-background:new -239 241 800 800;" xml:space="preserve">
<style type="text/css">
	.st0{fill:#36AFA7;}
	.st1{fill:#FFFFFF;}
</style>
<g id="XMLID_18_">
	<path id="XMLID_34_" class="st0" d="M160,1039c-53.9,0-106.1-10.5-155.3-31.4c-47.5-20.1-90.2-48.9-126.8-85.5
		s-65.4-79.3-85.5-126.8C-228.5,746.1-239,693.9-239,640s10.5-106.1,31.4-155.3c20.1-47.5,48.9-90.2,85.5-126.8
		c36.6-36.6,79.3-65.4,126.8-85.5C53.9,251.5,106.1,241,160,241s106.1,10.5,155.3,31.4c47.5,20.1,90.2,48.9,126.8,85.5
		s65.4,79.3,85.5,126.8C548.5,533.9,559,586.1,559,640s-10.5,106.1-31.4,155.3c-20.1,47.5-48.9,90.2-85.5,126.8
		s-79.3,65.4-126.8,85.5C266.1,1028.5,213.9,1039,160,1039z"/>
</g>
<g id="XMLID_6_">
	<g id="XMLID_106_">
		<path id="XMLID_116_" class="st1" d="M-68.9,721.2v-15h-7.7c-9.9,12.8-25.9,19.2-48,19.2c-17.9,0-32-5.1-42.6-15.4
			c-10.6-10.6-15.7-23-15.7-38.1c0-14.7,5.4-27.5,16-38.4s26.9-16.3,48.6-16.3h48v-4.8c0-18.9-11.2-29.8-34.2-29.8
			c-20.2,0-31,7-32.6,20.8h-35.8c1.6-30.4,28.5-49.3,67.2-49.3c43.8,0,70.4,19.5,70.4,58.9v108.2H-68.9L-68.9,721.2z M-82.6,684.1
			c8.3-8,12.5-17.6,12.5-28.8v-12.5h-41.6c-22.7,0-34.6,9.9-34.6,26.9c0,16.6,12.2,26.2,33,26.2C-101.2,695.9-91,692.1-82.6,684.1z"
			/>
		<path id="XMLID_114_" class="st1" d="M91.1,558.3v33.6H76.4c-33,0-50.9,18.9-50.9,53.1v76.2h-36.2V558.3h34.9v18.9h7.7
			c9.3-12.5,24.6-18.9,45.4-18.9H91.1z"/>
		<path id="XMLID_112_" class="st1" d="M142.2,558.3h38.4V589h-38.4v79.4c0,14.4,8.3,21.4,25,21.4h13.4v31.4h-14.1
			c-39.4,0-60.5-13.1-60.5-48V517.1h36.2V558.3z"/>
		<path id="XMLID_109_" class="st1" d="M330.2,701.7c-14.7,15.7-34.6,23.7-59.8,23.7c-25.3,0-45.1-8-60.2-23.7
			c-14.7-16-22.1-36.8-22.1-62.1c0-25.3,7.4-45.8,22.1-61.4c15-16,34.9-24,60.2-24c25.3,0,45.1,8,59.8,24
			c15,15.7,22.4,36.2,22.4,61.4C352.6,664.8,345.2,685.7,330.2,701.7z M270.3,584.9c-29.8,0-46.1,24-46.1,54.7c0,31,16.3,55,46.1,55
			s46.1-24,46.1-55C316.4,608.9,300.1,584.9,270.3,584.9z"/>
		<path id="XMLID_107_" class="st1" d="M462.2,601.9c-1.9-11.8-12.5-17.6-32-17.6s-29.4,5.8-29.4,17c0,9.9,6.4,13.8,20.8,16.3
			l31.7,5.1c33,5.4,49.6,22.1,49.6,50.6c0,14.4-6.1,26.9-18.6,37.1c-12.2,9.9-29.1,15-51.2,15c-46.1,0-71-20.2-74.6-53.4h36.2
			c2.9,15.7,15.4,23.4,37.8,23.4c22.7,0,34.2-7,34.2-21.1c0-12.5-7.7-18.2-26.6-21.8l-33.9-5.8c-25.6-4.2-41.6-18.6-41.6-42.9
			c0-29.1,23-49.6,66.9-49.6c38.7,0,63.4,18.6,66.9,47.7H462.2L462.2,601.9z"/>
	</g>
</g>
</svg>
