<?xml version="1.0" encoding="utf-8"?>
<!-- Generator: Adobe Illustrator 19.0.0, SVG Export Plug-In . SVG Version: 6.00 Build 0)  -->
<svg version="1.1" id="avatar" xmlns="http://www.w3.org/2000/svg" xmlns:xlink="http://www.w3.org/1999/xlink" x="0px" y="0px"
	 viewBox="-849 432 800 800" style="enable-background:new -849 432 800 800;" xml:space="preserve">
<style type="text/css">
	.st0{opacity:0;}
	.st1{fill:#36AFA7;}
	.st2{fill:#FFFFFF;}
</style>
<g id="XMLID_5_" class="st0">
	<rect id="XMLID_30_" x="-849" y="432" width="800" height="800"/>
</g>
<g id="XMLID_18_">
	<path id="XMLID_34_" class="st1" d="M-449,1231c-53.9,0-106.1-10.5-155.3-31.4c-47.5-20.1-90.2-48.9-126.8-85.5
		c-36.6-36.6-65.4-79.3-85.5-126.8C-837.5,938.1-848,885.9-848,832s10.5-106.1,31.4-155.3c20.1-47.5,48.9-90.2,85.5-126.8
		c36.6-36.6,79.3-65.4,126.8-85.5C-555.1,443.5-502.9,433-449,433s106.1,10.5,155.3,31.4c47.5,20.1,90.2,48.9,126.8,85.5
		c36.6,36.6,65.4,79.3,85.5,126.8C-60.5,725.9-50,778.1-50,832s-10.5,106.1-31.4,155.3c-20.1,47.5-48.9,90.2-85.5,126.8
		s-79.3,65.4-126.8,85.5C-342.9,1220.5-395.1,1231-449,1231z"/>
	<path id="XMLID_31_" class="st2" d="M-449,434c53.7,0,105.9,10.5,154.9,31.3c47.4,20,90,48.7,126.5,85.3
		c36.6,36.6,65.2,79.1,85.3,126.5C-61.5,726.1-51,778.3-51,832s-10.5,105.9-31.3,154.9c-20,47.4-48.7,90-85.3,126.5
		c-36.6,36.6-79.1,65.2-126.5,85.3c-49,20.8-101.2,31.3-154.9,31.3s-105.9-10.5-154.9-31.3c-47.4-20-90-48.7-126.5-85.3
		c-36.6-36.5-65.3-79.1-85.3-126.5c-20.8-49-31.3-101.2-31.3-154.9s10.5-105.9,31.3-154.9c20-47.4,48.7-90,85.3-126.5
		c36.6-36.6,79.1-65.2,126.5-85.3C-554.9,444.5-502.7,434-449,434 M-449,432L-449,432c-220.9,0-400,179.1-400,400l0,0
		c0,220.9,179.1,400,400,400l0,0c220.9,0,400-179.1,400-400l0,0C-49,611.1-228.1,432-449,432L-449,432z"/>
</g>
<g id="XMLID_6_">
	<g id="XMLID_106_">
		<path id="XMLID_116_" class="st2" d="M-677.9,913.2v-15h-7.7c-9.9,12.8-25.9,19.2-48,19.2c-17.9,0-32-5.1-42.6-15.4
			c-10.6-10.6-15.7-23-15.7-38.1c0-14.7,5.4-27.5,16-38.4c10.6-10.9,26.9-16.3,48.6-16.3h48v-4.8c0-18.9-11.2-29.8-34.2-29.8
			c-20.2,0-31,7-32.6,20.8h-35.8c1.6-30.4,28.5-49.3,67.2-49.3c43.8,0,70.4,19.5,70.4,58.9v108.2L-677.9,913.2L-677.9,913.2z
			 M-691.6,876.1c8.3-8,12.5-17.6,12.5-28.8v-12.5h-41.6c-22.7,0-34.6,9.9-34.6,26.9c0,16.6,12.2,26.2,33,26.2
			C-710.2,887.9-700,884.1-691.6,876.1z"/>
		<path id="XMLID_114_" class="st2" d="M-517.9,750.3v33.6h-14.7c-33,0-50.9,18.9-50.9,53.1v76.2h-36.2V750.3h34.9v18.9h7.7
			c9.3-12.5,24.6-18.9,45.4-18.9H-517.9z"/>
		<path id="XMLID_112_" class="st2" d="M-466.8,750.3h38.4V781h-38.4v79.4c0,14.4,8.3,21.4,25,21.4h13.4v31.4h-14.1
			c-39.4,0-60.5-13.1-60.5-48V709.1h36.2V750.3z"/>
		<path id="XMLID_109_" class="st2" d="M-278.8,893.7c-14.7,15.7-34.6,23.7-59.8,23.7c-25.3,0-45.1-8-60.2-23.7
			c-14.7-16-22.1-36.8-22.1-62.1c0-25.3,7.4-45.8,22.1-61.4c15-16,34.9-24,60.2-24c25.3,0,45.1,8,59.8,24
			c15,15.7,22.4,36.2,22.4,61.4C-256.4,856.8-263.8,877.7-278.8,893.7z M-338.7,776.9c-29.8,0-46.1,24-46.1,54.7
			c0,31,16.3,55,46.1,55c29.8,0,46.1-24,46.1-55C-292.6,800.9-308.9,776.9-338.7,776.9z"/>
		<path id="XMLID_107_" class="st2" d="M-146.8,793.9c-1.9-11.8-12.5-17.6-32-17.6s-29.4,5.8-29.4,17c0,9.9,6.4,13.8,20.8,16.3
			l31.7,5.1c33,5.4,49.6,22.1,49.6,50.6c0,14.4-6.1,26.9-18.6,37.1c-12.2,9.9-29.1,15-51.2,15c-46.1,0-71-20.2-74.6-53.4h36.2
			c2.9,15.7,15.4,23.4,37.8,23.4c22.7,0,34.2-7,34.2-21.1c0-12.5-7.7-18.2-26.6-21.8l-33.9-5.8c-25.6-4.2-41.6-18.6-41.6-42.9
			c0-29.1,23-49.6,66.9-49.6c38.7,0,63.4,18.6,66.9,47.7H-146.8L-146.8,793.9z"/>
	</g>
</g>
</svg>
