<?xml version="1.0" encoding="utf-8"?>
<!-- Generator: Adobe Illustrator 19.0.0, SVG Export Plug-In . SVG Version: 6.00 Build 0)  -->
<svg version="1.1" id="Layer_1" xmlns="http://www.w3.org/2000/svg" xmlns:xlink="http://www.w3.org/1999/xlink" x="0px" y="0px"
	 viewBox="0 0 1500 1000" style="enable-background:new 0 0 1500 1000;" xml:space="preserve">
<style type="text/css">
	.st0{fill:#EFEFEF;}
	.st1{fill:#101010;}
	.st2{fill:none;stroke:#36AFA7;stroke-width:2;stroke-miterlimit:10;}
	.st3{opacity:0.6;}
	.st4{opacity:0;}
	.st5{fill:none;stroke:#36AFA7;stroke-miterlimit:10;}
	.st6{opacity:0;fill:#FFFFFF;}
	.st7{fill:#FFFFFF;}
</style>
<polygon id="XMLID_133_" class="st0" points="0,0 0,1000 461.3,1000 1038.7,0 "/>
<polygon id="XMLID_134_" class="st1" points="1500,0 1038.7,0 461.3,1000 1500,1000 "/>
<g id="XMLID_84_">
	<g id="XMLID_125_">
		<line id="XMLID_127_" class="st2" x1="55.6" y1="1000" x2="55.6" y2="0.7"/>
		<line id="XMLID_126_" class="st2" x1="1444.4" y1="0.7" x2="1444.4" y2="1000"/>
	</g>
	<g id="XMLID_92_" class="st3">
		<g id="XMLID_109_">
			<g id="XMLID_122_">
				<line id="XMLID_124_" class="st2" x1="55.6" y1="792.6" x2="1444.4" y2="792.6"/>
				<line id="XMLID_123_" class="st2" x1="1444.4" y1="812.6" x2="55.6" y2="812.6"/>
			</g>
			<g id="XMLID_119_">
				<line id="XMLID_121_" class="st2" x1="55.6" y1="641.3" x2="1444.4" y2="641.3"/>
				<line id="XMLID_120_" class="st2" x1="1444.4" y1="661.3" x2="55.6" y2="661.3"/>
			</g>
			<g id="XMLID_116_">
				<line id="XMLID_118_" class="st2" x1="55.6" y1="490" x2="1444.4" y2="490"/>
				<line id="XMLID_117_" class="st2" x1="1444.4" y1="510" x2="55.6" y2="510"/>
			</g>
			<g id="XMLID_113_">
				<line id="XMLID_115_" class="st2" x1="55.6" y1="338.7" x2="1444.4" y2="338.7"/>
				<line id="XMLID_114_" class="st2" x1="1444.4" y1="358.7" x2="55.6" y2="358.7"/>
			</g>
			<g id="XMLID_110_">
				<line id="XMLID_112_" class="st2" x1="55.6" y1="187.4" x2="1444.4" y2="187.4"/>
				<line id="XMLID_111_" class="st2" x1="1444.4" y1="207.4" x2="55.6" y2="207.4"/>
			</g>
		</g>
		<g id="XMLID_93_">
			<g id="XMLID_106_">
				<line id="XMLID_108_" class="st2" x1="1209.3" y1="944.4" x2="1209.3" y2="55.6"/>
				<line id="XMLID_107_" class="st2" x1="1229.3" y1="55.6" x2="1229.3" y2="944.4"/>
			</g>
			<g id="XMLID_103_">
				<line id="XMLID_105_" class="st2" x1="974.6" y1="944.4" x2="974.6" y2="55.6"/>
				<line id="XMLID_104_" class="st2" x1="994.6" y1="55.6" x2="994.6" y2="944.4"/>
			</g>
			<g id="XMLID_100_">
				<line id="XMLID_102_" class="st2" x1="740" y1="944.4" x2="740" y2="55.6"/>
				<line id="XMLID_101_" class="st2" x1="760" y1="55.6" x2="760" y2="944.4"/>
			</g>
			<g id="XMLID_97_">
				<line id="XMLID_99_" class="st2" x1="505.4" y1="944.4" x2="505.4" y2="55.6"/>
				<line id="XMLID_98_" class="st2" x1="525.4" y1="55.6" x2="525.4" y2="944.4"/>
			</g>
			<g id="XMLID_94_">
				<line id="XMLID_96_" class="st2" x1="270.7" y1="944.4" x2="270.7" y2="55.6"/>
				<line id="XMLID_95_" class="st2" x1="290.7" y1="55.6" x2="290.7" y2="944.4"/>
			</g>
		</g>
	</g>
	<line id="XMLID_91_" class="st2" x1="0" y1="55.6" x2="1500" y2="55.6"/>
	<line id="XMLID_90_" class="st2" x1="1500" y1="944.4" x2="0" y2="944.4"/>
	<path id="XMLID_89_" class="st2" d="M1444.4,55.6"/>
	<path id="XMLID_88_" class="st2" d="M1444.4,55.6"/>
	<g id="XMLID_85_" class="st4">
		<rect id="XMLID_87_" x="505.4" y="55.6" class="st5" width="20" height="888.9"/>
		<rect id="XMLID_86_" x="974.6" y="55.6" class="st5" width="20" height="888.9"/>
	</g>
</g>
<g id="XMLID_207_">
	<path id="XMLID_208_" class="st1" d="M58.8,633.6h28v8l-9.9,8v1.6c7.1,0.5,12.2,5.3,12.2,13.5c0,4.7-1.6,8.4-4.7,11.2
		c-3.1,2.7-7.1,4.1-12,4.1c-4.8,0-8.7-1.3-11.8-4c-3.1-2.7-4.7-6.1-4.9-10.2h7.6c0.5,4.6,4.1,7.4,9,7.4c5.7,0,9.2-3.2,9.2-8.5
		c0-5.3-3.3-8.6-9.1-8.6c-1.6,0-3,0.1-4.1,0.4v-6.9l9.8-8V640H58.8V633.6z"/>
	<path id="XMLID_210_" class="st1" d="M122.1,653.3c2.8,2.8,4.2,6.4,4.2,10.7c0,4.5-1.5,8.3-4.4,11.3c-2.9,3.1-6.8,4.6-11.7,4.6
		c-5.4,0-9.6-1.8-12.7-5.4c-3.1-3.6-4.7-9.3-4.7-17.2c0-4.8,0.6-9,1.8-12.6c2.5-7.3,8.1-12.1,16.1-12.1c3.9,0,7.2,1.1,9.8,3.2
		c2.6,2.1,4.2,4.9,4.7,8.2h-7.5c-1-3.3-3.3-5-7.1-5c-6.2,0-10.1,5.1-10.5,14h1.6c2.3-2.7,5.6-4,10.1-4
		C115.9,649.1,119.3,650.5,122.1,653.3z M110,655.4c-5.1,0-8.7,3.2-8.7,8.8c0,5.7,3.6,9.2,8.8,9.2c5.1,0,8.6-3.3,8.6-9.1
		C118.7,658.6,115.1,655.4,110,655.4z"/>
	<path id="XMLID_213_" class="st1" d="M132.2,688.2h-6.4l19.6-58.5h6.2L132.2,688.2z"/>
	<path id="XMLID_215_" class="st1" d="M178,662.2h5.9v6.6H178v10.2h-7.3v-10.2h-22.1v-8.2l20-27.1h9.4V662.2z M156,662.2h14.8v-20.1
		h-1.6L156,660.7V662.2z"/>
	<path id="XMLID_218_" class="st1" d="M204.7,632.7c5.2,0,9.4,1.9,12.5,5.9s4.7,9.9,4.7,17.7c0,7.9-1.6,13.8-4.7,17.7
		c-3.2,3.9-7.3,5.9-12.5,5.9s-9.4-2-12.5-5.9c-3.2-4-4.7-9.9-4.7-17.7c0-7.9,1.6-13.8,4.7-17.7C195.3,634.6,199.5,632.7,204.7,632.7
		z M204.7,673.2c3.4,0,5.9-1.6,7.3-4.6c1.6-3.1,2.3-7.2,2.3-12.2c0-5.1-0.8-9.2-2.3-12.2c-1.5-3.1-4-4.7-7.3-4.7
		c-3.4,0-5.9,1.6-7.4,4.7c-1.5,3.1-2.3,7.2-2.3,12.2c0,5.1,0.8,9.2,2.3,12.2C198.9,671.6,201.3,673.2,204.7,673.2z"/>
	<path id="XMLID_221_" class="st1" d="M227.8,646h7.1v3.2h1.6c2.1-2.7,5.4-4,9.8-4c4.4,0,7.9,1.6,10.4,4.9c2.6,3.2,3.9,7.4,3.9,12.5
		c0,5.1-1.3,9.3-3.9,12.5c-2.5,3.2-6,4.9-10.4,4.9c-4.3,0-7.5-1.4-9.5-4h-1.6v16.2h-7.3V646z M235,662.5c0,6.3,3.1,11.2,9.2,11.2
		c5.8,0,9-4.5,9-11.2c0-6.7-3.2-11.1-9-11.1C238.1,651.4,235,656.2,235,662.5z"/>
	<path id="XMLID_224_" class="st1" d="M275.3,646h7.8v6.2h-7.8v16.1c0,2.9,1.7,4.4,5.1,4.4h2.7v6.4h-2.9c-8,0-12.3-2.7-12.3-9.8
		v-17.1h-5.3V646h5.3v-9.6h7.3V646z"/>
	<path id="XMLID_226_" class="st1" d="M297.3,679.1h-8.4v-8.7h8.4V679.1z"/>
</g>
<g id="XMLID_157_">
	<path id="XMLID_158_" class="st1" d="M87.4,347.8c3.6,1.6,6.2,5.7,6.2,10.3c0,7.9-5.5,13.3-15.9,13.3H56.2v-46.4h21
		c4.8,0,8.5,1.2,11.1,3.4c2.7,2.3,4,5.1,4,8.6c0,4.4-1.6,7.5-4.9,9.3V347.8z M76.4,343.9c5.2,0,7.8-2.1,7.8-6.2
		c0-4.1-2.6-6.1-7.8-6.1H64v12.3H76.4z M76.7,364.6c5.9,0,8.9-2.3,8.9-7c0-4.6-3-7-8.9-7H64v14H76.7z"/>
	<path id="XMLID_175_" class="st1" d="M98.2,344.5v-6.2h29.6v6.2h-11.1v26.8h-7.3v-26.8H98.2z"/>
	<path id="XMLID_177_" class="st1" d="M158.8,367.4c-3,3.2-7,4.8-12.2,4.8c-5.1,0-9.2-1.6-12.2-4.8c-3-3.2-4.5-7.5-4.5-12.6
		c0-5.1,1.5-9.3,4.5-12.5c3.1-3.3,7.1-4.9,12.2-4.9c5.1,0,9.2,1.6,12.2,4.9c3.1,3.2,4.6,7.3,4.6,12.5
		C163.3,359.9,161.9,364.1,158.8,367.4z M146.6,343.6c-6,0-9.4,4.9-9.4,11.1c0,6.3,3.3,11.2,9.4,11.2c6,0,9.4-4.9,9.4-11.2
		C156,348.5,152.7,343.6,146.6,343.6z"/>
	<path id="XMLID_180_" class="st1" d="M168.9,338.2h7.1v3.2h1.6c2.1-2.7,5.4-4,9.8-4c4.4,0,7.9,1.6,10.4,4.9
		c2.6,3.2,3.9,7.4,3.9,12.5c0,5.1-1.3,9.3-3.9,12.5c-2.5,3.2-6,4.9-10.4,4.9c-4.3,0-7.5-1.4-9.5-4h-1.6v16.2h-7.3V338.2z
		 M176.1,354.7c0,6.3,3.1,11.2,9.2,11.2c5.8,0,9-4.5,9-11.2c0-6.7-3.2-11.1-9-11.1C179.2,343.6,176.1,348.4,176.1,354.7z"/>
	<path id="XMLID_183_" class="st1" d="M215.5,371.3h-8.3v-33.1h7.2v21.8h1.6l13.6-21.8h8.5v33.1h-7.2v-21.8h-1.6L215.5,371.3z"/>
	<path id="XMLID_185_" class="st1" d="M243.7,338.2h7.3v9.6c0,1.8,0.1,2.6,1,3.9c0.8,1.2,2.9,1.8,6.3,1.8c2.3,0,4.7-0.3,7.2-0.8
		v-14.5h7.4v33.1h-7.4v-12.5c-2.8,0.6-5.9,0.9-9.3,0.9c-4.4,0-7.7-1-9.4-2.3c-2.7-2.3-3.1-5.3-3.1-8.7V338.2z"/>
	<path id="XMLID_187_" class="st1" d="M311.2,371.3h-7.3v-13.8h-16v13.8h-7.3v-33.1h7.3v13h16v-13h7.3V371.3z"/>
	<path id="XMLID_189_" class="st1" d="M318.7,338.2h7.3v10.3h8.3c8.3,0,12.9,4.2,12.9,11.2c0,7.2-4.6,11.6-12.9,11.6h-15.6V338.2z
		 M326,354.4v10.7h7.2c4.7,0,6.6-1.9,6.6-5.3c0-3.6-1.8-5.3-6.6-5.3H326z M352.3,338.2h7.3v33.1h-7.3V338.2z"/>
	<path id="XMLID_193_" class="st1" d="M375.5,371.3h-8.3v-33.1h7.2v21.8h1.6l13.6-21.8h8.5v33.1h-7.2v-21.8h-1.6L375.5,371.3z
		 M393.5,324.4c-0.3,6-4.3,9.6-11,9.6c-6.7,0-10.7-3.6-11-9.6h5.8c0.2,3.1,2,4.7,5.2,4.7c3.3,0,5-1.6,5.2-4.7H393.5z"/>
	<path id="XMLID_196_" class="st1" d="M415.3,344.5v-6.2h29.6v6.2h-11.1v26.8h-7.3v-26.8H415.3z"/>
	<path id="XMLID_198_" class="st1" d="M478.8,355.4h-24.4c0.2,7,3.3,10.5,9.3,10.5c3.8,0,6.2-1.4,7.2-4.2h7.5
		c-1.3,6.3-6.4,10.5-14.8,10.5c-5.1,0-9.2-1.6-12.1-4.9c-2.9-3.3-4.4-7.5-4.4-12.7c0-5.3,1.4-9.4,4.4-12.5c2.9-3.1,7-4.7,12-4.7
		c4.7,0,8.5,1.5,11.2,4.4c2.7,2.9,4.2,6.6,4.2,11.1V355.4z M454.7,349.9h16.6c-0.5-3.9-3.3-6.7-7.9-6.7
		C458.4,343.2,455.5,345.8,454.7,349.9z"/>
	<path id="XMLID_201_" class="st1" d="M507.2,371.3l-7-13.8h-8.5v13.8h-7.3v-33.1h7.3v13h8.6l6.6-13h7.5l-8.1,15.9l8.6,17.2H507.2z"
		/>
	<path id="XMLID_203_" class="st1" d="M547.8,360.7c-1,7-6.7,11.4-14.6,11.4c-5.1,0-9.1-1.6-12-4.8c-2.9-3.2-4.4-7.4-4.4-12.6
		c0-5.1,1.4-9.4,4.4-12.5c2.9-3.2,7-4.8,12-4.8c7.9,0,13.3,4.4,14.3,10.9h-7.3c-1-3.1-3.3-4.7-7-4.7c-6.2,0-9.1,4.6-9.1,11.1
		c0,6.6,2.9,11.2,9.1,11.2c4,0,6.4-1.8,7.2-5.2H547.8z"/>
	<path id="XMLID_205_" class="st1" d="M550,344.5v-6.2h29.6v6.2h-11.1v26.8h-7.3v-26.8H550z"/>
</g>
<g id="XMLID_139_">
	<path id="XMLID_140_" class="st1" d="M117.3,537.5h26v28.8H55.3v-28.8h28.8v-69.4h-5.2l-23.6,16.3v-32.5l23.4-16.5h38.7V537.5z"/>
	<path id="XMLID_142_" class="st1" d="M201.3,432.7c15.9,0,28.8,5.6,38.5,16.8s14.6,28.2,14.6,51c0,22.8-4.9,39.8-14.6,51.2
		c-9.7,11.2-22.6,16.8-38.5,16.8s-28.8-5.6-38.5-16.8c-9.7-11.4-14.6-28.4-14.6-51.2c0-22.8,4.9-39.8,14.6-51
		C172.5,438.4,185.4,432.7,201.3,432.7z M201.3,462.1c-13.1,0-19.6,12.9-19.6,38.5c0,25.8,6.5,38.7,19.6,38.7
		c13.1,0,19.6-12.9,19.6-38.7C220.9,475,214.4,462.1,201.3,462.1z"/>
	<path id="XMLID_145_" class="st1" d="M347.3,499.1c10.3,4.7,19.1,14.6,19.1,29.5c0,11.2-4.5,20.8-13.6,28.4
		c-9.2,7.7-22.1,11.6-38.7,11.6c-16.8,0-29.7-3.9-38.9-11.6s-13.6-17.2-13.6-28.4c0-15,8.8-24.9,19.1-29.5v-5.2
		c-9.7-5.8-14.6-14.4-14.6-25.8c0-9.9,4.3-18.3,12.7-25.1c8.6-6.9,20.4-10.3,35.3-10.3c15,0,26.7,3.4,35.2,10.3
		c8.4,6.7,12.7,15.1,12.7,25.1c0,11.4-4.9,20-14.6,25.8V499.1z M314,541.8c12.7,0,19.1-7.5,19.1-16.3s-6.4-16.3-19.1-16.3
		c-12.7,0-19.3,7.5-19.3,16.3C294.8,534.5,301.3,541.8,314,541.8z M314,457.6c-21.1-0.9-21.3,30.1,0,29.2
		C335,487.7,335,456.7,314,457.6z"/>
	<path id="XMLID_150_" class="st1" d="M415.6,558h-5.2v45.6h-32.5V469h31.4v8.2h5.2c5.8-7.1,14.4-10.7,25.4-10.7
		c12.5,0,22.2,4.7,29.5,14.2c7.3,9.3,10.8,21.7,10.8,36.8c0,15.1-3.7,27.3-11,36.8c-7.3,9.5-17,14.2-29.4,14.2
		C429.2,568.7,421,565.1,415.6,558z M428.7,493.1c-6.5,0-11.4,2.2-14.8,6.9c-3.2,4.7-4.9,10.5-4.9,17.6s1.7,12.9,4.9,17.6
		c3.4,4.7,8.2,6.9,14.8,6.9c6.5,0,11.2-2.2,14.4-6.9c3.2-4.7,4.7-10.5,4.7-17.6s-1.5-12.9-4.7-17.6
		C439.9,495.4,435.2,493.1,428.7,493.1z"/>
	<path id="XMLID_153_" class="st1" d="M527.9,469h19.4v26.6h-19.4v35.2c0,5.6,3.2,8.4,9.5,8.4h9.9v27.1h-10.5c-26,0-41.5-8-41.5-32
		v-38.7h-12.7V469h12.7v-26.2h32.5V469z"/>
	<path id="XMLID_155_" class="st1" d="M594.7,566.2h-34.4v-32.5h34.4V566.2z"/>
</g>
<g id="XMLID_52_">
	<rect id="XMLID_82_" x="1175.2" class="st6" width="324.8" height="159.7"/>
	<g id="XMLID_53_">
		<g id="XMLID_302_">
			<path id="XMLID_312_" class="st7" d="M1266,107.4v-4.7h-2.4c-3.1,4-8.2,6-15.1,6c-5.6,0-10.1-1.6-13.4-4.8
				c-3.3-3.3-4.9-7.3-4.9-12c0-4.6,1.7-8.7,5-12.1c3.3-3.4,8.5-5.1,15.3-5.1h15.1v-1.5c0-5.9-3.5-9.4-10.8-9.4
				c-6.3,0-9.8,2.2-10.3,6.5h-11.3c0.5-9.6,9-15.5,21.2-15.5c13.8,0,22.2,6.1,22.2,18.5v34H1266z M1261.7,95.7
				c2.6-2.5,3.9-5.5,3.9-9.1v-3.9h-13.1c-7.2,0-10.9,3.1-10.9,8.5c0,5.2,3.8,8.3,10.4,8.3C1255.8,99.4,1259,98.2,1261.7,95.7z"/>
			<path id="XMLID_310_" class="st7" d="M1316.4,56.1v10.6h-4.6c-10.4,0-16,5.9-16,16.7v24h-11.4V56.1h11v5.9h2.4
				c2.9-3.9,7.8-5.9,14.3-5.9H1316.4z"/>
			<path id="XMLID_308_" class="st7" d="M1332.4,56.1h12.1v9.7h-12.1v25c0,4.5,2.6,6.7,7.9,6.7h4.2v9.9h-4.4c-12.4,0-19-4.1-19-15.1
				V43.2h11.4V56.1z"/>
			<path id="XMLID_305_" class="st7" d="M1391.6,101.3c-4.6,4.9-10.9,7.5-18.8,7.5c-8,0-14.2-2.5-18.9-7.5c-4.6-5-6.9-11.6-6.9-19.5
				s2.3-14.4,6.9-19.3c4.7-5,11-7.6,18.9-7.6c8,0,14.2,2.5,18.8,7.6c4.7,4.9,7,11.4,7,19.3S1396.3,96.2,1391.6,101.3z M1372.7,64.5
				c-9.4,0-14.5,7.6-14.5,17.2c0,9.8,5.1,17.3,14.5,17.3c9.4,0,14.5-7.6,14.5-17.3C1387.2,72,1382.1,64.5,1372.7,64.5z"/>
			<path id="XMLID_303_" class="st7" d="M1433.1,69.8c-0.6-3.7-3.9-5.5-10.1-5.5c-6.1,0-9.3,1.8-9.3,5.3c0,3.1,2,4.3,6.5,5.1l10,1.6
				c10.4,1.7,15.6,6.9,15.6,15.9c0,4.5-1.9,8.5-5.8,11.7c-3.8,3.1-9.2,4.7-16.1,4.7c-14.5,0-22.4-6.3-23.5-16.8h11.4
				c0.9,4.9,4.8,7.4,11.9,7.4c7.2,0,10.8-2.2,10.8-6.6c0-3.9-2.4-5.7-8.4-6.8l-10.7-1.8c-8.1-1.3-13.1-5.8-13.1-13.5
				c0-9.2,7.3-15.6,21-15.6c12.2,0,19.9,5.8,21,15H1433.1z"/>
		</g>
	</g>
</g>
<g id="XMLID_1_">
	<g id="XMLID_722_">
		<path id="XMLID_789_" class="st7" d="M1115.1,884.3c2.5,1.2,4.1,3.8,4.1,6.8c0,4.7-3.2,8.3-10,8.3h-13.1V870h12.8
			c6.2,0,9.4,3.4,9.4,7.4c0,2.6-1.1,4.8-3.2,6V884.3z M1099.9,882.4h9c3.2,0,5.7-1.1,5.7-4.7c0-3.3-2.8-4.5-5.8-4.5h-8.9V882.4z
			 M1109,896.1c3.3,0,6.5-1.2,6.5-5.3c0-3.8-3-5.1-6.4-5.1h-9.2v10.4H1109z"/>
		<path id="XMLID_787_" class="st7" d="M1141.1,893.1c-0.8,4.1-3.9,6.8-8.7,6.8c-6.5,0-10.1-4.8-10.1-10.9c0-6.3,3.6-10.9,10.1-10.9
			c4.9,0,7.9,2.7,8.6,6.5h-3.5c-0.7-2.1-2.3-3.5-5.1-3.5c-4.7,0-6.6,3.7-6.6,7.8c0,4.2,1.9,7.9,6.6,7.9c3,0,4.7-1.4,5.2-3.7H1141.1z
			"/>
		<path id="XMLID_785_" class="st7" d="M1160.1,899.3v-17.7h-11.3v17.7h-3.5v-20.7h18.3v20.7H1160.1z"/>
		<path id="XMLID_782_" class="st7" d="M1188.4,889c0,6.1-3.7,10.9-10.2,10.9c-6.5,0-10.2-4.8-10.2-10.9c0-6.1,3.7-10.9,10.2-10.9
			C1184.7,878.1,1188.4,882.9,1188.4,889z M1184.9,889c0-4.1-2.1-7.9-6.7-7.9c-4.6,0-6.7,3.8-6.7,7.9c0,4.1,2.1,7.9,6.7,7.9
			C1182.8,896.8,1184.9,893.1,1184.9,889z"/>
		<path id="XMLID_780_" class="st7" d="M1192.9,878.6h5.6l5.1,9.5h0.9l5.1-9.5h5.5v20.7h-3.4v-16.7h-0.9l-4.8,8.9h-3.9l-4.8-8.9
			h-0.9v16.7h-3.4V878.6z"/>
		<path id="XMLID_777_" class="st7" d="M1239.8,889c0,6.1-3.7,10.9-10.2,10.9c-6.5,0-10.2-4.8-10.2-10.9c0-6.1,3.7-10.9,10.2-10.9
			C1236.1,878.1,1239.8,882.9,1239.8,889z M1236.3,889c0-4.1-2.1-7.9-6.7-7.9c-4.6,0-6.7,3.8-6.7,7.9c0,4.1,2.1,7.9,6.7,7.9
			C1234.2,896.8,1236.3,893.1,1236.3,889z"/>
		<path id="XMLID_775_" class="st7" d="M1244.2,878.6h15.5v3h-12v17.7h-3.5V878.6z"/>
		<path id="XMLID_772_" class="st7" d="M1276,897.2h-0.9c-1.3,1.6-3.5,2.7-6.5,2.7c-4.8,0-7.4-3.2-7.4-6.7c0-3.3,2.2-6.9,7.9-6.9
			h6.7v-0.8c0-2.5-1.4-4.3-5.1-4.3c-3.1,0-4.6,1.2-4.8,3h-3.5c0.3-3.8,3.6-6,8.2-6c5.2,0,8.6,2.5,8.6,7.2v14.1h-3.3V897.2z
			 M1275.9,891v-1.9h-6.2c-3.4,0-5,1.5-5,3.9c0,2.3,1.7,3.8,4.8,3.8C1272.9,896.8,1275.9,894.2,1275.9,891z"/>
		<path id="XMLID_770_" class="st7" d="M1282.3,878.6h17.8v3h-7.2v17.7h-3.5v-17.7h-7.2V878.6z"/>
		<path id="XMLID_767_" class="st7" d="M1321.3,888.9h-15.8c0.1,4.9,2.3,7.9,6.6,7.9c2.9,0,4.6-1.2,5.3-3.2h3.5
			c-0.7,3.5-3.7,6.3-8.8,6.3c-6.5,0-10.1-4.7-10.1-11.1s3.7-10.7,10-10.7c6.2,0,9.1,4.6,9.3,9.7V888.9z M1305.7,886h12
			c-0.2-2.6-2.2-4.9-5.7-4.9C1308.2,881.1,1306.2,883.4,1305.7,886z"/>
		<path id="XMLID_765_" class="st7" d="M1323.4,896.1h0.7c2.8,0,4.1-2.1,4.1-9.4v-8h15.9v20.7h-3.5v-17.7h-9.1v5.1
			c0,9.5-2.2,12.6-7.3,12.6h-0.7V896.1z"/>
		<path id="XMLID_762_" class="st7" d="M1353.2,885.5h6.1c5.1,0,7.8,2.6,7.8,6.9c0,4.3-2.8,6.9-7.8,6.9h-9.6v-20.7h3.5V885.5z
			 M1358.8,896.3c3.6,0,4.8-1.5,4.8-3.9c0-2.5-1.2-3.9-4.8-3.9h-5.6v7.8H1358.8z"/>
		<path id="XMLID_760_" class="st7" d="M1386,899.3v-9.1h-11.5v9.1h-3.5v-20.7h3.5v8.6h11.5v-8.6h3.5v20.7H1386z"/>
		<path id="XMLID_756_" class="st7" d="M1398.7,878.6v6.9h5.7c5.1,0,7.8,2.6,7.8,6.9c0,4.3-2.8,6.9-7.8,6.9h-9.2v-20.7H1398.7z
			 M1398.7,896.3h5.2c3.6,0,4.8-1.5,4.8-3.9c0-2.5-1.2-3.9-4.8-3.9h-5.2V896.3z M1419.1,878.6v20.7h-3.5v-20.7H1419.1z"/>
		<path id="XMLID_753_" class="st7" d="M1424.8,899.3v-20.7h3.4v16h0.9l9.1-16h5.1v20.7h-3.4v-16h-0.9l-9.3,16H1424.8z
			 M1440.4,869.6c-0.1,3.8-2.5,6-6.4,6c-3.9,0-6.2-2.2-6.4-6h2.8c0,2.1,1.1,3.5,3.5,3.5c2.5,0,3.5-1.4,3.6-3.5H1440.4z"/>
		<path id="XMLID_751_" class="st7" d="M1176.9,924.2h17.8v3h-7.2v17.7h-3.5v-17.7h-7.2V924.2z"/>
		<path id="XMLID_748_" class="st7" d="M1216,934.5h-15.8c0.1,4.9,2.3,7.9,6.6,7.9c2.9,0,4.6-1.2,5.3-3.2h3.5
			c-0.7,3.5-3.7,6.3-8.8,6.3c-6.5,0-10.1-4.7-10.1-11.1s3.7-10.7,10-10.7c6.2,0,9.1,4.6,9.3,9.7V934.5z M1200.4,931.6h12
			c-0.2-2.6-2.2-4.9-5.7-4.9C1202.9,926.7,1200.8,928.9,1200.4,931.6z"/>
		<path id="XMLID_746_" class="st7" d="M1230.1,935.8h-6.2v9.1h-3.5v-20.7h3.5v8.6h6.3l4.3-8.6h3.7l-5.1,10l5.3,10.7h-3.7
			L1230.1,935.8z"/>
		<path id="XMLID_744_" class="st7" d="M1259.2,938.6c-0.8,4.1-3.9,6.8-8.7,6.8c-6.5,0-10.1-4.8-10.1-10.9c0-6.3,3.6-10.9,10.1-10.9
			c4.9,0,7.9,2.7,8.6,6.5h-3.5c-0.7-2.1-2.3-3.5-5.1-3.5c-4.7,0-6.6,3.7-6.6,7.8c0,4.2,1.9,7.9,6.6,7.9c3,0,4.7-1.4,5.2-3.7H1259.2z
			"/>
		<path id="XMLID_742_" class="st7" d="M1261.3,924.2h17.8v3h-7.2v17.7h-3.5v-17.7h-7.2V924.2z"/>
		<path id="XMLID_740_" class="st7" d="M1290.3,924.1c0.3-5.8,4.5-8.5,9.6-8.5c5.4,0,9.3,3,9.3,8.8c0,3.9-3,7.6-6.4,10.4l-7.2,6.1
			v0.9h14.5v3.2h-19.8v-4.1l4.2-3.5c2.3-1.9,5-4.2,6.5-5.6c2-1.8,4.5-4.1,4.5-7.5c0-3.6-2.3-5.6-5.8-5.6c-3.2,0-5.5,1.7-5.9,5.3
			H1290.3z"/>
		<path id="XMLID_737_" class="st7" d="M1334.3,934.9v3.2h-3.9v6.7h-3.5v-6.7h-14.2V934l12.7-17.9h5.1v18.8H1334.3z M1326.9,934.9
			v-14.8h-0.9l-9.6,13.9v0.9H1326.9z"/>
		<path id="XMLID_735_" class="st7" d="M1335.1,950.7l12.4-37h3.2l-12.3,37H1335.1z"/>
		<path id="XMLID_733_" class="st7" d="M1353,924.1c0.3-5.8,4.5-8.5,9.6-8.5c5.4,0,9.3,3,9.3,8.8c0,3.9-3,7.6-6.4,10.4l-7.2,6.1v0.9
			h14.5v3.2H1353v-4.1l4.2-3.5c2.3-1.9,5-4.2,6.5-5.6c2-1.8,4.5-4.1,4.5-7.5c0-3.6-2.3-5.6-5.8-5.6c-3.2,0-5.5,1.7-5.9,5.3H1353z"/>
		<path id="XMLID_730_" class="st7" d="M1396.3,935.5c0,5.5-3.7,9.9-9.8,9.9c-6.1,0-10.6-3.8-10.6-14.1c0-8.8,3.4-15.7,10.9-15.7
			c4.9,0,8,2.9,8.6,6.9h-3.6c-0.7-2.4-2.3-3.7-5.1-3.7c-4.6,0-7.2,3.9-7.4,10.2h0.9c1-1.2,3.3-2.8,6.7-2.8
			C1392.4,926.2,1396.3,930.1,1396.3,935.5z M1392.7,935.7c0-4.3-2.8-6.4-6.3-6.4c-3.5,0-6.2,2.2-6.2,6.3c0,4.2,2.8,6.6,6.3,6.6
			C1390,942.2,1392.7,940,1392.7,935.7z"/>
		<path id="XMLID_727_" class="st7" d="M1403.8,924.2v2.2h0.9c1.2-1.4,3.2-2.8,6.5-2.8c5.7,0,9.1,4.8,9.1,10.9
			c0,6.2-3.4,10.9-9.1,10.9c-3.3,0-5.2-1.3-6.3-2.8h-0.9v10.4h-3.5v-28.9H1403.8z M1403.9,934.5c0,4.1,1.9,7.9,6.5,7.9
			c4.2,0,6.4-3.2,6.4-7.9c0-4.6-2.2-7.9-6.4-7.9C1405.8,926.7,1403.9,930.5,1403.9,934.5z"/>
		<path id="XMLID_725_" class="st7" d="M1434.7,924.2v3h-5.2v11.4c0,2.1,0.9,3.2,3.7,3.2h1.5v3.1h-1.6c-4.5,0-7.1-1.4-7.1-5.8v-11.9
			h-3.6v-3h3.6v-6.2h3.5v6.2H1434.7z"/>
		<path id="XMLID_723_" class="st7" d="M1439.2,944.9v-4.8h4.3v4.8H1439.2z"/>
	</g>
</g>
</svg>
