<?xml version="1.0" encoding="utf-8"?>
<!-- Generator: Adobe Illustrator 19.0.0, SVG Export Plug-In . SVG Version: 6.00 Build 0)  -->
<svg version="1.1" id="Layer_1" xmlns="http://www.w3.org/2000/svg" xmlns:xlink="http://www.w3.org/1999/xlink" x="0px" y="0px"
	 viewBox="0 0 1500 1000" style="enable-background:new 0 0 1500 1000;" xml:space="preserve">
<style type="text/css">
	.st0{fill:#36AFA7;}
	.st1{fill:#FFFFFF;}
</style>
<g id="XMLID_1330_">
	<g id="XMLID_369_">
		<path id="XMLID_370_" class="st0" d="M97.8,2.5l41.1,137.1h-35.5l-10-35.5H47.3l-9.8,35.5H2.8L43.9,2.5H97.8z M66.1,36.3L55,76
			h30.5L74.6,36.3H66.1z"/>
		<path id="XMLID_373_" class="st0" d="M266,42c-1.7-8.3-8.4-12.3-20.2-12.3c-10,0-17.5,4-17.5,11.9c0,5.6,4.4,9.2,13.2,10.6l25.2,4
			c24,3.8,39.2,17.1,39.2,41.1c0,12.7-5,23.2-14.8,31.9c-9.8,8.6-24,12.9-42.4,12.9c-36.1,0-57.6-16.9-60.5-46.7h36.5
			c1.7,11.3,10.2,16.9,25.5,16.9c12.3,0,19.8-5.2,19.8-12.9c0-7.9-5-11.3-15.7-13.1l-25.7-4.2c-24-3.8-36.3-17.7-36.3-39
			c0-12.3,4.8-22.5,14.4-30.7C216.3,4.2,229.5,0,246.2,0c15.6,0,28.6,3.8,38.8,11.3c10.4,7.5,16.1,17.7,17.5,30.7H266z"/>
		<path id="XMLID_375_" class="st0" d="M411.9,76.6v63h-30.5v-7.7H376c-6,6.7-14.8,10.2-26.3,10.2c-10.6,0-19.2-3.3-25.5-9.8
			c-6.3-6.5-9.4-14.4-9.4-23.8c0-8.8,3.5-16.5,10.6-23.2s17.5-10,31.5-10h23v-1.7c0-8.4-4.6-12.7-13.6-12.7
			c-8.1,0-12.5,2.9-13.2,8.6h-33c0.2-9.8,4.4-17.5,12.7-23.4c8.3-6,18.8-8.8,31.7-8.8C396,37.2,411.9,50.3,411.9,76.6z M379.9,94.3
			h-16.1c-9.4,0-15.6,4.4-15.6,11.5c0,7.9,4.8,11.7,14.2,11.7c10.8,0,17.5-7.3,17.5-17.3V94.3z"/>
		<path id="XMLID_378_" class="st0" d="M529.8,79.3v60.3h-33.4V84.9c0-11.7-5.6-18.4-15.7-18.4c-10.9,0-17.7,9-17.7,20.5v52.6h-33.4
			V39.7h32.3v8.6h5.4c6.1-7.5,15-11.1,26.5-11.1C517.7,37.2,529.8,51.3,529.8,79.3z"/>
		<path id="XMLID_380_" class="st0" d="M601.8,76.6c22.7,3.1,34,13.8,34,32.3c0,9.2-4,17.1-12.1,23.6c-8.1,6.3-19.6,9.6-34.4,9.6
			c-30.5,0-46.5-13.2-48.6-35.3h33c1,7.7,6.3,11.5,15.9,11.5c8.4,0,12.7-2.9,12.7-8.6c0-5.4-3.6-7.5-12.1-9l-17.7-2.9
			c-19-3.1-28.6-12.5-28.6-28c0-19,15-32.4,44.4-32.4c25.3,0,41.9,12.3,44.2,30.7h-32.8c-1-4.8-5-7.3-12.1-7.3
			c-6,0-10.2,2.3-10.2,6.7c0,3.8,2.7,6.1,8.1,6.9L601.8,76.6z"/>
	</g>
	<g id="XMLID_355_">
		<path id="XMLID_356_" class="st0" d="M101.8,242.2c9,4,17.1,15.2,17.1,27.6c0,24.4-15.9,40.3-47.6,40.3H2V173.1h67.2
			c30,0,46.1,15.7,46.1,37.4c0,11.7-5.6,21.9-13.4,26.3V242.2z M37.7,201.9v23.6h26.7c9.4,0,14.2-3.8,14.2-11.7s-4.8-11.9-14.6-11.9
			H37.7z M65.5,280.8c9.2,0,16.7-3.8,16.7-12.9s-5.4-13.6-16.1-13.6H37.7v26.5H65.5z"/>
		<path id="XMLID_360_" class="st0" d="M134.4,170.6h33.4v139.6h-33.4V170.6z"/>
		<path id="XMLID_362_" class="st0" d="M277.3,247.2v63h-30.5v-7.7h-5.4c-6,6.7-14.8,10.2-26.3,10.2c-10.6,0-19.2-3.3-25.5-9.8
			c-6.3-6.5-9.4-14.4-9.4-23.8c0-8.8,3.5-16.5,10.6-23.2s17.5-10,31.5-10h23v-1.7c0-8.4-4.6-12.7-13.6-12.7
			c-8.1,0-12.5,2.9-13.2,8.6h-33c0.2-9.8,4.4-17.5,12.7-23.4c8.3-6,18.8-8.8,31.7-8.8C261.4,207.8,277.3,220.9,277.3,247.2z
			 M245.2,264.8h-16.1c-9.4,0-15.6,4.4-15.6,11.5c0,7.9,4.8,11.7,14.2,11.7c10.8,0,17.5-7.3,17.5-17.3V264.8z"/>
		<path id="XMLID_365_" class="st0" d="M388.8,274.4c-1,11.3-5.8,20.5-14.8,27.6c-8.8,7.1-19.8,10.6-32.8,10.6
			c-15.6,0-28.2-4.6-37.6-14s-14-22.3-14-38.4c0-16.1,4.6-28.8,14-38.2c9.4-9.4,22.1-14.2,37.6-14.2c12.9,0,23.6,3.3,32.3,10
			c8.6,6.7,13.4,15.4,14.4,26.3h-32.8c-1.7-6-6.3-9-13.6-9c-12.9,0-18.4,10.4-18.4,25.2c0,15.2,5.6,25.2,18.4,25.2
			c8.6,0,13.6-3.6,14.6-10.9H388.8z"/>
		<path id="XMLID_367_" class="st0" d="M507.9,310.1h-34.6l-20.2-42.4h-5.4L436.3,281v29.2h-33.6V170.6h33.6v72.6l30.7-32.8h36.7
			l-28.2,30.9L507.9,310.1z"/>
	</g>
</g>
<g id="XMLID_345_">
	<path id="XMLID_346_" class="st1" d="M764.2,253.5c-8.3-8.3-12.5-19-12.5-32.1c0-13.6,4.8-25,14.2-34.4c9.4-9.4,21.9-14,37.2-14
		c31.7,0,56.1,18,56.1,68c0,22.1-4.6,39.6-14,52.4c-9.4,12.9-23.4,19.2-42.2,19.2c-12.5,0-23.4-3.6-32.4-10.9
		c-9-7.5-14.2-16.3-15.6-26.9h34.2c1.5,6.9,6.5,10.4,14.8,10.4c12.5,0,21.3-8.8,22.7-28.6h-5.4c-5.8,6.3-14.4,9.4-26.1,9.4
		C783,266,772.6,261.8,764.2,253.5z M786.1,220.5c0,6.1,1.5,10.9,4.8,14.4c3.3,3.3,7.7,5,13.2,5s9.8-1.7,13.1-5
		c3.3-3.3,5-8.1,5-14.2c0-12.3-7.3-20-18-20C793.2,200.7,786.1,208,786.1,220.5z"/>
	<path id="XMLID_349_" class="st1" d="M923.7,173.1c16.3,0,29.6,5.8,39.6,17.3c10,11.5,15,29,15,52.4c0,23.4-5,40.9-15,52.6
		c-10,11.5-23.2,17.3-39.6,17.3s-29.6-5.8-39.6-17.3c-10-11.7-15-29.2-15-52.6c0-23.4,5-40.9,15-52.4
		C894.2,178.8,907.4,173.1,923.7,173.1z M923.7,203.2c-13.4,0-20.2,13.2-20.2,39.6c0,26.5,6.7,39.7,20.2,39.7s20.2-13.2,20.2-39.7
		C943.9,216.4,937.2,203.2,923.7,203.2z"/>
	<path id="XMLID_352_" class="st1" d="M1042.8,173.1c16.3,0,29.6,5.8,39.6,17.3c10,11.5,15,29,15,52.4c0,23.4-5,40.9-15,52.6
		c-10,11.5-23.2,17.3-39.6,17.3s-29.6-5.8-39.6-17.3c-10-11.7-15-29.2-15-52.6c0-23.4,5-40.9,15-52.4
		C1013.2,178.8,1026.5,173.1,1042.8,173.1z M1042.8,203.2c-13.4,0-20.2,13.2-20.2,39.6c0,26.5,6.7,39.7,20.2,39.7
		s20.2-13.2,20.2-39.7C1062.9,216.4,1056.2,203.2,1042.8,203.2z"/>
</g>
<g id="XMLID_62_">
	<path id="XMLID_63_" class="st1" d="M772.8,472.1l11.6,38.6h-10l-2.8-10h-13l-2.8,10h-9.8l11.6-38.6H772.8z M763.9,481.6l-3.1,11.2
		h8.6l-3.1-11.2H763.9z"/>
	<path id="XMLID_66_" class="st1" d="M799.5,481v5.2h9.2c8.7,0,13.8,4.5,13.8,12.2c0,7.8-5.1,12.4-13.8,12.4h-19.2v-38.6h29.4v8.9
		H799.5z M806.9,502.1c3.8,0,5.3-1.3,5.3-4c0-2.6-1.8-4-5.3-4h-7.4v8H806.9z"/>
	<path id="XMLID_69_" class="st1" d="M857.2,491.6c2.5,1.1,4.8,4.3,4.8,7.8c0,6.9-4.5,11.3-13.4,11.3h-19.5v-38.6h18.9
		c8.4,0,13,4.4,13,10.5c0,3.3-1.6,6.2-3.8,7.4V491.6z M839.2,480.2v6.6h7.5c2.6,0,4-1.1,4-3.3s-1.3-3.3-4.1-3.3H839.2z M847,502.4
		c2.6,0,4.7-1.1,4.7-3.6s-1.5-3.8-4.5-3.8h-8v7.5H847z"/>
	<path id="XMLID_73_" class="st1" d="M879.1,481v29.7h-10v-38.6h28.8v8.9H879.1z"/>
	<path id="XMLID_75_" class="st1" d="M929.6,510.7h-22.7v9.5h-9.7v-18.3h4c2.8-4.5,4.2-10.4,4.2-17.9v-11.8h28.5v29.7h5.5v18.3h-9.7
		V510.7z M924.1,501.8V481h-9.8v2.9c0,8.3-1.1,14.2-3.4,17.9H924.1z"/>
	<path id="XMLID_78_" class="st1" d="M969.7,495.4h-14.9v6.5h20v8.9h-30.1v-38.6h29.6v8.9h-19.5v5.7h14.9V495.4z"/>
	<path id="XMLID_80_" class="st1" d="M1006.1,495.4h-14.9v6.5h20v8.9h-30.1v-38.6h29.6v8.9h-19.5v5.7h14.9V495.4z M986.7,462.3h7.5
		v7h-7.5V462.3z M997.9,462.3h7.5v7h-7.5V462.3z"/>
	<path id="XMLID_84_" class="st1" d="M1038.5,486.6v-14.5h9.7v14.5h6.7l5.7-14.5h10.1l-7.7,19l8.2,19.5h-10.1l-6.2-15.1h-6.8v15.1
		h-9.7v-15.1h-6.8l-6.2,15.1h-10.1l8.2-19.5l-7.7-19h10.1l5.7,14.5H1038.5z"/>
	<path id="XMLID_86_" class="st1" d="M1091.6,480.3c-3.5,0-5.4,1.1-5.7,3.5h-10.4c0.7-7.8,6.9-12.3,16.4-12.3c4.6,0,8.3,1,11,3
		c2.8,1.9,4.1,4.5,4.1,7.8c0,3.5-1.2,5.9-3.8,7.3v1.5c3.4,1.2,5.1,3.9,5.1,8.3c0,3.5-1.5,6.4-4.5,8.7c-3,2.2-7,3.3-12,3.3
		c-11,0-16.8-4.7-17.7-13.1h10.6c0.6,2.9,3,4.3,7,4.3c3.7,0,6-1.5,6-3.7c0-2.4-1.8-3.6-5.5-3.6h-5.3v-8.6h5.3c2.9,0,4.4-1.1,4.4-3.2
		C1096.7,481.5,1094.5,480.3,1091.6,480.3z"/>
	<path id="XMLID_88_" class="st1" d="M1115.2,472.1h9.2v24.4h1.5l11.4-24.4h12.9v38.6h-9.2v-24.4h-1.5l-11.4,24.4h-12.9V472.1z"/>
	<path id="XMLID_90_" class="st1" d="M1158.6,472.1h9.2v24.4h1.5l11.4-24.4h12.9v38.6h-9.2v-24.4h-1.5l-11.4,24.4h-12.9V472.1z
		 M1172.5,461.9c0.5,1.7,1.7,2.5,3.6,2.5s3.1-0.8,3.6-2.5h7.1c-0.6,5.1-4.3,8.3-10.7,8.3s-10-3.1-10.7-8.3H1172.5z"/>
	<path id="XMLID_93_" class="st1" d="M1201.9,510.7v-38.6h10v14.2h7.8l6.6-14.2h10.1l-8.6,18.7l9.1,19.8h-10.1l-7.1-15.3h-7.8v15.3
		H1201.9z"/>
	<path id="XMLID_95_" class="st1" d="M1239.3,510.7V501h1.5c1.5,0,2.5-0.2,3.2-0.6c1.3-0.9,2.2-3.9,2.2-11.1v-17.1h29.9v38.6h-10
		V481h-10.5v8.5c0,9.1-1,14.5-3.7,17.5c-2.6,3-5.6,3.7-10.9,3.7H1239.3z"/>
	<path id="XMLID_97_" class="st1" d="M1309.4,472.1h15v38.6h-9.2v-26.1h-1.5l-4.4,13.9h-9.8l-4.4-13.9h-1.5v26.1h-9.2v-38.6h15
		l4.3,14h1.5L1309.4,472.1z"/>
	<path id="XMLID_99_" class="st1" d="M1357.1,472.1h10v38.6h-10v-15.3h-14.3v15.3h-10v-38.6h10v14.3h14.3V472.1z"/>
	<path id="XMLID_101_" class="st1" d="M1393,471.4c6.1,0,10.8,1.8,14.2,5.6c3.4,3.7,5.1,8.5,5.1,14.4s-1.7,10.7-5.1,14.4
		c-3.4,3.7-8.1,5.6-14.2,5.6c-6.1,0-10.8-1.8-14.2-5.6c-3.4-3.7-5.1-8.5-5.1-14.4s1.7-10.7,5.1-14.4
		C1382.2,473.3,1386.9,471.4,1393,471.4z M1393,502.5c5.8,0,9-4.4,9-11.1s-3.2-11.1-9-11.1s-9,4.4-9,11.1
		C1384,498.1,1387.2,502.5,1393,502.5z"/>
	<path id="XMLID_104_" class="st1" d="M1418.9,472.1h34v38.6h-10V481H1429v29.7h-10V472.1z"/>
	<path id="XMLID_106_" class="st1" d="M767.8,538.1c9.1,0,14.4,4.7,14.4,12.7c0,8.2-5.3,12.9-14.4,12.9h-8.4v13h-10v-38.6H767.8z
		 M766.5,555.1c3.6,0,5.5-1.4,5.5-4.2s-1.6-4.1-5.5-4.1h-7.1v8.3H766.5z"/>
	<path id="XMLID_109_" class="st1" d="M822.6,563.6c-0.5,4.2-2.3,7.5-5.2,10c-3,2.5-6.8,3.8-11.4,3.8c-5.9,0-10.5-1.8-13.8-5.4
		s-5-8.5-5-14.6s1.7-10.9,5-14.5s7.9-5.5,13.8-5.5c4.4,0,8.1,1.2,11,3.5c2.9,2.3,4.7,5.3,5.3,9.1h-10.4c-0.6-2.4-2.9-3.8-5.9-3.8
		c-5.5,0-8.5,4.4-8.5,11.1s3.1,11.1,8.5,11.1c3.5,0,5.8-1.8,6.3-5H822.6z"/>
	<path id="XMLID_111_" class="st1" d="M859.1,538.1v8.9h-11.6v29.7h-10V547H826v-8.9H859.1z"/>
	<path id="XMLID_113_" class="st1" d="M878.8,553.5h1.5l7.3-15.4h10l-18.5,38.6h-9.9l5.5-11.6l-14.3-27h10.4L878.8,553.5z"/>
	<path id="XMLID_115_" class="st1" d="M926.6,541.5h0.4c5.3,0,9.6,1.4,12.7,4c3.2,2.6,4.8,6.5,4.8,11.4c0,5-1.6,8.8-4.8,11.4
		c-3.2,2.6-7.4,3.9-12.7,3.9h-0.4v5.1h-9.5v-5.1h-0.4c-5.3,0-9.6-1.3-12.8-3.9c-3.2-2.6-4.8-6.4-4.8-11.4c0-4.9,1.6-8.7,4.8-11.4
		c3.2-2.6,7.5-4,12.7-4h0.4v-4.6h9.5V541.5z M917.1,563.9v-14.1h-0.4c-4.8,0-7.6,2.3-7.6,7.1c0,4.7,2.9,7,7.6,7H917.1z M926.6,563.9
		h0.4c4.7,0,7.6-2.3,7.6-7c0-4.8-2.8-7.1-7.6-7.1h-0.4V563.9z"/>
	<path id="XMLID_119_" class="st1" d="M972.9,576.7l-7-14.9h-1.5l-7.1,14.9h-10.6l10-20.2l-8.7-18.4h10l6.5,13.4h1.5l6.6-13.4h9.9
		l-8.9,18.2l10,20.4H972.9z"/>
	<path id="XMLID_121_" class="st1" d="M1018.4,586.1v-9.5h-29.5v-38.6h10v29.7h13.7v-29.7h10v29.7h5.5v18.3H1018.4z"/>
	<path id="XMLID_123_" class="st1" d="M1032,538.1h10v11c0,1.8,0.1,2.5,0.9,3.8c0.8,1.2,2.9,1.8,6.2,1.8c1.7,0,3.4-0.2,5-0.7v-15.8
		h10v38.6h-10v-14c-2.3,0.6-4.9,0.9-7.8,0.9c-5.8,0-9.5-1.1-11.4-3c-1.4-1.3-2-2.4-2.4-4.3c-0.4-1.9-0.4-3-0.4-5.1V538.1z"/>
	<path id="XMLID_125_" class="st1" d="M1122.5,576.7h-50v-38.6h9.7v29.7h10.4v-29.7h9.7v29.7h10.4v-29.7h9.7V576.7z"/>
	<path id="XMLID_127_" class="st1" d="M1176.5,586.1v-9.5h-45.7v-38.6h9.7v29.7h10.4v-29.7h9.7v29.7h10.4v-29.7h9.7v29.7h5.5v18.3
		H1176.5z"/>
	<path id="XMLID_129_" class="st1" d="M1216,550.3c9.3,0,14.8,4.9,14.8,13.1c0,8.4-5.5,13.3-14.8,13.3h-18.2V547h-9.8v-8.9h19.8
		v12.2H1216z M1214.5,568.1c4.3,0,6.1-1.6,6.1-4.6s-1.8-4.6-6.1-4.6h-6.6v9.2H1214.5z"/>
	<path id="XMLID_132_" class="st1" d="M1254.1,550.3c9.3,0,14.9,4.9,14.9,13.1c0,8.4-5.5,13.3-14.9,13.3h-16.6v-38.6h10v12.2H1254.1
		z M1252.6,568.1c4.3,0,6.1-1.6,6.1-4.6s-1.8-4.6-6.1-4.6h-5.1v9.2H1252.6z M1282.8,538.1v38.6h-10v-38.6H1282.8z"/>
	<path id="XMLID_136_" class="st1" d="M1309.3,550.3c9.3,0,14.9,4.9,14.9,13.1c0,8.4-5.5,13.3-14.9,13.3h-18.2v-38.6h10v12.2H1309.3
		z M1307.8,568.1c4.3,0,6.1-1.6,6.1-4.6s-1.8-4.6-6.1-4.6h-6.6v9.2H1307.8z"/>
	<path id="XMLID_139_" class="st1" d="M1338.9,564.7c0.5,2.4,2.9,3.8,6.3,3.8c4.2,0,7.2-2.5,7.8-6.9h-12V553h12
		c-0.8-4.3-3.6-6.8-7.7-6.8c-3,0-5.4,1.2-6,3.3h-10.4c0.6-3.6,2.4-6.6,5.3-8.8c2.9-2.3,6.6-3.4,11-3.4c5.9,0,10.4,1.8,13.7,5.5
		s5,8.4,5,14.5s-1.7,11-5,14.6c-3.3,3.6-7.9,5.4-13.8,5.4c-4.6,0-8.5-1.2-11.5-3.5c-3-2.3-4.7-5.4-5.1-9.2H1338.9z"/>
	<path id="XMLID_141_" class="st1" d="M1418.9,543c3.4,3.7,5.1,8.5,5.1,14.4s-1.7,10.7-5.1,14.4c-3.3,3.7-8,5.6-14,5.6
		c-5.3,0-9.6-1.5-12.9-4.3c-3.2-2.9-5.2-6.8-5.9-11.7h-5.7v15.3h-10v-38.6h10v14.3h5.9c0.9-4.5,3-8.2,6.2-10.9
		c3.2-2.8,7.3-4.1,12.4-4.1C1410.9,537.4,1415.6,539.3,1418.9,543z M1405,568.5c5.6,0,8.8-4.5,8.8-11.1s-3.2-11.1-8.8-11.1
		c-5.6,0-8.8,4.4-8.8,11.1C1396.2,564.1,1399.4,568.5,1405,568.5z"/>
	<path id="XMLID_144_" class="st1" d="M1461.5,538.1v38.6h-10v-13.5h-8l-4.8,13.5h-10l5.6-15.5c-3.7-2.1-5.6-5.7-5.6-10.6
		c0-7.8,5.2-12.5,14.1-12.5H1461.5z M1451.5,554.8v-7.9h-7.5c-3.5,0-5.2,1.3-5.2,3.9c0,2.6,1.7,4,5.2,4H1451.5z"/>
	<path id="XMLID_147_" class="st1" d="M774.4,649v17.7h-8.6v-2.2h-1.5c-1.7,1.9-4.2,2.9-7.4,2.9c-3,0-5.4-0.9-7.2-2.8
		c-1.8-1.8-2.6-4.1-2.6-6.7c0-2.5,1-4.6,3-6.5s4.9-2.8,8.9-2.8h6.5v-0.5c0-2.4-1.3-3.6-3.8-3.6c-2.3,0-3.5,0.8-3.7,2.4h-9.3
		c0.1-2.8,1.2-4.9,3.6-6.6c2.3-1.7,5.3-2.5,8.9-2.5C769.9,637.9,774.4,641.6,774.4,649z M765.4,654h-4.5c-2.6,0-4.4,1.2-4.4,3.2
		c0,2.2,1.3,3.3,4,3.3c3,0,4.9-2.1,4.9-4.9V654z"/>
	<path id="XMLID_150_" class="st1" d="M780,649.9c0-11.7,3.7-18.2,11.1-19.3l7.1-1.1c2.1-0.4,2.8-0.8,2.9-2h7.2c0,2-0.2,3.3-0.9,5.1
		c-0.7,1.7-2.3,2.9-4.9,3.3l-9.6,1.5c-3.5,0.5-5.4,2.1-6.3,6.4h1.5c1.6-2.5,4.4-3.8,8.4-3.8c3.9,0,7.2,1.3,9.7,3.9
		c2.5,2.5,3.8,5.8,3.8,9.9c0,4.1-1.4,7.3-4.2,9.9c-2.8,2.5-6.4,3.8-10.7,3.8C785.6,667.4,780,661.3,780,649.9z M795.1,659.7
		c3.7,0,5.6-2.7,5.6-6.4c0-3.7-1.8-6.3-5.6-6.3c-3.7,0-5.6,2.7-5.6,6.3C789.5,657,791.4,659.7,795.1,659.7z"/>
	<path id="XMLID_153_" class="st1" d="M838.9,652.6c2.9,0.7,4.8,2.9,4.8,6.3c0,5.1-3.5,7.8-9.9,7.8H816v-28.1h17.3
		c5.6,0,8.9,2.6,8.9,7.1c0,2.5-1.5,4.4-3.3,5.3V652.6z M825.2,644.6v4.9h4.8c1.9,0,2.9-0.8,2.9-2.4s-1-2.4-2.9-2.4H825.2z
		 M830.7,660.7c2.4,0,3.6-1,3.6-2.9c0-1.9-1.2-2.9-3.6-2.9h-5.5v5.7H830.7z"/>
	<path id="XMLID_157_" class="st1" d="M849.9,666.7v-28.1h23.7v7.7h-14.3v20.4H849.9z"/>
	<path id="XMLID_159_" class="st1" d="M904.9,659h4.9v15.4H901v-7.7h-18.8v7.7h-8.7V659h4.4c1.2-3.7,1.8-7.8,1.8-12.1v-8.3h25.2V659
		z M895.5,659v-12.7h-7.3v0.7c0,4.3-0.5,8.3-1.6,12H895.5z"/>
	<path id="XMLID_162_" class="st1" d="M942.2,657.6c-1.2,6.2-5.9,9.8-13.8,9.8c-4.5,0-8.1-1.3-10.7-3.9c-2.6-2.6-4-6.2-4-10.8
		s1.3-8.2,3.9-10.8c2.6-2.6,6.2-3.9,10.6-3.9s7.9,1.2,10.4,3.8c2.5,2.5,3.8,5.8,3.8,10v2.2H923c0.3,3.9,2.2,5.8,5.6,5.8
		c2.1,0,3.5-0.7,4.1-2.1H942.2z M923.4,648.3h9.5c-0.5-2.4-2.1-3.7-4.6-3.7S924.1,645.8,923.4,648.3z"/>
	<path id="XMLID_165_" class="st1" d="M975.4,657.6c-1.2,6.2-5.9,9.8-13.8,9.8c-4.5,0-8.1-1.3-10.7-3.9c-2.6-2.6-4-6.2-4-10.8
		s1.3-8.2,3.9-10.8c2.6-2.6,6.2-3.9,10.6-3.9s7.9,1.2,10.4,3.8c2.5,2.5,3.8,5.8,3.8,10v2.2h-19.4c0.3,3.9,2.2,5.8,5.6,5.8
		c2.1,0,3.5-0.7,4.1-2.1H975.4z M952.2,628.4h7.5v7.8h-7.5V628.4z M956.5,648.3h9.5c-0.5-2.4-2.1-3.7-4.6-3.7
		S957.2,645.8,956.5,648.3z M963.3,628.4h7.5v7.8h-7.5V628.4z"/>
	<path id="XMLID_170_" class="st1" d="M993.9,656.2l-4.8,10.5h-9.5l6.8-14.4l-6.3-13.7h9.3l4.5,9.9h4.4v-9.9h8.6v9.9h4.4l4.5-9.9
		h9.3l-6.3,13.7l6.8,14.4h-9.5l-4.8-10.5h-4.4v10.5h-8.6v-10.5H993.9z"/>
	<path id="XMLID_172_" class="st1" d="M1042.3,645.3c-2.6,0-4.1,0.8-4.3,2.4h-8.5c0.6-6.5,5.9-9.8,13.6-9.8c3.8,0,6.8,0.8,9.1,2.3
		c2.3,1.5,3.4,3.5,3.4,5.9s-0.9,4.2-2.8,5.2v1.5c2.3,0.8,3.5,2.6,3.5,5.5c0,2.7-1.2,4.9-3.7,6.6c-2.4,1.7-5.7,2.5-9.6,2.5
		c-9,0-13.8-3.3-14.4-10h8.5c0.4,1.7,2.2,2.6,5.2,2.6c3,0,4.5-0.8,4.5-2.4c0-1.4-1.2-2-3.6-2h-4.4v-5.9h4.1c2.2,0,3.2-0.7,3.2-2.1
		C1046.3,646.2,1044.9,645.3,1042.3,645.3z"/>
	<path id="XMLID_174_" class="st1" d="M1070.5,666.7h-7.9v-28.1h9.1v12.7h1.3l10-12.7h7.9v28.1h-9.1V654h-1.3L1070.5,666.7z"/>
	<path id="XMLID_176_" class="st1" d="M1106.3,666.7h-7.9v-28.1h9.1v12.7h1.3l10-12.7h7.9v28.1h-9.1V654h-1.3L1106.3,666.7z
		 M1109,628.1c0.5,1.7,1.7,2.5,3.6,2.5c1.9,0,3.1-0.8,3.6-2.5h7.1c-0.6,5.1-4.3,8.3-10.7,8.3c-6.4,0-10-3.1-10.7-8.3H1109z"/>
	<path id="XMLID_179_" class="st1" d="M1153.8,666.7l-5.3-10.6h-4.8v10.6h-9.4v-28.1h9.4v9.8h4.9l5-9.8h9.5l-6.9,13.6l7.3,14.5
		H1153.8z"/>
	<path id="XMLID_181_" class="st1" d="M1166.3,666.7v-9h1c3.5,0,4.9-1.7,4.9-6.7v-12.4h25.4v28.1h-9.4v-20.4h-7.5v5.1
		c0,5.6-1.1,9.5-3.2,11.8c-2.2,2.3-5.6,3.5-10.3,3.5H1166.3z"/>
	<path id="XMLID_183_" class="st1" d="M1229.4,651.6l-3.2,7.3h-7.1l-3.2-7.3h-1.5v15.1h-9.1v-28.1h11.7l5,11.2h1.5l5-11.2h11.7v28.1
		h-9.1v-15.1H1229.4z"/>
	<path id="XMLID_185_" class="st1" d="M1275.7,666.7h-9.4v-10.6h-9.4v10.6h-9.4v-28.1h9.4v9.8h9.4v-9.8h9.4V666.7z"/>
	<path id="XMLID_187_" class="st1" d="M1307.5,641.9c2.8,2.6,4.1,6.3,4.1,10.7c0,4.5-1.3,8.1-4.1,10.7c-2.7,2.6-6.3,4-10.9,4
		c-4.5,0-8.2-1.4-10.9-4c-2.8-2.6-4.1-6.3-4.1-10.7c0-4.5,1.4-8.1,4.1-10.7c2.8-2.6,6.4-4,10.9-4
		C1301.2,637.9,1304.8,639.3,1307.5,641.9z M1296.6,645.6c-3.7,0-5.6,2.9-5.6,7.1s1.9,7.1,5.6,7.1c3.7,0,5.6-2.8,5.6-7.1
		C1302.2,648.5,1300.4,645.6,1296.6,645.6z"/>
	<path id="XMLID_190_" class="st1" d="M1345.5,666.7h-9.4v-20.4h-9.2v20.4h-9.4v-28.1h28V666.7z"/>
	<path id="XMLID_192_" class="st1" d="M1363.9,664.3h-1.5v13.2h-9.4v-38.9h9.1v2.4h1.5c1.7-2.1,4.2-3.1,7.3-3.1
		c3.6,0,6.4,1.3,8.5,4.1c2.1,2.7,3.1,6.3,3.1,10.6s-1.1,7.9-3.2,10.6c-2.1,2.8-4.9,4.1-8.5,4.1
		C1367.8,667.4,1365.4,666.4,1363.9,664.3z M1367.6,645.6c-1.9,0-3.3,0.6-4.3,2c-0.9,1.3-1.4,3-1.4,5.1s0.5,3.7,1.4,5.1
		c1,1.3,2.4,2,4.3,2c1.9,0,3.2-0.6,4.2-2c0.9-1.4,1.4-3,1.4-5.1s-0.4-3.7-1.4-5.1C1370.9,646.2,1369.5,645.6,1367.6,645.6z"/>
	<path id="XMLID_195_" class="st1" d="M1414.9,656.7c-0.3,3.2-1.6,5.8-4.2,7.8c-2.5,2-5.6,3-9.2,3c-4.4,0-7.9-1.3-10.6-3.9
		c-2.6-2.6-3.9-6.3-3.9-10.8s1.3-8.1,3.9-10.7c2.6-2.6,6.2-4,10.6-4c3.6,0,6.6,0.9,9.1,2.8c2.4,1.9,3.8,4.3,4,7.4h-9.2
		c-0.5-1.7-1.8-2.5-3.8-2.5c-3.6,0-5.2,2.9-5.2,7.1c0,4.3,1.6,7.1,5.2,7.1c2.4,0,3.8-1,4.1-3.1H1414.9z"/>
	<path id="XMLID_197_" class="st1" d="M1418.8,646.3v-7.7h27.2v7.7h-8.9v20.4h-9.4v-20.4H1418.8z"/>
	<path id="XMLID_199_" class="st1" d="M1471.4,638.6h9.3l-17,38.9h-9.3l5.9-13.9l-11.8-25h9.4l6.3,13.6h1.5L1471.4,638.6z"/>
	<path id="XMLID_201_" class="st1" d="M771.9,743.5h-9.1v-10.8c-4.8,0-8.6-1.3-11.3-3.9c-2.8-2.6-4.1-6-4.1-10.2s1.3-7.6,4.1-10.2
		s6.5-3.9,11.3-3.9v-11.2h9.1v11.2c4.8,0,8.6,1.3,11.3,3.9s4.1,6,4.1,10.2s-1.3,7.6-4.1,10.2c-2.8,2.6-6.5,3.9-11.3,3.9V743.5z
		 M762.8,711.6c-4.1,0-6.3,3-6.3,7.1c0,4.1,2.2,7.1,6.3,7.1V711.6z M771.9,725.7c4.1,0,6.3-3,6.3-7.1c0-4.1-2.2-7.1-6.3-7.1V725.7z"
		/>
	<path id="XMLID_205_" class="st1" d="M811.5,732.7l-4.6-9.5h-2.1l-4.6,9.5h-9.8l7.6-14.4l-6.8-13.7h9.7l4.2,8.8h2.1l4.3-8.8h9.6
		l-7,13.6l7.5,14.5H811.5z"/>
	<path id="XMLID_207_" class="st1" d="M845.2,704.6h9.4V725h4.9v15.4h-8.7v-7.7h-23.9v-28.1h9.4V725h9V704.6z"/>
	<path id="XMLID_209_" class="st1" d="M863.4,704.6h9.4v8.3c0,2.1,0.9,3.5,4.3,3.5c1.3,0,2.7-0.2,4.3-0.5v-11.3h9.4v28.1h-9.4v-9.3
		c-2.4,0.5-5,0.7-7.7,0.7c-4.3,0-7.2-1-8.6-2.9c-1.3-1.9-1.7-3.5-1.7-6V704.6z"/>
	<path id="XMLID_211_" class="st1" d="M938.9,704.6v28.1h-40.7v-28.1h9.1V725h6.8v-20.4h9.1V725h6.8v-20.4H938.9z"/>
	<path id="XMLID_213_" class="st1" d="M987,725h4.9v15.4h-8.7v-7.7h-36.8v-28.1h9.1V725h6.8v-20.4h9.1V725h6.8v-20.4h9.1V725z"/>
	<path id="XMLID_215_" class="st1" d="M994.5,712.3v-7.7h17.3v7.7h6c7.5,0,11.7,3.8,11.7,10.1c0,6.4-4.3,10.3-11.7,10.3h-15.4v-20.4
		H994.5z M1016.4,725c2.4,0,3.7-1,3.7-2.9c0-2-0.9-3-3.7-3h-4.6v5.8H1016.4z"/>
	<path id="XMLID_218_" class="st1" d="M1044.5,704.6v7.7h5.5c7.5,0,11.7,3.8,11.7,10.1c0,6.4-4.3,10.3-11.7,10.3h-14.9v-28.1H1044.5
		z M1048.6,725c2.4,0,3.7-1,3.7-2.9c0-2-0.9-3-3.7-3h-4.1v5.8H1048.6z M1075,704.6v28.1h-9.4v-28.1H1075z"/>
	<path id="XMLID_222_" class="st1" d="M1082.5,732.7v-28.1h9.4v7.7h6c7.5,0,11.7,3.8,11.7,10.1c0,6.4-4.3,10.3-11.7,10.3H1082.5z
		 M1096.5,725c2.4,0,3.7-1,3.7-2.9c0-2-0.9-3-3.7-3h-4.6v5.8H1096.5z"/>
	<path id="XMLID_225_" class="st1" d="M1122.4,723.2c0.3,2,2.2,3.2,4.8,3.2c3,0,4.9-1.8,5.4-4.5h-8.3v-6.8h8.2
		c-0.7-2.8-2.5-4.2-5.3-4.2c-2.4,0-3.9,0.9-4.3,2.6h-8.6c1-5.8,6-9.6,13.2-9.6c4.3,0,7.8,1.3,10.5,4.1c2.8,2.7,4.1,6.3,4.1,10.6
		c0,4.4-1.3,8-4.1,10.7c-2.8,2.7-6.3,4-10.6,4c-3.7,0-6.9-0.9-9.3-2.8c-2.5-1.9-3.9-4.3-4.3-7.4H1122.4z"/>
	<path id="XMLID_227_" class="st1" d="M1186.6,708c2.8,2.8,4.2,6.3,4.2,10.6s-1.4,7.9-4.2,10.6s-6.3,4.1-10.6,4.1
		c-3.7,0-6.9-1-9.6-3s-4.3-4.8-5-8.3h-4.3v10.6h-9.2v-28.1h9.2v9.8h4.5c0.8-3.3,2.5-5.8,5-7.7c2.6-1.9,5.7-2.8,9.3-2.8
		C1180.4,703.9,1183.9,705.3,1186.6,708z M1175.8,711.6c-3.7,0-5.6,2.9-5.6,7.1s1.9,7.1,5.6,7.1c3.7,0,5.6-2.8,5.6-7.1
		C1181.4,714.5,1179.6,711.6,1175.8,711.6z"/>
	<path id="XMLID_230_" class="st1" d="M1222.3,704.6v28.1h-9.4v-8.4h-5.1l-3.2,8.4h-9.1l4-10.4c-2.7-1.7-4.1-4.3-4.1-7.8
		c0-6.2,4.5-9.9,12.4-9.9H1222.3z M1208.5,717.7h4.4V712h-4.4c-2.9,0-3.9,1-3.9,2.8C1204.6,716.7,1205.6,717.7,1208.5,717.7z"/>
	<path id="XMLID_233_" class="st1" d="M763,784.1c4.6,0,8.3,1.6,11.1,4.9c2.8,3.2,4.2,8.2,4.2,14.7s-1.4,11.5-4.2,14.8
		c-2.8,3.2-6.5,4.9-11.1,4.9c-4.6,0-8.3-1.6-11.1-4.9c-2.8-3.3-4.2-8.2-4.2-14.8s1.4-11.5,4.2-14.7
		C754.7,785.8,758.4,784.1,763,784.1z M763,792.6c-3.8,0-5.7,3.7-5.7,11.1c0,7.5,1.9,11.2,5.7,11.2c3.8,0,5.7-3.7,5.7-11.2
		C768.7,796.3,766.8,792.6,763,792.6z"/>
	<path id="XMLID_236_" class="st1" d="M801.4,814.4h7.5v8.3h-25.4v-8.3h8.3v-20h-1.5l-6.8,4.7v-9.4l6.8-4.8h11.2V814.4z"/>
	<path id="XMLID_238_" class="st1" d="M842.2,814.4v8.3h-29.1v-9.8l12.2-8.3c1.4-0.9,2.4-1.7,3.1-2.3c1.5-1.2,3.1-3.3,3.1-5.4
		c0-2.8-1.7-4.4-4.3-4.4c-2.6,0-4.4,1.5-4.6,4.4h-9.6c0.4-8.2,5.7-12.7,14.6-12.7c4.1,0,7.4,1.1,9.9,3.3c2.5,2.2,3.7,5.3,3.7,9.2
		c0,3-1.5,5.9-3,7.9c-0.7,1-1.8,2.1-3.2,3.3c-1.5,1.2-2.6,2.1-3.4,2.6l-3.6,2.4v1.5H842.2z"/>
	<path id="XMLID_240_" class="st1" d="M847.9,784.9h25.7v9.5l-6,3.8v1.5c4.8,0.8,8.3,4.4,8.3,10.5c0,3.9-1.4,7.1-4.2,9.6
		c-2.8,2.4-6.4,3.6-10.9,3.6c-4.5,0-8.1-1.2-10.9-3.6s-4.2-5.5-4.2-9.1h9.7c0.4,2.9,2.4,4.5,5.5,4.5c3.3,0,5.4-2.1,5.4-4.9
		c0-3.1-2-5.2-5.5-5.2c-1.3,0-2.5,0.2-3.6,0.4v-7.2l6-3.8v-1.5h-15.2V784.9z"/>
	<path id="XMLID_242_" class="st1" d="M906.6,806.8h4.5v8.2h-4.5v7.7h-9.2V815h-17.6v-9.7l16.4-20.4h10.4V806.8z M888.4,806.8h9.3
		v-11.1h-1.5l-7.8,9.6V806.8z"/>
	<path id="XMLID_245_" class="st1" d="M941.7,800.3c2.4,2.3,3.6,5.4,3.6,9.2c0,4-1.4,7.4-4.2,10c-2.8,2.6-6.3,3.9-10.4,3.9
		c-4.5,0-8-1.2-10.7-3.6s-4.2-5.5-4.4-9.2h9.7c0.4,2.8,2.3,4.5,5.1,4.5c3.3,0,5.3-2.3,5.3-5.5c0-3.7-2.2-5.6-5.3-5.6
		c-2.1,0-3.8,0.8-5,2.4h-8.8l1.7-21.6h24.4v8h-17l-0.4,5.9h1.5c1.8-1.3,3.9-2,6.5-2C936.5,796.8,939.4,798,941.7,800.3z"/>
	<path id="XMLID_247_" class="st1" d="M976.8,800.8c2.4,2.3,3.6,5.3,3.6,9c0,3.8-1.4,7-4,9.7c-2.6,2.6-6.2,3.9-10.5,3.9
		c-8.9,0-15.8-5.1-15.8-19.1c0-6.2,1.3-11.1,3.9-14.7c2.6-3.6,6.6-5.5,11.9-5.5c3.5,0,6.6,1,9.1,3.1c2.5,2.1,4,4.5,4.4,7.5h-9.6
		c-0.4-1.9-1.8-2.9-4.2-2.9c-3.5,0-6,2.5-6.4,8h1.5c1.6-1.8,4.1-2.6,7.3-2.6C971.6,797.3,974.5,798.4,976.8,800.8z M970.7,810.1
		c0-1.7-0.5-3.1-1.4-4c-0.9-1-2.1-1.5-3.7-1.5c-1.6,0-2.8,0.5-3.7,1.4s-1.3,2.3-1.3,4c0,3.5,2.1,5.6,5.1,5.6
		C968.7,815.6,970.7,813.6,970.7,810.1z"/>
	<path id="XMLID_250_" class="st1" d="M1011.6,794.7l-14.4,28h-10l14.4-28v-1.5h-16.9v-8.3h26.9V794.7z"/>
	<path id="XMLID_252_" class="st1" d="M1040.5,803.3c3,1.4,5.5,4.2,5.5,8.5c0,3.2-1.3,6-3.9,8.2c-2.6,2.2-6.4,3.3-11.2,3.3
		c-4.9,0-8.6-1.1-11.2-3.3c-2.6-2.2-3.9-5-3.9-8.2c0-4.3,2.5-7.2,5.5-8.5v-1.5c-2.8-1.7-4.2-4.2-4.2-7.5c0-2.9,1.2-5.3,3.7-7.2
		c2.5-2,5.9-3,10.2-3s7.7,1,10.2,3c2.4,1.9,3.7,4.4,3.7,7.2c0,3.3-1.4,5.8-4.2,7.5V803.3z M1030.8,815.6c3.7,0,5.5-2.2,5.5-4.7
		s-1.8-4.7-5.5-4.7s-5.6,2.2-5.6,4.7C1025.3,813.5,1027.2,815.6,1030.8,815.6z M1030.8,791.3c-6.1-0.3-6.2,8.7,0,8.4
		C1036.9,800,1036.9,791,1030.8,791.3z"/>
	<path id="XMLID_256_" class="st1" d="M1053.6,806.8c-2.3-2.3-3.5-5.3-3.5-9c0-3.8,1.4-7,4-9.7c2.6-2.6,6.2-3.9,10.5-3.9
		c8.9,0,15.8,5.1,15.8,19.1c0,6.2-1.3,11.1-3.9,14.7c-2.6,3.6-6.6,5.4-11.9,5.4c-3.5,0-6.6-1-9.1-3.1c-2.5-2.1-4-4.6-4.4-7.6h9.6
		c0.4,1.9,1.8,2.9,4.2,2.9c3.5,0,6-2.5,6.4-8h-1.5c-1.6,1.8-4.1,2.6-7.3,2.6C1058.9,810.3,1056,809.1,1053.6,806.8z M1059.7,797.5
		c0,1.7,0.4,3.1,1.4,4.1c0.9,0.9,2.2,1.4,3.7,1.4c1.6,0,2.8-0.5,3.7-1.4s1.4-2.3,1.4-4c0-3.5-2.1-5.6-5.1-5.6
		C1061.7,791.9,1059.7,794,1059.7,797.5z"/>
	<path id="XMLID_259_" class="st1" d="M758.6,870h-9.9v-9.4h9.9V870z M758.6,888.7h-9.9v-9.4h9.9V888.7z"/>
	<path id="XMLID_262_" class="st1" d="M775.6,890.2l-4.9,7h-5.7l4.9-7v-1.5h-4.3v-9.4h9.9V890.2z M775.6,870h-9.9v-9.4h9.9V870z"/>
	<path id="XMLID_265_" class="st1" d="M792.5,888.7h-9.9v-9.4h9.9V888.7z"/>
	<path id="XMLID_267_" class="st1" d="M809.5,890.2l-4.9,7H799l4.9-7v-1.5h-4.3v-9.4h9.9V890.2z"/>
	<path id="XMLID_269_" class="st1" d="M839.3,852.8c2.4,2.2,3.6,5,3.6,8.4c0,1.6-0.3,3.1-1,4.3c-0.7,1.2-1.4,2.2-2.2,2.9
		c-0.8,0.6-1.8,1.4-3.3,2.3c-2.6,1.7-3.5,2.7-3.5,4.2v1.3h-9.6v-1.3c0-3.9,1.4-6,4.9-8.4c0.4-0.3,1-0.7,1.8-1.2
		c0.9-0.5,1.5-0.9,1.7-1.2c0.6-0.5,1.4-1.6,1.4-2.9c0-2-1.5-3.5-4.2-3.5c-3.1,0-4.6,1.6-4.7,4.8h-9.6c0-3.7,1.2-6.8,3.6-9.3
		c2.4-2.5,5.8-3.8,10.4-3.8C833.3,849.4,836.9,850.6,839.3,852.8z M832.9,888.7H823v-9.4h9.9V888.7z"/>
	<path id="XMLID_272_" class="st1" d="M852.6,896.3h-7.6l16.3-48.6h7.4L852.6,896.3z"/>
	<path id="XMLID_274_" class="st1" d="M884.9,888.7h-9.9v-9.4h9.9V888.7z M875.2,850.1h9.4v15.5l-1.7,10.6h-5.9l-1.7-10.6V850.1z"/>
	<path id="XMLID_277_" class="st1" d="M929.2,864.3l-2.3,13.8c-0.2,0.8-0.2,1.5-0.2,2.2c0,1.9,0.9,2.9,2.8,2.9c1.7,0,3.2-1,4.5-2.9
		c1.4-1.9,2.1-4.9,2.1-8.9c0-5-1.7-9-5.1-12.2c-3.3-3.2-7.9-4.8-13.6-4.8c-6.2,0-11.3,2.1-15.3,6.3c-4,4.2-6,9.7-6,16.5
		c0,4.8,1.5,9.2,4.3,12.6c2.9,3.5,7.8,5.7,14,5.7c4.6,0,8.7-1.2,12.5-3.8l1.7,2.9c-4.2,2.8-9,4.2-14.4,4.2c-6.6,0-11.9-2-15.8-5.9
		c-3.9-3.9-5.9-9.1-5.9-15.6c0-7.6,2.4-13.9,7.1-18.8c4.7-5,10.9-7.5,18.5-7.5c6.1,0,11.3,1.8,15.6,5.6c4.3,3.7,6.4,8.5,6.4,14.6
		c0,4.7-1.1,8.5-3.2,11.3c-2.1,2.9-5.2,4.3-9.1,4.3c-3.8,0-6.3-1.1-7.3-3.5h-0.9c-1.6,2.3-3.9,3.5-6.9,3.5c-5.5,0-8.7-3.7-8.7-9.8
		c0-3.7,1.1-6.9,3.2-9.6c2.2-2.7,4.9-4,8.3-4c2.5,0,4.3,0.9,5.3,2.5h0.9l0.4-1.8H929.2z M918.3,879.1c0.9-1.5,1.4-3.3,1.5-5.4
		c0-3.1-1.1-4.6-3.2-4.6c-1.5,0-2.6,0.8-3.5,2.3c-0.9,1.5-1.3,3.3-1.4,5.4c0,3.1,1,4.6,3.1,4.6C916.2,881.4,917.3,880.6,918.3,879.1
		z"/>
	<path id="XMLID_280_" class="st1" d="M956.4,868.9v-10h7.9v10h10.1v7.9h-10.1v10h-7.9v-10h-10v-7.9H956.4z"/>
	<path id="XMLID_282_" class="st1" d="M989,896.3c-5.6-6.9-8.4-15-8.4-24.3c0-9.3,2.8-17.4,8.4-24.3h7.7c-4.8,7.1-8.2,14.4-8.2,24.3
		c0,9.9,3.4,17.2,8.2,24.3H989z"/>
	<path id="XMLID_284_" class="st1" d="M997.1,896.3c4.8-7.1,8.2-14.4,8.2-24.3c0-9.9-3.4-17.2-8.2-24.3h7.7c5.6,6.9,8.4,15,8.4,24.3
		c0,9.3-2.8,17.4-8.4,24.3H997.1z"/>
	<path id="XMLID_286_" class="st1" d="M1026.1,874.7h-8.7l11.7-23.4h5.8l11.7,23.4h-8.7l-5.2-10.6h-1.5L1026.1,874.7z"/>
	<path id="XMLID_288_" class="st1" d="M1059.4,870.5c-6,0-9.1-4-9.1-10.2c0-6.1,3.2-10.3,9.1-10.3c5.9,0,9.2,4.2,9.2,10.3
		C1068.5,866.4,1065.3,870.5,1059.4,870.5z M1062.8,860.4c0-3.5-1.1-5.2-3.4-5.2c-2.2,0-3.3,1.7-3.3,5.2c0,3.4,1.1,5.1,3.3,5.1
		C1061.6,865.5,1062.8,863.8,1062.8,860.4z M1064.1,888.7h-6.3l22.9-37.8h6.3L1064.1,888.7z M1085.2,889.4c-6,0-9.1-4-9.1-10.2
		c0-6.1,3.2-10.3,9.1-10.3c5.9,0,9.2,4.2,9.2,10.3C1094.4,885.3,1091.2,889.4,1085.2,889.4z M1088.6,879.2c0-3.5-1.1-5.2-3.4-5.2
		c-2.2,0-3.3,1.7-3.3,5.2c0,3.4,1.1,5.1,3.3,5.1C1087.5,884.3,1088.6,882.6,1088.6,879.2z"/>
	<path id="XMLID_294_" class="st1" d="M1113.8,888.7l1.5-9.3h-5.3l-1.5,9.3h-7.2l1.5-9.3h-5.1v-6.9h6.3l0.9-5.4h-5.5v-6.9h6.6
		l1.5-9.3h7.1l-1.5,9.3h5.4l1.5-9.3h7.1l-1.5,9.3h5.1v6.9h-6.3l-0.8,5.4h5.5v6.9h-6.5l-1.5,9.3H1113.8z M1111.8,867.1l-0.8,5.4h5.4
		l0.9-5.4H1111.8z"/>
	<path id="XMLID_297_" class="st1" d="M1161.4,850.9h8.7v37.8h-11.8l-11.7-22h-1.5v22h-8.7v-37.8h11.8l11.7,22h1.5V850.9z
		 M1183.7,870.5c-6,0-9.1-4-9.1-10.2c0-6.1,3.2-10.3,9.1-10.3c5.9,0,9.2,4.2,9.2,10.3C1192.9,866.4,1189.7,870.5,1183.7,870.5z
		 M1192.9,878.1h-18.3v-4.9h18.3V878.1z M1187.1,860.4c0-3.5-1.1-5.2-3.4-5.2c-2.2,0-3.3,1.7-3.3,5.2c0,3.4,1.1,5.1,3.3,5.1
		C1186,865.5,1187.1,863.8,1187.1,860.4z"/>
	<path id="XMLID_302_" class="st1" d="M1208.6,861l-4.9,7h-5.7l4.9-7v-1.5h-4.3v-9.4h9.9V861z M1222.1,861l-4.9,7h-5.7l4.9-7v-1.5
		h-4.3v-9.4h9.9V861z"/>
	<path id="XMLID_305_" class="st1" d="M1237.4,872.8c2.3,0.7,4,3.1,4,6.4v4.5c0,3.9,1.3,5.9,4.8,5.9h2v6.8h-3.6
		c-6.9,0-11-4.4-11-10.6v-5c0-3.4-1.4-5.1-4.2-5.1h-1.6v-7.1h1.6c2.8,0,4.2-1.7,4.2-5.1v-5c0-6.3,4.1-10.6,11-10.6h3.6v6.8h-2
		c-3.5,0-4.8,2-4.8,5.9v4.5c0,3.3-1.7,5.7-4,6.4V872.8z"/>
	<path id="XMLID_307_" class="st1" d="M1262.3,871.3c-2.3-0.7-4-3.1-4-6.4v-4.5c0-3.9-1.3-5.9-4.8-5.9h-2v-6.8h3.6
		c6.9,0,11,4.4,11,10.6v5c0,3.4,1.4,5.1,4.2,5.1h1.6v7.1h-1.6c-2.8,0-4.2,1.7-4.2,5.1v5c0,6.3-4.1,10.6-11,10.6h-3.6v-6.8h2
		c3.5,0,4.8-2,4.8-5.9v-4.5c0-3.3,1.7-5.7,4-6.4V871.3z"/>
	<path id="XMLID_309_" class="st1" d="M1284.7,850.1h6.3l-0.4,8.2l7.8-2.9l1.9,5.9l-8,2.2l5.2,6.4l-5.1,3.7l-4.6-6.9l-4.5,6.9
		l-5-3.7l5.1-6.4l-8-2.2l1.9-5.9l7.7,2.9L1284.7,850.1z"/>
	<path id="XMLID_311_" class="st1" d="M761.3,926.6h11l-8.6,8.6v1.5h22.1v7.9h-22.1v1.5l8.6,8.6h-11l-14-14L761.3,926.6z"/>
	<path id="XMLID_313_" class="st1" d="M820.6,930.2v11l-8.6-8.6h-1.5v22.1h-7.9v-22.1h-1.5l-8.6,8.6v-11l14-14L820.6,930.2z"/>
	<path id="XMLID_315_" class="st1" d="M840.7,926.6h11l14,14l-14,14h-11l8.6-8.6v-1.5h-22.1v-7.9h22.1v-1.5L840.7,926.6z"/>
	<path id="XMLID_317_" class="st1" d="M871.9,940.7v-11l8.6,8.6h1.5v-22.1h7.9v22.1h1.5l8.6-8.6v11l-14,14L871.9,940.7z"/>
	<path id="XMLID_319_" class="st1" d="M915.7,943.8l-7.8-7.8v-19.8h19.8l7.8,7.8h-12.2l-1.1,1.1l15.6,15.6l-5.6,5.6l-15.6-15.6
		l-1.1,1.1V943.8z"/>
	<path id="XMLID_321_" class="st1" d="M976,936l-7.8,7.8v-12.2l-1.1-1.1l-15.6,15.6l-5.6-5.6l15.6-15.6l-1.1-1.1h-12.2l7.8-7.8H976
		V936z"/>
	<path id="XMLID_323_" class="st1" d="M984,934.9l7.8-7.8v12.2l1.1,1.1l15.6-15.6l5.6,5.6l-15.6,15.6l1.1,1.1h12.2l-7.8,7.8H984
		V934.9z"/>
	<path id="XMLID_325_" class="st1" d="M1044.2,927l7.8,7.8v19.8h-19.8l-7.8-7.8h12.2l1.1-1.1l-15.6-15.6l5.6-5.6l15.6,15.6l1.1-1.1
		V927z"/>
	<path id="XMLID_327_" class="st1" d="M1076.6,928l-9.6,10.2v1.5l9.6,10.2h-9.8l-8.2-8.5v-5l8.2-8.5H1076.6z"/>
	<path id="XMLID_329_" class="st1" d="M1091.7,938.2l-9.6-10.2h9.8l8.2,8.5v5l-8.2,8.5h-9.8l9.6-10.2V938.2z"/>
	<path id="XMLID_331_" class="st1" d="M1114.9,931.7h4.3v4.9h-14.7v-4.9h4.6v-9.9h-1.1l-3.6,2.2v-5.2l4.7-2.7h5.7V931.7z
		 M1118.6,954.7h-6.3l22.9-37.8h6.3L1118.6,954.7z M1146.2,946.1h2.3v4.8h-2.3v3.9h-5.5v-3.9h-9.5V945l8.6-10.9h6.4V946.1z
		 M1140.9,946.1v-5.7h-1.1l-3.6,4.7v1H1140.9z"/>
	<path id="XMLID_336_" class="st1" d="M1162.5,931.7h4.3v4.9h-14.7v-4.9h4.6v-9.9h-1.1l-3.6,2.2v-5.2l4.7-2.7h5.7V931.7z
		 M1166.2,954.7h-6.3l22.9-37.8h6.3L1166.2,954.7z M1197.7,949.8v4.9h-16.6v-6l5.7-3.1c3.1-1.7,4.6-3.3,4.6-4.8s-0.7-2.2-2.2-2.2
		c-1.5,0-2.3,0.8-2.4,2.3h-5.7c0.2-4.5,3.2-7.2,8.4-7.2c4.7,0,7.7,2.5,7.7,6.9c0,2.5-1.4,4.7-4,6.4l-3,1.7v1.1H1197.7z"/>
	<path id="XMLID_340_" class="st1" d="M1202.1,916.1h14.5v5.7l-3.3,1.5v1.1c2.4,0.2,4.4,2.2,4.4,5.5c0,4.3-3.3,7.2-8.4,7.2
		s-8.4-3-8.6-7.2h5.8c0.2,1.6,1.1,2.4,2.9,2.4c1.7,0,2.6-1,2.6-2.4c0-1.6-0.9-2.4-2.6-2.4c-0.8,0-1.5,0.1-2,0.3v-4.3l2.6-1.6v-1.1
		h-7.9V916.1z M1215.7,954.7h-6.3l22.9-37.8h6.3L1215.7,954.7z M1243.3,946.1h2.3v4.8h-2.3v3.9h-5.5v-3.9h-9.4V945l8.6-10.9h6.4
		V946.1z M1238,946.1v-5.7h-1.1l-3.6,4.7v1H1238z"/>
</g>
<g id="XMLID_47_">
	<g id="XMLID_484_">
		<path id="XMLID_497_" class="st1" d="M74.5,539.1V559H5.2v-23.4l29.1-19.8c3.2-2.2,5.8-4.1,7.5-5.5c3.6-3,7.5-7.9,7.5-12.9
			c0-6.7-4-10.4-10.2-10.4s-10.6,3.5-11.1,10.6H5.1C6,478,18.6,467,39.8,467c9.8,0,17.6,2.7,23.6,8c5.9,5.3,8.9,12.6,8.9,22
			c0,7.1-3.5,14.2-7.1,18.8c-1.7,2.3-4.3,4.9-7.7,7.9c-3.5,2.8-6.2,4.9-8.1,6.2l-8.5,5.7v3.6H74.5z"/>
		<path id="XMLID_495_" class="st1" d="M104.9,562.6l-11.6,16.7H79.8l11.6-16.7V559H81.2v-22.4h23.7V562.6z"/>
		<path id="XMLID_493_" class="st1" d="M115.8,468.8H177v22.7l-14.4,9.1v3.6c11.3,1.9,19.7,10.6,19.7,25c0,9.4-3.3,17-10,22.8
			c-6.6,5.8-15.3,8.6-26,8.6c-10.7,0-19.3-2.8-25.9-8.6c-6.6-5.8-9.9-13-10-21.8h23.1c1,6.8,5.8,10.7,13,10.7
			c7.9,0,12.9-5,12.9-11.7c0-7.3-4.8-12.4-13-12.4c-3.1,0-5.9,0.4-8.5,1v-17.3l14.4-9.1v-3.6h-36.3V468.8z"/>
		<path id="XMLID_491_" class="st1" d="M230.1,539.1H248V559h-60.7v-19.8h19.8v-47.8h-3.6l-16.2,11.2v-22.4l16.1-11.3h26.7V539.1z"
			/>
		<path id="XMLID_488_" class="st1" d="M287.9,467c10.9,0,19.8,3.9,26.5,11.6c6.7,7.7,10,19.5,10,35.2c0,15.7-3.3,27.4-10,35.3
			c-6.7,7.7-15.6,11.6-26.5,11.6s-19.8-3.9-26.5-11.6c-6.7-7.9-10-19.6-10-35.3c0-15.7,3.3-27.4,10-35.2
			C268.1,470.9,277,467,287.9,467z M287.9,487.2c-9,0-13.5,8.9-13.5,26.5c0,17.8,4.5,26.7,13.5,26.7s13.5-8.9,13.5-26.7
			C301.5,496.1,297,487.2,287.9,487.2z"/>
		<path id="XMLID_485_" class="st1" d="M356,509.6h11.5v-40.8h39.3c21.3,0,33.7,10.9,33.7,29.6c0,18.9-12.5,30.3-33.7,30.3h-16.4v7
			h19.1v9.9h-19.1V559h-22.9v-13.4H356v-9.9h11.5v-7H356V509.6z M403.1,509.6c9.7,0,14.4-3.7,14.4-11.1c0-7.1-4.8-10.7-14.4-10.7
			h-12.8v21.8H403.1z"/>
	</g>
</g>
<g id="XMLID_27_">
	<g id="XMLID_540_">
		<path id="XMLID_558_" class="st1" d="M4.9,611.5h33v12.2l-7.8,4.9v1.9c6.1,1,10.6,5.7,10.6,13.5c0,5.1-1.8,9.2-5.4,12.3
			c-3.5,3.1-8.3,4.7-14.1,4.7c-5.8,0-10.4-1.5-14-4.7c-3.5-3.1-5.4-7-5.4-11.8h12.5c0.6,3.7,3.1,5.8,7,5.8c4.2,0,7-2.7,7-6.3
			c0-4-2.6-6.7-7-6.7c-1.7,0-3.2,0.2-4.6,0.6v-9.3l7.8-4.9v-1.9H4.9V611.5z"/>
		<path id="XMLID_556_" class="st1" d="M56.9,662.1l-6.3,9h-7.3l6.3-9v-1.9h-5.5v-12.1h12.8V662.1z"/>
		<path id="XMLID_552_" class="st1" d="M92.8,635.2c3.8,1.7,7.1,5.4,7.1,11c0,4.2-1.7,7.7-5.1,10.6c-3.4,2.9-8.2,4.3-14.4,4.3
			c-6.3,0-11.1-1.5-14.5-4.3c-3.4-2.9-5.1-6.4-5.1-10.6c0-5.6,3.3-9.3,7.1-11v-1.9c-3.6-2.2-5.4-5.4-5.4-9.6c0-3.7,1.6-6.8,4.7-9.3
			c3.2-2.6,7.6-3.8,13.1-3.8c5.6,0,9.9,1.3,13.1,3.8c3.1,2.5,4.7,5.6,4.7,9.3c0,4.2-1.8,7.4-5.4,9.6V635.2z M80.4,651.1
			c4.7,0,7.1-2.8,7.1-6.1s-2.4-6.1-7.1-6.1c-4.7,0-7.2,2.8-7.2,6.1C73.3,648.4,75.7,651.1,80.4,651.1z M80.4,619.8
			c-7.9-0.3-7.9,11.2,0,10.9C88.2,631,88.2,619.4,80.4,619.8z"/>
		<path id="XMLID_549_" class="st1" d="M122.3,610.5c5.9,0,10.7,2.1,14.3,6.3c3.6,4.2,5.4,10.5,5.4,19c0,8.5-1.8,14.8-5.4,19.1
			c-3.6,4.2-8.4,6.3-14.3,6.3s-10.7-2.1-14.3-6.3c-3.6-4.2-5.4-10.6-5.4-19.1c0-8.5,1.8-14.8,5.4-19
			C111.6,612.6,116.4,610.5,122.3,610.5z M122.3,621.4c-4.9,0-7.3,4.8-7.3,14.3c0,9.6,2.4,14.4,7.3,14.4s7.3-4.8,7.3-14.4
			C129.6,626.2,127.2,621.4,122.3,621.4z"/>
		<path id="XMLID_546_" class="st1" d="M164.7,610.5c5.9,0,10.7,2.1,14.3,6.3c3.6,4.2,5.4,10.5,5.4,19c0,8.5-1.8,14.8-5.4,19.1
			c-3.6,4.2-8.4,6.3-14.3,6.3s-10.7-2.1-14.3-6.3c-3.6-4.2-5.4-10.6-5.4-19.1c0-8.5,1.8-14.8,5.4-19
			C154,612.6,158.8,610.5,164.7,610.5z M164.7,621.4c-4.9,0-7.3,4.8-7.3,14.3c0,9.6,2.4,14.4,7.3,14.4s7.3-4.8,7.3-14.4
			C172,626.2,169.6,621.4,164.7,621.4z"/>
		<path id="XMLID_543_" class="st1" d="M201.5,633.6h6.2v-22.1h21.2c11.5,0,18.2,5.9,18.2,16c0,10.2-6.7,16.3-18.2,16.3H220v3.8
			h10.3v5.4H220v7.2h-12.4V653h-6.2v-5.4h6.2v-3.8h-6.2V633.6z M226.9,633.6c5.2,0,7.8-2,7.8-6c0-3.8-2.6-5.8-7.8-5.8H220v11.8
			H226.9z"/>
		<path id="XMLID_541_" class="st1" d="M0,643.8v-3.5h246.8v3.5H0z"/>
	</g>
</g>
<g id="XMLID_1_">
	<g id="XMLID_536_">
		<path id="XMLID_571_" class="st1" d="M22.8,711.2h6.8v29.6h-9.2l-9.2-17.2h-1.2v17.2H3.3v-29.6h9.2l9.2,17.2h1.2V711.2z
			 M40.3,726.6c-4.7,0-7.1-3.2-7.1-7.9c0-4.8,2.5-8,7.1-8s7.2,3.3,7.2,8C47.5,723.4,45,726.6,40.3,726.6z M47.5,732.4H33.1v-3.8
			h14.3V732.4z M42.9,718.6c0-2.7-0.9-4.1-2.7-4.1c-1.7,0-2.6,1.4-2.6,4.1c0,2.7,0.9,4,2.6,4C42.1,722.6,42.9,721.3,42.9,718.6z"/>
		<path id="XMLID_569_" class="st1" d="M81.3,723.2c1.9,1.8,2.8,4.2,2.8,7.2c0,3.2-1.1,5.8-3.3,7.8c-2.2,2-4.9,3-8.1,3
			c-3.5,0-6.3-0.9-8.4-2.8c-2.1-1.9-3.3-4.3-3.4-7.2h7.6c0.3,2.2,1.8,3.5,4,3.5c2.6,0,4.1-1.8,4.1-4.3c0-2.9-1.7-4.3-4.1-4.3
			c-1.6,0-3,0.6-3.9,1.9h-6.9l1.3-16.9H82v6.2H68.7l-0.3,4.6h1.2c1.4-1.1,3.1-1.6,5.1-1.6C77.2,720.5,79.5,721.4,81.3,723.2z"/>
		<path id="XMLID_566_" class="st1" d="M107.7,723.6c1.9,1.8,2.8,4.2,2.8,7.1c0,3-1.1,5.5-3.1,7.6c-2.1,2.1-4.8,3.1-8.2,3.1
			c-7,0-12.3-4-12.3-14.9c0-4.9,1-8.7,3.1-11.5s5.2-4.3,9.3-4.3c2.7,0,5.2,0.8,7.1,2.4c2,1.6,3.1,3.5,3.4,5.9h-7.5
			c-0.3-1.5-1.4-2.3-3.3-2.3c-2.7,0-4.7,1.9-5,6.3h1.2c1.3-1.4,3.2-2.1,5.7-2.1C103.6,720.9,105.9,721.8,107.7,723.6z M102.9,730.9
			c0-1.4-0.4-2.4-1.1-3.1c-0.7-0.8-1.6-1.1-2.9-1.1c-1.2,0-2.2,0.4-2.9,1.1s-1.1,1.8-1.1,3.1c0,2.7,1.6,4.4,4,4.4
			C101.3,735.2,102.9,733.6,102.9,730.9z"/>
		<path id="XMLID_563_" class="st1" d="M115,728.3c-1.8-1.8-2.7-4.2-2.7-7.1c0-3,1.1-5.5,3.1-7.6c2.1-2.1,4.8-3.1,8.2-3.1
			c7,0,12.3,4,12.3,14.9c0,4.9-1,8.7-3.1,11.5c-2.1,2.8-5.2,4.2-9.3,4.2c-2.7,0-5.2-0.8-7.1-2.4c-2-1.6-3.1-3.6-3.4-5.9h7.5
			c0.3,1.5,1.4,2.3,3.3,2.3c2.7,0,4.7-1.9,5-6.3h-1.2c-1.3,1.4-3.2,2.1-5.7,2.1C119.2,731,116.9,730.1,115,728.3z M119.8,721
			c0,1.4,0.3,2.4,1.1,3.2c0.7,0.7,1.7,1.1,2.9,1.1s2.2-0.4,2.9-1.1s1.1-1.8,1.1-3.1c0-2.7-1.6-4.4-4-4.4
			C121.4,716.7,119.8,718.3,119.8,721z"/>
		<path id="XMLID_561_" class="st1" d="M152.9,734.3h5.9v6.5h-19.9v-6.5h6.5v-15.7h-1.2l-5.3,3.7v-7.3l5.3-3.7h8.7V734.3z"/>
		<path id="XMLID_539_" class="st1" d="M183.7,734.3v6.5H161v-7.7l9.5-6.5c1.1-0.7,1.9-1.4,2.4-1.8c1.2-1,2.4-2.6,2.4-4.2
			c0-2.2-1.3-3.4-3.3-3.4c-2,0-3.5,1.1-3.6,3.5H161c0.3-6.4,4.4-10,11.4-10c3.2,0,5.8,0.9,7.7,2.6c1.9,1.7,2.9,4.1,2.9,7.2
			c0,2.3-1.1,4.6-2.3,6.2c-0.5,0.8-1.4,1.6-2.5,2.6c-1.1,0.9-2,1.6-2.7,2l-2.8,1.9v1.2H183.7z"/>
		<path id="XMLID_537_" class="st1" d="M187.2,711.2h20.1v7.4l-4.7,3v1.2c3.7,0.6,6.5,3.5,6.5,8.2c0,3.1-1.1,5.6-3.3,7.5
			c-2.2,1.9-5,2.8-8.5,2.8c-3.5,0-6.3-0.9-8.5-2.8c-2.2-1.9-3.3-4.3-3.3-7.1h7.6c0.3,2.2,1.9,3.5,4.3,3.5c2.6,0,4.2-1.6,4.2-3.8
			c0-2.4-1.6-4.1-4.3-4.1c-1,0-1.9,0.1-2.8,0.3v-5.7l4.7-3v-1.2h-11.9V711.2z"/>
	</g>
</g>
</svg>
