<?xml version="1.0" encoding="utf-8"?>
<!-- Generator: Adobe Illustrator 19.0.0, SVG Export Plug-In . SVG Version: 6.00 Build 0)  -->
<svg version="1.1" id="_x31_" xmlns="http://www.w3.org/2000/svg" xmlns:xlink="http://www.w3.org/1999/xlink" x="0px" y="0px"
	 viewBox="0 0 1200 1042.1" style="enable-background:new 0 0 1200 1042.1;" xml:space="preserve">
<style type="text/css">
	.st0{fill:#36ACA7;}
	.st1{opacity:0;fill:#101010;}
	.st2{fill:#101010;}
</style>
<g id="XMLID_654_">
	<path id="XMLID_55_" class="st0" d="M478.4,2.7v676.7H3V2.7H478.4 M479.4,1.7H2v678.7h477.4V1.7L479.4,1.7z"/>
</g>
<g id="XMLID_653_">
	<path id="XMLID_51_" class="st0" d="M1197,2.7v475.4H520.3V2.7H1197 M1198,1.7H519.3v477.4H1198V1.7L1198,1.7z"/>
</g>
<g id="XMLID_652_">
	<path id="XMLID_42_" class="st0" d="M1039,520.7v518.7H520.3V520.7H1039 M1040,519.7H519.3v520.7H1040V519.7L1040,519.7z"/>
</g>
<g id="XMLID_593_">
	<g id="XMLID_623_">
		<rect id="XMLID_651_" x="2" y="1.7" class="st1" width="134.8" height="65.2"/>
		<g id="XMLID_624_">
			<g id="XMLID_123_">
				<path id="XMLID_133_" class="st2" d="M38.9,45.2v-2h-1c-1.3,1.7-3.5,2.6-6.4,2.6c-2.4,0-4.3-0.7-5.7-2c-1.4-1.4-2.1-3.1-2.1-5.1
					c0-2,0.7-3.7,2.1-5.1c1.4-1.5,3.6-2.2,6.5-2.2h6.4v-0.6c0-2.5-1.5-4-4.6-4c-2.7,0-4.1,0.9-4.4,2.8H25c0.2-4.1,3.8-6.6,9-6.6
					c5.8,0,9.4,2.6,9.4,7.9v14.4H38.9z M37.1,40.2c1.1-1.1,1.7-2.3,1.7-3.8v-1.7h-5.5c-3,0-4.6,1.3-4.6,3.6c0,2.2,1.6,3.5,4.4,3.5
					C34.6,41.8,36,41.3,37.1,40.2z"/>
				<path id="XMLID_131_" class="st2" d="M60.2,23.5v4.5h-2c-4.4,0-6.8,2.5-6.8,7.1v10.2h-4.8V23.5h4.7V26h1
					c1.2-1.7,3.3-2.5,6.1-2.5H60.2z"/>
				<path id="XMLID_129_" class="st2" d="M67.1,23.5h5.1v4.1h-5.1v10.6c0,1.9,1.1,2.9,3.3,2.9h1.8v4.2h-1.9c-5.2,0-8.1-1.7-8.1-6.4
					V18h4.8V23.5z"/>
				<path id="XMLID_126_" class="st2" d="M92.1,42.6c-2,2.1-4.6,3.2-8,3.2c-3.4,0-6-1.1-8-3.2c-2-2.1-2.9-4.9-2.9-8.3s1-6.1,2.9-8.2
					c2-2.1,4.7-3.2,8-3.2c3.4,0,6,1.1,8,3.2c2,2.1,3,4.8,3,8.2S94.1,40.4,92.1,42.6z M84.1,27c-4,0-6.1,3.2-6.1,7.3
					c0,4.1,2.2,7.3,6.1,7.3c4,0,6.1-3.2,6.1-7.3C90.3,30.2,88.1,27,84.1,27z"/>
				<path id="XMLID_124_" class="st2" d="M109.7,29.3c-0.3-1.6-1.7-2.3-4.3-2.3c-2.6,0-3.9,0.8-3.9,2.3c0,1.3,0.9,1.8,2.8,2.2
					l4.2,0.7c4.4,0.7,6.6,2.9,6.6,6.7c0,1.9-0.8,3.6-2.5,4.9c-1.6,1.3-3.9,2-6.8,2c-6.1,0-9.5-2.7-9.9-7.1h4.8c0.4,2.1,2,3.1,5,3.1
					c3,0,4.6-0.9,4.6-2.8c0-1.7-1-2.4-3.5-2.9l-4.5-0.8c-3.4-0.6-5.5-2.5-5.5-5.7c0-3.9,3.1-6.6,8.9-6.6c5.2,0,8.4,2.5,8.9,6.4
					H109.7z"/>
			</g>
		</g>
	</g>
	<g id="XMLID_594_">
		<rect id="XMLID_622_" x="344.5" y="1.7" class="st1" width="134.8" height="65.2"/>
		<g id="XMLID_595_">
			<g id="XMLID_109_">
				<path id="XMLID_119_" class="st2" d="M381.4,45.2v-2h-1c-1.3,1.7-3.5,2.6-6.4,2.6c-2.4,0-4.3-0.7-5.7-2
					c-1.4-1.4-2.1-3.1-2.1-5.1c0-2,0.7-3.7,2.1-5.1c1.4-1.5,3.6-2.2,6.5-2.2h6.4v-0.6c0-2.5-1.5-4-4.6-4c-2.7,0-4.1,0.9-4.4,2.8
					h-4.8c0.2-4.1,3.8-6.6,9-6.6c5.8,0,9.4,2.6,9.4,7.9v14.4H381.4z M379.6,40.2c1.1-1.1,1.7-2.3,1.7-3.8v-1.7h-5.5
					c-3,0-4.6,1.3-4.6,3.6c0,2.2,1.6,3.5,4.4,3.5C377.1,41.8,378.5,41.3,379.6,40.2z"/>
				<path id="XMLID_117_" class="st2" d="M402.8,23.5v4.5h-2c-4.4,0-6.8,2.5-6.8,7.1v10.2h-4.8V23.5h4.7V26h1
					c1.2-1.7,3.3-2.5,6.1-2.5H402.8z"/>
				<path id="XMLID_115_" class="st2" d="M409.6,23.5h5.1v4.1h-5.1v10.6c0,1.9,1.1,2.9,3.3,2.9h1.8v4.2h-1.9c-5.2,0-8.1-1.7-8.1-6.4
					V18h4.8V23.5z"/>
				<path id="XMLID_112_" class="st2" d="M434.6,42.6c-2,2.1-4.6,3.2-8,3.2c-3.4,0-6-1.1-8-3.2c-2-2.1-2.9-4.9-2.9-8.3
					s1-6.1,2.9-8.2c2-2.1,4.7-3.2,8-3.2c3.4,0,6,1.1,8,3.2c2,2.1,3,4.8,3,8.2S436.6,40.4,434.6,42.6z M426.6,27
					c-4,0-6.1,3.2-6.1,7.3c0,4.1,2.2,7.3,6.1,7.3c4,0,6.1-3.2,6.1-7.3C432.8,30.2,430.6,27,426.6,27z"/>
				<path id="XMLID_110_" class="st2" d="M452.2,29.3c-0.3-1.6-1.7-2.3-4.3-2.3c-2.6,0-3.9,0.8-3.9,2.3c0,1.3,0.9,1.8,2.8,2.2
					L451,32c4.4,0.7,6.6,2.9,6.6,6.7c0,1.9-0.8,3.6-2.5,4.9c-1.6,1.3-3.9,2-6.8,2c-6.1,0-9.5-2.7-9.9-7.1h4.8c0.4,2.1,2,3.1,5,3.1
					c3,0,4.6-0.9,4.6-2.8c0-1.7-1-2.4-3.5-2.9l-4.5-0.8c-3.4-0.6-5.5-2.5-5.5-5.7c0-3.9,3.1-6.6,8.9-6.6c5.2,0,8.4,2.5,8.9,6.4
					H452.2z"/>
			</g>
		</g>
	</g>
</g>
<g id="XMLID_657_">
	<g id="XMLID_407_">
		<rect id="XMLID_592_" x="519.3" y="1.7" class="st1" width="134.8" height="65.2"/>
		<g id="XMLID_408_">
			<g id="XMLID_152_">
				<path id="XMLID_162_" class="st2" d="M556.2,45.2v-2h-1c-1.3,1.7-3.5,2.6-6.4,2.6c-2.4,0-4.3-0.7-5.7-2
					c-1.4-1.4-2.1-3.1-2.1-5.1c0-2,0.7-3.7,2.1-5.1c1.4-1.5,3.6-2.2,6.5-2.2h6.4v-0.6c0-2.5-1.5-4-4.6-4c-2.7,0-4.1,0.9-4.4,2.8
					h-4.8c0.2-4.1,3.8-6.6,9-6.6c5.8,0,9.4,2.6,9.4,7.9v14.4H556.2z M554.4,40.2c1.1-1.1,1.7-2.3,1.7-3.8v-1.7h-5.5
					c-3,0-4.6,1.3-4.6,3.6c0,2.2,1.6,3.5,4.4,3.5C551.9,41.8,553.2,41.3,554.4,40.2z"/>
				<path id="XMLID_160_" class="st2" d="M577.5,23.5v4.5h-2c-4.4,0-6.8,2.5-6.8,7.1v10.2H564V23.5h4.7V26h1
					c1.2-1.7,3.3-2.5,6.1-2.5H577.5z"/>
				<path id="XMLID_158_" class="st2" d="M584.3,23.5h5.1v4.1h-5.1v10.6c0,1.9,1.1,2.9,3.3,2.9h1.8v4.2h-1.9c-5.2,0-8.1-1.7-8.1-6.4
					V18h4.8V23.5z"/>
				<path id="XMLID_155_" class="st2" d="M609.4,42.6c-2,2.1-4.6,3.2-8,3.2c-3.4,0-6-1.1-8-3.2c-2-2.1-2.9-4.9-2.9-8.3
					s1-6.1,2.9-8.2c2-2.1,4.7-3.2,8-3.2c3.4,0,6,1.1,8,3.2c2,2.1,3,4.8,3,8.2S611.4,40.4,609.4,42.6z M601.4,27
					c-4,0-6.1,3.2-6.1,7.3c0,4.1,2.2,7.3,6.1,7.3c4,0,6.1-3.2,6.1-7.3C607.6,30.2,605.4,27,601.4,27z"/>
				<path id="XMLID_153_" class="st2" d="M627,29.3c-0.3-1.6-1.7-2.3-4.3-2.3c-2.6,0-3.9,0.8-3.9,2.3c0,1.3,0.9,1.8,2.8,2.2l4.2,0.7
					c4.4,0.7,6.6,2.9,6.6,6.7c0,1.9-0.8,3.6-2.5,4.9c-1.6,1.3-3.9,2-6.8,2c-6.1,0-9.5-2.7-9.9-7.1h4.8c0.4,2.1,2,3.1,5,3.1
					c3,0,4.6-0.9,4.6-2.8c0-1.7-1-2.4-3.5-2.9l-4.5-0.8c-3.4-0.6-5.5-2.5-5.5-5.7c0-3.9,3.1-6.6,8.9-6.6c5.2,0,8.4,2.5,8.9,6.4H627z
					"/>
			</g>
		</g>
	</g>
	<g id="XMLID_285_">
		<rect id="XMLID_406_" x="1063.2" y="1.7" class="st1" width="134.8" height="65.2"/>
		<g id="XMLID_286_">
			<g id="XMLID_137_">
				<path id="XMLID_147_" class="st2" d="M1100.1,45.2v-2h-1c-1.3,1.7-3.5,2.6-6.4,2.6c-2.4,0-4.3-0.7-5.7-2
					c-1.4-1.4-2.1-3.1-2.1-5.1c0-2,0.7-3.7,2.1-5.1c1.4-1.5,3.6-2.2,6.5-2.2h6.4v-0.6c0-2.5-1.5-4-4.6-4c-2.7,0-4.1,0.9-4.4,2.8
					h-4.8c0.2-4.1,3.8-6.6,9-6.6c5.8,0,9.4,2.6,9.4,7.9v14.4H1100.1z M1098.2,40.2c1.1-1.1,1.7-2.3,1.7-3.8v-1.7h-5.5
					c-3,0-4.6,1.3-4.6,3.6c0,2.2,1.6,3.5,4.4,3.5C1095.8,41.8,1097.1,41.3,1098.2,40.2z"/>
				<path id="XMLID_145_" class="st2" d="M1121.4,23.5v4.5h-2c-4.4,0-6.8,2.5-6.8,7.1v10.2h-4.8V23.5h4.7V26h1
					c1.2-1.7,3.3-2.5,6.1-2.5H1121.4z"/>
				<path id="XMLID_143_" class="st2" d="M1128.2,23.5h5.1v4.1h-5.1v10.6c0,1.9,1.1,2.9,3.3,2.9h1.8v4.2h-1.9
					c-5.2,0-8.1-1.7-8.1-6.4V18h4.8V23.5z"/>
				<path id="XMLID_140_" class="st2" d="M1153.3,42.6c-2,2.1-4.6,3.2-8,3.2c-3.4,0-6-1.1-8-3.2c-2-2.1-2.9-4.9-2.9-8.3
					s1-6.1,2.9-8.2c2-2.1,4.7-3.2,8-3.2c3.4,0,6,1.1,8,3.2c2,2.1,3,4.8,3,8.2S1155.3,40.4,1153.3,42.6z M1145.3,27
					c-4,0-6.1,3.2-6.1,7.3c0,4.1,2.2,7.3,6.1,7.3c4,0,6.1-3.2,6.1-7.3C1151.4,30.2,1149.3,27,1145.3,27z"/>
				<path id="XMLID_138_" class="st2" d="M1170.9,29.3c-0.3-1.6-1.7-2.3-4.3-2.3c-2.6,0-3.9,0.8-3.9,2.3c0,1.3,0.9,1.8,2.8,2.2
					l4.2,0.7c4.4,0.7,6.6,2.9,6.6,6.7c0,1.9-0.8,3.6-2.5,4.9c-1.6,1.3-3.9,2-6.8,2c-6.1,0-9.5-2.7-9.9-7.1h4.8c0.4,2.1,2,3.1,5,3.1
					c3,0,4.6-0.9,4.6-2.8c0-1.7-1-2.4-3.5-2.9l-4.5-0.8c-3.4-0.6-5.5-2.5-5.5-5.7c0-3.9,3.1-6.6,8.9-6.6c5.2,0,8.4,2.5,8.9,6.4
					H1170.9z"/>
			</g>
		</g>
	</g>
</g>
<g id="XMLID_656_">
	<g id="XMLID_191_">
		<rect id="XMLID_284_" x="519.3" y="519.7" class="st1" width="134.8" height="65.2"/>
		<g id="XMLID_192_">
			<g id="XMLID_194_">
				<path id="XMLID_204_" class="st2" d="M556.2,563.1v-2h-1c-1.3,1.7-3.5,2.6-6.4,2.6c-2.4,0-4.3-0.7-5.7-2
					c-1.4-1.4-2.1-3.1-2.1-5.1c0-2,0.7-3.7,2.1-5.1c1.4-1.5,3.6-2.2,6.5-2.2h6.4v-0.6c0-2.5-1.5-4-4.6-4c-2.7,0-4.1,0.9-4.4,2.8
					h-4.8c0.2-4.1,3.8-6.6,9-6.6c5.8,0,9.4,2.6,9.4,7.9v14.4H556.2z M554.4,558.1c1.1-1.1,1.7-2.3,1.7-3.8v-1.7h-5.5
					c-3,0-4.6,1.3-4.6,3.6c0,2.2,1.6,3.5,4.4,3.5C551.9,559.7,553.2,559.2,554.4,558.1z"/>
				<path id="XMLID_202_" class="st2" d="M577.5,541.4v4.5h-2c-4.4,0-6.8,2.5-6.8,7.1v10.2H564v-21.7h4.7v2.5h1
					c1.2-1.7,3.3-2.5,6.1-2.5H577.5z"/>
				<path id="XMLID_200_" class="st2" d="M584.3,541.4h5.1v4.1h-5.1v10.6c0,1.9,1.1,2.9,3.3,2.9h1.8v4.2h-1.9
					c-5.2,0-8.1-1.7-8.1-6.4v-20.8h4.8V541.4z"/>
				<path id="XMLID_197_" class="st2" d="M609.4,560.5c-2,2.1-4.6,3.2-8,3.2c-3.4,0-6-1.1-8-3.2c-2-2.1-2.9-4.9-2.9-8.3
					c0-3.4,1-6.1,2.9-8.2c2-2.1,4.7-3.2,8-3.2c3.4,0,6,1.1,8,3.2c2,2.1,3,4.8,3,8.2C612.4,555.6,611.4,558.4,609.4,560.5z
					 M601.4,544.9c-4,0-6.1,3.2-6.1,7.3c0,4.1,2.2,7.3,6.1,7.3c4,0,6.1-3.2,6.1-7.3C607.6,548.1,605.4,544.9,601.4,544.9z"/>
				<path id="XMLID_195_" class="st2" d="M627,547.2c-0.3-1.6-1.7-2.3-4.3-2.3c-2.6,0-3.9,0.8-3.9,2.3c0,1.3,0.9,1.8,2.8,2.2
					l4.2,0.7c4.4,0.7,6.6,2.9,6.6,6.7c0,1.9-0.8,3.6-2.5,4.9c-1.6,1.3-3.9,2-6.8,2c-6.1,0-9.5-2.7-9.9-7.1h4.8c0.4,2.1,2,3.1,5,3.1
					c3,0,4.6-0.9,4.6-2.8c0-1.7-1-2.4-3.5-2.9l-4.5-0.8c-3.4-0.6-5.5-2.5-5.5-5.7c0-3.9,3.1-6.6,8.9-6.6c5.2,0,8.4,2.5,8.9,6.4H627z
					"/>
			</g>
		</g>
	</g>
	<g id="XMLID_44_">
		<rect id="XMLID_190_" x="905.1" y="519.7" class="st1" width="134.8" height="65.2"/>
		<g id="XMLID_45_">
			<g id="XMLID_176_">
				<path id="XMLID_186_" class="st2" d="M942,563.1v-2h-1c-1.3,1.7-3.5,2.6-6.4,2.6c-2.4,0-4.3-0.7-5.7-2c-1.4-1.4-2.1-3.1-2.1-5.1
					c0-2,0.7-3.7,2.1-5.1c1.4-1.5,3.6-2.2,6.5-2.2h6.4v-0.6c0-2.5-1.5-4-4.6-4c-2.7,0-4.1,0.9-4.4,2.8h-4.8c0.2-4.1,3.8-6.6,9-6.6
					c5.8,0,9.4,2.6,9.4,7.9v14.4H942z M940.2,558.1c1.1-1.1,1.7-2.3,1.7-3.8v-1.7h-5.5c-3,0-4.6,1.3-4.6,3.6c0,2.2,1.6,3.5,4.4,3.5
					C937.7,559.7,939.1,559.2,940.2,558.1z"/>
				<path id="XMLID_184_" class="st2" d="M963.4,541.4v4.5h-2c-4.4,0-6.8,2.5-6.8,7.1v10.2h-4.8v-21.7h4.7v2.5h1
					c1.2-1.7,3.3-2.5,6.1-2.5H963.4z"/>
				<path id="XMLID_182_" class="st2" d="M970.2,541.4h5.1v4.1h-5.1v10.6c0,1.9,1.1,2.9,3.3,2.9h1.8v4.2h-1.9
					c-5.2,0-8.1-1.7-8.1-6.4v-20.8h4.8V541.4z"/>
				<path id="XMLID_179_" class="st2" d="M995.2,560.5c-2,2.1-4.6,3.2-8,3.2c-3.4,0-6-1.1-8-3.2c-2-2.1-2.9-4.9-2.9-8.3
					c0-3.4,1-6.1,2.9-8.2c2-2.1,4.7-3.2,8-3.2c3.4,0,6,1.1,8,3.2c2,2.1,3,4.8,3,8.2C998.2,555.6,997.2,558.4,995.2,560.5z
					 M987.2,544.9c-4,0-6.1,3.2-6.1,7.3c0,4.1,2.2,7.3,6.1,7.3c4,0,6.1-3.2,6.1-7.3C993.4,548.1,991.2,544.9,987.2,544.9z"/>
				<path id="XMLID_177_" class="st2" d="M1012.8,547.2c-0.3-1.6-1.7-2.3-4.3-2.3c-2.6,0-3.9,0.8-3.9,2.3c0,1.3,0.9,1.8,2.8,2.2
					l4.2,0.7c4.4,0.7,6.6,2.9,6.6,6.7c0,1.9-0.8,3.6-2.5,4.9c-1.6,1.3-3.9,2-6.8,2c-6.1,0-9.5-2.7-9.9-7.1h4.8c0.4,2.1,2,3.1,5,3.1
					c3,0,4.6-0.9,4.6-2.8c0-1.7-1-2.4-3.5-2.9l-4.5-0.8c-3.4-0.6-5.5-2.5-5.5-5.7c0-3.9,3.1-6.6,8.9-6.6c5.2,0,8.4,2.5,8.9,6.4
					H1012.8z"/>
			</g>
		</g>
	</g>
</g>
</svg>
