<?xml version="1.0" encoding="utf-8"?>
<!-- Generator: Adobe Illustrator 19.0.0, SVG Export Plug-In . SVG Version: 6.00 Build 0)  -->
<svg version="1.1" id="clearspace" xmlns="http://www.w3.org/2000/svg" xmlns:xlink="http://www.w3.org/1999/xlink" x="0px" y="0px"
	 viewBox="-74 51 1350 480.9" style="enable-background:new -74 51 1350 480.9;" xml:space="preserve">
<style type="text/css">
	.st0{fill:none;stroke:#36AFA7;stroke-width:2;stroke-miterlimit:10;}
	.st1{fill:#36AFA7;}
	.st2{fill:#FFFFFF;}
	.st3{fill:#101010;}
	.st4{opacity:0.5;}
	.st5{fill:none;stroke:#36AFA7;stroke-miterlimit:10;}
</style>
<g>
	<g id="XMLID_1448_">
		<circle id="XMLID_739_" class="st0" cx="552.4" cy="165.2" r="95.5"/>
	</g>
	<g id="XMLID_1421_">
		<g id="XMLID_1583_">
			<path id="XMLID_1643_" class="st1" d="M497.8,184.7v-3.6h-1.9c-2.4,3.1-6.2,4.6-11.5,4.6c-4.2,0-7.7-1.2-10.2-3.7
				c-2.5-2.5-3.7-5.5-3.7-9.1c0-3.5,1.3-6.6,3.8-9.2s6.4-3.9,11.6-3.9h11.5v-1.1c0-4.6-2.7-7.2-8.2-7.2c-4.9,0-7.5,1.7-7.8,5h-8.6
				c0.4-7.3,6.8-11.8,16.1-11.8c10.5,0,16.9,4.7,16.9,14.1v25.8h-8.1L497.8,184.7L497.8,184.7z M494.5,175.8c2-1.9,3-4.2,3-6.9v-3
				h-9.9c-5.5,0-8.3,2.4-8.3,6.4c0,3.9,2.9,6.3,7.9,6.3C490,178.6,492.5,177.6,494.5,175.8z"/>
			<path id="XMLID_1597_" class="st1" d="M536,145.7v8.1h-3.5c-7.9,0-12.2,4.6-12.2,12.7v18.1h-8.7v-39h8.4v4.6h1.9
				c2.2-3,5.9-4.6,10.9-4.6H536z"/>
			<path id="XMLID_1595_" class="st1" d="M548.1,145.7h9.2v7.4h-9.2v18.9c0,3.4,2,5.2,6,5.2h3.2v7.6H554c-9.4,0-14.5-3.1-14.5-11.5
				v-37.3h8.7V145.7z"/>
			<path id="XMLID_1592_" class="st1" d="M593,179.9c-3.5,3.7-8.3,5.7-14.3,5.7c-6,0-10.8-1.9-14.4-5.7c-3.5-3.8-5.3-8.8-5.3-14.9
				c0-6,1.8-11,5.3-14.7c3.6-3.8,8.4-5.7,14.4-5.7c6,0,10.8,1.9,14.3,5.7c3.6,3.7,5.4,8.7,5.4,14.7
				C598.4,171.1,596.6,176.1,593,179.9z M578.8,152c-7.2,0-11.1,5.7-11.1,13.2c0,7.5,3.9,13.2,11.1,13.2s11.1-5.7,11.1-13.2
				C589.7,157.7,585.9,152,578.8,152z"/>
			<path id="XMLID_1584_" class="st1" d="M624.5,156.2c-0.4-2.8-3-4.2-7.7-4.2c-4.7,0-7,1.3-7,4c0,2.4,1.6,3.3,5,3.9l7.6,1.2
				c7.9,1.3,11.9,5.3,11.9,12.1c0,3.4-1.5,6.4-4.5,8.9c-2.9,2.4-6.9,3.6-12.2,3.6c-11.1,0-17-4.9-17.7-12.9h8.7
				c0.7,3.7,3.7,5.6,9,5.6c5.5,0,8.2-1.7,8.2-5.1c0-3-1.9-4.4-6.3-5.2l-8.1-1.3c-6.1-1-9.9-4.5-9.9-10.3c0-6.9,5.5-11.9,16.1-11.9
				c9.3,0,15.2,4.5,16.1,11.4L624.5,156.2L624.5,156.2z"/>
		</g>
	</g>
</g>
<g>
	<g id="XMLID_796_">
		<path id="XMLID_765_" class="st0" d="M930.9,260.8h-130c-17,0-30.6-13.7-30.6-30.6v-130c0-16.9,13.7-30.6,30.6-30.6h130
			c16.9,0,30.6,13.7,30.6,30.6v130C961.5,247.1,947.8,260.8,930.9,260.8z"/>
	</g>
	<g id="XMLID_757_">
		<g id="XMLID_1598_">
			<path id="XMLID_1663_" class="st1" d="M811.3,184.6V181h-1.9c-2.4,3.1-6.2,4.6-11.5,4.6c-4.2,0-7.7-1.2-10.2-3.7
				c-2.5-2.5-3.7-5.5-3.7-9.1c0-3.5,1.3-6.6,3.8-9.2s6.4-3.9,11.6-3.9H811v-1.1c0-4.6-2.7-7.2-8.2-7.2c-4.9,0-7.5,1.7-7.8,5h-8.6
				c0.4-7.3,6.8-11.8,16.1-11.8c10.5,0,16.9,4.7,16.9,14.1v25.8h-8.1V184.6L811.3,184.6z M808,175.7c2-1.9,3-4.2,3-6.9v-3H801
				c-5.5,0-8.3,2.4-8.3,6.4c0,3.9,2.9,6.3,7.9,6.3C803.5,178.6,806,177.6,808,175.7z"/>
			<path id="XMLID_1661_" class="st1" d="M849.5,145.6v8.1H846c-7.9,0-12.2,4.6-12.2,12.7v18.1h-8.7v-39h8.4v4.6h1.9
				c2.2-3,5.9-4.6,10.9-4.6H849.5z"/>
			<path id="XMLID_1604_" class="st1" d="M861.6,145.6h9.2v7.4h-9.2v18.9c0,3.4,2,5.2,6,5.2h3.2v7.6h-3.4c-9.4,0-14.5-3.1-14.5-11.5
				v-37.3h8.7V145.6z"/>
			<path id="XMLID_1601_" class="st1" d="M906.5,179.9c-3.5,3.7-8.3,5.7-14.3,5.7c-6,0-10.8-1.9-14.4-5.7c-3.5-3.8-5.3-8.8-5.3-14.9
				c0-6,1.8-11,5.3-14.7c3.6-3.8,8.4-5.7,14.4-5.7c6,0,10.8,1.9,14.3,5.7c3.6,3.7,5.4,8.7,5.4,14.7
				C911.9,171.1,910.1,176.1,906.5,179.9z M892.3,152c-7.2,0-11.1,5.7-11.1,13.2s3.9,13.2,11.1,13.2s11.1-5.7,11.1-13.2
				C903.2,157.7,899.4,152,892.3,152z"/>
			<path id="XMLID_1599_" class="st1" d="M938,156.1c-0.4-2.8-3-4.2-7.7-4.2c-4.7,0-7,1.3-7,4c0,2.4,1.6,3.3,5,3.9l7.6,1.2
				c7.9,1.3,11.9,5.3,11.9,12.1c0,3.4-1.5,6.4-4.5,8.9c-2.9,2.4-6.9,3.6-12.2,3.6c-11.1,0-17-4.9-17.7-12.9h8.7
				c0.7,3.7,3.7,5.6,9,5.6c5.5,0,8.2-1.7,8.2-5.1c0-3-1.9-4.4-6.3-5.2l-8.1-1.3c-6.1-1-9.9-4.5-9.9-10.3c0-6.9,5.5-11.9,16.1-11.9
				c9.3,0,15.2,4.5,16.1,11.4L938,156.1L938,156.1z"/>
		</g>
	</g>
</g>
<g>
	<rect id="XMLID_791_" x="1083.8" y="69.6" class="st0" width="191.2" height="191.2"/>
	<g id="XMLID_671_">
		<g id="XMLID_1631_">
			<path id="XMLID_1657_" class="st1" d="M1126.9,183.8v-3.4h-1.8c-2.3,2.9-5.9,4.5-11,4.5c-4.1,0-7.4-1.1-9.7-3.5
				c-2.4-2.4-3.6-5.3-3.6-8.7s1.2-6.3,3.6-8.8c2.4-2.5,6.2-3.7,11.2-3.7h11v-1.1c0-4.4-2.6-6.8-7.9-6.8c-4.7,0-7.2,1.7-7.5,4.8h-8.2
				c0.4-6.9,6.5-11.3,15.4-11.3c10.1,0,16.2,4.5,16.2,13.6v24.8L1126.9,183.8L1126.9,183.8L1126.9,183.8z M1123.8,175.3
				c1.9-1.9,2.9-4,2.9-6.6v-2.9h-9.5c-5.2,0-8,2.3-8,6.2c0,3.8,2.8,6,7.6,6C1119.6,178,1121.9,177.2,1123.8,175.3z"/>
			<path id="XMLID_1655_" class="st1" d="M1163.6,146.5v7.7h-3.3c-7.6,0-11.7,4.4-11.7,12.2v17.4h-8.3v-37.3h8v4.4h1.8
				c2.2-2.9,5.7-4.4,10.5-4.4H1163.6L1163.6,146.5z"/>
			<path id="XMLID_1653_" class="st1" d="M1175.2,146.5h8.8v7h-8.8v18.1c0,3.3,1.9,5,5.7,5h3.1v7.3h-3.2c-9,0-13.9-3-13.9-11v-35.8
				h8.3V146.5z"/>
			<path id="XMLID_1634_" class="st1" d="M1218.3,179.4c-3.4,3.6-8,5.4-13.8,5.4c-5.8,0-10.4-1.9-13.8-5.4
				c-3.4-3.6-5.1-8.5-5.1-14.3c0-5.8,1.7-10.5,5.1-14.1c3.4-3.6,8-5.5,13.8-5.5c5.8,0,10.4,1.9,13.8,5.5s5.2,8.3,5.2,14.1
				C1223.5,170.9,1221.7,175.7,1218.3,179.4z M1204.6,152.5c-6.8,0-10.6,5.5-10.6,12.5c0,7.2,3.7,12.6,10.6,12.6s10.6-5.5,10.6-12.6
				C1215.1,158,1211.4,152.5,1204.6,152.5z"/>
			<path id="XMLID_1632_" class="st1" d="M1248.6,156.5c-0.4-2.7-2.9-4-7.4-4c-4.5,0-6.7,1.3-6.7,3.9c0,2.3,1.5,3.2,4.8,3.7l7.3,1.1
				c7.6,1.2,11.4,5.1,11.4,11.6c0,3.3-1.3,6.2-4.2,8.5c-2.8,2.3-6.7,3.4-11.7,3.4c-10.6,0-16.3-4.7-17.1-12.2h8.3
				c0.6,3.6,3.5,5.4,8.7,5.4c5.2,0,7.9-1.7,7.9-4.9c0-2.9-1.8-4.1-6.1-5l-8-1.3c-5.9-0.9-9.5-4.2-9.5-9.8c0-6.7,5.3-11.4,15.3-11.4
				c8.9,0,14.5,4.2,15.3,11L1248.6,156.5L1248.6,156.5z"/>
		</g>
	</g>
</g>
<g>
	<g id="XMLID_669_">
		<circle id="XMLID_670_" class="st2" cx="552.4" cy="421.4" r="95.5"/>
	</g>
	<g id="XMLID_662_">
		<g id="XMLID_663_">
			<path id="XMLID_668_" class="st3" d="M497.7,440.9v-3.6h-1.9c-2.4,3.1-6.2,4.6-11.5,4.6c-4.2,0-7.7-1.2-10.2-3.7
				s-3.7-5.5-3.7-9.1c0-3.5,1.3-6.6,3.8-9.2c2.5-2.6,6.4-3.9,11.6-3.9h11.5v-1.1c0-4.6-2.7-7.2-8.2-7.2c-4.9,0-7.5,1.7-7.8,5h-8.6
				c0.4-7.3,6.8-11.8,16.1-11.8c10.5,0,16.9,4.7,16.9,14.1v25.8h-8.1L497.7,440.9L497.7,440.9z M494.4,432c2-1.9,3-4.2,3-6.9v-3
				h-9.9c-5.5,0-8.3,2.4-8.3,6.4c0,3.9,2.9,6.3,7.9,6.3C490,434.8,492.5,433.9,494.4,432z"/>
			<path id="XMLID_667_" class="st3" d="M535.9,401.9v8.1h-3.5c-7.9,0-12.2,4.6-12.2,12.7v18.1h-8.7v-39h8.4v4.6h1.9
				c2.2-3,5.9-4.6,10.9-4.6H535.9z"/>
			<path id="XMLID_666_" class="st3" d="M548.1,401.9h9.2v7.4h-9.2v18.9c0,3.4,2,5.2,6,5.2h3.2v7.6H554c-9.4,0-14.5-3.1-14.5-11.5
				v-37.3h8.7V401.9z"/>
			<path id="XMLID_665_" class="st3" d="M593,436.1c-3.5,3.7-8.3,5.7-14.3,5.7s-10.8-1.9-14.4-5.7c-3.5-3.8-5.3-8.8-5.3-14.9
				c0-6,1.8-11,5.3-14.7c3.6-3.8,8.4-5.7,14.4-5.7c6,0,10.8,1.9,14.3,5.7c3.6,3.7,5.4,8.7,5.4,14.7
				C598.4,427.3,596.6,432.3,593,436.1z M578.7,408.3c-7.2,0-11.1,5.7-11.1,13.2c0,7.5,3.9,13.2,11.1,13.2s11.1-5.7,11.1-13.2
				C589.7,414,585.9,408.3,578.7,408.3z"/>
			<path id="XMLID_664_" class="st3" d="M624.5,412.4c-0.4-2.8-3-4.2-7.7-4.2c-4.7,0-7,1.3-7,4c0,2.4,1.6,3.3,5,3.9l7.6,1.2
				c7.9,1.3,11.9,5.3,11.9,12.1c0,3.4-1.5,6.4-4.5,8.9c-2.9,2.4-6.9,3.6-12.2,3.6c-11.1,0-17-4.9-17.7-12.9h8.7
				c0.7,3.7,3.7,5.6,9,5.6c5.5,0,8.2-1.7,8.2-5.1c0-3-1.9-4.4-6.3-5.2l-8.1-1.3c-6.1-1-9.9-4.5-9.9-10.3c0-6.9,5.5-11.9,16.1-11.9
				c9.3,0,15.2,4.5,16.1,11.4L624.5,412.4L624.5,412.4z"/>
		</g>
	</g>
</g>
<g>
	<g id="XMLID_660_">
		<path id="XMLID_661_" class="st2" d="M930.9,517h-130c-17,0-30.6-13.7-30.6-30.6v-130c0-16.9,13.7-30.6,30.6-30.6h130
			c16.9,0,30.6,13.7,30.6,30.6v130C961.4,503.3,947.7,517,930.9,517z"/>
	</g>
	<g id="XMLID_18_">
		<g id="XMLID_10_">
			<path id="XMLID_659_" class="st3" d="M811.2,440.8v-3.6h-1.9c-2.4,3.1-6.2,4.6-11.5,4.6c-4.2,0-7.7-1.2-10.2-3.7
				s-3.7-5.5-3.7-9.1c0-3.5,1.3-6.6,3.8-9.2c2.5-2.6,6.4-3.9,11.6-3.9h11.5v-1.1c0-4.6-2.7-7.2-8.2-7.2c-4.9,0-7.5,1.7-7.8,5h-8.6
				c0.4-7.3,6.8-11.8,16.1-11.8c10.5,0,16.9,4.7,16.9,14.1v25.8h-8.1L811.2,440.8L811.2,440.8z M807.9,431.9c2-1.9,3-4.2,3-6.9v-3
				h-9.9c-5.5,0-8.3,2.4-8.3,6.4c0,3.9,2.9,6.3,7.9,6.3C803.5,434.8,806,433.9,807.9,431.9z"/>
			<path id="XMLID_658_" class="st3" d="M849.4,401.8v8.1h-3.5c-7.9,0-12.2,4.6-12.2,12.7v18.1H825v-39h8.4v4.6h1.9
				c2.2-3,5.9-4.6,10.9-4.6H849.4z"/>
			<path id="XMLID_657_" class="st3" d="M861.6,401.8h9.2v7.4h-9.2v18.9c0,3.4,2,5.2,6,5.2h3.2v7.6h-3.4c-9.4,0-14.5-3.1-14.5-11.5
				V392h8.7V401.8z"/>
			<path id="XMLID_627_" class="st3" d="M906.5,436.1c-3.5,3.7-8.3,5.7-14.3,5.7s-10.8-1.9-14.4-5.7c-3.5-3.8-5.3-8.8-5.3-14.9
				c0-6,1.8-11,5.3-14.7c3.6-3.8,8.4-5.7,14.4-5.7c6,0,10.8,1.9,14.3,5.7c3.6,3.7,5.4,8.7,5.4,14.7
				C911.9,427.3,910.1,432.3,906.5,436.1z M892.2,408.3c-7.2,0-11.1,5.7-11.1,13.2s3.9,13.2,11.1,13.2s11.1-5.7,11.1-13.2
				C903.2,414,899.4,408.3,892.2,408.3z"/>
			<path id="XMLID_625_" class="st3" d="M938,412.3c-0.4-2.8-3-4.2-7.7-4.2c-4.7,0-7,1.3-7,4c0,2.4,1.6,3.3,5,3.9l7.6,1.2
				c7.9,1.3,11.9,5.3,11.9,12.1c0,3.4-1.5,6.4-4.5,8.9c-2.9,2.4-6.9,3.6-12.2,3.6c-11.1,0-17-4.9-17.7-12.9h8.7
				c0.7,3.7,3.7,5.6,9,5.6c5.5,0,8.2-1.7,8.2-5.1c0-3-1.9-4.4-6.3-5.2l-8.1-1.3c-6.1-1-9.9-4.5-9.9-10.3c0-6.9,5.5-11.9,16.1-11.9
				c9.3,0,15.2,4.5,16.1,11.4L938,412.3L938,412.3z"/>
		</g>
	</g>
</g>
<g>
	<rect id="XMLID_16_" x="1083.8" y="325.8" class="st2" width="191.2" height="191.2"/>
	<g id="XMLID_1_">
		<g id="XMLID_5_">
			<path id="XMLID_9_" class="st3" d="M1126.8,440v-3.4h-1.8c-2.3,2.9-5.9,4.5-11,4.5c-4.1,0-7.4-1.1-9.7-3.5
				c-2.4-2.4-3.6-5.3-3.6-8.7c0-3.4,1.2-6.3,3.6-8.8c2.4-2.5,6.2-3.7,11.2-3.7h11v-1.1c0-4.4-2.6-6.8-7.9-6.8
				c-4.7,0-7.2,1.7-7.5,4.8h-8.2c0.4-6.9,6.5-11.3,15.4-11.3c10.1,0,16.2,4.5,16.2,13.6v24.8L1126.8,440L1126.8,440L1126.8,440z
				 M1123.7,431.5c1.9-1.9,2.9-4,2.9-6.6V422h-9.5c-5.2,0-8,2.3-8,6.2c0,3.8,2.8,6,7.6,6C1119.6,434.2,1121.8,433.4,1123.7,431.5z"
				/>
			<path id="XMLID_6_" class="st3" d="M1163.5,402.7v7.7h-3.3c-7.6,0-11.7,4.4-11.7,12.2V440h-8.3v-37.3h8v4.4h1.8
				c2.2-2.9,5.7-4.4,10.5-4.4H1163.5L1163.5,402.7z"/>
			<path id="XMLID_7_" class="st3" d="M1175.2,402.7h8.8v7h-8.8v18.1c0,3.3,1.9,5,5.7,5h3.1v7.3h-3.2c-9,0-13.9-3-13.9-11v-35.8h8.3
				V402.7z"/>
			<path id="XMLID_8_" class="st3" d="M1218.3,435.6c-3.4,3.6-8,5.4-13.8,5.4s-10.4-1.9-13.8-5.4c-3.4-3.6-5.1-8.5-5.1-14.3
				c0-5.8,1.7-10.5,5.1-14.1c3.4-3.6,8-5.5,13.8-5.5s10.4,1.9,13.8,5.5c3.4,3.6,5.2,8.3,5.2,14.1
				C1223.5,427.1,1221.7,431.9,1218.3,435.6z M1204.5,408.7c-6.8,0-10.6,5.5-10.6,12.5c0,7.2,3.7,12.6,10.6,12.6s10.6-5.5,10.6-12.6
				C1215.1,414.2,1211.4,408.7,1204.5,408.7z"/>
			<path id="XMLID_12_" class="st3" d="M1248.6,412.7c-0.4-2.7-2.9-4-7.4-4c-4.5,0-6.7,1.3-6.7,3.9c0,2.3,1.5,3.2,4.8,3.7l7.3,1.1
				c7.6,1.2,11.4,5.1,11.4,11.6c0,3.3-1.3,6.2-4.2,8.5c-2.8,2.3-6.7,3.4-11.7,3.4c-10.6,0-16.3-4.7-17.1-12.2h8.3
				c0.6,3.6,3.5,5.4,8.7,5.4c5.2,0,7.9-1.7,7.9-4.9c0-2.9-1.8-4.1-6.1-5l-8-1.3c-5.9-0.9-9.5-4.2-9.5-9.8c0-6.7,5.3-11.4,15.3-11.4
				c8.9,0,14.5,4.2,15.3,11L1248.6,412.7L1248.6,412.7z"/>
		</g>
	</g>
</g>
<g>
	<g id="XMLID_1478_" class="st4">
		<line id="XMLID_1522_" class="st5" x1="-72" y1="483.4" x2="376" y2="483.4"/>
		<line id="XMLID_1521_" class="st5" x1="-72" y1="451.4" x2="376" y2="451.4"/>
		<line id="XMLID_1520_" class="st5" x1="-72" y1="419.4" x2="376" y2="419.4"/>
		<line id="XMLID_1519_" class="st5" x1="-72" y1="387.5" x2="376" y2="387.5"/>
		<line id="XMLID_1518_" class="st5" x1="-72" y1="355.5" x2="376" y2="355.5"/>
		<line id="XMLID_1517_" class="st5" x1="-72" y1="323.5" x2="376" y2="323.5"/>
		<line id="XMLID_1516_" class="st5" x1="-72" y1="291.5" x2="376" y2="291.5"/>
		<line id="XMLID_1515_" class="st5" x1="-72" y1="259.5" x2="376" y2="259.5"/>
		<line id="XMLID_1514_" class="st5" x1="-72" y1="227.4" x2="376" y2="227.4"/>
		<line id="XMLID_1513_" class="st5" x1="-72" y1="195.4" x2="376" y2="195.4"/>
		<line id="XMLID_1512_" class="st5" x1="-72" y1="163.4" x2="376" y2="163.4"/>
		<line id="XMLID_1511_" class="st5" x1="-72" y1="131.4" x2="376" y2="131.4"/>
		<line id="XMLID_1497_" class="st5" x1="-72" y1="99.4" x2="376" y2="99.4"/>
		<line id="XMLID_1496_" class="st5" x1="344" y1="67.4" x2="344" y2="515.4"/>
		<line id="XMLID_1495_" class="st5" x1="312" y1="67.4" x2="312" y2="515.4"/>
		<line id="XMLID_1491_" class="st5" x1="280" y1="67.4" x2="280" y2="515.4"/>
		<line id="XMLID_1490_" class="st5" x1="248" y1="67.4" x2="248" y2="515.4"/>
		<line id="XMLID_1489_" class="st5" x1="216" y1="67.4" x2="216" y2="515.4"/>
		<line id="XMLID_1487_" class="st5" x1="184" y1="67.4" x2="184" y2="515.4"/>
		<line id="XMLID_1486_" class="st5" x1="152" y1="67.4" x2="152" y2="515.4"/>
		<line id="XMLID_1485_" class="st5" x1="120" y1="67.4" x2="120" y2="515.4"/>
		<line id="XMLID_1483_" class="st5" x1="88" y1="67.4" x2="88" y2="515.4"/>
		<line id="XMLID_1482_" class="st5" x1="56" y1="67.4" x2="56" y2="515.4"/>
		<line id="XMLID_1481_" class="st5" x1="24" y1="67.4" x2="24" y2="515.4"/>
		<line id="XMLID_1480_" class="st5" x1="-8" y1="67.4" x2="-8" y2="515.4"/>
		<line id="XMLID_1479_" class="st5" x1="-40" y1="67.4" x2="-40" y2="515.4"/>
	</g>
	<g id="XMLID_1451_">
		<g id="XMLID_1575_">
			<path id="XMLID_1648_" class="st2" d="M23.6,337.2v-8.4h-4.3c-5.5,7.2-14.5,10.7-26.8,10.7c-10,0-17.9-2.8-23.8-8.5
				c-5.9-5.9-8.7-12.9-8.7-21.3c0-8.2,3-15.4,8.9-21.5c5.9-6.1,15-9.1,27.2-9.1h26.8v-2.7c0-10.5-6.3-16.6-19.1-16.6
				c-11.2,0-17.3,3.9-18.2,11.6h-20c0.9-17,15.9-27.5,37.5-27.5c24.5,0,39.3,10.9,39.3,32.9v60.4L23.6,337.2L23.6,337.2z
				 M15.9,316.4c4.6-4.5,7-9.8,7-16.1v-7H-0.4c-12.7,0-19.3,5.5-19.3,15c0,9.3,6.8,14.7,18.4,14.7C5.5,323,11.3,320.9,15.9,316.4z"
				/>
			<path id="XMLID_1646_" class="st2" d="M113.1,246.1v18.8h-8.2c-18.4,0-28.4,10.5-28.4,29.7v42.5H56.2v-91h19.5v10.6H80
				c5.2-7,13.8-10.5,25.4-10.5L113.1,246.1L113.1,246.1L113.1,246.1z"/>
			<path id="XMLID_1581_" class="st2" d="M141.6,246.1h21.5v17.2h-21.5v44.3c0,8.1,4.6,12,13.9,12h7.5v17.5h-7.9
				c-22,0-33.8-7.3-33.8-26.8v-87.2h20.2V246.1L141.6,246.1z"/>
			<path id="XMLID_1578_" class="st2" d="M246.6,326.3c-8.2,8.7-19.3,13.2-33.5,13.2s-25.2-4.5-33.6-13.2
				c-8.2-8.9-12.3-20.6-12.3-34.7c0-14.1,4.1-25.6,12.3-34.4c8.4-8.9,19.5-13.4,33.6-13.4c14.1,0,25.2,4.5,33.5,13.4
				c8.4,8.7,12.5,20.2,12.5,34.4S255,317.3,246.6,326.3z M213.2,261c-16.6,0-25.7,13.4-25.7,30.6c0,17.3,9.1,30.8,25.7,30.8
				s25.7-13.4,25.7-30.8C238.9,274.4,229.8,261,213.2,261z"/>
			<path id="XMLID_1576_" class="st2" d="M320.4,270.4c-1.1-6.6-7-9.8-17.9-9.8S286,263.9,286,270c0,5.5,3.6,7.7,11.6,9.1l17.7,2.8
				c18.4,3,27.7,12.3,27.7,28.3c0,8.1-3.4,15-10.3,20.8c-6.8,5.5-16.3,8.4-28.6,8.4c-25.7,0-39.7-11.2-41.7-29.9h20.2
				c1.6,8.7,8.5,13,21.1,13c12.7,0,19.1-3.9,19.1-11.8c0-7-4.3-10.2-14.8-12.1l-19-3.2c-14.3-2.3-23.3-10.3-23.3-24
				c0-16.3,12.9-27.7,37.4-27.7c21.7,0,35.4,10.3,37.4,26.6L320.4,270.4L320.4,270.4z"/>
		</g>
	</g>
	<rect x="-72" y="67.4" class="st5" width="448" height="447.4"/>
	<path class="st5" d="M296.4,514.9H7.7c-43.8,0-79.7-35.8-79.7-79.7V147.1c0-43.8,35.8-79.7,79.7-79.7h288.7
		c43.8,0,79.7,35.8,79.7,79.7v288.1C376,479,340.2,514.9,296.4,514.9z"/>
	<circle class="st5" cx="151.1" cy="290.5" r="223.1"/>
</g>
</svg>
