<?xml version="1.0" encoding="utf-8"?>
<!-- Generator: Adobe Illustrator 19.0.0, SVG Export Plug-In . SVG Version: 6.00 Build 0)  -->
<svg version="1.1" id="Layer_1" xmlns="http://www.w3.org/2000/svg" xmlns:xlink="http://www.w3.org/1999/xlink" x="0px" y="0px"
	 viewBox="0 0 1201 1043.1" style="enable-background:new 0 0 1201 1043.1;" xml:space="preserve">
<style type="text/css">
	.st0{fill:#36ACA7;}
	.st1{opacity:0;fill:#98B5D1;}
	.st2{fill:#FFFFFF;}
</style>
<g id="XMLID_2_">
	<rect id="XMLID_551_" class="st0" width="479" height="681"/>
	<rect id="XMLID_550_" x="519" y="0" class="st0" width="681" height="479"/>
	<rect id="XMLID_549_" x="519" y="519.7" class="st0" width="522.4" height="522.4"/>
	<g id="XMLID_10_">
		<rect id="XMLID_208_" x="519" y="1017" class="st1" width="25.1" height="25.1"/>
		<rect id="XMLID_207_" x="1016.4" y="1017" class="st1" width="25.1" height="25.1"/>
		<g id="XMLID_336_">
			<g id="XMLID_162_">
				<path id="XMLID_172_" class="st2" d="M622.6,1017v-10.4h-5.3c-6.8,8.8-17.9,13.2-33.1,13.2c-12.3,0-22-3.5-29.3-10.6
					c-7.3-7.3-10.8-15.9-10.8-26.2c0-10.1,3.7-19,11-26.5c7.3-7.5,18.5-11.2,33.5-11.2h33.1V942c0-13-7.7-20.5-23.6-20.5
					c-13.9,0-21.4,4.8-22.5,14.3h-24.7c1.1-20.9,19.6-33.9,46.3-33.9c30.2,0,48.5,13.4,48.5,40.6v74.5H622.6z M613.1,991.4
					c5.7-5.5,8.6-12.1,8.6-19.8V963H593c-15.7,0-23.8,6.8-23.8,18.5c0,11.5,8.4,18.1,22.7,18.1C600.3,999.6,607.4,996.9,613.1,991.4
					z"/>
				<path id="XMLID_170_" class="st2" d="M732.8,904.8v23.1h-10.1c-22.7,0-35.1,13-35.1,36.6v52.5h-24.9V904.8h24v13h5.3
					c6.4-8.6,17-13,31.3-13H732.8z"/>
				<path id="XMLID_168_" class="st2" d="M768,904.8h26.5V926H768v54.7c0,9.9,5.7,14.8,17.2,14.8h9.3v21.6h-9.7
					c-27.1,0-41.7-9-41.7-33.1V876.4H768V904.8z"/>
				<path id="XMLID_165_" class="st2" d="M897.4,1003.5c-10.1,10.8-23.8,16.3-41.2,16.3c-17.4,0-31.1-5.5-41.4-16.3
					c-10.1-11-15.2-25.4-15.2-42.8s5.1-31.5,15.2-42.3c10.4-11,24-16.5,41.4-16.5c17.4,0,31.1,5.5,41.2,16.5
					c10.4,10.8,15.4,24.9,15.4,42.3S907.8,992.5,897.4,1003.5z M856.2,923.1c-20.5,0-31.7,16.5-31.7,37.7
					c0,21.4,11.2,37.9,31.7,37.9c20.5,0,31.7-16.5,31.7-37.9C887.9,939.6,876.7,923.1,856.2,923.1z"/>
				<path id="XMLID_163_" class="st2" d="M988.4,934.8c-1.3-8.2-8.6-12.1-22-12.1c-13.4,0-20.3,4-20.3,11.7c0,6.8,4.4,9.5,14.3,11.2
					l21.8,3.5c22.7,3.7,34.2,15.2,34.2,34.8c0,9.9-4.2,18.5-12.8,25.6c-8.4,6.8-20.1,10.4-35.3,10.4c-31.7,0-48.9-13.9-51.4-36.8
					h24.9c2,10.8,10.6,16.1,26,16.1c15.7,0,23.6-4.8,23.6-14.5c0-8.6-5.3-12.6-18.3-15l-23.4-4c-17.6-2.9-28.7-12.8-28.7-29.5
					c0-20.1,15.9-34.2,46.1-34.2c26.7,0,43.6,12.8,46.1,32.8H988.4z"/>
			</g>
		</g>
	</g>
	<g id="XMLID_111_">
		<rect id="XMLID_262_" x="0" y="658" class="st1" width="23" height="23"/>
		<rect id="XMLID_261_" x="456" y="658" class="st1" width="23" height="23"/>
		<g id="XMLID_209_">
			<g id="XMLID_148_">
				<path id="XMLID_158_" class="st2" d="M94.9,658v-9.5h-4.9c-6.3,8.1-16.4,12.1-30.3,12.1c-11.3,0-20.2-3.2-26.9-9.7
					c-6.7-6.7-9.9-14.6-9.9-24.1c0-9.3,3.4-17.4,10.1-24.3c6.7-6.9,17-10.3,30.7-10.3h30.3v-3c0-11.9-7.1-18.8-21.6-18.8
					c-12.7,0-19.6,4.4-20.6,13.1H29.3c1-19.2,18-31.1,42.4-31.1c27.7,0,44.5,12.3,44.5,37.2V658H94.9z M86.2,634.6
					c5.3-5.1,7.9-11.1,7.9-18.2v-7.9H67.9c-14.3,0-21.8,6.3-21.8,17C46,636,53.7,642,66.8,642C74.5,642,81,639.6,86.2,634.6z"/>
				<path id="XMLID_156_" class="st2" d="M196,555.1v21.2h-9.3c-20.8,0-32.1,11.9-32.1,33.5V658h-22.8V555.1h22V567h4.9
					c5.9-7.9,15.6-11.9,28.7-11.9H196z"/>
				<path id="XMLID_154_" class="st2" d="M228.2,555.1h24.3v19.4h-24.3v50.1c0,9.1,5.3,13.5,15.8,13.5h8.5V658h-8.9
					c-24.9,0-38.2-8.3-38.2-30.3v-98.6h22.8V555.1z"/>
				<path id="XMLID_151_" class="st2" d="M346.9,645.7c-9.3,9.9-21.8,15-37.8,15c-16,0-28.5-5.1-38-15
					c-9.3-10.1-13.9-23.2-13.9-39.2c0-16,4.6-28.9,13.9-38.8c9.5-10.1,22-15.2,38-15.2c16,0,28.5,5.1,37.8,15.2
					c9.5,9.9,14.1,22.8,14.1,38.8C361.1,622.4,356.4,635.6,346.9,645.7z M309.1,571.9c-18.8,0-29.1,15.2-29.1,34.6
					c0,19.6,10.3,34.8,29.1,34.8c18.8,0,29.1-15.2,29.1-34.8C338.2,587.1,327.9,571.9,309.1,571.9z"/>
				<path id="XMLID_149_" class="st2" d="M430.3,582.6c-1.2-7.5-7.9-11.1-20.2-11.1c-12.3,0-18.6,3.6-18.6,10.7
					c0,6.3,4,8.7,13.1,10.3l20,3.2c20.8,3.4,31.3,13.9,31.3,31.9c0,9.1-3.8,17-11.7,23.4c-7.7,6.3-18.4,9.5-32.3,9.5
					c-29.1,0-44.9-12.7-47.1-33.8h22.8c1.8,9.9,9.7,14.8,23.8,14.8c14.3,0,21.6-4.4,21.6-13.3c0-7.9-4.9-11.5-16.8-13.7l-21.4-3.6
					c-16.2-2.6-26.3-11.7-26.3-27.1c0-18.4,14.6-31.3,42.2-31.3c24.5,0,40,11.7,42.2,30.1H430.3z"/>
			</g>
		</g>
	</g>
	<g id="XMLID_210_">
		<rect id="XMLID_279_" x="519" y="446.3" class="st1" width="32.7" height="32.7"/>
		<rect id="XMLID_278_" x="1167.3" y="446.3" class="st1" width="32.7" height="32.7"/>
		<g id="XMLID_211_">
			<g id="XMLID_135_">
				<path id="XMLID_146_" class="st2" d="M654,446.3v-13.5h-6.9c-8.9,11.5-23.3,17.2-43.1,17.2c-16.1,0-28.7-4.6-38.2-13.8
					c-9.5-9.5-14.1-20.7-14.1-34.2c0-13.2,4.9-24.7,14.4-34.5c9.5-9.8,24.1-14.7,43.7-14.7h43.1v-4.3c0-17-10.1-26.7-30.7-26.7
					c-18.1,0-27.9,6.3-29.3,18.7h-32.2c1.4-27.3,25.6-44.3,60.3-44.3c39.4,0,63.2,17.5,63.2,52.9v97.1H654z M641.6,412.9
					c7.5-7.2,11.2-15.8,11.2-25.9v-11.2h-37.4c-20.4,0-31,8.9-31,24.1c0,14.9,10.9,23.6,29.6,23.6
					C625,423.6,634.2,420.1,641.6,412.9z"/>
				<path id="XMLID_144_" class="st2" d="M797.7,300v30.2h-13.2c-29.6,0-45.7,17-45.7,47.7v68.4h-32.5V300h31.3v17h6.9
					c8.3-11.2,22.1-17,40.8-17H797.7z"/>
				<path id="XMLID_141_" class="st2" d="M843.5,300H878v27.6h-34.5v71.3c0,12.9,7.5,19.3,22.4,19.3H878v28.2h-12.6
					c-35.3,0-54.3-11.8-54.3-43.1V263h32.5V300z"/>
				<path id="XMLID_138_" class="st2" d="M1012.3,428.7c-13.2,14.1-31,21.3-53.7,21.3c-22.7,0-40.5-7.2-54-21.3
					c-13.2-14.4-19.8-33-19.8-55.7c0-22.7,6.6-41.1,19.8-55.2c13.5-14.4,31.3-21.6,54-21.6c22.7,0,40.5,7.2,53.7,21.6
					c13.5,14.1,20.1,32.5,20.1,55.2C1032.4,395.7,1025.8,414.4,1012.3,428.7z M958.6,323.9c-26.7,0-41.4,21.6-41.4,49.1
					c0,27.9,14.7,49.4,41.4,49.4c26.7,0,41.4-21.6,41.4-49.4C999.9,345.4,985.3,323.9,958.6,323.9z"/>
				<path id="XMLID_136_" class="st2" d="M1130.8,339.1c-1.7-10.6-11.2-15.8-28.7-15.8c-17.5,0-26.4,5.2-26.4,15.2
					c0,8.9,5.7,12.4,18.7,14.7l28.4,4.6c29.6,4.9,44.5,19.8,44.5,45.4c0,12.9-5.5,24.1-16.7,33.3c-10.9,8.9-26.1,13.5-46,13.5
					c-41.4,0-63.8-18.1-67-48h32.5c2.6,14.1,13.8,21,33.9,21c20.4,0,30.7-6.3,30.7-19c0-11.2-6.9-16.4-23.9-19.5l-30.5-5.2
					c-23-3.7-37.4-16.7-37.4-38.5c0-26.1,20.7-44.5,60.1-44.5c34.8,0,56.9,16.7,60.1,42.8H1130.8z"/>
			</g>
		</g>
	</g>
</g>
</svg>
