<?xml version="1.0" encoding="utf-8"?>
<!-- Generator: Adobe Illustrator 19.0.0, SVG Export Plug-In . SVG Version: 6.00 Build 0)  -->
<svg version="1.1" id="construction" xmlns="http://www.w3.org/2000/svg" xmlns:xlink="http://www.w3.org/1999/xlink" x="0px"
	 y="0px" viewBox="-74 51 1350 780.9" style="enable-background:new -74 51 1350 780.9;" xml:space="preserve">
<style type="text/css">
	.st0{fill:#36ACA7;}
	.st1{fill:none;}
	.st2{fill:none;stroke:#101010;stroke-miterlimit:10;}
	.st3{fill:none;stroke:#36AFA7;stroke-width:1.5;stroke-miterlimit:10;}
	.st4{fill:#FFFFFF;}
	.st5{fill:#36AFA7;}
</style>
<g id="XMLID_11_">
	<g id="XMLID_1405_">
		<path id="XMLID_1415_" class="st0" d="M713.7-777.8v-90.3h-46.1C608.1-791.3,512-752.9,379.5-752.9
			c-107.6,0-192.1-30.7-255.4-92.2C60.7-908.5,30-983.4,30-1073.6c0-88.4,32.6-165.2,96-230.5s161.3-98,291.9-98H706v-28.8
			c0-113.3-67.2-178.6-205.5-178.6c-121,0-186.3,42.3-195.9,124.8H89.5c9.6-182.5,170.9-295.8,403.3-295.8
			c263.1,0,422.5,117.2,422.5,353.4v649.2L713.7-777.8L713.7-777.8z M631.1-1000.6c49.9-48,74.9-105.6,74.9-172.9v-74.9H456.3
			c-136.4,0-207.4,59.5-207.4,161.3c0,99.9,73,157.5,197.8,157.5C519.7-929.5,581.2-952.6,631.1-1000.6z"/>
		<path id="XMLID_1413_" class="st0" d="M1674-1755.4v201.7h-88.3c-197.8,0-305.4,113.3-305.4,318.8v457.1h-217v-977.6h209.3v113.3
			h46.1c55.7-74.9,147.9-113.3,272.7-113.3L1674-1755.4L1674-1755.4z"/>
		<path id="XMLID_1411_" class="st0" d="M1980.4-1755.4h230.5v184.4h-230.5v476.3c0,86.4,49.9,128.7,149.8,128.7h80.7v188.2h-84.5
			c-236.2,0-363-78.7-363-288.1v-936.7h217V-1755.4z"/>
		<path id="XMLID_1408_" class="st0" d="M3108.4-894.9c-88.4,94.1-207.4,142.1-359.2,142.1c-151.7,0-270.8-48-361.1-142.1
			c-88.4-96-132.5-220.9-132.5-372.6s44.2-274.6,132.5-368.8c90.3-96,209.3-144,361.1-144c151.7,0,270.8,48,359.2,144
			c90.3,94.1,134.4,217,134.4,368.8S3198.6-991,3108.4-894.9z M2749.2-1596c-178.6,0-276.6,144-276.6,328.4
			c0,186.3,97.9,330.3,276.6,330.3c178.6,0,276.6-144,276.6-330.3C3025.8-1451.9,2927.8-1596,2749.2-1596z"/>
		<path id="XMLID_1406_" class="st0" d="M3900.6-1494.2c-11.5-71.1-74.9-105.6-192.1-105.6c-117.2,0-176.7,34.6-176.7,101.8
			c0,59.5,38.4,82.6,124.8,98l190.1,30.7c197.8,32.6,297.7,132.5,297.7,303.5c0,86.4-36.5,161.3-111.4,222.8
			c-73,59.5-174.8,90.3-307.3,90.3c-276.6,0-426.4-121-447.5-320.7h217c17.3,94.1,92.2,140.2,226.6,140.2
			c136.4,0,205.5-42.3,205.5-126.8c0-74.9-46.1-109.5-159.4-130.6l-203.6-34.6c-153.6-25-249.7-111.4-249.7-257.4
			c0-174.8,138.3-297.7,401.4-297.7c232.4,0,380.3,111.4,401.4,286.2L3900.6-1494.2L3900.6-1494.2z"/>
	</g>
	<line id="XMLID_1404_" class="st1" x1="60.7" y1="-908.4" x2="195" y2="-774.4"/>
	<g id="XMLID_1400_">
		<line id="XMLID_1403_" class="st2" x1="-249.6" y1="-1755.4" x2="4424.1" y2="-1755.4"/>
		<line id="XMLID_1402_" class="st2" x1="-249.6" y1="-2002.6" x2="4424.1" y2="-2002.6"/>
		<line id="XMLID_1401_" class="st2" x1="-249.6" y1="-777.8" x2="4424.1" y2="-777.8"/>
	</g>
	<g id="XMLID_1162_">
		<line id="XMLID_1399_" class="st2" x1="99.1" y1="-1657" x2="90.4" y2="-1501.5"/>
		<circle id="XMLID_1398_" class="st2" cx="89.4" cy="-1484.6" r="17"/>
		<circle id="XMLID_1397_" class="st2" cx="304.4" cy="-1484.6" r="17"/>
		<circle id="XMLID_1396_" class="st2" cx="500.9" cy="-1609.4" r="17"/>
		<circle id="XMLID_1395_" class="st2" cx="491.3" cy="-1780.3" r="17"/>
		<circle id="XMLID_1394_" class="st2" cx="915.3" cy="-1439.1" r="17"/>
		<circle id="XMLID_1393_" class="st2" cx="1063.2" cy="-777.8" r="17"/>
		<circle id="XMLID_1392_" class="st2" cx="1280.3" cy="-777.8" r="17"/>
		<circle id="XMLID_1391_" class="st2" cx="1763.4" cy="-1065.9" r="17"/>
		<circle id="XMLID_1390_" class="st2" cx="2119.6" cy="-777.8" r="17"/>
		<circle id="XMLID_1389_" class="st2" cx="2210.9" cy="-777.8" r="17"/>
		<circle id="XMLID_1388_" class="st2" cx="2210.9" cy="-966" r="17"/>
		<circle id="XMLID_1387_" class="st2" cx="2130.3" cy="-966" r="17"/>
		<circle id="XMLID_1386_" class="st2" cx="1980.4" cy="-1094.7" r="17"/>
		<circle id="XMLID_1385_" class="st2" cx="1280.3" cy="-1234.9" r="17"/>
		<circle id="XMLID_1384_" class="st2" cx="1585.6" cy="-1553.7" r="17"/>
		<circle id="XMLID_1383_" class="st2" cx="1674" cy="-1553.7" r="17"/>
		<circle id="XMLID_1382_" class="st2" cx="1674" cy="-1755.4" r="17"/>
		<circle id="XMLID_1381_" class="st2" cx="1981" cy="-1755.4" r="17"/>
		<circle id="XMLID_1380_" class="st2" cx="1981" cy="-1570.7" r="17"/>
		<circle id="XMLID_1379_" class="st2" cx="2210.9" cy="-1570.7" r="17"/>
		<circle id="XMLID_1378_" class="st2" cx="2210.9" cy="-1755.4" r="17"/>
		<circle id="XMLID_1377_" class="st2" cx="1981" cy="-2002.6" r="17"/>
		<circle id="XMLID_1376_" class="st2" cx="1763.4" cy="-2002.6" r="17"/>
		<circle id="XMLID_1375_" class="st2" cx="1598" cy="-1755.4" r="17"/>
		<circle id="XMLID_1374_" class="st2" cx="1319.4" cy="-1642.1" r="17"/>
		<circle id="XMLID_1373_" class="st2" cx="1273.3" cy="-1642.1" r="17"/>
		<circle id="XMLID_1372_" class="st2" cx="1273.3" cy="-1755.4" r="17"/>
		<circle id="XMLID_1371_" class="st2" cx="1063.2" cy="-1755.4" r="17"/>
		<circle id="XMLID_1370_" class="st2" cx="706" cy="-1402" r="17"/>
		<circle id="XMLID_1369_" class="st2" cx="706" cy="-1248.3" r="17"/>
		<circle id="XMLID_1368_" class="st2" cx="706" cy="-1171.7" r="17"/>
		<circle id="XMLID_1367_" class="st2" cx="456.3" cy="-1248.3" r="17"/>
		<circle id="XMLID_1366_" class="st2" cx="127.2" cy="-1307.8" r="17"/>
		<circle id="XMLID_1365_" class="st2" cx="417.9" cy="-1402" r="17"/>
		<circle id="XMLID_1364_" class="st2" cx="248.9" cy="-1087.9" r="17"/>
		<circle id="XMLID_1363_" class="st2" cx="30" cy="-1073.7" r="17"/>
		<circle id="XMLID_1362_" class="st2" cx="125.3" cy="-843.9" r="17"/>
		<circle id="XMLID_1361_" class="st2" cx="375.2" cy="-752.8" r="17"/>
		<circle id="XMLID_1360_" class="st2" cx="447.1" cy="-929.5" r="17"/>
		<circle id="XMLID_1359_" class="st2" cx="629.1" cy="-998.5" r="17"/>
		<circle id="XMLID_1358_" class="st2" cx="667.6" cy="-868.1" r="20.1"/>
		<circle id="XMLID_1357_" class="st2" cx="713.2" cy="-868.1" r="20.1"/>
		<circle id="XMLID_1356_" class="st2" cx="713.2" cy="-777.8" r="17"/>
		<circle id="XMLID_1355_" class="st2" cx="915.3" cy="-777.8" r="17"/>
		<circle id="XMLID_1354_" class="st2" cx="99.1" cy="-1667" r="10"/>
		<circle id="XMLID_1353_" class="st2" cx="314.4" cy="-1574" r="10"/>
		<circle id="XMLID_1352_" class="st2" cx="287.3" cy="-1402" r="10"/>
		<circle id="XMLID_1351_" class="st2" cx="191.7" cy="-1374.6" r="10"/>
		<circle id="XMLID_1350_" class="st2" cx="62.6" cy="-1238.7" r="10"/>
		<circle id="XMLID_1349_" class="st2" cx="314.4" cy="-1248.3" r="10"/>
		<circle id="XMLID_1348_" class="st2" cx="248.9" cy="-1192.6" r="10"/>
		<circle id="XMLID_1347_" class="st2" cx="30" cy="-1164" r="10"/>
		<circle id="XMLID_1346_" class="st2" cx="30" cy="-983.2" r="10"/>
		<circle id="XMLID_1345_" class="st2" cx="248.9" cy="-983.3" r="10"/>
		<circle id="XMLID_1344_" class="st2" cx="321.9" cy="-929.5" r="10"/>
		<circle id="XMLID_1343_" class="st2" cx="60.7" cy="-908.4" r="10"/>
		<circle id="XMLID_1342_" class="st2" cx="187.6" cy="-781.9" r="10"/>
		<circle id="XMLID_1341_" class="st2" cx="272" cy="-752.8" r="10"/>
		<circle id="XMLID_1340_" class="st2" cx="534" cy="-752.8" r="10"/>
		<circle id="XMLID_1339_" class="st2" cx="609.1" cy="-788.8" r="10"/>
		<circle id="XMLID_1338_" class="st2" cx="520.1" cy="-929.5" r="10"/>
		<circle id="XMLID_1337_" class="st2" cx="581.2" cy="-951.5" r="10"/>
		<circle id="XMLID_1336_" class="st2" cx="685.9" cy="-1054.7" r="10"/>
		<circle id="XMLID_1335_" class="st2" cx="706" cy="-1106.2" r="10"/>
		<circle id="XMLID_1334_" class="st2" cx="379.5" cy="-1609.4" r="10"/>
		<circle id="XMLID_1333_" class="st2" cx="629.9" cy="-1609.4" r="10"/>
		<circle id="XMLID_1332_" class="st2" cx="754.7" cy="-1780.3" r="10"/>
		<circle id="XMLID_1331_" class="st2" cx="1466.5" cy="-1755.4" r="10"/>
		<circle id="XMLID_1330_" class="st2" cx="1376.7" cy="-1719.5" r="10"/>
		<circle id="XMLID_1329_" class="st2" cx="1386.7" cy="-1553.7" r="10"/>
		<circle id="XMLID_1328_" class="st2" cx="1886.3" cy="-777.8" r="10"/>
		<circle id="XMLID_1327_" class="st2" cx="1763.4" cy="-861.3" r="10"/>
		<circle id="XMLID_1326_" class="st2" cx="1980.4" cy="-1001.2" r="10"/>
		<circle id="XMLID_1325_" class="st2" cx="2022.9" cy="-966" r="10"/>
		<circle id="XMLID_1324_" class="st2" cx="1280.3" cy="-1440.2" r="10"/>
		<circle id="XMLID_1323_" class="st2" cx="254.7" cy="-1780.3" r="10"/>
		<circle id="XMLID_1322_" class="st2" cx="706" cy="-1544.4" r="10"/>
		<circle id="XMLID_1321_" class="st2" cx="915.3" cy="-1663.2" r="10"/>
		<line id="XMLID_1320_" class="st2" x1="313.4" y1="-1564" x2="306.5" y2="-1501.5"/>
		<line id="XMLID_1319_" class="st2" x1="389.5" y1="-1609.4" x2="483.9" y2="-1609.4"/>
		<line id="XMLID_1318_" class="st2" x1="517.9" y1="-1609.4" x2="619.9" y2="-1609.4"/>
		<line id="XMLID_1317_" class="st2" x1="706" y1="-1419" x2="706" y2="-1534.3"/>
		<line id="XMLID_1316_" class="st2" x1="264.7" y1="-1780.3" x2="474.4" y2="-1780.3"/>
		<line id="XMLID_1315_" class="st2" x1="508.3" y1="-1780.3" x2="744.6" y2="-1780.3"/>
		<line id="XMLID_1314_" class="st2" x1="915.3" y1="-1653.2" x2="915.3" y2="-1456"/>
		<line id="XMLID_1313_" class="st2" x1="615" y1="-796.9" x2="655.4" y2="-851.6"/>
		<line id="XMLID_1312_" class="st2" x1="282" y1="-752.8" x2="358.2" y2="-752.8"/>
		<line id="XMLID_1311_" class="st2" x1="392.1" y1="-752.8" x2="524" y2="-752.8"/>
		<line id="XMLID_1310_" class="st2" x1="139.4" y1="-1319.6" x2="184.8" y2="-1367.4"/>
		<line id="XMLID_1309_" class="st2" x1="69.9" y1="-1246.4" x2="116" y2="-1295"/>
		<line id="XMLID_1308_" class="st2" x1="30" y1="-1090.3" x2="30" y2="-1154"/>
		<line id="XMLID_1307_" class="st2" x1="30" y1="-993" x2="30" y2="-1056.7"/>
		<line id="XMLID_1306_" class="st2" x1="297.3" y1="-1402" x2="400.9" y2="-1402"/>
		<line id="XMLID_1305_" class="st2" x1="324.4" y1="-1248.3" x2="439.4" y2="-1248.3"/>
		<line id="XMLID_1304_" class="st2" x1="248.9" y1="-1182.5" x2="248.9" y2="-1104.9"/>
		<line id="XMLID_1303_" class="st2" x1="248.9" y1="-1070.9" x2="248.9" y2="-993.3"/>
		<line id="XMLID_1302_" class="st2" x1="331.9" y1="-929.5" x2="430.2" y2="-929.5"/>
		<line id="XMLID_1301_" class="st2" x1="463.3" y1="-929.5" x2="510.1" y2="-929.5"/>
		<line id="XMLID_1300_" class="st2" x1="706" y1="-1116.2" x2="706" y2="-1154.9"/>
		<line id="XMLID_1299_" class="st2" x1="1370.4" y1="-1711.7" x2="1328.7" y2="-1656"/>
		<line id="XMLID_1298_" class="st2" x1="1397.7" y1="-1553.7" x2="1568.7" y2="-1553.7"/>
		<line id="XMLID_1297_" class="st2" x1="1280.3" y1="-1251.9" x2="1280.3" y2="-1430.2"/>
		<line id="XMLID_1296_" class="st2" x1="1980.4" y1="-1078" x2="1980.4" y2="-1011.3"/>
		<line id="XMLID_1295_" class="st2" x1="2113.3" y1="-966" x2="2033" y2="-966"/>
		<line id="XMLID_1294_" class="st2" x1="2102.6" y1="-777.8" x2="1896.4" y2="-777.8"/>
		<line id="XMLID_1293_" class="st2" x1="1763.4" y1="-1049.1" x2="1763.4" y2="-871.1"/>
		<line id="XMLID_1292_" class="st2" x1="588.3" y1="-958.5" x2="616" y2="-985.8"/>
		<line id="XMLID_1291_" class="st2" x1="641.4" y1="-1010.8" x2="678.8" y2="-1047.6"/>
		<line id="XMLID_1290_" class="st2" x1="137" y1="-831.6" x2="180.2" y2="-789.2"/>
		<line id="XMLID_1289_" class="st2" x1="67.8" y1="-901.3" x2="113" y2="-856.3"/>
		<circle id="XMLID_1288_" class="st2" cx="2749.2" cy="-937.2" r="17"/>
		<circle id="XMLID_1287_" class="st2" cx="2749.2" cy="-752.8" r="17"/>
		<circle id="XMLID_1286_" class="st2" cx="2749.2" cy="-1780.3" r="17"/>
		<circle id="XMLID_1285_" class="st2" cx="2749.2" cy="-1596" r="17"/>
		<circle id="XMLID_1284_" class="st2" cx="2286.9" cy="-1001.2" r="10"/>
		<circle id="XMLID_1283_" class="st2" cx="2482.1" cy="-799.9" r="10"/>
		<circle id="XMLID_1282_" class="st2" cx="2589" cy="-752.8" r="10"/>
		<circle id="XMLID_1281_" class="st2" cx="2561.7" cy="-937.2" r="10"/>
		<circle id="XMLID_1280_" class="st2" cx="2472.1" cy="-1075.3" r="10"/>
		<circle id="XMLID_1279_" class="st2" cx="2255.6" cy="-1112.8" r="10"/>
		<circle id="XMLID_1278_" class="st2" cx="2472.6" cy="-1457.9" r="10"/>
		<circle id="XMLID_1277_" class="st2" cx="2255.6" cy="-1420.4" r="10"/>
		<circle id="XMLID_1276_" class="st2" cx="2285.2" cy="-1529.4" r="10"/>
		<circle id="XMLID_1275_" class="st2" cx="2480.5" cy="-1730.8" r="10"/>
		<circle id="XMLID_1274_" class="st2" cx="2561.7" cy="-1596" r="10"/>
		<circle id="XMLID_1273_" class="st2" cx="2589" cy="-1780.3" r="10"/>
		<line id="XMLID_1272_" class="st2" x1="2571.7" y1="-1596" x2="2732.2" y2="-1596"/>
		<line id="XMLID_1271_" class="st2" x1="2571.7" y1="-937.2" x2="2732.2" y2="-937.2"/>
		<line id="XMLID_1270_" class="st2" x1="2599" y1="-1780.3" x2="2732.2" y2="-1780.3"/>
		<line id="XMLID_1269_" class="st2" x1="2599" y1="-752.8" x2="2732.2" y2="-752.8"/>
		<line id="XMLID_1268_" class="st2" x1="2255.6" y1="-1410.4" x2="2255.6" y2="-1283.6"/>
		<line id="XMLID_1267_" class="st2" x1="2255.6" y1="-1249.6" x2="2255.6" y2="-1122.8"/>
		<line id="XMLID_1266_" class="st2" x1="2472.6" y1="-1447.8" x2="2472.6" y2="-1283.2"/>
		<line id="XMLID_1265_" class="st2" x1="2472.6" y1="-1249.6" x2="2472.6" y2="-1085"/>
		<circle id="XMLID_1264_" class="st2" cx="2472.6" cy="-1266.6" r="17"/>
		<circle id="XMLID_1263_" class="st2" cx="2255.6" cy="-1266.6" r="17"/>
		<circle id="XMLID_1262_" class="st2" cx="2389.7" cy="-894" r="17"/>
		<circle id="XMLID_1261_" class="st2" cx="2387.2" cy="-1633.6" r="17"/>
		<line id="XMLID_1260_" class="st2" x1="2472.6" y1="-1722.7" x2="2398.5" y2="-1646.3"/>
		<line id="XMLID_1259_" class="st2" x1="2375.1" y1="-1621.8" x2="2292.2" y2="-1536.6"/>
		<line id="XMLID_1258_" class="st2" x1="2293.4" y1="-993.6" x2="2378.5" y2="-906.8"/>
		<line id="XMLID_1257_" class="st2" x1="2402.1" y1="-882.4" x2="2475.1" y2="-807.1"/>
		<circle id="XMLID_1256_" class="st2" cx="3211.5" cy="-1001.2" r="10"/>
		<circle id="XMLID_1255_" class="st2" cx="3016.3" cy="-799.9" r="10"/>
		<circle id="XMLID_1254_" class="st2" cx="2909.5" cy="-752.8" r="10"/>
		<circle id="XMLID_1253_" class="st2" cx="2936.7" cy="-937.2" r="10"/>
		<circle id="XMLID_1252_" class="st2" cx="3026.3" cy="-1075.3" r="10"/>
		<circle id="XMLID_1251_" class="st2" cx="3242.8" cy="-1112.8" r="10"/>
		<circle id="XMLID_1250_" class="st2" cx="3025.8" cy="-1457.9" r="10"/>
		<circle id="XMLID_1249_" class="st2" cx="3242.8" cy="-1420.4" r="10"/>
		<circle id="XMLID_1248_" class="st2" cx="3213.2" cy="-1529.4" r="10"/>
		<circle id="XMLID_1247_" class="st2" cx="3018" cy="-1730.8" r="10"/>
		<circle id="XMLID_1246_" class="st2" cx="2936.7" cy="-1596" r="10"/>
		<circle id="XMLID_1245_" class="st2" cx="2909.5" cy="-1780.3" r="10"/>
		<line id="XMLID_1244_" class="st2" x1="2926.7" y1="-1596" x2="2766.2" y2="-1596"/>
		<line id="XMLID_1243_" class="st2" x1="2926.7" y1="-937.2" x2="2766.2" y2="-937.2"/>
		<line id="XMLID_1242_" class="st2" x1="2899.4" y1="-1780.3" x2="2766.2" y2="-1780.3"/>
		<line id="XMLID_1241_" class="st2" x1="2899.4" y1="-752.8" x2="2766.2" y2="-752.8"/>
		<line id="XMLID_1240_" class="st2" x1="3242.8" y1="-1410.4" x2="3242.8" y2="-1283.6"/>
		<line id="XMLID_1239_" class="st2" x1="3242.8" y1="-1249.6" x2="3242.8" y2="-1122.8"/>
		<line id="XMLID_1238_" class="st2" x1="3025.8" y1="-1447.8" x2="3025.8" y2="-1283.2"/>
		<line id="XMLID_1237_" class="st2" x1="3025.8" y1="-1249.6" x2="3025.8" y2="-1085"/>
		<circle id="XMLID_1236_" class="st2" cx="3025.8" cy="-1266.6" r="17"/>
		<circle id="XMLID_1235_" class="st2" cx="3242.8" cy="-1266.6" r="17"/>
		<circle id="XMLID_1234_" class="st2" cx="3108.7" cy="-894" r="17"/>
		<circle id="XMLID_1233_" class="st2" cx="3111.2" cy="-1633.6" r="17"/>
		<line id="XMLID_1232_" class="st2" x1="3025.8" y1="-1722.7" x2="3099.9" y2="-1646.3"/>
		<line id="XMLID_1231_" class="st2" x1="3123.4" y1="-1621.8" x2="3206.2" y2="-1536.6"/>
		<line id="XMLID_1230_" class="st2" x1="3205" y1="-993.6" x2="3119.9" y2="-906.8"/>
		<line id="XMLID_1229_" class="st2" x1="3096.3" y1="-882.4" x2="3023.3" y2="-807.1"/>
		<line id="XMLID_1228_" class="st2" x1="3297.9" y1="-883.8" x2="3280.4" y2="-1056.6"/>
		<line id="XMLID_1227_" class="st2" x1="3510.8" y1="-989.3" x2="3498.4" y2="-1056.6"/>
		<line id="XMLID_1226_" class="st2" x1="3728.1" y1="-752.8" x2="3855.7" y2="-752.8"/>
		<line id="XMLID_1225_" class="st2" x1="3457.6" y1="-752.8" x2="3694.4" y2="-752.8"/>
		<line id="XMLID_1224_" class="st2" x1="3736.1" y1="-933.4" x2="3855.7" y2="-933.4"/>
		<line id="XMLID_1223_" class="st2" x1="3597.5" y1="-933.4" x2="3703.7" y2="-933.4"/>
		<line id="XMLID_1222_" class="st2" x1="4144.5" y1="-1086.8" x2="4144.5" y2="-1228.8"/>
		<line id="XMLID_1221_" class="st2" x1="4144.5" y1="-989.5" x2="4144.5" y2="-1053.4"/>
		<line id="XMLID_1220_" class="st2" x1="3927.5" y1="-1125" x2="3927.5" y2="-1070.6"/>
		<line id="XMLID_1219_" class="st2" x1="3927.5" y1="-1036.7" x2="3927.5" y2="-980.9"/>
		<line id="XMLID_1218_" class="st2" x1="3871.5" y1="-1171.3" x2="3423" y2="-1251"/>
		<line id="XMLID_1217_" class="st2" x1="3314.4" y1="-1648.2" x2="3314.4" y2="-1499.9"/>
		<line id="XMLID_1216_" class="st2" x1="3314.4" y1="-1466" x2="3314.4" y2="-1330.7"/>
		<line id="XMLID_1215_" class="st2" x1="4034.6" y1="-1338.3" x2="3581.5" y2="-1413.3"/>
		<line id="XMLID_1214_" class="st2" x1="3531.8" y1="-1555.4" x2="3531.8" y2="-1515.3"/>
		<line id="XMLID_1213_" class="st2" x1="3531.8" y1="-1480.8" x2="3531.8" y2="-1444.8"/>
		<line id="XMLID_1212_" class="st2" x1="3726.6" y1="-1599.8" x2="3817.1" y2="-1599.8"/>
		<line id="XMLID_1211_" class="st2" x1="3602.4" y1="-1599.8" x2="3692.9" y2="-1599.8"/>
		<line id="XMLID_1210_" class="st2" x1="3890.6" y1="-1555.3" x2="3898.7" y2="-1511"/>
		<line id="XMLID_1209_" class="st2" x1="3948.6" y1="-1780.3" x2="3448.6" y2="-1780.3"/>
		<circle id="XMLID_1208_" class="st2" cx="3278.3" cy="-1073.6" r="17"/>
		<circle id="XMLID_1207_" class="st2" cx="3495.3" cy="-1073.6" r="17"/>
		<circle id="XMLID_1206_" class="st2" cx="3720.7" cy="-933.4" r="17"/>
		<circle id="XMLID_1205_" class="st2" cx="3711.4" cy="-752.8" r="17"/>
		<circle id="XMLID_1204_" class="st2" cx="4144.5" cy="-1070.3" r="17"/>
		<circle id="XMLID_1203_" class="st2" cx="3927.5" cy="-1053.6" r="17"/>
		<circle id="XMLID_1202_" class="st2" cx="3767.2" cy="-1189.7" r="17"/>
		<circle id="XMLID_1201_" class="st2" cx="3562.9" cy="-1226.6" r="17"/>
		<circle id="XMLID_1200_" class="st2" cx="3654.8" cy="-1400.7" r="17"/>
		<circle id="XMLID_1199_" class="st2" cx="3531.8" cy="-1497.8" r="17"/>
		<circle id="XMLID_1198_" class="st2" cx="3709.6" cy="-1599.8" r="17"/>
		<circle id="XMLID_1197_" class="st2" cx="3900.6" cy="-1494.2" r="17"/>
		<circle id="XMLID_1196_" class="st2" cx="4117.6" cy="-1494.2" r="17"/>
		<circle id="XMLID_1195_" class="st2" cx="3715.6" cy="-1780.3" r="17"/>
		<circle id="XMLID_1194_" class="st2" cx="3314.4" cy="-1483" r="17"/>
		<circle id="XMLID_1193_" class="st2" cx="3841.1" cy="-1370.1" r="17"/>
		<circle id="XMLID_1192_" class="st2" cx="3299.4" cy="-873.8" r="10"/>
		<circle id="XMLID_1191_" class="st2" cx="3512.6" cy="-979.5" r="10"/>
		<circle id="XMLID_1190_" class="st2" cx="3587.5" cy="-933.4" r="10"/>
		<circle id="XMLID_1189_" class="st2" cx="3449.2" cy="-752.8" r="10"/>
		<circle id="XMLID_1188_" class="st2" cx="3865.7" cy="-752.8" r="10"/>
		<circle id="XMLID_1187_" class="st2" cx="4144.5" cy="-979.5" r="10"/>
		<circle id="XMLID_1186_" class="st2" cx="4144.5" cy="-1238.8" r="10"/>
		<circle id="XMLID_1185_" class="st2" cx="4044.6" cy="-1336.7" r="10"/>
		<circle id="XMLID_1184_" class="st2" cx="3865.7" cy="-933.4" r="10"/>
		<circle id="XMLID_1183_" class="st2" cx="3927.5" cy="-970.9" r="10"/>
		<circle id="XMLID_1182_" class="st2" cx="3927.5" cy="-1135" r="10"/>
		<circle id="XMLID_1181_" class="st2" cx="3881.4" cy="-1169.6" r="10"/>
		<circle id="XMLID_1180_" class="st2" cx="3413.1" cy="-1252.7" r="10"/>
		<circle id="XMLID_1179_" class="st2" cx="3314.4" cy="-1322.7" r="10"/>
		<circle id="XMLID_1178_" class="st2" cx="3571.6" cy="-1415" r="10"/>
		<circle id="XMLID_1177_" class="st2" cx="3531.8" cy="-1434.8" r="10"/>
		<circle id="XMLID_1176_" class="st2" cx="3531.8" cy="-1565.2" r="10"/>
		<circle id="XMLID_1175_" class="st2" cx="3314.4" cy="-1659.6" r="10"/>
		<circle id="XMLID_1174_" class="st2" cx="3591.3" cy="-1599.8" r="10"/>
		<circle id="XMLID_1173_" class="st2" cx="3827.1" cy="-1599.8" r="10"/>
		<circle id="XMLID_1172_" class="st2" cx="3948.6" cy="-1780.3" r="10"/>
		<circle id="XMLID_1171_" class="st2" cx="4097.7" cy="-1671.4" r="10"/>
		<circle id="XMLID_1170_" class="st2" cx="3889" cy="-1565.2" r="10"/>
		<circle id="XMLID_1169_" class="st2" cx="3448.6" cy="-1780.3" r="10"/>
		<line id="XMLID_1168_" class="st2" x1="4098.8" y1="-1661.4" x2="4115.7" y2="-1511"/>
		<circle id="XMLID_1167_" class="st2" cx="4031.2" cy="-839.9" r="17"/>
		<circle id="XMLID_1166_" class="st2" cx="3960.1" cy="-783.6" r="10"/>
		<circle id="XMLID_1165_" class="st2" cx="4113.1" cy="-906.8" r="10"/>
		<line id="XMLID_1164_" class="st2" x1="4044.1" y1="-850.9" x2="4105.3" y2="-900.5"/>
		<line id="XMLID_1163_" class="st2" x1="3968.1" y1="-789.6" x2="4017.2" y2="-830.2"/>
	</g>
	<g id="XMLID_14_">
		<g id="XMLID_1159_">
			
				<text id="XMLID_650_" transform="matrix(1 0 0 1 456.7134 -1808.1953)" style="fill:#101010; font-family:'Formular'; font-size:16.9724px;">565.695</text>
		</g>
		<g id="XMLID_1156_">
			
				<text id="XMLID_648_" transform="matrix(1 0 0 1 63.3037 -1439.4312)" style="fill:#101010; font-family:'Formular'; font-size:16.9724px;">305.22</text>
		</g>
		<g id="XMLID_1146_">
			
				<text id="XMLID_646_" transform="matrix(1 0 0 1 303.0117 -1444.8325)" style="fill:#101010; font-family:'Formular'; font-size:16.9724px;">444.551 </text>
		</g>
		<g id="XMLID_1143_">
			
				<text id="XMLID_644_" transform="matrix(1 0 0 1 419.8105 -1431.7158)" style="fill:#101010; font-family:'Formular'; font-size:16.9724px;">518.106</text>
		</g>
		<g id="XMLID_1023_">
			
				<text id="XMLID_642_" transform="matrix(1 0 0 1 619.9258 -1424.7729)" style="fill:#101010; font-family:'Formular'; font-size:16.9724px;">704.822</text>
		</g>
		<g id="XMLID_1020_">
			
				<text id="XMLID_640_" transform="matrix(1 0 0 1 469.52 -1636.1553)" style="fill:#101010; font-family:'Formular'; font-size:16.9724px;">571.883</text>
		</g>
		<g id="XMLID_1017_">
			
				<text id="XMLID_635_" transform="matrix(1 0 0 1 213.1538 -1419.8877)" style="fill:#101010; font-family:'Formular'; font-size:16.9724px;">433.466</text>
		</g>
		<g id="XMLID_1014_">
			
				<text id="XMLID_286_" transform="matrix(1 0 0 1 945.6138 -1431.7158)" style="fill:#101010; font-family:'Formular'; font-size:16.9724px;">840.5 </text>
		</g>
		<g id="XMLID_1011_">
			
				<text id="XMLID_258_" transform="matrix(1 0 0 1 1030.936 -1790.3687)" style="fill:#101010; font-family:'Formular'; font-size:16.9724px;">936.344</text>
		</g>
		<g id="XMLID_1008_">
			
				<text id="XMLID_256_" transform="matrix(1 0 0 1 1237.3203 -1790.3687)" style="fill:#101010; font-family:'Formular'; font-size:16.9724px;">1072.501</text>
		</g>
		<g id="XMLID_1005_">
			
				<text id="XMLID_254_" transform="matrix(1 0 0 1 1184.085 -1663.1841)" style="fill:#101010; font-family:'Formular'; font-size:16.9724px;">1072.501</text>
		</g>
		<g id="XMLID_1002_">
			
				<text id="XMLID_252_" transform="matrix(1 0 0 1 1313.5908 -1231.3618)" style="fill:#101010; font-family:'Formular'; font-size:16.9724px;">1077.001</text>
		</g>
		<g id="XMLID_999_">
			
				<text id="XMLID_250_" transform="matrix(1 0 0 1 1244.3018 -732.7603)" style="fill:#101010; font-family:'Formular'; font-size:16.9724px;">1077.001</text>
		</g>
		<g id="XMLID_996_">
			
				<text id="XMLID_248_" transform="matrix(1 0 0 1 1030.936 -732.7603)" style="fill:#101010; font-family:'Formular'; font-size:16.9724px;">936.344</text>
		</g>
		<g id="XMLID_993_">
			
				<text id="XMLID_246_" transform="matrix(1 0 0 1 1347.5996 -1634.6138)" style="fill:#101010; font-family:'Formular'; font-size:16.9724px;">1102.368</text>
		</g>
		<g id="XMLID_990_">
			
				<text id="XMLID_244_" transform="matrix(1 0 0 1 1551.2798 -1790.3677)" style="fill:#101010; font-family:'Formular'; font-size:16.9724px;">1282.918</text>
		</g>
		<g id="XMLID_987_">
			
				<text id="XMLID_242_" transform="matrix(1 0 0 1 1649.7397 -1790.3687)" style="fill:#101010; font-family:'Formular'; font-size:16.9724px;">1332.175</text>
		</g>
		<g id="XMLID_984_">
			
				<text id="XMLID_240_" transform="matrix(1 0 0 1 1727.376 -2037.2388)" style="fill:#101010; font-family:'Formular'; font-size:16.9724px;">1390.142</text>
		</g>
		<g id="XMLID_981_">
			
				<text id="XMLID_238_" transform="matrix(1 0 0 1 1657.9443 -1062.8696)" style="fill:#101010; font-family:'Formular'; font-size:16.9724px;">1390.142</text>
		</g>
		<g id="XMLID_978_">
			
				<text id="XMLID_236_" transform="matrix(1 0 0 1 1945.834 -2037.2388)" style="fill:#101010; font-family:'Formular'; font-size:16.9724px;">1531.145</text>
		</g>
		<g id="XMLID_975_">
			
				<text id="XMLID_234_" transform="matrix(1 0 0 1 1999.0645 -1780.3398)" style="fill:#101010; font-family:'Formular'; font-size:16.9724px;">1531.145</text>
		</g>
		<g id="XMLID_972_">
			
				<text id="XMLID_232_" transform="matrix(1 0 0 1 2004.4697 -1539.4644)" style="fill:#101010; font-family:'Formular'; font-size:16.9724px;">1531.145</text>
		</g>
		<g id="XMLID_969_">
			
				<text id="XMLID_230_" transform="matrix(1 0 0 1 2011.4102 -1088.9238)" style="fill:#101010; font-family:'Formular'; font-size:16.9724px;">1531.145</text>
		</g>
		<g id="XMLID_966_">
			
				<text id="XMLID_228_" transform="matrix(1 0 0 1 2229.8877 -1591.9268)" style="fill:#101010; font-family:'Formular'; font-size:16.9724px;">1680.173</text>
		</g>
		<g id="XMLID_963_">
			
				<text id="XMLID_226_" transform="matrix(1 0 0 1 2289.8018 -1646.2778)" style="fill:#101010; font-family:'Formular'; font-size:16.9724px;">1794.454</text>
		</g>
		<g id="XMLID_960_">
			
				<text id="XMLID_207_" transform="matrix(1 0 0 1 2711.6338 -1813.687)" style="fill:#101010; font-family:'Formular'; font-size:16.9724px;">2029.036</text>
		</g>
		<g id="XMLID_957_">
			
				<text id="XMLID_205_" transform="matrix(1 0 0 1 2711.6338 -1553.7124)" style="fill:#101010; font-family:'Formular'; font-size:16.9724px;">2029.036</text>
		</g>
		<g id="XMLID_954_">
			
				<text id="XMLID_175_" transform="matrix(1 0 0 1 3141.3037 -1642.4307)" style="fill:#101010; font-family:'Formular'; font-size:16.9724px;">2263.631</text>
		</g>
		<g id="XMLID_951_">
			
				<text id="XMLID_173_" transform="matrix(1 0 0 1 3271.8281 -1262.7646)" style="fill:#101010; font-family:'Formular'; font-size:16.9724px;">2348.951</text>
		</g>
		<g id="XMLID_948_">
			
				<text id="XMLID_171_" transform="matrix(1 0 0 1 3223.5938 -1477.2329)" style="fill:#101010; font-family:'Formular'; font-size:16.9724px;">2395.33</text>
		</g>
		<g id="XMLID_945_">
			
				<text id="XMLID_169_" transform="matrix(1 0 0 1 3678.7852 -1813.686)" style="fill:#101010; font-family:'Formular'; font-size:16.9724px;">2655.357</text>
		</g>
		<g id="XMLID_942_">
			
				<text id="XMLID_167_" transform="matrix(1 0 0 1 3561.0801 -1492.7134)" style="fill:#101010; font-family:'Formular'; font-size:16.9724px;">2536.258</text>
		</g>
		<g id="XMLID_939_">
			
				<text id="XMLID_165_" transform="matrix(1 0 0 1 3618.3008 -1431.7158)" style="fill:#101010; font-family:'Formular'; font-size:16.9724px;">2615.962</text>
		</g>
		<g id="XMLID_936_">
			
				<text id="XMLID_163_" transform="matrix(1 0 0 1 3675.3818 -1555.4126)" style="fill:#101010; font-family:'Formular'; font-size:16.9724px;">2651.514</text>
		</g>
		<g id="XMLID_933_">
			
				<text id="XMLID_161_" transform="matrix(1 0 0 1 3804.9209 -1404.938)" style="fill:#101010; font-family:'Formular'; font-size:16.9724px;">2736.681</text>
		</g>
		<g id="XMLID_930_">
			
				<text id="XMLID_159_" transform="matrix(1 0 0 1 3864.8252 -1447.834)" style="fill:#101010; font-family:'Formular'; font-size:16.9724px;">2775.251</text>
		</g>
		<g id="XMLID_927_">
			
				<text id="XMLID_157_" transform="matrix(1 0 0 1 4082.2588 -1447.834)" style="fill:#101010; font-family:'Formular'; font-size:16.9724px;">2915.905</text>
		</g>
		<g id="XMLID_924_">
			
				<text id="XMLID_141_" transform="matrix(1 0 0 1 3525.6133 -1179.6221)" style="fill:#101010; font-family:'Formular'; font-size:16.9724px;">2556.435</text>
		</g>
		<g id="XMLID_921_">
			
				<text id="XMLID_139_" transform="matrix(1 0 0 1 3458.5547 -1105.5591)" style="fill:#101010; font-family:'Formular'; font-size:16.9724px;">2512.606</text>
		</g>
		<g id="XMLID_918_">
			
				<text id="XMLID_110_" transform="matrix(1 0 0 1 3284.8242 -1102.7466)" style="fill:#101010; font-family:'Formular'; font-size:16.9724px;">2371.946</text>
		</g>
		<g id="XMLID_915_">
			
				<text id="XMLID_108_" transform="matrix(1 0 0 1 3679.0146 -708.0728)" style="fill:#101010; font-family:'Formular'; font-size:16.9724px;">2652.64</text>
		</g>
		<g id="XMLID_912_">
			
				<text id="XMLID_106_" transform="matrix(1 0 0 1 4055.0781 -806.8213)" style="fill:#101010; font-family:'Formular'; font-size:16.9724px;">2859.912</text>
		</g>
		<g id="XMLID_909_">
			
				<text id="XMLID_104_" transform="matrix(1 0 0 1 4174.2227 -1066.0352)" style="fill:#101010; font-family:'Formular'; font-size:16.9724px;">2933.333</text>
		</g>
		<g id="XMLID_906_">
			
				<text id="XMLID_102_" transform="matrix(1 0 0 1 3729.8525 -1141.9619)" style="fill:#101010; font-family:'Formular'; font-size:16.9724px;">2688.833</text>
		</g>
		<g id="XMLID_903_">
			
				<text id="XMLID_100_" transform="matrix(1 0 0 1 3830.6875 -1047.8418)" style="fill:#101010; font-family:'Formular'; font-size:16.9724px;">2792.68</text>
		</g>
		<g id="XMLID_900_">
			
				<text id="XMLID_98_" transform="matrix(1 0 0 1 3683.8164 -964.5234)" style="fill:#101010; font-family:'Formular'; font-size:16.9724px;">2658.681</text>
		</g>
		<g id="XMLID_895_">
			
				<text id="XMLID_96_" transform="matrix(1 0 0 1 2711.626 -972.0195)" style="fill:#101010; font-family:'Formular'; font-size:16.9724px;">2029.036</text>
		</g>
		<g id="XMLID_891_">
			
				<text id="XMLID_94_" transform="matrix(1 0 0 1 2711.626 -708.0728)" style="fill:#101010; font-family:'Formular'; font-size:16.9724px;">2029.036</text>
		</g>
		<g id="XMLID_886_">
			
				<text id="XMLID_92_" transform="matrix(1 0 0 1 2307.2183 -855.4229)" style="fill:#101010; font-family:'Formular'; font-size:16.9724px;">1796.057</text>
		</g>
		<g id="XMLID_882_">
			
				<text id="XMLID_90_" transform="matrix(1 0 0 1 2153.354 -1261.9902)" style="fill:#101010; font-family:'Formular'; font-size:16.9724px;">1709.134</text>
		</g>
		<g id="XMLID_877_">
			
				<text id="XMLID_88_" transform="matrix(1 0 0 1 2503.376 -1261.9902)" style="fill:#101010; font-family:'Formular'; font-size:16.9724px;">1849.794</text>
		</g>
		<g id="XMLID_873_">
			
				<text id="XMLID_86_" transform="matrix(1 0 0 1 2926.5117 -1261.9902)" style="fill:#101010; font-family:'Formular'; font-size:16.9724px;">2208.29</text>
		</g>
		<g id="XMLID_868_">
			
				<text id="XMLID_84_" transform="matrix(1 0 0 1 3125.5195 -859.2822)" style="fill:#101010; font-family:'Formular'; font-size:16.9724px;">2262.027</text>
		</g>
		<g id="XMLID_864_">
			
				<text id="XMLID_82_" transform="matrix(1 0 0 1 2180.5127 -1001.2339)" style="fill:#101010; font-family:'Formular'; font-size:16.9724px;">1680.173</text>
		</g>
		<g id="XMLID_859_">
			
				<text id="XMLID_80_" transform="matrix(1 0 0 1 2175.1758 -732.7603)" style="fill:#101010; font-family:'Formular'; font-size:16.9724px;">1680.173</text>
		</g>
		<g id="XMLID_855_">
			
				<text id="XMLID_78_" transform="matrix(1 0 0 1 2083.2627 -1001.2339)" style="fill:#101010; font-family:'Formular'; font-size:16.9724px;">1627.895</text>
		</g>
		<g id="XMLID_850_">
			
				<text id="XMLID_76_" transform="matrix(1 0 0 1 2101.0918 -732.7603)" style="fill:#101010; font-family:'Formular'; font-size:16.9724px;">1621</text>
		</g>
		<g id="XMLID_846_">
			
				<text id="XMLID_74_" transform="matrix(1 0 0 1 2226.0342 -1780.3398)" style="fill:#101010; font-family:'Formular'; font-size:16.9724px;">1680.173</text>
		</g>
		<g id="XMLID_841_">
			
				<text id="XMLID_72_" transform="matrix(1 0 0 1 1638.9409 -1508.7798)" style="fill:#101010; font-family:'Formular'; font-size:16.9724px;">1332.175</text>
		</g>
		<g id="XMLID_837_">
			
				<text id="XMLID_70_" transform="matrix(1 0 0 1 1540.2549 -1508.7798)" style="fill:#101010; font-family:'Formular'; font-size:16.9724px;">1274.918</text>
		</g>
		<g id="XMLID_832_">
			
				<text id="XMLID_68_" transform="matrix(1 0 0 1 890.0649 -732.7603)" style="fill:#101010; font-family:'Formular'; font-size:16.9724px;">840.5 </text>
		</g>
		<g id="XMLID_828_">
			
				<text id="XMLID_66_" transform="matrix(1 0 0 1 685.8032 -732.7603)" style="fill:#101010; font-family:'Formular'; font-size:16.9724px;">709.49</text>
		</g>
		<g id="XMLID_798_">
			
				<text id="XMLID_64_" transform="matrix(1 0 0 1 342.6689 -708.0737)" style="fill:#101010; font-family:'Formular'; font-size:16.9724px;">490.401</text>
		</g>
		<g id="XMLID_795_">
			
				<text id="XMLID_62_" transform="matrix(1 0 0 1 56.9482 -806.8223)" style="fill:#101010; font-family:'Formular'; font-size:16.9724px;">328.49</text>
		</g>
		<g id="XMLID_792_">
			
				<text id="XMLID_60_" transform="matrix(1 0 0 1 414.7373 -958.5039)" style="fill:#101010; font-family:'Formular'; font-size:16.9724px;">537.048</text>
		</g>
		<g id="XMLID_789_">
			
				<text id="XMLID_58_" transform="matrix(1 0 0 1 278.7148 -1080.396)" style="fill:#101010; font-family:'Formular'; font-size:16.9724px;">408.568</text>
		</g>
		<g id="XMLID_786_">
			
				<text id="XMLID_56_" transform="matrix(1 0 0 1 -65.6753 -1069.3804)" style="fill:#101010; font-family:'Formular'; font-size:16.9724px;">266.667</text>
		</g>
		<g id="XMLID_781_">
			
				<text id="XMLID_54_" transform="matrix(1 0 0 1 40.6372 -1324.7422)" style="fill:#101010; font-family:'Formular'; font-size:16.9724px;">329.705</text>
		</g>
		<g id="XMLID_778_">
			
				<text id="XMLID_52_" transform="matrix(1 0 0 1 423.5469 -1202.5889)" style="fill:#101010; font-family:'Formular'; font-size:16.9724px;">543.005</text>
		</g>
		<g id="XMLID_775_">
			
				<text id="XMLID_50_" transform="matrix(1 0 0 1 615.1299 -1222.646)" style="fill:#101010; font-family:'Formular'; font-size:16.9724px;">704.822</text>
		</g>
		<g id="XMLID_267_">
			
				<text id="XMLID_634_" transform="matrix(1 0 0 1 608.9863 -1164.0151)" style="fill:#101010; font-family:'Formular'; font-size:16.9724px;">704.822</text>
		</g>
		<g id="XMLID_23_">
			
				<text id="XMLID_637_" transform="matrix(1 0 0 1 579.9229 -1020.521)" style="fill:#101010; font-family:'Formular'; font-size:16.9724px;">655</text>
		</g>
		<g id="XMLID_20_">
			
				<text id="XMLID_653_" transform="matrix(1 0 0 1 698.6616 -901.3052)" style="fill:#101010; font-family:'Formular'; font-size:16.9724px;">709.49</text>
		</g>
		<g id="XMLID_15_">
			
				<text id="XMLID_655_" transform="matrix(1 0 0 1 618.4409 -901.3052)" style="fill:#101010; font-family:'Formular'; font-size:16.9724px;">679.927 </text>
		</g>
	</g>
</g>
<g id="XMLID_741_">
	<g id="XMLID_762_">
		<line id="XMLID_1557_" class="st3" x1="-74" y1="80.5" x2="1276" y2="80.5"/>
		<line id="XMLID_1556_" class="st3" x1="-74" y1="200.3" x2="1276" y2="200.3"/>
		<line id="XMLID_1555_" class="st3" x1="-74" y1="368" x2="1276" y2="368"/>
		<line id="XMLID_1554_" class="st3" x1="-74" y1="487.2" x2="1276" y2="487.2"/>
		<line id="XMLID_1553_" class="st3" x1="-74" y1="663.5" x2="1276" y2="663.5"/>
		<line id="XMLID_1552_" class="st3" x1="-74" y1="782.3" x2="1276" y2="782.3"/>
	</g>
	<g id="XMLID_1461_">
		<g>
			<path id="XMLID_158_" class="st4" d="M15.6,199.8v-11H10c-7.2,9.3-18.9,14-35,14c-13.1,0-23.3-3.7-31-11.2
				c-7.7-7.7-11.4-16.8-11.4-27.8c0-10.7,4-20.1,11.7-28s19.6-11.9,35.5-11.9h35v-3.4c0-13.8-8.2-21.7-25-21.7
				c-14.7,0-22.6,5.1-23.8,15.2h-26.3c1.2-22.2,20.8-35.9,49-35.9c32,0,51.3,14.2,51.3,42.9v78.9H15.6V199.8z M5.5,172.7
				c6.1-5.8,9.1-12.8,9.1-21v-9.1h-30.3c-16.6,0-25.2,7.2-25.2,19.6c0,12.1,8.9,19.1,24,19.1C-8,181.3-0.5,178.5,5.5,172.7z"/>
			<path id="XMLID_155_" class="st4" d="M132.2,81v24.5h-10.7c-24,0-37.1,13.8-37.1,38.7v55.5H58V81h25.4v13.8H89
				c6.8-9.1,18-13.8,33.1-13.8H132.2z"/>
			<path id="XMLID_153_" class="st4" d="M169.5,81h28v22.4h-28v57.9c0,10.5,6.1,15.6,18.2,15.6h9.8v22.9h-10.3
				c-28.7,0-44.1-9.6-44.1-35V51h26.4V81z"/>
			<path id="XMLID_150_" class="st4" d="M306.5,185.5c-10.7,11.4-25.2,17.3-43.6,17.3S230,197,219,185.5
				c-10.7-11.7-16.1-26.8-16.1-45.3s5.4-33.4,16.1-44.8c11-11.7,25.4-17.5,43.9-17.5c18.4,0,32.9,5.8,43.6,17.5
				c11,11.4,16.3,26.4,16.3,44.8S317.4,173.9,306.5,185.5z M262.8,100.4c-21.7,0-33.6,17.5-33.6,39.9c0,22.6,11.9,40.1,33.6,40.1
				s33.6-17.5,33.6-40.1C296.4,117.9,284.5,100.4,262.8,100.4z"/>
			<path id="XMLID_148_" class="st4" d="M402.7,112.8c-1.4-8.6-9.1-12.8-23.3-12.8c-14.2,0-21.5,4.2-21.5,12.4
				c0,7.2,4.7,10,15.2,11.9l23.1,3.7c24,4,36.2,16.1,36.2,36.9c0,10.5-4.4,19.6-13.5,27.1c-8.9,7.2-21.2,11-37.3,11
				c-33.6,0-51.8-14.7-54.4-39h26.4c2.1,11.4,11.2,17,27.5,17c16.6,0,25-5.1,25-15.4c0-9.1-5.6-13.3-19.4-15.9l-24.7-4.2
				c-18.7-3-30.3-13.5-30.3-31.3c0-21.2,16.8-36.2,48.8-36.2c28.2,0,46.2,13.5,48.8,34.8H402.7L402.7,112.8z"/>
		</g>
	</g>
	<g id="XMLID_1444_">
		<path id="XMLID_1458_" class="st5" d="M528.4,200.3v-11.1h-5.6c-7.3,9.4-19.1,14.1-35.3,14.1c-13.2,0-23.5-3.8-31.3-11.3
			c-7.8-7.8-11.5-16.9-11.5-28c0-10.8,4-20.2,11.8-28.2s19.8-12,35.8-12h35.3v-3.5c0-13.9-8.2-21.9-25.2-21.9
			c-14.8,0-22.8,5.2-24,15.3H452c1.2-22.4,20.9-36.2,49.4-36.2c32.2,0,51.8,14.4,51.8,43.3v79.6L528.4,200.3L528.4,200.3z
			 M518.3,173c6.1-5.9,9.2-12.9,9.2-21.2v-9.2h-30.6c-16.7,0-25.4,7.3-25.4,19.8c0,12.2,8.9,19.3,24.2,19.3
			C504.7,181.7,512.2,178.9,518.3,173z"/>
		<path id="XMLID_1455_" class="st5" d="M570.6,80.5h25.7V92h5.6c7.8-9.6,19.5-14.6,35.3-14.6s28.5,5.9,37.7,17.7
			c9.4,11.8,14.1,26.8,14.1,45.2c0,18.6-4.7,33.7-14.1,45.4c-9.2,11.8-21.9,17.7-37.7,17.7c-15.5,0-27.1-4.9-34.4-14.6h-5.6v58.6
			h-26.6V80.5z M596.5,140.3c0,22.8,11.3,40.5,33.2,40.5c20.9,0,32.7-16.2,32.7-40.5c0-24.2-11.8-40.2-32.7-40.2
			C607.8,100.1,596.5,117.5,596.5,140.3z"/>
		<path id="XMLID_1453_" class="st5" d="M687.3,103.1V80.5h107.3v22.6h-40.2v97.2h-26.6v-97.2C727.8,103.1,687.3,103.1,687.3,103.1z
			"/>
		<path id="XMLID_1447_" class="st5" d="M898.7,186c-10.8,11.5-25.4,17.4-44,17.4s-33.2-5.9-44.3-17.4
			c-10.8-11.8-16.2-27.1-16.2-45.7s5.4-33.7,16.2-45.2c11.1-11.8,25.7-17.6,44.3-17.6s33.2,5.9,44,17.7
			c11.1,11.5,16.5,26.6,16.5,45.2C915.1,158.9,909.7,174.2,898.7,186z M854.7,100.1c-21.9,0-33.9,17.7-33.9,40.2
			c0,22.8,12,40.5,33.9,40.5s33.9-17.7,33.9-40.5C888.5,117.7,876.5,100.1,854.7,100.1z"/>
		<path id="XMLID_1445_" class="st5" d="M1033.4,162c-3.8,25.2-24.2,41.4-52.7,41.4c-18.4,0-33-5.9-43.5-17.4
			c-10.6-11.5-15.8-26.8-15.8-45.7c0-18.6,5.2-33.9,15.8-45.4s25.2-17.4,43.5-17.4c28.5,0,48.3,15.8,51.8,39.5h-26.4
			c-3.5-11.3-12-16.9-25.2-16.9c-22.4,0-33,16.7-33,40c0,23.8,10.6,40.7,33,40.7c14.6,0,23.3-6.4,26.1-18.8L1033.4,162L1033.4,162z"
			/>
	</g>
	<g id="XMLID_1158_">
		<g>
			<path id="XMLID_145_" class="st4" d="M15.6,487.2v-11H10c-7.2,9.3-18.9,14-35,14c-13.1,0-23.3-3.7-31-11.2
				c-7.7-7.7-11.4-16.8-11.4-27.8c0-10.7,4-20.1,11.7-28s19.6-11.9,35.5-11.9h35v-3.5c0-13.8-8.2-21.7-25-21.7
				c-14.7,0-22.6,5.1-23.8,15.2h-26.3c1.2-22.2,20.8-35.9,49-35.9c32,0,51.3,14.2,51.3,42.9v78.9H15.6z M5.5,460.2
				c6.1-5.8,9.1-12.8,9.1-21v-9.1h-30.3c-16.6,0-25.2,7.2-25.2,19.6c0,12.1,8.9,19.1,24,19.1C-8,468.8-0.5,466,5.5,460.2z"/>
			<path id="XMLID_143_" class="st4" d="M132.2,368.5V393h-10.7c-24,0-37.1,13.8-37.1,38.7v55.5H58V368.5h25.4v13.8H89
				c6.8-9.1,18-13.8,33.1-13.8H132.2z"/>
			<path id="XMLID_140_" class="st4" d="M169.5,368.5h28v22.4h-28v57.9c0,10.5,6.1,15.6,18.2,15.6h9.8v22.9h-10.3
				c-28.7,0-44.1-9.6-44.1-35V338.4h26.4V368.5z"/>
			<path id="XMLID_136_" class="st4" d="M306.5,473c-10.7,11.4-25.2,17.3-43.6,17.3S230,484.5,219,473
				c-10.7-11.7-16.1-26.8-16.1-45.3s5.4-33.4,16.1-44.8c11-11.7,25.4-17.5,43.9-17.5c18.4,0,32.9,5.8,43.6,17.5
				c11,11.4,16.3,26.4,16.3,44.8S317.4,461.3,306.5,473z M262.8,387.8c-21.7,0-33.6,17.5-33.6,39.9c0,22.6,11.9,40.1,33.6,40.1
				s33.6-17.5,33.6-40.1C296.4,405.3,284.5,387.8,262.8,387.8z"/>
			<path id="XMLID_134_" class="st4" d="M402.7,400.2c-1.4-8.6-9.1-12.8-23.3-12.8c-14.2,0-21.5,4.2-21.5,12.4
				c0,7.2,4.7,10,15.2,11.9l23.1,3.7c24,4,36.2,16.1,36.2,36.9c0,10.5-4.4,19.6-13.5,27.1c-8.9,7.2-21.2,11-37.3,11
				c-33.6,0-51.8-14.7-54.4-39h26.4c2.1,11.4,11.2,17,27.5,17c16.6,0,25-5.1,25-15.4c0-9.1-5.6-13.3-19.4-15.9l-24.7-4.2
				c-18.7-3-30.3-13.5-30.3-31.3c0-21.2,16.8-36.2,48.8-36.2c28.2,0,46.2,13.5,48.8,34.8H402.7z"/>
		</g>
	</g>
	<g id="XMLID_1007_">
		<path id="XMLID_1147_" class="st5" d="M551,473.4c-10.8,11.5-25.4,17.4-44,17.4s-33.2-5.9-44.3-17.4
			c-10.8-11.8-16.2-27.1-16.2-45.7c0-18.6,5.4-33.7,16.2-45.2c11.1-11.8,25.7-17.7,44.3-17.7s33.2,5.9,44,17.7
			c11.1,11.5,16.5,26.6,16.5,45.2C567.5,446.3,562.1,461.6,551,473.4z M507,387.5c-21.9,0-33.9,17.7-33.9,40.2
			c0,22.8,12,40.5,33.9,40.5s33.9-17.7,33.9-40.5C540.9,405.2,528.9,387.5,507,387.5z"/>
		<path id="XMLID_1025_" class="st5" d="M690.6,465.2h21.7v56.3h-25.4v-33.7h-96v33.7h-25.4v-56.3h16.9
			c8.2-19.5,12.5-40.7,12.5-63.6v-33.7h95.8L690.6,465.2L690.6,465.2z M664,465.2v-74.6h-45v11.3c0,23.8-3.5,45-10.8,63.3H664
			L664,465.2z"/>
		<path id="XMLID_1021_" class="st5" d="M826.9,430.1h-88.5c0.7,25.4,12,38.1,33.7,38.1c13.9,0,22.6-5.2,26.1-15.3h27.1
			c-4.7,22.8-23.3,37.9-53.4,37.9c-18.6,0-33.2-5.9-43.8-17.7s-16-27.1-16-46.1s5.2-34.1,15.8-45.2c10.6-11.3,25.2-16.9,43.3-16.9
			c17.2,0,30.8,5.4,40.5,16c9.9,10.6,15.1,24,15.3,40.2L826.9,430.1L826.9,430.1z M739.6,410.3h60c-1.9-14.1-12-24.2-28.7-24.2
			C753.2,386.1,742.6,395.5,739.6,410.3z"/>
		<path id="XMLID_1018_" class="st5" d="M878.9,437.9l-22.6,49.9H829l27.8-61.7L830.7,368h27.1l21.2,47.3h26.6V368h24.9v47.3h26.6
			L978,368h27.1l-25.9,58.1l27.8,61.7h-27.5l-22.4-49.9h-26.6v49.9h-24.9v-49.9H878.9z"/>
		<path id="XMLID_1013_" class="st5" d="M1136.1,465.2h21.7v56.3h-25.4v-33.7h-96v33.7H1011v-56.3h16.9
			c8.2-19.5,12.5-40.7,12.5-63.6v-33.7h95.8L1136.1,465.2L1136.1,465.2z M1109.5,465.2v-74.6h-45v11.3c0,23.8-3.5,45-10.8,63.3
			H1109.5L1109.5,465.2z"/>
		<path id="XMLID_1009_" class="st5" d="M1242.7,487.8v-11.1h-5.6c-7.3,9.4-19.1,14.1-35.3,14.1c-13.2,0-23.5-3.8-31.3-11.3
			c-7.8-7.8-11.5-16.9-11.5-28c0-10.8,4-20.2,11.8-28.2s19.8-12,35.8-12h35.3v-3.5c0-13.9-8.2-21.9-25.2-21.9
			c-14.8,0-22.8,5.2-24,15.3h-26.4c1.2-22.4,20.9-36.2,49.4-36.2c32.2,0,51.8,14.4,51.8,43.3v79.6L1242.7,487.8L1242.7,487.8z
			 M1232.6,460.5c6.1-5.9,9.2-12.9,9.2-21.2v-9.2h-30.6c-16.7,0-25.4,7.3-25.4,19.8c0,12.2,8.9,19.3,24.2,19.3
			C1219,469.2,1226.5,466.3,1232.6,460.5z"/>
	</g>
	<g id="XMLID_761_">
		<g>
			<path id="XMLID_131_" class="st4" d="M15.6,782.3v-11H10c-7.2,9.3-18.9,14-35,14c-13.1,0-23.3-3.7-31-11.2
				c-7.7-7.7-11.4-16.8-11.4-27.8c0-10.7,4-20.1,11.7-28s19.6-11.9,35.5-11.9h35v-3.5c0-13.8-8.2-21.7-25-21.7
				c-14.7,0-22.6,5.1-23.8,15.2h-26.3c1.2-22.2,20.8-35.9,49-35.9c32,0,51.3,14.2,51.3,42.9v78.9H15.6z M5.5,755.2
				c6.1-5.8,9.1-12.8,9.1-21v-9.1h-30.3c-16.6,0-25.2,7.2-25.2,19.6c0,12.1,8.9,19.1,24,19.1C-8,763.8-0.5,761,5.5,755.2z"/>
			<path id="XMLID_129_" class="st4" d="M132.2,663.5V688h-10.7c-24,0-37.1,13.8-37.1,38.7v55.5H58V663.5h25.4v13.8H89
				c6.8-9.1,18-13.8,33.1-13.8H132.2z"/>
			<path id="XMLID_127_" class="st4" d="M169.5,663.5h28v22.4h-28v57.9c0,10.5,6.1,15.6,18.2,15.6h9.8v22.9h-10.3
				c-28.7,0-44.1-9.6-44.1-35V633.5h26.4V663.5z"/>
			<path id="XMLID_124_" class="st4" d="M306.5,768c-10.7,11.4-25.2,17.3-43.6,17.3S230,779.5,219,768
				c-10.7-11.7-16.1-26.8-16.1-45.3s5.4-33.4,16.1-44.8c11-11.7,25.4-17.5,43.9-17.5c18.4,0,32.9,5.8,43.6,17.5
				c11,11.4,16.3,26.4,16.3,44.8S317.4,756.4,306.5,768z M262.8,682.9c-21.7,0-33.6,17.5-33.6,39.9c0,22.6,11.9,40.1,33.6,40.1
				s33.6-17.5,33.6-40.1C296.4,700.4,284.5,682.9,262.8,682.9z"/>
			<path id="XMLID_122_" class="st4" d="M402.7,695.3c-1.4-8.6-9.1-12.8-23.3-12.8c-14.2,0-21.5,4.2-21.5,12.4
				c0,7.2,4.7,10,15.2,11.9l23.1,3.7c24,4,36.2,16.1,36.2,36.9c0,10.5-4.4,19.6-13.5,27.1c-8.9,7.2-21.2,11-37.3,11
				c-33.6,0-51.8-14.7-54.4-39h26.4c2.1,11.4,11.2,17,27.5,17c16.6,0,25-5.1,25-15.4c0-9.1-5.6-13.3-19.4-15.9L362,728
				c-18.7-3-30.3-13.5-30.3-31.3c0-21.2,16.8-36.2,48.8-36.2c28.2,0,46.2,13.5,48.8,34.8H402.7z"/>
		</g>
	</g>
	<g id="XMLID_742_">
		<path id="XMLID_758_" class="st5" d="M539.3,663H565v113.9c0,16.9-5.2,30.4-15.8,40.2c-10.6,9.9-24.5,14.8-42.1,14.8
			c-32,0-53.2-14.1-56-38.6h26.4c2.1,11.1,12,16.7,29.2,16.7c21.2,0,31.8-11.8,31.8-35.1v-8h-5.6c-6.8,9.7-18.1,14.6-33.4,14.6
			c-16,0-28.7-5.6-38.4-16.9c-9.7-11.3-14.4-25.9-14.4-43.8s4.7-32.5,14.4-43.8c9.6-11.5,22.6-17.2,38.4-17.2s27.3,4.9,34.4,14.6
			h5.6V663L539.3,663L539.3,663z M539.3,720.9c0-21.9-12-38.4-33.4-38.4c-20.5,0-32.7,15.5-32.7,38.4c0,22.8,12.2,38.1,32.7,38.1
			C527.3,759.1,539.3,742.6,539.3,720.9z"/>
		<path id="XMLID_754_" class="st5" d="M691.8,725.2h-88.5c0.7,25.4,12,38.1,33.7,38.1c13.9,0,22.6-5.2,26.1-15.3h27.1
			c-4.7,22.8-23.3,37.9-53.4,37.9c-18.6,0-33.2-5.9-43.8-17.7s-16-27.1-16-46.1s5.2-34.1,15.8-45.2c10.6-11.3,25.2-16.9,43.3-16.9
			c17.2,0,30.8,5.4,40.5,16c9.9,10.6,15.1,24,15.3,40.2L691.8,725.2L691.8,725.2z M604.5,705.4h60c-1.9-14.1-12-24.2-28.7-24.2
			C618.1,681.1,607.5,690.6,604.5,705.4z"/>
		<path id="XMLID_751_" class="st5" d="M778.4,782.8v-11.1h-5.6c-7.3,9.4-19.1,14.1-35.3,14.1c-13.2,0-23.5-3.8-31.3-11.3
			c-7.8-7.8-11.5-16.9-11.5-28c0-10.8,4-20.2,11.8-28.2s19.8-12,35.8-12h35.3v-3.5c0-13.9-8.2-21.9-25.2-21.9
			c-14.8,0-22.8,5.2-24,15.3H702c1.2-22.4,20.9-36.2,49.4-36.2c32.2,0,51.8,14.4,51.8,43.3v79.6L778.4,782.8L778.4,782.8z
			 M768.3,755.5c6.1-5.9,9.2-12.9,9.2-21.2v-9.2h-30.6c-16.7,0-25.4,7.3-25.4,19.8c0,12.2,8.9,19.3,24.2,19.3
			C754.6,764.2,762.2,761.4,768.3,755.5z"/>
		<path id="XMLID_749_" class="st5" d="M895.4,663v24.7h-10.8c-24.2,0-37.4,13.9-37.4,39.1v56h-26.6V663h25.7v13.9h5.6
			c6.8-9.2,18.1-13.9,33.4-13.9H895.4z"/>
		<path id="XMLID_747_" class="st5" d="M920.1,782.8h-30.4v-31.5h30.4V782.8z"/>
		<path id="XMLID_745_" class="st5" d="M1013.1,663v24.7h-10.8c-24.2,0-37.4,13.9-37.4,39.1v56h-26.6V663H964v13.9h5.6
			c6.8-9.2,18.1-13.9,33.4-13.9H1013.1z"/>
		<path id="XMLID_743_" class="st5" d="M1021.2,663h26.6v69.7c0,19.5,8.9,29.4,26.6,29.4c9.2,0,16.7-3.5,22.4-10.4
			c5.9-6.8,8.7-15.1,8.7-24.7v-64h26.6v119.8h-25.7v-11.5h-5.6c-7.3,9.6-18.8,14.6-34.6,14.6c-29.2,0-45-17.9-45-48V663z"/>
	</g>
</g>
</svg>
