<?xml version="1.0" encoding="utf-8"?>
<!-- Generator: Adobe Illustrator 19.0.0, SVG Export Plug-In . SVG Version: 6.00 Build 0)  -->
<svg version="1.1" id="Layer_1" xmlns="http://www.w3.org/2000/svg" xmlns:xlink="http://www.w3.org/1999/xlink" x="0px" y="0px"
	 viewBox="0 0 1350 900" style="enable-background:new 0 0 1350 900;" xml:space="preserve">
<style type="text/css">
	.st0{fill:#EFEFEF;}
	.st1{fill:#2BB9AF;}
	.st2{fill:#101010;}
	.st3{fill:#94DCD7;}
	.st4{fill:#6F6F6F;}
	.st5{fill:#BFEAE7;}
</style>
<polygon id="XMLID_308_" class="st0" points="0,404.1 233.3,0 466.7,404.1 "/>
<polygon id="XMLID_293_" class="st1" points="700,0 466.7,404.1 233.3,0 "/>
<polygon id="XMLID_2_" class="st2" points="650,404.1 883.3,0 1116.7,404.1 "/>
<polygon id="XMLID_1_" class="st1" points="1350,0 1116.7,404.1 883.3,0 "/>
<polygon id="XMLID_6_" class="st0" points="0,900 233.3,495.9 466.7,900 "/>
<polygon id="XMLID_5_" class="st3" points="700,495.9 466.7,900 233.3,495.9 "/>
<polygon id="XMLID_4_" class="st4" points="650,900 883.3,495.9 1116.7,900 "/>
<polygon id="XMLID_3_" class="st5" points="1350,495.9 1116.7,900 883.3,495.9 "/>
<g>
	<path class="st2" d="M551.7,689.9c4,3.9,5.9,9,5.9,15.4c0,6.8-2.3,12.3-7,16.7c-4.6,4.3-10.5,6.5-17.4,6.5c-7.5,0-13.4-2-17.9-5.9
		c-4.5-4-6.9-9.1-7.3-15.3h16.1c0.7,4.7,3.8,7.5,8.6,7.5c5.5,0,8.8-3.8,8.8-9.1c0-6.2-3.7-9.3-8.8-9.3c-3.5,0-6.3,1.4-8.4,4h-14.7
		l2.8-36h40.7v13.3h-28.4l-0.6,9.8h2.5c3-2.3,6.6-3.3,10.8-3.3C543,684.1,547.7,686.1,551.7,689.9z"/>
	<path class="st2" d="M584.9,663c7.7,0,13.9,2.7,18.6,8.1c4.7,5.4,7,13.6,7,24.6c0,11-2.3,19.2-7,24.7c-4.7,5.4-10.9,8.1-18.6,8.1
		c-7.7,0-13.9-2.7-18.6-8.1c-4.7-5.5-7-13.7-7-24.7c0-11,2.3-19.2,7-24.6C571.1,665.7,577.3,663,584.9,663z M584.9,677.1
		c-6.3,0-9.5,6.2-9.5,18.6c0,12.4,3.2,18.7,9.5,18.7c6.3,0,9.5-6.2,9.5-18.7C594.4,683.4,591.3,677.1,584.9,677.1z"/>
	<path class="st2" d="M626.4,697.1c-10,0-15.2-6.8-15.2-16.9c0-10.2,5.4-17.1,15.2-17.1c9.8,0,15.3,6.9,15.3,17.1
		C641.7,690.2,636.4,697.1,626.4,697.1z M632.1,680.1c0-5.8-1.9-8.7-5.7-8.7c-3.7,0-5.6,2.9-5.6,8.7c0,5.7,1.9,8.5,5.6,8.5
		C630.2,688.6,632.1,685.8,632.1,680.1z M634.2,727.3h-10.5l38.2-63.1h10.5L634.2,727.3z M669.6,728.5c-10,0-15.2-6.8-15.2-16.9
		s5.4-17.1,15.2-17.1s15.3,6.9,15.3,17.1C684.9,721.7,679.6,728.5,669.6,728.5z M675.2,711.6c0-5.8-1.9-8.7-5.7-8.7
		c-3.7,0-5.6,2.9-5.6,8.7c0,5.7,1.9,8.5,5.6,8.5C673.4,720,675.2,717.3,675.2,711.6z"/>
</g>
<g>
	<path class="st2" d="M1223.5,713.5v13.9H1175v-16.4l20.4-13.9c2.3-1.5,4.1-2.9,5.2-3.9c2.5-2.1,5.2-5.5,5.2-9
		c0-4.7-2.8-7.3-7.1-7.3s-7.4,2.4-7.8,7.4h-16c0.6-13.6,9.5-21.3,24.3-21.3c6.8,0,12.3,1.9,16.5,5.6c4.1,3.7,6.2,8.8,6.2,15.4
		c0,5-2.4,9.9-5,13.2c-1.2,1.6-3,3.4-5.4,5.5c-2.4,2-4.3,3.4-5.7,4.3l-5.9,4v2.5H1223.5z"/>
	<path class="st2" d="M1268.5,689.9c4,3.9,5.9,9,5.9,15.4c0,6.8-2.3,12.3-7,16.7c-4.6,4.3-10.5,6.5-17.4,6.5c-7.5,0-13.4-2-17.9-5.9
		s-6.9-9.1-7.3-15.3h16.1c0.7,4.7,3.8,7.5,8.6,7.5c5.5,0,8.8-3.8,8.8-9.1c0-6.2-3.7-9.3-8.8-9.3c-3.5,0-6.3,1.4-8.4,4h-14.7l2.8-36
		h40.7v13.3h-28.4l-0.6,9.8h2.5c3-2.3,6.6-3.3,10.8-3.3C1259.8,684.1,1264.6,686.1,1268.5,689.9z"/>
	<path class="st2" d="M1290.1,697.1c-10,0-15.2-6.8-15.2-16.9c0-10.2,5.4-17.1,15.2-17.1s15.3,6.9,15.3,17.1
		C1305.4,690.2,1300.1,697.1,1290.1,697.1z M1295.7,680.1c0-5.8-1.9-8.7-5.7-8.7c-3.7,0-5.6,2.9-5.6,8.7c0,5.7,1.9,8.5,5.6,8.5
		C1293.8,688.6,1295.7,685.8,1295.7,680.1z M1297.9,727.3h-10.5l38.2-63.1h10.5L1297.9,727.3z M1333.2,728.5
		c-10,0-15.2-6.8-15.2-16.9s5.4-17.1,15.2-17.1c9.8,0,15.3,6.9,15.3,17.1C1348.6,721.7,1343.2,728.5,1333.2,728.5z M1338.9,711.6
		c0-5.8-1.9-8.7-5.7-8.7c-3.7,0-5.6,2.9-5.6,8.7c0,5.7,1.9,8.5,5.6,8.5C1337,720,1338.9,717.3,1338.9,711.6z"/>
</g>
</svg>
