<?xml version="1.0" encoding="utf-8"?>
<!-- Generator: Adobe Illustrator 19.0.0, SVG Export Plug-In . SVG Version: 6.00 Build 0)  -->
<svg version="1.1" id="Layer_1" xmlns="http://www.w3.org/2000/svg" xmlns:xlink="http://www.w3.org/1999/xlink" x="0px" y="0px"
	 viewBox="0 0 1500 1000" style="enable-background:new 0 0 1500 1000;" xml:space="preserve">
<style type="text/css">
	.st0{fill:#FFFFFF;}
	.st1{fill:#36AFA7;}
</style>
<g>
	<g>
		<path class="st0" d="M421.3,541H485v9.6h-73.9V440h10.2L421.3,541L421.3,541z"/>
		<path class="st0" d="M507.3,450.2h-10.7V438h10.7V450.2z M506.8,473.2v77.4H497v-77.4L506.8,473.2L506.8,473.2z"/>
		<path class="st0" d="M583.6,473.2h9.4v73.6c0,21.8-13.2,35.8-35,35.8c-19.2,0-31.4-8.4-34.1-22.8h9.6c2.3,9.4,10.4,14.1,24.3,14.1
			c16.9,0,25.4-9.8,25.4-27.1V540h-3.1c-5.7,7.1-13.9,10.7-24.6,10.7c-10.5,0-18.9-3.7-25.2-11.2c-6.4-7.4-9.4-16.9-9.4-28.5
			s3.1-21.1,9.4-28.5c6.4-7.6,14.7-11.3,25.2-11.3c10.7,0,19.1,3.6,24.9,10.7h3.1L583.6,473.2L583.6,473.2z M576.5,533.1
			c4.5-6,6.8-13.3,6.8-22.2s-2.3-16.1-6.8-22.2c-4.5-6-11.2-9-19.8-9c-16.3,0-26,12.1-26,31.1c0,18.7,9.8,31,26,31
			C565.3,541.9,572,539,576.5,533.1z"/>
		<path class="st0" d="M678.3,550.6h-9.8V503c0-15.5-7.1-23.2-21.5-23.2c-7.4,0-13.6,2.8-18.4,8.4c-4.8,5.6-7.1,12.2-7.1,20v42.4
			h-9.8V438h9.8v43.8h3.1c4.3-6.2,13.8-10.7,23.9-10.7c18.6,0,29.9,11.5,29.9,29.6v49.9H678.3z"/>
		<path class="st0" d="M710.8,473.2h20.6v8.7h-20.6v46.9c0,9.1,4.2,13.2,15.3,13.2h5.3v8.7H726c-16.9,0-24.9-5.9-24.9-20.8v-48
			h-14.3v-8.7H701v-24h9.8V473.2z"/>
		<path class="st0" d="M459.6,589.1c23.4,0,36.4,11.9,36.4,32.2c0,13.6-5.7,23.4-16.9,28.3l17.7,50h-14.4l-16.6-46.8
			c-2.9,0.3-6,0.5-9,0.5h-32.2v46.3h-13.9V589.1H459.6z M457.5,641c17.8,0,24.3-7.4,24.3-19.7c0-12.4-6.5-19.8-24.3-19.8h-33V641
			H457.5z"/>
		<path class="st0" d="M579,660.5h-59.5c0.5,18.6,8.8,29.7,24.9,29.7c11,0,17.5-4.6,19.8-12.1h13.3c-2.5,13.3-13.8,23.5-33.1,23.5
			c-24.3,0-38-17.8-38-41.8s13.9-40.3,37.6-40.3c23.2,0,34.4,17.2,34.9,36.4L579,660.5L579,660.5z M520.3,649.5h45.1
			c-0.8-9.9-8.4-18.4-21.5-18.4C529.7,631.1,522,639.6,520.3,649.5z"/>
		<path class="st0" d="M661.5,621.6v74.2c0,21.8-13.6,35.9-36.4,35.9c-20,0-33-8.4-35.3-23.9h13c2.3,9.3,10.4,12.7,22.2,12.7
			c16.1,0,23.4-9.8,23.4-25.4V689H645c-4.2,5.4-11.6,10.4-23.4,10.4c-21.5,0-34.7-17-34.7-39.8c0-22.9,13.2-40,34.7-40
			c12.2,0,19.7,5,23.9,10.4h3.4v-8.4L661.5,621.6L661.5,621.6z M648.7,659.6c0-15-7.9-28.5-24.6-28.5c-15.3,0-24,11.3-24,28.5
			c0,16.9,8.7,28.3,24,28.3C640.8,687.9,648.7,674.4,648.7,659.6z"/>
		<path class="st0" d="M691.1,621.6v46.8c0,14.4,6.7,21.5,19.8,21.5c13.8,0,23.2-11.9,23.2-26v-42.3h13.2v78.1h-12.7v-8.4h-3.4
			c-4.3,6-13,10.4-23.5,10.4c-19.2,0-29.7-11.8-29.7-30.5v-49.6H691.1z"/>
		<path class="st0" d="M778.2,587.1v112.6H765V587.1H778.2z"/>
		<path class="st0" d="M845.6,691.5h-3.4c-4.8,6-13.2,10.2-24.3,10.2c-18,0-28-12.1-28-25.4c0-12.5,8.2-25.9,29.9-25.9h25.4v-3.1
			c0-9.4-5.4-16.3-19.1-16.3c-11.6,0-17.5,4.5-18.1,11.3h-13.2c1.1-14.4,13.5-22.8,31-22.8c19.7,0,32.2,9.4,32.2,27v53.1h-12.4
			L845.6,691.5L845.6,691.5z M845.1,668.1V661h-23.4c-12.9,0-18.7,5.6-18.7,14.9c0,8.8,6.5,14.4,18.1,14.4
			C834.1,690.2,845.1,680.5,845.1,668.1z"/>
		<path class="st0" d="M919,634h-6.5c-15.5,0-24.9,9.4-24.9,26.6v39h-13.2v-78.1h12.7v9.3h3.4c3.9-4.8,11.3-9.3,22.6-9.3h5.9V634z"
			/>
		<path class="st0" d="M410,848.8V738.2h29.4l22.9,48.2h3.7l22.6-48.2h29.6v110.6h-17.7v-88.4h-3.7l-23.4,48.5h-18.9l-23.2-48.5
			h-3.7v88.4H410z"/>
		<path class="st0" d="M606.9,810.8h-58.2c0.5,16.7,7.9,25.1,22.2,25.1c9.1,0,14.9-3.4,17.2-10.1h17.8c-3.1,15-15.3,24.9-35.2,24.9
			c-12.2,0-21.8-3.9-28.8-11.6c-7-7.7-10.5-17.8-10.5-30.4c0-12.5,3.4-22.5,10.4-29.7c7-7.4,16.6-11.2,28.5-11.2
			c11.3,0,20.3,3.6,26.6,10.5c6.5,7,9.9,15.8,10.1,26.5L606.9,810.8L606.9,810.8z M549.4,797.8h39.5c-1.2-9.3-7.9-16-18.9-16
			C558.4,781.9,551.4,788,549.4,797.8z"/>
		<path class="st0" d="M670.5,777.5h3.7v-41.4h17.5v112.6h-16.9v-7.6h-3.7c-5.1,6.4-12.9,9.6-23.2,9.6c-10.4,0-18.7-3.9-24.9-11.6
			c-6-7.7-9.1-17.7-9.1-29.9c0-12.1,3.1-22,9.1-29.7c6.2-7.7,14.6-11.6,24.9-11.6C658.3,767.9,665.7,771.2,670.5,777.5z
			 M674.7,809.3c0-15-7.4-26.5-21.8-26.5c-13.8,0-21.5,10.5-21.5,26.5s7.7,26.6,21.5,26.6C667.3,835.9,674.7,824.3,674.7,809.3z"/>
		<path class="st0" d="M726.1,753h-18v-16.9h18V753z M725.8,769.9v78.8h-17.5v-78.8H725.8z"/>
		<path class="st0" d="M741.5,769.9H759v45.9c0,12.9,5.9,19.4,17.5,19.4c6,0,11-2.3,14.7-6.8c3.9-4.5,5.7-9.9,5.7-16.3V770h17.5
			v78.8h-16.9v-7.6h-3.7c-4.8,6.4-12.4,9.6-22.8,9.6c-19.2,0-29.6-11.8-29.6-31.6L741.5,769.9L741.5,769.9z"/>
		<path class="st0" d="M943.9,798.4v50.3h-17.5v-47.4c0-11.9-4.5-17.8-13.5-17.8c-10.5,0-16.7,8.4-16.7,20.3v44.9h-17.5v-47.2
			c0-11.9-4.5-18-13.5-18c-11.2,0-16.9,9.3-16.9,22.3v42.9h-17.5v-78.8h16.9v7.1h3.7c4-6,10.7-9.1,19.8-9.1c9.4,0,16.3,3.3,20.4,9.6
			h3.7c4.8-6.4,12.1-9.6,21.8-9.6C935.3,767.9,943.9,779.2,943.9,798.4z"/>
		<path class="st0" d="M489,943c7.3,3.3,13.8,12.2,13.8,22.3c0,19.7-12.9,32.5-38.4,32.5h-55.9V887.2h54.2
			c24.2,0,37.2,12.7,37.2,30.2c0,9.4-4.5,17.7-10.8,21.2v4.4H489z M437.2,910.5v19.1h21.5c7.6,0,11.5-3.1,11.5-9.4
			c0-6.4-3.9-9.6-11.8-9.6L437.2,910.5L437.2,910.5z M459.7,974.1c7.4,0,13.5-3.1,13.5-10.4c0-7.3-4.3-11-13-11h-22.9v21.4H459.7z"
			/>
		<path class="st0" d="M513.8,885.2h27v112.6h-27V885.2z"/>
		<path class="st0" d="M627.5,947v50.8h-24.6v-6.2h-4.3c-4.8,5.4-11.9,8.2-21.2,8.2c-8.5,0-15.5-2.6-20.6-7.9
			c-5.1-5.3-7.6-11.6-7.6-19.2c0-7.1,2.8-13.3,8.5-18.7s14.1-8.1,25.4-8.1h18.6v-1.4c0-6.8-3.7-10.2-11-10.2c-6.5,0-10.1,2.3-10.7,7
			h-26.6c0.2-7.9,3.6-14.1,10.2-18.9c6.7-4.8,15.2-7.1,25.6-7.1C614.6,915.3,627.5,925.8,627.5,947z M601.6,961.3h-13
			c-7.6,0-12.5,3.6-12.5,9.3c0,6.4,3.9,9.4,11.5,9.4c8.7,0,14.1-5.9,14.1-13.9L601.6,961.3L601.6,961.3z"/>
		<path class="st0" d="M715.9,969c-0.8,9.1-4.6,16.6-11.9,22.3c-7.1,5.7-16,8.5-26.5,8.5c-12.5,0-22.8-3.7-30.4-11.3
			c-7.6-7.6-11.3-18-11.3-31s3.7-23.2,11.3-30.8s17.8-11.5,30.4-11.5c10.4,0,19.1,2.6,26,8.1c7,5.4,10.8,12.4,11.6,21.2h-26.5
			c-1.4-4.8-5.1-7.3-11-7.3c-10.4,0-14.9,8.4-14.9,20.3c0,12.2,4.5,20.3,14.9,20.3c7,0,11-2.9,11.8-8.8H715.9z"/>
		<path class="st0" d="M810.4,997.8h-27.9l-16.3-34.2h-4.3l-9.3,10.7v23.5h-27.1V885.2h27.1v58.6l24.8-26.5H807l-22.8,24.9
			L810.4,997.8z"/>
	</g>
</g>
<g>
	<g>
		<g>
			<path class="st1" d="M7.8,442.2h60.9v12.1L39,480.6v3.1c10.2,0,18.6,2.9,24.9,9c6.4,5.9,9.6,14.1,9.6,24.6
				c0,11-3.4,19.5-10.4,25.9s-15.8,9.4-26.6,9.4c-10.4,0-18.9-2.9-25.7-8.8C4.1,537.9,0.4,530.5,0,521.3h10.1
				c0.5,6.7,3.3,11.9,8.2,16.1c5.1,4.2,11.2,6.2,18.3,6.2c16.1,0,27-10.2,27-26.3c0-15.6-9.9-25.1-26.8-25.1c-3.9,0-6.8,0.3-9.1,0.9
				v-12.7l29.1-26.2v-3.1h-49V442.2z"/>
			<path class="st1" d="M121.2,440c11.8,0,21.2,4.8,28.2,14.3c7.1,9.4,10.7,23.4,10.7,42.1c0,18.7-3.6,32.7-10.7,42.1
				c-7,9.4-16.4,14.1-28.2,14.1S100,548,92.9,538.5c-7-9.4-10.5-23.4-10.5-42.1c0-18.7,3.6-32.7,10.5-42.1
				C100,444.8,109.5,440,121.2,440z M121.2,543.6c9.4,0,16.6-4,21.4-12.1c5-8.1,7.4-19.8,7.4-35.2c0-15.3-2.5-27.1-7.4-35.2
				c-4.8-8.1-11.9-12.1-21.4-12.1c-9.4,0-16.6,4-21.5,12.2c-4.8,8.1-7.3,19.8-7.3,35.2c0,15.3,2.5,27.1,7.3,35.2
				C104.7,539.6,111.8,543.6,121.2,543.6z"/>
			<path class="st1" d="M208.9,440c11.8,0,21.2,4.8,28.2,14.3c7.1,9.4,10.7,23.4,10.7,42.1c0,18.7-3.6,32.7-10.7,42.1
				c-7,9.4-16.4,14.1-28.2,14.1c-11.8,0-21.2-4.6-28.3-14.1c-7-9.4-10.5-23.4-10.5-42.1c0-18.7,3.6-32.7,10.5-42.1
				C187.7,444.8,197.1,440,208.9,440z M208.9,543.6c9.4,0,16.6-4,21.4-12.1c5-8.1,7.4-19.8,7.4-35.2c0-15.3-2.5-27.1-7.4-35.2
				c-4.8-8.2-11.9-12.2-21.4-12.2c-9.4,0-16.6,4-21.5,12.2c-4.8,8.1-7.3,19.8-7.3,35.2c0,15.3,2.5,27.1,7.3,35.2
				C192.3,539.6,199.5,543.6,208.9,543.6z"/>
		</g>
		<g>
			<path class="st1" d="M81.8,662.2v12.1H66.9v25.4H53.6v-25.4H0v-15.5l47.9-67.5H67v70.9H81.8z M53.8,662.2v-55.6h-3.4l-36.1,52.2
				v3.4L53.8,662.2L53.8,662.2z"/>
			<path class="st1" d="M169.3,645.5c0,39-17,56.2-40,56.2c-22.9,0-39.8-17.2-39.8-56.2s16.9-56.4,39.8-56.4
				C152.3,589.1,169.3,606.4,169.3,645.5z M155.7,645.5c0-27-8.2-44.3-26.3-44.3c-18,0-26.2,17.3-26.2,44.3
				c0,26.8,8.2,44.1,26.2,44.1C147.5,689.6,155.7,672.3,155.7,645.5z"/>
			<path class="st1" d="M258.4,645.5c0,39-17,56.2-40,56.2c-22.9,0-39.8-17.2-39.8-56.2s16.9-56.4,39.8-56.4
				C241.4,589.1,258.4,606.4,258.4,645.5z M244.8,645.5c0-27-8.2-44.3-26.3-44.3c-18,0-26.2,17.3-26.2,44.3
				c0,26.8,8.2,44.1,26.2,44.1C236.6,689.6,244.8,672.3,244.8,645.5z"/>
		</g>
		<g>
			<path class="st1" d="M68.4,785.6c6.5,6.8,9.8,15.5,9.8,26.2c0,11.6-3.6,21.1-10.8,28.3c-7.3,7.1-16.6,10.7-27.9,10.7
				C15.8,850.8,1.2,837,0,817h18c1.4,11.6,9,17.7,20.9,17.7c12.9,0,21.2-8.7,21.2-22.5c0-13.6-8.4-22.3-20.9-22.3
				c-8.5,0-15,3.1-19.4,9.1H2.4l4.8-58.7h64.6v15.3H21.5l-2,26.5h3.7c5.4-4.5,12.2-6.8,20.1-6.8C53.7,775.3,62,778.8,68.4,785.6z"/>
			<path class="st1" d="M127.4,738.2c12.4,0,22.3,4.6,29.9,14.1c7.6,9.4,11.3,23.5,11.3,42.3c0,18.7-3.7,32.8-11.3,42.3
				c-7.6,9.3-17.5,13.9-29.9,13.9s-22.3-4.6-29.9-13.9c-7.6-9.4-11.3-23.5-11.3-42.3c0-18.7,3.7-32.8,11.3-42.3
				C105.1,742.8,115,738.2,127.4,738.2z M127.4,834.7c8.1,0,13.9-3.7,17.5-11c3.7-7.3,5.6-17,5.6-29.1s-1.9-21.8-5.6-29.1
				c-3.6-7.4-9.4-11.2-17.5-11.2s-13.9,3.7-17.7,11.2c-3.6,7.3-5.4,17-5.4,29.1s1.9,21.8,5.4,29.1
				C113.5,831,119.3,834.7,127.4,834.7z"/>
			<path class="st1" d="M218.2,738.2c12.4,0,22.3,4.6,29.9,14.1c7.6,9.4,11.3,23.5,11.3,42.3c0,18.7-3.7,32.8-11.3,42.3
				c-7.6,9.3-17.5,13.9-29.9,13.9s-22.3-4.6-29.9-13.9c-7.6-9.4-11.3-23.5-11.3-42.3c0-18.7,3.7-32.8,11.3-42.3
				S205.8,738.2,218.2,738.2z M218.2,834.7c8.1,0,13.9-3.7,17.5-11c3.7-7.3,5.6-17,5.6-29.1s-1.9-21.8-5.6-29.1
				c-3.6-7.4-9.4-11.2-17.5-11.2s-13.9,3.7-17.7,11.2c-3.6,7.3-5.4,17-5.4,29.1s1.9,21.8,5.4,29.1
				C204.2,831,210.1,834.7,218.2,834.7z"/>
		</g>
		<g>
			<path class="st1" d="M10.1,952.2C3.4,945.5,0,936.9,0,926.3c0-11,3.9-20.1,11.5-27.7c7.6-7.6,17.7-11.3,30.1-11.3
				c25.6,0,45.2,14.6,45.2,54.8c0,17.8-3.7,31.9-11.3,42.3c-7.6,10.4-18.9,15.5-34.1,15.5c-10.1,0-18.9-2.9-26.2-8.8
				c-7.3-6-11.5-13.2-12.5-21.7h27.6c1.2,5.6,5.3,8.4,11.9,8.4c10.1,0,17.2-7.1,18.3-23.1h-4.4c-4.6,5.1-11.6,7.6-21.1,7.6
				C25.3,962.2,17,958.8,10.1,952.2z M27.8,925.5c0,5,1.2,8.8,3.9,11.6c2.6,2.6,6.2,4,10.7,4s7.9-1.4,10.5-4s4-6.5,4-11.5
				c0-9.9-5.9-16.1-14.6-16.1C33.5,909.6,27.8,915.4,27.8,925.5z"/>
			<path class="st1" d="M137.3,887.2c13.2,0,23.9,4.6,31.9,13.9c8.1,9.3,12.1,23.4,12.1,42.3c0,18.9-4,33-12.1,42.4
				c-8.1,9.3-18.7,13.9-31.9,13.9c-13.2,0-23.9-4.6-31.9-13.9c-8.1-9.4-12.1-23.5-12.1-42.4s4-33,12.1-42.3
				C113.5,891.9,124.1,887.2,137.3,887.2z M137.3,911.6c-10.8,0-16.3,10.7-16.3,31.9c0,21.4,5.4,32.1,16.3,32.1
				c10.8,0,16.3-10.7,16.3-32.1C153.6,922.3,148.2,911.6,137.3,911.6z"/>
			<path class="st1" d="M231.8,887.2c13.2,0,23.9,4.6,31.9,13.9c8.1,9.3,12.1,23.4,12.1,42.3c0,18.9-4,33-12.1,42.4
				c-8.1,9.3-18.7,13.9-31.9,13.9c-13.2,0-23.9-4.6-31.9-13.9c-8.1-9.4-12.1-23.5-12.1-42.4s4-33,12.1-42.3
				C207.9,891.9,218.6,887.2,231.8,887.2z M231.8,911.6c-10.8,0-16.3,10.7-16.3,31.9c0,21.4,5.4,32.1,16.3,32.1
				c10.8,0,16.3-10.7,16.3-32.1C248.1,922.3,242.6,911.6,231.8,911.6z"/>
		</g>
	</g>
</g>
<g id="XMLID_13_">
	<g>
		<path id="XMLID_74_" class="st0" d="M636.9,105.1c-7.8-33.5-34-50.2-78.4-50.2c-41.8,0-71.6,17.8-71.6,50.7
			c0,27.7,20.4,39.2,54.4,46l34,6.8l36.1,6.8c65.3,14.1,97.8,50.2,97.8,107.2c0,32.4-12.5,59.6-38.2,81.6
			c-25.1,22-61.2,32.9-107.7,32.9c-44.4,0-80.5-10.5-108.2-31.9s-42.9-49.1-46.5-84.2h63.8c6.8,40.8,38.2,61.2,93.6,61.2
			c47.6,0,80-21.4,80-57c0-32.9-19.3-47.1-56.5-55.4c-5.2-1.6-18.3-4.2-39.7-7.8c-21.4-4.2-32.4-6.3-32.9-6.3
			c-59.1-11-93.1-43.9-93.1-98.3c0-30.8,12-56.5,36.1-76.8C484.2,9.9,517.2,0,559.5,0c78.9,0,132.8,40.8,141.2,105.1H636.9z"/>
		<path id="XMLID_71_" class="st0" d="M909.3,380.1v-24.6h-12.5c-16.2,20.9-42.3,31.4-78.4,31.4c-29.3,0-52.3-8.4-69.5-25.1
			c-17.3-17.3-25.6-37.6-25.6-62.2c0-24,8.9-45,26.1-62.7s43.9-26.7,79.5-26.7h78.4v-7.8c0-30.8-18.3-48.6-55.9-48.6
			c-32.9,0-50.7,11.5-53.3,34h-58.6c2.6-49.7,46.5-80.5,109.8-80.5c71.6,0,115,31.9,115,96.2v176.7L909.3,380.1L909.3,380.1z
			 M886.8,319.4c13.6-13.1,20.4-28.8,20.4-47.1V252h-68c-37.1,0-56.5,16.2-56.5,43.9c0,27.2,19.9,42.9,53.8,42.9
			C856.5,338.8,873.2,332.5,886.8,319.4z"/>
		<path id="XMLID_69_" class="st0" d="M1245.9,380.1h-59.1V225.3c0-43.4-19.9-65.3-59.1-65.3c-20.4,0-37.1,7.8-50.2,23
			c-12.5,15.2-18.8,33.5-18.8,54.9v142.2h-59.1V114h57v25.6h12.5c16.2-21.4,41.8-32.4,76.8-32.4c64.8,0,99.9,39.7,99.9,106.6
			L1245.9,380.1L1245.9,380.1z"/>
		<path id="XMLID_67_" class="st0" d="M1433.6,185.1c-3.1-19.3-20.4-28.8-52.3-28.8s-48.1,9.4-48.1,27.7c0,16.2,10.5,22.5,34,26.7
			l51.8,8.4c53.8,8.9,81,36.1,81,82.6c0,23.5-9.9,43.9-30.3,60.6c-19.9,16.2-47.6,24.6-83.6,24.6c-75.3,0-116.1-32.9-121.8-87.3
			h59.1c4.7,25.6,25.1,38.2,61.7,38.2c37.1,0,55.9-11.5,55.9-34.5c0-20.4-12.5-29.8-43.4-35.5l-55.4-9.4c-41.8-6.8-68-30.3-68-70.1
			c0-47.6,37.6-81,109.3-81c63.3,0,103.5,30.3,109.3,77.9L1433.6,185.1L1433.6,185.1z"/>
	</g>
</g>
<g id="XMLID_928_">
	<path id="XMLID_929_" class="st1" d="M284.4,380.1l-34.5-107.2H96.7l-34,107.2H0L123.9,6.8h100.4l124.4,373.3L284.4,380.1
		L284.4,380.1z M161.5,68l-47.1,149h117.1L184,68H161.5z"/>
</g>
</svg>
