<?xml version="1.0" encoding="utf-8"?>
<!-- Generator: Adobe Illustrator 19.0.0, SVG Export Plug-In . SVG Version: 6.00 Build 0)  -->
<svg version="1.1" id="clearspace" xmlns="http://www.w3.org/2000/svg" xmlns:xlink="http://www.w3.org/1999/xlink" x="0px" y="0px"
	 viewBox="-574 382 1350 900" style="enable-background:new -574 382 1350 900;" xml:space="preserve">
<style type="text/css">
	.st0{fill:#36ACA7;}
	.st1{fill:none;stroke:#36AFA7;stroke-width:2;stroke-miterlimit:10;}
	.st2{fill:#FFFFFF;}
	.st3{fill:#36AFA7;}
	.st4{fill:#101010;}
</style>
<g id="XMLID_31_">
	<g id="XMLID_1524_">
		<path id="XMLID_731_" class="st0" d="M325.3,385c60.4,0,119,11.9,174.3,35.2c53.3,22.5,101.2,54.8,142.3,95.9
			c41.1,41.1,73.4,89,95.9,142.3c23.3,55.2,35.2,113.9,35.2,174.3s-11.9,119-35.2,174.3c-22.5,53.3-54.8,101.2-95.9,142.3
			c-41.1,41.1-89,73.4-142.3,95.9c-55.2,23.3-113.9,35.2-174.3,35.2s-119-11.9-174.3-35.2c-53.3-22.5-101.2-54.8-142.3-95.9
			c-41.1-41.1-73.4-89-95.9-142.3c-23.3-55.2-35.2-113.9-35.2-174.3c0-60.4,11.9-119,35.2-174.3C-64.6,605-32.3,557.2,8.8,516.1
			s89-73.4,142.3-95.9C206.3,396.9,264.9,385,325.3,385 M325.3,384c-247.8,0-448.7,200.9-448.7,448.7s200.9,448.7,448.7,448.7
			S774,1080.4,774,832.7S573.1,384,325.3,384L325.3,384z"/>
	</g>
	<g id="XMLID_1523_">
		<path id="XMLID_683_" class="st0" d="M630.4,385c38.1,0,73.9,14.9,100.8,41.8c26.9,26.9,41.8,62.7,41.8,100.8v610.2
			c0,38.1-14.9,73.9-41.8,100.8c-26.9,26.9-62.7,41.8-100.8,41.8H20.2c-38.1,0-73.9-14.9-100.8-41.8s-41.8-62.7-41.8-100.8V527.6
			c0-38.1,14.9-73.9,41.8-100.8S-17.8,385,20.2,385H630.4 M630.4,384H20.2c-79.3,0-143.6,64.3-143.6,143.6v610.2
			c0,79.3,64.3,143.6,143.6,143.6h610.2c79.3,0,143.6-64.3,143.6-143.6V527.6C774,448.3,709.7,384,630.4,384L630.4,384z"/>
	</g>
	<g id="XMLID_1478_">
		<line id="XMLID_1522_" class="st1" x1="-123.3" y1="1217.2" x2="774" y2="1217.2"/>
		<line id="XMLID_1521_" class="st1" x1="-123.3" y1="1153.1" x2="774" y2="1153.1"/>
		<line id="XMLID_1520_" class="st1" x1="-123.3" y1="1089" x2="774" y2="1089"/>
		<line id="XMLID_1519_" class="st1" x1="-123.3" y1="1025" x2="774" y2="1025"/>
		<line id="XMLID_1518_" class="st1" x1="-123.3" y1="960.9" x2="774" y2="960.9"/>
		<line id="XMLID_1517_" class="st1" x1="-123.3" y1="896.8" x2="774" y2="896.8"/>
		<line id="XMLID_1516_" class="st1" x1="-123.3" y1="832.7" x2="774" y2="832.7"/>
		<line id="XMLID_1515_" class="st1" x1="-123.3" y1="768.6" x2="774" y2="768.6"/>
		<line id="XMLID_1514_" class="st1" x1="-123.3" y1="704.4" x2="774" y2="704.4"/>
		<line id="XMLID_1513_" class="st1" x1="-123.3" y1="640.3" x2="774" y2="640.3"/>
		<line id="XMLID_1512_" class="st1" x1="-123.3" y1="576.3" x2="774" y2="576.3"/>
		<line id="XMLID_1511_" class="st1" x1="-123.3" y1="512.2" x2="774" y2="512.2"/>
		<line id="XMLID_1497_" class="st1" x1="-123.3" y1="448.1" x2="774" y2="448.1"/>
		<line id="XMLID_1496_" class="st1" x1="709.9" y1="384" x2="709.9" y2="1281.3"/>
		<line id="XMLID_1495_" class="st1" x1="645.8" y1="384" x2="645.8" y2="1281.3"/>
		<line id="XMLID_1491_" class="st1" x1="581.7" y1="384" x2="581.7" y2="1281.3"/>
		<line id="XMLID_1490_" class="st1" x1="517.7" y1="384" x2="517.7" y2="1281.3"/>
		<line id="XMLID_1489_" class="st1" x1="453.6" y1="384" x2="453.6" y2="1281.3"/>
		<line id="XMLID_1487_" class="st1" x1="389.4" y1="384" x2="389.4" y2="1281.3"/>
		<line id="XMLID_1486_" class="st1" x1="325.3" y1="384" x2="325.3" y2="1281.3"/>
		<line id="XMLID_1485_" class="st1" x1="261.2" y1="384" x2="261.2" y2="1281.3"/>
		<line id="XMLID_1483_" class="st1" x1="197.1" y1="384" x2="197.1" y2="1281.3"/>
		<line id="XMLID_1482_" class="st1" x1="133" y1="384" x2="133" y2="1281.3"/>
		<line id="XMLID_1481_" class="st1" x1="69" y1="384" x2="69" y2="1281.3"/>
		<line id="XMLID_1480_" class="st1" x1="4.9" y1="384" x2="4.9" y2="1281.3"/>
		<line id="XMLID_1479_" class="st1" x1="-59.2" y1="384" x2="-59.2" y2="1281.3"/>
	</g>
	<g id="XMLID_1451_">
		<g id="XMLID_1575_">
			<path id="XMLID_1648_" class="st2" d="M68.2,924.2v-16.8h-8.6c-11.1,14.4-29,21.5-53.7,21.5c-20,0-35.8-5.7-47.7-17.1
				c-11.9-11.9-17.5-25.8-17.5-42.7c0-16.5,6.1-30.8,17.9-43c11.9-12.2,30.1-18.2,54.4-18.2h53.7v-5.4c0-21.1-12.6-33.3-38.3-33.3
				C6,769.2-6.2,777-8,792.5h-40.1c1.8-34,31.9-55.1,75.2-55.1c49.1,0,78.8,21.8,78.8,65.9v121L68.2,924.2L68.2,924.2z M52.8,882.6
				c9.3-9,14-19.7,14-32.2v-14H20.2c-25.4,0-38.7,11.1-38.7,30.1c0,18.6,13.7,29.4,36.9,29.4C32,895.9,43.5,891.6,52.8,882.6z"/>
			<path id="XMLID_1646_" class="st2" d="M247.4,741.8v37.6h-16.5c-36.9,0-56.9,21.1-56.9,59.4v85.2h-40.5V741.8h39.1V763h8.6
				c10.4-14,27.6-21.1,50.8-21.1H247.4z"/>
			<path id="XMLID_1581_" class="st2" d="M304.5,741.8h43v34.4h-43v88.8c0,16.2,9.3,24,27.9,24h15.1v35.1h-15.8
				c-44.1,0-67.7-14.7-67.7-53.7V695.8h40.5L304.5,741.8L304.5,741.8z"/>
			<path id="XMLID_1578_" class="st2" d="M514.9,902.4c-16.5,17.5-38.7,26.5-67,26.5c-28.3,0-50.5-9-67.3-26.5
				c-16.5-17.9-24.7-41.2-24.7-69.5s8.3-51.2,24.7-68.8c16.8-17.9,39.1-26.8,67.3-26.8c28.3,0,50.5,9,67,26.8
				c16.8,17.5,25,40.5,25,68.8S531.7,884.4,514.9,902.4z M447.9,771.6c-33.3,0-51.5,26.8-51.5,61.2c0,34.7,18.2,61.6,51.5,61.6
				s51.5-26.8,51.5-61.6C499.4,798.5,481.2,771.6,447.9,771.6z"/>
			<path id="XMLID_1576_" class="st2" d="M662.6,790.6c-2.2-13.3-14-19.7-35.8-19.7s-33,6.5-33,18.9c0,11.1,7.2,15.4,23.3,18.2
				l35.5,5.7c36.9,6.1,55.5,24.7,55.5,56.6c0,16.2-6.8,30.1-20.7,41.6c-13.7,11.1-32.6,16.8-57.3,16.8c-51.5,0-79.6-22.5-83.5-59.8
				h40.5c3.2,17.5,17.1,26.1,42.3,26.1c25.4,0,38.3-7.9,38.3-23.6c0-14-8.6-20.4-29.7-24.3l-38-6.5c-28.6-4.7-46.6-20.7-46.6-48
				c0-32.6,25.8-55.5,74.9-55.5c43.4,0,70.9,20.7,74.9,53.3L662.6,790.6L662.6,790.6z"/>
		</g>
	</g>
	<g id="XMLID_1450_">
		<path id="XMLID_682_" class="st0" d="M773,385v895.3h-895.3V385H773 M774,384h-897.3v897.3H774V384L774,384z"/>
	</g>
	<g id="XMLID_1448_">
		<circle id="XMLID_739_" class="st1" cx="-479.8" cy="476.2" r="92.2"/>
	</g>
	<g id="XMLID_1421_">
		<g id="XMLID_1583_">
			<path id="XMLID_1643_" class="st3" d="M-532.5,495v-3.5h-1.8c-2.3,3-6,4.4-11.1,4.4c-4.1,0-7.4-1.2-9.8-3.6s-3.6-5.3-3.6-8.8
				c0-3.4,1.3-6.4,3.7-8.9c2.4-2.5,6.2-3.8,11.2-3.8h11.1v-1.1c0-4.4-2.6-6.9-7.9-6.9c-4.7,0-7.2,1.6-7.5,4.8h-8.3
				c0.4-7,6.6-11.4,15.5-11.4c10.1,0,16.3,4.5,16.3,13.6v24.9h-7.8V495z M-535.7,486.4c1.9-1.8,2.9-4.1,2.9-6.7v-2.9h-9.6
				c-5.3,0-8,2.3-8,6.2c0,3.8,2.8,6.1,7.6,6.1C-540,489.1-537.6,488.2-535.7,486.4z"/>
			<path id="XMLID_1597_" class="st3" d="M-495.6,457.4v7.8h-3.4c-7.6,0-11.8,4.4-11.8,12.3V495h-8.4v-37.6h8.1v4.4h1.8
				c2.1-2.9,5.7-4.4,10.5-4.4H-495.6z"/>
			<path id="XMLID_1595_" class="st3" d="M-483.9,457.4h8.9v7.1h-8.9v18.2c0,3.3,1.9,5,5.8,5h3.1v7.3h-3.3c-9.1,0-14-3-14-11.1v-36
				h8.4V457.4z"/>
			<path id="XMLID_1592_" class="st3" d="M-440.6,490.4c-3.4,3.6-8,5.5-13.8,5.5c-5.8,0-10.4-1.8-13.9-5.5
				c-3.4-3.7-5.1-8.5-5.1-14.4c0-5.8,1.7-10.6,5.1-14.2c3.5-3.7,8.1-5.5,13.9-5.5c5.8,0,10.4,1.8,13.8,5.5c3.5,3.6,5.2,8.4,5.2,14.2
				C-435.4,481.9-437.1,486.7-440.6,490.4z M-454.3,463.5c-6.9,0-10.7,5.5-10.7,12.7c0,7.2,3.8,12.7,10.7,12.7
				c6.9,0,10.7-5.5,10.7-12.7C-443.8,469-447.5,463.5-454.3,463.5z"/>
			<path id="XMLID_1584_" class="st3" d="M-410.2,467.5c-0.4-2.7-2.9-4.1-7.4-4.1s-6.8,1.3-6.8,3.9c0,2.3,1.5,3.2,4.8,3.8l7.3,1.2
				c7.6,1.3,11.5,5.1,11.5,11.7c0,3.3-1.4,6.2-4.3,8.6c-2.8,2.3-6.7,3.5-11.8,3.5c-10.7,0-16.4-4.7-17.1-12.4h8.4
				c0.7,3.6,3.6,5.4,8.7,5.4c5.3,0,7.9-1.6,7.9-4.9c0-2.9-1.8-4.2-6.1-5l-7.8-1.3c-5.9-1-9.6-4.3-9.6-9.9c0-6.7,5.3-11.5,15.5-11.5
				c9,0,14.7,4.3,15.5,11H-410.2z"/>
		</g>
	</g>
	<g id="XMLID_796_">
		<path id="XMLID_765_" class="st1" d="M-417.1,925.1h-125.4c-16.4,0-29.5-13.2-29.5-29.5V770.2c0-16.3,13.2-29.5,29.5-29.5h125.4
			c16.3,0,29.5,13.2,29.5,29.5v125.4C-387.5,911.9-400.8,925.1-417.1,925.1z"/>
	</g>
	<g id="XMLID_757_">
		<g id="XMLID_1598_">
			<path id="XMLID_1663_" class="st3" d="M-532.5,851.6v-3.5h-1.8c-2.3,3-6,4.4-11.1,4.4c-4.1,0-7.4-1.2-9.8-3.6s-3.6-5.3-3.6-8.8
				c0-3.4,1.3-6.4,3.7-8.9s6.2-3.8,11.2-3.8h11.1v-1.1c0-4.4-2.6-6.9-7.9-6.9c-4.7,0-7.2,1.6-7.5,4.8h-8.3c0.4-7,6.6-11.4,15.5-11.4
				c10.1,0,16.3,4.5,16.3,13.6v24.9h-7.8V851.6z M-535.7,843c1.9-1.8,2.9-4.1,2.9-6.7v-2.9h-9.6c-5.3,0-8,2.3-8,6.2
				c0,3.8,2.8,6.1,7.6,6.1C-540,845.8-537.6,844.9-535.7,843z"/>
			<path id="XMLID_1661_" class="st3" d="M-495.6,814v7.8h-3.4c-7.6,0-11.8,4.4-11.8,12.3v17.5h-8.4V814h8.1v4.4h1.8
				c2.1-2.9,5.7-4.4,10.5-4.4H-495.6z"/>
			<path id="XMLID_1604_" class="st3" d="M-483.9,814h8.9v7.1h-8.9v18.2c0,3.3,1.9,5,5.8,5h3.1v7.3h-3.3c-9.1,0-14-3-14-11.1v-36
				h8.4V814z"/>
			<path id="XMLID_1601_" class="st3" d="M-440.6,847.1c-3.4,3.6-8,5.5-13.8,5.5c-5.8,0-10.4-1.8-13.9-5.5
				c-3.4-3.7-5.1-8.5-5.1-14.4c0-5.8,1.7-10.6,5.1-14.2c3.5-3.7,8.1-5.5,13.9-5.5c5.8,0,10.4,1.8,13.8,5.5c3.5,3.6,5.2,8.4,5.2,14.2
				C-435.4,838.6-437.1,843.4-440.6,847.1z M-454.3,820.2c-6.9,0-10.7,5.5-10.7,12.7c0,7.2,3.8,12.7,10.7,12.7
				c6.9,0,10.7-5.5,10.7-12.7C-443.8,825.7-447.5,820.2-454.3,820.2z"/>
			<path id="XMLID_1599_" class="st3" d="M-410.2,824.1c-0.4-2.7-2.9-4.1-7.4-4.1s-6.8,1.3-6.8,3.9c0,2.3,1.5,3.2,4.8,3.8l7.3,1.2
				c7.6,1.3,11.5,5.1,11.5,11.7c0,3.3-1.4,6.2-4.3,8.6c-2.8,2.3-6.7,3.5-11.8,3.5c-10.7,0-16.4-4.7-17.1-12.4h8.4
				c0.7,3.6,3.6,5.4,8.7,5.4c5.3,0,7.9-1.6,7.9-4.9c0-2.9-1.8-4.2-6.1-5l-7.8-1.3c-5.9-1-9.6-4.3-9.6-9.9c0-6.7,5.3-11.5,15.5-11.5
				c9,0,14.7,4.3,15.5,11H-410.2L-410.2,824.1z"/>
		</g>
	</g>
	<rect id="XMLID_791_" x="-572" y="1096.9" class="st1" width="184.5" height="184.5"/>
	<g id="XMLID_671_">
		<g id="XMLID_1631_">
			<path id="XMLID_1657_" class="st3" d="M-530.4,1207.1v-3.3h-1.7c-2.2,2.8-5.7,4.3-10.6,4.3c-4,0-7.1-1.1-9.4-3.4
				c-2.3-2.3-3.5-5.1-3.5-8.4c0-3.3,1.2-6.1,3.5-8.5c2.3-2.4,6-3.6,10.8-3.6h10.6v-1.1c0-4.2-2.5-6.6-7.6-6.6
				c-4.5,0-6.9,1.6-7.2,4.6h-7.9c0.4-6.7,6.3-10.9,14.9-10.9c9.7,0,15.6,4.3,15.6,13.1v23.9h-7.5V1207.1z M-533.4,1198.9
				c1.8-1.8,2.8-3.9,2.8-6.4v-2.8h-9.2c-5,0-7.7,2.2-7.7,6c0,3.7,2.7,5.8,7.3,5.8C-537.5,1201.5-535.2,1200.7-533.4,1198.9z"/>
			<path id="XMLID_1655_" class="st3" d="M-495,1171.1v7.4h-3.2c-7.3,0-11.3,4.2-11.3,11.8v16.8h-8v-36h7.7v4.2h1.7
				c2.1-2.8,5.5-4.2,10.1-4.2L-495,1171.1L-495,1171.1z"/>
			<path id="XMLID_1653_" class="st3" d="M-483.8,1171.1h8.5v6.8h-8.5v17.5c0,3.2,1.8,4.8,5.5,4.8h3v7h-3.1
				c-8.7,0-13.4-2.9-13.4-10.6v-34.5h8V1171.1z"/>
			<path id="XMLID_1634_" class="st3" d="M-442.2,1202.8c-3.3,3.5-7.7,5.2-13.3,5.2s-10-1.8-13.3-5.2c-3.3-3.5-4.9-8.2-4.9-13.8
				s1.6-10.1,4.9-13.6s7.7-5.3,13.3-5.3s10,1.8,13.3,5.3s5,8,5,13.6S-438.9,1199.3-442.2,1202.8z M-455.4,1176.9
				c-6.6,0-10.2,5.3-10.2,12.1c0,6.9,3.6,12.2,10.2,12.2s10.2-5.3,10.2-12.2C-445.3,1182.2-448.9,1176.9-455.4,1176.9z"/>
			<path id="XMLID_1632_" class="st3" d="M-413,1180.7c-0.4-2.6-2.8-3.9-7.1-3.9s-6.5,1.3-6.5,3.8c0,2.2,1.4,3.1,4.6,3.6l7,1.1
				c7.3,1.2,11,4.9,11,11.2c0,3.2-1.3,6-4.1,8.2c-2.7,2.2-6.5,3.3-11.3,3.3c-10.2,0-15.7-4.5-16.5-11.8h8c0.6,3.5,3.4,5.2,8.4,5.2
				c5,0,7.6-1.6,7.6-4.7c0-2.8-1.7-4-5.9-4.8l-7.7-1.3c-5.7-0.9-9.2-4.1-9.2-9.5c0-6.5,5.1-11,14.8-11c8.6,0,14,4.1,14.8,10.6H-413z
				"/>
		</g>
	</g>
	<g id="XMLID_669_">
		<circle id="XMLID_670_" class="st2" cx="-263.3" cy="476.2" r="92.2"/>
	</g>
	<g id="XMLID_662_">
		<g id="XMLID_663_">
			<path id="XMLID_668_" class="st4" d="M-316.1,495v-3.5h-1.8c-2.3,3-6,4.4-11.1,4.4c-4.1,0-7.4-1.2-9.8-3.6s-3.6-5.3-3.6-8.8
				c0-3.4,1.3-6.4,3.7-8.9c2.4-2.5,6.2-3.8,11.2-3.8h11.1v-1.1c0-4.4-2.6-6.9-7.9-6.9c-4.7,0-7.2,1.6-7.5,4.8h-8.3
				c0.4-7,6.6-11.4,15.5-11.4c10.1,0,16.3,4.5,16.3,13.6v24.9h-7.8V495z M-319.3,486.4c1.9-1.8,2.9-4.1,2.9-6.7v-2.9h-9.6
				c-5.3,0-8,2.3-8,6.2c0,3.8,2.8,6.1,7.6,6.1C-323.5,489.1-321.1,488.2-319.3,486.4z"/>
			<path id="XMLID_667_" class="st4" d="M-279.2,457.4v7.8h-3.4c-7.6,0-11.8,4.4-11.8,12.3V495h-8.4v-37.6h8.1v4.4h1.8
				c2.1-2.9,5.7-4.4,10.5-4.4H-279.2z"/>
			<path id="XMLID_666_" class="st4" d="M-267.4,457.4h8.9v7.1h-8.9v18.2c0,3.3,1.9,5,5.8,5h3.1v7.3h-3.3c-9.1,0-14-3-14-11.1v-36
				h8.4V457.4z"/>
			<path id="XMLID_665_" class="st4" d="M-224.1,490.4c-3.4,3.6-8,5.5-13.8,5.5s-10.4-1.8-13.9-5.5c-3.4-3.7-5.1-8.5-5.1-14.4
				c0-5.8,1.7-10.6,5.1-14.2c3.5-3.7,8.1-5.5,13.9-5.5s10.4,1.8,13.8,5.5c3.5,3.6,5.2,8.4,5.2,14.2
				C-218.9,481.9-220.6,486.7-224.1,490.4z M-237.9,463.5c-6.9,0-10.7,5.5-10.7,12.7c0,7.2,3.8,12.7,10.7,12.7
				c6.9,0,10.7-5.5,10.7-12.7C-227.3,469-231,463.5-237.9,463.5z"/>
			<path id="XMLID_664_" class="st4" d="M-193.7,467.5c-0.4-2.7-2.9-4.1-7.4-4.1s-6.8,1.3-6.8,3.9c0,2.3,1.5,3.2,4.8,3.8l7.3,1.2
				c7.6,1.3,11.5,5.1,11.5,11.7c0,3.3-1.4,6.2-4.3,8.6c-2.8,2.3-6.7,3.5-11.8,3.5c-10.7,0-16.4-4.7-17.1-12.4h8.4
				c0.7,3.6,3.6,5.4,8.7,5.4c5.3,0,7.9-1.6,7.9-4.9c0-2.9-1.8-4.2-6.1-5l-7.8-1.3c-5.9-1-9.6-4.3-9.6-9.9c0-6.7,5.3-11.5,15.5-11.5
				c9,0,14.7,4.3,15.5,11H-193.7z"/>
		</g>
	</g>
	<g id="XMLID_660_">
		<path id="XMLID_661_" class="st2" d="M-200.6,925.1H-326c-16.4,0-29.5-13.2-29.5-29.5V770.2c0-16.3,13.2-29.5,29.5-29.5h125.4
			c16.3,0,29.5,13.2,29.5,29.5v125.4C-171.1,911.9-184.4,925.1-200.6,925.1z"/>
	</g>
	<g id="XMLID_18_">
		<g id="XMLID_10_">
			<path id="XMLID_659_" class="st4" d="M-316.1,851.6v-3.5h-1.8c-2.3,3-6,4.4-11.1,4.4c-4.1,0-7.4-1.2-9.8-3.6s-3.6-5.3-3.6-8.8
				c0-3.4,1.3-6.4,3.7-8.9s6.2-3.8,11.2-3.8h11.1v-1.1c0-4.4-2.6-6.9-7.9-6.9c-4.7,0-7.2,1.6-7.5,4.8h-8.3c0.4-7,6.6-11.4,15.5-11.4
				c10.1,0,16.3,4.5,16.3,13.6v24.9h-7.8V851.6z M-319.3,843c1.9-1.8,2.9-4.1,2.9-6.7v-2.9h-9.6c-5.3,0-8,2.3-8,6.2
				c0,3.8,2.8,6.1,7.6,6.1C-323.5,845.8-321.1,844.9-319.3,843z"/>
			<path id="XMLID_658_" class="st4" d="M-279.2,814v7.8h-3.4c-7.6,0-11.8,4.4-11.8,12.3v17.5h-8.4V814h8.1v4.4h1.8
				c2.1-2.9,5.7-4.4,10.5-4.4H-279.2z"/>
			<path id="XMLID_657_" class="st4" d="M-267.4,814h8.9v7.1h-8.9v18.2c0,3.3,1.9,5,5.8,5h3.1v7.3h-3.3c-9.1,0-14-3-14-11.1v-36h8.4
				V814z"/>
			<path id="XMLID_627_" class="st4" d="M-224.1,847.1c-3.4,3.6-8,5.5-13.8,5.5s-10.4-1.8-13.9-5.5c-3.4-3.7-5.1-8.5-5.1-14.4
				c0-5.8,1.7-10.6,5.1-14.2c3.5-3.7,8.1-5.5,13.9-5.5s10.4,1.8,13.8,5.5c3.5,3.6,5.2,8.4,5.2,14.2
				C-218.9,838.6-220.6,843.4-224.1,847.1z M-237.9,820.2c-6.9,0-10.7,5.5-10.7,12.7c0,7.2,3.8,12.7,10.7,12.7
				c6.9,0,10.7-5.5,10.7-12.7C-227.3,825.7-231,820.2-237.9,820.2z"/>
			<path id="XMLID_625_" class="st4" d="M-193.7,824.1c-0.4-2.7-2.9-4.1-7.4-4.1s-6.8,1.3-6.8,3.9c0,2.3,1.5,3.2,4.8,3.8l7.3,1.2
				c7.6,1.3,11.5,5.1,11.5,11.7c0,3.3-1.4,6.2-4.3,8.6c-2.8,2.3-6.7,3.5-11.8,3.5c-10.7,0-16.4-4.7-17.1-12.4h8.4
				c0.7,3.6,3.6,5.4,8.7,5.4c5.3,0,7.9-1.6,7.9-4.9c0-2.9-1.8-4.2-6.1-5l-7.8-1.3c-5.9-1-9.6-4.3-9.6-9.9c0-6.7,5.3-11.5,15.5-11.5
				c9,0,14.7,4.3,15.5,11H-193.7L-193.7,824.1z"/>
		</g>
	</g>
	<rect id="XMLID_16_" x="-355.5" y="1096.9" class="st2" width="184.5" height="184.5"/>
	<g id="XMLID_1_">
		<g id="XMLID_5_">
			<path id="XMLID_9_" class="st4" d="M-314,1207.1v-3.3h-1.7c-2.2,2.8-5.7,4.3-10.6,4.3c-4,0-7.1-1.1-9.4-3.4
				c-2.3-2.3-3.5-5.1-3.5-8.4c0-3.3,1.2-6.1,3.5-8.5c2.3-2.4,6-3.6,10.8-3.6h10.6v-1.1c0-4.2-2.5-6.6-7.6-6.6
				c-4.5,0-6.9,1.6-7.2,4.6h-7.9c0.4-6.7,6.3-10.9,14.9-10.9c9.7,0,15.6,4.3,15.6,13.1v23.9h-7.5V1207.1z M-317,1198.9
				c1.8-1.8,2.8-3.9,2.8-6.4v-2.8h-9.2c-5,0-7.7,2.2-7.7,6c0,3.7,2.7,5.8,7.3,5.8C-321,1201.5-318.8,1200.7-317,1198.9z"/>
			<path id="XMLID_6_" class="st4" d="M-278.6,1171.1v7.4h-3.2c-7.3,0-11.3,4.2-11.3,11.8v16.8h-8v-36h7.7v4.2h1.7
				c2.1-2.8,5.5-4.2,10.1-4.2L-278.6,1171.1L-278.6,1171.1z"/>
			<path id="XMLID_7_" class="st4" d="M-267.3,1171.1h8.5v6.8h-8.5v17.5c0,3.2,1.8,4.8,5.5,4.8h3v7h-3.1c-8.7,0-13.4-2.9-13.4-10.6
				v-34.5h8V1171.1z"/>
			<path id="XMLID_8_" class="st4" d="M-225.7,1202.8c-3.3,3.5-7.7,5.2-13.3,5.2s-10-1.8-13.3-5.2c-3.3-3.5-4.9-8.2-4.9-13.8
				s1.6-10.1,4.9-13.6s7.7-5.3,13.3-5.3c5.6,0,10,1.8,13.3,5.3s5,8,5,13.6S-222.4,1199.3-225.7,1202.8z M-239,1176.9
				c-6.6,0-10.2,5.3-10.2,12.1c0,6.9,3.6,12.2,10.2,12.2s10.2-5.3,10.2-12.2C-228.8,1182.2-232.4,1176.9-239,1176.9z"/>
			<path id="XMLID_12_" class="st4" d="M-196.5,1180.7c-0.4-2.6-2.8-3.9-7.1-3.9s-6.5,1.3-6.5,3.8c0,2.2,1.4,3.1,4.6,3.6l7,1.1
				c7.3,1.2,11,4.9,11,11.2c0,3.2-1.3,6-4.1,8.2c-2.7,2.2-6.5,3.3-11.3,3.3c-10.2,0-15.7-4.5-16.5-11.8h8c0.6,3.5,3.4,5.2,8.4,5.2
				s7.6-1.6,7.6-4.7c0-2.8-1.7-4-5.9-4.8l-7.7-1.3c-5.7-0.9-9.2-4.1-9.2-9.5c0-6.5,5.1-11,14.8-11c8.6,0,14,4.1,14.8,10.6H-196.5z"
				/>
		</g>
	</g>
</g>
</svg>
