<?xml version="1.0" encoding="utf-8"?>
<!-- Generator: Adobe Illustrator 19.0.0, SVG Export Plug-In . SVG Version: 6.00 Build 0)  -->
<svg version="1.1" id="construction" xmlns="http://www.w3.org/2000/svg" xmlns:xlink="http://www.w3.org/1999/xlink" x="0px"
	 y="0px" viewBox="0 226 1350 900" style="enable-background:new 0 226 1350 900;" xml:space="preserve">
<style type="text/css">
	.st0{fill:none;stroke:#36AFA7;stroke-width:1.5;stroke-miterlimit:10;}
	.st1{fill:none;stroke:#FFFFFF;stroke-width:1.5;stroke-miterlimit:10;}
	.st2{fill:none;}
	.st3{fill:none;stroke:#FFFFFF;stroke-miterlimit:10;}
	.st4{fill:#101010;stroke:#FFFFFF;stroke-miterlimit:10;}
	.st5{opacity:0;}
	.st6{fill:#101010;}
	.st7{font-family:'Formular';}
	.st8{font-size:5.3844px;}
</style>
<g id="XMLID_601_">
	<line id="XMLID_606_" class="st0" x1="11.1" y1="551.2" x2="1348.5" y2="551.2"/>
	<line id="XMLID_605_" class="st0" x1="11.1" y1="470.8" x2="1348.5" y2="470.8"/>
	<line id="XMLID_13_" class="st0" x1="11.1" y1="217.7" x2="11.1" y2="1134.3"/>
	<line id="XMLID_19_" class="st0" x1="298.9" y1="217.7" x2="298.9" y2="1134.3"/>
	<line id="XMLID_21_" class="st0" x1="346.9" y1="217.7" x2="346.9" y2="1134.3"/>
	<line id="XMLID_22_" class="st0" x1="545.4" y1="217.7" x2="545.4" y2="1134.3"/>
	<line id="XMLID_25_" class="st0" x1="574.5" y1="217.7" x2="574.5" y2="1134.3"/>
	<line id="XMLID_26_" class="st0" x1="719.9" y1="217.7" x2="719.9" y2="1134.3"/>
	<line id="XMLID_27_" class="st0" x1="734.4" y1="217.7" x2="734.4" y2="1134.3"/>
	<line id="XMLID_28_" class="st0" x1="1055.3" y1="217.7" x2="1055.3" y2="1134.3"/>
	<line id="XMLID_29_" class="st0" x1="1067.6" y1="217.7" x2="1067.6" y2="1134.3"/>
	<line id="XMLID_30_" class="st0" x1="1348.4" y1="217.7" x2="1348.4" y2="1134.3"/>
	<line id="XMLID_604_" class="st0" x1="11.1" y1="868.9" x2="1348.5" y2="868.9"/>
</g>
<g id="XMLID_608_">
	<path id="XMLID_618_" class="st1" d="M233.4,868.9v-29.4h-15c-19.4,25-50.5,37.5-93.6,37.5c-35,0-62.4-10-83-29.9
		c-20.6-20.6-30.6-44.9-30.6-74.3c0-28.7,10.6-53.7,31.2-74.9s52.4-31.8,94.9-31.8h93.6v-9.3c0-36.8-21.8-58.1-66.8-58.1
		c-39.3,0-60.5,13.7-63.7,40.6H30.5c3.2-59.3,55.6-96.1,131.1-96.1c85.5,0,137.3,38,137.3,114.9v211h-65.5V868.9z M206.5,796.5
		c16.2-15.6,24.3-34.3,24.3-56.1V716h-81.1c-44.3,0-67.4,19.4-67.4,52.4c0,32.4,23.7,51.2,64.3,51.2
		C170.2,819.7,190.3,812.1,206.5,796.5z"/>
	<path id="XMLID_616_" class="st1" d="M545.4,551.2v65.5h-28.7c-64.3,0-99.2,36.8-99.2,103.6v148.5h-70.6V551.2H415V588h15
		c18.1-24.3,48-36.8,88.7-36.8H545.4z"/>
	<path id="XMLID_614_" class="st1" d="M645.1,551.2H720v60h-74.9V766c0,28.1,16.2,41.9,48.7,41.9H720v61.2h-27.5
		c-76.7,0-117.9-25.5-117.9-93.6V470.8h70.6L645.1,551.2L645.1,551.2z"/>
	<path id="XMLID_611_" class="st1" d="M1011.7,830.8C983,861.4,944.3,877,895,877s-88-15.6-117.4-46.2
		c-28.7-31.2-43.1-71.8-43.1-121.1c0-49.3,14.4-89.2,43.1-119.8c29.4-31.2,68.1-46.8,117.4-46.8s88,15.6,116.7,46.8
		c29.4,30.6,43.7,70.6,43.7,119.8C1055.3,759,1040.9,799.6,1011.7,830.8z M894.9,603.1c-58.1,0-89.9,46.8-89.9,106.8
		c0,60.5,31.8,107.3,89.9,107.3s89.9-46.8,89.9-107.3C984.8,649.9,953,603.1,894.9,603.1z"/>
	<path id="XMLID_609_" class="st1" d="M1269.1,636.1c-3.7-23.1-24.3-34.3-62.4-34.3c-38,0-57.4,11.3-57.4,33.1
		c0,19.4,12.5,26.9,40.6,31.8l61.8,10c64.3,10.6,96.8,43.1,96.8,98.7c0,28.1-11.8,52.4-36.2,72.5c-23.7,19.4-56.8,29.4-99.9,29.4
		c-89.9,0-138.6-39.3-145.5-104.2h70.6c5.6,30.6,29.9,45.6,73.7,45.6c44.3,0,66.8-13.7,66.8-41.2c0-24.3-15-35.6-51.8-42.4
		l-66.2-11.3c-50-8.1-81.1-36.2-81.1-83.6c0-56.8,44.9-96.8,130.4-96.8c75.5,0,123.5,36.2,130.4,93.1h-70.6L1269.1,636.1
		L1269.1,636.1z"/>
</g>
<line id="XMLID_607_" class="st2" x1="21" y1="826.5" x2="64.7" y2="870.1"/>
<g id="XMLID_291_">
	<line id="XMLID_596_" class="st3" x1="33.5" y1="583.1" x2="30.7" y2="633.7"/>
	<circle id="XMLID_595_" class="st4" cx="30.4" cy="639.2" r="5.5"/>
	<circle id="XMLID_594_" class="st4" cx="100.3" cy="639.2" r="5.5"/>
	<circle id="XMLID_593_" class="st4" cx="164.2" cy="598.7" r="5.5"/>
	<circle id="XMLID_592_" class="st4" cx="161" cy="543.1" r="5.5"/>
	<circle id="XMLID_591_" class="st4" cx="298.9" cy="654" r="5.5"/>
	<circle id="XMLID_590_" class="st4" cx="346.9" cy="868.9" r="5.5"/>
	<circle id="XMLID_589_" class="st4" cx="417.5" cy="868.9" r="5.5"/>
	<circle id="XMLID_588_" class="st4" cx="574.5" cy="775.3" r="5.5"/>
	<circle id="XMLID_587_" class="st4" cx="690.3" cy="868.9" r="5.5"/>
	<circle id="XMLID_586_" class="st4" cx="719.9" cy="868.9" r="5.5"/>
	<circle id="XMLID_585_" class="st4" cx="719.9" cy="807.7" r="5.5"/>
	<circle id="XMLID_584_" class="st4" cx="693.7" cy="807.7" r="5.5"/>
	<circle id="XMLID_583_" class="st4" cx="645.1" cy="766" r="5.5"/>
	<circle id="XMLID_582_" class="st4" cx="417.5" cy="720.4" r="5.5"/>
	<circle id="XMLID_581_" class="st4" cx="516.7" cy="616.8" r="5.5"/>
	<circle id="XMLID_580_" class="st4" cx="545.4" cy="616.8" r="5.5"/>
	<circle id="XMLID_579_" class="st4" cx="545.4" cy="551.2" r="5.5"/>
	<circle id="XMLID_578_" class="st4" cx="645.2" cy="551.2" r="5.5"/>
	<circle id="XMLID_577_" class="st4" cx="645.2" cy="611.3" r="5.5"/>
	<circle id="XMLID_576_" class="st4" cx="719.9" cy="611.3" r="5.5"/>
	<circle id="XMLID_575_" class="st4" cx="719.9" cy="551.2" r="5.5"/>
	<circle id="XMLID_574_" class="st4" cx="645.2" cy="470.8" r="5.5"/>
	<circle id="XMLID_573_" class="st4" cx="574.5" cy="470.8" r="5.5"/>
	<circle id="XMLID_572_" class="st4" cx="520.8" cy="551.2" r="5.5"/>
	<circle id="XMLID_571_" class="st4" cx="430.2" cy="588" r="5.5"/>
	<circle id="XMLID_570_" class="st4" cx="415.2" cy="588" r="5.5"/>
	<circle id="XMLID_569_" class="st4" cx="415.2" cy="551.2" r="5.5"/>
	<circle id="XMLID_568_" class="st4" cx="346.9" cy="551.2" r="5.5"/>
	<circle id="XMLID_567_" class="st4" cx="230.8" cy="666.1" r="5.5"/>
	<circle id="XMLID_566_" class="st4" cx="230.8" cy="716" r="5.5"/>
	<circle id="XMLID_565_" class="st4" cx="230.8" cy="740.9" r="5.5"/>
	<circle id="XMLID_564_" class="st4" cx="149.7" cy="716" r="5.5"/>
	<circle id="XMLID_563_" class="st4" cx="42.8" cy="696.7" r="5.5"/>
	<circle id="XMLID_562_" class="st4" cx="137.2" cy="666.1" r="5.5"/>
	<circle id="XMLID_561_" class="st4" cx="82.3" cy="768.1" r="5.5"/>
	<circle id="XMLID_560_" class="st4" cx="11.1" cy="772.7" r="5.5"/>
	<circle id="XMLID_559_" class="st4" cx="42.1" cy="847.5" r="5.5"/>
	<circle id="XMLID_558_" class="st4" cx="123.3" cy="877" r="5.5"/>
	<circle id="XMLID_557_" class="st4" cx="146.7" cy="819.7" r="5.5"/>
	<circle id="XMLID_556_" class="st4" cx="205.8" cy="797.2" r="5.5"/>
	<circle id="XMLID_555_" class="st4" cx="218.3" cy="839.6" r="6.5"/>
	<circle id="XMLID_554_" class="st4" cx="233.1" cy="839.6" r="6.5"/>
	<circle id="XMLID_553_" class="st4" cx="233.1" cy="868.9" r="5.5"/>
	<circle id="XMLID_552_" class="st4" cx="298.9" cy="868.9" r="5.5"/>
	<circle id="XMLID_551_" class="st4" cx="33.5" cy="579.9" r="3.3"/>
	<circle id="XMLID_550_" class="st4" cx="103.5" cy="610.1" r="3.3"/>
	<circle id="XMLID_549_" class="st4" cx="94.7" cy="666.1" r="3.3"/>
	<circle id="XMLID_548_" class="st4" cx="63.7" cy="675" r="3.3"/>
	<circle id="XMLID_547_" class="st4" cx="21.7" cy="719.1" r="3.3"/>
	<circle id="XMLID_546_" class="st4" cx="103.5" cy="716" r="3.3"/>
	<circle id="XMLID_545_" class="st4" cx="82.3" cy="734.1" r="3.3"/>
	<circle id="XMLID_544_" class="st4" cx="11.1" cy="743.4" r="3.3"/>
	<circle id="XMLID_543_" class="st4" cx="11.1" cy="802.1" r="3.3"/>
	<circle id="XMLID_542_" class="st4" cx="82.3" cy="802.1" r="3.3"/>
	<circle id="XMLID_541_" class="st4" cx="106" cy="819.7" r="3.3"/>
	<circle id="XMLID_540_" class="st4" cx="21" cy="826.5" r="3.3"/>
	<circle id="XMLID_539_" class="st4" cx="62.3" cy="867.6" r="3.3"/>
	<circle id="XMLID_538_" class="st4" cx="89.8" cy="877" r="3.3"/>
	<circle id="XMLID_537_" class="st4" cx="174.9" cy="877" r="3.3"/>
	<circle id="XMLID_536_" class="st4" cx="199.3" cy="865.3" r="3.3"/>
	<circle id="XMLID_535_" class="st4" cx="170.4" cy="819.7" r="3.3"/>
	<circle id="XMLID_534_" class="st4" cx="190.3" cy="812.5" r="3.3"/>
	<circle id="XMLID_533_" class="st4" cx="224.3" cy="778.9" r="3.3"/>
	<circle id="XMLID_532_" class="st4" cx="230.8" cy="762.2" r="3.3"/>
	<circle id="XMLID_531_" class="st4" cx="124.7" cy="598.7" r="3.3"/>
	<circle id="XMLID_530_" class="st4" cx="206.1" cy="598.7" r="3.3"/>
	<circle id="XMLID_529_" class="st4" cx="246.7" cy="543.1" r="3.3"/>
	<circle id="XMLID_528_" class="st4" cx="478" cy="551.2" r="3.3"/>
	<circle id="XMLID_527_" class="st4" cx="448.9" cy="562.9" r="3.3"/>
	<circle id="XMLID_526_" class="st4" cx="452.1" cy="616.8" r="3.3"/>
	<circle id="XMLID_525_" class="st4" cx="614.5" cy="868.9" r="3.3"/>
	<circle id="XMLID_524_" class="st4" cx="574.5" cy="841.8" r="3.3"/>
	<circle id="XMLID_523_" class="st4" cx="645.1" cy="796.3" r="3.3"/>
	<circle id="XMLID_522_" class="st4" cx="658.8" cy="807.7" r="3.3"/>
	<circle id="XMLID_521_" class="st4" cx="417.5" cy="653.7" r="3.3"/>
	<circle id="XMLID_520_" class="st4" cx="84.2" cy="543.1" r="3.3"/>
	<circle id="XMLID_519_" class="st4" cx="230.8" cy="619.8" r="3.3"/>
	<circle id="XMLID_518_" class="st4" cx="298.9" cy="581.1" r="3.3"/>
	<line id="XMLID_517_" class="st3" x1="103.2" y1="613.4" x2="100.9" y2="633.7"/>
	<line id="XMLID_516_" class="st3" x1="127.9" y1="598.7" x2="158.7" y2="598.7"/>
	<line id="XMLID_515_" class="st3" x1="169.7" y1="598.7" x2="202.9" y2="598.7"/>
	<line id="XMLID_514_" class="st3" x1="230.8" y1="660.6" x2="230.8" y2="623.1"/>
	<line id="XMLID_513_" class="st3" x1="87.4" y1="543.1" x2="155.5" y2="543.1"/>
	<line id="XMLID_512_" class="st3" x1="166.5" y1="543.1" x2="243.4" y2="543.1"/>
	<line id="XMLID_511_" class="st3" x1="298.9" y1="584.4" x2="298.9" y2="648.5"/>
	<line id="XMLID_510_" class="st3" x1="201.3" y1="862.8" x2="214.4" y2="845"/>
	<line id="XMLID_509_" class="st3" x1="93.1" y1="877" x2="117.8" y2="877"/>
	<line id="XMLID_508_" class="st3" x1="128.8" y1="877" x2="171.7" y2="877"/>
	<line id="XMLID_507_" class="st3" x1="46.7" y1="692.9" x2="61.4" y2="677.3"/>
	<line id="XMLID_506_" class="st3" x1="24.1" y1="716.6" x2="39" y2="700.8"/>
	<line id="XMLID_505_" class="st3" x1="11.1" y1="767.3" x2="11.1" y2="746.6"/>
	<line id="XMLID_504_" class="st3" x1="11.1" y1="799" x2="11.1" y2="778.3"/>
	<line id="XMLID_503_" class="st3" x1="98" y1="666.1" x2="131.7" y2="666.1"/>
	<line id="XMLID_502_" class="st3" x1="106.8" y1="716" x2="144.1" y2="716"/>
	<line id="XMLID_501_" class="st3" x1="82.3" y1="737.4" x2="82.3" y2="762.6"/>
	<line id="XMLID_500_" class="st3" x1="82.3" y1="773.6" x2="82.3" y2="798.8"/>
	<line id="XMLID_485_" class="st3" x1="109.3" y1="819.7" x2="141.2" y2="819.7"/>
	<line id="XMLID_484_" class="st3" x1="151.9" y1="819.7" x2="167.1" y2="819.7"/>
	<line id="XMLID_483_" class="st3" x1="230.8" y1="758.9" x2="230.8" y2="746.4"/>
	<line id="XMLID_482_" class="st3" x1="446.7" y1="565.4" x2="433.2" y2="583.5"/>
	<line id="XMLID_481_" class="st3" x1="455.6" y1="616.8" x2="511.2" y2="616.8"/>
	<line id="XMLID_480_" class="st3" x1="417.5" y1="714.9" x2="417.5" y2="656.8"/>
	<line id="XMLID_479_" class="st3" x1="645.1" y1="771.4" x2="645.1" y2="793"/>
	<line id="XMLID_477_" class="st3" x1="688.2" y1="807.7" x2="662.1" y2="807.7"/>
	<line id="XMLID_476_" class="st3" x1="684.8" y1="868.9" x2="617.7" y2="868.9"/>
	<line id="XMLID_475_" class="st3" x1="574.5" y1="780.7" x2="574.5" y2="838.6"/>
	<line id="XMLID_474_" class="st3" x1="192.5" y1="810.2" x2="201.5" y2="801.3"/>
	<line id="XMLID_473_" class="st3" x1="209.9" y1="793.2" x2="222" y2="781.2"/>
	<line id="XMLID_471_" class="st3" x1="45.9" y1="851.4" x2="60" y2="865.2"/>
	<line id="XMLID_470_" class="st3" x1="23.4" y1="828.8" x2="38" y2="843.4"/>
	<circle id="XMLID_468_" class="st4" cx="894.9" cy="817.1" r="5.5"/>
	<circle id="XMLID_467_" class="st4" cx="894.9" cy="877" r="5.5"/>
	<circle id="XMLID_465_" class="st4" cx="894.9" cy="543.1" r="5.5"/>
	<circle id="XMLID_464_" class="st4" cx="894.9" cy="603.1" r="5.5"/>
	<circle id="XMLID_462_" class="st4" cx="744.7" cy="796.3" r="3.3"/>
	<circle id="XMLID_461_" class="st4" cx="808.1" cy="861.7" r="3.3"/>
	<circle id="XMLID_459_" class="st4" cx="842.8" cy="877" r="3.3"/>
	<circle id="XMLID_458_" class="st4" cx="833.9" cy="817.1" r="3.3"/>
	<circle id="XMLID_456_" class="st4" cx="804.9" cy="772.3" r="3.3"/>
	<circle id="XMLID_455_" class="st4" cx="734.4" cy="760" r="3.3"/>
	<circle id="XMLID_453_" class="st4" cx="805" cy="647.8" r="3.3"/>
	<circle id="XMLID_452_" class="st4" cx="734.4" cy="660.1" r="3.3"/>
	<circle id="XMLID_450_" class="st4" cx="744.1" cy="624.7" r="3.3"/>
	<circle id="XMLID_449_" class="st4" cx="807.6" cy="559.2" r="3.3"/>
	<circle id="XMLID_447_" class="st4" cx="833.9" cy="603.1" r="3.3"/>
	<circle id="XMLID_446_" class="st4" cx="842.8" cy="543.1" r="3.3"/>
	<line id="XMLID_444_" class="st3" x1="837.2" y1="603.1" x2="889.4" y2="603.1"/>
	<line id="XMLID_443_" class="st3" x1="837.2" y1="817.1" x2="889.4" y2="817.1"/>
	<line id="XMLID_441_" class="st3" x1="846.1" y1="543.1" x2="889.4" y2="543.1"/>
	<line id="XMLID_440_" class="st3" x1="846.1" y1="877" x2="889.4" y2="877"/>
	<line id="XMLID_438_" class="st3" x1="734.4" y1="663.4" x2="734.4" y2="704.6"/>
	<line id="XMLID_437_" class="st3" x1="734.4" y1="715.6" x2="734.4" y2="756.8"/>
	<line id="XMLID_435_" class="st3" x1="805" y1="651.1" x2="805" y2="704.7"/>
	<line id="XMLID_434_" class="st3" x1="805" y1="715.6" x2="805" y2="769.1"/>
	<circle id="XMLID_432_" class="st4" cx="805" cy="710.1" r="5.5"/>
	<circle id="XMLID_431_" class="st4" cx="734.4" cy="710.1" r="5.5"/>
	<circle id="XMLID_429_" class="st4" cx="778.1" cy="831.1" r="5.5"/>
	<circle id="XMLID_428_" class="st4" cx="777.3" cy="590.8" r="5.5"/>
	<line id="XMLID_426_" class="st3" x1="805" y1="561.8" x2="780.9" y2="586.6"/>
	<line id="XMLID_425_" class="st3" x1="773.3" y1="594.6" x2="746.4" y2="622.3"/>
	<line id="XMLID_424_" class="st3" x1="746.8" y1="798.7" x2="774.4" y2="827"/>
	<line id="XMLID_422_" class="st3" x1="782.1" y1="835" x2="805.9" y2="859.4"/>
	<circle id="XMLID_421_" class="st4" cx="1045.2" cy="796.3" r="3.3"/>
	<circle id="XMLID_420_" class="st4" cx="981.8" cy="861.7" r="3.3"/>
	<circle id="XMLID_419_" class="st4" cx="947" cy="877" r="3.3"/>
	<circle id="XMLID_418_" class="st4" cx="955.9" cy="817.1" r="3.3"/>
	<circle id="XMLID_416_" class="st4" cx="985" cy="772.3" r="3.3"/>
	<circle id="XMLID_415_" class="st4" cx="1055.3" cy="760" r="3.3"/>
	<circle id="XMLID_413_" class="st4" cx="984.8" cy="647.8" r="3.3"/>
	<circle id="XMLID_412_" class="st4" cx="1055.3" cy="660.1" r="3.3"/>
	<circle id="XMLID_410_" class="st4" cx="1045.7" cy="624.7" r="3.3"/>
	<circle id="XMLID_409_" class="st4" cx="982.2" cy="559.2" r="3.3"/>
	<circle id="XMLID_407_" class="st4" cx="955.9" cy="603.1" r="3.3"/>
	<circle id="XMLID_406_" class="st4" cx="947" cy="543.1" r="3.3"/>
	<line id="XMLID_404_" class="st3" x1="952.6" y1="603.1" x2="900.4" y2="603.1"/>
	<line id="XMLID_403_" class="st3" x1="952.6" y1="817.1" x2="900.4" y2="817.1"/>
	<line id="XMLID_401_" class="st3" x1="943.7" y1="543.1" x2="900.4" y2="543.1"/>
	<line id="XMLID_400_" class="st3" x1="943.7" y1="877" x2="900.4" y2="877"/>
	<line id="XMLID_398_" class="st3" x1="1055.3" y1="663.4" x2="1055.3" y2="704.6"/>
	<line id="XMLID_397_" class="st3" x1="1055.3" y1="715.6" x2="1055.3" y2="756.8"/>
	<line id="XMLID_395_" class="st3" x1="984.8" y1="651.1" x2="984.8" y2="704.7"/>
	<line id="XMLID_394_" class="st3" x1="984.8" y1="715.6" x2="984.8" y2="769.1"/>
	<circle id="XMLID_392_" class="st4" cx="984.8" cy="710.1" r="5.5"/>
	<circle id="XMLID_391_" class="st4" cx="1055.3" cy="710.1" r="5.5"/>
	<circle id="XMLID_389_" class="st4" cx="1011.8" cy="831.1" r="5.5"/>
	<circle id="XMLID_388_" class="st4" cx="1012.6" cy="590.8" r="5.5"/>
	<line id="XMLID_386_" class="st3" x1="984.8" y1="561.8" x2="1008.9" y2="586.6"/>
	<line id="XMLID_385_" class="st3" x1="1016.5" y1="594.6" x2="1043.4" y2="622.3"/>
	<line id="XMLID_383_" class="st3" x1="1043.1" y1="798.7" x2="1015.4" y2="827"/>
	<line id="XMLID_382_" class="st3" x1="1007.8" y1="835" x2="984" y2="859.4"/>
	<line id="XMLID_380_" class="st3" x1="1073.2" y1="834.5" x2="1067.6" y2="778.4"/>
	<line id="XMLID_379_" class="st3" x1="1142.4" y1="800.2" x2="1138.4" y2="778.4"/>
	<line id="XMLID_377_" class="st3" x1="1213.1" y1="877" x2="1254.5" y2="877"/>
	<line id="XMLID_376_" class="st3" x1="1125.1" y1="877" x2="1202.1" y2="877"/>
	<line id="XMLID_375_" class="st3" x1="1215.7" y1="818.4" x2="1254.5" y2="818.4"/>
	<line id="XMLID_374_" class="st3" x1="1170.7" y1="818.4" x2="1205.1" y2="818.4"/>
	<line id="XMLID_373_" class="st3" x1="1348.4" y1="768.5" x2="1348.4" y2="722.3"/>
	<line id="XMLID_371_" class="st3" x1="1348.4" y1="800.1" x2="1348.4" y2="779.4"/>
	<line id="XMLID_370_" class="st3" x1="1277.9" y1="756.1" x2="1277.9" y2="773.8"/>
	<line id="XMLID_369_" class="st3" x1="1277.9" y1="784.8" x2="1277.9" y2="802.9"/>
	<line id="XMLID_368_" class="st3" x1="1259.7" y1="741" x2="1113.9" y2="715.1"/>
	<line id="XMLID_367_" class="st3" x1="1078.6" y1="586.1" x2="1078.6" y2="634.2"/>
	<line id="XMLID_366_" class="st3" x1="1078.6" y1="645.3" x2="1078.6" y2="689.3"/>
	<line id="XMLID_365_" class="st3" x1="1312.7" y1="686.8" x2="1165.4" y2="662.4"/>
	<line id="XMLID_364_" class="st3" x1="1149.3" y1="616.2" x2="1149.3" y2="629.3"/>
	<line id="XMLID_363_" class="st3" x1="1149.3" y1="640.4" x2="1149.3" y2="652.1"/>
	<line id="XMLID_362_" class="st3" x1="1212.5" y1="601.7" x2="1242" y2="601.7"/>
	<line id="XMLID_361_" class="st3" x1="1172.3" y1="601.7" x2="1201.6" y2="601.7"/>
	<line id="XMLID_359_" class="st3" x1="1265.9" y1="616.2" x2="1268.5" y2="630.6"/>
	<line id="XMLID_358_" class="st3" x1="1284.8" y1="543.1" x2="1122.2" y2="543.1"/>
	<circle id="XMLID_357_" class="st4" cx="1066.8" cy="772.9" r="5.5"/>
	<circle id="XMLID_356_" class="st4" cx="1137.4" cy="772.9" r="5.5"/>
	<circle id="XMLID_355_" class="st4" cx="1210.6" cy="818.4" r="5.5"/>
	<circle id="XMLID_354_" class="st4" cx="1207.6" cy="877" r="5.5"/>
	<circle id="XMLID_353_" class="st4" cx="1348.4" cy="773.9" r="5.5"/>
	<circle id="XMLID_352_" class="st4" cx="1277.9" cy="779.3" r="5.5"/>
	<circle id="XMLID_351_" class="st4" cx="1225.8" cy="735" r="5.5"/>
	<circle id="XMLID_350_" class="st4" cx="1159.4" cy="723.1" r="5.5"/>
	<circle id="XMLID_349_" class="st4" cx="1189.2" cy="666.4" r="5.5"/>
	<circle id="XMLID_347_" class="st4" cx="1149.3" cy="634.9" r="5.5"/>
	<circle id="XMLID_346_" class="st4" cx="1207" cy="601.7" r="5.5"/>
	<circle id="XMLID_344_" class="st4" cx="1269.1" cy="636.1" r="5.5"/>
	<circle id="XMLID_343_" class="st4" cx="1339.7" cy="636.1" r="5.5"/>
	<circle id="XMLID_342_" class="st4" cx="1209.1" cy="543.1" r="5.5"/>
	<circle id="XMLID_340_" class="st4" cx="1078.6" cy="639.7" r="5.5"/>
	<circle id="XMLID_339_" class="st4" cx="1249.8" cy="676.4" r="5.5"/>
	<circle id="XMLID_338_" class="st4" cx="1073.7" cy="837.8" r="3.3"/>
	<circle id="XMLID_337_" class="st4" cx="1143" cy="803.3" r="3.3"/>
	<circle id="XMLID_334_" class="st4" cx="1167.4" cy="818.4" r="3.3"/>
	<circle id="XMLID_333_" class="st4" cx="1122.4" cy="877" r="3.3"/>
	<circle id="XMLID_332_" class="st4" cx="1257.8" cy="877" r="3.3"/>
	<circle id="XMLID_329_" class="st4" cx="1348.4" cy="803.3" r="3.3"/>
	<circle id="XMLID_326_" class="st4" cx="1348.4" cy="719.1" r="3.3"/>
	<circle id="XMLID_315_" class="st4" cx="1315.9" cy="687.3" r="3.3"/>
	<circle id="XMLID_313_" class="st4" cx="1257.8" cy="818.4" r="3.3"/>
	<circle id="XMLID_311_" class="st4" cx="1277.9" cy="806.2" r="3.3"/>
	<circle id="XMLID_310_" class="st4" cx="1277.9" cy="752.8" r="3.3"/>
	<circle id="XMLID_309_" class="st4" cx="1262.8" cy="741.6" r="3.3"/>
	<circle id="XMLID_308_" class="st4" cx="1110.7" cy="714.6" r="3.3"/>
	<circle id="XMLID_307_" class="st4" cx="1078.6" cy="691.8" r="3.3"/>
	<circle id="XMLID_306_" class="st4" cx="1162.2" cy="661.8" r="3.3"/>
	<circle id="XMLID_297_" class="st4" cx="1149.3" cy="655.4" r="3.3"/>
	<circle id="XMLID_298_" class="st4" cx="1149.3" cy="613" r="3.3"/>
	<circle id="XMLID_299_" class="st4" cx="1078.6" cy="582.4" r="3.3"/>
	<circle id="XMLID_300_" class="st4" cx="1168.7" cy="601.7" r="3.3"/>
	<circle id="XMLID_301_" class="st4" cx="1245.3" cy="601.7" r="3.3"/>
	<circle id="XMLID_304_" class="st4" cx="1284.8" cy="543.1" r="3.3"/>
	<circle id="XMLID_305_" class="st4" cx="1333.2" cy="578.5" r="3.3"/>
	<circle id="XMLID_302_" class="st4" cx="1265.4" cy="613" r="3.3"/>
	<circle id="XMLID_303_" class="st4" cx="1122.2" cy="543.1" r="3.3"/>
	<line id="XMLID_296_" class="st3" x1="1333.5" y1="581.8" x2="1339" y2="630.6"/>
	<circle id="XMLID_295_" class="st4" cx="1311.6" cy="848.8" r="5.5"/>
	<circle id="XMLID_294_" class="st4" cx="1288.5" cy="867" r="3.3"/>
	<circle id="XMLID_293_" class="st4" cx="1338.2" cy="827" r="3.3"/>
	<line id="XMLID_292_" class="st3" x1="1315.7" y1="845.2" x2="1335.6" y2="829.1"/>
	<line id="XMLID_312_" class="st3" x1="1291.1" y1="865.1" x2="1307.1" y2="851.8"/>
</g>
<g id="XMLID_478_" class="st5">
	<g id="XMLID_288_">
		<text transform="matrix(1 0 0 1 149.8046 534.0317)" class="st6 st7 st8">565.695</text>
	</g>
	<g id="XMLID_285_">
		<text transform="matrix(1 0 0 1 21.9388 653.8915)" class="st6 st7 st8">305.22</text>
	</g>
	<g id="XMLID_282_">
		<text transform="matrix(1 0 0 1 99.8489 652.1308)" class="st6 st7 st8">444.551 </text>
	</g>
	<g id="XMLID_279_">
		<text transform="matrix(1 0 0 1 137.8113 656.3901)" class="st6 st7 st8">518.106</text>
	</g>
	<g id="XMLID_341_">
		<text transform="matrix(1 0 0 1 202.8517 658.6543)" class="st6 st7 st8">704.822</text>
	</g>
	<g id="XMLID_274_">
		<text transform="matrix(1 0 0 1 153.9683 589.9518)" class="st6 st7 st8">571.883</text>
	</g>
	<g id="XMLID_271_">
		<text transform="matrix(1 0 0 1 70.644 660.2374)" class="st6 st7 st8">433.466</text>
	</g>
	<g id="XMLID_316_">
		<text transform="matrix(1 0 0 1 308.7075 656.3901)" class="st6 st7 st8">840.5 </text>
	</g>
	<g id="XMLID_266_">
		<text transform="matrix(1 0 0 1 336.4373 539.8237)" class="st6 st7 st8">936.344</text>
	</g>
	<g id="XMLID_263_">
		<text transform="matrix(1 0 0 1 403.5182 539.8237)" class="st6 st7 st8">1072.501</text>
	</g>
	<g id="XMLID_260_">
		<text transform="matrix(1 0 0 1 386.2138 581.1651)" class="st6 st7 st8">1072.501</text>
	</g>
	<g id="XMLID_223_">
		<text transform="matrix(1 0 0 1 428.3037 721.512)" class="st6 st7 st8">1077.001</text>
	</g>
	<g id="XMLID_220_">
		<text transform="matrix(1 0 0 1 405.7863 883.5707)" class="st6 st7 st8">1077.001</text>
	</g>
	<g id="XMLID_215_">
		<text transform="matrix(1 0 0 1 336.4373 883.5707)" class="st6 st7 st8">936.344</text>
	</g>
	<g id="XMLID_212_">
		<text transform="matrix(1 0 0 1 439.3605 590.4454)" class="st6 st7 st8">1102.368</text>
	</g>
	<g id="XMLID_209_">
		<text transform="matrix(1 0 0 1 505.5576 539.8237)" class="st6 st7 st8">1282.918</text>
	</g>
	<g id="XMLID_203_">
		<text transform="matrix(1 0 0 1 537.5629 539.8237)" class="st6 st7 st8">1332.175</text>
	</g>
	<g id="XMLID_199_">
		<text transform="matrix(1 0 0 1 562.7903 459.5883)" class="st6 st7 st8">1390.142</text>
	</g>
	<g id="XMLID_378_">
		<text transform="matrix(1 0 0 1 540.2299 776.2842)" class="st6 st7 st8">1390.142</text>
	</g>
	<g id="XMLID_314_">
		<text transform="matrix(1 0 0 1 633.7985 459.5883)" class="st6 st7 st8">1531.145</text>
	</g>
	<g id="XMLID_328_">
		<text transform="matrix(1 0 0 1 651.1019 543.085)" class="st6 st7 st8">1531.145</text>
	</g>
	<g id="XMLID_345_">
		<text transform="matrix(1 0 0 1 652.8529 621.3697)" class="st6 st7 st8">1531.145</text>
	</g>
	<g id="XMLID_372_">
		<text transform="matrix(1 0 0 1 655.1108 767.8027)" class="st6 st7 st8">1531.145</text>
	</g>
	<g id="XMLID_348_">
		<text transform="matrix(1 0 0 1 726.1155 604.3221)" class="st6 st7 st8">1680.173</text>
	</g>
	<g id="XMLID_393_">
		<text transform="matrix(1 0 0 1 745.5904 586.6617)" class="st6 st7 st8">1794.454</text>
	</g>
	<g id="XMLID_182_">
		<text transform="matrix(1 0 0 1 882.6868 532.2474)" class="st6 st7 st8">2029.036</text>
	</g>
	<g id="XMLID_219_">
		<text transform="matrix(1 0 0 1 882.6868 616.7393)" class="st6 st7 st8">2029.036</text>
	</g>
	<g id="XMLID_417_">
		<text transform="matrix(1 0 0 1 1022.3419 587.9108)" class="st6 st7 st8">2263.631</text>
	</g>
	<g id="XMLID_423_">
		<text transform="matrix(1 0 0 1 1064.7672 711.301)" class="st6 st7 st8">2348.951</text>
	</g>
	<g id="XMLID_427_">
		<text transform="matrix(1 0 0 1 1049.0884 641.596)" class="st6 st7 st8">2395.33</text>
	</g>
	<g id="XMLID_430_">
		<text transform="matrix(1 0 0 1 1197.0365 532.2484)" class="st6 st7 st8">2655.357</text>
	</g>
	<g id="XMLID_433_">
		<text transform="matrix(1 0 0 1 1158.7802 636.5706)" class="st6 st7 st8">2536.258</text>
	</g>
	<g id="XMLID_436_">
		<text transform="matrix(1 0 0 1 1177.3751 656.3901)" class="st6 st7 st8">2615.962</text>
	</g>
	<g id="XMLID_439_">
		<text transform="matrix(1 0 0 1 1195.9271 616.1953)" class="st6 st7 st8">2651.514</text>
	</g>
	<g id="XMLID_442_">
		<text transform="matrix(1 0 0 1 1238.0311 665.0944)" class="st6 st7 st8">2736.681</text>
	</g>
	<g id="XMLID_445_">
		<text transform="matrix(1 0 0 1 1257.5011 651.1611)" class="st6 st7 st8">2775.251</text>
	</g>
	<g id="XMLID_472_">
		<text transform="matrix(1 0 0 1 1328.1719 651.1611)" class="st6 st7 st8">2915.905</text>
	</g>
	<g id="XMLID_448_">
		<text transform="matrix(1 0 0 1 1147.2527 738.3404)" class="st6 st7 st8">2556.435</text>
	</g>
	<g id="XMLID_460_">
		<text transform="matrix(1 0 0 1 1125.4595 762.3934)" class="st6 st7 st8">2512.606</text>
	</g>
	<g id="XMLID_463_">
		<text transform="matrix(1 0 0 1 1068.9929 763.3124)" class="st6 st7 st8">2371.946</text>
	</g>
	<g id="XMLID_466_">
		<text transform="matrix(1 0 0 1 1197.1078 891.5884)" class="st6 st7 st8">2652.64</text>
	</g>
	<g id="XMLID_469_">
		<text transform="matrix(1 0 0 1 1319.3348 859.5031)" class="st6 st7 st8">2859.912</text>
	</g>
	<g id="XMLID_17_">
		<text transform="matrix(1 0 0 1 1358.0648 775.251)" class="st6 st7 st8">2933.333</text>
	</g>
	<g id="XMLID_451_">
		<text transform="matrix(1 0 0 1 1213.6324 750.5788)" class="st6 st7 st8">2688.833</text>
	</g>
	<g id="XMLID_454_">
		<text transform="matrix(1 0 0 1 1246.4082 781.1534)" class="st6 st7 st8">2792.68</text>
	</g>
	<g id="XMLID_457_">
		<text transform="matrix(1 0 0 1 1198.6664 808.2426)" class="st6 st7 st8">2658.681</text>
	</g>
	<g id="XMLID_396_">
		<text transform="matrix(1 0 0 1 882.6849 805.8149)" class="st6 st7 st8">2029.036</text>
	</g>
	<g id="XMLID_399_">
		<text transform="matrix(1 0 0 1 882.6849 891.5884)" class="st6 st7 st8">2029.036</text>
	</g>
	<g id="XMLID_402_">
		<text transform="matrix(1 0 0 1 751.2574 843.704)" class="st6 st7 st8">1796.057</text>
	</g>
	<g id="XMLID_405_">
		<text transform="matrix(1 0 0 1 701.252 711.5676)" class="st6 st7 st8">1709.134</text>
	</g>
	<g id="XMLID_408_">
		<text transform="matrix(1 0 0 1 815.0034 711.5676)" class="st6 st7 st8">1849.794</text>
	</g>
	<g id="XMLID_411_">
		<text transform="matrix(1 0 0 1 952.5286 711.5676)" class="st6 st7 st8">2208.29</text>
	</g>
	<g id="XMLID_414_">
		<text transform="matrix(1 0 0 1 1017.21 842.451)" class="st6 st7 st8">2262.027</text>
	</g>
	<g id="XMLID_381_">
		<text transform="matrix(1 0 0 1 710.0665 796.3196)" class="st6 st7 st8">1680.173</text>
	</g>
	<g id="XMLID_387_">
		<text transform="matrix(1 0 0 1 708.3409 883.5707)" class="st6 st7 st8">1680.173</text>
	</g>
	<g id="XMLID_384_">
		<text transform="matrix(1 0 0 1 678.4695 796.3196)" class="st6 st7 st8">1627.895</text>
	</g>
	<g id="XMLID_390_">
		<text transform="matrix(1 0 0 1 684.2586 883.5707)" class="st6 st7 st8">1621</text>
	</g>
	<g id="XMLID_360_">
		<text transform="matrix(1 0 0 1 724.8616 543.085)" class="st6 st7 st8">1680.173</text>
	</g>
	<g id="XMLID_3_">
		<text transform="matrix(1 0 0 1 534.0531 631.3454)" class="st6 st7 st8">1332.175</text>
	</g>
	<g id="XMLID_4_">
		<text transform="matrix(1 0 0 1 501.9756 631.3454)" class="st6 st7 st8">1274.918</text>
	</g>
	<g id="XMLID_317_">
		<text transform="matrix(1 0 0 1 290.6536 883.5707)" class="st6 st7 st8">840.5 </text>
	</g>
	<g id="XMLID_318_">
		<text transform="matrix(1 0 0 1 224.2631 883.5707)" class="st6 st7 st8">709.49</text>
	</g>
	<g id="XMLID_321_">
		<text transform="matrix(1 0 0 1 112.7383 891.5874)" class="st6 st7 st8">490.401</text>
	</g>
	<g id="XMLID_322_">
		<text transform="matrix(1 0 0 1 19.8733 859.5021)" class="st6 st7 st8">328.49</text>
	</g>
	<g id="XMLID_323_">
		<text transform="matrix(1 0 0 1 136.1643 810.1996)" class="st6 st7 st8">537.048</text>
	</g>
	<g id="XMLID_324_">
		<text transform="matrix(1 0 0 1 91.9509 770.5888)" class="st6 st7 st8">408.568</text>
	</g>
	<g id="XMLID_335_">
		<text transform="matrix(1 0 0 1 -19.9817 774.1592)" class="st6 st7 st8">266.667</text>
	</g>
	<g id="XMLID_336_">
		<text transform="matrix(1 0 0 1 14.5715 691.1728)" class="st6 st7 st8">329.705</text>
	</g>
	<g id="XMLID_325_">
		<text transform="matrix(1 0 0 1 139.0252 730.8647)" class="st6 st7 st8">543.005</text>
	</g>
	<g id="XMLID_327_">
		<text transform="matrix(1 0 0 1 201.2936 724.3461)" class="st6 st7 st8">704.822</text>
	</g>
	<g id="XMLID_330_">
		<text transform="matrix(1 0 0 1 199.297 743.3971)" class="st6 st7 st8">704.822</text>
	</g>
	<g id="XMLID_331_">
		<text transform="matrix(1 0 0 1 189.8501 790.0432)" class="st6 st7 st8">655</text>
	</g>
	<g id="XMLID_319_">
		<text transform="matrix(1 0 0 1 228.4418 828.7927)" class="st6 st7 st8">709.49</text>
	</g>
	<g id="XMLID_320_">
		<text transform="matrix(1 0 0 1 202.3702 828.7927)" class="st6 st7 st8">679.927 </text>
	</g>
</g>
</svg>
