<?xml version="1.0" encoding="utf-8"?>
<!-- Generator: Adobe Illustrator 19.0.0, SVG Export Plug-In . SVG Version: 6.00 Build 0)  -->
<svg version="1.1" id="Layer_1" xmlns="http://www.w3.org/2000/svg" xmlns:xlink="http://www.w3.org/1999/xlink" x="0px" y="0px"
	 viewBox="0 0 1500 1000" style="enable-background:new 0 0 1500 1000;" xml:space="preserve">
<style type="text/css">
	.st0{fill:#36AFA7;}
	.st1{fill:#FFFFFF;}
</style>
<g id="XMLID_1291_">
	<g id="XMLID_399_">
		<path id="XMLID_400_" class="st0" d="M75.4,2.5l49.2,137.1h-13.6L95.4,95.2H32.2l-15.6,44.4H3.4l49-137.1H75.4z M60.1,15.9
			L36.2,83.7h55.1L67.5,15.9H60.1z"/>
		<path id="XMLID_403_" class="st0" d="M244.8,64.3c22.3,4.6,35.7,15.6,35.7,38c0,11.3-4.4,20.7-13.2,28.4
			c-8.8,7.5-21.3,11.3-37.4,11.3c-30.5,0-50.3-15.2-54-39.2h13.2c3.8,18.6,19.8,27.6,41.3,27.6c10.8,0,19.6-2.5,26.7-7.7
			s10.8-11.9,10.8-20.5c0-15.4-9-22.5-26.7-26.3l-26.7-5.6c-21.3-4.4-32.1-15.7-32.1-33.8c0-10.6,4-19.4,12.3-26.3S214.4,0,228.8,0
			c27.1,0,44.9,14.2,48.2,35.7h-12.9c-4-16.1-15.9-24.2-35.7-24.2c-19.2,0-33.4,9.6-33.4,25.2c0,12.9,8.1,19,24,22.3L244.8,64.3z"/>
		<path id="XMLID_405_" class="st0" d="M362.6,139.6v-10.8h-3.8c-6.1,7.9-17.5,13.2-31.1,13.2c-10.9,0-19.4-3.1-25.5-9
			c-6.1-6-9.2-13.2-9.2-21.9c0-8.6,2.9-16.1,8.6-22.3c6-6.1,15-9.2,27.3-9.2h33.4v-6c0-13.1-8.3-21.9-25.9-21.9
			c-15.4,0-24.2,6-25,16.5h-12.1c1.3-17.1,15.7-27.3,37.1-27.3c23.2,0,38,12.1,38,31.9v66.6H362.6z M352.7,122.7
			c6.3-5.8,9.6-12.9,9.6-21.5V89.9h-30.1c-17.1,0-27.1,8.1-27.1,20.4c0,13.2,9.8,21.1,24.4,21.1
			C338.4,131.3,346.3,128.4,352.7,122.7z"/>
		<path id="XMLID_408_" class="st0" d="M480.3,139.6h-12.1V80.6c0-19.2-8.8-28.8-26.7-28.8c-9.2,0-16.9,3.5-22.8,10.4
			c-6,6.9-8.8,15.2-8.8,24.8v52.6h-12.1v-96h11.7v10.8h3.8c5.4-7.7,17.1-13.2,30-13.2c23,0,37.1,14.2,37.1,36.7V139.6z"/>
		<path id="XMLID_410_" class="st0" d="M495.3,112.9h11.9c2.3,11.7,12.7,18.4,28.6,18.4c16.9,0,27.3-6.7,27.3-18.4
			c0-9.6-6.3-15.4-19-17.3c-5.6-0.8-13.2-2.1-22.8-4c-14.8-2.9-22.1-10.6-22.1-23c0-16.3,13.1-27.5,36.9-27.5
			c21.3,0,34.6,10.4,36.7,26.7h-11.9c-1-10-11.7-15.9-25.5-15.9c-15.2,0-24,5.8-24,15.6c0,8.3,5,12.3,16.3,14.4l21.3,3.5
			c17.5,3.3,26.3,12.3,26.3,27.3c0,8.3-3.5,15.2-10.4,20.9c-6.7,5.8-16.1,8.6-27.8,8.6C511.6,142.1,497.8,131.3,495.3,112.9z"/>
	</g>
	<g id="XMLID_386_">
		<path id="XMLID_387_" class="st0" d="M17.8,298.2h78.9v11.9H5.1V173.1h12.7V298.2z"/>
		<path id="XMLID_389_" class="st0" d="M126.3,185.7H113v-15.2h13.2V185.7z M125.7,214.1v96h-12.1v-96H125.7z"/>
		<path id="XMLID_392_" class="st0" d="M222.8,214.1h11.7v91.2c0,27.1-16.3,44.4-43.4,44.4c-23.8,0-39-10.4-42.2-28.2h11.9
			c2.9,11.7,12.9,17.5,30.1,17.5c20.9,0,31.5-12.1,31.5-33.6v-8.4h-3.8c-7.1,8.8-17.3,13.2-30.5,13.2c-13.1,0-23.4-4.6-31.3-13.8
			c-7.9-9.2-11.7-20.9-11.7-35.3s3.8-26.1,11.7-35.3c7.9-9.4,18.2-14,31.3-14c13.2,0,23.6,4.4,30.9,13.2h3.8V214.1z M214,288.4
			c5.6-7.5,8.4-16.5,8.4-27.5s-2.9-20-8.4-27.5c-5.6-7.5-13.8-11.1-24.6-11.1c-20.2,0-32.3,15-32.3,38.6c0,23.2,12.1,38.4,32.3,38.4
			C200.2,299.4,208.4,295.7,214,288.4z"/>
		<path id="XMLID_395_" class="st0" d="M342.1,310.1H330v-58.9c0-19.2-8.8-28.8-26.7-28.8c-9.2,0-16.9,3.5-22.8,10.4
			c-6,6.9-8.8,15.2-8.8,24.8v52.6h-12.1V170.6h12.1v54.3h3.8c5.4-7.7,17.1-13.2,29.6-13.2c23,0,37.1,14.2,37.1,36.7V310.1z"/>
		<path id="XMLID_397_" class="st0" d="M384.3,214.1h25.5v10.8h-25.5v58.2c0,11.3,5.2,16.3,19,16.3h6.5v10.8h-6.7
			c-20.9,0-30.9-7.3-30.9-25.7v-59.5h-17.7v-10.8h17.7v-29.8h12.1V214.1z"/>
	</g>
</g>
<g id="XMLID_377_">
	<path id="XMLID_378_" class="st1" d="M760.6,175.7h75.5v15l-36.9,32.6v3.8c12.7,0,23,3.6,30.9,11.1c7.9,7.3,11.9,17.5,11.9,30.5
		c0,13.6-4.2,24.2-12.9,32.1c-8.6,7.9-19.6,11.7-33,11.7c-12.9,0-23.4-3.6-31.9-10.9c-8.3-7.3-12.9-16.5-13.4-27.8h12.5
		c0.6,8.3,4,14.8,10.2,20c6.3,5.2,13.8,7.7,22.7,7.7c20,0,33.4-12.7,33.4-32.6c0-19.4-12.3-31.1-33.2-31.1c-4.8,0-8.4,0.4-11.3,1.2
		v-15.7l36.1-32.4v-3.8h-60.5V175.7z"/>
	<path id="XMLID_380_" class="st1" d="M903.1,173.1c14.6,0,26.3,6,34.9,17.7c8.8,11.7,13.2,29,13.2,52.2c0,23.2-4.4,40.5-13.2,52.2
		c-8.6,11.7-20.4,17.5-34.9,17.5c-14.6,0-26.3-5.8-35.1-17.5c-8.6-11.7-13.1-29-13.1-52.2c0-23.2,4.4-40.5,13.1-52.2
		C876.8,179,888.5,173.1,903.1,173.1z M903.1,301.5c11.7,0,20.5-5,26.5-15c6.1-10,9.2-24.6,9.2-43.6c0-19-3.1-33.6-9.2-43.6
		c-6-10.2-14.8-15.2-26.5-15.2s-20.5,5-26.7,15.2c-6,10-9,24.6-9,43.6c0,19,3.1,33.6,9,43.6C882.5,296.5,891.4,301.5,903.1,301.5z"
		/>
	<path id="XMLID_383_" class="st1" d="M1013.7,173.1c14.6,0,26.3,6,34.9,17.7c8.8,11.7,13.2,29,13.2,52.2c0,23.2-4.4,40.5-13.2,52.2
		c-8.6,11.7-20.4,17.5-34.9,17.5c-14.6,0-26.3-5.8-35.1-17.5c-8.6-11.7-13.1-29-13.1-52.2c0-23.2,4.4-40.5,13.1-52.2
		C987.4,179,999.1,173.1,1013.7,173.1z M1013.7,301.5c11.7,0,20.5-5,26.5-15c6.1-10,9.2-24.6,9.2-43.6c0-19-3.1-33.6-9.2-43.6
		c-6-10.2-14.8-15.2-26.5-15.2s-20.5,5-26.7,15.2c-6,10-9,24.6-9,43.6c0,19,3.1,33.6,9,43.6C993.1,296.5,1002,301.5,1013.7,301.5z"
		/>
</g>
<g id="XMLID_286_">
	<g id="XMLID_1050_">
		<path id="XMLID_1138_" class="st1" d="M13.4,471.4c4.2,0,7.5,1.4,9.9,4.3s3.5,6.5,3.5,10.9c0,4.4-1.2,8-3.5,10.9s-5.7,4.3-9.9,4.3
			s-7.5-1.4-9.9-4.3S0,491,0,486.6c0-4.4,1.2-8,3.5-10.9S9.2,471.4,13.4,471.4z M13.4,499.3c1.8,0,3.4-0.4,4.8-1.1
			c2.8-1.4,4.4-4,5.2-6.9c1.5-6.1,0.3-13.6-5.2-16.3c-1.4-0.7-3-1.1-4.8-1.1s-3.4,0.4-4.9,1.1c-2.8,1.4-4.4,4-5.2,6.9
			c-1.7,6-0.2,13.6,5.2,16.3C10,498.9,11.5,499.3,13.4,499.3z"/>
		<path id="XMLID_1135_" class="st1" d="M49.4,498.9h3.8v8.1h-2.6v-5.9H31.9v5.9h-2.6v-8.1h2.6c1.9-3.6,2.8-7.9,2.8-12.7v-5.5h14.7
			V498.9z M46.8,498.9V483h-9.7v3.2c0,5.1-0.8,9.4-2.5,12.7H46.8z"/>
		<path id="XMLID_1132_" class="st1" d="M75.1,490.5H59.2v0.6c0,5.1,2.8,8.4,7.2,8.4c3.1,0,5.1-1.4,5.8-3.6h2.6
			c-0.7,3.4-3.6,5.9-8.4,5.9c-3.1,0-5.4-1-7.2-3.1c-1.7-2.1-2.6-4.7-2.6-7.9c0-3.2,0.9-5.7,2.6-7.6c1.7-1.9,4.1-2.9,7.1-2.9
			c2.8,0,5,0.9,6.5,2.8c1.5,1.8,2.3,4.1,2.3,6.7V490.5z M59.4,488.2h13.1c-0.2-3.1-2.6-5.7-6.2-5.7C62.3,482.5,59.9,485,59.4,488.2z
			"/>
		<path id="XMLID_1130_" class="st1" d="M85.8,491.9l-4.1,9.3h-2.8l4.6-10.5l-4.3-10H82l3.8,8.8h5.8v-8.8h2.6v8.8h5.8l3.8-8.8h2.7
			l-4.3,10l4.6,10.5H104l-4.1-9.3h-5.8v9.3h-2.6v-9.3H85.8z"/>
		<path id="XMLID_1127_" class="st1" d="M129.5,498.9h3.8v8.1h-2.6v-5.9H112v5.9h-2.6v-8.1h2.6c1.9-3.6,2.8-7.9,2.8-12.7v-5.5h14.7
			V498.9z M126.9,498.9V483h-9.7v3.2c0,5.1-0.8,9.4-2.5,12.7H126.9z"/>
		<path id="XMLID_1124_" class="st1" d="M151.2,501.2v-2.3h-0.8c-1.3,1.7-3.7,2.8-6.6,2.8c-2.3,0-4.1-0.7-5.4-1.9
			c-1.3-1.3-2-2.8-2-4.7c0-1.8,0.6-3.4,1.8-4.7c1.3-1.3,3.2-2,5.8-2h7.1v-1.3c0-2.8-1.8-4.7-5.5-4.7c-3.3,0-5.2,1.3-5.3,3.5h-2.6
			c0.3-3.6,3.4-5.8,7.9-5.8c5,0,8.1,2.6,8.1,6.8v14.2H151.2z M149.1,497.6c1.4-1.2,2-2.7,2-4.6v-2.4h-6.4c-3.6,0-5.8,1.7-5.8,4.3
			c0,2.8,2.1,4.5,5.2,4.5C146.1,499.4,147.8,498.8,149.1,497.6z"/>
		<path id="XMLID_1122_" class="st1" d="M189.2,501.2h-2.6V483h-12.3v18.2h-2.6v-20.5h17.5V501.2z"/>
		<path id="XMLID_1119_" class="st1" d="M199.6,498.9h-0.8v10.5h-2.6v-28.7h2.5v2.3h0.8c1.5-1.9,3.7-2.8,6.6-2.8c2.8,0,5,1,6.6,3.1
			c1.7,2,2.5,4.6,2.5,7.7c0,3.2-0.8,5.7-2.5,7.7c-1.6,2-3.8,3-6.7,3C203.2,501.7,201.1,500.8,199.6,498.9z M200.5,484.9
			c-1.2,1.6-1.8,3.6-1.8,6c0,2.4,0.6,4.4,1.8,6c1.2,1.6,2.9,2.5,5.3,2.5c4.4,0,6.9-3.4,6.9-8.5s-2.5-8.5-6.9-8.5
			C203.5,482.5,201.7,483.3,200.5,484.9z"/>
		<path id="XMLID_1116_" class="st1" d="M236.7,483.3c1.8,2,2.7,4.6,2.7,7.7s-0.9,5.7-2.7,7.7c-1.8,2-4.1,3.1-7.2,3.1
			c-3.1,0-5.5-1-7.2-3.1c-1.8-2-2.6-4.6-2.6-7.7s0.9-5.7,2.6-7.7c1.8-2,4.2-3.1,7.2-3.1C232.6,480.2,234.9,481.2,236.7,483.3z
			 M229.5,499.4c2.3,0,4.1-0.8,5.4-2.5c1.3-1.7,1.9-3.7,1.9-6s-0.6-4.3-1.9-6c-1.3-1.7-3.1-2.5-5.4-2.5s-4.1,0.8-5.4,2.5
			c-1.3,1.6-1.9,3.6-1.9,6s0.6,4.3,1.9,6C225.4,498.6,227.2,499.4,229.5,499.4z"/>
		<path id="XMLID_1112_" class="st1" d="M256.9,501.2v8.2h-2.6v-8.2h-0.7c-3.1,0-5.5-0.9-7.3-2.8c-1.8-1.9-2.6-4.3-2.6-7.4
			s0.9-5.5,2.6-7.4c1.8-1.9,4.2-2.8,7.3-2.8h0.7v-9.3h2.6v9.3h0.7c3.1,0,5.5,0.9,7.3,2.8c1.8,1.9,2.6,4.3,2.6,7.4s-0.9,5.5-2.6,7.4
			c-1.8,1.9-4.2,2.8-7.3,2.8H256.9z M254.3,498.9V483h-0.7c-4.8,0-7.3,3.4-7.3,7.9c0,4.6,2.6,7.9,7.3,7.9H254.3z M256.9,498.9h0.7
			c4.8,0,7.3-3.4,7.3-7.9c0-4.6-2.6-7.9-7.3-7.9h-0.7V498.9z"/>
		<path id="XMLID_1109_" class="st1" d="M290.4,490.5h-15.9v0.6c0,5.1,2.8,8.4,7.2,8.4c3.1,0,5.1-1.4,5.8-3.6h2.6
			c-0.7,3.4-3.6,5.9-8.4,5.9c-3.1,0-5.4-1-7.2-3.1c-1.7-2.1-2.6-4.7-2.6-7.9c0-3.2,0.9-5.7,2.6-7.6c1.7-1.9,4.1-2.9,7.1-2.9
			c2.8,0,5,0.9,6.5,2.8c1.5,1.8,2.3,4.1,2.3,6.7V490.5z M274.6,488.2h13.1c-0.2-3.1-2.6-5.7-6.2-5.7
			C277.6,482.5,275.1,485,274.6,488.2z"/>
		<path id="XMLID_1107_" class="st1" d="M312.8,495.3c-0.9,3.9-3.8,6.4-8.3,6.4c-3.1,0-5.4-1-7.2-3.1c-1.7-2-2.6-4.6-2.6-7.7
			c0-3.1,0.9-5.7,2.6-7.7c1.8-2,4.1-3.1,7.2-3.1c4.6,0,7.4,2.5,8.2,6.2h-2.6c-0.8-2.6-2.7-3.9-5.7-3.9c-2.4,0-4.2,0.8-5.4,2.4
			s-1.8,3.6-1.8,6c0,2.4,0.6,4.5,1.8,6.1s3,2.5,5.4,2.5c3.2,0,5-1.4,5.7-4.1H312.8z"/>
		<path id="XMLID_1105_" class="st1" d="M335,495.3c-0.9,3.9-3.8,6.4-8.3,6.4c-3.1,0-5.4-1-7.2-3.1c-1.7-2-2.6-4.6-2.6-7.7
			c0-3.1,0.9-5.7,2.6-7.7c1.8-2,4.1-3.1,7.2-3.1c4.6,0,7.4,2.5,8.2,6.2h-2.6c-0.8-2.6-2.7-3.9-5.7-3.9c-2.4,0-4.2,0.8-5.4,2.4
			s-1.8,3.6-1.8,6c0,2.4,0.6,4.5,1.8,6.1s3,2.5,5.4,2.5c3.2,0,5-1.4,5.7-4.1H335z"/>
		<path id="XMLID_1103_" class="st1" d="M344.9,501.2h-4.5v-20.5h2.6v17.9h0.8l9.5-17.9h4.8v20.5h-2.6v-17.9h-0.8L344.9,501.2z"/>
		<path id="XMLID_1100_" class="st1" d="M380.7,483.3c1.8,2,2.7,4.6,2.7,7.7s-0.9,5.7-2.7,7.7c-1.8,2-4.1,3.1-7.2,3.1
			c-3.1,0-5.5-1-7.2-3.1c-1.8-2-2.6-4.6-2.6-7.7s0.9-5.7,2.6-7.7s4.2-3.1,7.2-3.1C376.6,480.2,378.9,481.2,380.7,483.3z
			 M373.5,499.4c2.3,0,4.1-0.8,5.4-2.5c1.3-1.7,1.9-3.7,1.9-6s-0.6-4.3-1.9-6c-1.3-1.7-3.1-2.5-5.4-2.5s-4.1,0.8-5.4,2.5
			c-1.3,1.6-1.9,3.6-1.9,6s0.6,4.3,1.9,6C369.4,498.6,371.2,499.4,373.5,499.4z"/>
		<path id="XMLID_1098_" class="st1" d="M406.7,501.2h-2.6v-9.4h-12.5v9.4H389v-20.5h2.6v8.8h12.5v-8.8h2.6V501.2z"/>
		<path id="XMLID_1095_" class="st1" d="M426.8,501.2v-2.3H426c-1.3,1.7-3.7,2.8-6.6,2.8c-2.3,0-4.1-0.7-5.4-1.9
			c-1.3-1.3-2-2.8-2-4.7c0-1.8,0.6-3.4,1.8-4.7c1.3-1.3,3.2-2,5.8-2h7.1v-1.3c0-2.8-1.8-4.7-5.5-4.7c-3.3,0-5.2,1.3-5.3,3.5h-2.6
			c0.3-3.6,3.4-5.8,7.9-5.8c5,0,8.1,2.6,8.1,6.8v14.2H426.8z M424.7,497.6c1.4-1.2,2-2.7,2-4.6v-2.4h-6.4c-3.6,0-5.8,1.7-5.8,4.3
			c0,2.8,2.1,4.5,5.2,4.5C421.7,499.4,423.4,498.8,424.7,497.6z"/>
		<path id="XMLID_1093_" class="st1" d="M433.6,501.2v-2.4h0.7c1.5,0,2.6-0.7,3.2-2.3c0.6-1.5,0.9-4.2,0.9-8.2v-7.7h14.9v20.5h-2.6
			V483h-9.9v5.4c0,4.8-0.5,8.1-1.5,10c-1,1.9-2.7,2.8-5,2.8H433.6z"/>
		<path id="XMLID_1090_" class="st1" d="M476,483.3c1.8,2,2.7,4.6,2.7,7.7s-0.9,5.7-2.7,7.7c-1.8,2-4.1,3.1-7.2,3.1
			c-3.1,0-5.5-1-7.2-3.1c-1.8-2-2.6-4.6-2.6-7.7s0.9-5.7,2.6-7.7s4.2-3.1,7.2-3.1C471.9,480.2,474.3,481.2,476,483.3z M468.8,499.4
			c2.3,0,4.1-0.8,5.4-2.5c1.3-1.7,1.9-3.7,1.9-6s-0.6-4.3-1.9-6c-1.3-1.7-3.1-2.5-5.4-2.5s-4.1,0.8-5.4,2.5c-1.3,1.6-1.9,3.6-1.9,6
			s0.6,4.3,1.9,6C464.7,498.6,466.5,499.4,468.8,499.4z"/>
		<path id="XMLID_1086_" class="st1" d="M498,490.8c2.1,0.5,3.5,2.3,3.5,4.8c0,3.7-2.5,5.6-7.2,5.6h-9.9v-20.5h9.5
			c4.1,0,6.4,1.9,6.4,5.2c0,1.8-1,3.4-2.3,4.1V490.8z M486.9,483v6.5h7c2.7,0,3.8-1.4,3.8-3.2c0-2.2-1.3-3.3-3.8-3.3H486.9z
			 M494.5,498.9c2.9,0,4.4-1.2,4.4-3.5c0-2.4-1.5-3.6-4.4-3.6h-7.6v7.1H494.5z"/>
		<path id="XMLID_1084_" class="st1" d="M507.9,501.2h-1.8V497h3.4v4.9l-2,3.6h-1.7l2-3.6V501.2z"/>
		<path id="XMLID_1082_" class="st1" d="M15.3,552.6l-4.7-9.4H3.7v9.4H1.1v-20.5h2.6v8.8h6.9l4.4-8.8h2.8l-5,9.9l5.3,10.6H15.3z"/>
		<path id="XMLID_1079_" class="st1" d="M38.4,534.7c1.8,2,2.7,4.6,2.7,7.7c0,3.1-0.9,5.7-2.7,7.7c-1.8,2-4.1,3.1-7.2,3.1
			c-3.1,0-5.5-1-7.2-3.1c-1.8-2-2.6-4.6-2.6-7.7c0-3.1,0.9-5.7,2.6-7.7c1.8-2,4.2-3.1,7.2-3.1C34.2,531.6,36.6,532.6,38.4,534.7z
			 M31.2,550.9c2.3,0,4.1-0.8,5.4-2.5c1.3-1.7,1.9-3.7,1.9-6s-0.6-4.3-1.9-6c-1.3-1.7-3.1-2.5-5.4-2.5s-4.1,0.8-5.4,2.5
			c-1.3,1.6-1.9,3.6-1.9,6s0.6,4.3,1.9,6C27,550,28.8,550.9,31.2,550.9z"/>
		<path id="XMLID_1077_" class="st1" d="M44,534.4v-2.3h17v2.3h-7.2v18.2h-2.6v-18.2H44z"/>
		<path id="XMLID_1074_" class="st1" d="M81.1,534.7c1.8,2,2.7,4.6,2.7,7.7c0,3.1-0.9,5.7-2.7,7.7c-1.8,2-4.1,3.1-7.2,3.1
			c-3.1,0-5.5-1-7.2-3.1c-1.8-2-2.6-4.6-2.6-7.7c0-3.1,0.9-5.7,2.6-7.7c1.8-2,4.2-3.1,7.2-3.1C77,531.6,79.4,532.6,81.1,534.7z
			 M73.9,550.9c2.3,0,4.1-0.8,5.4-2.5c1.3-1.7,1.9-3.7,1.9-6s-0.6-4.3-1.9-6c-1.3-1.7-3.1-2.5-5.4-2.5s-4.1,0.8-5.4,2.5
			c-1.3,1.6-1.9,3.6-1.9,6s0.6,4.3,1.9,6C69.8,550,71.6,550.9,73.9,550.9z"/>
		<path id="XMLID_1071_" class="st1" d="M92.8,550.3H92v10.5h-2.6v-28.7h2.5v2.3h0.8c1.5-1.9,3.7-2.8,6.6-2.8c2.8,0,5,1,6.6,3.1
			c1.7,2,2.5,4.6,2.5,7.7c0,3.2-0.8,5.7-2.5,7.7c-1.6,2-3.8,3-6.7,3C96.5,553.2,94.3,552.2,92.8,550.3z M93.8,536.4
			c-1.2,1.6-1.8,3.6-1.8,6c0,2.4,0.6,4.4,1.8,6c1.2,1.6,2.9,2.5,5.3,2.5c4.4,0,6.9-3.4,6.9-8.5c0-5.1-2.5-8.5-6.9-8.5
			C96.7,533.9,95,534.7,93.8,536.4z"/>
		<path id="XMLID_1069_" class="st1" d="M118.2,560.8h-2.6l4.2-10.1l-8.7-18.6h2.8l6.8,14.5h1l6.1-14.5h2.7L118.2,560.8z"/>
		<path id="XMLID_1066_" class="st1" d="M159.2,534.7c1.7,2,2.6,4.6,2.6,7.7c0,3.1-0.9,5.7-2.6,7.7c-1.7,2-4.1,3.1-7.1,3.1
			c-2.8,0-5.1-0.9-6.8-2.8c-1.7-1.9-2.6-4.3-2.8-7.2h-5.1v9.4h-2.6v-20.5h2.6v8.8h5.2c0.3-2.7,1.2-5,2.9-6.7
			c1.7-1.8,3.9-2.6,6.6-2.6C155.1,531.6,157.4,532.6,159.2,534.7z M152.1,550.9c2.3,0,4-0.8,5.2-2.5c1.2-1.7,1.8-3.6,1.8-6
			s-0.6-4.3-1.8-6c-1.2-1.7-3-2.5-5.2-2.5c-2.3,0-4,0.8-5.2,2.5c-1.2,1.6-1.8,3.6-1.8,6s0.6,4.3,1.8,6
			C148.1,550,149.8,550.9,152.1,550.9z"/>
		<path id="XMLID_1064_" class="st1" d="M176.3,552.6v-2.4h0.7c1.5,0,2.6-0.7,3.2-2.3c0.6-1.5,0.9-4.2,0.9-8.2v-7.7h14.9v20.5h-2.6
			v-18.2h-9.9v5.4c0,4.8-0.5,8.1-1.5,10c-1,1.9-2.7,2.8-5,2.8H176.3z"/>
		<path id="XMLID_1061_" class="st1" d="M227.4,534.7c1.7,2,2.6,4.6,2.6,7.7c0,3.1-0.9,5.7-2.6,7.7c-1.7,2-4.1,3.1-7.1,3.1
			c-2.8,0-5.1-0.9-6.8-2.8c-1.7-1.9-2.6-4.3-2.8-7.2h-5.1v9.4H203v-20.5h2.6v8.8h5.2c0.3-2.7,1.2-5,2.9-6.7c1.7-1.8,3.9-2.6,6.6-2.6
			C223.3,531.6,225.7,532.6,227.4,534.7z M220.3,550.9c2.3,0,4-0.8,5.2-2.5c1.2-1.7,1.8-3.6,1.8-6s-0.6-4.3-1.8-6
			c-1.2-1.7-3-2.5-5.2-2.5s-4,0.8-5.2,2.5c-1.2,1.6-1.8,3.6-1.8,6s0.6,4.3,1.8,6C216.3,550,218.1,550.9,220.3,550.9z"/>
		<path id="XMLID_1058_" class="st1" d="M251.7,535.1c1.7,2,2.5,4.5,2.5,7.5c0,3-0.9,5.5-2.7,7.5c-1.8,2-4.2,3-7.2,3
			c-6.3,0-10-4.5-10-12.3c0-3.2,0.1-5.4,0.8-8.1c0.9-4,3-6.5,7.3-7.4l5.6-0.9c1.6-0.3,1.8-0.5,2-1.6h2.6c-0.2,2.4-1.1,3.6-4,4.1
			l-6.1,1c-3.6,0.6-5,3.2-5.5,7.3h0.8c1.6-2,3.8-3,6.8-3C247.6,532.1,250,533.1,251.7,535.1z M249.6,536.9c-1.3-1.6-3.1-2.4-5.4-2.4
			s-4.2,0.8-5.4,2.4c-1.3,1.6-1.9,3.6-1.9,5.8c0,2.3,0.6,4.2,1.9,5.8c1.3,1.6,3.1,2.4,5.4,2.4s4.1-0.8,5.4-2.4
			c1.3-1.6,1.9-3.5,1.9-5.8C251.6,540.4,250.9,538.5,249.6,536.9z"/>
		<path id="XMLID_1055_" class="st1" d="M276.2,532.1v20.5h-2.6V544h-7.5c-0.5,0-0.9,0-1.1,0l-3.3,8.7h-2.7l3.6-9.3
			c-2.1-0.9-3.2-2.7-3.2-5.3c0-3.7,2.4-5.9,6.7-5.9H276.2z M273.6,534.4h-7.2c-2.9,0-4.4,1.2-4.4,3.6c0,2.4,1.5,3.6,4.4,3.6h7.2
			V534.4z"/>
		<path id="XMLID_1053_" class="st1" d="M280.9,534.4v-2.3h17v2.3h-7.2v18.2h-2.6v-18.2H280.9z"/>
		<path id="XMLID_1051_" class="st1" d="M303,552.6h-3.4v-4.2h3.4V552.6z"/>
	</g>
</g>
<g id="XMLID_1_">
	<path id="XMLID_2_" class="st1" d="M772,498.9h-16.9l-4,11.8h-5l13.3-38.6h8.2l13.4,38.6H776L772,498.9z M756.6,494.4h13.9
		l-5.9-17.3h-2.2L756.6,494.4z"/>
	<path id="XMLID_5_" class="st1" d="M803.5,487.8c8.3,0,12.9,4.3,12.9,11.4c0,7.2-4.6,11.4-12.9,11.4h-16.5v-38.6h26.4v4.4h-21.5
		v11.2H803.5z M802.7,506.4c6.5,0,8.9-2.7,8.9-7.2c0-4.4-2.3-7.1-8.9-7.1h-10.8v14.3H802.7z"/>
	<path id="XMLID_8_" class="st1" d="M849.1,490.9c3.2,1.5,5.4,5,5.4,8.9c0,6.2-4.3,10.9-13.1,10.9h-17.2v-38.6H841
		c8.2,0,12.3,4.5,12.3,9.8c0,3.5-1.4,6.3-4.2,7.8V490.9z M829,488.5h11.8c4.3,0,7.5-1.4,7.5-6.2c0-4.4-3.7-5.9-7.6-5.9H829V488.5z
		 M841.1,506.4c4.4,0,8.5-1.6,8.5-6.9c0-5-3.9-6.7-8.4-6.7H829v13.6H841.1z"/>
	<path id="XMLID_13_" class="st1" d="M866.9,476.6v34.1H862v-38.6h26.4v4.4H866.9z"/>
	<path id="XMLID_16_" class="st1" d="M926.5,506.3v13.9h-4.8v-9.5h-29.2v9.5h-4.8v-13.9h4c2.5-5.2,4.9-13.5,4.9-26.4v-7.8h24.4v34.1
		H926.5z M916.1,476.6h-15v4.2c0,11.9-2.1,20.5-4.3,25.5h19.3V476.6z"/>
	<path id="XMLID_19_" class="st1" d="M960.5,506.3v4.4h-27.7v-38.6h26.8v4.4h-22v11.9h17.7v4.4h-17.7v13.3H960.5z"/>
	<path id="XMLID_21_" class="st1" d="M995.7,506.3v4.4H968v-38.6h26.8v4.4h-22v11.9h17.7v4.4h-17.7v13.3H995.7z M974,467.1v-4.8h4.5
		v4.8H974z M983.9,467.1v-4.8h4.5v4.8H983.9z"/>
	<path id="XMLID_25_" class="st1" d="M1028.5,493.3v17.4h-4.8v-17.4h-10l-7.1,17.4h-5.1l8.1-19.5l-7.6-19h5.1l6.6,16.7h10v-16.7h4.8
		v16.7h10l6.7-16.7h5.1l-7.7,19l8.2,19.5h-5.1l-7.2-17.4H1028.5z"/>
	<path id="XMLID_27_" class="st1" d="M1071.3,475.9c-5.4,0-8.2,2.2-9,6h-5c0.9-6.4,6-10.5,14-10.5c8.8,0,13.3,4.7,13.3,10.2
		c0,4.3-1.8,6.6-4,7.8v1.2c3.1,1.3,5.6,3.8,5.6,9.2c0,6.1-5,11.6-14.5,11.6s-14.7-4.4-15.9-11.3h5.1c1.2,4.6,5.1,6.9,10.9,6.9
		c5.7,0,9.5-2.7,9.5-7.2c0-4.1-2.3-6.9-8.8-6.9h-6.2v-4.4h6.2c5.5,0,7.3-2.9,7.3-6.2C1079.7,478.1,1076.1,475.9,1071.3,475.9z"/>
	<path id="XMLID_29_" class="st1" d="M1098.4,472.1v32.7h1.2l17.9-32.7h7.6v38.6h-4.8V478h-1.2l-17.9,32.7h-7.6v-38.6H1098.4z"/>
	<path id="XMLID_31_" class="st1" d="M1139.7,472.1v32.7h1.2l17.9-32.7h7.6v38.6h-4.8V478h-1.2l-17.9,32.7h-7.6v-38.6H1139.7z
		 M1160.2,461.9c-0.2,5.4-4,8.4-9.5,8.4c-5.2,0-9.2-3-9.3-8.4h3.9c0.1,3,2.2,4.9,5.4,4.9c3.2,0,5.5-1.8,5.5-4.9H1160.2z"/>
	<path id="XMLID_34_" class="st1" d="M1176.3,472.1h4.9v16.5h11.7l7.7-16.5h5.1l-8.6,18.7l9.1,19.8h-5.1l-8.2-17.7h-11.7v17.7h-4.9
		V472.1z"/>
	<path id="XMLID_36_" class="st1" d="M1211,505.9c5.1,0,7.2-3,7.2-19.6v-14.1h25.3v38.6h-4.9v-34.1h-15.9v10.6
		c0,19-3.5,23.5-11.8,23.5h-1.1v-4.8H1211z"/>
	<path id="XMLID_38_" class="st1" d="M1253.4,472.1h8.1l9.7,18.1h1.2l9.6-18.1h8.2v38.6h-4.8v-33h-1.2l-9.9,18.3h-5.1l-9.9-18.3
		h-1.2v33h-4.8V472.1z"/>
	<path id="XMLID_40_" class="st1" d="M1331.2,472.1v38.6h-4.9v-17.6h-21.5v17.6h-4.9v-38.6h4.9v16.4h21.5v-16.4H1331.2z"/>
	<path id="XMLID_42_" class="st1" d="M1375,491.4c0,11.1-6.3,20-18,20c-11.8,0-18-8.9-18-20s6.2-20,18-20
		C1368.8,471.4,1375,480.3,1375,491.4z M1370.1,491.4c0-8-3.9-15.6-13.1-15.6c-9.2,0-13.1,7.5-13.1,15.6s3.9,15.6,13.1,15.6
		C1366.2,507,1370.1,499.5,1370.1,491.4z"/>
	<path id="XMLID_45_" class="st1" d="M1413.8,472.1v38.6h-4.9v-34.1h-21.2v34.1h-4.9v-38.6H1413.8z"/>
	<path id="XMLID_47_" class="st1" d="M766.3,538.1c8.4,0,13.1,4.3,13.1,11.5c0,7.3-4.6,11.6-13.1,11.6h-11.4v15.4H750v-38.6H766.3z
		 M765.5,556.9c6.6,0,9-2.8,9-7.2c0-4.5-2.4-7.2-9-7.2h-10.6v14.5H765.5z"/>
	<path id="XMLID_50_" class="st1" d="M818.2,565.7c-1.6,6.9-6.8,11.7-15.3,11.7c-11.5,0-17.8-8.5-17.8-20s6.4-20,17.9-20
		c7.8,0,13.2,4.2,14.8,10.8h-5.1c-1.5-4.1-4.3-6.4-9.7-6.4c-9,0-13,7.4-13,15.6c0,8.2,3.9,15.6,12.9,15.6c5.4,0,8.9-2.8,10.2-7.2
		H818.2z"/>
	<path id="XMLID_52_" class="st1" d="M852.1,542.5h-12.6v34.2h-4.9v-34.2h-12.7v-4.3h30.2V542.5z"/>
	<path id="XMLID_54_" class="st1" d="M871.6,558.4l9.7-20.3h5.1l-18.4,38.6h-5l5.5-11.6l-14.3-27h5.2l10.7,20.3H871.6z"/>
	<path id="XMLID_56_" class="st1" d="M912.4,541.3c10.6,0,17.6,5.2,17.6,15.6c0,10.5-7,15.6-17.6,15.6h-0.6v5H907v-5h-0.6
		c-10.6,0-17.6-5-17.6-15.6c0-10.4,7-15.6,17.6-15.6h0.6v-4.4h4.8v4.4H912.4z M907,568.1v-22.5h-0.6c-7.8,0-12.8,3.6-12.8,11.2
		c0,7.7,5,11.2,12.8,11.2H907z M912.4,568.1c7.8,0,12.8-3.6,12.8-11.2c0-7.6-5-11.2-12.8-11.2h-0.6v22.5H912.4z"/>
	<path id="XMLID_60_" class="st1" d="M950.3,559.2h-2l-10,17.5H933l11.6-20.4l-9.9-18.2h5.2l8.4,15.4h2l8.5-15.4h5.2l-10,18
		l11.5,20.6H960L950.3,559.2z"/>
	<path id="XMLID_62_" class="st1" d="M1003.1,576.7h-31.4v-38.6h4.9v34.1h20.9v-34.1h4.9v34.1h5.6v13.9h-4.8V576.7z"/>
	<path id="XMLID_64_" class="st1" d="M1017.3,538.1v11c0,3.8,0.1,7.7,9.7,7.7c3.3,0,6.5-0.4,9.2-1.1v-17.7h4.9v38.6h-4.9v-16.4
		c-3,0.6-6.9,1-9.8,1c-13.4,0-14-6.2-14-12.1v-11H1017.3z"/>
	<path id="XMLID_66_" class="st1" d="M1070.9,538.1h4.8v34.1h15.2v-34.1h4.8v38.6H1051v-38.6h4.8v34.1h15.2V538.1z"/>
	<path id="XMLID_68_" class="st1" d="M1150.8,576.7h-45.4v-38.6h4.8v34.1h15.2v-34.1h4.8v34.1h15.2v-34.1h4.8v34.1h5.6v13.9h-4.8
		V576.7z"/>
	<path id="XMLID_70_" class="st1" d="M1167,576.7v-34.1h-9.9v-4.4h14.7v14.7h11.1c8.6,0,13.4,4.5,13.4,11.9
		c0,7.5-4.8,11.9-13.4,11.9H1167z M1182.1,572.4c6.9,0,9.3-2.9,9.3-7.6c0-4.6-2.4-7.6-9.3-7.6h-10.3v15.2H1182.1z"/>
	<path id="XMLID_73_" class="st1" d="M1204.1,576.7v-38.6h4.9v14.7h10.4c8.6,0,13.4,4.5,13.4,11.9c0,7.5-4.8,11.9-13.4,11.9H1204.1z
		 M1218.5,572.4c6.9,0,9.3-2.9,9.3-7.6c0-4.6-2.4-7.6-9.3-7.6h-9.6v15.2H1218.5z M1242.8,538.1v38.6h-4.9v-38.6H1242.8z"/>
	<path id="XMLID_77_" class="st1" d="M1252.7,576.7v-38.6h4.9v14.7h11.1c8.6,0,13.4,4.5,13.4,11.9c0,7.5-4.8,11.9-13.4,11.9H1252.7z
		 M1267.8,572.4c6.9,0,9.3-2.9,9.3-7.6c0-4.6-2.4-7.6-9.3-7.6h-10.3v15.2H1267.8z"/>
	<path id="XMLID_80_" class="st1" d="M1292.5,566.2c1.2,4.2,4.8,6.8,10.2,6.8c8.4,0,12.4-6.5,12.7-14h-18.1v-4.3h18
		c-0.7-7-4.5-12.9-12.6-12.9c-5.3,0-8.3,2.2-9.8,6.1h-5.1c1.7-6.5,7.1-10.5,14.9-10.5c11.4,0,17.8,8.6,17.8,20
		c0,11.3-6.3,20-17.8,20c-8.3,0-13.8-4.5-15.3-11.2H1292.5z"/>
	<path id="XMLID_82_" class="st1" d="M1376.2,557.4c0,11.1-6.1,20-17.5,20c-10.9,0-16.9-8-17.5-18.3h-8v17.6h-4.9v-38.6h4.9v16.4
		h8.1c1-9.7,7-17.1,17.4-17.1C1370.1,537.4,1376.2,546.3,1376.2,557.4z M1371.3,557.4c0-8.1-3.8-15.6-12.6-15.6s-12.6,7.5-12.6,15.6
		s3.8,15.6,12.6,15.6S1371.3,565.5,1371.3,557.4z"/>
	<path id="XMLID_85_" class="st1" d="M1412.8,538.1v38.6h-4.9v-16.1h-11.2c-1,0-2.1-0.1-3.1-0.2l-5.8,16.3h-5l6.2-17.4
		c-3.9-1.7-5.9-5.1-5.9-9.9c0-7.1,4.5-11.2,12.7-11.2H1412.8z M1407.9,556.2v-13.8h-11.5c-6.2,0-8.5,2.6-8.5,6.9
		c0,4.3,2.3,6.9,8.5,6.9H1407.9z"/>
	<path id="XMLID_88_" class="st1" d="M766.8,663.8h-1.2c-1.7,2.1-4.6,3.6-8.5,3.6c-6.3,0-9.8-4.2-9.8-8.9c0-4.4,2.9-9,10.4-9h8.9
		v-1.1c0-3.3-1.9-5.7-6.6-5.7c-4.1,0-6.1,1.6-6.3,3.9h-4.6c0.4-5,4.7-7.9,10.8-7.9c6.9,0,11.2,3.3,11.2,9.4v18.5h-4.3V663.8z
		 M766.7,655.7v-2.5h-8.2c-4.5,0-6.5,1.9-6.5,5.2c0,3.1,2.3,5,6.3,5C762.8,663.4,766.7,660,766.7,655.7z"/>
	<path id="XMLID_91_" class="st1" d="M804.9,653.6c0,7.7-5,13.8-13.4,13.8c-8.6,0-13.6-5.9-13.6-16.5c0-9.2,1.3-18.6,10.7-20.2
		l7.2-1.2c2-0.3,2.5-0.5,2.6-2.1h4.3c-0.2,3.1-1.1,5.3-5.3,6l-8.4,1.4c-4.9,0.9-6.5,4.3-7.1,8.8h1.2c2.3-3,5-3.9,8.8-3.9
		C800.2,639.7,804.9,645.8,804.9,653.6z M800.2,653.5c0-5.1-2.8-9.8-8.9-9.8s-8.9,4.8-8.9,9.8c0,5,2.8,9.9,8.9,9.9
		S800.2,658.5,800.2,653.5z"/>
	<path id="XMLID_94_" class="st1" d="M831.2,652.9c2.5,0.6,4.4,2.9,4.4,6.4c0,5-3.4,7.5-9.6,7.5h-14v-27.2h13.5
		c5.5,0,8.6,2.5,8.6,6.9c0,2.6-1.4,4.5-2.9,5.3V652.9z M816.6,650.8h8.5c3.3,0,4.4-1.7,4.4-3.7c0-2.1-1.1-3.7-4.4-3.7h-8.5V650.8z
		 M825.8,662.8c3.9,0,5.3-1.7,5.3-4.1c0-2.3-1.4-4.1-5.3-4.1h-9.2v8.2H825.8z"/>
	<path id="XMLID_98_" class="st1" d="M842.8,639.5h20.4v4h-15.8v23.2h-4.6V639.5z"/>
	<path id="XMLID_100_" class="st1" d="M895.9,662.7v11.7h-4.5v-7.7h-23.5v7.7h-4.5v-11.7h3.6c1.7-3.7,3.3-9,3.3-15.8v-7.5h20.5v23.2
		H895.9z M886.3,643.5h-11.7v3.5c0,6.9-1.3,12.1-3,15.8h14.6V643.5z"/>
	<path id="XMLID_103_" class="st1" d="M925.4,653h-20.7c0.2,6.5,3.1,10.4,8.7,10.4c3.8,0,6.1-1.6,6.9-4.2h4.6
		c-0.9,4.6-4.8,8.2-11.6,8.2c-8.5,0-13.2-6.2-13.2-14.6s4.9-14,13.1-14c8.1,0,12,6,12.2,12.7V653z M905,649.2h15.7
		c-0.3-3.5-2.9-6.4-7.5-6.4C908.3,642.8,905.6,645.7,905,649.2z"/>
	<path id="XMLID_106_" class="st1" d="M956.1,653h-20.7c0.2,6.5,3.1,10.4,8.7,10.4c3.8,0,6.1-1.6,6.9-4.2h4.6
		c-0.9,4.6-4.8,8.2-11.6,8.2c-8.5,0-13.2-6.2-13.2-14.6s4.9-14,13.1-14c8.1,0,12,6,12.2,12.7V653z M935.7,649.2h15.7
		c-0.3-3.5-2.9-6.4-7.5-6.4C939,642.8,936.3,645.7,935.7,649.2z M936.8,632.6v-5h4.5v5H936.8z M946.6,632.6v-5h4.5v5H946.6z"/>
	<path id="XMLID_111_" class="st1" d="M965.8,666.7H961l6.2-14l-5.8-13.2h4.8l4.9,11.3h7v-11.3h4.4v11.3h7l4.9-11.3h4.8l-5.8,13.2
		l6.2,14h-4.9l-5.2-11.9h-7v11.9H978v-11.9h-7L965.8,666.7z"/>
	<path id="XMLID_113_" class="st1" d="M1015.5,642.8c-3.9,0-5.9,1.2-6.6,4.2h-4.4c0.5-5.2,4.8-8.2,11.1-8.2c6.8,0,10.4,3.5,10.4,7.6
		c0,3-1.3,4.9-2.9,5.5v1.2c2,0.6,3.9,2.4,3.9,6.2c0,4.5-3.9,8.2-11.3,8.2c-7.5,0-11.4-3.3-12.3-8.4h4.4c1,3.4,4.1,4.4,7.8,4.4
		c3.9,0,6.7-1.4,6.7-4.4c0-2.6-1.5-4.2-6-4.2h-4.8v-4h4.6c3.9,0,5.3-1.8,5.3-3.9C1021.5,644.2,1019.1,642.8,1015.5,642.8z"/>
	<path id="XMLID_115_" class="st1" d="M1034.4,666.7v-27.2h4.5v21.1h1.2l11.9-21.1h6.7v27.2h-4.5v-21.1h-1.2l-12.2,21.1H1034.4z"/>
	<path id="XMLID_117_" class="st1" d="M1067.5,666.7v-27.2h4.5v21.1h1.2l11.9-21.1h6.7v27.2h-4.5v-21.1h-1.2l-12.2,21.1H1067.5z
		 M1088,627.6c-0.2,5-3.2,7.9-8.4,7.9c-5.1,0-8.2-2.9-8.4-7.9h3.7c0.1,2.8,1.5,4.6,4.6,4.6c3.3,0,4.5-1.8,4.7-4.6H1088z"/>
	<path id="XMLID_120_" class="st1" d="M1113.4,654.7h-8.2v12h-4.6v-27.2h4.6v11.2h8.3l5.7-11.2h4.8l-6.6,13.1l7,14.1h-4.9
		L1113.4,654.7z"/>
	<path id="XMLID_122_" class="st1" d="M1127.9,662.4h0.9c3.7,0,5.3-2.7,5.3-12.4v-10.5h20.8v27.2h-4.6v-23.2h-11.9v6.6
		c0,12.5-2.9,16.6-9.6,16.6h-0.9V662.4z"/>
	<path id="XMLID_124_" class="st1" d="M1163.8,639.5h7.3l6.7,12.4h1.2l6.7-12.4h7.2v27.2h-4.5v-21.9h-1.2l-6.3,11.7h-5.1l-6.3-11.7
		h-1.2v21.9h-4.5V639.5z"/>
	<path id="XMLID_126_" class="st1" d="M1221.3,666.7v-12h-15.1v12h-4.6v-27.2h4.6v11.2h15.1v-11.2h4.6v27.2H1221.3z"/>
	<path id="XMLID_128_" class="st1" d="M1259.9,653.1c0,8-4.9,14.3-13.4,14.3c-8.5,0-13.4-6.3-13.4-14.3s4.9-14.3,13.4-14.3
		C1255,638.8,1259.9,645,1259.9,653.1z M1255.3,653.1c0-5.3-2.8-10.3-8.8-10.3c-6,0-8.8,5-8.8,10.3c0,5.3,2.8,10.3,8.8,10.3
		C1252.5,663.4,1255.3,658.4,1255.3,653.1z"/>
	<path id="XMLID_131_" class="st1" d="M1286.5,666.7v-23.2h-14.8v23.2h-4.6v-27.2h24v27.2H1286.5z"/>
	<path id="XMLID_133_" class="st1" d="M1304.4,639.5v2.9h1.2c1.5-1.9,4.2-3.6,8.5-3.6c7.5,0,11.9,6.3,11.9,14.3
		c0,8.2-4.4,14.3-11.9,14.3c-4.3,0-6.9-1.7-8.3-3.6h-1.2v13.7h-4.6v-38H1304.4z M1304.5,653.1c0,5.3,2.5,10.3,8.5,10.3
		c5.5,0,8.4-4.3,8.4-10.3s-2.9-10.3-8.4-10.3C1307,642.8,1304.5,647.7,1304.5,653.1z"/>
	<path id="XMLID_136_" class="st1" d="M1356.2,658.5c-1,5.3-5.1,8.9-11.4,8.9c-8.5,0-13.2-6.3-13.2-14.3c0-8.2,4.8-14.3,13.2-14.3
		c6.5,0,10.4,3.6,11.3,8.6h-4.6c-0.9-2.8-3-4.6-6.7-4.6c-6.2,0-8.6,4.8-8.6,10.2c0,5.5,2.5,10.4,8.6,10.4c3.9,0,6.2-1.9,6.9-4.9
		H1356.2z"/>
	<path id="XMLID_138_" class="st1" d="M1360.2,639.5h23.4v4h-9.4v23.2h-4.6v-23.2h-9.5V639.5z"/>
	<path id="XMLID_140_" class="st1" d="M1392.4,677.5l5.6-13.3l-11.6-24.7h4.9l8.3,17.9h1.3l7.6-17.9h4.8l-16.3,38H1392.4z"/>
	<path id="XMLID_142_" class="st1" d="M766.7,743.5h-4.5v-10.8h-0.9c-8.6,0-13.4-5.7-13.4-13.6c0-7.9,4.7-13.6,13.4-13.6h0.9v-12
		h4.5v12h0.9c8.6,0,13.4,5.7,13.4,13.6c0,8.4-5.1,13.6-14.3,13.6V743.5z M761.3,728.8h0.9v-19.4h-0.9c-6,0-8.9,4.4-8.9,9.7
		S755.2,728.8,761.3,728.8z M767.4,728.8c6.1,0,9-4.4,9-9.7s-2.9-9.7-9-9.7h-0.8v19.4H767.4z"/>
	<path id="XMLID_146_" class="st1" d="M798.7,721.3h-1.9l-6.9,11.4h-5l8.5-13.9l-7.6-13.3h4.9l6.3,10.8h1.9l6.4-10.8h4.8l-7.7,13.1
		l8.4,14.1h-5.2L798.7,721.3z"/>
	<path id="XMLID_148_" class="st1" d="M840.9,705.5v23.2h5v11.7h-4.4v-7.7h-24.4v-27.2h4.6v23.2h14.6v-23.2H840.9z"/>
	<path id="XMLID_150_" class="st1" d="M854.8,705.5v7.7c0,2.6,0.2,5.5,6.9,5.5c2.5,0,4.8-0.3,6.8-0.7v-12.4h4.6v27.2h-4.6v-10.7
		c-2.3,0.5-5.5,0.8-7.8,0.8c-9.9,0-10.5-4.7-10.5-9.2v-8H854.8z"/>
	<path id="XMLID_152_" class="st1" d="M916.4,705.5v27.2h-34.8v-27.2h4.5v23.2h10.7v-23.2h4.5v23.2h10.7v-23.2H916.4z"/>
	<path id="XMLID_154_" class="st1" d="M960.1,705.5v23.2h5v11.7h-4.5v-7.7h-35.4v-27.2h4.5v23.2h10.7v-23.2h4.5v23.2h10.7v-23.2
		H960.1z"/>
	<path id="XMLID_156_" class="st1" d="M967.7,705.5h12.7v9.1h8c6.6,0,10.3,3.4,10.3,9c0,5.7-3.7,9.1-10.3,9.1h-12.6v-23.2h-8.1
		V705.5z M987.8,728.7c4.7,0,6.3-1.9,6.3-5.1c0-3.2-1.6-5.1-6.3-5.1h-7.5v10.3H987.8z"/>
	<path id="XMLID_159_" class="st1" d="M1009.8,705.5v9.1h7.5c6.6,0,10.3,3.4,10.3,9c0,5.7-3.6,9.1-10.3,9.1h-12.1v-27.2H1009.8z
		 M1009.8,728.7h6.9c4.8,0,6.3-1.9,6.3-5.1c0-3.2-1.6-5.1-6.3-5.1h-6.9V728.7z M1036.6,705.5v27.2h-4.6v-27.2H1036.6z"/>
	<path id="XMLID_163_" class="st1" d="M1050,714.5h8c6.6,0,10.3,3.4,10.3,9c0,5.7-3.6,9.1-10.3,9.1h-12.6v-27.2h4.6V714.5z
		 M1057.4,728.7c4.8,0,6.3-1.9,6.3-5.1c0-3.2-1.6-5.1-6.3-5.1h-7.4v10.3H1057.4z"/>
	<path id="XMLID_166_" class="st1" d="M1077.6,724.8c0.7,2.9,3.2,4.6,7.3,4.6c5.1,0,8-3.7,8.3-8.6h-12.3v-3.9h12.2
		c-0.4-4.7-3-8.2-8.3-8.2c-3.9,0-6.3,1.5-7.1,4.3h-4.5c1-4.9,5.2-8.3,11.5-8.3c8.2,0,13.1,5.9,13.1,14.3s-4.8,14.3-13.1,14.3
		c-6.2,0-10.6-3.5-11.7-8.6H1077.6z"/>
	<path id="XMLID_168_" class="st1" d="M1142.1,719.1c0,8-4.9,14.3-13.2,14.3c-7.7,0-12.5-5.5-13.1-12.7h-6.2v12h-4.5v-27.2h4.5v11.2
		h6.4c0.9-6.9,5.6-11.9,12.9-11.9C1137.2,704.8,1142.1,711.1,1142.1,719.1z M1137.5,719.1c0-5.3-2.8-10.3-8.6-10.3
		c-5.9,0-8.6,5-8.6,10.3c0,5.3,2.7,10.3,8.6,10.3C1134.7,729.4,1137.5,724.4,1137.5,719.1z"/>
	<path id="XMLID_171_" class="st1" d="M1171.6,705.5v27.2h-4.6v-10.7h-8.3c-0.6,0-1.1,0-1.7-0.1l-4.1,10.8h-4.8l4.6-11.8
		c-2.8-1.3-4.2-3.7-4.2-7.1c0-5.2,3.3-8.3,9.6-8.3H1171.6z M1158.5,709.4c-4.1,0-5.5,1.7-5.5,4.4c0,2.6,1.4,4.3,5.5,4.3h8.4v-8.7
		H1158.5z"/>
	<path id="XMLID_174_" class="st1" d="M775.8,803.8c0,13.6-5.9,19.6-13.9,19.6s-13.9-6-13.9-19.6s5.9-19.7,13.9-19.7
		S775.8,790.2,775.8,803.8z M771.1,803.8c0-9.4-2.9-15.4-9.2-15.4c-6.3,0-9.1,6-9.1,15.4c0,9.3,2.9,15.4,9.1,15.4
		C768.2,819.2,771.1,813.1,771.1,803.8z"/>
	<path id="XMLID_177_" class="st1" d="M782,818.5h9v-28.6h-1.1l-7.9,5.3v-5l7.9-5.3h5.9v33.6h8.3v4.2h-22V818.5z"/>
	<path id="XMLID_179_" class="st1" d="M808.9,795.3c0.4-7.6,5.9-11.2,12.6-11.2c7.1,0,12.3,3.9,12.3,11.5c0,5.1-3.9,9.9-8.4,13.7
		l-9.5,8v1.2h19.1v4.2h-26v-5.3l5.6-4.5c3-2.4,6.6-5.5,8.6-7.3c2.6-2.3,5.9-5.4,5.9-9.9c0-4.8-3-7.3-7.6-7.3c-4.3,0-7.2,2.2-7.7,7
		H808.9z"/>
	<path id="XMLID_181_" class="st1" d="M863.8,784.9v5.3l-9.5,8.1v1.1c6.5,0.2,11.2,4.2,11.2,11.5c0,7.8-5.6,12.5-13.3,12.5
		c-7.7,0-12.8-4.9-13.2-11.3h4.8c0.4,4.3,3.9,7.1,8.5,7.1c5.2,0,8.6-3.1,8.6-8.3c0-5-3-8-8.5-8c-1.4,0-2.4,0.1-3.3,0.3v-5l9.2-8V789
		h-16.5v-4.1H863.8z"/>
	<path id="XMLID_183_" class="st1" d="M898.8,809.6v4.2h-5.2v8.9H889v-8.9h-18.7v-5.4l16.7-23.5h6.6v24.7H898.8z M889,809.6v-19.4
		h-1.2l-12.6,18.2v1.2H889z"/>
	<path id="XMLID_186_" class="st1" d="M930.5,809.9c0,8.2-5.3,13.5-13,13.5c-8.3,0-12.7-4.9-13.2-11.3h4.7c0.6,4.7,3.7,7.1,8.3,7.1
		c5,0,8.4-3.5,8.4-9.1c0-5.2-3.2-8.9-8.3-8.9c-3.4,0-5.9,1.2-7.5,3.6h-4.8l1.7-19.9h21.6v4.1h-17.8l-0.9,10.9h1.2
		c1.7-1.6,3.8-2.6,7.3-2.6C925.9,797.3,930.5,802.9,930.5,809.9z"/>
	<path id="XMLID_188_" class="st1" d="M963.1,810.4c0,7.2-4.8,13-12.9,13c-8,0-13.9-5-13.9-18.6c0-11.5,4.5-20.7,14.4-20.7
		c6.4,0,10.5,3.8,11.3,9h-4.7c-0.9-3.2-3-4.8-6.6-4.8c-6,0-9.5,5.1-9.8,13.4h1.2c1.3-1.6,4.3-3.7,8.9-3.7
		C957.9,798.1,963.1,803.2,963.1,810.4z M958.3,810.6c0-5.6-3.7-8.4-8.3-8.4c-4.5,0-8.2,2.9-8.2,8.3c0,5.5,3.7,8.6,8.3,8.6
		C954.7,819.2,958.3,816.2,958.3,810.6z"/>
	<path id="XMLID_191_" class="st1" d="M975.8,822.7h-5l16.4-32.5V789H968v-4.1h24.1v5.3L975.8,822.7z"/>
	<path id="XMLID_193_" class="st1" d="M1019.2,803.4c2.5,0.9,5.9,4,5.9,9c0,6.3-5.3,11-13.7,11c-8.3,0-13.7-4.8-13.7-11
		c0-5,3.3-8.2,5.9-9v-1.2c-2-0.9-4.8-3.6-4.8-7.9c0-6,5.2-10.1,12.5-10.1c7.3,0,12.5,4.1,12.5,10.1c0,4.2-2.8,7.1-4.8,7.9V803.4z
		 M1020.4,811.9c0-4.5-3.4-7.1-9-7.1c-5.6,0-9,2.6-9,7.1c0,4.4,3.4,7.2,9,7.2C1017,819.2,1020.4,816.3,1020.4,811.9z M1003.6,794.5
		c0,4,3.6,6.3,7.9,6.3c4.3,0,7.9-2.2,7.9-6.3c0-4.1-3.6-6.2-7.9-6.2C1007.1,788.2,1003.6,790.4,1003.6,794.5z"/>
	<path id="XMLID_197_" class="st1" d="M1030.3,797.2c0-7.2,4.8-13,12.9-13c8,0,13.9,5,13.9,18.6c0,11.5-4.5,20.7-14.4,20.7
		c-6.4,0-10.5-3.8-11.3-9h4.7c0.9,3.2,3,4.8,6.6,4.8c6,0,9.5-5.1,9.8-13.4h-1.2c-1.3,1.6-4.3,3.7-8.9,3.7
		C1035.5,809.5,1030.3,804.3,1030.3,797.2z M1035,796.9c0,5.6,3.7,8.4,8.3,8.4c4.5,0,8.2-2.9,8.2-8.3c0-5.5-3.7-8.6-8.3-8.6
		C1038.6,788.3,1035,791.3,1035,796.9z"/>
	<path id="XMLID_200_" class="st1" d="M749.2,867.7v-6.3h5.6v6.3H749.2z M749.2,888.7v-6.3h5.6v6.3H749.2z"/>
	<path id="XMLID_203_" class="st1" d="M763.2,888.7v-6.3h5.6v7.3l-3,5.2h-2.9l3-5.2v-1H763.2z M763.2,867.7v-6.3h5.6v6.3H763.2z"/>
	<path id="XMLID_206_" class="st1" d="M777.1,888.7v-6.3h5.6v6.3H777.1z"/>
	<path id="XMLID_208_" class="st1" d="M791,888.7v-6.3h5.6v7.3l-3,5.2h-2.9l3-5.2v-1H791z"/>
	<path id="XMLID_210_" class="st1" d="M826.8,859.9c0,5.7-2.8,7.8-6.6,10.9c-2.6,2-3.5,2.8-3.5,6.3v1.5h-4.6V877
		c0-4.8,1.6-6.3,5.2-9.2c2.9-2.3,4.9-4,4.9-7.9c0-3.3-2.4-6.4-6.9-6.4c-4.5,0-7.1,2.1-7.3,7.2h-4.6c0.3-7,4.8-11.2,11.9-11.2
		C822.2,849.4,826.8,853.5,826.8,859.9z M811.6,888.7v-6.3h5.6v6.3H811.6z"/>
	<path id="XMLID_213_" class="st1" d="M830.3,896.3l16.3-48.6h4.2l-16.1,48.6H830.3z"/>
	<path id="XMLID_215_" class="st1" d="M857.9,888.7v-6.3h5.6v6.3H857.9z M863.1,850.1v15.9l-0.9,12.4h-3l-0.9-12.4v-15.9H863.1z"/>
	<path id="XMLID_218_" class="st1" d="M907.9,894.9c-3.9,2.6-8.5,4.1-14.1,4.1c-13.2,0-21.5-8.7-21.5-21.7c0-14.7,10.2-26,25.4-26
		c11.4,0,21.3,7,21.3,19.4c0,8.3-4.2,16.1-12,16.1c-3.1,0-5-1-5.9-3.1h-1c-1.3,1.5-3.3,3.1-7,3.1c-5.4,0-8.6-3.7-8.6-9.8
		c0-7.1,4.5-13.3,11.6-13.3c3,0,5,1.4,5.7,2.6h1.1l0.4-1.9h3.8l-2.3,13.7c0,0.2-0.3,1.9-0.3,2.8c0,1.9,1.2,2.8,3.1,2.8
		c4,0,7.9-4.7,7.9-13.2c0-9.5-7.2-16.1-18.3-16.1c-12.2,0-21.4,9.2-21.4,22.9c0,9.8,5.5,18.7,18.3,18.7c4.7,0,8.7-1.4,12.3-3.7
		L907.9,894.9z M901.2,873.3c0-5.3-2.8-6.2-5.2-6.2c-4.5,0-7.3,5-7.3,9.8c0,3.6,1.5,6.3,5.1,6.3
		C898.1,883.2,901.2,879.1,901.2,873.3z"/>
	<path id="XMLID_221_" class="st1" d="M938.4,859.6h3.9v11.7h11.8v3.9h-11.8V887h-3.9v-11.7h-11.7v-3.9h11.7V859.6z"/>
	<path id="XMLID_223_" class="st1" d="M974.4,896.3H970c-4.7-5.6-8.6-13.7-8.6-24.5c0-10.6,3.8-18.5,8.2-24.1h4.4
		c-4.3,5.9-8.3,13.4-8.3,24.1C965.7,882.7,970,890.4,974.4,896.3z"/>
	<path id="XMLID_225_" class="st1" d="M975.3,847.7h4.4c4.4,5.6,8.2,13.5,8.2,24.1c0,10.7-3.9,18.9-8.6,24.5h-4.4
		c4.4-5.9,8.7-13.6,8.7-24.5C983.6,861.2,979.6,853.6,975.3,847.7z"/>
	<path id="XMLID_227_" class="st1" d="M992.8,872.8l10.8-21.5h3.4l10.7,21.5h-4.2l-7.8-15.6h-1l-7.7,15.6H992.8z"/>
	<path id="XMLID_229_" class="st1" d="M1040.1,860.3c0,5.6-2.9,10.2-8.7,10.2s-8.7-4.6-8.7-10.2s2.9-10.2,8.7-10.2
		S1040.1,854.7,1040.1,860.3z M1036.3,860.3c0-3.9-1.6-6.8-5-6.8s-5,2.9-5,6.8c0,3.9,1.6,6.8,5,6.8S1036.3,864.2,1036.3,860.3z
		 M1030.3,888.7l22.9-37.8h4.1l-22.8,37.8H1030.3z M1065,879.2c0,5.6-2.9,10.2-8.7,10.2s-8.7-4.6-8.7-10.2s2.9-10.2,8.7-10.2
		S1065,873.6,1065,879.2z M1061.2,879.2c0-3.9-1.6-6.8-5-6.8s-5,2.9-5,6.8c0,3.9,1.6,6.8,5,6.8S1061.2,883.1,1061.2,879.2z"/>
	<path id="XMLID_235_" class="st1" d="M1077.5,861.4l1.7-10.5h3.8l-1.7,10.5h7.3l1.7-10.5h3.8l-1.7,10.5h5.4v3.7h-6l-1.5,9.5h5.5
		v3.7h-6l-1.7,10.5h-3.9l1.7-10.5h-7.3l-1.7,10.5h-3.9l1.7-10.5h-5.4v-3.7h6l1.5-9.5h-5.5v-3.7H1077.5z M1079.3,874.5h7.3l1.5-9.5
		h-7.3L1079.3,874.5z"/>
	<path id="XMLID_238_" class="st1" d="M1135.5,850.9v37.8h-7.5l-17.6-31.6h-1.1v31.6h-4.6v-37.8h7.5l17.6,31.6h1.1v-31.6H1135.5z
		 M1158.3,860.3c0,5.6-2.9,10.2-8.7,10.2c-5.8,0-8.7-4.6-8.7-10.2s2.9-10.2,8.7-10.2C1155.4,850.1,1158.3,854.7,1158.3,860.3z
		 M1140.9,877.2V874h17.4v3.2H1140.9z M1154.6,860.3c0-3.9-1.6-6.8-5-6.8c-3.4,0-5,2.9-5,6.8c0,3.9,1.6,6.8,5,6.8
		C1153,867.1,1154.6,864.2,1154.6,860.3z"/>
	<path id="XMLID_243_" class="st1" d="M1166,856.4v-6.3h5.6v7.3l-3,5.2h-2.9l3-5.2v-1H1166z M1175.4,856.4v-6.3h5.6v7.3l-3,5.2h-2.9
		l3-5.2v-1H1175.4z"/>
	<path id="XMLID_246_" class="st1" d="M1194.6,872.6c1.8,0.6,3,2.3,3,5.7v9c0,3.9,1.8,5.3,4.8,5.3h1.8v3.7h-2.1
		c-5.1,0-8.8-3-8.8-8.6v-8.6c0-3.3-0.6-5.2-3.4-5.2h-0.8v-3.8h0.8c2.8,0,3.4-1.9,3.4-5.2v-8.6c0-5.6,3.7-8.6,8.8-8.6h2.1v3.7h-1.8
		c-3,0-4.8,1.5-4.8,5.3v9c0,3.4-1.2,5.1-3,5.7V872.6z"/>
	<path id="XMLID_248_" class="st1" d="M1217.9,871.4c-1.8-0.6-3-2.3-3-5.7v-9c0-3.9-1.8-5.3-4.8-5.3h-1.8v-3.7h2.1
		c5.1,0,8.8,3,8.8,8.6v8.6c0,3.3,0.6,5.2,3.4,5.2h0.8v3.8h-0.8c-2.8,0-3.4,1.9-3.4,5.2v8.6c0,5.6-3.7,8.6-8.8,8.6h-2.1v-3.7h1.8
		c3,0,4.8-1.5,4.8-5.3v-9c0-3.4,1.2-5.1,3-5.7V871.4z"/>
	<path id="XMLID_250_" class="st1" d="M1242,850.1l-0.3,9.1l8.6-3.1l1.1,3.5l-8.7,2.6l5.6,7.2l-3,2.2l-5.2-7.5l-5.1,7.5l-3-2.2
		l5.6-7.2l-8.7-2.6l1.1-3.5l8.6,3.1l-0.3-9.1H1242z"/>
	<path id="XMLID_252_" class="st1" d="M786.1,939v4.1h-29.8v1.2l10.4,10.4h-5.6l-13.6-13.6l13.6-13.6h5.6l-10.4,10.4v1.2H786.1z"/>
	<path id="XMLID_254_" class="st1" d="M805.5,924.9h-1.2l-10.4,10.4v-5.6l13.6-13.6l13.6,13.6v5.6l-10.4-10.4h-1.2v29.8h-4.1V924.9z
		"/>
	<path id="XMLID_256_" class="st1" d="M858.8,939v-1.2l-10.4-10.4h5.6l13.6,13.6L854,954.7h-5.6l10.4-10.4v-1.2H829V939H858.8z"/>
	<path id="XMLID_258_" class="st1" d="M890.4,945.9h1.2l10.4-10.4v5.6l-13.6,13.6l-13.6-13.6v-5.6l10.4,10.4h1.2v-29.8h4.1V945.9z"
		/>
	<path id="XMLID_260_" class="st1" d="M916,923.8l-0.8,0.9v14.6l-3.9-3.9v-19.2h19.2l3.9,3.9h-14.6l-0.9,0.8L940,942l-2.9,2.9
		L916,923.8z"/>
	<path id="XMLID_262_" class="st1" d="M952.3,944.8l-2.9-2.9l21.1-21.1l-0.9-0.8H955l3.9-3.9h19.2v19.2l-3.9,3.9v-14.6l-0.8-0.9
		L952.3,944.8z"/>
	<path id="XMLID_264_" class="st1" d="M1013.3,926l2.9,2.9L995.1,950l0.9,0.8h14.6l-3.9,3.9h-19.2v-19.2l3.9-3.9v14.6l0.8,0.9
		L1013.3,926z"/>
	<path id="XMLID_266_" class="st1" d="M1049.5,947.1l0.8-0.9v-14.6l3.9,3.9v19.2H1035l-3.9-3.9h14.6l0.9-0.8l-21.1-21.1l2.9-2.9
		L1049.5,947.1z"/>
	<path id="XMLID_268_" class="st1" d="M1066.2,940l8.7,9.3h-5.1l-7.8-8.1v-3.5l7.8-8.2h5.1l-8.7,9.3V940z"/>
	<path id="XMLID_270_" class="st1" d="M1090,938.8l-8.7-9.3h5.1l7.8,8.2v3.5l-7.8,8.1h-5.1l8.7-9.3V938.8z"/>
	<path id="XMLID_272_" class="st1" d="M1113,933.6v3.1h-13.7v-3.1h5.1v-13.3h-0.9l-4.2,2.4v-3.5l5.1-3.1h3.5v17.4H1113z
		 M1107.5,954.7l22.9-37.8h4.1l-22.8,37.8H1107.5z M1141.9,946.9v3.1h-2.8v4.6h-3.5V950h-10.4v-3.5l9.2-12.5h4.6v12.8H1141.9z
		 M1135.6,946.9v-8.5h-0.9l-5.6,7.7v0.9H1135.6z"/>
	<path id="XMLID_277_" class="st1" d="M1159.7,933.6v3.1h-13.7v-3.1h5.1v-13.3h-0.9l-4.2,2.4v-3.5l5.1-3.1h3.5v17.4H1159.7z
		 M1154.3,954.7l22.9-37.8h4.1l-22.8,37.8H1154.3z M1189,951.6v3.1h-15.3v-3.9l2.4-1.7c1.3-1,3-2.1,4-2.9c2-1.5,4.6-3.3,4.6-5.9
		c0-2.1-1.4-3.4-3.6-3.4c-2.5,0-3.9,1.2-4,3.7h-3.5c0.2-4.8,3.4-6.9,7.6-6.9c4.1,0,7.1,2.2,7.1,6.4c0,3-1.8,5.1-4.2,6.9l-5.1,3.7
		v0.8H1189z"/>
	<path id="XMLID_281_" class="st1" d="M1203.5,923.9c3,0.4,5.3,2.6,5.3,6.3c0,4.4-3.3,6.9-7.8,6.9c-4.6,0-7.7-2.9-7.9-6.8h3.5
		c0.2,2.3,2.1,3.6,4.4,3.6c2.5,0,4.3-1.4,4.3-3.8s-1.7-3.8-4.3-3.8c-0.9,0-1.3,0-1.9,0.2v-3.2l4.1-3.2v-0.9h-8.6v-3.1h13.3v3.6
		l-4.5,3.5V923.9z M1201.6,954.7l22.9-37.8h4.1l-22.8,37.8H1201.6z M1236,946.9v3.1h-2.8v4.6h-3.5V950h-10.4v-3.5l9.2-12.5h4.6v12.8
		H1236z M1229.7,946.9v-8.5h-0.9l-5.6,7.7v0.9H1229.7z"/>
</g>
</svg>
