<?xml version="1.0" encoding="utf-8"?>
<!-- Generator: Adobe Illustrator 19.0.0, SVG Export Plug-In . SVG Version: 6.00 Build 0)  -->
<svg version="1.1" id="font" xmlns="http://www.w3.org/2000/svg" xmlns:xlink="http://www.w3.org/1999/xlink" x="0px" y="0px"
	 viewBox="110 141 1500 1000" style="enable-background:new 110 141 1500 1000;" xml:space="preserve">
<style type="text/css">
	.st0{fill:#FFFFFF;}
	.st1{fill:#101010;}
	.st2{fill:#2BB9AF;}
</style>
<rect id="XMLID_26_" x="110" y="141" class="st0" width="1500" height="1000"/>
<g id="XMLID_1664_">
	<path id="XMLID_837_" class="st1" d="M132.7,374.3h141v21.3H110V150.7h22.7V374.3z"/>
	<g id="XMLID_2_">
		<path id="XMLID_835_" class="st2" d="M351.6,155.5h134.9v26.7l-65.9,58.3v6.9c22.7,0,41.2,6.5,55.3,19.8
			c14.1,13.1,21.3,31.2,21.3,54.5c0,24.3-7.5,43.2-23,57.2c-15.5,14.1-35,20.9-59,20.9c-23,0-41.9-6.5-56.9-19.5
			c-14.7-13.1-23-29.5-24-49.7h22.2c1,14.7,7.2,26.4,18.2,35.7c11.3,9.3,24.7,13.7,40.5,13.7c35.7,0,59.6-22.7,59.6-58.3
			c0-34.7-21.9-55.6-59.3-55.6c-8.6,0-15,0.7-20.3,2.1v-28l64.4-58v-6.9h-108V155.5z"/>
		<path id="XMLID_832_" class="st2" d="M670.6,317.1h34.3v19.8h-34.3v58.7h-22.2v-58.7H527.9v-26.7l106.7-154.7h36V317.1z
			 M552.3,317.1h96.1V178.5h-6.9l-89.2,131.7L552.3,317.1L552.3,317.1z"/>
	</g>
	<path id="XMLID_828_" class="st1" d="M218.4,673c51.8,0,80.6,26.4,80.6,71.3c0,30.2-12.7,51.8-37.4,62.8l39.1,110.8h-32L232,814.3
		c-6.5,0.7-13.4,1-19.8,1h-71.3v102.6H110V673H218.4z M213.9,787.9c39.5,0,53.9-16.5,53.9-43.6c0-27.5-14.4-43.9-53.9-43.9h-73v87.4
		L213.9,787.9L213.9,787.9z"/>
	<path id="XMLID_820_" class="st1" d="M908.8,395.6V150.7H974l50.8,106.7h8.3l49.9-106.7h65.5v245h-39.1V199.8h-8.3l-51.8,107.4
		h-41.9l-51.2-107.4H948v195.9h-39.2V395.6z"/>
	<g id="XMLID_815_">
		<path id="XMLID_818_" class="st2" d="M1336.8,255.7c14.4,15.1,21.6,34.3,21.6,58c0,25.7-7.9,46.7-24,62.8
			c-16.1,15.8-36.7,23.7-61.7,23.7c-52.4,0-84.7-30.5-87.4-74.8h39.8c3.1,25.7,19.8,39.1,46.3,39.1c28.5,0,47-19.2,47-49.7
			c0-30.2-18.5-49.4-46.3-49.4c-18.9,0-33.3,6.9-42.8,20.3h-38.4l10.7-130h143v33.9H1233l-4.5,58.7h8.3c12-9.9,27.1-15,44.6-15
			C1304.3,233,1322.8,240.6,1336.8,255.7z"/>
		<path id="XMLID_816_" class="st2" d="M1550.6,198l-99.9,197.6h-41.9l100.5-197.2v-8.3H1392v-34.6h158.5L1550.6,198L1550.6,198z"/>
	</g>
	<g id="XMLID_831_">
		<g id="XMLID_823_">
			<path id="XMLID_826_" class="st2" d="M334.5,891.1h56.9V709.3h-6.9L334,743.2v-31.5l50-33.9h37.4v213.4h52.4v26.7H334.5V891.1z"
				/>
			<path id="XMLID_824_" class="st2" d="M505.3,744c2.7-48.1,37.4-71,79.9-71c44.9,0,77.8,25.1,77.8,73c0,32.6-24.7,63.1-53.2,86.8
				l-60.4,50.8v7.5h121.1v26.7h-165v-33.9l35.3-28.8c19.2-15.5,41.9-34.7,54.5-46.3c16.5-14.7,37.4-34.3,37.4-62.8
				c0-30.2-19.2-46.3-48.4-46.3c-27.1,0-46,14.1-49.1,44.3H505.3L505.3,744z"/>
		</g>
		<g id="XMLID_617_">
			<path id="XMLID_811_" class="st1" d="M350.1,962.9h-9.8l-2.3,6.8h-2.8l7.7-22.2h4.7l7.7,22.2h-2.9L350.1,962.9z M341.3,960.3h8
				l-3.4-10h-1.3L341.3,960.3z"/>
			<path id="XMLID_808_" class="st1" d="M368.4,956.6c4.8,0,7.4,2.5,7.4,6.6c0,4.2-2.7,6.6-7.4,6.6h-9.5v-22.2h15.3v2.6h-12.4v6.5
				L368.4,956.6L368.4,956.6z M367.9,967.2c3.8,0,5.1-1.6,5.1-4.2c0-2.5-1.4-4.1-5.1-4.1h-6.3v8.3H367.9z"/>
			<path id="XMLID_804_" class="st1" d="M394.7,958.3c1.9,0.8,3.1,2.8,3.1,5.1c0,3.6-2.5,6.3-7.5,6.3h-9.9v-22.2h9.7
				c4.7,0,7.1,2.6,7.1,5.6c0,2-0.8,3.7-2.4,4.5L394.7,958.3L394.7,958.3z M383.2,957h6.8c2.5,0,4.4-0.8,4.4-3.6
				c0-2.5-2.2-3.4-4.4-3.4h-6.8V957z M390,967.2c2.5,0,4.9-0.9,4.9-4c0-2.8-2.3-3.9-4.9-3.9h-7v7.8h7V967.2z"/>
			<path id="XMLID_802_" class="st1" d="M405,950.1v19.7h-2.8v-22.2h15.3v2.6L405,950.1L405,950.1z"/>
			<path id="XMLID_799_" class="st1" d="M439.5,967.2v8h-2.8v-5.4h-16.9v5.4H417v-8h2.3c1.5-3,2.8-7.8,2.8-15.3v-4.5h14.1v19.7
				L439.5,967.2L439.5,967.2z M433.5,950.1h-8.7v2.4c0,6.9-1.3,11.9-2.5,14.7h11.2V950.1L433.5,950.1z"/>
			<path id="XMLID_797_" class="st1" d="M459.2,967.2v2.6h-16v-22.2h15.6v2.6H446v6.9h10.2v2.6H446v7.7h13.2V967.2z"/>
			<path id="XMLID_793_" class="st1" d="M479.5,967.2v2.6h-16v-22.2H479v2.6h-12.7v6.9h10.2v2.6h-10.2v7.7h13.2V967.2z M466.9,944.5
				v-2.7h2.6v2.8L466.9,944.5L466.9,944.5z M472.7,944.5v-2.7h2.6v2.8L472.7,944.5L472.7,944.5z"/>
			<path id="XMLID_791_" class="st1" d="M498.5,959.7v10h-2.8v-10h-5.8l-4.1,10h-2.9l4.7-11.3l-4.4-11h2.9l3.9,9.7h5.8v-9.7h2.8v9.7
				h5.7l3.9-9.7h2.9l-4.4,11l4.7,11.3h-2.9l-4.2-10H498.5z"/>
			<path id="XMLID_789_" class="st1" d="M523.2,949.7c-3.1,0-4.7,1.3-5.2,3.4h-2.8c0.5-3.8,3.4-6.1,8-6.1c5.1,0,7.7,2.7,7.7,5.8
				c0,2.5-1,3.8-2.3,4.5v0.7c1.8,0.7,3.2,2.2,3.2,5.3c0,3.6-2.9,6.7-8.4,6.7s-8.6-2.6-9.2-6.5h2.9c0.7,2.6,2.9,4,6.3,4
				c3.2,0,5.5-1.6,5.5-4.2c0-2.4-1.4-4-5.1-4h-3.6v-2.6h3.6c3.1,0,4.2-1.7,4.2-3.6C528,950.9,525.9,949.7,523.2,949.7z"/>
			<path id="XMLID_787_" class="st1" d="M538.9,947.5v18.9h0.7l10.3-18.9h4.4v22.2h-2.7v-18.9h-0.7l-10.3,18.9h-4.4v-22.2H538.9z"/>
			<path id="XMLID_784_" class="st1" d="M562.8,947.5v18.9h0.7l10.3-18.9h4.4v22.2h-2.7v-18.9h-0.7l-10.3,18.9h-4.4v-22.2H562.8z
				 M574.6,941.5c-0.1,3.1-2.3,4.8-5.4,4.8c-3,0-5.3-1.8-5.4-4.8h2.3c0,1.8,1.3,2.8,3.1,2.8s3.1-1,3.1-2.8H574.6z"/>
			<path id="XMLID_782_" class="st1" d="M583.9,947.5h2.8v9.5h6.8l4.5-9.5h2.9l-5,10.9l5.2,11.5h-2.9l-4.7-10.2h-6.8v10.2h-2.8
				V947.5z"/>
			<path id="XMLID_780_" class="st1" d="M604,967c2.9,0,4.2-1.7,4.2-11.3v-8.1h14.6v22.2H620v-19.7h-9.2v6.2c0,11-2,13.6-6.8,13.6
				h-0.6V967H604z"/>
			<path id="XMLID_778_" class="st1" d="M628.5,947.5h4.7l5.6,10.4h0.7l5.5-10.4h4.7v22.2h-2.9v-19.1h-0.7l-5.7,10.6h-2.9l-5.7-10.6
				h-0.5v19.1h-2.7L628.5,947.5L628.5,947.5z"/>
			<path id="XMLID_776_" class="st1" d="M673.4,947.5v22.2h-2.8v-10.1h-12.4v10.1h-2.8v-22.2h2.8v9.5h12.4v-9.5H673.4z"/>
			<path id="XMLID_773_" class="st1" d="M698.8,958.7c0,6.4-3.7,11.6-10.4,11.6s-10.4-5.1-10.4-11.6c0-6.4,3.6-11.6,10.4-11.6
				C695.2,947.1,698.8,952.2,698.8,958.7z M696,958.7c0-4.7-2.3-9-7.5-9c-5.3,0-7.5,4.4-7.5,9c0,4.7,2.3,9,7.5,9
				C693.7,967.6,696,963.2,696,958.7z"/>
			<path id="XMLID_771_" class="st1" d="M721.3,947.5v22.2h-2.8V950h-12.2v19.7h-2.8v-22.2H721.3z"/>
			<path id="XMLID_768_" class="st1" d="M346.8,987.6c4.9,0,7.5,2.5,7.5,6.7s-2.7,6.7-7.5,6.7h-6.6v8.9h-2.8v-22.2L346.8,987.6
				L346.8,987.6z M346.4,998.4c3.8,0,5.2-1.6,5.2-4.2c0-2.6-1.4-4.2-5.2-4.2h-6.2v8.4H346.4z"/>
			<path id="XMLID_766_" class="st1" d="M376.9,1003.6c-0.9,4-4,6.8-8.9,6.8c-6.7,0-10.3-4.9-10.3-11.6c0-6.6,3.8-11.6,10.3-11.6
				c4.5,0,7.6,2.4,8.6,6.3h-2.9c-0.8-2.4-2.5-3.7-5.5-3.7c-5.2,0-7.5,4.3-7.5,9s2.3,9,7.4,9c3.1,0,5.1-1.6,5.8-4.2H376.9z"/>
			<path id="XMLID_764_" class="st1" d="M396.5,990.1h-7.3v19.7h-2.8v-19.7H379v-2.5h17.4v2.5H396.5z"/>
			<path id="XMLID_762_" class="st1" d="M407.7,999.3l5.5-11.7h2.9l-10.6,22.2h-2.9l3.1-6.7l-8.3-15.6h3l6.2,11.7L407.7,999.3
				L407.7,999.3z"/>
			<path id="XMLID_758_" class="st1" d="M431.3,989.5c6.2,0,10.1,3,10.1,9c0,6.1-4.1,9-10.1,9h-0.4v2.8h-2.7v-2.8h-0.4
				c-6.2,0-10.1-2.9-10.1-9c0-6,4.1-9,10.1-9h0.4v-2.6h2.7v2.6H431.3z M428.2,1004.9v-13h-0.4c-4.5,0-7.4,2.1-7.4,6.5
				s2.8,6.5,7.4,6.5H428.2z M431.3,1004.9c4.5,0,7.4-2.1,7.4-6.5s-2.8-6.5-7.4-6.5h-0.4v13H431.3z"/>
			<path id="XMLID_756_" class="st1" d="M453.2,999.8h-1.1l-5.7,10.1h-3.1l6.7-11.8l-5.7-10.6h3l4.9,8.9h1.1l4.9-8.9h3l-5.7,10.4
				l6.7,11.9H459L453.2,999.8z"/>
			<path id="XMLID_754_" class="st1" d="M483.7,1009.8h-18.2v-22.2h2.8v19.7h12.1v-19.7h2.8v19.7h3.2v8h-2.8L483.7,1009.8
				L483.7,1009.8z"/>
			<path id="XMLID_752_" class="st1" d="M492,987.6v6.4c0,2.2,0,4.5,5.6,4.5c1.9,0,3.8-0.2,5.3-0.6v-10.2h2.8v22.2H503v-9.5
				c-1.7,0.4-4,0.6-5.6,0.6c-7.7,0-8-3.6-8-7v-6.4H492z"/>
			<path id="XMLID_750_" class="st1" d="M523,987.6h2.7v19.7h8.8v-19.7h2.7v22.2h-25.8v-22.2h2.7v19.7h8.8L523,987.6L523,987.6z"/>
			<path id="XMLID_748_" class="st1" d="M569.2,1009.8H543v-22.2h2.7v19.7h8.8v-19.7h2.7v19.7h8.8v-19.7h2.7v19.7h3.2v8h-2.8
				L569.2,1009.8L569.2,1009.8L569.2,1009.8z"/>
			<path id="XMLID_745_" class="st1" d="M578.6,1009.8v-19.7h-5.7v-2.6h8.6v8.6h6.5c5,0,7.7,2.6,7.7,6.9c0,4.4-2.8,6.9-7.7,6.9
				L578.6,1009.8L578.6,1009.8z M587.3,1007.4c4,0,5.4-1.7,5.4-4.4c0-2.6-1.4-4.4-5.4-4.4h-6v8.8L587.3,1007.4L587.3,1007.4z"/>
			<path id="XMLID_741_" class="st1" d="M600,1009.8v-22.2h2.8v8.6h6.1c5,0,7.7,2.6,7.7,6.9c0,4.4-2.8,6.9-7.7,6.9L600,1009.8
				L600,1009.8z M608.4,1007.4c4,0,5.4-1.7,5.4-4.4c0-2.6-1.4-4.4-5.4-4.4h-5.5v8.8L608.4,1007.4L608.4,1007.4z M622.4,987.6v22.2
				h-2.8v-22.2H622.4z"/>
			<path id="XMLID_738_" class="st1" d="M628.1,1009.8v-22.2h2.8v8.6h6.5c5,0,7.7,2.6,7.7,6.9c0,4.4-2.8,6.9-7.7,6.9L628.1,1009.8
				L628.1,1009.8z M636.8,1007.4c4,0,5.4-1.7,5.4-4.4c0-2.6-1.4-4.4-5.4-4.4h-6v8.8L636.8,1007.4L636.8,1007.4z"/>
			<path id="XMLID_736_" class="st1" d="M651.1,1003.8c0.7,2.4,2.8,4,5.8,4c4.9,0,7.2-3.8,7.3-8h-10.4v-2.5h10.4
				c-0.4-4.1-2.6-7.4-7.3-7.4c-3.1,0-4.8,1.3-5.6,3.6h-2.9c0.9-3.8,4.1-6.1,8.6-6.1c6.6,0,10.2,5,10.2,11.6
				c0,6.5-3.7,11.6-10.2,11.6c-4.8,0-8-2.6-8.9-6.5h3L651.1,1003.8L651.1,1003.8z"/>
			<path id="XMLID_733_" class="st1" d="M699.6,998.8c0,6.4-3.6,11.6-10.1,11.6c-6.3,0-9.8-4.6-10.1-10.6h-4.6v10.1H672v-22.2h2.8
				v9.5h4.7c0.6-5.5,4.1-9.9,10-9.9C696,987.2,699.6,992.4,699.6,998.8z M696.6,998.8c0-4.7-2.2-9-7.3-9s-7.3,4.4-7.3,9
				c0,4.7,2.2,9,7.3,9S696.6,1003.5,696.6,998.8z"/>
			<path id="XMLID_730_" class="st1" d="M720.7,987.6v22.2h-2.8v-9.3h-6.5c-0.6,0-1.3,0-1.8-0.1l-3.3,9.4h-2.9l3.6-10.1
				c-2.3-1-3.4-2.9-3.4-5.7c0-4.1,2.6-6.5,7.3-6.5L720.7,987.6L720.7,987.6L720.7,987.6z M717.8,998v-7.9h-6.7c-3.6,0-4.9,1.5-4.9,4
				s1.4,4,4.9,4L717.8,998L717.8,998z"/>
			<path id="XMLID_727_" class="st1" d="M347.1,1048.4h-0.7c-0.9,1.3-2.6,2.1-4.9,2.1c-3.7,0-5.6-2.4-5.6-5.1c0-2.5,1.7-5.2,6.1-5.2
				h5.1v-0.6c0-1.9-1-3.2-3.9-3.2c-2.3,0-3.6,0.9-3.7,2.3h-2.6c0.2-2.9,2.7-4.6,6.3-4.6c4,0,6.5,1.9,6.5,5.4v10.7h-2.5v-1.8H347.1z
				 M347,1043.7v-1.5h-4.7c-2.6,0-3.8,1.1-3.8,3c0,1.8,1.4,2.9,3.7,2.9C344.8,1048.1,347,1046.1,347,1043.7z"/>
			<path id="XMLID_724_" class="st1" d="M369.2,1042.4c0,4.5-2.9,8-7.7,8c-5,0-7.8-3.4-7.8-9.5c0-5.3,0.7-10.8,6.2-11.7l4.2-0.7
				c1.1-0.1,1.5-0.3,1.6-1.3h2.5c-0.1,1.8-0.6,3-3.1,3.4l-4.8,0.8c-2.8,0.5-3.8,2.5-4.1,5.1h0.7c1.4-1.8,2.9-2.3,5.1-2.3
				C366.4,1034.4,369.2,1037.9,369.2,1042.4z M366.4,1042.4c0-2.9-1.7-5.6-5.1-5.6c-3.4,0-5.1,2.7-5.1,5.6s1.7,5.7,5.1,5.7
				C364.9,1048.1,366.4,1045.2,366.4,1042.4z"/>
			<path id="XMLID_720_" class="st1" d="M384.4,1042c1.5,0.4,2.6,1.7,2.6,3.7c0,2.8-2,4.3-5.5,4.3h-8v-15.8h7.8c3.1,0,5,1.5,5,4
				c0,1.6-0.8,2.6-1.7,3.1v0.7H384.4z M375.9,1040.8h4.9c1.9,0,2.6-1,2.6-2.1c0-1.3-0.6-2.2-2.6-2.2h-4.9V1040.8z M381.3,1047.8
				c2.3,0,3-1,3-2.3s-0.7-2.4-3-2.4H376v4.7H381.3z"/>
			<path id="XMLID_718_" class="st1" d="M391.1,1034.3h11.8v2.3h-9.2v13.4h-2.6L391.1,1034.3L391.1,1034.3z"/>
			<path id="XMLID_715_" class="st1" d="M421.8,1047.6v6.8h-2.6v-4.5h-13.6v4.5H403v-6.8h2.1c1-2.1,2-5.2,2-9.1v-4.3H419v13.4
				L421.8,1047.6L421.8,1047.6z M416.3,1036.6h-6.8v2c0,4-0.7,7-1.7,9.1h8.5V1036.6z"/>
			<path id="XMLID_712_" class="st1" d="M438.8,1042.1h-12c0.1,3.8,1.8,6,5,6c2.2,0,3.6-0.9,4-2.4h2.7c-0.5,2.7-2.8,4.7-6.7,4.7
				c-4.9,0-7.6-3.6-7.6-8.5c0-4.8,2.8-8.1,7.6-8.1c4.7,0,6.9,3.4,7,7.3V1042.1z M427,1039.9h9.1c-0.1-2-1.7-3.8-4.4-3.8
				C428.9,1036.2,427.3,1037.9,427,1039.9z"/>
			<path id="XMLID_707_" class="st1" d="M456.6,1042.1h-12c0.1,3.8,1.8,6,5,6c2.2,0,3.6-0.9,4-2.4h2.7c-0.5,2.7-2.8,4.7-6.7,4.7
				c-4.9,0-7.6-3.6-7.6-8.5c0-4.8,2.8-8.1,7.6-8.1c4.7,0,6.9,3.4,7,7.3V1042.1z M444.8,1039.9h9.1c-0.1-2-1.7-3.8-4.4-3.8
				C446.7,1036.2,445.1,1037.9,444.8,1039.9z M445.4,1030.3v-2.8h2.6v2.8H445.4z M451.2,1030.3v-2.8h2.6v2.8H451.2z"/>
			<path id="XMLID_705_" class="st1" d="M462.2,1050.1h-2.8l3.6-8l-3.3-7.6h2.7l2.8,6.5h4.1v-6.5h2.5v6.5h4.1l2.8-6.5h2.7l-3.4,7.5
				l3.6,8h-2.8l-3-6.9h-4.1v6.9h-2.5v-6.9H465L462.2,1050.1z"/>
			<path id="XMLID_703_" class="st1" d="M491,1036.2c-2.3,0-3.4,0.7-3.8,2.4h-2.5c0.3-3,2.7-4.7,6.4-4.7c3.9,0,6.1,2,6.1,4.4
				c0,1.8-0.7,2.8-1.7,3.1v0.7c1.1,0.3,2.3,1.4,2.3,3.6c0,2.6-2.3,4.7-6.5,4.7c-4.4,0-6.6-1.9-7.1-4.9h2.6c0.6,2,2.4,2.6,4.5,2.6
				c2.3,0,3.9-0.8,3.9-2.5c0-1.6-0.8-2.4-3.4-2.4H489v-2.3h2.6c2.3,0,3-1,3-2.3C494.4,1037,493,1036.2,491,1036.2z"/>
			<path id="XMLID_701_" class="st1" d="M501.8,1050.1v-15.8h2.6v12.2h0.7l6.9-12.2h3.9v15.8h-2.6v-12.2h-0.7l-7,12.2H501.8z"/>
			<path id="XMLID_698_" class="st1" d="M521,1050.1v-15.8h2.6v12.2h0.7l6.9-12.2h3.9v15.8h-2.6v-12.2h-0.7l-7,12.2H521z
				 M532.8,1027.4c-0.1,2.9-1.9,4.6-4.9,4.6c-2.9,0-4.7-1.7-4.8-4.6h2.2c0,1.6,0.8,2.6,2.7,2.6s2.6-1,2.7-2.6H532.8z"/>
			<path id="XMLID_696_" class="st1" d="M547.6,1043.1h-4.7v6.9h-2.6v-15.8h2.6v6.5h4.8l3.2-6.5h2.8l-3.9,7.6l4.1,8.1h-2.8
				L547.6,1043.1z"/>
			<path id="XMLID_694_" class="st1" d="M555.9,1047.5h0.5c2.1,0,3.1-1.6,3.1-7.1v-6.1h12v15.8h-2.7v-13.4H562v3.9
				c0,7.2-1.7,9.6-5.5,9.6H556L555.9,1047.5L555.9,1047.5z"/>
			<path id="XMLID_692_" class="st1" d="M576.7,1034.3h4.2l3.9,7.2h0.7l3.9-7.2h4.2v15.8H591v-12.6h-0.7l-3.7,6.8h-2.9l-3.7-6.8
				h-0.7v12.6h-2.6L576.7,1034.3L576.7,1034.3z"/>
			<path id="XMLID_690_" class="st1" d="M609.9,1050.1v-6.9h-8.7v6.9h-2.6v-15.8h2.6v6.5h8.7v-6.5h2.6v15.8H609.9z"/>
			<path id="XMLID_687_" class="st1" d="M632.3,1042.1c0,4.7-2.8,8.3-7.7,8.3s-7.7-3.7-7.7-8.3s2.8-8.3,7.7-8.3
				C629.4,1033.9,632.3,1037.5,632.3,1042.1z M629.6,1042.1c0-3.1-1.7-6-5.1-6s-5.1,2.8-5.1,6c0,3.1,1.6,6,5.1,6
				S629.6,1045.2,629.6,1042.1z"/>
			<path id="XMLID_685_" class="st1" d="M647.6,1050.1v-13.4H639v13.4h-2.6v-15.8h13.9v15.8H647.6z"/>
			<path id="XMLID_682_" class="st1" d="M658,1034.3v1.7h0.7c0.8-1,2.4-2.1,4.9-2.1c4.4,0,6.9,3.7,6.9,8.3c0,4.7-2.5,8.3-6.9,8.3
				c-2.5,0-4-0.9-4.8-2.1h-0.7v7.9h-2.6v-21.9L658,1034.3L658,1034.3z M658.1,1042.1c0,3.1,1.5,6,4.9,6c3.1,0,4.8-2.5,4.8-6
				c0-3.4-1.7-6-4.8-6C659.4,1036.2,658.1,1039.1,658.1,1042.1z"/>
			<path id="XMLID_680_" class="st1" d="M688,1045.2c-0.6,3.1-2.9,5.1-6.6,5.1c-4.9,0-7.6-3.7-7.6-8.3c0-4.7,2.7-8.3,7.6-8.3
				c3.8,0,6,2.1,6.5,5h-2.6c-0.5-1.6-1.7-2.6-3.9-2.6c-3.6,0-5,2.8-5,5.8c0,3.1,1.5,6.1,5,6.1c2.3,0,3.6-1,4-2.8H688L688,1045.2z"/>
			<path id="XMLID_678_" class="st1" d="M690.3,1034.3h13.6v2.3h-5.4v13.4h-2.6v-13.4h-5.4L690.3,1034.3L690.3,1034.3z"/>
			<path id="XMLID_676_" class="st1" d="M708.9,1056.2l3.2-7.7l-6.7-14.3h2.8l4.8,10.3h0.7l4.4-10.3h2.8l-9.4,21.9h-2.7v0.1H708.9z"
				/>
			<path id="XMLID_672_" class="st1" d="M347,1087.6h-2.6v-6.3H344c-5,0-7.7-3.3-7.7-7.8c0-4.6,2.7-7.8,7.7-7.8h0.5v-7h2.6v7h0.5
				c5,0,7.7,3.3,7.7,7.8c0,4.8-2.9,7.8-8.3,7.8V1087.6L347,1087.6z M344,1079.1h0.5v-11.3H344c-3.4,0-5.1,2.6-5.1,5.6
				C338.8,1076.5,340.4,1079.1,344,1079.1z M347.5,1079.1c3.6,0,5.2-2.6,5.2-5.6s-1.7-5.6-5.2-5.6h-0.4v11.3L347.5,1079.1
				L347.5,1079.1z"/>
			<path id="XMLID_670_" class="st1" d="M365.6,1074.7h-1.1l-4,6.6h-2.9l4.9-8l-4.4-7.7h2.8l3.7,6.3h1.1l3.7-6.3h2.8l-4.5,7.6
				l4.9,8.1h-3L365.6,1074.7z"/>
			<path id="XMLID_668_" class="st1" d="M389.9,1065.6v13.4h2.8v6.8h-2.6v-4.5H376v-15.8h2.6v13.4h8.5v-13.4L389.9,1065.6
				L389.9,1065.6z"/>
			<path id="XMLID_666_" class="st1" d="M398.1,1065.6v4.4c0,1.6,0.1,3.1,4,3.1c1.5,0,2.8-0.1,4-0.4v-7.2h2.7v15.8H406v-6.2
				c-1.4,0.3-3.1,0.4-4.5,0.4c-5.7,0-6.1-2.7-6.1-5.3v-4.7h2.6v0.1H398.1z"/>
			<path id="XMLID_664_" class="st1" d="M433.6,1065.6v15.8h-20.2v-15.8h2.6v13.4h6.2v-13.4h2.6v13.4h6.2v-13.4H433.6z"/>
			<path id="XMLID_662_" class="st1" d="M458.9,1065.6v13.4h2.9v6.8h-2.6v-4.5h-20.5v-15.8h2.6v13.4h6.2v-13.4h2.6v13.4h6.2v-13.4
				L458.9,1065.6L458.9,1065.6z"/>
			<path id="XMLID_659_" class="st1" d="M463.3,1065.6h7.3v5.2h4.7c3.9,0,6,2,6,5.2s-2.1,5.3-6,5.3H468V1068h-4.7V1065.6z
				 M474.9,1079c2.7,0,3.7-1.1,3.7-2.9c0-1.9-0.9-2.9-3.7-2.9h-4.3v6h4.3V1079z"/>
			<path id="XMLID_655_" class="st1" d="M487.6,1065.6v5.2h4.4c3.9,0,6,2,6,5.2s-2.1,5.3-6,5.3h-7v-15.8L487.6,1065.6L487.6,1065.6z
				 M487.6,1079h4c2.7,0,3.7-1.1,3.7-2.9c0-1.9-0.9-2.9-3.7-2.9h-4V1079z M503.1,1065.6v15.8h-2.6v-15.8H503.1z"/>
			<path id="XMLID_652_" class="st1" d="M510.9,1070.8h4.7c3.9,0,6,2,6,5.2s-2.1,5.3-6,5.3h-7.3v-15.8h2.6L510.9,1070.8
				L510.9,1070.8z M515.2,1079c2.7,0,3.7-1.1,3.7-2.9c0-1.9-0.9-2.9-3.7-2.9h-4.3v6h4.3V1079z"/>
			<path id="XMLID_650_" class="st1" d="M526.9,1076.8c0.4,1.7,1.9,2.6,4.2,2.6c2.9,0,4.7-2.1,4.8-5h-7.1v-2.3h7.1
				c-0.2-2.7-1.8-4.7-4.8-4.7c-2.3,0-3.7,0.8-4.1,2.5h-2.6c0.6-2.8,3-4.8,6.7-4.8c4.7,0,7.5,3.4,7.5,8.3c0,4.8-2.8,8.3-7.6,8.3
				c-3.6,0-6.2-2-6.8-5h2.7V1076.8L526.9,1076.8z"/>
			<path id="XMLID_647_" class="st1" d="M564.1,1073.4c0,4.6-2.8,8.3-7.6,8.3c-4.4,0-7.2-3.1-7.5-7.3h-3.6v6.9h-2.6v-15.8h2.6v6.5
				h3.7c0.5-4,3.2-6.9,7.4-6.9C561.3,1065.2,564.1,1068.9,564.1,1073.4z M561.5,1073.4c0-3.1-1.6-6-5-6s-5,2.8-5,6c0,3.1,1.6,6,5,6
				S561.5,1076.5,561.5,1073.4z"/>
			<path id="XMLID_644_" class="st1" d="M581.2,1065.6v15.8h-2.7v-6.2h-4.7c-0.3,0-0.6,0-0.9,0l-2.4,6.3h-2.8l2.6-6.8
				c-1.7-0.7-2.4-2.2-2.4-4.1c0-3,2-4.8,5.5-4.8h7.8V1065.6z M573.7,1067.8c-2.4,0-3.1,0.9-3.1,2.6c0,1.6,0.7,2.5,3.1,2.5h4.9v-5
				L573.7,1067.8L573.7,1067.8z"/>
			<path id="XMLID_641_" class="st1" d="M352.3,1114.1c0,7.8-3.4,11.3-8,11.3c-4.6,0-8-3.4-8-11.3c0-7.8,3.4-11.4,8-11.4
				C348.9,1102.7,352.3,1106.2,352.3,1114.1z M349.6,1114.1c0-5.4-1.7-8.9-5.3-8.9c-3.6,0-5.3,3.4-5.3,8.9s1.7,8.9,5.3,8.9
				C347.9,1123,349.6,1119.5,349.6,1114.1z"/>
			<path id="XMLID_639_" class="st1" d="M355.9,1122.6h5.2v-16.5h-0.6l-4.6,3.1v-2.8l4.6-3.1h3.4v19.4h4.8v2.4H356L355.9,1122.6
				L355.9,1122.6z"/>
			<path id="XMLID_637_" class="st1" d="M371.5,1109.2c0.2-4.4,3.4-6.5,7.3-6.5c4.1,0,7.1,2.3,7.1,6.7c0,2.9-2.3,5.7-4.8,7.9
				l-5.5,4.6v0.7h11v2.4h-15v-3.1l3.2-2.6c1.8-1.4,3.8-3.1,5-4.2c1.5-1.4,3.4-3.1,3.4-5.7c0-2.7-1.8-4.2-4.4-4.2
				c-2.5,0-4.2,1.3-4.5,4.1h-2.8L371.5,1109.2L371.5,1109.2z"/>
			<path id="XMLID_635_" class="st1" d="M403.2,1103.2v3l-5.4,4.7v0.6c3.8,0.1,6.5,2.4,6.5,6.7c0,4.5-3.2,7.2-7.7,7.2
				c-4.4,0-7.4-2.8-7.6-6.5h2.7c0.2,2.5,2.3,4.1,4.9,4.1c3,0,5-1.8,5-4.8c0-2.8-1.7-4.7-4.9-4.7c-0.7,0-1.4,0.1-1.9,0.2v-2.9
				l5.3-4.6v-0.7h-9.5v-2.4L403.2,1103.2L403.2,1103.2z"/>
			<path id="XMLID_632_" class="st1" d="M423.5,1117.4v2.4h-3v5.1h-2.7v-5.1H407v-3.1l9.6-13.6h3.9v14.3L423.5,1117.4L423.5,1117.4z
				 M417.8,1117.4v-11.2h-0.7l-7.3,10.6v0.7L417.8,1117.4L417.8,1117.4z"/>
			<path id="XMLID_630_" class="st1" d="M441.8,1117.6c0,4.7-3,7.8-7.5,7.8c-4.8,0-7.4-2.8-7.6-6.5h2.7c0.3,2.7,2.1,4.1,4.8,4.1
				c2.9,0,4.9-2,4.9-5.2c0-3-1.9-5.1-4.8-5.1c-2,0-3.4,0.7-4.4,2.1h-2.7l0.9-11.5h12.5v2.4h-10.2l-0.5,6.3h0.7
				c1-0.9,2.2-1.6,4.2-1.6C439.1,1110.3,441.8,1113.6,441.8,1117.6z"/>
			<path id="XMLID_627_" class="st1" d="M460.7,1117.9c0,4.2-2.8,7.5-7.4,7.5c-4.7,0-8-2.8-8-10.8c0-6.7,2.6-11.9,8.3-11.9
				c3.8,0,6.1,2.2,6.6,5.2h-2.7c-0.5-1.9-1.7-2.8-3.9-2.8c-3.4,0-5.5,2.9-5.6,7.7h0.7c0.7-0.9,2.5-2.1,5.1-2.1
				C457.6,1110.8,460.7,1113.8,460.7,1117.9z M457.8,1118.1c0-3.2-2.1-4.8-4.8-4.8c-2.6,0-4.7,1.7-4.7,4.8s2.2,5,4.8,5
				C455.9,1123,457.8,1121.3,457.8,1118.1z"/>
			<path id="XMLID_625_" class="st1" d="M468,1125.1h-2.8l9.5-18.8v-0.7h-11.1v-2.4h13.9v3L468,1125.1z"/>
			<path id="XMLID_621_" class="st1" d="M493,1113.9c1.5,0.5,3.4,2.3,3.4,5.2c0,3.7-3.1,6.4-7.9,6.4s-7.9-2.7-7.9-6.4
				c0-2.8,2-4.7,3.4-5.2v-0.7c-1.1-0.5-2.7-2.1-2.7-4.6c0-3.4,3-5.8,7.2-5.8c4.3,0,7.2,2.4,7.2,5.8c0,2.4-1.7,4.1-2.7,4.6V1113.9
				L493,1113.9z M493.8,1118.8c0-2.6-2-4.1-5.2-4.1s-5.2,1.6-5.2,4.1s2,4.2,5.2,4.2S493.8,1121.4,493.8,1118.8z M484.1,1108.8
				c0,2.3,2.1,3.7,4.6,3.7s4.6-1.3,4.6-3.7c0-2.3-2.1-3.6-4.6-3.6C486.1,1105.1,484.1,1106.4,484.1,1108.8z"/>
			<path id="XMLID_618_" class="st1" d="M499.5,1110.2c0-4.2,2.8-7.5,7.4-7.5c4.7,0,8,2.8,8,10.8c0,6.7-2.6,11.9-8.3,11.9
				c-3.8,0-6.1-2.2-6.6-5.2h2.7c0.5,1.9,1.7,2.8,3.9,2.8c3.4,0,5.5-2.9,5.6-7.7h-0.7c-0.7,0.9-2.5,2.1-5.1,2.1
				C502.4,1117.4,499.5,1114.4,499.5,1110.2z M502.2,1110.1c0,3.2,2.1,4.8,4.8,4.8c2.6,0,4.7-1.7,4.7-4.8s-2.2-5-4.8-5
				C504.3,1105.2,502.2,1106.9,502.2,1110.1z"/>
		</g>
	</g>
	<g id="XMLID_420_">
		<path id="XMLID_614_" class="st1" d="M345.8,425.2l8,22.2h-2.2l-2.5-7.2h-10.3l-2.5,7.2h-2.2l7.9-22.2H345.8z M343.4,427.4
			l-3.9,11h9l-3.9-11H343.4z"/>
		<path id="XMLID_611_" class="st1" d="M366.5,434.5c4.7,0,7.3,2.4,7.3,6.5s-2.7,6.5-7.3,6.5h-9.2v-22.2h14.8v1.9h-12.8v7.4
			L366.5,434.5L366.5,434.5z M366.2,445.7c3.8,0,5.6-1.6,5.6-4.6c0-3.1-1.9-4.6-5.6-4.6h-6.8v9.2H366.2z"/>
		<path id="XMLID_607_" class="st1" d="M392.3,435.9c2,0.9,3.2,2.9,3.2,5.3c0,3.7-2.6,6.2-7.5,6.2h-9.6v-22.2h9.4
			c2.2,0,4,0.5,5.2,1.6c1.3,1,1.9,2.4,1.9,4c0,2.2-0.8,3.7-2.6,4.6V435.9z M380.5,427.1v7.8h7.4c3.2,0,4.9-1.4,4.9-4
			s-2.2-3.8-4.9-3.8H380.5L380.5,427.1z M388.2,445.7c3.2,0,5.4-1.4,5.4-4.5c0-3-2.2-4.4-5.4-4.4h-7.6v8.9H388.2z"/>
		<path id="XMLID_605_" class="st1" d="M415,427.1h-12.8v20.4h-2.1v-22.2H415V427.1z"/>
		<path id="XMLID_602_" class="st1" d="M433.3,445.7h3.2v7.3h-2.1v-5.4h-17.9v5.4h-2.1v-7.3h2.3c2-4.5,2.9-9.8,2.9-15.9v-4.5h13.5
			v20.4H433.3z M431.2,445.7v-18.6h-9.3v2.6c0,6.2-0.9,11.5-2.7,15.9L431.2,445.7L431.2,445.7z"/>
		<path id="XMLID_600_" class="st1" d="M442.4,445.7H456v1.9h-15.7v-22.2h15.1v1.9h-13.1v7.8H453v1.9h-10.7v8.7H442.4z"/>
		<path id="XMLID_596_" class="st1" d="M462.5,445.7h13.6v1.9h-15.7v-22.2h15.1v1.9h-13.1v7.8h10.7v1.9h-10.7v8.7H462.5z
			 M466.2,422.6H464v-2.5h2.2V422.6z M471.6,422.6h-2.2v-2.5h2.2V422.6z"/>
		<path id="XMLID_594_" class="st1" d="M500.8,437.1h-6.3v10.4h-2.1v-10.4h-6.3l-4.3,10.4h-2.3l4.7-11.3l-4.4-11h2.3l4,10h6.3v-10
			h2.1v10h6.3l4-10h2.3l-4.4,11l4.7,11.3h-2.3L500.8,437.1z"/>
		<path id="XMLID_592_" class="st1" d="M519.3,426.7c-3.1,0-5,1.4-5.7,4h-2.1c0.5-3.6,3.4-5.8,7.7-5.8c2.4,0,4.2,0.5,5.5,1.7
			c1.3,1.1,2,2.5,2,4.1c0,2.2-0.8,3.7-2.6,4.6v0.6c2.3,1,3.4,2.8,3.4,5.4c0,1.9-0.7,3.4-2.2,4.7c-1.4,1.3-3.4,2-6,2
			c-5.1,0-8.1-2.4-8.9-6.3h2.2c0.7,2.8,3.2,4.4,6.8,4.4c3.7,0,6.1-1.9,6.1-4.7c0-3-1.9-4.5-5.5-4.5h-3.7V435h3.8
			c3.2,0,4.7-1.7,4.7-4C524.5,428.3,522.4,426.7,519.3,426.7z"/>
		<path id="XMLID_590_" class="st1" d="M532,425.2h2.1v20.1h0.6l11.4-20.1h3.7v22.2h-2.1v-20.1H547l-11.4,20.1H532V425.2z"/>
		<path id="XMLID_587_" class="st1" d="M555.6,425.2h2.1v20.1h0.6l11.4-20.1h3.7v22.2h-2.1v-20.1h-0.6l-11.5,20.2h-3.7L555.6,425.2
			L555.6,425.2L555.6,425.2z M569.7,419.3c0,3-2.3,4.9-5.3,4.9c-1.5,0-2.7-0.4-3.8-1.3c-1-0.8-1.5-2.1-1.5-3.6h1.8
			c0,1.9,1.5,3.1,3.4,3.1c2,0,3.4-1.3,3.4-3.1h1.9H569.7L569.7,419.3z"/>
		<path id="XMLID_585_" class="st1" d="M579.2,447.5v-22.2h2.1v9.8h7.3l4.6-9.8h2.3l-5,10.9l5.2,11.5h-2.3l-4.9-10.6h-7.3v10.6h-2
			L579.2,447.5L579.2,447.5z"/>
		<path id="XMLID_583_" class="st1" d="M598,445.5h0.5c1,0,1.9-0.3,2.5-0.8c1.3-1.1,2-4.5,2-11v-8.4h14v22.2h-2.1v-20.4H605v6.5
			c-0.1,11.1-1.8,13.9-6.5,13.9H598V445.5z"/>
		<path id="XMLID_581_" class="st1" d="M622.9,447.5v-22.2h3.6l6.5,11.1h0.6l6.4-11.1h3.7v22.2h-2.1v-20.1H641l-6.5,11.2h-2.2
			l-6.6-11.2H625v20.1H622.9z"/>
		<path id="XMLID_579_" class="st1" d="M665,425.2h2.1v22.2H665v-10.6h-13.5v10.6h-2.1v-22.2h2.1v9.8H665V425.2z"/>
		<path id="XMLID_576_" class="st1" d="M682,424.9c3.2,0,5.7,1,7.5,3.2s2.7,4.9,2.7,8.3c0,3.3-0.9,6.1-2.7,8.3
			c-1.8,2.2-4.3,3.2-7.5,3.2s-5.7-1-7.5-3.2s-2.7-4.9-2.7-8.3c0-3.3,0.9-6.1,2.7-8.3C676.3,425.9,678.8,424.9,682,424.9z M682,446.1
			c1.4,0,2.6-0.3,3.7-0.8c2.2-1,3.3-3,4-5.3c1.1-4.6,0.2-10.3-4-12.4c-1-0.5-2.3-0.8-3.7-0.8s-2.6,0.3-3.8,0.8c-2.1,1-3.3,3-4,5.3
			c-1.3,4.6-0.1,10.3,4,12.4C679.3,445.8,680.5,446.1,682,446.1z"/>
		<path id="XMLID_574_" class="st1" d="M696.8,425.2h17.4v22.2h-2.1V427h-13.3v20.4h-2.1L696.8,425.2L696.8,425.2z"/>
		<path id="XMLID_571_" class="st1" d="M345.6,465.3c4.7,0,7.3,2.4,7.3,6.5s-2.7,6.5-7.3,6.5h-7.1v9.3h-2.1v-22.2L345.6,465.3
			L345.6,465.3z M345.2,476.5c3.8,0,5.6-1.6,5.6-4.6c0-3.1-1.9-4.6-5.6-4.6h-6.8v9.2H345.2z"/>
		<path id="XMLID_569_" class="st1" d="M375.1,481.6c-0.9,3.9-4.1,6.5-8.6,6.5c-3.1,0-5.6-1-7.5-3.2c-1.8-2.2-2.7-4.9-2.7-8.3
			c0-3.3,0.9-6.2,2.7-8.3c1.8-2.2,4.3-3.2,7.5-3.2c4.3,0,7.4,2.3,8.4,6h-2.2c-1-2.7-2.8-4.1-6.2-4.1c-2.6,0-4.7,0.9-6.1,2.8
			s-2.1,4.2-2.1,6.9s0.7,5,2.1,6.9c1.4,1.9,3.4,2.8,6.1,2.8c3.3,0,5.5-1.7,6.4-4.6h2.2L375.1,481.6L375.1,481.6z"/>
		<path id="XMLID_567_" class="st1" d="M394.4,465.3v1.8h-7.5v20.5h-2.1v-20.5h-7.5v-1.8H394.4z"/>
		<path id="XMLID_565_" class="st1" d="M402.8,487.7h-2.2l3.1-6.7l-8.3-15.6h2.3l6.6,12.4h0.8l6-12.4h2.2L402.8,487.7z"/>
		<path id="XMLID_561_" class="st1" d="M427.4,467.2h0.4c6.4,0,10.2,3.1,10.2,9c0,6-3.9,9-10.2,9h-0.4v2.8h-2.1v-2.8h-0.4
			c-6.4,0-10.2-3-10.2-9c0-5.8,3.9-9,10.2-9h0.4v-2.5h2.1V467.2z M425.4,483.4v-14.3H425c-5.1,0-8.1,2.4-8.1,7.1s3,7.1,8.1,7.1
			L425.4,483.4L425.4,483.4z M427.4,483.4h0.4c5.1,0,8.1-2.4,8.1-7.1s-3-7.1-8.1-7.1h-0.4V483.4z"/>
		<path id="XMLID_559_" class="st1" d="M455.1,487.7l-6-10.6h-1.3l-6.2,10.6h-2.3l6.9-11.8l-5.8-10.4h2.3l5.1,9.2h1.3l5.2-9.2h2.3
			l-6,10.3l6.9,11.9H455.1z"/>
		<path id="XMLID_557_" class="st1" d="M479.8,493.1v-5.4h-18.4v-22.2h2.1v20.4h13.2v-20.4h2.1v20.4h3.2v7.3L479.8,493.1
			L479.8,493.1z"/>
		<path id="XMLID_555_" class="st1" d="M484.6,465.3h2.1v6.4c0,1.3,0,1.7,0.4,2.6c0.5,1.4,2,2,5.5,2.1c2.1,0,4.1-0.2,6-0.6v-10.6
			h2.1v22.2h-2.1v-9.8c-2,0.4-4,0.6-6,0.6c-2.9,0-5-0.6-6.2-1.5c-0.5-0.4-0.9-0.9-1.3-1.7c-0.3-0.7-0.4-1.4-0.5-1.9
			s-0.1-1.3-0.1-2.1L484.6,465.3L484.6,465.3z"/>
		<path id="XMLID_553_" class="st1" d="M518,485.8v-20.4h2.1v20.4h9.4v-20.4h2.1v22.2h-25.1v-22.2h2.1v20.4H518z"/>
		<path id="XMLID_551_" class="st1" d="M563.6,493.1v-5.4h-26.2v-22.2h2.1v20.4h9.4v-20.4h2.1v20.4h9.4v-20.4h2.1v20.4h3.2v7.3
			L563.6,493.1L563.6,493.1z"/>
		<path id="XMLID_548_" class="st1" d="M572.2,487.7v-20.4h-5.7v-1.9h7.7v8.9h6.9c4.8,0,7.5,2.5,7.5,6.7s-2.8,6.7-7.5,6.7
			L572.2,487.7L572.2,487.7z M580.8,485.8c3.9,0,5.8-1.7,5.8-4.8s-2-4.8-5.8-4.8h-6.5v9.6L580.8,485.8L580.8,485.8z"/>
		<path id="XMLID_544_" class="st1" d="M593.3,487.7v-22.2h2.1v8.9h6.6c4.8,0,7.5,2.5,7.5,6.7s-2.8,6.7-7.5,6.7h-8.7V487.7z
			 M601.6,485.8c3.9,0,5.8-1.7,5.8-4.8s-2-4.8-5.8-4.8h-6.2v9.6L601.6,485.8L601.6,485.8z M612.8,465.3h2.1v22.2h-2.1V465.3z"/>
		<path id="XMLID_541_" class="st1" d="M620.7,487.7v-22.2h2.1v8.9h6.9c4.8,0,7.5,2.5,7.5,6.7s-2.8,6.7-7.5,6.7h-9V487.7z
			 M629.3,485.8c3.9,0,5.8-1.7,5.8-4.8s-2-4.8-5.8-4.8h-6.5v9.6L629.3,485.8L629.3,485.8z"/>
		<path id="XMLID_539_" class="st1" d="M642.6,481.8c0.7,2.7,3.1,4.4,6.5,4.4c1.8,0,3.2-0.4,4.4-1.4c2.5-1.8,3.4-4.5,3.6-7.8h-11.3
			v-1.9H657c-0.2-2.4-1-4.4-2.3-6c-1.4-1.6-3.2-2.4-5.6-2.4c-3.1,0-5.2,1.4-6.2,4h-2.3c0.9-3.7,4.1-5.8,8.4-5.8c3.1,0,5.6,1,7.4,3.2
			s2.7,4.9,2.7,8.3c0,3.3-0.9,6.2-2.7,8.3c-1.8,2.2-4.3,3.2-7.4,3.2c-4.5,0-7.7-2.5-8.7-6.3h2.3L642.6,481.8L642.6,481.8z"/>
		<path id="XMLID_536_" class="st1" d="M688.2,468.2c1.8,2.2,2.6,4.9,2.6,8.3c0,3.3-0.8,6.1-2.6,8.3s-4.2,3.2-7.3,3.2
			c-3,0-5.4-1-7.2-3.1c-1.7-2.1-2.6-4.7-2.7-7.8h-5v10.6h-2.1v-22.2h2.1v9.8h5c0.2-3,1.1-5.4,2.9-7.3c1.7-1.9,4.1-2.8,7-2.8
			C684,465,686.4,466,688.2,468.2z M680.9,486.2c1.4,0,2.5-0.3,3.6-0.8c2.1-1,3.2-3,3.9-5.3c1.1-4.6,0.2-10.3-3.9-12.4
			c-1-0.5-2.2-0.8-3.6-0.8c-1.4,0-2.6,0.3-3.6,0.8c-2,1-3.2,3-3.9,5.3c-1.1,4.6-0.1,10.3,3.9,12.4
			C678.2,485.9,679.5,486.2,680.9,486.2z"/>
		<path id="XMLID_533_" class="st1" d="M711.8,465.3v22.2h-2.1v-9.7h-7.5c-0.6,0-1.3,0-1.7-0.1l-3.4,9.8h-2.2l3.7-10.3
			c-2.3-1-3.4-2.8-3.4-5.6c0-4,2.6-6.3,7.1-6.3H711.8z M709.7,476.1v-8.9h-7.2c-3.6,0-5.4,1.5-5.4,4.4s1.8,4.4,5.4,4.4L709.7,476.1
			L709.7,476.1z"/>
		<path id="XMLID_530_" class="st1" d="M346.2,528.1v-1.8h-0.6c-1,1.3-2.8,2.2-5,2.2c-1.8,0-3.1-0.5-4.2-1.5c-1-0.9-1.5-2.2-1.5-3.6
			s0.4-2.6,1.4-3.7c0.9-1,2.4-1.5,4.4-1.5h5.4v-0.9c0-2.1-1.4-3.6-4.2-3.6c-2.5,0-4,0.9-4.1,2.7h-2c0.2-2.8,2.6-4.4,6.1-4.4
			c3.8,0,6.2,2,6.2,5.2v10.9L346.2,528.1L346.2,528.1L346.2,528.1z M344.6,525.4c1-0.9,1.6-2.1,1.6-3.4v-2h-4.9
			c-2.8,0-4.4,1.4-4.4,3.3c0,2.2,1.6,3.4,4,3.4C342.2,526.7,343.6,526.2,344.6,525.4z"/>
		<path id="XMLID_527_" class="st1" d="M365.4,514.7c1.3,1.6,2,3.4,2,5.7s-0.7,4.2-2,5.7c-1.4,1.6-3.1,2.3-5.5,2.3
			c-4.8,0-7.6-3.4-7.6-9.4c0-2.5,0.1-4.1,0.6-6.2c0.6-3,2.3-5,5.5-5.6l4.3-0.7c1.3-0.2,1.4-0.3,1.5-1.3h2c-0.1,1.9-0.8,2.7-3,3.1
			l-4.7,0.7c-2.8,0.4-3.8,2.5-4.2,5.5h0.6c1.3-1.6,2.9-2.3,5.2-2.3C362.3,512.4,364.1,513.2,365.4,514.7z M363.8,516.1
			c-0.9-1.3-2.3-1.9-4.1-1.9c-1.8,0-3.1,0.6-4.2,1.9c-0.9,1.3-1.5,2.7-1.5,4.4c0,1.7,0.4,3.1,1.5,4.4c0.9,1.3,2.4,1.9,4.2,1.9
			c1.8,0,3.1-0.6,4.1-1.9c0.9-1.3,1.5-2.7,1.5-4.4C365.3,518.8,364.8,517.2,363.8,516.1z"/>
		<path id="XMLID_523_" class="st1" d="M382,520.1c1.6,0.4,2.7,1.8,2.7,3.7c0,2.8-2,4.3-5.5,4.3h-7.5v-15.6h7.3c3.1,0,4.9,1.5,4.9,4
			c0,1.4-0.7,2.6-1.8,3.1v0.5H382z M373.6,514.2v5h5.3c2,0,2.9-1,2.9-2.5c0-1.7-0.9-2.5-2.9-2.5H373.6z M379.4,526.3
			c2.3,0,3.3-0.9,3.3-2.7c0-1.8-1.1-2.7-3.3-2.7h-5.7v5.4L379.4,526.3L379.4,526.3z"/>
		<path id="XMLID_521_" class="st1" d="M388.9,528.1v-15.6h11.3v1.8h-9.4v13.9L388.9,528.1L388.9,528.1z"/>
		<path id="XMLID_518_" class="st1" d="M415.8,526.3h2.9v6.2h-2V528h-14.3v4.5h-2v-6.2h2c1.5-2.8,2.2-6.1,2.2-9.7v-4.2h11.2
			L415.8,526.3L415.8,526.3z M413.9,526.3v-12.1h-7.4v2.4c0,3.9-0.6,7.1-1.9,9.7H413.9L413.9,526.3z"/>
		<path id="XMLID_515_" class="st1" d="M435.4,519.9h-12.1v0.4c0,3.9,2.1,6.4,5.4,6.4c2.3,0,3.9-1,4.4-2.8h2
			c-0.5,2.6-2.8,4.5-6.4,4.5c-2.3,0-4.2-0.7-5.4-2.4c-1.4-1.6-2-3.6-2-6.1c0-2.4,0.6-4.4,2-5.8c1.4-1.5,3.1-2.2,5.4-2.2
			c2.2,0,3.8,0.7,5,2.1c1.1,1.4,1.8,3.1,1.8,5.1L435.4,519.9L435.4,519.9L435.4,519.9z M423.4,518.2h10c-0.1-2.4-2-4.4-4.7-4.4
			C425.7,513.8,423.8,515.6,423.4,518.2z"/>
		<path id="XMLID_510_" class="st1" d="M452.8,519.9h-12.1v0.4c0,3.9,2.1,6.4,5.4,6.4c2.3,0,3.9-1,4.4-2.8h2
			c-0.5,2.6-2.8,4.5-6.4,4.5c-2.3,0-4.2-0.7-5.4-2.4c-1.4-1.6-2-3.6-2-6.1c0-2.4,0.6-4.4,2-5.8c1.4-1.5,3.1-2.2,5.4-2.2
			c2.2,0,3.8,0.7,5,2.1c1.1,1.4,1.8,3.1,1.8,5.1L452.8,519.9L452.8,519.9L452.8,519.9z M440.8,518.2h10c-0.1-2.4-2-4.4-4.7-4.4
			C443.1,513.8,441.2,515.6,440.8,518.2z M444.4,507.8h-2.2v-2.5h2.2V507.8z M449.9,507.8h-2.2v-2.5h2.2V507.8z"/>
		<path id="XMLID_508_" class="st1" d="M461,521l-3.1,7.1h-2.1l3.4-8l-3.2-7.6h2.1l2.9,6.8h4.4v-6.8h2v6.8h4.4l2.9-6.8h2.1l-3.2,7.6
			l3.4,8h-2.1l-3.1-7.1h-4.4v7.1h-2V521H461z"/>
		<path id="XMLID_506_" class="st1" d="M486,513.8c-2.3,0-3.8,0.9-4.1,2.7h-2c0.3-2.7,2.6-4.5,6.1-4.5c3.7,0,5.7,1.9,5.7,4.3
			c0,1.7-0.8,2.8-1.9,3.2v0.6c1.7,0.5,2.4,1.8,2.4,3.7c0,1.3-0.5,2.4-1.7,3.2c-1,0.9-2.6,1.4-4.6,1.4c-4,0-6.3-1.8-6.8-4.7h2
			c0.6,2,2.2,2.9,4.8,2.9c2.5,0,4.3-1,4.3-2.9s-1.3-2.8-3.9-2.8h-2.8v-1.8h2.7c2.3,0,3.3-1.1,3.3-2.6
			C489.7,514.8,488.2,513.8,486,513.8z"/>
		<path id="XMLID_504_" class="st1" d="M500.1,528.1h-3.4v-15.6h2v13.6h0.6l7.2-13.7h3.7V528h-2v-13.7h-0.6L500.1,528.1z"/>
		<path id="XMLID_501_" class="st1" d="M518.9,528.1h-3.4v-15.6h2v13.6h0.6l7.2-13.7h3.7V528h-2v-13.7h-0.6L518.9,528.1z M525,505.4
			h1.7v0.4c0,2.6-1.9,4.2-4.5,4.2s-4.5-1.6-4.5-4.2v-0.4h1.7v0.4c0,1.7,1.1,2.6,2.8,2.6c1.8,0,2.8-1,2.8-2.6V505.4L525,505.4z"/>
		<path id="XMLID_499_" class="st1" d="M545,528.1l-3.6-7.2h-5.2v7.2h-2v-15.6h2v6.7h5.2l3.3-6.7h2.1L543,520l4.1,8L545,528.1
			L545,528.1z"/>
		<path id="XMLID_497_" class="st1" d="M549.2,528.1v-1.8h0.5c1.1,0,2-0.5,2.4-1.7c0.4-1.1,0.7-3.2,0.7-6.3v-5.8h11.4v15.6h-2v-13.9
			h-7.5v4.1c0,3.7-0.4,6.2-1.1,7.6c-0.7,1.5-2.1,2.2-3.9,2.2L549.2,528.1L549.2,528.1z"/>
		<path id="XMLID_495_" class="st1" d="M569.6,528.1v-15.6h3.4l4.2,7.5h0.6l4.1-7.5h3.4v15.6h-2v-13.7h-0.5l-4.1,7.4h-2.6l-4.1-7.4
			h-0.5v13.7H569.6z"/>
		<path id="XMLID_493_" class="st1" d="M604.2,528.1h-2v-7.2h-9.5v7.2h-2v-15.6h2v6.7h9.5v-6.7h2V528.1z"/>
		<path id="XMLID_490_" class="st1" d="M621.5,514.4c1.4,1.6,2,3.6,2,5.8c0,2.2-0.7,4.3-2,5.8c-1.4,1.6-3.1,2.3-5.5,2.3
			c-2.3,0-4.2-0.7-5.5-2.3c-1.4-1.6-2-3.6-2-5.8c0-2.2,0.6-4.3,2-5.8c1.4-1.6,3.1-2.3,5.5-2.3C618.3,512.1,620.2,512.8,621.5,514.4z
			 M616,526.7c1.8,0,3.1-0.6,4.1-1.9c0.9-1.3,1.5-2.8,1.5-4.6s-0.4-3.3-1.5-4.6c-0.9-1.3-2.3-1.9-4.1-1.9c-1.8,0-3.1,0.6-4.1,1.9
			c-0.9,1.3-1.5,2.8-1.5,4.6s0.4,3.3,1.5,4.6C612.9,526.1,614.2,526.7,616,526.7z"/>
		<path id="XMLID_488_" class="st1" d="M641.2,528.1h-2v-13.9h-9.4v13.9h-2v-15.6h13.4V528.1L641.2,528.1z"/>
		<path id="XMLID_485_" class="st1" d="M649.1,526.3h-0.6v8h-2v-21.8h1.9v1.8h0.6c1.1-1.5,2.8-2.2,5-2.2c2.1,0,3.8,0.7,5,2.3
			c1.3,1.6,1.9,3.4,1.9,5.8s-0.6,4.4-1.9,5.8c-1.3,1.6-2.9,2.3-5.1,2.3C651.8,528.5,650.1,527.8,649.1,526.3z M649.7,515.6
			c-0.9,1.3-1.4,2.8-1.4,4.6s0.4,3.3,1.4,4.6c0.9,1.3,2.3,1.9,4.1,1.9c3.3,0,5.2-2.6,5.2-6.5s-1.9-6.5-5.2-6.5
			C652,513.8,650.7,514.4,649.7,515.6z"/>
		<path id="XMLID_483_" class="st1" d="M678.1,523.6c-0.6,2.9-2.9,4.9-6.4,4.9c-2.3,0-4.2-0.7-5.5-2.3c-1.4-1.6-2-3.6-2-5.8
			c0-2.4,0.6-4.4,2-5.8c1.4-1.6,3.1-2.3,5.5-2.3c3.4,0,5.6,1.9,6.3,4.7h-2c-0.6-2-2.1-3-4.3-3c-1.9,0-3.2,0.6-4.1,1.8
			c-0.9,1.3-1.4,2.7-1.4,4.6c0,1.9,0.4,3.4,1.4,4.7c0.9,1.3,2.3,1.9,4.1,1.9c2.4,0,3.9-1,4.4-3.1L678.1,523.6L678.1,523.6z"/>
		<path id="XMLID_481_" class="st1" d="M680.5,514.2v-1.8h13v1.8H688v13.9h-2v-13.9H680.5z"/>
		<path id="XMLID_479_" class="st1" d="M700.6,534.3h-2l3.2-7.7l-6.6-14.1h2.1l5.1,11h0.7l4.7-11h2.1L700.6,534.3z"/>
		<path id="XMLID_475_" class="st1" d="M345.2,559.3v6.3h-2v-6.3h-0.5c-2.4,0-4.2-0.7-5.5-2.2c-1.4-1.5-2-3.3-2-5.6
			c0-2.3,0.6-4.2,2-5.6c1.4-1.5,3.1-2.2,5.5-2.2h0.5v-7.1h2v7.1h0.5c2.4,0,4.2,0.7,5.5,2.2c1.4,1.5,2,3.3,2,5.6c0,2.3-0.6,4.2-2,5.6
			c-1.4,1.5-3.1,2.2-5.5,2.2H345.2z M343.3,557.6v-12.1h-0.5c-3.7,0-5.5,2.6-5.5,6.1c0,3.4,2,6.1,5.5,6.1L343.3,557.6L343.3,557.6z
			 M345.2,557.6h0.5c3.7,0,5.5-2.6,5.5-6.1c0-3.4-2-6.1-5.5-6.1h-0.5V557.6z"/>
		<path id="XMLID_473_" class="st1" d="M367.5,559.3l-4.2-6.9h-1.1l-4.4,6.9h-2.2l5-8l-4.5-7.6h2.1l3.9,6.5h1.1l4-6.5h2.1l-4.6,7.5
			l5,8L367.5,559.3L367.5,559.3z"/>
		<path id="XMLID_471_" class="st1" d="M384.9,543.7h2v13.9h2.9v6.2h-2v-4.5h-14.1v-15.6h2v13.9h9.3L384.9,543.7L384.9,543.7z"/>
		<path id="XMLID_469_" class="st1" d="M392.5,543.7h2v4.4c0,1.1,0,1.5,0.5,2.3c0.5,0.7,1.7,1.1,3.8,1.1c1.5,0,2.9-0.1,4.3-0.4v-7.4
			h2v15.6h-2v-6.5c-1.5,0.3-3,0.4-4.5,0.4c-2.3,0-3.9-0.5-4.7-1c-0.4-0.3-0.7-0.7-0.9-1.3c-0.4-1-0.4-1.7-0.4-2.9L392.5,543.7
			L392.5,543.7z"/>
		<path id="XMLID_467_" class="st1" d="M427.8,543.7h2v15.6h-19.4v-15.6h2v13.9h6.8v-13.9h2v13.9h6.8L427.8,543.7L427.8,543.7z"/>
		<path id="XMLID_465_" class="st1" d="M452.5,543.7h2v13.9h2.9v6.2h-2v-4.5H435v-15.6h2v13.9h6.8v-13.9h2v13.9h6.8L452.5,543.7
			L452.5,543.7z"/>
		<path id="XMLID_462_" class="st1" d="M458.9,545.5v-1.8h6.7v5.4h4.9c3.7,0,5.7,1.9,5.7,5c0,3.1-2.1,5.1-5.7,5.1h-6.9v-13.9h-4.7
			V545.5z M470.3,557.6c2.7,0,4.1-1,4.1-3.3c0-2.2-1.4-3.3-4.1-3.3h-4.7v6.7L470.3,557.6L470.3,557.6z"/>
		<path id="XMLID_458_" class="st1" d="M482.2,543.7v5.4h4.6c3.7,0,5.7,1.9,5.7,5c0,3.1-2.1,5.1-5.7,5.1h-6.6v-15.6h2V543.7z
			 M486.6,557.6c2.7,0,4.1-1,4.1-3.3c0-2.2-1.4-3.3-4.1-3.3h-4.4v6.7L486.6,557.6L486.6,557.6z M497,543.7v15.6h-2v-15.6H497z"/>
		<path id="XMLID_455_" class="st1" d="M504.3,543.7v5.4h4.9c3.7,0,5.7,1.9,5.7,5c0,3.1-2.1,5.1-5.7,5.1h-6.9v-15.6h2V543.7z
			 M509,557.6c2.7,0,4.1-1,4.1-3.3c0-2.2-1.4-3.3-4.1-3.3h-4.7v6.7L509,557.6L509,557.6z"/>
		<path id="XMLID_453_" class="st1" d="M519.9,555c0.5,1.8,2.1,2.9,4.6,2.9c3.1,0,5.1-2.4,5.2-5.7H522v-1.8h7.6
			c-0.1-3.2-2.1-5.4-5.2-5.4c-2.4,0-4,1-4.5,2.8h-2c0.6-2.7,3-4.6,6.4-4.6c2.3,0,4.1,0.7,5.3,2.3c1.3,1.5,2,3.4,2,6
			c0,2.4-0.6,4.4-2,6c-1.3,1.6-3.1,2.3-5.4,2.3c-3.3,0-5.8-1.9-6.5-4.7L519.9,555L519.9,555z"/>
		<path id="XMLID_450_" class="st1" d="M554.6,545.7c1.4,1.6,2,3.6,2,5.8s-0.6,4.3-2,5.8c-1.4,1.6-3.1,2.3-5.4,2.3
			c-2.2,0-3.9-0.7-5.2-2.1c-1.3-1.5-2-3.2-2.1-5.4H538v7.2h-2v-15.6h2v6.7h4c0.2-2.1,0.9-3.8,2.2-5.1c1.3-1.4,2.9-2,5-2
			C551.4,543.3,553.2,544.2,554.6,545.7z M549.1,558.1c1.7,0,3-0.6,4-1.9c0.9-1.3,1.4-2.8,1.4-4.6c0-1.8-0.4-3.2-1.4-4.6
			c-0.9-1.3-2.3-1.9-4-1.9c-1.7,0-3,0.6-4,1.9c-0.9,1.3-1.4,2.8-1.4,4.6c0,1.8,0.4,3.3,1.4,4.6C546.1,557.4,547.5,558.1,549.1,558.1
			z"/>
		<path id="XMLID_447_" class="st1" d="M573.3,543.7v15.6h-2v-6.6h-5.7c-0.4,0-0.6,0-0.8,0l-2.5,6.6h-2.1l2.7-7.1
			c-1.7-0.7-2.4-2.1-2.4-4.1c0-2.8,1.9-4.5,5.1-4.5L573.3,543.7L573.3,543.7z M571.4,545.5h-5.5c-2.2,0-3.3,0.9-3.3,2.8
			s1.1,2.7,3.3,2.7h5.5V545.5z"/>
		<path id="XMLID_444_" class="st1" d="M343,580.8c2.4,0,4.3,0.9,5.6,2.8c1.5,1.9,2.2,4.7,2.2,8.5s-0.7,6.6-2.2,8.5
			c-1.4,1.9-3.3,2.8-5.6,2.8c-2.4,0-4.3-0.9-5.7-2.8c-1.4-1.9-2.1-4.7-2.1-8.5s0.7-6.6,2.1-8.5C338.8,581.8,340.6,580.8,343,580.8z
			 M343,601.7c1.9,0,3.3-0.8,4.3-2.4c1-1.7,1.5-4,1.5-7.1s-0.5-5.4-1.5-7.1c-0.9-1.7-2.4-2.5-4.3-2.5c-1.9,0-3.3,0.8-4.4,2.5
			c-0.9,1.7-1.5,4-1.5,7.1s0.5,5.4,1.5,7.1C339.7,600.9,341.2,601.7,343,601.7z"/>
		<path id="XMLID_442_" class="st1" d="M354.6,603.1v-1.8h5.3v-17.9h-0.6l-4.7,3.1v-2.2l4.7-3.1h2.6v20.1h4.9v1.8H354.6z"/>
		<path id="XMLID_440_" class="st1" d="M384.4,601.3v1.8h-14.5v-2.4c4.1-3.4,6.9-5.8,8.5-7.3c2.3-2.1,3.3-4.1,3.3-6
			c0-3-1.9-4.7-4.9-4.7c-2.8,0-4.6,1.6-4.9,4.4h-2c0.1-2,0.8-3.6,2.2-4.7c1.4-1,2.9-1.6,4.8-1.6c2,0,3.7,0.5,5,1.7
			c1.3,1.1,2,2.7,2,4.8c0,2.7-1.5,4.7-4.2,7.3c-0.4,0.4-1.3,1.1-2.4,2.2l-3,2.6l-1.4,1.1v0.6L384.4,601.3L384.4,601.3z"/>
		<path id="XMLID_438_" class="st1" d="M388.5,581.2h12.2v2.4l-6,5.3v0.6c2.1,0,3.8,0.6,5,1.8c1.3,1.1,2,2.8,2,5s-0.7,4-2.1,5.2
			c-1.4,1.3-3.1,1.9-5.3,1.9c-2.1,0-3.8-0.6-5.2-1.8c-1.4-1.1-2.1-2.7-2.2-4.5h2c0.1,1.4,0.6,2.4,1.7,3.2c1,0.8,2.3,1.3,3.7,1.3
			c3.2,0,5.4-2.1,5.4-5.3c0-3.1-2-5-5.4-5c-0.7,0-1.4,0.1-1.9,0.2V589l5.8-5.3V583h-9.8L388.5,581.2L388.5,581.2z"/>
		<path id="XMLID_435_" class="st1" d="M417.5,596h3.1v1.8h-3.1v5.3h-2v-5.3h-11v-2.4l9.7-14.1h3.2L417.5,596L417.5,596z M406.8,596
			h8.8v-12.6H415l-8.1,12L406.8,596L406.8,596z"/>
		<path id="XMLID_433_" class="st1" d="M436.7,590.5c1.3,1.4,1.9,3.1,1.9,5.2c0,2.3-0.6,4.3-2,5.6c-1.4,1.4-3.1,2.1-5.3,2.1
			c-4.5,0-7.1-2.6-7.3-6.3h2c0.3,2.9,2.3,4.5,5.2,4.5c3.2,0,5.3-2.2,5.3-5.8c0-1.7-0.4-2.9-1.5-4.1c-0.9-1-2.2-1.6-3.8-1.6
			c-2.2,0-3.8,0.7-4.7,2.3h-2.2l0.9-11.3h12.1v1.8H427l-0.5,7h0.6c1.1-1,2.6-1.7,4.4-1.7C433.7,588.5,435.5,589.2,436.7,590.5z"/>
		<path id="XMLID_430_" class="st1" d="M455,591c1.4,1.4,2,3,2,5.1c0,2.2-0.6,4-2,5.3c-1.3,1.4-3,2.1-5.2,2.1
			c-5.2,0-7.7-3.6-7.7-10.7c0-3.6,0.7-6.5,2.1-8.7c1.4-2.3,3.4-3.3,6.1-3.3c3.4,0,5.6,2,6.3,5h-2c-0.6-2.1-2-3.1-4.2-3.1
			c-3.8,0-6,3.3-6.2,8.6h0.6c1.3-1.5,3-2.3,5.3-2.3C452.1,589,453.8,589.6,455,591z M455,596.2c0-3.4-2.2-5.4-5.2-5.4
			s-5.2,2-5.2,5.3c0,3.4,2.3,5.5,5.3,5.5C452.9,601.7,455,599.6,455,596.2z"/>
		<path id="XMLID_428_" class="st1" d="M473.5,583.7l-9.7,19.4h-2.2l9.8-19.4V583H460v-1.8h13.5V583.7z"/>
		<path id="XMLID_424_" class="st1" d="M489.6,601.8c-1.5,1.1-3.2,1.7-5.5,1.7s-4.1-0.5-5.5-1.7c-1.5-1.1-2.2-2.6-2.2-4.5
			c0-2.7,1.8-4.6,3.8-5.3v-0.6c-2.1-1-3.1-2.6-3.1-4.7c0-1.8,0.6-3.1,2-4.3c1.4-1,3-1.7,5.1-1.7s3.8,0.5,5.1,1.7c1.4,1,2,2.5,2,4.3
			c0,2-1,3.6-3.1,4.7v0.6c2,0.7,3.8,2.6,3.8,5.3C491.7,599.1,491,600.6,489.6,601.8z M488.1,593.9c-1-0.8-2.4-1.3-4.1-1.3
			s-3,0.4-4.1,1.3c-1.1,0.9-1.6,2-1.6,3.3c0,1.4,0.5,2.4,1.6,3.2c1,0.8,2.4,1.3,4.1,1.3s3-0.4,4.1-1.3c1-0.8,1.7-2,1.7-3.2
			C489.7,595.8,489.2,594.7,488.1,593.9z M478.9,586.7c0,1.3,0.4,2.3,1.5,3c0.9,0.7,2.2,1,3.6,1s2.6-0.4,3.6-1
			c0.9-0.7,1.5-1.7,1.5-3c0-1.4-0.5-2.3-1.5-3s-2.2-1-3.6-1s-2.6,0.4-3.6,1C479.5,584.4,478.9,585.4,478.9,586.7z"/>
		<path id="XMLID_421_" class="st1" d="M496.8,593.4c-1.4-1.4-2-3-2-5.1c0-2.2,0.6-3.9,2-5.3c1.3-1.4,3-2.1,5.2-2.1
			c5.2,0,7.7,3.6,7.7,10.7c0,3.6-0.7,6.5-2.1,8.7c-1.4,2.3-3.4,3.3-6.1,3.3c-3.4,0-5.6-2-6.3-5h2c0.6,2.1,2,3.1,4.2,3.1
			c3.8,0,6-3.3,6.2-8.6H507c-1.3,1.5-3,2.3-5.3,2.3C499.7,595.4,498.2,594.6,496.8,593.4z M496.8,588.1c0,3.4,2.2,5.4,5.2,5.4
			s5.2-2,5.2-5.3c0-3.4-2.3-5.5-5.3-5.5C498.9,582.6,496.8,584.6,496.8,588.1z"/>
	</g>
	<g id="XMLID_223_">
		<path id="XMLID_417_" class="st1" d="M1202.2,447.5l-2.1-6.4h-9.2l-2,6.4h-3.8l7.4-22.2h6l7.4,22.2H1202.2z M1194.9,428.8
			l-2.8,8.9h7l-2.8-8.9H1194.9z"/>
		<path id="XMLID_414_" class="st1" d="M1219.4,434c4.8,0,7.6,2.5,7.6,6.8s-2.8,6.8-7.6,6.8h-10v-22.2h15.8v3.4h-12v5.3h6.3V434
			H1219.4z M1218.7,444.2c3.2,0,4.5-1.3,4.5-3.6s-1.3-3.6-4.5-3.6h-5.6v7.1h5.6V444.2z"/>
		<path id="XMLID_410_" class="st1" d="M1246.3,436.3c1.8,0.7,3,2.7,3,4.9c0,3.8-2.6,6.4-7.6,6.4h-10.3v-22.2h10.1
			c2.3,0,4.1,0.5,5.3,1.7c1.3,1,1.9,2.5,1.9,4.1c0,2.1-0.7,3.7-2.3,4.5L1246.3,436.3L1246.3,436.3z M1241.1,434.4
			c2.5,0,3.8-1,3.8-2.9c0-2-1.3-2.9-3.8-2.9h-6v5.8H1241.1L1241.1,434.4z M1241.2,444.3c2.8,0,4.3-1.1,4.3-3.3s-1.5-3.3-4.3-3.3
			h-6.2v6.7L1241.2,444.3L1241.2,444.3z"/>
		<path id="XMLID_408_" class="st1" d="M1269.3,428.6h-11.9v18.9h-3.8v-22.2h15.7L1269.3,428.6L1269.3,428.6z"/>
		<path id="XMLID_405_" class="st1" d="M1288.7,444.1h3.1v8.9h-3.7v-5.4h-15.8v5.4h-3.7v-8.9h2.3c1.8-3.6,2.7-8.1,2.7-13.7v-5.2
			h14.8v18.9L1288.7,444.1L1288.7,444.1z M1285,444.1v-15.5h-7.6v2.2c0,5.5-0.7,10-2.4,13.4h10V444.1L1285,444.1z"/>
		<path id="XMLID_403_" class="st1" d="M1299.1,444.1h12.6v3.4h-16.4v-22.2h16v3.4h-12.2v5.7h9.7v3.3h-9.7V444.1L1299.1,444.1z"/>
		<path id="XMLID_399_" class="st1" d="M1319.7,444.1h12.6v3.4H1316v-22.2h16v3.4h-12.2v5.7h9.7v3.3h-9.7L1319.7,444.1L1319.7,444.1
			z M1322.5,422.7h-3.1v-3.1h3.1V422.7z M1328.4,422.7h-3.1v-3.1h3.1V422.7z"/>
		<path id="XMLID_397_" class="st1" d="M1357.3,437.9h-5.2v9.6h-3.7v-9.6h-5.2l-4,9.6h-3.9l4.7-11.3l-4.4-11h3.9l3.7,9.3h5.2v-9.3
			h3.7v9.3h5.2l3.7-9.3h3.9l-4.5,11l4.7,11.3h-3.9L1357.3,437.9z"/>
		<path id="XMLID_395_" class="st1" d="M1377,428.2c-2.7,0-4.2,1-4.6,3h-3.9c0.4-4,3.7-6.4,8.6-6.4c2.5,0,4.5,0.5,5.8,1.7
			c1.4,1.1,2.1,2.6,2.1,4.3c0,2.2-0.7,3.7-2.3,4.5v0.7c2.1,0.8,3.1,2.5,3.1,5.1c0,2-0.7,3.6-2.3,4.8c-1.6,1.3-3.8,2-6.5,2
			c-5.6,0-8.9-2.5-9.5-6.9h4c0.6,2.3,2.5,3.4,5.5,3.4c2.9,0,4.8-1.4,4.8-3.4c0-2.3-1.5-3.3-4.5-3.3h-3.4v-3.3h3.4
			c2.6,0,3.7-1.3,3.7-3C1381.2,429.4,1379.5,428.2,1377,428.2z"/>
		<path id="XMLID_393_" class="st1" d="M1390.1,425.2h3.6v17.3h0.7l9.2-17.3h5.3v22.2h-3.6v-17.3h-0.7l-9.2,17.3h-5.3V425.2z"/>
		<path id="XMLID_390_" class="st1" d="M1414.4,425.2h3.6v17.3h0.7l9.2-17.3h5.3v22.2h-3.6v-17.3h-0.7l-9.2,17.3h-5.3V425.2z
			 M1429.5,419.3c-0.1,3-2.3,4.8-5.6,4.8c-3.2,0-5.5-1.8-5.6-4.8h2.8c0.1,1.4,1.1,2.3,2.8,2.3c1.7,0,2.7-0.9,2.8-2.3H1429.5z"/>
		<path id="XMLID_388_" class="st1" d="M1438.6,447.5v-22.2h3.8v9.1h6.1l4.3-9.1h3.9l-5,10.9l5.3,11.5h-3.9l-4.6-9.8h-6.1v9.8h-3.8
			L1438.6,447.5L1438.6,447.5z"/>
		<path id="XMLID_386_" class="st1" d="M1458.7,443.8h0.7c0.9,0,1.7-0.2,2.2-0.6c1-0.8,1.7-3.6,1.7-9.2v-8.7h15.5v22.2h-3.8v-18.9
			h-8.3v5.7c0,5.3-0.5,8.8-1.8,10.7c-1.3,1.9-2.8,2.5-5.5,2.5h-0.7L1458.7,443.8L1458.7,443.8z"/>
		<path id="XMLID_384_" class="st1" d="M1484.1,447.5v-22.2h6l4.6,9.7h0.7l4.6-9.7h6v22.2h-3.6v-17.9h-0.7l-4.7,9.8h-3.8l-4.7-9.8
			h-0.7v17.9H1484.1z"/>
		<path id="XMLID_382_" class="st1" d="M1526.2,425.2h3.8v22.2h-3.8v-9.7H1515v9.7h-3.8v-22.2h3.8v9.1h11.2V425.2z"/>
		<path id="XMLID_379_" class="st1" d="M1544.9,424.8c3.3,0,6,1,7.8,3.2c1.9,2.2,2.8,4.9,2.8,8.3c0,3.3-0.9,6.2-2.8,8.3
			c-1.9,2.2-4.5,3.2-7.8,3.2s-6-1-7.8-3.2c-1.9-2.2-2.8-4.9-2.8-8.3c0-3.3,0.9-6.2,2.8-8.3C1539,425.9,1541.6,424.8,1544.9,424.8z
			 M1544.9,444.5c2.3,0,4-0.7,5.1-2.3c1.1-1.6,1.7-3.4,1.7-5.8s-0.5-4.3-1.7-5.8c-1.1-1.6-2.8-2.3-5.1-2.3c-2.3,0-4,0.7-5.1,2.3
			c-1.1,1.6-1.7,3.4-1.7,5.8s0.5,4.3,1.7,5.8C1541,443.8,1542.7,444.5,1544.9,444.5z"/>
		<path id="XMLID_377_" class="st1" d="M1560,425.2h18.4v22.2h-3.8v-18.9h-10.9v18.9h-3.8v-22.2H1560z"/>
		<path id="XMLID_374_" class="st1" d="M1197.2,465.3c5,0,7.8,2.6,7.8,6.9c0,4.4-2.8,7-7.8,7h-6.1v8.5h-3.8v-22.2h9.8L1197.2,465.3
			L1197.2,465.3z M1196.6,475.9c3,0,4.6-1.3,4.6-3.7s-1.4-3.6-4.6-3.6h-5.5v7.2h5.5V475.9z"/>
		<path id="XMLID_372_" class="st1" d="M1227.7,480.9c-0.7,4.4-4.1,7.1-9.1,7.1c-3.2,0-5.8-1-7.7-3.1c-1.9-2.2-2.8-4.9-2.8-8.4
			s0.9-6.2,2.8-8.4c1.9-2.2,4.5-3.2,7.7-3.2c2.3,0,4.3,0.6,5.8,1.8c1.6,1.1,2.6,2.8,2.9,4.8h-4c-0.7-2.1-2.3-3.1-4.9-3.1
			c-2.2,0-3.9,0.7-5,2.3c-1.1,1.6-1.7,3.4-1.7,5.8s0.5,4.4,1.7,5.8c1.1,1.6,2.8,2.3,5,2.3c2.7,0,4.6-1.4,5.1-3.8L1227.7,480.9
			L1227.7,480.9z"/>
		<path id="XMLID_370_" class="st1" d="M1247.8,465.3v3.3h-7.1v19h-3.8v-19h-7.1v-3.3H1247.8z"/>
		<path id="XMLID_368_" class="st1" d="M1258.5,476.2h0.8l5.1-10.8h3.9l-10.7,22.2h-3.8l3.1-6.7l-8.3-15.6h4L1258.5,476.2z"/>
		<path id="XMLID_364_" class="st1" d="M1283.7,467.2h0.3c3.1,0,5.5,0.7,7.4,2.3c1.9,1.6,2.7,3.8,2.7,6.7c0,5.8-3.9,9-10.1,9h-0.3
			v2.9h-3.7v-2.9h-0.3c-6.4,0-10.1-3-10.1-9c0-2.9,0.9-5.1,2.7-6.7c1.9-1.6,4.3-2.3,7.4-2.3h0.3v-2.6h3.7V467.2z M1280,481.9v-11.4
			h-0.3c-4.1,0-6.5,1.9-6.5,5.7c0,3.8,2.4,5.7,6.5,5.7L1280,481.9L1280,481.9z M1283.7,481.9h0.3c4.1,0,6.5-2,6.5-5.7
			c0-3.9-2.4-5.7-6.5-5.7h-0.3V481.9z"/>
		<path id="XMLID_362_" class="st1" d="M1311.3,487.7l-5.1-9.6h-1l-5.2,9.6h-4.1l6.4-11.7l-5.5-10.6h4l4.5,8.6h1l4.6-8.6h3.9
			l-5.5,10.4l6.4,11.9L1311.3,487.7L1311.3,487.7z"/>
		<path id="XMLID_360_" class="st1" d="M1336.6,493.1v-5.4h-17.8v-22.2h3.8v18.9h10.8v-18.9h3.8v18.9h3.2v8.9h-3.8V493.1z"/>
		<path id="XMLID_358_" class="st1" d="M1342.8,465.3h3.8v6.4v0.8c0,0.4,0.1,1.1,0.4,1.6c0.6,0.9,1.8,1.7,4.7,1.7
			c1.6,0,3.1-0.2,4.6-0.5v-9.8h3.8v22.2h-3.8v-9c-1.6,0.4-3.3,0.5-5.3,0.5c-3,0-5.1-0.7-6.3-1.5c-0.5-0.4-0.9-0.9-1.3-1.7
			c-0.3-0.7-0.4-1.4-0.5-1.9c0-0.5-0.1-1.3-0.1-2.1L1342.8,465.3L1342.8,465.3z"/>
		<path id="XMLID_356_" class="st1" d="M1377,484.2v-18.9h3.7v18.9h7.9v-18.9h3.7v22.2h-26.7v-22.2h3.7v18.9H1377z"/>
		<path id="XMLID_354_" class="st1" d="M1423.9,493.1v-5.4h-26.3v-22.2h3.7v18.9h7.9v-18.9h3.7v18.9h7.9v-18.9h3.7v18.9h3.1v8.9
			h-3.7L1423.9,493.1L1423.9,493.1z"/>
		<path id="XMLID_351_" class="st1" d="M1434.2,487.7v-18.9h-5.6v-3.4h9.4v8h5.8c5.1,0,8,2.6,8,7.1s-2.9,7.1-8,7.1L1434.2,487.7
			L1434.2,487.7L1434.2,487.7z M1443.2,484.3c3.4,0,4.8-1.4,4.8-3.9s-1.4-3.8-4.8-3.8h-5.3v7.6L1443.2,484.3L1443.2,484.3z"/>
		<path id="XMLID_347_" class="st1" d="M1456.1,487.7v-22.2h3.8v8h5.3c5.1,0,8,2.6,8,7.1s-2.9,7.1-8,7.1H1456.1z M1464.6,484.3
			c3.4,0,4.8-1.4,4.8-3.9s-1.4-3.8-4.8-3.8h-4.7v7.6L1464.6,484.3L1464.6,484.3z M1475.9,465.3h3.8v22.2h-3.8V465.3z"/>
		<path id="XMLID_344_" class="st1" d="M1485.1,487.7v-22.2h3.8v8h5.8c5,0,8,2.6,8,7.1s-2.9,7.1-8,7.1H1485.1z M1494.1,484.3
			c3.4,0,4.8-1.4,4.8-3.9s-1.4-3.8-4.8-3.8h-5.3v7.6L1494.1,484.3L1494.1,484.3z"/>
		<path id="XMLID_342_" class="st1" d="M1509.5,481.3c0.6,2.1,2.5,3.3,5.1,3.3c4,0,6.2-2.7,6.5-6.8h-9.3v-3.3h9.3
			c-0.4-3.8-2.6-6.3-6.4-6.3c-2.6,0-4.3,1-5,3h-3.9c0.4-2,1.4-3.4,3-4.6c1.6-1.1,3.6-1.8,5.8-1.8c3.2,0,5.8,1,7.6,3.2
			c1.9,2.1,2.8,4.9,2.8,8.4s-0.9,6.2-2.8,8.4c-1.9,2.2-4.4,3.2-7.7,3.2c-2.4,0-4.5-0.6-6.1-1.9c-1.7-1.3-2.6-2.8-2.9-4.9
			L1509.5,481.3L1509.5,481.3z"/>
		<path id="XMLID_339_" class="st1" d="M1555.5,468.2c1.9,2.2,2.7,4.9,2.7,8.3s-0.9,6.2-2.7,8.3c-1.9,2.2-4.4,3.2-7.7,3.2
			c-3,0-5.4-0.9-7.3-2.8c-1.8-1.9-2.8-4.3-3.1-7.3h-4.2v9.7h-3.8v-22.2h3.8v9.1h4.3c0.3-2.8,1.5-5.1,3.2-6.8
			c1.8-1.8,4.2-2.6,7.1-2.6C1551.1,465,1553.6,466,1555.5,468.2z M1552.7,482.3c1.1-1.6,1.7-3.4,1.7-5.8s-0.5-4.3-1.7-5.8
			c-1.1-1.6-2.7-2.3-4.9-2.3s-3.8,0.7-4.9,2.3c-1.1,1.6-1.7,3.4-1.7,5.8s0.5,4.3,1.7,5.8c1.1,1.6,2.8,2.3,4.9,2.3
			C1549.9,484.6,1551.5,483.9,1552.7,482.3z"/>
		<path id="XMLID_336_" class="st1" d="M1579.5,465.3v22.2h-3.8v-8.9h-5.2c-0.8,0-1.6,0-2-0.1l-3.1,8.9h-3.8l3.4-9.7
			c-2.2-1-3.3-3-3.3-5.8c0-4.2,2.8-6.7,7.6-6.7h10.1L1579.5,465.3L1579.5,465.3z M1575.7,475.5v-6.9h-5.8c-3,0-4.3,1.1-4.3,3.4
			s1.5,3.4,4.3,3.4L1575.7,475.5L1575.7,475.5z"/>
		<path id="XMLID_333_" class="st1" d="M1197,527.8v-1.5h-0.7c-0.9,1.3-2.5,1.9-4.7,1.9c-1.8,0-3.1-0.5-4.2-1.5
			c-1-1-1.6-2.3-1.6-3.8s0.5-2.7,1.6-3.8c1-1,2.6-1.6,4.7-1.6h4.7v-0.4c0-1.9-1-2.9-3.3-2.9c-2,0-3,0.7-3.1,2h-3.4
			c0.1-2.9,2.8-4.8,6.6-4.8c4.3,0,6.9,1.9,6.9,5.7v10.6L1197,527.8L1197,527.8z M1195.6,524.1c0.8-0.7,1.3-1.7,1.3-2.8V520h-4.1
			c-2.2,0-3.3,0.9-3.3,2.6c0,1.7,1.1,2.6,3.2,2.6C1193.8,525.3,1194.9,524.9,1195.6,524.1z"/>
		<path id="XMLID_330_" class="st1" d="M1218.1,514.5c1.4,1.5,2.1,3.4,2.1,5.7s-0.7,4.2-2.2,5.7s-3.4,2.3-5.8,2.3
			c-5.1,0-8.1-3.4-8.1-9.7c0-2.9,0.2-5,1-7.3s2.6-3.8,5.2-4.2l4.2-0.7c1.3-0.2,1.6-0.3,1.6-1.1h3c-0.1,2.2-0.7,3.6-3.1,4l-5,0.8
			c-2.4,0.4-3.4,1.9-3.9,4.6h0.7c1.1-1.5,2.8-2.2,5-2.2C1214.9,512.2,1216.8,512.9,1218.1,514.5z M1215.5,523.7
			c0.7-0.9,1.1-2.2,1.1-3.6c0-2.8-1.6-5-4.5-5s-4.5,2.2-4.5,5c0,1.4,0.4,2.6,1.1,3.6c0.7,0.9,1.9,1.5,3.3,1.5
			C1213.6,525.2,1214.6,524.6,1215.5,523.7z"/>
		<path id="XMLID_326_" class="st1" d="M1235.8,519.7c1.6,0.4,2.6,1.7,2.6,3.7c0,2.9-2,4.4-5.6,4.4h-8.8v-15.9h8.5
			c3.2,0,5,1.6,5,4.1c0,1.4-0.7,2.6-1.8,3.1L1235.8,519.7L1235.8,519.7z M1227.6,514.6v3.8h4.3c1.6,0,2.3-0.7,2.3-1.9
			c0-1.3-0.7-1.9-2.3-1.9H1227.6L1227.6,514.6z M1232.2,525.1c1.8,0,2.7-0.7,2.7-2.1s-0.9-2.1-2.7-2.1h-4.7v4.2H1232.2z"/>
		<path id="XMLID_324_" class="st1" d="M1242.4,527.8v-15.9h12.4v3h-8.9v12.8L1242.4,527.8L1242.4,527.8z"/>
		<path id="XMLID_321_" class="st1" d="M1271.4,524.7h2.8v7.4h-3.3v-4.5h-12.7v4.5h-3.3v-7.4h2.3c1-2.6,1.7-5.4,1.7-8.5v-4.5h12.7
			L1271.4,524.7L1271.4,524.7z M1267.9,524.7v-9.9h-6v1.5c0,3.1-0.4,6-1.5,8.4H1267.9L1267.9,524.7L1267.9,524.7z"/>
		<path id="XMLID_318_" class="st1" d="M1291.8,520.1h-11.7c0.1,3.3,1.6,5,4.5,5c1.9,0,3-0.7,3.4-2h3.6c-0.6,3-3.1,5-7.1,5
			c-2.5,0-4.4-0.7-5.8-2.3c-1.4-1.6-2.1-3.6-2.1-6.2c0-2.6,0.7-4.5,2.1-6s3.3-2.3,5.7-2.3c2.3,0,4.1,0.7,5.3,2.1
			c1.4,1.4,2,3.1,2,5.3L1291.8,520.1L1291.8,520.1z M1280.2,517.5h7.9c-0.2-1.9-1.6-3.2-3.8-3.2
			C1282,514.3,1280.6,515.5,1280.2,517.5z"/>
		<path id="XMLID_313_" class="st1" d="M1310,520.1h-11.7c0.1,3.3,1.6,5,4.5,5c1.9,0,3-0.7,3.4-2h3.6c-0.6,3-3.1,5-7.1,5
			c-2.5,0-4.4-0.7-5.8-2.3c-1.4-1.6-2.1-3.6-2.1-6.2c0-2.6,0.7-4.5,2.1-6s3.3-2.3,5.7-2.3c2.3,0,4.1,0.7,5.3,2.1
			c1.4,1.4,2,3.1,2,5.3L1310,520.1L1310,520.1z M1301.2,508.8h-3.1v-3.4h3.1V508.8z M1298.4,517.5h7.9c-0.2-1.9-1.6-3.2-3.8-3.2
			C1300.3,514.3,1298.8,515.5,1298.4,517.5z M1307.2,508.8h-3.1v-3.4h3.1V508.8z"/>
		<path id="XMLID_311_" class="st1" d="M1319.3,521.2l-3,6.6h-3.7l3.7-8.1l-3.4-7.7h3.6l2.8,6.3h3.6V512h3.3v6.3h3.6l2.8-6.3h3.6
			l-3.4,7.7l3.7,8.1h-3.7l-2.9-6.6h-3.6v6.6h-3.3v-6.6H1319.3z"/>
		<path id="XMLID_309_" class="st1" d="M1345.8,514.5c-2,0-3.1,0.7-3.4,2h-3.2c0.3-3.2,2.9-5,6.9-5s6.4,1.9,6.4,4.5
			c0,1.7-0.5,2.7-1.7,3.1v0.7c1.4,0.4,2.1,1.6,2.1,3.4c0,1.4-0.6,2.6-1.9,3.6c-1.3,0.9-2.9,1.4-5,1.4c-4.5,0-7.1-1.9-7.5-5.1h3.3
			c0.4,1.5,1.8,2.2,4.1,2.2s3.4-0.7,3.4-2.1s-1-2-3-2h-2.7v-2.9h2.6c1.8,0,2.7-0.6,2.7-1.9C1349,515.1,1347.7,514.5,1345.8,514.5z"
			/>
		<path id="XMLID_307_" class="st1" d="M1361,527.8h-4v-15.9h3.4v10.4h0.7l6.5-10.4h4.1v15.9h-3.4v-10.4h-0.7L1361,527.8z"/>
		<path id="XMLID_304_" class="st1" d="M1380.6,527.8h-4v-15.9h3.4v10.4h0.7l6.5-10.4h4.1v15.9h-3.4v-10.4h-0.7L1380.6,527.8z
			 M1389.3,505.2c-0.1,2.9-2.1,4.6-5.3,4.6c-3.2,0-5.1-1.7-5.2-4.6h2.8c0.1,1.5,0.9,2.3,2.5,2.3s2.4-0.7,2.5-2.3H1389.3z"/>
		<path id="XMLID_302_" class="st1" d="M1407.2,527.8l-3.3-6.7h-4.1v6.7h-3.6v-15.9h3.6v6.3h4.2l3.1-6.3h3.7l-3.9,7.6l4.1,8.3
			H1407.2L1407.2,527.8z"/>
		<path id="XMLID_300_" class="st1" d="M1412.9,527.8v-3.3h0.5c2.2,0,3-1.5,3-6.2v-6.5h12.8v15.9h-3.6v-12.8h-6.1v3.6
			c0,3.4-0.5,5.8-1.5,7.3c-0.9,1.4-2.6,2.1-4.8,2.1h-0.3V527.8z"/>
		<path id="XMLID_298_" class="st1" d="M1434.2,527.8v-15.9h5l3.6,7h0.7l3.6-7h5v15.9h-3.4v-11.4h-0.7l-3.1,6h-3.3l-3.1-6h-0.7v11.4
			H1434.2z"/>
		<path id="XMLID_296_" class="st1" d="M1471.7,527.8h-3.6v-6.7h-7.7v6.7h-3.6v-15.9h3.6v6.3h7.7v-6.3h3.6V527.8z"/>
		<path id="XMLID_293_" class="st1" d="M1489.5,525.9c-1.5,1.6-3.3,2.3-5.8,2.3s-4.4-0.7-5.8-2.3c-1.5-1.6-2.2-3.6-2.2-6.1
			s0.7-4.5,2.2-6c1.5-1.6,3.4-2.3,5.8-2.3c2.5,0,4.4,0.7,5.8,2.3c1.5,1.6,2.2,3.6,2.2,6C1491.7,522.2,1490.9,524.3,1489.5,525.9z
			 M1483.6,514.5c-2.9,0-4.5,2.3-4.5,5.3s1.6,5.3,4.5,5.3s4.5-2.3,4.5-5.3S1486.5,514.5,1483.6,514.5z"/>
		<path id="XMLID_291_" class="st1" d="M1510.2,527.8h-3.6V515h-7.5v12.8h-3.6v-15.9h14.6L1510.2,527.8L1510.2,527.8z"/>
		<path id="XMLID_288_" class="st1" d="M1515,511.9h3.4v1.6h0.7c1-1.3,2.6-2,4.7-2s3.8,0.7,5,2.3c1.3,1.6,1.9,3.6,1.9,6
			c0,2.5-0.6,4.5-1.9,6.1c-1.3,1.6-2.9,2.3-5,2.3s-3.6-0.6-4.6-2h-0.7v7.7h-3.6L1515,511.9L1515,511.9z M1518.5,519.8
			c0,3,1.5,5.3,4.4,5.3c2.8,0,4.4-2.2,4.4-5.3c0-3.2-1.6-5.3-4.4-5.3S1518.5,516.8,1518.5,519.8z"/>
		<path id="XMLID_286_" class="st1" d="M1548.7,522.6c-0.5,3.3-3.2,5.5-7,5.5c-2.4,0-4.4-0.7-5.7-2.3c-1.4-1.6-2.1-3.6-2.1-6.1
			s0.7-4.5,2.1-6.1c1.4-1.6,3.3-2.3,5.7-2.3c3.8,0,6.4,2.1,6.9,5.2h-3.4c-0.4-1.5-1.6-2.3-3.3-2.3c-2.9,0-4.4,2.2-4.4,5.3
			s1.4,5.4,4.4,5.4c2,0,3.1-0.8,3.4-2.5h3.4V522.6z"/>
		<path id="XMLID_284_" class="st1" d="M1551,514.9v-3h14.2v3h-5.3v12.8h-3.6v-12.8H1551z"/>
		<path id="XMLID_282_" class="st1" d="M1573.8,534h-3.6l3.2-7.8l-6.8-14.3h3.8l4.4,9.6h0.8l4.1-9.6h3.7L1573.8,534z"/>
		<path id="XMLID_278_" class="st1" d="M1198,567.9h-3.4v-6.3h-0.4c-2.5,0-4.5-0.7-6-2.2c-1.4-1.5-2.1-3.3-2.1-5.7
			c0-2.3,0.7-4.2,2.1-5.6c1.4-1.5,3.3-2.2,5.8-2.3h0.4V539h3.4v6.8h0.4c2.5,0,4.5,0.7,5.8,2.3c1.4,1.5,2.1,3.3,2.1,5.6
			c0,4.9-3.1,7.9-8.5,7.9v6.3L1198,567.9L1198,567.9z M1194.2,558.8h0.4v-10.2h-0.4c-3,0-4.6,2.2-4.6,5.1
			C1189.6,556.7,1191.2,558.8,1194.2,558.8z M1198,558.8h0.3c3,0,4.7-2.2,4.7-5.1c0-2.9-1.7-5-4.7-5.1h-0.3V558.8z"/>
		<path id="XMLID_276_" class="st1" d="M1220.7,561.6l-3.4-6.3h-1.1l-3.6,6.3h-3.8l4.7-8.1l-4.3-7.7h3.8l3.2,5.8h1.1l3.3-5.8h3.7
			l-4.3,7.6l4.7,8.3L1220.7,561.6L1220.7,561.6z"/>
		<path id="XMLID_274_" class="st1" d="M1239,545.7h3.6v12.8h2.8v7.4h-3.3v-4.4h-14v-15.9h3.6v12.8h7.4L1239,545.7L1239,545.7z"/>
		<path id="XMLID_272_" class="st1" d="M1247.7,545.7h3.6v4.6c0,0.8,0.1,1.3,0.4,1.9c0.4,0.6,1.4,0.8,3,0.8c1.1,0,2.3-0.1,3.4-0.4
			v-7h3.6v16h-3.6v-6c-1.4,0.3-2.8,0.4-4.5,0.4c-2.1,0-3.7-0.4-4.5-1c-1.4-1.1-1.5-2.6-1.5-4.2L1247.7,545.7L1247.7,545.7z"/>
		<path id="XMLID_270_" class="st1" d="M1284.4,545.7h3.4v15.9h-21.2v-15.9h3.4v12.8h5.4v-12.8h3.4v12.8h5.4v-12.8H1284.4z"/>
		<path id="XMLID_268_" class="st1" d="M1310.5,545.7h3.4v12.8h2.8v7.4h-3.3v-4.4h-20.7v-15.9h3.4v12.8h5.4v-12.8h3.4v12.8h5.4
			v-12.7H1310.5z"/>
		<path id="XMLID_265_" class="st1" d="M1318.1,548.8v-3h8.1v4.9h4.3c4,0,6.2,2,6.2,5.4s-2.3,5.5-6.2,5.5h-7.8v-12.8H1318.1
			L1318.1,548.8z M1330.2,558.7c2.3,0,3.1-0.9,3.1-2.5c0-1.7-0.8-2.6-3.1-2.6h-3.8v5.1H1330.2z"/>
		<path id="XMLID_261_" class="st1" d="M1340.5,545.7h3.6v4.9h4c4,0,6.2,2,6.2,5.4s-2.2,5.5-6.2,5.5h-7.5L1340.5,545.7L1340.5,545.7
			z M1343.9,553.6v5.1h3.4c2.3,0,3.1-0.9,3.1-2.5c0-1.7-0.8-2.6-3.1-2.6H1343.9z M1356.6,545.7h3.6v15.9h-3.6V545.7z"/>
		<path id="XMLID_258_" class="st1" d="M1368.5,545.7v4.9h4.3c4,0,6.2,2,6.2,5.4s-2.2,5.5-6.2,5.5h-7.8v-15.9h3.5V545.7z
			 M1372.3,558.7c2.3,0,3.1-0.9,3.1-2.5c0-1.7-0.8-2.6-3.1-2.6h-3.8v5.1H1372.3z"/>
		<path id="XMLID_256_" class="st1" d="M1385,556.8c0.3,1.5,1.6,2.3,3.8,2.3c2.5,0,4.1-1.6,4.3-4.1h-6.4v-2.8h6.3
			c-0.2-2.3-1.8-3.8-4.3-3.8c-2,0-3.1,0.7-3.6,2h-3.3c0.6-3,3.2-5,7-5c2.4,0,4.3,0.7,5.7,2.3c1.4,1.6,2.1,3.6,2.1,6.1
			s-0.7,4.6-2.1,6.1c-1.4,1.6-3.3,2.3-5.7,2.3c-1.9,0-3.4-0.4-4.8-1.5c-1.3-0.9-2.1-2.3-2.3-3.8h3.3V556.8z"/>
		<path id="XMLID_253_" class="st1" d="M1420.8,547.7c1.5,1.6,2.2,3.6,2.2,6s-0.7,4.4-2.2,6.1c-1.5,1.6-3.3,2.3-5.7,2.3
			c-2.2,0-4-0.6-5.3-2c-1.4-1.4-2.2-3-2.5-5.1h-3.2v6.7h-3.4v-15.9h3.4v6.2h3.3c0.3-2,1.1-3.6,2.5-4.8c1.4-1.3,3.1-1.9,5.2-1.9
			C1417.5,545.4,1419.4,546.2,1420.8,547.7z M1419.5,553.7c0-3-1.6-5.3-4.4-5.3s-4.4,2.3-4.4,5.3c0,3.1,1.6,5.3,4.4,5.3
			C1417.9,559.1,1419.5,556.7,1419.5,553.7z"/>
		<path id="XMLID_250_" class="st1" d="M1440.5,545.7v15.9h-3.6v-5.7h-3.8c-0.5,0-0.8,0-1.1,0l-2.2,5.8h-3.6l2.6-6.6
			c-1.6-0.8-2.4-2.3-2.4-4.3c0-3.1,2.2-5.1,6.1-5.1L1440.5,545.7L1440.5,545.7z M1436.9,553.1v-4.5h-4.2c-1.9,0-2.8,0.7-2.8,2.3
			c0,1.5,0.9,2.3,2.8,2.3L1436.9,553.1L1436.9,553.1z"/>
		<path id="XMLID_247_" class="st1" d="M1194.6,583.1c2.5,0,4.5,0.9,6.1,2.8c1.6,1.9,2.3,4.7,2.3,8.6c0,3.8-0.7,6.6-2.3,8.6
			c-1.6,1.9-3.6,2.8-6.1,2.8s-4.5-0.9-6.1-2.8c-1.6-1.9-2.3-4.7-2.3-8.6c0-3.8,0.7-6.6,2.3-8.6
			C1190.1,584.1,1192.1,583.1,1194.6,583.1z M1194.6,602.6c1.7,0,2.8-0.7,3.6-2.2c0.7-1.5,1.1-3.4,1.1-5.8c0-2.4-0.4-4.4-1.1-5.8
			c-0.7-1.5-1.9-2.3-3.6-2.3s-2.8,0.7-3.6,2.3c-0.7,1.5-1,3.4-1,5.8c0,2.4,0.4,4.4,1,5.8C1191.8,601.8,1192.9,602.6,1194.6,602.6z"
			/>
		<path id="XMLID_245_" class="st1" d="M1206.3,605.4v-3.1h5v-14.9h-0.7l-4.4,2.9v-3.7l4.4-3h4.4v18.7h4.7v3.1H1206.3z"/>
		<path id="XMLID_243_" class="st1" d="M1222.3,589.8c0.2-4.4,3.1-6.8,7.6-6.8c2.2,0,4,0.6,5.3,1.8c1.4,1.1,2,2.9,2,5
			c0,2.6-1.5,5-4.4,7.4l-5,4.1v0.7h10.1v3.1h-15.6v-3.9l7.8-6.2c2.1-1.7,3.4-3.2,3.4-5.3c0-2.3-1.5-3.7-3.8-3.7
			c-2.2,0-3.7,1.1-4,3.4h-3.7v0.4H1222.3z"/>
		<path id="XMLID_241_" class="st1" d="M1241.6,583.5h13.4v3.9l-4.7,3.9v0.7c3.4,0.2,5.8,2.6,5.8,6.5c0,2.3-0.7,4.1-2.3,5.3
			c-1.5,1.4-3.4,2-5.7,2s-4.2-0.6-5.6-1.9c-1.4-1.3-2.3-2.9-2.3-4.9h3.7c0.2,2.2,2,3.6,4.4,3.6c2.7,0,4.4-1.6,4.4-4.1
			s-1.6-4.1-4.4-4.1c-0.7,0-1.5,0.1-2,0.2v-3.3l4.7-3.9v-0.7h-9.3L1241.6,583.5L1241.6,583.5z"/>
		<path id="XMLID_238_" class="st1" d="M1272.9,597.3h2.8v3.1h-2.8v4.9h-3.6v-4.9h-10.7v-4l9.6-13.1h4.5L1272.9,597.3L1272.9,597.3z
			 M1262.4,597.3h7.1v-9.6h-0.7l-6.4,8.9V597.3L1262.4,597.3z"/>
		<path id="XMLID_236_" class="st1" d="M1292.6,592.6c1.4,1.4,2,3.1,2,5.2c0,2.3-0.7,4.3-2.2,5.7c-1.5,1.5-3.3,2.2-5.6,2.2
			c-4.8,0-7.7-2.8-7.9-6.8h3.7c0.3,2.3,1.8,3.6,4.2,3.6c2.6,0,4.3-1.8,4.3-4.5s-1.7-4.5-4.2-4.5c-1.7,0-3,0.6-3.9,1.9h-3.4l0.9-11.8
			h13.1v3.1h-10.1l-0.4,5.3h0.7c1-0.9,2.5-1.4,4.1-1.4C1289.6,590.6,1291.3,591.3,1292.6,592.6z"/>
		<path id="XMLID_233_" class="st1" d="M1311.8,593.1c1.4,1.4,2,3,2,5.1c0,2.2-0.7,4-2.1,5.4c-1.4,1.5-3.2,2.2-5.6,2.2
			c-2.6,0-4.6-0.8-6.2-2.6c-1.5-1.7-2.3-4.5-2.3-8.3c0-2.3,0.3-4.4,0.8-6.1c1.3-3.4,3.9-5.8,7.7-5.8c1.9,0,3.4,0.5,4.7,1.6
			c1.3,1,2,2.3,2.3,4h-3.6c-0.4-1.6-1.6-2.4-3.4-2.4c-3,0-4.9,2.4-5,6.7h0.7c1-1.3,2.7-1.9,4.8-1.9
			C1308.7,591,1310.4,591.7,1311.8,593.1z M1305.9,594c-2.5,0-4.2,1.6-4.2,4.3s1.8,4.4,4.2,4.4c2.5,0,4.2-1.6,4.2-4.4
			C1310.2,595.6,1308.4,594,1305.9,594z"/>
		<path id="XMLID_231_" class="st1" d="M1331,587.4l-9.1,18h-3.8l9.2-18v-0.7h-10.7v-3.1h14.4V587.4L1331,587.4L1331,587.4z"/>
		<path id="XMLID_227_" class="st1" d="M1347.1,594.2c1.7,0.6,3.3,2.5,3.3,5.1c0,1.9-0.7,3.4-2.2,4.6c-1.5,1.3-3.4,1.9-6,1.9
			c-2.5,0-4.5-0.6-6-1.9s-2.2-2.8-2.2-4.6c0-2.6,1.6-4.5,3.3-5.1v-0.7c-1.4-0.7-2.6-2.3-2.6-4.5c0-1.7,0.7-3.1,2.1-4.2
			c1.4-1,3.1-1.7,5.4-1.7s4.1,0.5,5.4,1.7c1.4,1,2.1,2.5,2.1,4.2c0,2.2-1.3,3.8-2.6,4.5L1347.1,594.2L1347.1,594.2z M1346.9,599
			c0-2.2-1.7-3.7-4.6-3.7c-2.8,0-4.6,1.5-4.6,3.7s1.7,3.7,4.6,3.7C1345.1,602.7,1346.9,601.2,1346.9,599z M1342.3,592.5
			c2.3,0,4-1.3,4-3.2c0-2-1.7-3.2-4-3.2s-4,1.4-4,3.2C1338.3,591.3,1340,592.5,1342.3,592.5z"/>
		<path id="XMLID_224_" class="st1" d="M1355.2,595.9c-1.4-1.4-2-3.1-2-5.2c0-2.2,0.7-4,2.1-5.4s3.2-2.2,5.6-2.2
			c2.6,0,4.6,0.8,6.2,2.6c1.5,1.7,2.3,4.5,2.3,8.3c0,2.3-0.3,4.4-0.9,6.1c-1.1,3.4-3.9,5.7-7.7,5.7c-1.9,0-3.4-0.5-4.7-1.6
			c-1.3-1-2-2.3-2.3-4h3.6c0.4,1.6,1.6,2.4,3.4,2.4c3,0,4.9-2.4,5-6.7h-0.7c-1,1.3-2.7,1.9-4.8,1.9
			C1358.3,597.9,1356.6,597.2,1355.2,595.9z M1361.1,594.8c2.5,0,4.2-1.6,4.2-4.3s-1.8-4.4-4.2-4.4c-2.5,0-4.2,1.6-4.2,4.4
			S1358.6,594.8,1361.1,594.8z"/>
	</g>
	<g id="XMLID_17_">
		<path id="XMLID_220_" class="st1" d="M1200.7,950.7l6.7,22.2h-5.7l-1.7-5.7h-7.5l-1.6,5.7h-5.6l6.7-22.2H1200.7z M1195.5,956.2
			l-1.8,6.5h5l-1.8-6.5H1195.5z"/>
		<path id="XMLID_217_" class="st1" d="M1216.1,955.8v3h5.3c5,0,8,2.6,8,7c0,4.5-2.9,7.1-8,7.1h-11.1v-22.2h17v5.1L1216.1,955.8
			L1216.1,955.8z M1220.4,968.1c2.2,0,3.1-0.7,3.1-2.3s-1-2.3-3.1-2.3h-4.3v4.7L1220.4,968.1L1220.4,968.1z"/>
		<path id="XMLID_213_" class="st1" d="M1249.5,962c1.5,0.6,2.8,2.5,2.8,4.5c0,4-2.6,6.6-7.7,6.6h-11.3v-22.2h11
			c4.9,0,7.5,2.5,7.5,6.1c0,1.9-0.9,3.6-2.2,4.3L1249.5,962L1249.5,962z M1239.1,955.4v3.9h4.4c1.6,0,2.3-0.6,2.3-1.9s-0.7-2-2.4-2
			H1239.1z M1243.6,968.3c1.5,0,2.7-0.6,2.7-2.1s-0.8-2.2-2.6-2.2h-4.6v4.3H1243.6z"/>
		<path id="XMLID_211_" class="st1" d="M1262.2,955.8V973h-5.8v-22.2h16.6v5.1L1262.2,955.8L1262.2,955.8z"/>
		<path id="XMLID_208_" class="st1" d="M1291.3,973h-13.2v5.4h-5.6v-10.6h2.3c1.7-2.6,2.4-6.1,2.4-10.3v-6.8h16.5v17.1h3.1v10.6
			h-5.6L1291.3,973L1291.3,973z M1288.2,967.8v-12h-5.6v1.7c0,4.8-0.6,8.3-2,10.3H1288.2z"/>
		<path id="XMLID_206_" class="st1" d="M1314.5,964.2h-8.6v3.8h11.6v5.1h-17.3v-22.2h17.1v5.1H1306v3.3h8.6L1314.5,964.2
			L1314.5,964.2z"/>
		<path id="XMLID_202_" class="st1" d="M1335.6,964.2h-8.6v3.8h11.6v5.1h-17.3v-22.2h17.1v5.1h-11.5v3.3h8.6v4.9L1335.6,964.2
			L1335.6,964.2z M1324.4,945.1h4.4v4.1h-4.4V945.1z M1330.8,945.1h4.4v4.1h-4.4V945.1z"/>
		<path id="XMLID_200_" class="st1" d="M1354.3,959.1v-8.4h5.6v8.4h3.9l3.3-8.4h5.8l-4.5,11l4.7,11.3h-5.8l-3.6-8.7h-3.9v8.7h-5.6
			v-8.7h-3.9l-3.6,8.7h-5.8l4.7-11.3l-4.5-11h5.8l3.3,8.4H1354.3z"/>
		<path id="XMLID_198_" class="st1" d="M1385,955.4c-2,0-3.1,0.6-3.3,2h-6.1c0.4-4.5,4-7.1,9.5-7.1c2.7,0,4.8,0.5,6.4,1.7
			c1.6,1.1,2.4,2.6,2.4,4.5c0,2-0.7,3.4-2.2,4.3v0.8c2,0.7,2.9,2.3,2.9,4.8c0,2-0.8,3.8-2.6,5c-1.7,1.3-4.1,2-6.9,2
			c-6.4,0-9.7-2.7-10.2-7.6h6.2c0.4,1.7,1.7,2.5,4.1,2.5c2.1,0,3.4-0.8,3.4-2.1c0-1.4-1-2.1-3.1-2.1h-3.1v-5h3.1
			c1.7,0,2.5-0.6,2.5-1.9C1387.9,956.1,1386.7,955.4,1385,955.4z"/>
		<path id="XMLID_196_" class="st1" d="M1398.7,950.7h5.3v14.1h0.8l6.6-14.1h7.4V973h-5.3v-14.1h-0.8l-6.6,14.1h-7.4V950.7z"/>
		<path id="XMLID_193_" class="st1" d="M1423.8,950.7h5.3v14.1h0.8l6.6-14.1h7.4V973h-5.3v-14.1h-0.8l-6.6,14.1h-7.4V950.7z
			 M1431.8,944.8c0.3,0.9,0.9,1.5,2.1,1.5c1.1,0,1.8-0.4,2.1-1.5h4.1c-0.4,2.9-2.5,4.8-6.2,4.8s-5.8-1.8-6.2-4.8H1431.8z"/>
		<path id="XMLID_191_" class="st1" d="M1448.7,973v-22.2h5.8v8.3h4.5l3.9-8.3h5.8l-5,10.9l5.2,11.5h-5.8l-4.1-8.9h-4.5v8.9h-5.8
			V973L1448.7,973z"/>
		<path id="XMLID_189_" class="st1" d="M1470.4,973v-5.6h0.8c0.8,0,1.5-0.1,1.9-0.3c0.7-0.5,1.3-2.3,1.3-6.5v-9.9h17.2v22.2h-5.8
			v-17.1h-6.1v4.9c0,5.2-0.6,8.4-2.1,10.1c-1.5,1.7-3.2,2.1-6.3,2.1L1470.4,973L1470.4,973z"/>
		<path id="XMLID_187_" class="st1" d="M1511,950.7h8.7V973h-5.3v-15h-0.8l-2.5,8h-5.6l-2.5-8h-0.8v15h-5.3v-22.2h8.7l2.5,8h0.8
			L1511,950.7z"/>
		<path id="XMLID_185_" class="st1" d="M1538.4,950.7h5.8V973h-5.8v-8.9h-8.3v8.9h-5.8v-22.2h5.8v8.3h8.3V950.7z"/>
		<path id="XMLID_182_" class="st1" d="M1559.3,950.3c3.6,0,6.3,1,8.3,3.2s2.9,4.9,2.9,8.4c0,3.4-0.9,6.2-2.9,8.4s-4.7,3.2-8.3,3.2
			c-3.6,0-6.3-1-8.3-3.2s-2.9-4.9-2.9-8.4c0-3.4,0.9-6.2,2.9-8.4C1553.1,951.3,1555.8,950.3,1559.3,950.3z M1559.3,968.3
			c3.3,0,5.2-2.5,5.2-6.5s-1.9-6.5-5.2-6.5c-3.3,0-5.2,2.5-5.2,6.5C1554.1,965.8,1555.9,968.3,1559.3,968.3z"/>
		<path id="XMLID_180_" class="st1" d="M1574.3,950.7h19.6V973h-5.8v-17.1h-8V973h-5.8L1574.3,950.7L1574.3,950.7z"/>
		<path id="XMLID_177_" class="st1" d="M1197.8,990.8c5.2,0,8.4,2.7,8.4,7.3c0,4.7-3.1,7.4-8.4,7.4h-4.9v7.5h-5.8v-22.2H1197.8z
			 M1197.1,1000.6c2.1,0,3.1-0.8,3.1-2.4s-0.9-2.4-3.1-2.4h-4.1v4.8L1197.1,1000.6L1197.1,1000.6z"/>
		<path id="XMLID_175_" class="st1" d="M1229.5,1005.6c-0.3,2.4-1.4,4.4-3,5.8s-3.9,2.2-6.6,2.2c-3.4,0-6.1-1-8-3.1
			s-2.8-4.9-2.8-8.5s0.9-6.3,2.8-8.4c1.9-2.1,4.6-3.1,8-3.1c2.6,0,4.7,0.7,6.4,2c1.7,1.4,2.7,3.1,3.1,5.2h-6.1
			c-0.4-1.4-1.7-2.2-3.4-2.2c-3.1,0-4.9,2.6-4.9,6.5s1.8,6.5,4.9,6.5c2,0,3.3-1,3.7-2.8h6L1229.5,1005.6L1229.5,1005.6z"/>
		<path id="XMLID_173_" class="st1" d="M1250.6,990.8v5.1h-6.7v17.1h-5.8v-17.1h-6.7v-5.1H1250.6z"/>
		<path id="XMLID_171_" class="st1" d="M1261.9,999.7h0.8l4.2-8.9h5.7l-10.7,22.2h-5.7l3.1-6.7l-8.3-15.6h6L1261.9,999.7z"/>
		<path id="XMLID_167_" class="st1" d="M1289.6,992.8h0.2c3,0,5.5,0.7,7.4,2.3s2.8,3.8,2.8,6.6c0,2.9-0.9,5.1-2.8,6.6
			c-1.9,1.6-4.3,2.3-7.4,2.3h-0.2v2.9h-5.5v-2.9h-0.2c-3.1,0-5.5-0.7-7.4-2.3s-2.7-3.8-2.7-6.6s0.9-5,2.8-6.6s4.3-2.3,7.4-2.3h0.2
			v-2.6h5.5L1289.6,992.8L1289.6,992.8z M1284.1,1005.8v-8.1h-0.2c-2.7,0-4.4,1.4-4.4,4.1c0,2.7,1.7,4.1,4.4,4.1L1284.1,1005.8
			L1284.1,1005.8z M1289.6,1005.8h0.2c2.7,0,4.4-1.4,4.4-4.1c0-2.8-1.7-4.1-4.4-4.1h-0.2V1005.8z"/>
		<path id="XMLID_165_" class="st1" d="M1316.4,1013.2l-4.1-8.6h-0.8l-4.1,8.6h-6.2l5.8-11.7l-5-10.7h5.7l3.8,7.7h0.8l3.9-7.7h5.7
			l-5.1,10.6l5.8,11.8L1316.4,1013.2L1316.4,1013.2z"/>
		<path id="XMLID_163_" class="st1" d="M1342.7,1018.6v-5.4h-17V991h5.8v17.1h7.9V991h5.8v17.1h3.1v10.6L1342.7,1018.6
			L1342.7,1018.6z"/>
		<path id="XMLID_161_" class="st1" d="M1350.5,990.8h5.8v6.4c0,1,0,1.5,0.5,2.2c0.4,0.7,1.7,1,3.6,1c1,0,2-0.1,2.9-0.4v-9.2h5.8
			v22.2h-5.8v-8.1c-1.4,0.3-2.8,0.5-4.5,0.5c-3.3,0-5.4-0.6-6.6-1.7c-0.7-0.7-1.1-1.4-1.4-2.5c-0.2-1.1-0.2-1.7-0.2-2.9v-7.5H1350.5
			L1350.5,990.8z"/>
		<path id="XMLID_159_" class="st1" d="M1402.9,1013.2H1374V991h5.6v17.1h6.1V991h5.6v17.1h6.1V991h5.6L1402.9,1013.2L1402.9,1013.2
			z"/>
		<path id="XMLID_157_" class="st1" d="M1434.1,1018.6v-5.4h-26.4V991h5.6v17.1h6.1V991h5.6v17.1h6.1V991h5.6v17.1h3.1v10.6
			L1434.1,1018.6L1434.1,1018.6z"/>
		<path id="XMLID_154_" class="st1" d="M1457,997.8c5.4,0,8.6,2.8,8.6,7.5c0,4.8-3.1,7.7-8.6,7.7h-10.6v-17.1h-5.6v-5.1h11.5v7
			L1457,997.8L1457,997.8z M1456,1008.2c2.5,0,3.6-0.9,3.6-2.7s-1-2.6-3.6-2.6h-3.9v5.3H1456z"/>
		<path id="XMLID_150_" class="st1" d="M1479,997.8c5.4,0,8.6,2.8,8.6,7.5c0,4.8-3.1,7.7-8.6,7.7h-9.6v-22.2h5.8v7H1479L1479,997.8z
			 M1478.1,1008.2c2.5,0,3.6-0.9,3.6-2.7s-1-2.6-3.6-2.6h-2.9v5.3H1478.1z M1495.5,990.8v22.2h-5.8v-22.2H1495.5z"/>
		<path id="XMLID_147_" class="st1" d="M1510.9,997.8c5.4,0,8.6,2.8,8.6,7.5c0,4.8-3.1,7.7-8.6,7.7h-10.6v-22.2h5.8v7H1510.9
			L1510.9,997.8z M1510,1008.2c2.5,0,3.6-0.9,3.6-2.7s-1-2.6-3.6-2.6h-3.9v5.3H1510z"/>
		<path id="XMLID_145_" class="st1" d="M1528,1006.2c0.3,1.4,1.7,2.2,3.7,2.2c2.4,0,4.2-1.5,4.5-4h-6.9v-5h6.9
			c-0.4-2.5-2.1-3.9-4.5-3.9c-1.8,0-3.1,0.7-3.4,2h-6.1c0.4-2.1,1.4-3.8,3-5.1c1.7-1.4,3.8-2,6.4-2c3.4,0,6.1,1,7.9,3.1
			c1.9,2.1,2.9,4.9,2.9,8.4c0,3.4-0.9,6.4-2.9,8.5c-1.9,2.1-4.6,3.1-7.9,3.1c-2.7,0-4.9-0.7-6.7-2c-1.7-1.4-2.7-3.1-2.9-5.3H1528
			L1528,1006.2z"/>
		<path id="XMLID_139_" class="st1" d="M1574.3,993.6c2,2.2,2.9,4.9,2.9,8.4c0,3.4-0.9,6.2-2.9,8.4s-4.6,3.2-8,3.2
			c-3,0-5.5-0.8-7.4-2.5s-3-4-3.4-6.8h-3.2v8.9h-5.8V991h5.8v8.3h3.4c0.5-2.6,1.7-4.7,3.6-6.3s4.3-2.4,7.2-2.4
			C1569.7,990.4,1572.3,991.5,1574.3,993.6z M1566.2,1008.4c3.2,0,5.1-2.6,5.1-6.5s-1.9-6.5-5.1-6.5s-5.1,2.6-5.1,6.5
			C1561.1,1005.9,1563,1008.4,1566.2,1008.4z"/>
		<path id="XMLID_136_" class="st1" d="M1598.9,990.8v22.2h-5.8v-7.8h-4.6l-2.8,7.8h-5.8l3.2-9c-2.2-1.3-3.2-3.2-3.2-6.2
			c0-4.5,3-7.2,8.1-7.2h11L1598.9,990.8L1598.9,990.8z M1593.1,1000.5v-4.6h-4.3c-2,0-3,0.7-3,2.3s1,2.3,3,2.3H1593.1z"/>
		<path id="XMLID_133_" class="st1" d="M1201.6,1043.1v10.2h-5v-1.3h-0.8c-0.9,1-2.4,1.7-4.3,1.7c-1.7,0-3.1-0.5-4.2-1.6
			c-1-1-1.6-2.3-1.6-3.9c0-1.5,0.5-2.7,1.7-3.8c1.1-1,2.8-1.7,5.1-1.7h3.8v-0.3c0-1.4-0.7-2.1-2.2-2.1c-1.4,0-2,0.4-2.2,1.4h-5.3
			c0-1.6,0.7-2.8,2.1-3.8c1.4-0.9,3-1.5,5.1-1.5C1199,1036.6,1201.6,1038.8,1201.6,1043.1z M1196.4,1045.9h-2.6
			c-1.6,0-2.5,0.7-2.5,1.9c0,1.3,0.7,1.9,2.3,1.9c1.8,0,2.8-1.1,2.8-2.8L1196.4,1045.9L1196.4,1045.9z"/>
		<path id="XMLID_130_" class="st1" d="M1204.8,1043.6c0-6.8,2.1-10.6,6.4-11.2l4.1-0.6c1.3-0.2,1.7-0.4,1.7-1.1h4.2
			c0,1.1-0.1,1.9-0.5,2.9s-1.4,1.7-2.8,1.9l-5.5,0.8c-2,0.3-3.1,1.1-3.7,3.8h0.8c0.9-1.5,2.5-2.2,4.8-2.2s4.2,0.7,5.6,2.3
			c1.5,1.5,2.2,3.3,2.2,5.7c0,2.3-0.8,4.3-2.4,5.7c-1.6,1.5-3.7,2.2-6.2,2.2C1208.1,1053.7,1204.8,1050.2,1204.8,1043.6z
			 M1213.6,1049.2c2.2,0,3.2-1.6,3.2-3.7c0-2.1-1-3.7-3.2-3.7s-3.2,1.6-3.2,3.7C1210.3,1047.6,1211.4,1049.2,1213.6,1049.2z"/>
		<path id="XMLID_122_" class="st1" d="M1238.9,1045.1c1.7,0.4,2.8,1.7,2.8,3.7c0,2.9-2,4.5-5.7,4.5h-10.2v-16.2h10
			c3.2,0,5.1,1.6,5.1,4.1c0,1.5-0.8,2.6-2,3.1L1238.9,1045.1L1238.9,1045.1z M1230.9,1040.4v2.8h2.8c1,0,1.7-0.4,1.7-1.4
			c0-0.9-0.5-1.4-1.7-1.4L1230.9,1040.4L1230.9,1040.4z M1234.2,1049.7c1.4,0,2.1-0.5,2.1-1.7c0-1-0.7-1.7-2.1-1.7h-3.1v3.3
			L1234.2,1049.7L1234.2,1049.7z"/>
		<path id="XMLID_120_" class="st1" d="M1245.2,1053.3v-16.2h13.7v4.4h-8.3v11.8H1245.2z"/>
		<path id="XMLID_116_" class="st1" d="M1277.1,1048.8h2.8v8.9h-5v-4.5H1264v4.5h-5v-8.9h2.6c0.7-2.2,1-4.5,1-7v-4.8h14.5V1048.8
			L1277.1,1048.8z M1271.7,1048.8v-7.4h-4.3v0.4c0,2.5-0.3,4.8-0.9,7H1271.7L1271.7,1048.8z"/>
		<path id="XMLID_113_" class="st1" d="M1298.6,1048c-0.7,3.6-3.4,5.6-7.9,5.6c-2.6,0-4.7-0.7-6.2-2.3c-1.6-1.6-2.3-3.6-2.3-6.3
			c0-2.6,0.7-4.7,2.3-6.3c1.6-1.6,3.6-2.3,6.2-2.3c2.5,0,4.6,0.7,6.1,2.2s2.2,3.3,2.2,5.8v1.3h-11.3c0.2,2.3,1.3,3.3,3.2,3.3
			c1.3,0,2-0.4,2.4-1.3h5.3L1298.6,1048L1298.6,1048z M1287.8,1042.6h5.4c-0.3-1.4-1.1-2.1-2.6-2.1
			C1289.1,1040.4,1288.2,1041.2,1287.8,1042.6z"/>
		<path id="XMLID_108_" class="st1" d="M1317.8,1048c-0.7,3.6-3.4,5.6-7.9,5.6c-2.6,0-4.7-0.7-6.2-2.3c-1.6-1.6-2.3-3.6-2.3-6.3
			c0-2.6,0.7-4.7,2.3-6.3c1.6-1.6,3.6-2.3,6.2-2.3c2.5,0,4.6,0.7,6.1,2.2s2.2,3.3,2.2,5.8v1.3h-11.3c0.2,2.3,1.3,3.3,3.2,3.3
			c1.3,0,2-0.4,2.4-1.3h5.3L1317.8,1048L1317.8,1048z M1304.5,1031.1h4.4v4.5h-4.4V1031.1z M1306.9,1042.6h5.4
			c-0.3-1.4-1.1-2.1-2.6-2.1C1308.2,1040.4,1307.3,1041.2,1306.9,1042.6z M1310.8,1031.1h4.4v4.5h-4.4V1031.1z"/>
		<path id="XMLID_106_" class="st1" d="M1328.5,1047.1l-2.8,6.1h-5.4l3.9-8.4l-3.7-7.9h5.4l2.6,5.7h2.5v-5.7h5v5.7h2.5l2.6-5.7h5.4
			l-3.7,7.9l3.9,8.4h-5.4l-2.8-6.1h-2.5v6.1h-5v-6.1H1328.5z"/>
		<path id="XMLID_104_" class="st1" d="M1356.5,1040.9c-1.6,0-2.4,0.4-2.5,1.4h-4.9c0.4-3.8,3.4-5.6,7.8-5.6c2.2,0,4,0.4,5.2,1.4
			c1.4,0.8,2,2,2,3.4s-0.5,2.4-1.6,3v0.8c1.4,0.4,2,1.6,2,3.1s-0.7,2.8-2.2,3.8c-1.4,0.9-3.2,1.5-5.5,1.5c-5.2,0-7.9-2-8.3-5.7h4.9
			c0.2,1,1.3,1.5,3,1.5c1.8,0,2.6-0.4,2.6-1.4c0-0.7-0.7-1.1-2.1-1.1h-2.5v-3.4h2.4c1.3,0,1.9-0.4,1.9-1.3
			C1358.9,1041.4,1358.1,1040.9,1356.5,1040.9z"/>
		<path id="XMLID_102_" class="st1" d="M1372.8,1053.3h-4.6v-16.2h5.2v7.4h0.7l5.8-7.4h4.6v16.2h-5.2v-7.4h-0.7L1372.8,1053.3z"/>
		<path id="XMLID_99_" class="st1" d="M1393.6,1053.3h-4.6v-16.2h5.2v7.4h0.7l5.8-7.4h4.6v16.2h-5.2v-7.4h-0.7L1393.6,1053.3z
			 M1395.1,1030.9c0.3,0.9,0.9,1.5,2.1,1.5c1,0,1.8-0.4,2.1-1.5h4.1c-0.4,2.9-2.5,4.8-6.2,4.8c-3.8,0-5.8-1.8-6.2-4.8H1395.1z"/>
		<path id="XMLID_97_" class="st1" d="M1420.9,1053.3l-3.1-6.2h-2.8v6.2h-5.4v-16.2h5.4v5.6h2.8l2.9-5.6h5.5l-4,7.8l4.3,8.4H1420.9z
			"/>
		<path id="XMLID_95_" class="st1" d="M1428.2,1053.3v-5.2h0.6c2,0,2.8-0.9,2.8-3.9v-7.1h14.7v16.2h-5.4v-11.8h-4.3v2.9
			c0,3.2-0.6,5.5-1.9,6.8c-1.3,1.4-3.2,2-6,2L1428.2,1053.3L1428.2,1053.3z"/>
		<path id="XMLID_93_" class="st1" d="M1464.7,1044.5l-1.9,4.2h-4.1l-1.9-4.2h-0.8v8.8h-5.2v-16.2h6.8l2.9,6.5h0.8l2.8-6.5h6.8v16.2
			h-5.2v-8.8H1464.7z"/>
		<path id="XMLID_91_" class="st1" d="M1491.4,1053.3h-5.4v-6.2h-5.4v6.2h-5.4v-16.2h5.4v5.6h5.4v-5.6h5.4V1053.3z"/>
		<path id="XMLID_88_" class="st1" d="M1509.8,1039c1.6,1.6,2.4,3.7,2.4,6.2c0,2.6-0.7,4.7-2.4,6.2c-1.6,1.6-3.7,2.3-6.3,2.3
			s-4.7-0.7-6.3-2.3c-1.6-1.6-2.4-3.7-2.4-6.2c0-2.6,0.7-4.7,2.4-6.2c1.6-1.6,3.8-2.3,6.3-2.3
			C1506.2,1036.6,1508.3,1037.4,1509.8,1039z M1503.6,1041.1c-2.2,0-3.2,1.7-3.2,4.1c0,2.4,1,4.1,3.2,4.1s3.2-1.7,3.2-4.1
			C1506.8,1042.7,1505.8,1041.1,1503.6,1041.1z"/>
		<path id="XMLID_86_" class="st1" d="M1531.9,1053.3h-5.4v-11.8h-5.3v11.8h-5.4v-16.2h16.2L1531.9,1053.3L1531.9,1053.3z"/>
		<path id="XMLID_83_" class="st1" d="M1542.4,1051.9h-0.8v7.6h-5.4V1037h5.2v1.4h0.8c0.9-1.1,2.4-1.8,4.3-1.8
			c2.1,0,3.8,0.7,4.9,2.4c1.3,1.6,1.8,3.7,1.8,6.2s-0.6,4.6-1.9,6.2c-1.3,1.6-2.8,2.4-4.9,2.4
			C1544.7,1053.7,1543.4,1053.1,1542.4,1051.9z M1544.6,1041.1c-1,0-1.9,0.4-2.5,1.1c-0.5,0.7-0.8,1.8-0.8,2.9s0.3,2.2,0.8,2.9
			s1.4,1.1,2.5,1.1c1,0,1.9-0.4,2.4-1.1s0.7-1.8,0.7-2.9s-0.2-2.2-0.7-2.9C1546.5,1041.4,1545.8,1041.1,1544.6,1041.1z"/>
		<path id="XMLID_81_" class="st1" d="M1572,1047.4c-0.1,1.9-0.9,3.3-2.4,4.5c-1.5,1.1-3.2,1.7-5.3,1.7c-2.5,0-4.6-0.7-6.2-2.3
			s-2.3-3.7-2.3-6.3c0-2.6,0.7-4.7,2.3-6.2c1.6-1.6,3.6-2.3,6.2-2.3c2.1,0,3.9,0.5,5.2,1.7c1.4,1,2.2,2.5,2.3,4.3h-5.3
			c-0.3-0.9-1-1.5-2.2-1.5c-2.1,0-3,1.7-3,4.1c0,2.5,0.9,4.1,3,4.1c1.4,0,2.2-0.6,2.4-1.8H1572L1572,1047.4z"/>
		<path id="XMLID_79_" class="st1" d="M1574.2,1041.5v-4.4h15.8v4.4h-5.1v11.8h-5.4v-11.8H1574.2z"/>
		<path id="XMLID_77_" class="st1" d="M1604.7,1037h5.3l-9.8,22.5h-5.3l3.4-8l-6.8-14.4h5.4l3.7,7.8h0.8L1604.7,1037z"/>
		<path id="XMLID_73_" class="st1" d="M1200.1,1093.4h-5.2v-6.3c-2.8,0-5-0.7-6.6-2.3c-1.6-1.5-2.4-3.4-2.4-5.8
			c0-2.4,0.7-4.4,2.4-5.8c1.6-1.5,3.8-2.3,6.6-2.3v-6.5h5.2v6.5c2.8,0,5,0.7,6.6,2.3c1.6,1.5,2.4,3.4,2.4,5.8c0,2.4-0.7,4.4-2.4,5.8
			c-1.6,1.5-3.8,2.3-6.6,2.3V1093.4z M1194.9,1074.9c-2.3,0-3.7,1.7-3.7,4.1c0,2.4,1.3,4.1,3.7,4.1V1074.9z M1200.1,1083.2
			c2.3,0,3.7-1.7,3.7-4.1c0-2.4-1.3-4.1-3.7-4.1V1083.2z"/>
		<path id="XMLID_71_" class="st1" d="M1223.1,1087.1l-2.6-5.4h-1.1l-2.7,5.4h-5.6l4.4-8.4l-4-7.9h5.5l2.4,5.1h1.1l2.5-5.1h5.5
			l-4.1,7.8l4.4,8.4L1223.1,1087.1L1223.1,1087.1z"/>
		<path id="XMLID_69_" class="st1" d="M1242.5,1070.9h5.4v11.8h2.8v8.9h-5v-4.5H1232v-16.2h5.4v11.8h5.2L1242.5,1070.9
			L1242.5,1070.9z"/>
		<path id="XMLID_67_" class="st1" d="M1253.1,1070.9h5.4v4.8c0,1.3,0.5,2,2.5,2c0.7,0,1.6-0.1,2.5-0.3v-6.5h5.4v16.2h-5.4v-5.3
			c-1.4,0.3-2.9,0.4-4.4,0.4c-2.5,0-4.2-0.5-5-1.7c-0.7-1-0.9-2-0.9-3.4L1253.1,1070.9L1253.1,1070.9z"/>
		<path id="XMLID_65_" class="st1" d="M1296.7,1070.9v16.2h-23.5v-16.2h5.2v11.8h3.9v-11.8h5.2v11.8h3.9v-11.8H1296.7z"/>
		<path id="XMLID_63_" class="st1" d="M1324.5,1082.7h2.8v8.9h-5v-4.5H1301v-16.2h5.2v11.8h3.9v-11.8h5.2v11.8h3.9v-11.8h5.2v11.8
			H1324.5z"/>
		<path id="XMLID_60_" class="st1" d="M1328.9,1075.3v-4.4h10v4.4h3.4c4.4,0,6.8,2.2,6.8,5.8c0,3.8-2.5,6-6.8,6h-8.9v-11.8H1328.9z
			 M1341.5,1082.7c1.4,0,2.1-0.5,2.1-1.7c0-1.1-0.5-1.7-2.1-1.7h-2.7v3.3L1341.5,1082.7L1341.5,1082.7z"/>
		<path id="XMLID_56_" class="st1" d="M1357.7,1070.9v4.4h3.1c4.4,0,6.8,2.2,6.8,5.8c0,3.8-2.5,6-6.8,6h-8.6v-16.2H1357.7z
			 M1360.1,1082.7c1.4,0,2.1-0.5,2.1-1.7c0-1.1-0.5-1.7-2.1-1.7h-2.4v3.3L1360.1,1082.7L1360.1,1082.7z M1375.4,1070.9v16.2h-5.4
			v-16.2H1375.4z"/>
		<path id="XMLID_53_" class="st1" d="M1379.8,1087.1v-16.2h5.4v4.4h3.4c4.4,0,6.8,2.2,6.8,5.8c0,3.8-2.5,6-6.8,6H1379.8z
			 M1387.8,1082.7c1.4,0,2.1-0.5,2.1-1.7c0-1.1-0.5-1.7-2.1-1.7h-2.7v3.3L1387.8,1082.7L1387.8,1082.7z"/>
		<path id="XMLID_51_" class="st1" d="M1402.8,1081.7c0.1,1.1,1.3,1.9,2.7,1.9c1.8,0,2.8-1,3.1-2.6h-4.8v-4h4.7
			c-0.4-1.7-1.5-2.4-3.1-2.4c-1.4,0-2.3,0.5-2.5,1.5h-5c0.6-3.3,3.4-5.5,7.6-5.5c2.5,0,4.5,0.7,6.1,2.4c1.6,1.6,2.4,3.7,2.4,6.2
			c0,2.6-0.7,4.6-2.4,6.2c-1.6,1.6-3.7,2.3-6.2,2.3c-2.2,0-4-0.5-5.4-1.7c-1.5-1-2.3-2.5-2.5-4.3L1402.8,1081.7L1402.8,1081.7z"/>
		<path id="XMLID_48_" class="st1" d="M1439.9,1072.9c1.6,1.6,2.4,3.7,2.4,6.2s-0.8,4.6-2.4,6.2c-1.6,1.6-3.7,2.4-6.2,2.4
			c-2.2,0-4-0.6-5.5-1.8c-1.6-1.1-2.5-2.7-2.9-4.8h-2.5v6.2h-5.3V1071h5.3v5.6h2.6c0.4-1.9,1.5-3.3,2.9-4.5c1.5-1,3.3-1.7,5.4-1.7
			C1436.3,1070.5,1438.4,1071.3,1439.9,1072.9z M1433.7,1074.9c-2.2,0-3.2,1.7-3.2,4.1c0,2.4,1,4.1,3.2,4.1s3.2-1.7,3.2-4.1
			C1436.9,1076.7,1435.9,1074.9,1433.7,1074.9z"/>
		<path id="XMLID_45_" class="st1" d="M1460.5,1070.9v16.2h-5.4v-4.8h-2.9l-1.9,4.8h-5.3l2.3-6c-1.6-0.9-2.3-2.5-2.3-4.5
			c0-3.6,2.6-5.7,7.1-5.7H1460.5z M1452.6,1078.5h2.5v-3.3h-2.5c-1.7,0-2.3,0.6-2.3,1.7C1450.4,1077.9,1450.9,1078.5,1452.6,1078.5z
			"/>
		<path id="XMLID_42_" class="st1" d="M1195,1108.7c2.6,0,4.8,0.9,6.5,2.8c1.7,1.9,2.4,4.7,2.4,8.6c0,3.8-0.8,6.7-2.4,8.6
			c-1.7,1.9-3.8,2.8-6.5,2.8c-2.6,0-4.8-0.9-6.5-2.8c-1.7-1.9-2.4-4.7-2.4-8.6c0-3.8,0.8-6.7,2.4-8.6
			C1190.2,1109.5,1192.4,1108.7,1195,1108.7z M1195,1113.5c-2.2,0-3.2,2.2-3.2,6.5s1,6.5,3.2,6.5s3.2-2.2,3.2-6.5
			C1198.3,1115.6,1197.2,1113.5,1195,1113.5z"/>
		<path id="XMLID_40_" class="st1" d="M1217.2,1126.1h4.4v4.8h-14.8v-4.8h4.8v-11.6h-0.8l-4,2.7v-5.4l3.9-2.7h6.5V1126.1
			L1217.2,1126.1z"/>
		<path id="XMLID_38_" class="st1" d="M1240.7,1126.1v4.8h-16.8v-5.6l7.1-4.8c0.7-0.5,1.4-1,1.8-1.4c0.8-0.7,1.8-1.9,1.8-3.1
			c0-1.7-0.9-2.5-2.5-2.5c-1.5,0-2.6,0.8-2.7,2.6h-5.5c0.2-4.7,3.2-7.4,8.5-7.4c2.4,0,4.3,0.6,5.7,2c1.5,1.3,2.2,3,2.2,5.3
			c0,1.7-0.8,3.4-1.7,4.6c-0.4,0.5-1,1.1-1.9,1.9c-0.8,0.7-1.5,1.1-2,1.5l-2.1,1.4v0.8L1240.7,1126.1L1240.7,1126.1z"/>
		<path id="XMLID_36_" class="st1" d="M1244.1,1109.1h14.8v5.5l-3.4,2.2v0.8c2.7,0.4,4.8,2.5,4.8,6.1c0,2.3-0.8,4.1-2.4,5.5
			s-3.8,2.1-6.3,2.1c-2.6,0-4.7-0.7-6.3-2.1c-1.6-1.4-2.4-3.1-2.4-5.2h5.5c0.2,1.7,1.4,2.6,3.1,2.6c1.9,0,3.1-1.3,3.1-2.8
			c0-1.8-1.1-3-3.1-3c-0.7,0-1.5,0.1-2.1,0.2v-4.2l3.4-2.2v-0.8h-8.8L1244.1,1109.1L1244.1,1109.1z"/>
		<path id="XMLID_33_" class="st1" d="M1278,1121.7h2.6v4.7h-2.6v4.5h-5.3v-4.5h-10.1v-5.6l9.5-11.8h6L1278,1121.7L1278,1121.7z
			 M1267.6,1121.7h5.3v-6.5h-0.8l-4.5,5.5V1121.7L1267.6,1121.7z"/>
		<path id="XMLID_31_" class="st1" d="M1298.4,1117.9c1.4,1.4,2.1,3.1,2.1,5.3c0,2.3-0.8,4.3-2.4,5.7c-1.6,1.5-3.7,2.3-6.1,2.3
			c-2.6,0-4.7-0.7-6.2-2.1c-1.6-1.4-2.4-3.1-2.5-5.3h5.5c0.2,1.7,1.4,2.6,2.9,2.6c1.9,0,3-1.4,3-3.1c0-2.2-1.3-3.2-3-3.2
			c-1.3,0-2.2,0.4-2.9,1.4h-5.1l0.9-12.5h14.1v4.6h-9.8l-0.2,3.4h0.8c1-0.7,2.3-1.1,3.8-1.1
			C1295.4,1115.9,1296.9,1116.6,1298.4,1117.9z"/>
		<path id="XMLID_28_" class="st1" d="M1318.7,1118.3c1.4,1.4,2.1,3.1,2.1,5.2c0,2.2-0.7,4.1-2.3,5.5c-1.6,1.6-3.6,2.3-6.1,2.3
			c-5.1,0-9.1-2.9-9.1-11.1c0-3.6,0.7-6.4,2.3-8.5c1.6-2.1,3.8-3.1,6.9-3.1c2,0,3.8,0.6,5.3,1.8c1.5,1.1,2.3,2.6,2.5,4.4h-5.5
			c-0.2-1.1-1-1.7-2.4-1.7c-2,0-3.4,1.5-3.7,4.7h0.8c0.9-1,2.3-1.6,4.3-1.6C1315.6,1116.2,1317.3,1116.9,1318.7,1118.3z
			 M1315.1,1123.6c0-1-0.3-1.8-0.8-2.3s-1.3-0.8-2.1-0.8s-1.7,0.3-2.2,0.8s-0.7,1.4-0.7,2.3c0,2,1.1,3.2,2.9,3.2
			C1314,1126.8,1315.1,1125.6,1315.1,1123.6z"/>
		<path id="XMLID_25_" class="st1" d="M1338.7,1114.7l-8.3,16.2h-5.8l8.3-16.2v-0.8h-9.8v-4.8h15.6L1338.7,1114.7L1338.7,1114.7z"/>
		<path id="XMLID_21_" class="st1" d="M1355.4,1119.7c1.7,0.7,3.1,2.4,3.1,4.9c0,1.9-0.7,3.4-2.3,4.7c-1.6,1.3-3.7,2-6.5,2
			s-5-0.6-6.5-2c-1.6-1.3-2.3-2.8-2.3-4.7c0-2.5,1.5-4.2,3.1-4.9v-0.8c-1.7-0.9-2.4-2.4-2.4-4.3c0-1.7,0.7-3,2.1-4.2
			c1.5-1.1,3.4-1.7,5.8-1.7c2.5,0,4.5,0.5,5.8,1.7c1.4,1.1,2.1,2.5,2.1,4.2c0,1.9-0.8,3.3-2.4,4.3v0.8H1355.4z M1349.9,1126.8
			c2.1,0,3.1-1.3,3.1-2.7c0-1.5-1-2.7-3.1-2.7s-3.2,1.3-3.2,2.7C1346.7,1125.6,1347.7,1126.8,1349.9,1126.8z M1349.9,1112.7
			c-3.6-0.1-3.6,5,0,4.9C1353.3,1117.7,1353.3,1112.6,1349.9,1112.7z"/>
		<path id="XMLID_18_" class="st1" d="M1363.1,1121.7c-1.4-1.4-2-3.1-2-5.2c0-2.2,0.7-4.1,2.3-5.5c1.6-1.6,3.6-2.3,6.1-2.3
			c5.1,0,9.1,2.9,9.1,11.1c0,3.6-0.7,6.5-2.3,8.6c-1.6,2.1-3.8,3.1-6.9,3.1c-2,0-3.8-0.6-5.3-1.8c-1.5-1.3-2.3-2.6-2.5-4.4h5.5
			c0.2,1.1,1,1.7,2.4,1.7c2,0,3.4-1.5,3.7-4.7h-0.8c-0.9,1-2.3,1.6-4.3,1.6C1366.1,1123.7,1364.4,1123.1,1363.1,1121.7z
			 M1366.6,1116.3c0,1,0.2,1.8,0.7,2.3s1.3,0.8,2.2,0.8c0.9,0,1.6-0.3,2.1-0.8s0.8-1.4,0.8-2.3c0-2-1.1-3.2-2.9-3.2
			C1367.8,1113.1,1366.6,1114.3,1366.6,1116.3z"/>
	</g>
	<path id="XMLID_11_" class="st1" d="M1118,796.4c16.1,7.2,30.5,27.1,30.5,49.4c0,43.6-28.5,72.1-85,72.1H939.6V673h120
		c53.5,0,82.3,28.1,82.3,66.9c0,20.9-9.9,39.1-24,47L1118,796.4L1118,796.4z M1003.4,724.4v42.2h47.6c16.8,0,25.4-6.9,25.4-20.9
		s-8.6-21.3-26.1-21.3H1003.4z M1053.1,865.4c16.5,0,29.9-6.9,29.9-23s-9.6-24.3-28.8-24.3h-50.8v47.3H1053.1z"/>
	<g id="XMLID_3_">
		<path id="XMLID_7_" class="st2" d="M1342.7,794.8c18.9,8.6,35,26.7,35,54.2c0,20.6-8.3,38.1-25.1,52.1
			c-16.8,14.1-40.5,21.3-71,21.3c-30.9,0-54.5-7.2-71.3-21.3s-25.1-31.5-25.1-52.1c0-27.5,16.1-45.6,35-54.2v-9.6
			c-17.9-10.7-26.7-26.4-26.7-47.3c0-18.2,7.9-33.6,23.3-46c15.8-12.7,37.4-18.9,64.9-18.9s49.1,6.2,64.4,18.9
			c15.5,12.3,23.3,27.8,23.3,46c0,20.9-8.9,36.7-26.7,47.3L1342.7,794.8L1342.7,794.8z M1281.6,872.9c23.3,0,35-13.7,35-29.9
			c0-16.1-11.7-29.9-35-29.9s-35.3,13.7-35.3,29.9C1246.3,859.5,1258.3,872.9,1281.6,872.9z M1281.6,718.6
			c-38.8-1.7-39.1,55.3,0,53.5C1320,773.8,1320,716.8,1281.6,718.6z"/>
		<path id="XMLID_4_" class="st2" d="M1408.9,816.7c-14.7-14.7-22.2-33.9-22.2-57.2c0-24.3,8.6-44.6,25.4-61.4
			c16.8-16.8,39.1-25.1,66.5-25.1c56.6,0,100.2,32.3,100.2,121.5c0,39.5-8.3,70.7-25.1,93.7c-16.8,23-41.9,34.3-75.4,34.3
			c-22.2,0-41.9-6.5-58-19.5c-16.1-13.4-25.4-29.1-27.8-48.1h61.1c2.7,12.3,11.7,18.5,26.4,18.5c22.2,0,38.1-15.8,40.5-51.1h-9.6
			c-10.3,11.3-25.7,16.8-46.7,16.8C1442.6,838.9,1424,831.4,1408.9,816.7z M1448,757.7c0,11,2.7,19.5,8.6,25.7
			c5.8,5.8,13.7,8.9,23.7,8.9c9.9,0,17.4-3.1,23.3-8.9c5.8-5.8,8.9-14.4,8.9-25.4c0-21.9-13.1-35.7-32.3-35.7
			C1460.7,722.4,1448,735.4,1448,757.7z"/>
	</g>
</g>
</svg>
