<?xml version="1.0" encoding="utf-8"?>
<!-- Generator: Adobe Illustrator 19.0.0, SVG Export Plug-In . SVG Version: 6.00 Build 0)  -->
<svg version="1.1" id="Layer_1" xmlns="http://www.w3.org/2000/svg" xmlns:xlink="http://www.w3.org/1999/xlink" x="0px" y="0px"
	 viewBox="76 155 1351 891" style="enable-background:new 76 155 1351 891;" xml:space="preserve">
<style type="text/css">
	.st0{fill:none;stroke:#36ACA7;stroke-miterlimit:10;}
	.st1{fill:#36ACA7;}
	.st2{fill:#FFFFFF;}
</style>
<g id="XMLID_1585_">
	<g id="XMLID_1676_">
		<line id="XMLID_1680_" class="st0" x1="78" y1="776.1" x2="757.9" y2="776.1"/>
		<line id="XMLID_1679_" class="st0" x1="78" y1="643.1" x2="757.9" y2="643.1"/>
		<line id="XMLID_1678_" class="st0" x1="697.8" y1="156.3" x2="697.8" y2="836.2"/>
		<line id="XMLID_1677_" class="st0" x1="138.1" y1="156.3" x2="138.1" y2="836.2"/>
	</g>
	<g id="XMLID_769_">
		<rect id="XMLID_1625_" x="78" y="776.1" class="st1" width="60.1" height="60.1"/>
		<rect id="XMLID_1624_" x="697.8" y="776.1" class="st1" width="60.1" height="60.1"/>
	</g>
	<g id="XMLID_1587_">
		<g>
			<path id="XMLID_107_" class="st2" d="M231.1,776.1v-12.3h-6.3c-8.1,10.5-21.1,15.7-39.2,15.7c-14.7,0-26.1-4.2-34.7-12.6
				c-8.6-8.6-12.8-18.8-12.8-31.1c0-12.1,4.5-22.4,13.1-31.3c8.6-8.9,21.9-13.4,39.7-13.4h39.2v-3.9c0-15.5-9.2-24.3-27.9-24.3
				c-16.5,0-25.3,5.8-26.6,16.9h-29.4c1.3-24.8,23.2-40.2,54.8-40.2c35.8,0,57.4,16,57.4,48.1v88.3L231.1,776.1L231.1,776.1z
				 M219.9,745.8c6.8-6.5,10.2-14.4,10.2-23.5v-10.2h-34c-18.5,0-28.2,8.1-28.2,21.9c0,13.6,10,21.4,26.9,21.4
				C204.7,755.4,213.1,752.3,219.9,745.8z"/>
			<path id="XMLID_105_" class="st2" d="M361.8,643.1v27.4h-12.1c-26.9,0-41.6,15.5-41.6,43.4v62.2h-29.5v-133h28.5v15.5h6.3
				c7.6-10.2,20.1-15.5,37.1-15.5H361.8z"/>
			<path id="XMLID_103_" class="st2" d="M403.4,643.1h31.3v25.1h-31.3V733c0,11.8,6.8,17.5,20.3,17.5h11v25.6h-11.5
				c-32.1,0-49.4-10.7-49.4-39.2V609.5h29.5V643.1z"/>
			<path id="XMLID_100_" class="st2" d="M556.9,760.1c-12.1,12.8-28.2,19.3-48.9,19.3c-20.6,0-36.8-6.6-49.2-19.3
				c-12.1-13.1-18-30-18-50.6s6-37.4,18-50.2c12.3-13.1,28.5-19.5,49.2-19.5c20.6,0,36.8,6.5,48.9,19.5
				c12.3,12.8,18.2,29.5,18.2,50.2C575.1,730.1,569.1,747.1,556.9,760.1z M508,664.8c-24.3,0-37.6,19.5-37.6,44.7
				c0,25.3,13.4,45,37.6,45c24.3,0,37.6-19.6,37.6-45C545.6,684.3,532.3,664.8,508,664.8z"/>
			<path id="XMLID_98_" class="st2" d="M664.6,678.7c-1.6-9.7-10.2-14.4-26.1-14.4c-16,0-24,4.7-24,13.9c0,8.1,5.2,11.3,16.9,13.4
				l25.8,4.2c26.9,4.5,40.5,18,40.5,41.3c0,11.8-5,21.9-15.2,30.3c-10,8.1-23.7,12.3-41.8,12.3c-37.6,0-58-16.5-60.8-43.7h29.5
				c2.4,12.8,12.6,19,30.8,19c18.5,0,27.9-5.8,27.9-17.2c0-10.2-6.3-14.9-21.6-17.7l-27.7-4.7c-20.9-3.4-34-15.2-34-35
				c0-23.7,18.8-40.5,54.6-40.5c31.6,0,51.7,15.2,54.6,38.9L664.6,678.7L664.6,678.7z"/>
		</g>
	</g>
	<rect id="XMLID_1586_" x="78" y="156.3" class="st0" width="679.9" height="679.9"/>
</g>
<g id="XMLID_766_">
	<g id="XMLID_1574_">
		<line id="XMLID_1582_" class="st0" x1="804.9" y1="1014" x2="1424" y2="1014"/>
		<line id="XMLID_1580_" class="st0" x1="804.9" y1="881.1" x2="1424" y2="881.1"/>
		<line id="XMLID_1579_" class="st0" x1="1394.3" y1="156.3" x2="1394.3" y2="1044.1"/>
		<line id="XMLID_1577_" class="st0" x1="834.7" y1="156.3" x2="834.7" y2="1044.1"/>
	</g>
	<g id="XMLID_770_">
		<rect id="XMLID_1573_" x="804.9" y="1014" class="st1" width="29.7" height="29.7"/>
		<rect id="XMLID_1572_" x="1394.3" y="1014" class="st1" width="29.7" height="29.7"/>
	</g>
	<g id="XMLID_768_">
		<g>
			<path id="XMLID_95_" class="st2" d="M927.7,1014v-12.3h-6.3c-8.1,10.5-21.1,15.7-39.2,15.7c-14.7,0-26.1-4.2-34.7-12.6
				c-8.6-8.6-12.8-18.8-12.8-31.1c0-12.1,4.5-22.4,13.1-31.3c8.6-8.9,21.9-13.4,39.7-13.4h39.2v-3.9c0-15.5-9.2-24.3-27.9-24.3
				c-16.5,0-25.3,5.8-26.6,16.9h-29.4c1.3-24.8,23.2-40.2,54.8-40.2c35.8,0,57.4,16,57.4,48.1v88.3L927.7,1014L927.7,1014z
				 M916.4,983.7c6.8-6.5,10.2-14.4,10.2-23.5V950h-34c-18.5,0-28.2,8.1-28.2,21.9c0,13.6,10,21.4,26.9,21.4
				C901.3,993.3,909.6,990.2,916.4,983.7z"/>
			<path id="XMLID_93_" class="st2" d="M1058.3,881.1v27.4h-12.1c-26.9,0-41.6,15.5-41.6,43.4v62.2h-29.5v-133h28.5v15.4h6.3
				c7.6-10.2,20.1-15.5,37.1-15.5L1058.3,881.1L1058.3,881.1z"/>
			<path id="XMLID_91_" class="st2" d="M1100,881.1h31.3v25.1H1100V971c0,11.8,6.8,17.5,20.3,17.5h11v25.6h-11.5
				c-32.1,0-49.4-10.7-49.4-39.2V847.4h29.5V881.1z"/>
			<path id="XMLID_88_" class="st2" d="M1253.4,998c-12.1,12.8-28.2,19.3-48.9,19.3c-20.6,0-36.8-6.6-49.2-19.3
				c-12.1-13.1-18-30-18-50.6s6-37.4,18-50.2c12.3-13.1,28.5-19.5,49.2-19.5s36.8,6.5,48.9,19.5c12.3,12.8,18.2,29.5,18.2,50.2
				C1271.7,968,1265.7,985,1253.4,998z M1204.6,902.7c-24.3,0-37.6,19.5-37.6,44.7c0,25.3,13.4,45,37.6,45c24.3,0,37.6-19.6,37.6-45
				C1242.1,922.3,1228.8,902.7,1204.6,902.7z"/>
			<path id="XMLID_86_" class="st2" d="M1361.1,916.6c-1.6-9.7-10.2-14.4-26.1-14.4c-16,0-24,4.7-24,13.9c0,8.1,5.2,11.3,16.9,13.4
				l25.8,4.2c26.9,4.5,40.5,18,40.5,41.3c0,11.8-5,21.9-15.2,30.3c-10,8.1-23.7,12.3-41.8,12.3c-37.6,0-58-16.5-60.8-43.7h29.5
				c2.4,12.8,12.6,19,30.8,19c18.5,0,27.9-5.8,27.9-17.2c0-10.2-6.3-14.9-21.6-17.7l-27.7-4.7c-20.9-3.4-34-15.2-34-35
				c0-23.7,18.8-40.5,54.6-40.5c31.6,0,51.7,15.2,54.6,38.9L1361.1,916.6L1361.1,916.6z"/>
		</g>
	</g>
	<rect id="XMLID_767_" x="804.9" y="156.3" class="st0" width="619.1" height="887.4"/>
</g>
</svg>
