<?xml version="1.0" encoding="utf-8"?>
<!-- Generator: Adobe Illustrator 19.0.0, SVG Export Plug-In . SVG Version: 6.00 Build 0)  -->
<svg version="1.1" id="Layer_1" xmlns="http://www.w3.org/2000/svg" xmlns:xlink="http://www.w3.org/1999/xlink" x="0px" y="0px"
	 viewBox="35 442.7 1350 396.3" style="enable-background:new 35 442.7 1350 396.3;" xml:space="preserve">
<style type="text/css">
	.st0{fill:#101010;fill-opacity:0;}
	.st1{fill:#FFFFFF;}
	.st2{fill:#2BB9AF;}
	.st3{fill:none;stroke:#2BB9AF;stroke-miterlimit:10;}
	.st4{font-family:'Formular';}
	.st5{font-size:36.4086px;}
</style>
<rect id="XMLID_787_" x="35" y="442.7" class="st0" width="1350" height="396.3"/>
<g id="XMLID_788_">
	<path id="XMLID_1600_" class="st1" d="M170.1,505.4V550h-19.6c-43.7,0-67.5,25.1-67.5,70.5v101H35V505.4h46.3v25.1h10.2
		c12.3-16.6,32.7-25.1,60.3-25.1H170.1z"/>
	<rect id="XMLID_1596_" x="382.8" y="505.4" class="st2" width="216.2" height="216.2"/>
	<line id="XMLID_1594_" class="st3" x1="207.8" y1="505.4" x2="207.8" y2="721.5"/>
	<text id="XMLID_1593_" transform="matrix(1 0 0 1 225.4541 622.3602)" class="st1 st4 st5">x</text>
	<line id="XMLID_1591_" class="st3" x1="638.3" y1="505.4" x2="638.3" y2="721.5"/>
	<line id="XMLID_1590_" class="st3" x1="599" y1="758" x2="382.8" y2="758"/>
	<rect id="XMLID_1589_" x="831.1" y="558.6" class="st2" width="109.7" height="109.7"/>
	<line id="XMLID_1588_" class="st3" x1="980.1" y1="558.6" x2="980.1" y2="668.3"/>
	<text id="XMLID_1559_" transform="matrix(1 0 0 1 655.9097 625.0384)" class="st1 st4 st5">x</text>
	<g id="XMLID_1474_">
		<text transform="matrix(1 0 0 1 1002.3438 625.0384)" class="st1 st4 st5">1/2x</text>
	</g>
	<g id="XMLID_1006_">
		<text transform="matrix(1 0 0 1 1312.3652 625.0384)" class="st1 st4 st5">1/4x</text>
	</g>
	<rect id="XMLID_794_" x="1196.8" y="586" class="st2" width="54.9" height="54.9"/>
	<line id="XMLID_793_" class="st3" x1="1283.3" y1="586" x2="1283.3" y2="640.9"/>
	<g id="XMLID_771_">
		<text transform="matrix(1 0 0 1 477.2803 798.3353)" class="st1 st4 st5">x</text>
	</g>
</g>
</svg>
