<?xml version="1.0" encoding="utf-8"?>
<!-- Generator: Adobe Illustrator 19.0.0, SVG Export Plug-In . SVG Version: 6.00 Build 0)  -->
<svg version="1.1" id="Layer_1" xmlns="http://www.w3.org/2000/svg" xmlns:xlink="http://www.w3.org/1999/xlink" x="0px" y="0px"
	 viewBox="110 141 1500 1000" style="enable-background:new 110 141 1500 1000;" xml:space="preserve">
<style type="text/css">
	.st0{opacity:0.5;fill:#55C7BF;enable-background:new    ;}
	.st1{fill:#101010;}
	.st2{fill:#E9F8F7;}
	.st3{fill:#BFEAE7;}
	.st4{fill:none;stroke:#2BB9AF;stroke-width:2;stroke-miterlimit:10;}
	.st5{opacity:0.6;}
	.st6{opacity:0;}
	.st7{fill:none;stroke:#2BB9AF;stroke-miterlimit:10;}
</style>
<polygon id="XMLID_166_" class="st0" points="1610,141 1148.7,141 571.3,1141 1072.6,1141 1610,210.2 "/>
<polygon id="XMLID_214_" class="st1" points="1610,210.2 1072.6,1141 1610,1141 "/>
<polygon id="XMLID_165_" class="st2" points="110,141 110,1071.1 647,141 "/>
<polygon id="XMLID_213_" class="st3" points="647,141 110,1071.1 110,1141 571.3,1141 1148.7,141 "/>
<g id="XMLID_167_">
	<g id="XMLID_208_">
		<line id="XMLID_210_" class="st4" x1="165.6" y1="1141" x2="165.6" y2="141.7"/>
		<line id="XMLID_209_" class="st4" x1="1554.4" y1="141.7" x2="1554.4" y2="1141"/>
	</g>
	<g id="XMLID_175_" class="st5">
		<g id="XMLID_192_">
			<g id="XMLID_205_">
				<line id="XMLID_207_" class="st4" x1="165.6" y1="933.6" x2="1554.4" y2="933.6"/>
				<line id="XMLID_206_" class="st4" x1="1554.4" y1="953.6" x2="165.6" y2="953.6"/>
			</g>
			<g id="XMLID_202_">
				<line id="XMLID_204_" class="st4" x1="165.6" y1="782.3" x2="1554.4" y2="782.3"/>
				<line id="XMLID_203_" class="st4" x1="1554.4" y1="802.3" x2="165.6" y2="802.3"/>
			</g>
			<g id="XMLID_199_">
				<line id="XMLID_201_" class="st4" x1="165.6" y1="631" x2="1554.4" y2="631"/>
				<line id="XMLID_200_" class="st4" x1="1554.4" y1="651" x2="165.6" y2="651"/>
			</g>
			<g id="XMLID_196_">
				<line id="XMLID_198_" class="st4" x1="165.6" y1="479.7" x2="1554.4" y2="479.7"/>
				<line id="XMLID_197_" class="st4" x1="1554.4" y1="499.7" x2="165.6" y2="499.7"/>
			</g>
			<g id="XMLID_193_">
				<line id="XMLID_195_" class="st4" x1="165.6" y1="328.4" x2="1554.4" y2="328.4"/>
				<line id="XMLID_194_" class="st4" x1="1554.4" y1="348.4" x2="165.6" y2="348.4"/>
			</g>
		</g>
		<g id="XMLID_176_">
			<g id="XMLID_189_">
				<line id="XMLID_191_" class="st4" x1="1319.3" y1="1085.4" x2="1319.3" y2="196.6"/>
				<line id="XMLID_190_" class="st4" x1="1339.3" y1="196.6" x2="1339.3" y2="1085.4"/>
			</g>
			<g id="XMLID_186_">
				<line id="XMLID_188_" class="st4" x1="1084.6" y1="1085.4" x2="1084.6" y2="196.6"/>
				<line id="XMLID_187_" class="st4" x1="1104.6" y1="196.6" x2="1104.6" y2="1085.4"/>
			</g>
			<g id="XMLID_183_">
				<line id="XMLID_185_" class="st4" x1="850" y1="1085.4" x2="850" y2="196.6"/>
				<line id="XMLID_184_" class="st4" x1="870" y1="196.6" x2="870" y2="1085.4"/>
			</g>
			<g id="XMLID_180_">
				<line id="XMLID_182_" class="st4" x1="615.4" y1="1085.4" x2="615.4" y2="196.6"/>
				<line id="XMLID_181_" class="st4" x1="635.4" y1="196.6" x2="635.4" y2="1085.4"/>
			</g>
			<g id="XMLID_177_">
				<line id="XMLID_179_" class="st4" x1="380.7" y1="1085.4" x2="380.7" y2="196.6"/>
				<line id="XMLID_178_" class="st4" x1="400.7" y1="196.6" x2="400.7" y2="1085.4"/>
			</g>
		</g>
	</g>
	<line id="XMLID_174_" class="st4" x1="110" y1="196.6" x2="1610" y2="196.6"/>
	<line id="XMLID_173_" class="st4" x1="1610" y1="1085.4" x2="110" y2="1085.4"/>
	<path id="XMLID_172_" class="st4" d="M1554.4,196.6"/>
	<path id="XMLID_171_" class="st4" d="M1554.4,196.6"/>
	<g id="XMLID_168_" class="st6">
		<rect id="XMLID_170_" x="615.4" y="196.6" class="st7" width="20" height="888.9"/>
		<rect id="XMLID_169_" x="1084.6" y="196.6" class="st7" width="20" height="888.9"/>
	</g>
</g>
</svg>
