<?xml version="1.0" encoding="utf-8"?>
<!-- Generator: Adobe Illustrator 19.0.0, SVG Export Plug-In . SVG Version: 6.00 Build 0)  -->
<svg version="1.1" id="Layer_1" xmlns="http://www.w3.org/2000/svg" xmlns:xlink="http://www.w3.org/1999/xlink" x="0px" y="0px"
	 viewBox="0 0 2492.9 683" style="enable-background:new 0 0 2492.9 683;" xml:space="preserve">
<style type="text/css">
	.st0{fill:#36AFA7;}
</style>
<g id="XMLID_7_">
	<g id="XMLID_267_">
		<g id="XMLID_285_">
			<path id="XMLID_474_" d="M74.7,407.3c33.9,0,52.7,17.3,52.7,46.7c0,19.7-8.3,33.9-24.5,41.1l25.6,72.5h-20.9l-24-67.8
				c-4.3,0.4-8.7,0.7-13,0.7H24v67.1H3.8V407.3H74.7z M71.8,482.5c25.8,0,35.2-10.8,35.2-28.5c0-17.9-9.4-28.7-35.2-28.7H24v57.2
				H71.8z"/>
		</g>
		<g id="XMLID_282_">
			<path id="XMLID_470_" d="M247.7,510.7h-86.2c0.7,26.9,12.8,43.1,36.1,43.1c15.9,0,25.4-6.7,28.7-17.5h19.3
				c-3.6,19.3-20,34.1-48,34.1c-35.2,0-55-25.8-55-60.6c0-34.8,20.2-58.3,54.5-58.3c33.7,0,49.8,24.9,50.5,52.7V510.7z M162.7,494.8
				H228c-1.1-14.4-12.1-26.7-31.2-26.7C176.4,468.1,165.2,480.4,162.7,494.8z"/>
		</g>
		<g id="XMLID_279_">
			<path id="XMLID_466_" d="M367.3,454.4v107.5c0,31.6-19.7,52.1-52.7,52.1c-28.9,0-47.8-12.1-51.2-34.6h18.8
				c3.4,13.5,15,18.4,32.1,18.4c23.3,0,33.9-14.1,33.9-36.8v-9h-4.9c-6.1,7.9-16.8,15-33.9,15c-31.2,0-50.3-24.7-50.3-57.7
				c0-33.2,19.1-57.9,50.3-57.9c17.7,0,28.5,7.2,34.6,15h4.9v-12.1H367.3z M348.7,509.4c0-21.8-11.4-41.3-35.7-41.3
				c-22.2,0-34.8,16.4-34.8,41.3c0,24.5,12.6,41.1,34.8,41.1C337.3,550.4,348.7,530.9,348.7,509.4z"/>
		</g>
		<g id="XMLID_277_">
			<path id="XMLID_463_" d="M410.2,454.4v67.8c0,20.9,9.6,31.2,28.7,31.2c20,0,33.7-17.3,33.7-37.7v-61.3h19.1v113.1h-18.4v-12.1
				h-4.9c-6.3,8.8-18.8,15-34.1,15c-27.8,0-43.1-17.1-43.1-44.2v-71.8H410.2z"/>
		</g>
		<g id="XMLID_275_">
			<path id="XMLID_460_" d="M536.3,404.4v163.1h-19.1V404.4H536.3z"/>
		</g>
		<g id="XMLID_271_">
			<path id="XMLID_456_" d="M633.9,555.6H629c-7,8.7-19.1,14.8-35.2,14.8c-26,0-40.6-17.5-40.6-36.8c0-18.2,11.9-37.5,43.3-37.5
				h36.8v-4.5c0-13.7-7.9-23.6-27.6-23.6c-16.8,0-25.4,6.5-26.2,16.4h-19.1c1.6-20.9,19.5-33,44.9-33c28.5,0,46.7,13.7,46.7,39v77
				h-17.9V555.6z M633.2,521.7v-10.3h-33.9c-18.6,0-27.1,8.1-27.1,21.5c0,12.8,9.4,20.9,26.3,20.9
				C617.3,553.8,633.2,539.7,633.2,521.7z"/>
		</g>
		<g id="XMLID_268_">
			<path id="XMLID_453_" d="M740.3,472.4h-9.4c-22.4,0-36.1,13.7-36.1,38.6v56.5h-19.1V454.4H694v13.5h4.9
				c5.6-7,16.4-13.5,32.8-13.5h8.5V472.4z"/>
		</g>
	</g>
	<g id="XMLID_253_">
		<g id="XMLID_263_">
			<path id="XMLID_447_" d="M1510.3,487.9c10.5,4.7,20,17.7,20,32.3c0,28.5-18.6,47.1-55.6,47.1h-81V407.1h78.5
				c35,0,53.8,18.4,53.8,43.7c0,13.7-6.5,25.6-15.7,30.7V487.9z M1435.3,440.8v27.6h31.2c11,0,16.6-4.5,16.6-13.7
				c0-9.2-5.6-13.9-17-13.9H1435.3z M1467.9,533c10.8,0,19.5-4.5,19.5-15c0-10.5-6.3-15.9-18.8-15.9h-33.2v31H1467.9z"/>
		</g>
		<g id="XMLID_261_">
			<path id="XMLID_444_" d="M1547.7,404.2h39v163.1h-39V404.2z"/>
		</g>
		<g id="XMLID_258_">
			<path id="XMLID_440_" d="M1713.8,493.7v73.6h-35.7v-9h-6.3c-7,7.9-17.3,11.9-30.7,11.9c-12.3,0-22.4-3.8-29.8-11.4
				c-7.4-7.6-11-16.8-11-27.8c0-10.3,4-19.3,12.3-27.1c8.3-7.9,20.4-11.7,36.8-11.7h26.9v-2c0-9.9-5.4-14.8-15.9-14.8
				c-9.4,0-14.6,3.4-15.5,10.1h-38.6c0.2-11.4,5.2-20.4,14.8-27.4c9.6-7,22-10.3,37-10.3C1695.2,447.7,1713.8,463,1713.8,493.7z
				 M1676.4,514.3h-18.8c-11,0-18.2,5.2-18.2,13.5c0,9.2,5.6,13.7,16.6,13.7c12.6,0,20.4-8.5,20.4-20.2V514.3z"/>
		</g>
		<g id="XMLID_256_">
			<path id="XMLID_437_" d="M1843.4,525.6c-1.1,13.2-6.7,24-17.3,32.3c-10.3,8.3-23.1,12.3-38.4,12.3c-18.2,0-33-5.4-44-16.4
				c-11-11-16.4-26-16.4-44.9c0-18.8,5.4-33.7,16.4-44.6c11-11,25.8-16.6,44-16.6c15,0,27.6,3.8,37.7,11.7
				c10.1,7.9,15.7,17.9,16.8,30.7h-38.4c-2-7-7.4-10.5-15.9-10.5c-15,0-21.5,12.1-21.5,29.4c0,17.7,6.5,29.4,21.5,29.4
				c10.1,0,15.9-4.3,17-12.8H1843.4z"/>
		</g>
		<g id="XMLID_254_">
			<path id="XMLID_434_" d="M1981.8,567.3h-40.4l-23.6-49.6h-6.3l-13.5,15.5v34.1h-39.3V404.2h39.3V489l35.9-38.4h42.8l-33,36.1
				L1981.8,567.3z"/>
		</g>
	</g>
	<g id="XMLID_108_">
		<g id="XMLID_252_">
			<rect id="XMLID_165_" x="0" y="294.8" class="st0" width="2492.9" height="1"/>
		</g>
		<g id="XMLID_251_">
			<rect id="XMLID_164_" x="0" y="131.4" class="st0" width="2492.9" height="1"/>
		</g>
		<g id="XMLID_250_">
			<rect id="XMLID_163_" x="0" y="567.1" class="st0" width="2492.9" height="1"/>
		</g>
		<g id="XMLID_249_">
			<rect id="XMLID_162_" x="0" y="403.7" class="st0" width="2492.9" height="1"/>
		</g>
	</g>
	<g id="XMLID_236_">
		<g id="XMLID_247_">
			<path id="XMLID_421_" d="M18.7,281.4H111v13.9H3.8V134.8h14.8V281.4z"/>
		</g>
		<g id="XMLID_244_">
			<path id="XMLID_417_" d="M143.4,149.7h-15.5v-17.8h15.5V149.7z M142.8,182.9v112.4h-14.2V182.9H142.8z"/>
		</g>
		<g id="XMLID_241_">
			<path id="XMLID_413_" d="M254.3,182.9H268v106.8c0,31.7-19.1,51.9-50.8,51.9c-27.9,0-45.6-12.1-49.4-33h13.9
				C185,322.3,196.7,329,217,329c24.5,0,36.9-14.2,36.9-39.3v-9.9h-4.5c-8.3,10.3-20.2,15.5-35.7,15.5c-15.3,0-27.4-5.4-36.6-16.2
				c-9.2-10.8-13.7-24.5-13.7-41.4s4.5-30.6,13.7-41.4c9.2-11,21.4-16.4,36.6-16.4c15.5,0,27.6,5.2,36.2,15.5h4.5V182.9z
				 M243.9,269.9c6.5-8.8,9.9-19.3,9.9-32.1s-3.4-23.4-9.9-32.1c-6.5-8.8-16.2-13-28.8-13c-23.6,0-37.8,17.5-37.8,45.2
				c0,27.2,14.2,44.9,37.8,44.9C227.7,282.7,237.4,278.4,243.9,269.9z"/>
		</g>
		<g id="XMLID_239_">
			<path id="XMLID_410_" d="M391.6,295.3h-14.2v-69c0-22.5-10.3-33.7-31.2-33.7c-10.8,0-19.8,4-26.7,12.1c-7,8.1-10.3,17.8-10.3,29
				v61.6H295V131.9h14.2v63.6h4.5c6.3-9,20-15.5,34.6-15.5c27,0,43.4,16.6,43.4,42.9V295.3z"/>
		</g>
		<g id="XMLID_237_">
			<path id="XMLID_407_" d="M438.8,182.9h29.9v12.6h-29.9v68.1c0,13.3,6.1,19.1,22.3,19.1h7.6v12.6h-7.9c-24.5,0-36.2-8.5-36.2-30.1
				v-69.7H404v-12.6h20.7v-34.8h14.2V182.9z"/>
		</g>
	</g>
	<g id="XMLID_189_">
		<g id="XMLID_166_">
			<g id="XMLID_235_">
				<path id="XMLID_136_" class="st0" d="M708.3,130.9c7.9,0,14.3,3.2,19,9.6c4.8,6.4,7.2,15.8,7.2,28.4s-2.4,22-7.2,28.4
					c-4.7,6.4-11.1,9.5-19,9.5s-14.3-3.1-19.1-9.5c-4.7-6.4-7.1-15.8-7.1-28.4s2.4-22,7.1-28.4C694,134.1,700.4,130.9,708.3,130.9z
					 M708.3,200.8c6.4,0,11.2-2.7,14.4-8.2c3.3-5.4,5-13.4,5-23.7s-1.7-18.3-5-23.7c-3.2-5.5-8-8.3-14.4-8.3
					c-6.4,0-11.2,2.7-14.5,8.3c-3.2,5.4-4.9,13.4-4.9,23.7s1.7,18.3,4.9,23.7C697.1,198.1,701.9,200.8,708.3,200.8z"/>
				<path id="XMLID_139_" class="st0" d="M743.2,205.5v-6.1H761v-59.8h-2l-15.9,10.7V143l15.9-10.7h8.8v67.1h16.4v6.1H743.2z"/>
				<path id="XMLID_141_" class="st0" d="M839.2,199.4v6.1h-48.7v-8.2c13.6-11.4,23-19.6,28.2-24.6c7.5-7,11.3-13.7,11.3-20.1
					c0-10-6.3-15.8-16.4-15.8c-9.3,0-15.3,5.1-16.4,14.8h-6.8c0.4-6.8,2.8-12,7.2-15.6s9.7-5.3,16.1-5.3c6.8,0,12.3,1.9,16.6,5.6
					c4.3,3.8,6.5,9.1,6.5,16.1c0,9.1-4.8,15.8-13.9,24.6c-1.6,1.6-4.3,4-8.1,7.3l-10.2,8.9l-4.6,4v2.1H839.2z"/>
				<path id="XMLID_143_" class="st0" d="M849.3,132.4h41.1v8.2l-20.1,17.8v2.1c6.9,0,12.5,2,16.8,6.1c4.3,4,6.5,9.5,6.5,16.6
					c0,7.4-2.3,13.2-7,17.5c-4.7,4.3-10.7,6.4-18,6.4c-7,0-12.7-2-17.3-6c-4.5-4-7-9-7.3-15.2h6.8c0.3,4.5,2.2,8,5.5,10.9
					c3.4,2.8,7.5,4.2,12.3,4.2c10.9,0,18.2-6.9,18.2-17.8c0-10.6-6.7-16.9-18.1-16.9c-2.6,0-4.6,0.2-6.2,0.6v-8.6l19.6-17.7v-2.1
					h-32.9V132.4z"/>
				<path id="XMLID_145_" class="st0" d="M942.8,181.6h10.4v6.1h-10.4v17.9H936v-17.9h-36.7v-8.2l32.5-47.1h11V181.6z M906.7,181.6
					H936v-42.2h-2.1l-27.2,40.1V181.6z"/>
				<path id="XMLID_148_" class="st0" d="M725,253.9c4.2,4.7,6.3,10.4,6.3,17.3c0,7.8-2.2,14.2-6.7,18.9c-4.5,4.7-10.3,7-17.7,7
					c-15,0-23.6-8.6-24.6-21.1h6.8c0.9,9.7,7.5,15,17.5,15c10.8,0,17.9-7.4,17.9-19.4c0-5.4-1.6-9.9-4.8-13.5
					c-3.1-3.6-7.3-5.3-12.6-5.3c-7.2,0-12.4,2.5-15.8,7.5h-7.2l3.2-37.7h40.4v6.1h-34.8l-1.9,23.5h2.1c4-3.7,8.8-5.4,14.5-5.4
					C715.1,246.8,720.8,249.2,725,253.9z"/>
				<path id="XMLID_150_" class="st0" d="M782.7,255.2c4.5,4.5,6.7,10.1,6.7,17c0,7.2-2.2,13.2-6.5,17.9c-4.3,4.7-10.1,7-17.6,7
					c-17.3,0-26-11.9-26-35.6c0-11.8,2.3-21.5,6.9-29c4.6-7.5,11.4-11.3,20.3-11.3c11.6,0,18.8,6.6,20.9,16.6h-6.8
					c-2.2-7-6.8-10.6-14-10.6c-12.6,0-20.1,11.3-20.6,28.8h2.1c4.3-5,10.2-7.5,18-7.5C772.8,248.5,778.3,250.7,782.7,255.2z
					 M782.6,272.7c0-11.6-7.2-18.1-17.6-18.1c-10.1,0-17.4,6.8-17.4,18c0,11.4,7.5,18.5,17.7,18.5
					C775.6,291.1,782.6,284.3,782.6,272.7z"/>
				<path id="XMLID_153_" class="st0" d="M840.9,230.8l-32.6,65h-7.2l32.7-65v-2.1h-38.1v-6.1h45.2V230.8z"/>
				<path id="XMLID_155_" class="st0" d="M890.9,291.4c-4.8,3.9-11,5.7-18.6,5.7c-7.6,0-13.8-1.9-18.6-5.7c-4.8-3.9-7.2-8.9-7.2-15
					c0-9.2,6-15.3,12.6-17.9v-2.1c-7-3.7-10.4-8.9-10.4-15.6c0-5.9,2.2-10.6,6.6-14.2c4.5-3.7,10.1-5.4,17-5.4s12.5,1.8,17,5.4
					c4.5,3.7,6.7,8.4,6.7,14.2c0,6.7-3.6,11.9-10.6,15.6v2.1c6.7,2.6,12.6,8.7,12.6,17.9C898.2,282.5,895.8,287.5,890.9,291.4z
					 M886,264.8c-3.6-2.8-8.1-4.2-13.7-4.2c-5.5,0-10.1,1.4-13.7,4.2c-3.6,2.8-5.3,6.5-5.3,11.2c0,4.5,1.8,8.2,5.3,11
					c3.7,2.7,8.2,4.1,13.7,4.1c5.5,0,10-1.4,13.6-4.1c3.7-2.8,5.4-6.5,5.4-11C891.4,271.3,889.6,267.7,886,264.8z M855.5,240.9
					c0,4.3,1.6,7.6,4.8,10c3.2,2.4,7.3,3.7,12,3.7s8.7-1.3,11.9-3.7c3.2-2.4,4.9-5.7,4.9-10c0-4.3-1.7-7.6-4.9-10
					c-3.2-2.4-7.2-3.7-11.9-3.7s-8.8,1.3-12,3.7C857.1,233.3,855.5,236.6,855.5,240.9z"/>
				<path id="XMLID_159_" class="st0" d="M911.4,263.1c-4.4-4.5-6.6-10.1-6.6-17c0-7.2,2.2-13.1,6.5-17.8c4.3-4.7,10.1-7.1,17.6-7.1
					c17.3,0,26,11.9,26,35.6c0,11.8-2.3,21.5-6.9,29c-4.6,7.5-11.4,11.3-20.3,11.3c-11.6,0-18.8-6.6-20.9-16.6h6.8
					c2.2,7,6.8,10.6,14,10.6c12.6,0,20.1-11.3,20.6-28.8h-2.1c-4.3,5-10.2,7.5-18,7.5C921.5,269.8,915.9,267.6,911.4,263.1z
					 M911.6,245.6c0,11.6,7.2,18.1,17.6,18.1c10.1,0,17.4-6.8,17.4-18c0-11.4-7.5-18.5-17.7-18.5C918.6,227.2,911.6,234,911.6,245.6
					z"/>
			</g>
			<g id="XMLID_780_">
				<path id="XMLID_127_" class="st0" d="M588.3,131.4h6.8v73.1h-12.3l-37.2-65.9h-2v65.9h-6.8v-73.1h12.3l37.2,65.9h2V131.4z
					 M622.7,129.9c5.4,0,9.5,1.9,12.3,5.5c2.8,3.7,4.3,8.5,4.3,14.4c0,6-1.5,10.7-4.3,14.2c-2.8,3.6-6.9,5.3-12.3,5.3
					c-5.4,0-9.6-1.8-12.4-5.4s-4.2-8.4-4.2-14.3c0-6,1.4-10.7,4.2-14.3S617.3,129.9,622.7,129.9z M639.4,181.8h-33.3v-5.3h33.3
					V181.8z M622.7,164.1c3.4,0,6.1-1.4,7.8-4c1.8-2.7,2.7-6.2,2.7-10.4c0-4.3-0.9-7.7-2.7-10.3c-1.8-2.7-4.4-4.1-7.8-4.1
					c-3.4,0-6.1,1.4-7.8,4.1c-1.8,2.6-2.7,6.1-2.7,10.3c0,4.3,0.9,7.7,2.7,10.4C616.6,162.7,619.2,164.1,622.7,164.1z"/>
				<path id="XMLID_132_" class="st0" d="M588.6,246.3v8.1l-21-21h-2.2v61.3h-5.9v-61.3h-2.2l-21,21v-8.1l26.1-26.1L588.6,246.3z"/>
				<path id="XMLID_134_" class="st0" d="M603.8,268.7v-8.2l21,21h2.2v-61.3h5.9v61.3h2.2l21-21v8.2l-26.1,26.1L603.8,268.7z"/>
			</g>
		</g>
		<g id="XMLID_187_">
			<g id="XMLID_102_">
				<path id="XMLID_94_" class="st0" d="M995.4,440.7c0,26.3-11.5,37.9-27,37.9c-15.5,0-26.9-11.6-26.9-37.9c0-26.3,11.4-38,26.9-38
					C983.9,402.7,995.4,414.4,995.4,440.7z M986.2,440.7c0-18.2-5.5-29.9-17.8-29.9c-12.1,0-17.7,11.7-17.7,29.9
					c0,18.1,5.5,29.8,17.7,29.8C980.7,470.5,986.2,458.8,986.2,440.7z"/>
				<path id="XMLID_103_" class="st0" d="M1003.7,469.2h17.3v-55.4h-2.1l-15.4,10.3v-9.6l15.3-10.3h11.4v65h16v8.1h-42.5V469.2z"/>
				<path id="XMLID_105_" class="st0" d="M1052,424.3c0.8-14.6,11.4-21.6,24.3-21.6c13.7,0,23.7,7.6,23.7,22.3
					c0,9.9-7.5,19.2-16.2,26.4l-18.4,15.5v2.3h36.9v8.1h-50.3V467l10.8-8.8c5.9-4.7,12.7-10.6,16.6-14.1c5-4.5,11.4-10.4,11.4-19.1
					c0-9.2-5.9-14.1-14.7-14.1c-8.3,0-14,4.3-14.9,13.5H1052z"/>
				<path id="XMLID_107_" class="st0" d="M1154.7,404.2v10.2l-18.3,15.7v2.2c12.5,0.3,21.7,8.1,21.7,22.3
					c0,15.2-10.9,24.1-25.8,24.1c-14.8,0-24.8-9.4-25.6-21.8h9.2c0.8,8.4,7.6,13.7,16.4,13.7c10,0,16.6-6,16.6-16
					c0-9.6-5.7-15.6-16.5-15.6c-2.6,0-4.7,0.2-6.4,0.6v-9.7l17.9-15.5v-2.3h-32v-7.9H1154.7z"/>
				<path id="XMLID_110_" class="st0" d="M1218.7,452v8.1h-10v17.1h-9v-17.1h-36.2v-10.4l32.3-45.6h12.9V452H1218.7z M1199.8,452
					v-37.5h-2.3l-24.3,35.2v2.3H1199.8z"/>
				<path id="XMLID_113_" class="st0" d="M992.5,542.8c0,15.9-10.2,26.1-25.1,26.1c-16.1,0-24.7-9.5-25.5-21.8h9.1
					c1.1,9.1,7.1,13.7,16,13.7c9.7,0,16.3-6.7,16.3-17.6c0-10-6.2-17.1-16-17.1c-6.6,0-11.4,2.3-14.5,6.9h-9.2l3.2-38.6h41.8v7.9
					h-34.4l-1.7,21.1h2.3c3.3-3,7.3-5.1,14.1-5.1C983.6,518.4,992.5,529.2,992.5,542.8z"/>
				<path id="XMLID_115_" class="st0" d="M1051.8,543.8c0,13.9-9.3,25.2-24.9,25.2c-15.6,0-26.9-9.6-26.9-35.9
					c0-22.3,8.7-40,27.8-40c12.4,0,20.3,7.4,21.9,17.4h-9.1c-1.8-6.2-5.7-9.3-12.9-9.3c-11.7,0-18.4,9.9-18.9,25.9h2.3
					c2.5-3,8.4-7.1,17.1-7.1C1041.8,519.9,1051.8,529.9,1051.8,543.8z M1042.6,544.2c0-10.9-7.1-16.2-16-16.2
					c-8.8,0-15.9,5.6-15.9,16.1c0,10.7,7.2,16.7,16.1,16.7C1035.7,560.8,1042.6,555,1042.6,544.2z"/>
				<path id="XMLID_118_" class="st0" d="M1072.7,567.6h-9.6l31.8-62.9v-2.3h-37.1v-7.9h46.6v10.2L1072.7,567.6z"/>
				<path id="XMLID_120_" class="st0" d="M1153.2,530.2c4.8,1.7,11.4,7.7,11.4,17.4c0,12.1-10.3,21.3-26.4,21.3
					c-16.1,0-26.4-9.2-26.4-21.3c0-9.6,6.5-15.8,11.4-17.4v-2.3c-3.9-1.7-9.2-7-9.2-15.4c0-11.6,10-19.5,24.2-19.5
					c14.2,0,24.2,7.9,24.2,19.5c0,8.1-5.4,13.7-9.2,15.4V530.2z M1155.5,546.8c0-8.7-6.6-13.8-17.3-13.8c-10.8,0-17.3,5.1-17.3,13.8
					c0,8.5,6.6,14,17.3,14C1148.9,560.8,1155.5,555.3,1155.5,546.8z M1122.9,512.9c0,7.8,6.9,12.1,15.3,12.1
					c8.4,0,15.3-4.3,15.3-12.1c0-7.8-6.9-12-15.3-12C1129.8,500.9,1122.9,505.1,1122.9,512.9z"/>
				<path id="XMLID_124_" class="st0" d="M1171,518.2c0-13.9,9.3-25.2,24.9-25.2c15.6,0,26.9,9.6,26.9,35.9c0,22.3-8.7,40-27.8,40
					c-12.4,0-20.3-7.4-21.9-17.4h9.1c1.8,6.2,5.7,9.3,12.9,9.3c11.7,0,18.4-9.9,18.9-25.9h-2.3c-2.5,3-8.4,7.1-17.1,7.1
					C1181,542,1171,532.1,1171,518.2z M1180.2,517.7c0,10.9,7.1,16.2,16,16.2c8.8,0,15.9-5.6,15.9-16.1c0-10.7-7.2-16.7-16.1-16.7
					C1187.1,501.1,1180.2,506.9,1180.2,517.7z"/>
			</g>
			<g id="XMLID_101_">
				<path id="XMLID_85_" class="st0" d="M855.9,403.2v73.1h-14.4l-34.1-61.1h-2.2v61.1h-9v-73.1h14.4l34.1,61.1h2.2v-61.1H855.9z
					 M900.1,421.5c0,10.9-5.6,19.7-16.8,19.7c-11.2,0-16.8-8.9-16.8-19.7c0-10.9,5.6-19.7,16.8-19.7
					C894.5,401.7,900.1,410.6,900.1,421.5z M866.5,454.2v-6.3h33.8v6.3H866.5z M892.9,421.5c0-7.5-3-13.2-9.6-13.2
					c-6.6,0-9.6,5.6-9.6,13.2c0,7.5,3,13.2,9.6,13.2C889.9,434.6,892.9,429,892.9,421.5z"/>
				<path id="XMLID_90_" class="st0" d="M818.2,508.9h-2.3L795.8,529v-10.8l26.3-26.2l26.3,26.2V529l-20.1-20.1h-2.3v57.7h-7.9
					V508.9z"/>
				<path id="XMLID_92_" class="st0" d="M893.3,549.7h2.3l20.1-20.1v10.8l-26.3,26.2L863,540.4v-10.8l20.1,20.1h2.3V492h7.9V549.7z"
					/>
			</g>
		</g>
		<g id="XMLID_185_">
			<g id="XMLID_98_">
				<path id="XMLID_59_" class="st0" d="M2225.3,130.4c8.4,0,15,3.1,20.2,9.5c5.1,6.4,7.6,15.9,7.6,28.5c0,12.6-2.5,22.2-7.6,28.5
					c-5.1,6.3-11.8,9.4-20.2,9.4c-8.4,0-15-3.1-20.2-9.4c-5.1-6.4-7.6-15.9-7.6-28.5c0-12.6,2.5-22.2,7.6-28.5
					C2210.2,133.5,2216.9,130.4,2225.3,130.4z M2225.3,195.5c5.4,0,9.4-2.5,11.8-7.4c2.5-4.9,3.8-11.5,3.8-19.6
					c0-8.2-1.3-14.7-3.8-19.6c-2.4-5-6.4-7.5-11.8-7.5c-5.4,0-9.4,2.5-11.9,7.5c-2.4,4.9-3.7,11.5-3.7,19.6c0,8.1,1.3,14.7,3.7,19.6
					C2215.9,193,2219.8,195.5,2225.3,195.5z"/>
				<path id="XMLID_62_" class="st0" d="M2260.7,205v-10.7h16.9v-50.1h-2.5l-14.5,9.8v-12.2l14.6-10h14.5v62.5h15.6V205H2260.7z"/>
				<path id="XMLID_64_" class="st0" d="M2310.6,153c0.8-14.6,10.7-22.6,25.6-22.6c7.3,0,13.3,2,17.8,6.1c4.5,4,6.8,9.6,6.8,16.8
					c0,8.7-4.9,16.9-14.8,24.9l-16.9,13.7v2.5h33.9V205h-52.1v-13.1l26.2-20.7c7-5.4,11.6-10.9,11.6-17.9c0-7.8-4.8-12.1-12.6-12.1
					c-7.4,0-12.3,3.9-13.2,11.7H2310.6z"/>
				<path id="XMLID_66_" class="st0" d="M2371.8,131.9h44.9v12.9l-15.9,12.9v2.6c11.4,0.7,19.5,8.6,19.5,21.6c0,7.5-2.5,13.5-7.5,18
					c-4.9,4.4-11.4,6.6-19.3,6.6c-7.7,0-14-2.1-18.9-6.4c-4.9-4.3-7.5-9.8-7.8-16.4h12.2c0.7,7.4,6.6,11.9,14.5,11.9
					c9.1,0,14.7-5.2,14.7-13.7c0-8.5-5.3-13.8-14.6-13.8c-2.6,0-4.8,0.2-6.6,0.6v-11.1l15.8-12.9v-2.5h-31V131.9z"/>
				<path id="XMLID_68_" class="st0" d="M2472.7,177.9h9.5v10.7h-9.5V205h-11.8v-16.4h-35.5v-13.2l32.2-43.6h15.2V177.9z
					 M2437.4,177.9h23.8v-32.3h-2.5l-21.3,29.8V177.9z"/>
				<path id="XMLID_71_" class="st0" d="M2244,252.6c4.4,4.6,6.6,10.4,6.6,17.7c0,7.8-2.4,14.2-7.3,19.1c-4.9,4.8-11.2,7.2-18.8,7.2
					c-16,0-25.8-9.3-26.6-22.8h12.1c0.9,7.8,6.1,11.9,14.1,11.9c8.7,0,14.3-5.9,14.3-15.2c0-9.2-5.6-15-14.1-15
					c-5.7,0-10.1,2.1-13.1,6.2h-11.7l3.2-39.6h43.6v10.3h-34l-1.4,17.9h2.5c3.7-3,8.3-4.6,13.6-4.6
					C2234,245.8,2239.7,248,2244,252.6z"/>
				<path id="XMLID_73_" class="st0" d="M2304.7,253.9c4.5,4.5,6.8,10.2,6.8,17.2c0,7.2-2.4,13.3-7.1,18.2c-4.7,4.9-11,7.3-18.8,7.3
					c-8.7,0-15.5-2.9-20.5-8.7c-5-5.7-7.5-14.9-7.5-27.6c0-7.7,0.9-14.5,2.9-20.3c4.1-11.7,13-19.4,25.8-19.4
					c6.3,0,11.5,1.8,15.7,5.2s6.7,7.8,7.5,13.2h-12c-1.6-5.3-5.3-8-11.4-8c-10,0-16.3,8.2-16.8,22.5h2.5c3.7-4.3,9-6.4,16.2-6.4
					C2294.6,247.1,2300.2,249.4,2304.7,253.9z M2285.2,257.2c-8.3,0-14,5.1-14,14.2c0,9.2,5.9,14.7,14.1,14.7
					c8.3,0,13.9-5.3,13.9-14.6C2299.2,262.4,2293.5,257.2,2285.2,257.2z"/>
				<path id="XMLID_76_" class="st0" d="M2365.3,235.1l-30.4,60.2h-12.7l30.6-60.1v-2.5H2317v-10.6h48.3V235.1z"/>
				<path id="XMLID_78_" class="st0" d="M2415.6,257.9c5.7,2.2,11.1,8.4,11.1,17.1c0,6.2-2.5,11.4-7.4,15.5
					c-4.9,4.1-11.5,6.2-19.9,6.2c-8.5,0-15.2-2.1-20.1-6.2c-4.9-4.1-7.3-9.3-7.3-15.5c0-8.8,5.3-14.9,11.1-17.1v-2.5
					c-4.6-2.4-8.8-7.5-8.8-15c0-5.7,2.3-10.4,6.9-14.1c4.6-3.7,10.7-5.5,18.2-5.5s13.6,1.9,18.1,5.5c4.6,3.7,6.9,8.4,6.9,14.1
					c0,7.4-4.2,12.6-8.8,15V257.9z M2414.7,273.9c0-7.4-5.7-12.3-15.3-12.3c-9.6,0-15.3,4.9-15.3,12.3c0,7.4,5.6,12.3,15.3,12.3
					C2409,286.2,2414.7,281.3,2414.7,273.9z M2399.4,252.1c7.6,0,13.2-4.3,13.2-10.9c0-6.6-5.5-10.8-13.2-10.8
					c-7.6,0-13.3,4.4-13.3,10.8C2386.2,247.8,2391.8,252.1,2399.4,252.1z"/>
				<path id="XMLID_82_" class="st0" d="M2439.2,263.5c-4.5-4.5-6.7-10.3-6.7-17.3c0-7.2,2.4-13.3,7.1-18.2c4.7-4.9,11-7.3,18.8-7.3
					c8.7,0,15.5,2.9,20.5,8.7c5,5.7,7.5,14.9,7.5,27.6c0,7.7-1,14.5-3,20.4c-3.9,11.6-12.9,19.3-25.7,19.3c-6.3,0-11.5-1.8-15.7-5.2
					c-4.2-3.4-6.7-7.8-7.5-13.2h12c1.6,5.3,5.3,8,11.4,8c10,0,16.3-8.1,16.8-22.5h-2.5c-3.7,4.3-9,6.4-16.2,6.4
					C2449.3,270.2,2443.6,268,2439.2,263.5z M2458.7,260.1c8.3,0,14-5.1,14-14.2c0-9.2-5.9-14.7-14.1-14.7
					c-8.3,0-13.9,5.3-13.9,14.6C2444.7,254.9,2450.4,260.1,2458.7,260.1z"/>
			</g>
			<g id="XMLID_97_">
				<path id="XMLID_50_" class="st0" d="M2101.9,130.9h11.5V204h-17.1l-30.3-55.3h-2.5V204H2052v-73.1h17.1l30.3,55.3h2.5V130.9z
					 M2140.4,129.4c5.5,0,9.7,1.9,12.6,5.5c3,3.7,4.5,8.5,4.5,14.2c0,5.7-1.5,10.6-4.5,14.2c-2.9,3.7-7.1,5.5-12.6,5.5
					s-9.7-1.9-12.6-5.5c-2.9-3.7-4.4-8.5-4.4-14.2c0-5.7,1.5-10.6,4.4-14.2C2130.7,131.3,2134.9,129.4,2140.4,129.4z M2157.6,182.5
					h-34.3v-7.4h34.3V182.5z M2149.1,149.1c0-7.2-2.9-12.1-8.7-12.1c-5.5,0-8.6,4.9-8.6,12.1c0,7.4,3,12.1,8.6,12.1
					C2146.1,161.3,2149.1,156.6,2149.1,149.1z"/>
				<path id="XMLID_55_" class="st0" d="M2051.6,260.4v-14l26.6-26.7l26.5,26.6v14.1l-18.9-19.1h-2.5v53h-10.2v-53h-2.5
					L2051.6,260.4z"/>
				<path id="XMLID_57_" class="st0" d="M2171.6,253.5v14l-26.6,26.7l-26.5-26.6v-14.1l18.9,19.1h2.5v-53h10.2v53h2.5L2171.6,253.5z
					"/>
			</g>
		</g>
		<g id="XMLID_186_">
			<g id="XMLID_100_">
				<path id="XMLID_24_" class="st0" d="M2211.4,403.2c8.9,0,16.1,3.1,21.5,9.4c5.4,6.3,8.2,15.8,8.2,28.5s-2.7,22.3-8.2,28.6
					c-5.4,6.3-12.6,9.4-21.5,9.4c-8.9,0-16.1-3.1-21.5-9.4c-5.4-6.4-8.1-15.9-8.1-28.6s2.7-22.3,8.1-28.5
					C2195.3,406.3,2202.5,403.2,2211.4,403.2z M2211.4,419.6c-7.3,0-11,7.2-11,21.5c0,14.4,3.7,21.6,11,21.6s11-7.2,11-21.6
					C2222.3,426.8,2218.7,419.6,2211.4,419.6z"/>
				<path id="XMLID_27_" class="st0" d="M2282,461.7h14.5v16.1h-49.2v-16.1h16.1v-38.8h-2.9l-13.2,9.1v-18.2l13.1-9.2h21.6V461.7z"
					/>
				<path id="XMLID_29_" class="st0" d="M2357.2,461.7v16.1H2301v-19l23.6-16.1c2.6-1.8,4.7-3.3,6.1-4.5c2.9-2.4,6.1-6.4,6.1-10.4
					c0-5.4-3.2-8.5-8.3-8.5c-5,0-8.6,2.8-9,8.6h-18.6c0.7-15.8,11-24.7,28.2-24.7c7.9,0,14.3,2.2,19.1,6.5
					c4.8,4.3,7.2,10.2,7.2,17.9c0,5.7-2.8,11.5-5.7,15.3c-1.4,1.9-3.4,4-6.3,6.4c-2.8,2.3-5,4-6.6,5l-6.9,4.6v2.9H2357.2z"/>
				<path id="XMLID_31_" class="st0" d="M2364.8,404.7h49.6V423l-11.7,7.4v2.9c9.2,1.6,16,8.6,16,20.3c0,7.6-2.7,13.8-8.2,18.5
					c-5.3,4.7-12.4,7-21.1,7s-15.7-2.3-21-7c-5.3-4.7-8-10.6-8.1-17.7h18.7c0.8,5.5,4.7,8.7,10.6,8.7c6.4,0,10.4-4.1,10.4-9.5
					c0-6-3.9-10-10.6-10c-2.5,0-4.8,0.3-6.9,0.8v-14l11.7-7.4v-2.9h-29.5V404.7z"/>
				<path id="XMLID_33_" class="st0" d="M2474.6,447h8.7v15.9h-8.7v14.9h-17.9v-14.9h-34v-18.8l31.8-39.4h20.1V447z M2439.5,447h18
					v-21.5h-2.9l-15,18.6V447z"/>
				<path id="XMLID_36_" class="st0" d="M2232.6,524.7c4.6,4.5,6.9,10.4,6.9,17.9c0,7.8-2.7,14.3-8.1,19.3c-5.3,5-12.1,7.5-20.2,7.5
					c-8.7,0-15.6-2.3-20.8-6.9c-5.2-4.6-8-10.6-8.5-17.8h18.7c0.8,5.4,4.4,8.7,9.9,8.7c6.4,0,10.2-4.4,10.2-10.6
					c0-7.2-4.3-10.8-10.2-10.8c-4.1,0-7.3,1.6-9.7,4.6h-17l3.2-41.8h47.2v15.5h-32.9l-0.7,11.4h2.9c3.4-2.6,7.6-3.9,12.5-3.9
					C2222.4,517.9,2228,520.2,2232.6,524.7z"/>
				<path id="XMLID_38_" class="st0" d="M2296.7,525.7c4.6,4.5,6.9,10.3,6.9,17.5c0,7.4-2.6,13.6-7.7,18.7
					c-5.1,5.1-11.9,7.6-20.3,7.6c-17.2,0-30.5-9.8-30.5-37c0-12,2.5-21.4,7.6-28.4c5.1-7,12.7-10.6,23-10.6c6.8,0,12.7,2,17.7,6.1
					c4.9,4,7.7,8.8,8.5,14.5h-18.6c-0.8-3.8-3.6-5.6-8-5.6c-6.8,0-11.6,4.8-12.3,15.6h2.9c3.1-3.4,7.8-5.1,14.2-5.1
					C2286.6,518.9,2292.3,521.2,2296.7,525.7z M2284.9,543.6c0-3.3-0.9-6-2.7-7.7c-1.8-1.9-4.1-2.8-7.1-2.8s-5.4,0.9-7.2,2.7
					c-1.8,1.8-2.6,4.4-2.6,7.7c0,6.7,4,10.9,9.8,10.9C2281.1,554.4,2284.9,550.4,2284.9,543.6z"/>
				<path id="XMLID_41_" class="st0" d="M2360.4,514l-27.8,54.1h-19.4l27.8-54.1V511h-32.7v-16.1h52.1V514z"/>
				<path id="XMLID_43_" class="st0" d="M2412.6,530.6c5.7,2.6,10.7,8.2,10.7,16.5c0,6.3-2.5,11.6-7.6,15.9
					c-5.1,4.3-12.3,6.5-21.6,6.5c-9.4,0-16.6-2.2-21.7-6.5c-5.1-4.3-7.6-9.6-7.6-15.9c0-8.4,4.9-13.9,10.7-16.5v-2.9
					c-5.4-3.2-8.1-8-8.1-14.4c0-5.5,2.4-10.2,7.1-14c4.8-3.9,11.4-5.7,19.7-5.7c8.4,0,14.9,1.9,19.6,5.7c4.7,3.8,7.1,8.5,7.1,14
					c0,6.4-2.7,11.2-8.1,14.4V530.6z M2394,554.4c7.1,0,10.7-4.2,10.7-9.1c0-4.9-3.6-9.1-10.7-9.1s-10.8,4.2-10.8,9.1
					C2383.3,550.3,2386.9,554.4,2394,554.4z M2394,507.4c-11.8-0.5-11.9,16.8,0,16.3C2405.7,524.2,2405.7,506.9,2394,507.4z"/>
				<path id="XMLID_47_" class="st0" d="M2434.4,537.3c-4.5-4.5-6.8-10.3-6.8-17.4c0-7.4,2.6-13.6,7.7-18.7
					c5.1-5.1,11.9-7.6,20.3-7.6c17.2,0,30.5,9.8,30.5,37c0,12-2.5,21.5-7.6,28.5c-5.1,7-12.7,10.4-23,10.4c-6.8,0-12.7-2-17.7-6
					c-4.9-4.1-7.7-8.9-8.5-14.6h18.6c0.8,3.8,3.6,5.6,8,5.6c6.8,0,11.6-4.8,12.3-15.6h-2.9c-3.1,3.4-7.8,5.1-14.2,5.1
					C2444.6,544.1,2439,541.8,2434.4,537.3z M2446.3,519.3c0,3.3,0.8,6,2.6,7.8c1.8,1.8,4.2,2.7,7.2,2.7s5.3-0.9,7.1-2.7
					c1.8-1.8,2.7-4.4,2.7-7.7c0-6.7-4-10.9-9.8-10.9C2450.1,508.5,2446.3,512.5,2446.3,519.3z"/>
			</g>
			<g id="XMLID_99_">
				<path id="XMLID_8_" class="st0" d="M2084.2,403.7h16.9v73.1h-22.8l-22.7-42.5h-2.9v42.5h-16.9v-73.1h22.8l22.7,42.5h2.9V403.7z
					 M2127.4,441.7c-11.6,0-17.7-7.8-17.7-19.6c0-11.8,6.3-19.9,17.7-19.9c11.4,0,17.8,8,17.8,19.9
					C2145.2,433.8,2139,441.7,2127.4,441.7z M2145.2,456.2h-35.4v-9.5h35.4V456.2z M2134,422.1c0-6.7-2.2-10-6.6-10
					c-4.3,0-6.5,3.3-6.5,10c0,6.6,2.2,9.8,6.5,9.8C2131.8,431.9,2134,428.6,2134,422.1z"/>
				<path id="XMLID_20_" class="st0" d="M2089.8,519.7V541l-16.6-16.6h-2.9v42.7H2055v-42.7h-2.9l-16.6,16.6v-21.3l27.2-27.2
					L2089.8,519.7z"/>
				<path id="XMLID_22_" class="st0" d="M2101.6,539.9v-21.3l16.6,16.6h2.9v-42.7h15.3v42.7h2.9l16.6-16.6v21.3l-27.2,27.2
					L2101.6,539.9z"/>
			</g>
		</g>
	</g>
	<g id="XMLID_199_">
		<g id="XMLID_230_">
			<path id="XMLID_188_" d="M1210.8,295.4V134.8h42.7l33.3,69.9h5.4l32.8-69.9h42.9v160.5h-25.6V167h-5.4l-34,70.4h-27.4l-33.7-70.4
				h-5.4v128.4H1210.8z"/>
		</g>
		<g id="XMLID_227_">
			<path id="XMLID_184_" d="M1496.6,240.3h-84.5c0.7,24.3,11.5,36.4,32.2,36.4c13.3,0,21.6-4.9,25-14.6h25.9
				c-4.5,21.8-22.3,36.2-51,36.2c-17.8,0-31.7-5.6-41.8-16.9c-10.1-11.2-15.3-25.9-15.3-44.1s4.9-32.6,15.1-43.2
				c10.1-10.8,24.1-16.2,41.4-16.2c16.4,0,29.5,5.2,38.7,15.3c9.4,10.1,14.4,22.9,14.6,38.4V240.3z M1413.2,221.4h57.3
				c-1.8-13.5-11.5-23.2-27.4-23.2C1426.2,198.2,1416.1,207.2,1413.2,221.4z"/>
		</g>
		<g id="XMLID_207_">
			<path id="XMLID_180_" d="M1589,191.9h5.4v-60h25.4v163.5h-24.5v-11h-5.4c-7.4,9.2-18.7,13.9-33.7,13.9
				c-15.1,0-27.2-5.6-36.2-16.9c-8.8-11.2-13.3-25.6-13.3-43.4c0-17.5,4.5-31.9,13.3-43.2c9-11.2,21.1-16.9,36.2-16.9
				C1571.3,178,1582.1,182.7,1589,191.9z M1595.1,238c0-21.8-10.8-38.5-31.7-38.5c-20,0-31.3,15.3-31.3,38.5
				c0,23.2,11.2,38.7,31.3,38.7C1584.3,276.7,1595.1,259.8,1595.1,238z"/>
		</g>
		<g id="XMLID_204_">
			<path id="XMLID_176_" d="M1669.8,156.4h-26.1v-24.5h26.1V156.4z M1669.4,180.9v114.5h-25.4V180.9H1669.4z"/>
		</g>
		<g id="XMLID_202_">
			<path id="XMLID_173_" d="M1692.1,180.9h25.4v66.6c0,18.7,8.5,28.1,25.4,28.1c8.8,0,16-3.4,21.4-9.9c5.6-6.5,8.3-14.4,8.3-23.6
				v-61.2h25.4v114.5h-24.5v-11h-5.4c-7,9.2-18,13.9-33.1,13.9c-27.9,0-42.9-17.1-42.9-45.9V180.9z"/>
		</g>
		<g id="XMLID_200_">
			<path id="XMLID_170_" d="M1986,222.3v73.1h-25.4v-68.8c0-17.3-6.5-25.9-19.6-25.9c-15.3,0-24.3,12.1-24.3,29.5v65.2h-25.4v-68.6
				c0-17.3-6.5-26.1-19.6-26.1c-16.2,0-24.5,13.5-24.5,32.4v62.3h-25.4V180.9h24.5v10.3h5.4c5.8-8.8,15.5-13.3,28.8-13.3
				c13.7,0,23.6,4.7,29.7,13.9h5.4c7-9.2,17.5-13.9,31.7-13.9C1973.4,178,1986,194.4,1986,222.3z"/>
		</g>
	</g>
</g>
</svg>
