<?xml version="1.0" encoding="utf-8"?>
<!-- Generator: Adobe Illustrator 19.0.0, SVG Export Plug-In . SVG Version: 6.00 Build 0)  -->
<svg version="1.1" id="construction" xmlns="http://www.w3.org/2000/svg" xmlns:xlink="http://www.w3.org/1999/xlink" x="0px"
	 y="0px" viewBox="110 141 1500 1000" style="enable-background:new 110 141 1500 1000;" xml:space="preserve">
<style type="text/css">
	.st0{fill:#2BB9AF;}
	.st1{fill:#FFFFFF;}
</style>
<rect x="110" y="141" class="st0" width="1500" height="1000"/>
<g id="XMLID_608_">
	<path id="XMLID_618_" class="st1" d="M559.5,762.1v-19.8h-10.1c-13.1,16.8-34,25.2-63,25.2c-23.6,0-42-6.7-55.9-20.1
		c-13.9-13.9-20.6-30.2-20.6-50c0-19.3,7.1-36.1,21-50.4c13.9-14.3,35.3-21.4,63.9-21.4h63v-6.3c0-24.8-14.7-39.1-45-39.1
		c-26.4,0-40.7,9.2-42.9,27.3h-47c2.2-39.9,37.4-64.7,88.2-64.7c57.5,0,92.4,25.6,92.4,77.3v142h-44.1l0,0H559.5z M541.4,713.4
		c10.9-10.5,16.4-23.1,16.4-37.8v-16.4h-54.6c-29.8,0-45.4,13.1-45.4,35.3c0,21.8,16,34.5,43.3,34.5
		C517,729,530.5,723.9,541.4,713.4z"/>
	<path id="XMLID_616_" class="st1" d="M769.5,548.3v44.1h-19.3c-43.3,0-66.8,24.8-66.8,69.7V762h-47.5V548.3h45.8v24.8h10.1
		c12.2-16.4,32.3-24.8,59.7-24.8H769.5z"/>
	<path id="XMLID_614_" class="st1" d="M836.6,548.3H887v40.4h-50.4v104.2c0,18.9,10.9,28.2,32.8,28.2H887v41.2h-18.5
		c-51.6,0-79.3-17.2-79.3-63V494.2h47.5L836.6,548.3L836.6,548.3z"/>
	<path id="XMLID_611_" class="st1" d="M1083.3,736.5c-19.3,20.6-45.4,31.1-78.5,31.1c-33.1,0-59.2-10.5-79-31.1
		c-19.3-21-29-48.3-29-81.5s9.7-60,29-80.6c19.8-21,45.8-31.5,79-31.5s59.2,10.5,78.5,31.5c19.8,20.6,29.4,47.5,29.4,80.6
		C1112.7,688.2,1103,715.5,1083.3,736.5z M1004.7,583.3c-39.1,0-60.5,31.5-60.5,71.9c0,40.7,21.4,72.2,60.5,72.2
		c39.1,0,60.5-31.5,60.5-72.2C1065.2,614.7,1043.8,583.3,1004.7,583.3z"/>
	<path id="XMLID_609_" class="st1" d="M1256.6,605.5c-2.5-15.5-16.4-23.1-42-23.1s-38.6,7.6-38.6,22.3c0,13.1,8.4,18.1,27.3,21.4
		l41.6,6.7c43.3,7.1,65.1,29,65.1,66.4c0,18.9-7.9,35.3-24.4,48.8c-15.9,13.1-38.2,19.8-67.2,19.8c-60.5,0-93.3-26.4-97.9-70.1h47.5
		c3.8,20.6,20.1,30.7,49.6,30.7c29.8,0,45-9.2,45-27.7c0-16.4-10.1-24-34.9-28.5l-44.6-7.6c-33.6-5.5-54.6-24.4-54.6-56.3
		c0-38.2,30.2-65.1,87.8-65.1c50.8,0,83.1,24.4,87.8,62.7h-47.5L1256.6,605.5L1256.6,605.5z"/>
</g>
</svg>
