<?xml version="1.0" encoding="utf-8"?>
<!-- Generator: Adobe Illustrator 19.0.0, SVG Export Plug-In . SVG Version: 6.00 Build 0)  -->
<svg version="1.1" id="_x31_" xmlns="http://www.w3.org/2000/svg" xmlns:xlink="http://www.w3.org/1999/xlink" x="0px" y="0px"
	 viewBox="-74 154.9 1200 1042.1" style="enable-background:new -74 154.9 1200 1042.1;" xml:space="preserve">
<style type="text/css">
	.st0{fill:#36AFA7;}
	.st1{fill:#101010;fill-opacity:0;}
	.st2{fill:#101010;}
</style>
<g id="XMLID_2_">
	<g id="XMLID_654_">
		<path id="XMLID_55_" class="st0" d="M404.4,157.6v676.7H-71V157.6H404.4 M405.4,156.6H-72v678.7h477.4V156.6L405.4,156.6z"/>
	</g>
	<g id="XMLID_653_">
		<path id="XMLID_51_" class="st0" d="M1123,157.6V633H446.3V157.6H1123 M1124,156.6H445.3V634H1124V156.6L1124,156.6z"/>
	</g>
	<g id="XMLID_652_">
		<path id="XMLID_42_" class="st0" d="M965,675.6v518.7H446.3V675.6H965 M966,674.6H445.3v520.7H966V674.6L966,674.6z"/>
	</g>
</g>
<g id="XMLID_593_">
	<g id="XMLID_623_">
		<rect id="XMLID_651_" x="-72" y="770.5" class="st1" width="134.8" height="65.2"/>
		<g id="XMLID_624_">
			<g id="XMLID_671_">
				<path id="XMLID_681_" class="st2" d="M-35.1,813.9v-2h-1c-1.3,1.7-3.5,2.6-6.4,2.6c-2.4,0-4.3-0.7-5.7-2
					c-1.4-1.4-2.1-3.1-2.1-5.1s0.7-3.7,2.1-5.1c1.4-1.5,3.6-2.2,6.5-2.2h6.4v-0.6c0-2.5-1.5-4-4.6-4c-2.7,0-4.1,0.9-4.4,2.8H-49
					c0.2-4.1,3.8-6.6,9-6.6c5.8,0,9.4,2.6,9.4,7.9v14.3H-35.1z M-36.9,808.9c1.1-1.1,1.7-2.3,1.7-3.8v-1.7h-5.5
					c-3,0-4.6,1.3-4.6,3.6c0,2.2,1.6,3.5,4.4,3.5C-39.4,810.5-38,810-36.9,808.9z"/>
				<path id="XMLID_679_" class="st2" d="M-13.8,792.2v4.5h-2c-4.4,0-6.8,2.5-6.8,7.1v10.1h-4.8v-21.7h4.7v2.5h1
					c1.2-1.7,3.3-2.5,6.1-2.5H-13.8z"/>
				<path id="XMLID_677_" class="st2" d="M-6.9,792.2h5.1v4.1h-5.1v10.6c0,1.9,1.1,2.9,3.3,2.9h1.8v4.2h-1.9c-5.2,0-8.1-1.7-8.1-6.4
					v-20.8H-7L-6.9,792.2L-6.9,792.2z"/>
				<path id="XMLID_674_" class="st2" d="M18.1,811.3c-2,2.1-4.6,3.2-8,3.2s-6-1.1-8-3.2c-2-2.1-2.9-4.9-2.9-8.3
					c0-3.4,1-6.1,2.9-8.2c2-2.1,4.7-3.2,8-3.2c3.4,0,6,1.1,8,3.2c2,2.1,3,4.8,3,8.2C21.1,806.4,20.1,809.2,18.1,811.3z M10.1,795.7
					c-4,0-6.1,3.2-6.1,7.3s2.2,7.3,6.1,7.3c4,0,6.1-3.2,6.1-7.3C16.3,798.9,14.1,795.7,10.1,795.7z"/>
				<path id="XMLID_672_" class="st2" d="M35.7,798c-0.3-1.6-1.7-2.3-4.3-2.3c-2.6,0-3.9,0.8-3.9,2.3c0,1.3,0.9,1.8,2.8,2.2l4.2,0.7
					c4.4,0.7,6.6,2.9,6.6,6.7c0,1.9-0.8,3.6-2.5,4.9c-1.6,1.3-3.9,2-6.8,2c-6.1,0-9.5-2.7-9.9-7.1h4.8c0.4,2.1,2,3.1,5,3.1
					s4.6-0.9,4.6-2.8c0-1.7-1-2.4-3.5-2.9l-4.5-0.8c-3.4-0.6-5.5-2.5-5.5-5.7c0-3.9,3.1-6.6,8.9-6.6c5.2,0,8.4,2.5,8.9,6.4h-4.9V798
					z"/>
			</g>
		</g>
	</g>
	<g id="XMLID_594_">
		<rect id="XMLID_622_" x="270.5" y="770.5" class="st1" width="134.8" height="65.2"/>
		<g id="XMLID_595_">
			<g id="XMLID_685_">
				<path id="XMLID_695_" class="st2" d="M307.4,813.9v-2h-1c-1.3,1.7-3.5,2.6-6.4,2.6c-2.4,0-4.3-0.7-5.7-2
					c-1.4-1.4-2.1-3.1-2.1-5.1s0.7-3.7,2.1-5.1c1.4-1.5,3.6-2.2,6.5-2.2h6.4v-0.6c0-2.5-1.5-4-4.6-4c-2.7,0-4.1,0.9-4.4,2.8h-4.8
					c0.2-4.1,3.8-6.6,9-6.6c5.8,0,9.4,2.6,9.4,7.9v14.3H307.4z M305.6,808.9c1.1-1.1,1.7-2.3,1.7-3.8v-1.7h-5.5
					c-3,0-4.6,1.3-4.6,3.6c0,2.2,1.6,3.5,4.4,3.5C303.1,810.5,304.5,810,305.6,808.9z"/>
				<path id="XMLID_693_" class="st2" d="M328.8,792.2v4.5h-2c-4.4,0-6.8,2.5-6.8,7.1v10.1h-4.8v-21.7h4.7v2.5h1
					c1.2-1.7,3.3-2.5,6.1-2.5H328.8z"/>
				<path id="XMLID_691_" class="st2" d="M335.6,792.2h5.1v4.1h-5.1v10.6c0,1.9,1.1,2.9,3.3,2.9h1.8v4.2h-1.9
					c-5.2,0-8.1-1.7-8.1-6.4v-20.8h4.8v5.4H335.6z"/>
				<path id="XMLID_688_" class="st2" d="M360.6,811.3c-2,2.1-4.6,3.2-8,3.2s-6-1.1-8-3.2c-2-2.1-2.9-4.9-2.9-8.3
					c0-3.4,1-6.1,2.9-8.2c2-2.1,4.7-3.2,8-3.2c3.4,0,6,1.1,8,3.2c2,2.1,3,4.8,3,8.2C363.6,806.4,362.6,809.2,360.6,811.3z
					 M352.6,795.7c-4,0-6.1,3.2-6.1,7.3s2.2,7.3,6.1,7.3c4,0,6.1-3.2,6.1-7.3C358.8,798.9,356.6,795.7,352.6,795.7z"/>
				<path id="XMLID_686_" class="st2" d="M378.2,798c-0.3-1.6-1.7-2.3-4.3-2.3c-2.6,0-3.9,0.8-3.9,2.3c0,1.3,0.9,1.8,2.8,2.2
					l4.2,0.7c4.4,0.7,6.6,2.9,6.6,6.7c0,1.9-0.8,3.6-2.5,4.9c-1.6,1.3-3.9,2-6.8,2c-6.1,0-9.5-2.7-9.9-7.1h4.8c0.4,2.1,2,3.1,5,3.1
					s4.6-0.9,4.6-2.8c0-1.7-1-2.4-3.5-2.9l-4.5-0.8c-3.4-0.6-5.5-2.5-5.5-5.7c0-3.9,3.1-6.6,8.9-6.6c5.2,0,8.4,2.5,8.9,6.4h-4.9V798
					z"/>
			</g>
		</g>
	</g>
</g>
<g id="XMLID_657_">
	<g id="XMLID_407_">
		<rect id="XMLID_592_" x="445.3" y="569.1" class="st1" width="134.8" height="65.2"/>
		<g id="XMLID_408_">
			<g id="XMLID_719_">
				<path id="XMLID_729_" class="st2" d="M482.2,612.5v-2h-1c-1.3,1.7-3.5,2.6-6.4,2.6c-2.4,0-4.3-0.7-5.7-2
					c-1.4-1.4-2.1-3.1-2.1-5.1s0.7-3.7,2.1-5.1c1.4-1.5,3.6-2.2,6.5-2.2h6.4v-0.6c0-2.5-1.5-4-4.6-4c-2.7,0-4.1,0.9-4.4,2.8h-4.8
					c0.2-4.1,3.8-6.6,9-6.6c5.8,0,9.4,2.6,9.4,7.9v14.4L482.2,612.5L482.2,612.5z M480.4,607.6c1.1-1.1,1.7-2.3,1.7-3.8v-1.7h-5.5
					c-3,0-4.6,1.3-4.6,3.6c0,2.2,1.6,3.5,4.4,3.5C477.9,609.2,479.2,608.7,480.4,607.6z"/>
				<path id="XMLID_727_" class="st2" d="M503.5,590.8v4.5h-2c-4.4,0-6.8,2.5-6.8,7.1v10.2H490v-21.7h4.7v2.5h1
					c1.2-1.7,3.3-2.5,6.1-2.5L503.5,590.8L503.5,590.8z"/>
				<path id="XMLID_725_" class="st2" d="M510.3,590.8h5.1v4.1h-5.1v10.6c0,1.9,1.1,2.9,3.3,2.9h1.8v4.2h-1.9
					c-5.2,0-8.1-1.7-8.1-6.4v-20.8h4.8v5.4H510.3z"/>
				<path id="XMLID_722_" class="st2" d="M535.4,609.9c-2,2.1-4.6,3.2-8,3.2s-6-1.1-8-3.2s-2.9-4.9-2.9-8.3s1-6.1,2.9-8.2
					c2-2.1,4.7-3.2,8-3.2c3.4,0,6,1.1,8,3.2s3,4.8,3,8.2C538.4,605,537.4,607.8,535.4,609.9z M527.4,594.4c-4,0-6.1,3.2-6.1,7.3
					c0,4.1,2.2,7.3,6.1,7.3c4,0,6.1-3.2,6.1-7.3C533.6,597.6,531.4,594.4,527.4,594.4z"/>
				<path id="XMLID_720_" class="st2" d="M553,596.6c-0.3-1.6-1.7-2.3-4.3-2.3s-3.9,0.8-3.9,2.3c0,1.3,0.9,1.8,2.8,2.2l4.2,0.7
					c4.4,0.7,6.6,2.9,6.6,6.7c0,1.9-0.8,3.6-2.5,4.9c-1.6,1.3-3.9,2-6.8,2c-6.1,0-9.5-2.7-9.9-7.1h4.8c0.4,2.1,2,3.1,5,3.1
					s4.6-0.9,4.6-2.8c0-1.7-1-2.4-3.5-2.9l-4.5-0.8c-3.4-0.6-5.5-2.5-5.5-5.7c0-3.9,3.1-6.6,8.9-6.6c5.2,0,8.4,2.5,8.9,6.4H553
					V596.6z"/>
			</g>
		</g>
	</g>
	<g id="XMLID_285_">
		<rect id="XMLID_406_" x="989.2" y="569.1" class="st1" width="134.8" height="65.2"/>
		<g id="XMLID_286_">
			<g id="XMLID_705_">
				<path id="XMLID_716_" class="st2" d="M1026.1,612.5v-2h-1c-1.3,1.7-3.5,2.6-6.4,2.6c-2.4,0-4.3-0.7-5.7-2
					c-1.4-1.4-2.1-3.1-2.1-5.1s0.7-3.7,2.1-5.1c1.4-1.5,3.6-2.2,6.5-2.2h6.4v-0.6c0-2.5-1.5-4-4.6-4c-2.7,0-4.1,0.9-4.4,2.8h-4.8
					c0.2-4.1,3.8-6.6,9-6.6c5.8,0,9.4,2.6,9.4,7.9v14.4L1026.1,612.5L1026.1,612.5z M1024.2,607.6c1.1-1.1,1.7-2.3,1.7-3.8v-1.7
					h-5.5c-3,0-4.6,1.3-4.6,3.6c0,2.2,1.6,3.5,4.4,3.5C1021.8,609.2,1023.1,608.7,1024.2,607.6z"/>
				<path id="XMLID_714_" class="st2" d="M1047.4,590.8v4.5h-2c-4.4,0-6.8,2.5-6.8,7.1v10.2h-4.8v-21.7h4.7v2.5h1
					c1.2-1.7,3.3-2.5,6.1-2.5L1047.4,590.8L1047.4,590.8z"/>
				<path id="XMLID_712_" class="st2" d="M1054.2,590.8h5.1v4.1h-5.1v10.6c0,1.9,1.1,2.9,3.3,2.9h1.8v4.2h-1.9
					c-5.2,0-8.1-1.7-8.1-6.4v-20.8h4.8L1054.2,590.8L1054.2,590.8z"/>
				<path id="XMLID_708_" class="st2" d="M1079.3,609.9c-2,2.1-4.6,3.2-8,3.2s-6-1.1-8-3.2s-2.9-4.9-2.9-8.3s1-6.1,2.9-8.2
					c2-2.1,4.7-3.2,8-3.2c3.4,0,6,1.1,8,3.2s3,4.8,3,8.2C1082.2,605,1081.3,607.8,1079.3,609.9z M1071.3,594.4c-4,0-6.1,3.2-6.1,7.3
					c0,4.1,2.2,7.3,6.1,7.3c4,0,6.1-3.2,6.1-7.3S1075.3,594.4,1071.3,594.4z"/>
				<path id="XMLID_706_" class="st2" d="M1096.9,596.6c-0.3-1.6-1.7-2.3-4.3-2.3c-2.6,0-3.9,0.8-3.9,2.3c0,1.3,0.9,1.8,2.8,2.2
					l4.2,0.7c4.4,0.7,6.6,2.9,6.6,6.7c0,1.9-0.8,3.6-2.5,4.9c-1.6,1.3-3.9,2-6.8,2c-6.1,0-9.5-2.7-9.9-7.1h4.8c0.4,2.1,2,3.1,5,3.1
					s4.6-0.9,4.6-2.8c0-1.7-1-2.4-3.5-2.9l-4.5-0.8c-3.4-0.6-5.5-2.5-5.5-5.7c0-3.9,3.1-6.6,8.9-6.6c5.2,0,8.4,2.5,8.9,6.4h-4.9
					V596.6z"/>
			</g>
		</g>
	</g>
</g>
<g id="XMLID_656_">
	<g id="XMLID_191_">
		<rect id="XMLID_284_" x="445.3" y="1130.3" class="st1" width="134.8" height="65.2"/>
		<g id="XMLID_192_">
			<g id="XMLID_664_">
				<path id="XMLID_701_" class="st2" d="M482.2,1173.8v-2h-1c-1.3,1.7-3.5,2.6-6.4,2.6c-2.4,0-4.3-0.7-5.7-2
					c-1.4-1.4-2.1-3.1-2.1-5.1s0.7-3.7,2.1-5.1c1.4-1.5,3.6-2.2,6.5-2.2h6.4v-0.6c0-2.5-1.5-4-4.6-4c-2.7,0-4.1,0.9-4.4,2.8h-4.8
					c0.2-4.1,3.8-6.6,9-6.6c5.8,0,9.4,2.6,9.4,7.9v14.4h-4.4V1173.8z M480.4,1168.8c1.1-1.1,1.7-2.3,1.7-3.8v-1.7h-5.5
					c-3,0-4.6,1.3-4.6,3.6c0,2.2,1.6,3.5,4.4,3.5C477.9,1170.4,479.2,1169.9,480.4,1168.8z"/>
				<path id="XMLID_699_" class="st2" d="M503.5,1152.1v4.5h-2c-4.4,0-6.8,2.5-6.8,7.1v10.2H490v-21.7h4.7v2.5h1
					c1.2-1.7,3.3-2.5,6.1-2.5L503.5,1152.1L503.5,1152.1z"/>
				<path id="XMLID_697_" class="st2" d="M510.3,1152.1h5.1v4.1h-5.1v10.6c0,1.9,1.1,2.9,3.3,2.9h1.8v4.2h-1.9
					c-5.2,0-8.1-1.7-8.1-6.4v-20.8h4.8v5.4H510.3z"/>
				<path id="XMLID_667_" class="st2" d="M535.4,1171.2c-2,2.1-4.6,3.2-8,3.2s-6-1.1-8-3.2c-2-2.1-2.9-4.9-2.9-8.3s1-6.1,2.9-8.2
					c2-2.1,4.7-3.2,8-3.2c3.4,0,6,1.1,8,3.2c2,2.1,3,4.8,3,8.2S537.4,1169,535.4,1171.2z M527.4,1155.6c-4,0-6.1,3.2-6.1,7.3
					s2.2,7.3,6.1,7.3c4,0,6.1-3.2,6.1-7.3C533.6,1158.8,531.4,1155.6,527.4,1155.6z"/>
				<path id="XMLID_665_" class="st2" d="M553,1157.9c-0.3-1.6-1.7-2.3-4.3-2.3s-3.9,0.8-3.9,2.3c0,1.3,0.9,1.8,2.8,2.2l4.2,0.7
					c4.4,0.7,6.6,2.9,6.6,6.7c0,1.9-0.8,3.6-2.5,4.9c-1.6,1.3-3.9,2-6.8,2c-6.1,0-9.5-2.7-9.9-7.1h4.8c0.4,2.1,2,3.1,5,3.1
					s4.6-0.9,4.6-2.8c0-1.7-1-2.4-3.5-2.9l-4.5-0.8c-3.4-0.6-5.5-2.5-5.5-5.7c0-3.9,3.1-6.6,8.9-6.6c5.2,0,8.4,2.5,8.9,6.4H553
					V1157.9z"/>
			</g>
		</g>
	</g>
	<g id="XMLID_44_">
		<rect id="XMLID_190_" x="831.1" y="1130.3" class="st1" width="134.8" height="65.2"/>
		<g id="XMLID_45_">
			<g id="XMLID_626_">
				<path id="XMLID_638_" class="st2" d="M868,1173.8v-2h-1c-1.3,1.7-3.5,2.6-6.4,2.6c-2.4,0-4.3-0.7-5.7-2
					c-1.4-1.4-2.1-3.1-2.1-5.1s0.7-3.7,2.1-5.1c1.4-1.5,3.6-2.2,6.5-2.2h6.4v-0.6c0-2.5-1.5-4-4.6-4c-2.7,0-4.1,0.9-4.4,2.8H854
					c0.2-4.1,3.8-6.6,9-6.6c5.8,0,9.4,2.6,9.4,7.9v14.4H868V1173.8z M866.2,1168.8c1.1-1.1,1.7-2.3,1.7-3.8v-1.7h-5.5
					c-3,0-4.6,1.3-4.6,3.6c0,2.2,1.6,3.5,4.4,3.5C863.7,1170.4,865.1,1169.9,866.2,1168.8z"/>
				<path id="XMLID_634_" class="st2" d="M889.4,1152.1v4.5h-2c-4.4,0-6.8,2.5-6.8,7.1v10.2h-4.8v-21.7h4.7v2.5h1
					c1.2-1.7,3.3-2.5,6.1-2.5L889.4,1152.1L889.4,1152.1z"/>
				<path id="XMLID_632_" class="st2" d="M896.2,1152.1h5.1v4.1h-5.1v10.6c0,1.9,1.1,2.9,3.3,2.9h1.8v4.2h-1.9
					c-5.2,0-8.1-1.7-8.1-6.4v-20.8h4.8v5.4H896.2z"/>
				<path id="XMLID_629_" class="st2" d="M921.2,1171.2c-2,2.1-4.6,3.2-8,3.2s-6-1.1-8-3.2c-2-2.1-2.9-4.9-2.9-8.3s1-6.1,2.9-8.2
					c2-2.1,4.7-3.2,8-3.2c3.4,0,6,1.1,8,3.2c2,2.1,3,4.8,3,8.2S923.2,1169,921.2,1171.2z M913.2,1155.6c-4,0-6.1,3.2-6.1,7.3
					s2.2,7.3,6.1,7.3c4,0,6.1-3.2,6.1-7.3C919.4,1158.8,917.2,1155.6,913.2,1155.6z"/>
				<path id="XMLID_627_" class="st2" d="M938.8,1157.9c-0.3-1.6-1.7-2.3-4.3-2.3s-3.9,0.8-3.9,2.3c0,1.3,0.9,1.8,2.8,2.2l4.2,0.7
					c4.4,0.7,6.6,2.9,6.6,6.7c0,1.9-0.8,3.6-2.5,4.9c-1.6,1.3-3.9,2-6.8,2c-6.1,0-9.5-2.7-9.9-7.1h4.8c0.4,2.1,2,3.1,5,3.1
					s4.6-0.9,4.6-2.8c0-1.7-1-2.4-3.5-2.9l-4.5-0.8c-3.4-0.6-5.5-2.5-5.5-5.7c0-3.9,3.1-6.6,8.9-6.6c5.2,0,8.4,2.5,8.9,6.4h-4.9
					V1157.9z"/>
			</g>
		</g>
	</g>
</g>
</svg>
