<?xml version="1.0" encoding="utf-8"?>
<!-- Generator: Adobe Illustrator 19.0.0, SVG Export Plug-In . SVG Version: 6.00 Build 0)  -->
<svg version="1.1" id="Layer_1" xmlns="http://www.w3.org/2000/svg" xmlns:xlink="http://www.w3.org/1999/xlink" x="0px" y="0px"
	 viewBox="110 141 1500 1000" style="enable-background:new 110 141 1500 1000;" xml:space="preserve">
<style type="text/css">
	.st0{fill:#2BB9AF;}
	.st1{fill:none;stroke:#101010;stroke-miterlimit:10;}
	.st2{fill:#FFFFFF;}
	.st3{fill:#101010;}
</style>
<rect id="XMLID_1_" x="110" y="141" class="st0" width="1500" height="1000"/>
<line id="XMLID_710_" class="st1" x1="1610" y1="552.7" x2="110" y2="552.7"/>
<line id="XMLID_709_" class="st1" x1="1610" y1="670.5" x2="110" y2="670.5"/>
<line id="XMLID_450_" class="st1" x1="1610" y1="788.3" x2="110" y2="788.3"/>
<line id="XMLID_696_" class="st1" x1="411.7" y1="141" x2="411.7" y2="1141"/>
<line id="XMLID_695_" class="st1" x1="1308.3" y1="141" x2="1308.3" y2="1141"/>
<g id="XMLID_286_">
	<g id="XMLID_288_">
		<path id="XMLID_289_" class="st2" d="M449.9,471.3c12,0,21.4,3.9,28,11.6c6.7,7.7,10.1,17.7,10.1,29.8c0,12.1-3.4,22.1-10.1,29.8
			c-6.6,7.7-16,11.6-28,11.6s-21.4-3.9-28.1-11.6c-6.7-7.7-10.1-17.7-10.1-29.8s3.4-22.1,10.1-29.8S437.9,471.3,449.9,471.3z
			 M449.9,542c8.1,0,14.1-2.8,18.3-8.3c4.1-5.5,6.2-12.5,6.2-20.9c0-8.4-2-15.5-6.2-20.9c-4.1-5.5-10.2-8.3-18.3-8.3
			s-14.2,2.8-18.4,8.3c-4.1,5.5-6.2,12.5-6.2,20.9c0,8.4,2,15.5,6.2,20.9C435.6,539.2,441.8,542,449.9,542z"/>
		<path id="XMLID_292_" class="st2" d="M548.6,542h10.3v26.8h-12.1v-16h-45.7v16H489V542h8.1c3.9-9.3,5.9-19.4,5.9-30.2v-16h45.6
			V542L548.6,542z M536,542v-35.5h-21.4v5.4c0,11.3-1.7,21.4-5.2,30.1H536z"/>
		<path id="XMLID_296_" class="st2" d="M616.2,525.3h-42.1c0.3,12.1,5.7,18.1,16,18.1c6.6,0,10.7-2.5,12.4-7.3h12.9
			c-2.2,10.9-11.1,18-25.4,18c-8.8,0-15.8-2.8-20.8-8.4s-7.6-12.9-7.6-21.9c0-9.1,2.5-16.2,7.5-21.5c5-5.4,12-8.1,20.6-8.1
			c8.2,0,14.7,2.6,19.3,7.6c4.7,5,7.2,11.4,7.3,19.1L616.2,525.3L616.2,525.3z M574.7,515.9h28.6c-0.9-6.7-5.7-11.5-13.7-11.5
			C581.2,504.4,576.2,508.8,574.7,515.9z"/>
		<path id="XMLID_451_" class="st2" d="M643.8,529L633,552.7h-13l13.2-29.3l-12.4-27.7h12.9l10.1,22.5h12.7v-22.5h11.9v22.5H681
			l10-22.5h12.9l-12.3,27.7l13.2,29.3h-13.1L681,529h-12.7v23.7h-11.9V529H643.8z"/>
		<path id="XMLID_665_" class="st2" d="M764.7,542H775v26.8h-12.1v-16h-45.7v16h-12.1V542h8.1c3.9-9.3,5.9-19.4,5.9-30.2v-16h45.6
			V542z M752.1,542v-35.5h-21.4v5.4c0,11.3-1.7,21.4-5.2,30.1H752.1z"/>
		<path id="XMLID_685_" class="st2" d="M816.7,552.7v-5.3H814c-3.5,4.5-9.1,6.7-16.8,6.7c-6.3,0-11.2-1.8-14.9-5.4
			c-3.7-3.7-5.5-8.1-5.5-13.3c0-5.2,1.9-9.6,5.6-13.4c3.7-3.8,9.4-5.7,17-5.7h16.8v-1.7c0-6.6-3.9-10.4-12-10.4
			c-7.1,0-10.9,2.5-11.4,7.3h-12.5c0.6-10.6,10-17.2,23.5-17.2c15.3,0,24.6,6.8,24.6,20.6v37.8H816.7z M811.9,539.7
			c2.9-2.8,4.4-6.2,4.4-10.1v-4.4h-14.6c-7.9,0-12.1,3.5-12.1,9.4c0,5.8,4.3,9.2,11.5,9.2C805.4,543.9,808.9,542.5,811.9,539.7z"/>
	</g>
	<g id="XMLID_1253_">
		<path id="XMLID_688_" class="st2" d="M464.1,670.5h-12.7v-46.2h-27.1v46.2h-12.7v-57H464v57H464.1z"/>
		<path id="XMLID_690_" class="st2" d="M475.9,613.5h12.2v5.5h2.7c3.7-4.6,9.3-6.9,16.8-6.9c7.5,0,13.5,2.8,17.9,8.4
			c4.5,5.6,6.7,12.8,6.7,21.5c0,8.8-2.2,16-6.7,21.6c-4.4,5.6-10.4,8.4-17.9,8.4c-7.4,0-12.9-2.4-16.3-6.9h-2.7V693h-12.7V613.5z
			 M488.3,642c0,10.9,5.4,19.3,15.8,19.3c10,0,15.6-7.7,15.6-19.3c0-11.5-5.6-19.1-15.6-19.1C493.6,622.8,488.3,631.1,488.3,642z"/>
		<path id="XMLID_1054_" class="st2" d="M587.1,663.7c-5.2,5.5-12.1,8.3-20.9,8.3s-15.8-2.8-21-8.3c-5.2-5.6-7.7-12.9-7.7-21.7
			s2.6-16,7.7-21.5c5.3-5.6,12.2-8.4,21-8.4s15.8,2.8,20.9,8.4c5.3,5.5,7.8,12.7,7.8,21.5S592.4,658.1,587.1,663.7z M566.2,622.8
			c-10.4,0-16.1,8.4-16.1,19.1c0,10.9,5.7,19.3,16.1,19.3s16.1-8.4,16.1-19.3C582.3,631.2,576.6,622.8,566.2,622.8z"/>
		<path id="XMLID_1057_" class="st2" d="M642.9,692.9h-12.4v-22.4h-1.3c-9.1-0.1-16.2-2.7-21.4-7.9c-5-5.3-7.6-12.1-7.6-20.6
			c0-8.4,2.5-15.1,7.5-20.4s12.1-7.9,21.2-8.1h1.7v-24.4H643v24.4h1.7c9,0.1,16,2.8,21,8.1c5,5.3,7.6,12,7.6,20.4
			c0,17.5-11.1,28.6-30.3,28.6v22.3H642.9z M629,660.3h1.5v-36.6h-1.3c-10.7,0.1-16.6,7.8-16.6,18.2
			C612.6,652.6,618.3,660.2,629,660.3z M642.9,660.3h1.2c10.7-0.1,16.7-7.7,16.7-18.4c0-10.4-5.9-18.1-16.7-18.2h-1.2V660.3z"/>
		<path id="XMLID_1061_" class="st2" d="M733,643.1h-42.1c0.3,12.1,5.7,18.1,16,18.1c6.6,0,10.7-2.5,12.4-7.3h12.9
			c-2.2,10.9-11.1,18-25.4,18c-8.8,0-15.8-2.8-20.8-8.4c-5-5.6-7.6-12.9-7.6-21.9c0-9.1,2.5-16.2,7.5-21.5c5-5.4,12-8.1,20.6-8.1
			c8.2,0,14.7,2.6,19.3,7.6c4.7,5,7.2,11.4,7.3,19.1v4.4H733z M691.5,633.7H720c-0.9-6.7-5.7-11.5-13.7-11.5
			C698,622.1,692.9,626.6,691.5,633.7z"/>
		<path id="XMLID_1064_" class="st2" d="M791.4,652.3c-1.8,12-11.5,19.7-25.1,19.7c-8.7,0-15.7-2.8-20.7-8.3s-7.5-12.8-7.5-21.7
			c0-8.8,2.5-16.1,7.5-21.6s12-8.3,20.7-8.3c13.5,0,23,7.5,24.6,18.8h-12.5c-1.7-5.4-5.7-8.1-12-8.1c-10.6,0-15.7,7.9-15.7,19
			c0,11.3,5,19.4,15.7,19.4c6.9,0,11.1-3,12.4-9L791.4,652.3L791.4,652.3z"/>
		<path id="XMLID_1180_" class="st2" d="M849.4,652.3c-1.8,12-11.5,19.7-25.1,19.7c-8.7,0-15.7-2.8-20.7-8.3s-7.5-12.8-7.5-21.7
			c0-8.8,2.5-16.1,7.5-21.6s12-8.3,20.7-8.3c13.5,0,23,7.5,24.6,18.8h-12.5c-1.7-5.4-5.7-8.1-12-8.1c-10.6,0-15.7,7.9-15.7,19
			c0,11.3,5,19.4,15.7,19.4c6.9,0,11.1-3,12.4-9L849.4,652.3L849.4,652.3z"/>
		<path id="XMLID_1182_" class="st2" d="M871.8,670.5h-14.3v-57h12.3v37.6h2.7l23.4-37.6h14.7v57h-12.3v-37.6h-2.7L871.8,670.5z"/>
		<path id="XMLID_1184_" class="st2" d="M968.7,663.7c-5.1,5.5-12.1,8.3-20.9,8.3c-8.8,0-15.8-2.8-21-8.3
			c-5.1-5.6-7.7-12.9-7.7-21.7s2.6-16,7.7-21.5c5.3-5.6,12.2-8.4,21-8.4s15.8,2.8,20.9,8.4c5.3,5.5,7.8,12.7,7.8,21.5
			S974,658.1,968.7,663.7z M947.8,622.8c-10.4,0-16.1,8.4-16.1,19.1c0,10.9,5.7,19.3,16.1,19.3c10.4,0,16.1-8.4,16.1-19.3
			C963.9,631.2,958.2,622.8,947.8,622.8z"/>
		<path id="XMLID_1187_" class="st2" d="M1037.9,670.5h-12.7v-23.8h-27.5v23.8H985v-57h12.7v22.4h27.5v-22.4h12.7V670.5z"/>
		<path id="XMLID_1189_" class="st2" d="M1085.4,670.5v-5.3h-2.7c-3.5,4.5-9.1,6.7-16.8,6.7c-6.3,0-11.2-1.8-14.9-5.4
			c-3.7-3.7-5.5-8.1-5.5-13.3s1.9-9.6,5.6-13.4c3.7-3.8,9.4-5.7,17-5.7h16.8v-1.7c0-6.6-3.9-10.4-12-10.4c-7.1,0-10.9,2.5-11.4,7.3
			H1049c0.6-10.6,10-17.2,23.5-17.2c15.3,0,24.6,6.8,24.6,20.6v37.8H1085.4z M1080.6,657.5c2.9-2.8,4.4-6.2,4.4-10.1V643h-14.6
			c-7.9,0-12.1,3.5-12.1,9.4c0,5.8,4.3,9.2,11.5,9.2C1074.1,661.7,1077.7,660.3,1080.6,657.5z"/>
		<path id="XMLID_1204_" class="st2" d="M1102.1,670.5v-12h2c7.7,0,10.9-5.4,10.9-21.9v-23.1h46.1v57h-12.7v-46.2h-21.8V637
			c0,12.3-1.8,21-5.4,26.1c-3.5,5-9.2,7.5-17.1,7.5L1102.1,670.5L1102.1,670.5z"/>
		<path id="XMLID_1206_" class="st2" d="M1219.3,663.7c-5.1,5.5-12.1,8.3-20.9,8.3s-15.8-2.8-21-8.3c-5.2-5.6-7.7-12.9-7.7-21.7
			s2.6-16,7.7-21.5c5.3-5.6,12.2-8.4,21-8.4s15.8,2.8,20.9,8.4c5.3,5.5,7.8,12.7,7.8,21.5S1224.6,658.1,1219.3,663.7z M1198.4,622.8
			c-10.4,0-16.1,8.4-16.1,19.1c0,10.9,5.7,19.3,16.1,19.3s16.1-8.4,16.1-19.3C1214.5,631.2,1208.8,622.8,1198.4,622.8z"/>
		<path id="XMLID_1209_" class="st2" d="M1277.8,641.6c5.7,1.5,9.5,6.2,9.5,13.2c0,10.3-7.2,15.7-20.2,15.7h-31.5v-57h30.5
			c11.5,0,18,5.5,18,14.4c0,5-2.8,9.3-6.4,11.1L1277.8,641.6L1277.8,641.6z M1248.1,623.1v13.4h15.3c5.5,0,8.1-2.8,8.1-6.7
			c0-4.5-2.7-6.7-8.1-6.7H1248.1L1248.1,623.1z M1264.8,660.9c6.5,0,9.7-2.5,9.7-7.5s-3.2-7.6-9.7-7.6h-16.7v15.1H1264.8z"/>
		<path id="XMLID_1213_" class="st2" d="M1300.5,670.5h-6.6v-15h14.4V673l-7.4,12h-7.8l7.4-12V670.5z"/>
	</g>
	<g id="XMLID_1254_">
		<path id="XMLID_1215_" class="st2" d="M451.1,788.3L439,764.4h-14.7v23.8h-12.7v-57h12.7v22.4h14.9l11.4-22.4h13l-14,27.4
			l14.8,29.6L451.1,788.3L451.1,788.3z"/>
		<path id="XMLID_1217_" class="st2" d="M516.4,781.5c-5.2,5.5-12.1,8.3-20.9,8.3s-15.8-2.8-21-8.3c-5.2-5.6-7.7-12.9-7.7-21.7
			s2.6-16,7.7-21.5c5.3-5.6,12.2-8.4,21-8.4s15.8,2.8,20.9,8.4c5.3,5.5,7.8,12.7,7.8,21.5C524.2,768.6,521.6,775.9,516.4,781.5z
			 M495.4,740.6c-10.4,0-16.1,8.4-16.1,19.1c0,10.9,5.7,19.3,16.1,19.3s16.1-8.4,16.1-19.3C511.6,749,505.8,740.6,495.4,740.6z"/>
		<path id="XMLID_1220_" class="st2" d="M526.2,742v-10.7h51.1V742h-19.1v46.2h-12.7V742H526.2z"/>
		<path id="XMLID_1222_" class="st2" d="M629.6,781.5c-5.2,5.5-12.1,8.3-20.9,8.3c-8.8,0-15.8-2.8-21-8.3
			c-5.2-5.6-7.7-12.9-7.7-21.7s2.6-16,7.7-21.5c5.3-5.6,12.2-8.4,21-8.4c8.8,0,15.8,2.8,20.9,8.4c5.3,5.5,7.8,12.7,7.8,21.5
			C637.4,768.6,634.8,775.9,629.6,781.5z M608.6,740.6c-10.4,0-16.1,8.4-16.1,19.1c0,10.9,5.7,19.3,16.1,19.3
			c10.4,0,16.1-8.4,16.1-19.3C624.8,749,619,740.6,608.6,740.6z"/>
		<path id="XMLID_1225_" class="st2" d="M645.9,731.3h12.2v5.5h2.7c3.7-4.6,9.3-6.9,16.8-6.9s13.5,2.8,17.9,8.4
			c4.5,5.6,6.7,12.8,6.7,21.5c0,8.8-2.2,16-6.7,21.6c-4.4,5.6-10.4,8.4-17.9,8.4c-7.4,0-12.9-2.4-16.3-6.9h-2.7v27.9h-12.7V731.3z
			 M658.2,759.7c0,10.9,5.4,19.3,15.8,19.3c10,0,15.6-7.7,15.6-19.3c0-11.5-5.6-19.1-15.6-19.1C663.6,740.6,658.2,748.9,658.2,759.7
			z"/>
		<path id="XMLID_1228_" class="st2" d="M728,810.7h-12.9l11.8-28l-24.2-51.4H716l15.9,34.4h2.9l14.4-34.4h13L728,810.7z"/>
		<path id="XMLID_1230_" class="st2" d="M839.8,738.3c5.3,5.6,7.8,12.8,7.8,21.4c0,8.7-2.6,15.9-7.8,21.6c-5.2,5.6-12,8.4-20.6,8.4
			c-7.7,0-14.1-2.4-19.1-6.9c-5-4.7-7.9-10.9-8.8-18.5h-11.6v24h-12.4v-57h12.4v22.3h12c1.1-7.1,4.1-12.8,9.1-17.1
			c4.9-4.4,11.1-6.6,18.6-6.6C827.9,729.8,834.7,732.6,839.8,738.3z M835,759.7c0-10.7-5.5-19.1-15.8-19.1s-15.9,8.4-15.9,19.1
			c0,11.1,5.5,19.3,15.9,19.3C829.5,779,835,770.6,835,759.7z"/>
		<path id="XMLID_1235_" class="st2" d="M875.6,788.3v-12h2c7.7,0,10.9-5.4,10.9-21.9v-23.1h46.1v57h-12.7V742h-21.8v12.7
			c0,12.3-1.8,21-5.4,26.1c-3.5,5-9.2,7.5-17.1,7.5H875.6z"/>
		<path id="XMLID_1237_" class="st2" d="M1019.1,738.3c5.3,5.6,7.8,12.8,7.8,21.4c0,8.7-2.6,15.9-7.8,21.6c-5.2,5.6-12,8.4-20.6,8.4
			c-7.7,0-14.1-2.4-19.1-6.9c-5-4.7-7.9-10.9-8.8-18.5H959v24h-12.4v-57H959v22.3h12c1.1-7.1,4.1-12.8,9.1-17.1s11.1-6.6,18.6-6.6
			C1007.1,729.8,1014,732.6,1019.1,738.3z M1014.3,759.7c0-10.7-5.5-19.1-15.8-19.1s-15.9,8.4-15.9,19.1c0,11.1,5.5,19.3,15.9,19.3
			C1008.8,779,1014.3,770.6,1014.3,759.7z"/>
		<path id="XMLID_1240_" class="st2" d="M1082.7,740.6c4.9,5.4,7.4,12.2,7.4,20.6c0,8.3-2.7,15.1-7.9,20.5
			c-5.3,5.4-12.2,8.1-20.9,8.1c-18.4,0-29.1-12.4-29.1-34.8c0-10.4,0.9-18.1,3.9-26.3c3.1-8.2,9.3-13.5,18.6-15l14.9-2.5
			c4.4-0.8,5.5-1.2,5.6-4.3h10.8c-0.3,7.7-2.8,12.7-11.4,14.1l-18.1,2.9c-8.6,1.3-12.3,6.7-14,16.5h2.7c4-5.3,10.1-7.8,18-7.8
			C1071.3,732.5,1077.9,735.2,1082.7,740.6z M1073.1,773.7c2.8-3.5,4.1-7.8,4.1-12.9c0-10.2-5.7-17.9-16.1-17.9
			c-10.6,0-16.2,7.7-16.2,17.9c0,5,1.3,9.4,4.1,12.9c2.8,3.5,6.8,5.3,12.1,5.3C1066.4,779,1070.3,777.2,1073.1,773.7z"/>
		<path id="XMLID_1243_" class="st2" d="M1147,731.3v57h-12.7v-20.7h-13.4c-1.8,0-3.1,0-4-0.1l-7.9,20.8h-12.8l9.2-23.5
			c-5.7-3-8.6-8.2-8.6-15.2c0-11.3,7.8-18.2,21.6-18.2L1147,731.3L1147,731.3z M1134.3,757.7v-16.1h-15c-6.7,0-10.1,2.7-10.1,8.1
			s3.4,8.1,10.1,8.1L1134.3,757.7L1134.3,757.7z"/>
		<path id="XMLID_1246_" class="st2" d="M1153.4,742v-10.7h51.1V742h-19.1v46.2h-12.7V742H1153.4z"/>
		<path id="XMLID_1251_" class="st2" d="M1217.5,788.3h-14.4v-15h14.4V788.3z"/>
	</g>
</g>
<g id="XMLID_1340_">
	<path id="XMLID_1341_" class="st3" d="M430,235.4l-2.1-6.7h-9.5l-2.1,6.7h-3.9l7.7-23.2h6.2l7.7,23.2
		C434,235.4,430,235.4,430,235.4z M422.3,216l-2.9,9.3h7.3l-3-9.3H422.3z"/>
	<path id="XMLID_1344_" class="st3" d="M445.8,218.8v3.4h-1.5c-3.3,0-5.2,1.9-5.2,5.4v7.7h-3.7v-16.5h3.5v1.9h0.8
		c0.9-1.3,2.5-1.9,4.6-1.9H445.8z"/>
	<path id="XMLID_1346_" class="st3" d="M453.4,218.8h3.9v3.2h-3.9v8c0,1.5,0.8,2.2,2.5,2.2h1.4v3.2h-1.4c-4,0-6.1-1.3-6.1-4.9V222
		h-2.6v-3.1h2.6V214h3.7v4.8H453.4z"/>
	<path id="XMLID_1348_" class="st3" d="M473.3,233.4c-1.5,1.6-3.5,2.4-6.1,2.4s-4.6-0.8-6.1-2.4c-1.5-1.6-2.2-3.7-2.2-6.3
		s0.7-4.6,2.2-6.2c1.5-1.6,3.5-2.4,6.1-2.4s4.6,0.8,6.1,2.4c1.5,1.6,2.3,3.7,2.3,6.2S474.8,231.8,473.3,233.4z M467.2,221.5
		c-3,0-4.7,2.4-4.7,5.6c0,3.2,1.7,5.6,4.7,5.6s4.7-2.4,4.7-5.6C471.9,224,470.2,221.5,467.2,221.5z"/>
	<path id="XMLID_1351_" class="st3" d="M487.3,223.3c-0.2-1.2-1.3-1.8-3.3-1.8s-3,0.6-3,1.7c0,1,0.6,1.4,2.1,1.7l3.2,0.5
		c3.3,0.6,5,2.2,5,5.1c0,1.5-0.6,2.7-1.9,3.8c-1.2,1-3,1.5-5.2,1.5c-4.7,0-7.2-2-7.6-5.4h3.7c0.3,1.6,1.6,2.4,3.8,2.4
		c2.3,0,3.5-0.7,3.5-2.1c0-1.3-0.8-1.9-2.7-2.2l-3.4-0.6c-2.6-0.4-4.2-1.9-4.2-4.4c0-3,2.3-5,6.8-5c3.9,0,6.4,1.9,6.8,4.8H487.3z"/>
	<path id="XMLID_1353_" class="st3" d="M514.2,218.3c-0.5-2.1-2.1-3.1-4.9-3.1c-2.6,0-4.5,1.1-4.5,3.2c0,1.7,1.3,2.4,3.4,2.9
		l2.1,0.4l2.2,0.4c4.1,0.9,6.1,3.1,6.1,6.7c0,2-0.8,3.7-2.4,5.1c-1.6,1.4-3.8,2-6.7,2c-2.8,0-5-0.6-6.7-2c-1.7-1.3-2.7-3.1-2.9-5.2
		h4c0.4,2.5,2.4,3.8,5.8,3.8c3,0,5-1.3,5-3.5c0-2-1.2-2.9-3.5-3.4c-0.3-0.1-1.1-0.3-2.5-0.5c-1.3-0.3-2-0.4-2-0.4
		c-3.7-0.7-5.8-2.7-5.8-6.1c0-1.9,0.7-3.5,2.2-4.8s3.6-1.9,6.2-1.9c4.9,0,8.3,2.5,8.8,6.5L514.2,218.3L514.2,218.3z"/>
	<path id="XMLID_1355_" class="st3" d="M531.8,235.4v-1.5H531c-1,1.3-2.6,2-4.9,2c-1.8,0-3.2-0.5-4.3-1.6c-1.1-1.1-1.6-2.3-1.6-3.9
		c0-1.5,0.6-2.8,1.6-3.9c1.1-1.1,2.7-1.7,4.9-1.7h4.9v-0.5c0-1.9-1.1-3-3.5-3c-2,0-3.2,0.7-3.3,2.1h-3.6c0.2-3.1,2.9-5,6.8-5
		c4.5,0,7.2,2,7.2,6v11H531.8z M530.4,231.6c0.8-0.8,1.3-1.8,1.3-2.9v-1.3h-4.2c-2.3,0-3.5,1-3.5,2.7s1.2,2.7,3.3,2.7
		C528.5,232.8,529.6,232.4,530.4,231.6z"/>
	<path id="XMLID_2504_" class="st3" d="M553.7,235.4H550v-9.6c0-2.7-1.2-4.1-3.7-4.1c-1.3,0-2.3,0.5-3.1,1.4
		c-0.8,0.9-1.2,2.1-1.2,3.4v8.8h-3.7v-16.5h3.5v1.6h0.8c1-1.3,2.6-2,4.8-2c4,0,6.2,2.5,6.2,6.6v10.4H553.7z"/>
	<path id="XMLID_2506_" class="st3" d="M566.2,223.3c-0.2-1.2-1.3-1.8-3.3-1.8s-3,0.6-3,1.7c0,1,0.6,1.4,2.1,1.7l3.2,0.5
		c3.3,0.6,5,2.2,5,5.1c0,1.5-0.6,2.7-1.9,3.8c-1.2,1-3,1.5-5.2,1.5c-4.7,0-7.2-2-7.6-5.4h3.7c0.3,1.6,1.6,2.4,3.8,2.4
		c2.3,0,3.5-0.7,3.5-2.1c0-1.3-0.8-1.9-2.7-2.2l-3.4-0.6c-2.6-0.4-4.2-1.9-4.2-4.4c0-3,2.3-5,6.8-5c3.9,0,6.4,1.9,6.8,4.8H566.2z"/>
	<path id="XMLID_2508_" class="st3" d="M414.5,272.9v-23.2h6.2l4.8,10.1h0.8l4.7-10.1h6.2v23.2h-3.7v-18.6h-0.8l-4.9,10.2h-4
		l-4.9-10.2h-0.8v18.6H414.5z"/>
	<path id="XMLID_2510_" class="st3" d="M455.8,264.9h-12.2c0.1,3.5,1.7,5.3,4.6,5.3c1.9,0,3.1-0.7,3.6-2.1h3.7
		c-0.6,3.2-3.2,5.2-7.4,5.2c-2.6,0-4.6-0.8-6-2.4c-1.4-1.6-2.2-3.7-2.2-6.4c0-2.6,0.7-4.7,2.2-6.2c1.5-1.6,3.5-2.3,6-2.3
		c2.4,0,4.3,0.7,5.6,2.2c1.4,1.5,2.1,3.3,2.1,5.6L455.8,264.9L455.8,264.9z M443.8,262.2h8.3c-0.3-2-1.7-3.3-4-3.3
		C445.6,258.8,444.2,260.1,443.8,262.2z"/>
	<path id="XMLID_2514_" class="st3" d="M469.2,257.9h0.8v-8.7h3.7v23.6h-3.5v-1.6h-0.8c-1.1,1.3-2.7,2-4.9,2s-3.9-0.8-5.2-2.4
		c-1.3-1.6-1.9-3.7-1.9-6.3c0-2.5,0.7-4.6,1.9-6.2c1.3-1.6,3.1-2.4,5.2-2.4S468.2,256.6,469.2,257.9z M470.1,264.6
		c0-3.2-1.6-5.6-4.6-5.6c-2.9,0-4.5,2.2-4.5,5.6c0,3.3,1.6,5.6,4.5,5.6C468.5,270.2,470.1,267.7,470.1,264.6z"/>
	<path id="XMLID_2557_" class="st3" d="M480.8,252.8H477v-3.5h3.8V252.8z M480.8,256.3v16.5h-3.7v-16.5H480.8z"/>
	<path id="XMLID_2560_" class="st3" d="M484.1,256.3h3.7v9.6c0,2.7,1.2,4.1,3.7,4.1c1.3,0,2.3-0.5,3.1-1.4c0.8-0.9,1.2-2.1,1.2-3.4
		v-8.8h3.7v16.5H496v-1.6h-1c-1,1.3-2.6,2-4.8,2c-4,0-6.2-2.5-6.2-6.6v-10.4H484.1z"/>
	<path id="XMLID_2562_" class="st3" d="M526.5,262.3v10.6h-3.7V263c0-2.5-0.9-3.7-2.8-3.7c-2.2,0-3.5,1.8-3.5,4.3v9.4h-3.7v-10
		c0-2.5-0.9-3.8-2.8-3.8c-2.3,0-3.5,2-3.5,4.7v9h-3.7v-16.5h3.5v1.5h0.8c0.8-1.3,2.2-1.9,4.2-1.9s3.4,0.7,4.3,2h0.8
		c1-1.3,2.5-2,4.6-2C524.7,255.9,526.5,258.3,526.5,262.3z"/>
	<path id="XMLID_2564_" class="st3" d="M428.3,291.7l-9.5,18.7h-4l9.5-18.7v-0.8h-11.1v-3.3h15v4.1H428.3z"/>
	<path id="XMLID_2566_" class="st3" d="M429.9,294.2c0.3-4.6,3.3-7,8-7c2.3,0,4.1,0.6,5.5,1.9c1.4,1.2,2.1,3,2.1,5.2
		c0,2.7-1.5,5.3-4.6,7.7l-5.3,4.3v0.8h10.5v3.3H430v-4.1l8.2-6.4c2.2-1.7,3.6-3.4,3.6-5.6c0-2.4-1.5-3.8-3.9-3.8
		c-2.3,0-3.8,1.2-4.1,3.6h-3.9V294.2z"/>
	<path id="XMLID_2582_" class="st3" d="M448.5,293.8h3.5v1.6h0.8c1.1-1.3,2.7-2,4.9-2s3.9,0.8,5.2,2.4c1.3,1.6,2,3.7,2,6.2
		c0,2.6-0.7,4.6-2,6.3c-1.3,1.6-3,2.4-5.2,2.4c-2.1,0-3.7-0.7-4.7-2h-0.8v8.1h-3.7L448.5,293.8L448.5,293.8z M452.1,302.1
		c0,3.2,1.6,5.6,4.6,5.6c2.9,0,4.5-2.2,4.5-5.6c0-3.3-1.6-5.6-4.5-5.6C453.7,296.5,452.1,298.9,452.1,302.1z"/>
	<path id="XMLID_2589_" class="st3" d="M478.1,310.4l-3.6-6.5h-1.2l-3.7,6.5h-3.9l4.9-8.5l-4.5-8.1h3.9l3.3,6.1h1.2l3.4-6.1h3.8
		l-4.5,8l4.9,8.6H478.1z"/>
</g>
</svg>
