<?xml version="1.0" encoding="utf-8"?>
<!-- Generator: Adobe Illustrator 19.0.0, SVG Export Plug-In . SVG Version: 6.00 Build 0)  -->
<svg version="1.1" id="Layer_1" xmlns="http://www.w3.org/2000/svg" xmlns:xlink="http://www.w3.org/1999/xlink" x="0px" y="0px"
	 viewBox="0 0 1500 1000" style="enable-background:new 0 0 1500 1000;" xml:space="preserve">
<style type="text/css">
	.st0{fill:#36AFA7;}
	.st1{fill:#FFFFFF;}
</style>
<g>
	<g id="XMLID_3_">
		<g>
			<path class="st0" d="M19,138.6H3.4L49.5,3.5h27.1L123,138.6h-16l-14-42H33.1L19,138.6z M37.5,82.8h50.9l-21-63.6h-8.8L37.5,82.8z
				"/>
			<path class="st0" d="M219.5,58.4c5.7,1.2,18.2,3.7,25,5.2c20,4.6,33.3,15,33.3,38.2c0,21.2-16.5,40.3-50,40.3
				c-30.2,0-50.5-16.4-53-39.3h15.6c3.5,18.9,20.1,25.3,38.2,25.3c18.6,0,33.7-9.1,33.7-25.9c0-15.6-10.3-21.6-23.4-24.7
				c-6.7-1.6-19.7-4.1-26.2-5.6c-19.3-4-32-14.6-32-34.3c0-21,16.7-37.6,46.3-37.6c26.7,0,44.2,14.4,47.7,35.6H259
				c-3.5-14-13.2-21.6-32.4-21.6c-16.1,0-30.3,7.7-30.3,23.2C196.2,51.4,208.4,56.1,219.5,58.4z"/>
			<path class="st0" d="M310.5,67.1h-14.4c1.8-16.9,16.4-26.8,36.3-26.8c23.2,0,38.1,11.6,38.1,33.2v66.1h-13.4v-10.2h-5.6l-0.3,0.4
				c-5.6,7.2-15.2,12.3-28,12.3c-21.2,0-33.2-14.8-33.2-31.1c0-15.4,9.7-31.7,35.4-31.7h31.2v-4.9c0-12.5-7.3-21.5-23.8-21.5
				C319.3,52.8,311.8,58.3,310.5,67.1z M356.5,100.4v-9.8h-28.9c-15.4,0-23.4,7.3-23.4,19.4c0,11.6,8.7,18.8,22.6,18.8
				C342.6,128.8,356.5,116.4,356.5,100.4z"/>
			<path class="st0" d="M474.9,137.7h-14.4v-57c0-18.2-8.7-27.6-24.8-27.6c-17.2,0-28.6,15.7-28.6,33.2v51.5h-14.4V42.8h13.8v10.4
				h5.4l0.3-0.4c4.9-7.2,15-12.5,27.2-12.5c22.8,0,35.4,14.1,35.4,36.9V137.7z"/>
			<path class="st0" d="M522.3,80c6.3,1.2,12.7,2.3,19,3.3c16.4,2.9,26.6,11.3,26.6,28.8c0,15.6-13,29.9-37.9,29.9
				c-25.6,0-38.4-11.5-40.9-29.2h14.6c2,11.3,11.9,16.6,25.5,16.6c13.9,0,24.2-5.4,24.2-17c0-9.2-6-14.2-17.9-16.4l-20.5-3.7
				c-13.4-2.5-22.3-9.6-22.3-23.9c0-15.8,11.5-28.2,36.3-28.2c21.1,0,33.7,10.2,36.2,26.2h-14.4c-1.9-9.6-11.3-13.7-22.5-13.7
				c-11.9,0-20.9,4.8-20.9,14.1C507.4,75.3,512.9,78.5,522.3,80z"/>
		</g>
		<g>
			<path class="st0" d="M86.3,247.2l-0.8,0.4l21.7,61.6H91.4l-20.1-58.1c-3.7,0.4-7.7,0.7-11.4,0.7H20.1v57.4H4.7V174h58.5
				c27.9,0,43.4,14.4,43.4,39C106.7,229.6,99.8,241.3,86.3,247.2z M60.8,238.3c21.7,0,30.3-9.6,30.3-25.3c0-15.9-8.6-25.5-30.3-25.5
				H20.1v50.9H60.8z"/>
			<path class="st0" d="M135.8,260.6l0,1c0.6,23.8,11.2,38.5,30.8,38.5c13,0,21.2-5.8,24.4-15.3h14.6c-3.4,15.8-16.8,27.8-39.1,27.8
				c-28.5,0-45-21.9-45-51.9c0-29.9,16.9-49.9,44.7-49.9c27.3,0,40.8,21.1,41.4,45v4.7H135.8z M136.8,247.8l-0.2,1.1h56.1l-0.1-1
				c-1-12.8-10.7-23.7-26.7-23.7C148.8,224.1,139,235.1,136.8,247.8z"/>
			<path class="st0" d="M308.1,305.7c0,27-16.3,44.2-43.1,44.2c-23.2,0-38.6-9.8-41.8-27.6h14.3c3.3,11.6,13.5,15.7,27.4,15.7
				c19.8,0,28.9-12.9,28.9-32.9v-8.8h-5.5c-5,6.8-13.4,13.1-27.5,13.1c-25.4,0-41.4-20.8-41.4-49.1c0-28.5,16-49.3,41.4-49.3
				c14.7,0,23.1,6.3,28.1,13h5.5v-10.5h13.8V305.7z M294.1,260.4c0-18.9-9.7-36.3-30.4-36.3c-18.9,0-29.9,14.6-29.9,36.3
				c0,21.3,11,36.1,29.9,36.1C284.4,296.5,294.1,279.1,294.1,260.4z"/>
			<path class="st0" d="M344.7,272.3c0,18.2,8.7,27.6,24.7,27.6c16.8,0,28.7-15.3,28.7-33.2v-51.5h14.4v94.8h-13.8v-10.4H393
				l-0.3,0.4c-5.1,7.2-15,12.5-27.1,12.5c-22.6,0-35.3-14.1-35.3-36.9v-60.5h14.4V272.3z"/>
			<path class="st0" d="M450.7,308.2h-14.4V170.6h14.4V308.2z"/>
			<path class="st0" d="M487.7,237.7h-14.4c1.8-16.9,16.4-26.8,36.3-26.8c23.2,0,38.1,11.6,38.1,33.2v66.1h-13.4V300h-5.6l-0.3,0.4
				c-5.6,7.2-15.2,12.3-28,12.3c-21.2,0-33.2-14.8-33.2-31.1c0-15.4,9.7-31.7,35.4-31.7h31.2v-4.9c0-12.5-7.3-21.5-23.8-21.5
				C496.5,223.4,488.9,228.9,487.7,237.7z M533.7,271v-9.8h-28.9c-15.4,0-23.4,7.3-23.4,19.4c0,11.6,8.7,18.8,22.6,18.8
				C519.8,299.4,533.7,286.9,533.7,271z"/>
			<path class="st0" d="M616.2,227.8c-19.7,0-31.9,12.2-31.9,34v47.4H570v-94.8h13.8v11.5h5.6c4.8-5.9,13.5-11.5,27.6-11.5h6.3v13.4
				H616.2z"/>
		</g>
	</g>
	<g>
		<path class="st1" d="M850.3,264.6v13.1h-18.4v31.5h-14.2v-31.5h-64.9v-17.9l57.6-83.1h21.5v87.9H850.3z M817.8,264.6v-70.8h-5.5
			l-43.8,65.4v0.3v5.2H817.8z"/>
		<path class="st1" d="M956.8,242.9c0,48.1-20.8,68.7-47.6,68.7c-26.8,0-47.4-20.6-47.4-68.7c0-48.1,20.6-68.9,47.4-68.9
			C936,174,956.8,194.8,956.8,242.9z M941.8,242.9c0-33.4-10.2-55.9-32.6-55.9c-22.3,0-32.5,22.4-32.5,55.9
			c0,33.3,10.2,55.7,32.5,55.7C931.7,298.6,941.8,276.2,941.8,242.9z"/>
		<path class="st1" d="M1065.3,242.9c0,48.1-20.8,68.7-47.6,68.7c-26.8,0-47.4-20.6-47.4-68.7c0-48.1,20.6-68.9,47.4-68.9
			C1044.5,174,1065.3,194.8,1065.3,242.9z M1050.3,242.9c0-33.4-10.2-55.9-32.6-55.9c-22.3,0-32.5,22.4-32.5,55.9
			c0,33.3,10.2,55.7,32.5,55.7C1040.2,298.6,1050.3,276.2,1050.3,242.9z"/>
	</g>
	<g>
		<g>
			<path class="st1" d="M10.6,493.4c3.2,0,5.4-1.7,6.2-4.5h2.8c-1,4.1-4.1,6.9-9,6.9c-6.7,0-10.5-5.2-10.5-12.2s3.9-12.2,10.5-12.2
				c4.5,0,7.7,2.4,8.7,6.3h-2.8c-0.9-2.5-2.7-3.9-5.9-3.9c-5.4,0-7.9,4.7-7.9,9.8C2.8,488.8,5.2,493.4,10.6,493.4z"/>
			<path class="st1" d="M38.6,487.1c0,4.9-2.9,8.7-7.8,8.7c-4.9,0-7.8-3.8-7.8-8.7s2.9-8.7,7.8-8.7
				C35.7,478.4,38.6,482.2,38.6,487.1z M36.2,487.1c0-3.3-1.7-6.5-5.4-6.5c-3.7,0-5.4,3.1-5.4,6.5s1.7,6.5,5.4,6.5
				C34.4,493.6,36.2,490.4,36.2,487.1z"/>
			<path class="st1" d="M57.8,487.4c0,4.7-3,8.4-7.9,8.4c-5,0-7.9-3.5-7.9-10c0-5.7,0.8-11.4,6.3-12.3l4.2-0.7
				c1-0.1,1.5-0.3,1.7-1.3h2.3c-0.1,1.7-0.7,2.9-3.1,3.4l-4.9,0.9c-2.9,0.6-4,2.8-4.3,5.6l0,0.2h1l0-0.1c1.4-1.8,2.8-2.4,5.1-2.4
				C55,479.1,57.8,482.7,57.8,487.4z M55.3,487.4c0-3.1-1.7-6.2-5.4-6.2c-3.6,0-5.4,3-5.4,6.2c0,3.1,1.7,6.2,5.4,6.2
				C53.5,493.6,55.3,490.5,55.3,487.4z"/>
			<path class="st1" d="M68.9,493.7c2.3,0,3.7-1.2,4.2-3.1h2.5c-0.7,3.1-3.1,5.2-6.6,5.2c-4.9,0-7.7-3.8-7.7-8.7
				c0-5,2.8-8.7,7.7-8.7c3.7,0,5.9,2.1,6.5,5h-2.5c-0.6-1.7-1.9-2.9-4.1-2.9c-3.7,0-5.2,3.1-5.2,6.5
				C63.6,490.5,65.2,493.7,68.9,493.7z"/>
			<path class="st1" d="M91.6,479v2.1H86v14.2h-2.3v-14.2H78V479H91.6z"/>
			<path class="st1" d="M106.5,487.2c1.5,0.4,2.6,1.6,2.6,3.7c0,2.9-2,4.4-5.6,4.4h-8.1V479h7.8c3.2,0,5,1.5,5,4
				c0,1.6-0.8,2.6-1.7,3.1l-0.1,0v1L106.5,487.2z M97.8,485.9h5.2c2,0,2.7-1.1,2.7-2.4c0-1.4-0.8-2.4-2.7-2.4h-5.2V485.9z
				 M103.3,493.2c2.4,0,3.3-1.1,3.3-2.6s-0.9-2.7-3.3-2.7h-5.5v5.3H103.3z"/>
			<path class="st1" d="M114.8,486.9l0,0.2c0.1,4.1,1.9,6.6,5.3,6.6c2.2,0,3.6-1,4.2-2.6h2.5c-0.6,2.7-2.9,4.8-6.7,4.8
				c-4.9,0-7.7-3.8-7.7-8.9c0-5.1,2.9-8.6,7.7-8.6c4.7,0,7,3.6,7.1,7.7v0.8H114.8z M115,484.7l0,0.2h9.6l0-0.2
				c-0.2-2.2-1.8-4.1-4.6-4.1C117,480.7,115.3,482.5,115,484.7z"/>
			<path class="st1" d="M145.6,495.3h-2.5v-7.3h-9.2v7.3h-2.5V479h2.5v6.8h9.2V479h2.5V495.3z"/>
			<path class="st1" d="M165.1,495.3h-2.5v-7.3h-9.2v7.3H151V479h2.5v6.8h9.2V479h2.5V495.3z"/>
			<path class="st1" d="M185.1,487.1c0,4.9-2.9,8.7-7.8,8.7c-4.9,0-7.8-3.8-7.8-8.7s2.9-8.7,7.8-8.7
				C182.2,478.4,185.1,482.2,185.1,487.1z M182.7,487.1c0-3.3-1.7-6.5-5.4-6.5c-3.7,0-5.4,3.1-5.4,6.5s1.7,6.5,5.4,6.5
				C180.9,493.6,182.7,490.4,182.7,487.1z"/>
			<path class="st1" d="M190.9,486.9l0,0.2c0.1,4.1,1.9,6.6,5.3,6.6c2.2,0,3.6-1,4.2-2.6h2.5c-0.6,2.7-2.9,4.8-6.7,4.8
				c-4.9,0-7.7-3.8-7.7-8.9c0-5.1,2.9-8.6,7.7-8.6c4.7,0,7,3.6,7.1,7.7v0.8H190.9z M191.1,484.7l0,0.2h9.6l0-0.2
				c-0.2-2.2-1.8-4.1-4.6-4.1C193.2,480.7,191.5,482.5,191.1,484.7z"/>
			<path class="st1" d="M237.3,495.3h-20.6V479h2.4v14.2h6.7V479h2.3v14.2h6.7V479h2.4V495.3z"/>
			<path class="st1" d="M253.8,487.2c1.5,0.4,2.6,1.6,2.6,3.7c0,2.9-2,4.4-5.6,4.4h-8.1V479h7.8c3.2,0,5,1.5,5,4
				c0,1.6-0.8,2.6-1.7,3.1l-0.1,0v1L253.8,487.2z M245.1,485.9h5.2c2,0,2.7-1.1,2.7-2.4c0-1.4-0.8-2.4-2.7-2.4h-5.2V485.9z
				 M250.7,493.2c2.4,0,3.3-1.1,3.3-2.6s-0.9-2.7-3.3-2.7h-5.5v5.3H250.7z"/>
			<path class="st1" d="M262.2,486.9l0,0.2c0.1,4.1,1.9,6.6,5.3,6.6c2.2,0,3.6-1,4.2-2.6h2.5c-0.6,2.7-2.9,4.8-6.7,4.8
				c-4.9,0-7.7-3.8-7.7-8.9c0-5.1,2.9-8.6,7.7-8.6c4.7,0,7,3.6,7.1,7.7v0.8H262.2z M262.3,484.7l0,0.2h9.6l0-0.2
				c-0.2-2.2-1.8-4.1-4.6-4.1C264.4,480.7,262.7,482.5,262.3,484.7z"/>
			<path class="st1" d="M289.6,482.4l-7.1,12.8h-3.7V479h2.4v12.8h0.9h0.1l6.9-12.8h3.8v16.3h-2.4v-12.8H289.6L289.6,482.4z
				 M288.7,471.6h1.9c-0.2,2.9-1.9,4.5-4.8,4.5c-2.8,0-4.6-1.6-4.8-4.5h1.9c0.1,1.7,1,2.8,2.8,2.8
				C287.8,474.4,288.6,473.2,288.7,471.6z"/>
			<path class="st1" d="M312.5,495.3H310v-7.3h-9.2v7.3h-2.5V479h2.5v6.8h9.2V479h2.5V495.3z"/>
			<path class="st1" d="M332.5,487.1c0,4.9-2.9,8.7-7.8,8.7c-4.9,0-7.8-3.8-7.8-8.7s2.9-8.7,7.8-8.7
				C329.6,478.4,332.5,482.2,332.5,487.1z M330.1,487.1c0-3.3-1.7-6.5-5.4-6.5c-3.7,0-5.4,3.1-5.4,6.5s1.7,6.5,5.4,6.5
				C328.3,493.6,330.1,490.4,330.1,487.1z"/>
			<path class="st1" d="M338.3,486.9l0,0.2c0.1,4.1,1.9,6.6,5.3,6.6c2.2,0,3.6-1,4.2-2.6h2.5c-0.6,2.7-2.9,4.8-6.7,4.8
				c-4.9,0-7.7-3.8-7.7-8.9c0-5.1,2.9-8.6,7.7-8.6c4.7,0,7,3.6,7.1,7.7v0.8H338.3z M338.5,484.7l0,0.2h9.6l0-0.2
				c-0.2-2.2-1.8-4.1-4.6-4.1C340.6,480.7,338.9,482.5,338.5,484.7z"/>
			<path class="st1" d="M378.1,495.3h-2.5v-14.2h-9.1v14.2h-2.5V479h14V495.3z"/>
			<path class="st1" d="M385.9,480.6h0.9c0.9-1.2,2.4-2.2,4.9-2.2c4.3,0,7,3.8,7,8.7c0,5-2.6,8.7-7,8.7c-2.6,0-4-1-4.8-2.2H386v8.4
				h-2.5v-23.2h2.4V480.6z M386,487.1c0,3.3,1.5,6.5,5.2,6.5c3.3,0,5.1-2.7,5.1-6.5s-1.8-6.5-5.1-6.5
				C387.5,480.7,386,483.8,386,487.1z"/>
			<path class="st1" d="M417.8,487.1c0,4.9-2.9,8.7-7.8,8.7c-4.9,0-7.8-3.8-7.8-8.7s2.9-8.7,7.8-8.7
				C414.8,478.4,417.8,482.2,417.8,487.1z M415.3,487.1c0-3.3-1.7-6.5-5.4-6.5c-3.7,0-5.4,3.1-5.4,6.5s1.7,6.5,5.4,6.5
				C413.5,493.6,415.3,490.4,415.3,487.1z"/>
			<path class="st1" d="M432.9,482.4l-7.1,12.8h-3.7V479h2.4v12.8h0.9h0.1l6.9-12.8h3.8v16.3h-2.4v-12.8H432.9L432.9,482.4z"/>
			<path class="st1" d="M447.2,480.6c-2.2,0-3.5,0.8-4,2.6h-2.4c0.4-3,2.8-4.8,6.4-4.8c3.9,0,6,2.1,6,4.5c0,1.8-0.8,2.9-1.7,3.3
				l-0.1,0v1l0.1,0c1.1,0.3,2.3,1.4,2.3,3.7c0,2.7-2.3,4.9-6.6,4.9c-4.2,0-6.6-1.9-7.1-4.9h2.4c0.7,2.1,2.6,2.8,4.7,2.8
				c2.3,0,4.1-0.9,4.1-2.9c0-1.8-1-2.8-3.7-2.8h-2.6v-2.1h2.5c2.3,0,3.3-1.2,3.3-2.6C450.8,481.5,449.2,480.6,447.2,480.6z"/>
			<path class="st1" d="M469.5,487.2c1.5,0.4,2.6,1.6,2.6,3.7c0,2.9-2,4.4-5.6,4.4h-8.1V479h7.8c3.2,0,5,1.5,5,4
				c0,1.6-0.8,2.6-1.7,3.1l-0.1,0v1L469.5,487.2z M460.8,485.9h5.2c2,0,2.7-1.1,2.7-2.4c0-1.4-0.8-2.4-2.7-2.4h-5.2V485.9z
				 M466.3,493.2c2.4,0,3.3-1.1,3.3-2.6s-0.9-2.7-3.3-2.7h-5.5v5.3H466.3z"/>
			<path class="st1" d="M491.1,487.1c0,4.9-2.9,8.7-7.8,8.7c-4.9,0-7.8-3.8-7.8-8.7s2.9-8.7,7.8-8.7
				C488.2,478.4,491.1,482.2,491.1,487.1z M488.6,487.1c0-3.3-1.7-6.5-5.4-6.5c-3.7,0-5.4,3.1-5.4,6.5s1.7,6.5,5.4,6.5
				C486.9,493.6,488.6,490.4,488.6,487.1z"/>
			<path class="st1" d="M512.6,493.3v6.8h-2.4v-4.7h-14.4v4.7h-2.4v-6.8h2.1c1.1-2.3,2.1-5.6,2.1-9.8v-4.4h11.9v14.2H512.6z
				 M507.2,481.1h-7.2v2.3c0,4.2-0.8,7.3-1.7,9.5l-0.1,0.2h9.1V481.1z"/>
			<path class="st1" d="M523,493.7c2.3,0,3.7-1.2,4.2-3.1h2.5c-0.7,3.1-3.1,5.2-6.6,5.2c-4.9,0-7.7-3.8-7.7-8.7c0-5,2.8-8.7,7.7-8.7
				c3.7,0,5.9,2.1,6.5,5H527c-0.6-1.7-1.9-2.9-4.1-2.9c-3.7,0-5.2,3.1-5.2,6.5C517.7,490.5,519.3,493.7,523,493.7z"/>
			<path class="st1" d="M545.7,479v2.1h-5.6v14.2h-2.3v-14.2h-5.7V479H545.7z"/>
			<path class="st1" d="M560.6,487.2c1.5,0.4,2.6,1.6,2.6,3.7c0,2.9-2,4.4-5.6,4.4h-8.1V479h7.8c3.2,0,5,1.5,5,4
				c0,1.6-0.8,2.6-1.7,3.1l-0.1,0v1L560.6,487.2z M551.8,485.9h5.2c2,0,2.7-1.1,2.7-2.4c0-1.4-0.8-2.4-2.7-2.4h-5.2V485.9z
				 M557.4,493.2c2.4,0,3.3-1.1,3.3-2.6s-0.9-2.7-3.3-2.7h-5.5v5.3H557.4z"/>
			<path class="st1" d="M582.1,487.1c0,4.9-2.9,8.7-7.8,8.7c-4.9,0-7.8-3.8-7.8-8.7s2.9-8.7,7.8-8.7
				C579.2,478.4,582.1,482.2,582.1,487.1z M579.7,487.1c0-3.3-1.7-6.5-5.4-6.5c-3.7,0-5.4,3.1-5.4,6.5s1.7,6.5,5.4,6.5
				C577.9,493.6,579.7,490.4,579.7,487.1z"/>
			<path class="st1" d="M7.7,543.1c2.3,0,3.7-1.2,4.2-3.1h2.5c-0.7,3.1-3.1,5.2-6.6,5.2c-4.9,0-7.7-3.8-7.7-8.7c0-5,2.8-8.7,7.7-8.7
				c3.7,0,5.9,2.1,6.5,5h-2.5c-0.6-1.7-1.9-2.9-4.1-2.9c-3.7,0-5.2,3.1-5.2,6.5C2.5,539.9,4.1,543.1,7.7,543.1z"/>
			<path class="st1" d="M41.7,544.6h-2.5v-14.2h-9.1v14.2h-2.5v-16.3h14V544.6z"/>
			<path class="st1" d="M49.5,530h0.9c0.9-1.2,2.4-2.2,4.9-2.2c4.3,0,7,3.8,7,8.7c0,5-2.6,8.7-7,8.7c-2.6,0-4-1-4.8-2.2h-0.9v8.4
				h-2.5v-23.2h2.4V530z M49.5,536.5c0,3.3,1.5,6.5,5.2,6.5c3.3,0,5.1-2.7,5.1-6.5S58,530,54.7,530C51,530,49.5,533.2,49.5,536.5z"
				/>
			<path class="st1" d="M81.3,536.5c0,4.9-2.9,8.7-7.8,8.7c-4.9,0-7.8-3.8-7.8-8.7s2.9-8.7,7.8-8.7
				C78.4,527.8,81.3,531.6,81.3,536.5z M78.9,536.5c0-3.3-1.7-6.5-5.4-6.5c-3.7,0-5.4,3.1-5.4,6.5c0,3.3,1.7,6.5,5.4,6.5
				C77.1,542.9,78.9,539.8,78.9,536.5z"/>
			<path class="st1" d="M95.6,551.4h-2.4v-6.7c-0.2-0.1-0.4-0.1-0.7,0c-5.1,0-7.9-3.4-7.9-8.2c0-4.8,2.8-8.2,7.9-8.2
				c0.2,0.1,0.5,0.1,0.7,0v-7.4h2.4v7.4c0.2,0.1,0.4,0.1,0.7,0c5,0,7.9,3.4,7.9,8.2c0,5.1-3,8.2-8.4,8.2h-0.2V551.4z M92.6,542.6
				h0.7v-12.2h-0.7c-3.7,0-5.5,2.8-5.5,6.1C87.1,539.8,88.9,542.6,92.6,542.6z M96.3,542.6c3.7,0,5.5-2.8,5.5-6.1s-1.8-6.1-5.5-6.1
				h-0.6v12.2H96.3z"/>
			<path class="st1" d="M110,536.3l0,0.2c0.1,4.1,1.9,6.6,5.3,6.6c2.2,0,3.6-1,4.2-2.6h2.5c-0.6,2.7-2.9,4.8-6.7,4.8
				c-4.9,0-7.7-3.8-7.7-8.9c0-5.1,2.9-8.6,7.7-8.6c4.7,0,7,3.6,7.1,7.7v0.8H110z M110.2,534.1l0,0.2h9.6l0-0.2
				c-0.2-2.2-1.8-4.1-4.6-4.1C112.2,530,110.5,531.9,110.2,534.1z"/>
			<path class="st1" d="M133.3,543.1c2.3,0,3.7-1.2,4.2-3.1h2.5c-0.7,3.1-3.1,5.2-6.6,5.2c-4.9,0-7.7-3.8-7.7-8.7
				c0-5,2.8-8.7,7.7-8.7c3.7,0,5.9,2.1,6.5,5h-2.5c-0.6-1.7-1.9-2.9-4.1-2.9c-3.7,0-5.2,3.1-5.2,6.5
				C128.1,539.9,129.7,543.1,133.3,543.1z"/>
			<path class="st1" d="M150.9,543.1c2.3,0,3.7-1.2,4.2-3.1h2.5c-0.7,3.1-3.1,5.2-6.6,5.2c-4.9,0-7.7-3.8-7.7-8.7
				c0-5,2.8-8.7,7.7-8.7c3.7,0,5.9,2.1,6.5,5h-2.5c-0.6-1.7-1.9-2.9-4.1-2.9c-3.7,0-5.2,3.1-5.2,6.5
				C145.6,539.9,147.2,543.1,150.9,543.1z"/>
			<path class="st1" d="M172.5,531.8l-7.1,12.8h-3.7v-16.3h2.4v12.8h0.9h0.1l6.9-12.8h3.8v16.3h-2.4v-12.8H172.5L172.5,531.8z"/>
			<path class="st1" d="M195.9,536.5c0,4.9-2.9,8.7-7.8,8.7c-4.9,0-7.8-3.8-7.8-8.7s2.9-8.7,7.8-8.7
				C193,527.8,195.9,531.6,195.9,536.5z M193.5,536.5c0-3.3-1.7-6.5-5.4-6.5c-3.7,0-5.4,3.1-5.4,6.5c0,3.3,1.7,6.5,5.4,6.5
				C191.7,542.9,193.5,539.8,193.5,536.5z"/>
			<path class="st1" d="M214.4,544.6H212v-7.3h-9.2v7.3h-2.5v-16.3h2.5v6.8h9.2v-6.8h2.5V544.6z"/>
			<path class="st1" d="M222.1,532.4h-2.5c0.3-2.9,2.8-4.6,6.2-4.6c4,0,6.5,2,6.5,5.7v11.3h-2.3V543h-1l0,0.1
				c-1,1.2-2.6,2.1-4.8,2.1c-3.6,0-5.7-2.5-5.7-5.3c0-2.6,1.7-5.4,6.1-5.4h5.4v-0.8c0-2.1-1.2-3.7-4.1-3.7
				C223.6,529.9,222.3,530.9,222.1,532.4z M230,538.1v-1.7H225c-2.6,0-4,1.2-4,3.3c0,2,1.5,3.2,3.9,3.2
				C227.6,542.9,230,540.8,230,538.1z"/>
			<path class="st1" d="M236,542.3c2.4,0,3.4-1.8,3.4-7.7v-6.3h12v16.3H249v-14.2h-7.4v4.2c0,7.6-1.7,9.9-5.6,9.9h-0.4v-2.3H236z"/>
			<path class="st1" d="M264.2,544.6h-7.3v-16.3h2.5v5.5h4.9c3.9,0,6,2,6,5.3C270.1,542.6,268,544.6,264.2,544.6z M263.8,542.5
				c1.2,0,2.1-0.2,2.7-0.7c0.8-0.6,1.1-1.5,1.1-2.6c0-1.1-0.3-2-1.1-2.6c-0.6-0.5-1.5-0.7-2.7-0.7h-4.5v6.6H263.8z"/>
			<path class="st1" d="M288.2,544.6h-2.5v-7.3h-9.2v7.3h-2.5v-16.3h2.5v6.8h9.2v-6.8h2.5V544.6z"/>
			<path class="st1" d="M296.1,533.9h4.6c3.9,0,5.9,2,5.9,5.3c0,3.4-2,5.4-5.9,5.4h-7.1v-16.3h2.5V533.9z M296.1,542.5h4.3
				c1.3,0,2.2-0.2,2.8-0.7c0.8-0.6,1.1-1.5,1.1-2.6c0-1.1-0.3-2-1.1-2.6c-0.6-0.5-1.5-0.7-2.8-0.7h-4.3V542.5z M312.1,544.6h-2.5
				v-16.3h2.5V544.6z"/>
			<path class="st1" d="M321.6,528.4l3.9,7.6h0.1h0.7h0.1l3.9-7.6h4.1v16.3h-2.4v-13.3h-1l-3.7,7.1h-2.8l-3.7-7.1h-1v13.3h-2.4
				v-16.3H321.6z"/>
			<path class="st1" d="M350.7,531.8l-7.1,12.8h-3.7v-16.3h2.4v12.8h0.9h0.1l6.9-12.8h3.8v16.3h-2.4v-12.8H350.7L350.7,531.8z"/>
			<path class="st1" d="M375.3,543.1c2.3,0,3.7-1.2,4.2-3.1h2.5c-0.7,3.1-3.1,5.2-6.6,5.2c-4.9,0-7.7-3.8-7.7-8.7
				c0-5,2.8-8.7,7.7-8.7c3.7,0,5.9,2.1,6.5,5h-2.5c-0.6-1.7-1.9-2.9-4.1-2.9c-3.7,0-5.2,3.1-5.2,6.5
				C370.1,539.9,371.7,543.1,375.3,543.1z"/>
			<path class="st1" d="M400.8,536.5c0,4.9-2.9,8.7-7.8,8.7c-4.9,0-7.8-3.8-7.8-8.7s2.9-8.7,7.8-8.7
				C397.9,527.8,400.8,531.6,400.8,536.5z M398.3,536.5c0-3.3-1.7-6.5-5.4-6.5c-3.7,0-5.4,3.1-5.4,6.5c0,3.3,1.7,6.5,5.4,6.5
				C396.6,542.9,398.3,539.8,398.3,536.5z"/>
			<path class="st1" d="M416.8,528.4v2.1h-5.6v14.2h-2.3v-14.2h-5.7v-2.1H416.8z"/>
			<path class="st1" d="M422.8,530h0.9c0.9-1.2,2.4-2.2,4.9-2.2c4.3,0,7,3.8,7,8.7c0,5-2.6,8.7-7,8.7c-2.6,0-4-1-4.8-2.2h-0.9v8.4
				h-2.5v-23.2h2.4V530z M422.9,536.5c0,3.3,1.5,6.5,5.2,6.5c3.3,0,5.1-2.7,5.1-6.5s-1.8-6.5-5.1-6.5
				C424.4,530,422.9,533.2,422.9,536.5z"/>
			<path class="st1" d="M450.7,528.5h2.6l-9.6,22.8h-2.4l3.2-8l-6.9-14.9h2.6l4.9,10.9h1L450.7,528.5z"/>
			<path class="st1" d="M473.1,542.7v6.8h-2.4v-4.7h-14.4v4.7H454v-6.8h2.1c1.1-2.3,2.1-5.6,2.1-9.8v-4.4h11.9v14.2H473.1z
				 M467.6,530.5h-7.2v2.3c0,4.2-0.8,7.3-1.7,9.5l-0.1,0.2h9.1V530.5z"/>
			<path class="st1" d="M490.9,544.6h-2.5v-7.3h-9.2v7.3h-2.5v-16.3h2.5v6.8h9.2v-6.8h2.5V544.6z"/>
			<path class="st1" d="M507,531.8l-7.1,12.8h-3.7v-16.3h2.4v12.8h0.9h0.1l6.9-12.8h3.8v16.3H508v-12.8H507L507,531.8z"/>
			<path class="st1" d="M518.3,544.6h-2.5v-16.3h2.5v6.8h5.1l3.3-6.8h2.6l-4,7.8l4.2,8.4h-2.6l-3.6-7.3h-5V544.6z"/>
			<path class="st1" d="M535.8,532.4h-2.5c0.3-2.9,2.8-4.6,6.2-4.6c4,0,6.5,2,6.5,5.7v11.3h-2.3V543h-1l0,0.1
				c-1,1.2-2.6,2.1-4.8,2.1c-3.6,0-5.7-2.5-5.7-5.3c0-2.6,1.7-5.4,6.1-5.4h5.4v-0.8c0-2.1-1.2-3.7-4.1-3.7
				C537.3,529.9,536.1,530.9,535.8,532.4z M543.7,538.1v-1.7h-4.9c-2.6,0-4,1.2-4,3.3c0,2,1.5,3.2,3.9,3.2
				C541.3,542.9,543.7,540.8,543.7,538.1z"/>
			<path class="st1" d="M555.4,528.4l3.9,7.6h0.1h0.7h0.1l3.9-7.6h4.1v16.3h-2.4v-13.3h-1l-3.7,7.1h-2.8l-3.7-7.1h-1v13.3h-2.4
				v-16.3H555.4z"/>
			<path class="st1" d="M584.5,531.8l-7.1,12.8h-3.7v-16.3h2.4v12.8h0.9h0.1l6.9-12.8h3.8v16.3h-2.4v-12.8H584.5L584.5,531.8z"/>
			<path class="st1" d="M596.3,541.1v3.5h-3.1v-3.5H596.3z"/>
		</g>
	</g>
	<g>
		<path class="st1" d="M750.7,510.4h-4.4l13-38h7.6l13,38h-4.5l-3.9-11.8h-16.8L750.7,510.4z M755.9,494.7h14.3l-5.9-17.9h-2.5
			L755.9,494.7z"/>
		<path class="st1" d="M802,488.1c7.9,0,12.4,4.2,12.4,11.2c0,7-4.5,11.2-12.4,11.2h-15.9v-38h25.3v3.9h-21v11.8H802z M801.3,506.6
			c6.4,0,8.9-2.8,8.9-7.5c0-4.5-2.5-7.4-8.9-7.4h-10.8v14.9H801.3z"/>
		<path class="st1" d="M846.2,491.2c3.1,1.5,5.2,4.8,5.2,8.7c0,6-4.1,10.6-12.6,10.6h-16.6v-38h16.2c7.8,0,11.8,4.4,11.8,9.5
			c0,3.4-1.4,6.1-4.1,7.6l-0.1,0.1v1.5L846.2,491.2z M826.5,488.8h11.8c4.2,0,7.6-1.5,7.6-6.4c0-4.6-3.9-6.2-7.7-6.2h-11.7V488.8z
			 M838.5,506.6c4.3,0,8.5-1.6,8.5-7.2c0-5.2-4-7-8.5-7h-12v14.1H838.5z"/>
		<path class="st1" d="M863.3,510.4H859v-38h25.3v3.9h-21V510.4z"/>
		<path class="st1" d="M921.2,506.8v13.3H917v-9.5h-29.2v9.5h-4.3v-13.3h3.9c2.5-5.4,4.9-13.6,4.9-26.6v-7.5h23.4v34.1H921.2z
			 M911.5,476.3h-15.2v4.4c0,11.9-2.1,20.5-4.2,25.4l-0.2,0.4h19.5V476.3z"/>
		<path class="st1" d="M954.2,506.5v3.9h-26.6v-38h25.8v3.9h-21.4v12.5h17.2v3.9h-17.2v13.9H954.2z"/>
		<path class="st1" d="M988.3,506.5v3.9h-26.6v-38h25.8v3.9H966v12.5h17.2v3.9H966v13.9H988.3z M967.7,462.3h3.8v4.3h-3.8V462.3z
			 M977.2,462.3h3.8v4.3h-3.8V462.3z"/>
		<path class="st1" d="M1020.1,493v17.4h-4.2V493h-10.3l-7,17.4H994l8-19.3l-7.5-18.7h4.5l6.6,16.7h10.3v-16.7h4.2v16.7h10.3
			l6.6-16.7h4.5l-7.5,18.7l8,19.3h-4.5l-7.1-17.4H1020.1z"/>
		<path class="st1" d="M1062.3,475.4c-5.2,0-8,2.2-9,6.1h-4.4c1-6.2,5.9-10.1,13.4-10.1c8.4,0,12.8,4.7,12.8,10.1
			c0,4.3-1.8,6.5-3.9,7.7l-0.1,0.1v1.5l0.2,0.1c3,1.3,5.4,3.7,5.4,9.1c0,6-4.9,11.4-14,11.4c-9,0-14-4.3-15.3-10.9h4.5
			c1.3,4.7,5.2,7,10.8,7c5.6,0,9.5-2.8,9.5-7.6c0-4.3-2.5-7.3-8.8-7.3h-5.7v-3.9h5.8c5.4,0,7.3-3.1,7.3-6.5
			C1070.6,477.7,1066.9,475.4,1062.3,475.4z"/>
		<path class="st1" d="M1088.4,505.1h1.5h0.2l17.4-32.7h7.2v38h-4.2v-32.7h-1.6l-17.4,32.7h-7.2v-38h4.2V505.1z"/>
		<path class="st1" d="M1128.6,505.1h1.5h0.2l17.4-32.7h7.2v38h-4.2v-32.7h-1.6l-17.4,32.7h-7.2v-38h4.2V505.1z M1145.1,461.9h3.3
			c-0.3,5.1-3.9,7.8-8.9,7.8c-4.9,0-8.5-2.8-8.8-7.8h3.3c0.2,3,2.4,4.9,5.5,4.9C1142.7,466.7,1145,464.9,1145.1,461.9z"/>
		<path class="st1" d="M1168.9,472.4v16.5h11.8l7.5-16.5h4.5l-8.4,18.5l8.9,19.5h-4.5l-8-17.7h-11.8v17.7h-4.3v-38H1168.9z"/>
		<path class="st1" d="M1229.7,472.4v38h-4.3v-34.1h-16v10.9c0,8.4-0.7,14-2.1,17.5c-1.8,4.4-4.7,5.7-9.2,5.7h-0.8v-4.3h0.8
			c5.3,0,7.5-3.3,7.5-19.9v-13.9H1229.7z"/>
		<path class="st1" d="M1247.1,472.4l9.5,18.1h1.5l9.3-18.1h7.7v38h-4.2v-33h-1.6l-9.7,18.3h-4.6l-9.7-18.3h-1.6v33h-4.2v-38H1247.1
			z"/>
		<path class="st1" d="M1315.1,510.4h-4.3v-17.6h-21.5v17.6h-4.3v-38h4.3v16.4h21.5v-16.4h4.3V510.4z"/>
		<path class="st1" d="M1357.9,491.4c0,11.1-6.2,20-17.4,20c-11.3,0-17.4-8.9-17.4-20s6.1-20,17.4-20
			C1351.7,471.4,1357.9,480.3,1357.9,491.4z M1353.5,491.4c0-8.1-3.9-15.8-13.1-15.8c-9.2,0-13.1,7.7-13.1,15.8s3.9,15.8,13.1,15.8
			C1349.6,507.2,1353.5,499.5,1353.5,491.4z"/>
		<path class="st1" d="M1395.6,510.4h-4.3v-34.1h-21.2v34.1h-4.3v-38h29.8V510.4z"/>
		<path class="st1" d="M754.5,576.4h-4.3v-38h15.7c8.1,0,12.6,4.2,12.6,11.2c0,7.1-4.5,11.3-12.6,11.3h-11.4V576.4z M765.1,557.2
			c6.5,0,9-2.9,9-7.5c0-4.6-2.5-7.5-9-7.5h-10.6v15H765.1z"/>
		<path class="st1" d="M801.5,573.5c5.3,0,8.8-2.8,10.1-7.3h4.6c-1.6,6.7-6.7,11.3-14.7,11.3c-11,0-17.2-8.5-17.2-20
			c0-11.5,6.3-20,17.3-20c7.4,0,12.6,4,14.2,10.4h-4.6c-1.5-4.1-4.4-6.5-9.6-6.5c-8.9,0-12.9,7.7-12.9,16
			C788.6,565.8,792.6,573.5,801.5,573.5z"/>
		<path class="st1" d="M836.6,542.2v34.2h-4.2v-34.2h-12.5v-3.8h29.2v3.8H836.6z"/>
		<path class="st1" d="M877.4,538.4h4.5l-17.8,38h-4.3l5.2-11.3l-13.9-26.7h4.6l10.4,20.3h1.8L877.4,538.4z"/>
		<path class="st1" d="M924.8,556.9c0,10.5-6.8,15.5-17.1,15.5c-0.3-0.2-0.6-0.2-0.9,0v5h-4.1v-5c-0.3-0.2-0.6-0.2-0.9,0
			c-10.3,0-17.1-5-17.1-15.5c0-10.3,6.8-15.5,17.1-15.5c0.3,0.2,0.6,0.2,0.9,0v-4.5h4.1v4.5c0.3,0.2,0.6,0.2,0.9,0
			C917.9,541.4,924.8,546.5,924.8,556.9z M902.6,568.4v-23h-0.9c-7.8,0-12.9,3.7-12.9,11.5c0,7.8,5.1,11.5,12.9,11.5H902.6z
			 M907.7,568.4c7.7,0,12.9-3.7,12.9-11.5c0-7.8-5.1-11.5-12.9-11.5h-0.9v23H907.7z"/>
		<path class="st1" d="M932.5,576.4h-4.7l11.3-20.1l-9.6-17.9h4.6l8.2,15.4h2.3l8.3-15.4h4.6l-9.7,17.7l11.2,20.3H954l-9.5-17.5
			h-2.2L932.5,576.4z"/>
		<path class="st1" d="M965.4,576.7v-38h4.3v34.1h21v-34.1h4.2v34.1h5.6v13.3h-4.3v-9.5H965.4z"/>
		<path class="st1" d="M1009.4,549.2c0,1.7,0,3.4,0.9,4.9c1.2,1.9,3.6,3.1,8.8,3.1c3.3,0,6.4-0.5,9.2-1.1v-17.6h4.3v38h-4.3v-16.5
			l-0.3,0.1c-2.9,0.6-6.6,1-9.5,1c-7.2,0-10.5-1.9-12.1-4.5c-1.3-2.1-1.4-4.7-1.4-7.4v-10.7h4.3V549.2z"/>
		<path class="st1" d="M1062.2,538.4h4.1v34.1h15.5v-34.1h4.2v38h-43.5v-38h4.2v34.1h15.5V538.4z"/>
		<path class="st1" d="M1095.9,576.7v-38h4.2v34.1h15.5v-34.1h4.1v34.1h15.5v-34.1h4.2v34.1h5.6v13.3h-4.3v-9.5H1095.9z"/>
		<path class="st1" d="M1171.7,576.4h-15.4v-34.1h-9.8v-3.9h14v14.7h11.2c8.3,0,13,4.4,13,11.6
			C1184.7,572.1,1180,576.4,1171.7,576.4z M1170.9,572.6c6.8,0,9.5-3,9.5-7.9c0-4.7-2.6-7.8-9.5-7.8h-10.3v15.7H1170.9z"/>
		<path class="st1" d="M1207.2,576.4h-14.8v-38h4.3v14.7h10.5c8.3,0,12.8,4.4,12.8,11.6C1220.1,572.1,1215.5,576.4,1207.2,576.4z
			 M1206.4,572.6c6.8,0,9.4-3,9.4-7.9c0-4.7-2.5-7.8-9.4-7.8h-9.7v15.7H1206.4z M1230,576.4h-4.3v-38h4.3V576.4z"/>
		<path class="st1" d="M1255.3,576.4h-15.4v-38h4.3v14.7h11.1c8.2,0,12.9,4.4,12.9,11.6C1268.2,572.1,1263.5,576.4,1255.3,576.4z
			 M1254.4,572.6c6.7,0,9.4-3,9.4-7.9c0-4.7-2.6-7.8-9.4-7.8h-10.2v15.7H1254.4z"/>
		<path class="st1" d="M1273.5,566.6h4.6c1.3,4.2,4.9,6.9,10.1,6.9c8.4,0,12.4-6.8,12.7-14.4l0-0.3h-17.7V555h17.6l0-0.3
			c-0.7-7.1-4.6-13.3-12.5-13.3c-5.2,0-8.2,2.3-9.7,6.2h-4.6c1.7-6.2,7-10.1,14.3-10.1c11,0,17.2,8.6,17.2,20c0,11.3-6.2,20-17.2,20
			C1280.4,577.4,1275.1,573,1273.5,566.6z"/>
		<path class="st1" d="M1360.2,557.4c0,11.1-6,20-17.1,20c-10.6,0-16.4-7.9-17-18.3l0-0.3h-8.4v17.8h-4.3v-38.5h4.3v16.6h8.5l0-0.2
			c1-9.7,6.8-17.1,16.9-17.1C1354.2,537.4,1360.2,546.3,1360.2,557.4z M1355.8,557.4c0-8.2-3.8-15.9-12.7-15.9s-12.7,7.7-12.7,15.9
			s3.8,15.9,12.7,15.9S1355.8,565.6,1355.8,557.4z"/>
		<path class="st1" d="M1395.5,538.4v38h-4.3v-16.1H1380c-1.1,0-2.2-0.1-3.2-0.2l-5.7,16.3h-4.4l6.1-17.3l-0.2-0.1
			c-3.8-1.7-5.7-5-5.7-9.6c0-6.9,4.4-11,12.2-11H1395.5z M1391.2,556.5v-14.3h-11.5c-6.1,0-8.5,2.7-8.5,7.2c0,4.4,2.4,7.1,8.5,7.1
			H1391.2z"/>
		<path class="st1" d="M753.4,646.3h-4.1c0.5-4.8,4.6-7.5,10.2-7.5c6.5,0,10.7,3.3,10.7,9.3v18.6h-3.8v-2.9h-1.6l-0.1,0.1
			c-1.6,2-4.3,3.5-7.9,3.5c-6,0-9.3-4.2-9.3-8.8c0-4.3,2.7-8.9,10-8.9h8.8v-1.4c0-3.5-2-6.1-6.7-6.1
			C755.9,642.3,753.7,643.8,753.4,646.3z M766.3,655.7v-2.8h-8.1c-4.3,0-6.6,2-6.6,5.5c0,3.3,2.4,5.3,6.4,5.3
			C762.4,663.7,766.3,660.2,766.3,655.7z"/>
		<path class="st1" d="M802.9,653.6c0,7.7-4.9,13.8-12.9,13.8c-8.2,0-13-5.8-13-16.4c0-9.3,1.3-18.7,10.4-20.2l6.9-1.2
			c1.7-0.2,2.5-0.5,2.8-2.1h3.7c-0.2,2.9-1.1,4.8-5.1,5.5l-8,1.4c-4.8,0.9-6.5,4.5-7.1,9.2l0,0.3h1.6l0.1-0.1c2.2-3,4.7-3.9,8.3-3.9
			C798.3,639.8,802.9,645.9,802.9,653.6z M798.8,653.5c0-5.2-2.9-10.1-8.9-10.1s-8.9,4.9-8.9,10.1c0,5.1,2.9,10.2,8.9,10.2
			S798.8,658.6,798.8,653.5z"/>
		<path class="st1" d="M828.4,653.1c2.4,0.6,4.2,2.7,4.2,6.1c0,4.8-3.2,7.2-9.2,7.2h-13.3v-26.7H823c5.2,0,8.1,2.4,8.1,6.6
			c0,2.5-1.4,4.3-2.8,5.1l-0.1,0.1v1.6L828.4,653.1z M814.1,651h8.5c3.2,0,4.5-1.9,4.5-3.9c0-2.2-1.3-4-4.5-4h-8.5V651z
			 M823.2,663.1c3.9,0,5.4-1.8,5.4-4.3c0-2.5-1.5-4.4-5.4-4.4h-9.1v8.7H823.2z"/>
		<path class="st1" d="M859.1,639.7v3.5h-15.3v23.2h-4.1v-26.7H859.1z"/>
		<path class="st1" d="M890.7,663.2v11.2h-3.9v-7.7h-23.5v7.7h-3.9v-11.2h3.5c1.8-3.8,3.4-9.1,3.4-16V640h19.5v23.2H890.7z
			 M881.7,643.2h-11.9v3.7c0,6.8-1.3,12-2.9,15.7l-0.2,0.4h14.9V643.2z"/>
		<path class="st1" d="M898.9,652.8l0,0.3c0.2,6.7,3.1,10.8,8.7,10.8c3.6,0,6-1.6,6.9-4.3h4.1c-1,4.4-4.7,7.8-11,7.8
			c-8,0-12.7-6.2-12.7-14.6c0-8.4,4.7-14,12.6-14c7.7,0,11.5,5.9,11.6,12.7v1.3H898.9z M899.2,649.2l-0.1,0.3h15.8l0-0.3
			c-0.3-3.6-3-6.7-7.5-6.7C902.6,642.5,899.8,645.6,899.2,649.2z"/>
		<path class="st1" d="M928.6,652.8l0,0.3c0.2,6.7,3.1,10.8,8.7,10.8c3.6,0,6-1.6,6.9-4.3h4.1c-1,4.4-4.7,7.8-11,7.8
			c-8,0-12.7-6.2-12.7-14.6c0-8.4,4.7-14,12.6-14c7.7,0,11.5,5.9,11.6,12.7v1.3H928.6z M928.8,649.2l-0.1,0.3h15.8l0-0.3
			c-0.3-3.6-3-6.7-7.5-6.7C932.2,642.5,929.5,645.6,928.8,649.2z M930.5,627.6h3.8v4.4h-3.8V627.6z M939.9,627.6h3.8v4.4h-3.8V627.6
			z"/>
		<path class="st1" d="M957.8,666.4h-4.2l6-13.7l-5.7-13h4.2L963,651h7.3v-11.3h3.8V651h7.3l4.8-11.3h4.2l-5.7,13l6.1,13.7h-4.3
			l-5.2-11.9H974v11.9h-3.8v-11.9H963L957.8,666.4z"/>
		<path class="st1" d="M1006.5,642.3c-3.6,0-5.8,1.3-6.5,4.3h-3.9c0.6-4.9,4.7-7.8,10.5-7.8c6.4,0,9.9,3.4,9.9,7.4
			c0,3-1.3,4.8-2.7,5.4l-0.2,0.1v1.6l0.2,0.1c1.9,0.6,3.7,2.3,3.7,6c0,4.4-3.8,8.1-10.8,8.1c-7,0-10.7-3.1-11.6-8h3.9
			c1.1,3.5,4.2,4.5,7.7,4.5c3.7,0,6.7-1.5,6.7-4.7c0-2.9-1.7-4.6-6.1-4.6h-4.3V651h4.1c3.8,0,5.3-1.9,5.3-4.2
			C1012.5,643.8,1009.8,642.3,1006.5,642.3z"/>
		<path class="st1" d="M1042.5,645.4l-11.6,21.1h-6.1v-26.7h3.9v21.1h1.5h0.2l11.4-21.1h6.3v26.7h-3.9v-21.1h-1.5H1042.5z"/>
		<path class="st1" d="M1074.6,645.4l-11.6,21.1h-6.1v-26.7h3.9v21.1h1.5h0.2l11.4-21.1h6.3v26.7h-3.9v-21.1h-1.5H1074.6z
			 M1073.1,627.6h3.2c-0.3,4.7-3.2,7.3-7.9,7.3c-4.7,0-7.6-2.6-7.8-7.3h3.2c0.1,2.7,1.6,4.6,4.7,4.6
			C1071.6,632.2,1072.9,630.3,1073.1,627.6z"/>
		<path class="st1" d="M1093,666.4h-4.1v-26.7h4.1V651h8.4l5.5-11.2h4.2l-6.5,12.9l6.9,13.8h-4.3l-5.8-12h-8.3V666.4z"/>
		<path class="st1" d="M1115.7,662.6c3.9,0,5.6-3,5.6-12.6v-10.3h19.8v26.7h-4.1v-23.2h-12.1v6.9c0,12.5-2.7,16.3-9.2,16.3h-0.6
			v-3.8H1115.7z"/>
		<path class="st1" d="M1156.8,639.7l6.5,12.4h0.2h1.1h0.2l6.5-12.4h6.7v26.7h-3.9v-21.9h-1.6l-6.1,11.7h-4.6l-6.1-11.7h-1.6v21.9
			h-3.9v-26.7H1156.8z"/>
		<path class="st1" d="M1209.9,666.4h-4.1v-12h-15.1v12h-4.1v-26.7h4.1V651h15.1v-11.2h4.1V666.4z"/>
		<path class="st1" d="M1242.8,653.1c0,8.1-4.8,14.3-12.9,14.3c-8.1,0-12.9-6.2-12.9-14.3s4.8-14.3,12.9-14.3
			C1238,638.8,1242.8,645,1242.8,653.1z M1238.7,653.1c0-5.4-2.9-10.6-8.8-10.6c-6,0-8.8,5.2-8.8,10.6s2.8,10.6,8.8,10.6
			C1235.9,663.7,1238.7,658.5,1238.7,653.1z"/>
		<path class="st1" d="M1272.9,666.4h-4.1v-23.2H1254v23.2h-4.1v-26.7h23V666.4z"/>
		<path class="st1" d="M1285.7,642.4h1.5c1.5-1.9,3.9-3.7,8-3.7c7.1,0,11.5,6.2,11.5,14.3c0,8.3-4.3,14.3-11.5,14.3
			c-4.2,0-6.5-1.7-7.9-3.6h-1.5v13.7h-4v-38h3.9V642.4z M1285.8,653.1c0,5.4,2.5,10.6,8.5,10.6c5.4,0,8.4-4.5,8.4-10.6
			s-3-10.6-8.4-10.6C1288.2,642.5,1285.8,647.7,1285.8,653.1z"/>
		<path class="st1" d="M1324.9,663.9c3.7,0,6.1-1.9,6.8-5h4c-1.1,5.1-5,8.5-10.9,8.5c-8,0-12.6-6.2-12.6-14.3
			c0-8.3,4.6-14.3,12.6-14.3c6,0,9.7,3.4,10.7,8.2h-4.1c-0.9-2.8-3.1-4.7-6.7-4.7c-6,0-8.6,5.1-8.6,10.7
			C1316.3,658.6,1318.9,663.9,1324.9,663.9z"/>
		<path class="st1" d="M1362.2,639.7v3.5h-9.2v23.2h-3.8v-23.2h-9.3v-3.5H1362.2z"/>
		<path class="st1" d="M1386.3,640h4.2l-15.7,37.5h-3.9l5.3-13.1L1365,640h4.3l8.1,17.9h1.6L1386.3,640z"/>
		<path class="st1" d="M766,743.5h-3.9v-10.9c-0.4-0.2-0.7-0.2-1.1,0c-8.3,0-13-5.6-13-13.5c0-7.8,4.6-13.5,12.9-13.5
			c0.4,0.1,0.8,0.1,1.2,0v-12.2h3.9v12.2c0.4,0.1,0.7,0.1,1.1,0c8.3,0,12.9,5.6,12.9,13.5c0,8.3-4.9,13.5-13.8,13.5H766V743.5z
			 M761,729.1h1.1v-20H761c-6.1,0-9,4.6-9,10C752,724.5,754.9,729.1,761,729.1z M767,729.1c6.1,0,9-4.6,9-10s-2.9-10-9-10h-1v20H767
			z"/>
		<path class="st1" d="M795,721l-6.7,11.4H784l8.2-13.7l-7.4-13h4.2l6,10.8h2.2l6.2-10.8h4.2l-7.5,12.9l8.2,13.8h-4.6l-6.5-11.4H797
			h-1.9H795z"/>
		<path class="st1" d="M837.8,729.2h5v11.2h-3.9v-7.7h-23.8V706h4.1v23.2h14.7V706h4V729.2z"/>
		<path class="st1" d="M851.2,713.1c0,1.2,0,2.4,0.7,3.5c0.9,1.3,2.6,2.2,6.2,2.2c2.5,0,4.7-0.3,6.8-0.8v-12.4h4.1v26.7h-4.1v-10.8
			l-0.3,0.1c-2.3,0.5-5.2,0.8-7.4,0.8c-5.2,0-7.7-1.4-8.9-3.4c-1-1.6-1.1-3.5-1.1-5.5v-7.8h4V713.1z"/>
		<path class="st1" d="M911.2,732.4h-33.8v-26.7h3.9V729h11v-23.2h3.8V729h11v-23.2h3.9V732.4z"/>
		<path class="st1" d="M953.8,729.2h5v11.2h-3.9v-7.7H920V706h3.9v23.2H935V706h3.9v23.2h11V706h3.9V729.2z"/>
		<path class="st1" d="M961.3,709.2v-3.5h12v9.1h8.1c6.4,0,9.9,3.3,9.9,8.7c0,5.5-3.5,8.9-9.9,8.9h-12v-23.2H961.3z M980.8,729
			c2.1,0,3.5-0.4,4.6-1.1c1.3-1,1.8-2.4,1.8-4.3c0-1.8-0.5-3.3-1.8-4.3c-1-0.8-2.5-1.1-4.6-1.1h-7.5V729H980.8z"/>
		<path class="st1" d="M1001.9,714.8h7.6c6.3,0,9.7,3.3,9.7,8.7c0,5.5-3.4,8.9-9.7,8.9h-11.7v-26.7h4.1V714.8z M1001.9,729h7
			c2.1,0,3.6-0.4,4.6-1.1c1.3-0.9,1.8-2.4,1.8-4.3c0-1.8-0.5-3.3-1.8-4.3c-1-0.7-2.5-1.1-4.6-1.1h-7V729z M1028.1,732.4h-4.1v-26.7
			h4.1V732.4z"/>
		<path class="st1" d="M1049,732.4h-12v-26.7h4.1v9.1h8c6.3,0,9.8,3.3,9.8,8.7C1058.8,729.1,1055.3,732.4,1049,732.4z M1048.4,729
			c2,0,3.5-0.4,4.5-1.1c1.3-0.9,1.8-2.4,1.8-4.3c0-1.8-0.5-3.3-1.8-4.3c-1-0.7-2.5-1.1-4.5-1.1h-7.4V729H1048.4z"/>
		<path class="st1" d="M1074.7,733.4c-5.7,0-10-3.3-11.1-8.2h3.9c0.8,2.9,3.4,4.7,7.3,4.7c5,0,8-3.9,8.3-9l0-0.3h-11.8v-3.4h11.8
			l0-0.3c-0.4-4.9-3.1-8.6-8.2-8.6c-3.7,0-6.1,1.5-7,4.3h-3.9c1.1-4.7,5.1-7.9,10.9-7.9c7.7,0,12.5,5.9,12.5,14.3
			C1087.2,727.5,1082.5,733.4,1074.7,733.4z"/>
		<path class="st1" d="M1130.4,719.1c0,8-4.8,14.3-12.8,14.3c-7.4,0-12-5.5-12.5-12.7l0-0.3h-6.6v12.2h-4v-27.2h4v11.4h6.7l0-0.2
			c0.8-6.9,5.3-11.9,12.4-11.9C1125.5,704.8,1130.4,711.1,1130.4,719.1z M1126.3,719.1c0-5.4-2.8-10.6-8.7-10.6
			c-6,0-8.7,5.2-8.7,10.6s2.7,10.6,8.7,10.6C1123.5,729.7,1126.3,724.5,1126.3,719.1z"/>
		<path class="st1" d="M1158.7,705.7v26.7h-4.1v-10.7h-8.2c-0.6,0-1.2,0-1.8-0.1l-4,10.8h-4.2l4.5-11.7l-0.2-0.1
			c-2.7-1.3-4.1-3.6-4.1-6.9c0-5,3.2-8,9.1-8H1158.7z M1146.2,709.1c-1.8,0-3,0.3-3.9,1c-1.2,0.8-1.6,2.1-1.6,3.7
			c0,1.5,0.4,2.8,1.6,3.6c0.9,0.6,2.2,1,3.9,1h8.3v-9.2H1146.2z"/>
		<path class="st1" d="M774.9,803.8c0,13.5-5.9,19.3-13.4,19.3s-13.3-5.8-13.3-19.3c0-13.5,5.8-19.4,13.3-19.4
			C769.1,784.4,774.9,790.3,774.9,803.8z M770.7,803.8c0-9.4-2.9-15.7-9.2-15.7c-6.3,0-9.1,6.3-9.1,15.7c0,9.4,2.9,15.7,9.1,15.7
			C767.9,819.5,770.7,813.1,770.7,803.8z"/>
		<path class="st1" d="M789.9,818.8v-29.2h-1.3l-7.5,5.1v-4.3l7.6-5.2h5.2v33.6h8.1v3.7h-20.9v-3.7H789.9z"/>
		<path class="st1" d="M811.1,795h-4.2c0.5-7.2,5.8-10.6,12-10.6c6.7,0,11.7,3.8,11.7,11.2c0,5-3.8,9.7-8.1,13.5l-9.2,8.1v1.6h18.5
			v3.7h-24.9v-4.9c4.3-3.5,10.3-8.4,13.7-11.8c2.5-2.3,5.8-5.5,5.8-10.1c0-4.9-3.1-7.6-7.6-7.6C814.7,788.1,811.7,790.3,811.1,795z"
			/>
		<path class="st1" d="M859.6,790.1l-9.3,8.1v1.5l0.3,0c6.2,0.2,10.8,4.1,10.8,11.2c0,7.7-5.5,12.2-12.8,12.2
			c-7.2,0-12.1-4.6-12.7-10.7h4.2c0.6,4.3,4.1,7.1,8.5,7.1c5.1,0,8.6-3.2,8.6-8.5c0-5.1-3.1-8.3-8.5-8.3c-1.1,0-2.1,0.1-2.9,0.3
			v-4.6l8.9-8v-1.6h-16v-3.6h21V790.1z"/>
		<path class="st1" d="M893.6,809.9v3.7h-5.2v8.9h-4v-8.9h-18.2v-5l16.2-23.4h6.1v24.7H893.6z M884.4,809.9V790h-1.5l-12.3,18.4v0.1
			v1.5H884.4z"/>
		<path class="st1" d="M924.2,809.9c0,8.1-5.2,13.2-12.4,13.2c-7.8,0-12.1-4.6-12.6-10.7h4.2c0.7,4.7,3.8,7.1,8.2,7.1
			c5,0,8.4-3.6,8.4-9.3c0-5.3-3.3-9.1-8.3-9.1c-3.3,0-5.7,1.2-7.4,3.6H900l1.6-19.4h20.5v3.6H905l-0.9,11.4h1.6
			c1.6-1.6,3.5-2.6,6.9-2.6C919.7,797.5,924.2,803,924.2,809.9z"/>
		<path class="st1" d="M955.7,810.4c0,7.1-4.7,12.7-12.3,12.7c-7.6,0-13.3-4.8-13.3-18.3c0-11.5,4.4-20.4,13.8-20.4
			c5.9,0,9.8,3.6,10.8,8.5h-4.2c-1-3.2-3.1-4.8-6.6-4.8c-6,0-9.5,5.3-9.7,13.7l0,0.3h1.6c1.3-1.6,4-3.7,8.4-3.7
			C950.6,798.3,955.7,803.3,955.7,810.4z M951.5,810.6c0-5.8-3.8-8.6-8.3-8.6c-4.5,0-8.2,3-8.2,8.6c0,5.7,3.8,8.9,8.3,8.9
			S951.5,816.4,951.5,810.6z"/>
		<path class="st1" d="M983.6,790.1l-15.8,32.3h-4.3l15.7-32.2v-1.5h-18.6v-3.6h23V790.1z"/>
		<path class="st1" d="M1009.9,803.6c2.4,0.8,5.7,3.9,5.7,8.8c0,6.1-5.2,10.7-13.1,10.7c-7.9,0-13.1-4.7-13.1-10.7
			c0-4.8,3.3-7.9,5.7-8.8l0.2-0.1V802l-0.2-0.1c-1.9-0.8-4.6-3.5-4.6-7.7c0-5.8,5-9.8,12-9.8c7,0,12,4,12,9.8c0,4.1-2.7,6.9-4.6,7.7
			l-0.2,0.1v1.6L1009.9,803.6z M1011.4,811.9c0-4.7-3.5-7.4-9-7.4c-5.4,0-9,2.7-9,7.4c0,4.6,3.5,7.5,9,7.5
			C1007.9,819.5,1011.4,816.5,1011.4,811.9z M994.6,794.5c0,4.3,3.7,6.5,7.9,6.5s7.9-2.3,7.9-6.5c0-4.3-3.7-6.5-7.9-6.5
			C998.2,788,994.6,790.2,994.6,794.5z"/>
		<path class="st1" d="M1020.7,797.2c0-7.1,4.7-12.7,12.3-12.7c7.6,0,13.3,4.8,13.3,18.3c0,11.5-4.4,20.4-13.8,20.4
			c-5.9,0-9.8-3.6-10.8-8.5h4.2c1,3.2,3.1,4.8,6.6,4.8c6,0,9.5-5.3,9.7-13.7l0-0.3h-1.6c-1.3,1.6-4,3.7-8.4,3.7
			C1025.8,809.2,1020.7,804.2,1020.7,797.2z M1025,796.9c0,5.8,3.8,8.6,8.3,8.6c4.5,0,8.2-3,8.2-8.6c0-5.7-3.8-8.9-8.3-8.9
			S1025,791.2,1025,796.9z"/>
		<path class="st1" d="M749.7,867.5v-5.7h5.1v5.7H749.7z M754.7,882.7v5.7h-5.1v-5.7H754.7z"/>
		<path class="st1" d="M766.3,888.4h-2.7v-5.7h5.1v6.9l-2.9,5h-2.3l2.8-4.8V888.4z M763.6,867.5v-5.7h5.1v5.7H763.6z"/>
		<path class="st1" d="M782.6,882.7v5.7h-5.1v-5.7H782.6z"/>
		<path class="st1" d="M794.2,888.4h-2.7v-5.7h5.1v6.9l-2.9,5h-2.3l2.8-4.8V888.4z"/>
		<path class="st1" d="M826.7,859.9c0,5.6-2.8,7.6-6.5,10.6c-2.6,2-3.6,2.9-3.6,6.5v1.2h-4.1V877c0-4.7,1.5-6.1,5.1-9
			c2.9-2.3,5-4.1,5-8.2c0-3.4-2.6-6.7-7.2-6.7c-4.5,0-7.2,2.1-7.6,7.2h-4.1c0.4-6.7,4.7-10.6,11.7-10.6
			C822.3,849.7,826.7,853.7,826.7,859.9z M817.1,882.7v5.7H812v-5.7H817.1z"/>
		<path class="st1" d="M830.8,896L847,848h3.6l-16,48.1H830.8z"/>
		<path class="st1" d="M863.4,882.7v5.7h-5.1v-5.7H863.4z M863,850.4v15.6l-0.9,12.2h-2.5l-0.8-12.2v-15.7H863z"/>
		<path class="st1" d="M894.2,896.1c4.7,0,8.6-1.4,12.2-3.6l1.3,2.2c-3.9,2.5-8.3,3.9-13.7,3.9c-13.1,0-21.3-8.6-21.3-21.4
			c0-14.6,10.1-25.8,25.1-25.8c11.3,0,21,6.9,21,19.1c0,8.2-4.2,15.8-11.7,15.8c-3,0-4.8-1-5.7-2.9l-0.1-0.2H900
			c-1.4,1.5-3.2,3.1-6.8,3.1c-5.2,0-8.4-3.5-8.4-9.5c0-7,4.4-13.1,11.3-13.1c2.9,0,4.8,1.4,5.5,2.5l0.1,0.1h1.5l0.4-1.9h3.3
			l-2.2,13.4v0c0,0.1,0,0.3-0.1,0.5c-0.1,0.6-0.2,1.7-0.2,2.3c0,2,1.4,3.1,3.3,3.1c4.3,0,8.2-4.9,8.2-13.4c0-9.7-7.4-16.4-18.6-16.4
			c-12.3,0-21.7,9.3-21.7,23.2C875.6,887.1,881.2,896.1,894.2,896.1z M894,883.5c4.5,0,7.7-4.3,7.7-10.2c0-3-0.9-4.7-2.1-5.6
			c-1-0.7-2.2-0.9-3.4-0.9c-4.7,0-7.6,5.2-7.6,10C888.6,880.6,890.1,883.5,894,883.5z"/>
		<path class="st1" d="M938.8,871.6v-11.7h3.4v11.7H954v3.4h-11.8v11.7h-3.4V875h-11.7v-3.4H938.8z"/>
		<path class="st1" d="M974,896h-3.8c-4.6-5.5-8.4-13.6-8.4-24.2c0-10.5,3.7-18.3,8.1-23.9h3.8c-4.2,5.9-8.1,13.4-8.1,23.9
			C965.6,882.5,969.7,890.2,974,896z"/>
		<path class="st1" d="M984.1,871.8c0-10.5-3.8-18-8.1-23.9h3.8c4.4,5.6,8.1,13.4,8.1,23.9c0,10.6-3.8,18.7-8.4,24.2h-3.8
			C980,890.2,984.1,882.5,984.1,871.8z"/>
		<path class="st1" d="M1004.8,857l-7.7,15.6h-3.7l10.5-21h3.1l10.5,21h-3.6l-7.8-15.6H1004.8z"/>
		<path class="st1" d="M1039.5,860.3c0,5.5-2.8,9.9-8.3,9.9c-5.6,0-8.4-4.4-8.4-9.9c0-5.5,2.8-9.9,8.4-9.9
			C1036.7,850.4,1039.5,854.8,1039.5,860.3z M1036.4,860.3c0-3.9-1.6-7.1-5.1-7.1c-3.6,0-5.2,3.1-5.2,7.1s1.6,7.1,5.2,7.1
			C1034.8,867.4,1036.4,864.3,1036.4,860.3z M1052.8,851.2h3.4l-22.1,37.3h-3.5L1052.8,851.2z M1064.1,879.2c0,5.5-2.8,9.9-8.4,9.9
			c-5.5,0-8.3-4.4-8.3-9.9c0-5.5,2.8-9.9,8.3-9.9C1061.2,869.3,1064.1,873.7,1064.1,879.2z M1060.9,879.2c0-3.9-1.6-7.1-5.2-7.1
			c-3.6,0-5.1,3.1-5.1,7.1c0,3.9,1.6,7.1,5.1,7.1C1059.2,886.3,1060.9,883.1,1060.9,879.2z"/>
		<path class="st1" d="M1076.8,861.6l1.7-10.5h3.3l-1.7,10.5h7.9l1.7-10.5h3.3l-1.7,10.5h5.4v3.1h-6l-1.5,10h5.5v3.1h-6l-1.7,10.5
			h-3.3l1.7-10.5h-7.8l-1.7,10.5h-3.3l1.7-10.5h-5.4v-3.1h6l1.6-10h-5.6v-3.1H1076.8z M1079.6,864.8l-1.5,10h7.8l1.6-10H1079.6z"/>
		<path class="st1" d="M1134.3,851.2v37.3h-7l-17.6-31.6h-1.6v31.6h-4.1v-37.3h7l17.6,31.6h0.2h1.4v-31.6H1134.3z M1148.7,850.4
			c5.6,0,8.4,4.4,8.4,9.9c0,5.5-2.8,9.9-8.4,9.9c-5.6,0-8.4-4.4-8.4-9.9C1140.3,854.8,1143.1,850.4,1148.7,850.4z M1140.3,877v-2.7
			h16.9v2.7H1140.3z M1148.7,867.4c3.6,0,5.2-3.1,5.2-7.1s-1.6-7.1-5.2-7.1c-3.6,0-5.2,3.1-5.2,7.1S1145.1,867.4,1148.7,867.4z"/>
		<path class="st1" d="M1165.4,856.1v-5.7h5.1v6.9l-2.9,5h-2.3l2.8-4.8v-0.1v-1.3H1165.4z M1174.8,856.1v-5.7h5.1v6.9l-2.9,5h-2.3
			l2.8-4.8v-0.1v-1.3H1174.8z"/>
		<path class="st1" d="M1198.7,850.4l-0.3,9.2l8.8-3.2l1,3l-8.9,2.6l5.6,7.3l-2.5,1.9l-5.2-7.6l-5.2,7.6l-2.5-1.9l5.6-7.3l-8.8-2.6
			l1-3l8.7,3.2l-0.3-9.2H1198.7z"/>
		<path class="st1" d="M756.2,939.3H786v3.6h-29.8v1.6l10,10h-4.8l-13.3-13.3l13.3-13.3h4.8l-10,10v0.1V939.3z"/>
		<path class="st1" d="M804.4,924.6l-10,10v-4.8l13.3-13.3l13.3,13.3v4.8l-10-10h-1.6v29.8h-3.6v-29.8H804.4z"/>
		<path class="st1" d="M859.2,937.7l-10-10h4.8l13.3,13.3L854,954.4h-4.8l10-10v-1.6h-29.8v-3.6h29.8V937.7z"/>
		<path class="st1" d="M891.7,946.2h0.1l10-10v4.8l-13.3,13.3L875.2,941v-4.8l10,10h0.1h1.5v-29.8h3.6v29.8H891.7z"/>
		<path class="st1" d="M915.1,924.5v14.1l-3.3-3.4v-18.8h18.8l3.4,3.3h-14.1l-1.1,1.1l21.1,21.1l-2.5,2.5l-21.1-21.1L915.1,924.5z"
			/>
		<path class="st1" d="M974.6,924.5l-1.1-1.1l-21.1,21.1L950,942l21.1-21.1l-1.1-1.1h-14.1l3.4-3.3H978v18.8l-3.3,3.4V924.5z"/>
		<path class="st1" d="M991.3,946.3l1.1,1.1l21.1-21.1l2.5,2.5L994.9,950l1.1,1.1h14.1l-3.4,3.3h-18.8v-18.8l3.3-3.4V946.3z"/>
		<path class="st1" d="M1050.8,946.3v-14.1l3.3,3.4v18.8h-18.8l-3.4-3.3h14.1l1.1-1.1l-21.1-21.1l2.5-2.5l21.1,21.1L1050.8,946.3z"
			/>
		<path class="st1" d="M1066.1,940.1l8.4,8.9h-4.3l-7.7-7.9v-3.3l7.7-8h4.3l-8.4,8.9V940.1z"/>
		<path class="st1" d="M1090.4,938.7l-8.4-8.9h4.3l7.7,8v3.3l-7.7,7.9h-4.3l8.4-8.9V938.7z"/>
		<path class="st1" d="M1107.9,933.8h5v2.6h-13.1v-2.6h5.1V920h-1.2l-3.9,2.2v-2.9l4.9-3h3.2V933.8z M1108.2,954.4l22.6-37.3h3.5
			l-22.5,37.3H1108.2z M1141.8,947.2v2.6h-2.8v4.6h-3v-4.6h-10.4v-3.1l9.1-12.3h4.2v12.8H1141.8z M1129,947.2h7v-9.1h-1.3l-5.7,7.8
			V947.2z"/>
		<path class="st1" d="M1154.6,933.8h5v2.6h-13.1v-2.6h5.1V920h-1.2l-3.9,2.2v-2.9l4.9-3h3.2V933.8z M1154.9,954.4l22.6-37.3h3.5
			l-22.5,37.3H1154.9z M1179,951.8h9.9v2.6h-14.8v-3.5l2.3-1.6c1.3-1,2.8-1.9,4.1-2.9c2-1.4,4.8-3.3,4.8-6.1c0-2.3-1.6-3.7-3.9-3.7
			c-2.6,0-4.1,1.2-4.3,3.7h-3c0.3-4.4,3.3-6.4,7.3-6.4c4,0,6.8,2.1,6.8,6.2c0,2.9-1.7,4.9-4,6.6l-5.2,3.8V951.8z"/>
		<path class="st1" d="M1203.4,923.2v1l0.2,0c2.9,0.4,5.1,2.5,5.1,6c0,4.2-3.2,6.6-7.6,6.6c-4.4,0-7.3-2.6-7.6-6.3h2.9
			c0.3,2.3,2.3,3.6,4.7,3.6c2.6,0,4.6-1.5,4.6-4c0-2.5-1.8-4-4.5-4c-0.8,0-1.2,0-1.7,0.1v-2.7l4.1-3.2v-0.1V919h-8.6v-2.6h12.8v3.2
			l-4.5,3.5V923.2z M1202.3,954.4l22.6-37.3h3.5l-22.5,37.3H1202.3z M1235.9,947.2v2.6h-2.8v4.6h-3v-4.6h-10.4v-3.1l9.1-12.3h4.2
			v12.8H1235.9z M1223.1,947.2h7v-9.1h-1.3l-5.7,7.8V947.2z"/>
	</g>
</g>
</svg>
