<?xml version="1.0" encoding="utf-8"?>
<!-- Generator: Adobe Illustrator 19.0.0, SVG Export Plug-In . SVG Version: 6.00 Build 0)  -->
<svg version="1.1" id="_x32_" xmlns="http://www.w3.org/2000/svg" xmlns:xlink="http://www.w3.org/1999/xlink" x="0px" y="0px"
	 viewBox="-74 154.9 1200 1042.1" style="enable-background:new -74 154.9 1200 1042.1;" xml:space="preserve">
<style type="text/css">
	.st0{fill:#EFEFEF;stroke:#36AFA7;stroke-miterlimit:10;}
	.st1{fill:#36ACA7;stroke:#36AFA7;stroke-miterlimit:10;}
	.st2{fill:none;stroke:#36AFA7;stroke-miterlimit:10;}
	.st3{fill:#36AFA7;}
</style>
<g id="XMLID_16_">
	<g id="XMLID_367_">
		<rect id="XMLID_29_" x="-71.5" y="157.1" class="st0" width="476.4" height="677.7"/>
		<path id="XMLID_26_" class="st1" d="M404.4,157.6v676.7H-71V157.6H404.4 M405.4,156.6H-72v678.7h477.4V156.6L405.4,156.6z"/>
	</g>
	<g id="XMLID_366_">
		<rect id="XMLID_24_" x="445.8" y="157.1" class="st0" width="677.7" height="476.4"/>
		<path id="XMLID_21_" class="st1" d="M1123,157.6V633H446.3V157.6H1123 M1124,156.6H445.3V634H1124V156.6L1124,156.6z"/>
	</g>
	<g id="XMLID_365_">
		<rect id="XMLID_19_" x="445.8" y="675.1" class="st0" width="519.7" height="519.7"/>
		<path id="XMLID_14_" class="st1" d="M965,675.6v518.7H446.3V675.6H965 M966,674.6H445.3v520.7H966V674.6L966,674.6z"/>
	</g>
	<g id="XMLID_6_">
		<line id="XMLID_9_" class="st2" x1="-72" y1="156.6" x2="405.4" y2="835.4"/>
		<line id="XMLID_10_" class="st2" x1="405.4" y1="156.6" x2="-72" y2="835.4"/>
	</g>
	<g id="XMLID_15_">
		<line id="XMLID_109_" class="st2" x1="445.3" y1="674.6" x2="966" y2="1195.2"/>
		<line id="XMLID_30_" class="st2" x1="966" y1="674.6" x2="445.3" y2="1195.2"/>
	</g>
	<g id="XMLID_12_">
		<line id="XMLID_1_" class="st2" x1="1124" y1="156.6" x2="445.3" y2="634"/>
		<line id="XMLID_13_" class="st2" x1="1124" y1="634" x2="445.3" y2="156.6"/>
	</g>
</g>
<g id="XMLID_74_">
	<g id="XMLID_5_">
		<g id="XMLID_384_">
			<path id="XMLID_397_" class="st3" d="M-18.9,515.6v-4h-2c-2.6,3.4-6.9,5.1-12.8,5.1c-4.8,0-8.5-1.4-11.3-4.1
				c-2.8-2.8-4.2-6.1-4.2-10.1c0-3.9,1.4-7.3,4.3-10.2c2.8-2.9,7.1-4.3,12.9-4.3h12.8v-1.3c0-5-3-7.9-9.1-7.9
				c-5.4,0-8.3,1.9-8.7,5.5h-9.5c0.4-8.1,7.6-13.1,17.9-13.1c11.7,0,18.7,5.2,18.7,15.7v28.8h-9V515.6z M-22.5,505.7
				c2.2-2.1,3.3-4.7,3.3-7.7v-3.3h-11.1c-6,0-9.2,2.6-9.2,7.1c0,4.4,3.2,7,8.8,7C-27.5,508.9-24.7,507.8-22.5,505.7z"/>
			<path id="XMLID_395_" class="st3" d="M23.7,472.3v8.9h-3.9c-8.8,0-13.5,5-13.5,14.1v20.3h-9.6v-43.3H6v5h2c2.5-3.3,6.6-5,12.1-5
				H23.7z"/>
			<path id="XMLID_390_" class="st3" d="M37.2,472.3h10.2v8.2H37.2v21.1c0,3.8,2.2,5.7,6.6,5.7h3.6v8.3h-3.7
				c-10.5,0-16.1-3.5-16.1-12.8v-41.5h9.6V472.3z"/>
			<path id="XMLID_387_" class="st3" d="M87.2,510.4c-3.9,4.2-9.2,6.3-15.9,6.3s-12-2.1-16-6.3c-3.9-4.3-5.9-9.8-5.9-16.5
				s2-12.2,5.9-16.3c4-4.3,9.3-6.4,16-6.4s12,2.1,15.9,6.4c4,4.2,6,9.6,6,16.3C93.2,500.6,91.2,506.1,87.2,510.4z M71.3,479.3
				c-7.9,0-12.3,6.4-12.3,14.6c0,8.3,4.3,14.6,12.3,14.6c7.9,0,12.3-6.4,12.3-14.6S79.2,479.3,71.3,479.3z"/>
			<path id="XMLID_385_" class="st3" d="M122.3,483.8c-0.5-3.1-3.3-4.7-8.5-4.7s-7.8,1.5-7.8,4.5c0,2.6,1.7,3.7,5.5,4.3l8.4,1.4
				c8.8,1.4,13.2,5.9,13.2,13.4c0,3.8-1.6,7.1-4.9,9.9c-3.2,2.6-7.7,4-13.6,4c-12.3,0-18.9-5.4-19.8-14.2h9.6
				c0.8,4.2,4.1,6.2,10,6.2c6,0,9.1-1.9,9.1-5.6c0-3.3-2-4.9-7.1-5.8l-9-1.5c-6.8-1.1-11.1-4.9-11.1-11.4c0-7.7,6.1-13.2,17.8-13.2
				c10.3,0,16.8,4.9,17.8,12.7L122.3,483.8L122.3,483.8z"/>
		</g>
	</g>
	<g id="XMLID_140_">
		<g id="XMLID_356_">
			<path id="XMLID_369_" class="st3" d="M230.5,515.6v-4h-2c-2.6,3.4-6.9,5.1-12.8,5.1c-4.8,0-8.5-1.4-11.3-4.1
				c-2.8-2.8-4.2-6.1-4.2-10.1c0-3.9,1.4-7.3,4.3-10.2c2.8-2.9,7.1-4.3,12.9-4.3h12.8v-1.3c0-5-3-7.9-9.1-7.9
				c-5.4,0-8.3,1.9-8.7,5.5h-9.5c0.4-8.1,7.6-13.1,17.9-13.1c11.7,0,18.7,5.2,18.7,15.7v28.8h-9V515.6z M226.9,505.7
				c2.2-2.1,3.3-4.7,3.3-7.7v-3.3h-11.1c-6,0-9.2,2.6-9.2,7.1c0,4.4,3.2,7,8.8,7C221.9,508.9,224.7,507.8,226.9,505.7z"/>
			<path id="XMLID_364_" class="st3" d="M273.1,472.3v8.9h-3.9c-8.8,0-13.5,5-13.5,14.1v20.3H246v-43.3h9.3v5h2
				c2.5-3.3,6.6-5,12.1-5H273.1z"/>
			<path id="XMLID_362_" class="st3" d="M286.6,472.3h10.2v8.2h-10.2v21.1c0,3.8,2.2,5.7,6.6,5.7h3.6v8.3h-3.7
				c-10.5,0-16.1-3.5-16.1-12.8v-41.5h9.6V472.3z"/>
			<path id="XMLID_359_" class="st3" d="M336.6,510.4c-3.9,4.2-9.2,6.3-15.9,6.3c-6.7,0-12-2.1-16-6.3c-3.9-4.3-5.9-9.8-5.9-16.5
				s2-12.2,5.9-16.3c4-4.3,9.3-6.4,16-6.4s12,2.1,15.9,6.4c4,4.2,6,9.6,6,16.3C342.6,500.6,340.6,506.1,336.6,510.4z M320.7,479.3
				c-7.9,0-12.3,6.4-12.3,14.6c0,8.3,4.3,14.6,12.3,14.6c7.9,0,12.3-6.4,12.3-14.6S328.6,479.3,320.7,479.3z"/>
			<path id="XMLID_357_" class="st3" d="M371.7,483.8c-0.5-3.1-3.3-4.7-8.5-4.7s-7.8,1.5-7.8,4.5c0,2.6,1.7,3.7,5.5,4.3l8.4,1.4
				c8.8,1.4,13.2,5.9,13.2,13.4c0,3.8-1.6,7.1-4.9,9.9c-3.2,2.6-7.7,4-13.6,4c-12.3,0-18.9-5.4-19.8-14.2h9.6
				c0.8,4.2,4.1,6.2,10,6.2c6,0,9.1-1.9,9.1-5.6c0-3.3-2-4.9-7.1-5.8l-9-1.5c-6.8-1.1-11.1-4.9-11.1-11.4c0-7.7,6.1-13.2,17.8-13.2
				c10.3,0,16.8,4.9,17.8,12.7L371.7,483.8L371.7,483.8z"/>
		</g>
	</g>
</g>
<g id="XMLID_73_">
	<g id="XMLID_136_">
		<g id="XMLID_317_">
			<path id="XMLID_353_" class="st3" d="M519.4,416.9v-4h-2c-2.6,3.4-6.9,5.1-12.8,5.1c-4.8,0-8.5-1.4-11.3-4.1
				c-2.8-2.8-4.2-6.1-4.2-10.1c0-3.9,1.4-7.3,4.3-10.2c2.8-2.9,7.1-4.3,12.9-4.3h12.8V388c0-5-3-7.9-9.1-7.9c-5.4,0-8.3,1.9-8.7,5.5
				h-9.5c0.4-8.1,7.6-13.1,17.9-13.1c11.7,0,18.7,5.2,18.7,15.7v28.7H519.4z M515.8,407c2.2-2.1,3.3-4.7,3.3-7.7V396H508
				c-6,0-9.2,2.6-9.2,7.1c0,4.4,3.2,7,8.8,7C510.8,410.2,513.6,409.2,515.8,407z"/>
			<path id="XMLID_334_" class="st3" d="M562,373.6v8.9h-3.9c-8.8,0-13.5,5-13.5,14.1v20.3H535v-43.3h9.3v5h2c2.5-3.3,6.6-5,12.1-5
				H562z"/>
			<path id="XMLID_332_" class="st3" d="M575.6,373.6h10.2v8.2h-10.2v21.1c0,3.8,2.2,5.7,6.6,5.7h3.6v8.3H582
				c-10.5,0-16.1-3.5-16.1-12.8v-41.5h9.6L575.6,373.6L575.6,373.6z"/>
			<path id="XMLID_329_" class="st3" d="M625.5,411.7c-3.9,4.2-9.2,6.3-15.9,6.3s-12-2.1-16-6.3c-3.9-4.3-5.9-9.8-5.9-16.5
				s2-12.2,5.9-16.3c4-4.3,9.3-6.4,16-6.4s12,2.1,15.9,6.4c4,4.2,6,9.6,6,16.3S629.5,407.5,625.5,411.7z M609.6,380.6
				c-7.9,0-12.3,6.4-12.3,14.6c0,8.3,4.3,14.6,12.3,14.6c7.9,0,12.3-6.4,12.3-14.6C621.9,387,617.5,380.6,609.6,380.6z"/>
			<path id="XMLID_327_" class="st3" d="M660.6,385.2c-0.5-3.1-3.3-4.7-8.5-4.7s-7.8,1.5-7.8,4.5c0,2.6,1.7,3.7,5.5,4.3l8.4,1.4
				c8.8,1.4,13.2,5.9,13.2,13.4c0,3.8-1.6,7.1-4.9,9.9c-3.2,2.6-7.7,4-13.6,4c-12.3,0-18.9-5.4-19.8-14.2h9.6
				c0.8,4.2,4.1,6.2,10,6.2c6,0,9.1-1.9,9.1-5.6c0-3.3-2-4.9-7.1-5.8l-9-1.5c-6.8-1.1-11.1-4.9-11.1-11.4c0-7.7,6.1-13.2,17.8-13.2
				c10.3,0,16.8,4.9,17.8,12.7H660.6z"/>
		</g>
	</g>
	<g id="XMLID_138_">
		<g id="XMLID_297_">
			<path id="XMLID_307_" class="st3" d="M925.1,416.9v-4h-2c-2.6,3.4-6.9,5.1-12.8,5.1c-4.8,0-8.5-1.4-11.3-4.1
				c-2.8-2.8-4.2-6.1-4.2-10.1c0-3.9,1.4-7.3,4.3-10.2c2.8-2.9,7.1-4.3,12.9-4.3h12.8V388c0-5-3-7.9-9.1-7.9c-5.4,0-8.3,1.9-8.7,5.5
				h-9.5c0.4-8.1,7.6-13.1,17.9-13.1c11.7,0,18.7,5.2,18.7,15.7v28.7H925.1z M921.5,407c2.2-2.1,3.3-4.7,3.3-7.7V396h-11.1
				c-6,0-9.2,2.6-9.2,7.1c0,4.4,3.2,7,8.8,7C916.5,410.2,919.3,409.2,921.5,407z"/>
			<path id="XMLID_305_" class="st3" d="M967.7,373.6v8.9h-3.9c-8.8,0-13.5,5-13.5,14.1v20.3h-9.6v-43.3h9.3v5h2
				c2.5-3.3,6.6-5,12.1-5H967.7z"/>
			<path id="XMLID_303_" class="st3" d="M981.3,373.6h10.2v8.2h-10.2v21.1c0,3.8,2.2,5.7,6.6,5.7h3.6v8.3h-3.7
				c-10.5,0-16.1-3.5-16.1-12.8v-41.5h9.6V373.6z"/>
			<path id="XMLID_300_" class="st3" d="M1031.2,411.7c-3.9,4.2-9.2,6.3-15.9,6.3c-6.7,0-12-2.1-16-6.3c-3.9-4.3-5.9-9.8-5.9-16.5
				s2-12.2,5.9-16.3c4-4.3,9.3-6.4,16-6.4s12,2.1,15.9,6.4c4,4.2,6,9.6,6,16.3S1035.2,407.5,1031.2,411.7z M1015.3,380.6
				c-7.9,0-12.3,6.4-12.3,14.6c0,8.3,4.3,14.6,12.3,14.6c7.9,0,12.3-6.4,12.3-14.6C1027.6,387,1023.2,380.6,1015.3,380.6z"/>
			<path id="XMLID_298_" class="st3" d="M1066.3,385.2c-0.5-3.1-3.3-4.7-8.5-4.7s-7.8,1.5-7.8,4.5c0,2.6,1.7,3.7,5.5,4.3l8.4,1.4
				c8.8,1.4,13.2,5.9,13.2,13.4c0,3.8-1.6,7.1-4.9,9.9c-3.2,2.6-7.7,4-13.6,4c-12.3,0-18.9-5.4-19.8-14.2h9.6
				c0.8,4.2,4.1,6.2,10,6.2c6,0,9.1-1.9,9.1-5.6c0-3.3-2-4.9-7.1-5.8l-9-1.5c-6.8-1.1-11.1-4.9-11.1-11.4c0-7.7,6.1-13.2,17.8-13.2
				c10.3,0,16.8,4.9,17.8,12.7H1066.3z"/>
		</g>
	</g>
</g>
<g id="XMLID_75_">
	<g id="XMLID_326_">
		<g id="XMLID_240_">
			<path id="XMLID_294_" class="st3" d="M508.4,956.5v-4h-2c-2.6,3.4-6.9,5.1-12.8,5.1c-4.8,0-8.5-1.4-11.3-4.1
				c-2.8-2.8-4.2-6.1-4.2-10.1c0-3.9,1.4-7.3,4.3-10.2c2.8-2.9,7.1-4.3,12.9-4.3h12.8v-1.3c0-5-3-7.9-9.1-7.9
				c-5.4,0-8.3,1.9-8.7,5.5h-9.5c0.4-8.1,7.6-13.1,17.9-13.1c11.7,0,18.7,5.2,18.7,15.7v28.8h-9V956.5z M504.8,946.6
				c2.2-2.1,3.3-4.7,3.3-7.7v-3.3H497c-6,0-9.2,2.6-9.2,7.1c0,4.4,3.2,7,8.8,7C499.8,949.8,502.6,948.7,504.8,946.6z"/>
			<path id="XMLID_292_" class="st3" d="M551,913.2v8.9h-3.9c-8.8,0-13.5,5-13.5,14.1v20.3H524v-43.3h9.3v5h2c2.5-3.3,6.6-5,12.1-5
				H551z"/>
			<path id="XMLID_290_" class="st3" d="M564.6,913.2h10.2v8.2h-10.2v21.1c0,3.8,2.2,5.7,6.6,5.7h3.6v8.3H571
				c-10.5,0-16.1-3.5-16.1-12.8v-41.5h9.6L564.6,913.2L564.6,913.2z"/>
			<path id="XMLID_287_" class="st3" d="M614.5,951.3c-3.9,4.2-9.2,6.3-15.9,6.3s-12-2.1-16-6.3c-3.9-4.3-5.9-9.8-5.9-16.5
				s2-12.2,5.9-16.3c4-4.3,9.3-6.4,16-6.4s12,2.1,15.9,6.4c4,4.2,6,9.6,6,16.3S618.5,947,614.5,951.3z M598.6,920.2
				c-7.9,0-12.3,6.4-12.3,14.6c0,8.3,4.3,14.6,12.3,14.6c7.9,0,12.3-6.4,12.3-14.6C610.9,926.6,606.5,920.2,598.6,920.2z"/>
			<path id="XMLID_241_" class="st3" d="M649.6,924.7c-0.5-3.1-3.3-4.7-8.5-4.7s-7.8,1.5-7.8,4.5c0,2.6,1.7,3.7,5.5,4.3l8.4,1.4
				c8.8,1.4,13.2,5.9,13.2,13.4c0,3.8-1.6,7.1-4.9,9.9c-3.2,2.6-7.7,4-13.6,4c-12.3,0-18.9-5.4-19.8-14.2h9.6
				c0.8,4.2,4.1,6.2,10,6.2c6,0,9.1-1.9,9.1-5.6c0-3.3-2-4.9-7.1-5.8l-9-1.5c-6.8-1.1-11.1-4.9-11.1-11.4c0-7.7,6.1-13.2,17.8-13.2
				c10.3,0,16.8,4.9,17.8,12.7L649.6,924.7L649.6,924.7z"/>
		</g>
	</g>
	<g id="XMLID_4_">
		<g id="XMLID_221_">
			<path id="XMLID_237_" class="st3" d="M781.2,956.5v-4h-2c-2.6,3.4-6.9,5.1-12.8,5.1c-4.8,0-8.5-1.4-11.3-4.1
				c-2.8-2.8-4.2-6.1-4.2-10.1c0-3.9,1.4-7.3,4.3-10.2c2.8-2.9,7.1-4.3,12.9-4.3h12.8v-1.3c0-5-3-7.9-9.1-7.9
				c-5.4,0-8.3,1.9-8.7,5.5h-9.5c0.4-8.1,7.6-13.1,17.9-13.1c11.7,0,18.7,5.2,18.7,15.7v28.8h-9V956.5z M777.6,946.6
				c2.2-2.1,3.3-4.7,3.3-7.7v-3.3h-11.1c-6,0-9.2,2.6-9.2,7.1c0,4.4,3.2,7,8.8,7C772.6,949.8,775.4,948.7,777.6,946.6z"/>
			<path id="XMLID_235_" class="st3" d="M823.8,913.2v8.9h-3.9c-8.8,0-13.5,5-13.5,14.1v20.3h-9.6v-43.3h9.3v5h2
				c2.5-3.3,6.6-5,12.1-5H823.8z"/>
			<path id="XMLID_227_" class="st3" d="M837.3,913.2h10.2v8.2h-10.2v21.1c0,3.8,2.2,5.7,6.6,5.7h3.6v8.3h-3.7
				c-10.5,0-16.1-3.5-16.1-12.8v-41.5h9.6L837.3,913.2L837.3,913.2z"/>
			<path id="XMLID_224_" class="st3" d="M887.3,951.3c-3.9,4.2-9.2,6.3-15.9,6.3s-12-2.1-16-6.3c-3.9-4.3-5.9-9.8-5.9-16.5
				s2-12.2,5.9-16.3c4-4.3,9.3-6.4,16-6.4s12,2.1,15.9,6.4c4,4.2,6,9.6,6,16.3S891.3,947,887.3,951.3z M871.4,920.2
				c-7.9,0-12.3,6.4-12.3,14.6c0,8.3,4.3,14.6,12.3,14.6c7.9,0,12.3-6.4,12.3-14.6S879.3,920.2,871.4,920.2z"/>
			<path id="XMLID_222_" class="st3" d="M922.4,924.7c-0.5-3.1-3.3-4.7-8.5-4.7s-7.8,1.5-7.8,4.5c0,2.6,1.7,3.7,5.5,4.3l8.4,1.4
				c8.8,1.4,13.2,5.9,13.2,13.4c0,3.8-1.6,7.1-4.9,9.9c-3.2,2.6-7.7,4-13.6,4c-12.3,0-18.9-5.4-19.8-14.2h9.6
				c0.8,4.2,4.1,6.2,10,6.2c6,0,9.1-1.9,9.1-5.6c0-3.3-2-4.9-7.1-5.8l-9-1.5c-6.8-1.1-11.1-4.9-11.1-11.4c0-7.7,6.1-13.2,17.8-13.2
				c10.3,0,16.8,4.9,17.8,12.7L922.4,924.7L922.4,924.7z"/>
		</g>
	</g>
</g>
</svg>
