<?xml version="1.0" encoding="utf-8"?>
<!-- Generator: Adobe Illustrator 19.0.0, SVG Export Plug-In . SVG Version: 6.00 Build 0)  -->
<svg version="1.1" id="Layer_1" xmlns="http://www.w3.org/2000/svg" xmlns:xlink="http://www.w3.org/1999/xlink" x="0px" y="0px"
	 viewBox="496 159 2487.5 1177" style="enable-background:new 496 159 2487.5 1177;" xml:space="preserve">
<style type="text/css">
	.st0{fill:#101010;}
	.st1{fill:#36AFA7;}
</style>
<g>
	<g>
		<g>
			<path class="st0" d="M2223.7,1075.2V917.9h41.8l32.6,68.6h5.3l32.2-68.6h42.1v157.4h-25.2V949.5h-5.3l-33.3,69H2287l-33-69h-5.3
				v125.8H2223.7z"/>
			<path class="st0" d="M2503.9,1021.2h-82.8c0.7,23.8,11.2,35.7,31.6,35.7c12.9,0,21.2-4.8,24.5-14.4h25.3
				c-4.4,21.3-21.8,35.4-50.1,35.4c-17.4,0-31-5.5-41-16.5c-10-11-14.9-25.3-14.9-43.3c0-17.8,4.8-32,14.8-42.3
				c10-10.5,23.6-15.9,40.6-15.9c16.1,0,28.9,5.1,37.9,14.9c9.2,10,14.1,22.5,14.4,37.7L2503.9,1021.2L2503.9,1021.2z
				 M2422.1,1002.7h56.2c-1.7-13.2-11.2-22.8-26.9-22.8C2434.9,980,2424.9,988.7,2422.1,1002.7z"/>
			<path class="st0" d="M2594.4,973.8h5.3v-58.9h24.9v160.2h-24v-10.8h-5.3c-7.3,9.1-18.4,13.7-33,13.7c-14.8,0-26.6-5.5-35.4-16.5
				c-8.5-11-12.9-25.2-12.9-42.5c0-17.2,4.4-31.3,12.9-42.3c8.8-11,20.8-16.5,35.4-16.5C2577,960.1,2587.6,964.8,2594.4,973.8z
				 M2600.4,1019c0-21.3-10.5-37.7-31-37.7c-19.6,0-30.6,14.9-30.6,37.7s11,37.9,30.6,37.9C2589.9,1056.9,2600.4,1040.4,2600.4,1019
				z"/>
			<path class="st0" d="M2673.5,938.9h-25.6v-24h25.6V938.9z M2673.1,963v112.1h-24.9V963H2673.1z"/>
			<path class="st0" d="M2695.4,963h24.9v65.3c0,18.4,8.4,27.6,24.9,27.6c8.5,0,15.7-3.3,20.9-9.7c5.5-6.4,8.1-14.1,8.1-23.2v-59.9
				h24.9v112.1h-24v-10.8h-5.3c-6.8,9.1-17.6,13.7-32.4,13.7c-27.3,0-42.1-16.8-42.1-45L2695.4,963L2695.4,963z"/>
			<path class="st0" d="M2983.5,1003.5v71.6h-24.9v-67.4c0-16.9-6.4-25.3-19.2-25.3c-14.9,0-23.8,12-23.8,28.9v63.9h-24.9v-67.2
				c0-16.9-6.4-25.6-19.2-25.6c-15.9,0-24,13.2-24,31.7v61h-24.9V963h24v10.1h5.3c5.7-8.5,15.2-12.9,28.2-12.9
				c13.4,0,23.2,4.7,29,13.7h5.3c6.8-9.1,17.2-13.7,31-13.7C2971.2,960.1,2983.5,976.2,2983.5,1003.5z"/>
			<path class="st0" d="M2336.1,1209.3c10.4,4.7,19.6,17.4,19.6,31.7c0,28-18.4,46.2-54.6,46.2h-79.5v-157.4h77.1
				c34.4,0,52.9,18.1,52.9,43c0,13.4-6.4,25.2-15.4,30.2v6.3H2336.1L2336.1,1209.3z M2262.4,1163v27.2h30.6
				c10.8,0,16.4-4.4,16.4-13.4c0-9.1-5.5-13.7-16.8-13.7L2262.4,1163L2262.4,1163z M2294.4,1253.5c10.5,0,19.2-4.4,19.2-14.8
				c0-10.4-6.1-15.7-18.5-15.7h-32.6v30.5H2294.4z"/>
			<path class="st0" d="M2371.4,1127h38.4v160.2h-38.4V1127z"/>
			<path class="st0" d="M2533.2,1215v72.3h-35v-8.8h-6.1c-6.8,7.7-16.9,11.7-30.2,11.7c-12.1,0-22.1-3.7-29.3-11.2
				c-7.3-7.5-10.8-16.5-10.8-27.3c0-10.1,4-18.9,12.1-26.6c8.1-7.7,20.1-11.5,36.1-11.5h26.5v-2c0-9.7-5.3-14.5-15.7-14.5
				c-9.2,0-14.4,3.3-15.2,10h-37.9c0.3-11.2,5.1-20.1,14.5-26.9c9.5-6.8,21.6-10.1,36.4-10.1
				C2514.9,1169.9,2533.2,1184.8,2533.2,1215z M2496.4,1235.3h-18.5c-10.8,0-17.8,5.1-17.8,13.2c0,9.1,5.5,13.4,16.4,13.4
				c12.4,0,20.1-8.4,20.1-19.8L2496.4,1235.3L2496.4,1235.3z"/>
			<path class="st0" d="M2659,1246.3c-1.1,12.9-6.5,23.6-16.9,31.7c-10.1,8.1-22.8,12.1-37.7,12.1c-17.8,0-32.4-5.3-43.3-16.1
				c-10.8-10.8-16.1-25.6-16.1-44.1s5.3-33,16.1-43.8c10.8-10.8,25.3-16.4,43.3-16.4c14.8,0,27.2,3.7,37,11.5
				c10,7.7,15.4,17.6,16.5,30.2h-37.7c-2-6.8-7.3-10.4-15.7-10.4c-14.8,0-21.2,12-21.2,28.9c0,17.4,6.4,28.9,21.2,28.9
				c10,0,15.7-4.1,16.8-12.5H2659z"/>
			<path class="st0" d="M2793.5,1287.3h-39.7l-23.2-48.7h-6.1l-13.2,15.2v33.4h-38.6V1127h38.6v83.4l35.3-37.7h42.1l-32.4,35.4
				L2793.5,1287.3z"/>
		</g>
	</g>
	<g>
		<g>
			<g>
				<path class="st1" d="M1891.8,985.3c9.2,9.7,13.9,22.1,13.9,37.3c0,16.5-5.1,30-15.4,40.3c-10.4,10.1-23.6,15.2-39.7,15.2
					c-33.7,0-54.5-19.6-56.2-48.1h25.6c2,16.5,12.8,25.2,29.7,25.2c18.4,0,30.2-12.4,30.2-32c0-19.4-12-31.7-29.7-31.7
					c-12.1,0-21.3,4.4-27.6,12.9h-24.8l6.8-83.5h91.9v21.8h-71.6l-2.8,37.7h5.3c7.7-6.4,17.4-9.7,28.6-9.7
					C1870.9,970.7,1882.7,975.6,1891.8,985.3z"/>
				<path class="st1" d="M1975.8,917.9c17.6,0,31.7,6.5,42.5,20.1c10.8,13.4,16.1,33.4,16.1,60.2c0,26.6-5.3,46.7-16.1,60.2
					c-10.8,13.2-24.9,19.8-42.5,19.8c-17.6,0-31.7-6.5-42.5-19.8c-10.8-13.4-16.1-33.4-16.1-60.2c0-26.6,5.3-46.7,16.1-60.2
					C1944,924.4,1958.1,917.9,1975.8,917.9z M1975.8,1055.2c11.5,0,19.8-5.3,24.9-15.7c5.3-10.4,8-24.2,8-41.4s-2.7-31-8-41.4
					c-5.1-10.5-13.4-15.9-24.9-15.9c-11.5,0-19.8,5.3-25.2,15.9c-5.1,10.4-7.7,24.2-7.7,41.4s2.7,31,7.7,41.4
					C1956,1049.9,1964.2,1055.2,1975.8,1055.2z"/>
				<path class="st1" d="M2105,917.9c17.6,0,31.7,6.5,42.5,20.1c10.8,13.4,16.1,33.4,16.1,60.2c0,26.6-5.3,46.7-16.1,60.2
					c-10.8,13.2-24.9,19.8-42.5,19.8c-17.6,0-31.7-6.5-42.5-19.8c-10.8-13.4-16.1-33.4-16.1-60.2c0-26.6,5.3-46.7,16.1-60.2
					C2073.2,924.4,2087.3,917.9,2105,917.9z M2105,1055.2c11.5,0,19.8-5.3,24.9-15.7c5.3-10.4,8-24.2,8-41.4s-2.7-31-8-41.4
					c-5.1-10.5-13.4-15.9-24.9-15.9c-11.5,0-19.8,5.3-25.2,15.9c-5.1,10.4-7.7,24.2-7.7,41.4s2.7,31,7.7,41.4
					C2085,1049.9,2093.4,1055.2,2105,1055.2z"/>
			</g>
			<g>
				<path class="st1" d="M1808.8,1222.4c-9.5-9.5-14.4-21.8-14.4-36.9c0-15.7,5.5-28.6,16.4-39.4c10.8-10.8,25.2-16.1,42.8-16.1
					c36.4,0,64.3,20.8,64.3,78c0,25.3-5.3,45.4-16.1,60.2c-10.8,14.8-26.9,22.1-48.5,22.1c-14.4,0-26.9-4.1-37.3-12.5
					c-10.4-8.5-16.4-18.8-17.8-30.9h39.3c1.7,8,7.5,12,16.9,12c14.4,0,24.5-10.1,26-32.9h-6.3c-6.5,7.3-16.5,10.8-30,10.8
					C1830.5,1236.6,1818.7,1231.8,1808.8,1222.4z M1834,1184.4c0,7.1,1.7,12.5,5.5,16.5c3.7,3.7,8.8,5.7,15.2,5.7s11.2-2,14.9-5.7
					c3.7-3.7,5.7-9.2,5.7-16.4c0-14.1-8.4-22.9-20.8-22.9C1842.1,1161.8,1834,1170,1834,1184.4z"/>
				<path class="st1" d="M1989.8,1129.9c18.8,0,34,6.5,45.4,19.8c11.5,13.2,17.2,33.3,17.2,60.2s-5.7,47-17.2,60.3
					c-11.5,13.2-26.6,19.8-45.4,19.8c-18.8,0-34-6.5-45.4-19.8c-11.5-13.4-17.2-33.4-17.2-60.3s5.7-47,17.2-60.2
					C1956,1136.6,1971.1,1129.9,1989.8,1129.9z M1989.8,1164.6c-15.4,0-23.2,15.2-23.2,45.4c0,30.5,7.7,45.7,23.2,45.7
					c15.4,0,23.2-15.2,23.2-45.7C2013,1179.8,2005.4,1164.6,1989.8,1164.6z"/>
				<path class="st1" d="M2124.3,1129.9c18.8,0,34,6.5,45.4,19.8c11.5,13.2,17.2,33.3,17.2,60.2s-5.7,47-17.2,60.3
					c-11.5,13.2-26.6,19.8-45.4,19.8c-18.8,0-34-6.5-45.4-19.8c-11.5-13.4-17.2-33.4-17.2-60.3s5.7-47,17.2-60.2
					C2090.3,1136.6,2105.5,1129.9,2124.3,1129.9z M2124.3,1164.6c-15.4,0-23.2,15.2-23.2,45.4c0,30.5,7.7,45.7,23.2,45.7
					c15.4,0,23.2-15.2,23.2-45.7C2147.5,1179.8,2139.7,1164.6,2124.3,1164.6z"/>
			</g>
		</g>
	</g>
</g>
<g>
	<g>
		<g>
			<path class="st0" d="M941.3,1064.6h90.6v13.7H926.8V920.9h14.5L941.3,1064.6L941.3,1064.6z"/>
			<path class="st0" d="M1063.7,935.4h-15.2v-17.4h15.2V935.4z M1063,968.2v110.1H1049V968.2L1063,968.2L1063,968.2z"/>
			<path class="st0" d="M1172.3,968.2h13.4v104.7c0,31-18.8,50.9-49.8,50.9c-27.3,0-44.7-12-48.5-32.4h13.7
				c3.3,13.4,14.8,20.1,34.6,20.1c24,0,36.1-13.9,36.1-38.6v-9.7h-4.4c-8.1,10.1-19.8,15.2-35,15.2c-14.9,0-26.9-5.3-35.9-15.9
				c-9.1-10.5-13.4-24-13.4-40.6c0-16.5,4.4-30,13.4-40.6c9.1-10.8,20.9-16.1,35.9-16.1c15.2,0,27.2,5.1,35.4,15.2h4.4L1172.3,968.2
				L1172.3,968.2z M1162.2,1053.4c6.4-8.5,9.7-18.9,9.7-31.6s-3.3-22.9-9.7-31.6c-6.4-8.5-15.9-12.8-28.2-12.8
				c-23.2,0-37,17.2-37,44.3c0,26.6,13.9,44.1,37,44.1C1146.2,1065.9,1155.8,1061.8,1162.2,1053.4z"/>
			<path class="st0" d="M1307,1078.3h-13.9v-67.7c0-22.1-10.1-33-30.6-33c-10.5,0-19.4,4-26.2,12c-6.8,8-10.1,17.4-10.1,28.5v60.3
				h-13.9V918.1h13.9v62.3h4.4c6.1-8.8,19.6-15.2,34-15.2c26.5,0,42.5,16.4,42.5,42.1v71H1307z"/>
			<path class="st0" d="M1353.3,968.2h29.3v12.4h-29.3v66.7c0,12.9,6,18.8,21.8,18.8h7.5v12.4h-7.7c-24,0-35.4-8.4-35.4-29.6v-68.3
				h-20.3v-12.4h20.2V934h13.9V968.2z"/>
			<path class="st0" d="M995.8,1133.1c33.3,0,51.8,16.9,51.8,45.8c0,19.4-8.1,33.3-24,40.3l25.2,71.1h-20.5l-23.6-66.6
				c-4.1,0.4-8.5,0.7-12.8,0.7H946v65.9h-19.8v-157.2H995.8z M992.8,1206.9c25.3,0,34.6-10.5,34.6-28c0-17.6-9.2-28.2-34.6-28.2h-47
				v56.2H992.8z"/>
			<path class="st0" d="M1165.7,1234.7h-84.7c0.7,26.5,12.5,42.3,35.4,42.3c15.7,0,24.9-6.5,28.2-17.2h18.9
				c-3.6,18.9-19.6,33.4-47.1,33.4c-34.6,0-54.1-25.3-54.1-59.5s19.8-57.3,53.5-57.3c33,0,49,24.5,49.7,51.8L1165.7,1234.7
				L1165.7,1234.7z M1082.2,1219h64.2c-1.1-14.1-12-26.2-30.6-26.2C1095.6,1192.9,1084.6,1204.9,1082.2,1219z"/>
			<path class="st0" d="M1283.1,1179.3v105.6c0,31-19.4,51.1-51.8,51.1c-28.5,0-47-12-50.2-34h18.5c3.3,13.2,14.8,18.1,31.6,18.1
				c22.9,0,33.3-13.9,33.3-36.1v-8.7h-4.8c-6,7.7-16.5,14.8-33.3,14.8c-30.6,0-49.4-24.2-49.4-56.6c0-32.6,18.8-56.9,49.4-56.9
				c17.4,0,28,7.1,34,14.8h4.8v-12H1283.1L1283.1,1179.3z M1264.9,1233.4c0-21.3-11.2-40.6-35-40.6c-21.8,0-34.2,16.1-34.2,40.6
				c0,24,12.4,40.3,34.2,40.3C1253.7,1273.7,1264.9,1254.5,1264.9,1233.4z"/>
			<path class="st0" d="M1325.2,1179.3v66.6c0,20.5,9.5,30.6,28.2,30.6c19.6,0,33-16.9,33-37v-60.2h18.8v111.1h-18.1v-12h-4.8
				c-6.1,8.5-18.5,14.8-33.4,14.8c-27.3,0-42.3-16.8-42.3-43.4v-70.6H1325.2z"/>
			<path class="st0" d="M1449.2,1130.2v160.2h-18.8v-160.2H1449.2z"/>
			<path class="st0" d="M1545.1,1278.8h-4.8c-6.8,8.5-18.8,14.5-34.6,14.5c-25.6,0-39.8-17.2-39.8-36.1c0-17.8,11.7-36.9,42.5-36.9
				h36.1v-4.4c0-13.4-7.7-23.2-27.2-23.2c-16.5,0-24.9,6.4-25.8,16.1h-18.8c1.6-20.5,19.2-32.4,44.1-32.4c28,0,45.8,13.4,45.8,38.4
				v75.6h-17.6V1278.8L1545.1,1278.8z M1544.4,1245.5v-10.1h-33.3c-18.4,0-26.6,8-26.6,21.2c0,12.5,9.2,20.5,25.8,20.5
				C1528.7,1277,1544.4,1263.1,1544.4,1245.5z"/>
			<path class="st0" d="M1649.5,1197h-9.2c-22.1,0-35.4,13.4-35.4,37.9v55.5h-18.8v-111.1h18.1v13.2h4.8
				c5.5-6.8,16.1-13.2,32.2-13.2h8.4V1197z"/>
		</g>
	</g>
	<g>
		<g>
			<g>
				<path class="st1" d="M507.1,924.1h86.7v17.2l-42.3,37.4v4.4c14.5,0,26.5,4.1,35.4,12.8c9.1,8.4,13.7,20.1,13.7,35
					c0,15.7-4.8,27.7-14.8,36.9c-10,9.1-22.5,13.4-37.9,13.4c-14.8,0-26.9-4.1-36.6-12.5c-9.5-8.4-14.8-18.9-15.4-32h14.4
					c0.7,9.5,4.7,16.9,11.7,22.9c7.3,6,15.9,8.8,26,8.8c22.9,0,38.4-14.5,38.4-37.4c0-22.2-14.1-35.7-38.1-35.7
					c-5.5,0-9.7,0.4-12.9,1.3v-18.1l41.4-37.3v-4.4h-69.7C507.1,936.7,507.1,924.1,507.1,924.1z"/>
				<path class="st1" d="M668.5,920.9c16.8,0,30.2,6.8,40.1,20.3c10.1,13.4,15.2,33.3,15.2,59.9c0,26.6-5.1,46.5-15.2,59.9
					c-10,13.4-23.3,20.1-40.1,20.1s-30.2-6.5-40.3-20.1c-10-13.4-14.9-33.3-14.9-59.9c0-26.6,5.1-46.5,14.9-59.9
					C638.3,927.8,651.8,920.9,668.5,920.9z M668.5,1068.3c13.4,0,23.6-5.7,30.5-17.2c7.1-11.5,10.5-28.2,10.5-50.1
					c0-21.8-3.6-38.6-10.5-50.1c-6.8-11.5-16.9-17.2-30.5-17.2c-13.4,0-23.6,5.7-30.6,17.4c-6.8,11.5-10.4,28.2-10.4,50.1
					c0,21.8,3.6,38.6,10.4,50.1C645,1062.7,655.1,1068.3,668.5,1068.3z"/>
				<path class="st1" d="M793.3,920.9c16.8,0,30.2,6.8,40.1,20.3c10.1,13.4,15.2,33.3,15.2,59.9c0,26.6-5.1,46.5-15.2,59.9
					c-10,13.4-23.3,20.1-40.1,20.1s-30.2-6.5-40.3-20.1c-10-13.4-14.9-33.3-14.9-59.9c0-26.6,5.1-46.5,14.9-59.9
					C763.1,927.8,776.5,920.9,793.3,920.9z M793.3,1068.3c13.4,0,23.6-5.7,30.5-17.2c7.1-11.5,10.5-28.2,10.5-50.1
					c0-21.8-3.6-38.6-10.5-50.1c-6.8-11.7-16.9-17.4-30.5-17.4c-13.4,0-23.6,5.7-30.6,17.4c-6.8,11.5-10.4,28.2-10.4,50.1
					c0,21.8,3.6,38.6,10.4,50.1C769.6,1062.7,779.9,1068.3,793.3,1068.3z"/>
			</g>
			<g>
				<path class="st1" d="M612.4,1237.1v17.2h-21.2v36.1h-18.9v-36.1H496v-22.1l68.2-96.1h27.2v100.9H612.4z M572.6,1237.1V1158h-4.8
					l-51.4,74.3v4.8L572.6,1237.1L572.6,1237.1z"/>
				<path class="st1" d="M736.9,1213.3c0,55.5-24.2,80-56.9,80c-32.6,0-56.6-24.5-56.6-80s24-80.3,56.6-80.3
					C712.7,1133.1,736.9,1157.7,736.9,1213.3z M717.6,1213.3c0-38.4-11.7-63-37.4-63c-25.6,0-37.3,24.6-37.3,63
					c0,38.1,11.7,62.8,37.3,62.8C705.9,1276.1,717.6,1251.5,717.6,1213.3z"/>
				<path class="st1" d="M863.7,1213.3c0,55.5-24.2,80-56.9,80c-32.6,0-56.6-24.5-56.6-80s24-80.3,56.6-80.3
					C839.5,1133.1,863.7,1157.7,863.7,1213.3z M844.3,1213.3c0-38.4-11.7-63-37.4-63c-25.6,0-37.3,24.6-37.3,63
					c0,38.1,11.7,62.8,37.3,62.8C832.7,1276.1,844.3,1251.5,844.3,1213.3z"/>
			</g>
		</g>
	</g>
</g>
<g>
	<g id="XMLID_13_">
		<g>
			<path id="XMLID_74_" class="st0" d="M1552.2,333.3c-12.9-55.6-56.4-83.2-130-83.2c-69.3,0-118.7,29.5-118.7,84.1
				c0,45.9,33.8,65,90.2,76.3l56.4,11.3l59.9,11.3c108.3,23.4,162.2,83.2,162.2,177.8c0,53.7-20.7,98.8-63.3,135.3
				c-41.6,36.5-101.5,54.6-178.6,54.6c-73.6,0-133.5-17.4-179.4-52.9c-45.9-35.5-71.1-81.4-77.1-139.6h105.8
				c11.3,67.7,63.3,101.5,155.2,101.5c78.9,0,132.7-35.5,132.7-94.5c0-54.6-32-78.1-93.7-91.9c-8.6-2.7-30.3-7-65.8-12.9
				c-35.5-7-53.7-10.4-54.6-10.4c-98-18.2-154.4-72.8-154.4-163c0-51.1,19.9-93.7,59.9-127.4c40.3-34,95-50.4,165.2-50.4
				c130.8,0,220.2,67.7,234.2,174.3H1552.2z"/>
			<path id="XMLID_1_" class="st0" d="M2003.9,789.3v-40.8h-20.7c-26.9,34.7-70.1,52.1-130,52.1c-48.6,0-86.7-13.9-115.3-41.6
				c-28.7-28.7-42.5-62.4-42.5-103.1c0-39.8,14.8-74.6,43.3-104c28.5-29.4,72.8-44.3,131.8-44.3h130v-12.9
				c0-51.1-30.3-80.6-92.7-80.6c-54.6,0-84.1,19.1-88.4,56.4h-97.2c4.3-82.4,77.1-133.5,182.1-133.5c118.7,0,190.7,52.9,190.7,159.5
				v293L2003.9,789.3L2003.9,789.3z M1966.6,688.7c22.6-21.7,33.8-47.8,33.8-78.1v-33.7h-112.8c-61.5,0-93.7,26.9-93.7,72.8
				c0,45.1,33,71.1,89.2,71.1C1916.3,720.8,1944,710.4,1966.6,688.7z"/>
			<path id="XMLID_69_" class="st0" d="M2562.1,789.3h-98V532.6c0-72-33-108.3-98-108.3c-33.8,0-61.5,12.9-83.2,38.1
				c-20.7,25.2-31.2,55.6-31.2,91v235.8h-98V348h94.5v42.5h20.7c26.9-35.5,69.3-53.7,127.4-53.7c107.5,0,165.7,65.8,165.7,176.8
				L2562.1,789.3L2562.1,789.3z"/>
			<path id="XMLID_67_" class="st0" d="M2873.3,466c-5.1-32-33.8-47.8-86.7-47.8s-79.8,15.6-79.8,45.9c0,26.9,17.4,37.3,56.4,44.3
				l85.9,13.9c89.2,14.8,134.3,59.9,134.3,137c0,39-16.4,72.8-50.2,100.5c-33,26.9-78.9,40.8-138.6,40.8
				c-124.9,0-192.5-54.6-202-144.8h98c7.8,42.5,41.6,63.3,102.3,63.3c61.5,0,92.7-19.1,92.7-57.2c0-33.8-20.7-49.4-72-58.9
				l-91.9-15.6c-69.3-11.3-112.8-50.2-112.8-116.2c0-78.9,62.4-134.3,181.3-134.3c105,0,171.6,50.2,181.3,129.2L2873.3,466
				L2873.3,466z"/>
		</g>
	</g>
	<g id="XMLID_928_">
		<path id="XMLID_929_" class="st1" d="M967.6,789.3l-57.2-177.8H656.4L600,789.3H496l205.5-619H868l206.3,619L967.6,789.3
			L967.6,789.3z M763.8,271.8l-78.1,247.1h194.2l-78.8-247.1H763.8z"/>
	</g>
</g>
</svg>
