<?xml version="1.0" encoding="utf-8"?>
<!-- Generator: Adobe Illustrator 19.0.0, SVG Export Plug-In . SVG Version: 6.00 Build 0)  -->
<svg version="1.1" id="Layer_1_copy" xmlns="http://www.w3.org/2000/svg" xmlns:xlink="http://www.w3.org/1999/xlink" x="0px"
	 y="0px" viewBox="384 -438 2048 2156" style="enable-background:new 384 -438 2048 2156;" xml:space="preserve">
<style type="text/css">
	.st0{fill:#FFFFFF;}
	.st1{fill:none;stroke:#2BB9AF;stroke-width:2;stroke-miterlimit:10;}
	.st2{fill:#101010;}
	.st3{fill:#2BB9AF;}
</style>
<rect id="XMLID_158_" x="384" y="-438" class="st0" width="2048" height="2156"/>
<g id="XMLID_135_">
	<g id="XMLID_144_">
		<rect id="XMLID_155_" x="386" y="682" class="st1" width="1283.6" height="1033"/>
		<line id="XMLID_149_" class="st1" x1="1241.7" y1="682" x2="1241.7" y2="1715"/>
		<line id="XMLID_146_" class="st1" x1="813.9" y1="682" x2="813.9" y2="1715"/>
	</g>
	<g id="XMLID_13562_">
		<path id="XMLID_13563_" class="st2" d="M467.9,749.2c-7.4,0-11.7,2.8-12.8,8.3h-10.8c1.3-11.1,10.2-17.8,23.6-17.8
			c7,0,12.5,1.6,16.4,4.8c3.9,3.1,5.9,7.1,5.9,11.9c0,6-2.2,10-6.4,12.4v2.1c5.8,2.3,8.7,7,8.7,14.2c0,5.4-2.2,9.9-6.5,13.4
			c-4.3,3.6-10.3,5.4-17.8,5.4c-15.7,0-24.6-7-26.3-19.1h10.9c1.6,6.4,6.8,9.6,15.5,9.6c8.1,0,13.4-3.7,13.4-9.7
			c0-6.2-4.2-9.4-12.4-9.4h-9.5V766h9.5c7.2,0,10.2-3.5,10.2-8.4C479.6,752.2,474.8,749.2,467.9,749.2z"/>
		<path id="XMLID_13565_" class="st2" d="M527.7,802.7v-4.1h-2.1c-2.7,3.5-7,5.2-13,5.2c-4.8,0-8.7-1.4-11.5-4.2
			c-2.9-2.9-4.2-6.2-4.2-10.3c0-4,1.5-7.4,4.3-10.4c2.8-3,7.3-4.4,13.2-4.4h13v-1.3c0-5.1-3-8.1-9.3-8.1c-5.5,0-8.4,1.9-8.8,5.6
			h-9.7c0.4-8.2,7.7-13.3,18.2-13.3c11.9,0,19.1,5.3,19.1,15.9v29.3h-9.2V802.7z M524,792.7c2.3-2.2,3.4-4.8,3.4-7.8v-3.4h-11.3
			c-6.1,0-9.4,2.7-9.4,7.3c0,4.5,3.3,7.1,8.9,7.1C519,795.9,521.7,794.9,524,792.7z"/>
		<path id="XMLID_13686_" class="st2" d="M546.3,802.7v-44.1h34.4v8.3H556v35.8L546.3,802.7L546.3,802.7z"/>
		<path id="XMLID_13924_" class="st2" d="M620.7,797.5c-4,4.2-9.4,6.4-16.2,6.4s-12.2-2.2-16.3-6.4c-4-4.3-6-10-6-16.8
			s2-12.4,6-16.6c4.1-4.3,9.4-6.5,16.3-6.5s12.2,2.2,16.2,6.5c4.1,4.2,6.1,9.8,6.1,16.6S624.8,793.1,620.7,797.5z M604.5,765.8
			c-8.1,0-12.5,6.5-12.5,14.8c0,8.4,4.4,14.9,12.5,14.9S617,789,617,780.6C617,772.3,612.6,765.8,604.5,765.8z"/>
		<path id="XMLID_13927_" class="st2" d="M629.5,802.7v-9.3h1.6c6,0,8.4-4.2,8.4-17v-17.8h35.7v44.1h-9.8V767h-16.9v9.8
			c0,9.5-1.4,16.3-4.2,20.2c-2.7,3.9-7.1,5.8-13.2,5.8h-1.6V802.7z"/>
		<path id="XMLID_13929_" class="st2" d="M721,797.5c-4,4.2-9.4,6.4-16.2,6.4s-12.2-2.2-16.3-6.4c-4-4.3-6-10-6-16.8s2-12.4,6-16.6
			c4.1-4.3,9.4-6.5,16.3-6.5s12.2,2.2,16.2,6.5c4.1,4.2,6.1,9.8,6.1,16.6S725.1,793.1,721,797.5z M704.8,765.8
			c-8.1,0-12.5,6.5-12.5,14.8c0,8.4,4.4,14.9,12.5,14.9s12.5-6.5,12.5-14.9C717.3,772.3,712.9,765.8,704.8,765.8z"/>
		<path id="XMLID_13932_" class="st2" d="M767.1,780.4c4.4,1.1,7.4,4.8,7.4,10.2c0,8-5.5,12.1-15.6,12.1h-24.3v-44.1h23.6
			c8.9,0,13.9,4.2,13.9,11.2c0,3.9-2.2,7.2-4.9,8.6v2H767.1z M744.1,766.1v10.4H756c4.2,0,6.2-2.2,6.2-5.2c0-3.5-2.1-5.2-6.2-5.2
			L744.1,766.1L744.1,766.1z M757,795.3c5,0,7.5-1.9,7.5-5.8s-2.5-5.9-7.5-5.9h-12.9v11.7L757,795.3L757,795.3z"/>
		<path id="XMLID_13936_" class="st2" d="M817.7,797.5c-4,4.2-9.4,6.4-16.2,6.4s-12.2-2.2-16.3-6.4c-4-4.3-6-10-6-16.8
			s2-12.4,6-16.6c4.1-4.3,9.4-6.5,16.3-6.5s12.2,2.2,16.2,6.5c4.1,4.2,6.1,9.8,6.1,16.6S821.8,793.1,817.7,797.5z M801.5,765.8
			c-8.1,0-12.5,6.5-12.5,14.8c0,8.4,4.4,14.9,12.5,14.9S814,789,814,780.6C814,772.3,809.6,765.8,801.5,765.8z"/>
		<path id="XMLID_13939_" class="st2" d="M861.7,802.7l-9.4-18.4H841v18.4h-9.8v-44.1h9.8v17.3h11.5l8.8-17.3h10l-10.8,21.2
			l11.4,22.9H861.7z"/>
		<path id="XMLID_13941_" class="st2" d="M889.2,802.7H878v-11.6h11.2V802.7z"/>
		<path id="XMLID_13943_" class="st2" d="M472.2,832.9c9.3,0,16.5,3,21.6,9c5.2,6,7.8,13.7,7.8,23c0,9.4-2.6,17.1-7.8,23
			c-5.1,6-12.4,9-21.6,9c-9.2,0-16.5-3-21.7-9s-7.8-13.7-7.8-23c0-9.4,2.6-17.1,7.8-23C455.7,835.9,463,832.9,472.2,832.9z
			 M472.2,887.5c6.2,0,10.9-2.2,14.1-6.4c3.2-4.2,4.8-9.7,4.8-16.2s-1.6-12-4.8-16.2c-3.2-4.2-7.9-6.4-14.1-6.4
			c-6.2,0-11,2.2-14.2,6.4c-3.2,4.2-4.8,9.7-4.8,16.2s1.6,12,4.8,16.2C461.2,885.4,466,887.5,472.2,887.5z"/>
		<path id="XMLID_13946_" class="st2" d="M549.5,887.5h8v20.7h-9.4v-12.4h-35.3v12.4h-9.4v-20.7h6.2c3-7.2,4.6-15,4.6-23.4v-12.4
			h35.2L549.5,887.5L549.5,887.5z M539.7,887.5v-27.4h-16.5v4.2c0,8.7-1.3,16.5-4,23.3L539.7,887.5L539.7,887.5z"/>
		<path id="XMLID_13949_" class="st2" d="M574.1,895.8H563v-44.1h9.5v29.1h2.1l18.1-29.1H604v44.1h-9.5v-29.1h-2.1L574.1,895.8z"/>
		<path id="XMLID_13951_" class="st2" d="M654.9,895.8h-9.8v-18.4h-21.3v18.4H614v-44.1h9.8V869h21.3v-17.3h9.8V895.8z"/>
		<path id="XMLID_13953_" class="st2" d="M718.1,873.5c4.4,1.1,7.4,4.8,7.4,10.2c0,8-5.5,12.1-15.6,12.1h-24.3v-44.1h23.6
			c8.9,0,13.9,4.2,13.9,11.2c0,3.9-2.2,7.2-4.9,8.6v2H718.1z M695.2,859.2v10.4h11.9c4.2,0,6.2-2.2,6.2-5.2c0-3.5-2.1-5.2-6.2-5.2
			L695.2,859.2L695.2,859.2z M708.1,888.4c5,0,7.5-1.9,7.5-5.8s-2.5-5.9-7.5-5.9h-12.9v11.7L708.1,888.4L708.1,888.4z"/>
		<path id="XMLID_13957_" class="st2" d="M772.6,874.6H740c0.3,9.4,4.4,14,12.4,14c5.1,0,8.3-1.9,9.6-5.6h10
			c-1.7,8.4-8.6,13.9-19.7,13.9c-6.8,0-12.2-2.2-16.1-6.5c-3.9-4.3-5.9-10-5.9-17s1.9-12.6,5.8-16.6c3.9-4.2,9.3-6.2,15.9-6.2
			c6.3,0,11.3,2,14.9,5.9s5.5,8.8,5.6,14.8L772.6,874.6L772.6,874.6z M740.5,867.3h22.1c-0.7-5.2-4.4-8.9-10.6-8.9
			C745.5,858.4,741.6,861.9,740.5,867.3z"/>
		<path id="XMLID_13960_" class="st2" d="M818.6,881.7c-1.4,9.3-8.9,15.2-19.4,15.2c-6.8,0-12.1-2.2-16-6.4
			c-3.9-4.2-5.8-9.9-5.8-16.8c0-6.8,1.9-12.5,5.8-16.7s9.3-6.4,16-6.4c10.5,0,17.8,5.8,19.1,14.5h-9.7c-1.3-4.2-4.4-6.2-9.3-6.2
			c-8.2,0-12.1,6.1-12.1,14.7c0,8.7,3.9,15,12.1,15c5.4,0,8.6-2.3,9.6-6.9L818.6,881.7L818.6,881.7z"/>
		<path id="XMLID_13962_" class="st2" d="M895.6,851.8h9.5v44.1h-58.8v-44.1h9.5v35.8H871v-35.8h9.4v35.8h15.2V851.8z"/>
		<path id="XMLID_13964_" class="st2" d="M915.1,851.8h9.4v4.2h2.1c2.9-3.6,7.2-5.4,13-5.4s10.5,2.2,13.9,6.5
			c3.5,4.3,5.2,9.9,5.2,16.6c0,6.8-1.7,12.4-5.2,16.7c-3.4,4.3-8.1,6.5-13.9,6.5c-5.7,0-10-1.8-12.6-5.4h-2.1v21.6h-9.8L915.1,851.8
			L915.1,851.8z M924.7,873.8c0,8.4,4.2,14.9,12.2,14.9c7.7,0,12-6,12-14.9s-4.3-14.8-12-14.8C928.8,858.9,924.7,865.4,924.7,873.8z
			"/>
		<path id="XMLID_13967_" class="st2" d="M977.2,895.8h-11.1v-44.1h9.5v29.1h2.1l18.1-29.1h11.3v44.1h-9.5v-29.1h-2.1L977.2,895.8z"
			/>
		<path id="XMLID_13969_" class="st2" d="M1047.7,913.2h-9.6v-17.3h-1c-7-0.1-12.6-2.1-16.5-6.1c-3.9-4.1-5.9-9.4-5.9-15.9
			s1.9-11.7,5.8-15.8c3.9-4.1,9.4-6.1,16.4-6.2h1.3V833h9.6v18.9h1.3c6.9,0.1,12.4,2.2,16.3,6.2c3.9,4.1,5.9,9.3,5.9,15.8
			c0,13.5-8.6,22.1-23.5,22.1v17.2H1047.7z M1037,888h1.1v-28.3h-1c-8.3,0.1-12.8,6.1-12.8,14.1C1024.2,882,1028.7,887.9,1037,888z
			 M1047.7,888h1c8.3-0.1,12.9-6,12.9-14.2c0-8.1-4.6-14-12.9-14.1h-1V888z"/>
		<path id="XMLID_13973_" class="st2" d="M1073.6,860.1v-8.3h39.5v8.3h-14.8v35.8h-9.8v-35.8H1073.6z"/>
		<path id="XMLID_13975_" class="st2" d="M1146.5,895.8v-4.1h-2.1c-2.7,3.5-7,5.2-13,5.2c-4.8,0-8.7-1.4-11.5-4.2
			c-2.9-2.9-4.2-6.2-4.2-10.3c0-4,1.5-7.4,4.3-10.4s7.3-4.4,13.2-4.4h13v-1.3c0-5.1-3-8.1-9.3-8.1c-5.5,0-8.4,1.9-8.8,5.6h-9.7
			c0.4-8.2,7.7-13.3,18.2-13.3c11.9,0,19.1,5.3,19.1,15.9v29.3h-9.2V895.8z M1142.8,885.8c2.3-2.2,3.4-4.8,3.4-7.8v-3.4h-11.3
			c-6.1,0-9.4,2.7-9.4,7.3c0,4.5,3.3,7.1,8.9,7.1C1137.8,889,1140.5,888,1142.8,885.8z"/>
		<path id="XMLID_13978_" class="st2" d="M1175.8,895.8h-11.2v-11.6h11.2V895.8z"/>
		<path id="XMLID_13980_" class="st2" d="M487.3,957.6c4.8,2.2,8.3,7.5,8.3,13.7c0,10.5-7.4,17.7-21.1,17.7h-28.8v-61.8h28
			c6.4,0,11.3,1.6,14.8,4.6c3.6,3,5.3,6.8,5.3,11.4c0,5.9-2.2,10-6.5,12.4V957.6z M472.7,952.5c6.9,0,10.4-2.8,10.4-8.2
			c0-5.5-3.5-8.1-10.4-8.1h-16.6v16.4h16.6V952.5z M473.1,979.9c7.9,0,11.9-3.1,11.9-9.4c0-6.1-4-9.3-11.9-9.3h-17v18.6h17V979.9z"
			/>
		<path id="XMLID_13984_" class="st2" d="M503.2,944.9h9.8v13.7h11c11,0,17.1,5.5,17.1,15c0,9.6-6.1,15.4-17.1,15.4h-20.8V944.9z
			 M513,966.4v14.2h9.6c6.3,0,8.7-2.5,8.7-7.1c0-4.8-2.4-7.1-8.7-7.1H513z M548,944.9h9.8V989H548V944.9z"/>
		<path id="XMLID_13988_" class="st2" d="M567.8,944.9h9.4v4.2h2.1c2.9-3.6,7.2-5.4,13-5.4s10.5,2.2,13.9,6.5
			c3.5,4.3,5.2,9.9,5.2,16.6c0,6.8-1.7,12.4-5.2,16.7c-3.4,4.3-8.1,6.5-13.9,6.5c-5.7,0-10-1.8-12.6-5.4h-2.1v21.6h-9.8V944.9
			L567.8,944.9z M577.3,966.9c0,8.4,4.2,14.9,12.2,14.9c7.7,0,12-6,12-14.9s-4.3-14.8-12-14.8C581.5,952,577.3,958.5,577.3,966.9z"
			/>
		<path id="XMLID_13991_" class="st2" d="M646.4,988.9v-4.1h-2.1c-2.7,3.5-7,5.2-13,5.2c-4.8,0-8.7-1.4-11.5-4.2
			c-2.9-2.9-4.2-6.2-4.2-10.3c0-4,1.5-7.4,4.3-10.4c2.8-3,7.3-4.4,13.2-4.4h13v-1.3c0-5.1-3-8.1-9.3-8.1c-5.5,0-8.4,1.9-8.8,5.6
			h-9.7c0.4-8.2,7.7-13.3,18.2-13.3c11.9,0,19.1,5.3,19.1,15.9v29.3h-9.2V988.9z M642.6,978.9c2.3-2.2,3.4-4.8,3.4-7.8v-3.4h-11.3
			c-6.1,0-9.4,2.7-9.4,7.3c0,4.5,3.3,7.1,8.9,7.1C637.6,982.1,640.4,981.1,642.6,978.9z"/>
		<path id="XMLID_13994_" class="st2" d="M697.4,966.6c4.4,1.1,7.4,4.8,7.4,10.2c0,8-5.5,12.1-15.6,12.1h-24.3v-44.1h23.6
			c8.9,0,13.9,4.2,13.9,11.2c0,3.9-2.2,7.2-4.9,8.6L697.4,966.6L697.4,966.6z M674.5,952.3v10.4h11.9c4.2,0,6.2-2.2,6.2-5.2
			c0-3.5-2.1-5.2-6.2-5.2L674.5,952.3L674.5,952.3z M687.4,981.5c5,0,7.5-1.9,7.5-5.8s-2.5-5.9-7.5-5.9h-12.9v11.7L687.4,981.5
			L687.4,981.5z"/>
		<path id="XMLID_13998_" class="st2" d="M753.1,988.9h-9.8v-18.4H722v18.4h-9.8v-44.1h9.8v17.3h21.3v-17.3h9.8V988.9L753.1,988.9z"
			/>
		<path id="XMLID_14000_" class="st2" d="M774.3,988.9h-11.1v-44.1h9.5v29.1h2.1l18.1-29.1h11.3v44.1h-9.5v-29.1h-2.1L774.3,988.9z"
			/>
		<path id="XMLID_14002_" class="st2" d="M846.8,966.6c4.4,1.1,7.4,4.8,7.4,10.2c0,8-5.5,12.1-15.6,12.1h-24.3v-44.1h23.6
			c8.9,0,13.9,4.2,13.9,11.2c0,3.9-2.2,7.2-4.9,8.6v2H846.8z M823.9,952.3v10.4h11.9c4.2,0,6.2-2.2,6.2-5.2c0-3.5-2.1-5.2-6.2-5.2
			L823.9,952.3L823.9,952.3z M836.8,981.5c5,0,7.5-1.9,7.5-5.8s-2.5-5.9-7.5-5.9h-12.9v11.7L836.8,981.5L836.8,981.5z"/>
		<path id="XMLID_14006_" class="st2" d="M889.2,988.9v-4.1h-2.1c-2.7,3.5-7,5.2-13,5.2c-4.8,0-8.7-1.4-11.5-4.2
			c-2.9-2.9-4.2-6.2-4.2-10.3c0-4,1.5-7.4,4.3-10.4c2.8-3,7.3-4.4,13.2-4.4h13v-1.3c0-5.1-3-8.1-9.3-8.1c-5.5,0-8.4,1.9-8.8,5.6H861
			c0.4-8.2,7.7-13.3,18.2-13.3c11.9,0,19.1,5.3,19.1,15.9v29.3h-9.1V988.9z M885.4,978.9c2.3-2.2,3.4-4.8,3.4-7.8v-3.4h-11.3
			c-6.1,0-9.4,2.7-9.4,7.3c0,4.5,3.3,7.1,8.9,7.1C880.4,982.1,883.2,981.1,885.4,978.9z"/>
		<path id="XMLID_14009_" class="st2" d="M948.6,988.9h-9.8v-18.4h-21.3v18.4h-9.8v-44.1h9.8v17.3h21.3v-17.3h9.8V988.9z"/>
		<path id="XMLID_14011_" class="st2" d="M969.7,988.9h-11.1v-44.1h9.5v29.1h2.1l18.1-29.1h11.3v44.1h-9.5v-29.1H988L969.7,988.9z"
			/>
		<path id="XMLID_14013_" class="st2" d="M1049.4,967.7h-32.6c0.3,9.4,4.4,14,12.4,14c5.1,0,8.3-1.9,9.6-5.6h10
			c-1.7,8.4-8.6,13.9-19.7,13.9c-6.8,0-12.2-2.2-16.1-6.5c-3.9-4.3-5.9-10-5.9-17s1.9-12.6,5.8-16.6c3.9-4.2,9.3-6.2,15.9-6.2
			c6.3,0,11.3,2,14.9,5.9s5.5,8.8,5.6,14.8L1049.4,967.7L1049.4,967.7z M1017.2,960.4h22.1c-0.7-5.2-4.4-8.9-10.6-8.9
			C1022.3,951.5,1018.4,955,1017.2,960.4z"/>
		<path id="XMLID_14016_" class="st2" d="M1109.9,966.6c4.4,1.1,7.4,4.8,7.4,10.2c0,8-5.5,12.1-15.6,12.1h-24.3v-44.1h23.6
			c8.9,0,13.9,4.2,13.9,11.2c0,3.9-2.2,7.2-4.9,8.6L1109.9,966.6L1109.9,966.6z M1086.9,952.3v10.4h11.9c4.2,0,6.2-2.2,6.2-5.2
			c0-3.5-2.1-5.2-6.2-5.2L1086.9,952.3L1086.9,952.3z M1099.8,981.5c5,0,7.5-1.9,7.5-5.8s-2.5-5.9-7.5-5.9h-12.9v11.7L1099.8,981.5
			L1099.8,981.5z"/>
		<path id="XMLID_14020_" class="st2" d="M1119.9,988.9v-9.3h1.6c6,0,8.4-4.2,8.4-17v-17.8h35.7v44.1h-9.8v-35.8h-16.9v9.8
			c0,9.5-1.4,16.3-4.2,20.2c-2.7,3.9-7.1,5.8-13.2,5.8L1119.9,988.9L1119.9,988.9z"/>
		<path id="XMLID_14022_" class="st2" d="M1215.3,967.7h-32.6c0.3,9.4,4.4,14,12.4,14c5.1,0,8.3-1.9,9.6-5.6h10
			c-1.7,8.4-8.6,13.9-19.7,13.9c-6.8,0-12.2-2.2-16.1-6.5s-5.9-10-5.9-17s1.9-12.6,5.8-16.6c3.9-4.2,9.3-6.2,15.9-6.2
			c6.3,0,11.3,2,14.9,5.9c3.6,3.9,5.5,8.8,5.6,14.8v3.3H1215.3z M1183.1,960.4h22.1c-0.7-5.2-4.4-8.9-10.6-8.9
			C1188.2,951.5,1184.3,955,1183.1,960.4z"/>
		<path id="XMLID_14025_" class="st2" d="M1255.2,966.6c4.4,1.1,7.4,4.8,7.4,10.2c0,8-5.5,12.1-15.6,12.1h-24.3v-44.1h23.6
			c8.9,0,13.9,4.2,13.9,11.2c0,3.9-2.2,7.2-4.9,8.6v2H1255.2z M1232.2,952.3v10.4h11.9c4.2,0,6.2-2.2,6.2-5.2c0-3.5-2.1-5.2-6.2-5.2
			L1232.2,952.3L1232.2,952.3z M1245.1,981.5c5,0,7.5-1.9,7.5-5.8s-2.5-5.9-7.5-5.9h-12.9v11.7L1245.1,981.5L1245.1,981.5z"/>
		<path id="XMLID_14029_" class="st2" d="M1305.8,983.7c-4,4.2-9.4,6.4-16.2,6.4s-12.2-2.2-16.3-6.4c-4-4.3-6-10-6-16.8
			s2-12.4,6-16.6c4.1-4.3,9.4-6.5,16.3-6.5s12.2,2.2,16.2,6.5c4.1,4.2,6.1,9.8,6.1,16.6S1309.9,979.3,1305.8,983.7z M1289.6,952
			c-8.1,0-12.5,6.5-12.5,14.8c0,8.4,4.4,14.9,12.5,14.9s12.5-6.5,12.5-14.9C1302.1,958.5,1297.7,952,1289.6,952z"/>
		<path id="XMLID_14032_" class="st2" d="M1328.3,988.9h-11.2v-11.6h11.2V988.9z"/>
	</g>
	<g id="XMLID_136_">
		<g id="XMLID_13513_">
			<path id="XMLID_13514_" class="st3" d="M441.1,1518h2.8v9.7h6.8l4.5-9.7h3l-5.1,11l5.4,11.6h-3l-4.8-10.4h-6.8v10.4h-2.8V1518z"
				/>
			<path id="XMLID_13516_" class="st3" d="M464.8,1524.6v1.7h0.7c0.9-1.1,2.4-2.1,5-2.1c4.4,0,7,3.7,7,8.4c0,4.8-2.6,8.4-7,8.4
				c-2.5,0-4-1-4.9-2.1h-0.7v8h-2.7v-22.3H464.8z M464.9,1532.6c0,3.1,1.5,6,5,6c3.2,0,4.9-2.5,4.9-6s-1.7-6-4.9-6
				C466.3,1526.5,464.9,1529.5,464.9,1532.6z"/>
			<path id="XMLID_13519_" class="st3" d="M482.9,1546.9l3.3-7.8l-6.8-14.5h2.9l4.9,10.5h0.8l4.4-10.5h2.8l-9.6,22.3H482.9z"/>
			<path id="XMLID_13521_" class="st3" d="M509.7,1540.6V1527H501v13.6h-2.7v-16h14.1v16H509.7z"/>
			<path id="XMLID_13523_" class="st3" d="M529.1,1540.6v-7h-8.8v7h-2.7v-16h2.7v6.6h8.8v-6.6h2.7v16H529.1z"/>
			<path id="XMLID_13525_" class="st3" d="M551.7,1532.6c0,4.7-2.9,8.4-7.9,8.4s-7.9-3.7-7.9-8.4s2.8-8.4,7.9-8.4
				C548.9,1524.2,551.7,1527.9,551.7,1532.6z M549,1532.6c0-3.1-1.6-6-5.2-6c-3.5,0-5.2,2.9-5.2,6s1.6,6,5.2,6
				C547.4,1538.6,549,1535.7,549,1532.6z"/>
			<path id="XMLID_13528_" class="st3" d="M449,1563.9l5.7-11.9h3l-10.8,22.6H444l3.2-6.8l-8.4-15.8h3.1l6.3,11.9L449,1563.9
				L449,1563.9z"/>
			<path id="XMLID_13530_" class="st3" d="M470,1566.5c1.5,0.4,2.6,1.7,2.6,3.7c0,2.9-2,4.4-5.6,4.4h-8.2v-16h7.9c3.2,0,5,1.5,5,4
				c0,1.6-0.8,2.7-1.7,3.1C470,1565.7,470,1566.5,470,1566.5z M461.4,1565.3h5c1.9,0,2.6-1,2.6-2.2s-0.7-2.2-2.6-2.2h-5V1565.3z
				 M466.8,1572.3c2.3,0,3.1-1,3.1-2.4s-0.8-2.4-3.1-2.4h-5.4v4.8H466.8z"/>
			<path id="XMLID_13534_" class="st3" d="M490.6,1566.6h-12.2c0.1,3.8,1.8,6.1,5.1,6.1c2.2,0,3.6-0.9,4.1-2.5h2.7
				c-0.5,2.7-2.8,4.8-6.8,4.8c-5,0-7.8-3.6-7.8-8.5s2.8-8.2,7.7-8.2c4.7,0,7,3.5,7.1,7.4v0.9H490.6z M478.6,1564.3h9.2
				c-0.2-2-1.7-3.8-4.4-3.8C480.5,1560.6,478.9,1562.3,478.6,1564.3z"/>
			<path id="XMLID_13537_" class="st3" d="M497.4,1558.6v1.7h0.7c0.9-1.1,2.4-2.1,5-2.1c4.4,0,7,3.7,7,8.4c0,4.8-2.6,8.4-7,8.4
				c-2.5,0-4-1-4.9-2.1h-0.7v8h-2.7v-22.3H497.4z M497.4,1566.6c0,3.1,1.5,6,5,6c3.2,0,4.9-2.5,4.9-6s-1.7-6-4.9-6
				C498.9,1560.6,497.4,1563.5,497.4,1566.6z"/>
			<path id="XMLID_13540_" class="st3" d="M528.1,1566.6h-12.2c0.1,3.8,1.8,6.1,5.1,6.1c2.2,0,3.6-0.9,4.1-2.5h2.7
				c-0.5,2.7-2.8,4.8-6.8,4.8c-5,0-7.8-3.6-7.8-8.5s2.8-8.2,7.7-8.2c4.7,0,7,3.5,7.1,7.4L528.1,1566.6L528.1,1566.6z M516.1,1564.3
				h9.2c-0.2-2-1.7-3.8-4.4-3.8C518,1560.6,516.4,1562.3,516.1,1564.3z"/>
			<path id="XMLID_13543_" class="st3" d="M543.8,1574.6v-7H535v7h-2.7v-16h2.7v6.6h8.8v-6.6h2.7v16H543.8z"/>
			<path id="XMLID_13545_" class="st3" d="M563.2,1574.6v-7h-8.8v7h-2.7v-16h2.7v6.6h8.8v-6.6h2.7v16H563.2z"/>
			<path id="XMLID_13547_" class="st3" d="M585.8,1566.6c0,4.7-2.9,8.4-7.9,8.4s-7.9-3.7-7.9-8.4s2.8-8.4,7.9-8.4
				C582.9,1558.2,585.8,1561.9,585.8,1566.6z M583.1,1566.6c0-3.1-1.6-6-5.2-6c-3.5,0-5.2,2.9-5.2,6s1.6,6,5.2,6
				C581.4,1572.7,583.1,1569.8,583.1,1566.6z"/>
			<path id="XMLID_13550_" class="st3" d="M457.3,1606v2.6h-16.2V1586h15.7v2.6h-12.9v7h10.4v2.6h-10.4v7.8H457.3z"/>
			<path id="XMLID_13552_" class="st3" d="M478.6,1606.3v6.9H476v-4.5h-13.9v4.5h-2.6v-6.9h2.1c1-2.2,2-5.3,2-9.2v-4.4h12v13.6
				L478.6,1606.3L478.6,1606.3z M472.9,1595h-6.8v2c0,4-0.8,7.1-1.7,9.2h8.6V1595H472.9z"/>
			<path id="XMLID_13555_" class="st3" d="M482.1,1608.6v-16h2.6v12.3h0.7l7-12.3h3.9v16h-2.6v-12.3H493l-7.1,12.3H482.1z"/>
			<path id="XMLID_13557_" class="st3" d="M513,1608.6v-7h-8.8v7h-2.7v-16h2.7v6.6h8.8v-6.6h2.7v16H513z"/>
			<path id="XMLID_13559_" class="st3" d="M535.6,1600.7c0,4.7-2.9,8.4-7.9,8.4s-7.9-3.7-7.9-8.4s2.8-8.4,7.9-8.4
				C532.7,1592.3,535.6,1595.9,535.6,1600.7z M532.9,1600.7c0-3.1-1.6-6-5.2-6c-3.5,0-5.2,2.9-5.2,6s1.6,6,5.2,6
				C531.3,1606.7,532.9,1603.8,532.9,1600.7z"/>
		</g>
		<g id="XMLID_13476_">
			<path id="XMLID_13477_" class="st3" d="M829.7,1533.6h-9.9l-2.3,6.9h-2.9l7.8-22.6h4.8l7.9,22.6h-3L829.7,1533.6z M820.6,1531
				h8.2l-3.5-10.2H824L820.6,1531z"/>
			<path id="XMLID_13480_" class="st3" d="M845.7,1533.5h-4.8v7h-2.7v-16h2.7v6.6h4.8l3.3-6.6h2.8l-3.9,7.7l4.1,8.3h-2.9
				L845.7,1533.5z"/>
			<path id="XMLID_13482_" class="st3" d="M863.4,1533.5h-4.8v7h-2.7v-16h2.7v6.6h4.8l3.3-6.6h2.8l-3.9,7.7l4.1,8.3h-2.9
				L863.4,1533.5z"/>
			<path id="XMLID_13484_" class="st3" d="M875.2,1546.9l3.3-7.8l-6.8-14.5h2.9l4.9,10.5h0.8l4.4-10.5h2.8l-9.6,22.3H875.2z"/>
			<path id="XMLID_13486_" class="st3" d="M893.3,1524.6v1.7h0.7c0.9-1.1,2.4-2.1,5-2.1c4.4,0,7,3.7,7,8.4c0,4.8-2.6,8.4-7,8.4
				c-2.5,0-4-1-4.9-2.1h-0.7v8h-2.7v-22.3H893.3z M893.3,1532.6c0,3.1,1.5,6,5,6c3.2,0,4.9-2.5,4.9-6s-1.7-6-4.9-6
				C894.8,1526.5,893.3,1529.5,893.3,1532.6z"/>
			<path id="XMLID_13489_" class="st3" d="M920.3,1538.9h-0.7c-1,1.2-2.7,2.1-5,2.1c-3.7,0-5.7-2.5-5.7-5.2c0-2.6,1.7-5.3,6.1-5.3
				h5.2v-0.6c0-1.9-1.1-3.3-3.9-3.3c-2.4,0-3.6,0.9-3.7,2.3h-2.7c0.2-2.9,2.8-4.7,6.3-4.7c4,0,6.6,1.9,6.6,5.5v10.9h-2.5
				L920.3,1538.9L920.3,1538.9z M920.2,1534.1v-1.5h-4.8c-2.6,0-3.8,1.1-3.8,3c0,1.8,1.3,2.9,3.7,2.9
				C918,1538.6,920.2,1536.6,920.2,1534.1z"/>
			<path id="XMLID_13492_" class="st3" d="M926,1524.6h13.7v2.3h-5.5v13.6h-2.7V1527H926V1524.6z"/>
			<path id="XMLID_13494_" class="st3" d="M954.8,1540.6v-7H946v7h-2.7v-16h2.7v6.6h8.8v-6.6h2.7v16H954.8z"/>
			<path id="XMLID_13496_" class="st3" d="M977.4,1532.6c0,4.7-2.9,8.4-7.9,8.4s-7.9-3.7-7.9-8.4s2.8-8.4,7.9-8.4
				C974.5,1524.2,977.4,1527.9,977.4,1532.6z M974.7,1532.6c0-3.1-1.6-6-5.2-6c-3.5,0-5.2,2.9-5.2,6s1.6,6,5.2,6
				C973,1538.6,974.7,1535.7,974.7,1532.6z"/>
			<path id="XMLID_13499_" class="st3" d="M819.5,1552v19.2h0.7l10.5-19.2h4.5v22.6h-2.8v-19.2h-0.7l-10.5,19.2h-4.5V1552H819.5z"/>
			<path id="XMLID_13501_" class="st3" d="M846.3,1560.6c-2.3,0-3.5,0.7-3.9,2.5h-2.6c0.3-3,2.8-4.8,6.5-4.8c4,0,6.1,2,6.1,4.4
				c0,1.8-0.8,2.9-1.7,3.2v0.7c1.2,0.3,2.3,1.4,2.3,3.6c0,2.6-2.3,4.8-6.6,4.8c-4.4,0-6.7-1.9-7.2-4.9h2.6c0.6,2,2.4,2.6,4.6,2.6
				c2.3,0,3.9-0.8,3.9-2.6c0-1.6-0.9-2.5-3.5-2.5H844v-2.3h2.7c2.3,0,3.1-1,3.1-2.3C849.8,1561.4,848.4,1560.6,846.3,1560.6z"/>
			<path id="XMLID_13503_" class="st3" d="M870.5,1558.6v16h-2.7v-6.3H863c-0.3,0-0.6,0-1,0l-2.4,6.3h-2.8l2.7-6.9
				c-1.6-0.8-2.5-2.2-2.5-4.2c0-3,2-4.8,5.6-4.8L870.5,1558.6L870.5,1558.6z M862.8,1560.9c-2.4,0-3.2,1-3.2,2.6s0.8,2.5,3.2,2.5
				h4.9v-5.1H862.8z"/>
			<path id="XMLID_13506_" class="st3" d="M896,1558.6v13.6h2.9v6.9h-2.6v-4.5h-20.7v-16h2.6v13.6h6.3v-13.6h2.6v13.6h6.3v-13.6H896
				z"/>
			<path id="XMLID_13508_" class="st3" d="M914,1574.6v-7h-8.8v7h-2.7v-16h2.7v6.6h8.8v-6.6h2.7v16H914z"/>
			<path id="XMLID_13510_" class="st3" d="M936.6,1566.6c0,4.7-2.9,8.4-7.9,8.4s-7.9-3.7-7.9-8.4s2.8-8.4,7.9-8.4
				C933.7,1558.2,936.6,1561.9,936.6,1566.6z M933.9,1566.6c0-3.1-1.6-6-5.2-6c-3.5,0-5.2,2.9-5.2,6s1.6,6,5.2,6
				C932.3,1572.7,933.9,1569.8,933.9,1566.6z"/>
		</g>
	</g>
</g>
<g id="XMLID_117_">
	<g id="XMLID_125_">
		<rect id="XMLID_129_" x="386" y="-436" class="st1" width="429.1" height="757.8"/>
		<line id="XMLID_128_" class="st1" x1="672.1" y1="-436" x2="672.1" y2="321.8"/>
		<line id="XMLID_126_" class="st1" x1="529" y1="-436" x2="529" y2="321.8"/>
	</g>
	<g id="XMLID_13404_">
		<path id="XMLID_13405_" class="st2" d="M409.6-405.4h4.4v7.4v1c0,0.4,0.2,1.4,0.5,1.8c0.7,1.1,2,1.9,5.5,1.9
			c1.8,0,3.6-0.2,5.3-0.7v-11.4h4.4v25.9h-4.4V-390c-1.8,0.4-3.9,0.7-6.2,0.7c-3.5,0-6-0.8-7.3-1.7c-0.6-0.5-1.1-1.1-1.5-1.9
			c-0.3-0.8-0.5-1.5-0.6-2.1c0-0.6-0.1-1.5-0.1-2.5C409.6-397.5,409.6-405.4,409.6-405.4z"/>
		<path id="XMLID_13407_" class="st2" d="M440.2-379.5h-4.6v-18.4h4v12.2h0.9l7.5-12.2h4.8v18.5h-4v-12.3h-0.9L440.2-379.5z"/>
		<path id="XMLID_13409_" class="st2" d="M474.6-385.4c-0.6,3.9-3.8,6.4-8.1,6.4c-2.8,0-5.1-0.9-6.7-2.7c-1.6-1.8-2.4-4.1-2.4-7
			c0-2.9,0.8-5.2,2.4-7c1.6-1.8,3.9-2.7,6.7-2.7c4.4,0,7.4,2.4,8,6.1h-4.1c-0.5-1.7-1.9-2.6-3.9-2.6c-3.4,0-5.1,2.6-5.1,6.2
			c0,3.7,1.6,6.3,5.1,6.3c2.2,0,3.6-1,4-2.9h4.1V-385.4z"/>
		<path id="XMLID_13411_" class="st2" d="M477.3-394.5v-3.5h16.5v3.5h-6.2v15h-4.1v-15H477.3z"/>
		<path id="XMLID_13413_" class="st2" d="M497.7-397.9h4.1v5.7h4.6c4.6,0,7.2,2.3,7.2,6.3s-2.6,6.5-7.2,6.5h-8.7V-397.9z
			 M501.8-388.9v5.9h4c2.6,0,3.7-1.1,3.7-3c0-2-1-3-3.7-3h-4V-388.9z M516.5-397.9h4.1v18.5h-4.1V-397.9z"/>
		<path id="XMLID_13417_" class="st2" d="M530.9-379.5h-4.6v-18.4h4v12.2h0.9l7.6-12.2h4.8v18.5h-4v-12.3h-0.9L530.9-379.5z
			 M540.9-405.6c-0.2,3.4-2.4,5.4-6.1,5.4s-5.9-2-6.1-5.4h3.2c0.1,1.7,1.1,2.6,2.9,2.6s2.8-0.9,2.9-2.6H540.9z"/>
		<path id="XMLID_13420_" class="st2" d="M553.6-379.5h-4.7v-4.9h4.7V-379.5z"/>
		<path id="XMLID_13422_" class="st2" d="M408.2-341.6h0.8c1.1,0,2-0.3,2.6-0.8c1.2-1,1.9-4.2,1.9-10.7v-10.1h18v25.9h-4.4v-22h-9.5
			v6.7c0,6.2-0.6,10.2-2.1,12.4s-3.3,2.9-6.4,2.9h-0.8L408.2-341.6L408.2-341.6z"/>
		<path id="XMLID_13424_" class="st2" d="M442-337.3h-4.6v-18.5h4v12.2h0.9l7.6-12.2h4.8v18.5h-4v-12.2h-0.9L442-337.3z"/>
		<path id="XMLID_13426_" class="st2" d="M477.4-337.3h-4.1v-7.7h-8.9v7.7h-4.1v-18.5h4.1v7.3h8.9v-7.3h4.1V-337.3z"/>
		<path id="XMLID_13428_" class="st2" d="M499.6-346.2H486c0.1,3.9,1.8,5.9,5.2,5.9c2.1,0,3.5-0.8,4-2.4h4.2
			c-0.7,3.5-3.6,5.8-8.2,5.8c-2.9,0-5.1-0.9-6.7-2.7c-1.6-1.8-2.5-4.2-2.5-7.1s0.8-5.3,2.4-7c1.6-1.7,3.9-2.6,6.7-2.6
			c2.6,0,4.8,0.8,6.2,2.5c1.5,1.6,2.3,3.7,2.4,6.2v1.4H499.6z M486.2-349.3h9.2c-0.3-2.2-1.8-3.7-4.4-3.7
			C488.3-353,486.7-351.5,486.2-349.3z"/>
		<path id="XMLID_13431_" class="st2" d="M508.8-337.3h-4.6v-18.5h4v12.2h0.9l7.6-12.2h4.8v18.5h-4v-12.2h-0.9L508.8-337.3z
			 M518.9-363.5c-0.2,3.4-2.4,5.4-6.1,5.4s-5.9-2-6.1-5.4h3.2c0.1,1.7,1.1,2.6,2.9,2.6s2.8-0.9,2.9-2.6H518.9z"/>
		<path id="XMLID_13434_" class="st2" d="M544.1-337.3H540v-7.7h-8.9v7.7H527v-18.5h4.1v7.3h8.9v-7.3h4.1V-337.3z"/>
		<path id="XMLID_13436_" class="st2" d="M549.8-355.8h4.1v5.8h4.6c4.6,0,7.2,2.3,7.2,6.3s-2.6,6.5-7.2,6.5h-8.7L549.8-355.8
			L549.8-355.8z M553.9-346.7v5.9h4c2.6,0,3.7-1.1,3.7-3c0-2-1-3-3.7-3L553.9-346.7L553.9-346.7z M568.5-355.8h4.1v18.5h-4.1V-355.8
			z"/>
		<path id="XMLID_13440_" class="st2" d="M582.9-337.3h-4.6v-18.5h4v12.2h0.9l7.6-12.2h4.8v18.5h-4v-12.2h-0.9L582.9-337.3z
			 M593-363.5c-0.2,3.4-2.4,5.4-6.1,5.4c-3.7,0-5.9-2-6.1-5.4h3.2c0.1,1.7,1.1,2.6,2.9,2.6s2.8-0.9,2.9-2.6H593z"/>
		<path id="XMLID_13443_" class="st2" d="M605.6-337.3H601v-4.9h4.7v4.9H605.6z"/>
		<path id="XMLID_13445_" class="st2" d="M410.8-295.2v-25.9h4.4v10.6h7l5-10.6h4.5l-5.8,12.6l6.1,13.3h-4.5l-5.3-11.4h-7v11.4
			H410.8z"/>
		<path id="XMLID_13447_" class="st2" d="M450.1-297.4c-1.7,1.8-3.9,2.7-6.8,2.7c-2.9,0-5.1-0.9-6.8-2.7s-2.5-4.2-2.5-7
			c0-2.9,0.8-5.2,2.5-7s4-2.7,6.8-2.7c2.8,0,5.1,0.9,6.8,2.7c1.7,1.8,2.5,4.1,2.5,7S451.8-299.2,450.1-297.4z M443.3-310.6
			c-3.4,0-5.2,2.7-5.2,6.2s1.9,6.2,5.2,6.2c3.3,0,5.2-2.7,5.2-6.2S446.7-310.6,443.3-310.6z"/>
		<path id="XMLID_13453_" class="st2" d="M474.3-295.2h-4.1v-7.7h-8.9v7.7h-4.1v-18.5h4.1v7.3h8.9v-7.3h4.1V-295.2z"/>
		<path id="XMLID_13455_" class="st2" d="M492.7-295.2l-3.9-7.7H484v7.7h-4v-18.5h4.1v7.3h4.8l3.7-7.3h4.2l-4.5,8.9l4.8,9.6H492.7z"
			/>
		<path id="XMLID_13457_" class="st2" d="M501.2-313.6h4v1.8h0.9c1.2-1.5,3-2.2,5.4-2.2c2.4,0,4.4,0.9,5.8,2.7
			c1.5,1.8,2.2,4.1,2.2,7c0,2.9-0.7,5.2-2.2,7c-1.4,1.8-3.4,2.7-5.8,2.7c-2.4,0-4.2-0.8-5.3-2.2h-0.9v9h-4.1V-313.6z M505.2-304.4
			c0,3.5,1.7,6.2,5.1,6.2c3.2,0,5-2.5,5-6.2s-1.8-6.2-5-6.2C507-310.6,505.2-307.9,505.2-304.4z"/>
		<path id="XMLID_13460_" class="st2" d="M540.7-304H527c0.1,3.9,1.8,5.9,5.2,5.9c2.1,0,3.5-0.8,4-2.4h4.2c-0.7,3.5-3.6,5.8-8.2,5.8
			c-2.9,0-5.1-0.9-6.7-2.7s-2.5-4.2-2.5-7.1c0-2.9,0.8-5.3,2.4-7c1.6-1.7,3.9-2.6,6.7-2.6c2.6,0,4.8,0.8,6.2,2.5
			c1.5,1.6,2.3,3.7,2.4,6.2L540.7-304L540.7-304z M527.2-307.1h9.2c-0.3-2.2-1.8-3.7-4.4-3.7C529.3-310.8,527.7-309.4,527.2-307.1z"
			/>
		<path id="XMLID_13463_" class="st2" d="M542.8-310.1v-3.5h16.5v3.5h-6.2v15H549v-15C549-310.1,542.8-310.1,542.8-310.1z"/>
		<path id="XMLID_13465_" class="st2" d="M580.4-295.2h-4.1v-7.7h-8.9v7.7h-4.1v-18.5h4.1v7.3h8.9v-7.3h4.1V-295.2z"/>
		<path id="XMLID_13467_" class="st2" d="M586.1-313.6h4.1v5.7h4.6c4.6,0,7.2,2.3,7.2,6.3s-2.6,6.5-7.2,6.5h-8.7L586.1-313.6
			L586.1-313.6z M590.2-304.6v5.9h4c2.6,0,3.7-1.1,3.7-3c0-2-1-3-3.7-3h-4V-304.6z M604.8-313.6h4.1v18.5h-4.1V-313.6z"/>
		<path id="XMLID_13471_" class="st2" d="M619.2-295.2h-4.6v-18.5h4v12.2h0.9l7.6-12.2h4.8v18.5h-4v-12.2H627L619.2-295.2z
			 M629.3-321.3c-0.2,3.4-2.4,5.4-6.1,5.4s-5.9-2-6.1-5.4h3.2c0.1,1.7,1.1,2.6,2.9,2.6c1.8,0,2.8-0.9,2.9-2.6H629.3z"/>
		<path id="XMLID_13474_" class="st2" d="M641.9-295.2h-4.7v-4.8h4.7V-295.2z"/>
	</g>
	<g id="XMLID_118_">
		<g id="XMLID_13356_">
			<path id="XMLID_13357_" class="st3" d="M538.7,273.7v2.4h-0.8v-1.6h-5v1.6h-0.8v-2.4h0.7c0.4-0.9,0.8-2.3,0.8-4.5v-1.3h4.2v5.8
				H538.7z M537,268.6h-2.6v0.7c0,2-0.4,3.5-0.7,4.4h3.3V268.6z"/>
			<path id="XMLID_13360_" class="st3" d="M544,272.1c0,1.4-0.8,2.5-2.3,2.5s-2.3-1.1-2.3-2.5s0.8-2.5,2.3-2.5S544,270.7,544,272.1z
				 M543.3,272.1c0-0.9-0.5-1.8-1.5-1.8s-1.5,0.9-1.5,1.8c0,0.9,0.5,1.8,1.5,1.8C542.8,273.9,543.3,273,543.3,272.1z"/>
			<path id="XMLID_13363_" class="st3" d="M548.6,274.4v-4H546v4h-0.8v-4.7h4.1v4.7H548.6z"/>
			<path id="XMLID_13365_" class="st3" d="M555.2,272.1c0,1.4-0.8,2.5-2.3,2.5s-2.3-1.1-2.3-2.5s0.8-2.5,2.3-2.5
				C554.3,269.6,555.2,270.7,555.2,272.1z M554.4,272.1c0-0.9-0.5-1.8-1.5-1.8s-1.5,0.9-1.5,1.8c0,0.9,0.5,1.8,1.5,1.8
				C553.9,273.9,554.4,273,554.4,272.1z"/>
			<path id="XMLID_13368_" class="st3" d="M555.9,273.7h0.2c0.6,0,0.9-0.5,0.9-2.1v-1.8h3.6v4.7h-0.8v-4h-2v1.1
				c0,2.1-0.5,2.8-1.6,2.8H556L555.9,273.7L555.9,273.7z"/>
			<path id="XMLID_13370_" class="st3" d="M565.4,274.4v-2.1h-2.6v2.1H562v-4.7h0.8v1.9h2.6v-1.9h0.8v4.7H565.4z"/>
			<path id="XMLID_13372_" class="st3" d="M567.7,274.4v-4.7h0.8v3.6h0.2l2-3.6h1.1v4.7H571v-3.6h-0.2l-2.1,3.6H567.7z"/>
			<path id="XMLID_13374_" class="st3" d="M572.9,269.8h4v0.7h-1.6v4h-0.8v-4h-1.6L572.9,269.8L572.9,269.8z"/>
			<path id="XMLID_13376_" class="st3" d="M581.9,272.1h-3.6c0,1.1,0.5,1.8,1.5,1.8c0.7,0,1-0.3,1.2-0.7h0.8c-0.1,0.8-0.8,1.4-2,1.4
				c-1.5,0-2.3-1.1-2.3-2.5s0.8-2.4,2.2-2.4c1.4,0,2.1,1,2.1,2.2v0.2H581.9z M578.4,271.4h2.7c0-0.6-0.5-1.1-1.3-1.1
				C579,270.3,578.5,270.8,578.4,271.4z"/>
			<path id="XMLID_13379_" class="st3" d="M582.6,273.7h0.2c0.6,0,0.9-0.5,0.9-2.1v-1.8h3.6v4.7h-0.8v-4h-2v1.1
				c0,2.1-0.5,2.8-1.6,2.8h-0.2v-0.7H582.6z"/>
			<path id="XMLID_13381_" class="st3" d="M589.5,271.3h1.4c1.1,0,1.8,0.6,1.8,1.5c0,1-0.6,1.6-1.8,1.6h-2.2v-4.7h0.8V271.3z
				 M590.8,273.7c0.8,0,1.1-0.3,1.1-0.9c0-0.6-0.3-0.9-1.1-0.9h-1.3v1.8L590.8,273.7L590.8,273.7z"/>
			<path id="XMLID_13384_" class="st3" d="M597.1,274.4v-2.1h-2.6v2.1h-0.8v-4.7h0.8v1.9h2.6v-1.9h0.8v4.7H597.1z"/>
			<path id="XMLID_13386_" class="st3" d="M600.2,269.8v1.6h1.3c1.1,0,1.8,0.6,1.8,1.5c0,1-0.6,1.6-1.8,1.6h-2.1v-4.7L600.2,269.8
				L600.2,269.8z M600.2,273.7h1.2c0.8,0,1.1-0.3,1.1-0.9c0-0.6-0.3-0.9-1.1-0.9h-1.2V273.7z M604.8,269.8v4.7H604v-4.7H604.8z"/>
			<path id="XMLID_13390_" class="st3" d="M606.3,274.4v-4.7h0.8v3.6h0.2l2-3.6h1.1v4.7h-0.8v-3.6h-0.2l-2.1,3.6H606.3z
				 M609.8,267.7c0,0.9-0.6,1.4-1.4,1.4c-0.9,0-1.4-0.5-1.4-1.4h0.6c0,0.5,0.3,0.8,0.8,0.8c0.6,0,0.8-0.3,0.8-0.8H609.8z"/>
			<path id="XMLID_13393_" class="st3" d="M532.3,280.8h4v0.7h-1.6v4h-0.8v-4h-1.6V280.8L532.3,280.8z"/>
			<path id="XMLID_13395_" class="st3" d="M541.3,283.2h-3.6c0,1.1,0.5,1.8,1.5,1.8c0.7,0,1-0.3,1.2-0.7h0.8c-0.1,0.8-0.8,1.4-2,1.4
				c-1.5,0-2.3-1.1-2.3-2.5s0.8-2.4,2.2-2.4c1.4,0,2.1,1,2.1,2.2L541.3,283.2L541.3,283.2z M537.8,282.5h2.7c0-0.6-0.5-1.1-1.3-1.1
				C538.3,281.4,537.9,281.9,537.8,282.5z"/>
			<path id="XMLID_13398_" class="st3" d="M544.7,283.4h-1.4v2.1h-0.8v-4.7h0.8v1.9h1.4l1-1.9h0.8l-1.1,2.2l1.2,2.4h-0.8
				L544.7,283.4z"/>
			<path id="XMLID_13400_" class="st3" d="M551.5,284.1c-0.2,0.9-0.9,1.5-2,1.5c-1.5,0-2.3-1.1-2.3-2.5s0.8-2.5,2.3-2.5
				c1.1,0,1.8,0.6,1.9,1.5h-0.8c-0.1-0.5-0.5-0.8-1.1-0.8c-1.1,0-1.5,0.8-1.5,1.7s0.4,1.8,1.5,1.8c0.7,0,1.1-0.3,1.2-0.8
				L551.5,284.1L551.5,284.1z"/>
			<path id="XMLID_13402_" class="st3" d="M552.1,280.8h4v0.7h-1.6v4h-0.8v-4h-1.6V280.8L552.1,280.8z"/>
		</g>
		<g id="XMLID_13308_">
			<path id="XMLID_13309_" class="st3" d="M678.8,273.7v2.4H678v-1.6h-5v1.6h-0.8v-2.4h0.7c0.4-0.9,0.8-2.3,0.8-4.5v-1.3h4.2v5.8
				H678.8z M677.1,268.6h-2.6v0.7c0,2-0.4,3.5-0.7,4.4h3.3V268.6L677.1,268.6z"/>
			<path id="XMLID_13312_" class="st3" d="M684.1,272.1c0,1.4-0.8,2.5-2.3,2.5s-2.3-1.1-2.3-2.5s0.8-2.5,2.3-2.5
				C683.3,269.6,684.1,270.7,684.1,272.1z M683.4,272.1c0-0.9-0.5-1.8-1.5-1.8s-1.5,0.9-1.5,1.8c0,0.9,0.5,1.8,1.5,1.8
				C682.9,273.9,683.4,273,683.4,272.1z"/>
			<path id="XMLID_13315_" class="st3" d="M688.7,274.4v-4h-2.5v4h-0.8v-4.7h4.1v4.7H688.7z"/>
			<path id="XMLID_13317_" class="st3" d="M695.3,272.1c0,1.4-0.8,2.5-2.3,2.5s-2.3-1.1-2.3-2.5s0.8-2.5,2.3-2.5
				S695.3,270.7,695.3,272.1z M694.5,272.1c0-0.9-0.5-1.8-1.5-1.8s-1.5,0.9-1.5,1.8c0,0.9,0.5,1.8,1.5,1.8
				C694,273.9,694.5,273,694.5,272.1z"/>
			<path id="XMLID_13320_" class="st3" d="M696,273.7h0.2c0.6,0,0.9-0.5,0.9-2.1v-1.8h3.6v4.7h-0.8v-4h-2v1.1c0,2.1-0.5,2.8-1.6,2.8
				H696V273.7z"/>
			<path id="XMLID_13322_" class="st3" d="M705.5,274.4v-2.1h-2.6v2.1h-0.8v-4.7h0.8v1.9h2.6v-1.9h0.8v4.7H705.5z"/>
			<path id="XMLID_13324_" class="st3" d="M707.8,274.4v-4.7h0.8v3.6h0.2l2-3.6h1.1v4.7h-0.8v-3.6H711l-2.1,3.6H707.8z"/>
			<path id="XMLID_13326_" class="st3" d="M713,269.8h4v0.7h-1.6v4h-0.8v-4H713V269.8z"/>
			<path id="XMLID_13328_" class="st3" d="M722,272.1h-3.6c0,1.1,0.5,1.8,1.5,1.8c0.7,0,1-0.3,1.2-0.7h0.8c-0.1,0.8-0.8,1.4-2,1.4
				c-1.5,0-2.3-1.1-2.3-2.5s0.8-2.4,2.2-2.4c1.4,0,2.1,1,2.1,2.2L722,272.1L722,272.1z M718.5,271.4h2.7c0-0.6-0.5-1.1-1.3-1.1
				C719.1,270.3,718.6,270.8,718.5,271.4z"/>
			<path id="XMLID_13331_" class="st3" d="M722.7,273.7h0.2c0.6,0,0.9-0.5,0.9-2.1v-1.8h3.6v4.7h-0.8v-4h-2v1.1
				c0,2.1-0.5,2.8-1.6,2.8h-0.2v-0.7H722.7z"/>
			<path id="XMLID_13333_" class="st3" d="M729.6,271.3h1.4c1.1,0,1.8,0.6,1.8,1.5c0,1-0.6,1.6-1.8,1.6h-2.2v-4.7h0.8V271.3
				L729.6,271.3z M730.9,273.7c0.8,0,1.1-0.3,1.1-0.9c0-0.6-0.3-0.9-1.1-0.9h-1.3v1.8L730.9,273.7L730.9,273.7z"/>
			<path id="XMLID_13336_" class="st3" d="M737.2,274.4v-2.1h-2.6v2.1h-0.8v-4.7h0.8v1.9h2.6v-1.9h0.8v4.7H737.2z"/>
			<path id="XMLID_13338_" class="st3" d="M740.3,269.8v1.6h1.3c1.1,0,1.8,0.6,1.8,1.5c0,1-0.6,1.6-1.8,1.6h-2.1v-4.7L740.3,269.8
				L740.3,269.8z M740.3,273.7h1.2c0.8,0,1.1-0.3,1.1-0.9c0-0.6-0.3-0.9-1.1-0.9h-1.2V273.7z M744.9,269.8v4.7h-0.8v-4.7H744.9z"/>
			<path id="XMLID_13342_" class="st3" d="M746.4,274.4v-4.7h0.8v3.6h0.2l2-3.6h1.1v4.7h-0.8v-3.6h-0.2l-2.1,3.6H746.4z
				 M749.9,267.7c0,0.9-0.6,1.4-1.4,1.4c-0.9,0-1.4-0.5-1.4-1.4h0.6c0,0.5,0.3,0.8,0.8,0.8c0.6,0,0.8-0.3,0.8-0.8H749.9z"/>
			<path id="XMLID_13345_" class="st3" d="M672.4,280.8h4v0.7h-1.6v4H674v-4h-1.6V280.8z"/>
			<path id="XMLID_13347_" class="st3" d="M681.4,283.2h-3.6c0,1.1,0.5,1.8,1.5,1.8c0.7,0,1-0.3,1.2-0.7h0.8c-0.1,0.8-0.8,1.4-2,1.4
				c-1.5,0-2.3-1.1-2.3-2.5s0.8-2.4,2.2-2.4c1.4,0,2.1,1,2.1,2.2L681.4,283.2L681.4,283.2z M677.9,282.5h2.7c0-0.6-0.5-1.1-1.3-1.1
				C678.4,281.4,678,281.9,677.9,282.5z"/>
			<path id="XMLID_13350_" class="st3" d="M684.8,283.4h-1.4v2.1h-0.8v-4.7h0.8v1.9h1.4l1-1.9h0.8l-1.1,2.2l1.2,2.4h-0.8
				L684.8,283.4z"/>
			<path id="XMLID_13352_" class="st3" d="M691.6,284.1c-0.2,0.9-0.9,1.5-2,1.5c-1.5,0-2.3-1.1-2.3-2.5s0.8-2.5,2.3-2.5
				c1.1,0,1.8,0.6,1.9,1.5h-0.8c-0.1-0.5-0.5-0.8-1.1-0.8c-1.1,0-1.5,0.8-1.5,1.7s0.4,1.8,1.5,1.8c0.7,0,1.1-0.3,1.2-0.8
				L691.6,284.1L691.6,284.1z"/>
			<path id="XMLID_13354_" class="st3" d="M692.3,280.8h4v0.7h-1.6v4h-0.8v-4h-1.6V280.8z"/>
		</g>
	</g>
</g>
<g id="XMLID_31_">
	<g id="XMLID_78_">
		<rect id="XMLID_115_" x="1147.4" y="-436" class="st1" width="1283.6" height="1033"/>
		<line id="XMLID_96_" class="st1" x1="2003.1" y1="-436" x2="2003.1" y2="597"/>
		<line id="XMLID_88_" class="st1" x1="1575.3" y1="-436" x2="1575.3" y2="597"/>
	</g>
	<g id="XMLID_13121_">
		<path id="XMLID_13122_" class="st2" d="M1592.5-385.1c-4.3,0-6.8,1.6-7.4,4.8h-6.2c0.8-6.4,5.9-10.3,13.7-10.3
			c4.1,0,7.2,0.9,9.5,2.8c2.3,1.8,3.4,4.1,3.4,6.9c0,3.5-1.3,5.8-3.7,7.2v1.2c3.4,1.3,5.1,4.1,5.1,8.3c0,3.1-1.3,5.7-3.8,7.8
			s-6,3.1-10.4,3.1c-9.1,0-14.3-4.1-15.3-11.1h6.3c1,3.7,4,5.6,9,5.6c4.7,0,7.8-2.2,7.8-5.6c0-3.6-2.4-5.4-7.2-5.4h-5.5v-5.4h5.5
			c4.2,0,5.9-2,5.9-4.9C1599.3-383.3,1596.6-385.1,1592.5-385.1z"/>
		<path id="XMLID_13124_" class="st2" d="M1628.1-354v-2.4h-1.2c-1.6,2-4.1,3-7.5,3c-2.8,0-5-0.8-6.7-2.4c-1.7-1.7-2.5-3.6-2.5-6
			c0-2.3,0.9-4.3,2.5-6c1.6-1.7,4.2-2.6,7.6-2.6h7.5v-0.8c0-3-1.8-4.7-5.4-4.7c-3.2,0-4.9,1.1-5.1,3.3h-5.6
			c0.3-4.8,4.5-7.7,10.6-7.7c6.9,0,11.1,3.1,11.1,9.3v17C1633.4-354,1628.1-354,1628.1-354z M1625.9-359.8c1.3-1.3,2-2.8,2-4.5v-2
			h-6.5c-3.6,0-5.4,1.6-5.4,4.2s1.9,4.1,5.2,4.1C1623-358,1624.6-358.6,1625.9-359.8z"/>
		<path id="XMLID_13127_" class="st2" d="M1639.6-354v-25.6h20v4.8h-14.3v20.8H1639.6z"/>
		<path id="XMLID_13129_" class="st2" d="M1683.6-357.1c-2.3,2.5-5.4,3.7-9.4,3.7s-7.1-1.3-9.5-3.7c-2.3-2.5-3.5-5.8-3.5-9.8
			s1.2-7.2,3.5-9.7c2.4-2.5,5.5-3.8,9.5-3.8s7.1,1.3,9.4,3.8c2.4,2.5,3.5,5.7,3.5,9.7S1686-359.6,1683.6-357.1z M1674.2-375.4
			c-4.7,0-7.2,3.8-7.2,8.6c0,4.9,2.6,8.7,7.2,8.7s7.2-3.8,7.2-8.7C1681.4-371.6,1678.9-375.4,1674.2-375.4z"/>
		<path id="XMLID_13132_" class="st2" d="M1689.4-354v-5.4h0.9c3.5,0,4.9-2.4,4.9-9.9v-10.3h20.7v25.6h-5.7v-20.8h-9.8v5.7
			c0,5.5-0.8,9.5-2.4,11.7c-1.6,2.3-4.1,3.4-7.7,3.4H1689.4z"/>
		<path id="XMLID_13134_" class="st2" d="M1743.4-357.1c-2.3,2.5-5.4,3.7-9.4,3.7s-7.1-1.3-9.5-3.7c-2.3-2.5-3.5-5.8-3.5-9.8
			s1.2-7.2,3.5-9.7c2.4-2.5,5.5-3.8,9.5-3.8s7.1,1.3,9.4,3.8c2.4,2.5,3.5,5.7,3.5,9.7S1745.7-359.6,1743.4-357.1z M1734-375.4
			c-4.7,0-7.2,3.8-7.2,8.6c0,4.9,2.6,8.7,7.2,8.7s7.2-3.8,7.2-8.7C1741.2-371.6,1738.6-375.4,1734-375.4z"/>
		<path id="XMLID_13137_" class="st2" d="M1770.9-367c2.6,0.7,4.3,2.8,4.3,5.9c0,4.6-3.2,7-9.1,7H1752v-25.5h13.7
			c5.2,0,8.1,2.5,8.1,6.5c0,2.3-1.3,4.2-2.9,5L1770.9-367L1770.9-367z M1757.6-375.3v6h6.9c2.5,0,3.6-1.3,3.6-3c0-2-1.2-3-3.6-3
			C1764.5-375.3,1757.6-375.3,1757.6-375.3z M1765-358.3c2.9,0,4.4-1.1,4.4-3.4c0-2.3-1.5-3.4-4.4-3.4h-7.5v6.8H1765z"/>
		<path id="XMLID_13141_" class="st2" d="M1801.1-357.1c-2.3,2.5-5.4,3.7-9.4,3.7s-7.1-1.3-9.5-3.7c-2.3-2.5-3.5-5.8-3.5-9.8
			s1.2-7.2,3.5-9.7c2.4-2.5,5.5-3.8,9.5-3.8s7.1,1.3,9.4,3.8c2.4,2.5,3.5,5.7,3.5,9.7S1803.4-359.6,1801.1-357.1z M1791.7-375.4
			c-4.7,0-7.2,3.8-7.2,8.6c0,4.9,2.6,8.7,7.2,8.7s7.2-3.8,7.2-8.7C1798.9-371.6,1796.3-375.4,1791.7-375.4z"/>
		<path id="XMLID_13144_" class="st2" d="M1827.4-354l-5.4-10.7h-6.6v10.7h-5.7v-25.6h5.7v10.1h6.7l5.1-10.1h5.8l-6.3,12.3l6.6,13.3
			C1833.3-354,1827.4-354,1827.4-354z"/>
		<path id="XMLID_13146_" class="st2" d="M1857.1-354h-6.4v-25.6h5.5v16.9h1.2l10.5-16.9h6.6v25.6h-5.5v-16.9h-1.2L1857.1-354z"/>
		<path id="XMLID_13148_" class="st2" d="M1878.3-354v-5.4h0.9c3.5,0,4.9-2.4,4.9-9.9v-10.3h20.7v25.6h-5.7v-20.8h-9.8v5.7
			c0,5.5-0.8,9.5-2.4,11.7c-1.6,2.3-4.1,3.4-7.7,3.4H1878.3z"/>
		<path id="XMLID_13150_" class="st2" d="M1917.8-354h-6.4v-25.6h5.5v16.9h1.2l10.5-16.9h6.6v25.6h-5.5v-16.9h-1.2L1917.8-354z"/>
		<path id="XMLID_13152_" class="st2" d="M1973.5-367c2.6,0.7,4.3,2.8,4.3,5.9c0,4.6-3.2,7-9.1,7h-14.1v-25.5h13.7
			c5.2,0,8.1,2.5,8.1,6.5c0,2.3-1.3,4.2-2.9,5V-367z M1960.1-375.3v6h6.9c2.5,0,3.6-1.3,3.6-3c0-2-1.2-3-3.6-3
			C1967-375.3,1960.1-375.3,1960.1-375.3z M1967.6-358.3c2.9,0,4.4-1.1,4.4-3.4c0-2.3-1.5-3.4-4.4-3.4h-7.5v6.8H1967.6z"/>
		<path id="XMLID_13156_" class="st2" d="M1998.8-354v-2.4h-1.2c-1.6,2-4.1,3-7.5,3c-2.8,0-5-0.8-6.7-2.4c-1.7-1.7-2.5-3.6-2.5-6
			c0-2.3,0.9-4.3,2.5-6c1.6-1.7,4.2-2.6,7.6-2.6h7.5v-0.8c0-3-1.8-4.7-5.4-4.7c-3.2,0-4.9,1.1-5.1,3.3h-5.6
			c0.3-4.8,4.5-7.7,10.6-7.7c6.9,0,11.1,3.1,11.1,9.3v17C2004.1-354,1998.8-354,1998.8-354z M1996.7-359.8c1.3-1.3,2-2.8,2-4.5v-2
			h-6.5c-3.6,0-5.4,1.6-5.4,4.2s1.9,4.1,5.2,4.1C1993.7-358,1995.4-358.6,1996.7-359.8z"/>
		<path id="XMLID_13159_" class="st2" d="M2018.9-364.6l-4.8,10.7h-5.8l5.9-13.2l-5.6-12.4h5.8l4.5,10.1h5.7v-10.2h5.3v10.1h5.7
			l4.5-10.1h5.8l-5.5,12.4l5.9,13.2h-5.9l-4.8-10.7h-5.7v10.7h-5.3v-10.6H2018.9z"/>
		<path id="XMLID_13161_" class="st2" d="M2074.5-354h-5.7v-10.7h-12.4v10.7h-5.7v-25.6h5.7v10.1h12.4v-10.1h5.7V-354z"/>
		<path id="XMLID_13163_" class="st2" d="M2081.1-379.6h5.7v7.9h6.4c6.4,0,10,3.2,10,8.7c0,5.6-3.6,9-10,9h-12.1V-379.6z
			 M2086.8-367.1v8.3h5.6c3.7,0,5.1-1.5,5.1-4.1c0-2.8-1.4-4.1-5.1-4.1h-5.6V-367.1z M2107.1-379.6h5.7v25.6h-5.7V-379.6z"/>
		<path id="XMLID_13167_" class="st2" d="M2125.9-354h-6.4v-25.6h5.5v16.9h1.2l10.5-16.9h6.6v25.6h-5.5v-16.9h-1.2L2125.9-354z
			 M2139.8-390.3c-0.3,4.7-3.3,7.4-8.5,7.4s-8.3-2.8-8.5-7.4h4.5c0.2,2.4,1.5,3.6,4,3.6s3.9-1.2,4-3.6H2139.8z"/>
		<path id="XMLID_13170_" class="st2" d="M1576.8-316.3v-4.8h22.9v4.8h-8.6v20.8h-5.7v-20.8H1576.8z"/>
		<path id="XMLID_13172_" class="st2" d="M1626.7-307.8h-18.9c0.2,5.4,2.6,8.1,7.2,8.1c3,0,4.8-1.1,5.6-3.3h5.8
			c-1,4.9-5,8.1-11.4,8.1c-4,0-7.1-1.3-9.4-3.8s-3.4-5.8-3.4-9.9c0-4.1,1.1-7.3,3.4-9.7s5.4-3.6,9.3-3.6c3.7,0,6.6,1.2,8.7,3.4
			c2.1,2.3,3.2,5.1,3.3,8.6v2.1H1626.7z M1608-312h12.8c-0.4-3-2.6-5.2-6.1-5.2C1611-317.2,1608.7-315.2,1608-312z"/>
		<path id="XMLID_13175_" class="st2" d="M1649.4-295.5l-5.4-10.7h-6.6v10.7h-5.7v-25.6h5.7v10.1h6.7l5.1-10.1h5.8l-6.3,12.3
			l6.6,13.3H1649.4z"/>
		<path id="XMLID_13177_" class="st2" d="M1681.6-303.7c-0.8,5.4-5.2,8.9-11.3,8.9c-3.9,0-7-1.3-9.3-3.7c-2.3-2.5-3.4-5.7-3.4-9.8
			c0-4,1.1-7.2,3.4-9.7s5.4-3.7,9.3-3.7c6.1,0,10.3,3.4,11.1,8.5h-5.6c-0.8-2.4-2.6-3.6-5.4-3.6c-4.8,0-7,3.6-7,8.6
			c0,5.1,2.3,8.7,7,8.7c3.1,0,5-1.4,5.6-4h5.6V-303.7z"/>
		<path id="XMLID_13179_" class="st2" d="M1684.1-316.3v-4.8h22.9v4.8h-8.6v20.8h-5.7v-20.8H1684.1z"/>
		<path id="XMLID_13181_" class="st2" d="M1745.7-300.3h4.6v12h-5.4v-7.2h-20.5v7.2h-5.4v-12h3.6c1.8-4.2,2.7-8.7,2.7-13.6v-7.2
			h20.5L1745.7-300.3L1745.7-300.3z M1740-300.3v-15.9h-9.6v2.4c0,5.1-0.8,9.6-2.3,13.5H1740z"/>
		<path id="XMLID_13184_" class="st2" d="M1753-295.5v-5.4h0.9c3.5,0,4.9-2.4,4.9-9.9v-10.4h20.7v25.6h-5.7v-20.8h-9.8v5.7
			c0,5.5-0.8,9.5-2.4,11.7c-1.6,2.3-4.1,3.4-7.7,3.4h-0.9V-295.5z"/>
		<path id="XMLID_13186_" class="st2" d="M1807.9-321.1v25.6h-5.7v-9.3h-6c-0.8,0-1.4,0-1.8-0.1l-3.6,9.4h-5.7l4.1-10.6
			c-2.6-1.4-3.9-3.7-3.9-6.8c0-5.1,3.5-8.2,9.7-8.2L1807.9-321.1L1807.9-321.1z M1802.2-309.2v-7.2h-6.7c-3,0-4.5,1.2-4.5,3.6
			c0,2.4,1.5,3.6,4.5,3.6H1802.2z"/>
		<path id="XMLID_13189_" class="st2" d="M1827.1-295.5v-25.6h20v4.8h-14.3v20.8H1827.1z"/>
		<path id="XMLID_13191_" class="st2" d="M1851.3-321.1h5.5v2.5h1.2c1.7-2.1,4.2-3.1,7.5-3.1c3.4,0,6.1,1.3,8,3.8c2,2.5,3,5.7,3,9.7
			s-1,7.2-3,9.7s-4.7,3.8-8,3.8s-5.8-1.1-7.3-3.1h-1.2v12.5h-5.7V-321.1z M1856.8-308.3c0,4.9,2.4,8.7,7.1,8.7c4.5,0,7-3.5,7-8.7
			c0-5.2-2.5-8.6-7-8.6C1859.2-316.9,1856.8-313.2,1856.8-308.3z"/>
		<path id="XMLID_13194_" class="st2" d="M1902.5-298.6c-2.3,2.5-5.4,3.7-9.4,3.7s-7.1-1.3-9.5-3.7c-2.3-2.5-3.5-5.8-3.5-9.8
			s1.2-7.2,3.5-9.7c2.4-2.5,5.5-3.8,9.5-3.8s7.1,1.3,9.4,3.8c2.4,2.5,3.5,5.7,3.5,9.7S1904.9-301.1,1902.5-298.6z M1893.1-316.9
			c-4.7,0-7.2,3.8-7.2,8.6c0,4.9,2.6,8.7,7.2,8.7s7.2-3.8,7.2-8.7C1900.3-313.2,1897.8-316.9,1893.1-316.9z"/>
		<path id="XMLID_13197_" class="st2" d="M1911.1-295.5v-25.6h8.1l5.7,11.2h1.2l5.7-11.2h8v25.6h-5.5v-18.4h-1.2l-5,9.6h-5.3l-5-9.6
			h-1.2v18.4H1911.1L1911.1-295.5z"/>
		<path id="XMLID_13199_" class="st2" d="M1964.2-295.5l-5.4-10.7h-6.6v10.7h-5.7v-25.6h5.7v10.1h6.7l5.1-10.1h5.8l-6.3,12.3
			l6.6,13.3H1964.2z"/>
		<path id="XMLID_13201_" class="st2" d="M1994.8-298.6c-2.3,2.5-5.4,3.7-9.4,3.7s-7.1-1.3-9.5-3.7c-2.3-2.5-3.5-5.8-3.5-9.8
			s1.2-7.2,3.5-9.7c2.4-2.5,5.5-3.8,9.5-3.8s7.1,1.3,9.4,3.8c2.4,2.5,3.5,5.7,3.5,9.7S1997.1-301.1,1994.8-298.6z M1985.3-316.9
			c-4.7,0-7.2,3.8-7.2,8.6c0,4.9,2.6,8.7,7.2,8.7s7.2-3.8,7.2-8.7C1992.6-313.2,1990-316.9,1985.3-316.9z"/>
		<path id="XMLID_13204_" class="st2" d="M2003.4-295.5v-25.6h20v4.8H2009v20.8H2003.4z"/>
		<path id="XMLID_13206_" class="st2" d="M2047.4-298.6c-2.3,2.5-5.4,3.7-9.4,3.7s-7.1-1.3-9.5-3.7c-2.3-2.5-3.5-5.8-3.5-9.8
			s1.2-7.2,3.5-9.7c2.4-2.5,5.5-3.8,9.5-3.8s7.1,1.3,9.4,3.8c2.4,2.5,3.5,5.7,3.5,9.7S2049.7-301.1,2047.4-298.6z M2038-316.9
			c-4.7,0-7.2,3.8-7.2,8.6c0,4.9,2.6,8.7,7.2,8.7s7.2-3.8,7.2-8.7C2045.2-313.2,2042.6-316.9,2038-316.9z"/>
		<path id="XMLID_13209_" class="st2" d="M2091.1-303.7c-0.8,5.4-5.2,8.9-11.3,8.9c-3.9,0-7-1.3-9.3-3.7c-2.3-2.5-3.4-5.7-3.4-9.8
			c0-4,1.1-7.2,3.4-9.7c2.3-2.5,5.4-3.7,9.3-3.7c6.1,0,10.3,3.4,11.1,8.5h-5.6c-0.8-2.4-2.6-3.6-5.4-3.6c-4.8,0-7,3.6-7,8.6
			c0,5.1,2.3,8.7,7,8.7c3.1,0,5-1.4,5.6-4h5.6V-303.7z"/>
		<path id="XMLID_13211_" class="st2" d="M2116.8-298.6c-2.3,2.5-5.4,3.7-9.4,3.7s-7.1-1.3-9.5-3.7c-2.3-2.5-3.5-5.8-3.5-9.8
			s1.2-7.2,3.5-9.7c2.4-2.5,5.5-3.8,9.5-3.8s7.1,1.3,9.4,3.8c2.4,2.5,3.5,5.7,3.5,9.7S2119.2-301.1,2116.8-298.6z M2107.4-316.9
			c-4.7,0-7.2,3.8-7.2,8.6c0,4.9,2.6,8.7,7.2,8.7c4.6,0,7.2-3.8,7.2-8.7C2114.7-313.2,2112.1-316.9,2107.4-316.9z"/>
		<path id="XMLID_13214_" class="st2" d="M2146.3-298.6c-2.3,2.5-5.4,3.7-9.4,3.7s-7.1-1.3-9.5-3.7c-2.3-2.5-3.5-5.8-3.5-9.8
			s1.2-7.2,3.5-9.7c2.4-2.5,5.5-3.8,9.5-3.8s7.1,1.3,9.4,3.8c2.4,2.5,3.5,5.7,3.5,9.7S2148.6-301.1,2146.3-298.6z M2136.9-316.9
			c-4.7,0-7.2,3.8-7.2,8.6c0,4.9,2.6,8.7,7.2,8.7c4.6,0,7.2-3.8,7.2-8.7C2144.1-313.2,2141.5-316.9,2136.9-316.9z"/>
		<path id="XMLID_13217_" class="st2" d="M2176.1-316.9c2.2,2.4,3.3,5.5,3.3,9.3c0,3.7-1.2,6.8-3.6,9.2c-2.4,2.4-5.5,3.6-9.4,3.6
			c-8.3,0-13.1-5.6-13.1-15.6c0-4.7,0.4-8.1,1.8-11.8c1.4-3.7,4.2-6.1,8.4-6.7l6.7-1.1c2-0.4,2.5-0.6,2.5-1.9h4.9
			c-0.2,3.5-1.3,5.7-5.1,6.3l-8.1,1.3c-3.9,0.6-5.5,3-6.3,7.4h1.2c1.8-2.4,4.5-3.5,8.1-3.5C2171-320.5,2173.9-319.3,2176.1-316.9z
			 M2171.8-302c1.3-1.6,1.9-3.5,1.9-5.8c0-4.6-2.6-8-7.2-8c-4.8,0-7.3,3.5-7.3,8c0,2.3,0.6,4.2,1.9,5.8s3.1,2.4,5.4,2.4
			C2168.8-299.7,2170.5-300.5,2171.8-302z"/>
		<path id="XMLID_13220_" class="st2" d="M2213.1-321.1h5.5v20.8h4.6v12h-5.4v-7.2h-33.4v-25.6h5.5v20.8h8.8v-20.8h5.5v20.8h8.8
			v-20.8H2213.1z"/>
		<path id="XMLID_13222_" class="st2" d="M2250.3-307.8h-18.9c0.2,5.4,2.6,8.1,7.2,8.1c3,0,4.8-1.1,5.6-3.3h5.8
			c-1,4.9-5,8.1-11.4,8.1c-4,0-7.1-1.3-9.4-3.8s-3.4-5.8-3.4-9.9c0-4.1,1.1-7.3,3.4-9.7s5.4-3.6,9.3-3.6c3.7,0,6.6,1.2,8.7,3.4
			c2.1,2.3,3.2,5.1,3.3,8.6v2.1H2250.3z M2231.7-312h12.8c-0.4-3-2.6-5.2-6.1-5.2C2234.6-317.2,2232.3-315.2,2231.7-312z"/>
		<path id="XMLID_13225_" class="st2" d="M2279.1-295.5h-5.7v-10.7H2261v10.7h-5.7v-25.6h5.7v10.1h12.4v-10.1h5.7V-295.5z"/>
		<path id="XMLID_13227_" class="st2" d="M2292.1-295.5h-6.4v-25.6h5.5v16.9h1.2l10.5-16.9h6.6v25.6h-5.5v-16.9h-1.2L2292.1-295.5z"
			/>
		<path id="XMLID_13229_" class="st2" d="M2337.8-321.1v25.6h-5.7v-9.3h-6c-0.8,0-1.4,0-1.8-0.1l-3.6,9.4h-5.7l4.1-10.6
			c-2.6-1.4-3.9-3.7-3.9-6.8c0-5.1,3.5-8.2,9.7-8.2L2337.8-321.1L2337.8-321.1z M2332.2-309.2v-7.2h-6.7c-3,0-4.5,1.2-4.5,3.6
			c0,2.4,1.5,3.6,4.5,3.6H2332.2z"/>
		<path id="XMLID_13232_" class="st2" d="M1601.6-245.2c-0.8,5.4-5.2,8.9-11.3,8.9c-3.9,0-7-1.3-9.3-3.7c-2.3-2.5-3.4-5.7-3.4-9.8
			c0-4,1.1-7.2,3.4-9.7s5.4-3.7,9.3-3.7c6.1,0,10.3,3.4,11.1,8.5h-5.6c-0.8-2.4-2.6-3.6-5.4-3.6c-4.8,0-7,3.6-7,8.6
			c0,5.1,2.3,8.7,7,8.7c3.1,0,5-1.4,5.6-4h5.6V-245.2z"/>
		<path id="XMLID_13234_" class="st2" d="M1636.9-262.6h5.7v20.8h4.6v12h-5.4v-7.2h-22.5v-25.6h5.7v20.8h12L1636.9-262.6
			L1636.9-262.6z"/>
		<path id="XMLID_13236_" class="st2" d="M1674.2-249.3h-18.9c0.2,5.4,2.6,8.1,7.2,8.1c3,0,4.8-1.1,5.6-3.3h5.8
			c-1,4.9-5,8.1-11.4,8.1c-4,0-7.1-1.3-9.4-3.8s-3.4-5.8-3.4-9.9c0-4.1,1.1-7.3,3.4-9.7s5.4-3.6,9.3-3.6c3.7,0,6.6,1.2,8.7,3.4
			c2.1,2.3,3.2,5.1,3.3,8.6v2.1H1674.2z M1655.5-253.6h12.8c-0.4-3-2.6-5.2-6.1-5.2C1658.4-258.7,1656.2-256.7,1655.5-253.6z"/>
		<path id="XMLID_13239_" class="st2" d="M1703-237h-5.7v-10.7h-12.4v10.7h-5.7v-25.6h5.7v10.1h12.4v-10.1h5.7V-237z"/>
		<path id="XMLID_13241_" class="st2" d="M1707.1-257.8v-4.8h22.9v4.8h-8.6v20.8h-5.7v-20.8H1707.1z"/>
		<path id="XMLID_13243_" class="st2" d="M1734.3-262.6h5.5v2.5h1.2c1.7-2.1,4.2-3.1,7.5-3.1c3.4,0,6.1,1.3,8,3.8c2,2.5,3,5.7,3,9.7
			s-1,7.2-3,9.7s-4.7,3.8-8,3.8s-5.8-1.1-7.3-3.1h-1.2v12.5h-5.7V-262.6z M1739.8-249.8c0,4.9,2.4,8.7,7.1,8.7c4.5,0,7-3.5,7-8.7
			s-2.5-8.6-7-8.6C1742.2-258.4,1739.8-254.7,1739.8-249.8z"/>
		<path id="XMLID_13246_" class="st2" d="M1780.6-237v-2.4h-1.2c-1.6,2-4.1,3-7.5,3c-2.8,0-5-0.8-6.7-2.4c-1.7-1.7-2.5-3.6-2.5-6
			c0-2.3,0.9-4.3,2.5-6s4.2-2.6,7.6-2.6h7.5v-0.8c0-3-1.8-4.7-5.4-4.7c-3.2,0-4.9,1.1-5.1,3.3h-5.6c0.3-4.8,4.5-7.7,10.6-7.7
			c6.9,0,11.1,3.1,11.1,9.3v17L1780.6-237L1780.6-237z M1778.5-242.8c1.3-1.3,2-2.8,2-4.5v-2h-6.5c-3.6,0-5.4,1.6-5.4,4.2
			c0,2.6,1.9,4.1,5.2,4.1C1775.6-241,1777.2-241.6,1778.5-242.8z"/>
		<path id="XMLID_13249_" class="st2" d="M1789.4-237v-5.4h0.9c3.5,0,4.9-2.4,4.9-9.9v-10.4h20.7v25.7h-5.7v-20.8h-9.8v5.7
			c0,5.5-0.8,9.5-2.4,11.7c-1.6,2.3-4.1,3.4-7.7,3.4L1789.4-237L1789.4-237z"/>
		<path id="XMLID_13251_" class="st2" d="M1828.2-262.6v7.9h6.9c6.4,0,10,3.2,10,8.7c0,5.6-3.6,9-10,9h-12.6v-25.6L1828.2-262.6
			L1828.2-262.6z M1834.3-241.8c3.7,0,5.1-1.5,5.1-4.1c0-2.8-1.4-4.1-5.1-4.1h-6.1v8.3L1834.3-241.8L1834.3-241.8z"/>
		<path id="XMLID_13254_" class="st2" d="M1873.4-237h-5.7v-10.7h-12.4v10.7h-5.7v-25.6h5.7v10.1h12.4v-10.1h5.7V-237z"/>
		<path id="XMLID_13256_" class="st2" d="M1900.8-240.1c-2.3,2.5-5.4,3.7-9.4,3.7s-7.1-1.3-9.5-3.7c-2.3-2.5-3.5-5.8-3.5-9.8
			s1.2-7.2,3.5-9.7c2.4-2.5,5.5-3.8,9.5-3.8s7.1,1.3,9.4,3.8c2.4,2.5,3.5,5.7,3.5,9.7S1903.1-242.6,1900.8-240.1z M1891.4-258.4
			c-4.7,0-7.2,3.8-7.2,8.6c0,4.9,2.6,8.7,7.2,8.7s7.2-3.8,7.2-8.7C1898.6-254.7,1896-258.4,1891.4-258.4z"/>
		<path id="XMLID_13259_" class="st2" d="M1909.4-237v-25.6h20v4.8h-14.3v20.8H1909.4z"/>
		<path id="XMLID_13261_" class="st2" d="M1953.4-240.1c-2.3,2.5-5.4,3.7-9.4,3.7s-7.1-1.3-9.5-3.7c-2.3-2.5-3.5-5.8-3.5-9.8
			s1.2-7.2,3.5-9.7c2.4-2.5,5.5-3.8,9.5-3.8s7.1,1.3,9.4,3.8c2.4,2.5,3.5,5.7,3.5,9.7S1955.8-242.6,1953.4-240.1z M1944-258.4
			c-4.7,0-7.2,3.8-7.2,8.6c0,4.9,2.6,8.7,7.2,8.7s7.2-3.8,7.2-8.7C1951.2-254.7,1948.7-258.4,1944-258.4z"/>
		<path id="XMLID_13264_" class="st2" d="M1997.2-245.2c-0.8,5.4-5.2,8.9-11.3,8.9c-3.9,0-7-1.3-9.3-3.7c-2.3-2.5-3.4-5.7-3.4-9.8
			c0-4,1.1-7.2,3.4-9.7s5.4-3.7,9.3-3.7c6.1,0,10.3,3.4,11.1,8.5h-5.6c-0.8-2.4-2.6-3.6-5.4-3.6c-4.8,0-7,3.6-7,8.6
			c0,5.1,2.3,8.7,7,8.7c3.1,0,5-1.4,5.6-4h5.6V-245.2z"/>
		<path id="XMLID_13266_" class="st2" d="M1999.6-257.8v-4.8h22.9v4.8h-8.6v20.8h-5.7v-20.8H1999.6z"/>
		<path id="XMLID_13268_" class="st2" d="M2047.3-240.1c-2.3,2.5-5.4,3.7-9.4,3.7s-7.1-1.3-9.5-3.7c-2.3-2.5-3.5-5.8-3.5-9.8
			s1.2-7.2,3.5-9.7c2.4-2.5,5.5-3.8,9.5-3.8s7.1,1.3,9.4,3.8c2.4,2.5,3.5,5.7,3.5,9.7S2049.7-242.6,2047.3-240.1z M2037.9-258.4
			c-4.7,0-7.2,3.8-7.2,8.6c0,4.9,2.6,8.7,7.2,8.7s7.2-3.8,7.2-8.7C2045.2-254.7,2042.6-258.4,2037.9-258.4z"/>
		<path id="XMLID_13271_" class="st2" d="M2053.2-237v-5.4h0.9c3.5,0,4.9-2.4,4.9-9.9v-10.4h20.7v25.7h-5.7v-20.8h-9.8v5.7
			c0,5.5-0.8,9.5-2.4,11.7c-1.6,2.3-4.1,3.4-7.7,3.4L2053.2-237L2053.2-237z"/>
		<path id="XMLID_13273_" class="st2" d="M2107.5-258.4c2.2,2.4,3.3,5.5,3.3,9.3c0,3.7-1.2,6.8-3.6,9.2c-2.4,2.4-5.5,3.6-9.4,3.6
			c-8.3,0-13.1-5.6-13.1-15.6c0-4.7,0.4-8.1,1.8-11.8c1.4-3.7,4.2-6.1,8.4-6.7l6.7-1.1c2-0.4,2.5-0.6,2.5-1.9h4.9
			c-0.2,3.5-1.3,5.7-5.1,6.3l-8.1,1.3c-3.9,0.6-5.5,3-6.3,7.4h1.2c1.8-2.4,4.5-3.5,8.1-3.5C2102.4-262.1,2105.3-260.8,2107.5-258.4z
			 M2103.2-243.5c1.3-1.6,1.9-3.5,1.9-5.8c0-4.6-2.6-8-7.2-8c-4.8,0-7.3,3.5-7.3,8c0,2.3,0.6,4.2,1.9,5.8s3.1,2.4,5.4,2.4
			C2100.1-241.2,2101.9-242,2103.2-243.5z"/>
		<path id="XMLID_13276_" class="st2" d="M2133.5-262.6h5.7v20.8h4.6v12h-5.4v-7.2h-22.5v-25.6h5.7v20.8h12L2133.5-262.6
			L2133.5-262.6z"/>
		<path id="XMLID_13278_" class="st2" d="M2163.8-237v-2.4h-1.2c-1.6,2-4.1,3-7.5,3c-2.8,0-5-0.8-6.7-2.4c-1.7-1.7-2.5-3.6-2.5-6
			c0-2.3,0.9-4.3,2.5-6s4.2-2.6,7.6-2.6h7.5v-0.8c0-3-1.8-4.7-5.4-4.7c-3.2,0-4.9,1.1-5.1,3.3h-5.6c0.3-4.8,4.5-7.7,10.6-7.7
			c6.9,0,11.1,3.1,11.1,9.3v17L2163.8-237L2163.8-237z M2161.6-242.8c1.3-1.3,2-2.8,2-4.5v-2h-6.5c-3.6,0-5.4,1.6-5.4,4.2
			c0,2.6,1.9,4.1,5.2,4.1C2158.7-241,2160.3-241.6,2161.6-242.8z"/>
		<path id="XMLID_13281_" class="st2" d="M1603-183.3h4.6v12h-5.4v-7.2h-20.5v7.2h-5.4v-12h3.6c1.8-4.2,2.7-8.7,2.7-13.6v-7.2h20.5
			L1603-183.3L1603-183.3z M1597.3-183.3v-15.9h-9.6v2.4c0,5.1-0.8,9.6-2.3,13.5H1597.3z"/>
		<path id="XMLID_13284_" class="st2" d="M1610.3-178.5v-5.4h0.9c3.5,0,4.9-2.4,4.9-9.9v-10.4h20.7v25.6h-5.7v-20.8h-9.8v5.7
			c0,5.5-0.8,9.5-2.4,11.7c-1.6,2.3-4.1,3.4-7.7,3.4L1610.3-178.5L1610.3-178.5z"/>
		<path id="XMLID_13286_" class="st2" d="M1665.1-204.1v25.6h-5.7v-9.3h-6c-0.8,0-1.4,0-1.8-0.1l-3.6,9.4h-5.7l4.1-10.6
			c-2.6-1.4-3.9-3.7-3.9-6.8c0-5.1,3.5-8.2,9.7-8.2H1665.1z M1659.5-192.2v-7.2h-6.7c-3,0-4.5,1.2-4.5,3.6c0,2.4,1.5,3.6,4.5,3.6
			L1659.5-192.2L1659.5-192.2z"/>
		<path id="XMLID_13289_" class="st2" d="M1700.4-178.5v-2.4h-1.2c-1.6,2-4.1,3-7.5,3c-2.8,0-5-0.8-6.7-2.4c-1.7-1.7-2.5-3.6-2.5-6
			c0-2.3,0.9-4.3,2.5-6s4.2-2.6,7.6-2.6h7.5v-0.8c0-3-1.8-4.7-5.4-4.7c-3.2,0-4.9,1.1-5.1,3.3h-5.6c0.3-4.8,4.5-7.7,10.6-7.7
			c6.9,0,11.1,3.1,11.1,9.3v17H1700.4z M1698.2-184.3c1.3-1.3,2-2.8,2-4.5v-2h-6.5c-3.6,0-5.4,1.6-5.4,4.2c0,2.6,1.9,4.1,5.2,4.1
			C1695.3-182.5,1696.9-183.1,1698.2-184.3z"/>
		<path id="XMLID_13292_" class="st2" d="M1729.6-178.5l-5.4-10.7h-6.6v10.7h-5.7v-25.6h5.7v10.1h6.7l5.1-10.1h5.8l-6.3,12.3
			l6.6,13.3H1729.6z"/>
		<path id="XMLID_13294_" class="st2" d="M1757.8-204.1h5.7v20.8h4.6v12h-5.4v-7.2h-22.5v-25.6h5.7v20.8h12L1757.8-204.1
			L1757.8-204.1z"/>
		<path id="XMLID_13296_" class="st2" d="M1795.1-190.8h-18.9c0.2,5.4,2.6,8.1,7.2,8.1c3,0,4.8-1.1,5.6-3.3h5.8
			c-1,4.9-5,8.1-11.4,8.1c-4,0-7.1-1.3-9.4-3.8s-3.4-5.8-3.4-9.9c0-4.1,1.1-7.3,3.4-9.7s5.4-3.6,9.3-3.6c3.7,0,6.6,1.2,8.7,3.4
			c2.1,2.3,3.2,5.1,3.3,8.6v2.1H1795.1z M1776.4-195.1h12.8c-0.4-3-2.6-5.2-6.1-5.2C1779.3-200.2,1777.1-198.2,1776.4-195.1z"/>
		<path id="XMLID_13299_" class="st2" d="M1823.9-178.5h-5.7v-10.7h-12.4v10.7h-5.7v-25.6h5.7v10.1h12.4v-10.1h5.7V-178.5z"/>
		<path id="XMLID_13301_" class="st2" d="M1828-199.3v-4.8h22.9v4.8h-8.6v20.8h-5.7v-20.8H1828z"/>
		<path id="XMLID_13303_" class="st2" d="M1871.1-178.5v-2.4h-1.2c-1.6,2-4.1,3-7.5,3c-2.8,0-5-0.8-6.7-2.4c-1.7-1.7-2.5-3.6-2.5-6
			c0-2.3,0.9-4.3,2.5-6s4.2-2.6,7.6-2.6h7.5v-0.8c0-3-1.8-4.7-5.4-4.7c-3.2,0-4.9,1.1-5.1,3.3h-5.6c0.3-4.8,4.5-7.7,10.6-7.7
			c6.9,0,11.1,3.1,11.1,9.3v17H1871.1z M1869-184.3c1.3-1.3,2-2.8,2-4.5v-2h-6.5c-3.6,0-5.4,1.6-5.4,4.2c0,2.6,1.9,4.1,5.2,4.1
			C1866.1-182.5,1867.7-183.1,1869-184.3z"/>
		<path id="XMLID_13306_" class="st2" d="M1888.9-178.5h-6.5v-6.7h6.5V-178.5z"/>
	</g>
	<g>
		<g id="XMLID_13003_">
			<path id="XMLID_13004_" class="st3" d="M1201.2-377.2v4.9h-1.7v-3.3h-10.3v3.3h-1.7v-4.9h1.4c0.9-1.8,1.7-4.7,1.7-9.3v-2.7h8.6
				v12C1199.2-377.2,1201.2-377.2,1201.2-377.2z M1197.5-387.6h-5.3v1.5c0,4.2-0.7,7.2-1.5,9h6.8V-387.6z"/>
			<path id="XMLID_13007_" class="st3" d="M1212.1-380.4c0,2.8-1.7,5-4.7,5s-4.7-2.2-4.7-5c0-2.8,1.7-5,4.7-5
				C1210.3-385.5,1212.1-383.2,1212.1-380.4z M1210.4-380.4c0-1.9-1-3.6-3.1-3.6s-3.1,1.7-3.1,3.6s1,3.6,3.1,3.6
				C1209.5-376.8,1210.4-378.5,1210.4-380.4z"/>
			<path id="XMLID_13010_" class="st3" d="M1221.4-375.6v-8.2h-5.2v8.2h-1.6v-9.6h8.4v9.6H1221.4z"/>
			<path id="XMLID_13012_" class="st3" d="M1235-380.4c0,2.8-1.7,5-4.7,5s-4.7-2.2-4.7-5c0-2.8,1.7-5,4.7-5
				C1233.2-385.5,1235-383.2,1235-380.4z M1233.4-380.4c0-1.9-1-3.6-3.1-3.6s-3.1,1.7-3.1,3.6s1,3.6,3.1,3.6
				S1233.4-378.5,1233.4-380.4z"/>
			<path id="XMLID_13015_" class="st3" d="M1236.4-377.2h0.3c1.3,0,1.9-0.9,1.9-4.3v-3.7h7.3v9.6h-1.6v-8.2h-4.2v2.3
				c0,4.4-1,5.8-3.4,5.8h-0.3V-377.2z"/>
			<path id="XMLID_13017_" class="st3" d="M1255.9-375.6v-4.2h-5.3v4.2h-1.6v-9.6h1.6v3.9h5.3v-3.9h1.6v9.6H1255.9z"/>
			<path id="XMLID_13019_" class="st3" d="M1260.7-375.6v-9.6h1.6v7.4h0.4l4.2-7.4h2.4v9.6h-1.6v-7.4h-0.4l-4.3,7.4H1260.7z"/>
			<path id="XMLID_13021_" class="st3" d="M1271.3-385.2h8.2v1.4h-3.3v8.2h-1.6v-8.2h-3.3V-385.2L1271.3-385.2z"/>
			<path id="XMLID_13023_" class="st3" d="M1289.8-380.4h-7.3c0.1,2.3,1.1,3.6,3.1,3.6c1.3,0,2.1-0.6,2.4-1.5h1.6
				c-0.3,1.6-1.7,2.9-4.1,2.9c-3,0-4.7-2.2-4.7-5.1s1.7-4.9,4.6-4.9c2.8,0,4.2,2.1,4.3,4.5v0.5H1289.8z M1282.6-381.8h5.5
				c-0.1-1.2-1-2.3-2.6-2.3C1283.8-384,1282.8-383,1282.6-381.8z"/>
			<path id="XMLID_13026_" class="st3" d="M1291.2-377.2h0.3c1.3,0,1.9-0.9,1.9-4.3v-3.7h7.3v9.6h-1.6v-8.2h-4.2v2.3
				c0,4.4-1,5.8-3.4,5.8h-0.3V-377.2z"/>
			<path id="XMLID_13028_" class="st3" d="M1305.5-382h2.8c2.3,0,3.6,1.2,3.6,3.2s-1.3,3.2-3.6,3.2h-4.4v-9.6h1.6V-382L1305.5-382z
				 M1308.1-377c1.7,0,2.2-0.7,2.2-1.8c0-1.1-0.6-1.8-2.2-1.8h-2.6v3.6H1308.1z"/>
			<path id="XMLID_13031_" class="st3" d="M1321.1-375.6v-4.2h-5.3v4.2h-1.6v-9.6h1.6v3.9h5.3v-3.9h1.6v9.6H1321.1z"/>
			<path id="XMLID_13033_" class="st3" d="M1327.5-385.2v3.2h2.6c2.3,0,3.6,1.2,3.6,3.2s-1.3,3.2-3.6,3.2h-4.3v-9.6
				C1325.8-385.2,1327.5-385.2,1327.5-385.2z M1327.5-377h2.4c1.7,0,2.2-0.7,2.2-1.8c0-1.1-0.6-1.8-2.2-1.8h-2.4V-377z
				 M1336.8-385.2v9.6h-1.6v-9.6C1335.2-385.2,1336.8-385.2,1336.8-385.2z"/>
			<path id="XMLID_13037_" class="st3" d="M1340-375.6v-9.6h1.6v7.4h0.4l4.2-7.4h2.4v9.6h-1.6v-7.4h-0.4l-4.3,7.4H1340z
				 M1347.2-389.4c-0.1,1.8-1.1,2.8-3,2.8c-1.8,0-2.9-1-2.9-2.8h1.3c0,1,0.5,1.6,1.6,1.6c1.2,0,1.6-0.6,1.7-1.6H1347.2z"/>
			<path id="XMLID_13040_" class="st3" d="M1355.1-385.2h8.2v1.4h-3.3v8.2h-1.6v-8.2h-3.3L1355.1-385.2L1355.1-385.2z"/>
			<path id="XMLID_13042_" class="st3" d="M1373.6-380.4h-7.3c0.1,2.3,1.1,3.6,3.1,3.6c1.3,0,2.1-0.6,2.4-1.5h1.6
				c-0.3,1.6-1.7,2.9-4.1,2.9c-3,0-4.7-2.2-4.7-5.1s1.7-4.9,4.6-4.9c2.8,0,4.2,2.1,4.3,4.5L1373.6-380.4L1373.6-380.4z
				 M1366.4-381.8h5.5c-0.1-1.2-1-2.3-2.6-2.3C1367.6-384,1366.7-383,1366.4-381.8z"/>
			<path id="XMLID_13045_" class="st3" d="M1380.6-379.9h-2.9v4.2h-1.6v-9.6h1.6v3.9h2.9l2-3.9h1.7l-2.3,4.6l2.5,5h-1.7
				L1380.6-379.9z"/>
			<path id="XMLID_13047_" class="st3" d="M1394.6-378.5c-0.4,1.9-1.8,3.1-4,3.1c-3,0-4.7-2.2-4.7-5c0-2.9,1.7-5,4.7-5
				c2.3,0,3.6,1.3,4,3h-1.6c-0.3-1-1-1.6-2.4-1.6c-2.2,0-3,1.7-3,3.6s0.9,3.7,3,3.7c1.4,0,2.2-0.7,2.4-1.7h1.6V-378.5z"/>
			<path id="XMLID_13049_" class="st3" d="M1396-385.2h8.2v1.4h-3.3v8.2h-1.6v-8.2h-3.3V-385.2L1396-385.2z"/>
			<path id="XMLID_13051_" class="st3" d="M1410.9-375.6v-9.6h1.6v7.4h0.4l4.2-7.4h2.4v9.6h-1.6v-7.4h-0.4l-4.3,7.4H1410.9z"/>
			<path id="XMLID_13053_" class="st3" d="M1427.8-385.2h7.2v1.4h-5.6v8.2h-1.6V-385.2z"/>
			<path id="XMLID_13055_" class="st3" d="M1438.7-385.2v1h0.4c0.5-0.7,1.5-1.3,3-1.3c2.6,0,4.2,2.2,4.2,5c0,2.9-1.6,5-4.2,5
				c-1.5,0-2.4-0.6-2.9-1.3h-0.4v4.8h-1.6v-13.2H1438.7z M1438.7-380.4c0,1.9,0.9,3.6,3,3.6c1.9,0,2.9-1.5,2.9-3.6s-1-3.6-2.9-3.6
				C1439.6-384,1438.7-382.3,1438.7-380.4z"/>
			<path id="XMLID_13058_" class="st3" d="M1454.9-376.6h-0.4c-0.6,0.7-1.6,1.3-3,1.3c-2.2,0-3.4-1.5-3.4-3.1c0-1.5,1-3.2,3.7-3.2
				h3.1v-0.4c0-1.2-0.7-2-2.3-2c-1.4,0-2.1,0.6-2.2,1.4h-1.6c0.1-1.8,1.7-2.8,3.8-2.8c2.4,0,3.9,1.2,3.9,3.3v6.5h-1.5L1454.9-376.6
				L1454.9-376.6z M1454.8-379.5v-0.9h-2.9c-1.6,0-2.3,0.7-2.3,1.8s0.8,1.8,2.2,1.8C1453.5-376.8,1454.8-378,1454.8-379.5z"/>
			<path id="XMLID_13061_" class="st3" d="M1465.4-371.8h-1.6v-3.8h-0.3c-3,0-4.7-2-4.7-4.8c0-2.8,1.7-4.8,4.7-4.8h0.3v-4.2h1.6v4.2
				h0.3c3,0,4.7,2,4.7,4.8c0,2.9-1.8,4.8-5,4.8V-371.8z M1463.5-377h0.3v-6.8h-0.3c-2.1,0-3.1,1.6-3.1,3.4
				C1460.4-378.6,1461.3-377,1463.5-377z M1465.7-377c2.1,0,3.2-1.6,3.2-3.4c0-1.9-1-3.4-3.2-3.4h-0.3v6.8H1465.7z"/>
			<path id="XMLID_13065_" class="st3" d="M1472.9-375.6v-9.6h1.6v7.4h0.4l4.2-7.4h2.4v9.6h-1.6v-7.4h-0.4l-4.3,7.4H1472.9z"/>
			<path id="XMLID_13067_" class="st3" d="M1489.1-379.9h-2.9v4.2h-1.6v-9.6h1.6v3.9h2.9l2-3.9h1.7l-2.3,4.6l2.5,5h-1.7
				L1489.1-379.9z"/>
			<path id="XMLID_13069_" class="st3" d="M1501.3-376.6h-0.4c-0.6,0.7-1.6,1.3-3,1.3c-2.2,0-3.4-1.5-3.4-3.1c0-1.5,1-3.2,3.7-3.2
				h3.1v-0.4c0-1.2-0.7-2-2.3-2c-1.4,0-2.1,0.6-2.2,1.4h-1.6c0.1-1.8,1.7-2.8,3.8-2.8c2.4,0,3.9,1.2,3.9,3.3v6.5h-1.5L1501.3-376.6
				L1501.3-376.6z M1501.2-379.5v-0.9h-2.9c-1.6,0-2.3,0.7-2.3,1.8s0.8,1.8,2.2,1.8C1499.9-376.8,1501.2-378,1501.2-379.5z"/>
			<path id="XMLID_13072_" class="st3" d="M1190.4-362.5v1h0.4c0.5-0.7,1.5-1.3,3-1.3c2.6,0,4.2,2.2,4.2,5c0,2.9-1.6,5-4.2,5
				c-1.5,0-2.4-0.6-2.9-1.3h-0.4v4.8h-1.6v-13.2H1190.4z M1190.4-357.7c0,1.9,0.9,3.6,3,3.6c1.9,0,2.9-1.5,2.9-3.6
				c0-2.1-1-3.6-2.9-3.6C1191.3-361.3,1190.4-359.5,1190.4-357.7z"/>
			<path id="XMLID_13075_" class="st3" d="M1206.6-353.9h-0.4c-0.6,0.7-1.6,1.3-3,1.3c-2.2,0-3.4-1.5-3.4-3.1c0-1.5,1-3.2,3.7-3.2
				h3.1v-0.4c0-1.2-0.7-2-2.3-2c-1.4,0-2.1,0.6-2.2,1.4h-1.6c0.1-1.8,1.7-2.8,3.8-2.8c2.4,0,3.9,1.2,3.9,3.3v6.5h-1.5L1206.6-353.9
				L1206.6-353.9z M1206.6-356.8v-0.9h-2.9c-1.6,0-2.3,0.7-2.3,1.8s0.8,1.8,2.2,1.8C1205.2-354,1206.6-355.2,1206.6-356.8z"/>
			<path id="XMLID_13078_" class="st3" d="M1219.2-355.8c-0.4,1.9-1.8,3.1-4,3.1c-3,0-4.7-2.2-4.7-5c0-2.9,1.7-5,4.7-5
				c2.3,0,3.6,1.3,4,3h-1.6c-0.3-1-1-1.6-2.4-1.6c-2.2,0-3,1.7-3,3.6c0,1.9,0.9,3.7,3,3.7c1.4,0,2.2-0.7,2.4-1.7L1219.2-355.8
				L1219.2-355.8z"/>
			<path id="XMLID_13080_" class="st3" d="M1228.4-352.9v-8.1h-5.2v8.2h-1.6v-9.6h8.4v9.6h-1.6V-352.9z"/>
			<path id="XMLID_13082_" class="st3" d="M1242-357.7c0,2.8-1.7,5-4.7,5s-4.7-2.2-4.7-5c0-2.8,1.7-5,4.7-5
				C1240.2-362.7,1242-360.5,1242-357.7z M1240.4-357.7c0-1.9-1-3.6-3.1-3.6s-3.1,1.7-3.1,3.6c0,1.9,1,3.6,3.1,3.6
				C1239.4-354,1240.4-355.8,1240.4-357.7z"/>
			<path id="XMLID_13085_" class="st3" d="M1243.4-354.4h0.3c1.3,0,1.9-0.9,1.9-4.3v-3.7h7.3v9.6h-1.6v-8.2h-4.2v2.3
				c0,4.4-1,5.8-3.4,5.8h-0.3V-354.4z"/>
			<path id="XMLID_13087_" class="st3" d="M1262.1-353.9h-0.4c-0.6,0.7-1.6,1.3-3,1.3c-2.2,0-3.4-1.5-3.4-3.1c0-1.5,1-3.2,3.7-3.2
				h3.1v-0.4c0-1.2-0.7-2-2.3-2c-1.4,0-2.1,0.6-2.2,1.4h-1.6c0.1-1.8,1.7-2.8,3.8-2.8c2.4,0,3.9,1.2,3.9,3.3v6.5h-1.5L1262.1-353.9
				L1262.1-353.9z M1262.1-356.8v-0.9h-2.9c-1.6,0-2.3,0.7-2.3,1.8s0.8,1.8,2.2,1.8C1260.7-354,1262.1-355.2,1262.1-356.8z"/>
			<path id="XMLID_13090_" class="st3" d="M1266.6-362.5h7.2v1.5h-5.6v8.2h-1.6L1266.6-362.5L1266.6-362.5z"/>
			<path id="XMLID_13092_" class="st3" d="M1281.7-353.9h-0.4c-0.6,0.7-1.6,1.3-3,1.3c-2.2,0-3.4-1.5-3.4-3.1c0-1.5,1-3.2,3.7-3.2
				h3.1v-0.4c0-1.2-0.7-2-2.3-2c-1.4,0-2.1,0.6-2.2,1.4h-1.6c0.1-1.8,1.7-2.8,3.8-2.8c2.4,0,3.9,1.2,3.9,3.3v6.5h-1.5v-1H1281.7z
				 M1281.7-356.8v-0.9h-2.9c-1.6,0-2.3,0.7-2.3,1.8s0.8,1.8,2.2,1.8C1280.3-354,1281.7-355.2,1281.7-356.8z"/>
			<path id="XMLID_13095_" class="st3" d="M1294.5-357.7h-7.3c0.1,2.3,1.1,3.6,3.1,3.6c1.3,0,2.1-0.6,2.4-1.5h1.6
				c-0.3,1.6-1.7,2.9-4.1,2.9c-3,0-4.7-2.2-4.7-5.1c0-2.9,1.7-4.9,4.6-4.9c2.8,0,4.2,2.1,4.3,4.5v0.5H1294.5z M1287.3-359h5.5
				c-0.1-1.2-1-2.3-2.6-2.3C1288.5-361.3,1287.5-360.3,1287.3-359z"/>
			<path id="XMLID_13098_" class="st3" d="M1295.7-362.5h8.2v1.5h-3.3v8.2h-1.6v-8.2h-3.3V-362.5z"/>
			<path id="XMLID_13100_" class="st3" d="M1314-355.8c-0.4,1.9-1.8,3.1-4,3.1c-3,0-4.7-2.2-4.7-5c0-2.9,1.7-5,4.7-5
				c2.3,0,3.6,1.3,4,3h-1.6c-0.3-1-1-1.6-2.4-1.6c-2.2,0-3,1.7-3,3.6c0,1.9,0.9,3.7,3,3.7c1.4,0,2.2-0.7,2.4-1.7L1314-355.8
				L1314-355.8z"/>
			<path id="XMLID_13102_" class="st3" d="M1324.2-362.5v9.6h-1.6v-3.8h-2.9c-0.2,0-0.4,0-0.6,0l-1.4,3.8h-1.7l1.6-4.2
				c-1-0.5-1.5-1.3-1.5-2.5c0-1.8,1.2-2.9,3.4-2.9H1324.2z M1319.7-361.1c-1.4,0-1.9,0.6-1.9,1.6c0,0.9,0.5,1.5,1.9,1.5h3v-3.1
				H1319.7z"/>
			<path id="XMLID_13105_" class="st3" d="M1339.4-357.7c0.9,0.2,1.6,1,1.6,2.2c0,1.7-1.2,2.6-3.4,2.6h-4.9v-9.6h4.7
				c1.9,0,3,0.9,3,2.4c0,0.9-0.5,1.6-1,1.9L1339.4-357.7L1339.4-357.7z M1334.2-358.5h3c1.2,0,1.6-0.6,1.6-1.3
				c0-0.7-0.4-1.3-1.6-1.3h-3V-358.5z M1337.4-354.3c1.4,0,1.9-0.6,1.9-1.4c0-0.8-0.5-1.4-1.9-1.4h-3.2v2.9L1337.4-354.3
				L1337.4-354.3z"/>
			<path id="XMLID_13109_" class="st3" d="M1352.2-357.7c0,2.8-1.7,5-4.7,5s-4.7-2.2-4.7-5c0-2.8,1.7-5,4.7-5
				S1352.2-360.5,1352.2-357.7z M1350.6-357.7c0-1.9-1-3.6-3.1-3.6s-3.1,1.7-3.1,3.6c0,1.9,1,3.6,3.1,3.6
				C1349.6-354,1350.6-355.8,1350.6-357.7z"/>
			<path id="XMLID_13112_" class="st3" d="M1359.2-357.1h-2.9v4.2h-1.6v-9.6h1.6v3.9h2.9l2-3.9h1.7l-2.3,4.6l2.5,5h-1.7
				L1359.2-357.1z"/>
			<path id="XMLID_13114_" class="st3" d="M1366.9-362.5v1h0.4c0.5-0.7,1.5-1.3,3-1.3c2.6,0,4.2,2.2,4.2,5c0,2.9-1.6,5-4.2,5
				c-1.5,0-2.4-0.6-2.9-1.3h-0.4v4.8h-1.6v-13.2H1366.9z M1367-357.7c0,1.9,0.9,3.6,3,3.6c1.9,0,2.9-1.5,2.9-3.6
				c0-2.1-1-3.6-2.9-3.6C1367.9-361.3,1367-359.5,1367-357.7z"/>
			<path id="XMLID_13117_" class="st3" d="M1377.8-349.1l2-4.7l-4.1-8.7h1.7l2.9,6.3h0.5l2.7-6.3h1.7l-5.7,13.4
				C1379.5-349.1,1377.8-349.1,1377.8-349.1z"/>
			<path id="XMLID_13119_" class="st3" d="M1387-362.5h7.2v1.5h-5.6v8.2h-1.6V-362.5L1387-362.5z"/>
		</g>
		<g id="XMLID_12885_">
			<path id="XMLID_12886_" class="st3" d="M1589.2,477.2v4.9h-1.7v-3.3h-10.3v3.3h-1.7v-4.9h1.4c0.9-1.8,1.7-4.7,1.7-9.3v-2.7h8.6
				v12H1589.2z M1585.5,466.8h-5.3v1.5c0,4.2-0.7,7.2-1.5,9h6.8V466.8z"/>
			<path id="XMLID_12889_" class="st3" d="M1600.1,474c0,2.8-1.7,5-4.7,5s-4.7-2.2-4.7-5s1.7-5,4.7-5
				C1598.3,469,1600.1,471.2,1600.1,474z M1598.4,474c0-1.9-1-3.6-3.1-3.6s-3.1,1.7-3.1,3.6c0,1.9,1,3.6,3.1,3.6
				C1597.5,477.6,1598.4,475.9,1598.4,474z"/>
			<path id="XMLID_12892_" class="st3" d="M1609.4,478.8v-8.2h-5.2v8.2h-1.6v-9.6h8.4v9.6H1609.4z"/>
			<path id="XMLID_12894_" class="st3" d="M1623,474c0,2.8-1.7,5-4.7,5s-4.7-2.2-4.7-5s1.7-5,4.7-5C1621.2,469,1623,471.2,1623,474z
				 M1621.3,474c0-1.9-1-3.6-3.1-3.6s-3.1,1.7-3.1,3.6c0,1.9,1,3.6,3.1,3.6C1620.4,477.6,1621.3,475.9,1621.3,474z"/>
			<path id="XMLID_12897_" class="st3" d="M1624.4,477.2h0.3c1.3,0,1.9-0.9,1.9-4.3v-3.7h7.3v9.6h-1.6v-8.2h-4.2v2.3
				c0,4.4-1,5.8-3.4,5.8h-0.3L1624.4,477.2L1624.4,477.2z"/>
			<path id="XMLID_12899_" class="st3" d="M1643.9,478.8v-4.2h-5.3v4.2h-1.6v-9.6h1.6v3.9h5.3v-3.9h1.6v9.6H1643.9z"/>
			<path id="XMLID_12901_" class="st3" d="M1648.7,478.8v-9.6h1.6v7.4h0.4l4.2-7.4h2.4v9.6h-1.6v-7.4h-0.4l-4.3,7.4H1648.7z"/>
			<path id="XMLID_12903_" class="st3" d="M1659.3,469.2h8.2v1.4h-3.3v8.2h-1.6v-8.2h-3.3L1659.3,469.2L1659.3,469.2z"/>
			<path id="XMLID_12905_" class="st3" d="M1677.8,474h-7.3c0.1,2.3,1.1,3.6,3.1,3.6c1.3,0,2.1-0.6,2.4-1.5h1.6
				c-0.3,1.6-1.7,2.9-4.1,2.9c-3,0-4.7-2.2-4.7-5.1c0-2.9,1.7-4.9,4.6-4.9c2.8,0,4.2,2.1,4.3,4.5L1677.8,474L1677.8,474z
				 M1670.6,472.6h5.5c-0.1-1.2-1-2.3-2.6-2.3C1671.8,470.4,1670.8,471.4,1670.6,472.6z"/>
			<path id="XMLID_12908_" class="st3" d="M1679.2,477.2h0.3c1.3,0,1.9-0.9,1.9-4.3v-3.7h7.3v9.6h-1.6v-8.2h-4.2v2.3
				c0,4.4-1,5.8-3.4,5.8h-0.3L1679.2,477.2L1679.2,477.2z"/>
			<path id="XMLID_12910_" class="st3" d="M1693.5,472.4h2.8c2.3,0,3.6,1.2,3.6,3.2s-1.3,3.2-3.6,3.2h-4.4v-9.6h1.6V472.4z
				 M1696.1,477.4c1.7,0,2.2-0.7,2.2-1.8s-0.6-1.8-2.2-1.8h-2.6v3.6H1696.1z"/>
			<path id="XMLID_12913_" class="st3" d="M1709.1,478.8v-4.2h-5.3v4.2h-1.6v-9.6h1.6v3.9h5.3v-3.9h1.6v9.6H1709.1z"/>
			<path id="XMLID_12915_" class="st3" d="M1715.4,469.2v3.2h2.6c2.3,0,3.6,1.2,3.6,3.2s-1.3,3.2-3.6,3.2h-4.3v-9.6L1715.4,469.2
				L1715.4,469.2z M1715.4,477.4h2.4c1.7,0,2.2-0.7,2.2-1.8s-0.6-1.8-2.2-1.8h-2.4V477.4z M1724.8,469.2v9.6h-1.6v-9.6H1724.8z"/>
			<path id="XMLID_12919_" class="st3" d="M1728,478.8v-9.6h1.6v7.4h0.4l4.2-7.4h2.4v9.6h-1.6v-7.4h-0.4l-4.3,7.4H1728z M1735.1,465
				c-0.1,1.8-1.1,2.8-3,2.8c-1.8,0-2.9-1-2.9-2.8h1.3c0,1,0.5,1.6,1.6,1.6c1.2,0,1.6-0.6,1.7-1.6H1735.1z"/>
			<path id="XMLID_12922_" class="st3" d="M1743.1,469.2h8.2v1.4h-3.3v8.2h-1.6v-8.2h-3.3L1743.1,469.2L1743.1,469.2z"/>
			<path id="XMLID_12924_" class="st3" d="M1761.6,474h-7.3c0.1,2.3,1.1,3.6,3.1,3.6c1.3,0,2.1-0.6,2.4-1.5h1.6
				c-0.3,1.6-1.7,2.9-4.1,2.9c-3,0-4.7-2.2-4.7-5.1c0-2.9,1.7-4.9,4.6-4.9c2.8,0,4.2,2.1,4.3,4.5L1761.6,474L1761.6,474z
				 M1754.4,472.6h5.5c-0.1-1.2-1-2.3-2.6-2.3C1755.6,470.4,1754.7,471.4,1754.4,472.6z"/>
			<path id="XMLID_12927_" class="st3" d="M1768.6,474.6h-2.9v4.2h-1.6v-9.6h1.6v3.9h2.9l2-3.9h1.7l-2.3,4.6l2.5,5h-1.7
				L1768.6,474.6z"/>
			<path id="XMLID_12929_" class="st3" d="M1782.6,475.9c-0.4,1.9-1.8,3.1-4,3.1c-3,0-4.7-2.2-4.7-5c0-2.9,1.7-5,4.7-5
				c2.3,0,3.6,1.3,4,3h-1.6c-0.3-1-1-1.6-2.4-1.6c-2.2,0-3,1.7-3,3.6c0,1.9,0.9,3.7,3,3.7c1.4,0,2.2-0.7,2.4-1.7L1782.6,475.9
				L1782.6,475.9z"/>
			<path id="XMLID_12931_" class="st3" d="M1784,469.2h8.2v1.4h-3.3v8.2h-1.6v-8.2h-3.3L1784,469.2L1784,469.2z"/>
			<path id="XMLID_12933_" class="st3" d="M1798.9,478.8v-9.6h1.6v7.4h0.4l4.2-7.4h2.4v9.6h-1.6v-7.4h-0.4l-4.3,7.4H1798.9z"/>
			<path id="XMLID_12935_" class="st3" d="M1815.8,469.2h7.2v1.4h-5.6v8.2h-1.6V469.2z"/>
			<path id="XMLID_12937_" class="st3" d="M1826.7,469.2v1h0.4c0.5-0.7,1.5-1.3,3-1.3c2.6,0,4.2,2.2,4.2,5c0,2.9-1.6,5-4.2,5
				c-1.5,0-2.4-0.6-2.9-1.3h-0.4v4.8h-1.6V469h1.5V469.2z M1826.7,474c0,1.9,0.9,3.6,3,3.6c1.9,0,2.9-1.5,2.9-3.6s-1-3.6-2.9-3.6
				C1827.6,470.4,1826.7,472.1,1826.7,474z"/>
			<path id="XMLID_12940_" class="st3" d="M1842.9,477.8h-0.4c-0.6,0.7-1.6,1.3-3,1.3c-2.2,0-3.4-1.5-3.4-3.1c0-1.5,1-3.2,3.7-3.2
				h3.1v-0.4c0-1.2-0.7-2-2.3-2c-1.4,0-2.1,0.6-2.2,1.4h-1.6c0.1-1.8,1.7-2.8,3.8-2.8c2.4,0,3.9,1.2,3.9,3.3v6.5h-1.5L1842.9,477.8
				L1842.9,477.8z M1842.8,474.9V474h-2.9c-1.6,0-2.3,0.7-2.3,1.8s0.8,1.8,2.2,1.8C1841.5,477.6,1842.8,476.4,1842.8,474.9z"/>
			<path id="XMLID_12943_" class="st3" d="M1853.4,482.6h-1.6v-3.8h-0.3c-3,0-4.7-2-4.7-4.8s1.7-4.8,4.7-4.8h0.3V465h1.6v4.2h0.3
				c3,0,4.7,2,4.7,4.8c0,2.9-1.8,4.8-5,4.8V482.6z M1851.5,477.4h0.3v-6.8h-0.3c-2.1,0-3.1,1.6-3.1,3.4S1849.3,477.4,1851.5,477.4z
				 M1853.7,477.4c2.1,0,3.2-1.6,3.2-3.4s-1-3.4-3.2-3.4h-0.3v6.8L1853.7,477.4L1853.7,477.4z"/>
			<path id="XMLID_12947_" class="st3" d="M1860.9,478.8v-9.6h1.6v7.4h0.4l4.2-7.4h2.4v9.6h-1.6v-7.4h-0.4l-4.3,7.4H1860.9z"/>
			<path id="XMLID_12949_" class="st3" d="M1877,474.6h-2.9v4.2h-1.6v-9.6h1.6v3.9h2.9l2-3.9h1.7l-2.3,4.6l2.5,5h-1.7L1877,474.6z"
				/>
			<path id="XMLID_12951_" class="st3" d="M1889.3,477.8h-0.4c-0.6,0.7-1.6,1.3-3,1.3c-2.2,0-3.4-1.5-3.4-3.1c0-1.5,1-3.2,3.7-3.2
				h3.1v-0.4c0-1.2-0.7-2-2.3-2c-1.4,0-2.1,0.6-2.2,1.4h-1.6c0.1-1.8,1.7-2.8,3.8-2.8c2.4,0,3.9,1.2,3.9,3.3v6.5h-1.5L1889.3,477.8
				L1889.3,477.8z M1889.2,474.9V474h-2.9c-1.6,0-2.3,0.7-2.3,1.8s0.8,1.8,2.2,1.8C1887.9,477.6,1889.2,476.4,1889.2,474.9z"/>
			<path id="XMLID_12954_" class="st3" d="M1578.4,492v1h0.4c0.5-0.7,1.5-1.3,3-1.3c2.6,0,4.2,2.2,4.2,5c0,2.9-1.6,5-4.2,5
				c-1.5,0-2.4-0.6-2.9-1.3h-0.4v4.8h-1.6V492H1578.4z M1578.4,496.7c0,1.9,0.9,3.6,3,3.6c1.9,0,2.9-1.5,2.9-3.6s-1-3.6-2.9-3.6
				C1579.3,493.1,1578.4,494.9,1578.4,496.7z"/>
			<path id="XMLID_12957_" class="st3" d="M1594.6,500.5h-0.4c-0.6,0.7-1.6,1.3-3,1.3c-2.2,0-3.4-1.5-3.4-3.1c0-1.5,1-3.2,3.7-3.2
				h3.1v-0.4c0-1.2-0.7-2-2.3-2c-1.4,0-2.1,0.6-2.2,1.4h-1.6c0.1-1.8,1.7-2.8,3.8-2.8c2.4,0,3.9,1.2,3.9,3.3v6.5h-1.5L1594.6,500.5
				L1594.6,500.5z M1594.6,497.6v-0.9h-2.9c-1.6,0-2.3,0.7-2.3,1.8s0.8,1.8,2.2,1.8C1593.2,500.4,1594.6,499.2,1594.6,497.6z"/>
			<path id="XMLID_12960_" class="st3" d="M1607.2,498.6c-0.4,1.9-1.8,3.1-4,3.1c-3,0-4.7-2.2-4.7-5c0-2.9,1.7-5,4.7-5
				c2.3,0,3.6,1.3,4,3h-1.6c-0.3-1-1-1.6-2.4-1.6c-2.2,0-3,1.7-3,3.6c0,1.9,0.9,3.7,3,3.7c1.4,0,2.2-0.7,2.4-1.7L1607.2,498.6
				L1607.2,498.6z"/>
			<path id="XMLID_12962_" class="st3" d="M1616.4,501.5v-8.2h-5.2v8.2h-1.6V492h8.4v9.6L1616.4,501.5L1616.4,501.5z"/>
			<path id="XMLID_12964_" class="st3" d="M1630,496.7c0,2.8-1.7,5-4.7,5s-4.7-2.2-4.7-5s1.7-5,4.7-5
				C1628.2,491.7,1630,493.9,1630,496.7z M1628.3,496.7c0-1.9-1-3.6-3.1-3.6s-3.1,1.7-3.1,3.6c0,1.9,1,3.6,3.1,3.6
				C1627.4,500.4,1628.3,498.6,1628.3,496.7z"/>
			<path id="XMLID_12967_" class="st3" d="M1631.4,500h0.3c1.3,0,1.9-0.9,1.9-4.3V492h7.3v9.6h-1.6v-8.2h-4.2v2.3
				c0,4.4-1,5.8-3.4,5.8h-0.3L1631.4,500L1631.4,500z"/>
			<path id="XMLID_12969_" class="st3" d="M1650.1,500.5h-0.4c-0.6,0.7-1.6,1.3-3,1.3c-2.2,0-3.4-1.5-3.4-3.1c0-1.5,1-3.2,3.7-3.2
				h3.1v-0.4c0-1.2-0.7-2-2.3-2c-1.4,0-2.1,0.6-2.2,1.4h-1.6c0.1-1.8,1.7-2.8,3.8-2.8c2.4,0,3.9,1.2,3.9,3.3v6.5h-1.5L1650.1,500.5
				L1650.1,500.5z M1650.1,497.6v-0.9h-2.9c-1.6,0-2.3,0.7-2.3,1.8s0.8,1.8,2.2,1.8C1648.7,500.4,1650.1,499.2,1650.1,497.6z"/>
			<path id="XMLID_12972_" class="st3" d="M1654.6,492h7.2v1.4h-5.6v8.2h-1.6V492z"/>
			<path id="XMLID_12974_" class="st3" d="M1669.7,500.5h-0.4c-0.6,0.7-1.6,1.3-3,1.3c-2.2,0-3.4-1.5-3.4-3.1c0-1.5,1-3.2,3.7-3.2
				h3.1v-0.4c0-1.2-0.7-2-2.3-2c-1.4,0-2.1,0.6-2.2,1.4h-1.6c0.1-1.8,1.7-2.8,3.8-2.8c2.4,0,3.9,1.2,3.9,3.3v6.5h-1.5L1669.7,500.5
				L1669.7,500.5z M1669.7,497.6v-0.9h-2.9c-1.6,0-2.3,0.7-2.3,1.8s0.8,1.8,2.2,1.8C1668.3,500.4,1669.7,499.2,1669.7,497.6z"/>
			<path id="XMLID_12977_" class="st3" d="M1682.5,496.7h-7.3c0.1,2.3,1.1,3.6,3.1,3.6c1.3,0,2.1-0.6,2.4-1.5h1.6
				c-0.3,1.6-1.7,2.9-4.1,2.9c-3,0-4.7-2.2-4.7-5.1c0-2.9,1.7-4.9,4.6-4.9c2.8,0,4.2,2.1,4.3,4.5L1682.5,496.7L1682.5,496.7z
				 M1675.3,495.4h5.5c-0.1-1.2-1-2.3-2.6-2.3C1676.5,493.1,1675.5,494.2,1675.3,495.4z"/>
			<path id="XMLID_12980_" class="st3" d="M1683.7,492h8.2v1.4h-3.3v8.2h-1.6v-8.2h-3.3L1683.7,492L1683.7,492z"/>
			<path id="XMLID_12982_" class="st3" d="M1702,498.6c-0.4,1.9-1.8,3.1-4,3.1c-3,0-4.7-2.2-4.7-5c0-2.9,1.7-5,4.7-5
				c2.3,0,3.6,1.3,4,3h-1.6c-0.3-1-1-1.6-2.4-1.6c-2.2,0-3,1.7-3,3.6c0,1.9,0.9,3.7,3,3.7c1.4,0,2.2-0.7,2.4-1.7L1702,498.6
				L1702,498.6z"/>
			<path id="XMLID_12984_" class="st3" d="M1712.2,492v9.6h-1.6v-3.8h-2.9c-0.2,0-0.4,0-0.6,0l-1.4,3.8h-1.7l1.6-4.2
				c-1-0.5-1.5-1.3-1.5-2.5c0-1.8,1.2-2.9,3.4-2.9L1712.2,492L1712.2,492z M1707.6,493.3c-1.4,0-1.9,0.6-1.9,1.6
				c0,0.9,0.5,1.5,1.9,1.5h3v-3.1H1707.6z"/>
			<path id="XMLID_12987_" class="st3" d="M1727.3,496.7c0.9,0.2,1.6,1,1.6,2.2c0,1.7-1.2,2.6-3.4,2.6h-4.9V492h4.7
				c1.9,0,3,0.9,3,2.4c0,0.9-0.5,1.6-1,1.9L1727.3,496.7L1727.3,496.7z M1722.2,495.9h3c1.2,0,1.6-0.6,1.6-1.3s-0.4-1.3-1.6-1.3h-3
				V495.9z M1725.4,500.2c1.4,0,1.9-0.6,1.9-1.4s-0.5-1.4-1.9-1.4h-3.2v2.9L1725.4,500.2L1725.4,500.2z"/>
			<path id="XMLID_12991_" class="st3" d="M1740.2,496.7c0,2.8-1.7,5-4.7,5s-4.7-2.2-4.7-5s1.7-5,4.7-5S1740.2,493.9,1740.2,496.7z
				 M1738.6,496.7c0-1.9-1-3.6-3.1-3.6s-3.1,1.7-3.1,3.6c0,1.9,1,3.6,3.1,3.6C1737.6,500.4,1738.6,498.6,1738.6,496.7z"/>
			<path id="XMLID_12994_" class="st3" d="M1747.2,497.3h-2.9v4.2h-1.6V492h1.6v3.9h2.9l2-3.9h1.7l-2.3,4.6l2.5,5h-1.7L1747.2,497.3
				z"/>
			<path id="XMLID_12996_" class="st3" d="M1754.9,492v1h0.4c0.5-0.7,1.5-1.3,3-1.3c2.6,0,4.2,2.2,4.2,5c0,2.9-1.6,5-4.2,5
				c-1.5,0-2.4-0.6-2.9-1.3h-0.4v4.8h-1.6V492H1754.9z M1755,496.7c0,1.9,0.9,3.6,3,3.6c1.9,0,2.9-1.5,2.9-3.6s-1-3.6-2.9-3.6
				C1755.8,493.1,1755,494.9,1755,496.7z"/>
			<path id="XMLID_12999_" class="st3" d="M1765.8,505.3l2-4.7l-4.1-8.7h1.7l2.9,6.3h0.5l2.7-6.3h1.7l-5.7,13.4H1765.8z"/>
			<path id="XMLID_13001_" class="st3" d="M1775,492h7.2v1.4h-5.6v8.2h-1.6V492z"/>
		</g>
		<g id="XMLID_160_">
			<path id="XMLID_161_" class="st3" d="M2017,477.2v4.9h-1.7v-3.3H2005v3.3h-1.7v-4.9h1.4c0.9-1.8,1.7-4.7,1.7-9.3v-2.7h8.6v12
				H2017z M2013.4,466.8h-5.3v1.5c0,4.2-0.7,7.2-1.5,9h6.8V466.8z"/>
			<path id="XMLID_164_" class="st3" d="M2027.9,474c0,2.8-1.7,5-4.7,5s-4.7-2.2-4.7-5s1.7-5,4.7-5
				C2026.2,469,2027.9,471.2,2027.9,474z M2026.3,474c0-1.9-1-3.6-3.1-3.6s-3.1,1.7-3.1,3.6c0,1.9,1,3.6,3.1,3.6
				S2026.3,475.9,2026.3,474z"/>
			<path id="XMLID_167_" class="st3" d="M2037.3,478.8v-8.2h-5.2v8.2h-1.6v-9.6h8.4v9.6H2037.3z"/>
			<path id="XMLID_169_" class="st3" d="M2050.8,474c0,2.8-1.7,5-4.7,5s-4.7-2.2-4.7-5s1.7-5,4.7-5S2050.8,471.2,2050.8,474z
				 M2049.2,474c0-1.9-1-3.6-3.1-3.6s-3.1,1.7-3.1,3.6c0,1.9,1,3.6,3.1,3.6S2049.2,475.9,2049.2,474z"/>
			<path id="XMLID_172_" class="st3" d="M2052.3,477.2h0.3c1.3,0,1.9-0.9,1.9-4.3v-3.7h7.3v9.6h-1.6v-8.2h-4.2v2.3
				c0,4.4-1,5.8-3.4,5.8h-0.3L2052.3,477.2L2052.3,477.2z"/>
			<path id="XMLID_174_" class="st3" d="M2071.8,478.8v-4.2h-5.3v4.2h-1.6v-9.6h1.6v3.9h5.3v-3.9h1.6v9.6H2071.8z"/>
			<path id="XMLID_12783_" class="st3" d="M2076.5,478.8v-9.6h1.6v7.4h0.4l4.2-7.4h2.4v9.6h-1.6v-7.4h-0.4l-4.3,7.4H2076.5z"/>
			<path id="XMLID_12785_" class="st3" d="M2087.2,469.2h8.2v1.4h-3.3v8.2h-1.6v-8.2h-3.3L2087.2,469.2L2087.2,469.2z"/>
			<path id="XMLID_12787_" class="st3" d="M2105.7,474h-7.3c0.1,2.3,1.1,3.6,3.1,3.6c1.3,0,2.1-0.6,2.4-1.5h1.6
				c-0.3,1.6-1.7,2.9-4.1,2.9c-3,0-4.7-2.2-4.7-5.1c0-2.9,1.7-4.9,4.6-4.9c2.8,0,4.2,2.1,4.3,4.5L2105.7,474L2105.7,474z
				 M2098.5,472.6h5.5c-0.1-1.2-1-2.3-2.6-2.3C2099.6,470.4,2098.7,471.4,2098.5,472.6z"/>
			<path id="XMLID_12790_" class="st3" d="M2107.1,477.2h0.3c1.3,0,1.9-0.9,1.9-4.3v-3.7h7.3v9.6h-1.6v-8.2h-4.2v2.3
				c0,4.4-1,5.8-3.4,5.8h-0.3V477.2L2107.1,477.2z"/>
			<path id="XMLID_12792_" class="st3" d="M2121.3,472.4h2.8c2.3,0,3.6,1.2,3.6,3.2s-1.3,3.2-3.6,3.2h-4.4v-9.6h1.6V472.4z
				 M2123.9,477.4c1.7,0,2.2-0.7,2.2-1.8s-0.5-1.8-2.2-1.8h-2.6v3.6H2123.9z"/>
			<path id="XMLID_12795_" class="st3" d="M2137,478.8v-4.2h-5.3v4.2h-1.6v-9.6h1.6v3.9h5.3v-3.9h1.6v9.6H2137z"/>
			<path id="XMLID_12797_" class="st3" d="M2143.3,469.2v3.2h2.6c2.3,0,3.6,1.2,3.6,3.2s-1.3,3.2-3.6,3.2h-4.3v-9.6L2143.3,469.2
				L2143.3,469.2z M2143.3,477.4h2.4c1.7,0,2.2-0.7,2.2-1.8s-0.6-1.8-2.2-1.8h-2.4V477.4z M2152.7,469.2v9.6h-1.6v-9.6H2152.7z"/>
			<path id="XMLID_12801_" class="st3" d="M2155.8,478.8v-9.6h1.6v7.4h0.4l4.2-7.4h2.4v9.6h-1.6v-7.4h-0.4l-4.3,7.4H2155.8z
				 M2163,465c-0.1,1.8-1.1,2.8-3,2.8c-1.8,0-2.9-1-2.9-2.8h1.3c0,1,0.5,1.6,1.6,1.6c1.2,0,1.6-0.6,1.7-1.6H2163z"/>
			<path id="XMLID_12804_" class="st3" d="M2171,469.2h8.2v1.4h-3.3v8.2h-1.6v-8.2h-3.3V469.2L2171,469.2z"/>
			<path id="XMLID_12806_" class="st3" d="M2189.5,474h-7.3c0.1,2.3,1.1,3.6,3.1,3.6c1.3,0,2.1-0.6,2.4-1.5h1.6
				c-0.3,1.6-1.7,2.9-4.1,2.9c-3,0-4.7-2.2-4.7-5.1c0-2.9,1.7-4.9,4.6-4.9c2.8,0,4.2,2.1,4.3,4.5v0.5H2189.5z M2182.3,472.6h5.5
				c-0.1-1.2-1-2.3-2.6-2.3C2183.5,470.4,2182.5,471.4,2182.3,472.6z"/>
			<path id="XMLID_12809_" class="st3" d="M2196.5,474.6h-2.9v4.2h-1.6v-9.6h1.6v3.9h2.9l2-3.9h1.7l-2.3,4.6l2.5,5h-1.7
				L2196.5,474.6z"/>
			<path id="XMLID_12811_" class="st3" d="M2210.4,475.9c-0.4,1.9-1.8,3.1-4,3.1c-3,0-4.7-2.2-4.7-5c0-2.9,1.7-5,4.7-5
				c2.3,0,3.6,1.3,4,3h-1.6c-0.3-1-1-1.6-2.4-1.6c-2.2,0-3,1.7-3,3.6c0,1.9,0.9,3.7,3,3.7c1.4,0,2.2-0.7,2.4-1.7L2210.4,475.9
				L2210.4,475.9z"/>
			<path id="XMLID_12813_" class="st3" d="M2211.8,469.2h8.2v1.4h-3.3v8.2h-1.6v-8.2h-3.3L2211.8,469.2L2211.8,469.2z"/>
			<path id="XMLID_12815_" class="st3" d="M2226.7,478.8v-9.6h1.6v7.4h0.4l4.2-7.4h2.4v9.6h-1.6v-7.4h-0.4l-4.3,7.4H2226.7z"/>
			<path id="XMLID_12817_" class="st3" d="M2243.6,469.2h7.2v1.4h-5.6v8.2h-1.6V469.2z"/>
			<path id="XMLID_12819_" class="st3" d="M2254.5,469.2v1h0.4c0.5-0.7,1.5-1.3,3-1.3c2.6,0,4.2,2.2,4.2,5c0,2.9-1.6,5-4.2,5
				c-1.5,0-2.4-0.6-2.9-1.3h-0.4v4.8h-1.6V469h1.5V469.2z M2254.6,474c0,1.9,0.9,3.6,3,3.6c1.9,0,2.9-1.5,2.9-3.6s-1-3.6-2.9-3.6
				C2255.4,470.4,2254.6,472.1,2254.6,474z"/>
			<path id="XMLID_12822_" class="st3" d="M2270.7,477.8h-0.4c-0.6,0.7-1.6,1.3-3,1.3c-2.2,0-3.4-1.5-3.4-3.1c0-1.5,1-3.2,3.7-3.2
				h3.1v-0.4c0-1.2-0.7-2-2.3-2c-1.4,0-2.1,0.6-2.2,1.4h-1.6c0.1-1.8,1.7-2.8,3.8-2.8c2.4,0,3.9,1.2,3.9,3.3v6.5h-1.5L2270.7,477.8
				L2270.7,477.8z M2270.7,474.9V474h-2.9c-1.6,0-2.3,0.7-2.3,1.8s0.8,1.8,2.2,1.8C2269.3,477.6,2270.7,476.4,2270.7,474.9z"/>
			<path id="XMLID_12825_" class="st3" d="M2281.2,482.6h-1.6v-3.8h-0.3c-3,0-4.7-2-4.7-4.8s1.7-4.8,4.7-4.8h0.3V465h1.6v4.2h0.3
				c3,0,4.7,2,4.7,4.8c0,2.9-1.8,4.8-5,4.8V482.6z M2279.3,477.4h0.3v-6.8h-0.3c-2.1,0-3.1,1.6-3.1,3.4S2277.2,477.4,2279.3,477.4z
				 M2281.5,477.4c2.1,0,3.2-1.6,3.2-3.4s-1-3.4-3.2-3.4h-0.3v6.8L2281.5,477.4L2281.5,477.4z"/>
			<path id="XMLID_12829_" class="st3" d="M2288.8,478.8v-9.6h1.6v7.4h0.4l4.2-7.4h2.4v9.6h-1.6v-7.4h-0.4l-4.3,7.4H2288.8z"/>
			<path id="XMLID_12831_" class="st3" d="M2304.9,474.6h-2.9v4.2h-1.6v-9.6h1.6v3.9h2.9l2-3.9h1.7l-2.3,4.6l2.5,5h-1.7
				L2304.9,474.6z"/>
			<path id="XMLID_12833_" class="st3" d="M2317.1,477.8h-0.4c-0.6,0.7-1.6,1.3-3,1.3c-2.2,0-3.4-1.5-3.4-3.1c0-1.5,1-3.2,3.7-3.2
				h3.1v-0.4c0-1.2-0.7-2-2.3-2c-1.4,0-2.1,0.6-2.2,1.4h-1.6c0.1-1.8,1.7-2.8,3.8-2.8c2.4,0,3.9,1.2,3.9,3.3v6.5h-1.5L2317.1,477.8
				L2317.1,477.8z M2317.1,474.9V474h-2.9c-1.6,0-2.3,0.7-2.3,1.8s0.8,1.8,2.2,1.8C2315.7,477.6,2317.1,476.4,2317.1,474.9z"/>
			<path id="XMLID_12836_" class="st3" d="M2006.3,492v1h0.4c0.5-0.7,1.5-1.3,3-1.3c2.6,0,4.2,2.2,4.2,5c0,2.9-1.6,5-4.2,5
				c-1.5,0-2.4-0.6-2.9-1.3h-0.4v4.8h-1.6V492H2006.3z M2006.3,496.7c0,1.9,0.9,3.6,3,3.6c1.9,0,2.9-1.5,2.9-3.6s-1-3.6-2.9-3.6
				C2007.2,493.1,2006.3,494.9,2006.3,496.7z"/>
			<path id="XMLID_12839_" class="st3" d="M2022.5,500.5h-0.4c-0.6,0.7-1.6,1.3-3,1.3c-2.2,0-3.4-1.5-3.4-3.1c0-1.5,1-3.2,3.7-3.2
				h3.1v-0.4c0-1.2-0.7-2-2.3-2c-1.4,0-2.1,0.6-2.2,1.4h-1.6c0.1-1.8,1.7-2.8,3.8-2.8c2.4,0,3.9,1.2,3.9,3.3v6.5h-1.5L2022.5,500.5
				L2022.5,500.5z M2022.4,497.6v-0.9h-2.9c-1.6,0-2.3,0.7-2.3,1.8s0.8,1.8,2.2,1.8C2021.1,500.4,2022.4,499.2,2022.4,497.6z"/>
			<path id="XMLID_12842_" class="st3" d="M2035,498.6c-0.4,1.9-1.8,3.1-4,3.1c-3,0-4.7-2.2-4.7-5c0-2.9,1.7-5,4.7-5
				c2.3,0,3.6,1.3,4,3h-1.6c-0.3-1-1-1.6-2.4-1.6c-2.2,0-3,1.7-3,3.6c0,1.9,0.9,3.7,3,3.7c1.4,0,2.2-0.7,2.4-1.7L2035,498.6
				L2035,498.6z"/>
			<path id="XMLID_12844_" class="st3" d="M2044.3,501.5v-8.2h-5.2v8.2h-1.6V492h8.4v9.6L2044.3,501.5L2044.3,501.5z"/>
			<path id="XMLID_12846_" class="st3" d="M2057.8,496.7c0,2.8-1.7,5-4.7,5s-4.7-2.2-4.7-5s1.7-5,4.7-5S2057.8,493.9,2057.8,496.7z
				 M2056.2,496.7c0-1.9-1-3.6-3.1-3.6c-2.1,0-3.1,1.7-3.1,3.6c0,1.9,1,3.6,3.1,3.6C2055.2,500.4,2056.2,498.6,2056.2,496.7z"/>
			<path id="XMLID_12849_" class="st3" d="M2059.3,500h0.3c1.3,0,1.9-0.9,1.9-4.3V492h7.3v9.6h-1.6v-8.2h-4.2v2.3
				c0,4.4-1,5.8-3.4,5.8h-0.3L2059.3,500L2059.3,500z"/>
			<path id="XMLID_12851_" class="st3" d="M2078,500.5h-0.4c-0.6,0.7-1.6,1.3-3,1.3c-2.2,0-3.4-1.5-3.4-3.1c0-1.5,1-3.2,3.7-3.2h3.1
				v-0.4c0-1.2-0.7-2-2.3-2c-1.4,0-2.1,0.6-2.2,1.4h-1.6c0.1-1.8,1.7-2.8,3.8-2.8c2.4,0,3.9,1.2,3.9,3.3v6.5h-1.5v-1H2078z
				 M2077.9,497.6v-0.9h-2.9c-1.6,0-2.3,0.7-2.3,1.8s0.8,1.8,2.2,1.8C2076.6,500.4,2077.9,499.2,2077.9,497.6z"/>
			<path id="XMLID_12854_" class="st3" d="M2082.4,492h7.2v1.4h-5.6v8.2h-1.6V492z"/>
			<path id="XMLID_12856_" class="st3" d="M2097.6,500.5h-0.4c-0.6,0.7-1.6,1.3-3,1.3c-2.2,0-3.4-1.5-3.4-3.1c0-1.5,1-3.2,3.7-3.2
				h3.1v-0.4c0-1.2-0.7-2-2.3-2c-1.4,0-2.1,0.6-2.2,1.4h-1.6c0.1-1.8,1.7-2.8,3.8-2.8c2.4,0,3.9,1.2,3.9,3.3v6.5h-1.5L2097.6,500.5
				L2097.6,500.5z M2097.5,497.6v-0.9h-2.9c-1.6,0-2.3,0.7-2.3,1.8s0.8,1.8,2.2,1.8C2096.2,500.4,2097.5,499.2,2097.5,497.6z"/>
			<path id="XMLID_12859_" class="st3" d="M2110.3,496.7h-7.3c0.1,2.3,1.1,3.6,3.1,3.6c1.3,0,2.1-0.6,2.4-1.5h1.6
				c-0.3,1.6-1.7,2.9-4.1,2.9c-3,0-4.7-2.2-4.7-5.1c0-2.9,1.7-4.9,4.6-4.9c2.8,0,4.2,2.1,4.3,4.5L2110.3,496.7L2110.3,496.7z
				 M2103.1,495.4h5.5c-0.1-1.2-1-2.3-2.6-2.3C2104.3,493.1,2103.4,494.2,2103.1,495.4z"/>
			<path id="XMLID_12862_" class="st3" d="M2111.5,492h8.2v1.4h-3.3v8.2h-1.6v-8.2h-3.3V492L2111.5,492z"/>
			<path id="XMLID_12864_" class="st3" d="M2129.8,498.6c-0.4,1.9-1.8,3.1-4,3.1c-3,0-4.7-2.2-4.7-5c0-2.9,1.7-5,4.7-5
				c2.3,0,3.6,1.3,4,3h-1.6c-0.3-1-1-1.6-2.4-1.6c-2.2,0-3,1.7-3,3.6c0,1.9,0.9,3.7,3,3.7c1.4,0,2.2-0.7,2.4-1.7L2129.8,498.6
				L2129.8,498.6z"/>
			<path id="XMLID_12866_" class="st3" d="M2140.1,492v9.6h-1.6v-3.8h-2.9c-0.2,0-0.4,0-0.6,0l-1.4,3.8h-1.7l1.6-4.2
				c-1-0.5-1.5-1.3-1.5-2.5c0-1.8,1.2-2.9,3.4-2.9L2140.1,492L2140.1,492z M2135.5,493.3c-1.4,0-1.9,0.6-1.9,1.6
				c0,0.9,0.5,1.5,1.9,1.5h3v-3.1H2135.5z"/>
			<path id="XMLID_12869_" class="st3" d="M2155.2,496.7c0.9,0.2,1.6,1,1.6,2.2c0,1.7-1.2,2.6-3.4,2.6h-4.9V492h4.7
				c1.9,0,3,0.9,3,2.4c0,0.9-0.5,1.6-1,1.9L2155.2,496.7L2155.2,496.7z M2150.1,495.9h3c1.2,0,1.6-0.6,1.6-1.3s-0.4-1.3-1.6-1.3h-3
				V495.9z M2153.3,500.2c1.4,0,1.9-0.6,1.9-1.4s-0.5-1.4-1.9-1.4h-3.2v2.9L2153.3,500.2L2153.3,500.2z"/>
			<path id="XMLID_12873_" class="st3" d="M2168.1,496.7c0,2.8-1.7,5-4.7,5s-4.7-2.2-4.7-5s1.7-5,4.7-5S2168.1,493.9,2168.1,496.7z
				 M2166.5,496.7c0-1.9-1-3.6-3.1-3.6c-2.1,0-3.1,1.7-3.1,3.6c0,1.9,1,3.6,3.1,3.6C2165.5,500.4,2166.5,498.6,2166.5,496.7z"/>
			<path id="XMLID_12876_" class="st3" d="M2175.1,497.3h-2.9v4.2h-1.6V492h1.6v3.9h2.9l2-3.9h1.7l-2.3,4.6l2.5,5h-1.7L2175.1,497.3
				z"/>
			<path id="XMLID_12878_" class="st3" d="M2182.8,492v1h0.4c0.5-0.7,1.5-1.3,3-1.3c2.6,0,4.2,2.2,4.2,5c0,2.9-1.6,5-4.2,5
				c-1.5,0-2.4-0.6-2.9-1.3h-0.4v4.8h-1.6V492H2182.8z M2182.8,496.7c0,1.9,0.9,3.6,3,3.6c1.9,0,2.9-1.5,2.9-3.6s-1-3.6-2.9-3.6
				C2183.7,493.1,2182.8,494.9,2182.8,496.7z"/>
			<path id="XMLID_12881_" class="st3" d="M2193.6,505.3l2-4.7l-4.1-8.7h1.7l2.9,6.3h0.5l2.7-6.3h1.7l-5.7,13.4H2193.6z"/>
			<path id="XMLID_12883_" class="st3" d="M2202.9,492h7.2v1.4h-5.6v8.2h-1.6V492z"/>
		</g>
	</g>
</g>
</svg>
