<?xml version="1.0" encoding="utf-8"?>
<!-- Generator: Adobe Illustrator 19.0.0, SVG Export Plug-In . SVG Version: 6.00 Build 0)  -->
<svg version="1.1" id="Layer_1" xmlns="http://www.w3.org/2000/svg" xmlns:xlink="http://www.w3.org/1999/xlink" x="0px" y="0px"
	 viewBox="75 274.7 1350 652.3" style="enable-background:new 75 274.7 1350 652.3;" xml:space="preserve">
<style type="text/css">
	.st0{fill:none;stroke:#36ACA7;stroke-miterlimit:10;}
	.st1{fill:#36ACA7;}
	.st2{fill:#FFFFFF;}
</style>
<g id="XMLID_1465_">
	<line id="XMLID_1469_" class="st0" x1="77" y1="709.3" x2="1423" y2="709.3"/>
	<line id="XMLID_1468_" class="st0" x1="77" y1="492.4" x2="1423" y2="492.4"/>
	<line id="XMLID_1467_" class="st0" x1="1206.2" y1="275.7" x2="1206.2" y2="926"/>
	<line id="XMLID_1466_" class="st0" x1="293.8" y1="275.7" x2="293.8" y2="926"/>
</g>
<rect id="XMLID_1464_" x="77" y="275.7" class="st1" width="216.8" height="216.8"/>
<rect id="XMLID_1463_" x="77" y="709.3" class="st1" width="216.8" height="216.8"/>
<rect id="XMLID_1462_" x="1206.2" y="275.7" class="st1" width="216.8" height="216.8"/>
<rect id="XMLID_1443_" x="1206.2" y="709.3" class="st1" width="216.8" height="216.8"/>
<g id="XMLID_764_">
	<g id="XMLID_99_">
		<path id="XMLID_109_" class="st2" d="M445.4,709.3v-20h-10.3c-13.2,17-34.5,25.5-63.9,25.5c-23.8,0-42.6-6.8-56.6-20.4
			c-14.1-14.1-20.8-30.7-20.8-50.6c0-19.6,7.3-36.6,21.3-51.1c14.1-14.5,35.8-21.7,64.7-21.7h63.9v-6.4c0-25.1-15-39.6-45.6-39.6
			c-26.8,0-41.3,9.4-43.5,27.7H307c2.1-40.5,37.9-65.6,89.4-65.6c58.3,0,93.7,26,93.7,78.4v144H445.4L445.4,709.3z M427.1,659.8
			c11.1-10.7,16.7-23.4,16.7-38.3v-16.7h-55.3c-30.2,0-46,13.2-46,35.8c0,22.1,16.2,34.9,43.9,34.9
			C402.4,675.6,416,670.5,427.1,659.8z"/>
		<path id="XMLID_107_" class="st2" d="M658.4,492.4v44.8h-19.5c-43.9,0-67.7,25.1-67.7,70.7v101.4H523V492.4h46.5v25.1h10.3
			c12.4-16.7,32.8-25.1,60.5-25.1H658.4z"/>
		<path id="XMLID_105_" class="st2" d="M726.4,492.4h51.1v40.9h-51.1v105.6c0,19.1,11.1,28.5,33.2,28.5h17.8v41.8h-18.7
			c-52.3,0-80.5-17.4-80.5-63.9V437.6h48.2V492.4z"/>
		<path id="XMLID_102_" class="st2" d="M976.4,683.3c-19.6,20.8-46,31.5-79.7,31.5c-33.6,0-60-10.7-80.1-31.5
			c-19.6-21.3-29.4-49-29.4-82.7s9.8-60.9,29.4-81.8c20-21.3,46.5-31.9,80.1-31.9s60,10.7,79.7,31.9c20,20.8,29.8,48.2,29.8,81.8
			S996.5,661.9,976.4,683.3z M896.8,527.8c-39.6,0-61.3,31.9-61.3,72.8c0,41.3,21.7,73.3,61.3,73.3s61.3-31.9,61.3-73.3
			C958.1,559.7,936.4,527.8,896.8,527.8z"/>
		<path id="XMLID_100_" class="st2" d="M1152.1,550.4c-2.6-15.8-16.7-23.4-42.6-23.4c-26,0-39.2,7.7-39.2,22.5
			c0,13.2,8.5,18.3,27.7,21.7l42.2,6.8c43.9,7.3,66,29.4,66,67.3c0,19.1-8.1,35.8-24.7,49.5c-16.2,13.2-38.8,20-68.1,20
			c-61.3,0-94.5-26.8-99.2-71.1h48.2c3.8,20.8,20.4,31.1,50.3,31.1c30.2,0,45.6-9.4,45.6-28.1c0-16.7-10.3-24.2-35.4-28.9l-45.2-7.7
			c-34.1-5.6-55.3-24.7-55.3-57c0-38.8,30.7-66,89-66c51.5,0,84.3,24.7,89,63.4L1152.1,550.4L1152.1,550.4z"/>
	</g>
</g>
<g id="XMLID_763_">
	<path id="XMLID_13_" class="st0" d="M1422,276.7V925H78V276.7H1422 M1423,275.7H77V926h1346V275.7L1423,275.7z"/>
</g>
</svg>
