<?xml version="1.0" encoding="utf-8"?>
<!-- Generator: Adobe Illustrator 19.0.0, SVG Export Plug-In . SVG Version: 6.00 Build 0)  -->
<svg version="1.1" id="Layer_1" xmlns="http://www.w3.org/2000/svg" xmlns:xlink="http://www.w3.org/1999/xlink" x="0px" y="0px"
	 viewBox="0 477.7 1350 396.3" style="enable-background:new 0 477.7 1350 396.3;" xml:space="preserve">
<style type="text/css">
	.st0{fill:#101010;fill-opacity:0;}
	.st1{fill:#FFFFFF;}
	.st2{fill:#36AFA7;}
	.st3{fill:none;stroke:#36AFA7;stroke-miterlimit:10;}
	.st4{font-family:'Formular';}
	.st5{font-size:36.4086px;}
</style>
<rect id="XMLID_787_" y="477.7" class="st0" width="1350" height="396.3"/>
<g id="XMLID_788_">
	<path id="XMLID_1600_" class="st1" d="M135.1,540.4V585h-19.6C71.8,585,48,610.1,48,655.5v101H0V540.4h46.3v25.1h10.2
		c12.3-16.6,32.7-25.1,60.3-25.1H135.1z"/>
	<rect id="XMLID_1596_" x="347.8" y="540.4" class="st2" width="216.2" height="216.2"/>
	<line id="XMLID_1594_" class="st3" x1="172.8" y1="540.4" x2="172.8" y2="756.5"/>
	<text id="XMLID_1593_" transform="matrix(1 0 0 1 190.4541 657.3602)" class="st1 st4 st5">x</text>
	<line id="XMLID_1591_" class="st3" x1="603.3" y1="540.4" x2="603.3" y2="756.5"/>
	<line id="XMLID_1590_" class="st3" x1="564" y1="793" x2="347.8" y2="793"/>
	<rect id="XMLID_1589_" x="796.1" y="593.6" class="st2" width="109.7" height="109.7"/>
	<line id="XMLID_1588_" class="st3" x1="945.1" y1="593.6" x2="945.1" y2="703.3"/>
	<text id="XMLID_1559_" transform="matrix(1 0 0 1 620.9097 660.0384)" class="st1 st4 st5">x</text>
	<g id="XMLID_1474_">
		<text transform="matrix(1 0 0 1 967.3438 660.0384)" class="st1 st4 st5">1/2x</text>
	</g>
	<g id="XMLID_1006_">
		<text transform="matrix(1 0 0 1 1277.3652 660.0384)" class="st1 st4 st5">1/4x</text>
	</g>
	<rect id="XMLID_794_" x="1161.8" y="621" class="st2" width="54.9" height="54.9"/>
	<line id="XMLID_793_" class="st3" x1="1248.3" y1="621" x2="1248.3" y2="675.9"/>
	<g id="XMLID_771_">
		<text transform="matrix(1 0 0 1 442.2803 833.3353)" class="st1 st4 st5">x</text>
	</g>
</g>
</svg>
