<?xml version="1.0" encoding="utf-8"?>
<!-- Generator: Adobe Illustrator 19.0.0, SVG Export Plug-In . SVG Version: 6.00 Build 0)  -->
<svg version="1.1" id="Layer_1" xmlns="http://www.w3.org/2000/svg" xmlns:xlink="http://www.w3.org/1999/xlink" x="0px" y="0px"
	 viewBox="110 141 1500 1000" style="enable-background:new 110 141 1500 1000;" xml:space="preserve">
<style type="text/css">
	.st0{fill:#2BB9AF;}
	.st1{fill:#FFFFFF;}
</style>
<g id="XMLID_1291_">
	<g id="XMLID_399_">
		<path id="XMLID_400_" class="st0" d="M185.4,143.5l49.2,137.1H221l-15.6-44.4h-63.2l-15.6,44.4h-13.2l49-137.1H185.4z
			 M170.1,156.9l-23.9,67.8h55.1l-23.8-67.8H170.1z"/>
		<path id="XMLID_403_" class="st0" d="M354.8,205.3c22.3,4.6,35.7,15.6,35.7,38c0,11.3-4.4,20.7-13.2,28.4
			c-8.8,7.5-21.3,11.3-37.4,11.3c-30.5,0-50.3-15.2-54-39.2h13.2c3.8,18.6,19.8,27.6,41.3,27.6c10.8,0,19.6-2.5,26.7-7.7
			s10.8-11.9,10.8-20.5c0-15.4-9-22.5-26.7-26.3l-26.7-5.6c-21.3-4.4-32.1-15.7-32.1-33.8c0-10.6,4-19.4,12.3-26.3
			c8.3-6.9,19.7-10.2,34.1-10.2c27.1,0,44.9,14.2,48.2,35.7h-12.9c-4-16.1-15.9-24.2-35.7-24.2c-19.2,0-33.4,9.6-33.4,25.2
			c0,12.9,8.1,19,24,22.3L354.8,205.3z"/>
		<path id="XMLID_405_" class="st0" d="M472.6,280.6v-10.8h-3.8c-6.1,7.9-17.5,13.2-31.1,13.2c-10.9,0-19.4-3.1-25.5-9
			c-6.1-6-9.2-13.2-9.2-21.9c0-8.6,2.9-16.1,8.6-22.3c6-6.1,15-9.2,27.3-9.2h33.4v-6c0-13.1-8.3-21.9-25.9-21.9
			c-15.4,0-24.2,6-25,16.5h-12.1c1.3-17.1,15.7-27.3,37.1-27.3c23.2,0,38,12.1,38,31.9v66.6h-11.8V280.6z M462.7,263.7
			c6.3-5.8,9.6-12.9,9.6-21.5v-11.3h-30.1c-17.1,0-27.1,8.1-27.1,20.4c0,13.2,9.8,21.1,24.4,21.1
			C448.4,272.3,456.3,269.4,462.7,263.7z"/>
		<path id="XMLID_408_" class="st0" d="M590.3,280.6h-12.1v-59c0-19.2-8.8-28.8-26.7-28.8c-9.2,0-16.9,3.5-22.8,10.4
			c-6,6.9-8.8,15.2-8.8,24.8v52.6h-12.1v-96h11.7v10.8h3.8c5.4-7.7,17.1-13.2,30-13.2c23,0,37.1,14.2,37.1,36.7v61.7H590.3z"/>
		<path id="XMLID_410_" class="st0" d="M605.3,253.9h11.9c2.3,11.7,12.7,18.4,28.6,18.4c16.9,0,27.3-6.7,27.3-18.4
			c0-9.6-6.3-15.4-19-17.3c-5.6-0.8-13.2-2.1-22.8-4c-14.8-2.9-22.1-10.6-22.1-23c0-16.3,13.1-27.5,36.9-27.5
			c21.3,0,34.6,10.4,36.7,26.7h-11.9c-1-10-11.7-15.9-25.5-15.9c-15.2,0-24,5.8-24,15.6c0,8.3,5,12.3,16.3,14.4l21.3,3.5
			c17.5,3.3,26.3,12.3,26.3,27.3c0,8.3-3.5,15.2-10.4,20.9c-6.7,5.8-16.1,8.6-27.8,8.6C621.6,283.1,607.8,272.3,605.3,253.9z"/>
	</g>
	<g id="XMLID_386_">
		<path id="XMLID_387_" class="st0" d="M127.8,439.2h78.9v11.9h-91.6v-137h12.7V439.2z"/>
		<path id="XMLID_389_" class="st0" d="M236.3,326.7H223v-15.2h13.2v15.2H236.3z M235.7,355.1v96h-12.1v-96H235.7z"/>
		<path id="XMLID_392_" class="st0" d="M332.8,355.1h11.7v91.2c0,27.1-16.3,44.4-43.4,44.4c-23.8,0-39-10.4-42.2-28.2h11.9
			c2.9,11.7,12.9,17.5,30.1,17.5c20.9,0,31.5-12.1,31.5-33.6V438h-3.8c-7.1,8.8-17.3,13.2-30.5,13.2c-13.1,0-23.4-4.6-31.3-13.8
			c-7.9-9.2-11.7-20.9-11.7-35.3s3.8-26.1,11.7-35.3c7.9-9.4,18.2-14,31.3-14c13.2,0,23.6,4.4,30.9,13.2h3.8V355.1z M324,429.4
			c5.6-7.5,8.4-16.5,8.4-27.5s-2.9-20-8.4-27.5c-5.6-7.5-13.8-11.1-24.6-11.1c-20.2,0-32.3,15-32.3,38.6c0,23.2,12.1,38.4,32.3,38.4
			C310.2,440.4,318.4,436.7,324,429.4z"/>
		<path id="XMLID_395_" class="st0" d="M452.1,451.1H440v-58.9c0-19.2-8.8-28.8-26.7-28.8c-9.2,0-16.9,3.5-22.8,10.4
			c-6,6.9-8.8,15.2-8.8,24.8v52.6h-12.1V311.6h12.1v54.3h3.8c5.4-7.7,17.1-13.2,29.6-13.2c23,0,37.1,14.2,37.1,36.7v61.7H452.1z"/>
		<path id="XMLID_397_" class="st0" d="M494.3,355.1h25.5v10.8h-25.5v58.2c0,11.3,5.2,16.3,19,16.3h6.5v10.8h-6.7
			c-20.9,0-30.9-7.3-30.9-25.7V366h-17.7v-10.8h17.7v-29.8h12.1V355.1z"/>
	</g>
</g>
<g id="XMLID_377_">
	<path id="XMLID_378_" class="st1" d="M870.6,316.7h75.5v15l-36.9,32.6v3.8c12.7,0,23,3.6,30.9,11.1c7.9,7.3,11.9,17.5,11.9,30.5
		c0,13.6-4.2,24.2-12.9,32.1c-8.6,7.9-19.6,11.7-33,11.7c-12.9,0-23.4-3.6-31.9-10.9c-8.3-7.3-12.9-16.5-13.4-27.8h12.5
		c0.6,8.3,4,14.8,10.2,20c6.3,5.2,13.8,7.7,22.7,7.7c20,0,33.4-12.7,33.4-32.6c0-19.4-12.3-31.1-33.2-31.1c-4.8,0-8.4,0.4-11.3,1.2
		v-15.7l36.1-32.4v-3.8h-60.5L870.6,316.7L870.6,316.7z"/>
	<path id="XMLID_380_" class="st1" d="M1013.1,314.1c14.6,0,26.3,6,34.9,17.7c8.8,11.7,13.2,29,13.2,52.2s-4.4,40.5-13.2,52.2
		c-8.6,11.7-20.4,17.5-34.9,17.5c-14.6,0-26.3-5.8-35.1-17.5c-8.6-11.7-13.1-29-13.1-52.2c0-23.2,4.4-40.5,13.1-52.2
		C986.8,320,998.5,314.1,1013.1,314.1z M1013.1,442.5c11.7,0,20.5-5,26.5-15c6.1-10,9.2-24.6,9.2-43.6s-3.1-33.6-9.2-43.6
		c-6-10.2-14.8-15.2-26.5-15.2c-11.7,0-20.5,5-26.7,15.2c-6,10-9,24.6-9,43.6s3.1,33.6,9,43.6
		C992.5,437.5,1001.4,442.5,1013.1,442.5z"/>
	<path id="XMLID_383_" class="st1" d="M1123.7,314.1c14.6,0,26.3,6,34.9,17.7c8.8,11.7,13.2,29,13.2,52.2s-4.4,40.5-13.2,52.2
		c-8.6,11.7-20.4,17.5-34.9,17.5c-14.6,0-26.3-5.8-35.1-17.5c-8.6-11.7-13.1-29-13.1-52.2c0-23.2,4.4-40.5,13.1-52.2
		C1097.4,320,1109.1,314.1,1123.7,314.1z M1123.7,442.5c11.7,0,20.5-5,26.5-15c6.1-10,9.2-24.6,9.2-43.6s-3.1-33.6-9.2-43.6
		c-6-10.2-14.8-15.2-26.5-15.2s-20.5,5-26.7,15.2c-6,10-9,24.6-9,43.6s3.1,33.6,9,43.6C1103.1,437.5,1112,442.5,1123.7,442.5z"/>
</g>
<g id="XMLID_286_">
	<g id="XMLID_1050_">
		<path id="XMLID_1138_" class="st1" d="M123.4,612.4c4.2,0,7.5,1.4,9.9,4.3c2.4,2.9,3.5,6.5,3.5,10.9s-1.2,8-3.5,10.9
			c-2.3,2.9-5.7,4.3-9.9,4.3c-4.2,0-7.5-1.4-9.9-4.3c-2.4-2.9-3.5-6.5-3.5-10.9c0-4.4,1.2-8,3.5-10.9S119.2,612.4,123.4,612.4z
			 M123.4,640.3c1.8,0,3.4-0.4,4.8-1.1c2.8-1.4,4.4-4,5.2-6.9c1.5-6.1,0.3-13.6-5.2-16.3c-1.4-0.7-3-1.1-4.8-1.1
			c-1.8,0-3.4,0.4-4.9,1.1c-2.8,1.4-4.4,4-5.2,6.9c-1.7,6-0.2,13.6,5.2,16.3C120,639.9,121.5,640.3,123.4,640.3z"/>
		<path id="XMLID_1135_" class="st1" d="M159.4,639.9h3.8v8.1h-2.6v-5.9h-18.7v5.9h-2.6v-8.1h2.6c1.9-3.6,2.8-7.9,2.8-12.7v-5.5
			h14.7V639.9z M156.8,639.9V624h-9.7v3.2c0,5.1-0.8,9.4-2.5,12.7H156.8L156.8,639.9z"/>
		<path id="XMLID_1132_" class="st1" d="M185.1,631.5h-15.9v0.6c0,5.1,2.8,8.4,7.2,8.4c3.1,0,5.1-1.4,5.8-3.6h2.6
			c-0.7,3.4-3.6,5.9-8.4,5.9c-3.1,0-5.4-1-7.2-3.1c-1.7-2.1-2.6-4.7-2.6-7.9s0.9-5.7,2.6-7.6c1.7-1.9,4.1-2.9,7.1-2.9
			c2.8,0,5,0.9,6.5,2.8c1.5,1.8,2.3,4.1,2.3,6.7C185.1,630.8,185.1,631.5,185.1,631.5z M169.4,629.2h13.1c-0.2-3.1-2.6-5.7-6.2-5.7
			C172.3,623.5,169.9,626,169.4,629.2z"/>
		<path id="XMLID_1130_" class="st1" d="M195.8,632.9l-4.1,9.3h-2.8l4.6-10.5l-4.3-10h2.8l3.8,8.8h5.8v-8.8h2.6v8.8h5.8l3.8-8.8h2.7
			l-4.3,10l4.6,10.5H214l-4.1-9.3h-5.8v9.3h-2.6v-9.3H195.8z"/>
		<path id="XMLID_1127_" class="st1" d="M239.5,639.9h3.8v8.1h-2.6v-5.9H222v5.9h-2.6v-8.1h2.6c1.9-3.6,2.8-7.9,2.8-12.7v-5.5h14.7
			V639.9z M236.9,639.9V624h-9.7v3.2c0,5.1-0.8,9.4-2.5,12.7H236.9L236.9,639.9z"/>
		<path id="XMLID_1124_" class="st1" d="M261.2,642.2v-2.3h-0.8c-1.3,1.7-3.7,2.8-6.6,2.8c-2.3,0-4.1-0.7-5.4-1.9
			c-1.3-1.3-2-2.8-2-4.7c0-1.8,0.6-3.4,1.8-4.7c1.3-1.3,3.2-2,5.8-2h7.1v-1.3c0-2.8-1.8-4.7-5.5-4.7c-3.3,0-5.2,1.3-5.3,3.5h-2.6
			c0.3-3.6,3.4-5.8,7.9-5.8c5,0,8.1,2.6,8.1,6.8v14.2h-2.5V642.2z M259.1,638.6c1.4-1.2,2-2.7,2-4.6v-2.4h-6.4
			c-3.6,0-5.8,1.7-5.8,4.3c0,2.8,2.1,4.5,5.2,4.5C256.1,640.4,257.8,639.8,259.1,638.6z"/>
		<path id="XMLID_1122_" class="st1" d="M299.2,642.2h-2.6V624h-12.3v18.2h-2.6v-20.5h17.5L299.2,642.2L299.2,642.2z"/>
		<path id="XMLID_1119_" class="st1" d="M309.6,639.9h-0.8v10.5h-2.6v-28.7h2.5v2.3h0.8c1.5-1.9,3.7-2.8,6.6-2.8c2.8,0,5,1,6.6,3.1
			c1.7,2,2.5,4.6,2.5,7.7c0,3.2-0.8,5.7-2.5,7.7c-1.6,2-3.8,3-6.7,3C313.2,642.7,311.1,641.8,309.6,639.9z M310.5,625.9
			c-1.2,1.6-1.8,3.6-1.8,6c0,2.4,0.6,4.4,1.8,6c1.2,1.6,2.9,2.5,5.3,2.5c4.4,0,6.9-3.4,6.9-8.5c0-5.1-2.5-8.5-6.9-8.5
			C313.5,623.5,311.7,624.3,310.5,625.9z"/>
		<path id="XMLID_1116_" class="st1" d="M346.7,624.3c1.8,2,2.7,4.6,2.7,7.7s-0.9,5.7-2.7,7.7c-1.8,2-4.1,3.1-7.2,3.1
			c-3.1,0-5.5-1-7.2-3.1c-1.8-2-2.6-4.6-2.6-7.7s0.9-5.7,2.6-7.7c1.8-2,4.2-3.1,7.2-3.1C342.6,621.2,344.9,622.2,346.7,624.3z
			 M339.5,640.4c2.3,0,4.1-0.8,5.4-2.5c1.3-1.7,1.9-3.7,1.9-6c0-2.3-0.6-4.3-1.9-6c-1.3-1.7-3.1-2.5-5.4-2.5s-4.1,0.8-5.4,2.5
			c-1.3,1.6-1.9,3.6-1.9,6c0,2.4,0.6,4.3,1.9,6C335.4,639.6,337.2,640.4,339.5,640.4z"/>
		<path id="XMLID_1112_" class="st1" d="M366.9,642.2v8.2h-2.6v-8.2h-0.7c-3.1,0-5.5-0.9-7.3-2.8s-2.6-4.3-2.6-7.4
			c0-3.1,0.9-5.5,2.6-7.4c1.8-1.9,4.2-2.8,7.3-2.8h0.7v-9.3h2.6v9.3h0.7c3.1,0,5.5,0.9,7.3,2.8s2.6,4.3,2.6,7.4
			c0,3.1-0.9,5.5-2.6,7.4c-1.8,1.9-4.2,2.8-7.3,2.8H366.9z M364.3,639.9V624h-0.7c-4.8,0-7.3,3.4-7.3,7.9c0,4.6,2.6,7.9,7.3,7.9h0.7
			V639.9z M366.9,639.9h0.7c4.8,0,7.3-3.4,7.3-7.9c0-4.6-2.6-7.9-7.3-7.9h-0.7V639.9z"/>
		<path id="XMLID_1109_" class="st1" d="M400.4,631.5h-15.9v0.6c0,5.1,2.8,8.4,7.2,8.4c3.1,0,5.1-1.4,5.8-3.6h2.6
			c-0.7,3.4-3.6,5.9-8.4,5.9c-3.1,0-5.4-1-7.2-3.1c-1.7-2.1-2.6-4.7-2.6-7.9s0.9-5.7,2.6-7.6c1.7-1.9,4.1-2.9,7.1-2.9
			c2.8,0,5,0.9,6.5,2.8c1.5,1.8,2.3,4.1,2.3,6.7V631.5z M384.6,629.2h13.1c-0.2-3.1-2.6-5.7-6.2-5.7
			C387.6,623.5,385.1,626,384.6,629.2z"/>
		<path id="XMLID_1107_" class="st1" d="M422.8,636.3c-0.9,3.9-3.8,6.4-8.3,6.4c-3.1,0-5.4-1-7.2-3.1c-1.7-2-2.6-4.6-2.6-7.7
			s0.9-5.7,2.6-7.7c1.8-2,4.1-3.1,7.2-3.1c4.6,0,7.4,2.5,8.2,6.2h-2.6c-0.8-2.6-2.7-3.9-5.7-3.9c-2.4,0-4.2,0.8-5.4,2.4
			c-1.2,1.6-1.8,3.6-1.8,6c0,2.4,0.6,4.5,1.8,6.1s3,2.5,5.4,2.5c3.2,0,5-1.4,5.7-4.1L422.8,636.3L422.8,636.3z"/>
		<path id="XMLID_1105_" class="st1" d="M445,636.3c-0.9,3.9-3.8,6.4-8.3,6.4c-3.1,0-5.4-1-7.2-3.1c-1.7-2-2.6-4.6-2.6-7.7
			s0.9-5.7,2.6-7.7c1.8-2,4.1-3.1,7.2-3.1c4.6,0,7.4,2.5,8.2,6.2h-2.6c-0.8-2.6-2.7-3.9-5.7-3.9c-2.4,0-4.2,0.8-5.4,2.4
			c-1.2,1.6-1.8,3.6-1.8,6c0,2.4,0.6,4.5,1.8,6.1s3,2.5,5.4,2.5c3.2,0,5-1.4,5.7-4.1L445,636.3L445,636.3z"/>
		<path id="XMLID_1103_" class="st1" d="M454.9,642.2h-4.5v-20.5h2.6v17.9h0.8l9.5-17.9h4.8v20.5h-2.6v-17.9h-0.8L454.9,642.2z"/>
		<path id="XMLID_1100_" class="st1" d="M490.7,624.3c1.8,2,2.7,4.6,2.7,7.7s-0.9,5.7-2.7,7.7c-1.8,2-4.1,3.1-7.2,3.1
			s-5.5-1-7.2-3.1c-1.8-2-2.6-4.6-2.6-7.7s0.9-5.7,2.6-7.7s4.2-3.1,7.2-3.1C486.6,621.2,488.9,622.2,490.7,624.3z M483.5,640.4
			c2.3,0,4.1-0.8,5.4-2.5c1.3-1.7,1.9-3.7,1.9-6c0-2.3-0.6-4.3-1.9-6c-1.3-1.7-3.1-2.5-5.4-2.5s-4.1,0.8-5.4,2.5
			c-1.3,1.6-1.9,3.6-1.9,6c0,2.4,0.6,4.3,1.9,6C479.4,639.6,481.2,640.4,483.5,640.4z"/>
		<path id="XMLID_1098_" class="st1" d="M516.7,642.2h-2.6v-9.4h-12.5v9.4H499v-20.5h2.6v8.8h12.5v-8.8h2.6V642.2z"/>
		<path id="XMLID_1095_" class="st1" d="M536.8,642.2v-2.3H536c-1.3,1.7-3.7,2.8-6.6,2.8c-2.3,0-4.1-0.7-5.4-1.9
			c-1.3-1.3-2-2.8-2-4.7c0-1.8,0.6-3.4,1.8-4.7c1.3-1.3,3.2-2,5.8-2h7.1v-1.3c0-2.8-1.8-4.7-5.5-4.7c-3.3,0-5.2,1.3-5.3,3.5h-2.6
			c0.3-3.6,3.4-5.8,7.9-5.8c5,0,8.1,2.6,8.1,6.8v14.2h-2.5V642.2z M534.7,638.6c1.4-1.2,2-2.7,2-4.6v-2.4h-6.4
			c-3.6,0-5.8,1.7-5.8,4.3c0,2.8,2.1,4.5,5.2,4.5C531.7,640.4,533.4,639.8,534.7,638.6z"/>
		<path id="XMLID_1093_" class="st1" d="M543.6,642.2v-2.4h0.7c1.5,0,2.6-0.7,3.2-2.3c0.6-1.5,0.9-4.2,0.9-8.2v-7.7h14.9v20.5h-2.6
			V624h-9.9v5.4c0,4.8-0.5,8.1-1.5,10c-1,1.9-2.7,2.8-5,2.8L543.6,642.2L543.6,642.2z"/>
		<path id="XMLID_1090_" class="st1" d="M586,624.3c1.8,2,2.7,4.6,2.7,7.7s-0.9,5.7-2.7,7.7c-1.8,2-4.1,3.1-7.2,3.1s-5.5-1-7.2-3.1
			c-1.8-2-2.6-4.6-2.6-7.7s0.9-5.7,2.6-7.7s4.2-3.1,7.2-3.1C581.9,621.2,584.3,622.2,586,624.3z M578.8,640.4c2.3,0,4.1-0.8,5.4-2.5
			c1.3-1.7,1.9-3.7,1.9-6c0-2.3-0.6-4.3-1.9-6c-1.3-1.7-3.1-2.5-5.4-2.5s-4.1,0.8-5.4,2.5c-1.3,1.6-1.9,3.6-1.9,6
			c0,2.4,0.6,4.3,1.9,6C574.7,639.6,576.5,640.4,578.8,640.4z"/>
		<path id="XMLID_1086_" class="st1" d="M608,631.8c2.1,0.5,3.5,2.3,3.5,4.8c0,3.7-2.5,5.6-7.2,5.6h-9.9v-20.5h9.5
			c4.1,0,6.4,1.9,6.4,5.2c0,1.8-1,3.4-2.3,4.1V631.8z M596.9,624v6.5h7c2.7,0,3.8-1.4,3.8-3.2c0-2.2-1.3-3.3-3.8-3.3H596.9z
			 M604.5,639.9c2.9,0,4.4-1.2,4.4-3.5c0-2.4-1.5-3.6-4.4-3.6h-7.6v7.1H604.5z"/>
		<path id="XMLID_1084_" class="st1" d="M617.9,642.2h-1.8V638h3.4v4.9l-2,3.6h-1.7l2-3.6v-0.7H617.9z"/>
		<path id="XMLID_1082_" class="st1" d="M125.3,693.6l-4.7-9.4h-6.9v9.4h-2.6v-20.5h2.6v8.8h6.9l4.4-8.8h2.8l-5,9.9l5.3,10.6H125.3z
			"/>
		<path id="XMLID_1079_" class="st1" d="M148.4,675.7c1.8,2,2.7,4.6,2.7,7.7c0,3.1-0.9,5.7-2.7,7.7c-1.8,2-4.1,3.1-7.2,3.1
			c-3.1,0-5.5-1-7.2-3.1c-1.8-2-2.6-4.6-2.6-7.7c0-3.1,0.9-5.7,2.6-7.7c1.8-2,4.2-3.1,7.2-3.1C144.2,672.6,146.6,673.6,148.4,675.7z
			 M141.2,691.9c2.3,0,4.1-0.8,5.4-2.5c1.3-1.7,1.9-3.7,1.9-6s-0.6-4.3-1.9-6s-3.1-2.5-5.4-2.5s-4.1,0.8-5.4,2.5
			c-1.3,1.6-1.9,3.6-1.9,6s0.6,4.3,1.9,6C137,691,138.8,691.9,141.2,691.9z"/>
		<path id="XMLID_1077_" class="st1" d="M154,675.4v-2.3h17v2.3h-7.2v18.2h-2.6v-18.2H154z"/>
		<path id="XMLID_1074_" class="st1" d="M191.1,675.7c1.8,2,2.7,4.6,2.7,7.7c0,3.1-0.9,5.7-2.7,7.7c-1.8,2-4.1,3.1-7.2,3.1
			c-3.1,0-5.5-1-7.2-3.1c-1.8-2-2.6-4.6-2.6-7.7c0-3.1,0.9-5.7,2.6-7.7c1.8-2,4.2-3.1,7.2-3.1C187,672.6,189.4,673.6,191.1,675.7z
			 M183.9,691.9c2.3,0,4.1-0.8,5.4-2.5s1.9-3.7,1.9-6s-0.6-4.3-1.9-6s-3.1-2.5-5.4-2.5c-2.3,0-4.1,0.8-5.4,2.5
			c-1.3,1.6-1.9,3.6-1.9,6s0.6,4.3,1.9,6C179.8,691,181.6,691.9,183.9,691.9z"/>
		<path id="XMLID_1071_" class="st1" d="M202.8,691.3H202v10.5h-2.6v-28.7h2.5v2.3h0.8c1.5-1.9,3.7-2.8,6.6-2.8c2.8,0,5,1,6.6,3.1
			c1.7,2,2.5,4.6,2.5,7.7c0,3.2-0.8,5.7-2.5,7.7c-1.6,2-3.8,3-6.7,3C206.5,694.2,204.3,693.2,202.8,691.3z M203.8,677.4
			c-1.2,1.6-1.8,3.6-1.8,6s0.6,4.4,1.8,6s2.9,2.5,5.3,2.5c4.4,0,6.9-3.4,6.9-8.5s-2.5-8.5-6.9-8.5
			C206.7,674.9,205,675.7,203.8,677.4z"/>
		<path id="XMLID_1069_" class="st1" d="M228.2,701.8h-2.6l4.2-10.1l-8.7-18.6h2.8l6.8,14.5h1l6.1-14.5h2.7L228.2,701.8z"/>
		<path id="XMLID_1066_" class="st1" d="M269.2,675.7c1.7,2,2.6,4.6,2.6,7.7c0,3.1-0.9,5.7-2.6,7.7s-4.1,3.1-7.1,3.1
			c-2.8,0-5.1-0.9-6.8-2.8c-1.7-1.9-2.6-4.3-2.8-7.2h-5.1v9.4h-2.6v-20.5h2.6v8.8h5.2c0.3-2.7,1.2-5,2.9-6.7
			c1.7-1.8,3.9-2.6,6.6-2.6C265.1,672.6,267.4,673.6,269.2,675.7z M262.1,691.9c2.3,0,4-0.8,5.2-2.5c1.2-1.7,1.8-3.6,1.8-6
			s-0.6-4.3-1.8-6c-1.2-1.7-3-2.5-5.2-2.5c-2.3,0-4,0.8-5.2,2.5c-1.2,1.6-1.8,3.6-1.8,6s0.6,4.3,1.8,6
			C258.1,691,259.8,691.9,262.1,691.9z"/>
		<path id="XMLID_1064_" class="st1" d="M286.3,693.6v-2.4h0.7c1.5,0,2.6-0.7,3.2-2.3c0.6-1.5,0.9-4.2,0.9-8.2V673H306v20.5h-2.6
			v-18.2h-9.9v5.4c0,4.8-0.5,8.1-1.5,10s-2.7,2.8-5,2.8h-0.7V693.6z"/>
		<path id="XMLID_1061_" class="st1" d="M337.4,675.7c1.7,2,2.6,4.6,2.6,7.7c0,3.1-0.9,5.7-2.6,7.7c-1.7,2-4.1,3.1-7.1,3.1
			c-2.8,0-5.1-0.9-6.8-2.8c-1.7-1.9-2.6-4.3-2.8-7.2h-5.1v9.4H313v-20.5h2.6v8.8h5.2c0.3-2.7,1.2-5,2.9-6.7c1.7-1.8,3.9-2.6,6.6-2.6
			C333.3,672.6,335.7,673.6,337.4,675.7z M330.3,691.9c2.3,0,4-0.8,5.2-2.5s1.8-3.6,1.8-6s-0.6-4.3-1.8-6s-3-2.5-5.2-2.5
			c-2.2,0-4,0.8-5.2,2.5c-1.2,1.6-1.8,3.6-1.8,6s0.6,4.3,1.8,6C326.3,691,328.1,691.9,330.3,691.9z"/>
		<path id="XMLID_1058_" class="st1" d="M361.7,676.1c1.7,2,2.5,4.5,2.5,7.5s-0.9,5.5-2.7,7.5s-4.2,3-7.2,3c-6.3,0-10-4.5-10-12.3
			c0-3.2,0.1-5.4,0.8-8.1c0.9-4,3-6.5,7.3-7.4l5.6-0.9c1.6-0.3,1.8-0.5,2-1.6h2.6c-0.2,2.4-1.1,3.6-4,4.1l-6.1,1
			c-3.6,0.6-5,3.2-5.5,7.3h0.8c1.6-2,3.8-3,6.8-3C357.6,673.1,360,674.1,361.7,676.1z M359.6,677.9c-1.3-1.6-3.1-2.4-5.4-2.4
			s-4.2,0.8-5.4,2.4c-1.3,1.6-1.9,3.6-1.9,5.8c0,2.3,0.6,4.2,1.9,5.8c1.3,1.6,3.1,2.4,5.4,2.4s4.1-0.8,5.4-2.4
			c1.3-1.6,1.9-3.5,1.9-5.8C361.6,681.4,360.9,679.5,359.6,677.9z"/>
		<path id="XMLID_1055_" class="st1" d="M386.2,673.1v20.5h-2.6V685h-7.5c-0.5,0-0.9,0-1.1,0l-3.3,8.7H369l3.6-9.3
			c-2.1-0.9-3.2-2.7-3.2-5.3c0-3.7,2.4-5.9,6.7-5.9h10.1V673.1z M383.6,675.4h-7.2c-2.9,0-4.4,1.2-4.4,3.6c0,2.4,1.5,3.6,4.4,3.6
			h7.2V675.4z"/>
		<path id="XMLID_1053_" class="st1" d="M390.9,675.4v-2.3h17v2.3h-7.2v18.2h-2.6v-18.2H390.9z"/>
		<path id="XMLID_1051_" class="st1" d="M413,693.6h-3.4v-4.2h3.4V693.6z"/>
	</g>
</g>
<g id="XMLID_1_">
	<path id="XMLID_2_" class="st1" d="M882,639.9h-16.9l-4,11.8h-5l13.3-38.6h8.2l13.4,38.6h-5L882,639.9z M866.6,635.4h13.9
		l-5.9-17.3h-2.2L866.6,635.4z"/>
	<path id="XMLID_5_" class="st1" d="M913.5,628.8c8.3,0,12.9,4.3,12.9,11.4c0,7.2-4.6,11.4-12.9,11.4H897V613h26.4v4.4h-21.5v11.2
		h11.6V628.8z M912.7,647.4c6.5,0,8.9-2.7,8.9-7.2c0-4.4-2.3-7.1-8.9-7.1h-10.8v14.3L912.7,647.4L912.7,647.4z"/>
	<path id="XMLID_8_" class="st1" d="M959.1,631.9c3.2,1.5,5.4,5,5.4,8.9c0,6.2-4.3,10.9-13.1,10.9h-17.2v-38.6H951
		c8.2,0,12.3,4.5,12.3,9.8c0,3.5-1.4,6.3-4.2,7.8V631.9z M939,629.5h11.8c4.3,0,7.5-1.4,7.5-6.2c0-4.4-3.7-5.9-7.6-5.9H939V629.5z
		 M951.1,647.4c4.4,0,8.5-1.6,8.5-6.9c0-5-3.9-6.7-8.4-6.7H939v13.6H951.1z"/>
	<path id="XMLID_13_" class="st1" d="M976.9,617.6v34.1H972v-38.6h26.4v4.4L976.9,617.6L976.9,617.6z"/>
	<path id="XMLID_16_" class="st1" d="M1036.5,647.3v13.9h-4.8v-9.5h-29.2v9.5h-4.8v-13.9h4c2.5-5.2,4.9-13.5,4.9-26.4v-7.8h24.4
		v34.1L1036.5,647.3L1036.5,647.3z M1026.1,617.6h-15v4.2c0,11.9-2.1,20.5-4.3,25.5h19.3V617.6z"/>
	<path id="XMLID_19_" class="st1" d="M1070.5,647.3v4.4h-27.7v-38.6h26.8v4.4h-22v11.9h17.7v4.4h-17.7v13.3h22.9V647.3z"/>
	<path id="XMLID_21_" class="st1" d="M1105.7,647.3v4.4H1078v-38.6h26.8v4.4h-22v11.9h17.7v4.4h-17.7v13.3h22.9V647.3z M1084,608.1
		v-4.8h4.5v4.8H1084z M1093.9,608.1v-4.8h4.5v4.8H1093.9z"/>
	<path id="XMLID_25_" class="st1" d="M1138.5,634.3v17.4h-4.8v-17.4h-10l-7.1,17.4h-5.1l8.1-19.5l-7.6-19h5.1l6.6,16.7h10v-16.7h4.8
		v16.7h10l6.7-16.7h5.1l-7.7,19l8.2,19.5h-5.1l-7.2-17.4H1138.5z"/>
	<path id="XMLID_27_" class="st1" d="M1181.3,616.9c-5.4,0-8.2,2.2-9,6h-5c0.9-6.4,6-10.5,14-10.5c8.8,0,13.3,4.7,13.3,10.2
		c0,4.3-1.8,6.6-4,7.8v1.2c3.1,1.3,5.6,3.8,5.6,9.2c0,6.1-5,11.6-14.5,11.6s-14.7-4.4-15.9-11.3h5.1c1.2,4.6,5.1,6.9,10.9,6.9
		c5.7,0,9.5-2.7,9.5-7.2c0-4.1-2.3-6.9-8.8-6.9h-6.2v-4.4h6.2c5.5,0,7.3-2.9,7.3-6.2C1189.7,619.1,1186.1,616.9,1181.3,616.9z"/>
	<path id="XMLID_29_" class="st1" d="M1208.4,613.1v32.7h1.2l17.9-32.7h7.6v38.6h-4.8V619h-1.2l-17.9,32.7h-7.6v-38.6H1208.4z"/>
	<path id="XMLID_31_" class="st1" d="M1249.7,613.1v32.7h1.2l17.9-32.7h7.6v38.6h-4.8V619h-1.2l-17.9,32.7h-7.6v-38.6H1249.7z
		 M1270.2,602.9c-0.2,5.4-4,8.4-9.5,8.4c-5.2,0-9.2-3-9.3-8.4h3.9c0.1,3,2.2,4.9,5.4,4.9c3.2,0,5.5-1.8,5.5-4.9H1270.2z"/>
	<path id="XMLID_34_" class="st1" d="M1286.3,613.1h4.9v16.5h11.7l7.7-16.5h5.1l-8.6,18.7l9.1,19.8h-5.1l-8.2-17.7h-11.7v17.7h-4.9
		V613.1z"/>
	<path id="XMLID_36_" class="st1" d="M1321,646.9c5.1,0,7.2-3,7.2-19.6v-14.1h25.3v38.6h-4.9v-34.1h-15.9v10.6
		c0,19-3.5,23.5-11.8,23.5h-1.1V647L1321,646.9L1321,646.9z"/>
	<path id="XMLID_38_" class="st1" d="M1363.4,613.1h8.1l9.7,18.1h1.2l9.6-18.1h8.2v38.6h-4.8v-33h-1.2l-9.9,18.3h-5.1l-9.9-18.3
		h-1.2v33h-4.8v-38.6H1363.4z"/>
	<path id="XMLID_40_" class="st1" d="M1441.2,613.1v38.6h-4.9v-17.6h-21.5v17.6h-4.9v-38.6h4.9v16.4h21.5v-16.4H1441.2z"/>
	<path id="XMLID_42_" class="st1" d="M1485,632.4c0,11.1-6.3,20-18,20c-11.8,0-18-8.9-18-20c0-11.1,6.2-20,18-20
		S1485,621.3,1485,632.4z M1480.1,632.4c0-8-3.9-15.6-13.1-15.6s-13.1,7.5-13.1,15.6c0,8.1,3.9,15.6,13.1,15.6
		S1480.1,640.5,1480.1,632.4z"/>
	<path id="XMLID_45_" class="st1" d="M1523.8,613.1v38.6h-4.9v-34.1h-21.2v34.1h-4.9v-38.6H1523.8z"/>
	<path id="XMLID_47_" class="st1" d="M876.3,679.1c8.4,0,13.1,4.3,13.1,11.5c0,7.3-4.6,11.6-13.1,11.6h-11.4v15.4H860V679
		L876.3,679.1L876.3,679.1z M875.5,697.9c6.6,0,9-2.8,9-7.2c0-4.5-2.4-7.2-9-7.2h-10.6V698L875.5,697.9L875.5,697.9z"/>
	<path id="XMLID_50_" class="st1" d="M928.2,706.7c-1.6,6.9-6.8,11.7-15.3,11.7c-11.5,0-17.8-8.5-17.8-20s6.4-20,17.9-20
		c7.8,0,13.2,4.2,14.8,10.8h-5.1c-1.5-4.1-4.3-6.4-9.7-6.4c-9,0-13,7.4-13,15.6c0,8.2,3.9,15.6,12.9,15.6c5.4,0,8.9-2.8,10.2-7.2
		L928.2,706.7L928.2,706.7z"/>
	<path id="XMLID_52_" class="st1" d="M962.1,683.5h-12.6v34.2h-4.9v-34.2h-12.7v-4.3h30.2V683.5z"/>
	<path id="XMLID_54_" class="st1" d="M981.6,699.4l9.7-20.3h5.1L978,717.7h-5l5.5-11.6l-14.3-27h5.2l10.7,20.3H981.6z"/>
	<path id="XMLID_56_" class="st1" d="M1022.4,682.3c10.6,0,17.6,5.2,17.6,15.6c0,10.5-7,15.6-17.6,15.6h-0.6v5h-4.8v-5h-0.6
		c-10.6,0-17.6-5-17.6-15.6c0-10.4,7-15.6,17.6-15.6h0.6v-4.4h4.8v4.4H1022.4z M1017,709.1v-22.5h-0.6c-7.8,0-12.8,3.6-12.8,11.2
		c0,7.7,5,11.2,12.8,11.2L1017,709.1L1017,709.1z M1022.4,709.1c7.8,0,12.8-3.6,12.8-11.2c0-7.6-5-11.2-12.8-11.2h-0.6v22.5
		L1022.4,709.1L1022.4,709.1z"/>
	<path id="XMLID_60_" class="st1" d="M1060.3,700.2h-2l-10,17.5h-5.3l11.6-20.4l-9.9-18.2h5.2l8.4,15.4h2l8.5-15.4h5.2l-10,18
		l11.5,20.6h-5.5L1060.3,700.2z"/>
	<path id="XMLID_62_" class="st1" d="M1113.1,717.7h-31.4v-38.6h4.9v34.1h20.9v-34.1h4.9v34.1h5.6v13.9h-4.8L1113.1,717.7
		L1113.1,717.7z"/>
	<path id="XMLID_64_" class="st1" d="M1127.3,679.1v11c0,3.8,0.1,7.7,9.7,7.7c3.3,0,6.5-0.4,9.2-1.1V679h4.9v38.6h-4.9v-16.4
		c-3,0.6-6.9,1-9.8,1c-13.4,0-14-6.2-14-12.1v-11H1127.3z"/>
	<path id="XMLID_66_" class="st1" d="M1180.9,679.1h4.8v34.1h15.2v-34.1h4.8v38.6H1161v-38.6h4.8v34.1h15.2L1180.9,679.1
		L1180.9,679.1z"/>
	<path id="XMLID_68_" class="st1" d="M1260.8,717.7h-45.4v-38.6h4.8v34.1h15.2v-34.1h4.8v34.1h15.2v-34.1h4.8v34.1h5.6v13.9h-4.8
		v-9.4H1260.8z"/>
	<path id="XMLID_70_" class="st1" d="M1277,717.7v-34.1h-9.9v-4.4h14.7v14.7h11.1c8.6,0,13.4,4.5,13.4,11.9
		c0,7.5-4.8,11.9-13.4,11.9L1277,717.7L1277,717.7z M1292.1,713.4c6.9,0,9.3-2.9,9.3-7.6c0-4.6-2.4-7.6-9.3-7.6h-10.3v15.2
		L1292.1,713.4L1292.1,713.4z"/>
	<path id="XMLID_73_" class="st1" d="M1314.1,717.7v-38.6h4.9v14.7h10.4c8.6,0,13.4,4.5,13.4,11.9c0,7.5-4.8,11.9-13.4,11.9
		L1314.1,717.7L1314.1,717.7z M1328.5,713.4c6.9,0,9.3-2.9,9.3-7.6c0-4.6-2.4-7.6-9.3-7.6h-9.6v15.2L1328.5,713.4L1328.5,713.4z
		 M1352.8,679.1v38.6h-4.9v-38.6H1352.8z"/>
	<path id="XMLID_77_" class="st1" d="M1362.7,717.7v-38.6h4.9v14.7h11.1c8.6,0,13.4,4.5,13.4,11.9c0,7.5-4.8,11.9-13.4,11.9
		L1362.7,717.7L1362.7,717.7z M1377.8,713.4c6.9,0,9.3-2.9,9.3-7.6c0-4.6-2.4-7.6-9.3-7.6h-10.3v15.2L1377.8,713.4L1377.8,713.4z"/>
	<path id="XMLID_80_" class="st1" d="M1402.5,707.2c1.2,4.2,4.8,6.8,10.2,6.8c8.4,0,12.4-6.5,12.7-14h-18.1v-4.3h18
		c-0.7-7-4.5-12.9-12.6-12.9c-5.3,0-8.3,2.2-9.8,6.1h-5.1c1.7-6.5,7.1-10.5,14.9-10.5c11.4,0,17.8,8.6,17.8,20
		c0,11.3-6.3,20-17.8,20c-8.3,0-13.8-4.5-15.3-11.2L1402.5,707.2L1402.5,707.2z"/>
	<path id="XMLID_82_" class="st1" d="M1486.2,698.4c0,11.1-6.1,20-17.5,20c-10.9,0-16.9-8-17.5-18.3h-8v17.6h-4.9v-38.6h4.9v16.4
		h8.1c1-9.7,7-17.1,17.4-17.1C1480.1,678.4,1486.2,687.3,1486.2,698.4z M1481.3,698.4c0-8.1-3.8-15.6-12.6-15.6s-12.6,7.5-12.6,15.6
		s3.8,15.6,12.6,15.6S1481.3,706.5,1481.3,698.4z"/>
	<path id="XMLID_85_" class="st1" d="M1522.8,679.1v38.6h-4.9v-16.1h-11.2c-1,0-2.1-0.1-3.1-0.2l-5.8,16.3h-5l6.2-17.4
		c-3.9-1.7-5.9-5.1-5.9-9.9c0-7.1,4.5-11.2,12.7-11.2L1522.8,679.1L1522.8,679.1z M1517.9,697.2v-13.8h-11.5c-6.2,0-8.5,2.6-8.5,6.9
		c0,4.3,2.3,6.9,8.5,6.9L1517.9,697.2L1517.9,697.2z"/>
	<path id="XMLID_88_" class="st1" d="M876.8,804.8h-1.2c-1.7,2.1-4.6,3.6-8.5,3.6c-6.3,0-9.8-4.2-9.8-8.9c0-4.4,2.9-9,10.4-9h8.9
		v-1.1c0-3.3-1.9-5.7-6.6-5.7c-4.1,0-6.1,1.6-6.3,3.9h-4.6c0.4-5,4.7-7.9,10.8-7.9c6.9,0,11.2,3.3,11.2,9.4v18.5h-4.3L876.8,804.8
		L876.8,804.8z M876.7,796.7v-2.5h-8.2c-4.5,0-6.5,1.9-6.5,5.2c0,3.1,2.3,5,6.3,5C872.8,804.4,876.7,801,876.7,796.7z"/>
	<path id="XMLID_91_" class="st1" d="M914.9,794.6c0,7.7-5,13.8-13.4,13.8c-8.6,0-13.6-5.9-13.6-16.5c0-9.2,1.3-18.6,10.7-20.2
		l7.2-1.2c2-0.3,2.5-0.5,2.6-2.1h4.3c-0.2,3.1-1.1,5.3-5.3,6l-8.4,1.4c-4.9,0.9-6.5,4.3-7.1,8.8h1.2c2.3-3,5-3.9,8.8-3.9
		C910.2,780.7,914.9,786.8,914.9,794.6z M910.2,794.5c0-5.1-2.8-9.8-8.9-9.8s-8.9,4.8-8.9,9.8s2.8,9.9,8.9,9.9
		S910.2,799.5,910.2,794.5z"/>
	<path id="XMLID_94_" class="st1" d="M941.2,793.9c2.5,0.6,4.4,2.9,4.4,6.4c0,5-3.4,7.5-9.6,7.5h-14v-27.2h13.5
		c5.5,0,8.6,2.5,8.6,6.9c0,2.6-1.4,4.5-2.9,5.3V793.9z M926.6,791.8h8.5c3.3,0,4.4-1.7,4.4-3.7c0-2.1-1.1-3.7-4.4-3.7h-8.5V791.8z
		 M935.8,803.8c3.9,0,5.3-1.7,5.3-4.1c0-2.3-1.4-4.1-5.3-4.1h-9.2v8.2L935.8,803.8L935.8,803.8z"/>
	<path id="XMLID_98_" class="st1" d="M952.8,780.5h20.4v4h-15.8v23.2h-4.6L952.8,780.5L952.8,780.5z"/>
	<path id="XMLID_100_" class="st1" d="M1005.9,803.7v11.7h-4.5v-7.7h-23.5v7.7h-4.5v-11.7h3.6c1.7-3.7,3.3-9,3.3-15.8v-7.5h20.5
		v23.2L1005.9,803.7L1005.9,803.7z M996.3,784.5h-11.7v3.5c0,6.9-1.3,12.1-3,15.8h14.6v-19.3H996.3z"/>
	<path id="XMLID_103_" class="st1" d="M1035.4,794h-20.7c0.2,6.5,3.1,10.4,8.7,10.4c3.8,0,6.1-1.6,6.9-4.2h4.6
		c-0.9,4.6-4.8,8.2-11.6,8.2c-8.5,0-13.2-6.2-13.2-14.6s4.9-14,13.1-14c8.1,0,12,6,12.2,12.7V794z M1015,790.2h15.7
		c-0.3-3.5-2.9-6.4-7.5-6.4C1018.3,783.8,1015.6,786.7,1015,790.2z"/>
	<path id="XMLID_106_" class="st1" d="M1066.1,794h-20.7c0.2,6.5,3.1,10.4,8.7,10.4c3.8,0,6.1-1.6,6.9-4.2h4.6
		c-0.9,4.6-4.8,8.2-11.6,8.2c-8.5,0-13.2-6.2-13.2-14.6s4.9-14,13.1-14c8.1,0,12,6,12.2,12.7V794z M1045.7,790.2h15.7
		c-0.3-3.5-2.9-6.4-7.5-6.4C1049,783.8,1046.3,786.7,1045.7,790.2z M1046.8,773.6v-5h4.5v5H1046.8z M1056.6,773.6v-5h4.5v5H1056.6z"
		/>
	<path id="XMLID_111_" class="st1" d="M1075.8,807.7h-4.8l6.2-14l-5.8-13.2h4.8l4.9,11.3h7v-11.3h4.4v11.3h7l4.9-11.3h4.8l-5.8,13.2
		l6.2,14h-4.9l-5.2-11.9h-7v11.9h-4.5v-11.9h-7L1075.8,807.7z"/>
	<path id="XMLID_113_" class="st1" d="M1125.5,783.8c-3.9,0-5.9,1.2-6.6,4.2h-4.4c0.5-5.2,4.8-8.2,11.1-8.2c6.8,0,10.4,3.5,10.4,7.6
		c0,3-1.3,4.9-2.9,5.5v1.2c2,0.6,3.9,2.4,3.9,6.2c0,4.5-3.9,8.2-11.3,8.2c-7.5,0-11.4-3.3-12.3-8.4h4.4c1,3.4,4.1,4.4,7.8,4.4
		c3.9,0,6.7-1.4,6.7-4.4c0-2.6-1.5-4.2-6-4.2h-4.8v-4h4.6c3.9,0,5.3-1.8,5.3-3.9C1131.5,785.2,1129.1,783.8,1125.5,783.8z"/>
	<path id="XMLID_115_" class="st1" d="M1144.4,807.7v-27.2h4.5v21.1h1.2l11.9-21.1h6.7v27.2h-4.5v-21.1h-1.2l-12.2,21.1H1144.4z"/>
	<path id="XMLID_117_" class="st1" d="M1177.5,807.7v-27.2h4.5v21.1h1.2l11.9-21.1h6.7v27.2h-4.5v-21.1h-1.2l-12.2,21.1H1177.5z
		 M1198,768.6c-0.2,5-3.2,7.9-8.4,7.9c-5.1,0-8.2-2.9-8.4-7.9h3.7c0.1,2.8,1.5,4.6,4.6,4.6c3.3,0,4.5-1.8,4.7-4.6H1198z"/>
	<path id="XMLID_120_" class="st1" d="M1223.4,795.7h-8.2v12h-4.6v-27.2h4.6v11.2h8.3l5.7-11.2h4.8l-6.6,13.1l7,14.1h-4.9
		L1223.4,795.7z"/>
	<path id="XMLID_122_" class="st1" d="M1237.9,803.4h0.9c3.7,0,5.3-2.7,5.3-12.4v-10.5h20.8v27.2h-4.6v-23.2h-11.9v6.6
		c0,12.5-2.9,16.6-9.6,16.6h-0.9L1237.9,803.4L1237.9,803.4z"/>
	<path id="XMLID_124_" class="st1" d="M1273.8,780.5h7.3l6.7,12.4h1.2l6.7-12.4h7.2v27.2h-4.5v-21.9h-1.2l-6.3,11.7h-5.1l-6.3-11.7
		h-1.2v21.9h-4.5L1273.8,780.5L1273.8,780.5z"/>
	<path id="XMLID_126_" class="st1" d="M1331.3,807.7v-12h-15.1v12h-4.6v-27.2h4.6v11.2h15.1v-11.2h4.6v27.2H1331.3z"/>
	<path id="XMLID_128_" class="st1" d="M1369.9,794.1c0,8-4.9,14.3-13.4,14.3s-13.4-6.3-13.4-14.3s4.9-14.3,13.4-14.3
		S1369.9,786,1369.9,794.1z M1365.3,794.1c0-5.3-2.8-10.3-8.8-10.3s-8.8,5-8.8,10.3s2.8,10.3,8.8,10.3
		C1362.5,804.4,1365.3,799.4,1365.3,794.1z"/>
	<path id="XMLID_131_" class="st1" d="M1396.5,807.7v-23.2h-14.8v23.2h-4.6v-27.2h24v27.2H1396.5z"/>
	<path id="XMLID_133_" class="st1" d="M1414.4,780.5v2.9h1.2c1.5-1.9,4.2-3.6,8.5-3.6c7.5,0,11.9,6.3,11.9,14.3
		c0,8.2-4.4,14.3-11.9,14.3c-4.3,0-6.9-1.7-8.3-3.6h-1.2v13.7h-4.6v-38L1414.4,780.5L1414.4,780.5z M1414.5,794.1
		c0,5.3,2.5,10.3,8.5,10.3c5.5,0,8.4-4.3,8.4-10.3s-2.9-10.3-8.4-10.3C1417,783.8,1414.5,788.7,1414.5,794.1z"/>
	<path id="XMLID_136_" class="st1" d="M1466.2,799.5c-1,5.3-5.1,8.9-11.4,8.9c-8.5,0-13.2-6.3-13.2-14.3c0-8.2,4.8-14.3,13.2-14.3
		c6.5,0,10.4,3.6,11.3,8.6h-4.6c-0.9-2.8-3-4.6-6.7-4.6c-6.2,0-8.6,4.8-8.6,10.2c0,5.5,2.5,10.4,8.6,10.4c3.9,0,6.2-1.9,6.9-4.9
		L1466.2,799.5L1466.2,799.5z"/>
	<path id="XMLID_138_" class="st1" d="M1470.2,780.5h23.4v4h-9.4v23.2h-4.6v-23.2h-9.5L1470.2,780.5L1470.2,780.5z"/>
	<path id="XMLID_140_" class="st1" d="M1502.4,818.5l5.6-13.3l-11.6-24.7h4.9l8.3,17.9h1.3l7.6-17.9h4.8l-16.3,38H1502.4z"/>
	<path id="XMLID_142_" class="st1" d="M876.7,884.5h-4.5v-10.8h-0.9c-8.6,0-13.4-5.7-13.4-13.6c0-7.9,4.7-13.6,13.4-13.6h0.9v-12
		h4.5v12h0.9c8.6,0,13.4,5.7,13.4,13.6c0,8.4-5.1,13.6-14.3,13.6L876.7,884.5L876.7,884.5z M871.3,869.8h0.9v-19.4h-0.9
		c-6,0-8.9,4.4-8.9,9.7S865.2,869.8,871.3,869.8z M877.4,869.8c6.1,0,9-4.4,9-9.7s-2.9-9.7-9-9.7h-0.8v19.4H877.4z"/>
	<path id="XMLID_146_" class="st1" d="M908.7,862.3h-1.9l-6.9,11.4h-5l8.5-13.9l-7.6-13.3h4.9l6.3,10.8h1.9l6.4-10.8h4.8l-7.7,13.1
		l8.4,14.1h-5.2L908.7,862.3z"/>
	<path id="XMLID_148_" class="st1" d="M950.9,846.5v23.2h5v11.7h-4.4v-7.7h-24.4v-27.2h4.6v23.2h14.6v-23.2H950.9z"/>
	<path id="XMLID_150_" class="st1" d="M964.8,846.5v7.7c0,2.6,0.2,5.5,6.9,5.5c2.5,0,4.8-0.3,6.8-0.7v-12.4h4.6v27.2h-4.6v-10.7
		c-2.3,0.5-5.5,0.8-7.8,0.8c-9.9,0-10.5-4.7-10.5-9.2v-8h4.6V846.5z"/>
	<path id="XMLID_152_" class="st1" d="M1026.4,846.5v27.2h-34.8v-27.2h4.5v23.2h10.7v-23.2h4.5v23.2h10.7v-23.2H1026.4z"/>
	<path id="XMLID_154_" class="st1" d="M1070.1,846.5v23.2h5v11.7h-4.5v-7.7h-35.4v-27.2h4.5v23.2h10.7v-23.2h4.5v23.2h10.7v-23.2
		H1070.1z"/>
	<path id="XMLID_156_" class="st1" d="M1077.7,846.5h12.7v9.1h8c6.6,0,10.3,3.4,10.3,9c0,5.7-3.7,9.1-10.3,9.1h-12.6v-23.2h-8.1
		L1077.7,846.5L1077.7,846.5z M1097.8,869.7c4.7,0,6.3-1.9,6.3-5.1c0-3.2-1.6-5.1-6.3-5.1h-7.5v10.3h7.5V869.7z"/>
	<path id="XMLID_159_" class="st1" d="M1119.8,846.5v9.1h7.5c6.6,0,10.3,3.4,10.3,9c0,5.7-3.6,9.1-10.3,9.1h-12.1v-27.2
		L1119.8,846.5L1119.8,846.5z M1119.8,869.7h6.9c4.8,0,6.3-1.9,6.3-5.1c0-3.2-1.6-5.1-6.3-5.1h-6.9V869.7z M1146.6,846.5v27.2h-4.6
		v-27.2H1146.6z"/>
	<path id="XMLID_163_" class="st1" d="M1160,855.5h8c6.6,0,10.3,3.4,10.3,9c0,5.7-3.6,9.1-10.3,9.1h-12.6v-27.2h4.6V855.5z
		 M1167.4,869.7c4.8,0,6.3-1.9,6.3-5.1c0-3.2-1.6-5.1-6.3-5.1h-7.4v10.3h7.4V869.7z"/>
	<path id="XMLID_166_" class="st1" d="M1187.6,865.8c0.7,2.9,3.2,4.6,7.3,4.6c5.1,0,8-3.7,8.3-8.6h-12.3v-3.9h12.2
		c-0.4-4.7-3-8.2-8.3-8.2c-3.9,0-6.3,1.5-7.1,4.3h-4.5c1-4.9,5.2-8.3,11.5-8.3c8.2,0,13.1,5.9,13.1,14.3s-4.8,14.3-13.1,14.3
		c-6.2,0-10.6-3.5-11.7-8.6h4.6V865.8z"/>
	<path id="XMLID_168_" class="st1" d="M1252.1,860.1c0,8-4.9,14.3-13.2,14.3c-7.7,0-12.5-5.5-13.1-12.7h-6.2v12h-4.5v-27.2h4.5v11.2
		h6.4c0.9-6.9,5.6-11.9,12.9-11.9C1247.2,845.8,1252.1,852.1,1252.1,860.1z M1247.5,860.1c0-5.3-2.8-10.3-8.6-10.3
		c-5.9,0-8.6,5-8.6,10.3s2.7,10.3,8.6,10.3C1244.7,870.4,1247.5,865.4,1247.5,860.1z"/>
	<path id="XMLID_171_" class="st1" d="M1281.6,846.5v27.2h-4.6V863h-8.3c-0.6,0-1.1,0-1.7-0.1l-4.1,10.8h-4.8l4.6-11.8
		c-2.8-1.3-4.2-3.7-4.2-7.1c0-5.2,3.3-8.3,9.6-8.3L1281.6,846.5L1281.6,846.5z M1268.5,850.4c-4.1,0-5.5,1.7-5.5,4.4
		c0,2.6,1.4,4.3,5.5,4.3h8.4v-8.7H1268.5z"/>
	<path id="XMLID_174_" class="st1" d="M885.8,944.8c0,13.6-5.9,19.6-13.9,19.6s-13.9-6-13.9-19.6s5.9-19.7,13.9-19.7
		S885.8,931.2,885.8,944.8z M881.1,944.8c0-9.4-2.9-15.4-9.2-15.4s-9.1,6-9.1,15.4c0,9.3,2.9,15.4,9.1,15.4
		C878.2,960.2,881.1,954.1,881.1,944.8z"/>
	<path id="XMLID_177_" class="st1" d="M892,959.5h9v-28.6h-1.1l-7.9,5.3v-5l7.9-5.3h5.9v33.6h8.3v4.2h-22v-4.2H892z"/>
	<path id="XMLID_179_" class="st1" d="M918.9,936.3c0.4-7.6,5.9-11.2,12.6-11.2c7.1,0,12.3,3.9,12.3,11.5c0,5.1-3.9,9.9-8.4,13.7
		l-9.5,8v1.2H945v4.2h-26v-5.3l5.6-4.5c3-2.4,6.6-5.5,8.6-7.3c2.6-2.3,5.9-5.4,5.9-9.9c0-4.8-3-7.3-7.6-7.3c-4.3,0-7.2,2.2-7.7,7
		h-4.9V936.3z"/>
	<path id="XMLID_181_" class="st1" d="M973.8,925.9v5.3l-9.5,8.1v1.1c6.5,0.2,11.2,4.2,11.2,11.5c0,7.8-5.6,12.5-13.3,12.5
		s-12.8-4.9-13.2-11.3h4.8c0.4,4.3,3.9,7.1,8.5,7.1c5.2,0,8.6-3.1,8.6-8.3c0-5-3-8-8.5-8c-1.4,0-2.4,0.1-3.3,0.3v-5l9.2-8V930h-16.5
		v-4.1H973.8z"/>
	<path id="XMLID_183_" class="st1" d="M1008.8,950.6v4.2h-5.2v8.9H999v-8.9h-18.7v-5.4l16.7-23.5h6.6v24.7H1008.8z M999,950.6v-19.4
		h-1.2l-12.6,18.2v1.2H999z"/>
	<path id="XMLID_186_" class="st1" d="M1040.5,950.9c0,8.2-5.3,13.5-13,13.5c-8.3,0-12.7-4.9-13.2-11.3h4.7c0.6,4.7,3.7,7.1,8.3,7.1
		c5,0,8.4-3.5,8.4-9.1c0-5.2-3.2-8.9-8.3-8.9c-3.4,0-5.9,1.2-7.5,3.6h-4.8l1.7-19.9h21.6v4.1h-17.8l-0.9,10.9h1.2
		c1.7-1.6,3.8-2.6,7.3-2.6C1035.9,938.3,1040.5,943.9,1040.5,950.9z"/>
	<path id="XMLID_188_" class="st1" d="M1073.1,951.4c0,7.2-4.8,13-12.9,13c-8,0-13.9-5-13.9-18.6c0-11.5,4.5-20.7,14.4-20.7
		c6.4,0,10.5,3.8,11.3,9h-4.7c-0.9-3.2-3-4.8-6.6-4.8c-6,0-9.5,5.1-9.8,13.4h1.2c1.3-1.6,4.3-3.7,8.9-3.7
		C1067.9,939.1,1073.1,944.2,1073.1,951.4z M1068.3,951.6c0-5.6-3.7-8.4-8.3-8.4c-4.5,0-8.2,2.9-8.2,8.3c0,5.5,3.7,8.6,8.3,8.6
		C1064.7,960.2,1068.3,957.2,1068.3,951.6z"/>
	<path id="XMLID_191_" class="st1" d="M1085.8,963.7h-5l16.4-32.5V930H1078v-4.1h24.1v5.3L1085.8,963.7z"/>
	<path id="XMLID_193_" class="st1" d="M1129.2,944.4c2.5,0.9,5.9,4,5.9,9c0,6.3-5.3,11-13.7,11c-8.3,0-13.7-4.8-13.7-11
		c0-5,3.3-8.2,5.9-9v-1.2c-2-0.9-4.8-3.6-4.8-7.9c0-6,5.2-10.1,12.5-10.1c7.3,0,12.5,4.1,12.5,10.1c0,4.2-2.8,7.1-4.8,7.9v1.2
		H1129.2z M1130.4,952.9c0-4.5-3.4-7.1-9-7.1s-9,2.6-9,7.1c0,4.4,3.4,7.2,9,7.2C1127,960.2,1130.4,957.3,1130.4,952.9z
		 M1113.6,935.5c0,4,3.6,6.3,7.9,6.3s7.9-2.2,7.9-6.3s-3.6-6.2-7.9-6.2C1117.1,929.2,1113.6,931.4,1113.6,935.5z"/>
	<path id="XMLID_197_" class="st1" d="M1140.3,938.2c0-7.2,4.8-13,12.9-13c8,0,13.9,5,13.9,18.6c0,11.5-4.5,20.7-14.4,20.7
		c-6.4,0-10.5-3.8-11.3-9h4.7c0.9,3.2,3,4.8,6.6,4.8c6,0,9.5-5.1,9.8-13.4h-1.2c-1.3,1.6-4.3,3.7-8.9,3.7
		C1145.5,950.5,1140.3,945.3,1140.3,938.2z M1145,937.9c0,5.6,3.7,8.4,8.3,8.4c4.5,0,8.2-2.9,8.2-8.3c0-5.5-3.7-8.6-8.3-8.6
		C1148.6,929.3,1145,932.3,1145,937.9z"/>
	<path id="XMLID_200_" class="st1" d="M859.2,1008.7v-6.3h5.6v6.3H859.2z M859.2,1029.7v-6.3h5.6v6.3H859.2z"/>
	<path id="XMLID_203_" class="st1" d="M873.2,1029.7v-6.3h5.6v7.3l-3,5.2h-2.9l3-5.2v-1H873.2z M873.2,1008.7v-6.3h5.6v6.3H873.2z"
		/>
	<path id="XMLID_206_" class="st1" d="M887.1,1029.7v-6.3h5.6v6.3H887.1z"/>
	<path id="XMLID_208_" class="st1" d="M901,1029.7v-6.3h5.6v7.3l-3,5.2h-2.9l3-5.2v-1H901z"/>
	<path id="XMLID_210_" class="st1" d="M936.8,1000.9c0,5.7-2.8,7.8-6.6,10.9c-2.6,2-3.5,2.8-3.5,6.3v1.5h-4.6v-1.6
		c0-4.8,1.6-6.3,5.2-9.2c2.9-2.3,4.9-4,4.9-7.9c0-3.3-2.4-6.4-6.9-6.4s-7.1,2.1-7.3,7.2h-4.6c0.3-7,4.8-11.2,11.9-11.2
		C932.2,990.4,936.8,994.5,936.8,1000.9z M921.6,1029.7v-6.3h5.6v6.3H921.6z"/>
	<path id="XMLID_213_" class="st1" d="M940.3,1037.3l16.3-48.6h4.2l-16.1,48.6H940.3z"/>
	<path id="XMLID_215_" class="st1" d="M967.9,1029.7v-6.3h5.6v6.3H967.9z M973.1,991.1v15.9l-0.9,12.4h-3l-0.9-12.4v-15.9H973.1z"/>
	<path id="XMLID_218_" class="st1" d="M1017.9,1035.9c-3.9,2.6-8.5,4.1-14.1,4.1c-13.2,0-21.5-8.7-21.5-21.7c0-14.7,10.2-26,25.4-26
		c11.4,0,21.3,7,21.3,19.4c0,8.3-4.2,16.1-12,16.1c-3.1,0-5-1-5.9-3.1h-1c-1.3,1.5-3.3,3.1-7,3.1c-5.4,0-8.6-3.7-8.6-9.8
		c0-7.1,4.5-13.3,11.6-13.3c3,0,5,1.4,5.7,2.6h1.1l0.4-1.9h3.8l-2.3,13.7c0,0.2-0.3,1.9-0.3,2.8c0,1.9,1.2,2.8,3.1,2.8
		c4,0,7.9-4.7,7.9-13.2c0-9.5-7.2-16.1-18.3-16.1c-12.2,0-21.4,9.2-21.4,22.9c0,9.8,5.5,18.7,18.3,18.7c4.7,0,8.7-1.4,12.3-3.7
		L1017.9,1035.9z M1011.2,1014.3c0-5.3-2.8-6.2-5.2-6.2c-4.5,0-7.3,5-7.3,9.8c0,3.6,1.5,6.3,5.1,6.3
		C1008.1,1024.2,1011.2,1020.1,1011.2,1014.3z"/>
	<path id="XMLID_221_" class="st1" d="M1048.4,1000.6h3.9v11.7h11.8v3.9h-11.8v11.8h-3.9v-11.7h-11.7v-3.9h11.7V1000.6z"/>
	<path id="XMLID_223_" class="st1" d="M1084.4,1037.3h-4.4c-4.7-5.6-8.6-13.7-8.6-24.5c0-10.6,3.8-18.5,8.2-24.1h4.4
		c-4.3,5.9-8.3,13.4-8.3,24.1C1075.7,1023.7,1080,1031.4,1084.4,1037.3z"/>
	<path id="XMLID_225_" class="st1" d="M1085.3,988.7h4.4c4.4,5.6,8.2,13.5,8.2,24.1c0,10.7-3.9,18.9-8.6,24.5h-4.4
		c4.4-5.9,8.7-13.6,8.7-24.5C1093.6,1002.2,1089.6,994.6,1085.3,988.7z"/>
	<path id="XMLID_227_" class="st1" d="M1102.8,1013.8l10.8-21.5h3.4l10.7,21.5h-4.2l-7.8-15.6h-1l-7.7,15.6H1102.8z"/>
	<path id="XMLID_229_" class="st1" d="M1150.1,1001.3c0,5.6-2.9,10.2-8.7,10.2s-8.7-4.6-8.7-10.2s2.9-10.2,8.7-10.2
		S1150.1,995.7,1150.1,1001.3z M1146.3,1001.3c0-3.9-1.6-6.8-5-6.8s-5,2.9-5,6.8c0,3.9,1.6,6.8,5,6.8S1146.3,1005.2,1146.3,1001.3z
		 M1140.3,1029.7l22.9-37.8h4.1l-22.8,37.8H1140.3z M1175,1020.2c0,5.6-2.9,10.2-8.7,10.2s-8.7-4.6-8.7-10.2s2.9-10.2,8.7-10.2
		S1175,1014.6,1175,1020.2z M1171.2,1020.2c0-3.9-1.6-6.8-5-6.8s-5,2.9-5,6.8c0,3.9,1.6,6.8,5,6.8S1171.2,1024.1,1171.2,1020.2z"/>
	<path id="XMLID_235_" class="st1" d="M1187.5,1002.4l1.7-10.5h3.8l-1.7,10.5h7.3l1.7-10.5h3.8l-1.7,10.5h5.4v3.7h-6l-1.5,9.5h5.5
		v3.7h-6l-1.7,10.5h-3.9l1.7-10.5h-7.3l-1.7,10.5h-3.9l1.7-10.5h-5.4v-3.7h6l1.5-9.5h-5.5v-3.7H1187.5z M1189.3,1015.5h7.3l1.5-9.5
		h-7.3L1189.3,1015.5z"/>
	<path id="XMLID_238_" class="st1" d="M1245.5,991.9v37.8h-7.5l-17.6-31.6h-1.1v31.6h-4.6v-37.8h7.5l17.6,31.6h1.1v-31.6H1245.5z
		 M1268.3,1001.3c0,5.6-2.9,10.2-8.7,10.2c-5.8,0-8.7-4.6-8.7-10.2s2.9-10.2,8.7-10.2S1268.3,995.7,1268.3,1001.3z M1250.9,1018.2
		v-3.2h17.4v3.2H1250.9z M1264.6,1001.3c0-3.9-1.6-6.8-5-6.8s-5,2.9-5,6.8c0,3.9,1.6,6.8,5,6.8S1264.6,1005.2,1264.6,1001.3z"/>
	<path id="XMLID_243_" class="st1" d="M1276,997.4v-6.3h5.6v7.3l-3,5.2h-2.9l3-5.2v-1H1276z M1285.4,997.4v-6.3h5.6v7.3l-3,5.2h-2.9
		l3-5.2v-1H1285.4z"/>
	<path id="XMLID_246_" class="st1" d="M1304.6,1013.6c1.8,0.6,3,2.3,3,5.7v9c0,3.9,1.8,5.3,4.8,5.3h1.8v3.7h-2.1
		c-5.1,0-8.8-3-8.8-8.6v-8.6c0-3.3-0.6-5.2-3.4-5.2h-0.8v-3.8h0.8c2.8,0,3.4-1.9,3.4-5.2v-8.6c0-5.6,3.7-8.6,8.8-8.6h2.1v3.7h-1.8
		c-3,0-4.8,1.5-4.8,5.3v9c0,3.4-1.2,5.1-3,5.7V1013.6z"/>
	<path id="XMLID_248_" class="st1" d="M1327.9,1012.4c-1.8-0.6-3-2.3-3-5.7v-9c0-3.9-1.8-5.3-4.8-5.3h-1.8v-3.7h2.1
		c5.1,0,8.8,3,8.8,8.6v8.6c0,3.3,0.6,5.2,3.4,5.2h0.8v3.8h-0.8c-2.8,0-3.4,1.9-3.4,5.2v8.6c0,5.6-3.7,8.6-8.8,8.6h-2.1v-3.7h1.8
		c3,0,4.8-1.5,4.8-5.3v-9c0-3.4,1.2-5.1,3-5.7V1012.4z"/>
	<path id="XMLID_250_" class="st1" d="M1352,991.1l-0.3,9.1l8.6-3.1l1.1,3.5l-8.7,2.6l5.6,7.2l-3,2.2l-5.2-7.5l-5.1,7.5l-3-2.2
		l5.6-7.2l-8.7-2.6l1.1-3.5l8.6,3.1l-0.3-9.1H1352z"/>
	<path id="XMLID_252_" class="st1" d="M896.1,1080v4.1h-29.8v1.2l10.4,10.4h-5.6l-13.6-13.6l13.6-13.6h5.6l-10.4,10.4v1.2h29.8V1080
		z"/>
	<path id="XMLID_254_" class="st1" d="M915.5,1065.9h-1.2l-10.4,10.4v-5.6l13.6-13.6l13.6,13.6v5.6l-10.4-10.4h-1.2v29.8h-4.1v-29.8
		H915.5z"/>
	<path id="XMLID_256_" class="st1" d="M968.8,1080v-1.2l-10.4-10.4h5.6l13.6,13.6l-13.6,13.7h-5.6l10.4-10.4v-1.2H939v-4.1H968.8z"
		/>
	<path id="XMLID_258_" class="st1" d="M1000.4,1086.9h1.2l10.4-10.4v5.6l-13.6,13.6l-13.6-13.6v-5.6l10.4,10.4h1.2v-29.8h4.1v29.8
		H1000.4z"/>
	<path id="XMLID_260_" class="st1" d="M1026,1064.8l-0.8,0.9v14.6l-3.9-3.9v-19.2h19.2l3.9,3.9h-14.6l-0.9,0.8l21.1,21.1l-2.9,2.9
		L1026,1064.8z"/>
	<path id="XMLID_262_" class="st1" d="M1062.3,1085.8l-2.9-2.9l21.1-21.1l-0.9-0.8H1065l3.9-3.9h19.2v19.2l-3.9,3.9v-14.6l-0.8-0.9
		L1062.3,1085.8z"/>
	<path id="XMLID_264_" class="st1" d="M1123.3,1067l2.9,2.9l-21.1,21.1l0.9,0.8h14.6l-3.9,3.9h-19.2v-19.2l3.9-3.9v14.6l0.8,0.9
		L1123.3,1067z"/>
	<path id="XMLID_266_" class="st1" d="M1159.5,1088.1l0.8-0.9v-14.6l3.9,3.9v19.2H1145l-3.9-3.9h14.6l0.9-0.8l-21.1-21.1l2.9-2.9
		L1159.5,1088.1z"/>
	<path id="XMLID_268_" class="st1" d="M1176.2,1081l8.7,9.3h-5.1l-7.8-8.1v-3.5l7.8-8.2h5.1l-8.7,9.3V1081z"/>
	<path id="XMLID_270_" class="st1" d="M1200,1079.8l-8.7-9.3h5.1l7.8,8.2v3.5l-7.8,8.1h-5.1l8.7-9.3V1079.8z"/>
	<path id="XMLID_272_" class="st1" d="M1223,1074.6v3.1h-13.7v-3.1h5.1v-13.3h-0.9l-4.2,2.4v-3.5l5.1-3.1h3.5v17.4L1223,1074.6
		L1223,1074.6z M1217.5,1095.7l22.9-37.8h4.1l-22.8,37.8H1217.5z M1251.9,1087.9v3.1h-2.8v4.6h-3.5v-4.6h-10.4v-3.5l9.2-12.5h4.6
		v12.8L1251.9,1087.9L1251.9,1087.9z M1245.6,1087.9v-8.5h-0.9l-5.6,7.7v0.9L1245.6,1087.9L1245.6,1087.9z"/>
	<path id="XMLID_277_" class="st1" d="M1269.7,1074.6v3.1H1256v-3.1h5.1v-13.3h-0.9l-4.2,2.4v-3.5l5.1-3.1h3.5v17.4L1269.7,1074.6
		L1269.7,1074.6z M1264.3,1095.7l22.9-37.8h4.1l-22.8,37.8H1264.3z M1299,1092.6v3.1h-15.3v-3.9l2.4-1.7c1.3-1,3-2.1,4-2.9
		c2-1.5,4.6-3.3,4.6-5.9c0-2.1-1.4-3.4-3.6-3.4c-2.5,0-3.9,1.2-4,3.7h-3.5c0.2-4.8,3.4-6.9,7.6-6.9c4.1,0,7.1,2.2,7.1,6.4
		c0,3-1.8,5.1-4.2,6.9l-5.1,3.7v0.8h10V1092.6z"/>
	<path id="XMLID_281_" class="st1" d="M1313.5,1064.9c3,0.4,5.3,2.6,5.3,6.3c0,4.4-3.3,6.9-7.8,6.9c-4.6,0-7.7-2.9-7.9-6.8h3.5
		c0.2,2.3,2.1,3.6,4.4,3.6c2.5,0,4.3-1.4,4.3-3.8c0-2.4-1.7-3.8-4.3-3.8c-0.9,0-1.3,0-1.9,0.2v-3.2l4.1-3.2v-0.9h-8.6v-3.1h13.3v3.6
		l-4.5,3.5L1313.5,1064.9L1313.5,1064.9z M1311.6,1095.7l22.9-37.8h4.1l-22.8,37.8H1311.6z M1346,1087.9v3.1h-2.8v4.6h-3.5v-4.6
		h-10.4v-3.5l9.2-12.5h4.6v12.8L1346,1087.9L1346,1087.9z M1339.7,1087.9v-8.5h-0.9l-5.6,7.7v0.9L1339.7,1087.9L1339.7,1087.9z"/>
</g>
</svg>
