<?xml version="1.0" encoding="utf-8"?>
<!-- Generator: Adobe Illustrator 19.0.0, SVG Export Plug-In . SVG Version: 6.00 Build 0)  -->
<svg version="1.1" id="Layer_1" xmlns="http://www.w3.org/2000/svg" xmlns:xlink="http://www.w3.org/1999/xlink" x="0px" y="0px"
	 viewBox="110 141 1500 1000" style="enable-background:new 110 141 1500 1000;" xml:space="preserve">
<style type="text/css">
	.st0{fill:#2BB9AF;}
	.st1{fill:#FFFFFF;}
</style>
<g id="XMLID_1330_">
	<g id="XMLID_369_">
		<path id="XMLID_370_" class="st0" d="M207.8,143.5l41.1,137.1h-35.5l-10-35.5h-46.1l-9.8,35.5h-34.7l41.1-137.1H207.8z
			 M176.1,177.3L165,217h30.5l-10.9-39.7H176.1z"/>
		<path id="XMLID_373_" class="st0" d="M376,183c-1.7-8.3-8.4-12.3-20.2-12.3c-10,0-17.5,4-17.5,11.9c0,5.6,4.4,9.2,13.2,10.6
			l25.2,4c24,3.8,39.2,17.1,39.2,41.1c0,12.7-5,23.2-14.8,31.9c-9.8,8.6-24,12.9-42.4,12.9c-36.1,0-57.6-16.9-60.5-46.7h36.5
			c1.7,11.3,10.2,16.9,25.5,16.9c12.3,0,19.8-5.2,19.8-12.9c0-7.9-5-11.3-15.7-13.1l-25.7-4.2c-24-3.8-36.3-17.7-36.3-39
			c0-12.3,4.8-22.5,14.4-30.7c9.6-8.2,22.8-12.4,39.5-12.4c15.6,0,28.6,3.8,38.8,11.3c10.4,7.5,16.1,17.7,17.5,30.7H376z"/>
		<path id="XMLID_375_" class="st0" d="M521.9,217.6v63h-30.5v-7.7H486c-6,6.7-14.8,10.2-26.3,10.2c-10.6,0-19.2-3.3-25.5-9.8
			s-9.4-14.4-9.4-23.8c0-8.8,3.5-16.5,10.6-23.2s17.5-10,31.5-10h23v-1.7c0-8.4-4.6-12.7-13.6-12.7c-8.1,0-12.5,2.9-13.2,8.6h-33
			c0.2-9.8,4.4-17.5,12.7-23.4c8.3-6,18.8-8.8,31.7-8.8C506,178.2,521.9,191.3,521.9,217.6z M489.9,235.3h-16.1
			c-9.4,0-15.6,4.4-15.6,11.5c0,7.9,4.8,11.7,14.2,11.7c10.8,0,17.5-7.3,17.5-17.3V235.3z"/>
		<path id="XMLID_378_" class="st0" d="M639.8,220.3v60.3h-33.4v-54.7c0-11.7-5.6-18.4-15.7-18.4c-10.9,0-17.7,9-17.7,20.5v52.6
			h-33.4v-99.9h32.3v8.6h5.4c6.1-7.5,15-11.1,26.5-11.1C627.7,178.2,639.8,192.3,639.8,220.3z"/>
		<path id="XMLID_380_" class="st0" d="M711.8,217.6c22.7,3.1,34,13.8,34,32.3c0,9.2-4,17.1-12.1,23.6c-8.1,6.3-19.6,9.6-34.4,9.6
			c-30.5,0-46.5-13.2-48.6-35.3h33c1,7.7,6.3,11.5,15.9,11.5c8.4,0,12.7-2.9,12.7-8.6c0-5.4-3.6-7.5-12.1-9l-17.7-2.9
			c-19-3.1-28.6-12.5-28.6-28c0-19,15-32.4,44.4-32.4c25.3,0,41.9,12.3,44.2,30.7h-32.8c-1-4.8-5-7.3-12.1-7.3
			c-6,0-10.2,2.3-10.2,6.7c0,3.8,2.7,6.1,8.1,6.9L711.8,217.6z"/>
	</g>
	<g id="XMLID_355_">
		<path id="XMLID_356_" class="st0" d="M211.8,383.2c9,4,17.1,15.2,17.1,27.6c0,24.4-15.9,40.3-47.6,40.3H112v-137h67.2
			c30,0,46.1,15.7,46.1,37.4c0,11.7-5.6,21.9-13.4,26.3L211.8,383.2L211.8,383.2z M147.7,342.9v23.6h26.7c9.4,0,14.2-3.8,14.2-11.7
			c0-7.9-4.8-11.9-14.6-11.9L147.7,342.9L147.7,342.9z M175.5,421.8c9.2,0,16.7-3.8,16.7-12.9s-5.4-13.6-16.1-13.6h-28.4v26.5H175.5
			z"/>
		<path id="XMLID_360_" class="st0" d="M244.4,311.6h33.4v139.6h-33.4V311.6z"/>
		<path id="XMLID_362_" class="st0" d="M387.3,388.2v63h-30.5v-7.7h-5.4c-6,6.7-14.8,10.2-26.3,10.2c-10.6,0-19.2-3.3-25.5-9.8
			c-6.3-6.5-9.4-14.4-9.4-23.8c0-8.8,3.5-16.5,10.6-23.2c7.1-6.7,17.5-10,31.5-10h23v-1.7c0-8.4-4.6-12.7-13.6-12.7
			c-8.1,0-12.5,2.9-13.2,8.6h-33c0.2-9.8,4.4-17.5,12.7-23.4c8.3-6,18.8-8.8,31.7-8.8C371.4,348.8,387.3,361.9,387.3,388.2z
			 M355.2,405.8h-16.1c-9.4,0-15.6,4.4-15.6,11.5c0,7.9,4.8,11.7,14.2,11.7c10.8,0,17.5-7.3,17.5-17.3L355.2,405.8L355.2,405.8z"/>
		<path id="XMLID_365_" class="st0" d="M498.8,415.4c-1,11.3-5.8,20.5-14.8,27.6c-8.8,7.1-19.8,10.6-32.8,10.6
			c-15.6,0-28.2-4.6-37.6-14s-14-22.3-14-38.4s4.6-28.8,14-38.2c9.4-9.4,22.1-14.2,37.6-14.2c12.9,0,23.6,3.3,32.3,10
			c8.6,6.7,13.4,15.4,14.4,26.3h-32.8c-1.7-6-6.3-9-13.6-9c-12.9,0-18.4,10.4-18.4,25.2c0,15.2,5.6,25.2,18.4,25.2
			c8.6,0,13.6-3.6,14.6-10.9h32.7V415.4z"/>
		<path id="XMLID_367_" class="st0" d="M617.9,451.1h-34.6l-20.2-42.4h-5.4L546.3,422v29.2h-33.6V311.6h33.6v72.6l30.7-32.8h36.7
			l-28.2,30.9L617.9,451.1z"/>
	</g>
</g>
<g id="XMLID_345_">
	<path id="XMLID_346_" class="st1" d="M874.2,394.5c-8.3-8.3-12.5-19-12.5-32.1c0-13.6,4.8-25,14.2-34.4s21.9-14,37.2-14
		c31.7,0,56.1,18,56.1,68c0,22.1-4.6,39.6-14,52.4c-9.4,12.9-23.4,19.2-42.2,19.2c-12.5,0-23.4-3.6-32.4-10.9
		c-9-7.5-14.2-16.3-15.6-26.9h34.2c1.5,6.9,6.5,10.4,14.8,10.4c12.5,0,21.3-8.8,22.7-28.6h-5.4c-5.8,6.3-14.4,9.4-26.1,9.4
		C893,407,882.6,402.8,874.2,394.5z M896.1,361.5c0,6.1,1.5,10.9,4.8,14.4c3.3,3.3,7.7,5,13.2,5s9.8-1.7,13.1-5s5-8.1,5-14.2
		c0-12.3-7.3-20-18-20C903.2,341.7,896.1,349,896.1,361.5z"/>
	<path id="XMLID_349_" class="st1" d="M1033.7,314.1c16.3,0,29.6,5.8,39.6,17.3s15,29,15,52.4s-5,40.9-15,52.6
		c-10,11.5-23.2,17.3-39.6,17.3c-16.4,0-29.6-5.8-39.6-17.3c-10-11.7-15-29.2-15-52.6s5-40.9,15-52.4
		C1004.2,319.8,1017.4,314.1,1033.7,314.1z M1033.7,344.2c-13.4,0-20.2,13.2-20.2,39.6c0,26.5,6.7,39.7,20.2,39.7
		c13.5,0,20.2-13.2,20.2-39.7C1053.9,357.4,1047.2,344.2,1033.7,344.2z"/>
	<path id="XMLID_352_" class="st1" d="M1152.8,314.1c16.3,0,29.6,5.8,39.6,17.3s15,29,15,52.4s-5,40.9-15,52.6
		c-10,11.5-23.2,17.3-39.6,17.3s-29.6-5.8-39.6-17.3c-10-11.7-15-29.2-15-52.6s5-40.9,15-52.4
		C1123.2,319.8,1136.5,314.1,1152.8,314.1z M1152.8,344.2c-13.4,0-20.2,13.2-20.2,39.6c0,26.5,6.7,39.7,20.2,39.7
		s20.2-13.2,20.2-39.7C1172.9,357.4,1166.2,344.2,1152.8,344.2z"/>
</g>
<g id="XMLID_62_">
	<path id="XMLID_63_" class="st1" d="M882.8,613.1l11.6,38.6h-10l-2.8-10h-13l-2.8,10H856l11.6-38.6H882.8z M873.9,622.6l-3.1,11.2
		h8.6l-3.1-11.2H873.9z"/>
	<path id="XMLID_66_" class="st1" d="M909.5,622v5.2h9.2c8.7,0,13.8,4.5,13.8,12.2c0,7.8-5.1,12.4-13.8,12.4h-19.2v-38.6h29.4v8.9
		L909.5,622L909.5,622z M916.9,643.1c3.8,0,5.3-1.3,5.3-4c0-2.6-1.8-4-5.3-4h-7.4v8H916.9z"/>
	<path id="XMLID_69_" class="st1" d="M967.2,632.6c2.5,1.1,4.8,4.3,4.8,7.8c0,6.9-4.5,11.3-13.4,11.3h-19.5v-38.6H958
		c8.4,0,13,4.4,13,10.5c0,3.3-1.6,6.2-3.8,7.4V632.6z M949.2,621.2v6.6h7.5c2.6,0,4-1.1,4-3.3c0-2.2-1.3-3.3-4.1-3.3L949.2,621.2
		L949.2,621.2z M957,643.4c2.6,0,4.7-1.1,4.7-3.6s-1.5-3.8-4.5-3.8h-8v7.5L957,643.4L957,643.4z"/>
	<path id="XMLID_73_" class="st1" d="M989.1,622v29.7h-10v-38.6h28.8v8.9H989.1z"/>
	<path id="XMLID_75_" class="st1" d="M1039.6,651.7h-22.7v9.5h-9.7v-18.3h4c2.8-4.5,4.2-10.4,4.2-17.9v-11.8h28.5v29.7h5.5v18.3
		h-9.7L1039.6,651.7L1039.6,651.7z M1034.1,642.8V622h-9.8v2.9c0,8.3-1.1,14.2-3.4,17.9H1034.1z"/>
	<path id="XMLID_78_" class="st1" d="M1079.7,636.4h-14.9v6.5h20v8.9h-30.1v-38.6h29.6v8.9h-19.5v5.7h14.9V636.4z"/>
	<path id="XMLID_80_" class="st1" d="M1116.1,636.4h-14.9v6.5h20v8.9h-30.1v-38.6h29.6v8.9h-19.5v5.7h14.9V636.4z M1096.7,603.3h7.5
		v7h-7.5V603.3z M1107.9,603.3h7.5v7h-7.5V603.3z"/>
	<path id="XMLID_84_" class="st1" d="M1148.5,627.6v-14.5h9.7v14.5h6.7l5.7-14.5h10.1l-7.7,19l8.2,19.5h-10.1l-6.2-15.1h-6.8v15.1
		h-9.7v-15.1h-6.8l-6.2,15.1h-10.1l8.2-19.5l-7.7-19h10.1l5.7,14.5H1148.5z"/>
	<path id="XMLID_86_" class="st1" d="M1201.6,621.3c-3.5,0-5.4,1.1-5.7,3.5h-10.4c0.7-7.8,6.9-12.3,16.4-12.3c4.6,0,8.3,1,11,3
		c2.8,1.9,4.1,4.5,4.1,7.8c0,3.5-1.2,5.9-3.8,7.3v1.5c3.4,1.2,5.1,3.9,5.1,8.3c0,3.5-1.5,6.4-4.5,8.7c-3,2.2-7,3.3-12,3.3
		c-11,0-16.8-4.7-17.7-13.1h10.6c0.6,2.9,3,4.3,7,4.3c3.7,0,6-1.5,6-3.7c0-2.4-1.8-3.6-5.5-3.6h-5.3v-8.6h5.3c2.9,0,4.4-1.1,4.4-3.2
		C1206.7,622.5,1204.5,621.3,1201.6,621.3z"/>
	<path id="XMLID_88_" class="st1" d="M1225.2,613.1h9.2v24.4h1.5l11.4-24.4h12.9v38.6h-9.2v-24.4h-1.5l-11.4,24.4h-12.9V613.1z"/>
	<path id="XMLID_90_" class="st1" d="M1268.6,613.1h9.2v24.4h1.5l11.4-24.4h12.9v38.6h-9.2v-24.4h-1.5l-11.4,24.4h-12.9V613.1z
		 M1282.5,602.9c0.5,1.7,1.7,2.5,3.6,2.5s3.1-0.8,3.6-2.5h7.1c-0.6,5.1-4.3,8.3-10.7,8.3s-10-3.1-10.7-8.3H1282.5z"/>
	<path id="XMLID_93_" class="st1" d="M1311.9,651.7v-38.6h10v14.2h7.8l6.6-14.2h10.1l-8.6,18.7l9.1,19.8h-10.1l-7.1-15.3h-7.8v15.3
		h-10V651.7z"/>
	<path id="XMLID_95_" class="st1" d="M1349.3,651.7V642h1.5c1.5,0,2.5-0.2,3.2-0.6c1.3-0.9,2.2-3.9,2.2-11.1v-17.1h29.9v38.6h-10
		V622h-10.5v8.5c0,9.1-1,14.5-3.7,17.5c-2.6,3-5.6,3.7-10.9,3.7H1349.3z"/>
	<path id="XMLID_97_" class="st1" d="M1419.4,613.1h15v38.6h-9.2v-26.1h-1.5l-4.4,13.9h-9.8l-4.4-13.9h-1.5v26.1h-9.2v-38.6h15
		l4.3,14h1.5L1419.4,613.1z"/>
	<path id="XMLID_99_" class="st1" d="M1467.1,613.1h10v38.6h-10v-15.3h-14.3v15.3h-10v-38.6h10v14.3h14.3V613.1z"/>
	<path id="XMLID_101_" class="st1" d="M1503,612.4c6.1,0,10.8,1.8,14.2,5.6c3.4,3.7,5.1,8.5,5.1,14.4c0,5.9-1.7,10.7-5.1,14.4
		s-8.1,5.6-14.2,5.6s-10.8-1.8-14.2-5.6c-3.4-3.7-5.1-8.5-5.1-14.4c0-5.9,1.7-10.7,5.1-14.4C1492.2,614.3,1496.9,612.4,1503,612.4z
		 M1503,643.5c5.8,0,9-4.4,9-11.1c0-6.7-3.2-11.1-9-11.1s-9,4.4-9,11.1C1494,639.1,1497.2,643.5,1503,643.5z"/>
	<path id="XMLID_104_" class="st1" d="M1528.9,613.1h34v38.6h-10V622H1539v29.7h-10L1528.9,613.1L1528.9,613.1z"/>
	<path id="XMLID_106_" class="st1" d="M877.8,679.1c9.1,0,14.4,4.7,14.4,12.7c0,8.2-5.3,12.9-14.4,12.9h-8.4v13h-10v-38.6
		L877.8,679.1L877.8,679.1z M876.5,696.1c3.6,0,5.5-1.4,5.5-4.2s-1.6-4.1-5.5-4.1h-7.1v8.3H876.5z"/>
	<path id="XMLID_109_" class="st1" d="M932.6,704.6c-0.5,4.2-2.3,7.5-5.2,10c-3,2.5-6.8,3.8-11.4,3.8c-5.9,0-10.5-1.8-13.8-5.4
		s-5-8.5-5-14.6s1.7-10.9,5-14.5s7.9-5.5,13.8-5.5c4.4,0,8.1,1.2,11,3.5s4.7,5.3,5.3,9.1h-10.4c-0.6-2.4-2.9-3.8-5.9-3.8
		c-5.5,0-8.5,4.4-8.5,11.1s3.1,11.1,8.5,11.1c3.5,0,5.8-1.8,6.3-5h10.3V704.6z"/>
	<path id="XMLID_111_" class="st1" d="M969.1,679.1v8.9h-11.6v29.7h-10V688H936v-8.9H969.1z"/>
	<path id="XMLID_113_" class="st1" d="M988.8,694.5h1.5l7.3-15.4h10l-18.5,38.6h-9.9l5.5-11.6l-14.3-27h10.4L988.8,694.5z"/>
	<path id="XMLID_115_" class="st1" d="M1036.6,682.5h0.4c5.3,0,9.6,1.4,12.7,4c3.2,2.6,4.8,6.5,4.8,11.4c0,5-1.6,8.8-4.8,11.4
		c-3.2,2.6-7.4,3.9-12.7,3.9h-0.4v5.1h-9.5v-5.1h-0.4c-5.3,0-9.6-1.3-12.8-3.9c-3.2-2.6-4.8-6.4-4.8-11.4c0-4.9,1.6-8.7,4.8-11.4
		c3.2-2.6,7.5-4,12.7-4h0.4v-4.6h9.5L1036.6,682.5L1036.6,682.5z M1027.1,704.9v-14.1h-0.4c-4.8,0-7.6,2.3-7.6,7.1
		c0,4.7,2.9,7,7.6,7H1027.1z M1036.6,704.9h0.4c4.7,0,7.6-2.3,7.6-7c0-4.8-2.8-7.1-7.6-7.1h-0.4V704.9z"/>
	<path id="XMLID_119_" class="st1" d="M1082.9,717.7l-7-14.9h-1.5l-7.1,14.9h-10.6l10-20.2l-8.7-18.4h10l6.5,13.4h1.5l6.6-13.4h9.9
		l-8.9,18.2l10,20.4H1082.9z"/>
	<path id="XMLID_121_" class="st1" d="M1128.4,727.1v-9.5h-29.5V679h10v29.7h13.7V679h10v29.7h5.5V727L1128.4,727.1L1128.4,727.1z"
		/>
	<path id="XMLID_123_" class="st1" d="M1142,679.1h10v11c0,1.8,0.1,2.5,0.9,3.8c0.8,1.2,2.9,1.8,6.2,1.8c1.7,0,3.4-0.2,5-0.7v-15.8
		h10v38.6h-10v-14c-2.3,0.6-4.9,0.9-7.8,0.9c-5.8,0-9.5-1.1-11.4-3c-1.4-1.3-2-2.4-2.4-4.3c-0.4-1.9-0.4-3-0.4-5.1L1142,679.1
		L1142,679.1z"/>
	<path id="XMLID_125_" class="st1" d="M1232.5,717.7h-50v-38.6h9.7v29.7h10.4v-29.7h9.7v29.7h10.4v-29.7h9.7v38.6H1232.5z"/>
	<path id="XMLID_127_" class="st1" d="M1286.5,727.1v-9.5h-45.7V679h9.7v29.7h10.4V679h9.7v29.7h10.4V679h9.7v29.7h5.5V727
		L1286.5,727.1L1286.5,727.1z"/>
	<path id="XMLID_129_" class="st1" d="M1326,691.3c9.3,0,14.8,4.9,14.8,13.1c0,8.4-5.5,13.3-14.8,13.3h-18.2V688h-9.8v-8.9h19.8
		v12.2H1326z M1324.5,709.1c4.3,0,6.1-1.6,6.1-4.6s-1.8-4.6-6.1-4.6h-6.6v9.2L1324.5,709.1L1324.5,709.1z"/>
	<path id="XMLID_132_" class="st1" d="M1364.1,691.3c9.3,0,14.9,4.9,14.9,13.1c0,8.4-5.5,13.3-14.9,13.3h-16.6v-38.6h10v12.2H1364.1
		z M1362.6,709.1c4.3,0,6.1-1.6,6.1-4.6s-1.8-4.6-6.1-4.6h-5.1v9.2L1362.6,709.1L1362.6,709.1z M1392.8,679.1v38.6h-10v-38.6H1392.8
		z"/>
	<path id="XMLID_136_" class="st1" d="M1419.3,691.3c9.3,0,14.9,4.9,14.9,13.1c0,8.4-5.5,13.3-14.9,13.3h-18.2v-38.6h10v12.2H1419.3
		z M1417.8,709.1c4.3,0,6.1-1.6,6.1-4.6s-1.8-4.6-6.1-4.6h-6.6v9.2L1417.8,709.1L1417.8,709.1z"/>
	<path id="XMLID_139_" class="st1" d="M1448.9,705.7c0.5,2.4,2.9,3.8,6.3,3.8c4.2,0,7.2-2.5,7.8-6.9h-12V694h12
		c-0.8-4.3-3.6-6.8-7.7-6.8c-3,0-5.4,1.2-6,3.3h-10.4c0.6-3.6,2.4-6.6,5.3-8.8c2.9-2.3,6.6-3.4,11-3.4c5.9,0,10.4,1.8,13.7,5.5
		s5,8.4,5,14.5s-1.7,11-5,14.6s-7.9,5.4-13.8,5.4c-4.6,0-8.5-1.2-11.5-3.5s-4.7-5.4-5.1-9.2h10.4V705.7z"/>
	<path id="XMLID_141_" class="st1" d="M1528.9,684c3.4,3.7,5.1,8.5,5.1,14.4s-1.7,10.7-5.1,14.4c-3.3,3.7-8,5.6-14,5.6
		c-5.3,0-9.6-1.5-12.9-4.3c-3.2-2.9-5.2-6.8-5.9-11.7h-5.7v15.3h-10v-38.6h10v14.3h5.9c0.9-4.5,3-8.2,6.2-10.9
		c3.2-2.8,7.3-4.1,12.4-4.1C1520.9,678.4,1525.6,680.3,1528.9,684z M1515,709.5c5.6,0,8.8-4.5,8.8-11.1s-3.2-11.1-8.8-11.1
		c-5.6,0-8.8,4.4-8.8,11.1S1509.4,709.5,1515,709.5z"/>
	<path id="XMLID_144_" class="st1" d="M1571.5,679.1v38.6h-10v-13.5h-8l-4.8,13.5h-10l5.6-15.5c-3.7-2.1-5.6-5.7-5.6-10.6
		c0-7.8,5.2-12.5,14.1-12.5H1571.5z M1561.5,695.8v-7.9h-7.5c-3.5,0-5.2,1.3-5.2,3.9c0,2.6,1.7,4,5.2,4H1561.5z"/>
	<path id="XMLID_147_" class="st1" d="M884.4,790v17.7h-8.6v-2.2h-1.5c-1.7,1.9-4.2,2.9-7.4,2.9c-3,0-5.4-0.9-7.2-2.8
		c-1.8-1.8-2.6-4.1-2.6-6.7c0-2.5,1-4.6,3-6.5s4.9-2.8,8.9-2.8h6.5v-0.5c0-2.4-1.3-3.6-3.8-3.6c-2.3,0-3.5,0.8-3.7,2.4h-9.3
		c0.1-2.8,1.2-4.9,3.6-6.6c2.3-1.7,5.3-2.5,8.9-2.5C879.9,778.9,884.4,782.6,884.4,790z M875.4,795h-4.5c-2.6,0-4.4,1.2-4.4,3.2
		c0,2.2,1.3,3.3,4,3.3c3,0,4.9-2.1,4.9-4.9V795z"/>
	<path id="XMLID_150_" class="st1" d="M890,790.9c0-11.7,3.7-18.2,11.1-19.3l7.1-1.1c2.1-0.4,2.8-0.8,2.9-2h7.2c0,2-0.2,3.3-0.9,5.1
		c-0.7,1.7-2.3,2.9-4.9,3.3l-9.6,1.5c-3.5,0.5-5.4,2.1-6.3,6.4h1.5c1.6-2.5,4.4-3.8,8.4-3.8c3.9,0,7.2,1.3,9.7,3.9
		c2.5,2.5,3.8,5.8,3.8,9.9c0,4.1-1.4,7.3-4.2,9.9c-2.8,2.5-6.4,3.8-10.7,3.8C895.6,808.4,890,802.3,890,790.9z M905.1,800.7
		c3.7,0,5.6-2.7,5.6-6.4s-1.8-6.3-5.6-6.3c-3.7,0-5.6,2.7-5.6,6.3C899.5,798,901.4,800.7,905.1,800.7z"/>
	<path id="XMLID_153_" class="st1" d="M948.9,793.6c2.9,0.7,4.8,2.9,4.8,6.3c0,5.1-3.5,7.8-9.9,7.8H926v-28.1h17.3
		c5.6,0,8.9,2.6,8.9,7.1c0,2.5-1.5,4.4-3.3,5.3V793.6z M935.2,785.6v4.9h4.8c1.9,0,2.9-0.8,2.9-2.4s-1-2.4-2.9-2.4L935.2,785.6
		L935.2,785.6z M940.7,801.7c2.4,0,3.6-1,3.6-2.9s-1.2-2.9-3.6-2.9h-5.5v5.7h5.5V801.7z"/>
	<path id="XMLID_157_" class="st1" d="M959.9,807.7v-28.1h23.7v7.7h-14.3v20.4L959.9,807.7L959.9,807.7z"/>
	<path id="XMLID_159_" class="st1" d="M1014.9,800h4.9v15.4h-8.8v-7.7h-18.8v7.7h-8.7V800h4.4c1.2-3.7,1.8-7.8,1.8-12.1v-8.3h25.2
		V800z M1005.5,800v-12.7h-7.3v0.7c0,4.3-0.5,8.3-1.6,12H1005.5z"/>
	<path id="XMLID_162_" class="st1" d="M1052.2,798.6c-1.2,6.2-5.9,9.8-13.8,9.8c-4.5,0-8.1-1.3-10.7-3.9c-2.6-2.6-4-6.2-4-10.8
		s1.3-8.2,3.9-10.8c2.6-2.6,6.2-3.9,10.6-3.9c4.4,0,7.9,1.2,10.4,3.8c2.5,2.5,3.8,5.8,3.8,10v2.2H1033c0.3,3.9,2.2,5.8,5.6,5.8
		c2.1,0,3.5-0.7,4.1-2.1L1052.2,798.6L1052.2,798.6z M1033.4,789.3h9.5c-0.5-2.4-2.1-3.7-4.6-3.7S1034.1,786.8,1033.4,789.3z"/>
	<path id="XMLID_165_" class="st1" d="M1085.4,798.6c-1.2,6.2-5.9,9.8-13.8,9.8c-4.5,0-8.1-1.3-10.7-3.9c-2.6-2.6-4-6.2-4-10.8
		s1.3-8.2,3.9-10.8c2.6-2.6,6.2-3.9,10.6-3.9s7.9,1.2,10.4,3.8c2.5,2.5,3.8,5.8,3.8,10v2.2h-19.4c0.3,3.9,2.2,5.8,5.6,5.8
		c2.1,0,3.5-0.7,4.1-2.1L1085.4,798.6L1085.4,798.6z M1062.2,769.4h7.5v7.8h-7.5V769.4z M1066.5,789.3h9.5c-0.5-2.4-2.1-3.7-4.6-3.7
		S1067.2,786.8,1066.5,789.3z M1073.3,769.4h7.5v7.8h-7.5V769.4z"/>
	<path id="XMLID_170_" class="st1" d="M1103.9,797.2l-4.8,10.5h-9.5l6.8-14.4l-6.3-13.7h9.3l4.5,9.9h4.4v-9.9h8.6v9.9h4.4l4.5-9.9
		h9.3l-6.3,13.7l6.8,14.4h-9.5l-4.8-10.5h-4.4v10.5h-8.6v-10.5H1103.9z"/>
	<path id="XMLID_172_" class="st1" d="M1152.3,786.3c-2.6,0-4.1,0.8-4.3,2.4h-8.5c0.6-6.5,5.9-9.8,13.6-9.8c3.8,0,6.8,0.8,9.1,2.3
		c2.3,1.5,3.4,3.5,3.4,5.9s-0.9,4.2-2.8,5.2v1.5c2.3,0.8,3.5,2.6,3.5,5.5c0,2.7-1.2,4.9-3.7,6.6c-2.4,1.7-5.7,2.5-9.6,2.5
		c-9,0-13.8-3.3-14.4-10h8.5c0.4,1.7,2.2,2.6,5.2,2.6s4.5-0.8,4.5-2.4c0-1.4-1.2-2-3.6-2h-4.4v-5.9h4.1c2.2,0,3.2-0.7,3.2-2.1
		C1156.3,787.2,1154.9,786.3,1152.3,786.3z"/>
	<path id="XMLID_174_" class="st1" d="M1180.5,807.7h-7.9v-28.1h9.1v12.7h1.3l10-12.7h7.9v28.1h-9.1V795h-1.3L1180.5,807.7z"/>
	<path id="XMLID_176_" class="st1" d="M1216.3,807.7h-7.9v-28.1h9.1v12.7h1.3l10-12.7h7.9v28.1h-9.1V795h-1.3L1216.3,807.7z
		 M1219,769.1c0.5,1.7,1.7,2.5,3.6,2.5s3.1-0.8,3.6-2.5h7.1c-0.6,5.1-4.3,8.3-10.7,8.3c-6.4,0-10-3.1-10.7-8.3H1219z"/>
	<path id="XMLID_179_" class="st1" d="M1263.8,807.7l-5.3-10.6h-4.8v10.6h-9.4v-28.1h9.4v9.8h4.9l5-9.8h9.5l-6.9,13.6l7.3,14.5
		H1263.8z"/>
	<path id="XMLID_181_" class="st1" d="M1276.3,807.7v-9h1c3.5,0,4.9-1.7,4.9-6.7v-12.4h25.4v28.1h-9.4v-20.4h-7.5v5.1
		c0,5.6-1.1,9.5-3.2,11.8c-2.2,2.3-5.6,3.5-10.3,3.5L1276.3,807.7L1276.3,807.7z"/>
	<path id="XMLID_183_" class="st1" d="M1339.4,792.6l-3.2,7.3h-7.1l-3.2-7.3h-1.5v15.1h-9.1v-28.1h11.7l5,11.2h1.5l5-11.2h11.7v28.1
		h-9.1v-15.1H1339.4z"/>
	<path id="XMLID_185_" class="st1" d="M1385.7,807.7h-9.4v-10.6h-9.4v10.6h-9.4v-28.1h9.4v9.8h9.4v-9.8h9.4V807.7z"/>
	<path id="XMLID_187_" class="st1" d="M1417.5,782.9c2.8,2.6,4.1,6.3,4.1,10.7c0,4.5-1.3,8.1-4.1,10.7c-2.7,2.6-6.3,4-10.9,4
		c-4.5,0-8.2-1.4-10.9-4c-2.8-2.6-4.1-6.3-4.1-10.7c0-4.5,1.4-8.1,4.1-10.7c2.8-2.6,6.4-4,10.9-4
		C1411.2,778.9,1414.8,780.3,1417.5,782.9z M1406.6,786.6c-3.7,0-5.6,2.9-5.6,7.1s1.9,7.1,5.6,7.1s5.6-2.8,5.6-7.1
		C1412.2,789.5,1410.4,786.6,1406.6,786.6z"/>
	<path id="XMLID_190_" class="st1" d="M1455.5,807.7h-9.4v-20.4h-9.2v20.4h-9.4v-28.1h28V807.7z"/>
	<path id="XMLID_192_" class="st1" d="M1473.9,805.3h-1.5v13.2h-9.4v-38.9h9.1v2.4h1.5c1.7-2.1,4.2-3.1,7.3-3.1
		c3.6,0,6.4,1.3,8.5,4.1c2.1,2.7,3.1,6.3,3.1,10.6s-1.1,7.9-3.2,10.6c-2.1,2.8-4.9,4.1-8.5,4.1
		C1477.8,808.4,1475.4,807.4,1473.9,805.3z M1477.6,786.6c-1.9,0-3.3,0.6-4.3,2c-0.9,1.3-1.4,3-1.4,5.1s0.5,3.7,1.4,5.1
		c1,1.3,2.4,2,4.3,2s3.2-0.6,4.2-2c0.9-1.4,1.4-3,1.4-5.1s-0.4-3.7-1.4-5.1C1480.9,787.2,1479.5,786.6,1477.6,786.6z"/>
	<path id="XMLID_195_" class="st1" d="M1524.9,797.7c-0.3,3.2-1.6,5.8-4.2,7.8c-2.5,2-5.6,3-9.2,3c-4.4,0-7.9-1.3-10.6-3.9
		c-2.6-2.6-3.9-6.3-3.9-10.8s1.3-8.1,3.9-10.7c2.6-2.6,6.2-4,10.6-4c3.6,0,6.6,0.9,9.1,2.8c2.4,1.9,3.8,4.3,4,7.4h-9.2
		c-0.5-1.7-1.8-2.5-3.8-2.5c-3.6,0-5.2,2.9-5.2,7.1c0,4.3,1.6,7.1,5.2,7.1c2.4,0,3.8-1,4.1-3.1h9.2V797.7z"/>
	<path id="XMLID_197_" class="st1" d="M1528.8,787.3v-7.7h27.2v7.7h-8.9v20.4h-9.4v-20.4H1528.8z"/>
	<path id="XMLID_199_" class="st1" d="M1581.4,779.6h9.3l-17,38.9h-9.3l5.9-13.9l-11.8-25h9.4l6.3,13.6h1.5L1581.4,779.6z"/>
	<path id="XMLID_201_" class="st1" d="M881.9,884.5h-9.1v-10.8c-4.8,0-8.6-1.3-11.3-3.9c-2.8-2.6-4.1-6-4.1-10.2s1.3-7.6,4.1-10.2
		s6.5-3.9,11.3-3.9v-11.2h9.1v11.2c4.8,0,8.6,1.3,11.3,3.9s4.1,6,4.1,10.2s-1.3,7.6-4.1,10.2c-2.8,2.6-6.5,3.9-11.3,3.9V884.5z
		 M872.8,852.6c-4.1,0-6.3,3-6.3,7.1s2.2,7.1,6.3,7.1V852.6z M881.9,866.7c4.1,0,6.3-3,6.3-7.1s-2.2-7.1-6.3-7.1V866.7z"/>
	<path id="XMLID_205_" class="st1" d="M921.5,873.7l-4.6-9.5h-2.1l-4.6,9.5h-9.8l7.6-14.4l-6.8-13.7h9.7l4.2,8.8h2.1l4.3-8.8h9.6
		l-7,13.6l7.5,14.5L921.5,873.7L921.5,873.7z"/>
	<path id="XMLID_207_" class="st1" d="M955.2,845.6h9.4V866h4.9v15.4h-8.7v-7.7h-23.9v-28.1h9.4V866h9v-20.4H955.2z"/>
	<path id="XMLID_209_" class="st1" d="M973.4,845.6h9.4v8.3c0,2.1,0.9,3.5,4.3,3.5c1.3,0,2.7-0.2,4.3-0.5v-11.3h9.4v28.1h-9.4v-9.3
		c-2.4,0.5-5,0.7-7.7,0.7c-4.3,0-7.2-1-8.6-2.9c-1.3-1.9-1.7-3.5-1.7-6V845.6z"/>
	<path id="XMLID_211_" class="st1" d="M1048.9,845.6v28.1h-40.7v-28.1h9.1V866h6.8v-20.4h9.1V866h6.8v-20.4H1048.9z"/>
	<path id="XMLID_213_" class="st1" d="M1097,866h4.9v15.4h-8.7v-7.7h-36.8v-28.1h9.1V866h6.8v-20.4h9.1V866h6.8v-20.4h9.1V866H1097z
		"/>
	<path id="XMLID_215_" class="st1" d="M1104.5,853.3v-7.7h17.3v7.7h6c7.5,0,11.7,3.8,11.7,10.1c0,6.4-4.3,10.3-11.7,10.3h-15.4
		v-20.4L1104.5,853.3L1104.5,853.3z M1126.4,866c2.4,0,3.7-1,3.7-2.9c0-2-0.9-3-3.7-3h-4.6v5.8h4.6V866z"/>
	<path id="XMLID_218_" class="st1" d="M1154.5,845.6v7.7h5.5c7.5,0,11.7,3.8,11.7,10.1c0,6.4-4.3,10.3-11.7,10.3h-14.9v-28.1H1154.5
		z M1158.6,866c2.4,0,3.7-1,3.7-2.9c0-2-0.9-3-3.7-3h-4.1v5.8h4.1V866z M1185,845.6v28.1h-9.4v-28.1H1185z"/>
	<path id="XMLID_222_" class="st1" d="M1192.5,873.7v-28.1h9.4v7.7h6c7.5,0,11.7,3.8,11.7,10.1c0,6.4-4.3,10.3-11.7,10.3H1192.5z
		 M1206.5,866c2.4,0,3.7-1,3.7-2.9c0-2-0.9-3-3.7-3h-4.6v5.8h4.6V866z"/>
	<path id="XMLID_225_" class="st1" d="M1232.4,864.2c0.3,2,2.2,3.2,4.8,3.2c3,0,4.9-1.8,5.4-4.5h-8.3v-6.8h8.2
		c-0.7-2.8-2.5-4.2-5.3-4.2c-2.4,0-3.9,0.9-4.3,2.6h-8.6c1-5.8,6-9.6,13.2-9.6c4.3,0,7.8,1.3,10.5,4.1c2.8,2.7,4.1,6.3,4.1,10.6
		c0,4.4-1.3,8-4.1,10.7c-2.8,2.7-6.3,4-10.6,4c-3.7,0-6.9-0.9-9.3-2.8c-2.5-1.9-3.9-4.3-4.3-7.4h8.6V864.2z"/>
	<path id="XMLID_227_" class="st1" d="M1296.6,849c2.8,2.8,4.2,6.3,4.2,10.6s-1.4,7.9-4.2,10.6s-6.3,4.1-10.6,4.1
		c-3.7,0-6.9-1-9.6-3s-4.3-4.8-5-8.3h-4.3v10.6h-9.2v-28.1h9.2v9.8h4.5c0.8-3.3,2.5-5.8,5-7.7c2.6-1.9,5.7-2.8,9.3-2.8
		C1290.4,844.9,1293.9,846.3,1296.6,849z M1285.8,852.6c-3.7,0-5.6,2.9-5.6,7.1s1.9,7.1,5.6,7.1s5.6-2.8,5.6-7.1
		C1291.4,855.5,1289.6,852.6,1285.8,852.6z"/>
	<path id="XMLID_230_" class="st1" d="M1332.3,845.6v28.1h-9.4v-8.4h-5.1l-3.2,8.4h-9.1l4-10.4c-2.7-1.7-4.1-4.3-4.1-7.8
		c0-6.2,4.5-9.9,12.4-9.9L1332.3,845.6L1332.3,845.6z M1318.5,858.7h4.4V853h-4.4c-2.9,0-3.9,1-3.9,2.8
		C1314.6,857.7,1315.6,858.7,1318.5,858.7z"/>
	<path id="XMLID_233_" class="st1" d="M873,925.1c4.6,0,8.3,1.6,11.1,4.9c2.8,3.2,4.2,8.2,4.2,14.7s-1.4,11.5-4.2,14.8
		c-2.8,3.2-6.5,4.9-11.1,4.9s-8.3-1.6-11.1-4.9c-2.8-3.3-4.2-8.2-4.2-14.8s1.4-11.5,4.2-14.7S868.4,925.1,873,925.1z M873,933.6
		c-3.8,0-5.7,3.7-5.7,11.1c0,7.5,1.9,11.2,5.7,11.2s5.7-3.7,5.7-11.2C878.7,937.3,876.8,933.6,873,933.6z"/>
	<path id="XMLID_236_" class="st1" d="M911.4,955.4h7.5v8.3h-25.4v-8.3h8.3v-20h-1.5l-6.8,4.7v-9.4l6.8-4.8h11.2L911.4,955.4
		L911.4,955.4z"/>
	<path id="XMLID_238_" class="st1" d="M952.2,955.4v8.3h-29.1v-9.8l12.2-8.3c1.4-0.9,2.4-1.7,3.1-2.3c1.5-1.2,3.1-3.3,3.1-5.4
		c0-2.8-1.7-4.4-4.3-4.4s-4.4,1.5-4.6,4.4H923c0.4-8.2,5.7-12.7,14.6-12.7c4.1,0,7.4,1.1,9.9,3.3s3.7,5.3,3.7,9.2c0,3-1.5,5.9-3,7.9
		c-0.7,1-1.8,2.1-3.2,3.3c-1.5,1.2-2.6,2.1-3.4,2.6l-3.6,2.4v1.5H952.2z"/>
	<path id="XMLID_240_" class="st1" d="M957.9,925.9h25.7v9.5l-6,3.8v1.5c4.8,0.8,8.3,4.4,8.3,10.5c0,3.9-1.4,7.1-4.2,9.6
		c-2.8,2.4-6.4,3.6-10.9,3.6s-8.1-1.2-10.9-3.6s-4.2-5.5-4.2-9.1h9.7c0.4,2.9,2.4,4.5,5.5,4.5c3.3,0,5.4-2.1,5.4-4.9
		c0-3.1-2-5.2-5.5-5.2c-1.3,0-2.5,0.2-3.6,0.4v-7.2l6-3.8V934H958L957.9,925.9L957.9,925.9z"/>
	<path id="XMLID_242_" class="st1" d="M1016.6,947.8h4.5v8.2h-4.5v7.7h-9.2V956h-17.6v-9.7l16.4-20.4h10.4L1016.6,947.8
		L1016.6,947.8z M998.4,947.8h9.3v-11.1h-1.5l-7.8,9.6V947.8z"/>
	<path id="XMLID_245_" class="st1" d="M1051.7,941.3c2.4,2.3,3.6,5.4,3.6,9.2c0,4-1.4,7.4-4.2,10s-6.3,3.9-10.4,3.9
		c-4.5,0-8-1.2-10.7-3.6c-2.7-2.4-4.2-5.5-4.4-9.2h9.7c0.4,2.8,2.3,4.5,5.1,4.5c3.3,0,5.3-2.3,5.3-5.5c0-3.7-2.2-5.6-5.3-5.6
		c-2.1,0-3.8,0.8-5,2.4h-8.8l1.7-21.6h24.4v8h-17l-0.4,5.9h1.5c1.8-1.3,3.9-2,6.5-2C1046.5,937.8,1049.4,939,1051.7,941.3z"/>
	<path id="XMLID_247_" class="st1" d="M1086.8,941.8c2.4,2.3,3.6,5.3,3.6,9c0,3.8-1.4,7-4,9.7c-2.6,2.6-6.2,3.9-10.5,3.9
		c-8.9,0-15.8-5.1-15.8-19.1c0-6.2,1.3-11.1,3.9-14.7c2.6-3.6,6.6-5.5,11.9-5.5c3.5,0,6.6,1,9.1,3.1s4,4.5,4.4,7.5h-9.6
		c-0.4-1.9-1.8-2.9-4.2-2.9c-3.5,0-6,2.5-6.4,8h1.5c1.6-1.8,4.1-2.6,7.3-2.6C1081.6,938.3,1084.5,939.4,1086.8,941.8z M1080.7,951.1
		c0-1.7-0.5-3.1-1.4-4c-0.9-1-2.1-1.5-3.7-1.5s-2.8,0.5-3.7,1.4c-0.9,0.9-1.3,2.3-1.3,4c0,3.5,2.1,5.6,5.1,5.6
		S1080.7,954.6,1080.7,951.1z"/>
	<path id="XMLID_250_" class="st1" d="M1121.6,935.7l-14.4,28h-10l14.4-28v-1.5h-16.9v-8.3h26.9V935.7z"/>
	<path id="XMLID_252_" class="st1" d="M1150.5,944.3c3,1.4,5.5,4.2,5.5,8.5c0,3.2-1.3,6-3.9,8.2s-6.4,3.3-11.2,3.3
		c-4.9,0-8.6-1.1-11.2-3.3c-2.6-2.2-3.9-5-3.9-8.2c0-4.3,2.5-7.2,5.5-8.5v-1.5c-2.8-1.7-4.2-4.2-4.2-7.5c0-2.9,1.2-5.3,3.7-7.2
		c2.5-2,5.9-3,10.2-3s7.7,1,10.2,3c2.4,1.9,3.7,4.4,3.7,7.2c0,3.3-1.4,5.8-4.2,7.5v1.5H1150.5z M1140.8,956.6c3.7,0,5.5-2.2,5.5-4.7
		s-1.8-4.7-5.5-4.7s-5.6,2.2-5.6,4.7C1135.3,954.5,1137.2,956.6,1140.8,956.6z M1140.8,932.3c-6.1-0.3-6.2,8.7,0,8.4
		C1146.9,941,1146.9,932,1140.8,932.3z"/>
	<path id="XMLID_256_" class="st1" d="M1163.6,947.8c-2.3-2.3-3.5-5.3-3.5-9c0-3.8,1.4-7,4-9.7c2.6-2.6,6.2-3.9,10.5-3.9
		c8.9,0,15.8,5.1,15.8,19.1c0,6.2-1.3,11.1-3.9,14.7c-2.6,3.6-6.6,5.4-11.9,5.4c-3.5,0-6.6-1-9.1-3.1s-4-4.6-4.4-7.6h9.6
		c0.4,1.9,1.8,2.9,4.2,2.9c3.5,0,6-2.5,6.4-8h-1.5c-1.6,1.8-4.1,2.6-7.3,2.6C1168.9,951.3,1166,950.1,1163.6,947.8z M1169.7,938.5
		c0,1.7,0.4,3.1,1.4,4.1c0.9,0.9,2.2,1.4,3.7,1.4c1.6,0,2.8-0.5,3.7-1.4s1.4-2.3,1.4-4c0-3.5-2.1-5.6-5.1-5.6
		C1171.7,932.9,1169.7,935,1169.7,938.5z"/>
	<path id="XMLID_259_" class="st1" d="M868.6,1011h-9.9v-9.4h9.9V1011z M868.6,1029.7h-9.9v-9.4h9.9V1029.7z"/>
	<path id="XMLID_262_" class="st1" d="M885.6,1031.2l-4.9,7H875l4.9-7v-1.5h-4.3v-9.4h9.9L885.6,1031.2L885.6,1031.2z M885.6,1011
		h-9.9v-9.4h9.9V1011z"/>
	<path id="XMLID_265_" class="st1" d="M902.5,1029.7h-9.9v-9.4h9.9V1029.7z"/>
	<path id="XMLID_267_" class="st1" d="M919.5,1031.2l-4.9,7H909l4.9-7v-1.5h-4.3v-9.4h9.9L919.5,1031.2L919.5,1031.2z"/>
	<path id="XMLID_269_" class="st1" d="M949.3,993.8c2.4,2.2,3.6,5,3.6,8.4c0,1.6-0.3,3.1-1,4.3s-1.4,2.2-2.2,2.9
		c-0.8,0.6-1.8,1.4-3.3,2.3c-2.6,1.7-3.5,2.7-3.5,4.2v1.3h-9.6v-1.3c0-3.9,1.4-6,4.9-8.4c0.4-0.3,1-0.7,1.8-1.2
		c0.9-0.5,1.5-0.9,1.7-1.2c0.6-0.5,1.4-1.6,1.4-2.9c0-2-1.5-3.5-4.2-3.5c-3.1,0-4.6,1.6-4.7,4.8h-9.6c0-3.7,1.2-6.8,3.6-9.3
		c2.4-2.5,5.8-3.8,10.4-3.8C943.3,990.4,946.9,991.6,949.3,993.8z M942.9,1029.7H933v-9.4h9.9V1029.7z"/>
	<path id="XMLID_272_" class="st1" d="M962.6,1037.3H955l16.3-48.6h7.4L962.6,1037.3z"/>
	<path id="XMLID_274_" class="st1" d="M994.9,1029.7H985v-9.4h9.9V1029.7z M985.2,991.1h9.4v15.5l-1.7,10.6H987l-1.7-10.6
		L985.2,991.1L985.2,991.1z"/>
	<path id="XMLID_277_" class="st1" d="M1039.2,1005.3l-2.3,13.8c-0.2,0.8-0.2,1.5-0.2,2.2c0,1.9,0.9,2.9,2.8,2.9
		c1.7,0,3.2-1,4.5-2.9c1.4-1.9,2.1-4.9,2.1-8.9c0-5-1.7-9-5.1-12.2c-3.3-3.2-7.9-4.8-13.6-4.8c-6.2,0-11.3,2.1-15.3,6.3
		s-6,9.7-6,16.5c0,4.8,1.5,9.2,4.3,12.6c2.9,3.5,7.8,5.7,14,5.7c4.6,0,8.7-1.2,12.5-3.8l1.7,2.9c-4.2,2.8-9,4.2-14.4,4.2
		c-6.6,0-11.9-2-15.8-5.9c-3.9-3.9-5.9-9.1-5.9-15.6c0-7.6,2.4-13.9,7.1-18.8c4.7-5,10.9-7.5,18.5-7.5c6.1,0,11.3,1.8,15.6,5.6
		c4.3,3.7,6.4,8.5,6.4,14.6c0,4.7-1.1,8.5-3.2,11.3c-2.1,2.9-5.2,4.3-9.1,4.3c-3.8,0-6.3-1.1-7.3-3.5h-0.9c-1.6,2.3-3.9,3.5-6.9,3.5
		c-5.5,0-8.7-3.7-8.7-9.8c0-3.7,1.1-6.9,3.2-9.6c2.2-2.7,4.9-4,8.3-4c2.5,0,4.3,0.9,5.3,2.5h0.9l0.4-1.8h7.1V1005.3z M1028.3,1020.1
		c0.9-1.5,1.4-3.3,1.5-5.4c0-3.1-1.1-4.6-3.2-4.6c-1.5,0-2.6,0.8-3.5,2.3s-1.3,3.3-1.4,5.4c0,3.1,1,4.6,3.1,4.6
		C1026.2,1022.4,1027.3,1021.6,1028.3,1020.1z"/>
	<path id="XMLID_280_" class="st1" d="M1066.4,1009.9v-10h7.9v10h10.1v7.9h-10.1v10h-7.9v-10h-10v-7.9H1066.4z"/>
	<path id="XMLID_282_" class="st1" d="M1099,1037.3c-5.6-6.9-8.4-15-8.4-24.3s2.8-17.4,8.4-24.3h7.7c-4.8,7.1-8.2,14.4-8.2,24.3
		c0,9.9,3.4,17.2,8.2,24.3H1099z"/>
	<path id="XMLID_284_" class="st1" d="M1107.1,1037.3c4.8-7.1,8.2-14.4,8.2-24.3c0-9.9-3.4-17.2-8.2-24.3h7.7
		c5.6,6.9,8.4,15,8.4,24.3s-2.8,17.4-8.4,24.3H1107.1z"/>
	<path id="XMLID_286_" class="st1" d="M1136.1,1015.7h-8.7l11.7-23.4h5.8l11.7,23.4h-8.7l-5.2-10.6h-1.5L1136.1,1015.7z"/>
	<path id="XMLID_288_" class="st1" d="M1169.4,1011.5c-6,0-9.1-4-9.1-10.2c0-6.1,3.2-10.3,9.1-10.3s9.2,4.2,9.2,10.3
		C1178.5,1007.4,1175.3,1011.5,1169.4,1011.5z M1172.8,1001.4c0-3.5-1.1-5.2-3.4-5.2c-2.2,0-3.3,1.7-3.3,5.2c0,3.4,1.1,5.1,3.3,5.1
		C1171.6,1006.5,1172.8,1004.8,1172.8,1001.4z M1174.1,1029.7h-6.3l22.9-37.8h6.3L1174.1,1029.7z M1195.2,1030.4
		c-6,0-9.1-4-9.1-10.2c0-6.1,3.2-10.3,9.1-10.3s9.2,4.2,9.2,10.3C1204.4,1026.3,1201.2,1030.4,1195.2,1030.4z M1198.6,1020.2
		c0-3.5-1.1-5.2-3.4-5.2c-2.2,0-3.3,1.7-3.3,5.2c0,3.4,1.1,5.1,3.3,5.1C1197.5,1025.3,1198.6,1023.6,1198.6,1020.2z"/>
	<path id="XMLID_294_" class="st1" d="M1223.8,1029.7l1.5-9.3h-5.3l-1.5,9.3h-7.2l1.5-9.3h-5.1v-6.9h6.3l0.9-5.4h-5.5v-6.9h6.6
		l1.5-9.3h7.1l-1.5,9.3h5.4l1.5-9.3h7.1l-1.5,9.3h5.1v6.9h-6.3l-0.8,5.4h5.5v6.9h-6.5l-1.5,9.3H1223.8z M1221.8,1008.1l-0.8,5.4h5.4
		l0.9-5.4H1221.8z"/>
	<path id="XMLID_297_" class="st1" d="M1271.4,991.9h8.7v37.8h-11.8l-11.7-22h-1.5v22h-8.7v-37.8h11.8l11.7,22h1.5V991.9z
		 M1293.7,1011.5c-6,0-9.1-4-9.1-10.2c0-6.1,3.2-10.3,9.1-10.3s9.2,4.2,9.2,10.3C1302.9,1007.4,1299.7,1011.5,1293.7,1011.5z
		 M1302.9,1019.1h-18.3v-4.9h18.3V1019.1z M1297.1,1001.4c0-3.5-1.1-5.2-3.4-5.2c-2.2,0-3.3,1.7-3.3,5.2c0,3.4,1.1,5.1,3.3,5.1
		C1296,1006.5,1297.1,1004.8,1297.1,1001.4z"/>
	<path id="XMLID_302_" class="st1" d="M1318.6,1002l-4.9,7h-5.7l4.9-7v-1.5h-4.3v-9.4h9.9L1318.6,1002L1318.6,1002z M1332.1,1002
		l-4.9,7h-5.7l4.9-7v-1.5h-4.3v-9.4h9.9L1332.1,1002L1332.1,1002z"/>
	<path id="XMLID_305_" class="st1" d="M1347.4,1013.8c2.3,0.7,4,3.1,4,6.4v4.5c0,3.9,1.3,5.9,4.8,5.9h2v6.8h-3.6
		c-6.9,0-11-4.4-11-10.6v-5c0-3.4-1.4-5.1-4.2-5.1h-1.6v-7.1h1.6c2.8,0,4.2-1.7,4.2-5.1v-5c0-6.3,4.1-10.6,11-10.6h3.6v6.8h-2
		c-3.5,0-4.8,2-4.8,5.9v4.5c0,3.3-1.7,5.7-4,6.4V1013.8z"/>
	<path id="XMLID_307_" class="st1" d="M1372.3,1012.3c-2.3-0.7-4-3.1-4-6.4v-4.5c0-3.9-1.3-5.9-4.8-5.9h-2v-6.8h3.6
		c6.9,0,11,4.4,11,10.6v5c0,3.4,1.4,5.1,4.2,5.1h1.6v7.1h-1.6c-2.8,0-4.2,1.7-4.2,5.1v5c0,6.3-4.1,10.6-11,10.6h-3.6v-6.8h2
		c3.5,0,4.8-2,4.8-5.9v-4.5c0-3.3,1.7-5.7,4-6.4V1012.3z"/>
	<path id="XMLID_309_" class="st1" d="M1394.7,991.1h6.3l-0.4,8.2l7.8-2.9l1.9,5.9l-8,2.2l5.2,6.4l-5.1,3.7l-4.6-6.9l-4.5,6.9
		l-5-3.7l5.1-6.4l-8-2.2l1.9-5.9l7.7,2.9L1394.7,991.1z"/>
	<path id="XMLID_311_" class="st1" d="M871.3,1067.6h11l-8.6,8.6v1.5h22.1v7.9h-22.1v1.5l8.6,8.6h-11l-14-14L871.3,1067.6z"/>
	<path id="XMLID_313_" class="st1" d="M930.6,1071.2v11l-8.6-8.6h-1.5v22.1h-7.9v-22.1h-1.5l-8.6,8.6v-11l14-14L930.6,1071.2z"/>
	<path id="XMLID_315_" class="st1" d="M950.7,1067.6h11l14,14l-14,14h-11l8.6-8.6v-1.5h-22.1v-7.9h22.1v-1.5L950.7,1067.6z"/>
	<path id="XMLID_317_" class="st1" d="M981.9,1081.7v-11l8.6,8.6h1.5v-22.1h7.9v22.1h1.5l8.6-8.6v11l-14,14L981.9,1081.7z"/>
	<path id="XMLID_319_" class="st1" d="M1025.7,1084.8l-7.8-7.8v-19.8h19.8l7.8,7.8h-12.2l-1.1,1.1l15.6,15.6l-5.6,5.6l-15.6-15.6
		l-1.1,1.1v12H1025.7z"/>
	<path id="XMLID_321_" class="st1" d="M1086,1077l-7.8,7.8v-12.2l-1.1-1.1l-15.6,15.6l-5.6-5.6l15.6-15.6l-1.1-1.1h-12.2l7.8-7.8h20
		V1077z"/>
	<path id="XMLID_323_" class="st1" d="M1094,1075.9l7.8-7.8v12.2l1.1,1.1l15.6-15.6l5.6,5.6l-15.6,15.6l1.1,1.1h12.2l-7.8,7.8h-20
		V1075.9z"/>
	<path id="XMLID_325_" class="st1" d="M1154.2,1068l7.8,7.8v19.8h-19.8l-7.8-7.8h12.2l1.1-1.1l-15.6-15.6l5.6-5.6l15.6,15.6l1.1-1.1
		v-12H1154.2z"/>
	<path id="XMLID_327_" class="st1" d="M1186.6,1069l-9.6,10.2v1.5l9.6,10.2h-9.8l-8.2-8.5v-5l8.2-8.5L1186.6,1069L1186.6,1069z"/>
	<path id="XMLID_329_" class="st1" d="M1201.7,1079.2l-9.6-10.2h9.8l8.2,8.5v5l-8.2,8.5h-9.8l9.6-10.2V1079.2z"/>
	<path id="XMLID_331_" class="st1" d="M1224.9,1072.7h4.3v4.9h-14.7v-4.9h4.6v-9.9h-1.1l-3.6,2.2v-5.2l4.7-2.7h5.7L1224.9,1072.7
		L1224.9,1072.7z M1228.6,1095.7h-6.3l22.9-37.8h6.3L1228.6,1095.7z M1256.2,1087.1h2.3v4.8h-2.3v3.9h-5.5v-3.9h-9.5v-5.9l8.6-10.9
		h6.4V1087.1z M1250.9,1087.1v-5.7h-1.1l-3.6,4.7v1H1250.9z"/>
	<path id="XMLID_336_" class="st1" d="M1272.5,1072.7h4.3v4.9h-14.7v-4.9h4.6v-9.9h-1.1l-3.6,2.2v-5.2l4.7-2.7h5.7L1272.5,1072.7
		L1272.5,1072.7z M1276.2,1095.7h-6.3l22.9-37.8h6.3L1276.2,1095.7z M1307.7,1090.8v4.9h-16.6v-6l5.7-3.1c3.1-1.7,4.6-3.3,4.6-4.8
		s-0.7-2.2-2.2-2.2s-2.3,0.8-2.4,2.3h-5.7c0.2-4.5,3.2-7.2,8.4-7.2c4.7,0,7.7,2.5,7.7,6.9c0,2.5-1.4,4.7-4,6.4l-3,1.7v1.1H1307.7
		L1307.7,1090.8z"/>
	<path id="XMLID_340_" class="st1" d="M1312.1,1057.1h14.5v5.7l-3.3,1.5v1.1c2.4,0.2,4.4,2.2,4.4,5.5c0,4.3-3.3,7.2-8.4,7.2
		s-8.4-3-8.6-7.2h5.8c0.2,1.6,1.1,2.4,2.9,2.4c1.7,0,2.6-1,2.6-2.4c0-1.6-0.9-2.4-2.6-2.4c-0.8,0-1.5,0.1-2,0.3v-4.3l2.6-1.6v-1.1
		h-7.9V1057.1z M1325.7,1095.7h-6.3l22.9-37.8h6.3L1325.7,1095.7z M1353.3,1087.1h2.3v4.8h-2.3v3.9h-5.5v-3.9h-9.4v-5.9l8.6-10.9
		h6.4L1353.3,1087.1L1353.3,1087.1z M1348,1087.1v-5.7h-1.1l-3.6,4.7v1H1348z"/>
</g>
<g id="XMLID_47_">
	<g id="XMLID_484_">
		<path id="XMLID_497_" class="st1" d="M184.5,680.1V700h-69.3v-23.4l29.1-19.8c3.2-2.2,5.8-4.1,7.5-5.5c3.6-3,7.5-7.9,7.5-12.9
			c0-6.7-4-10.4-10.2-10.4c-6.2,0-10.6,3.5-11.1,10.6h-22.9C116,619,128.6,608,149.8,608c9.8,0,17.6,2.7,23.6,8
			c5.9,5.3,8.9,12.6,8.9,22c0,7.1-3.5,14.2-7.1,18.8c-1.7,2.3-4.3,4.9-7.7,7.9c-3.5,2.8-6.2,4.9-8.1,6.2l-8.5,5.7v3.6h33.6V680.1z"
			/>
		<path id="XMLID_495_" class="st1" d="M214.9,703.6l-11.6,16.7h-13.5l11.6-16.7V700h-10.2v-22.4h23.7
			C214.9,677.6,214.9,703.6,214.9,703.6z"/>
		<path id="XMLID_493_" class="st1" d="M225.8,609.8H287v22.7l-14.4,9.1v3.6c11.3,1.9,19.7,10.6,19.7,25c0,9.4-3.3,17-10,22.8
			c-6.6,5.8-15.3,8.6-26,8.6c-10.7,0-19.3-2.8-25.9-8.6c-6.6-5.8-9.9-13-10-21.8h23.1c1,6.8,5.8,10.7,13,10.7
			c7.9,0,12.9-5,12.9-11.7c0-7.3-4.8-12.4-13-12.4c-3.1,0-5.9,0.4-8.5,1v-17.3l14.4-9.1v-3.6H226v-19H225.8z"/>
		<path id="XMLID_491_" class="st1" d="M340.1,680.1H358V700h-60.7v-19.8h19.8v-47.8h-3.6l-16.2,11.2v-22.4l16.1-11.3h26.7V680.1z"
			/>
		<path id="XMLID_488_" class="st1" d="M397.9,608c10.9,0,19.8,3.9,26.5,11.6c6.7,7.7,10,19.5,10,35.2s-3.3,27.4-10,35.3
			c-6.7,7.7-15.6,11.6-26.5,11.6s-19.8-3.9-26.5-11.6c-6.7-7.9-10-19.6-10-35.3s3.3-27.4,10-35.2C378.1,611.9,387,608,397.9,608z
			 M397.9,628.2c-9,0-13.5,8.9-13.5,26.5c0,17.8,4.5,26.7,13.5,26.7s13.5-8.9,13.5-26.7C411.5,637.1,407,628.2,397.9,628.2z"/>
		<path id="XMLID_485_" class="st1" d="M466,650.6h11.5v-40.8h39.3c21.3,0,33.7,10.9,33.7,29.6c0,18.9-12.5,30.3-33.7,30.3h-16.4v7
			h19.1v9.9h-19.1V700h-22.9v-13.4H466v-9.9h11.5v-7H466V650.6z M513.1,650.6c9.7,0,14.4-3.7,14.4-11.1c0-7.1-4.8-10.7-14.4-10.7
			h-12.8v21.8H513.1L513.1,650.6z"/>
	</g>
</g>
<g id="XMLID_27_">
	<g id="XMLID_540_">
		<path id="XMLID_558_" class="st1" d="M114.9,752.5h33v12.2l-7.8,4.9v1.9c6.1,1,10.6,5.7,10.6,13.5c0,5.1-1.8,9.2-5.4,12.3
			c-3.5,3.1-8.3,4.7-14.1,4.7c-5.8,0-10.4-1.5-14-4.7c-3.5-3.1-5.4-7-5.4-11.8h12.5c0.6,3.7,3.1,5.8,7,5.8c4.2,0,7-2.7,7-6.3
			c0-4-2.6-6.7-7-6.7c-1.7,0-3.2,0.2-4.6,0.6v-9.3l7.8-4.9v-1.9h-19.6V752.5z"/>
		<path id="XMLID_556_" class="st1" d="M166.9,803.1l-6.3,9h-7.3l6.3-9v-1.9h-5.5v-12.1h12.8V803.1z"/>
		<path id="XMLID_552_" class="st1" d="M202.8,776.2c3.8,1.7,7.1,5.4,7.1,11c0,4.2-1.7,7.7-5.1,10.6c-3.4,2.9-8.2,4.3-14.4,4.3
			c-6.3,0-11.1-1.5-14.5-4.3c-3.4-2.9-5.1-6.4-5.1-10.6c0-5.6,3.3-9.3,7.1-11v-1.9c-3.6-2.2-5.4-5.4-5.4-9.6c0-3.7,1.6-6.8,4.7-9.3
			c3.2-2.6,7.6-3.8,13.1-3.8c5.6,0,9.9,1.3,13.1,3.8c3.1,2.5,4.7,5.6,4.7,9.3c0,4.2-1.8,7.4-5.4,9.6v1.9H202.8z M190.4,792.1
			c4.7,0,7.1-2.8,7.1-6.1s-2.4-6.1-7.1-6.1c-4.7,0-7.2,2.8-7.2,6.1C183.3,789.4,185.7,792.1,190.4,792.1z M190.4,760.8
			c-7.9-0.3-7.9,11.2,0,10.9C198.2,772,198.2,760.4,190.4,760.8z"/>
		<path id="XMLID_549_" class="st1" d="M232.3,751.5c5.9,0,10.7,2.1,14.3,6.3s5.4,10.5,5.4,19s-1.8,14.8-5.4,19.1
			c-3.6,4.2-8.4,6.3-14.3,6.3s-10.7-2.1-14.3-6.3s-5.4-10.6-5.4-19.1s1.8-14.8,5.4-19S226.4,751.5,232.3,751.5z M232.3,762.4
			c-4.9,0-7.3,4.8-7.3,14.3c0,9.6,2.4,14.4,7.3,14.4s7.3-4.8,7.3-14.4C239.6,767.2,237.2,762.4,232.3,762.4z"/>
		<path id="XMLID_546_" class="st1" d="M274.7,751.5c5.9,0,10.7,2.1,14.3,6.3s5.4,10.5,5.4,19s-1.8,14.8-5.4,19.1
			c-3.6,4.2-8.4,6.3-14.3,6.3c-5.9,0-10.7-2.1-14.3-6.3s-5.4-10.6-5.4-19.1s1.8-14.8,5.4-19S268.8,751.5,274.7,751.5z M274.7,762.4
			c-4.9,0-7.3,4.8-7.3,14.3c0,9.6,2.4,14.4,7.3,14.4c4.9,0,7.3-4.8,7.3-14.4C282,767.2,279.6,762.4,274.7,762.4z"/>
		<path id="XMLID_543_" class="st1" d="M311.5,774.6h6.2v-22.1h21.2c11.5,0,18.2,5.9,18.2,16c0,10.2-6.7,16.3-18.2,16.3H330v3.8
			h10.3v5.4H330v7.2h-12.4V794h-6.2v-5.4h6.2v-3.8h-6.2L311.5,774.6L311.5,774.6z M336.9,774.6c5.2,0,7.8-2,7.8-6
			c0-3.8-2.6-5.8-7.8-5.8H330v11.8H336.9z"/>
		<path id="XMLID_541_" class="st1" d="M110,784.8v-3.5h246.8v3.5H110z"/>
	</g>
</g>
<g id="XMLID_1_">
	<g id="XMLID_536_">
		<path id="XMLID_571_" class="st1" d="M132.8,852.2h6.8v29.6h-9.2l-9.2-17.2H120v17.2h-6.7v-29.6h9.2l9.2,17.2h1.2L132.8,852.2
			L132.8,852.2z M150.3,867.6c-4.7,0-7.1-3.2-7.1-7.9c0-4.8,2.5-8,7.1-8c4.6,0,7.2,3.3,7.2,8C157.5,864.4,155,867.6,150.3,867.6z
			 M157.5,873.4h-14.4v-3.8h14.3v3.8H157.5z M152.9,859.6c0-2.7-0.9-4.1-2.7-4.1c-1.7,0-2.6,1.4-2.6,4.1c0,2.7,0.9,4,2.6,4
			C152.1,863.6,152.9,862.3,152.9,859.6z"/>
		<path id="XMLID_569_" class="st1" d="M191.3,864.2c1.9,1.8,2.8,4.2,2.8,7.2c0,3.2-1.1,5.8-3.3,7.8s-4.9,3-8.1,3
			c-3.5,0-6.3-0.9-8.4-2.8c-2.1-1.9-3.3-4.3-3.4-7.2h7.6c0.3,2.2,1.8,3.5,4,3.5c2.6,0,4.1-1.8,4.1-4.3c0-2.9-1.7-4.3-4.1-4.3
			c-1.6,0-3,0.6-3.9,1.9h-6.9l1.3-16.9h19v6.2h-13.3l-0.3,4.6h1.2c1.4-1.1,3.1-1.6,5.1-1.6C187.2,861.5,189.5,862.4,191.3,864.2z"/>
		<path id="XMLID_566_" class="st1" d="M217.7,864.6c1.9,1.8,2.8,4.2,2.8,7.1c0,3-1.1,5.5-3.1,7.6c-2.1,2.1-4.8,3.1-8.2,3.1
			c-7,0-12.3-4-12.3-14.9c0-4.9,1-8.7,3.1-11.5s5.2-4.3,9.3-4.3c2.7,0,5.2,0.8,7.1,2.4c2,1.6,3.1,3.5,3.4,5.9h-7.5
			c-0.3-1.5-1.4-2.3-3.3-2.3c-2.7,0-4.7,1.9-5,6.3h1.2c1.3-1.4,3.2-2.1,5.7-2.1C213.6,861.9,215.9,862.8,217.7,864.6z M212.9,871.9
			c0-1.4-0.4-2.4-1.1-3.1c-0.7-0.8-1.6-1.1-2.9-1.1c-1.2,0-2.2,0.4-2.9,1.1s-1.1,1.8-1.1,3.1c0,2.7,1.6,4.4,4,4.4
			C211.3,876.2,212.9,874.6,212.9,871.9z"/>
		<path id="XMLID_563_" class="st1" d="M225,869.3c-1.8-1.8-2.7-4.2-2.7-7.1c0-3,1.1-5.5,3.1-7.6c2.1-2.1,4.8-3.1,8.2-3.1
			c7,0,12.3,4,12.3,14.9c0,4.9-1,8.7-3.1,11.5s-5.2,4.2-9.3,4.2c-2.7,0-5.2-0.8-7.1-2.4c-2-1.6-3.1-3.6-3.4-5.9h7.5
			c0.3,1.5,1.4,2.3,3.3,2.3c2.7,0,4.7-1.9,5-6.3h-1.2c-1.3,1.4-3.2,2.1-5.7,2.1C229.2,872,226.9,871.1,225,869.3z M229.8,862
			c0,1.4,0.3,2.4,1.1,3.2c0.7,0.7,1.7,1.1,2.9,1.1s2.2-0.4,2.9-1.1c0.7-0.7,1.1-1.8,1.1-3.1c0-2.7-1.6-4.4-4-4.4
			S229.8,859.3,229.8,862z"/>
		<path id="XMLID_561_" class="st1" d="M262.9,875.3h5.9v6.5h-19.9v-6.5h6.5v-15.7h-1.2l-5.3,3.7V856l5.3-3.7h8.7V875.3z"/>
		<path id="XMLID_539_" class="st1" d="M293.7,875.3v6.5H271v-7.7l9.5-6.5c1.1-0.7,1.9-1.4,2.4-1.8c1.2-1,2.4-2.6,2.4-4.2
			c0-2.2-1.3-3.4-3.3-3.4s-3.5,1.1-3.6,3.5H271c0.3-6.4,4.4-10,11.4-10c3.2,0,5.8,0.9,7.7,2.6c1.9,1.7,2.9,4.1,2.9,7.2
			c0,2.3-1.1,4.6-2.3,6.2c-0.5,0.8-1.4,1.6-2.5,2.6c-1.1,0.9-2,1.6-2.7,2l-2.8,1.9v1.2L293.7,875.3L293.7,875.3z"/>
		<path id="XMLID_537_" class="st1" d="M297.2,852.2h20.1v7.4l-4.7,3v1.2c3.7,0.6,6.5,3.5,6.5,8.2c0,3.1-1.1,5.6-3.3,7.5
			c-2.2,1.9-5,2.8-8.5,2.8s-6.3-0.9-8.5-2.8c-2.2-1.9-3.3-4.3-3.3-7.1h7.6c0.3,2.2,1.9,3.5,4.3,3.5c2.6,0,4.2-1.6,4.2-3.8
			c0-2.4-1.6-4.1-4.3-4.1c-1,0-1.9,0.1-2.8,0.3v-5.7l4.7-3v-1.2h-11.9L297.2,852.2L297.2,852.2z"/>
	</g>
</g>
</svg>
