<?xml version="1.0" encoding="utf-8"?>
<!-- Generator: Adobe Illustrator 19.0.0, SVG Export Plug-In . SVG Version: 6.00 Build 0)  -->
<svg version="1.1" id="Layer_1" xmlns="http://www.w3.org/2000/svg" xmlns:xlink="http://www.w3.org/1999/xlink" x="0px" y="0px"
	 viewBox="-306 539.4 666.9 202.6" style="enable-background:new -306 539.4 666.9 202.6;" xml:space="preserve">
<style type="text/css">
	.st0{fill:#2BB9AF;}
</style>
<g id="XMLID_50_">
	<g id="XMLID_121_">
		<path id="XMLID_131_" class="st0" d="M-195.2,737.9v-14.6h-7.5c-9.7,12.5-25.2,18.7-46.7,18.7c-17.4,0-31.1-5-41.4-14.9
			C-301,716.8-306,704.6-306,690c0-14.3,5.3-26.8,15.6-37.4c10.3-10.6,26.2-15.9,47.3-15.9h46.7V632c0-18.4-10.9-29-33.3-29
			c-19.6,0-30.2,6.8-31.8,20.2h-34.8c1.5-29.4,27.7-47.8,65.3-47.8c42.6,0,68.5,19,68.5,57.3v105.2H-195.2z M-208.6,701.8
			c8.1-7.8,12.1-17.1,12.1-28v-12.1h-40.4c-22.1,0-33.6,9.6-33.6,26.1c0,16.2,11.8,25.5,32.1,25.5
			C-226.6,713.3-216.7,709.6-208.6,701.8z"/>
		<path id="XMLID_129_" class="st0" d="M-39.5,579.5v32.7h-14.3c-32.1,0-49.5,18.4-49.5,51.7V738h-35.2V579.5h33.9v18.4h7.5
			c9-12.1,24-18.4,44.2-18.4H-39.5z"/>
		<path id="XMLID_127_" class="st0" d="M10.1,579.5h37.4v29.9H10.1v77.2c0,14,8.1,20.9,24.3,20.9h13.1V738H33.8
			C-4.5,738-25,725.2-25,691.3V539.4h35.2v40.1H10.1z"/>
		<path id="XMLID_124_" class="st0" d="M193,718.9c-14.3,15.3-33.6,23-58.2,23s-43.9-7.8-58.5-23c-14.3-15.6-21.5-35.8-21.5-60.4
			S62,614,76.3,598.7c14.6-15.5,33.9-23.3,58.5-23.3s43.9,7.8,58.2,23.3c14.6,15.3,21.8,35.2,21.8,59.8S207.6,703.4,193,718.9z
			 M134.8,605.3c-29,0-44.8,23.3-44.8,53.2c0,30.2,15.9,53.5,44.8,53.5c29,0,44.8-23.3,44.8-53.5
			C179.6,628.7,163.7,605.3,134.8,605.3z"/>
		<path id="XMLID_122_" class="st0" d="M321.4,621.8c-1.9-11.5-12.1-17.1-31.1-17.1s-28.6,5.6-28.6,16.5c0,9.7,6.2,13.4,20.2,15.9
			l30.8,5c32.1,5.3,48.3,21.5,48.3,49.2c0,14-5.9,26.2-18.1,36.1c-11.8,9.6-28.3,14.6-49.8,14.6c-44.8,0-69.1-19.6-72.5-52h35.2
			c2.8,15.3,14.9,22.7,36.7,22.7c22.1,0,33.3-6.8,33.3-20.5c0-12.1-7.5-17.7-25.8-21.2l-33-5.6c-24.9-4-40.5-18.1-40.5-41.7
			c0-28.3,22.4-48.3,65.1-48.3c37.7,0,61.6,18.1,65.1,46.4C356.7,621.8,321.4,621.8,321.4,621.8z"/>
	</g>
</g>
</svg>
