<?xml version="1.0" encoding="utf-8"?>
<!-- Generator: Adobe Illustrator 19.0.0, SVG Export Plug-In . SVG Version: 6.00 Build 0)  -->
<svg version="1.1" id="clearspace" xmlns="http://www.w3.org/2000/svg" xmlns:xlink="http://www.w3.org/1999/xlink" x="0px" y="0px"
	 viewBox="0 226 1350 900" style="enable-background:new 0 226 1350 900;" xml:space="preserve">
<style type="text/css">
	.st0{fill:#36ACA7;}
	.st1{fill:none;stroke:#36AFA7;stroke-miterlimit:10;}
	.st2{fill:#36AFA7;}
	.st3{fill:#FFFFFF;}
	.st4{fill:#101010;}
</style>
<g id="XMLID_1524_">
	<path id="XMLID_731_" class="st0" d="M899.3,229c60.4,0,119,11.9,174.3,35.2c53.3,22.5,101.2,54.8,142.3,95.9s73.4,89,95.9,142.3
		c23.3,55.2,35.2,113.9,35.2,174.3s-11.9,119-35.2,174.3c-22.5,53.3-54.8,101.2-95.9,142.3c-41.1,41.1-89,73.4-142.3,95.9
		c-55.2,23.3-113.9,35.2-174.3,35.2s-119-11.9-174.3-35.2c-53.3-22.5-101.2-54.8-142.3-95.9c-41.1-41.1-73.4-89-95.9-142.3
		c-23.3-55.2-35.2-113.9-35.2-174.3c0-60.4,11.9-119,35.2-174.3c22.5-53.3,54.8-101.2,95.9-142.3s89-73.4,142.3-95.9
		C780.3,240.9,838.9,229,899.3,229 M899.3,228c-247.8,0-448.7,200.9-448.7,448.7s200.9,448.7,448.7,448.7S1348,924.4,1348,676.7
		S1147.1,228,899.3,228L899.3,228z"/>
</g>
<g id="XMLID_1523_">
	<path id="XMLID_683_" class="st0" d="M1204.4,229c38.1,0,73.9,14.9,100.8,41.8c26.9,26.9,41.8,62.7,41.8,100.8v610.2
		c0,38.1-14.9,73.9-41.8,100.8c-26.9,26.9-62.7,41.8-100.8,41.8H594.2c-38.1,0-73.9-14.9-100.8-41.8
		c-26.9-26.9-41.8-62.7-41.8-100.8V371.6c0-38.1,14.9-73.9,41.8-100.8c26.9-26.9,62.7-41.8,100.8-41.8H1204.4 M1204.4,228H594.2
		c-79.3,0-143.6,64.3-143.6,143.6v610.2c0,79.3,64.3,143.6,143.6,143.6h610.2c79.3,0,143.6-64.3,143.6-143.6V371.6
		C1348,292.3,1283.7,228,1204.4,228L1204.4,228z"/>
</g>
<g id="XMLID_1478_">
	<line id="XMLID_1522_" class="st1" x1="450.7" y1="1061.2" x2="1348" y2="1061.2"/>
	<line id="XMLID_1521_" class="st1" x1="450.7" y1="997.1" x2="1348" y2="997.1"/>
	<line id="XMLID_1520_" class="st1" x1="450.7" y1="933" x2="1348" y2="933"/>
	<line id="XMLID_1519_" class="st1" x1="450.7" y1="869" x2="1348" y2="869"/>
	<line id="XMLID_1518_" class="st1" x1="450.7" y1="804.9" x2="1348" y2="804.9"/>
	<line id="XMLID_1517_" class="st1" x1="450.7" y1="740.8" x2="1348" y2="740.8"/>
	<line id="XMLID_1516_" class="st1" x1="450.7" y1="676.7" x2="1348" y2="676.7"/>
	<line id="XMLID_1515_" class="st1" x1="450.7" y1="612.6" x2="1348" y2="612.6"/>
	<line id="XMLID_1514_" class="st1" x1="450.7" y1="548.4" x2="1348" y2="548.4"/>
	<line id="XMLID_1513_" class="st1" x1="450.7" y1="484.3" x2="1348" y2="484.3"/>
	<line id="XMLID_1512_" class="st1" x1="450.7" y1="420.3" x2="1348" y2="420.3"/>
	<line id="XMLID_1511_" class="st1" x1="450.7" y1="356.2" x2="1348" y2="356.2"/>
	<line id="XMLID_1497_" class="st1" x1="450.7" y1="292.1" x2="1348" y2="292.1"/>
	<line id="XMLID_1496_" class="st1" x1="1283.9" y1="228" x2="1283.9" y2="1125.3"/>
	<line id="XMLID_1495_" class="st1" x1="1219.8" y1="228" x2="1219.8" y2="1125.3"/>
	<line id="XMLID_1491_" class="st1" x1="1155.7" y1="228" x2="1155.7" y2="1125.3"/>
	<line id="XMLID_1490_" class="st1" x1="1091.7" y1="228" x2="1091.7" y2="1125.3"/>
	<line id="XMLID_1489_" class="st1" x1="1027.6" y1="228" x2="1027.6" y2="1125.3"/>
	<line id="XMLID_1487_" class="st1" x1="963.4" y1="228" x2="963.4" y2="1125.3"/>
	<line id="XMLID_1486_" class="st1" x1="899.3" y1="228" x2="899.3" y2="1125.3"/>
	<line id="XMLID_1485_" class="st1" x1="835.2" y1="228" x2="835.2" y2="1125.3"/>
	<line id="XMLID_1483_" class="st1" x1="771.1" y1="228" x2="771.1" y2="1125.3"/>
	<line id="XMLID_1482_" class="st1" x1="707" y1="228" x2="707" y2="1125.3"/>
	<line id="XMLID_1481_" class="st1" x1="643" y1="228" x2="643" y2="1125.3"/>
	<line id="XMLID_1480_" class="st1" x1="578.9" y1="228" x2="578.9" y2="1125.3"/>
	<line id="XMLID_1479_" class="st1" x1="514.8" y1="228" x2="514.8" y2="1125.3"/>
</g>
<g id="XMLID_1451_">
	<g id="XMLID_1575_">
		<path id="XMLID_1648_" class="st2" d="M642.2,768.2v-16.8h-8.6c-11.1,14.4-29,21.5-53.7,21.5c-20,0-35.8-5.7-47.7-17.1
			c-11.9-11.9-17.5-25.8-17.5-42.7c0-16.5,6.1-30.8,17.9-43c11.9-12.2,30.1-18.2,54.4-18.2h53.7v-5.4c0-21.1-12.6-33.3-38.3-33.3
			c-22.5,0-34.7,7.9-36.5,23.3h-40.1c1.8-34,31.9-55.1,75.2-55.1c49.1,0,78.8,21.8,78.8,65.9v121L642.2,768.2L642.2,768.2z
			 M626.8,726.6c9.3-9,14-19.7,14-32.2v-14h-46.6c-25.4,0-38.7,11.1-38.7,30.1c0,18.6,13.7,29.4,36.9,29.4
			C606,739.9,617.5,735.6,626.8,726.6z"/>
		<path id="XMLID_1646_" class="st2" d="M821.4,585.8v37.6h-16.5c-36.9,0-56.9,21.1-56.9,59.4v85.2h-40.5V585.8h39.1V607h8.6
			c10.4-14,27.6-21.1,50.8-21.1H821.4z"/>
		<path id="XMLID_1581_" class="st2" d="M878.5,585.8h43v34.4h-43v88.8c0,16.2,9.3,24,27.9,24h15.1v35.1h-15.8
			c-44.1,0-67.7-14.7-67.7-53.7V539.8h40.5L878.5,585.8L878.5,585.8z"/>
		<path id="XMLID_1578_" class="st2" d="M1088.9,746.4c-16.5,17.5-38.7,26.5-67,26.5c-28.3,0-50.5-9-67.3-26.5
			c-16.5-17.9-24.7-41.2-24.7-69.5s8.3-51.2,24.7-68.8c16.8-17.9,39.1-26.8,67.3-26.8c28.3,0,50.5,9,67,26.8
			c16.8,17.5,25,40.5,25,68.8S1105.7,728.4,1088.9,746.4z M1021.9,615.6c-33.3,0-51.5,26.8-51.5,61.2c0,34.7,18.2,61.6,51.5,61.6
			c33.3,0,51.5-26.8,51.5-61.6C1073.4,642.5,1055.2,615.6,1021.9,615.6z"/>
		<path id="XMLID_1576_" class="st2" d="M1236.6,634.6c-2.2-13.3-14-19.7-35.8-19.7c-21.8,0-33,6.5-33,18.9
			c0,11.1,7.2,15.4,23.3,18.2l35.5,5.7c36.9,6.1,55.5,24.7,55.5,56.6c0,16.2-6.8,30.1-20.7,41.6c-13.7,11.1-32.6,16.8-57.3,16.8
			c-51.5,0-79.6-22.5-83.5-59.8h40.5c3.2,17.5,17.1,26.1,42.3,26.1c25.4,0,38.3-7.9,38.3-23.6c0-14-8.6-20.4-29.7-24.3l-38-6.5
			c-28.6-4.7-46.6-20.7-46.6-48c0-32.6,25.8-55.5,74.9-55.5c43.4,0,70.9,20.7,74.9,53.3L1236.6,634.6L1236.6,634.6z"/>
	</g>
</g>
<g id="XMLID_1450_">
	<path id="XMLID_682_" class="st0" d="M1347,229v895.3H451.7V229H1347 M1348,228H450.7v897.3H1348V228L1348,228z"/>
</g>
<g id="XMLID_1448_">
	<circle id="XMLID_739_" class="st1" cx="94.2" cy="320.2" r="92.2"/>
</g>
<g id="XMLID_1421_">
	<g id="XMLID_1583_">
		<path id="XMLID_1643_" class="st2" d="M41.5,339v-3.5h-1.8c-2.3,3-6,4.4-11.1,4.4c-4.1,0-7.4-1.2-9.8-3.6s-3.6-5.3-3.6-8.8
			c0-3.4,1.3-6.4,3.7-8.9c2.4-2.5,6.2-3.8,11.2-3.8h11.1v-1.1c0-4.4-2.6-6.9-7.9-6.9c-4.7,0-7.2,1.6-7.5,4.8h-8.3
			c0.4-7,6.6-11.4,15.5-11.4c10.1,0,16.3,4.5,16.3,13.6v24.9h-7.8V339z M38.3,330.4c1.9-1.8,2.9-4.1,2.9-6.7v-2.9h-9.6
			c-5.3,0-8,2.3-8,6.2c0,3.8,2.8,6.1,7.6,6.1C34,333.1,36.4,332.2,38.3,330.4z"/>
		<path id="XMLID_1597_" class="st2" d="M78.4,301.4v7.8H75c-7.6,0-11.8,4.4-11.8,12.3V339h-8.4v-37.6h8.1v4.4h1.8
			c2.1-2.9,5.7-4.4,10.5-4.4H78.4z"/>
		<path id="XMLID_1595_" class="st2" d="M90.1,301.4H99v7.1h-8.9v18.2c0,3.3,1.9,5,5.8,5H99v7.3h-3.3c-9.1,0-14-3-14-11.1v-36h8.4
			V301.4z"/>
		<path id="XMLID_1592_" class="st2" d="M133.4,334.4c-3.4,3.6-8,5.5-13.8,5.5c-5.8,0-10.4-1.8-13.9-5.5c-3.4-3.7-5.1-8.5-5.1-14.4
			c0-5.8,1.7-10.6,5.1-14.2c3.5-3.7,8.1-5.5,13.9-5.5c5.8,0,10.4,1.8,13.8,5.5c3.5,3.6,5.2,8.4,5.2,14.2
			C138.6,325.9,136.9,330.7,133.4,334.4z M119.7,307.5c-6.9,0-10.7,5.5-10.7,12.7c0,7.2,3.8,12.7,10.7,12.7
			c6.9,0,10.7-5.5,10.7-12.7C130.2,313,126.5,307.5,119.7,307.5z"/>
		<path id="XMLID_1584_" class="st2" d="M163.8,311.5c-0.4-2.7-2.9-4.1-7.4-4.1c-4.5,0-6.8,1.3-6.8,3.9c0,2.3,1.5,3.2,4.8,3.8
			l7.3,1.2c7.6,1.3,11.5,5.1,11.5,11.7c0,3.3-1.4,6.2-4.3,8.6c-2.8,2.3-6.7,3.5-11.8,3.5c-10.7,0-16.4-4.7-17.1-12.4h8.4
			c0.7,3.6,3.6,5.4,8.7,5.4c5.3,0,7.9-1.6,7.9-4.9c0-2.9-1.8-4.2-6.1-5l-7.8-1.3c-5.9-1-9.6-4.3-9.6-9.9c0-6.7,5.3-11.5,15.5-11.5
			c9,0,14.7,4.3,15.5,11H163.8z"/>
	</g>
</g>
<g id="XMLID_796_">
	<path id="XMLID_765_" class="st1" d="M156.9,769.1H31.5C15.2,769.1,2,755.9,2,739.6V614.2c0-16.3,13.2-29.5,29.5-29.5h125.4
		c16.3,0,29.5,13.2,29.5,29.5v125.4C186.5,755.9,173.2,769.1,156.9,769.1z"/>
</g>
<g id="XMLID_757_">
	<g id="XMLID_1598_">
		<path id="XMLID_1663_" class="st2" d="M41.5,695.6v-3.5h-1.8c-2.3,3-6,4.4-11.1,4.4c-4.1,0-7.4-1.2-9.8-3.6s-3.6-5.3-3.6-8.8
			c0-3.4,1.3-6.4,3.7-8.9s6.2-3.8,11.2-3.8h11.1v-1.1c0-4.4-2.6-6.9-7.9-6.9c-4.7,0-7.2,1.6-7.5,4.8h-8.3c0.4-7,6.6-11.4,15.5-11.4
			c10.1,0,16.3,4.5,16.3,13.6v24.9h-7.8V695.6z M38.3,687c1.9-1.8,2.9-4.1,2.9-6.7v-2.9h-9.6c-5.3,0-8,2.3-8,6.2
			c0,3.8,2.8,6.1,7.6,6.1C34,689.8,36.4,688.9,38.3,687z"/>
		<path id="XMLID_1661_" class="st2" d="M78.4,658v7.8H75c-7.6,0-11.8,4.4-11.8,12.3v17.5h-8.4V658h8.1v4.4h1.8
			c2.1-2.9,5.7-4.4,10.5-4.4H78.4z"/>
		<path id="XMLID_1604_" class="st2" d="M90.1,658H99v7.1h-8.9v18.2c0,3.3,1.9,5,5.8,5H99v7.3h-3.3c-9.1,0-14-3-14-11.1v-36h8.4V658
			z"/>
		<path id="XMLID_1601_" class="st2" d="M133.4,691.1c-3.4,3.6-8,5.5-13.8,5.5c-5.8,0-10.4-1.8-13.9-5.5c-3.4-3.7-5.1-8.5-5.1-14.4
			c0-5.8,1.7-10.6,5.1-14.2c3.5-3.7,8.1-5.5,13.9-5.5c5.8,0,10.4,1.8,13.8,5.5c3.5,3.6,5.2,8.4,5.2,14.2
			C138.6,682.6,136.9,687.4,133.4,691.1z M119.7,664.2c-6.9,0-10.7,5.5-10.7,12.7c0,7.2,3.8,12.7,10.7,12.7
			c6.9,0,10.7-5.5,10.7-12.7C130.2,669.7,126.5,664.2,119.7,664.2z"/>
		<path id="XMLID_1599_" class="st2" d="M163.8,668.1c-0.4-2.7-2.9-4.1-7.4-4.1c-4.5,0-6.8,1.3-6.8,3.9c0,2.3,1.5,3.2,4.8,3.8
			l7.3,1.2c7.6,1.3,11.5,5.1,11.5,11.7c0,3.3-1.4,6.2-4.3,8.6c-2.8,2.3-6.7,3.5-11.8,3.5c-10.7,0-16.4-4.7-17.1-12.4h8.4
			c0.7,3.6,3.6,5.4,8.7,5.4c5.3,0,7.9-1.6,7.9-4.9c0-2.9-1.8-4.2-6.1-5l-7.8-1.3c-5.9-1-9.6-4.3-9.6-9.9c0-6.7,5.3-11.5,15.5-11.5
			c9,0,14.7,4.3,15.5,11H163.8L163.8,668.1z"/>
	</g>
</g>
<rect id="XMLID_791_" x="2" y="940.9" class="st1" width="184.5" height="184.5"/>
<g id="XMLID_671_">
	<g id="XMLID_1631_">
		<path id="XMLID_1657_" class="st2" d="M43.6,1051.1v-3.3h-1.7c-2.2,2.8-5.7,4.3-10.6,4.3c-4,0-7.1-1.1-9.4-3.4
			c-2.3-2.3-3.5-5.1-3.5-8.4c0-3.3,1.2-6.1,3.5-8.5c2.3-2.4,6-3.6,10.8-3.6h10.6v-1.1c0-4.2-2.5-6.6-7.6-6.6c-4.5,0-6.9,1.6-7.2,4.6
			h-7.9c0.4-6.7,6.3-10.9,14.9-10.9c9.7,0,15.6,4.3,15.6,13.1v23.9h-7.5V1051.1z M40.6,1042.9c1.8-1.8,2.8-3.9,2.8-6.4v-2.8h-9.2
			c-5,0-7.7,2.2-7.7,6c0,3.7,2.7,5.8,7.3,5.8C36.5,1045.5,38.8,1044.7,40.6,1042.9z"/>
		<path id="XMLID_1655_" class="st2" d="M79,1015.1v7.4h-3.2c-7.3,0-11.3,4.2-11.3,11.8v16.8h-8v-36h7.7v4.2h1.7
			c2.1-2.8,5.5-4.2,10.1-4.2L79,1015.1L79,1015.1z"/>
		<path id="XMLID_1653_" class="st2" d="M90.2,1015.1h8.5v6.8h-8.5v17.5c0,3.2,1.8,4.8,5.5,4.8h3v7h-3.1c-8.7,0-13.4-2.9-13.4-10.6
			v-34.5h8V1015.1z"/>
		<path id="XMLID_1634_" class="st2" d="M131.8,1046.8c-3.3,3.5-7.7,5.2-13.3,5.2s-10-1.8-13.3-5.2c-3.3-3.5-4.9-8.2-4.9-13.8
			s1.6-10.1,4.9-13.6c3.3-3.5,7.7-5.3,13.3-5.3c5.6,0,10,1.8,13.3,5.3c3.3,3.5,5,8,5,13.6S135.1,1043.3,131.8,1046.8z M118.6,1020.9
			c-6.6,0-10.2,5.3-10.2,12.1c0,6.9,3.6,12.2,10.2,12.2c6.6,0,10.2-5.3,10.2-12.2C128.7,1026.2,125.1,1020.9,118.6,1020.9z"/>
		<path id="XMLID_1632_" class="st2" d="M161,1024.7c-0.4-2.6-2.8-3.9-7.1-3.9s-6.5,1.3-6.5,3.8c0,2.2,1.4,3.1,4.6,3.6l7,1.1
			c7.3,1.2,11,4.9,11,11.2c0,3.2-1.3,6-4.1,8.2c-2.7,2.2-6.5,3.3-11.3,3.3c-10.2,0-15.7-4.5-16.5-11.8h8c0.6,3.5,3.4,5.2,8.4,5.2
			s7.6-1.6,7.6-4.7c0-2.8-1.7-4-5.9-4.8l-7.7-1.3c-5.7-0.9-9.2-4.1-9.2-9.5c0-6.5,5.1-11,14.8-11c8.6,0,14,4.1,14.8,10.6H161z"/>
	</g>
</g>
<g id="XMLID_669_">
	<circle id="XMLID_670_" class="st3" cx="310.7" cy="320.2" r="92.2"/>
</g>
<g id="XMLID_662_">
	<g id="XMLID_663_">
		<path id="XMLID_668_" class="st4" d="M257.9,339v-3.5h-1.8c-2.3,3-6,4.4-11.1,4.4c-4.1,0-7.4-1.2-9.8-3.6s-3.6-5.3-3.6-8.8
			c0-3.4,1.3-6.4,3.7-8.9c2.4-2.5,6.2-3.8,11.2-3.8h11.1v-1.1c0-4.4-2.6-6.9-7.9-6.9c-4.7,0-7.2,1.6-7.5,4.8H234
			c0.4-7,6.6-11.4,15.5-11.4c10.1,0,16.3,4.5,16.3,13.6v24.9h-7.8V339z M254.7,330.4c1.9-1.8,2.9-4.1,2.9-6.7v-2.9h-9.6
			c-5.3,0-8,2.3-8,6.2c0,3.8,2.8,6.1,7.6,6.1C250.5,333.1,252.9,332.2,254.7,330.4z"/>
		<path id="XMLID_667_" class="st4" d="M294.8,301.4v7.8h-3.4c-7.6,0-11.8,4.4-11.8,12.3V339h-8.4v-37.6h8.1v4.4h1.8
			c2.1-2.9,5.7-4.4,10.5-4.4H294.8z"/>
		<path id="XMLID_666_" class="st4" d="M306.6,301.4h8.9v7.1h-8.9v18.2c0,3.3,1.9,5,5.8,5h3.1v7.3h-3.3c-9.1,0-14-3-14-11.1v-36h8.4
			V301.4z"/>
		<path id="XMLID_665_" class="st4" d="M349.9,334.4c-3.4,3.6-8,5.5-13.8,5.5s-10.4-1.8-13.9-5.5c-3.4-3.7-5.1-8.5-5.1-14.4
			c0-5.8,1.7-10.6,5.1-14.2c3.5-3.7,8.1-5.5,13.9-5.5s10.4,1.8,13.8,5.5c3.5,3.6,5.2,8.4,5.2,14.2
			C355.1,325.9,353.4,330.7,349.9,334.4z M336.1,307.5c-6.9,0-10.7,5.5-10.7,12.7c0,7.2,3.8,12.7,10.7,12.7s10.7-5.5,10.7-12.7
			C346.7,313,343,307.5,336.1,307.5z"/>
		<path id="XMLID_664_" class="st4" d="M380.3,311.5c-0.4-2.7-2.9-4.1-7.4-4.1s-6.8,1.3-6.8,3.9c0,2.3,1.5,3.2,4.8,3.8l7.3,1.2
			c7.6,1.3,11.5,5.1,11.5,11.7c0,3.3-1.4,6.2-4.3,8.6c-2.8,2.3-6.7,3.5-11.8,3.5c-10.7,0-16.4-4.7-17.1-12.4h8.4
			c0.7,3.6,3.6,5.4,8.7,5.4c5.3,0,7.9-1.6,7.9-4.9c0-2.9-1.8-4.2-6.1-5l-7.8-1.3c-5.9-1-9.6-4.3-9.6-9.9c0-6.7,5.3-11.5,15.5-11.5
			c9,0,14.7,4.3,15.5,11H380.3z"/>
	</g>
</g>
<g id="XMLID_660_">
	<path id="XMLID_661_" class="st3" d="M373.4,769.1H248c-16.4,0-29.5-13.2-29.5-29.5V614.2c0-16.3,13.2-29.5,29.5-29.5h125.4
		c16.3,0,29.5,13.2,29.5,29.5v125.4C402.9,755.9,389.6,769.1,373.4,769.1z"/>
</g>
<g id="XMLID_18_">
	<g id="XMLID_10_">
		<path id="XMLID_659_" class="st4" d="M257.9,695.6v-3.5h-1.8c-2.3,3-6,4.4-11.1,4.4c-4.1,0-7.4-1.2-9.8-3.6s-3.6-5.3-3.6-8.8
			c0-3.4,1.3-6.4,3.7-8.9c2.4-2.5,6.2-3.8,11.2-3.8h11.1v-1.1c0-4.4-2.6-6.9-7.9-6.9c-4.7,0-7.2,1.6-7.5,4.8H234
			c0.4-7,6.6-11.4,15.5-11.4c10.1,0,16.3,4.5,16.3,13.6v24.9h-7.8V695.6z M254.7,687c1.9-1.8,2.9-4.1,2.9-6.7v-2.9h-9.6
			c-5.3,0-8,2.3-8,6.2c0,3.8,2.8,6.1,7.6,6.1C250.5,689.8,252.9,688.9,254.7,687z"/>
		<path id="XMLID_658_" class="st4" d="M294.8,658v7.8h-3.4c-7.6,0-11.8,4.4-11.8,12.3v17.5h-8.4V658h8.1v4.4h1.8
			c2.1-2.9,5.7-4.4,10.5-4.4H294.8z"/>
		<path id="XMLID_657_" class="st4" d="M306.6,658h8.9v7.1h-8.9v18.2c0,3.3,1.9,5,5.8,5h3.1v7.3h-3.3c-9.1,0-14-3-14-11.1v-36h8.4
			V658z"/>
		<path id="XMLID_627_" class="st4" d="M349.9,691.1c-3.4,3.6-8,5.5-13.8,5.5s-10.4-1.8-13.9-5.5c-3.4-3.7-5.1-8.5-5.1-14.4
			c0-5.8,1.7-10.6,5.1-14.2c3.5-3.7,8.1-5.5,13.9-5.5s10.4,1.8,13.8,5.5c3.5,3.6,5.2,8.4,5.2,14.2
			C355.1,682.6,353.4,687.4,349.9,691.1z M336.1,664.2c-6.9,0-10.7,5.5-10.7,12.7c0,7.2,3.8,12.7,10.7,12.7s10.7-5.5,10.7-12.7
			C346.7,669.7,343,664.2,336.1,664.2z"/>
		<path id="XMLID_625_" class="st4" d="M380.3,668.1c-0.4-2.7-2.9-4.1-7.4-4.1s-6.8,1.3-6.8,3.9c0,2.3,1.5,3.2,4.8,3.8l7.3,1.2
			c7.6,1.3,11.5,5.1,11.5,11.7c0,3.3-1.4,6.2-4.3,8.6c-2.8,2.3-6.7,3.5-11.8,3.5c-10.7,0-16.4-4.7-17.1-12.4h8.4
			c0.7,3.6,3.6,5.4,8.7,5.4c5.3,0,7.9-1.6,7.9-4.9c0-2.9-1.8-4.2-6.1-5l-7.8-1.3c-5.9-1-9.6-4.3-9.6-9.9c0-6.7,5.3-11.5,15.5-11.5
			c9,0,14.7,4.3,15.5,11H380.3L380.3,668.1z"/>
	</g>
</g>
<rect id="XMLID_16_" x="218.5" y="940.9" class="st3" width="184.5" height="184.5"/>
<g id="XMLID_2_">
	<g id="XMLID_5_">
		<path id="XMLID_9_" class="st4" d="M260,1051.1v-3.3h-1.7c-2.2,2.8-5.7,4.3-10.6,4.3c-4,0-7.1-1.1-9.4-3.4
			c-2.3-2.3-3.5-5.1-3.5-8.4c0-3.3,1.2-6.1,3.5-8.5c2.3-2.4,6-3.6,10.8-3.6h10.6v-1.1c0-4.2-2.5-6.6-7.6-6.6c-4.5,0-6.9,1.6-7.2,4.6
			h-7.9c0.4-6.7,6.3-10.9,14.9-10.9c9.7,0,15.6,4.3,15.6,13.1v23.9H260V1051.1z M257,1042.9c1.8-1.8,2.8-3.9,2.8-6.4v-2.8h-9.2
			c-5,0-7.7,2.2-7.7,6c0,3.7,2.7,5.8,7.3,5.8C253,1045.5,255.2,1044.7,257,1042.9z"/>
		<path id="XMLID_6_" class="st4" d="M295.4,1015.1v7.4h-3.2c-7.3,0-11.3,4.2-11.3,11.8v16.8h-8v-36h7.7v4.2h1.7
			c2.1-2.8,5.5-4.2,10.1-4.2L295.4,1015.1L295.4,1015.1z"/>
		<path id="XMLID_7_" class="st4" d="M306.7,1015.1h8.5v6.8h-8.5v17.5c0,3.2,1.8,4.8,5.5,4.8h3v7h-3.1c-8.7,0-13.4-2.9-13.4-10.6
			v-34.5h8V1015.1z"/>
		<path id="XMLID_8_" class="st4" d="M348.3,1046.8c-3.3,3.5-7.7,5.2-13.3,5.2s-10-1.8-13.3-5.2c-3.3-3.5-4.9-8.2-4.9-13.8
			s1.6-10.1,4.9-13.6s7.7-5.3,13.3-5.3s10,1.8,13.3,5.3s5,8,5,13.6S351.6,1043.3,348.3,1046.8z M335,1020.9
			c-6.6,0-10.2,5.3-10.2,12.1c0,6.9,3.6,12.2,10.2,12.2s10.2-5.3,10.2-12.2C345.2,1026.2,341.6,1020.9,335,1020.9z"/>
		<path id="XMLID_12_" class="st4" d="M377.5,1024.7c-0.4-2.6-2.8-3.9-7.1-3.9s-6.5,1.3-6.5,3.8c0,2.2,1.4,3.1,4.6,3.6l7,1.1
			c7.3,1.2,11,4.9,11,11.2c0,3.2-1.3,6-4.1,8.2c-2.7,2.2-6.5,3.3-11.3,3.3c-10.2,0-15.7-4.5-16.5-11.8h8c0.6,3.5,3.4,5.2,8.4,5.2
			c5,0,7.6-1.6,7.6-4.7c0-2.8-1.7-4-5.9-4.8l-7.7-1.3c-5.7-0.9-9.2-4.1-9.2-9.5c0-6.5,5.1-11,14.8-11c8.6,0,14,4.1,14.8,10.6H377.5z
			"/>
	</g>
</g>
</svg>
