<?xml version="1.0" encoding="utf-8"?>
<!-- Generator: Adobe Illustrator 19.0.0, SVG Export Plug-In . SVG Version: 6.00 Build 0)  -->
<svg version="1.1" id="Layer_1" xmlns="http://www.w3.org/2000/svg" xmlns:xlink="http://www.w3.org/1999/xlink" x="0px" y="0px"
	 viewBox="0 349.7 1350 652.3" style="enable-background:new 0 349.7 1350 652.3;" xml:space="preserve">
<style type="text/css">
	.st0{fill:none;stroke:#36AFA7;stroke-miterlimit:10;}
	.st1{fill:#36AFA7;}
	.st2{fill:#FFFFFF;}
	.st3{fill:none;stroke:#36AFA7;stroke-width:1.5;stroke-miterlimit:10;}
</style>
<g id="XMLID_1465_">
	<line id="XMLID_1469_" class="st0" x1="2" y1="785.3" x2="1348" y2="785.3"/>
	<line id="XMLID_1468_" class="st0" x1="2" y1="568.4" x2="1348" y2="568.4"/>
	<line id="XMLID_1467_" class="st0" x1="1131.2" y1="351.7" x2="1131.2" y2="1002"/>
	<line id="XMLID_1466_" class="st0" x1="218.8" y1="351.7" x2="218.8" y2="1002"/>
</g>
<rect id="XMLID_1464_" x="2" y="351.7" class="st1" width="216.8" height="216.8"/>
<rect id="XMLID_1463_" x="2" y="785.3" class="st1" width="216.8" height="216.8"/>
<rect id="XMLID_1462_" x="1131.2" y="351.7" class="st1" width="216.8" height="216.8"/>
<rect id="XMLID_1443_" x="1131.2" y="785.3" class="st1" width="216.8" height="216.8"/>
<g id="XMLID_764_">
	<g id="XMLID_99_">
		<path id="XMLID_109_" class="st2" d="M370.4,785.3v-20h-10.3c-13.2,17-34.5,25.5-63.9,25.5c-23.8,0-42.6-6.8-56.6-20.4
			c-14.1-14.1-20.8-30.7-20.8-50.6c0-19.6,7.3-36.6,21.3-51.1c14.1-14.5,35.8-21.7,64.7-21.7h63.9v-6.4c0-25.1-15-39.6-45.6-39.6
			c-26.8,0-41.3,9.4-43.5,27.7H232c2.1-40.5,37.9-65.6,89.4-65.6c58.3,0,93.7,26,93.7,78.4v144h-44.7V785.3z M352.1,735.8
			c11.1-10.7,16.7-23.4,16.7-38.3v-16.7h-55.3c-30.2,0-46,13.2-46,35.8c0,22.1,16.2,34.9,43.9,34.9
			C327.4,751.6,341,746.5,352.1,735.8z"/>
		<path id="XMLID_107_" class="st2" d="M583.4,568.4v44.8h-19.5c-43.9,0-67.7,25.1-67.7,70.7v101.4H448V568.4h46.5v25.1h10.3
			c12.4-16.7,32.8-25.1,60.5-25.1H583.4z"/>
		<path id="XMLID_105_" class="st2" d="M651.4,568.4h51.1v40.9h-51.1v105.6c0,19.1,11.1,28.5,33.2,28.5h17.8v41.8h-18.7
			c-52.3,0-80.5-17.4-80.5-63.9V513.6h48.2V568.4z"/>
		<path id="XMLID_102_" class="st2" d="M901.4,759.3c-19.6,20.8-46,31.5-79.7,31.5c-33.6,0-60-10.7-80.1-31.5
			c-19.6-21.3-29.4-49-29.4-82.7s9.8-60.9,29.4-81.8c20-21.3,46.5-31.9,80.1-31.9s60,10.7,79.7,31.9c20,20.8,29.8,48.2,29.8,81.8
			S921.5,737.9,901.4,759.3z M821.8,603.8c-39.6,0-61.3,31.9-61.3,72.8c0,41.3,21.7,73.3,61.3,73.3s61.3-31.9,61.3-73.3
			C883.1,635.7,861.4,603.8,821.8,603.8z"/>
		<path id="XMLID_100_" class="st2" d="M1077.1,626.4c-2.6-15.8-16.7-23.4-42.6-23.4c-26,0-39.2,7.7-39.2,22.5
			c0,13.2,8.5,18.3,27.7,21.7l42.2,6.8c43.9,7.3,66,29.4,66,67.3c0,19.1-8.1,35.8-24.7,49.5c-16.2,13.2-38.8,20-68.1,20
			c-61.3,0-94.5-26.8-99.2-71.1h48.2c3.8,20.8,20.4,31.1,50.3,31.1c30.2,0,45.6-9.4,45.6-28.1c0-16.7-10.3-24.2-35.4-28.9l-45.2-7.7
			c-34.1-5.6-55.3-24.7-55.3-57c0-38.8,30.7-66,89-66c51.5,0,84.3,24.7,89,63.4L1077.1,626.4L1077.1,626.4z"/>
	</g>
</g>
<g id="XMLID_763_">
	<path id="XMLID_13_" class="st3" d="M1347,352.7V1001H3V352.7H1347 M1348,351.7H2V1002h1346V351.7L1348,351.7z"/>
</g>
</svg>
