<?xml version="1.0" encoding="utf-8"?>
<!-- Generator: Adobe Illustrator 19.0.0, SVG Export Plug-In . SVG Version: 6.00 Build 0)  -->
<svg version="1.1" id="logotype" xmlns="http://www.w3.org/2000/svg" xmlns:xlink="http://www.w3.org/1999/xlink" x="0px" y="0px"
	 viewBox="-39 206.3 1200 869.7" style="enable-background:new -39 206.3 1200 869.7;" xml:space="preserve">
<style type="text/css">
	.st0{fill:#2BB9AF;}
	.st1{fill:#FFFFFF;}
	.st2{fill:#101010;}
	.st3{fill:#EFEFEF;}
</style>
<rect id="XMLID_469_" x="-39" y="206.3" class="st0" width="600" height="289.9"/>
<rect id="XMLID_15_" x="561" y="206.3" class="st1" width="600" height="289.9"/>
<g id="XMLID_63_">
	<g id="XMLID_174_">
		<path id="XMLID_184_" class="st1" d="M125.2,399.6v-8.9h-4.6c-5.9,7.6-15.4,11.4-28.5,11.4c-10.6,0-19-3-25.3-9.1
			c-6.3-6.3-9.3-13.7-9.3-22.6c0-8.7,3.2-16.3,9.5-22.8s15.9-9.7,28.9-9.7h28.5v-2.8c0-11.2-6.6-17.7-20.3-17.7
			c-12,0-18.4,4.2-19.4,12.3H63.4c0.9-18,16.9-29.2,39.9-29.2c26,0,41.8,11.6,41.8,34.9v64.2H125.2L125.2,399.6z M117.1,377.5
			c4.9-4.7,7.4-10.4,7.4-17.1V353H99.8c-13.5,0-20.5,5.9-20.5,15.9c0,9.9,7.2,15.6,19.6,15.6C106,384.6,112.1,382.3,117.1,377.5z"/>
		<path id="XMLID_182_" class="st1" d="M220.2,302.9v19.9h-8.7c-19.6,0-30.2,11.2-30.2,31.5v45.2h-21.5v-96.6h20.7v11.2h4.6
			c5.5-7.4,14.6-11.2,27-11.2H220.2z"/>
		<path id="XMLID_180_" class="st1" d="M250.4,302.9h22.8v18.2h-22.8v47.1c0,8.5,4.9,12.7,14.8,12.7h8v18.6h-8.4
			c-23.4,0-35.9-7.8-35.9-28.5v-92.5h21.5V302.9z"/>
		<path id="XMLID_177_" class="st1" d="M361.9,388c-8.7,9.3-20.5,14-35.5,14s-26.8-4.7-35.7-14c-8.7-9.5-13.1-21.8-13.1-36.8
			s4.4-27.1,13.1-36.5c8.9-9.5,20.7-14.2,35.7-14.2s26.8,4.7,35.5,14.2c8.9,9.3,13.3,21.5,13.3,36.5
			C375.2,366.2,370.9,378.5,361.9,388z M326.4,318.7c-17.7,0-27.3,14.2-27.3,32.5c0,18.4,9.7,32.7,27.3,32.7
			c17.7,0,27.3-14.2,27.3-32.7C353.8,332.9,344.1,318.7,326.4,318.7z"/>
		<path id="XMLID_175_" class="st1" d="M440.3,328.8c-1.1-7-7.4-10.4-19-10.4s-17.5,3.4-17.5,10.1c0,5.9,3.8,8.2,12.3,9.7l18.8,3
			c19.6,3.2,29.4,13.1,29.4,30c0,8.5-3.6,15.9-11,22c-7.2,5.9-17.3,8.9-30.4,8.9c-27.3,0-42.1-12-44.2-31.7h21.5
			c1.7,9.3,9.1,13.9,22.4,13.9c13.5,0,20.3-4.2,20.3-12.5c0-7.4-4.6-10.8-15.8-12.9l-20.1-3.6c-15.2-2.5-24.7-11-24.7-25.4
			c0-17.3,13.7-29.4,39.7-29.4c23,0,37.6,11,39.7,28.3H440.3z"/>
	</g>
</g>
<g id="XMLID_241_">
	<path id="XMLID_497_" class="st0" d="M725.2,399.6v-8.9h-4.6c-5.9,7.6-15.4,11.4-28.5,11.4c-10.6,0-19-3-25.3-9.1
		c-6.3-6.3-9.3-13.7-9.3-22.6c0-8.7,3.2-16.3,9.5-22.8s15.9-9.7,28.9-9.7h28.5v-2.8c0-11.2-6.6-17.7-20.3-17.7
		c-12,0-18.4,4.2-19.4,12.3h-21.3c0.9-18,16.9-29.2,39.9-29.2c26,0,41.8,11.6,41.8,34.9v64.2H725.2L725.2,399.6z M717.1,377.5
		c4.9-4.7,7.4-10.4,7.4-17.1V353h-24.7c-13.5,0-20.5,5.9-20.5,15.9c0,9.9,7.2,15.6,19.6,15.6C706,384.6,712.1,382.3,717.1,377.5z"/>
	<path id="XMLID_495_" class="st0" d="M820.2,302.9v19.9h-8.7c-19.6,0-30.2,11.2-30.2,31.5v45.2h-21.5v-96.6h20.7v11.2h4.6
		c5.5-7.4,14.6-11.2,27-11.2H820.2z"/>
	<path id="XMLID_493_" class="st0" d="M850.4,302.9h22.8v18.2h-22.8v47.1c0,8.5,4.9,12.7,14.8,12.7h8v18.6h-8.4
		c-23.4,0-35.9-7.8-35.9-28.5v-92.5h21.5L850.4,302.9L850.4,302.9z"/>
	<path id="XMLID_489_" class="st0" d="M961.9,388c-8.7,9.3-20.5,14-35.5,14s-26.8-4.7-35.7-14c-8.7-9.5-13.1-21.8-13.1-36.8
		s4.4-27.1,13.1-36.5c8.9-9.5,20.7-14.2,35.7-14.2s26.8,4.7,35.5,14.2c8.9,9.3,13.3,21.5,13.3,36.5S970.9,378.5,961.9,388z
		 M926.4,318.7c-17.7,0-27.3,14.2-27.3,32.5c0,18.4,9.7,32.7,27.3,32.7c17.7,0,27.3-14.2,27.3-32.7
		C953.8,332.9,944.1,318.7,926.4,318.7z"/>
	<path id="XMLID_474_" class="st0" d="M1040.3,328.8c-1.1-7-7.4-10.4-19-10.4c-11.6,0-17.5,3.4-17.5,10.1c0,5.9,3.8,8.2,12.3,9.7
		l18.8,3c19.6,3.2,29.4,13.1,29.4,30c0,8.5-3.6,15.9-11,22c-7.2,5.9-17.3,8.9-30.4,8.9c-27.3,0-42.1-12-44.2-31.7h21.5
		c1.7,9.3,9.1,13.9,22.4,13.9c13.5,0,20.3-4.2,20.3-12.5c0-7.4-4.6-10.8-15.8-12.9l-20.1-3.6c-15.2-2.5-24.7-11-24.7-25.4
		c0-17.3,13.7-29.4,39.7-29.4c23,0,37.6,11,39.7,28.3H1040.3z"/>
</g>
<g id="XMLID_542_">
	<g id="XMLID_129_">
		<path id="XMLID_156_" class="st1" d="M125.2,689.5v-8.9h-4.6c-5.9,7.6-15.4,11.4-28.5,11.4c-10.6,0-19-3-25.3-9.1
			c-6.3-6.3-9.3-13.7-9.3-22.6c0-8.7,3.2-16.3,9.5-22.8s15.9-9.7,28.9-9.7h28.5V625c0-11.2-6.6-17.7-20.3-17.7
			c-12,0-18.4,4.2-19.4,12.3H63.4c0.9-18,16.9-29.2,39.9-29.2c26,0,41.8,11.6,41.8,34.9v64.2H125.2L125.2,689.5z M117.1,667.5
			c4.9-4.7,7.4-10.4,7.4-17.1V643H99.8c-13.5,0-20.5,5.9-20.5,15.9c0,9.9,7.2,15.6,19.6,15.6C106,674.5,112.1,672.2,117.1,667.5z"/>
		<path id="XMLID_154_" class="st1" d="M220.2,592.8v19.9h-8.7c-19.6,0-30.2,11.2-30.2,31.5v45.2h-21.5v-96.6h20.7V604h4.6
			c5.5-7.4,14.6-11.2,27-11.2H220.2z"/>
		<path id="XMLID_152_" class="st1" d="M250.4,592.8h22.8V611h-22.8v47.1c0,8.5,4.9,12.7,14.8,12.7h8v18.6h-8.4
			c-23.4,0-35.9-7.8-35.9-28.5v-92.6h21.5V592.8z"/>
		<path id="XMLID_149_" class="st1" d="M361.9,677.9c-8.7,9.3-20.5,14-35.5,14s-26.8-4.7-35.7-14c-8.7-9.5-13.1-21.8-13.1-36.8
			s4.4-27.1,13.1-36.5c8.9-9.5,20.7-14.2,35.7-14.2s26.8,4.7,35.5,14.2c8.9,9.3,13.3,21.5,13.3,36.5
			C375.2,656.1,370.9,668.4,361.9,677.9z M326.4,608.6c-17.7,0-27.3,14.2-27.3,32.5c0,18.4,9.7,32.7,27.3,32.7
			c17.7,0,27.3-14.2,27.3-32.7C353.8,622.8,344.1,608.6,326.4,608.6z"/>
		<path id="XMLID_130_" class="st1" d="M440.3,618.7c-1.1-7-7.4-10.4-19-10.4s-17.5,3.4-17.5,10.1c0,5.9,3.8,8.2,12.3,9.7l18.8,3
			c19.6,3.2,29.4,13.1,29.4,30c0,8.5-3.6,15.9-11,22c-7.2,5.9-17.3,8.9-30.4,8.9c-27.3,0-42.1-12-44.2-31.7h21.5
			c1.7,9.3,9.1,13.9,22.4,13.9c13.5,0,20.3-4.2,20.3-12.5c0-7.4-4.6-10.8-15.8-12.9l-20.1-3.4c-15.2-2.5-24.7-11-24.7-25.4
			c0-17.3,13.7-29.4,39.7-29.4c23,0,37.6,11,39.7,28.3h-21.4L440.3,618.7L440.3,618.7z"/>
	</g>
</g>
<g id="XMLID_242_">
	<path id="XMLID_525_" class="st0" d="M725.2,689.5v-8.9h-4.6c-5.9,7.6-15.4,11.4-28.5,11.4c-10.6,0-19-3-25.3-9.1
		c-6.3-6.3-9.3-13.7-9.3-22.6c0-8.7,3.2-16.3,9.5-22.8s15.9-9.7,28.9-9.7h28.5V625c0-11.2-6.6-17.7-20.3-17.7
		c-12,0-18.4,4.2-19.4,12.3h-21.3c0.9-18,16.9-29.2,39.9-29.2c26,0,41.8,11.6,41.8,34.9v64.2H725.2L725.2,689.5z M717.1,667.5
		c4.9-4.7,7.4-10.4,7.4-17.1V643h-24.7c-13.5,0-20.5,5.9-20.5,15.9c0,9.9,7.2,15.6,19.6,15.6C706,674.5,712.1,672.2,717.1,667.5z"/>
	<path id="XMLID_523_" class="st0" d="M820.2,592.8v19.9h-8.7c-19.6,0-30.2,11.2-30.2,31.5v45.2h-21.5v-96.6h20.7V604h4.6
		c5.5-7.4,14.6-11.2,27-11.2H820.2z"/>
	<path id="XMLID_521_" class="st0" d="M850.4,592.8h22.8V611h-22.8v47.1c0,8.5,4.9,12.7,14.8,12.7h8v18.6h-8.4
		c-23.4,0-35.9-7.8-35.9-28.5v-92.6h21.5L850.4,592.8L850.4,592.8z"/>
	<path id="XMLID_505_" class="st0" d="M961.9,677.9c-8.7,9.3-20.5,14-35.5,14s-26.8-4.7-35.7-14c-8.7-9.5-13.1-21.8-13.1-36.8
		s4.4-27.1,13.1-36.5c8.9-9.5,20.7-14.2,35.7-14.2s26.8,4.7,35.5,14.2c8.9,9.3,13.3,21.5,13.3,36.5S970.9,668.4,961.9,677.9z
		 M926.4,608.6c-17.7,0-27.3,14.2-27.3,32.5c0,18.4,9.7,32.7,27.3,32.7c17.7,0,27.3-14.2,27.3-32.7
		C953.8,622.8,944.1,608.6,926.4,608.6z"/>
	<path id="XMLID_503_" class="st0" d="M1040.3,618.7c-1.1-7-7.4-10.4-19-10.4c-11.6,0-17.5,3.4-17.5,10.1c0,5.9,3.8,8.2,12.3,9.7
		l18.8,3c19.6,3.2,29.4,13.1,29.4,30c0,8.5-3.6,15.9-11,22c-7.2,5.9-17.3,8.9-30.4,8.9c-27.3,0-42.1-12-44.2-31.7h21.5
		c1.7,9.3,9.1,13.9,22.4,13.9c13.5,0,20.3-4.2,20.3-12.5c0-7.4-4.6-10.8-15.8-12.9l-20.1-3.4c-15.2-2.5-24.7-11-24.7-25.4
		c0-17.3,13.7-29.4,39.7-29.4c23,0,37.6,11,39.7,28.3h-21.4L1040.3,618.7L1040.3,618.7z"/>
</g>
<rect id="XMLID_643_" x="-39" y="786.1" class="st1" width="1200" height="289.9"/>
<g id="XMLID_556_">
	<path id="XMLID_640_" class="st2" d="M125.2,979.4v-8.9h-4.6c-5.9,7.6-15.4,11.4-28.5,11.4c-10.6,0-19-3-25.3-9.1
		c-6.3-6.3-9.3-13.7-9.3-22.6c0-8.7,3.2-16.3,9.5-22.8s15.9-9.7,28.9-9.7h28.5v-2.8c0-11.2-6.6-17.7-20.3-17.7
		c-12,0-18.4,4.2-19.4,12.3H63.4c0.9-18,16.9-29.2,39.9-29.2c26,0,41.8,11.6,41.8,34.9v64.2L125.2,979.4L125.2,979.4z M117.1,957.4
		c4.9-4.7,7.4-10.4,7.4-17.1v-7.4H99.8c-13.5,0-20.5,5.9-20.5,15.9c0,9.9,7.2,15.6,19.6,15.6C106,964.4,112.1,962.1,117.1,957.4z"/>
	<path id="XMLID_634_" class="st2" d="M220.2,882.8v19.9h-8.7c-19.6,0-30.2,11.2-30.2,31.5v45.2h-21.5v-96.6h20.7V894h4.6
		c5.5-7.4,14.6-11.2,27-11.2H220.2L220.2,882.8z"/>
	<path id="XMLID_632_" class="st2" d="M250.4,882.8h22.8V901h-22.8v47.1c0,8.5,4.9,12.7,14.8,12.7h8v18.6h-8.4
		c-23.4,0-35.9-7.8-35.9-28.5v-92.6h21.5V882.8z"/>
	<path id="XMLID_628_" class="st2" d="M361.9,967.8c-8.7,9.3-20.5,14-35.5,14s-26.8-4.7-35.7-14c-8.7-9.5-13.1-21.8-13.1-36.8
		s4.4-27.1,13.1-36.5c8.9-9.5,20.7-14.2,35.7-14.2s26.8,4.7,35.5,14.2c8.9,9.3,13.3,21.5,13.3,36.5
		C375.2,946,370.9,958.3,361.9,967.8z M326.4,898.5c-17.7,0-27.3,14.2-27.3,32.5c0,18.4,9.7,32.7,27.3,32.7
		c17.7,0,27.3-14.2,27.3-32.7C353.8,912.7,344.1,898.5,326.4,898.5z"/>
	<path id="XMLID_626_" class="st2" d="M440.3,908.6c-1.1-7-7.4-10.4-19-10.4s-17.5,3.4-17.5,10.1c0,5.9,3.8,8.2,12.3,9.7l18.8,3
		c19.6,3.2,29.4,13.1,29.4,30c0,8.5-3.6,15.9-11,22c-7.2,5.9-17.3,8.9-30.4,8.9c-27.3,0-42.1-12-44.2-31.7h21.5
		c1.7,9.3,9.1,13.9,22.4,13.9c13.5,0,20.3-4.2,20.3-12.5c0-7.4-4.6-10.8-15.8-12.9l-20.1-3.4c-15.2-2.5-24.7-11-24.7-25.4
		c0-17.3,13.7-29.4,39.7-29.4c23,0,37.6,11,39.7,28.3h-21.4L440.3,908.6L440.3,908.6z"/>
</g>
<rect id="XMLID_555_" x="561" y="786.1" class="st3" width="600" height="289.9"/>
<g id="XMLID_243_">
	<path id="XMLID_552_" class="st0" d="M725.2,979.4v-8.9h-4.6c-5.9,7.6-15.4,11.4-28.5,11.4c-10.6,0-19-3-25.3-9.1
		c-6.3-6.3-9.3-13.7-9.3-22.6c0-8.7,3.2-16.3,9.5-22.8s15.9-9.7,28.9-9.7h28.5v-2.8c0-11.2-6.6-17.7-20.3-17.7
		c-12,0-18.4,4.2-19.4,12.3h-21.3c0.9-18,16.9-29.2,39.9-29.2c26,0,41.8,11.6,41.8,34.9v64.2L725.2,979.4L725.2,979.4z M717.1,957.4
		c4.9-4.7,7.4-10.4,7.4-17.1v-7.4h-24.7c-13.5,0-20.5,5.9-20.5,15.9c0,9.9,7.2,15.6,19.6,15.6C706,964.4,712.1,962.1,717.1,957.4z"
		/>
	<path id="XMLID_550_" class="st0" d="M820.2,882.8v19.9h-8.7c-19.6,0-30.2,11.2-30.2,31.5v45.2h-21.5v-96.6h20.7V894h4.6
		c5.5-7.4,14.6-11.2,27-11.2H820.2L820.2,882.8z"/>
	<path id="XMLID_548_" class="st0" d="M850.4,882.8h22.8V901h-22.8v47.1c0,8.5,4.9,12.7,14.8,12.7h8v18.6h-8.4
		c-23.4,0-35.9-7.8-35.9-28.5v-92.6h21.5L850.4,882.8L850.4,882.8z"/>
	<path id="XMLID_545_" class="st0" d="M961.9,967.8c-8.7,9.3-20.5,14-35.5,14s-26.8-4.7-35.7-14c-8.7-9.5-13.1-21.8-13.1-36.8
		s4.4-27.1,13.1-36.5c8.9-9.5,20.7-14.2,35.7-14.2s26.8,4.7,35.5,14.2c8.9,9.3,13.3,21.5,13.3,36.5S970.9,958.3,961.9,967.8z
		 M926.4,898.5c-17.7,0-27.3,14.2-27.3,32.5c0,18.4,9.7,32.7,27.3,32.7c17.7,0,27.3-14.2,27.3-32.7
		C953.8,912.7,944.1,898.5,926.4,898.5z"/>
	<path id="XMLID_543_" class="st0" d="M1040.3,908.6c-1.1-7-7.4-10.4-19-10.4c-11.6,0-17.5,3.4-17.5,10.1c0,5.9,3.8,8.2,12.3,9.7
		l18.8,3c19.6,3.2,29.4,13.1,29.4,30c0,8.5-3.6,15.9-11,22c-7.2,5.9-17.3,8.9-30.4,8.9c-27.3,0-42.1-12-44.2-31.7h21.5
		c1.7,9.3,9.1,13.9,22.4,13.9c13.5,0,20.3-4.2,20.3-12.5c0-7.4-4.6-10.8-15.8-12.9l-20.1-3.4c-15.2-2.5-24.7-11-24.7-25.4
		c0-17.3,13.7-29.4,39.7-29.4c23,0,37.6,11,39.7,28.3h-21.4L1040.3,908.6L1040.3,908.6z"/>
</g>
</svg>
