<?xml version="1.0" encoding="utf-8"?>
<!-- Generator: Adobe Illustrator 19.0.0, SVG Export Plug-In . SVG Version: 6.00 Build 0)  -->
<svg version="1.1" id="Layer_1" xmlns="http://www.w3.org/2000/svg" xmlns:xlink="http://www.w3.org/1999/xlink" x="0px" y="0px"
	 viewBox="1 230 1351 891" style="enable-background:new 1 230 1351 891;" xml:space="preserve">
<style type="text/css">
	.st0{fill:none;stroke:#36AFA7;stroke-width:1.5;stroke-miterlimit:10;}
	.st1{fill:#36AFA7;}
	.st2{fill:#FFFFFF;}
</style>
<g id="XMLID_1585_">
	<g id="XMLID_1676_">
		<line id="XMLID_1680_" class="st0" x1="3" y1="852.6" x2="684.9" y2="852.6"/>
		<line id="XMLID_1679_" class="st0" x1="3" y1="719.2" x2="684.9" y2="719.2"/>
		<line id="XMLID_1678_" class="st0" x1="624.6" y1="231" x2="624.6" y2="912.9"/>
		<line id="XMLID_1677_" class="st0" x1="63.3" y1="231" x2="63.3" y2="912.9"/>
	</g>
	<g id="XMLID_769_">
		<rect id="XMLID_1625_" x="3" y="852.6" class="st1" width="60.3" height="60.3"/>
		<rect id="XMLID_1624_" x="624.6" y="852.6" class="st1" width="60.3" height="60.3"/>
	</g>
	<g id="XMLID_1587_">
		<g>
			<path id="XMLID_109_" class="st2" d="M156.6,852.6v-12.3h-6.3c-8.1,10.5-21.2,15.7-39.3,15.7c-14.7,0-26.2-4.2-34.8-12.6
				c-8.6-8.6-12.8-18.9-12.8-31.2c0-12.1,4.5-22.5,13.1-31.4c8.6-8.9,22-13.4,39.8-13.4h39.3v-3.9c0-15.5-9.2-24.4-28-24.4
				c-16.5,0-25.4,5.8-26.7,17H71.4c1.3-24.9,23.3-40.3,55-40.3c35.9,0,57.6,16,57.6,48.2v88.6H156.6z M145.3,822.2
				c6.8-6.5,10.2-14.4,10.2-23.6v-10.2h-34.1c-18.6,0-28.3,8.1-28.3,22c0,13.6,10,21.5,27,21.5C130.1,831.9,138.5,828.8,145.3,822.2
				z"/>
			<path id="XMLID_107_" class="st2" d="M287.6,719.2v27.5h-12.1c-27,0-41.7,15.5-41.7,43.5v62.4h-29.6V719.2h28.6v15.5h6.3
				c7.6-10.2,20.2-15.5,37.2-15.5H287.6z"/>
			<path id="XMLID_105_" class="st2" d="M329.4,719.2h31.4v25.2h-31.4v65c0,11.8,6.8,17.6,20.4,17.6h11v25.7h-11.5
				c-32.2,0-49.5-10.7-49.5-39.3V685.5h29.6V719.2z"/>
			<path id="XMLID_102_" class="st2" d="M483.3,836.6c-12.1,12.8-28.3,19.4-49,19.4c-20.7,0-36.9-6.6-49.3-19.4
				c-12.1-13.1-18.1-30.1-18.1-50.8c0-20.7,6-37.5,18.1-50.3c12.3-13.1,28.6-19.6,49.3-19.6c20.7,0,36.9,6.5,49,19.6
				c12.3,12.8,18.3,29.6,18.3,50.3C501.6,806.5,495.6,823.5,483.3,836.6z M434.3,741c-24.4,0-37.7,19.6-37.7,44.8
				c0,25.4,13.4,45.1,37.7,45.1c24.4,0,37.7-19.7,37.7-45.1C472,760.6,458.6,741,434.3,741z"/>
			<path id="XMLID_100_" class="st2" d="M591.3,754.9c-1.6-9.7-10.2-14.4-26.2-14.4c-16,0-24.1,4.7-24.1,13.9
				c0,8.1,5.2,11.3,17,13.4l25.9,4.2c27,4.5,40.6,18.1,40.6,41.4c0,11.8-5,22-15.2,30.4c-10,8.1-23.8,12.3-41.9,12.3
				c-37.7,0-58.2-16.5-61-43.8h29.6c2.4,12.8,12.6,19.1,30.9,19.1c18.6,0,28-5.8,28-17.3c0-10.2-6.3-14.9-21.7-17.8l-27.8-4.7
				c-21-3.4-34.1-15.2-34.1-35.1c0-23.8,18.9-40.6,54.8-40.6c31.7,0,51.9,15.2,54.8,39H591.3z"/>
		</g>
	</g>
	<g id="XMLID_1586_">
		<path class="st1" d="M683.4,232.5v678.9H4.5V232.5H683.4 M684.9,231H3v681.9h681.9V231L684.9,231z"/>
	</g>
</g>
<g id="XMLID_766_">
	<g id="XMLID_1574_">
		<line id="XMLID_1582_" class="st0" x1="732.1" y1="1091.2" x2="1353" y2="1091.2"/>
		<line id="XMLID_1580_" class="st0" x1="732.1" y1="957.9" x2="1353" y2="957.9"/>
		<line id="XMLID_1579_" class="st0" x1="1323.2" y1="231" x2="1323.2" y2="1121.4"/>
		<line id="XMLID_1577_" class="st0" x1="761.9" y1="231" x2="761.9" y2="1121.4"/>
	</g>
	<g id="XMLID_770_">
		<rect id="XMLID_1573_" x="732.1" y="1091.2" class="st1" width="29.8" height="29.8"/>
		<rect id="XMLID_1572_" x="1323.2" y="1091.2" class="st1" width="29.8" height="29.8"/>
	</g>
	<g id="XMLID_768_">
		<g>
			<path id="XMLID_96_" class="st2" d="M855.2,1091.2v-12.3h-6.3c-8.1,10.5-21.2,15.7-39.3,15.7c-14.7,0-26.2-4.2-34.8-12.6
				c-8.6-8.6-12.8-18.9-12.8-31.2c0-12.1,4.5-22.5,13.1-31.4c8.6-8.9,22-13.4,39.8-13.4h39.3v-3.9c0-15.5-9.2-24.4-28-24.4
				c-16.5,0-25.4,5.8-26.7,17H770c1.3-24.9,23.3-40.3,55-40.3c35.9,0,57.6,16,57.6,48.2v88.6H855.2z M843.9,1060.8
				c6.8-6.5,10.2-14.4,10.2-23.6V1027h-34.1c-18.6,0-28.3,8.1-28.3,22c0,13.6,10,21.5,27,21.5
				C828.7,1070.5,837.1,1067.4,843.9,1060.8z"/>
			<path id="XMLID_94_" class="st2" d="M986.2,957.9v27.5h-12.1c-27,0-41.7,15.5-41.7,43.5v62.4h-29.6V957.9h28.6v15.5h6.3
				c7.6-10.2,20.2-15.5,37.2-15.5H986.2z"/>
			<path id="XMLID_92_" class="st2" d="M1028,957.9h31.4V983H1028v65c0,11.8,6.8,17.6,20.4,17.6h11v25.7h-11.5
				c-32.2,0-49.5-10.7-49.5-39.3V924.1h29.6V957.9z"/>
			<path id="XMLID_89_" class="st2" d="M1181.9,1075.2c-12.1,12.8-28.3,19.4-49,19.4c-20.7,0-36.9-6.6-49.3-19.4
				c-12.1-13.1-18.1-30.1-18.1-50.8s6-37.5,18.1-50.3c12.3-13.1,28.6-19.6,49.3-19.6c20.7,0,36.9,6.5,49,19.6
				c12.3,12.8,18.3,29.6,18.3,50.3S1194.2,1062.1,1181.9,1075.2z M1132.9,979.6c-24.4,0-37.7,19.6-37.7,44.8
				c0,25.4,13.4,45.1,37.7,45.1c24.4,0,37.7-19.7,37.7-45.1C1170.6,999.3,1157.2,979.6,1132.9,979.6z"/>
			<path id="XMLID_87_" class="st2" d="M1289.9,993.5c-1.6-9.7-10.2-14.4-26.2-14.4c-16,0-24.1,4.7-24.1,13.9
				c0,8.1,5.2,11.3,17,13.4l25.9,4.2c27,4.5,40.6,18.1,40.6,41.4c0,11.8-5,22-15.2,30.4c-10,8.1-23.8,12.3-41.9,12.3
				c-37.7,0-58.2-16.5-61-43.8h29.6c2.4,12.8,12.6,19.1,30.9,19.1c18.6,0,28-5.8,28-17.3c0-10.2-6.3-14.9-21.7-17.8l-27.8-4.7
				c-21-3.4-34.1-15.2-34.1-35.1c0-23.8,18.9-40.6,54.8-40.6c31.7,0,51.9,15.2,54.8,39H1289.9z"/>
		</g>
	</g>
	<g id="XMLID_767_">
		<path class="st1" d="M1351.5,232.5v887H733.6v-887H1351.5 M1353,231H732.1v890H1353V231L1353,231z"/>
	</g>
</g>
</svg>
