<?xml version="1.0" encoding="utf-8"?>
<!-- Generator: Adobe Illustrator 19.0.0, SVG Export Plug-In . SVG Version: 6.00 Build 0)  -->
<svg version="1.1" id="Layer_1" xmlns="http://www.w3.org/2000/svg" xmlns:xlink="http://www.w3.org/1999/xlink" x="0px" y="0px"
	 viewBox="110 141 1500 1000" style="enable-background:new 110 141 1500 1000;" xml:space="preserve">
<style type="text/css">
	.st0{fill:#2BB9AF;}
	.st1{fill:#101010;}
	.st2{fill:none;stroke:#101010;stroke-width:1.5;stroke-miterlimit:10;}
	.st3{fill:#FFFFFF;}
</style>
<rect id="XMLID_1_" x="110" y="141" class="st0" width="1500" height="1000"/>
<g id="XMLID_348_">
	<path id="XMLID_454_" class="st1" d="M260.2,228.3H250l-2.4,7.1h-3l8-23.2h4.9l8.1,23.2h-3.1L260.2,228.3z M250.9,225.6h8.4
		l-3.5-10.4h-1.3L250.9,225.6z"/>
	<path id="XMLID_457_" class="st1" d="M276.7,221.6h-1.4c-3.2,0-5.2,2-5.2,5.6v8.2h-2.8V219h2.7v2h0.7c0.8-1,2.4-2,4.7-2h1.2v2.6
		H276.7z"/>
	<path id="XMLID_476_" class="st1" d="M287.7,219v2.4h-4.1v9c0,1.7,0.7,2.5,2.9,2.5h1.2v2.5h-1.3c-3.5,0-5.6-1.1-5.6-4.6v-9.4H278
		V219h2.8v-4.9h2.8v4.9H287.7z"/>
	<path id="XMLID_478_" class="st1" d="M305.4,227.2c0,4.8-3,8.6-8.1,8.6s-8.1-3.8-8.1-8.6s2.9-8.6,8.1-8.6S305.4,222.3,305.4,227.2z
		 M302.7,227.2c0-3.2-1.7-6.2-5.3-6.2s-5.3,3-5.3,6.2s1.7,6.2,5.3,6.2S302.7,230.4,302.7,227.2z"/>
	<path id="XMLID_481_" class="st1" d="M314.3,225.4l1.9,0.3c2.9,0.5,4.7,1.9,4.7,4.9c0,2.7-2.3,5.1-6.7,5.1c-4.6,0-6.9-2-7.3-5.2
		h2.8c0.3,1.9,1.9,2.8,4.4,2.8s4.1-0.9,4.1-2.7c0-1.4-0.9-2.2-3-2.6l-3.7-0.6c-2.3-0.4-3.9-1.7-3.9-4.1c0-2.7,2-4.8,6.5-4.8
		c3.9,0,6.1,1.8,6.5,4.7h-2.8c-0.2-1.6-1.8-2.3-3.8-2.3c-2.1,0-3.5,0.8-3.5,2.2c0,1.3,0.8,1.8,2.5,2L314.3,225.4z"/>
	<path id="XMLID_483_" class="st1" d="M341.8,222.4c3.5,0.8,5.8,2.6,5.8,6.5c0,3.6-2.9,6.9-8.8,6.9c-5.4,0-9-2.9-9.3-6.9h3
		c0.5,3.2,3.3,4.2,6.5,4.2s5.7-1.5,5.7-4.2c0-2.5-1.7-3.4-3.9-4c-1.2-0.3-3.4-0.7-4.6-0.9c-3.4-0.7-5.6-2.5-5.6-5.9
		c0-3.6,2.9-6.4,8.2-6.4c4.8,0,7.9,2.5,8.4,6.3h-3c-0.6-2.3-2.1-3.6-5.5-3.6c-2.8,0-5.1,1.3-5.1,3.7c0,2.2,2,3,3.9,3.4
		C338.4,221.7,340.6,222.1,341.8,222.4z"/>
	<path id="XMLID_485_" class="st1" d="M361,233.7h-0.7c-1,1.3-2.8,2.1-5.1,2.1c-3.8,0-5.9-2.5-5.9-5.3c0-2.6,1.7-5.4,6.3-5.4h5.3
		v-0.6c0-2-1.1-3.4-4-3.4c-2.4,0-3.7,0.9-3.8,2.4h-2.8c0.2-3,2.8-4.8,6.5-4.8c4.1,0,6.8,2,6.8,5.7v11.1H361V233.7z M360.9,228.7
		v-1.5H356c-2.7,0-3.9,1.2-3.9,3.1c0,1.9,1.4,3,3.8,3C358.6,233.4,360.9,231.3,360.9,228.7z"/>
	<path id="XMLID_488_" class="st1" d="M378.9,235.4v-9.8c0-3-1.4-4.5-4.2-4.5c-2.9,0-4.9,2.6-4.9,5.5v8.9H367V219h2.7v1.8h0.7
		c0.9-1.3,2.7-2.2,4.9-2.2c4,0,6.2,2.5,6.2,6.4v10.4C381.5,235.4,378.9,235.4,378.9,235.4z"/>
	<path id="XMLID_490_" class="st1" d="M391.2,225.4l1.9,0.3c2.9,0.5,4.7,1.9,4.7,4.9c0,2.7-2.3,5.1-6.7,5.1c-4.6,0-6.9-2-7.3-5.2
		h2.8c0.3,1.9,1.9,2.8,4.4,2.8s4.1-0.9,4.1-2.7c0-1.4-0.9-2.2-3-2.6l-3.7-0.6c-2.3-0.4-3.9-1.7-3.9-4.1c0-2.7,2-4.8,6.5-4.8
		c3.9,0,6.1,1.8,6.5,4.7h-2.8c-0.2-1.6-1.8-2.3-3.8-2.3c-2.1,0-3.5,0.8-3.5,2.2c0,1.3,0.8,1.8,2.5,2L391.2,225.4z"/>
	<path id="XMLID_492_" class="st1" d="M262.9,270.1v2.8h-16v-23.2h2.9v20.4H262.9z"/>
	<path id="XMLID_494_" class="st1" d="M265.3,252.2v-3h2.9v3H265.3z M268.1,272.9h-2.8v-16.4h2.8V272.9z"/>
	<path id="XMLID_497_" class="st1" d="M286.6,256.5v15.6c0,4.6-2.9,7.5-7.6,7.5c-4.2,0-6.9-1.8-7.4-5h2.7c0.5,1.9,2.2,2.7,4.6,2.7
		c3.4,0,4.9-2,4.9-5.3v-1.3h-0.7c-0.9,1.1-2.4,2.2-4.9,2.2c-4.5,0-7.3-3.6-7.3-8.4c0-4.8,2.8-8.4,7.3-8.4c2.6,0,4.1,1,5,2.2h0.7
		v-1.8H286.6L286.6,256.5z M283.9,264.5c0-3.2-1.7-6-5.2-6c-3.2,0-5,2.4-5,6c0,3.5,1.8,5.9,5,5.9
		C282.2,270.4,283.9,267.6,283.9,264.5z"/>
	<path id="XMLID_500_" class="st1" d="M302.1,272.9v-9.8c0-3-1.4-4.5-4.2-4.5c-2.9,0-4.9,2.6-4.9,5.5v8.9h-2.8v-23.6h2.8v9h0.7
		c0.9-1.3,2.7-2.2,4.9-2.2c4,0,6.2,2.5,6.2,6.4V273h-2.7V272.9z"/>
	<path id="XMLID_502_" class="st1" d="M316.2,256.5v2.4h-4.1v9c0,1.7,0.7,2.5,2.9,2.5h1.2v2.5h-1.3c-3.5,0-5.6-1.1-5.6-4.6v-9.4
		h-2.8v-2.4h2.8v-4.9h2.8v4.9C312.1,256.5,316.2,256.5,316.2,256.5z"/>
	<path id="XMLID_504_" class="st1" d="M245.7,293.9c0.3-4.6,3.5-6.7,7.6-6.7c4.3,0,7.4,2.4,7.4,6.9c0,3.1-2.3,6-5,8.2l-5.7,4.8v0.7
		h11.5v2.5h-15.6v-3.2l3.3-2.7c1.8-1.5,4-3.3,5.2-4.4c1.6-1.4,3.5-3.3,3.5-5.9c0-2.9-1.8-4.4-4.6-4.4c-2.6,0-4.4,1.3-4.6,4.2
		L245.7,293.9L245.7,293.9z"/>
	<path id="XMLID_506_" class="st1" d="M279.2,303c0,4.3-2.9,7.8-7.7,7.8s-8.4-3-8.4-11.2c0-6.9,2.7-12.4,8.6-12.4
		c3.9,0,6.3,2.3,6.8,5.4h-2.8c-0.6-1.9-1.8-2.9-4-2.9c-3.6,0-5.7,3.1-5.9,8.1h0.7c0.8-0.9,2.6-2.2,5.3-2.2
		C276,295.6,279.2,298.6,279.2,303z M276.3,303.1c0-3.4-2.2-5-5-5c-2.7,0-4.9,1.8-4.9,5c0,3.3,2.2,5.2,5,5.2
		C274.2,308.3,276.3,306.5,276.3,303.1z"/>
	<path id="XMLID_509_" class="st1" d="M284.3,294v1.8h0.7c0.9-1.1,2.5-2.2,5.1-2.2c4.5,0,7.2,3.8,7.2,8.6c0,4.9-2.7,8.6-7.2,8.6
		c-2.6,0-4.1-1-5-2.2h-0.7v8.3h-2.8V294H284.3z M284.3,302.2c0,3.2,1.5,6.2,5.1,6.2c3.3,0,5-2.6,5-6.2c0-3.6-1.8-6.2-5-6.2
		C285.8,296,284.3,299,284.3,302.2z"/>
	<path id="XMLID_512_" class="st1" d="M306.4,303.5h-1.2l-4.2,6.9h-3l5.1-8.4l-4.6-8h2.9l3.8,6.5h1.2l3.8-6.5h2.9l-4.6,7.9l5.1,8.5
		h-3.1L306.4,303.5z"/>
</g>
<line id="XMLID_1308_" class="st2" x1="1610" y1="653.8" x2="110" y2="653.8"/>
<line id="XMLID_1306_" class="st2" x1="244.6" y1="141" x2="244.6" y2="1141"/>
<line id="XMLID_1305_" class="st2" x1="1475.4" y1="141" x2="1475.4" y2="1141"/>
<g id="XMLID_467_">
	<path id="XMLID_2875_" class="st3" d="M266.4,604.8c6.9,0,12.3,2.3,16.1,7s5.7,10.5,5.7,17.7c0,7.1-1.9,13-5.7,17.7s-9.2,7-16.1,7
		s-12.3-2.3-16.1-7s-5.7-10.5-5.7-17.7c0-7.1,1.9-13,5.7-17.7C254.2,607.1,259.6,604.8,266.4,604.8z M266.4,650.1
		c3,0,5.6-0.6,7.9-1.7c4.6-2.3,7.2-6.5,8.5-11.3c2.5-9.9,0.5-22.1-8.5-26.6c-2.3-1.1-4.9-1.7-7.9-1.7s-5.6,0.6-7.9,1.7
		c-4.5,2.3-7.1,6.5-8.5,11.3c-2.7,9.8-0.3,22.1,8.5,26.6C260.8,649.5,263.4,650.1,266.4,650.1z"/>
	<path id="XMLID_2878_" class="st3" d="M321.8,649.5h6.2v13.3h-4.2v-9.5h-30.5v9.5H289v-13.3h4.2c3.1-5.9,4.6-12.9,4.6-20.7v-8.9
		h23.9L321.8,649.5L321.8,649.5z M317.6,649.5v-25.9h-15.7v5.2c0,8.3-1.3,15.3-4.1,20.7H317.6L317.6,649.5z"/>
	<path id="XMLID_2881_" class="st3" d="M360.3,635.8h-25.9v0.9c0,8.3,4.5,13.6,11.7,13.6c5,0,8.3-2.2,9.4-5.9h4.2
		c-1.1,5.6-5.9,9.7-13.6,9.7c-5,0-8.9-1.7-11.7-5.1c-2.8-3.4-4.2-7.7-4.2-12.9c0-5.1,1.4-9.3,4.2-12.4c2.8-3.1,6.7-4.7,11.6-4.7
		c4.6,0,8.1,1.5,10.6,4.5s3.7,6.7,3.7,10.9V635.8z M334.6,632.1H356c-0.3-5.1-4.2-9.3-10.1-9.3C339.4,622.8,335.5,626.8,334.6,632.1
		z"/>
	<path id="XMLID_2885_" class="st3" d="M374.3,638l-6.6,15.2h-4.5l7.5-17.1l-7-16.2h4.5l6.2,14.4h9.4v-14.4h4.2v14.4h9.4l6.2-14.4
		h4.5l-7,16.2l7.5,17.1h-4.5l-6.6-15.2h-9.4v15.2h-4.2V638H374.3z"/>
	<path id="XMLID_2973_" class="st3" d="M442.2,649.5h6.2v13.3h-4.2v-9.5h-30.5v9.5h-4.2v-13.3h4.2c3.1-5.9,4.6-12.9,4.6-20.7v-8.9
		h23.9V649.5z M438,649.5v-25.9h-15.7v5.2c0,8.3-1.3,15.3-4.1,20.7H438L438,649.5z"/>
	<path id="XMLID_2976_" class="st3" d="M474.2,653.2v-3.7h-1.3c-2.1,2.7-6.1,4.6-10.8,4.6c-3.8,0-6.7-1.1-8.9-3.1
		c-2.1-2.1-3.2-4.6-3.2-7.6s1-5.6,3-7.7c2.1-2.1,5.2-3.2,9.5-3.2h11.6v-2.1c0-4.5-2.9-7.6-9-7.6c-5.3,0-8.4,2.1-8.7,5.7h-4.2
		c0.5-5.9,5.5-9.5,12.9-9.5c8.1,0,13.2,4.2,13.2,11.1v23.1L474.2,653.2L474.2,653.2z M470.8,647.4c2.2-2,3.3-4.5,3.3-7.5V636h-10.5
		c-5.9,0-9.4,2.8-9.4,7.1c0,4.6,3.4,7.3,8.5,7.3C465.8,650.4,468.6,649.4,470.8,647.4z"/>
	<path id="XMLID_2979_" class="st3" d="M529.4,653.2h-4.2v-29.6h-20.1v29.6H501v-33.3h28.5L529.4,653.2L529.4,653.2z"/>
	<path id="XMLID_2981_" class="st3" d="M543,649.5h-1.3v17.1h-4.2v-46.7h4.1v3.7h1.3c2.5-3.1,6.1-4.6,10.8-4.6c4.5,0,8.1,1.7,10.8,5
		c2.7,3.3,4.1,7.5,4.1,12.5c0,5.1-1.3,9.3-4,12.6c-2.7,3.3-6.3,4.9-10.9,4.9C548.9,654.1,545.4,652.6,543,649.5z M544.5,626.8
		c-1.9,2.7-2.9,5.9-2.9,9.8s0.9,7.1,2.9,9.8c1.9,2.7,4.8,4,8.6,4c7.1,0,11.2-5.5,11.2-13.8s-4.1-13.8-11.2-13.8
		C549.3,622.8,546.4,624.1,544.5,626.8z"/>
	<path id="XMLID_2984_" class="st3" d="M600,624c2.9,3.3,4.3,7.5,4.3,12.5s-1.5,9.2-4.3,12.5c-2.9,3.3-6.7,5-11.7,5s-8.9-1.7-11.8-5
		s-4.3-7.5-4.3-12.5s1.4-9.2,4.3-12.5s6.8-5,11.8-5S597.2,620.7,600,624z M588.3,650.4c3.8,0,6.7-1.3,8.8-4c2.1-2.7,3.1-6,3.1-9.8
		c0-3.8-1-7.1-3.1-9.7c-2.1-2.7-5-4.1-8.8-4.1s-6.7,1.3-8.8,4.1c-2.1,2.7-3.1,5.9-3.1,9.7c0,3.8,1,7.1,3.1,9.8
		C581.6,649,584.5,650.4,588.3,650.4z"/>
	<path id="XMLID_2987_" class="st3" d="M629.6,653.2v13.3h-4.2v-13.3h-1.2c-5.1,0-9-1.5-11.9-4.6c-2.9-3.1-4.3-7.1-4.3-12.1
		s1.4-9,4.3-12.1c2.9-3.1,6.8-4.6,11.9-4.6h1.2v-15.1h4.2v15.1h1.1c5.1,0,9,1.5,11.9,4.6c2.9,3.1,4.3,7.1,4.3,12.1s-1.4,9-4.3,12.1
		c-2.9,3.1-6.8,4.6-11.9,4.6H629.6z M625.4,649.5v-25.9h-1.2c-7.7,0-11.9,5.5-11.9,12.9c0,7.5,4.2,12.9,11.9,12.9L625.4,649.5
		L625.4,649.5z M629.6,649.5h1.1c7.7,0,11.9-5.5,11.9-12.9c0-7.5-4.2-12.9-11.9-12.9h-1.1V649.5z"/>
	<path id="XMLID_2991_" class="st3" d="M680.8,635.8h-25.9v0.9c0,8.3,4.5,13.6,11.7,13.6c5,0,8.3-2.2,9.4-5.9h4.2
		c-1.1,5.6-5.9,9.7-13.6,9.7c-5,0-8.9-1.7-11.7-5.1c-2.8-3.4-4.2-7.7-4.2-12.9c0-5.1,1.4-9.3,4.2-12.4c2.8-3.1,6.7-4.7,11.6-4.7
		c4.6,0,8.1,1.5,10.6,4.5s3.7,6.7,3.7,10.9V635.8z M655.1,632.1h21.3c-0.3-5.1-4.2-9.3-10.1-9.3C659.9,622.8,656,626.8,655.1,632.1z
		"/>
	<path id="XMLID_2994_" class="st3" d="M714,643.7c-1.4,6.3-6.3,10.4-13.5,10.4c-5,0-8.9-1.7-11.7-5s-4.2-7.5-4.2-12.5
		c0-5.1,1.4-9.3,4.2-12.5c2.9-3.3,6.7-5,11.7-5c7.5,0,12.1,4,13.4,10.1h-4.2c-1.3-4.3-4.4-6.4-9.2-6.4c-3.9,0-6.9,1.3-8.8,3.9
		c-1.9,2.6-2.9,5.9-2.9,9.8c0,3.9,1,7.3,2.9,9.9c1.9,2.7,4.9,4,8.8,4c5.1,0,8.2-2.2,9.3-6.7H714z"/>
	<path id="XMLID_2996_" class="st3" d="M746.7,643.7c-1.4,6.3-6.3,10.4-13.5,10.4c-5,0-8.9-1.7-11.7-5s-4.2-7.5-4.2-12.5
		c0-5.1,1.4-9.3,4.2-12.5c2.9-3.3,6.7-5,11.7-5c7.5,0,12.1,4,13.4,10.1h-4.2c-1.3-4.3-4.4-6.4-9.2-6.4c-3.9,0-6.9,1.3-8.8,3.9
		c-1.9,2.6-2.9,5.9-2.9,9.8c0,3.9,1,7.3,2.9,9.9c1.9,2.7,4.9,4,8.8,4c5.1,0,8.2-2.2,9.3-6.7H746.7z"/>
	<path id="XMLID_2998_" class="st3" d="M759.5,653.2h-7.4v-33.3h4.2v29.2h1.3l15.5-29.2h7.7v33.3h-4.2V624h-1.3L759.5,653.2z"/>
	<path id="XMLID_3000_" class="st3" d="M814.5,624c2.9,3.3,4.3,7.5,4.3,12.5s-1.5,9.2-4.3,12.5c-2.9,3.3-6.7,5-11.7,5
		s-8.9-1.7-11.8-5c-2.9-3.3-4.3-7.5-4.3-12.5s1.4-9.2,4.3-12.5c2.9-3.3,6.8-5,11.8-5S811.6,620.7,814.5,624z M802.8,650.4
		c3.8,0,6.7-1.3,8.8-4c2.1-2.7,3.1-6,3.1-9.8c0-3.8-1-7.1-3.1-9.7c-2.1-2.7-5-4.1-8.8-4.1s-6.7,1.3-8.8,4.1
		c-2.1,2.7-3.1,5.9-3.1,9.7c0,3.8,1,7.1,3.1,9.8C796,649,799,650.4,802.8,650.4z"/>
	<path id="XMLID_3003_" class="st3" d="M853.4,653.2h-4.2v-15.3h-20.3v15.3h-4.2v-33.3h4.2v14.3h20.3v-14.3h4.2V653.2z"/>
	<path id="XMLID_3005_" class="st3" d="M883,653.2v-3.7h-1.3c-2.1,2.7-6.1,4.6-10.8,4.6c-3.8,0-6.7-1.1-8.9-3.1
		c-2.1-2.1-3.2-4.6-3.2-7.6s1-5.6,3-7.7c2.1-2.1,5.2-3.2,9.5-3.2h11.6v-2.1c0-4.5-2.9-7.6-9-7.6c-5.3,0-8.4,2.1-8.7,5.7H861
		c0.5-5.9,5.5-9.5,12.9-9.5c8.1,0,13.2,4.2,13.2,11.1v23.1L883,653.2L883,653.2z M879.5,647.4c2.2-2,3.3-4.5,3.3-7.5V636h-10.5
		c-5.9,0-9.4,2.8-9.4,7.1c0,4.6,3.4,7.3,8.5,7.3C874.6,650.4,877.3,649.4,879.5,647.4z"/>
	<path id="XMLID_3008_" class="st3" d="M890.6,653.2v-3.9h1.1c2.5,0,4.2-1.2,5.2-3.7s1.5-6.9,1.5-13.3v-12.5h24.3v33.3h-4.2v-29.6
		h-16.1v8.7c0,7.8-0.8,13.2-2.5,16.3c-1.7,3.1-4.4,4.6-8.2,4.6L890.6,653.2L890.6,653.2z"/>
	<path id="XMLID_3010_" class="st3" d="M956.4,624c2.9,3.3,4.3,7.5,4.3,12.5s-1.5,9.2-4.3,12.5c-2.9,3.3-6.7,5-11.7,5
		s-8.9-1.7-11.8-5c-2.9-3.3-4.3-7.5-4.3-12.5s1.4-9.2,4.3-12.5c2.9-3.3,6.8-5,11.8-5S953.5,620.7,956.4,624z M944.6,650.4
		c3.8,0,6.7-1.3,8.8-4c2.1-2.7,3.1-6,3.1-9.8c0-3.8-1-7.1-3.1-9.7c-2.1-2.7-5-4.1-8.8-4.1s-6.7,1.3-8.8,4.1
		c-2.1,2.7-3.1,5.9-3.1,9.7c0,3.8,1,7.1,3.1,9.8C937.9,649,940.8,650.4,944.6,650.4z"/>
	<path id="XMLID_3013_" class="st3" d="M988.8,636.2c3.4,0.9,5.7,3.8,5.7,7.9c0,6.1-4.1,9.1-11.8,9.1h-16.1v-33.3h15.5
		c6.7,0,10.5,3.1,10.5,8.4c0,3-1.7,5.5-3.8,6.6L988.8,636.2L988.8,636.2z M970.8,623.6v10.6h11.4c4.3,0,6.2-2.3,6.2-5.3
		c0-3.5-2.1-5.3-6.2-5.3L970.8,623.6L970.8,623.6z M983.1,649.5c4.8,0,7.2-1.9,7.2-5.7c0-3.9-2.4-5.8-7.2-5.8h-12.3v11.5H983.1z"/>
	<path id="XMLID_3017_" class="st3" d="M1001.6,653.2h-2.9v-6.8h5.6v7.9l-3.2,5.8h-2.7l3.2-5.8L1001.6,653.2L1001.6,653.2z"/>
	<path id="XMLID_3019_" class="st3" d="M1050.2,653.2l-7.7-15.3h-11.1v15.3h-4.2v-33.3h4.2v14.3h11.2l7.2-14.3h4.5l-8.1,16.1
		l8.6,17.3h-4.6V653.2z"/>
	<path id="XMLID_3021_" class="st3" d="M1084.4,624c2.9,3.3,4.3,7.5,4.3,12.5s-1.5,9.2-4.3,12.5c-2.9,3.3-6.7,5-11.7,5
		s-8.9-1.7-11.8-5s-4.3-7.5-4.3-12.5s1.4-9.2,4.3-12.5s6.8-5,11.8-5S1081.6,620.7,1084.4,624z M1072.7,650.4c3.8,0,6.7-1.3,8.8-4
		c2.1-2.7,3.1-6,3.1-9.8c0-3.8-1-7.1-3.1-9.7c-2.1-2.7-5-4.1-8.8-4.1c-3.8,0-6.7,1.3-8.8,4.1c-2.1,2.7-3.1,5.9-3.1,9.7
		c0,3.8,1,7.1,3.1,9.8C1066,649,1068.9,650.4,1072.7,650.4z"/>
	<path id="XMLID_3024_" class="st3" d="M1090.3,623.6v-3.7h27.7v3.7h-11.7v29.6h-4.2v-29.6H1090.3z"/>
	<path id="XMLID_3026_" class="st3" d="M1147.4,624c2.9,3.3,4.3,7.5,4.3,12.5s-1.5,9.2-4.3,12.5c-2.9,3.3-6.7,5-11.7,5
		s-8.9-1.7-11.8-5c-2.9-3.3-4.3-7.5-4.3-12.5s1.4-9.2,4.3-12.5c2.9-3.3,6.8-5,11.8-5C1140.6,619,1144.5,620.7,1147.4,624z
		 M1135.6,650.4c3.8,0,6.7-1.3,8.8-4c2.1-2.7,3.1-6,3.1-9.8c0-3.8-1-7.1-3.1-9.7c-2.1-2.7-5-4.1-8.8-4.1s-6.7,1.3-8.8,4.1
		c-2.1,2.7-3.1,5.9-3.1,9.7c0,3.8,1,7.1,3.1,9.8C1128.9,649,1131.8,650.4,1135.6,650.4z"/>
	<path id="XMLID_3029_" class="st3" d="M1163.1,649.5h-1.3v17.1h-4.2v-46.7h4.1v3.7h1.3c2.5-3.1,6.1-4.6,10.8-4.6
		c4.5,0,8.1,1.7,10.8,5c2.7,3.3,4.1,7.5,4.1,12.5c0,5.1-1.3,9.3-4,12.6c-2.7,3.3-6.3,4.9-10.9,4.9
		C1169,654.1,1165.5,652.6,1163.1,649.5z M1164.6,626.8c-1.9,2.7-2.9,5.9-2.9,9.8s0.9,7.1,2.9,9.8c1.9,2.7,4.8,4,8.6,4
		c7.1,0,11.2-5.5,11.2-13.8s-4.1-13.8-11.2-13.8C1169.4,622.8,1166.6,624.1,1164.6,626.8z"/>
	<path id="XMLID_3032_" class="st3" d="M1201.2,666.6h-4.3l6.9-16.5l-14.1-30.2h4.5l11,23.5h1.6l9.9-23.5h4.4L1201.2,666.6z"/>
	<path id="XMLID_3034_" class="st3" d="M1264.4,624c2.8,3.3,4.2,7.5,4.2,12.5s-1.4,9.2-4.2,12.5c-2.8,3.3-6.7,5-11.5,5
		c-4.6,0-8.3-1.5-11.1-4.5c-2.7-3.1-4.3-6.9-4.5-11.7h-8.3v15.3h-4.2v-33.3h4.2v14.3h8.4c0.5-4.5,2-8.1,4.7-10.9
		c2.7-2.9,6.3-4.3,10.8-4.3C1257.8,619,1261.6,620.7,1264.4,624z M1252.9,650.4c3.7,0,6.5-1.3,8.5-4.1c2-2.7,3-5.9,3-9.7
		c0-3.8-1-7-3-9.7s-4.9-4.1-8.5-4.1c-3.7,0-6.5,1.3-8.5,4.1c-1.9,2.7-2.9,5.9-2.9,9.7c0,3.8,1,7.1,2.9,9.8
		C1246.4,649,1249.2,650.4,1252.9,650.4z"/>
	<path id="XMLID_3037_" class="st3" d="M1285.8,653.2v-3.9h1.1c2.5,0,4.2-1.2,5.2-3.7s1.5-6.9,1.5-13.3v-12.5h24.3v33.3h-4.2v-29.6
		h-16.1v8.7c0,7.8-0.8,13.2-2.5,16.3c-1.7,3.1-4.4,4.6-8.2,4.6L1285.8,653.2L1285.8,653.2z"/>
	<path id="XMLID_3039_" class="st3" d="M1365.6,624c2.8,3.3,4.2,7.5,4.2,12.5s-1.4,9.2-4.2,12.5c-2.8,3.3-6.7,5-11.5,5
		c-4.6,0-8.3-1.5-11.1-4.5c-2.7-3.1-4.3-6.9-4.5-11.7h-8.3v15.3h-4.2v-33.3h4.2v14.3h8.4c0.5-4.5,2-8.1,4.7-10.9
		c2.7-2.9,6.3-4.3,10.8-4.3C1358.9,619,1362.8,620.7,1365.6,624z M1354,650.4c3.7,0,6.5-1.3,8.5-4.1c2-2.7,3-5.9,3-9.7
		c0-3.8-1-7-3-9.7s-4.9-4.1-8.5-4.1c-3.7,0-6.5,1.3-8.5,4.1c-1.9,2.7-2.9,5.9-2.9,9.7c0,3.8,1,7.1,2.9,9.8
		C1347.5,649,1350.4,650.4,1354,650.4z"/>
	<path id="XMLID_3042_" class="st3" d="M1401.8,624.8c2.7,3.3,4.1,7.3,4.1,12.3c0,4.9-1.5,8.9-4.3,12.2c-2.9,3.3-6.8,4.9-11.8,4.9
		c-10.3,0-16.3-7.4-16.3-20c0-5.3,0.2-8.7,1.3-13.2c1.4-6.5,4.9-10.6,11.9-12l9.1-1.5c2.6-0.5,3-0.7,3.2-2.7h4.2
		c-0.3,3.9-1.8,5.8-6.5,6.6l-9.9,1.6c-5.9,1-8.1,5.3-8.9,11.9h1.3c2.6-3.3,6.3-4.9,11.1-4.9C1395.2,619.9,1399,621.5,1401.8,624.8z
		 M1398.4,627.6c-2.1-2.6-5-3.9-8.8-3.9s-6.8,1.3-8.9,3.9c-2.1,2.6-3.1,5.8-3.1,9.5c0,3.7,1,6.8,3.1,9.4s5.1,3.9,8.9,3.9
		s6.7-1.3,8.8-3.9c2.1-2.6,3.1-5.7,3.1-9.4C1401.6,633.4,1400.5,630.2,1398.4,627.6z"/>
	<path id="XMLID_3045_" class="st3" d="M1438.4,619.9v33.3h-4.2v-14.1H1422c-0.8,0-1.4,0-1.7-0.1l-5.4,14.1h-4.4l5.8-15.1
		c-3.5-1.5-5.2-4.4-5.2-8.6c0-6.1,3.9-9.7,10.9-9.7h16.4V619.9z M1434.2,623.6h-11.8c-4.7,0-7.1,2-7.1,5.9s2.4,5.9,7.1,5.9h11.8
		V623.6z"/>
	<path id="XMLID_3048_" class="st3" d="M1442.7,623.6v-3.7h27.7v3.7h-11.7v29.6h-4.2v-29.6H1442.7z"/>
	<path id="XMLID_3050_" class="st3" d="M1475.4,653.2h-5.6v-6.8h5.6V653.2z"/>
</g>
</svg>
