<?xml version="1.0" encoding="utf-8"?>
<!-- Generator: Adobe Illustrator 19.0.0, SVG Export Plug-In . SVG Version: 6.00 Build 0)  -->
<svg version="1.1" id="Layer_1" xmlns="http://www.w3.org/2000/svg" xmlns:xlink="http://www.w3.org/1999/xlink" x="0px" y="0px"
	 viewBox="36 195 1351 891" style="enable-background:new 36 195 1351 891;" xml:space="preserve">
<style type="text/css">
	.st0{fill:none;stroke:#2BB9AF;stroke-width:1.5;stroke-miterlimit:10;}
	.st1{fill:#2BB9AF;}
	.st2{fill:#FFFFFF;}
	.st3{fill:#36AFA7;}
</style>
<g id="XMLID_1585_">
	<g id="XMLID_1676_">
		<line id="XMLID_1680_" class="st0" x1="38" y1="816.8" x2="717.9" y2="816.8"/>
		<line id="XMLID_1679_" class="st0" x1="38" y1="683.8" x2="717.9" y2="683.8"/>
		<line id="XMLID_1678_" class="st0" x1="657.8" y1="197" x2="657.8" y2="876.9"/>
		<line id="XMLID_1677_" class="st0" x1="98.1" y1="197" x2="98.1" y2="876.9"/>
	</g>
	<g id="XMLID_769_">
		<rect id="XMLID_1625_" x="38" y="816.8" class="st1" width="60.1" height="60.1"/>
		<rect id="XMLID_1624_" x="657.8" y="816.8" class="st1" width="60.1" height="60.1"/>
	</g>
	<g id="XMLID_1587_">
		<g>
			<path id="XMLID_109_" class="st2" d="M191.1,816.8v-12.3h-6.3c-8.1,10.5-21.1,15.7-39.2,15.7c-14.6-0.1-26-4.2-34.6-12.6
				c-8.6-8.6-12.8-18.8-12.8-31.1c0-12.1,4.5-22.4,13.1-31.3c8.6-8.9,21.9-13.4,39.7-13.4h39.2v-3.9c0-15.5-9.2-24.3-27.9-24.3
				c-16.5,0-25.3,5.8-26.6,16.9h-29.5c1.3-24.8,23.2-40.2,54.8-40.2c35.8,0,57.4,16,57.4,48.1v88.3L191.1,816.8L191.1,816.8z
				 M179.9,786.4c6.8-6.4,10.1-14.3,10.1-23.5v-10.2h-34c-18.5,0-28.2,8.1-28.2,21.9c0,13.6,10,21.4,26.9,21.4
				C164.7,796.1,173.1,793,179.9,786.4z"/>
			<path id="XMLID_107_" class="st2" d="M321.8,683.8v27.4h-12.1c-26.9,0-41.6,15.5-41.6,43.4v62.2h-29.5v-133h28.5v15.5h6.3
				c7.6-10.2,20.1-15.5,37.1-15.5L321.8,683.8L321.8,683.8z"/>
			<path id="XMLID_105_" class="st2" d="M363.4,683.8h31.3v25.1h-31.3v64.8c0,11.8,6.8,17.5,20.3,17.5h11v25.6h-11.5
				c-32.1,0-49.4-10.7-49.4-39.2V650.2h29.5v33.6H363.4z"/>
			<path id="XMLID_102_" class="st2" d="M516.9,800.8c-12.1,12.8-28.2,19.3-48.9,19.3s-36.8-6.6-49.2-19.3c-12.1-13.1-18-30-18-50.6
				s6-37.4,18-50.2c12.3-13.1,28.5-19.5,49.2-19.5c20.6,0,36.8,6.5,48.9,19.5c12.3,12.8,18.2,29.5,18.2,50.2
				C535.1,770.8,529.1,787.7,516.9,800.8z M468,705.5c-24.3,0-37.6,19.5-37.6,44.7c0,25.3,13.4,45,37.6,45c24.3,0,37.6-19.6,37.6-45
				C505.6,725,492.3,705.5,468,705.5z"/>
			<path id="XMLID_100_" class="st2" d="M624.6,719.3c-1.6-9.7-10.2-14.4-26.1-14.4c-16,0-24,4.7-24,13.9c0,8.1,5.2,11.3,16.9,13.4
				l25.8,4.2c26.9,4.5,40.5,18,40.5,41.3c0,11.8-5,21.9-15.2,30.3c-10,8.1-23.7,12.3-41.8,12.3c-37.6,0-58-16.5-60.8-43.7h29.5
				c2.4,12.8,12.6,19,30.8,19c18.5,0,27.9-5.8,27.9-17.2c0-10.2-6.3-14.9-21.6-17.7l-27.7-4.7c-20.9-3.4-34-15.2-34-35
				c0-23.7,18.8-40.5,54.6-40.5c31.6,0,51.7,15.2,54.6,38.9L624.6,719.3L624.6,719.3z"/>
		</g>
	</g>
	<g id="XMLID_1586_">
		<path class="st3" d="M716.4,198.5v676.9H39.5V198.5H716.4 M717.9,197H38v679.9h679.9V197L717.9,197z"/>
	</g>
</g>
<g id="XMLID_766_">
	<g id="XMLID_1574_">
		<line id="XMLID_1582_" class="st0" x1="764.9" y1="1054.7" x2="1384" y2="1054.7"/>
		<line id="XMLID_1580_" class="st0" x1="764.9" y1="921.7" x2="1384" y2="921.7"/>
		<line id="XMLID_1579_" class="st0" x1="1354.3" y1="197" x2="1354.3" y2="1084.8"/>
		<line id="XMLID_1577_" class="st0" x1="794.7" y1="197" x2="794.7" y2="1084.8"/>
	</g>
	<g id="XMLID_770_">
		<rect id="XMLID_1573_" x="764.9" y="1054.7" class="st1" width="29.7" height="29.7"/>
		<rect id="XMLID_1572_" x="1354.3" y="1054.7" class="st1" width="29.7" height="29.7"/>
	</g>
	<g id="XMLID_768_">
		<g>
			<path id="XMLID_96_" class="st2" d="M887.7,1054.7v-12.3h-6.3c-8.1,10.5-21.1,15.7-39.2,15.7c-14.7,0-26.1-4.2-34.7-12.6
				c-8.6-8.6-12.8-18.8-12.8-31.1c0-12.1,4.5-22.4,13.1-31.3c8.6-8.9,21.9-13.4,39.7-13.4h39.2v-3.9c0-15.5-9.2-24.3-27.9-24.3
				c-16.5,0-25.3,5.8-26.6,16.9h-29.4c1.3-24.8,23.2-40.2,54.8-40.2c35.8,0,57.4,16,57.4,48.1v88.3L887.7,1054.7L887.7,1054.7z
				 M876.4,1024.3c6.8-6.5,10.2-14.4,10.2-23.5v-10.2h-34c-18.5,0-28.2,8.1-28.2,21.9c0,13.6,10,21.4,26.9,21.4
				C861.3,1034,869.6,1030.9,876.4,1024.3z"/>
			<path id="XMLID_94_" class="st2" d="M1018.3,921.7v27.4h-12.1c-26.9,0-41.6,15.5-41.6,43.4v62.2h-29.5v-133h28.5v15.5h6.3
				c7.6-10.2,20.1-15.5,37.1-15.5L1018.3,921.7L1018.3,921.7z"/>
			<path id="XMLID_92_" class="st2" d="M1060,921.7h31.3v25H1060v64.8c0,11.8,6.8,17.5,20.3,17.5h11v25.6h-11.5
				c-32.1,0-49.4-10.7-49.4-39.2V888h29.6V921.7z"/>
			<path id="XMLID_89_" class="st2" d="M1213.4,1038.7c-12.1,12.8-28.2,19.3-48.9,19.3c-20.6,0-36.8-6.6-49.2-19.3
				c-12.1-13.1-18-30-18-50.6s6-37.4,18-50.2c12.3-13.1,28.5-19.5,49.2-19.5s36.8,6.5,48.9,19.5c12.3,12.8,18.2,29.5,18.2,50.2
				C1231.7,1008.7,1225.7,1025.6,1213.4,1038.7z M1164.6,943.4c-24.3,0-37.6,19.5-37.6,44.7c0,25.3,13.4,45,37.6,45
				c24.3,0,37.6-19.6,37.6-45C1202.1,963,1188.8,943.4,1164.6,943.4z"/>
			<path id="XMLID_87_" class="st2" d="M1321.1,957.2c-1.6-9.7-10.2-14.4-26.1-14.4c-16,0-24,4.7-24,13.9c0,8.1,5.2,11.3,16.9,13.4
				l25.8,4.2c26.9,4.5,40.5,18,40.5,41.3c0,11.8-5,21.9-15.2,30.3c-10,8.1-23.7,12.3-41.8,12.3c-37.6,0-58-16.5-60.8-43.7h29.5
				c2.4,12.8,12.6,19,30.8,19c18.5,0,27.9-5.8,27.9-17.2c0-10.2-6.3-14.9-21.6-17.7l-27.7-4.7c-20.9-3.4-34-15.2-34-35
				c0-23.7,18.8-40.5,54.6-40.5c31.6,0,51.7,15.2,54.6,38.9L1321.1,957.2L1321.1,957.2z"/>
		</g>
	</g>
	<g id="XMLID_767_">
		<path class="st3" d="M1382.5,198.5v884.4H766.4V198.5H1382.5 M1384,197H764.9v887.4H1384V197L1384,197z"/>
	</g>
</g>
</svg>
