<?xml version="1.0" encoding="utf-8"?>
<!-- Generator: Adobe Illustrator 19.0.0, SVG Export Plug-In . SVG Version: 6.00 Build 0)  -->
<svg version="1.1" id="Layer_1" xmlns="http://www.w3.org/2000/svg" xmlns:xlink="http://www.w3.org/1999/xlink" x="0px" y="0px"
	 viewBox="110 141 1500 1000" style="enable-background:new 110 141 1500 1000;" xml:space="preserve">
<style type="text/css">
	.st0{fill:#EFEFEF;}
	.st1{fill:#101010;}
	.st2{fill:#FFFFFF;}
	.st3{fill:#55C7BF;}
</style>
<g id="XMLID_2_">
	<rect id="XMLID_1_" x="110" y="141" class="st0" width="1500" height="1000"/>
	<g id="XMLID_257_">
		<rect id="XMLID_557_" x="110" y="141" class="st1" width="772.3" height="1000"/>
		<g id="XMLID_372_">
			<path id="XMLID_373_" class="st2" d="M349,973.6v-12.1h19.3v-57h-2.9l-16.6,11.2v-13.9l16.7-11.4h16.6v71.2h17.7v12.1L349,973.6
				L349,973.6z"/>
			<path id="XMLID_375_" class="st2" d="M438.4,888.6c9.5,0,17.1,3.6,23,10.8c5.8,7.3,8.7,18.1,8.7,32.5s-2.9,25.2-8.7,32.5
				c-5.8,7.1-13.5,10.7-23,10.7s-17.1-3.6-23-10.7c-5.8-7.3-8.7-18.1-8.7-32.5s2.9-25.2,8.7-32.5S428.8,888.6,438.4,888.6z
				 M438.4,962.8c6.2,0,10.7-2.9,13.5-8.5c2.9-5.6,4.3-13.1,4.3-22.4c0-9.3-1.4-16.8-4.3-22.4c-2.7-5.7-7.3-8.6-13.5-8.6
				s-10.7,2.9-13.6,8.6c-2.7,5.6-4.2,13.1-4.2,22.4c0,9.3,1.4,16.8,4.2,22.4S432.2,962.8,438.4,962.8z"/>
			<path id="XMLID_378_" class="st2" d="M528.2,931c6.6,2.5,12.6,9.5,12.6,19.5c0,7-2.9,13-8.5,17.6c-5.6,4.6-13.1,7-22.6,7
				c-9.6,0-17.3-2.4-22.9-7s-8.3-10.6-8.3-17.6c0-10,6.1-17,12.6-19.5v-2.9c-5.2-2.7-10-8.6-10-17.1c0-6.6,2.6-11.9,7.9-16.1
				s12.1-6.3,20.7-6.3s15.5,2.1,20.6,6.3c5.2,4.2,7.9,9.5,7.9,16.1c0,8.5-4.8,14.4-10,17.1L528.2,931L528.2,931z M527.1,949.2
				c0-8.5-6.6-14.1-17.4-14.1c-11,0-17.4,5.6-17.4,14.1s6.4,14.1,17.4,14.1C520.5,963.2,527.1,957.6,527.1,949.2z M509.7,924.4
				c8.7,0,15-4.9,15-12.4s-6.3-12.3-15-12.3s-15.1,5-15.1,12.3C494.6,919.5,501,924.4,509.7,924.4z"/>
			<path id="XMLID_382_" class="st2" d="M554.7,990.4h-11.8l36-107.2h11.4L554.7,990.4z"/>
			<path id="XMLID_384_" class="st2" d="M596.6,973.6v-12.1h19.3v-57H613l-16.6,11.2v-13.9l16.7-11.4h16.6v71.2h17.7v12.1
				L596.6,973.6L596.6,973.6z"/>
			<path id="XMLID_386_" class="st2" d="M686,888.6c9.5,0,17.1,3.6,23,10.8s8.7,18.1,8.7,32.5s-2.9,25.2-8.7,32.5
				c-5.8,7.1-13.5,10.7-23,10.7s-17.1-3.6-23-10.7c-5.8-7.3-8.7-18.1-8.7-32.5s2.9-25.2,8.7-32.5S676.4,888.6,686,888.6z M686,962.8
				c6.2,0,10.7-2.9,13.5-8.5c2.9-5.6,4.3-13.1,4.3-22.4c0-9.3-1.4-16.8-4.3-22.4c-2.7-5.7-7.3-8.6-13.5-8.6s-10.7,2.9-13.6,8.6
				c-2.7,5.6-4.2,13.1-4.2,22.4c0,9.3,1.4,16.8,4.2,22.4S679.8,962.8,686,962.8z"/>
			<path id="XMLID_389_" class="st2" d="M726.3,914.3c1-16.7,12.1-25.7,29.2-25.7c8.3,0,15.1,2.3,20.2,6.9c5.1,4.5,7.7,11,7.7,19.2
				c0,9.9-5.6,19.3-16.9,28.3l-19.3,15.6v2.9h38.6v12.1h-59.4v-14.9l29.9-23.6c8-6.2,13.2-12.4,13.2-20.4c0-8.9-5.5-13.8-14.4-13.8
				c-8.5,0-14.1,4.4-15,13.3h-13.8V914.3z"/>
			<path id="XMLID_391_" class="st2" d="M352.7,1087.9v-85h22.6l17.6,37h2.9l17.4-37H436v85h-13.6v-68h-2.9l-18,37.3H387l-17.9-37.3
				h-2.9v68H352.7z"/>
			<path id="XMLID_393_" class="st2" d="M506.5,1058.8h-44.8c0.4,12.9,6.1,19.3,17,19.3c7,0,11.4-2.6,13.2-7.7h13.7
				c-2.4,11.6-11.8,19.2-27,19.2c-9.4,0-16.8-3-22.2-8.9s-8.1-13.7-8.1-23.3c0-9.6,2.6-17.3,8-22.9c5.4-5.7,12.7-8.6,21.9-8.6
				c8.7,0,15.6,2.7,20.5,8.1c5,5.4,7.6,12.1,7.7,20.4L506.5,1058.8L506.5,1058.8z M462.3,1048.8h30.4c-1-7.1-6.1-12.3-14.5-12.3
				C469.2,1036.5,463.8,1041.3,462.3,1048.8z"/>
			<path id="XMLID_396_" class="st2" d="M557.8,1033.2h2.9v-31.8h13.5v86.6h-13v-5.8h-2.9c-3.9,4.9-9.9,7.4-17.9,7.4
				s-14.4-3-19.2-8.9c-4.6-6-7-13.6-7-23c0-9.3,2.4-16.9,7-22.9c4.8-6,11.2-8.9,19.2-8.9S554.1,1028.3,557.8,1033.2z M561,1057.6
				c0-11.6-5.7-20.4-16.8-20.4c-10.6,0-16.6,8.1-16.6,20.4s6,20.5,16.6,20.5C555.3,1078.1,561,1069.1,561,1057.6z"/>
			<path id="XMLID_399_" class="st2" d="M603,1014.3h-13.8v-13H603V1014.3z M602.7,1027.3v60.6h-13.5v-60.6H602.7z"/>
			<path id="XMLID_402_" class="st2" d="M617.1,1027.3h13.5v35.3c0,9.9,4.5,14.9,13.5,14.9c4.6,0,8.5-1.8,11.3-5.2
				c3-3.5,4.4-7.6,4.4-12.5v-32.4h13.5v60.6h-13v-5.8h-2.9c-3.7,4.9-9.5,7.4-17.5,7.4c-14.8,0-22.7-9.1-22.7-24.3L617.1,1027.3
				L617.1,1027.3z"/>
			<path id="XMLID_404_" class="st2" d="M775.2,1049.2v38.7h-13.5v-36.4c0-9.2-3.5-13.7-10.4-13.7c-8.1,0-12.9,6.4-12.9,15.6v34.5
				H725v-36.3c0-9.2-3.5-13.8-10.4-13.8c-8.6,0-13,7.1-13,17.1v33h-13.5v-60.6h13v5.5h2.9c3.1-4.6,8.2-7,15.2-7
				c7.3,0,12.5,2.5,15.7,7.4h2.9c3.7-4.9,9.3-7.4,16.8-7.4C768.5,1025.8,775.2,1034.5,775.2,1049.2z"/>
		</g>
		<g id="XMLID_343_">
			<path id="XMLID_344_" class="st2" d="M386.1,677.3l-25,49.4h-10.5l25.1-49.3v-2.1h-29.3v-8.7H386v10.7H386.1z"/>
			<path id="XMLID_346_" class="st2" d="M392.3,684c0.7-12,8.7-18.5,21-18.5c6,0,10.9,1.6,14.6,5c3.7,3.3,5.6,7.9,5.6,13.8
				c0,7.1-4,13.9-12.2,20.4l-13.9,11.2v2.1h27.8v8.7h-42.8V716l21.5-17c5.7-4.5,9.5-8.9,9.5-14.7c0-6.4-3.9-9.9-10.4-9.9
				c-6.1,0-10.1,3.2-10.8,9.6L392.3,684L392.3,684z"/>
			<path id="XMLID_348_" class="st2" d="M444.7,738.8h-8.5l25.9-77.2h8.2L444.7,738.8z"/>
			<path id="XMLID_350_" class="st2" d="M510.6,692.7c3.7,3.7,5.6,8.4,5.6,14.1c0,5.9-2,10.9-5.8,14.9c-3.9,4-9,6-15.4,6
				c-7.1,0-12.7-2.4-16.8-7.1S472,708.3,472,698c0-6.3,0.8-11.9,2.4-16.6c3.3-9.6,10.6-16,21.2-16c5.1,0,9.4,1.5,12.9,4.3
				c3.4,2.8,5.5,6.4,6.2,10.8h-9.9c-1.3-4.4-4.4-6.6-9.3-6.6c-8.2,0-13.4,6.7-13.8,18.4h2.1c3-3.5,7.4-5.2,13.3-5.2
				C502.4,687.2,506.9,689.1,510.6,692.7z M494.7,695.5c-6.8,0-11.5,4.2-11.5,11.7s4.8,12.1,11.6,12.1c6.8,0,11.4-4.4,11.4-12
				C506.1,699.7,501.4,695.5,494.7,695.5z"/>
			<path id="XMLID_353_" class="st2" d="M557,696c4.7,1.8,9.1,6.9,9.1,14.1c0,5.1-2.1,9.3-6.1,12.7c-4,3.3-9.4,5.1-16.3,5.1
				s-12.4-1.7-16.5-5.1c-4-3.3-6-7.6-6-12.7c0-7.2,4.4-12.3,9.1-14.1v-2.1c-3.8-2-7.2-6.2-7.2-12.3c0-4.7,1.9-8.6,5.7-11.6
				c3.8-3,8.7-4.5,14.9-4.5s11.1,1.5,14.8,4.5c3.8,3,5.7,6.9,5.7,11.6c0,6.1-3.4,10.4-7.2,12.3V696z M556.2,709.1
				c0-6.1-4.7-10.1-12.5-10.1c-7.9,0-12.5,4-12.5,10.1s4.6,10.1,12.5,10.1C551.5,719.2,556.2,715.2,556.2,709.1z M543.7,691.3
				c6.3,0,10.8-3.5,10.8-8.9s-4.5-8.8-10.8-8.8s-10.9,3.6-10.9,8.8C532.8,687.8,537.4,691.3,543.7,691.3z"/>
			<path id="XMLID_357_" class="st2" d="M349.8,811.3V750h16.3l12.7,26.7h2.1l12.5-26.7h16.4v61.2H400v-49h-2.1L385,789.1h-10.5
				l-12.9-26.8h-2.1v49H349.8z"/>
			<path id="XMLID_359_" class="st2" d="M460.5,790.2h-32.2c0.3,9.3,4.4,13.9,12.3,13.9c5.1,0,8.2-1.9,9.5-5.6h9.9
				c-1.7,8.3-8.5,13.8-19.5,13.8c-6.8,0-12.1-2.1-16-6.4c-3.9-4.3-5.8-9.9-5.8-16.8c0-6.9,1.9-12.4,5.7-16.5
				c3.9-4.1,9.2-6.2,15.8-6.2c6.3,0,11.2,2,14.7,5.8c3.6,3.9,5.5,8.7,5.6,14.7V790.2z M428.7,783h21.9c-0.7-5.1-4.4-8.8-10.5-8.8
				C433.7,774.2,429.8,777.6,428.7,783z"/>
			<path id="XMLID_362_" class="st2" d="M497.5,771.8h2.1v-22.9h9.7v62.3H500V807h-2.1c-2.8,3.5-7.1,5.3-12.9,5.3
				c-5.7,0-10.4-2.1-13.8-6.4c-3.3-4.3-5.1-9.8-5.1-16.6c0-6.7,1.7-12.2,5.1-16.5s8.1-6.4,13.8-6.4
				C490.7,766.5,494.8,768.3,497.5,771.8z M499.8,789.4c0-8.3-4.1-14.7-12.1-14.7c-7.6,0-11.9,5.8-11.9,14.7
				c0,8.8,4.3,14.8,11.9,14.8C495.7,804.1,499.8,797.7,499.8,789.4z"/>
			<path id="XMLID_365_" class="st2" d="M530,758.3h-10V749h9.9L530,758.3L530,758.3z M529.8,767.6v43.6h-9.7v-43.6H529.8z"/>
			<path id="XMLID_368_" class="st2" d="M540.2,767.6h9.7V793c0,7.1,3.3,10.7,9.7,10.7c3.3,0,6.1-1.3,8.1-3.8c2.1-2.5,3.2-5.5,3.2-9
				v-23.3h9.7v43.6h-9.3V807h-2.1c-2.7,3.5-6.9,5.3-12.6,5.3c-10.6,0-16.4-6.5-16.4-17.5L540.2,767.6L540.2,767.6z"/>
			<path id="XMLID_370_" class="st2" d="M654,783.4v27.9h-9.7V785c0-6.6-2.5-9.9-7.5-9.9c-5.8,0-9.3,4.6-9.3,11.2v24.9h-9.7V785
				c0-6.6-2.5-9.9-7.5-9.9c-6.2,0-9.3,5.1-9.3,12.3v23.8h-9.7v-43.6h9.3v3.9h2.1c2.2-3.3,5.9-5.1,11-5.1c5.2,0,9,1.8,11.3,5.3h2.1
				c2.7-3.5,6.7-5.3,12.1-5.3C649.2,766.5,654,772.8,654,783.4z"/>
		</g>
		<g id="XMLID_314_">
			<path id="XMLID_315_" class="st2" d="M346,356.2h20.5v5.9l-7.2,5.9v1.2c5.2,0.3,8.9,3.9,8.9,9.9c0,3.4-1.1,6.1-3.4,8.2
				c-2.2,2-5.2,3-8.8,3c-3.5,0-6.4-1-8.6-2.9c-2.2-1.9-3.4-4.5-3.6-7.5h5.6c0.3,3.4,3,5.4,6.6,5.4c4.1,0,6.7-2.4,6.7-6.2
				c0-3.9-2.4-6.3-6.7-6.3c-1.2,0-2.2,0.1-3,0.3v-5l7.2-5.9v-1.1H346V356.2z"/>
			<path id="XMLID_317_" class="st2" d="M394.3,370.7c2,2,3.1,4.7,3.1,7.9c0,3.3-1.1,6.1-3.2,8.3s-5,3.3-8.6,3.3c-4,0-7.1-1.3-9.3-4
				c-2.2-2.7-3.4-6.8-3.4-12.6c0-3.5,0.4-6.6,1.3-9.2c1.9-5.3,5.9-8.9,11.8-8.9c2.9,0,5.2,0.8,7.1,2.4s3,3.6,3.4,6H391
				c-0.7-2.4-2.4-3.7-5.2-3.7c-4.6,0-7.4,3.7-7.7,10.2h1.1c1.7-2,4.1-2.9,7.4-2.9C389.7,367.6,392.2,368.6,394.3,370.7z
				 M385.4,372.2c-3.8,0-6.4,2.3-6.4,6.5c0,4.2,2.7,6.7,6.4,6.7c3.8,0,6.3-2.4,6.3-6.7C391.8,374.5,389.2,372.2,385.4,372.2z"/>
			<path id="XMLID_320_" class="st2" d="M403.6,396.3h-4.7l14.4-42.9h4.6L403.6,396.3z"/>
			<path id="XMLID_322_" class="st2" d="M439.1,377.2h4.3v4.9h-4.3v7.5h-5.4v-7.5h-16.2v-6l14.7-19.9h6.9V377.2z M423,377.2h10.9
				v-14.7h-1.1l-9.7,13.6L423,377.2L423,377.2z"/>
			<path id="XMLID_325_" class="st2" d="M460.6,355.5c3.8,0,6.9,1.4,9.2,4.3c2.3,2.9,3.5,7.2,3.5,13c0,5.8-1.1,10.1-3.5,13
				c-2.3,2.9-5.4,4.3-9.2,4.3s-6.9-1.4-9.2-4.3c-2.3-2.9-3.5-7.2-3.5-13c0-5.8,1.1-10.1,3.5-13C453.7,357,456.7,355.5,460.6,355.5z
				 M460.6,385.2c2.5,0,4.3-1.1,5.4-3.4c1.1-2.2,1.7-5.2,1.7-9c0-3.8-0.6-6.7-1.7-9c-1.1-2.3-2.9-3.4-5.4-3.4s-4.3,1.1-5.4,3.4
				c-1.1,2.2-1.7,5.2-1.7,9c0,3.8,0.6,6.7,1.7,9C456.3,384.1,458.1,385.2,460.6,385.2z"/>
			<path id="XMLID_328_" class="st2" d="M346.5,438.4v-34h9.1l7.1,14.8h1.1l7-14.8h9.1v34h-5.4v-27.2h-1.1l-7.2,14.9h-5.8l-7.1-14.9
				h-1.1v27.2H346.5z"/>
			<path id="XMLID_330_" class="st2" d="M409.4,426.7h-17.9c0.1,5.1,2.4,7.7,6.8,7.7c2.8,0,4.6-1,5.3-3.1h5.5
				c-1,4.6-4.7,7.7-10.8,7.7c-3.8,0-6.7-1.2-8.9-3.6c-2.1-2.4-3.2-5.5-3.2-9.3c0-3.9,1-6.9,3.2-9.1c2.1-2.3,5.1-3.4,8.8-3.4
				c3.5,0,6.2,1.1,8.2,3.2s3,4.9,3.1,8.1v1.8H409.4z M391.8,422.7h12.1c-0.4-2.9-2.4-4.9-5.8-4.9
				C394.5,417.8,392.4,419.7,391.8,422.7z"/>
			<path id="XMLID_333_" class="st2" d="M431.4,416.5h1.1v-12.7h5.4v34.6h-5.2V436h-1.1c-1.6,2-4,3-7.1,3c-3.2,0-5.8-1.2-7.7-3.6
				c-1.9-2.4-2.8-5.4-2.8-9.2c0-3.7,1-6.8,2.8-9.1c1.9-2.4,4.5-3.6,7.7-3.6C427.6,413.5,429.9,414.5,431.4,416.5z M432.7,426.2
				c0-4.6-2.3-8.1-6.7-8.1c-4.2,0-6.6,3.2-6.6,8.1s2.4,8.2,6.6,8.2C430.4,434.4,432.7,430.8,432.7,426.2z"/>
			<path id="XMLID_336_" class="st2" d="M450.9,408.9h-5.5v-5.2h5.5V408.9z M450.8,414.1v24.2h-5.4v-24.2H450.8z"/>
			<path id="XMLID_339_" class="st2" d="M458,414.1h5.4v14.1c0,4,1.8,6,5.4,6c1.9,0,3.4-0.7,4.5-2.1c1.2-1.4,1.8-3,1.8-5v-13h5.4
				v24.2h-5.2V436h-1.1c-1.5,2-3.8,3-7,3c-5.9,0-9.1-3.6-9.1-9.7L458,414.1L458,414.1z"/>
			<path id="XMLID_341_" class="st2" d="M522.6,422.9v15.5h-5.4v-14.6c0-3.7-1.4-5.5-4.1-5.5c-3.2,0-5.1,2.6-5.1,6.2v13.8h-5.4
				v-14.5c0-3.7-1.4-5.5-4.1-5.5c-3.4,0-5.2,2.9-5.2,6.9v13.2h-5.4v-24.2h5.2v2.2h1.1c1.2-1.9,3.3-2.8,6.1-2.8c2.9,0,5,1,6.3,3h1.1
				c1.5-2,3.7-3,6.7-3C520,413.5,522.6,417,522.6,422.9z"/>
		</g>
		<g id="XMLID_282_">
			<path id="XMLID_283_" class="st2" d="M343.8,277.2h4v-12.6h-0.5l-3.5,2.4v-2.2l3.5-2.4h2.6v14.8h3.6v1.9h-9.7L343.8,277.2
				L343.8,277.2z"/>
			<path id="XMLID_285_" class="st2" d="M365.1,270.6c1.1,0.4,2.6,1.8,2.6,4c0,2.8-2.4,4.9-6,4.9c-3.7,0-6-2.1-6-4.9
				c0-2.2,1.5-3.6,2.6-4V270c-0.9-0.4-2.1-1.6-2.1-3.5c0-2.6,2.3-4.5,5.5-4.5s5.5,1.8,5.5,4.5c0,1.9-1.2,3.1-2.1,3.5V270.6z
				 M365.6,274.4c0-2-1.5-3.1-4-3.1s-4,1.2-4,3.1s1.5,3.2,4,3.2C364.1,277.5,365.6,276.3,365.6,274.4z M358.2,266.6
				c0,1.8,1.6,2.8,3.5,2.8c1.9,0,3.5-1,3.5-2.8c0-1.8-1.6-2.7-3.5-2.7C359.7,263.9,358.2,264.8,358.2,266.6z"/>
			<path id="XMLID_289_" class="st2" d="M368.9,282.4l7.2-21.4h1.8l-7.1,21.4H368.9z"/>
			<path id="XMLID_291_" class="st2" d="M379.9,267c0.2-3.3,2.6-4.9,5.5-4.9c3.1,0,5.4,1.7,5.4,5.1c0,2.3-1.7,4.4-3.7,6l-4.2,3.5
				v0.5h8.4v1.9h-11.5v-2.4l2.5-2c1.3-1.1,2.9-2.4,3.8-3.2c1.1-1,2.6-2.4,2.6-4.4c0-2.1-1.3-3.2-3.4-3.2c-1.9,0-3.2,1-3.4,3.1H379.9
				z"/>
			<path id="XMLID_293_" class="st2" d="M406,270.8c0,6-2.6,8.6-6.1,8.6s-6.1-2.6-6.1-8.6s2.6-8.7,6.1-8.7S406,264.8,406,270.8z
				 M403.9,270.8c0-4.1-1.3-6.8-4-6.8c-2.8,0-4,2.7-4,6.8c0,4.1,1.3,6.8,4,6.8C402.7,277.5,403.9,274.9,403.9,270.8z"/>
			<path id="XMLID_296_" class="st2" d="M352.1,289.5c3.6,0,5.6,1.8,5.6,5c0,2.1-0.9,3.6-2.6,4.4l2.7,7.7h-2.2l-2.5-7.2
				c-0.5,0-0.9,0.1-1.4,0.1h-5v7.1h-2.1v-17h7.5V289.5z M351.8,297.5c2.7,0,3.7-1.1,3.7-3s-1-3-3.7-3h-5.1v6.1h5.1V297.5z"/>
			<path id="XMLID_299_" class="st2" d="M371.6,300.5h-9.1c0.1,2.9,1.4,4.6,3.8,4.6c1.7,0,2.7-0.7,3-1.9h2c-0.4,2-2.1,3.6-5.1,3.6
				c-3.7,0-5.8-2.7-5.8-6.4s2.1-6.2,5.8-6.2c3.6,0,5.3,2.6,5.4,5.6L371.6,300.5L371.6,300.5z M362.6,298.8h6.9
				c-0.1-1.5-1.3-2.8-3.3-2.8C364,295.9,362.9,297.2,362.6,298.8z"/>
			<path id="XMLID_302_" class="st2" d="M385.5,294.5v11.4c0,3.4-2.1,5.5-5.6,5.5c-3.1,0-5.1-1.3-5.4-3.7h2c0.4,1.4,1.6,2,3.4,2
				c2.5,0,3.6-1.5,3.6-3.9v-1H383c-0.6,0.8-1.8,1.6-3.6,1.6c-3.3,0-5.3-2.6-5.3-6.1s2-6.1,5.3-6.1c1.9,0,3,0.8,3.7,1.6h0.5v-1.3
				H385.5z M383.5,300.3c0-2.3-1.2-4.4-3.8-4.4c-2.4,0-3.7,1.7-3.7,4.4c0,2.6,1.3,4.4,3.7,4.4C382.3,304.7,383.5,302.6,383.5,300.3z
				"/>
			<path id="XMLID_305_" class="st2" d="M391.2,294.5v7.2c0,2.2,1,3.3,3,3.3c2.1,0,3.6-1.8,3.6-4v-6.5h2v12h-2v-1.3h-0.5
				c-0.7,0.9-2,1.6-3.6,1.6c-3,0-4.6-1.8-4.6-4.7v-7.6H391.2z"/>
			<path id="XMLID_307_" class="st2" d="M405.8,289.2v17.3h-2v-17.3H405.8z"/>
			<path id="XMLID_309_" class="st2" d="M417.4,305.2h-0.5c-0.7,0.9-2,1.6-3.7,1.6c-2.8,0-4.3-1.9-4.3-3.9c0-1.9,1.3-4,4.6-4h3.9
				v-0.5c0-1.5-0.8-2.5-2.9-2.5c-1.8,0-2.7,0.7-2.8,1.7h-2c0.2-2.2,2.1-3.5,4.8-3.5c3,0,5,1.5,5,4.1v8.2h-1.9v-1.2H417.4z
				 M417.3,301.6v-1.1h-3.6c-2,0-2.9,0.9-2.9,2.3c0,1.4,1,2.2,2.8,2.2C415.6,305,417.3,303.5,417.3,301.6z"/>
			<path id="XMLID_312_" class="st2" d="M429.9,296.4h-1c-2.4,0-3.8,1.5-3.8,4.1v6h-2v-12h2v1.4h0.5c0.6-0.7,1.7-1.4,3.5-1.4h0.9
				v1.9H429.9z"/>
		</g>
		<g id="XMLID_234_">
			<path id="XMLID_235_" class="st2" d="M343.4,189h3v-9.5H346l-2.6,1.8v-1.6l2.6-1.8h1.9V189h2.7v1.4h-7.3V189H343.4z"/>
			<path id="XMLID_237_" class="st2" d="M360.1,177.9v1.8l-3.1,2.7v0.4c2.1,0.1,3.7,1.4,3.7,3.8c0,2.6-1.9,4.1-4.4,4.1
				s-4.2-1.6-4.4-3.7h1.6c0.1,1.4,1.3,2.3,2.8,2.3c1.7,0,2.8-1,2.8-2.7c0-1.6-1-2.7-2.8-2.7c-0.4,0-0.8,0-1.1,0.1v-1.7l3.1-2.6v-0.4
				h-5.5v-1.4C352.8,177.9,360.1,177.9,360.1,177.9z"/>
			<path id="XMLID_239_" class="st2" d="M362.6,190.4v-2.1h1.9v2.1H362.6z"/>
			<path id="XMLID_241_" class="st2" d="M375.6,186.2c0,2.7-1.8,4.5-4.3,4.5c-2.8,0-4.2-1.6-4.4-3.7h1.6c0.2,1.6,1.2,2.3,2.7,2.3
				c1.7,0,2.8-1.1,2.8-3c0-1.7-1.1-2.9-2.7-2.9c-1.1,0-1.9,0.4-2.5,1.2h-1.6l0.6-6.6h7.1v1.4H369l-0.3,3.6h0.4
				c0.6-0.5,1.3-0.9,2.4-0.9C374,182,375.6,183.8,375.6,186.2z"/>
			<path id="XMLID_243_" class="st2" d="M376.5,192.9l5.4-16.1h1.4l-5.3,16.1H376.5z"/>
			<path id="XMLID_245_" class="st2" d="M384.8,189h3v-9.5h-0.4l-2.6,1.8v-1.6l2.6-1.8h1.9V189h2.7v1.4h-7.3L384.8,189L384.8,189z"
				/>
			<path id="XMLID_247_" class="st2" d="M402.4,186.2c0,2.7-1.8,4.5-4.3,4.5c-2.8,0-4.2-1.6-4.4-3.7h1.6c0.2,1.6,1.2,2.3,2.7,2.3
				c1.7,0,2.8-1.1,2.8-3c0-1.7-1.1-2.9-2.7-2.9c-1.1,0-1.9,0.4-2.5,1.2H394l0.6-6.6h7.1v1.4h-5.9l-0.3,3.6h0.4
				c0.6-0.5,1.3-0.9,2.4-0.9C400.9,182,402.4,183.8,402.4,186.2z"/>
			<path id="XMLID_249_" class="st2" d="M352.8,206.7v1.5H344v-12.7h1.6v11.2H352.8z"/>
			<path id="XMLID_251_" class="st2" d="M355,196.9v-1.6h1.6v1.6H355z M356.5,208.3H355v-9h1.5V208.3z"/>
			<path id="XMLID_254_" class="st2" d="M367.6,199.3v8.6c0,2.5-1.6,4.1-4.2,4.1c-2.3,0-3.8-1-4.1-2.8h1.5c0.3,1.1,1.2,1.5,2.6,1.5
				c1.9,0,2.7-1.1,2.7-2.9V207h-0.4c-0.5,0.6-1.3,1.2-2.7,1.2c-2.5,0-4-2-4-4.6c0-2.6,1.5-4.6,4-4.6c1.4,0,2.3,0.6,2.8,1.2h0.4v-1
				h1.4V199.3z M366.1,203.6c0-1.7-0.9-3.3-2.8-3.3c-1.8,0-2.8,1.3-2.8,3.3c0,1.9,1,3.3,2.8,3.3
				C365.2,206.9,366.1,205.3,366.1,203.6z"/>
			<path id="XMLID_258_" class="st2" d="M377,208.3v-5.4c0-1.6-0.8-2.5-2.3-2.5c-1.6,0-2.7,1.4-2.7,3v4.9h-1.5v-13h1.5v4.9h0.4
				c0.5-0.7,1.5-1.2,2.7-1.2c2.2,0,3.4,1.4,3.4,3.5v5.7L377,208.3L377,208.3z"/>
			<path id="XMLID_260_" class="st2" d="M385.6,199.3v1.3h-2.3v4.9c0,0.9,0.4,1.4,1.6,1.4h0.7v1.4h-0.7c-1.9,0-3.1-0.6-3.1-2.5v-5.2
				h-1.6v-1.3h1.6v-2.7h1.5v2.7C383.3,199.3,385.6,199.3,385.6,199.3z"/>
			<path id="XMLID_262_" class="st2" d="M388,208.3v-2.1h1.9v2.4l-1,1.7h-1l1-1.7v-0.3H388z"/>
			<path id="XMLID_264_" class="st2" d="M403.5,195.5c2.7,0,4.2,1.4,4.2,3.7c0,1.6-0.7,2.7-1.9,3.3l2,5.8h-1.7l-1.9-5.4
				c-0.3,0-0.7,0.1-1,0.1h-3.7v5.3h-1.6v-12.8H403.5z M403.3,201.5c2.1,0,2.8-0.9,2.8-2.3c0-1.4-0.8-2.3-2.8-2.3h-3.8v4.6H403.3z"/>
			<path id="XMLID_267_" class="st2" d="M418.2,203.7h-6.9c0.1,2.1,1,3.4,2.9,3.4c1.3,0,2-0.5,2.3-1.4h1.5c-0.3,1.5-1.6,2.7-3.8,2.7
				c-2.8,0-4.4-2.1-4.4-4.8s1.6-4.6,4.3-4.6c2.7,0,4,2,4,4.2v0.5H418.2z M411.4,202.5h5.2c-0.1-1.1-1-2.1-2.5-2.1
				C412.5,200.3,411.6,201.3,411.4,202.5z"/>
			<path id="XMLID_270_" class="st2" d="M428.6,199.3v8.6c0,2.5-1.6,4.1-4.2,4.1c-2.3,0-3.8-1-4.1-2.8h1.5c0.3,1.1,1.2,1.5,2.6,1.5
				c1.9,0,2.7-1.1,2.7-2.9V207h-0.4c-0.5,0.6-1.3,1.2-2.7,1.2c-2.5,0-4-2-4-4.6c0-2.6,1.5-4.6,4-4.6c1.4,0,2.3,0.6,2.8,1.2h0.4v-1
				h1.4V199.3z M427.1,203.6c0-1.7-0.9-3.3-2.8-3.3c-1.8,0-2.8,1.3-2.8,3.3c0,1.9,1,3.3,2.8,3.3
				C426.2,206.9,427.1,205.3,427.1,203.6z"/>
			<path id="XMLID_273_" class="st2" d="M432.9,199.3v5.4c0,1.7,0.8,2.5,2.3,2.5c1.6,0,2.7-1.4,2.7-3v-4.9h1.5v9h-1.5v-1h-0.4
				c-0.5,0.7-1.5,1.2-2.7,1.2c-2.2,0-3.4-1.4-3.4-3.5v-5.7C431.4,199.3,432.9,199.3,432.9,199.3z"/>
			<path id="XMLID_275_" class="st2" d="M443.8,195.3v13h-1.5v-13C442.3,195.3,443.8,195.3,443.8,195.3z"/>
			<path id="XMLID_277_" class="st2" d="M452.5,207.3h-0.4c-0.6,0.7-1.5,1.2-2.8,1.2c-2.1,0-3.2-1.4-3.2-2.9c0-1.4,0.9-3,3.4-3h2.9
				v-0.4c0-1.1-0.6-1.9-2.2-1.9c-1.3,0-2,0.5-2.1,1.3h-1.5c0.1-1.7,1.6-2.6,3.6-2.6c2.3,0,3.7,1.1,3.7,3.1v6.1h-1.4V207.3z
				 M452.4,204.6v-0.8h-2.7c-1.5,0-2.2,0.6-2.2,1.7c0,1,0.8,1.7,2.1,1.7C451.2,207.2,452.4,206,452.4,204.6z"/>
			<path id="XMLID_280_" class="st2" d="M461.9,200.7h-0.8c-1.8,0-2.9,1.1-2.9,3.1v4.5h-1.5v-9h1.5v1.1h0.4c0.4-0.6,1.3-1.1,2.6-1.1
				h0.7L461.9,200.7L461.9,200.7z"/>
		</g>
		<g id="XMLID_204_">
			<path id="XMLID_205_" class="st2" d="M346.5,500.8h28.3v10.5l-6.7,4.2v1.7c5.2,0.9,9.1,4.9,9.1,11.6c0,4.3-1.5,7.9-4.6,10.5
				c-3,2.7-7.1,4-12,4s-8.9-1.3-12-4c-3-2.7-4.6-6-4.6-10.1h10.7c0.5,3.2,2.7,4.9,6,4.9c3.6,0,6-2.3,6-5.4c0-3.4-2.2-5.7-6-5.7
				c-1.4,0-2.7,0.2-3.9,0.5v-8l6.7-4.2v-1.7h-16.8v-8.8H346.5z"/>
			<path id="XMLID_207_" class="st2" d="M411.8,518.3c2.6,2.6,3.9,5.9,3.9,9.9c0,4.2-1.5,7.7-4.4,10.7c-2.9,2.9-6.8,4.3-11.6,4.3
				c-9.8,0-17.4-5.6-17.4-21.1c0-6.8,1.4-12.2,4.3-16.2s7.3-6,13.1-6c3.9,0,7.3,1.1,10.1,3.5c2.8,2.3,4.4,5,4.8,8.3H404
				c-0.5-2.1-2-3.2-4.6-3.2c-3.9,0-6.6,2.7-7,8.9h1.7c1.8-2,4.5-2.9,8.1-2.9C406,514.4,409.2,515.7,411.8,518.3z M405.1,528.5
				c0-1.9-0.5-3.4-1.5-4.4c-1-1.1-2.3-1.6-4-1.6s-3.1,0.5-4.1,1.5s-1.5,2.5-1.5,4.4c0,3.8,2.3,6.2,5.6,6.2
				C402.9,534.6,405.1,532.4,405.1,528.5z"/>
			<path id="XMLID_210_" class="st2" d="M425.5,550.8h-8.3l18-53.6h8.2L425.5,550.8z"/>
			<path id="XMLID_212_" class="st2" d="M467.4,533.3h8.3v9.2h-28.1v-9.2h9.2v-22.1h-1.7l-7.5,5.2V506l7.4-5.2h12.3v32.5H467.4z"/>
			<path id="XMLID_214_" class="st2" d="M497.1,499.9c5.1,0,9.2,1.8,12.3,5.4c3.1,3.6,4.6,9,4.6,16.3s-1.5,12.7-4.6,16.3
				c-3.1,3.6-7.2,5.4-12.3,5.4c-5.1,0-9.2-1.8-12.3-5.4c-3.1-3.6-4.6-9.1-4.6-16.3s1.5-12.7,4.6-16.3
				C488,501.7,492.1,499.9,497.1,499.9z M497.1,509.3c-4.2,0-6.3,4.1-6.3,12.3c0,8.2,2.1,12.3,6.3,12.3s6.3-4.1,6.3-12.3
				S501.3,509.3,497.1,509.3z"/>
			<path id="XMLID_217_" class="st2" d="M546.6,521.1c3.3,1.5,6.1,4.6,6.1,9.4c0,3.6-1.4,6.6-4.3,9.1c-2.9,2.4-7,3.7-12.3,3.7
				c-5.4,0-9.5-1.3-12.4-3.7c-2.9-2.4-4.3-5.5-4.3-9.1c0-4.8,2.8-7.9,6.1-9.4v-1.7c-3.1-1.8-4.6-4.6-4.6-8.2c0-3.2,1.4-5.8,4-8
				c2.7-2.2,6.5-3.3,11.3-3.3c4.8,0,8.5,1.1,11.2,3.3c2.7,2.1,4,4.8,4,8c0,3.6-1.5,6.4-4.6,8.2v1.7H546.6z M536,534.6
				c4,0,6.1-2.4,6.1-5.2c0-2.8-2-5.2-6.1-5.2s-6.1,2.4-6.1,5.2C529.9,532.3,532,534.6,536,534.6z M536,507.8c-6.7-0.3-6.8,9.6,0,9.3
				C542.7,517.4,542.7,507.5,536,507.8z"/>
			<path id="XMLID_221_" class="st2" d="M377.9,576.1c2.8,1.3,5.3,4.7,5.3,8.6c0,7.6-4.9,12.5-14.8,12.5H347v-42.5h20.8
				c9.3,0,14.3,4.9,14.3,11.6c0,3.6-1.7,6.8-4.2,8.2L377.9,576.1L377.9,576.1z M358,563.6v7.3h8.3c2.9,0,4.4-1.2,4.4-3.6
				s-1.5-3.7-4.5-3.7H358L358,563.6z M366.7,588.1c2.9,0,5.2-1.2,5.2-4c0-2.8-1.7-4.2-5-4.2H358v8.2H366.7z"/>
			<path id="XMLID_225_" class="st2" d="M390.4,553.9h10.4v43.3h-10.4V553.9z"/>
			<path id="XMLID_227_" class="st2" d="M437.1,577.7v19.5h-9.5v-2.4H426c-1.8,2.1-4.6,3.2-8.2,3.2c-3.3,0-6-1-7.9-3
				s-2.9-4.5-2.9-7.4c0-2.7,1.1-5.1,3.3-7.2s5.4-3.1,9.8-3.1h7.1v-0.5c0-2.6-1.4-3.9-4.2-3.9c-2.5,0-3.9,0.9-4.1,2.7h-10.2
				c0.1-3,1.4-5.4,3.9-7.3s5.8-2.7,9.8-2.7C432.2,565.5,437.1,569.5,437.1,577.7z M427.2,583.2h-5c-2.9,0-4.8,1.4-4.8,3.6
				c0,2.4,1.5,3.6,4.4,3.6c3.3,0,5.4-2.3,5.4-5.4V583.2z"/>
			<path id="XMLID_230_" class="st2" d="M474.1,586.2c-0.3,3.5-1.8,6.4-4.6,8.6c-2.7,2.2-6.1,3.3-10.2,3.3c-4.8,0-8.8-1.4-11.7-4.3
				c-2.9-2.9-4.3-6.9-4.3-11.9s1.4-8.9,4.3-11.9c2.9-2.9,6.8-4.4,11.7-4.4c4,0,7.3,1,10,3.1c2.7,2.1,4.2,4.8,4.5,8.2h-10.2
				c-0.5-1.8-2-2.8-4.2-2.8c-4,0-5.7,3.2-5.7,7.8c0,4.7,1.7,7.8,5.7,7.8c2.7,0,4.2-1.1,4.5-3.4h10.2V586.2z"/>
			<path id="XMLID_232_" class="st2" d="M513.4,597.2h-10.7l-6.3-13.2h-1.7l-3.6,4.1v9.1h-10.4v-43.3h10.4v22.5l9.5-10.2H512
				l-8.8,9.6L513.4,597.2z"/>
		</g>
		<g id="XMLID_170_">
			<path id="XMLID_171_" class="st1" d="M1117.6,973.6v-12.1h19.3v-57h-2.9l-16.6,11.2v-13.9l16.7-11.4h16.6v71.2h17.7v12.1
				L1117.6,973.6L1117.6,973.6z"/>
			<path id="XMLID_173_" class="st1" d="M1206.9,888.6c9.5,0,17.1,3.6,23,10.8s8.7,18.1,8.7,32.5s-2.9,25.2-8.7,32.5
				c-5.8,7.1-13.5,10.7-23,10.7s-17.1-3.6-23-10.7c-5.8-7.3-8.7-18.1-8.7-32.5s2.9-25.2,8.7-32.5S1197.4,888.6,1206.9,888.6z
				 M1206.9,962.8c6.2,0,10.7-2.9,13.5-8.5c2.9-5.6,4.3-13.1,4.3-22.4c0-9.3-1.4-16.8-4.3-22.4c-2.7-5.7-7.3-8.6-13.5-8.6
				s-10.7,2.9-13.6,8.6c-2.7,5.6-4.2,13.1-4.2,22.4c0,9.3,1.4,16.8,4.2,22.4C1196.2,959.9,1200.7,962.8,1206.9,962.8z"/>
			<path id="XMLID_176_" class="st1" d="M1296.7,931c6.6,2.5,12.6,9.5,12.6,19.5c0,7-2.9,13-8.5,17.6s-13.1,7-22.6,7
				c-9.6,0-17.3-2.4-22.9-7s-8.3-10.6-8.3-17.6c0-10,6.1-17,12.6-19.5v-2.9c-5.2-2.7-10-8.6-10-17.1c0-6.6,2.6-11.9,7.9-16.1
				s12.1-6.3,20.7-6.3s15.5,2.1,20.6,6.3c5.2,4.2,7.9,9.5,7.9,16.1c0,8.5-4.8,14.4-10,17.1L1296.7,931L1296.7,931z M1295.6,949.2
				c0-8.5-6.6-14.1-17.4-14.1c-11,0-17.4,5.6-17.4,14.1s6.4,14.1,17.4,14.1C1289.1,963.2,1295.6,957.6,1295.6,949.2z M1278.2,924.4
				c8.7,0,15-4.9,15-12.4s-6.3-12.3-15-12.3s-15.1,5-15.1,12.3C1263.1,919.5,1269.6,924.4,1278.2,924.4z"/>
			<path id="XMLID_180_" class="st1" d="M1323.3,990.4h-11.8l36-107.2h11.4L1323.3,990.4z"/>
			<path id="XMLID_182_" class="st1" d="M1365.2,973.6v-12.1h19.3v-57h-2.9l-16.6,11.2v-13.9l16.7-11.4h16.6v71.2h17.7v12.1
				L1365.2,973.6L1365.2,973.6z"/>
			<path id="XMLID_184_" class="st1" d="M1454.5,888.6c9.5,0,17.1,3.6,23,10.8s8.7,18.1,8.7,32.5s-2.9,25.2-8.7,32.5
				c-5.8,7.1-13.5,10.7-23,10.7s-17.1-3.6-23-10.7c-5.8-7.3-8.7-18.1-8.7-32.5s2.9-25.2,8.7-32.5S1445,888.6,1454.5,888.6z
				 M1454.5,962.8c6.2,0,10.7-2.9,13.5-8.5c2.9-5.6,4.3-13.1,4.3-22.4c0-9.3-1.4-16.8-4.3-22.4c-2.7-5.7-7.3-8.6-13.5-8.6
				s-10.7,2.9-13.6,8.6c-2.7,5.6-4.2,13.1-4.2,22.4c0,9.3,1.4,16.8,4.2,22.4C1443.8,959.9,1448.3,962.8,1454.5,962.8z"/>
			<path id="XMLID_187_" class="st1" d="M1494.9,914.3c1-16.7,12.1-25.7,29.2-25.7c8.3,0,15.1,2.3,20.2,6.9c5.1,4.5,7.7,11,7.7,19.2
				c0,9.9-5.6,19.3-16.9,28.3l-19.3,15.6v2.9h38.6v12.1H1495v-14.9l29.9-23.6c8-6.2,13.2-12.4,13.2-20.4c0-8.9-5.5-13.8-14.4-13.8
				c-8.5,0-14.1,4.4-15,13.3h-13.8V914.3z"/>
			<path id="XMLID_189_" class="st1" d="M1121.3,1087.9v-85h22.6l17.6,37h2.9l17.4-37h22.7v85h-13.6v-68h-2.9l-18,37.3h-14.5
				l-17.9-37.3h-2.9v68H1121.3z"/>
			<path id="XMLID_191_" class="st1" d="M1275,1058.8h-44.8c0.4,12.9,6.1,19.3,17,19.3c7,0,11.4-2.6,13.2-7.7h13.7
				c-2.4,11.6-11.8,19.2-27,19.2c-9.4,0-16.8-3-22.2-8.9c-5.4-6-8.1-13.7-8.1-23.3c0-9.6,2.6-17.3,8-22.9c5.4-5.7,12.7-8.6,21.9-8.6
				c8.7,0,15.6,2.7,20.5,8.1c5,5.4,7.6,12.1,7.7,20.4v4.4H1275z M1230.8,1048.8h30.4c-1-7.1-6.1-12.3-14.5-12.3
				C1237.8,1036.5,1232.4,1041.3,1230.8,1048.8z"/>
			<path id="XMLID_194_" class="st1" d="M1326.4,1033.2h2.9v-31.8h13.5v86.6h-13v-5.8h-2.9c-3.9,4.9-9.9,7.4-17.9,7.4
				s-14.4-3-19.2-8.9c-4.6-6-7-13.6-7-23c0-9.3,2.4-16.9,7-22.9c4.8-6,11.2-8.9,19.2-8.9C1317,1025.8,1322.7,1028.3,1326.4,1033.2z
				 M1329.6,1057.6c0-11.6-5.7-20.4-16.8-20.4c-10.6,0-16.6,8.1-16.6,20.4s6,20.5,16.6,20.5
				C1323.9,1078.1,1329.6,1069.1,1329.6,1057.6z"/>
			<path id="XMLID_197_" class="st1" d="M1371.5,1014.3h-13.8v-13h13.8V1014.3z M1371.3,1027.3v60.6h-13.5v-60.6H1371.3z"/>
			<path id="XMLID_200_" class="st1" d="M1385.7,1027.3h13.5v35.3c0,9.9,4.5,14.9,13.5,14.9c4.6,0,8.5-1.8,11.3-5.2
				c3-3.5,4.4-7.6,4.4-12.5v-32.4h13.5v60.6h-13v-5.8h-2.9c-3.7,4.9-9.5,7.4-17.5,7.4c-14.8,0-22.7-9.1-22.7-24.3v-38H1385.7z"/>
			<path id="XMLID_202_" class="st1" d="M1543.7,1049.2v38.7h-13.5v-36.4c0-9.2-3.5-13.7-10.4-13.7c-8.1,0-12.9,6.4-12.9,15.6v34.5
				h-13.5v-36.3c0-9.2-3.5-13.8-10.4-13.8c-8.6,0-13,7.1-13,17.1v33h-13.5v-60.6h13v5.5h2.9c3.1-4.6,8.2-7,15.2-7
				c7.3,0,12.5,2.5,15.7,7.4h2.9c3.7-4.9,9.3-7.4,16.8-7.4C1537,1025.8,1543.7,1034.5,1543.7,1049.2z"/>
		</g>
		<g id="XMLID_141_">
			<path id="XMLID_142_" class="st1" d="M1154.7,677.3l-25,49.4h-10.5l25.1-49.3v-2.1H1115v-8.7h39.6L1154.7,677.3L1154.7,677.3z"/>
			<path id="XMLID_144_" class="st1" d="M1160.8,684c0.7-12,8.7-18.5,21-18.5c6,0,10.9,1.6,14.6,5c3.7,3.3,5.6,7.9,5.6,13.8
				c0,7.1-4,13.9-12.2,20.4l-13.9,11.2v2.1h27.8v8.7h-42.8V716l21.5-17c5.7-4.5,9.5-8.9,9.5-14.7c0-6.4-3.9-9.9-10.4-9.9
				c-6.1,0-10.1,3.2-10.8,9.6L1160.8,684L1160.8,684z"/>
			<path id="XMLID_146_" class="st1" d="M1213.2,738.8h-8.5l25.9-77.2h8.2L1213.2,738.8z"/>
			<path id="XMLID_148_" class="st1" d="M1279.2,692.7c3.7,3.7,5.6,8.4,5.6,14.1c0,5.9-2,10.9-5.8,14.9c-3.9,4-9,6-15.4,6
				c-7.1,0-12.7-2.4-16.8-7.1s-6.2-12.3-6.2-22.6c0-6.3,0.8-11.9,2.4-16.6c3.3-9.6,10.6-16,21.2-16c5.1,0,9.4,1.5,12.9,4.3
				c3.4,2.8,5.5,6.4,6.2,10.8h-9.9c-1.3-4.4-4.4-6.6-9.3-6.6c-8.2,0-13.4,6.7-13.8,18.4h2.1c3-3.5,7.4-5.2,13.3-5.2
				C1270.9,687.2,1275.5,689.1,1279.2,692.7z M1263.2,695.5c-6.8,0-11.5,4.2-11.5,11.7s4.8,12.1,11.6,12.1c6.8,0,11.4-4.4,11.4-12
				S1270,695.5,1263.2,695.5z"/>
			<path id="XMLID_151_" class="st1" d="M1325.6,696c4.7,1.8,9.1,6.9,9.1,14.1c0,5.1-2.1,9.3-6.1,12.7c-4,3.3-9.4,5.1-16.3,5.1
				s-12.4-1.7-16.5-5.1c-4-3.3-6-7.6-6-12.7c0-7.2,4.4-12.3,9.1-14.1v-2.1c-3.8-2-7.2-6.2-7.2-12.3c0-4.7,1.9-8.6,5.7-11.6
				c3.8-3,8.7-4.5,14.9-4.5c6.2,0,11.1,1.5,14.8,4.5c3.8,3,5.7,6.9,5.7,11.6c0,6.1-3.4,10.4-7.2,12.3V696z M1324.8,709.1
				c0-6.1-4.7-10.1-12.5-10.1c-7.9,0-12.5,4-12.5,10.1s4.6,10.1,12.5,10.1C1320.1,719.2,1324.8,715.2,1324.8,709.1z M1312.3,691.3
				c6.3,0,10.8-3.5,10.8-8.9s-4.5-8.8-10.8-8.8s-10.9,3.6-10.9,8.8C1301.4,687.8,1306,691.3,1312.3,691.3z"/>
			<path id="XMLID_155_" class="st1" d="M1118.4,811.3V750h16.3l12.7,26.7h2.1L1162,750h16.4v61.2h-9.8v-49h-2.1l-12.9,26.8h-10.5
				l-12.9-26.8h-2.1v49L1118.4,811.3L1118.4,811.3z"/>
			<path id="XMLID_157_" class="st1" d="M1229.1,790.2h-32.2c0.3,9.3,4.4,13.9,12.3,13.9c5.1,0,8.2-1.9,9.5-5.6h9.9
				c-1.7,8.3-8.5,13.8-19.5,13.8c-6.8,0-12.1-2.1-16-6.4c-3.9-4.3-5.8-9.9-5.8-16.8c0-6.9,1.9-12.4,5.7-16.5
				c3.9-4.1,9.2-6.2,15.8-6.2c6.3,0,11.2,2,14.8,5.8c3.6,3.9,5.5,8.7,5.6,14.7v3.3H1229.1z M1197.3,783h21.9
				c-0.7-5.1-4.4-8.8-10.5-8.8C1202.2,774.2,1198.4,777.6,1197.3,783z"/>
			<path id="XMLID_160_" class="st1" d="M1266,771.8h2.1v-22.9h9.7v62.3h-9.3V807h-2.1c-2.8,3.5-7.1,5.3-12.9,5.3
				c-5.7,0-10.4-2.1-13.8-6.4c-3.3-4.3-5.1-9.8-5.1-16.6c0-6.7,1.7-12.2,5.1-16.5s8.1-6.4,13.8-6.4
				C1259.3,766.5,1263.4,768.3,1266,771.8z M1268.4,789.4c0-8.3-4.1-14.7-12.1-14.7c-7.6,0-11.9,5.8-11.9,14.7
				c0,8.8,4.3,14.8,11.9,14.8C1264.2,804.1,1268.4,797.7,1268.4,789.4z"/>
			<path id="XMLID_163_" class="st1" d="M1298.5,758.3h-9.9V749h9.9V758.3z M1298.4,767.6v43.6h-9.7v-43.6H1298.4z"/>
			<path id="XMLID_166_" class="st1" d="M1308.7,767.6h9.7V793c0,7.1,3.3,10.7,9.7,10.7c3.3,0,6.1-1.3,8.1-3.8
				c2.1-2.5,3.2-5.5,3.2-9v-23.3h9.7v43.6h-9.3V807h-2.1c-2.7,3.5-6.9,5.3-12.6,5.3c-10.6,0-16.4-6.5-16.4-17.5L1308.7,767.6
				L1308.7,767.6z"/>
			<path id="XMLID_168_" class="st1" d="M1422.5,783.4v27.9h-9.7V785c0-6.6-2.5-9.9-7.5-9.9c-5.8,0-9.3,4.6-9.3,11.2v24.9h-9.7V785
				c0-6.6-2.5-9.9-7.5-9.9c-6.2,0-9.3,5.1-9.3,12.3v23.8h-9.7v-43.6h9.3v3.9h2.1c2.2-3.3,5.9-5.1,11-5.1c5.2,0,9,1.8,11.3,5.3h2.1
				c2.7-3.5,6.7-5.3,12.1-5.3C1417.7,766.5,1422.5,772.8,1422.5,783.4z"/>
		</g>
		<g id="XMLID_112_">
			<path id="XMLID_113_" class="st1" d="M1114.5,356.2h20.5v5.9l-7.2,5.9v1.2c5.2,0.3,8.9,3.9,8.9,9.9c0,3.4-1.1,6.1-3.4,8.2
				c-2.2,2-5.2,3-8.8,3c-3.5,0-6.4-1-8.6-2.9c-2.2-2-3.4-4.5-3.6-7.5h5.6c0.3,3.4,3,5.4,6.6,5.4c4.1,0,6.7-2.4,6.7-6.2
				c0-3.9-2.4-6.3-6.7-6.3c-1.2,0-2.2,0.1-3,0.3v-5l7.2-5.9v-1.1h-14.1L1114.5,356.2L1114.5,356.2z"/>
			<path id="XMLID_115_" class="st1" d="M1162.8,370.7c2,2,3.1,4.7,3.1,7.9c0,3.3-1.1,6.1-3.2,8.3s-5,3.3-8.6,3.3
				c-4,0-7.1-1.3-9.3-4c-2.3-2.6-3.4-6.8-3.4-12.6c0-3.5,0.4-6.6,1.3-9.2c1.9-5.3,5.9-8.9,11.8-8.9c2.9,0,5.2,0.8,7.1,2.4
				s3,3.6,3.4,6h-5.5c-0.7-2.4-2.4-3.7-5.2-3.7c-4.6,0-7.4,3.7-7.7,10.2h1.1c1.7-2,4.1-2.9,7.4-2.9
				C1158.3,367.6,1160.8,368.6,1162.8,370.7z M1154,372.2c-3.8,0-6.4,2.3-6.4,6.5c0,4.2,2.7,6.7,6.4,6.7c3.8,0,6.3-2.4,6.3-6.7
				C1160.4,374.5,1157.7,372.2,1154,372.2z"/>
			<path id="XMLID_118_" class="st1" d="M1172.1,396.3h-4.7l14.4-42.9h4.6L1172.1,396.3z"/>
			<path id="XMLID_120_" class="st1" d="M1207.6,377.2h4.3v4.9h-4.3v7.5h-5.4v-7.5H1186v-6l14.7-19.9h6.9V377.2z M1191.5,377.2h10.9
				v-14.7h-1.1l-9.7,13.6v1.1H1191.5z"/>
			<path id="XMLID_123_" class="st1" d="M1229.1,355.5c3.8,0,6.9,1.4,9.2,4.3c2.3,2.9,3.5,7.2,3.5,13c0,5.8-1.1,10.1-3.5,13
				c-2.3,2.9-5.4,4.3-9.2,4.3c-3.8,0-6.9-1.4-9.2-4.3c-2.3-2.9-3.5-7.2-3.5-13c0-5.8,1.1-10.1,3.5-13
				C1222.2,357,1225.3,355.5,1229.1,355.5z M1229.1,385.2c2.5,0,4.3-1.1,5.4-3.4c1.1-2.2,1.7-5.2,1.7-9c0-3.8-0.6-6.7-1.7-9
				c-1.1-2.3-2.9-3.4-5.4-3.4s-4.3,1.1-5.4,3.4c-1.1,2.2-1.7,5.2-1.7,9c0,3.8,0.6,6.7,1.7,9C1224.8,384.1,1226.6,385.2,1229.1,385.2
				z"/>
			<path id="XMLID_126_" class="st1" d="M1115.1,438.4v-34h9.1l7.1,14.8h1.1l7-14.8h9.1v34h-5.4v-27.2h-1.1l-7.2,14.9h-5.8
				l-7.1-14.9h-1.1v27.2H1115.1z"/>
			<path id="XMLID_128_" class="st1" d="M1178,426.7h-17.9c0.1,5.1,2.4,7.7,6.8,7.7c2.8,0,4.6-1,5.3-3.1h5.5
				c-1,4.6-4.7,7.7-10.8,7.7c-3.8,0-6.7-1.2-8.9-3.6c-2.1-2.4-3.2-5.5-3.2-9.3c0-3.9,1-6.9,3.2-9.1c2.1-2.3,5.1-3.4,8.8-3.4
				c3.5,0,6.2,1.1,8.2,3.2s3,4.9,3.1,8.1L1178,426.7L1178,426.7z M1160.3,422.7h12.1c-0.4-2.9-2.4-4.9-5.8-4.9
				C1163.1,417.8,1160.9,419.7,1160.3,422.7z"/>
			<path id="XMLID_131_" class="st1" d="M1200,416.5h1.1v-12.7h5.4v34.6h-5.2V436h-1.1c-1.6,2-4,3-7.1,3c-3.2,0-5.8-1.2-7.7-3.6
				c-1.9-2.4-2.8-5.4-2.8-9.2c0-3.7,1-6.8,2.8-9.1c1.9-2.4,4.5-3.6,7.7-3.6C1196.2,413.5,1198.5,414.5,1200,416.5z M1201.2,426.2
				c0-4.6-2.3-8.1-6.7-8.1c-4.2,0-6.6,3.2-6.6,8.1s2.4,8.2,6.6,8.2C1199,434.4,1201.2,430.8,1201.2,426.2z"/>
			<path id="XMLID_134_" class="st1" d="M1219.4,408.9h-5.5v-5.2h5.5V408.9z M1219.3,414.1v24.2h-5.4v-24.2H1219.3z"/>
			<path id="XMLID_137_" class="st1" d="M1226.5,414.1h5.4v14.1c0,4,1.8,6,5.4,6c1.9,0,3.4-0.7,4.5-2.1c1.2-1.4,1.8-3,1.8-5v-13h5.4
				v24.2h-5.2V436h-1.1c-1.5,2-3.8,3-7,3c-5.9,0-9.1-3.6-9.1-9.7v-15.2H1226.5z"/>
			<path id="XMLID_139_" class="st1" d="M1291.2,422.9v15.5h-5.4v-14.6c0-3.7-1.4-5.5-4.1-5.5c-3.2,0-5.1,2.6-5.1,6.2v13.8h-5.4
				v-14.5c0-3.7-1.4-5.5-4.1-5.5c-3.4,0-5.2,2.9-5.2,6.9v13.2h-5.4v-24.2h5.2v2.2h1.1c1.2-1.9,3.3-2.8,6.1-2.8c2.9,0,5,1,6.3,3h1.1
				c1.5-2,3.7-3,6.7-3C1288.5,413.5,1291.2,417,1291.2,422.9z"/>
		</g>
		<g id="XMLID_80_">
			<path id="XMLID_81_" class="st1" d="M1112.3,277.2h4v-12.6h-0.5l-3.5,2.4v-2.2l3.5-2.4h2.6v14.8h3.6v1.9h-9.7L1112.3,277.2
				L1112.3,277.2z"/>
			<path id="XMLID_83_" class="st1" d="M1133.6,270.6c1.1,0.4,2.6,1.8,2.6,4c0,2.8-2.4,4.9-6,4.9s-6-2.1-6-4.9c0-2.2,1.5-3.6,2.6-4
				V270c-0.9-0.4-2.1-1.6-2.1-3.5c0-2.6,2.3-4.5,5.5-4.5s5.5,1.8,5.5,4.5c0,1.9-1.2,3.1-2.1,3.5V270.6z M1134.1,274.4
				c0-2-1.5-3.1-4-3.1s-4,1.2-4,3.1s1.5,3.2,4,3.2S1134.1,276.3,1134.1,274.4z M1126.7,266.6c0,1.8,1.6,2.8,3.5,2.8
				c1.9,0,3.5-1,3.5-2.8c0-1.8-1.6-2.7-3.5-2.7C1128.3,263.9,1126.7,264.8,1126.7,266.6z"/>
			<path id="XMLID_87_" class="st1" d="M1137.5,282.4l7.2-21.4h1.8l-7.1,21.4H1137.5z"/>
			<path id="XMLID_89_" class="st1" d="M1148.4,267c0.2-3.3,2.6-4.9,5.5-4.9c3.1,0,5.4,1.7,5.4,5.1c0,2.3-1.7,4.4-3.7,6l-4.2,3.5
				v0.5h8.4v1.9h-11.5v-2.4l2.5-2c1.3-1.1,2.9-2.4,3.8-3.2c1.1-1,2.6-2.4,2.6-4.4c0-2.1-1.3-3.2-3.4-3.2c-1.9,0-3.2,1-3.4,3.1
				H1148.4z"/>
			<path id="XMLID_91_" class="st1" d="M1174.6,270.8c0,6-2.6,8.6-6.1,8.6s-6.1-2.6-6.1-8.6s2.6-8.7,6.1-8.7
				S1174.6,264.8,1174.6,270.8z M1172.5,270.8c0-4.1-1.3-6.8-4-6.8c-2.8,0-4,2.7-4,6.8c0,4.1,1.3,6.8,4,6.8
				C1171.2,277.5,1172.5,274.9,1172.5,270.8z"/>
			<path id="XMLID_94_" class="st1" d="M1120.6,289.5c3.6,0,5.6,1.8,5.6,5c0,2.1-0.9,3.6-2.6,4.4l2.7,7.7h-2.2l-2.5-7.2
				c-0.5,0-0.9,0.1-1.4,0.1h-5v7.1h-2.1v-17h7.5V289.5z M1120.3,297.5c2.7,0,3.7-1.1,3.7-3s-1-3-3.7-3h-5.1v6.1h5.1V297.5z"/>
			<path id="XMLID_97_" class="st1" d="M1140.2,300.5h-9.1c0.1,2.9,1.4,4.6,3.8,4.6c1.7,0,2.7-0.7,3-1.9h2c-0.4,2-2.1,3.6-5.1,3.6
				c-3.7,0-5.8-2.7-5.8-6.4s2.1-6.2,5.8-6.2c3.6,0,5.3,2.6,5.4,5.6L1140.2,300.5L1140.2,300.5z M1131.1,298.8h6.9
				c-0.1-1.5-1.3-2.8-3.3-2.8C1132.6,295.9,1131.4,297.2,1131.1,298.8z"/>
			<path id="XMLID_100_" class="st1" d="M1154.1,294.5v11.4c0,3.4-2.1,5.5-5.6,5.5c-3.1,0-5.1-1.3-5.4-3.7h2c0.4,1.4,1.6,2,3.4,2
				c2.5,0,3.6-1.5,3.6-3.9v-1h-0.5c-0.6,0.8-1.8,1.6-3.6,1.6c-3.3,0-5.3-2.6-5.3-6.1s2-6.1,5.3-6.1c1.9,0,3,0.8,3.7,1.6h0.5v-1.3
				H1154.1z M1152.1,300.3c0-2.3-1.2-4.4-3.8-4.4c-2.4,0-3.7,1.7-3.7,4.4c0,2.6,1.3,4.4,3.7,4.4
				C1150.9,304.7,1152.1,302.6,1152.1,300.3z"/>
			<path id="XMLID_103_" class="st1" d="M1159.8,294.5v7.2c0,2.2,1,3.3,3,3.3c2.1,0,3.6-1.8,3.6-4v-6.5h2v12h-2v-1.3h-0.5
				c-0.7,0.9-2,1.6-3.6,1.6c-3,0-4.6-1.8-4.6-4.7v-7.6H1159.8z"/>
			<path id="XMLID_105_" class="st1" d="M1174.4,289.2v17.3h-2v-17.3H1174.4z"/>
			<path id="XMLID_107_" class="st1" d="M1185.9,305.2h-0.5c-0.7,0.9-2,1.6-3.7,1.6c-2.8,0-4.3-1.9-4.3-3.9c0-1.9,1.3-4,4.6-4h3.9
				v-0.5c0-1.5-0.8-2.5-2.9-2.5c-1.8,0-2.7,0.7-2.8,1.7h-2c0.2-2.2,2.1-3.5,4.8-3.5c3,0,5,1.5,5,4.1v8.2h-1.9v-1.2H1185.9z
				 M1185.9,301.6v-1.1h-3.6c-2,0-2.9,0.9-2.9,2.3c0,1.4,1,2.2,2.8,2.2C1184.2,305,1185.9,303.5,1185.9,301.6z"/>
			<path id="XMLID_110_" class="st1" d="M1198.4,296.4h-1c-2.4,0-3.8,1.5-3.8,4.1v6h-2v-12h2v1.4h0.5c0.6-0.7,1.7-1.4,3.5-1.4h0.9
				L1198.4,296.4L1198.4,296.4z"/>
		</g>
		<g id="XMLID_33_">
			<path id="XMLID_34_" class="st1" d="M1112,189h3v-9.5h-0.4l-2.6,1.8v-1.6l2.6-1.8h1.9V189h2.7v1.4h-7.3L1112,189L1112,189z"/>
			<path id="XMLID_36_" class="st1" d="M1128.6,177.9v1.8l-3.1,2.7v0.4c2.1,0.1,3.7,1.4,3.7,3.8c0,2.6-1.9,4.1-4.4,4.1
				s-4.2-1.6-4.4-3.7h1.6c0.1,1.4,1.3,2.3,2.8,2.3c1.7,0,2.8-1,2.8-2.7c0-1.6-1-2.7-2.8-2.7c-0.4,0-0.8,0-1.1,0.1v-1.7l3.1-2.6v-0.4
				h-5.5v-1.4C1121.3,177.9,1128.6,177.9,1128.6,177.9z"/>
			<path id="XMLID_38_" class="st1" d="M1131.2,190.4v-2.1h1.9v2.1H1131.2z"/>
			<path id="XMLID_40_" class="st1" d="M1144.1,186.2c0,2.7-1.8,4.5-4.3,4.5c-2.8,0-4.2-1.6-4.4-3.7h1.6c0.2,1.6,1.2,2.3,2.7,2.3
				c1.7,0,2.8-1.1,2.8-3c0-1.7-1.1-2.9-2.7-2.9c-1.1,0-1.9,0.4-2.5,1.2h-1.6l0.6-6.6h7.1v1.4h-5.9l-0.3,3.6h0.4
				c0.6-0.5,1.3-0.9,2.4-0.9C1142.6,182,1144.1,183.8,1144.1,186.2z"/>
			<path id="XMLID_42_" class="st1" d="M1145,192.9l5.4-16.1h1.4l-5.3,16.1H1145z"/>
			<path id="XMLID_44_" class="st1" d="M1153.4,189h3v-9.5h-0.4l-2.6,1.8v-1.6l2.6-1.8h1.9V189h2.7v1.4h-7.3V189H1153.4z"/>
			<path id="XMLID_46_" class="st1" d="M1171,186.2c0,2.7-1.8,4.5-4.3,4.5c-2.8,0-4.2-1.6-4.4-3.7h1.6c0.2,1.6,1.2,2.3,2.7,2.3
				c1.7,0,2.8-1.1,2.8-3c0-1.7-1.1-2.9-2.7-2.9c-1.1,0-1.9,0.4-2.5,1.2h-1.6l0.6-6.6h7.1v1.4h-5.9l-0.3,3.6h0.4
				c0.6-0.5,1.3-0.9,2.4-0.9C1169.5,182,1171,183.8,1171,186.2z"/>
			<path id="XMLID_48_" class="st1" d="M1121.3,206.7v1.5h-8.8v-12.7h1.6v11.2H1121.3z"/>
			<path id="XMLID_50_" class="st1" d="M1123.5,196.9v-1.6h1.6v1.6H1123.5z M1125.1,208.3h-1.5v-9h1.5V208.3z"/>
			<path id="XMLID_53_" class="st1" d="M1136.1,199.3v8.6c0,2.5-1.6,4.1-4.2,4.1c-2.3,0-3.8-1-4.1-2.8h1.5c0.3,1.1,1.2,1.5,2.6,1.5
				c1.9,0,2.7-1.1,2.7-2.9V207h-0.4c-0.5,0.6-1.3,1.2-2.7,1.2c-2.5,0-4-2-4-4.6c0-2.6,1.5-4.6,4-4.6c1.4,0,2.3,0.6,2.8,1.2h0.4v-1
				h1.4V199.3z M1134.6,203.6c0-1.7-0.9-3.3-2.8-3.3c-1.8,0-2.8,1.3-2.8,3.3c0,1.9,1,3.3,2.8,3.3
				C1133.7,206.9,1134.6,205.3,1134.6,203.6z"/>
			<path id="XMLID_56_" class="st1" d="M1145.5,208.3v-5.4c0-1.6-0.8-2.5-2.3-2.5c-1.6,0-2.7,1.4-2.7,3v4.9h-1.5v-13h1.5v4.9h0.4
				c0.5-0.7,1.5-1.2,2.7-1.2c2.2,0,3.4,1.4,3.4,3.5v5.7L1145.5,208.3L1145.5,208.3z"/>
			<path id="XMLID_58_" class="st1" d="M1154.2,199.3v1.3h-2.3v4.9c0,0.9,0.4,1.4,1.6,1.4h0.7v1.4h-0.7c-1.9,0-3.1-0.6-3.1-2.5v-5.2
				h-1.6v-1.3h1.6v-2.7h1.5v2.7C1151.9,199.3,1154.2,199.3,1154.2,199.3z"/>
			<path id="XMLID_60_" class="st1" d="M1156.6,208.3v-2.1h1.9v2.4l-1,1.7h-1l1-1.7v-0.3H1156.6z"/>
			<path id="XMLID_62_" class="st1" d="M1172.1,195.5c2.7,0,4.2,1.4,4.2,3.7c0,1.6-0.7,2.7-1.9,3.3l2,5.8h-1.7l-1.9-5.4
				c-0.3,0-0.7,0.1-1,0.1h-3.7v5.3h-1.6v-12.8H1172.1z M1171.8,201.5c2.1,0,2.8-0.9,2.8-2.3c0-1.4-0.8-2.3-2.8-2.3h-3.8v4.6H1171.8z
				"/>
			<path id="XMLID_65_" class="st1" d="M1186.7,203.7h-6.9c0.1,2.1,1,3.4,2.9,3.4c1.3,0,2-0.5,2.3-1.4h1.5c-0.3,1.5-1.6,2.7-3.8,2.7
				c-2.8,0-4.4-2.1-4.4-4.8s1.6-4.6,4.3-4.6c2.7,0,4,2,4,4.2L1186.7,203.7L1186.7,203.7z M1180,202.5h5.2c-0.1-1.1-1-2.1-2.5-2.1
				C1181.1,200.3,1180.2,201.3,1180,202.5z"/>
			<path id="XMLID_68_" class="st1" d="M1197.2,199.3v8.6c0,2.5-1.6,4.1-4.2,4.1c-2.3,0-3.8-1-4.1-2.8h1.5c0.3,1.1,1.2,1.5,2.6,1.5
				c1.9,0,2.7-1.1,2.7-2.9V207h-0.4c-0.5,0.6-1.3,1.2-2.7,1.2c-2.5,0-4-2-4-4.6c0-2.6,1.5-4.6,4-4.6c1.4,0,2.3,0.6,2.8,1.2h0.4v-1
				h1.4V199.3z M1195.7,203.6c0-1.7-0.9-3.3-2.8-3.3c-1.8,0-2.8,1.3-2.8,3.3c0,1.9,1,3.3,2.8,3.3
				C1194.8,206.9,1195.7,205.3,1195.7,203.6z"/>
			<path id="XMLID_71_" class="st1" d="M1201.5,199.3v5.4c0,1.7,0.8,2.5,2.3,2.5c1.6,0,2.7-1.4,2.7-3v-4.9h1.5v9h-1.5v-1h-0.4
				c-0.5,0.7-1.5,1.2-2.7,1.2c-2.2,0-3.4-1.4-3.4-3.5v-5.7C1200,199.3,1201.5,199.3,1201.5,199.3z"/>
			<path id="XMLID_73_" class="st1" d="M1212.4,195.3v13h-1.5v-13C1210.9,195.3,1212.4,195.3,1212.4,195.3z"/>
			<path id="XMLID_75_" class="st1" d="M1221.1,207.3h-0.4c-0.6,0.7-1.5,1.2-2.8,1.2c-2.1,0-3.2-1.4-3.2-2.9c0-1.4,0.9-3,3.4-3h2.9
				v-0.4c0-1.1-0.6-1.9-2.2-1.9c-1.3,0-2,0.5-2.1,1.3h-1.5c0.1-1.7,1.6-2.6,3.6-2.6c2.3,0,3.7,1.1,3.7,3.1v6.1h-1.4V207.3z
				 M1221,204.6v-0.8h-2.7c-1.5,0-2.2,0.6-2.2,1.7c0,1,0.8,1.7,2.1,1.7C1219.7,207.2,1221,206,1221,204.6z"/>
			<path id="XMLID_78_" class="st1" d="M1230.4,200.7h-0.8c-1.8,0-2.9,1.1-2.9,3.1v4.5h-1.5v-9h1.5v1.1h0.4c0.4-0.6,1.3-1.1,2.6-1.1
				h0.7L1230.4,200.7L1230.4,200.7z"/>
		</g>
		<g id="XMLID_3_">
			<path id="XMLID_4_" class="st1" d="M1115.1,500.8h28.3v10.5l-6.7,4.2v1.7c5.2,0.9,9.1,4.9,9.1,11.6c0,4.3-1.5,7.9-4.6,10.5
				c-3,2.7-7.1,4-12,4s-8.9-1.3-12-4c-3-2.7-4.6-6-4.6-10.1h10.7c0.5,3.2,2.7,4.9,6,4.9c3.6,0,6-2.3,6-5.4c0-3.4-2.2-5.7-6-5.7
				c-1.4,0-2.7,0.2-3.9,0.5v-8l6.7-4.2v-1.7h-16.8v-8.8H1115.1z"/>
			<path id="XMLID_6_" class="st1" d="M1180.4,518.3c2.6,2.6,3.9,5.9,3.9,9.9c0,4.2-1.5,7.7-4.4,10.7c-2.9,2.9-6.8,4.3-11.6,4.3
				c-9.8,0-17.4-5.6-17.4-21.1c0-6.8,1.4-12.2,4.3-16.2s7.3-6,13.1-6c3.9,0,7.3,1.1,10.1,3.5c2.8,2.3,4.4,5,4.8,8.3h-10.6
				c-0.5-2.1-2-3.2-4.6-3.2c-3.9,0-6.6,2.7-7,8.9h1.7c1.8-2,4.5-2.9,8.1-2.9C1174.6,514.4,1177.8,515.7,1180.4,518.3z M1173.6,528.5
				c0-1.9-0.5-3.4-1.5-4.4c-1-1.1-2.3-1.6-4-1.6s-3.1,0.5-4.1,1.5s-1.5,2.5-1.5,4.4c0,3.8,2.3,6.2,5.6,6.2
				C1171.4,534.6,1173.6,532.4,1173.6,528.5z"/>
			<path id="XMLID_9_" class="st1" d="M1194,550.8h-8.3l18-53.6h8.2L1194,550.8z"/>
			<path id="XMLID_11_" class="st1" d="M1236,533.3h8.3v9.2h-28.1v-9.2h9.2v-22.1h-1.7l-7.5,5.2V506l7.4-5.2h12.3L1236,533.3
				L1236,533.3z"/>
			<path id="XMLID_13_" class="st1" d="M1265.7,499.9c5.1,0,9.2,1.8,12.3,5.4c3.1,3.6,4.6,9,4.6,16.3s-1.5,12.7-4.6,16.3
				c-3.1,3.6-7.2,5.4-12.3,5.4s-9.2-1.8-12.3-5.4c-3.1-3.6-4.6-9.1-4.6-16.3s1.5-12.7,4.6-16.3
				C1256.5,501.7,1260.6,499.9,1265.7,499.9z M1265.7,509.3c-4.2,0-6.3,4.1-6.3,12.3c0,8.2,2.1,12.3,6.3,12.3s6.3-4.1,6.3-12.3
				C1271.9,513.4,1269.9,509.3,1265.7,509.3z"/>
			<path id="XMLID_16_" class="st1" d="M1315.2,521.1c3.3,1.5,6.1,4.6,6.1,9.4c0,3.6-1.4,6.6-4.3,9.1c-2.9,2.4-7,3.7-12.3,3.7
				c-5.4,0-9.5-1.3-12.4-3.7c-2.9-2.4-4.3-5.5-4.3-9.1c0-4.8,2.8-7.9,6.1-9.4v-1.7c-3.1-1.8-4.6-4.6-4.6-8.2c0-3.2,1.4-5.8,4-8
				c2.7-2.2,6.5-3.3,11.3-3.3s8.5,1.1,11.2,3.3c2.7,2.1,4,4.8,4,8c0,3.6-1.5,6.4-4.6,8.2v1.7H1315.2z M1304.6,534.6
				c4,0,6.1-2.4,6.1-5.2c0-2.8-2-5.2-6.1-5.2s-6.1,2.4-6.1,5.2C1298.4,532.3,1300.5,534.6,1304.6,534.6z M1304.6,507.8
				c-6.7-0.3-6.8,9.6,0,9.3C1311.2,517.4,1311.2,507.5,1304.6,507.8z"/>
			<path id="XMLID_20_" class="st1" d="M1146.5,576.1c2.8,1.3,5.3,4.7,5.3,8.6c0,7.6-4.9,12.5-14.8,12.5h-21.5v-42.5h20.8
				c9.3,0,14.3,4.9,14.3,11.6c0,3.6-1.7,6.8-4.2,8.2L1146.5,576.1L1146.5,576.1z M1126.6,563.6v7.3h8.3c2.9,0,4.4-1.2,4.4-3.6
				s-1.5-3.7-4.5-3.7H1126.6L1126.6,563.6z M1135.2,588.1c2.9,0,5.2-1.2,5.2-4c0-2.8-1.7-4.2-5-4.2h-8.8v8.2H1135.2z"/>
			<path id="XMLID_24_" class="st1" d="M1159,553.9h10.4v43.3H1159V553.9z"/>
			<path id="XMLID_26_" class="st1" d="M1205.7,577.7v19.5h-9.5v-2.4h-1.7c-1.8,2.1-4.6,3.2-8.2,3.2c-3.3,0-6-1-7.9-3
				c-2-2-2.9-4.5-2.9-7.4c0-2.7,1.1-5.1,3.3-7.2c2.2-2.1,5.4-3.1,9.8-3.1h7.1v-0.5c0-2.6-1.4-3.9-4.2-3.9c-2.5,0-3.9,0.9-4.1,2.7
				h-10.2c0.1-3,1.4-5.4,3.9-7.3s5.8-2.7,9.8-2.7C1200.7,565.5,1205.7,569.5,1205.7,577.7z M1195.7,583.2h-5c-2.9,0-4.8,1.4-4.8,3.6
				c0,2.4,1.5,3.6,4.4,3.6c3.3,0,5.4-2.3,5.4-5.4V583.2z"/>
			<path id="XMLID_29_" class="st1" d="M1242.6,586.2c-0.3,3.5-1.8,6.4-4.6,8.6c-2.7,2.2-6.1,3.3-10.2,3.3c-4.8,0-8.8-1.4-11.7-4.3
				c-2.9-2.9-4.3-6.9-4.3-11.9s1.4-8.9,4.3-11.9c2.9-2.9,6.8-4.4,11.7-4.4c4,0,7.3,1,10,3.1c2.7,2.1,4.2,4.8,4.5,8.2h-10.2
				c-0.5-1.8-2-2.8-4.2-2.8c-4,0-5.7,3.2-5.7,7.8c0,4.7,1.7,7.8,5.7,7.8c2.7,0,4.2-1.1,4.5-3.4h10.2V586.2z"/>
			<path id="XMLID_31_" class="st1" d="M1281.9,597.2h-10.7l-6.3-13.2h-1.7l-3.6,4.1v9.1h-10.4v-43.3h10.4v22.5l9.5-10.2h11.4
				l-8.8,9.6L1281.9,597.2z"/>
		</g>
		<rect id="XMLID_778_" x="151" y="888.6" class="st3" width="85" height="85"/>
		<rect id="XMLID_1635_" x="151" y="664.6" class="st3" width="62.1" height="62.1"/>
		<rect id="XMLID_1724_" x="151" y="177.9" class="st3" width="13.5" height="13.5"/>
		<rect id="XMLID_1640_" x="151" y="261.2" class="st3" width="17.9" height="17.9"/>
		<rect id="XMLID_1639_" x="151" y="355.4" class="st3" width="35.7" height="35.7"/>
		<rect id="XMLID_1636_" x="151" y="499.6" class="st3" width="42.9" height="42.9"/>
		<rect id="XMLID_1728_" x="919.2" y="888.6" class="st3" width="85" height="85"/>
		<rect id="XMLID_1727_" x="919.2" y="664.6" class="st3" width="62.1" height="62.1"/>
		<rect id="XMLID_1726_" x="919.2" y="177.9" class="st3" width="13.5" height="13.5"/>
		<rect id="XMLID_1725_" x="919.2" y="261.2" class="st3" width="17.9" height="17.9"/>
		<rect id="XMLID_1634_" x="919.2" y="355.4" class="st3" width="35.7" height="35.7"/>
		<rect id="XMLID_1729_" x="919.2" y="499.6" class="st3" width="42.9" height="42.9"/>
	</g>
</g>
</svg>
