<?xml version="1.0" encoding="utf-8"?>
<!-- Generator: Adobe Illustrator 19.0.0, SVG Export Plug-In . SVG Version: 6.00 Build 0)  -->
<svg version="1.1" id="_x32_" xmlns="http://www.w3.org/2000/svg" xmlns:xlink="http://www.w3.org/1999/xlink" x="0px" y="0px"
	 viewBox="0 0 1200 1042.1" style="enable-background:new 0 0 1200 1042.1;" xml:space="preserve">
<style type="text/css">
	.st0{fill:#EFEFEF;}
	.st1{fill:#36ACA7;}
	.st2{fill:#EFEFEF;stroke:#36ACA7;stroke-miterlimit:10;}
</style>
<g id="XMLID_16_">
	<g id="XMLID_367_">
		<rect id="XMLID_29_" x="2.5" y="2.2" class="st0" width="476.4" height="677.7"/>
		<path id="XMLID_26_" class="st1" d="M478.4,2.7v676.7H3V2.7H478.4 M479.4,1.7H2v678.7h477.4V1.7L479.4,1.7z"/>
	</g>
	<g id="XMLID_366_">
		<rect id="XMLID_24_" x="519.8" y="2.2" class="st0" width="677.7" height="476.4"/>
		<path id="XMLID_21_" class="st1" d="M1197,2.7v475.4H520.3V2.7H1197 M1198,1.7H519.3v477.4H1198V1.7L1198,1.7z"/>
	</g>
	<g id="XMLID_365_">
		<rect id="XMLID_19_" x="519.8" y="520.2" class="st0" width="519.7" height="519.7"/>
		<path id="XMLID_14_" class="st1" d="M1039,520.7v518.7H520.3V520.7H1039 M1040,519.7H519.3v520.7H1040V519.7L1040,519.7z"/>
	</g>
	<g id="XMLID_6_">
		<line id="XMLID_9_" class="st2" x1="2" y1="1.7" x2="479.4" y2="680.5"/>
		<line id="XMLID_10_" class="st2" x1="479.4" y1="1.7" x2="2" y2="680.5"/>
	</g>
	<g id="XMLID_15_">
		<line id="XMLID_109_" class="st2" x1="519.3" y1="519.7" x2="1040" y2="1040.3"/>
		<line id="XMLID_30_" class="st2" x1="1040" y1="519.7" x2="519.3" y2="1040.3"/>
	</g>
	<g id="XMLID_12_">
		<line id="XMLID_14_" class="st2" x1="1198" y1="1.7" x2="519.3" y2="479.1"/>
		<line id="XMLID_13_" class="st2" x1="1198" y1="479.1" x2="519.3" y2="1.7"/>
	</g>
</g>
<g id="XMLID_74_">
	<g id="XMLID_5_">
		<g id="XMLID_384_">
			<path id="XMLID_397_" class="st1" d="M55.1,360.7v-4h-2c-2.6,3.4-6.9,5.1-12.8,5.1c-4.8,0-8.5-1.4-11.3-4.1
				c-2.8-2.8-4.2-6.1-4.2-10.1c0-3.9,1.4-7.3,4.3-10.2c2.8-2.9,7.1-4.3,12.9-4.3h12.8v-1.3c0-5-3-7.9-9.1-7.9
				c-5.4,0-8.3,1.9-8.7,5.5h-9.5c0.4-8.1,7.6-13.1,17.9-13.1c11.7,0,18.7,5.2,18.7,15.7v28.8H55.1z M51.5,350.8
				c2.2-2.1,3.3-4.7,3.3-7.7v-3.3H43.7c-6,0-9.2,2.6-9.2,7.1c0,4.4,3.2,7,8.8,7C46.5,354,49.3,352.9,51.5,350.8z"/>
			<path id="XMLID_395_" class="st1" d="M97.7,317.4v8.9h-3.9c-8.8,0-13.5,5-13.5,14.1v20.3h-9.6v-43.3h9.3v5h2
				c2.5-3.3,6.6-5,12.1-5H97.7z"/>
			<path id="XMLID_390_" class="st1" d="M111.2,317.4h10.2v8.2h-10.2v21.1c0,3.8,2.2,5.7,6.6,5.7h3.6v8.3h-3.7
				c-10.5,0-16.1-3.5-16.1-12.8v-41.5h9.6V317.4z"/>
			<path id="XMLID_387_" class="st1" d="M161.2,355.5c-3.9,4.2-9.2,6.3-15.9,6.3c-6.7,0-12-2.1-16-6.3c-3.9-4.3-5.9-9.8-5.9-16.5
				c0-6.7,2-12.2,5.9-16.3c4-4.3,9.3-6.4,16-6.4c6.7,0,12,2.1,15.9,6.4c4,4.2,6,9.6,6,16.3C167.2,345.7,165.2,351.2,161.2,355.5z
				 M145.3,324.4c-7.9,0-12.3,6.4-12.3,14.6c0,8.3,4.3,14.6,12.3,14.6c7.9,0,12.3-6.4,12.3-14.6
				C157.6,330.8,153.2,324.4,145.3,324.4z"/>
			<path id="XMLID_385_" class="st1" d="M196.3,328.9c-0.5-3.1-3.3-4.7-8.5-4.7c-5.2,0-7.8,1.5-7.8,4.5c0,2.6,1.7,3.7,5.5,4.3
				l8.4,1.4c8.8,1.4,13.2,5.9,13.2,13.4c0,3.8-1.6,7.1-4.9,9.9c-3.2,2.6-7.7,4-13.6,4c-12.3,0-18.9-5.4-19.8-14.2h9.6
				c0.8,4.2,4.1,6.2,10,6.2c6,0,9.1-1.9,9.1-5.6c0-3.3-2-4.9-7.1-5.8l-9-1.5c-6.8-1.1-11.1-4.9-11.1-11.4c0-7.7,6.1-13.2,17.8-13.2
				c10.3,0,16.8,4.9,17.8,12.7H196.3z"/>
		</g>
	</g>
	<g id="XMLID_140_">
		<g id="XMLID_356_">
			<path id="XMLID_369_" class="st1" d="M304.5,360.7v-4h-2c-2.6,3.4-6.9,5.1-12.8,5.1c-4.8,0-8.5-1.4-11.3-4.1
				c-2.8-2.8-4.2-6.1-4.2-10.1c0-3.9,1.4-7.3,4.3-10.2c2.8-2.9,7.1-4.3,12.9-4.3h12.8v-1.3c0-5-3-7.9-9.1-7.9
				c-5.4,0-8.3,1.9-8.7,5.5h-9.5c0.4-8.1,7.6-13.1,17.9-13.1c11.7,0,18.7,5.2,18.7,15.7v28.8H304.5z M300.9,350.8
				c2.2-2.1,3.3-4.7,3.3-7.7v-3.3h-11.1c-6,0-9.2,2.6-9.2,7.1c0,4.4,3.2,7,8.8,7C295.9,354,298.7,352.9,300.9,350.8z"/>
			<path id="XMLID_364_" class="st1" d="M347.1,317.4v8.9h-3.9c-8.8,0-13.5,5-13.5,14.1v20.3H320v-43.3h9.3v5h2
				c2.5-3.3,6.6-5,12.1-5H347.1z"/>
			<path id="XMLID_362_" class="st1" d="M360.6,317.4h10.2v8.2h-10.2v21.1c0,3.8,2.2,5.7,6.6,5.7h3.6v8.3h-3.7
				c-10.5,0-16.1-3.5-16.1-12.8v-41.5h9.6V317.4z"/>
			<path id="XMLID_359_" class="st1" d="M410.6,355.5c-3.9,4.2-9.2,6.3-15.9,6.3c-6.7,0-12-2.1-16-6.3c-3.9-4.3-5.9-9.8-5.9-16.5
				c0-6.7,2-12.2,5.9-16.3c4-4.3,9.3-6.4,16-6.4c6.7,0,12,2.1,15.9,6.4c4,4.2,6,9.6,6,16.3C416.6,345.7,414.6,351.2,410.6,355.5z
				 M394.7,324.4c-7.9,0-12.3,6.4-12.3,14.6c0,8.3,4.3,14.6,12.3,14.6c7.9,0,12.3-6.4,12.3-14.6C407,330.8,402.6,324.4,394.7,324.4z
				"/>
			<path id="XMLID_357_" class="st1" d="M445.7,328.9c-0.5-3.1-3.3-4.7-8.5-4.7c-5.2,0-7.8,1.5-7.8,4.5c0,2.6,1.7,3.7,5.5,4.3
				l8.4,1.4c8.8,1.4,13.2,5.9,13.2,13.4c0,3.8-1.6,7.1-4.9,9.9c-3.2,2.6-7.7,4-13.6,4c-12.3,0-18.9-5.4-19.8-14.2h9.6
				c0.8,4.2,4.1,6.2,10,6.2c6,0,9.1-1.9,9.1-5.6c0-3.3-2-4.9-7.1-5.8l-9-1.5c-6.8-1.1-11.1-4.9-11.1-11.4c0-7.7,6.1-13.2,17.8-13.2
				c10.3,0,16.8,4.9,17.8,12.7H445.7z"/>
		</g>
	</g>
</g>
<g id="XMLID_73_">
	<g id="XMLID_136_">
		<g id="XMLID_317_">
			<path id="XMLID_353_" class="st1" d="M593.4,262v-4h-2c-2.6,3.4-6.9,5.1-12.8,5.1c-4.8,0-8.5-1.4-11.3-4.1
				c-2.8-2.8-4.2-6.1-4.2-10.1c0-3.9,1.4-7.3,4.3-10.2c2.8-2.9,7.1-4.3,12.9-4.3h12.8v-1.3c0-5-3-7.9-9.1-7.9
				c-5.4,0-8.3,1.9-8.7,5.5h-9.5c0.4-8.1,7.6-13.1,17.9-13.1c11.7,0,18.7,5.2,18.7,15.7V262H593.4z M589.8,252.1
				c2.2-2.1,3.3-4.7,3.3-7.7v-3.3H582c-6,0-9.2,2.6-9.2,7.1c0,4.4,3.2,7,8.8,7C584.8,255.3,587.6,254.3,589.8,252.1z"/>
			<path id="XMLID_334_" class="st1" d="M636,218.7v8.9h-3.9c-8.8,0-13.5,5-13.5,14.1V262h-9.6v-43.3h9.3v5h2c2.5-3.3,6.6-5,12.1-5
				H636z"/>
			<path id="XMLID_332_" class="st1" d="M649.6,218.7h10.2v8.2h-10.2V248c0,3.8,2.2,5.7,6.6,5.7h3.6v8.3H656
				c-10.5,0-16.1-3.5-16.1-12.8v-41.5h9.6V218.7z"/>
			<path id="XMLID_329_" class="st1" d="M699.5,256.8c-3.9,4.2-9.2,6.3-15.9,6.3c-6.7,0-12-2.1-16-6.3c-3.9-4.3-5.9-9.8-5.9-16.5
				s2-12.2,5.9-16.3c4-4.3,9.3-6.4,16-6.4c6.7,0,12,2.1,15.9,6.4c4,4.2,6,9.6,6,16.3S703.5,252.6,699.5,256.8z M683.6,225.7
				c-7.9,0-12.3,6.4-12.3,14.6c0,8.3,4.3,14.6,12.3,14.6c7.9,0,12.3-6.4,12.3-14.6C695.9,232.1,691.5,225.7,683.6,225.7z"/>
			<path id="XMLID_327_" class="st1" d="M734.6,230.3c-0.5-3.1-3.3-4.7-8.5-4.7c-5.2,0-7.8,1.5-7.8,4.5c0,2.6,1.7,3.7,5.5,4.3
				l8.4,1.4c8.8,1.4,13.2,5.9,13.2,13.4c0,3.8-1.6,7.1-4.9,9.9c-3.2,2.6-7.7,4-13.6,4c-12.3,0-18.9-5.4-19.8-14.2h9.6
				c0.8,4.2,4.1,6.2,10,6.2c6,0,9.1-1.9,9.1-5.6c0-3.3-2-4.9-7.1-5.8l-9-1.5c-6.8-1.1-11.1-4.9-11.1-11.4c0-7.7,6.1-13.2,17.8-13.2
				c10.3,0,16.8,4.9,17.8,12.7H734.6z"/>
		</g>
	</g>
	<g id="XMLID_138_">
		<g id="XMLID_297_">
			<path id="XMLID_307_" class="st1" d="M999.1,262v-4h-2c-2.6,3.4-6.9,5.1-12.8,5.1c-4.8,0-8.5-1.4-11.3-4.1
				c-2.8-2.8-4.2-6.1-4.2-10.1c0-3.9,1.4-7.3,4.3-10.2c2.8-2.9,7.1-4.3,12.9-4.3h12.8v-1.3c0-5-3-7.9-9.1-7.9
				c-5.4,0-8.3,1.9-8.7,5.5h-9.5c0.4-8.1,7.6-13.1,17.9-13.1c11.7,0,18.7,5.2,18.7,15.7V262H999.1z M995.5,252.1
				c2.2-2.1,3.3-4.7,3.3-7.7v-3.3h-11.1c-6,0-9.2,2.6-9.2,7.1c0,4.4,3.2,7,8.8,7C990.5,255.3,993.3,254.3,995.5,252.1z"/>
			<path id="XMLID_305_" class="st1" d="M1041.7,218.7v8.9h-3.9c-8.8,0-13.5,5-13.5,14.1V262h-9.6v-43.3h9.3v5h2
				c2.5-3.3,6.6-5,12.1-5H1041.7z"/>
			<path id="XMLID_303_" class="st1" d="M1055.3,218.7h10.2v8.2h-10.2V248c0,3.8,2.2,5.7,6.6,5.7h3.6v8.3h-3.7
				c-10.5,0-16.1-3.5-16.1-12.8v-41.5h9.6V218.7z"/>
			<path id="XMLID_300_" class="st1" d="M1105.2,256.8c-3.9,4.2-9.2,6.3-15.9,6.3c-6.7,0-12-2.1-16-6.3c-3.9-4.3-5.9-9.8-5.9-16.5
				s2-12.2,5.9-16.3c4-4.3,9.3-6.4,16-6.4c6.7,0,12,2.1,15.9,6.4c4,4.2,6,9.6,6,16.3S1109.2,252.6,1105.2,256.8z M1089.3,225.7
				c-7.9,0-12.3,6.4-12.3,14.6c0,8.3,4.3,14.6,12.3,14.6c7.9,0,12.3-6.4,12.3-14.6C1101.6,232.1,1097.2,225.7,1089.3,225.7z"/>
			<path id="XMLID_298_" class="st1" d="M1140.3,230.3c-0.5-3.1-3.3-4.7-8.5-4.7c-5.2,0-7.8,1.5-7.8,4.5c0,2.6,1.7,3.7,5.5,4.3
				l8.4,1.4c8.8,1.4,13.2,5.9,13.2,13.4c0,3.8-1.6,7.1-4.9,9.9c-3.2,2.6-7.7,4-13.6,4c-12.3,0-18.9-5.4-19.8-14.2h9.6
				c0.8,4.2,4.1,6.2,10,6.2c6,0,9.1-1.9,9.1-5.6c0-3.3-2-4.9-7.1-5.8l-9-1.5c-6.8-1.1-11.1-4.9-11.1-11.4c0-7.7,6.1-13.2,17.8-13.2
				c10.3,0,16.8,4.9,17.8,12.7H1140.3z"/>
		</g>
	</g>
</g>
<g id="XMLID_75_">
	<g id="XMLID_326_">
		<g id="XMLID_240_">
			<path id="XMLID_294_" class="st1" d="M582.4,801.6v-4h-2c-2.6,3.4-6.9,5.1-12.8,5.1c-4.8,0-8.5-1.4-11.3-4.1
				c-2.8-2.8-4.2-6.1-4.2-10.1c0-3.9,1.4-7.3,4.3-10.2c2.8-2.9,7.1-4.3,12.9-4.3h12.8v-1.3c0-5-3-7.9-9.1-7.9
				c-5.4,0-8.3,1.9-8.7,5.5h-9.5c0.4-8.1,7.6-13.1,17.9-13.1c11.7,0,18.7,5.2,18.7,15.7v28.8H582.4z M578.8,791.7
				c2.2-2.1,3.3-4.7,3.3-7.7v-3.3H571c-6,0-9.2,2.6-9.2,7.1c0,4.4,3.2,7,8.8,7C573.8,794.9,576.6,793.8,578.8,791.7z"/>
			<path id="XMLID_292_" class="st1" d="M625,758.3v8.9h-3.9c-8.8,0-13.5,5-13.5,14.1v20.3h-9.6v-43.3h9.3v5h2c2.5-3.3,6.6-5,12.1-5
				H625z"/>
			<path id="XMLID_290_" class="st1" d="M638.6,758.3h10.2v8.2h-10.2v21.1c0,3.8,2.2,5.7,6.6,5.7h3.6v8.3H645
				c-10.5,0-16.1-3.5-16.1-12.8v-41.5h9.6V758.3z"/>
			<path id="XMLID_287_" class="st1" d="M688.5,796.4c-3.9,4.2-9.2,6.3-15.9,6.3c-6.7,0-12-2.1-16-6.3c-3.9-4.3-5.9-9.8-5.9-16.5
				s2-12.2,5.9-16.3c4-4.3,9.3-6.4,16-6.4c6.7,0,12,2.1,15.9,6.4c4,4.2,6,9.6,6,16.3S692.5,792.1,688.5,796.4z M672.6,765.3
				c-7.9,0-12.3,6.4-12.3,14.6c0,8.3,4.3,14.6,12.3,14.6c7.9,0,12.3-6.4,12.3-14.6C684.9,771.7,680.5,765.3,672.6,765.3z"/>
			<path id="XMLID_241_" class="st1" d="M723.6,769.8c-0.5-3.1-3.3-4.7-8.5-4.7c-5.2,0-7.8,1.5-7.8,4.5c0,2.6,1.7,3.7,5.5,4.3
				l8.4,1.4c8.8,1.4,13.2,5.9,13.2,13.4c0,3.8-1.6,7.1-4.9,9.9c-3.2,2.6-7.7,4-13.6,4c-12.3,0-18.9-5.4-19.8-14.2h9.6
				c0.8,4.2,4.1,6.2,10,6.2c6,0,9.1-1.9,9.1-5.6c0-3.3-2-4.9-7.1-5.8l-9-1.5c-6.8-1.1-11.1-4.9-11.1-11.4c0-7.7,6.1-13.2,17.8-13.2
				c10.3,0,16.8,4.9,17.8,12.7H723.6z"/>
		</g>
	</g>
	<g id="XMLID_4_">
		<g id="XMLID_221_">
			<path id="XMLID_237_" class="st1" d="M855.2,801.6v-4h-2c-2.6,3.4-6.9,5.1-12.8,5.1c-4.8,0-8.5-1.4-11.3-4.1
				c-2.8-2.8-4.2-6.1-4.2-10.1c0-3.9,1.4-7.3,4.3-10.2c2.8-2.9,7.1-4.3,12.9-4.3h12.8v-1.3c0-5-3-7.9-9.1-7.9
				c-5.4,0-8.3,1.9-8.7,5.5h-9.5c0.4-8.1,7.6-13.1,17.9-13.1c11.7,0,18.7,5.2,18.7,15.7v28.8H855.2z M851.6,791.7
				c2.2-2.1,3.3-4.7,3.3-7.7v-3.3h-11.1c-6,0-9.2,2.6-9.2,7.1c0,4.4,3.2,7,8.8,7C846.6,794.9,849.4,793.8,851.6,791.7z"/>
			<path id="XMLID_235_" class="st1" d="M897.8,758.3v8.9h-3.9c-8.8,0-13.5,5-13.5,14.1v20.3h-9.6v-43.3h9.3v5h2
				c2.5-3.3,6.6-5,12.1-5H897.8z"/>
			<path id="XMLID_227_" class="st1" d="M911.3,758.3h10.2v8.2h-10.2v21.1c0,3.8,2.2,5.7,6.6,5.7h3.6v8.3h-3.7
				c-10.5,0-16.1-3.5-16.1-12.8v-41.5h9.6V758.3z"/>
			<path id="XMLID_224_" class="st1" d="M961.3,796.4c-3.9,4.2-9.2,6.3-15.9,6.3c-6.7,0-12-2.1-16-6.3c-3.9-4.3-5.9-9.8-5.9-16.5
				s2-12.2,5.9-16.3c4-4.3,9.3-6.4,16-6.4c6.7,0,12,2.1,15.9,6.4c4,4.2,6,9.6,6,16.3S965.3,792.1,961.3,796.4z M945.4,765.3
				c-7.9,0-12.3,6.4-12.3,14.6c0,8.3,4.3,14.6,12.3,14.6c7.9,0,12.3-6.4,12.3-14.6C957.7,771.7,953.3,765.3,945.4,765.3z"/>
			<path id="XMLID_222_" class="st1" d="M996.4,769.8c-0.5-3.1-3.3-4.7-8.5-4.7c-5.2,0-7.8,1.5-7.8,4.5c0,2.6,1.7,3.7,5.5,4.3
				l8.4,1.4c8.8,1.4,13.2,5.9,13.2,13.4c0,3.8-1.6,7.1-4.9,9.9c-3.2,2.6-7.7,4-13.6,4c-12.3,0-18.9-5.4-19.8-14.2h9.6
				c0.8,4.2,4.1,6.2,10,6.2c6,0,9.1-1.9,9.1-5.6c0-3.3-2-4.9-7.1-5.8l-9-1.5c-6.8-1.1-11.1-4.9-11.1-11.4c0-7.7,6.1-13.2,17.8-13.2
				c10.3,0,16.8,4.9,17.8,12.7H996.4z"/>
		</g>
	</g>
</g>
</svg>
