<?xml version="1.0" encoding="utf-8"?>
<!-- Generator: Adobe Illustrator 19.0.0, SVG Export Plug-In . SVG Version: 6.00 Build 0)  -->
<svg version="1.1" id="logotype" xmlns="http://www.w3.org/2000/svg" xmlns:xlink="http://www.w3.org/1999/xlink" x="0px" y="0px"
	 viewBox="-74 241.3 1200 869.7" style="enable-background:new -74 241.3 1200 869.7;" xml:space="preserve">
<style type="text/css">
	.st0{fill:#36AFA7;}
	.st1{fill:#FFFFFF;}
	.st2{fill:#101010;}
	.st3{fill:#EFEFEF;}
</style>
<rect id="XMLID_469_" x="-74" y="241.3" class="st0" width="600" height="289.9"/>
<rect id="XMLID_15_" x="526" y="241.3" class="st1" width="600" height="289.9"/>
<g id="XMLID_63_">
	<g id="XMLID_174_">
		<path id="XMLID_184_" class="st1" d="M90.2,434.6v-8.9h-4.6c-5.9,7.6-15.4,11.4-28.5,11.4c-10.6,0-19-3-25.3-9.1
			c-6.3-6.3-9.3-13.7-9.3-22.6c0-8.7,3.2-16.3,9.5-22.8s15.9-9.7,28.9-9.7h28.5v-2.8c0-11.2-6.6-17.7-20.3-17.7
			c-12,0-18.4,4.2-19.4,12.3H28.4c0.9-18,16.9-29.2,39.9-29.2c26,0,41.8,11.6,41.8,34.9v64.2H90.2z M82.1,412.5
			c4.9-4.7,7.4-10.4,7.4-17.1V388H64.8c-13.5,0-20.5,5.9-20.5,15.9c0,9.9,7.2,15.6,19.6,15.6C71,419.6,77.1,417.3,82.1,412.5z"/>
		<path id="XMLID_182_" class="st1" d="M185.2,337.9v19.9h-8.7c-19.6,0-30.2,11.2-30.2,31.5v45.2h-21.5v-96.6h20.7v11.2h4.6
			c5.5-7.4,14.6-11.2,27-11.2H185.2z"/>
		<path id="XMLID_180_" class="st1" d="M215.4,337.9h22.8v18.2h-22.8v47.1c0,8.5,4.9,12.7,14.8,12.7h8v18.6h-8.4
			c-23.4,0-35.9-7.8-35.9-28.5v-92.5h21.5V337.9z"/>
		<path id="XMLID_177_" class="st1" d="M326.9,423c-8.7,9.3-20.5,14-35.5,14s-26.8-4.7-35.7-14c-8.7-9.5-13.1-21.8-13.1-36.8
			s4.4-27.1,13.1-36.5c8.9-9.5,20.7-14.2,35.7-14.2s26.8,4.7,35.5,14.2c8.9,9.3,13.3,21.5,13.3,36.5
			C340.2,401.2,335.9,413.5,326.9,423z M291.4,353.7c-17.7,0-27.3,14.2-27.3,32.5c0,18.4,9.7,32.7,27.3,32.7
			c17.7,0,27.3-14.2,27.3-32.7C318.8,367.9,309.1,353.7,291.4,353.7z"/>
		<path id="XMLID_175_" class="st1" d="M405.3,363.8c-1.1-7-7.4-10.4-19-10.4s-17.5,3.4-17.5,10.1c0,5.9,3.8,8.2,12.3,9.7l18.8,3
			c19.6,3.2,29.4,13.1,29.4,30c0,8.5-3.6,15.9-11,22c-7.2,5.9-17.3,8.9-30.4,8.9c-27.3,0-42.1-12-44.2-31.7h21.5
			c1.7,9.3,9.1,13.9,22.4,13.9c13.5,0,20.3-4.2,20.3-12.5c0-7.4-4.6-10.8-15.8-12.9l-20.1-3.6c-15.2-2.5-24.7-11-24.7-25.4
			c0-17.3,13.7-29.4,39.7-29.4c23,0,37.6,11,39.7,28.3H405.3z"/>
	</g>
</g>
<g id="XMLID_241_">
	<path id="XMLID_497_" class="st0" d="M690.2,434.6v-8.9h-4.6c-5.9,7.6-15.4,11.4-28.5,11.4c-10.6,0-19-3-25.3-9.1
		c-6.3-6.3-9.3-13.7-9.3-22.6c0-8.7,3.2-16.3,9.5-22.8s15.9-9.7,28.9-9.7h28.5v-2.8c0-11.2-6.6-17.7-20.3-17.7
		c-12,0-18.4,4.2-19.4,12.3h-21.3c0.9-18,16.9-29.2,39.9-29.2c26,0,41.8,11.6,41.8,34.9v64.2H690.2z M682.1,412.5
		c4.9-4.7,7.4-10.4,7.4-17.1V388h-24.7c-13.5,0-20.5,5.9-20.5,15.9c0,9.9,7.2,15.6,19.6,15.6C671,419.6,677.1,417.3,682.1,412.5z"/>
	<path id="XMLID_495_" class="st0" d="M785.2,337.9v19.9h-8.7c-19.6,0-30.2,11.2-30.2,31.5v45.2h-21.5v-96.6h20.7v11.2h4.6
		c5.5-7.4,14.6-11.2,27-11.2H785.2z"/>
	<path id="XMLID_493_" class="st0" d="M815.4,337.9h22.8v18.2h-22.8v47.1c0,8.5,4.9,12.7,14.8,12.7h8v18.6h-8.4
		c-23.4,0-35.9-7.8-35.9-28.5v-92.5h21.5L815.4,337.9L815.4,337.9z"/>
	<path id="XMLID_489_" class="st0" d="M926.9,423c-8.7,9.3-20.5,14-35.5,14s-26.8-4.7-35.7-14c-8.7-9.5-13.1-21.8-13.1-36.8
		s4.4-27.1,13.1-36.5c8.9-9.5,20.7-14.2,35.7-14.2s26.8,4.7,35.5,14.2c8.9,9.3,13.3,21.5,13.3,36.5S935.9,413.5,926.9,423z
		 M891.4,353.7c-17.7,0-27.3,14.2-27.3,32.5c0,18.4,9.7,32.7,27.3,32.7c17.7,0,27.3-14.2,27.3-32.7
		C918.8,367.9,909.1,353.7,891.4,353.7z"/>
	<path id="XMLID_474_" class="st0" d="M1005.3,363.8c-1.1-7-7.4-10.4-19-10.4s-17.5,3.4-17.5,10.1c0,5.9,3.8,8.2,12.3,9.7l18.8,3
		c19.6,3.2,29.4,13.1,29.4,30c0,8.5-3.6,15.9-11,22c-7.2,5.9-17.3,8.9-30.4,8.9c-27.3,0-42.1-12-44.2-31.7h21.5
		c1.7,9.3,9.1,13.9,22.4,13.9c13.5,0,20.3-4.2,20.3-12.5c0-7.4-4.6-10.8-15.8-12.9l-20.1-3.6c-15.2-2.5-24.7-11-24.7-25.4
		c0-17.3,13.7-29.4,39.7-29.4c23,0,37.6,11,39.7,28.3H1005.3z"/>
</g>
<g id="XMLID_542_">
	<g id="XMLID_129_">
		<path id="XMLID_156_" class="st1" d="M90.2,724.5v-8.9h-4.6c-5.9,7.6-15.4,11.4-28.5,11.4c-10.6,0-19-3-25.3-9.1
			c-6.3-6.3-9.3-13.7-9.3-22.6c0-8.7,3.2-16.3,9.5-22.8s15.9-9.7,28.9-9.7h28.5V660c0-11.2-6.6-17.7-20.3-17.7
			c-12,0-18.4,4.2-19.4,12.3H28.4c0.9-18,16.9-29.2,39.9-29.2c26,0,41.8,11.6,41.8,34.9v64.2L90.2,724.5L90.2,724.5z M82.1,702.5
			c4.9-4.7,7.4-10.4,7.4-17.1V678H64.8c-13.5,0-20.5,5.9-20.5,15.9c0,9.9,7.2,15.6,19.6,15.6C71,709.5,77.1,707.2,82.1,702.5z"/>
		<path id="XMLID_154_" class="st1" d="M185.2,627.8v19.9h-8.7c-19.6,0-30.2,11.2-30.2,31.5v45.2h-21.5v-96.6h20.7V639h4.6
			c5.5-7.4,14.6-11.2,27-11.2H185.2z"/>
		<path id="XMLID_152_" class="st1" d="M215.4,627.8h22.8V646h-22.8v47.1c0,8.5,4.9,12.7,14.8,12.7h8v18.6h-8.4
			c-23.4,0-35.9-7.8-35.9-28.5v-92.6h21.5V627.8z"/>
		<path id="XMLID_149_" class="st1" d="M326.9,712.9c-8.7,9.3-20.5,14-35.5,14s-26.8-4.7-35.7-14c-8.7-9.5-13.1-21.8-13.1-36.8
			s4.4-27.1,13.1-36.5c8.9-9.5,20.7-14.2,35.7-14.2s26.8,4.7,35.5,14.2c8.9,9.3,13.3,21.5,13.3,36.5
			C340.2,691.1,335.9,703.4,326.9,712.9z M291.4,643.6c-17.7,0-27.3,14.2-27.3,32.5c0,18.4,9.7,32.7,27.3,32.7
			c17.7,0,27.3-14.2,27.3-32.7C318.8,657.8,309.1,643.6,291.4,643.6z"/>
		<path id="XMLID_130_" class="st1" d="M405.3,653.7c-1.1-7-7.4-10.4-19-10.4s-17.5,3.4-17.5,10.1c0,5.9,3.8,8.2,12.3,9.7l18.8,3
			c19.6,3.2,29.4,13.1,29.4,30c0,8.5-3.6,15.9-11,22c-7.2,5.9-17.3,8.9-30.4,8.9c-27.3,0-42.1-12-44.2-31.7h21.5
			c1.7,9.3,9.1,13.9,22.4,13.9c13.5,0,20.3-4.2,20.3-12.5c0-7.4-4.6-10.8-15.8-12.9l-20.1-3.4c-15.2-2.5-24.7-11-24.7-25.4
			c0-17.3,13.7-29.4,39.7-29.4c23,0,37.6,11,39.7,28.3h-21.4V653.7z"/>
	</g>
</g>
<g id="XMLID_242_">
	<path id="XMLID_525_" class="st0" d="M690.2,724.5v-8.9h-4.6c-5.9,7.6-15.4,11.4-28.5,11.4c-10.6,0-19-3-25.3-9.1
		c-6.3-6.3-9.3-13.7-9.3-22.6c0-8.7,3.2-16.3,9.5-22.8s15.9-9.7,28.9-9.7h28.5V660c0-11.2-6.6-17.7-20.3-17.7
		c-12,0-18.4,4.2-19.4,12.3h-21.3c0.9-18,16.9-29.2,39.9-29.2c26,0,41.8,11.6,41.8,34.9v64.2L690.2,724.5L690.2,724.5z M682.1,702.5
		c4.9-4.7,7.4-10.4,7.4-17.1V678h-24.7c-13.5,0-20.5,5.9-20.5,15.9c0,9.9,7.2,15.6,19.6,15.6C671,709.5,677.1,707.2,682.1,702.5z"/>
	<path id="XMLID_523_" class="st0" d="M785.2,627.8v19.9h-8.7c-19.6,0-30.2,11.2-30.2,31.5v45.2h-21.5v-96.6h20.7V639h4.6
		c5.5-7.4,14.6-11.2,27-11.2H785.2z"/>
	<path id="XMLID_521_" class="st0" d="M815.4,627.8h22.8V646h-22.8v47.1c0,8.5,4.9,12.7,14.8,12.7h8v18.6h-8.4
		c-23.4,0-35.9-7.8-35.9-28.5v-92.6h21.5L815.4,627.8L815.4,627.8z"/>
	<path id="XMLID_505_" class="st0" d="M926.9,712.9c-8.7,9.3-20.5,14-35.5,14s-26.8-4.7-35.7-14c-8.7-9.5-13.1-21.8-13.1-36.8
		s4.4-27.1,13.1-36.5c8.9-9.5,20.7-14.2,35.7-14.2s26.8,4.7,35.5,14.2c8.9,9.3,13.3,21.5,13.3,36.5S935.9,703.4,926.9,712.9z
		 M891.4,643.6c-17.7,0-27.3,14.2-27.3,32.5c0,18.4,9.7,32.7,27.3,32.7c17.7,0,27.3-14.2,27.3-32.7
		C918.8,657.8,909.1,643.6,891.4,643.6z"/>
	<path id="XMLID_503_" class="st0" d="M1005.3,653.7c-1.1-7-7.4-10.4-19-10.4s-17.5,3.4-17.5,10.1c0,5.9,3.8,8.2,12.3,9.7l18.8,3
		c19.6,3.2,29.4,13.1,29.4,30c0,8.5-3.6,15.9-11,22c-7.2,5.9-17.3,8.9-30.4,8.9c-27.3,0-42.1-12-44.2-31.7h21.5
		c1.7,9.3,9.1,13.9,22.4,13.9c13.5,0,20.3-4.2,20.3-12.5c0-7.4-4.6-10.8-15.8-12.9l-20.1-3.4c-15.2-2.5-24.7-11-24.7-25.4
		c0-17.3,13.7-29.4,39.7-29.4c23,0,37.6,11,39.7,28.3h-21.4V653.7z"/>
</g>
<rect id="XMLID_643_" x="-74" y="821.1" class="st1" width="1200" height="289.9"/>
<g id="XMLID_556_">
	<path id="XMLID_640_" class="st2" d="M90.2,1014.4v-8.9h-4.6c-5.9,7.6-15.4,11.4-28.5,11.4c-10.6,0-19-3-25.3-9.1
		c-6.3-6.3-9.3-13.7-9.3-22.6c0-8.7,3.2-16.3,9.5-22.8s15.9-9.7,28.9-9.7h28.5v-2.8c0-11.2-6.6-17.7-20.3-17.7
		c-12,0-18.4,4.2-19.4,12.3H28.4c0.9-18,16.9-29.2,39.9-29.2c26,0,41.8,11.6,41.8,34.9v64.2L90.2,1014.4L90.2,1014.4z M82.1,992.4
		c4.9-4.7,7.4-10.4,7.4-17.1v-7.4H64.8c-13.5,0-20.5,5.9-20.5,15.9c0,9.9,7.2,15.6,19.6,15.6C71,999.4,77.1,997.1,82.1,992.4z"/>
	<path id="XMLID_634_" class="st2" d="M185.2,917.8v19.9h-8.7c-19.6,0-30.2,11.2-30.2,31.5v45.2h-21.5v-96.6h20.7V929h4.6
		c5.5-7.4,14.6-11.2,27-11.2L185.2,917.8L185.2,917.8z"/>
	<path id="XMLID_632_" class="st2" d="M215.4,917.8h22.8V936h-22.8v47.1c0,8.5,4.9,12.7,14.8,12.7h8v18.6h-8.4
		c-23.4,0-35.9-7.8-35.9-28.5v-92.6h21.5V917.8z"/>
	<path id="XMLID_628_" class="st2" d="M326.9,1002.8c-8.7,9.3-20.5,14-35.5,14s-26.8-4.7-35.7-14c-8.7-9.5-13.1-21.8-13.1-36.8
		s4.4-27.1,13.1-36.5c8.9-9.5,20.7-14.2,35.7-14.2s26.8,4.7,35.5,14.2c8.9,9.3,13.3,21.5,13.3,36.5
		C340.2,981,335.9,993.3,326.9,1002.8z M291.4,933.5c-17.7,0-27.3,14.2-27.3,32.5c0,18.4,9.7,32.7,27.3,32.7
		c17.7,0,27.3-14.2,27.3-32.7C318.8,947.7,309.1,933.5,291.4,933.5z"/>
	<path id="XMLID_626_" class="st2" d="M405.3,943.6c-1.1-7-7.4-10.4-19-10.4s-17.5,3.4-17.5,10.1c0,5.9,3.8,8.2,12.3,9.7l18.8,3
		c19.6,3.2,29.4,13.1,29.4,30c0,8.5-3.6,15.9-11,22c-7.2,5.9-17.3,8.9-30.4,8.9c-27.3,0-42.1-12-44.2-31.7h21.5
		c1.7,9.3,9.1,13.9,22.4,13.9c13.5,0,20.3-4.2,20.3-12.5c0-7.4-4.6-10.8-15.8-12.9l-20.1-3.4c-15.2-2.5-24.7-11-24.7-25.4
		c0-17.3,13.7-29.4,39.7-29.4c23,0,37.6,11,39.7,28.3h-21.4V943.6z"/>
</g>
<rect id="XMLID_555_" x="526" y="821.1" class="st3" width="600" height="289.9"/>
<g id="XMLID_243_">
	<path id="XMLID_552_" class="st0" d="M690.2,1014.4v-8.9h-4.6c-5.9,7.6-15.4,11.4-28.5,11.4c-10.6,0-19-3-25.3-9.1
		c-6.3-6.3-9.3-13.7-9.3-22.6c0-8.7,3.2-16.3,9.5-22.8s15.9-9.7,28.9-9.7h28.5v-2.8c0-11.2-6.6-17.7-20.3-17.7
		c-12,0-18.4,4.2-19.4,12.3h-21.3c0.9-18,16.9-29.2,39.9-29.2c26,0,41.8,11.6,41.8,34.9v64.2L690.2,1014.4L690.2,1014.4z
		 M682.1,992.4c4.9-4.7,7.4-10.4,7.4-17.1v-7.4h-24.7c-13.5,0-20.5,5.9-20.5,15.9c0,9.9,7.2,15.6,19.6,15.6
		C671,999.4,677.1,997.1,682.1,992.4z"/>
	<path id="XMLID_550_" class="st0" d="M785.2,917.8v19.9h-8.7c-19.6,0-30.2,11.2-30.2,31.5v45.2h-21.5v-96.6h20.7V929h4.6
		c5.5-7.4,14.6-11.2,27-11.2L785.2,917.8L785.2,917.8z"/>
	<path id="XMLID_548_" class="st0" d="M815.4,917.8h22.8V936h-22.8v47.1c0,8.5,4.9,12.7,14.8,12.7h8v18.6h-8.4
		c-23.4,0-35.9-7.8-35.9-28.5v-92.6h21.5L815.4,917.8L815.4,917.8z"/>
	<path id="XMLID_545_" class="st0" d="M926.9,1002.8c-8.7,9.3-20.5,14-35.5,14s-26.8-4.7-35.7-14c-8.7-9.5-13.1-21.8-13.1-36.8
		s4.4-27.1,13.1-36.5c8.9-9.5,20.7-14.2,35.7-14.2s26.8,4.7,35.5,14.2c8.9,9.3,13.3,21.5,13.3,36.5S935.9,993.3,926.9,1002.8z
		 M891.4,933.5c-17.7,0-27.3,14.2-27.3,32.5c0,18.4,9.7,32.7,27.3,32.7c17.7,0,27.3-14.2,27.3-32.7
		C918.8,947.7,909.1,933.5,891.4,933.5z"/>
	<path id="XMLID_543_" class="st0" d="M1005.3,943.6c-1.1-7-7.4-10.4-19-10.4s-17.5,3.4-17.5,10.1c0,5.9,3.8,8.2,12.3,9.7l18.8,3
		c19.6,3.2,29.4,13.1,29.4,30c0,8.5-3.6,15.9-11,22c-7.2,5.9-17.3,8.9-30.4,8.9c-27.3,0-42.1-12-44.2-31.7h21.5
		c1.7,9.3,9.1,13.9,22.4,13.9c13.5,0,20.3-4.2,20.3-12.5c0-7.4-4.6-10.8-15.8-12.9l-20.1-3.4c-15.2-2.5-24.7-11-24.7-25.4
		c0-17.3,13.7-29.4,39.7-29.4c23,0,37.6,11,39.7,28.3h-21.4V943.6z"/>
</g>
</svg>
