<?xml version="1.0" encoding="utf-8"?>
<!-- Generator: Adobe Illustrator 19.0.0, SVG Export Plug-In . SVG Version: 6.00 Build 0)  -->
<svg version="1.1" id="Layer_1" xmlns="http://www.w3.org/2000/svg" xmlns:xlink="http://www.w3.org/1999/xlink" x="0px" y="0px"
	 viewBox="-74 55 1351 891" style="enable-background:new -74 55 1351 891;" xml:space="preserve">
<style type="text/css">
	.st0{fill:none;stroke:#36AFA7;stroke-width:1.5;stroke-miterlimit:10;}
	.st1{fill:#36AFA7;}
	.st2{fill:#FFFFFF;}
</style>
<g id="XMLID_1585_">
	<g id="XMLID_1676_">
		<line id="XMLID_1680_" class="st0" x1="-72" y1="676.8" x2="607.9" y2="676.8"/>
		<line id="XMLID_1679_" class="st0" x1="-72" y1="543.8" x2="607.9" y2="543.8"/>
		<line id="XMLID_1678_" class="st0" x1="547.8" y1="57" x2="547.8" y2="736.9"/>
		<line id="XMLID_1677_" class="st0" x1="-11.9" y1="57" x2="-11.9" y2="736.9"/>
	</g>
	<g id="XMLID_769_">
		<rect id="XMLID_1625_" x="-72" y="676.8" class="st1" width="60.1" height="60.1"/>
		<rect id="XMLID_1624_" x="547.8" y="676.8" class="st1" width="60.1" height="60.1"/>
	</g>
	<g id="XMLID_1587_">
		<g>
			<path id="XMLID_109_" class="st2" d="M81.1,676.8v-12.3h-6.3c-8.1,10.5-21.1,15.7-39.2,15.7C21,680.1,9.6,676,1,667.6
				c-8.6-8.6-12.8-18.8-12.8-31.1c0-12.1,4.5-22.4,13.1-31.3c8.6-8.9,21.9-13.4,39.7-13.4h39.2v-3.9c0-15.5-9.2-24.3-27.9-24.3
				c-16.5,0-25.3,5.8-26.6,16.9H-3.8c1.3-24.8,23.2-40.2,54.8-40.2c35.8,0,57.4,16,57.4,48.1v88.3L81.1,676.8L81.1,676.8z
				 M69.9,646.4C76.7,640,80,632.1,80,622.9v-10.2H46c-18.5,0-28.2,8.1-28.2,21.9c0,13.6,10,21.4,26.9,21.4
				C54.7,656.1,63.1,653,69.9,646.4z"/>
			<path id="XMLID_107_" class="st2" d="M211.8,543.8v27.4h-12.1c-26.9,0-41.6,15.5-41.6,43.4v62.2h-29.5v-133h28.5v15.5h6.3
				c7.6-10.2,20.1-15.5,37.1-15.5H211.8z"/>
			<path id="XMLID_105_" class="st2" d="M253.4,543.8h31.3v25.1h-31.3v64.8c0,11.8,6.8,17.5,20.3,17.5h11v25.6h-11.5
				c-32.1,0-49.4-10.7-49.4-39.2V510.2h29.5V543.8z"/>
			<path id="XMLID_102_" class="st2" d="M406.9,660.8c-12.1,12.8-28.2,19.3-48.9,19.3s-36.8-6.6-49.2-19.3c-12.1-13.1-18-30-18-50.6
				s6-37.4,18-50.2c12.3-13.1,28.5-19.5,49.2-19.5c20.6,0,36.8,6.5,48.9,19.5c12.3,12.8,18.2,29.5,18.2,50.2
				C425.1,630.8,419.1,647.7,406.9,660.8z M358,565.5c-24.3,0-37.6,19.5-37.6,44.7c0,25.3,13.4,45,37.6,45c24.3,0,37.6-19.6,37.6-45
				C395.6,585,382.3,565.5,358,565.5z"/>
			<path id="XMLID_100_" class="st2" d="M514.6,579.3c-1.6-9.7-10.2-14.4-26.1-14.4c-16,0-24,4.7-24,13.9c0,8.1,5.2,11.3,16.9,13.4
				l25.8,4.2c26.9,4.5,40.5,18,40.5,41.3c0,11.8-5,21.9-15.2,30.3c-10,8.1-23.7,12.3-41.8,12.3c-37.6,0-58-16.5-60.8-43.7h29.5
				c2.4,12.8,12.6,19,30.8,19c18.5,0,27.9-5.8,27.9-17.2c0-10.2-6.3-14.9-21.6-17.7l-27.7-4.7c-20.9-3.4-34-15.2-34-35
				c0-23.7,18.8-40.5,54.6-40.5c31.6,0,51.7,15.2,54.6,38.9L514.6,579.3L514.6,579.3z"/>
		</g>
	</g>
	<g id="XMLID_1586_">
		<path class="st1" d="M606.4,58.5v676.9H-70.5V58.5H606.4 M607.9,57H-72v679.9h679.9V57L607.9,57z"/>
	</g>
</g>
<g id="XMLID_766_">
	<g id="XMLID_1574_">
		<line id="XMLID_1582_" class="st0" x1="654.9" y1="914.7" x2="1274" y2="914.7"/>
		<line id="XMLID_1580_" class="st0" x1="654.9" y1="781.7" x2="1274" y2="781.7"/>
		<line id="XMLID_1579_" class="st0" x1="1244.3" y1="57" x2="1244.3" y2="944.8"/>
		<line id="XMLID_1577_" class="st0" x1="684.7" y1="57" x2="684.7" y2="944.8"/>
	</g>
	<g id="XMLID_770_">
		<rect id="XMLID_1573_" x="654.9" y="914.7" class="st1" width="29.7" height="29.7"/>
		<rect id="XMLID_1572_" x="1244.3" y="914.7" class="st1" width="29.7" height="29.7"/>
	</g>
	<g id="XMLID_768_">
		<g>
			<path id="XMLID_96_" class="st2" d="M777.7,914.7v-12.3h-6.3c-8.1,10.5-21.1,15.7-39.2,15.7c-14.7,0-26.1-4.2-34.7-12.6
				c-8.6-8.6-12.8-18.8-12.8-31.1c0-12.1,4.5-22.4,13.1-31.3c8.6-8.9,21.9-13.4,39.7-13.4h39.2v-3.9c0-15.5-9.2-24.3-27.9-24.3
				c-16.5,0-25.3,5.8-26.6,16.9h-29.4c1.3-24.8,23.2-40.2,54.8-40.2c35.8,0,57.4,16,57.4,48.1v88.3L777.7,914.7L777.7,914.7z
				 M766.4,884.3c6.8-6.5,10.2-14.4,10.2-23.5v-10.2h-34c-18.5,0-28.2,8.1-28.2,21.9c0,13.6,10,21.4,26.9,21.4
				C751.3,894,759.6,890.9,766.4,884.3z"/>
			<path id="XMLID_94_" class="st2" d="M908.3,781.7v27.4h-12.1c-26.9,0-41.6,15.5-41.6,43.4v62.2h-29.5v-133h28.5v15.5h6.3
				c7.6-10.2,20.1-15.5,37.1-15.5H908.3z"/>
			<path id="XMLID_92_" class="st2" d="M950,781.7h31.3v25H950v64.8c0,11.8,6.8,17.5,20.3,17.5h11v25.6h-11.5
				c-32.1,0-49.4-10.7-49.4-39.2V748H950V781.7z"/>
			<path id="XMLID_89_" class="st2" d="M1103.4,898.7c-12.1,12.8-28.2,19.3-48.9,19.3c-20.6,0-36.8-6.6-49.2-19.3
				c-12.1-13.1-18-30-18-50.6s6-37.4,18-50.2c12.3-13.1,28.5-19.5,49.2-19.5s36.8,6.5,48.9,19.5c12.3,12.8,18.2,29.5,18.2,50.2
				C1121.7,868.7,1115.7,885.6,1103.4,898.7z M1054.6,803.4c-24.3,0-37.6,19.5-37.6,44.7c0,25.3,13.4,45,37.6,45
				c24.3,0,37.6-19.6,37.6-45C1092.1,823,1078.8,803.4,1054.6,803.4z"/>
			<path id="XMLID_87_" class="st2" d="M1211.1,817.2c-1.6-9.7-10.2-14.4-26.1-14.4c-16,0-24,4.7-24,13.9c0,8.1,5.2,11.3,16.9,13.4
				l25.8,4.2c26.9,4.5,40.5,18,40.5,41.3c0,11.8-5,21.9-15.2,30.3c-10,8.1-23.7,12.3-41.8,12.3c-37.6,0-58-16.5-60.8-43.7h29.5
				c2.4,12.8,12.6,19,30.8,19c18.5,0,27.9-5.8,27.9-17.2c0-10.2-6.3-14.9-21.6-17.7l-27.7-4.7c-20.9-3.4-34-15.2-34-35
				c0-23.7,18.8-40.5,54.6-40.5c31.6,0,51.7,15.2,54.6,38.9H1211.1z"/>
		</g>
	</g>
	<g id="XMLID_767_">
		<path class="st1" d="M1272.5,58.5v884.4H656.4V58.5H1272.5 M1274,57H654.9v887.4H1274V57L1274,57z"/>
	</g>
</g>
</svg>
