<?xml version="1.0" encoding="utf-8"?>
<!-- Generator: Adobe Illustrator 19.0.0, SVG Export Plug-In . SVG Version: 6.00 Build 0)  -->
<svg version="1.1" id="Layer_1" xmlns="http://www.w3.org/2000/svg" xmlns:xlink="http://www.w3.org/1999/xlink" x="0px" y="0px"
	 viewBox="0 0 1500 1000" style="enable-background:new 0 0 1500 1000;" xml:space="preserve">
<style type="text/css">
	.st0{fill:#36AFA7;}
	.st1{fill:#FFFFFF;}
</style>
<g id="XMLID_1322_">
	<g id="XMLID_385_">
		<path id="XMLID_386_" class="st0" d="M106.6,139.6l-12.7-39.4H37.6l-12.5,39.4h-23L47.6,2.5h36.9l45.7,137.1H106.6z M61.4,25
			L44.2,79.7h43L69.7,25H61.4z"/>
		<path id="XMLID_389_" class="st0" d="M264.6,38.6c-2.9-12.3-12.5-18.4-28.8-18.4c-15.4,0-26.3,6.5-26.3,18.6
			c0,10.2,7.5,14.4,20,16.9l12.5,2.5l13.2,2.5c24,5.2,35.9,18.4,35.9,39.4c0,11.9-4.6,21.9-14,30c-9.2,8.1-22.5,12.1-39.6,12.1
			c-16.3,0-29.6-3.8-39.7-11.7c-10.2-7.9-15.7-18-17.1-30.9h23.4c2.5,15,14,22.5,34.4,22.5c17.5,0,29.4-7.9,29.4-20.9
			c0-12.1-7.1-17.3-20.7-20.4c-1.9-0.6-6.7-1.5-14.6-2.9c-7.9-1.5-11.9-2.3-12.1-2.3c-21.7-4-34.2-16.1-34.2-36.1
			c0-11.3,4.4-20.7,13.2-28.2c9-7.5,21.1-11.1,36.7-11.1c29,0,48.8,15,51.8,38.6H264.6z"/>
		<path id="XMLID_391_" class="st0" d="M370.2,139.6v-9h-4.6c-6,7.7-15.6,11.5-28.8,11.5c-10.8,0-19.2-3.1-25.5-9.2
			c-6.3-6.3-9.4-13.8-9.4-22.8c0-8.8,3.3-16.5,9.6-23c6.3-6.5,16.1-9.8,29.2-9.8h28.8v-2.9c0-11.3-6.7-17.9-20.5-17.9
			c-12.1,0-18.6,4.2-19.6,12.5h-21.5c1-18.2,17.1-29.6,40.3-29.6c26.3,0,42.2,11.7,42.2,35.3v64.9H370.2z M361.9,117.3
			c5-4.8,7.5-10.6,7.5-17.3v-7.5h-25c-13.6,0-20.7,6-20.7,16.1c0,10,7.3,15.7,19.8,15.7C350.8,124.4,356.9,122.1,361.9,117.3z"/>
		<path id="XMLID_394_" class="st0" d="M501.7,139.6H480V82.8c0-15.9-7.3-24-21.7-24c-7.5,0-13.6,2.9-18.4,8.4
			c-4.6,5.6-6.9,12.3-6.9,20.2v52.2h-21.7V41.9h20.9v9.4h4.6c6-7.9,15.4-11.9,28.2-11.9c23.8,0,36.7,14.6,36.7,39.2V139.6z"/>
		<path id="XMLID_396_" class="st0" d="M577.3,68c-1.2-7.1-7.5-10.6-19.2-10.6c-11.7,0-17.7,3.5-17.7,10.2c0,6,3.8,8.3,12.5,9.8
			l19,3.1c19.8,3.3,29.8,13.2,29.8,30.3c0,8.6-3.6,16.1-11.1,22.3c-7.3,6-17.5,9-30.7,9c-27.6,0-42.6-12.1-44.7-32.1h21.7
			c1.7,9.4,9.2,14,22.7,14c13.6,0,20.5-4.2,20.5-12.7c0-7.5-4.6-10.9-15.9-13.1l-20.4-3.5c-15.4-2.5-25-11.1-25-25.7
			c0-17.5,13.8-29.8,40.1-29.8c23.2,0,38,11.1,40.1,28.6H577.3z"/>
	</g>
	<g id="XMLID_369_">
		<path id="XMLID_370_" class="st0" d="M2.8,310.1V173.1h36.5l28.4,59.7h4.6l28-59.7h36.7v137.1h-21.9V200.5h-4.6l-29,60.1H58.1
			l-28.8-60.1h-4.6v109.6H2.8z"/>
		<path id="XMLID_372_" class="st0" d="M248.8,263.1h-72.2c0.6,20.7,9.8,31.1,27.5,31.1c11.3,0,18.4-4.2,21.3-12.5h22.1
			c-3.8,18.6-19,30.9-43.6,30.9c-15.2,0-27.1-4.8-35.7-14.4c-8.6-9.6-13.1-22.1-13.1-37.6c0-15.6,4.2-27.8,12.9-36.9
			c8.6-9.2,20.5-13.8,35.3-13.8c14,0,25.2,4.4,33,13.1c8.1,8.6,12.3,19.6,12.5,32.8V263.1z M177.6,247h49
			c-1.5-11.5-9.8-19.8-23.4-19.8C188.7,227.2,180.1,234.9,177.6,247z"/>
		<path id="XMLID_375_" class="st0" d="M329.6,221.8h4.6v-51.3h21.7v139.6H335v-9.4h-4.6c-6.3,7.9-15.9,11.9-28.8,11.9
			c-12.9,0-23.2-4.8-30.9-14.4c-7.5-9.6-11.3-21.9-11.3-37.1c0-15,3.8-27.3,11.3-36.9c7.7-9.6,18-14.4,30.9-14.4
			C314.5,209.9,323.7,213.9,329.6,221.8z M334.8,261.2c0-18.6-9.2-32.8-27.1-32.8c-17.1,0-26.7,13.1-26.7,32.8
			c0,19.8,9.6,33,26.7,33C325.6,294.2,334.8,279.8,334.8,261.2z"/>
		<path id="XMLID_378_" class="st0" d="M400.5,191.5h-22.3v-20.9h22.3V191.5z M400.1,212.4v97.7h-21.7v-97.7H400.1z"/>
		<path id="XMLID_381_" class="st0" d="M421.4,212.4h21.7v56.8c0,15.9,7.3,24,21.7,24c7.5,0,13.6-2.9,18.2-8.4
			c4.8-5.6,7.1-12.3,7.1-20.2v-52.2h21.7v97.7h-20.9v-9.4h-4.6c-6,7.9-15.4,11.9-28.2,11.9c-23.8,0-36.7-14.6-36.7-39.2V212.4z"/>
		<path id="XMLID_383_" class="st0" d="M674.3,247.7v62.4h-21.7v-58.8c0-14.8-5.6-22.1-16.7-22.1c-13.1,0-20.7,10.4-20.7,25.2v55.7
			h-21.7v-58.6c0-14.8-5.6-22.3-16.7-22.3c-13.8,0-20.9,11.5-20.9,27.6v53.2h-21.7v-97.7H555v8.8h4.6c5-7.5,13.2-11.3,24.6-11.3
			c11.7,0,20.2,4,25.3,11.9h4.6c6-7.9,15-11.9,27.1-11.9C663.5,209.9,674.3,223.9,674.3,247.7z"/>
	</g>
</g>
<g id="XMLID_360_">
	<path id="XMLID_361_" class="st1" d="M839.6,231.8c8.1,8.4,12.1,19.2,12.1,32.4c0,14.4-4.4,26.1-13.4,35.1
		c-9,8.8-20.5,13.2-34.6,13.2c-29.4,0-47.4-17.1-49-41.9H777c1.7,14.4,11.1,21.9,25.9,21.9c15.9,0,26.3-10.8,26.3-27.8
		c0-16.9-10.4-27.6-25.9-27.6c-10.6,0-18.6,3.8-24,11.3h-21.5l6-72.8h80.1v19h-62.4l-2.5,32.8h4.6c6.7-5.6,15.2-8.4,25-8.4
		C821.3,219.1,831.7,223.4,839.6,231.8z"/>
	<path id="XMLID_363_" class="st1" d="M914.6,173.1c15.4,0,27.6,5.8,37.1,17.5c9.4,11.7,14,29.2,14,52.4c0,23.2-4.6,40.7-14,52.4
		c-9.4,11.5-21.7,17.3-37.1,17.3s-27.6-5.8-37.1-17.3c-9.4-11.7-14-29.2-14-52.4c0-23.2,4.6-40.7,14-52.4
		C887,178.8,899.3,173.1,914.6,173.1z M914.6,292.7c10,0,17.3-4.6,21.7-13.6c4.6-9,6.9-21.1,6.9-36.1s-2.3-27.1-6.9-36.1
		c-4.4-9.2-11.7-13.8-21.7-13.8c-10,0-17.3,4.6-21.9,13.8c-4.4,9-6.7,21.1-6.7,36.1s2.3,27.1,6.7,36.1
		C897.4,288.1,904.7,292.7,914.6,292.7z"/>
	<path id="XMLID_366_" class="st1" d="M1029.1,173.1c15.4,0,27.6,5.8,37.1,17.5c9.4,11.7,14,29.2,14,52.4c0,23.2-4.6,40.7-14,52.4
		c-9.4,11.5-21.7,17.3-37.1,17.3s-27.6-5.8-37.1-17.3c-9.4-11.7-14-29.2-14-52.4c0-23.2,4.6-40.7,14-52.4
		C1001.4,178.8,1013.7,173.1,1029.1,173.1z M1029.1,292.7c10,0,17.3-4.6,21.7-13.6c4.6-9,6.9-21.1,6.9-36.1s-2.3-27.1-6.9-36.1
		c-4.4-9.2-11.7-13.8-21.7-13.8c-10,0-17.3,4.6-21.9,13.8c-4.4,9-6.7,21.1-6.7,36.1s2.3,27.1,6.7,36.1
		C1011.8,288.1,1019.1,292.7,1029.1,292.7z"/>
</g>
<g id="XMLID_286_">
	<g id="XMLID_917_">
		<path id="XMLID_988_" class="st1" d="M19.9,474.7c6.2,0,11,2,14.5,6c3.5,4,5.2,9.1,5.2,15.4c0,6.2-1.7,11.4-5.2,15.4
			c-3.4,4-8.3,6-14.5,6c-6.2,0-11-2-14.5-6c-3.5-4-5.2-9.1-5.2-15.4c0-6.2,1.7-11.4,5.2-15.4C8.9,476.8,13.8,474.7,19.9,474.7z
			 M19.9,511.2c4.2,0,7.3-1.4,9.4-4.3c2.1-2.8,3.2-6.5,3.2-10.8c0-4.3-1-8-3.2-10.8s-5.3-4.3-9.4-4.3c-4.2,0-7.3,1.4-9.5,4.3
			s-3.2,6.5-3.2,10.8c0,4.3,1,8,3.2,10.8C12.6,509.8,15.8,511.2,19.9,511.2z"/>
		<path id="XMLID_985_" class="st1" d="M70.9,511.2h5.3V525H70v-8.3H46.4v8.3h-6.2v-13.8h4.2c2-4.8,3.1-10,3.1-15.6v-8.3h23.5V511.2
			z M64.4,511.2v-18.3h-11v2.8c0,5.8-0.9,11-2.7,15.6H64.4z"/>
		<path id="XMLID_982_" class="st1" d="M105.9,502.6H84.1c0.2,6.2,2.9,9.4,8.3,9.4c3.4,0,5.6-1.3,6.4-3.8h6.6
			c-1.2,5.6-5.7,9.3-13.1,9.3c-4.6,0-8.2-1.4-10.8-4.3c-2.6-2.9-3.9-6.6-3.9-11.3c0-4.7,1.3-8.4,3.9-11.1c2.6-2.8,6.2-4.2,10.6-4.2
			c4.2,0,7.6,1.3,9.9,3.9c2.4,2.6,3.7,5.9,3.8,9.9V502.6z M84.4,497.7h14.7c-0.5-3.5-2.9-6-7.1-6C87.8,491.8,85.2,494.1,84.4,497.7z
			"/>
		<path id="XMLID_980_" class="st1" d="M120.1,504.5l-5.6,12.3h-6.7l6.8-15.1l-6.4-14.3h6.6l5.2,11.6h6.5v-11.6h6.1V499h6.5
			l5.1-11.6h6.6l-6.4,14.3l6.8,15.1h-6.8l-5.5-12.3h-6.5v12.3h-6.1v-12.3H120.1z"/>
		<path id="XMLID_977_" class="st1" d="M182.5,511.2h5.3V525h-6.2v-8.3H158v8.3h-6.2v-13.8h4.2c2-4.8,3.1-10,3.1-15.6v-8.3h23.5
			V511.2z M176,511.2v-18.3h-11v2.8c0,5.8-0.9,11-2.7,15.6H176z"/>
		<path id="XMLID_974_" class="st1" d="M209.3,516.8V514H208c-1.8,2.3-4.7,3.5-8.7,3.5c-3.2,0-5.8-0.9-7.7-2.8
			c-1.9-1.9-2.8-4.2-2.8-6.9c0-2.7,1-5,2.9-6.9c1.9-2,4.9-2.9,8.8-2.9h8.7v-0.9c0-3.4-2-5.4-6.2-5.4c-3.6,0-5.6,1.3-5.9,3.8h-6.5
			c0.3-5.5,5.1-8.9,12.1-8.9c7.9,0,12.7,3.5,12.7,10.6v19.5H209.3z M206.9,510.1c1.5-1.4,2.3-3.2,2.3-5.2v-2.3h-7.5
			c-4.1,0-6.2,1.8-6.2,4.9c0,3,2.2,4.7,6,4.7C203.5,512.2,205.4,511.5,206.9,510.1z"/>
		<path id="XMLID_971_" class="st1" d="M261.6,511.2h5.3V525h-6.2v-8.3h-23.6v8.3h-6.2v-13.8h4.2c2-4.8,3.1-10,3.1-15.6v-8.3h23.5
			V511.2z M255.1,511.2v-18.3h-11v2.8c0,5.8-0.9,11-2.7,15.6H255.1z"/>
		<path id="XMLID_969_" class="st1" d="M268.6,516.8v-6.2h1c4,0,5.6-2.8,5.6-11.3v-11.9h23.8v29.4h-6.5v-23.9h-11.3v6.5
			c0,6.4-0.9,10.9-2.8,13.5c-1.8,2.6-4.7,3.9-8.8,3.9H268.6z"/>
		<path id="XMLID_966_" class="st1" d="M330.2,487.3v29.4h-6.5v-10.7h-6.9c-0.9,0-1.6,0-2.1-0.1l-4.1,10.8h-6.6l4.7-12.1
			c-2.9-1.6-4.5-4.2-4.5-7.9c0-5.8,4-9.4,11.2-9.4H330.2z M323.6,501v-8.3h-7.7c-3.5,0-5.2,1.4-5.2,4.2s1.7,4.2,5.2,4.2H323.6z"/>
		<path id="XMLID_964_" class="st1" d="M375.2,507.3c-0.9,6.2-6,10.2-13,10.2c-4.5,0-8.1-1.4-10.7-4.3c-2.6-2.8-3.9-6.6-3.9-11.2
			c0-4.6,1.3-8.3,3.9-11.2c2.6-2.8,6.2-4.3,10.7-4.3c7,0,11.9,3.9,12.7,9.7h-6.5c-0.9-2.8-2.9-4.2-6.2-4.2c-5.5,0-8.1,4.1-8.1,9.8
			c0,5.8,2.6,10,8.1,10c3.6,0,5.7-1.6,6.4-4.6H375.2z"/>
		<path id="XMLID_960_" class="st1" d="M399.7,528.3h-6.4v-11.6h-0.7c-4.7-0.1-8.4-1.4-11-4.1c-2.6-2.7-3.9-6.2-3.9-10.6
			c0-4.3,1.3-7.8,3.9-10.5c2.6-2.7,6.2-4.1,10.9-4.2h0.9v-12.6h6.4v12.6h0.9c4.6,0.1,8.3,1.4,10.9,4.2c2.6,2.7,3.9,6.2,3.9,10.5
			c0,9-5.7,14.7-15.7,14.7V528.3z M392.6,511.5h0.8v-18.9h-0.7c-5.6,0.1-8.6,4-8.6,9.4C384.1,507.5,387,511.4,392.6,511.5z
			 M399.7,511.5h0.6c5.6-0.1,8.6-4,8.6-9.5c0-5.4-3.1-9.4-8.6-9.4h-0.6V511.5z"/>
		<path id="XMLID_957_" class="st1" d="M446.3,502.6h-21.7c0.2,6.2,2.9,9.4,8.3,9.4c3.4,0,5.6-1.3,6.4-3.8h6.6
			c-1.2,5.6-5.7,9.3-13.1,9.3c-4.6,0-8.2-1.4-10.8-4.3c-2.6-2.9-3.9-6.6-3.9-11.3c0-4.7,1.3-8.4,3.9-11.1c2.6-2.8,6.2-4.2,10.6-4.2
			c4.2,0,7.6,1.3,9.9,3.9c2.4,2.6,3.7,5.9,3.8,9.9V502.6z M424.8,497.7h14.7c-0.5-3.5-2.9-6-7.1-6
			C428.2,491.8,425.6,494.1,424.8,497.7z"/>
		<path id="XMLID_954_" class="st1" d="M450.6,487.3h6.3v2.8h1.4c1.9-2.4,4.8-3.6,8.7-3.6c3.9,0,7,1.4,9.3,4.3
			c2.3,2.9,3.5,6.6,3.5,11.1c0,4.6-1.2,8.3-3.5,11.2c-2.3,2.9-5.4,4.3-9.3,4.3c-3.8,0-6.6-1.2-8.4-3.6h-1.4v14.4h-6.5V487.3z
			 M457,502c0,5.6,2.8,9.9,8.2,9.9c5.1,0,8-4,8-9.9s-2.9-9.9-8-9.9C459.7,492.1,457,496.4,457,502z"/>
		<path id="XMLID_950_" class="st1" d="M484.1,487.3h6.5v9.1h7.3c7.3,0,11.4,3.7,11.4,10c0,6.4-4.1,10.3-11.4,10.3h-13.9V487.3z
			 M490.6,501.7v9.5h6.4c4.2,0,5.8-1.7,5.8-4.7c0-3.2-1.6-4.7-5.8-4.7H490.6z M514,487.3h6.5v29.4H514V487.3z"/>
		<path id="XMLID_947_" class="st1" d="M25.7,581.2c-2.7,2.8-6.2,4.3-10.8,4.3s-8.2-1.4-10.9-4.3c-2.7-2.9-4-6.6-4-11.2
			s1.3-8.3,4-11.1c2.7-2.9,6.3-4.3,10.9-4.3s8.2,1.4,10.8,4.3c2.7,2.8,4,6.5,4,11.1S28.4,578.3,25.7,581.2z M14.9,560.1
			c-5.4,0-8.3,4.3-8.3,9.9c0,5.6,2.9,9.9,8.3,9.9s8.3-4.3,8.3-9.9C23.2,564.5,20.2,560.1,14.9,560.1z"/>
		<path id="XMLID_944_" class="st1" d="M58.5,560.1c2.5,2.8,3.8,6.3,3.8,10.6c0,4.3-1.4,7.8-4.1,10.6s-6.3,4.2-10.8,4.2
			c-9.5,0-15-6.4-15-18c0-5.4,0.5-9.4,2-13.6c1.6-4.2,4.8-7,9.6-7.7l7.7-1.3c2.3-0.4,2.8-0.6,2.9-2.2h5.6c-0.2,4-1.4,6.5-5.9,7.3
			l-9.4,1.5c-4.5,0.7-6.4,3.5-7.2,8.5h1.4c2.1-2.7,5.2-4,9.3-4C52.6,556,56,557.4,58.5,560.1z M53.5,577.2c1.4-1.8,2.1-4,2.1-6.6
			c0-5.3-2.9-9.3-8.3-9.3c-5.5,0-8.4,4-8.4,9.3c0,2.6,0.7,4.9,2.1,6.6c1.4,1.8,3.5,2.7,6.2,2.7S52.1,579,53.5,577.2z"/>
		<path id="XMLID_942_" class="st1" d="M92.5,575.3c-0.9,6.2-6,10.2-13,10.2c-4.5,0-8.1-1.4-10.7-4.3c-2.6-2.8-3.9-6.6-3.9-11.2
			c0-4.6,1.3-8.3,3.9-11.2c2.6-2.8,6.2-4.3,10.7-4.3c7,0,11.9,3.9,12.7,9.7h-6.5c-0.9-2.8-2.9-4.2-6.2-4.2c-5.5,0-8.1,4.1-8.1,9.8
			c0,5.8,2.6,10,8.1,10c3.6,0,5.7-1.6,6.4-4.6H92.5z"/>
		<path id="XMLID_940_" class="st1" d="M93.5,584.8v-6.2h1c4,0,5.6-2.8,5.6-11.3v-11.9H124v29.4h-6.5v-23.9h-11.3v6.5
			c0,6.4-0.9,10.9-2.8,13.5c-1.8,2.6-4.7,3.9-8.8,3.9H93.5z"/>
		<path id="XMLID_938_" class="st1" d="M139.7,596.3H133l6.1-14.5l-12.5-26.5h6.9l8.2,17.7h1.5l7.5-17.7h6.7L139.7,596.3z"/>
		<path id="XMLID_936_" class="st1" d="M169.8,572.5l-5.6,12.3h-6.7l6.8-15.1l-6.4-14.3h6.6l5.2,11.6h6.5v-11.6h6.1V567h6.5
			l5.1-11.6h6.6l-6.4,14.3l6.8,15.1h-6.8l-5.5-12.3h-6.5v12.3h-6.1v-12.3H169.8z"/>
		<path id="XMLID_934_" class="st1" d="M212.4,584.8H205v-29.4h6.4v19.4h1.4l12.1-19.4h7.6v29.4H226v-19.4h-1.4L212.4,584.8z"/>
		<path id="XMLID_930_" class="st1" d="M260.2,569.8c2.9,0.8,4.9,3.2,4.9,6.8c0,5.3-3.7,8.1-10.4,8.1h-16.2v-29.4h15.7
			c6,0,9.3,2.8,9.3,7.5c0,2.6-1.4,4.8-3.3,5.7V569.8z M244.9,560.3v6.9h7.9c2.8,0,4.2-1.4,4.2-3.5c0-2.3-1.4-3.5-4.2-3.5H244.9z
			 M253.5,579.8c3.4,0,5-1.3,5-3.9s-1.7-3.9-5-3.9h-8.6v7.8H253.5z"/>
		<path id="XMLID_927_" class="st1" d="M287.9,584.8V582h-1.4c-1.8,2.3-4.7,3.5-8.7,3.5c-3.2,0-5.8-0.9-7.7-2.8
			c-1.9-1.9-2.8-4.2-2.8-6.9c0-2.7,1-5,2.9-6.9c1.9-2,4.9-2.9,8.8-2.9h8.7v-0.9c0-3.4-2-5.4-6.2-5.4c-3.6,0-5.6,1.3-5.9,3.8h-6.5
			c0.3-5.5,5.1-8.9,12.1-8.9c7.9,0,12.7,3.5,12.7,10.6v19.5H287.9z M285.4,578.1c1.5-1.4,2.3-3.2,2.3-5.2v-2.3h-7.5
			c-4.1,0-6.2,1.8-6.2,4.9c0,3,2.2,4.7,6,4.7C282.1,580.2,283.9,579.5,285.4,578.1z"/>
		<path id="XMLID_925_" class="st1" d="M327,584.8h-6.5v-12.3h-14.2v12.3h-6.5v-29.4h6.5v11.6h14.2v-11.6h6.5V584.8z"/>
		<path id="XMLID_923_" class="st1" d="M340.5,584.8h-7.4v-29.4h6.4v19.4h1.4l12.1-19.4h7.6v29.4h-6.4v-19.4h-1.4L340.5,584.8z"/>
		<path id="XMLID_920_" class="st1" d="M391.6,555.3v29.4h-6.5v-10.7h-6.9c-0.9,0-1.6,0-2.1-0.1l-4.1,10.8h-6.6l4.7-12.1
			c-2.9-1.6-4.5-4.2-4.5-7.9c0-5.8,4-9.4,11.2-9.4H391.6z M385.1,569v-8.3h-7.7c-3.5,0-5.2,1.4-5.2,4.2s1.7,4.2,5.2,4.2H385.1z"/>
		<path id="XMLID_918_" class="st1" d="M404.9,584.8h-7.5V577h7.5V584.8z"/>
	</g>
</g>
<g id="XMLID_1_">
	<path id="XMLID_2_" class="st1" d="M774.5,510.7l-3.6-11.1h-15.8l-3.5,11.1h-6.5l12.8-38.6h10.4l12.9,38.6H774.5z M761.9,478.5
		l-4.9,15.4h12.1l-4.9-15.4H761.9z"/>
	<path id="XMLID_5_" class="st1" d="M804.2,487.3c8.4,0,13.2,4.3,13.2,11.7c0,7.3-4.8,11.7-13.2,11.7h-17.3v-38.6h27.3v5.9h-20.8
		v9.3H804.2z M803.1,505c5.6,0,7.8-2.1,7.8-6.2c0-4.1-2.2-6.1-7.8-6.1h-9.7V505H803.1z"/>
	<path id="XMLID_8_" class="st1" d="M850.7,491.1c3,1.3,5.2,4.7,5.2,8.5c0,6.5-4.6,11-13.2,11h-17.9v-38.6h17.4c4,0,7.1,1,9.2,2.9
		c2.2,1.9,3.3,4.3,3.3,7.1c0,3.7-1.4,6.3-4.1,7.7V491.1z M841.7,488c4.3,0,6.5-1.7,6.5-5.1s-2.2-5.1-6.5-5.1h-10.4V488H841.7z
		 M841.9,505.1c4.9,0,7.4-1.9,7.4-5.8c0-3.8-2.5-5.8-7.4-5.8h-10.6v11.6H841.9z"/>
	<path id="XMLID_13_" class="st1" d="M890.4,478h-20.6v32.7h-6.5v-38.6h27.1V478z"/>
	<path id="XMLID_16_" class="st1" d="M924.1,504.8h5.5v15.3h-6.3v-9.5H896v9.5h-6.3v-15.3h4c3.1-6.2,4.7-14.1,4.7-23.7v-9h25.7
		V504.8z M917.7,504.8V478h-13.2v3.7c0,9.7-1.4,17.4-4.1,23.1H917.7z"/>
	<path id="XMLID_19_" class="st1" d="M942.2,504.8h21.9v5.9h-28.4v-38.6h27.7v5.9h-21.2v9.9H959v5.8h-16.8V504.8z"/>
	<path id="XMLID_21_" class="st1" d="M977.7,504.8h21.9v5.9h-28.4v-38.6H999v5.9h-21.2v9.9h16.8v5.8h-16.8V504.8z M982.6,467.8h-5.5
		v-5.5h5.5V467.8z M992.8,467.8h-5.4v-5.5h5.4V467.8z"/>
	<path id="XMLID_25_" class="st1" d="M1042.7,494.1h-9v16.6h-6.4v-16.6h-9l-6.9,16.6h-6.7l8.2-19.5l-7.7-19h6.7l6.4,16h9v-16h6.4v16
		h9l6.4-16h6.7l-7.7,19l8.2,19.5h-6.7L1042.7,494.1z"/>
	<path id="XMLID_27_" class="st1" d="M1076.8,477.3c-4.6,0-7.3,1.7-8,5.2h-6.7c0.8-6.9,6.4-11.1,14.7-11.1c4.4,0,7.8,1,10.2,3
		c2.4,1.9,3.7,4.4,3.7,7.4c0,3.7-1.3,6.3-4,7.7v1.3c3.6,1.4,5.5,4.4,5.5,8.9c0,3.3-1.3,6.2-4,8.4c-2.7,2.2-6.4,3.3-11.1,3.3
		c-9.8,0-15.3-4.4-16.4-11.9h6.8c1,4,4.3,6,9.7,6c5,0,8.4-2.3,8.4-6c0-3.9-2.6-5.8-7.7-5.8h-5.9v-5.8h5.9c4.5,0,6.4-2.2,6.4-5.2
		C1084.1,479.2,1081.1,477.3,1076.8,477.3z"/>
	<path id="XMLID_29_" class="st1" d="M1099.6,472.1h6.2v30h1.3l15.9-30h9.2v38.6h-6.2v-30h-1.3l-15.9,30h-9.2V472.1z"/>
	<path id="XMLID_31_" class="st1" d="M1141.5,472.1h6.2v30h1.3l15.9-30h9.2v38.6h-6.2v-30h-1.3l-15.9,30h-9.2V472.1z M1167.6,461.9
		c-0.3,5.2-4,8.3-9.8,8.3c-5.7,0-9.5-3.1-9.8-8.3h5c0.2,2.4,2,4,4.8,4c2.8,0,4.7-1.6,4.9-4H1167.6z"/>
	<path id="XMLID_34_" class="st1" d="M1183.4,510.7v-38.6h6.5v15.8h10.4l7.4-15.8h6.7l-8.6,18.7l9.1,19.8h-6.7l-7.9-16.9h-10.4v16.9
		H1183.4z"/>
	<path id="XMLID_36_" class="st1" d="M1218.2,504.3h1.2c1.7,0,3-0.4,3.8-1.1c1.8-1.5,2.8-6.2,2.8-16v-15.1h26.7v38.6h-6.5V478h-14.2
		v9.9c0,9.3-0.9,15.1-3.1,18.4c-2.2,3.3-5,4.3-9.6,4.3h-1.2V504.3z"/>
	<path id="XMLID_38_" class="st1" d="M1262.1,510.7v-38.6h10.3l8,16.8h1.3l7.9-16.8h10.3v38.6h-6.2v-30.8h-1.3l-8.2,16.9h-6.6
		l-8.1-16.9h-1.3v30.8H1262.1z"/>
	<path id="XMLID_40_" class="st1" d="M1335,472.1h6.5v38.6h-6.5v-16.8h-19.3v16.8h-6.5v-38.6h6.5v15.7h19.3V472.1z"/>
	<path id="XMLID_42_" class="st1" d="M1367.3,471.4c5.8,0,10.3,1.9,13.5,5.6c3.2,3.7,4.9,8.5,4.9,14.4s-1.6,10.6-4.9,14.4
		c-3.2,3.7-7.7,5.6-13.5,5.6c-5.8,0-10.3-1.9-13.6-5.6s-4.9-8.5-4.9-14.4s1.6-10.6,4.9-14.4C1357,473.3,1361.5,471.4,1367.3,471.4z
		 M1367.3,505.5c3.9,0,6.8-1.3,8.8-4c2-2.6,3-6,3-10.1s-1-7.5-3-10.1c-2-2.6-4.9-4-8.8-4c-3.9,0-6.9,1.3-8.9,4c-2,2.6-3,6-3,10.1
		s1,7.5,3,10.1C1360.4,504.2,1363.4,505.5,1367.3,505.5z"/>
	<path id="XMLID_45_" class="st1" d="M1393.2,472.1h31.8v38.6h-6.5V478h-18.8v32.7h-6.5V472.1z"/>
	<path id="XMLID_47_" class="st1" d="M765.8,538.1c8.6,0,13.5,4.5,13.5,11.9c0,7.6-4.9,12-13.5,12h-10.5v14.6h-6.5v-38.6H765.8z
		 M764.8,556.3c5.2,0,7.9-2.1,7.9-6.3c0-4.1-2.3-6.2-7.9-6.2h-9.5v12.5H764.8z"/>
	<path id="XMLID_50_" class="st1" d="M818.7,565c-1.4,7.5-7.1,12.4-15.7,12.4c-5.7,0-10.2-1.8-13.3-5.5c-3.2-3.7-4.8-8.5-4.8-14.5
		s1.6-10.7,4.8-14.4c3.2-3.7,7.7-5.6,13.4-5.6c4.1,0,7.4,1,10.1,3.1c2.7,2.1,4.4,4.8,5.1,8.3h-6.8c-1.2-3.7-4-5.5-8.4-5.5
		c-3.8,0-6.6,1.3-8.6,4c-2,2.6-3,6-3,10.1c0,4.1,1,7.5,2.9,10.2c2,2.6,4.9,3.9,8.6,3.9c4.7,0,7.9-2.4,8.9-6.5H818.7z"/>
	<path id="XMLID_52_" class="st1" d="M853.4,538.1v5.7h-12.3v32.8h-6.5v-32.8h-12.4v-5.7H853.4z"/>
	<path id="XMLID_54_" class="st1" d="M871.9,556.8h1.5l8.9-18.7h6.6l-18.5,38.6h-6.6l5.5-11.6l-14.3-27h6.9L871.9,556.8z"/>
	<path id="XMLID_56_" class="st1" d="M915.4,541.4h0.6c5.3,0,9.6,1.3,12.8,4c3.2,2.6,4.8,6.5,4.8,11.5c0,10.2-6.8,15.5-17.6,15.5
		h-0.6v5h-6.3v-5h-0.5c-11,0-17.6-5.3-17.6-15.5c0-5,1.6-8.9,4.8-11.5c3.2-2.6,7.5-4,12.9-4h0.5v-4.5h6.3V541.4z M909.2,566.8V547
		h-0.5c-7.1,0-11.1,3.2-11.1,9.9c0,6.5,4.2,9.9,11.1,9.9H909.2z M915.4,566.8h0.6c7,0,11.1-3.3,11.1-9.9c0-6.6-4.2-9.9-11.1-9.9
		h-0.6V566.8z"/>
	<path id="XMLID_60_" class="st1" d="M963.1,576.7l-8.9-16.7h-1.8l-9.1,16.7h-7l11.1-20.3l-9.5-18.3h6.8l7.8,14.7h1.8l7.9-14.7h6.8
		l-9.7,18l11.1,20.5H963.1z"/>
	<path id="XMLID_62_" class="st1" d="M1007,586.1v-9.5h-30.8v-38.6h6.5v32.7h18.6v-32.7h6.5v32.7h5.6v15.3H1007z"/>
	<path id="XMLID_64_" class="st1" d="M1017.7,538.1h6.5v11v1.5c0.1,0.6,0.3,2.1,0.7,2.7c1.1,1.6,3,2.8,8.2,2.8c2.7,0,5.3-0.3,7.9-1
		v-17.1h6.5v38.6h-6.5v-15.6c-2.7,0.6-5.8,1-9.2,1c-5.2,0-8.9-1.2-10.8-2.5c-0.9-0.7-1.7-1.6-2.2-2.9c-0.5-1.2-0.8-2.3-0.9-3.2
		c-0.1-0.9-0.1-2.2-0.1-3.7V538.1z"/>
	<path id="XMLID_66_" class="st1" d="M1076.8,570.8v-32.7h6.3v32.7h13.7v-32.7h6.3v38.6h-46.3v-38.6h6.3v32.7H1076.8z"/>
	<path id="XMLID_68_" class="st1" d="M1157.9,586.1v-9.5h-45.5v-38.6h6.3v32.7h13.7v-32.7h6.3v32.7h13.7v-32.7h6.3v32.7h5.5v15.3
		H1157.9z"/>
	<path id="XMLID_70_" class="st1" d="M1175.7,576.7V544h-9.8v-5.9h16.3v13.9h10.2c8.8,0,13.8,4.5,13.8,12.3c0,7.8-5,12.4-13.8,12.4
		H1175.7z M1191.3,571c5.9,0,8.3-2.3,8.3-6.6s-2.4-6.5-8.3-6.5h-9.1V571H1191.3z"/>
	<path id="XMLID_73_" class="st1" d="M1213.6,576.7v-38.6h6.5v13.9h9.2c8.8,0,13.9,4.5,13.9,12.3c0,7.8-5.1,12.4-13.9,12.4H1213.6z
		 M1228.2,571c5.9,0,8.3-2.3,8.3-6.6s-2.4-6.5-8.3-6.5h-8.2V571H1228.2z M1247.9,538.1h6.5v38.6h-6.5V538.1z"/>
	<path id="XMLID_77_" class="st1" d="M1263.7,576.7v-38.6h6.5v13.9h10.2c8.7,0,13.8,4.5,13.8,12.3c0,7.8-5.1,12.4-13.8,12.4H1263.7z
		 M1279.3,571c5.9,0,8.3-2.3,8.3-6.6s-2.4-6.5-8.3-6.5h-9.1V571H1279.3z"/>
	<path id="XMLID_80_" class="st1" d="M1306.1,565.7c1,3.6,4.3,5.8,8.9,5.8c6.9,0,10.7-4.8,11.2-11.7H1310v-5.8h16.1
		c-0.7-6.5-4.5-10.9-11-10.9c-4.5,0-7.4,1.7-8.6,5.2h-6.8c0.7-3.3,2.4-6,5.2-8s6.1-3,10.1-3c5.7,0,10,1.8,13.2,5.6
		c3.2,3.7,4.8,8.5,4.8,14.4c0,5.9-1.6,10.7-4.8,14.4c-3.2,3.7-7.6,5.6-13.3,5.6c-4.2,0-7.7-1.1-10.5-3.2c-2.8-2.2-4.5-5-5.1-8.5
		H1306.1z"/>
	<path id="XMLID_82_" class="st1" d="M1385.4,543.1c3.2,3.7,4.8,8.5,4.8,14.4s-1.6,10.6-4.8,14.4c-3.2,3.7-7.6,5.6-13.3,5.6
		c-5.2,0-9.5-1.6-12.6-4.9c-3.1-3.2-4.9-7.5-5.3-12.7h-7.2v16.8h-6.5v-38.6h6.5v15.7h7.4c0.6-4.9,2.5-8.9,5.6-11.8
		c3.1-3,7.2-4.5,12.2-4.5C1377.8,537.4,1382.3,539.3,1385.4,543.1z M1380.6,567.5c1.9-2.6,2.9-6,2.9-10.1s-1-7.5-2.9-10.1
		c-1.9-2.6-4.8-4-8.5-4c-3.7,0-6.6,1.3-8.5,4c-1.9,2.6-2.9,6-2.9,10.1s1,7.5,2.9,10.1c1.9,2.6,4.8,4,8.5,4
		C1375.9,571.5,1378.7,570.2,1380.6,567.5z"/>
	<path id="XMLID_85_" class="st1" d="M1427,538.1v38.6h-6.5v-15.3h-9c-1.5,0-2.6-0.1-3.4-0.1l-5.5,15.4h-6.6l5.9-16.8
		c-3.8-1.9-5.8-5.3-5.8-10.1c0-7.3,4.9-11.6,13.1-11.6H1427z M1420.5,555.7v-11.9h-10.2c-5.2,0-7.5,2-7.5,5.9s2.5,5.9,7.5,5.9
		H1420.5z"/>
	<path id="XMLID_88_" class="st1" d="M765.5,666.7v-2.5h-1.3c-1.7,2.2-4.4,3.2-8.1,3.2c-3,0-5.4-0.9-7.2-2.6
		c-1.8-1.8-2.6-3.9-2.6-6.4c0-2.5,0.9-4.6,2.7-6.5s4.5-2.8,8.2-2.8h8.1v-0.8c0-3.2-1.9-5-5.8-5c-3.4,0-5.2,1.2-5.5,3.5h-6
		c0.3-5.1,4.8-8.3,11.3-8.3c7.4,0,11.9,3.3,11.9,9.9v18.3H765.5z M763.2,660.4c1.4-1.4,2.1-3,2.1-4.9v-2.1h-7
		c-3.8,0-5.8,1.7-5.8,4.5c0,2.8,2.1,4.4,5.6,4.4C760.1,662.4,761.8,661.8,763.2,660.4z"/>
	<path id="XMLID_91_" class="st1" d="M802,643.7c2.4,2.6,3.6,5.9,3.6,9.9c0,4-1.3,7.3-3.8,9.9c-2.5,2.6-5.9,3.9-10.1,3.9
		c-8.9,0-14-6-14-16.8c0-5,0.4-8.7,1.9-12.7c1.5-3.9,4.5-6.5,9-7.2l7.2-1.2c2.1-0.4,2.6-0.6,2.7-2.1h5.2c-0.2,3.7-1.3,6.1-5.5,6.8
		l-8.7,1.4c-4.2,0.6-5.9,3.2-6.8,7.9h1.3c1.9-2.5,4.9-3.8,8.7-3.8C796.5,639.8,799.7,641.1,802,643.7z M797.4,659.7
		c1.3-1.7,2-3.8,2-6.2c0-4.9-2.8-8.6-7.8-8.6c-5.1,0-7.8,3.7-7.8,8.6c0,2.4,0.6,4.5,2,6.2c1.4,1.7,3.3,2.5,5.8,2.5
		S796,661.3,797.4,659.7z"/>
	<path id="XMLID_94_" class="st1" d="M832.7,652.8c2.8,0.7,4.6,3,4.6,6.4c0,5-3.5,7.6-9.7,7.6h-15.2v-27.5h14.7c5.6,0,8.7,2.6,8.7,7
		c0,2.4-1.4,4.5-3.1,5.3V652.8z M818.4,643.9v6.5h7.4c2.6,0,3.9-1.3,3.9-3.2c0-2.2-1.3-3.2-3.9-3.2H818.4z M826.4,662
		c3.1,0,4.7-1.2,4.7-3.6c0-2.4-1.6-3.7-4.7-3.7h-8v7.3H826.4z"/>
	<path id="XMLID_98_" class="st1" d="M844.1,666.7v-27.5h21.4v5.2h-15.3v22.3H844.1z"/>
	<path id="XMLID_100_" class="st1" d="M894.2,661.5h5v12.9h-5.8v-7.7h-22v7.7h-5.8v-12.9h3.9c1.9-4.5,2.9-9.3,2.9-14.6v-7.7h22
		V661.5z M888.1,661.5v-17.1h-10.3v2.6c0,5.5-0.8,10.3-2.5,14.5H888.1z"/>
	<path id="XMLID_103_" class="st1" d="M929.5,653.5h-20.3c0.2,5.8,2.8,8.7,7.7,8.7c3.2,0,5.2-1.2,6-3.5h6.2
		c-1.1,5.2-5.3,8.7-12.3,8.7c-4.3,0-7.6-1.4-10-4c-2.4-2.7-3.7-6.2-3.7-10.6s1.2-7.8,3.6-10.4c2.4-2.6,5.8-3.9,9.9-3.9
		c3.9,0,7.1,1.2,9.3,3.7c2.3,2.4,3.5,5.5,3.5,9.2V653.5z M909.4,648.9h13.8c-0.4-3.2-2.8-5.6-6.6-5.6
		C912.6,643.4,910.1,645.5,909.4,648.9z"/>
	<path id="XMLID_106_" class="st1" d="M961,653.5h-20.3c0.2,5.8,2.8,8.7,7.7,8.7c3.2,0,5.2-1.2,6-3.5h6.2c-1.1,5.2-5.3,8.7-12.3,8.7
		c-4.3,0-7.6-1.4-10-4c-2.4-2.7-3.7-6.2-3.7-10.6s1.2-7.8,3.6-10.4c2.4-2.6,5.8-3.9,9.9-3.9c3.9,0,7.1,1.2,9.3,3.7
		c2.3,2.4,3.5,5.5,3.5,9.2V653.5z M945.8,633.8h-5.5v-5.9h5.5V633.8z M940.9,648.9h13.8c-0.4-3.2-2.8-5.6-6.6-5.6
		C944,643.4,941.6,645.5,940.9,648.9z M956,633.8h-5.4v-5.9h5.4V633.8z"/>
	<path id="XMLID_111_" class="st1" d="M976.9,655.2l-5.2,11.4h-6.3l6.4-14.1l-6-13.3h6.2l4.9,10.9h6.1v-10.9h5.7v10.9h6.1l4.8-10.9
		h6.2l-5.9,13.3l6.4,14.1h-6.3l-5.1-11.4h-6.1v11.4H983v-11.4H976.9z"/>
	<path id="XMLID_113_" class="st1" d="M1022.9,643.7c-3.4,0-5.4,1.2-5.9,3.5h-5.7c0.5-5.6,5.1-8.7,11.9-8.7c6.9,0,11.1,3.3,11.1,7.8
		c0,2.9-0.9,4.6-2.8,5.4v1.3c2.4,0.7,3.7,2.7,3.7,5.9c0,2.4-1.1,4.5-3.2,6.1c-2.1,1.6-5,2.4-8.6,2.4c-7.8,0-12.3-3.3-13-8.9h5.7
		c0.7,2.5,3.1,3.7,7,3.7c4,0,6-1.2,6-3.6c0-2.3-1.7-3.4-5.2-3.4h-4.7v-5h4.4c3.1,0,4.6-1.1,4.6-3.2S1026.2,643.7,1022.9,643.7z"/>
	<path id="XMLID_115_" class="st1" d="M1049.1,666.7h-6.9v-27.5h5.9v18.1h1.3l11.3-18.1h7.1v27.5h-5.9v-18.1h-1.3L1049.1,666.7z"/>
	<path id="XMLID_117_" class="st1" d="M1083.1,666.7h-6.9v-27.5h5.9v18.1h1.3l11.3-18.1h7.1v27.5h-5.9v-18.1h-1.3L1083.1,666.7z
		 M1098.1,627.8c-0.3,5-3.6,8-9.1,8c-5.6,0-8.9-3-9.1-8h4.8c0.2,2.6,1.6,3.9,4.3,3.9s4.2-1.3,4.3-3.9H1098.1z"/>
	<path id="XMLID_120_" class="st1" d="M1129.2,666.7l-5.8-11.5h-7.1v11.5h-6.1v-27.5h6.1V650h7.2l5.5-10.8h6.3l-6.8,13.2l7.1,14.3
		H1129.2z"/>
	<path id="XMLID_122_" class="st1" d="M1138.9,666.7v-5.8h1c3.7,0,5.2-2.6,5.2-10.6v-11.1h22.2v27.5h-6.1v-22.3h-10.5v6.1
		c0,5.9-0.9,10.2-2.6,12.6c-1.7,2.4-4.4,3.6-8.3,3.6H1138.9z"/>
	<path id="XMLID_124_" class="st1" d="M1175.8,666.7v-27.5h8.7l6.2,12h1.3l6.1-12h8.6v27.5h-5.9v-19.8h-1.3l-5.3,10.3h-5.7
		l-5.3-10.3h-1.3v19.8H1175.8z"/>
	<path id="XMLID_126_" class="st1" d="M1240.6,666.7h-6.1v-11.5h-13.3v11.5h-6.1v-27.5h6.1V650h13.3v-10.8h6.1V666.7z"/>
	<path id="XMLID_128_" class="st1" d="M1271.3,663.4c-2.5,2.6-5.8,4-10.1,4c-4.3,0-7.6-1.4-10.2-4c-2.5-2.7-3.7-6.2-3.7-10.5
		c0-4.3,1.2-7.7,3.7-10.4c2.5-2.7,5.9-4,10.2-4c4.3,0,7.6,1.3,10.1,4c2.5,2.6,3.8,6.1,3.8,10.4
		C1275.1,657.2,1273.9,660.7,1271.3,663.4z M1261.2,643.7c-5,0-7.8,4-7.8,9.2c0,5.2,2.8,9.3,7.8,9.3c5,0,7.8-4,7.8-9.3
		C1269,647.7,1266.3,643.7,1261.2,643.7z"/>
	<path id="XMLID_131_" class="st1" d="M1307.2,666.7h-6.1v-22.3H1288v22.3h-6.1v-27.5h25.3V666.7z"/>
	<path id="XMLID_133_" class="st1" d="M1315.6,639.2h5.9v2.6h1.3c1.8-2.2,4.5-3.3,8.1-3.3s6.5,1.3,8.6,4c2.2,2.7,3.2,6.2,3.2,10.4
		c0,4.3-1.1,7.7-3.2,10.4c-2.1,2.7-5,4-8.6,4c-3.6,0-6.2-1.1-7.9-3.3h-1.3v13.4h-6.1V639.2z M1321.6,652.9c0,5.2,2.6,9.3,7.6,9.3
		c4.8,0,7.5-3.7,7.5-9.3c0-5.6-2.7-9.2-7.5-9.2C1324.1,643.7,1321.6,647.7,1321.6,652.9z"/>
	<path id="XMLID_136_" class="st1" d="M1373.7,657.9c-0.9,5.8-5.6,9.5-12.1,9.5c-4.2,0-7.6-1.4-10-4c-2.4-2.6-3.6-6.2-3.6-10.5
		c0-4.3,1.2-7.8,3.6-10.4c2.4-2.6,5.8-4,10-4c6.5,0,11.1,3.6,11.9,9.1h-6c-0.8-2.6-2.8-3.9-5.8-3.9c-5.1,0-7.6,3.8-7.6,9.2
		c0,5.5,2.4,9.3,7.6,9.3c3.3,0,5.3-1.5,6-4.3H1373.7z"/>
	<path id="XMLID_138_" class="st1" d="M1377.7,644.4v-5.2h24.6v5.2h-9.2v22.3h-6.1v-22.3H1377.7z"/>
	<path id="XMLID_140_" class="st1" d="M1417.1,677.5h-6.2l5.7-13.5l-11.7-24.8h6.4l7.7,16.6h1.4l7-16.6h6.3L1417.1,677.5z"/>
	<path id="XMLID_142_" class="st1" d="M767.4,743.5h-6v-10.8h-0.6c-4.4-0.1-7.8-1.3-10.3-3.8c-2.4-2.5-3.7-5.8-3.7-9.9
		c0-4,1.2-7.3,3.6-9.8c2.4-2.5,5.8-3.8,10.2-3.9h0.8v-11.8h6v11.8h0.8c4.3,0.1,7.7,1.3,10.2,3.9c2.4,2.5,3.7,5.8,3.7,9.8
		c0,8.4-5.3,13.8-14.6,13.8V743.5z M760.7,727.8h0.7v-17.7h-0.6c-5.2,0.1-8,3.8-8,8.8C752.7,724.1,755.5,727.7,760.7,727.8z
		 M767.4,727.8h0.6c5.2-0.1,8-3.7,8-8.9c0-5-2.9-8.7-8-8.8h-0.6V727.8z"/>
	<path id="XMLID_146_" class="st1" d="M806.5,732.7l-6-10.8h-2l-6.2,10.8h-6.5l8.2-14.1l-7.4-13.4h6.4l5.6,10.2h2l5.7-10.2h6.3
		l-7.5,13.2l8.1,14.3H806.5z"/>
	<path id="XMLID_148_" class="st1" d="M838.2,705.2h6.1v22.3h4.9v12.9h-5.8v-7.7h-24.2v-27.5h6.1v22.3h12.9V705.2z"/>
	<path id="XMLID_150_" class="st1" d="M853.2,705.2h6.1v7.9c0,1.5,0.1,2.2,0.8,3.2c0.7,1,2.4,1.5,5.2,1.5c1.9,0,3.9-0.2,6-0.6v-12
		h6.2v27.5h-6.2v-10.4c-2.3,0.5-4.9,0.8-7.7,0.8c-3.7,0-6.4-0.8-7.8-1.9c-2.3-1.9-2.6-4.4-2.6-7.2V705.2z"/>
	<path id="XMLID_152_" class="st1" d="M916.7,705.2h5.9v27.5h-36.7v-27.5h5.9v22.3h9.5v-22.3h5.9v22.3h9.5V705.2z"/>
	<path id="XMLID_154_" class="st1" d="M961.8,705.2h5.9v22.3h5v12.9h-5.8v-7.7H931v-27.5h5.9v22.3h9.5v-22.3h5.9v22.3h9.5V705.2z"/>
	<path id="XMLID_156_" class="st1" d="M975,710.4v-5.2h14.1v8.5h7.4c6.9,0,10.7,3.5,10.7,9.3c0,6-3.9,9.6-10.7,9.6h-13.5v-22.3H975z
		 M995.7,727.5c3.9,0,5.5-1.6,5.5-4.4c0-3-1.5-4.4-5.5-4.4h-6.5v8.9H995.7z"/>
	<path id="XMLID_159_" class="st1" d="M1013.6,705.2h6.1v8.5h6.9c6.9,0,10.7,3.5,10.7,9.3c0,6-3.8,9.6-10.7,9.6h-13V705.2z
		 M1019.7,718.7v8.9h6c3.9,0,5.5-1.6,5.5-4.4c0-3-1.5-4.4-5.5-4.4H1019.7z M1041.5,705.2h6.1v27.5h-6.1V705.2z"/>
	<path id="XMLID_163_" class="st1" d="M1062.1,705.2v8.5h7.4c6.9,0,10.7,3.5,10.7,9.3c0,6-3.8,9.6-10.7,9.6H1056v-27.5H1062.1z
		 M1068.7,727.5c3.9,0,5.5-1.6,5.5-4.4c0-3-1.5-4.4-5.5-4.4h-6.5v8.9H1068.7z"/>
	<path id="XMLID_166_" class="st1" d="M1090.7,724.3c0.6,2.6,2.8,3.9,6.5,3.9c4.4,0,7-2.7,7.4-7h-11v-5h10.9c-0.4-3.9-3-6.6-7.3-6.6
		c-3.5,0-5.5,1.2-6.2,3.5h-5.8c1-5.2,5.6-8.7,12-8.7c4.2,0,7.5,1.3,9.9,4c2.4,2.6,3.7,6.2,3.7,10.4c0,4.4-1.2,7.9-3.7,10.5
		c-2.4,2.6-5.8,3.9-9.9,3.9c-3.3,0-6-0.8-8.3-2.5s-3.6-3.9-4-6.6H1090.7z"/>
	<path id="XMLID_168_" class="st1" d="M1152.6,708.6c2.5,2.7,3.8,6.2,3.8,10.3c0,4.2-1.2,7.7-3.8,10.4c-2.5,2.7-5.8,4-9.9,4
		c-3.7,0-6.8-1.1-9.2-3.3c-2.4-2.3-3.8-5.2-4.3-8.9h-5.6v11.6h-6v-27.5h6V716h5.8c0.5-3.4,2-6.2,4.4-8.3c2.4-2.1,5.3-3.2,9-3.2
		C1146.8,704.5,1150.1,705.9,1152.6,708.6z M1150.3,718.9c0-5.2-2.6-9.2-7.6-9.2c-5,0-7.7,4-7.7,9.2c0,5.3,2.6,9.3,7.7,9.3
		C1147.6,728.2,1150.3,724.2,1150.3,718.9z"/>
	<path id="XMLID_171_" class="st1" d="M1186.5,705.2v27.5h-6.1v-10h-6.5c-0.9,0-1.5,0-1.9-0.1l-3.8,10h-6.2l4.4-11.3
		c-2.8-1.5-4.2-3.9-4.2-7.3c0-5.5,3.8-8.8,10.4-8.8H1186.5z M1180.4,718v-7.8h-7.2c-3.2,0-4.9,1.3-4.9,3.9c0,2.6,1.6,3.9,4.9,3.9
		H1180.4z"/>
	<path id="XMLID_174_" class="st1" d="M761.3,784.1c4.3,0,7.8,1.6,10.4,4.9c2.6,3.3,3.9,8.2,3.9,14.7s-1.3,11.4-3.9,14.7
		c-2.6,3.2-6.1,4.9-10.4,4.9s-7.8-1.6-10.4-4.9c-2.6-3.3-3.9-8.2-3.9-14.7s1.3-11.4,3.9-14.7C753.5,785.8,757,784.1,761.3,784.1z
		 M761.3,817.8c2.8,0,4.9-1.3,6.1-3.8c1.3-2.5,1.9-5.9,1.9-10.2s-0.6-7.6-1.9-10.2c-1.2-2.6-3.3-3.9-6.1-3.9c-2.8,0-4.9,1.3-6.2,3.9
		c-1.2,2.5-1.9,5.9-1.9,10.2s0.6,7.6,1.9,10.2C756.5,816.5,758.5,817.8,761.3,817.8z"/>
	<path id="XMLID_177_" class="st1" d="M781.5,822.7v-5.5h8.7v-25.9H789l-7.5,5.1v-6.3l7.6-5.2h7.5v32.3h8v5.5H781.5z"/>
	<path id="XMLID_179_" class="st1" d="M809.2,795.8c0.4-7.6,5.5-11.7,13.2-11.7c3.8,0,6.9,1,9.2,3.1c2.3,2.1,3.5,5,3.5,8.7
		c0,4.5-2.5,8.7-7.7,12.9l-8.7,7.1v1.3h17.5v5.5h-26.9v-6.8l13.6-10.7c3.6-2.8,6-5.6,6-9.2c0-4-2.5-6.3-6.5-6.3c-3.8,0-6.4,2-6.8,6
		H809.2z"/>
	<path id="XMLID_181_" class="st1" d="M842.7,784.9h23.2v6.6l-8.2,6.6v1.4c5.9,0.4,10.1,4.4,10.1,11.2c0,3.9-1.3,7-3.9,9.3
		c-2.5,2.3-5.9,3.4-10,3.4c-4,0-7.2-1.1-9.8-3.3s-3.9-5.1-4.1-8.5h6.3c0.4,3.8,3.4,6.2,7.5,6.2c4.7,0,7.6-2.7,7.6-7.1
		s-2.8-7.1-7.6-7.1c-1.4,0-2.5,0.1-3.4,0.3v-5.7l8.2-6.6v-1.3h-16V784.9z"/>
	<path id="XMLID_183_" class="st1" d="M896.7,808.7h4.9v5.5h-4.9v8.5h-6.1v-8.5h-18.4v-6.8l16.6-22.5h7.8V808.7z M878.5,808.7h12.3
		V792h-1.3l-11,15.4V808.7z"/>
	<path id="XMLID_186_" class="st1" d="M930.8,800.7c2.3,2.4,3.4,5.4,3.4,9.1c0,4-1.2,7.3-3.8,9.9c-2.5,2.5-5.8,3.7-9.7,3.7
		c-8.3,0-13.3-4.8-13.8-11.8h6.3c0.5,4,3.1,6.2,7.3,6.2c4.5,0,7.4-3,7.4-7.8c0-4.8-2.9-7.8-7.3-7.8c-3,0-5.2,1.1-6.8,3.2h-6
		l1.7-20.5H932v5.3h-17.5l-0.7,9.2h1.3c1.9-1.6,4.3-2.4,7-2.4C925.6,797.1,928.5,798.3,930.8,800.7z"/>
	<path id="XMLID_188_" class="st1" d="M964,801.3c2.3,2.3,3.5,5.3,3.5,8.9c0,3.7-1.2,6.9-3.7,9.4c-2.4,2.5-5.7,3.8-9.7,3.8
		c-4.5,0-8-1.5-10.6-4.5c-2.6-3-3.9-7.7-3.9-14.3c0-4,0.5-7.5,1.5-10.5c2.1-6,6.7-10,13.3-10c3.2,0,5.9,0.9,8.1,2.7
		c2.2,1.8,3.5,4,3.9,6.8h-6.2c-0.8-2.8-2.8-4.2-5.9-4.2c-5.2,0-8.4,4.2-8.7,11.6h1.3c1.9-2.2,4.6-3.3,8.4-3.3
		C958.8,797.8,961.7,799,964,801.3z M954,803c-4.3,0-7.2,2.6-7.2,7.3c0,4.8,3,7.6,7.3,7.6c4.3,0,7.2-2.8,7.2-7.6
		C961.2,805.7,958.2,803,954,803z"/>
	<path id="XMLID_191_" class="st1" d="M997.2,791.6l-15.7,31.1h-6.6l15.8-31.1v-1.3h-18.5v-5.5h24.9V791.6z"/>
	<path id="XMLID_193_" class="st1" d="M1025.2,803.4c3,1.1,5.7,4.3,5.7,8.9c0,3.2-1.3,5.9-3.8,8c-2.5,2.1-5.9,3.2-10.3,3.2
		c-4.4,0-7.8-1.1-10.4-3.2c-2.5-2.1-3.8-4.8-3.8-8c0-4.5,2.8-7.7,5.7-8.9v-1.3c-2.4-1.2-4.5-3.9-4.5-7.8c0-3,1.2-5.4,3.6-7.3
		c2.4-1.9,5.5-2.9,9.4-2.9c3.9,0,7,1,9.3,2.9c2.4,1.9,3.6,4.3,3.6,7.3c0,3.8-2.2,6.5-4.5,7.8V803.4z M1024.7,811.6
		c0-3.8-3-6.4-7.9-6.4c-5,0-7.9,2.5-7.9,6.4s2.9,6.4,7.9,6.4C1021.7,818,1024.7,815.5,1024.7,811.6z M1016.8,800.4
		c3.9,0,6.8-2.2,6.8-5.6c0-3.4-2.9-5.6-6.8-5.6c-3.9,0-6.9,2.3-6.9,5.6C1009.9,798.2,1012.8,800.4,1016.8,800.4z"/>
	<path id="XMLID_197_" class="st1" d="M1039.2,806.3c-2.3-2.3-3.5-5.3-3.5-9c0-3.7,1.2-6.9,3.7-9.4s5.7-3.8,9.7-3.8
		c4.5,0,8,1.5,10.6,4.5c2.6,3,3.9,7.7,3.9,14.3c0,4-0.5,7.5-1.6,10.5c-2,6-6.6,10-13.3,10c-3.2,0-5.9-0.9-8.1-2.7s-3.5-4-3.9-6.8
		h6.2c0.8,2.8,2.8,4.2,5.9,4.2c5.2,0,8.4-4.2,8.7-11.6h-1.3c-1.9,2.2-4.6,3.3-8.4,3.3C1044.4,809.7,1041.5,808.6,1039.2,806.3z
		 M1049.3,804.5c4.3,0,7.2-2.6,7.2-7.3c0-4.8-3-7.6-7.3-7.6c-4.3,0-7.2,2.8-7.2,7.6C1042.1,801.8,1045,804.5,1049.3,804.5z"/>
	<path id="XMLID_200_" class="st1" d="M755,868.4h-7v-7.2h7V868.4z M755,888.7h-7v-7.2h7V888.7z"/>
	<path id="XMLID_203_" class="st1" d="M766.2,888.7H763v-7.2h7v8.4l-3.6,5.8h-3.8l3.6-5.8V888.7z M770,868.4h-7v-7.2h7V868.4z"/>
	<path id="XMLID_206_" class="st1" d="M784.9,888.7h-7v-7.2h7V888.7z"/>
	<path id="XMLID_208_" class="st1" d="M796,888.7h-3.2v-7.2h7v8.4l-3.6,5.8h-3.8l3.6-5.8V888.7z"/>
	<path id="XMLID_210_" class="st1" d="M831,860.3c0,1.7-0.3,3.2-1,4.6c-0.6,1.4-1.3,2.4-2.1,3.1c-0.8,0.7-1.9,1.6-3.5,2.8
		c-1.3,1-2.3,1.8-2.8,2.5c-0.5,0.7-0.7,1.7-0.7,3.1v1.5h-6.2v-1.5c0-2.1,0.4-3.8,1.2-5c0.8-1.2,2.3-2.7,4.5-4.4
		c1.1-0.8,1.8-1.5,2.3-1.9c0.9-0.9,2-2.6,2-4.7c0-3-2.3-5.5-6-5.5c-4.2,0-6.3,2.1-6.5,6.4H806c0.1-3.5,1.2-6.4,3.4-8.5
		s5.3-3.2,9.2-3.2C826.4,849.4,831,853.8,831,860.3z M821.3,888.7h-7v-7.2h7V888.7z"/>
	<path id="XMLID_213_" class="st1" d="M839.4,896.3H834l16.3-48.6h5.2L839.4,896.3z"/>
	<path id="XMLID_215_" class="st1" d="M869.4,888.7h-7v-7.2h7V888.7z M862.8,850.1h6.2v15.8l-1.1,11.9h-3.9l-1.1-11.9V850.1z"/>
	<path id="XMLID_218_" class="st1" d="M913.5,894.9c-4.2,2.8-8.9,4.1-14.2,4.1c-6.6,0-11.8-2-15.8-6c-3.9-3.9-5.8-9.2-5.8-15.7
		c0-7.5,2.4-13.7,7.1-18.6c4.7-5,10.9-7.5,18.4-7.5c3.9,0,7.5,0.8,10.6,2.3c6.5,3,10.9,9.3,10.9,17.3c0,4.5-1.1,8.3-3.2,11.4
		c-2.1,3.1-5.1,4.6-8.9,4.6c-3.3,0-5.5-1-6.4-3.1h-1.1c-1.8,2.1-4.1,3.1-6.9,3.1c-5.4,0-8.7-3.7-8.7-9.8c0-3.7,1.1-6.8,3.2-9.5
		c2.2-2.6,5-4,8.4-4c2.6,0,4.7,1.2,5.5,2.5h1.1l0.4-1.8h5l-2.3,13.7c-0.2,1.2-0.3,2.1-0.3,2.6c0,1.8,1,2.8,3,2.8s3.7-1.1,5.2-3.3
		s2.3-5.3,2.3-9.4c0-4.9-1.7-8.8-5-11.8c-3.3-3-7.8-4.5-13.4-4.5c-6.2,0-11.3,2.1-15.3,6.3s-6,9.7-6,16.5c0,3.3,0.6,6.4,1.8,9.1
		c2.4,5.4,8.3,9.4,16.5,9.4c4.5,0,8.6-1.2,12.4-3.7L913.5,894.9z M904.3,880c1.2-1.7,1.9-3.9,1.9-6.5c0-3.8-1.5-5.7-4.6-5.7
		c-1.9,0-3.5,0.9-4.8,2.8c-1.2,1.8-1.8,3.9-1.8,6.3c0,3.6,1.5,5.7,4.5,5.7C901.5,882.6,903.1,881.7,904.3,880z"/>
	<path id="XMLID_221_" class="st1" d="M943.2,870.6v-11.2h5.2v11.2h11.2v5.2h-11.2V887h-5.2v-11.2H932v-5.2H943.2z"/>
	<path id="XMLID_223_" class="st1" d="M980.7,896.3h-5.5c-5.7-6.9-8.5-15-8.5-24.5c0-9.3,2.8-17.3,8.3-24.1h5.5
		c-5.6,7.7-8.3,15.7-8.3,24.1C972.1,880.5,974.9,888.6,980.7,896.3z"/>
	<path id="XMLID_225_" class="st1" d="M981.4,847.7h5.5c5.5,6.8,8.3,14.8,8.3,24.1c0,9.5-2.9,17.6-8.5,24.5h-5.5
		c5.7-7.7,8.6-15.8,8.6-24.5C989.7,863.4,986.9,855.4,981.4,847.7z"/>
	<path id="XMLID_227_" class="st1" d="M1005.4,873.4h-5.7l11.1-22.1h4.2l11.1,22.1h-5.6l-7-14h-1.1L1005.4,873.4z"/>
	<path id="XMLID_229_" class="st1" d="M1039.4,850.1c2.9,0,5,1,6.5,2.9c1.6,1.9,2.3,4.4,2.3,7.3s-0.8,5.5-2.3,7.3
		c-1.5,1.9-3.7,2.9-6.5,2.9s-5-1-6.5-2.9c-1.5-1.9-2.3-4.4-2.3-7.3s0.8-5.5,2.3-7.3C1034.4,851.1,1036.5,850.1,1039.4,850.1z
		 M1043.9,860.3c0-3.7-1.5-6.3-4.5-6.3c-2.9,0-4.4,2.5-4.4,6.3c0,3.8,1.6,6.3,4.4,6.3C1042.4,866.6,1043.9,864.2,1043.9,860.3z
		 M1043,888.7h-4.8l22.9-37.8h4.8L1043,888.7z M1064.6,869c2.9,0,5,1,6.5,2.9c1.6,1.9,2.3,4.4,2.3,7.3c0,3-0.8,5.5-2.3,7.3
		c-1.5,1.9-3.7,2.9-6.5,2.9s-5-1-6.6-2.9c-1.5-1.9-2.3-4.4-2.3-7.3c0-3,0.8-5.5,2.3-7.3C1059.6,870,1061.8,869,1064.6,869z
		 M1060.1,879.2c0,1.9,0.4,3.5,1.1,4.6c0.8,1.1,1.9,1.7,3.3,1.7s2.6-0.6,3.3-1.7c0.8-1.1,1.1-2.6,1.1-4.5c0-3.7-1.6-6.3-4.5-6.3
		C1061.7,872.9,1060.1,875.5,1060.1,879.2z"/>
	<path id="XMLID_235_" class="st1" d="M1079.4,861h6.2l1.6-10.1h4.9l-1.6,10.1h6.7l1.6-10.1h4.9l-1.6,10.1h5.3v4.8h-6l-1.3,8.2h5.5
		v4.8h-6.2l-1.6,10h-5l1.6-10h-6.7l-1.6,10h-5l1.6-10h-5.3v-4.8h6l1.3-8.2h-5.5V861z M1089.8,865.7l-1.3,8.2h6.7l1.3-8.2H1089.8z"/>
	<path id="XMLID_238_" class="st1" d="M1139.7,850.9h5.9v37.8h-8.9l-15.7-28.6h-1.3v28.6h-5.9v-37.8h8.9l15.7,28.6h1.3V850.9z
		 M1159.6,850.1c2.9,0,5,1,6.5,2.9c1.6,1.9,2.3,4.4,2.3,7.3s-0.8,5.5-2.3,7.3c-1.5,1.9-3.7,2.9-6.5,2.9s-5-1-6.5-2.9
		c-1.5-1.9-2.3-4.4-2.3-7.3s0.8-5.5,2.3-7.3C1154.5,851.1,1156.7,850.1,1159.6,850.1z M1168.5,877.6h-17.7v-3.8h17.7V877.6z
		 M1164,860.3c0-3.7-1.5-6.3-4.5-6.3c-2.9,0-4.4,2.5-4.4,6.3c0,3.8,1.6,6.3,4.4,6.3C1162.5,866.6,1164,864.2,1164,860.3z"/>
	<path id="XMLID_243_" class="st1" d="M1178.7,857.4h-3.2v-7.2h7v8.4l-3.6,5.8h-3.8l3.6-5.8V857.4z M1189.4,857.4h-3.2v-7.2h7v8.4
		l-3.6,5.8h-3.8l3.6-5.8V857.4z"/>
	<path id="XMLID_246_" class="st1" d="M1207.3,872.7c2.2,0.7,3.3,2.6,3.3,5.9v7.6c0,3.7,1.6,5.5,4.8,5.5h1.8v4.6h-2.6
		c-5.8,0-9.5-3.5-9.5-9.2v-7.5c0-3.5-1-5.1-3.6-5.1h-1v-4.9h1c2.6,0,3.6-1.7,3.6-5.1v-7.5c0-5.8,3.7-9.2,9.5-9.2h2.6v4.6h-1.8
		c-3.2,0-4.8,1.8-4.8,5.5v7.6c0,3.2-1.1,5.2-3.3,5.9V872.7z"/>
	<path id="XMLID_248_" class="st1" d="M1231.2,871.4c-2.2-0.7-3.3-2.6-3.3-5.9v-7.6c0-3.7-1.6-5.5-4.8-5.5h-1.8v-4.6h2.6
		c5.8,0,9.5,3.5,9.5,9.2v7.5c0,3.5,1,5.1,3.6,5.1h1v4.9h-1c-2.6,0-3.6,1.7-3.6,5.1v7.5c0,5.8-3.7,9.2-9.5,9.2h-2.6v-4.6h1.8
		c3.2,0,4.8-1.8,4.8-5.5v-7.6c0-3.2,1.1-5.2,3.3-5.9V871.4z"/>
	<path id="XMLID_250_" class="st1" d="M1252.3,850.1h4.4l-0.3,8.9l8.4-3.1l1.4,4.3l-8.5,2.5l5.5,7l-3.6,2.7l-5-7.3l-4.9,7.3
		l-3.6-2.7l5.4-7l-8.5-2.5l1.4-4.3l8.3,3.1L1252.3,850.1z"/>
	<path id="XMLID_252_" class="st1" d="M760.3,927.2h7.3l-9.9,9.8v1.3h27.4v5.3h-27.4v1.3l9.9,9.8h-7.3L746.5,941L760.3,927.2z"/>
	<path id="XMLID_254_" class="st1" d="M792.6,937.2V930l13.8-13.8l13.7,13.8v7.3l-9.8-9.9H809v27.4h-5.3v-27.4h-1.3L792.6,937.2z"/>
	<path id="XMLID_256_" class="st1" d="M845.1,927.2h7.3l13.8,13.8l-13.8,13.7h-7.3l9.9-9.8v-1.3h-27.4v-5.3h27.4V937L845.1,927.2z"
		/>
	<path id="XMLID_258_" class="st1" d="M900.5,933.6v7.2l-13.8,13.8L873,940.9v-7.3l9.8,9.9h1.3v-27.4h5.3v27.4h1.3L900.5,933.6z"/>
	<path id="XMLID_260_" class="st1" d="M914.6,940.7l-5.1-5.1v-19.5h19.4l5.2,5.1h-13.9l-0.9,0.9l19.4,19.3l-3.7,3.8l-19.4-19.4
		l-0.9,0.9V940.7z"/>
	<path id="XMLID_262_" class="st1" d="M976.7,935.6l-5.1,5.1v-13.9l-0.9-0.9l-19.4,19.4l-3.7-3.8l19.4-19.3l-0.9-0.9h-13.9l5.2-5.1
		h19.4V935.6z"/>
	<path id="XMLID_264_" class="st1" d="M985.7,935.2l5.1-5.1v13.9l0.9,0.9l19.4-19.4l3.7,3.8l-19.4,19.3l0.9,0.9h13.9l-5.2,5.1h-19.4
		V935.2z"/>
	<path id="XMLID_266_" class="st1" d="M1047.8,930.1l5.1,5.1v19.5h-19.4l-5.2-5.1h13.9l0.9-0.9l-19.4-19.3l3.7-3.8l19.4,19.4
		l0.9-0.9V930.1z"/>
	<path id="XMLID_268_" class="st1" d="M1066,938.6v1.2l9,9.6h-6.6l-7.9-8.2v-4l7.9-8.3h6.6L1066,938.6z"/>
	<path id="XMLID_270_" class="st1" d="M1090,939.8v-1.2l-9-9.6h6.6l7.9,8.3v4l-7.9,8.2h-6.6L1090,939.8z"/>
	<path id="XMLID_272_" class="st1" d="M1109.7,933h4.8v3.7h-14V933h5v-12.3h-1l-4,2.4v-4.1l5-3h4.2V933z M1113.3,954.7h-4.8
		l22.9-37.8h4.8L1113.3,954.7z M1140.8,946.6h2.6v3.7h-2.6v4.4h-4.2v-4.4h-10v-4.2l9-12h5.2V946.6z M1130.9,946.6h5.9V939h-0.9
		l-5,6.8V946.6z"/>
	<path id="XMLID_277_" class="st1" d="M1156.7,933h4.8v3.7h-14V933h5v-12.3h-1l-4,2.4v-4.1l5-3h4.2V933z M1160.3,954.7h-4.8
		l22.9-37.8h4.8L1160.3,954.7z M1182.1,951h9.2v3.7h-15.8v-4.5l6.2-4.2c1-0.6,1.7-1.2,2.3-1.6c1.1-0.9,2.4-2.4,2.4-3.9
		c0-1.9-1.2-3-3.2-3c-2.3,0-3.4,1.1-3.5,3.2h-4.2c0.1-4.6,3.2-7,7.8-7c4.4,0,7.3,2.4,7.3,6.6c0,2.5-1.3,4.8-4.1,6.7l-4.4,3.1V951z"
		/>
	<path id="XMLID_281_" class="st1" d="M1206.1,924.1c2.9,0.4,5.1,2.6,5.1,6c0,4.3-3.3,7-8,7c-4.8,0-7.9-2.9-8.1-7h4.2
		c0.2,2,1.8,3.2,3.9,3.2c2.3,0,3.8-1.3,3.8-3.3c0-2.1-1.4-3.3-3.7-3.3c-0.7,0-1.3,0.1-2,0.2v-3.5l3.7-2.6v-0.9h-8.4v-3.7h13.7v4.3
		l-4.2,2.8V924.1z M1208.4,954.7h-4.8l22.9-37.8h4.8L1208.4,954.7z M1235.9,946.6h2.6v3.7h-2.6v4.4h-4.2v-4.4h-10v-4.2l9-12h5.2
		V946.6z M1226,946.6h5.9V939h-0.9l-5,6.8V946.6z"/>
</g>
</svg>
