<?xml version="1.0" encoding="utf-8"?>
<!-- Generator: Adobe Illustrator 19.0.0, SVG Export Plug-In . SVG Version: 6.00 Build 0)  -->
<svg version="1.1" id="clearspace" xmlns="http://www.w3.org/2000/svg" xmlns:xlink="http://www.w3.org/1999/xlink" x="0px" y="0px"
	 viewBox="195 -170 1350 900" style="enable-background:new 195 -170 1350 900;" xml:space="preserve">
<style type="text/css">
	.st0{fill:#36ACA7;}
	.st1{opacity:0.5;}
	.st2{fill:none;stroke:#36AFA7;stroke-width:2;stroke-miterlimit:10;}
	.st3{fill:#FFFFFF;}
	.st4{fill:#36AFA7;}
	.st5{fill:#101010;}
</style>
<g id="XMLID_31_">
	<g id="XMLID_1524_">
		<path id="XMLID_731_" class="st0" d="M1094.3-167c60.4,0,119,11.9,174.3,35.2c53.3,22.5,101.2,54.8,142.3,95.9
			c41.1,41.1,73.4,89,95.9,142.3c23.3,55.2,35.2,113.9,35.2,174.3s-11.9,119-35.2,174.3c-22.5,53.3-54.8,101.2-95.9,142.3
			c-41.1,41.1-89,73.4-142.3,95.9c-55.2,23.3-113.9,35.2-174.3,35.2c-60.4,0-119-11.9-174.3-35.2c-53.3-22.5-101.2-54.8-142.3-95.9
			c-41.1-41.1-73.4-89-95.9-142.3c-23.3-55.2-35.2-113.9-35.2-174.3c0-60.4,11.9-119,35.2-174.3c22.6-53.4,54.9-101.2,96-142.3
			c41.1-41.1,89-73.4,142.3-95.9C975.3-155.1,1033.9-167,1094.3-167 M1094.3-168c-247.8,0-448.7,200.9-448.7,448.7
			s200.9,448.7,448.7,448.7s448.7-201,448.7-448.7S1342.1-168,1094.3-168L1094.3-168z"/>
	</g>
	<g id="XMLID_1523_">
		<path id="XMLID_683_" class="st0" d="M1399.4-167c38.1,0,73.9,14.9,100.8,41.8c26.9,26.9,41.8,62.7,41.8,100.8v610.2
			c0,38.1-14.9,73.9-41.8,100.8c-26.9,26.9-62.7,41.8-100.8,41.8H789.2c-38.1,0-73.9-14.9-100.8-41.8
			c-26.9-26.9-41.8-62.7-41.8-100.8V-24.4c0-38.1,14.9-73.9,41.8-100.8c26.9-26.9,62.8-41.8,100.8-41.8H1399.4 M1399.4-168H789.2
			c-79.3,0-143.6,64.3-143.6,143.6v610.2c0,79.3,64.3,143.6,143.6,143.6h610.2c79.3,0,143.6-64.3,143.6-143.6V-24.4
			C1543-103.7,1478.7-168,1399.4-168L1399.4-168z"/>
	</g>
	<g id="XMLID_1478_" class="st1">
		<line id="XMLID_1522_" class="st2" x1="645.7" y1="665.2" x2="1543" y2="665.2"/>
		<line id="XMLID_1521_" class="st2" x1="645.7" y1="601.1" x2="1543" y2="601.1"/>
		<line id="XMLID_1520_" class="st2" x1="645.7" y1="537" x2="1543" y2="537"/>
		<line id="XMLID_1519_" class="st2" x1="645.7" y1="473" x2="1543" y2="473"/>
		<line id="XMLID_1518_" class="st2" x1="645.7" y1="408.9" x2="1543" y2="408.9"/>
		<line id="XMLID_1517_" class="st2" x1="645.7" y1="344.8" x2="1543" y2="344.8"/>
		<line id="XMLID_1516_" class="st2" x1="645.7" y1="280.7" x2="1543" y2="280.7"/>
		<line id="XMLID_1515_" class="st2" x1="645.7" y1="216.6" x2="1543" y2="216.6"/>
		<line id="XMLID_1514_" class="st2" x1="645.7" y1="152.4" x2="1543" y2="152.4"/>
		<line id="XMLID_1513_" class="st2" x1="645.7" y1="88.3" x2="1543" y2="88.3"/>
		<line id="XMLID_1512_" class="st2" x1="645.7" y1="24.3" x2="1543" y2="24.3"/>
		<line id="XMLID_1511_" class="st2" x1="645.7" y1="-39.8" x2="1543" y2="-39.8"/>
		<line id="XMLID_1497_" class="st2" x1="645.7" y1="-103.9" x2="1543" y2="-103.9"/>
		<line id="XMLID_1496_" class="st2" x1="1478.9" y1="-168" x2="1478.9" y2="729.3"/>
		<line id="XMLID_1495_" class="st2" x1="1414.8" y1="-168" x2="1414.8" y2="729.3"/>
		<line id="XMLID_1491_" class="st2" x1="1350.7" y1="-168" x2="1350.7" y2="729.3"/>
		<line id="XMLID_1490_" class="st2" x1="1286.7" y1="-168" x2="1286.7" y2="729.3"/>
		<line id="XMLID_1489_" class="st2" x1="1222.6" y1="-168" x2="1222.6" y2="729.3"/>
		<line id="XMLID_1487_" class="st2" x1="1158.4" y1="-168" x2="1158.4" y2="729.3"/>
		<line id="XMLID_1486_" class="st2" x1="1094.3" y1="-168" x2="1094.3" y2="729.3"/>
		<line id="XMLID_1485_" class="st2" x1="1030.2" y1="-168" x2="1030.2" y2="729.3"/>
		<line id="XMLID_1483_" class="st2" x1="966.1" y1="-168" x2="966.1" y2="729.3"/>
		<line id="XMLID_1482_" class="st2" x1="902" y1="-168" x2="902" y2="729.3"/>
		<line id="XMLID_1481_" class="st2" x1="838" y1="-168" x2="838" y2="729.3"/>
		<line id="XMLID_1480_" class="st2" x1="773.9" y1="-168" x2="773.9" y2="729.3"/>
		<line id="XMLID_1479_" class="st2" x1="709.8" y1="-168" x2="709.8" y2="729.3"/>
	</g>
	<g id="XMLID_1451_">
		<g id="XMLID_1575_">
			<path id="XMLID_1648_" class="st3" d="M837.2,372.2v-16.8h-8.6c-11.1,14.4-29,21.5-53.7,21.5c-20,0-35.8-5.7-47.7-17.1
				c-11.9-11.9-17.5-25.8-17.5-42.7c0-16.5,6.1-30.8,17.9-43c11.9-12.2,30.1-18.2,54.4-18.2h53.7v-5.4c0-21.1-12.6-33.3-38.3-33.3
				c-22.4,0-34.6,7.8-36.4,23.3h-40.1c1.8-34,31.9-55.1,75.2-55.1c49.1,0,78.8,21.8,78.8,65.9v121L837.2,372.2L837.2,372.2z
				 M821.8,330.6c9.3-9,14-19.7,14-32.2v-14h-46.6c-25.4,0-38.7,11.1-38.7,30.1c0,18.6,13.7,29.4,36.9,29.4
				C801,343.9,812.5,339.6,821.8,330.6z"/>
			<path id="XMLID_1646_" class="st3" d="M1016.4,189.8v37.6h-16.5c-36.9,0-56.9,21.1-56.9,59.4V372h-40.5V189.8h39.1V211h8.6
				c10.4-14,27.6-21.1,50.8-21.1h15.4V189.8z"/>
			<path id="XMLID_1581_" class="st3" d="M1073.5,189.8h43v34.4h-43V313c0,16.2,9.3,24,27.9,24h15.1v35.1h-15.8
				c-44.1,0-67.7-14.7-67.7-53.7V143.8h40.5V189.8L1073.5,189.8z"/>
			<path id="XMLID_1578_" class="st3" d="M1283.9,350.4c-16.5,17.5-38.7,26.5-67,26.5s-50.5-9-67.3-26.5
				c-16.5-17.9-24.7-41.2-24.7-69.5s8.3-51.2,24.7-68.8c16.8-17.9,39.1-26.8,67.3-26.8c28.3,0,50.5,9,67,26.8
				c16.8,17.5,25,40.5,25,68.8S1300.7,332.4,1283.9,350.4z M1216.9,219.6c-33.3,0-51.5,26.8-51.5,61.2c0,34.7,18.2,61.6,51.5,61.6
				c33.3,0,51.5-26.8,51.5-61.6C1268.4,246.5,1250.2,219.6,1216.9,219.6z"/>
			<path id="XMLID_1576_" class="st3" d="M1431.6,238.6c-2.2-13.3-14-19.7-35.8-19.7c-21.8,0-33,6.5-33,18.9
				c0,11.1,7.2,15.4,23.3,18.2l35.5,5.7c36.9,6.1,55.5,24.7,55.5,56.6c0,16.2-6.8,30.1-20.7,41.6c-13.7,11.1-32.6,16.8-57.3,16.8
				c-51.5,0-79.6-22.5-83.5-59.8h40.5c3.2,17.5,17.1,26.1,42.3,26.1c25.4,0,38.3-7.9,38.3-23.6c0-14-8.6-20.4-29.7-24.3l-38-6.5
				c-28.6-4.7-46.6-20.7-46.6-48c0-32.6,25.8-55.5,74.9-55.5c43.4,0,70.9,20.7,74.9,53.3L1431.6,238.6L1431.6,238.6z"/>
		</g>
	</g>
	<g id="XMLID_1450_">
		<path id="XMLID_682_" class="st0" d="M1542-167v895.3H646.7V-167H1542 M1543-168H645.7v897.3H1543V-168L1543-168z"/>
	</g>
	<g id="XMLID_1448_">
		<circle id="XMLID_739_" class="st2" cx="289.2" cy="-75.8" r="92.2"/>
	</g>
	<g id="XMLID_1421_">
		<g id="XMLID_1583_">
			<path id="XMLID_1643_" class="st4" d="M236.5-57v-3.5h-1.8c-2.3,3-6,4.4-11.1,4.4c-4.1,0-7.4-1.2-9.8-3.6s-3.6-5.3-3.6-8.8
				c0-3.4,1.3-6.4,3.7-8.9s6.2-3.8,11.2-3.8h11.1v-1.1c0-4.4-2.6-6.9-7.9-6.9c-4.7,0-7.2,1.6-7.5,4.8h-8.3c0.4-7,6.6-11.4,15.5-11.4
				c10.1,0,16.3,4.5,16.3,13.6v24.9h-7.8L236.5-57L236.5-57z M233.3-65.6c1.9-1.8,2.9-4.1,2.9-6.7v-2.9h-9.6c-5.3,0-8,2.3-8,6.2
				c0,3.8,2.8,6.1,7.6,6.1C229-62.9,231.4-63.8,233.3-65.6z"/>
			<path id="XMLID_1597_" class="st4" d="M273.4-94.6v7.8H270c-7.6,0-11.8,4.4-11.8,12.3V-57h-8.4v-37.6h8.1v4.4h1.8
				c2.1-2.9,5.7-4.4,10.5-4.4H273.4z"/>
			<path id="XMLID_1595_" class="st4" d="M285.1-94.6h8.9v7.1h-8.9v18.2c0,3.3,1.9,5,5.8,5h3.1v7.3h-3.3c-9.1,0-14-3-14-11.1v-36
				h8.4V-94.6z"/>
			<path id="XMLID_1592_" class="st4" d="M328.4-61.6c-3.4,3.6-8,5.5-13.8,5.5s-10.4-1.8-13.9-5.5c-3.4-3.7-5.1-8.5-5.1-14.4
				c0-5.8,1.7-10.6,5.1-14.2c3.5-3.7,8.1-5.5,13.9-5.5s10.4,1.8,13.8,5.5c3.5,3.6,5.2,8.4,5.2,14.2
				C333.6-70.1,331.9-65.3,328.4-61.6z M314.7-88.5c-6.9,0-10.7,5.5-10.7,12.7s3.8,12.7,10.7,12.7c6.9,0,10.7-5.5,10.7-12.7
				C325.2-83,321.5-88.5,314.7-88.5z"/>
			<path id="XMLID_1584_" class="st4" d="M358.8-84.5c-0.4-2.7-2.9-4.1-7.4-4.1s-6.8,1.3-6.8,3.9c0,2.3,1.5,3.2,4.8,3.8l7.3,1.2
				c7.6,1.3,11.5,5.1,11.5,11.7c0,3.3-1.4,6.2-4.3,8.6c-2.8,2.3-6.7,3.5-11.8,3.5c-10.7,0-16.4-4.7-17.1-12.4h8.4
				c0.7,3.6,3.6,5.4,8.7,5.4c5.3,0,7.9-1.6,7.9-4.9c0-2.9-1.8-4.2-6.1-5l-7.8-1.3c-5.9-1-9.6-4.3-9.6-9.9c0-6.7,5.3-11.5,15.5-11.5
				c9,0,14.7,4.3,15.5,11L358.8-84.5L358.8-84.5z"/>
		</g>
	</g>
	<g id="XMLID_796_">
		<path id="XMLID_765_" class="st2" d="M351.9,373.1H226.5c-16.4,0-29.5-13.2-29.5-29.5V218.2c0-16.3,13.2-29.5,29.5-29.5h125.4
			c16.3,0,29.5,13.2,29.5,29.5v125.4C381.5,359.9,368.2,373.1,351.9,373.1z"/>
	</g>
	<g id="XMLID_757_">
		<g id="XMLID_1598_">
			<path id="XMLID_1663_" class="st4" d="M236.5,299.6v-3.5h-1.8c-2.3,3-6,4.4-11.1,4.4c-4.1,0-7.4-1.2-9.8-3.6s-3.6-5.3-3.6-8.8
				c0-3.4,1.3-6.4,3.7-8.9s6.2-3.8,11.2-3.8h11.1v-1.1c0-4.4-2.6-6.9-7.9-6.9c-4.7,0-7.2,1.6-7.5,4.8h-8.3c0.4-7,6.6-11.4,15.5-11.4
				c10.1,0,16.3,4.5,16.3,13.6v24.9h-7.8L236.5,299.6L236.5,299.6z M233.3,291c1.9-1.8,2.9-4.1,2.9-6.7v-2.9h-9.6
				c-5.3,0-8,2.3-8,6.2c0,3.8,2.8,6.1,7.6,6.1C229,293.8,231.4,292.9,233.3,291z"/>
			<path id="XMLID_1661_" class="st4" d="M273.4,262v7.8H270c-7.6,0-11.8,4.4-11.8,12.3v17.5h-8.4V262h8.1v4.4h1.8
				c2.1-2.9,5.7-4.4,10.5-4.4H273.4z"/>
			<path id="XMLID_1604_" class="st4" d="M285.1,262h8.9v7.1h-8.9v18.2c0,3.3,1.9,5,5.8,5h3.1v7.3h-3.3c-9.1,0-14-3-14-11.1v-36h8.4
				V262z"/>
			<path id="XMLID_1601_" class="st4" d="M328.4,295.1c-3.4,3.6-8,5.5-13.8,5.5s-10.4-1.8-13.9-5.5c-3.4-3.7-5.1-8.5-5.1-14.4
				c0-5.8,1.7-10.6,5.1-14.2c3.5-3.7,8.1-5.5,13.9-5.5s10.4,1.8,13.8,5.5c3.5,3.6,5.2,8.4,5.2,14.2
				C333.6,286.6,331.9,291.4,328.4,295.1z M314.7,268.2c-6.9,0-10.7,5.5-10.7,12.7s3.8,12.7,10.7,12.7c6.9,0,10.7-5.5,10.7-12.7
				C325.2,273.7,321.5,268.2,314.7,268.2z"/>
			<path id="XMLID_1599_" class="st4" d="M358.8,272.1c-0.4-2.7-2.9-4.1-7.4-4.1s-6.8,1.3-6.8,3.9c0,2.3,1.5,3.2,4.8,3.8l7.3,1.2
				c7.6,1.3,11.5,5.1,11.5,11.7c0,3.3-1.4,6.2-4.3,8.6c-2.8,2.3-6.7,3.5-11.8,3.5c-10.7,0-16.4-4.7-17.1-12.4h8.4
				c0.7,3.6,3.6,5.4,8.7,5.4c5.3,0,7.9-1.6,7.9-4.9c0-2.9-1.8-4.2-6.1-5l-7.8-1.3c-5.9-1-9.6-4.3-9.6-9.9c0-6.7,5.3-11.5,15.5-11.5
				c9,0,14.7,4.3,15.5,11H358.8L358.8,272.1z"/>
		</g>
	</g>
	<rect id="XMLID_791_" x="197" y="544.9" class="st2" width="184.5" height="184.5"/>
	<g id="XMLID_671_">
		<g id="XMLID_1631_">
			<path id="XMLID_1657_" class="st4" d="M238.6,655.1v-3.3h-1.7c-2.2,2.8-5.7,4.3-10.6,4.3c-4,0-7.1-1.1-9.4-3.4
				c-2.3-2.3-3.5-5.1-3.5-8.4s1.2-6.1,3.5-8.5s6-3.6,10.8-3.6h10.6v-1.1c0-4.2-2.5-6.6-7.6-6.6c-4.5,0-6.9,1.6-7.2,4.6h-7.9
				c0.4-6.7,6.3-10.9,14.9-10.9c9.7,0,15.6,4.3,15.6,13.1v23.9L238.6,655.1L238.6,655.1L238.6,655.1z M235.6,646.9
				c1.8-1.8,2.8-3.9,2.8-6.4v-2.8h-9.2c-5,0-7.7,2.2-7.7,6c0,3.7,2.7,5.8,7.3,5.8C231.5,649.5,233.8,648.7,235.6,646.9z"/>
			<path id="XMLID_1655_" class="st4" d="M274,619.1v7.4h-3.2c-7.3,0-11.3,4.2-11.3,11.8v16.8h-8v-36h7.7v4.2h1.7
				c2.1-2.8,5.5-4.2,10.1-4.2L274,619.1L274,619.1z"/>
			<path id="XMLID_1653_" class="st4" d="M285.2,619.1h8.5v6.8h-8.5v17.5c0,3.2,1.8,4.8,5.5,4.8h3v7h-3.1c-8.7,0-13.4-2.9-13.4-10.6
				v-34.5h8V619.1z"/>
			<path id="XMLID_1634_" class="st4" d="M326.8,650.8c-3.3,3.5-7.7,5.2-13.3,5.2s-10-1.8-13.3-5.2c-3.3-3.5-4.9-8.2-4.9-13.8
				s1.6-10.1,4.9-13.6s7.7-5.3,13.3-5.3s10,1.8,13.3,5.3s5,8,5,13.6S330.1,647.3,326.8,650.8z M313.6,624.9
				c-6.6,0-10.2,5.3-10.2,12.1c0,6.9,3.6,12.2,10.2,12.2s10.2-5.3,10.2-12.2C323.7,630.2,320.1,624.9,313.6,624.9z"/>
			<path id="XMLID_1632_" class="st4" d="M356,628.7c-0.4-2.6-2.8-3.9-7.1-3.9s-6.5,1.3-6.5,3.8c0,2.2,1.4,3.1,4.6,3.6l7,1.1
				c7.3,1.2,11,4.9,11,11.2c0,3.2-1.3,6-4.1,8.2c-2.7,2.2-6.5,3.3-11.3,3.3c-10.2,0-15.7-4.5-16.5-11.8h8c0.6,3.5,3.4,5.2,8.4,5.2
				s7.6-1.6,7.6-4.7c0-2.8-1.7-4-5.9-4.8l-7.7-1.3c-5.7-0.9-9.2-4.1-9.2-9.5c0-6.5,5.1-11,14.8-11c8.6,0,14,4.1,14.8,10.6L356,628.7
				L356,628.7z"/>
		</g>
	</g>
	<g id="XMLID_669_">
		<circle id="XMLID_670_" class="st3" cx="505.7" cy="-75.8" r="92.2"/>
	</g>
	<g id="XMLID_662_">
		<g id="XMLID_663_">
			<path id="XMLID_668_" class="st5" d="M452.9-57v-3.5h-1.8c-2.3,3-6,4.4-11.1,4.4c-4.1,0-7.4-1.2-9.8-3.6s-3.6-5.3-3.6-8.8
				c0-3.4,1.3-6.4,3.7-8.9c2.4-2.5,6.2-3.8,11.2-3.8h11.1v-1.1c0-4.4-2.6-6.9-7.9-6.9c-4.7,0-7.2,1.6-7.5,4.8h-8.3
				c0.4-7,6.6-11.4,15.5-11.4c10.1,0,16.3,4.5,16.3,13.6v24.9h-7.8L452.9-57L452.9-57z M449.7-65.6c1.9-1.8,2.9-4.1,2.9-6.7v-2.9
				H443c-5.3,0-8,2.3-8,6.2c0,3.8,2.8,6.1,7.6,6.1C445.5-62.9,447.9-63.8,449.7-65.6z"/>
			<path id="XMLID_667_" class="st5" d="M489.8-94.6v7.8h-3.4c-7.6,0-11.8,4.4-11.8,12.3V-57h-8.4v-37.6h8.1v4.4h1.8
				c2.1-2.9,5.7-4.4,10.5-4.4H489.8z"/>
			<path id="XMLID_666_" class="st5" d="M501.6-94.6h8.9v7.1h-8.9v18.2c0,3.3,1.9,5,5.8,5h3.1v7.3h-3.3c-9.1,0-14-3-14-11.1v-36h8.4
				V-94.6z"/>
			<path id="XMLID_665_" class="st5" d="M544.9-61.6c-3.4,3.6-8,5.5-13.8,5.5c-5.8,0-10.4-1.8-13.9-5.5c-3.4-3.7-5.1-8.5-5.1-14.4
				c0-5.8,1.7-10.6,5.1-14.2c3.5-3.7,8.1-5.5,13.9-5.5c5.8,0,10.4,1.8,13.8,5.5c3.5,3.6,5.2,8.4,5.2,14.2
				C550.1-70.1,548.4-65.3,544.9-61.6z M531.1-88.5c-6.9,0-10.7,5.5-10.7,12.7s3.8,12.7,10.7,12.7c6.9,0,10.7-5.5,10.7-12.7
				C541.7-83,538-88.5,531.1-88.5z"/>
			<path id="XMLID_664_" class="st5" d="M575.3-84.5c-0.4-2.7-2.9-4.1-7.4-4.1s-6.8,1.3-6.8,3.9c0,2.3,1.5,3.2,4.8,3.8l7.3,1.2
				c7.6,1.3,11.5,5.1,11.5,11.7c0,3.3-1.4,6.2-4.3,8.6c-2.8,2.3-6.7,3.5-11.8,3.5c-10.7,0-16.4-4.7-17.1-12.4h8.4
				c0.7,3.6,3.6,5.4,8.7,5.4c5.3,0,7.9-1.6,7.9-4.9c0-2.9-1.8-4.2-6.1-5l-7.8-1.3c-5.9-1-9.6-4.3-9.6-9.9c0-6.7,5.3-11.5,15.5-11.5
				c9,0,14.7,4.3,15.5,11L575.3-84.5L575.3-84.5z"/>
		</g>
	</g>
	<g id="XMLID_660_">
		<path id="XMLID_661_" class="st3" d="M568.4,373.1H443c-16.4,0-29.5-13.2-29.5-29.5V218.2c0-16.3,13.2-29.5,29.5-29.5h125.4
			c16.3,0,29.5,13.2,29.5,29.5v125.4C597.9,359.9,584.6,373.1,568.4,373.1z"/>
	</g>
	<g id="XMLID_18_">
		<g id="XMLID_10_">
			<path id="XMLID_659_" class="st5" d="M452.9,299.6v-3.5h-1.8c-2.3,3-6,4.4-11.1,4.4c-4.1,0-7.4-1.2-9.8-3.6s-3.6-5.3-3.6-8.8
				c0-3.4,1.3-6.4,3.7-8.9s6.2-3.8,11.2-3.8h11.1v-1.1c0-4.4-2.6-6.9-7.9-6.9c-4.7,0-7.2,1.6-7.5,4.8h-8.3c0.4-7,6.6-11.4,15.5-11.4
				c10.1,0,16.3,4.5,16.3,13.6v24.9h-7.8L452.9,299.6L452.9,299.6z M449.7,291c1.9-1.8,2.9-4.1,2.9-6.7v-2.9H443c-5.3,0-8,2.3-8,6.2
				c0,3.8,2.8,6.1,7.6,6.1C445.5,293.8,447.9,292.9,449.7,291z"/>
			<path id="XMLID_658_" class="st5" d="M489.8,262v7.8h-3.4c-7.6,0-11.8,4.4-11.8,12.3v17.5h-8.4V262h8.1v4.4h1.8
				c2.1-2.9,5.7-4.4,10.5-4.4H489.8z"/>
			<path id="XMLID_657_" class="st5" d="M501.6,262h8.9v7.1h-8.9v18.2c0,3.3,1.9,5,5.8,5h3.1v7.3h-3.3c-9.1,0-14-3-14-11.1v-36h8.4
				V262z"/>
			<path id="XMLID_627_" class="st5" d="M544.9,295.1c-3.4,3.6-8,5.5-13.8,5.5c-5.8,0-10.4-1.8-13.9-5.5c-3.4-3.7-5.1-8.5-5.1-14.4
				c0-5.8,1.7-10.6,5.1-14.2c3.5-3.7,8.1-5.5,13.9-5.5c5.8,0,10.4,1.8,13.8,5.5c3.5,3.6,5.2,8.4,5.2,14.2
				C550.1,286.6,548.4,291.4,544.9,295.1z M531.1,268.2c-6.9,0-10.7,5.5-10.7,12.7s3.8,12.7,10.7,12.7c6.9,0,10.7-5.5,10.7-12.7
				C541.7,273.7,538,268.2,531.1,268.2z"/>
			<path id="XMLID_625_" class="st5" d="M575.3,272.1c-0.4-2.7-2.9-4.1-7.4-4.1s-6.8,1.3-6.8,3.9c0,2.3,1.5,3.2,4.8,3.8l7.3,1.2
				c7.6,1.3,11.5,5.1,11.5,11.7c0,3.3-1.4,6.2-4.3,8.6c-2.8,2.3-6.7,3.5-11.8,3.5c-10.7,0-16.4-4.7-17.1-12.4h8.4
				c0.7,3.6,3.6,5.4,8.7,5.4c5.3,0,7.9-1.6,7.9-4.9c0-2.9-1.8-4.2-6.1-5l-7.8-1.3c-5.9-1-9.6-4.3-9.6-9.9c0-6.7,5.3-11.5,15.5-11.5
				c9,0,14.7,4.3,15.5,11H575.3L575.3,272.1z"/>
		</g>
	</g>
	<rect id="XMLID_16_" x="413.5" y="544.9" class="st3" width="184.5" height="184.5"/>
	<g id="XMLID_1_">
		<g id="XMLID_5_">
			<path id="XMLID_9_" class="st5" d="M455,655.1v-3.3h-1.7c-2.2,2.8-5.7,4.3-10.6,4.3c-4,0-7.1-1.1-9.4-3.4s-3.5-5.1-3.5-8.4
				s1.2-6.1,3.5-8.5s6-3.6,10.8-3.6h10.6v-1.1c0-4.2-2.5-6.6-7.6-6.6c-4.5,0-6.9,1.6-7.2,4.6H432c0.4-6.7,6.3-10.9,14.9-10.9
				c9.7,0,15.6,4.3,15.6,13.1v23.9L455,655.1L455,655.1L455,655.1z M452,646.9c1.8-1.8,2.8-3.9,2.8-6.4v-2.8h-9.2
				c-5,0-7.7,2.2-7.7,6c0,3.7,2.7,5.8,7.3,5.8C448,649.5,450.2,648.7,452,646.9z"/>
			<path id="XMLID_6_" class="st5" d="M490.4,619.1v7.4h-3.2c-7.3,0-11.3,4.2-11.3,11.8v16.8h-8v-36h7.7v4.2h1.7
				c2.1-2.8,5.5-4.2,10.1-4.2L490.4,619.1L490.4,619.1z"/>
			<path id="XMLID_7_" class="st5" d="M501.7,619.1h8.5v6.8h-8.5v17.5c0,3.2,1.8,4.8,5.5,4.8h3v7h-3.1c-8.7,0-13.4-2.9-13.4-10.6
				v-34.5h8V619.1z"/>
			<path id="XMLID_8_" class="st5" d="M543.3,650.8c-3.3,3.5-7.7,5.2-13.3,5.2s-10-1.8-13.3-5.2c-3.3-3.5-4.9-8.2-4.9-13.8
				s1.6-10.1,4.9-13.6c3.3-3.5,7.7-5.3,13.3-5.3c5.6,0,10,1.8,13.3,5.3s5,8,5,13.6S546.6,647.3,543.3,650.8z M530,624.9
				c-6.6,0-10.2,5.3-10.2,12.1c0,6.9,3.6,12.2,10.2,12.2s10.2-5.3,10.2-12.2C540.2,630.2,536.6,624.9,530,624.9z"/>
			<path id="XMLID_12_" class="st5" d="M572.5,628.7c-0.4-2.6-2.8-3.9-7.1-3.9c-4.3,0-6.5,1.3-6.5,3.8c0,2.2,1.4,3.1,4.6,3.6l7,1.1
				c7.3,1.2,11,4.9,11,11.2c0,3.2-1.3,6-4.1,8.2c-2.7,2.2-6.5,3.3-11.3,3.3c-10.2,0-15.7-4.5-16.5-11.8h8c0.6,3.5,3.4,5.2,8.4,5.2
				s7.6-1.6,7.6-4.7c0-2.8-1.7-4-5.9-4.8l-7.7-1.3c-5.7-0.9-9.2-4.1-9.2-9.5c0-6.5,5.1-11,14.8-11c8.6,0,14,4.1,14.8,10.6
				L572.5,628.7L572.5,628.7z"/>
		</g>
	</g>
</g>
</svg>
