<?xml version="1.0" encoding="utf-8"?>
<!-- Generator: Adobe Illustrator 19.0.0, SVG Export Plug-In . SVG Version: 6.00 Build 0)  -->
<svg version="1.1" id="Layer_1" xmlns="http://www.w3.org/2000/svg" xmlns:xlink="http://www.w3.org/1999/xlink" x="0px" y="0px"
	 viewBox="110 141 1500 1000" style="enable-background:new 110 141 1500 1000;" xml:space="preserve">
<style type="text/css">
	.st0{fill:#EFEFEF;}
	.st1{fill:#101010;}
	.st2{fill:none;stroke:#2BB9AF;stroke-width:2;stroke-miterlimit:10;}
	.st3{opacity:0.6;}
	.st4{opacity:0;}
	.st5{fill:none;stroke:#2BB9AF;stroke-miterlimit:10;}
	.st6{fill:#FFFFFF;fill-opacity:0;}
	.st7{fill:#FFFFFF;}
</style>
<polygon id="XMLID_133_" class="st0" points="110,141 110,1141 571.3,1141 1148.7,141 "/>
<polygon id="XMLID_134_" class="st1" points="1610,141 1148.7,141 571.3,1141 1610,1141 "/>
<g id="XMLID_84_">
	<g id="XMLID_125_">
		<line id="XMLID_127_" class="st2" x1="165.6" y1="1141" x2="165.6" y2="141.7"/>
		<line id="XMLID_126_" class="st2" x1="1554.4" y1="141.7" x2="1554.4" y2="1141"/>
	</g>
	<g id="XMLID_92_" class="st3">
		<g id="XMLID_109_">
			<g id="XMLID_122_">
				<line id="XMLID_124_" class="st2" x1="165.6" y1="933.6" x2="1554.4" y2="933.6"/>
				<line id="XMLID_123_" class="st2" x1="1554.4" y1="953.6" x2="165.6" y2="953.6"/>
			</g>
			<g id="XMLID_119_">
				<line id="XMLID_121_" class="st2" x1="165.6" y1="782.3" x2="1554.4" y2="782.3"/>
				<line id="XMLID_120_" class="st2" x1="1554.4" y1="802.3" x2="165.6" y2="802.3"/>
			</g>
			<g id="XMLID_116_">
				<line id="XMLID_118_" class="st2" x1="165.6" y1="631" x2="1554.4" y2="631"/>
				<line id="XMLID_117_" class="st2" x1="1554.4" y1="651" x2="165.6" y2="651"/>
			</g>
			<g id="XMLID_113_">
				<line id="XMLID_115_" class="st2" x1="165.6" y1="479.7" x2="1554.4" y2="479.7"/>
				<line id="XMLID_114_" class="st2" x1="1554.4" y1="499.7" x2="165.6" y2="499.7"/>
			</g>
			<g id="XMLID_110_">
				<line id="XMLID_112_" class="st2" x1="165.6" y1="328.4" x2="1554.4" y2="328.4"/>
				<line id="XMLID_111_" class="st2" x1="1554.4" y1="348.4" x2="165.6" y2="348.4"/>
			</g>
		</g>
		<g id="XMLID_93_">
			<g id="XMLID_106_">
				<line id="XMLID_108_" class="st2" x1="1319.3" y1="1085.4" x2="1319.3" y2="196.6"/>
				<line id="XMLID_107_" class="st2" x1="1339.3" y1="196.6" x2="1339.3" y2="1085.4"/>
			</g>
			<g id="XMLID_103_">
				<line id="XMLID_105_" class="st2" x1="1084.6" y1="1085.4" x2="1084.6" y2="196.6"/>
				<line id="XMLID_104_" class="st2" x1="1104.6" y1="196.6" x2="1104.6" y2="1085.4"/>
			</g>
			<g id="XMLID_100_">
				<line id="XMLID_102_" class="st2" x1="850" y1="1085.4" x2="850" y2="196.6"/>
				<line id="XMLID_101_" class="st2" x1="870" y1="196.6" x2="870" y2="1085.4"/>
			</g>
			<g id="XMLID_97_">
				<line id="XMLID_99_" class="st2" x1="615.4" y1="1085.4" x2="615.4" y2="196.6"/>
				<line id="XMLID_98_" class="st2" x1="635.4" y1="196.6" x2="635.4" y2="1085.4"/>
			</g>
			<g id="XMLID_94_">
				<line id="XMLID_96_" class="st2" x1="380.7" y1="1085.4" x2="380.7" y2="196.6"/>
				<line id="XMLID_95_" class="st2" x1="400.7" y1="196.6" x2="400.7" y2="1085.4"/>
			</g>
		</g>
	</g>
	<line id="XMLID_91_" class="st2" x1="110" y1="196.6" x2="1610" y2="196.6"/>
	<line id="XMLID_90_" class="st2" x1="1610" y1="1085.4" x2="110" y2="1085.4"/>
	<path id="XMLID_89_" class="st2" d="M1554.4,196.6"/>
	<path id="XMLID_88_" class="st2" d="M1554.4,196.6"/>
	<g id="XMLID_85_" class="st4">
		<rect id="XMLID_87_" x="615.4" y="196.6" class="st5" width="20" height="888.9"/>
		<rect id="XMLID_86_" x="1084.6" y="196.6" class="st5" width="20" height="888.9"/>
	</g>
</g>
<g id="XMLID_207_">
	<path id="XMLID_208_" class="st1" d="M168.8,774.6h28v8l-9.9,8v1.6c7.1,0.5,12.2,5.3,12.2,13.5c0,4.7-1.6,8.4-4.7,11.2
		c-3.1,2.7-7.1,4.1-12,4.1c-4.8,0-8.7-1.3-11.8-4c-3.1-2.7-4.7-6.1-4.9-10.2h7.6c0.5,4.6,4.1,7.4,9,7.4c5.7,0,9.2-3.2,9.2-8.5
		s-3.3-8.6-9.1-8.6c-1.6,0-3,0.1-4.1,0.4v-6.9l9.8-8V781h-19.3V774.6z"/>
	<path id="XMLID_210_" class="st1" d="M232.1,794.3c2.8,2.8,4.2,6.4,4.2,10.7c0,4.5-1.5,8.3-4.4,11.3c-2.9,3.1-6.8,4.6-11.7,4.6
		c-5.4,0-9.6-1.8-12.7-5.4c-3.1-3.6-4.7-9.3-4.7-17.2c0-4.8,0.6-9,1.8-12.6c2.5-7.3,8.1-12.1,16.1-12.1c3.9,0,7.2,1.1,9.8,3.2
		c2.6,2.1,4.2,4.9,4.7,8.2h-7.5c-1-3.3-3.3-5-7.1-5c-6.2,0-10.1,5.1-10.5,14h1.6c2.3-2.7,5.6-4,10.1-4
		C225.9,790.1,229.3,791.5,232.1,794.3z M220,796.4c-5.1,0-8.7,3.2-8.7,8.8c0,5.7,3.6,9.2,8.8,9.2c5.1,0,8.6-3.3,8.6-9.1
		C228.7,799.6,225.1,796.4,220,796.4z"/>
	<path id="XMLID_213_" class="st1" d="M242.2,829.2h-6.4l19.6-58.5h6.2L242.2,829.2z"/>
	<path id="XMLID_215_" class="st1" d="M288,803.2h5.9v6.6H288V820h-7.3v-10.2h-22.1v-8.2l20-27.1h9.4V803.2L288,803.2z M266,803.2
		h14.8v-20.1h-1.6L266,801.7V803.2z"/>
	<path id="XMLID_218_" class="st1" d="M314.7,773.7c5.2,0,9.4,1.9,12.5,5.9c3.1,4,4.7,9.9,4.7,17.7c0,7.9-1.6,13.8-4.7,17.7
		c-3.2,3.9-7.3,5.9-12.5,5.9c-5.2,0-9.4-2-12.5-5.9c-3.2-4-4.7-9.9-4.7-17.7c0-7.9,1.6-13.8,4.7-17.7
		C305.3,775.6,309.5,773.7,314.7,773.7z M314.7,814.2c3.4,0,5.9-1.6,7.3-4.6c1.6-3.1,2.3-7.2,2.3-12.2c0-5.1-0.8-9.2-2.3-12.2
		c-1.5-3.1-4-4.7-7.3-4.7c-3.4,0-5.9,1.6-7.4,4.7c-1.5,3.1-2.3,7.2-2.3,12.2c0,5.1,0.8,9.2,2.3,12.2
		C308.9,812.6,311.3,814.2,314.7,814.2z"/>
	<path id="XMLID_221_" class="st1" d="M337.8,787h7.1v3.2h1.6c2.1-2.7,5.4-4,9.8-4s7.9,1.6,10.4,4.9c2.6,3.2,3.9,7.4,3.9,12.5
		s-1.3,9.3-3.9,12.5c-2.5,3.2-6,4.9-10.4,4.9c-4.3,0-7.5-1.4-9.5-4h-1.6v16.2h-7.3V787H337.8z M345,803.5c0,6.3,3.1,11.2,9.2,11.2
		c5.8,0,9-4.5,9-11.2s-3.2-11.1-9-11.1C348.1,792.4,345,797.2,345,803.5z"/>
	<path id="XMLID_224_" class="st1" d="M385.3,787h7.8v6.2h-7.8v16.1c0,2.9,1.7,4.4,5.1,4.4h2.7v6.4h-2.9c-8,0-12.3-2.7-12.3-9.8
		v-17.1h-5.3V787h5.3v-9.6h7.3L385.3,787L385.3,787z"/>
	<path id="XMLID_226_" class="st1" d="M407.3,820.1h-8.4v-8.7h8.4V820.1z"/>
</g>
<g id="XMLID_157_">
	<path id="XMLID_158_" class="st1" d="M197.4,488.8c3.6,1.6,6.2,5.7,6.2,10.3c0,7.9-5.5,13.3-15.9,13.3h-21.5V466h21
		c4.8,0,8.5,1.2,11.1,3.4c2.7,2.3,4,5.1,4,8.6c0,4.4-1.6,7.5-4.9,9.3C197.4,487.3,197.4,488.8,197.4,488.8z M186.4,484.9
		c5.2,0,7.8-2.1,7.8-6.2s-2.6-6.1-7.8-6.1H174v12.3L186.4,484.9L186.4,484.9z M186.7,505.6c5.9,0,8.9-2.3,8.9-7c0-4.6-3-7-8.9-7H174
		v14H186.7z"/>
	<path id="XMLID_175_" class="st1" d="M208.2,485.5v-6.2h29.6v6.2h-11.1v26.8h-7.3v-26.8H208.2z"/>
	<path id="XMLID_177_" class="st1" d="M268.8,508.4c-3,3.2-7,4.8-12.2,4.8c-5.1,0-9.2-1.6-12.2-4.8c-3-3.2-4.5-7.5-4.5-12.6
		s1.5-9.3,4.5-12.5c3.1-3.3,7.1-4.9,12.2-4.9c5.1,0,9.2,1.6,12.2,4.9c3.1,3.2,4.6,7.3,4.6,12.5C273.3,500.9,271.9,505.1,268.8,508.4
		z M256.6,484.6c-6,0-9.4,4.9-9.4,11.1c0,6.3,3.3,11.2,9.4,11.2c6,0,9.4-4.9,9.4-11.2C266,489.5,262.7,484.6,256.6,484.6z"/>
	<path id="XMLID_180_" class="st1" d="M278.9,479.2h7.1v3.2h1.6c2.1-2.7,5.4-4,9.8-4c4.4,0,7.9,1.6,10.4,4.9
		c2.6,3.2,3.9,7.4,3.9,12.5s-1.3,9.3-3.9,12.5c-2.5,3.2-6,4.9-10.4,4.9c-4.3,0-7.5-1.4-9.5-4h-1.6v16.2H279v-46.2H278.9z
		 M286.1,495.7c0,6.3,3.1,11.2,9.2,11.2c5.8,0,9-4.5,9-11.2s-3.2-11.1-9-11.1C289.2,484.6,286.1,489.4,286.1,495.7z"/>
	<path id="XMLID_183_" class="st1" d="M325.5,512.3h-8.3v-33.1h7.2V501h1.6l13.6-21.8h8.5v33.1h-7.2v-21.8h-1.6L325.5,512.3z"/>
	<path id="XMLID_185_" class="st1" d="M353.7,479.2h7.3v9.6c0,1.8,0.1,2.6,1,3.9c0.8,1.2,2.9,1.8,6.3,1.8c2.3,0,4.7-0.3,7.2-0.8
		v-14.5h7.4v33.1h-7.4v-12.5c-2.8,0.6-5.9,0.9-9.3,0.9c-4.4,0-7.7-1-9.4-2.3c-2.7-2.3-3.1-5.3-3.1-8.7V479.2L353.7,479.2z"/>
	<path id="XMLID_187_" class="st1" d="M421.2,512.3h-7.3v-13.8h-16v13.8h-7.3v-33.1h7.3v13h16v-13h7.3V512.3z"/>
	<path id="XMLID_189_" class="st1" d="M428.7,479.2h7.3v10.3h8.3c8.3,0,12.9,4.2,12.9,11.2c0,7.2-4.6,11.6-12.9,11.6h-15.6
		L428.7,479.2L428.7,479.2z M436,495.4v10.7h7.2c4.7,0,6.6-1.9,6.6-5.3c0-3.6-1.8-5.3-6.6-5.3H436V495.4z M462.3,479.2h7.3v33.1
		h-7.3V479.2z"/>
	<path id="XMLID_193_" class="st1" d="M485.5,512.3h-8.3v-33.1h7.2V501h1.6l13.6-21.8h8.5v33.1h-7.2v-21.8h-1.6L485.5,512.3z
		 M503.5,465.4c-0.3,6-4.3,9.6-11,9.6s-10.7-3.6-11-9.6h5.8c0.2,3.1,2,4.7,5.2,4.7c3.3,0,5-1.6,5.2-4.7H503.5z"/>
	<path id="XMLID_196_" class="st1" d="M525.3,485.5v-6.2h29.6v6.2h-11.1v26.8h-7.3v-26.8H525.3z"/>
	<path id="XMLID_198_" class="st1" d="M588.8,496.4h-24.4c0.2,7,3.3,10.5,9.3,10.5c3.8,0,6.2-1.4,7.2-4.2h7.5
		c-1.3,6.3-6.4,10.5-14.8,10.5c-5.1,0-9.2-1.6-12.1-4.9s-4.4-7.5-4.4-12.7c0-5.3,1.4-9.4,4.4-12.5c2.9-3.1,7-4.7,12-4.7
		c4.7,0,8.5,1.5,11.2,4.4s4.2,6.6,4.2,11.1v2.5H588.8z M564.7,490.9h16.6c-0.5-3.9-3.3-6.7-7.9-6.7
		C568.4,484.2,565.5,486.8,564.7,490.9z"/>
	<path id="XMLID_201_" class="st1" d="M617.2,512.3l-7-13.8h-8.5v13.8h-7.3v-33.1h7.3v13h8.6l6.6-13h7.5l-8.1,15.9l8.6,17.2H617.2z"
		/>
	<path id="XMLID_203_" class="st1" d="M657.8,501.7c-1,7-6.7,11.4-14.6,11.4c-5.1,0-9.1-1.6-12-4.8c-2.9-3.2-4.4-7.4-4.4-12.6
		c0-5.1,1.4-9.4,4.4-12.5c2.9-3.2,7-4.8,12-4.8c7.9,0,13.3,4.4,14.3,10.9h-7.3c-1-3.1-3.3-4.7-7-4.7c-6.2,0-9.1,4.6-9.1,11.1
		c0,6.6,2.9,11.2,9.1,11.2c4,0,6.4-1.8,7.2-5.2H657.8z"/>
	<path id="XMLID_205_" class="st1" d="M660,485.5v-6.2h29.6v6.2h-11.1v26.8h-7.3v-26.8H660z"/>
</g>
<g id="XMLID_139_">
	<path id="XMLID_140_" class="st1" d="M227.3,678.5h26v28.8h-88v-28.8h28.8v-69.4h-5.2l-23.6,16.3v-32.5l23.4-16.5h38.7v102.1H227.3
		z"/>
	<path id="XMLID_142_" class="st1" d="M311.3,573.7c15.9,0,28.8,5.6,38.5,16.8c9.7,11.2,14.6,28.2,14.6,51s-4.9,39.8-14.6,51.2
		c-9.7,11.2-22.6,16.8-38.5,16.8c-15.9,0-28.8-5.6-38.5-16.8c-9.7-11.4-14.6-28.4-14.6-51.2s4.9-39.8,14.6-51
		C282.5,579.4,295.4,573.7,311.3,573.7z M311.3,603.1c-13.1,0-19.6,12.9-19.6,38.5c0,25.8,6.5,38.7,19.6,38.7
		c13.1,0,19.6-12.9,19.6-38.7C330.9,616,324.4,603.1,311.3,603.1z"/>
	<path id="XMLID_145_" class="st1" d="M457.3,640.1c10.3,4.7,19.1,14.6,19.1,29.5c0,11.2-4.5,20.8-13.6,28.4
		c-9.2,7.7-22.1,11.6-38.7,11.6c-16.8,0-29.7-3.9-38.9-11.6s-13.6-17.2-13.6-28.4c0-15,8.8-24.9,19.1-29.5v-5.2
		c-9.7-5.8-14.6-14.4-14.6-25.8c0-9.9,4.3-18.3,12.7-25.1c8.6-6.9,20.4-10.3,35.3-10.3c15,0,26.7,3.4,35.2,10.3
		c8.4,6.7,12.7,15.1,12.7,25.1c0,11.4-4.9,20-14.6,25.8v5.2H457.3z M424,682.8c12.7,0,19.1-7.5,19.1-16.3s-6.4-16.3-19.1-16.3
		s-19.3,7.5-19.3,16.3C404.8,675.5,411.3,682.8,424,682.8z M424,598.6c-21.1-0.9-21.3,30.1,0,29.2C445,628.7,445,597.7,424,598.6z"
		/>
	<path id="XMLID_150_" class="st1" d="M525.6,699h-5.2v45.6h-32.5V610h31.4v8.2h5.2c5.8-7.1,14.4-10.7,25.4-10.7
		c12.5,0,22.2,4.7,29.5,14.2c7.3,9.3,10.8,21.7,10.8,36.8s-3.7,27.3-11,36.8c-7.3,9.5-17,14.2-29.4,14.2
		C539.2,709.7,531,706.1,525.6,699z M538.7,634.1c-6.5,0-11.4,2.2-14.8,6.9c-3.2,4.7-4.9,10.5-4.9,17.6s1.7,12.9,4.9,17.6
		c3.4,4.7,8.2,6.9,14.8,6.9c6.5,0,11.2-2.2,14.4-6.9c3.2-4.7,4.7-10.5,4.7-17.6s-1.5-12.9-4.7-17.6
		C549.9,636.4,545.2,634.1,538.7,634.1z"/>
	<path id="XMLID_153_" class="st1" d="M637.9,610h19.4v26.6h-19.4v35.2c0,5.6,3.2,8.4,9.5,8.4h9.9v27.1h-10.5c-26,0-41.5-8-41.5-32
		v-38.7h-12.7V610h12.7v-26.2h32.5L637.9,610L637.9,610z"/>
	<path id="XMLID_155_" class="st1" d="M704.7,707.2h-34.4v-32.5h34.4V707.2z"/>
</g>
<g id="XMLID_52_">
	<rect id="XMLID_82_" x="1285.2" y="141" class="st6" width="324.8" height="159.7"/>
	<g id="XMLID_53_">
		<g id="XMLID_302_">
			<path id="XMLID_312_" class="st7" d="M1376,248.4v-4.7h-2.4c-3.1,4-8.2,6-15.1,6c-5.6,0-10.1-1.6-13.4-4.8
				c-3.3-3.3-4.9-7.3-4.9-12c0-4.6,1.7-8.7,5-12.1s8.5-5.1,15.3-5.1h15.1v-1.5c0-5.9-3.5-9.4-10.8-9.4c-6.3,0-9.8,2.2-10.3,6.5
				h-11.3c0.5-9.6,9-15.5,21.2-15.5c13.8,0,22.2,6.1,22.2,18.5v34L1376,248.4L1376,248.4z M1371.7,236.7c2.6-2.5,3.9-5.5,3.9-9.1
				v-3.9h-13.1c-7.2,0-10.9,3.1-10.9,8.5c0,5.2,3.8,8.3,10.4,8.3C1365.8,240.4,1369,239.2,1371.7,236.7z"/>
			<path id="XMLID_310_" class="st7" d="M1426.4,197.1v10.6h-4.6c-10.4,0-16,5.9-16,16.7v24h-11.4v-51.3h11v5.9h2.4
				c2.9-3.9,7.8-5.9,14.3-5.9H1426.4z"/>
			<path id="XMLID_308_" class="st7" d="M1442.4,197.1h12.1v9.7h-12.1v25c0,4.5,2.6,6.7,7.9,6.7h4.2v9.9h-4.4
				c-12.4,0-19-4.1-19-15.1v-49.1h11.4L1442.4,197.1L1442.4,197.1z"/>
			<path id="XMLID_305_" class="st7" d="M1501.6,242.3c-4.6,4.9-10.9,7.5-18.8,7.5c-8,0-14.2-2.5-18.9-7.5c-4.6-5-6.9-11.6-6.9-19.5
				s2.3-14.4,6.9-19.3c4.7-5,11-7.6,18.9-7.6c8,0,14.2,2.5,18.8,7.6c4.7,4.9,7,11.4,7,19.3S1506.3,237.2,1501.6,242.3z
				 M1482.7,205.5c-9.4,0-14.5,7.6-14.5,17.2c0,9.8,5.1,17.3,14.5,17.3s14.5-7.6,14.5-17.3S1492.1,205.5,1482.7,205.5z"/>
			<path id="XMLID_303_" class="st7" d="M1543.1,210.8c-0.6-3.7-3.9-5.5-10.1-5.5c-6.1,0-9.3,1.8-9.3,5.3c0,3.1,2,4.3,6.5,5.1
				l10,1.6c10.4,1.7,15.6,6.9,15.6,15.9c0,4.5-1.9,8.5-5.8,11.7c-3.8,3.1-9.2,4.7-16.1,4.7c-14.5,0-22.4-6.3-23.5-16.8h11.4
				c0.9,4.9,4.8,7.4,11.9,7.4c7.2,0,10.8-2.2,10.8-6.6c0-3.9-2.4-5.7-8.4-6.8l-10.7-1.8c-8.1-1.3-13.1-5.8-13.1-13.5
				c0-9.2,7.3-15.6,21-15.6c12.2,0,19.9,5.8,21,15L1543.1,210.8L1543.1,210.8z"/>
		</g>
	</g>
</g>
<g id="XMLID_1_">
	<g id="XMLID_722_">
		<path id="XMLID_789_" class="st7" d="M1225.1,1025.3c2.5,1.2,4.1,3.8,4.1,6.8c0,4.7-3.2,8.3-10,8.3h-13.1V1011h12.8
			c6.2,0,9.4,3.4,9.4,7.4c0,2.6-1.1,4.8-3.2,6L1225.1,1025.3L1225.1,1025.3z M1209.9,1023.4h9c3.2,0,5.7-1.1,5.7-4.7
			c0-3.3-2.8-4.5-5.8-4.5h-8.9L1209.9,1023.4L1209.9,1023.4z M1219,1037.1c3.3,0,6.5-1.2,6.5-5.3c0-3.8-3-5.1-6.4-5.1h-9.2v10.4
			L1219,1037.1L1219,1037.1z"/>
		<path id="XMLID_787_" class="st7" d="M1251.1,1034.1c-0.8,4.1-3.9,6.8-8.7,6.8c-6.5,0-10.1-4.8-10.1-10.9
			c0-6.3,3.6-10.9,10.1-10.9c4.9,0,7.9,2.7,8.6,6.5h-3.5c-0.7-2.1-2.3-3.5-5.1-3.5c-4.7,0-6.6,3.7-6.6,7.8c0,4.2,1.9,7.9,6.6,7.9
			c3,0,4.7-1.4,5.2-3.7L1251.1,1034.1L1251.1,1034.1z"/>
		<path id="XMLID_785_" class="st7" d="M1270.1,1040.3v-17.7h-11.3v17.7h-3.5v-20.7h18.3v20.7H1270.1z"/>
		<path id="XMLID_782_" class="st7" d="M1298.4,1030c0,6.1-3.7,10.9-10.2,10.9s-10.2-4.8-10.2-10.9c0-6.1,3.7-10.9,10.2-10.9
			C1294.7,1019.1,1298.4,1023.9,1298.4,1030z M1294.9,1030c0-4.1-2.1-7.9-6.7-7.9s-6.7,3.8-6.7,7.9c0,4.1,2.1,7.9,6.7,7.9
			C1292.8,1037.8,1294.9,1034.1,1294.9,1030z"/>
		<path id="XMLID_780_" class="st7" d="M1302.9,1019.6h5.6l5.1,9.5h0.9l5.1-9.5h5.5v20.7h-3.4v-16.7h-0.9l-4.8,8.9h-3.9l-4.8-8.9
			h-0.9v16.7h-3.4L1302.9,1019.6L1302.9,1019.6z"/>
		<path id="XMLID_777_" class="st7" d="M1349.8,1030c0,6.1-3.7,10.9-10.2,10.9s-10.2-4.8-10.2-10.9c0-6.1,3.7-10.9,10.2-10.9
			C1346.1,1019.1,1349.8,1023.9,1349.8,1030z M1346.3,1030c0-4.1-2.1-7.9-6.7-7.9s-6.7,3.8-6.7,7.9c0,4.1,2.1,7.9,6.7,7.9
			C1344.2,1037.8,1346.3,1034.1,1346.3,1030z"/>
		<path id="XMLID_775_" class="st7" d="M1354.2,1019.6h15.5v3h-12v17.7h-3.5V1019.6z"/>
		<path id="XMLID_772_" class="st7" d="M1386,1038.2h-0.9c-1.3,1.6-3.5,2.7-6.5,2.7c-4.8,0-7.4-3.2-7.4-6.7c0-3.3,2.2-6.9,7.9-6.9
			h6.7v-0.8c0-2.5-1.4-4.3-5.1-4.3c-3.1,0-4.6,1.2-4.8,3h-3.5c0.3-3.8,3.6-6,8.2-6c5.2,0,8.6,2.5,8.6,7.2v14.1h-3.3v-2.3H1386z
			 M1385.9,1032v-1.9h-6.2c-3.4,0-5,1.5-5,3.9c0,2.3,1.7,3.8,4.8,3.8C1382.9,1037.8,1385.9,1035.2,1385.9,1032z"/>
		<path id="XMLID_770_" class="st7" d="M1392.3,1019.6h17.8v3h-7.2v17.7h-3.5v-17.7h-7.2L1392.3,1019.6L1392.3,1019.6z"/>
		<path id="XMLID_767_" class="st7" d="M1431.3,1029.9h-15.8c0.1,4.9,2.3,7.9,6.6,7.9c2.9,0,4.6-1.2,5.3-3.2h3.5
			c-0.7,3.5-3.7,6.3-8.8,6.3c-6.5,0-10.1-4.7-10.1-11.1c0-6.4,3.7-10.7,10-10.7c6.2,0,9.1,4.6,9.3,9.7V1029.9z M1415.7,1027h12
			c-0.2-2.6-2.2-4.9-5.7-4.9C1418.2,1022.1,1416.2,1024.4,1415.7,1027z"/>
		<path id="XMLID_765_" class="st7" d="M1433.4,1037.1h0.7c2.8,0,4.1-2.1,4.1-9.4v-8h15.9v20.7h-3.5v-17.7h-9.1v5.1
			c0,9.5-2.2,12.6-7.3,12.6h-0.7L1433.4,1037.1L1433.4,1037.1z"/>
		<path id="XMLID_762_" class="st7" d="M1463.2,1026.5h6.1c5.1,0,7.8,2.6,7.8,6.9c0,4.3-2.8,6.9-7.8,6.9h-9.6v-20.7h3.5V1026.5z
			 M1468.8,1037.3c3.6,0,4.8-1.5,4.8-3.9c0-2.5-1.2-3.9-4.8-3.9h-5.6v7.8L1468.8,1037.3L1468.8,1037.3z"/>
		<path id="XMLID_760_" class="st7" d="M1496,1040.3v-9.1h-11.5v9.1h-3.5v-20.7h3.5v8.6h11.5v-8.6h3.5v20.7H1496z"/>
		<path id="XMLID_756_" class="st7" d="M1508.7,1019.6v6.9h5.7c5.1,0,7.8,2.6,7.8,6.9c0,4.3-2.8,6.9-7.8,6.9h-9.2v-20.7
			L1508.7,1019.6L1508.7,1019.6z M1508.7,1037.3h5.2c3.6,0,4.8-1.5,4.8-3.9c0-2.5-1.2-3.9-4.8-3.9h-5.2V1037.3z M1529.1,1019.6v20.7
			h-3.5v-20.7H1529.1z"/>
		<path id="XMLID_753_" class="st7" d="M1534.8,1040.3v-20.7h3.4v16h0.9l9.1-16h5.1v20.7h-3.4v-16h-0.9l-9.3,16H1534.8z
			 M1550.4,1010.6c-0.1,3.8-2.5,6-6.4,6s-6.2-2.2-6.4-6h2.8c0,2.1,1.1,3.5,3.5,3.5c2.5,0,3.5-1.4,3.6-3.5H1550.4z"/>
		<path id="XMLID_751_" class="st7" d="M1286.9,1065.2h17.8v3h-7.2v17.7h-3.5v-17.7h-7.2L1286.9,1065.2L1286.9,1065.2z"/>
		<path id="XMLID_748_" class="st7" d="M1326,1075.5h-15.8c0.1,4.9,2.3,7.9,6.6,7.9c2.9,0,4.6-1.2,5.3-3.2h3.5
			c-0.7,3.5-3.7,6.3-8.8,6.3c-6.5,0-10.1-4.7-10.1-11.1s3.7-10.7,10-10.7c6.2,0,9.1,4.6,9.3,9.7V1075.5z M1310.4,1072.6h12
			c-0.2-2.6-2.2-4.9-5.7-4.9C1312.9,1067.7,1310.8,1069.9,1310.4,1072.6z"/>
		<path id="XMLID_746_" class="st7" d="M1340.1,1076.8h-6.2v9.1h-3.5v-20.7h3.5v8.6h6.3l4.3-8.6h3.7l-5.1,10l5.3,10.7h-3.7
			L1340.1,1076.8z"/>
		<path id="XMLID_744_" class="st7" d="M1369.2,1079.6c-0.8,4.1-3.9,6.8-8.7,6.8c-6.5,0-10.1-4.8-10.1-10.9
			c0-6.3,3.6-10.9,10.1-10.9c4.9,0,7.9,2.7,8.6,6.5h-3.5c-0.7-2.1-2.3-3.5-5.1-3.5c-4.7,0-6.6,3.7-6.6,7.8c0,4.2,1.9,7.9,6.6,7.9
			c3,0,4.7-1.4,5.2-3.7L1369.2,1079.6L1369.2,1079.6z"/>
		<path id="XMLID_742_" class="st7" d="M1371.3,1065.2h17.8v3h-7.2v17.7h-3.5v-17.7h-7.2L1371.3,1065.2L1371.3,1065.2z"/>
		<path id="XMLID_740_" class="st7" d="M1400.3,1065.1c0.3-5.8,4.5-8.5,9.6-8.5c5.4,0,9.3,3,9.3,8.8c0,3.9-3,7.6-6.4,10.4l-7.2,6.1
			v0.9h14.5v3.2h-19.8v-4.1l4.2-3.5c2.3-1.9,5-4.2,6.5-5.6c2-1.8,4.5-4.1,4.5-7.5c0-3.6-2.3-5.6-5.8-5.6c-3.2,0-5.5,1.7-5.9,5.3
			L1400.3,1065.1L1400.3,1065.1z"/>
		<path id="XMLID_737_" class="st7" d="M1444.3,1075.9v3.2h-3.9v6.7h-3.5v-6.7h-14.2v-4.1l12.7-17.9h5.1v18.8L1444.3,1075.9
			L1444.3,1075.9z M1436.9,1075.9v-14.8h-0.9l-9.6,13.9v0.9L1436.9,1075.9L1436.9,1075.9z"/>
		<path id="XMLID_735_" class="st7" d="M1445.1,1091.7l12.4-37h3.2l-12.3,37H1445.1z"/>
		<path id="XMLID_733_" class="st7" d="M1463,1065.1c0.3-5.8,4.5-8.5,9.6-8.5c5.4,0,9.3,3,9.3,8.8c0,3.9-3,7.6-6.4,10.4l-7.2,6.1
			v0.9h14.5v3.2H1463v-4.1l4.2-3.5c2.3-1.9,5-4.2,6.5-5.6c2-1.8,4.5-4.1,4.5-7.5c0-3.6-2.3-5.6-5.8-5.6c-3.2,0-5.5,1.7-5.9,5.3
			L1463,1065.1L1463,1065.1z"/>
		<path id="XMLID_730_" class="st7" d="M1506.3,1076.5c0,5.5-3.7,9.9-9.8,9.9c-6.1,0-10.6-3.8-10.6-14.1c0-8.8,3.4-15.7,10.9-15.7
			c4.9,0,8,2.9,8.6,6.9h-3.6c-0.7-2.4-2.3-3.7-5.1-3.7c-4.6,0-7.2,3.9-7.4,10.2h0.9c1-1.2,3.3-2.8,6.7-2.8
			C1502.4,1067.2,1506.3,1071.1,1506.3,1076.5z M1502.7,1076.7c0-4.3-2.8-6.4-6.3-6.4s-6.2,2.2-6.2,6.3c0,4.2,2.8,6.6,6.3,6.6
			S1502.7,1081,1502.7,1076.7z"/>
		<path id="XMLID_727_" class="st7" d="M1513.8,1065.2v2.2h0.9c1.2-1.4,3.2-2.8,6.5-2.8c5.7,0,9.1,4.8,9.1,10.9
			c0,6.2-3.4,10.9-9.1,10.9c-3.3,0-5.2-1.3-6.3-2.8h-0.9v10.4h-3.5v-28.9L1513.8,1065.2L1513.8,1065.2z M1513.9,1075.5
			c0,4.1,1.9,7.9,6.5,7.9c4.2,0,6.4-3.2,6.4-7.9c0-4.6-2.2-7.9-6.4-7.9C1515.8,1067.7,1513.9,1071.5,1513.9,1075.5z"/>
		<path id="XMLID_725_" class="st7" d="M1544.7,1065.2v3h-5.2v11.4c0,2.1,0.9,3.2,3.7,3.2h1.5v3.1h-1.6c-4.5,0-7.1-1.4-7.1-5.8
			v-11.9h-3.6v-3h3.6v-6.2h3.5v6.2H1544.7z"/>
		<path id="XMLID_723_" class="st7" d="M1549.2,1085.9v-4.8h4.3v4.8H1549.2z"/>
	</g>
</g>
</svg>
