<?xml version="1.0" encoding="utf-8"?>
<!-- Generator: Adobe Illustrator 19.0.0, SVG Export Plug-In . SVG Version: 6.00 Build 0)  -->
<svg version="1.1" id="Layer_1_copy" xmlns="http://www.w3.org/2000/svg" xmlns:xlink="http://www.w3.org/1999/xlink" x="0px"
	 y="0px" viewBox="0 0 2048 2156" style="enable-background:new 0 0 2048 2156;" xml:space="preserve">
<style type="text/css">
	.st0{fill:#FFFFFF;}
	.st1{fill:none;stroke:#36AFA7;stroke-width:2;stroke-miterlimit:10;}
	.st2{fill:#101010;}
	.st3{fill:#36AFA7;}
</style>
<rect id="XMLID_158_" class="st0" width="2048" height="2156"/>
<g id="XMLID_135_">
	<g id="XMLID_144_">
		<rect id="XMLID_155_" x="2" y="1120" class="st1" width="1283.6" height="1033"/>
		<line id="XMLID_149_" class="st1" x1="857.7" y1="1120" x2="857.7" y2="2153"/>
		<line id="XMLID_146_" class="st1" x1="429.9" y1="1120" x2="429.9" y2="2153"/>
	</g>
	<g id="XMLID_13562_">
		<path id="XMLID_13563_" class="st2" d="M83.9,1187.2c-7.4,0-11.7,2.8-12.8,8.3H60.3c1.3-11.1,10.2-17.8,23.6-17.8
			c7,0,12.5,1.6,16.4,4.8c3.9,3.1,5.9,7.1,5.9,11.9c0,6-2.2,10-6.4,12.4v2.1c5.8,2.3,8.7,7,8.7,14.2c0,5.4-2.2,9.9-6.5,13.4
			c-4.3,3.6-10.3,5.4-17.8,5.4c-15.7,0-24.6-7-26.3-19.1h10.9c1.6,6.4,6.8,9.6,15.5,9.6c8.1,0,13.4-3.7,13.4-9.7
			c0-6.2-4.2-9.4-12.4-9.4h-9.5v-9.3h9.5c7.2,0,10.2-3.5,10.2-8.4C95.6,1190.2,90.8,1187.2,83.9,1187.2z"/>
		<path id="XMLID_13565_" class="st2" d="M143.7,1240.7v-4.1h-2.1c-2.7,3.5-7,5.2-13,5.2c-4.8,0-8.7-1.4-11.5-4.2
			c-2.9-2.9-4.2-6.2-4.2-10.3c0-4,1.5-7.4,4.3-10.4s7.3-4.4,13.2-4.4h13v-1.3c0-5.1-3-8.1-9.3-8.1c-5.5,0-8.4,1.9-8.8,5.6h-9.7
			c0.4-8.2,7.7-13.3,18.2-13.3c11.9,0,19.1,5.3,19.1,15.9v29.3H143.7z M140,1230.7c2.3-2.2,3.4-4.8,3.4-7.8v-3.4h-11.3
			c-6.1,0-9.4,2.7-9.4,7.3c0,4.5,3.3,7.1,8.9,7.1C135,1233.9,137.7,1232.9,140,1230.7z"/>
		<path id="XMLID_13686_" class="st2" d="M162.3,1240.7v-44.1h34.4v8.3H172v35.8H162.3z"/>
		<path id="XMLID_13924_" class="st2" d="M236.7,1235.5c-4,4.2-9.4,6.4-16.2,6.4s-12.2-2.2-16.3-6.4c-4-4.3-6-10-6-16.8
			s2-12.4,6-16.6c4.1-4.3,9.4-6.5,16.3-6.5s12.2,2.2,16.2,6.5c4.1,4.2,6.1,9.8,6.1,16.6S240.8,1231.1,236.7,1235.5z M220.5,1203.8
			c-8.1,0-12.5,6.5-12.5,14.8c0,8.4,4.4,14.9,12.5,14.9s12.5-6.5,12.5-14.9C233,1210.3,228.6,1203.8,220.5,1203.8z"/>
		<path id="XMLID_13927_" class="st2" d="M245.5,1240.7v-9.3h1.6c6,0,8.4-4.2,8.4-17v-17.8h35.7v44.1h-9.8V1205h-16.9v9.8
			c0,9.5-1.4,16.3-4.2,20.2c-2.7,3.9-7.1,5.8-13.2,5.8H245.5z"/>
		<path id="XMLID_13929_" class="st2" d="M337,1235.5c-4,4.2-9.4,6.4-16.2,6.4s-12.2-2.2-16.3-6.4c-4-4.3-6-10-6-16.8s2-12.4,6-16.6
			c4.1-4.3,9.4-6.5,16.3-6.5s12.2,2.2,16.2,6.5c4.1,4.2,6.1,9.8,6.1,16.6S341.1,1231.1,337,1235.5z M320.8,1203.8
			c-8.1,0-12.5,6.5-12.5,14.8c0,8.4,4.4,14.9,12.5,14.9s12.5-6.5,12.5-14.9C333.3,1210.3,328.9,1203.8,320.8,1203.8z"/>
		<path id="XMLID_13932_" class="st2" d="M383.1,1218.4c4.4,1.1,7.4,4.8,7.4,10.2c0,8-5.5,12.1-15.6,12.1h-24.3v-44.1h23.6
			c8.9,0,13.9,4.2,13.9,11.2c0,3.9-2.2,7.2-4.9,8.6V1218.4z M360.1,1204.1v10.4H372c4.2,0,6.2-2.2,6.2-5.2c0-3.5-2.1-5.2-6.2-5.2
			H360.1z M373,1233.3c5,0,7.5-1.9,7.5-5.8s-2.5-5.9-7.5-5.9h-12.9v11.7H373z"/>
		<path id="XMLID_13936_" class="st2" d="M433.7,1235.5c-4,4.2-9.4,6.4-16.2,6.4s-12.2-2.2-16.3-6.4c-4-4.3-6-10-6-16.8
			s2-12.4,6-16.6c4.1-4.3,9.4-6.5,16.3-6.5s12.2,2.2,16.2,6.5c4.1,4.2,6.1,9.8,6.1,16.6S437.8,1231.1,433.7,1235.5z M417.5,1203.8
			c-8.1,0-12.5,6.5-12.5,14.8c0,8.4,4.4,14.9,12.5,14.9s12.5-6.5,12.5-14.9C430,1210.3,425.6,1203.8,417.5,1203.8z"/>
		<path id="XMLID_13939_" class="st2" d="M477.7,1240.7l-9.4-18.4H457v18.4h-9.8v-44.1h9.8v17.3h11.5l8.8-17.3h10l-10.8,21.2
			l11.4,22.9H477.7z"/>
		<path id="XMLID_13941_" class="st2" d="M505.2,1240.7h-11.2v-11.6h11.2V1240.7z"/>
		<path id="XMLID_13943_" class="st2" d="M88.2,1270.9c9.3,0,16.5,3,21.6,9c5.2,6,7.8,13.7,7.8,23c0,9.4-2.6,17.1-7.8,23
			c-5.1,6-12.4,9-21.6,9s-16.5-3-21.7-9c-5.2-6-7.8-13.7-7.8-23c0-9.4,2.6-17.1,7.8-23C71.7,1273.9,79,1270.9,88.2,1270.9z
			 M88.2,1325.5c6.2,0,10.9-2.2,14.1-6.4s4.8-9.7,4.8-16.2c0-6.5-1.6-12-4.8-16.2c-3.2-4.2-7.9-6.4-14.1-6.4s-11,2.2-14.2,6.4
			c-3.2,4.2-4.8,9.7-4.8,16.2c0,6.5,1.6,12,4.8,16.2C77.2,1323.4,82,1325.5,88.2,1325.5z"/>
		<path id="XMLID_13946_" class="st2" d="M165.5,1325.5h8v20.7h-9.4v-12.4h-35.3v12.4h-9.4v-20.7h6.2c3-7.2,4.6-15,4.6-23.4v-12.4
			h35.2V1325.5z M155.7,1325.5v-27.4h-16.5v4.2c0,8.7-1.3,16.5-4,23.3H155.7z"/>
		<path id="XMLID_13949_" class="st2" d="M190.1,1333.8H179v-44.1h9.5v29.1h2.1l18.1-29.1H220v44.1h-9.5v-29.1h-2.1L190.1,1333.8z"
			/>
		<path id="XMLID_13951_" class="st2" d="M270.9,1333.8h-9.8v-18.4h-21.3v18.4h-9.8v-44.1h9.8v17.3h21.3v-17.3h9.8V1333.8z"/>
		<path id="XMLID_13953_" class="st2" d="M334.1,1311.5c4.4,1.1,7.4,4.8,7.4,10.2c0,8-5.5,12.1-15.6,12.1h-24.3v-44.1h23.6
			c8.9,0,13.9,4.2,13.9,11.2c0,3.9-2.2,7.2-4.9,8.6V1311.5z M311.2,1297.2v10.4h11.9c4.2,0,6.2-2.2,6.2-5.2c0-3.5-2.1-5.2-6.2-5.2
			H311.2z M324.1,1326.4c5,0,7.5-1.9,7.5-5.8s-2.5-5.9-7.5-5.9h-12.9v11.7H324.1z"/>
		<path id="XMLID_13957_" class="st2" d="M388.6,1312.6H356c0.3,9.4,4.4,14,12.4,14c5.1,0,8.3-1.9,9.6-5.6h10
			c-1.7,8.4-8.6,13.9-19.7,13.9c-6.8,0-12.2-2.2-16.1-6.5c-3.9-4.3-5.9-10-5.9-17c0-7,1.9-12.6,5.8-16.6c3.9-4.2,9.3-6.2,15.9-6.2
			c6.3,0,11.3,2,14.9,5.9c3.6,3.9,5.5,8.8,5.6,14.8V1312.6z M356.5,1305.3h22.1c-0.7-5.2-4.4-8.9-10.6-8.9
			C361.5,1296.4,357.6,1299.9,356.5,1305.3z"/>
		<path id="XMLID_13960_" class="st2" d="M434.6,1319.7c-1.4,9.3-8.9,15.2-19.4,15.2c-6.8,0-12.1-2.2-16-6.4
			c-3.9-4.2-5.8-9.9-5.8-16.8c0-6.8,1.9-12.5,5.8-16.7c3.9-4.2,9.3-6.4,16-6.4c10.5,0,17.8,5.8,19.1,14.5h-9.7
			c-1.3-4.2-4.4-6.2-9.3-6.2c-8.2,0-12.1,6.1-12.1,14.7c0,8.7,3.9,15,12.1,15c5.4,0,8.6-2.3,9.6-6.9H434.6z"/>
		<path id="XMLID_13962_" class="st2" d="M511.6,1289.8h9.5v44.1h-58.8v-44.1h9.5v35.8H487v-35.8h9.4v35.8h15.2V1289.8z"/>
		<path id="XMLID_13964_" class="st2" d="M531.1,1289.8h9.4v4.2h2.1c2.9-3.6,7.2-5.4,13-5.4s10.5,2.2,13.9,6.5
			c3.5,4.3,5.2,9.9,5.2,16.6c0,6.8-1.7,12.4-5.2,16.7c-3.4,4.3-8.1,6.5-13.9,6.5c-5.7,0-10-1.8-12.6-5.4h-2.1v21.6h-9.8V1289.8z
			 M540.7,1311.8c0,8.4,4.2,14.9,12.2,14.9c7.7,0,12-6,12-14.9c0-8.9-4.3-14.8-12-14.8C544.8,1296.9,540.7,1303.4,540.7,1311.8z"/>
		<path id="XMLID_13967_" class="st2" d="M593.2,1333.8h-11.1v-44.1h9.5v29.1h2.1l18.1-29.1h11.3v44.1h-9.5v-29.1h-2.1L593.2,1333.8
			z"/>
		<path id="XMLID_13969_" class="st2" d="M663.7,1351.2h-9.6v-17.3h-1c-7-0.1-12.6-2.1-16.5-6.1c-3.9-4.1-5.9-9.4-5.9-15.9
			c0-6.5,1.9-11.7,5.8-15.8c3.9-4.1,9.4-6.1,16.4-6.2h1.3v-18.9h9.6v18.9h1.3c6.9,0.1,12.4,2.2,16.3,6.2c3.9,4.1,5.9,9.3,5.9,15.8
			c0,13.5-8.6,22.1-23.5,22.1V1351.2z M653,1326h1.1v-28.3h-1c-8.3,0.1-12.8,6.1-12.8,14.1C640.2,1320,644.7,1325.9,653,1326z
			 M663.7,1326h1c8.3-0.1,12.9-6,12.9-14.2c0-8.1-4.6-14-12.9-14.1h-1V1326z"/>
		<path id="XMLID_13973_" class="st2" d="M689.6,1298.1v-8.3h39.5v8.3h-14.8v35.8h-9.8v-35.8H689.6z"/>
		<path id="XMLID_13975_" class="st2" d="M762.5,1333.8v-4.1h-2.1c-2.7,3.5-7,5.2-13,5.2c-4.8,0-8.7-1.4-11.5-4.2
			c-2.9-2.9-4.2-6.2-4.2-10.3c0-4,1.5-7.4,4.3-10.4s7.3-4.4,13.2-4.4h13v-1.3c0-5.1-3-8.1-9.3-8.1c-5.5,0-8.4,1.9-8.8,5.6h-9.7
			c0.4-8.2,7.7-13.3,18.2-13.3c11.9,0,19.1,5.3,19.1,15.9v29.3H762.5z M758.8,1323.8c2.3-2.2,3.4-4.8,3.4-7.8v-3.4h-11.3
			c-6.1,0-9.4,2.7-9.4,7.3c0,4.5,3.3,7.1,8.9,7.1C753.8,1327,756.5,1326,758.8,1323.8z"/>
		<path id="XMLID_13978_" class="st2" d="M791.8,1333.8h-11.2v-11.6h11.2V1333.8z"/>
		<path id="XMLID_13980_" class="st2" d="M103.3,1395.6c4.8,2.2,8.3,7.5,8.3,13.7c0,10.5-7.4,17.7-21.1,17.7H61.7v-61.8h28
			c6.4,0,11.3,1.6,14.8,4.6c3.6,3,5.3,6.8,5.3,11.4c0,5.9-2.2,10-6.5,12.4V1395.6z M88.7,1390.5c6.9,0,10.4-2.8,10.4-8.2
			c0-5.5-3.5-8.1-10.4-8.1H72.1v16.4H88.7z M89.1,1417.9c7.9,0,11.9-3.1,11.9-9.4c0-6.1-4-9.3-11.9-9.3h-17v18.6H89.1z"/>
		<path id="XMLID_13984_" class="st2" d="M119.2,1382.9h9.8v13.7h11c11,0,17.1,5.5,17.1,15c0,9.6-6.1,15.4-17.1,15.4h-20.8V1382.9z
			 M129,1404.4v14.2h9.6c6.3,0,8.7-2.5,8.7-7.1c0-4.8-2.4-7.1-8.7-7.1H129z M164,1382.9h9.8v44.1H164V1382.9z"/>
		<path id="XMLID_13988_" class="st2" d="M183.8,1382.9h9.4v4.2h2.1c2.9-3.6,7.2-5.4,13-5.4s10.5,2.2,13.9,6.5
			c3.5,4.3,5.2,9.9,5.2,16.6c0,6.8-1.7,12.4-5.2,16.7c-3.4,4.3-8.1,6.5-13.9,6.5c-5.7,0-10-1.8-12.6-5.4h-2.1v21.6h-9.8V1382.9z
			 M193.3,1404.9c0,8.4,4.2,14.9,12.2,14.9c7.7,0,12-6,12-14.9c0-8.9-4.3-14.8-12-14.8C197.5,1390,193.3,1396.5,193.3,1404.9z"/>
		<path id="XMLID_13991_" class="st2" d="M262.4,1426.9v-4.1h-2.1c-2.7,3.5-7,5.2-13,5.2c-4.8,0-8.7-1.4-11.5-4.2
			c-2.9-2.9-4.2-6.2-4.2-10.3c0-4,1.5-7.4,4.3-10.4s7.3-4.4,13.2-4.4h13v-1.3c0-5.1-3-8.1-9.3-8.1c-5.5,0-8.4,1.9-8.8,5.6h-9.7
			c0.4-8.2,7.7-13.3,18.2-13.3c11.9,0,19.1,5.3,19.1,15.9v29.3H262.4z M258.6,1416.9c2.3-2.2,3.4-4.8,3.4-7.8v-3.4h-11.3
			c-6.1,0-9.4,2.7-9.4,7.3c0,4.5,3.3,7.1,8.9,7.1C253.6,1420.1,256.4,1419.1,258.6,1416.9z"/>
		<path id="XMLID_13994_" class="st2" d="M313.4,1404.6c4.4,1.1,7.4,4.8,7.4,10.2c0,8-5.5,12.1-15.6,12.1h-24.3v-44.1h23.6
			c8.9,0,13.9,4.2,13.9,11.2c0,3.9-2.2,7.2-4.9,8.6V1404.6z M290.5,1390.3v10.4h11.9c4.2,0,6.2-2.2,6.2-5.2c0-3.5-2.1-5.2-6.2-5.2
			H290.5z M303.4,1419.5c5,0,7.5-1.9,7.5-5.8s-2.5-5.9-7.5-5.9h-12.9v11.7H303.4z"/>
		<path id="XMLID_13998_" class="st2" d="M369.1,1426.9h-9.8v-18.4H338v18.4h-9.8v-44.1h9.8v17.3h21.3v-17.3h9.8V1426.9z"/>
		<path id="XMLID_14000_" class="st2" d="M390.3,1426.9h-11.1v-44.1h9.5v29.1h2.1l18.1-29.1h11.3v44.1h-9.5v-29.1h-2.1L390.3,1426.9
			z"/>
		<path id="XMLID_14002_" class="st2" d="M462.8,1404.6c4.4,1.1,7.4,4.8,7.4,10.2c0,8-5.5,12.1-15.6,12.1h-24.3v-44.1h23.6
			c8.9,0,13.9,4.2,13.9,11.2c0,3.9-2.2,7.2-4.9,8.6V1404.6z M439.9,1390.3v10.4h11.9c4.2,0,6.2-2.2,6.2-5.2c0-3.5-2.1-5.2-6.2-5.2
			H439.9z M452.8,1419.5c5,0,7.5-1.9,7.5-5.8s-2.5-5.9-7.5-5.9h-12.9v11.7H452.8z"/>
		<path id="XMLID_14006_" class="st2" d="M505.2,1426.9v-4.1h-2.1c-2.7,3.5-7,5.2-13,5.2c-4.8,0-8.7-1.4-11.5-4.2
			c-2.9-2.9-4.2-6.2-4.2-10.3c0-4,1.5-7.4,4.3-10.4s7.3-4.4,13.2-4.4h13v-1.3c0-5.1-3-8.1-9.3-8.1c-5.5,0-8.4,1.9-8.8,5.6H477
			c0.4-8.2,7.7-13.3,18.2-13.3c11.9,0,19.1,5.3,19.1,15.9v29.3H505.2z M501.4,1416.9c2.3-2.2,3.4-4.8,3.4-7.8v-3.4h-11.3
			c-6.1,0-9.4,2.7-9.4,7.3c0,4.5,3.3,7.1,8.9,7.1C496.4,1420.1,499.2,1419.1,501.4,1416.9z"/>
		<path id="XMLID_14009_" class="st2" d="M564.6,1426.9h-9.8v-18.4h-21.3v18.4h-9.8v-44.1h9.8v17.3h21.3v-17.3h9.8V1426.9z"/>
		<path id="XMLID_14011_" class="st2" d="M585.7,1426.9h-11.1v-44.1h9.5v29.1h2.1l18.1-29.1h11.3v44.1h-9.5v-29.1H604L585.7,1426.9z
			"/>
		<path id="XMLID_14013_" class="st2" d="M665.4,1405.7h-32.6c0.3,9.4,4.4,14,12.4,14c5.1,0,8.3-1.9,9.6-5.6h10
			c-1.7,8.4-8.6,13.9-19.7,13.9c-6.8,0-12.2-2.2-16.1-6.5c-3.9-4.3-5.9-10-5.9-17c0-7,1.9-12.6,5.8-16.6c3.9-4.2,9.3-6.2,15.9-6.2
			c6.3,0,11.3,2,14.9,5.9c3.6,3.9,5.5,8.8,5.6,14.8V1405.7z M633.2,1398.4h22.1c-0.7-5.2-4.4-8.9-10.6-8.9
			C638.3,1389.5,634.4,1393,633.2,1398.4z"/>
		<path id="XMLID_14016_" class="st2" d="M725.9,1404.6c4.4,1.1,7.4,4.8,7.4,10.2c0,8-5.5,12.1-15.6,12.1h-24.3v-44.1h23.6
			c8.9,0,13.9,4.2,13.9,11.2c0,3.9-2.2,7.2-4.9,8.6V1404.6z M702.9,1390.3v10.4h11.9c4.2,0,6.2-2.2,6.2-5.2c0-3.5-2.1-5.2-6.2-5.2
			H702.9z M715.8,1419.5c5,0,7.5-1.9,7.5-5.8s-2.5-5.9-7.5-5.9h-12.9v11.7H715.8z"/>
		<path id="XMLID_14020_" class="st2" d="M735.9,1426.9v-9.3h1.6c6,0,8.4-4.2,8.4-17v-17.8h35.7v44.1h-9.8v-35.8h-16.9v9.8
			c0,9.5-1.4,16.3-4.2,20.2c-2.7,3.9-7.1,5.8-13.2,5.8H735.9z"/>
		<path id="XMLID_14022_" class="st2" d="M831.3,1405.7h-32.6c0.3,9.4,4.4,14,12.4,14c5.1,0,8.3-1.9,9.6-5.6h10
			c-1.7,8.4-8.6,13.9-19.7,13.9c-6.8,0-12.2-2.2-16.1-6.5c-3.9-4.3-5.9-10-5.9-17c0-7,1.9-12.6,5.8-16.6c3.9-4.2,9.3-6.2,15.9-6.2
			c6.3,0,11.3,2,14.9,5.9c3.6,3.9,5.5,8.8,5.6,14.8V1405.7z M799.1,1398.4h22.1c-0.7-5.2-4.4-8.9-10.6-8.9
			C804.2,1389.5,800.3,1393,799.1,1398.4z"/>
		<path id="XMLID_14025_" class="st2" d="M871.2,1404.6c4.4,1.1,7.4,4.8,7.4,10.2c0,8-5.5,12.1-15.6,12.1h-24.3v-44.1h23.6
			c8.9,0,13.9,4.2,13.9,11.2c0,3.9-2.2,7.2-4.9,8.6V1404.6z M848.2,1390.3v10.4h11.9c4.2,0,6.2-2.2,6.2-5.2c0-3.5-2.1-5.2-6.2-5.2
			H848.2z M861.1,1419.5c5,0,7.5-1.9,7.5-5.8s-2.5-5.9-7.5-5.9h-12.9v11.7H861.1z"/>
		<path id="XMLID_14029_" class="st2" d="M921.8,1421.7c-4,4.2-9.4,6.4-16.2,6.4s-12.2-2.2-16.3-6.4c-4-4.3-6-10-6-16.8
			s2-12.4,6-16.6c4.1-4.3,9.4-6.5,16.3-6.5s12.2,2.2,16.2,6.5c4.1,4.2,6.1,9.8,6.1,16.6S925.9,1417.3,921.8,1421.7z M905.6,1390
			c-8.1,0-12.5,6.5-12.5,14.8c0,8.4,4.4,14.9,12.5,14.9s12.5-6.5,12.5-14.9C918.1,1396.5,913.7,1390,905.6,1390z"/>
		<path id="XMLID_14032_" class="st2" d="M944.3,1426.9h-11.2v-11.6h11.2V1426.9z"/>
	</g>
	<g id="XMLID_136_">
		<g id="XMLID_13513_">
			<path id="XMLID_13514_" class="st3" d="M57.1,1956h2.8v9.7h6.8l4.5-9.7h3l-5.1,11l5.4,11.6h-3l-4.8-10.4h-6.8v10.4h-2.8V1956z"/>
			<path id="XMLID_13516_" class="st3" d="M80.8,1962.6v1.7h0.7c0.9-1.1,2.4-2.1,5-2.1c4.4,0,7,3.7,7,8.4c0,4.8-2.6,8.4-7,8.4
				c-2.5,0-4-1-4.9-2.1h-0.7v8h-2.7v-22.3H80.8z M80.9,1970.6c0,3.1,1.5,6,5,6c3.2,0,4.9-2.5,4.9-6c0-3.5-1.7-6-4.9-6
				C82.3,1964.5,80.9,1967.5,80.9,1970.6z"/>
			<path id="XMLID_13519_" class="st3" d="M98.9,1984.9l3.3-7.8l-6.8-14.5h2.9l4.9,10.5h0.8l4.4-10.5h2.8l-9.6,22.3H98.9z"/>
			<path id="XMLID_13521_" class="st3" d="M125.7,1978.6V1965H117v13.6h-2.7v-16h14.1v16H125.7z"/>
			<path id="XMLID_13523_" class="st3" d="M145.1,1978.6v-7h-8.8v7h-2.7v-16h2.7v6.6h8.8v-6.6h2.7v16H145.1z"/>
			<path id="XMLID_13525_" class="st3" d="M167.7,1970.6c0,4.7-2.9,8.4-7.9,8.4c-5,0-7.9-3.7-7.9-8.4s2.8-8.4,7.9-8.4
				C164.9,1962.2,167.7,1965.9,167.7,1970.6z M165,1970.6c0-3.1-1.6-6-5.2-6c-3.5,0-5.2,2.9-5.2,6c0,3.1,1.6,6,5.2,6
				C163.4,1976.6,165,1973.7,165,1970.6z"/>
			<path id="XMLID_13528_" class="st3" d="M65,2001.9l5.7-11.9h3l-10.8,22.6h-2.9l3.2-6.8l-8.4-15.8h3.1l6.3,11.9H65z"/>
			<path id="XMLID_13530_" class="st3" d="M86,2004.5c1.5,0.4,2.6,1.7,2.6,3.7c0,2.9-2,4.4-5.6,4.4h-8.2v-16h7.9c3.2,0,5,1.5,5,4
				c0,1.6-0.8,2.7-1.7,3.1V2004.5z M77.4,2003.3h5c1.9,0,2.6-1,2.6-2.2c0-1.2-0.7-2.2-2.6-2.2h-5V2003.3z M82.8,2010.3
				c2.3,0,3.1-1,3.1-2.4s-0.8-2.4-3.1-2.4h-5.4v4.8H82.8z"/>
			<path id="XMLID_13534_" class="st3" d="M106.6,2004.6H94.4c0.1,3.8,1.8,6.1,5.1,6.1c2.2,0,3.6-0.9,4.1-2.5h2.7
				c-0.5,2.7-2.8,4.8-6.8,4.8c-5,0-7.8-3.6-7.8-8.5c0-4.9,2.8-8.2,7.7-8.2c4.7,0,7,3.5,7.1,7.4V2004.6z M94.6,2002.3h9.2
				c-0.2-2-1.7-3.8-4.4-3.8C96.5,1998.6,94.9,2000.3,94.6,2002.3z"/>
			<path id="XMLID_13537_" class="st3" d="M113.4,1996.6v1.7h0.7c0.9-1.1,2.4-2.1,5-2.1c4.4,0,7,3.7,7,8.4c0,4.8-2.6,8.4-7,8.4
				c-2.5,0-4-1-4.9-2.1h-0.7v8h-2.7v-22.3H113.4z M113.4,2004.6c0,3.1,1.5,6,5,6c3.2,0,4.9-2.5,4.9-6c0-3.5-1.7-6-4.9-6
				C114.9,1998.6,113.4,2001.5,113.4,2004.6z"/>
			<path id="XMLID_13540_" class="st3" d="M144.1,2004.6h-12.2c0.1,3.8,1.8,6.1,5.1,6.1c2.2,0,3.6-0.9,4.1-2.5h2.7
				c-0.5,2.7-2.8,4.8-6.8,4.8c-5,0-7.8-3.6-7.8-8.5c0-4.9,2.8-8.2,7.7-8.2c4.7,0,7,3.5,7.1,7.4V2004.6z M132.1,2002.3h9.2
				c-0.2-2-1.7-3.8-4.4-3.8C134,1998.6,132.4,2000.3,132.1,2002.3z"/>
			<path id="XMLID_13543_" class="st3" d="M159.8,2012.6v-7h-8.8v7h-2.7v-16h2.7v6.6h8.8v-6.6h2.7v16H159.8z"/>
			<path id="XMLID_13545_" class="st3" d="M179.2,2012.6v-7h-8.8v7h-2.7v-16h2.7v6.6h8.8v-6.6h2.7v16H179.2z"/>
			<path id="XMLID_13547_" class="st3" d="M201.8,2004.6c0,4.7-2.9,8.4-7.9,8.4c-5,0-7.9-3.7-7.9-8.4s2.8-8.4,7.9-8.4
				C198.9,1996.2,201.8,1999.9,201.8,2004.6z M199.1,2004.6c0-3.1-1.6-6-5.2-6c-3.5,0-5.2,2.9-5.2,6c0,3.1,1.6,6,5.2,6
				C197.4,2010.7,199.1,2007.8,199.1,2004.6z"/>
			<path id="XMLID_13550_" class="st3" d="M73.3,2044v2.6H57.1V2024h15.7v2.6H59.9v7h10.4v2.6H59.9v7.8H73.3z"/>
			<path id="XMLID_13552_" class="st3" d="M94.6,2044.3v6.9H92v-4.5H78.1v4.5h-2.6v-6.9h2.1c1-2.2,2-5.3,2-9.2v-4.4h12v13.6H94.6z
				 M88.9,2033h-6.8v2c0,4-0.8,7.1-1.7,9.2h8.6V2033z"/>
			<path id="XMLID_13555_" class="st3" d="M98.1,2046.6v-16h2.6v12.3h0.7l7-12.3h3.9v16h-2.6v-12.3H109l-7.1,12.3H98.1z"/>
			<path id="XMLID_13557_" class="st3" d="M129,2046.6v-7h-8.8v7h-2.7v-16h2.7v6.6h8.8v-6.6h2.7v16H129z"/>
			<path id="XMLID_13559_" class="st3" d="M151.6,2038.7c0,4.7-2.9,8.4-7.9,8.4c-5,0-7.9-3.7-7.9-8.4s2.8-8.4,7.9-8.4
				C148.7,2030.3,151.6,2033.9,151.6,2038.7z M148.9,2038.7c0-3.1-1.6-6-5.2-6c-3.5,0-5.2,2.9-5.2,6c0,3.1,1.6,6,5.2,6
				C147.3,2044.7,148.9,2041.8,148.9,2038.7z"/>
		</g>
		<g id="XMLID_13476_">
			<path id="XMLID_13477_" class="st3" d="M445.7,1971.6h-9.9l-2.3,6.9h-2.9l7.8-22.6h4.8l7.9,22.6h-3L445.7,1971.6z M436.6,1969
				h8.2l-3.5-10.2h-1.3L436.6,1969z"/>
			<path id="XMLID_13480_" class="st3" d="M461.7,1971.5h-4.8v7h-2.7v-16h2.7v6.6h4.8l3.3-6.6h2.8l-3.9,7.7l4.1,8.3h-2.9
				L461.7,1971.5z"/>
			<path id="XMLID_13482_" class="st3" d="M479.4,1971.5h-4.8v7h-2.7v-16h2.7v6.6h4.8l3.3-6.6h2.8l-3.9,7.7l4.1,8.3h-2.9
				L479.4,1971.5z"/>
			<path id="XMLID_13484_" class="st3" d="M491.2,1984.9l3.3-7.8l-6.8-14.5h2.9l4.9,10.5h0.8l4.4-10.5h2.8l-9.6,22.3H491.2z"/>
			<path id="XMLID_13486_" class="st3" d="M509.3,1962.6v1.7h0.7c0.9-1.1,2.4-2.1,5-2.1c4.4,0,7,3.7,7,8.4c0,4.8-2.6,8.4-7,8.4
				c-2.5,0-4-1-4.9-2.1h-0.7v8h-2.7v-22.3H509.3z M509.3,1970.6c0,3.1,1.5,6,5,6c3.2,0,4.9-2.5,4.9-6c0-3.5-1.7-6-4.9-6
				C510.8,1964.5,509.3,1967.5,509.3,1970.6z"/>
			<path id="XMLID_13489_" class="st3" d="M536.3,1976.9h-0.7c-1,1.2-2.7,2.1-5,2.1c-3.7,0-5.7-2.5-5.7-5.2c0-2.6,1.7-5.3,6.1-5.3
				h5.2v-0.6c0-1.9-1.1-3.3-3.9-3.3c-2.4,0-3.6,0.9-3.7,2.3h-2.7c0.2-2.9,2.8-4.7,6.3-4.7c4,0,6.6,1.9,6.6,5.5v10.9h-2.5V1976.9z
				 M536.2,1972.1v-1.5h-4.8c-2.6,0-3.8,1.1-3.8,3c0,1.8,1.3,2.9,3.7,2.9C534,1976.6,536.2,1974.6,536.2,1972.1z"/>
			<path id="XMLID_13492_" class="st3" d="M542,1962.6h13.7v2.3h-5.5v13.6h-2.7V1965H542V1962.6z"/>
			<path id="XMLID_13494_" class="st3" d="M570.8,1978.6v-7h-8.8v7h-2.7v-16h2.7v6.6h8.8v-6.6h2.7v16H570.8z"/>
			<path id="XMLID_13496_" class="st3" d="M593.4,1970.6c0,4.7-2.9,8.4-7.9,8.4c-5,0-7.9-3.7-7.9-8.4s2.8-8.4,7.9-8.4
				C590.5,1962.2,593.4,1965.9,593.4,1970.6z M590.7,1970.6c0-3.1-1.6-6-5.2-6c-3.5,0-5.2,2.9-5.2,6c0,3.1,1.6,6,5.2,6
				C589,1976.6,590.7,1973.7,590.7,1970.6z"/>
			<path id="XMLID_13499_" class="st3" d="M435.5,1990v19.2h0.7l10.5-19.2h4.5v22.6h-2.8v-19.2h-0.7l-10.5,19.2h-4.5V1990H435.5z"/>
			<path id="XMLID_13501_" class="st3" d="M462.3,1998.6c-2.3,0-3.5,0.7-3.9,2.5h-2.6c0.3-3,2.8-4.8,6.5-4.8c4,0,6.1,2,6.1,4.4
				c0,1.8-0.8,2.9-1.7,3.2v0.7c1.2,0.3,2.3,1.4,2.3,3.6c0,2.6-2.3,4.8-6.6,4.8c-4.4,0-6.7-1.9-7.2-4.9h2.6c0.6,2,2.4,2.6,4.6,2.6
				c2.3,0,3.9-0.8,3.9-2.6c0-1.6-0.9-2.5-3.5-2.5H460v-2.3h2.7c2.3,0,3.1-1,3.1-2.3C465.8,1999.4,464.4,1998.6,462.3,1998.6z"/>
			<path id="XMLID_13503_" class="st3" d="M486.5,1996.6v16h-2.7v-6.3h-4.8c-0.3,0-0.6,0-1,0l-2.4,6.3h-2.8l2.7-6.9
				c-1.6-0.8-2.5-2.2-2.5-4.2c0-3,2-4.8,5.6-4.8H486.5z M478.8,1998.9c-2.4,0-3.2,1-3.2,2.6c0,1.6,0.8,2.5,3.2,2.5h4.9v-5.1H478.8z"
				/>
			<path id="XMLID_13506_" class="st3" d="M512,1996.6v13.6h2.9v6.9h-2.6v-4.5h-20.7v-16h2.6v13.6h6.3v-13.6h2.6v13.6h6.3v-13.6H512
				z"/>
			<path id="XMLID_13508_" class="st3" d="M530,2012.6v-7h-8.8v7h-2.7v-16h2.7v6.6h8.8v-6.6h2.7v16H530z"/>
			<path id="XMLID_13510_" class="st3" d="M552.6,2004.6c0,4.7-2.9,8.4-7.9,8.4c-5,0-7.9-3.7-7.9-8.4s2.8-8.4,7.9-8.4
				C549.7,1996.2,552.6,1999.9,552.6,2004.6z M549.9,2004.6c0-3.1-1.6-6-5.2-6c-3.5,0-5.2,2.9-5.2,6c0,3.1,1.6,6,5.2,6
				C548.3,2010.7,549.9,2007.8,549.9,2004.6z"/>
		</g>
	</g>
</g>
<g id="XMLID_117_">
	<g id="XMLID_125_">
		<rect id="XMLID_129_" x="2" y="2" class="st1" width="429.1" height="757.8"/>
		<line id="XMLID_128_" class="st1" x1="288.1" y1="2" x2="288.1" y2="759.8"/>
		<line id="XMLID_126_" class="st1" x1="145" y1="2" x2="145" y2="759.8"/>
	</g>
	<g id="XMLID_13404_">
		<path id="XMLID_13405_" class="st2" d="M25.6,32.6H30V40v1c0,0.4,0.2,1.4,0.5,1.8c0.7,1.1,2,1.9,5.5,1.9c1.8,0,3.6-0.2,5.3-0.7
			V32.6h4.4v25.9h-4.4V48c-1.8,0.4-3.9,0.7-6.2,0.7c-3.5,0-6-0.8-7.3-1.7c-0.6-0.5-1.1-1.1-1.5-1.9c-0.3-0.8-0.5-1.5-0.6-2.1
			c0-0.6-0.1-1.5-0.1-2.5V32.6z"/>
		<path id="XMLID_13407_" class="st2" d="M56.2,58.5h-4.6V40.1h4v12.2h0.9L64,40.1h4.8v18.5h-4V46.3h-0.9L56.2,58.5z"/>
		<path id="XMLID_13409_" class="st2" d="M90.6,52.6C90,56.5,86.8,59,82.5,59c-2.8,0-5.1-0.9-6.7-2.7c-1.6-1.8-2.4-4.1-2.4-7
			c0-2.9,0.8-5.2,2.4-7c1.6-1.8,3.9-2.7,6.7-2.7c4.4,0,7.4,2.4,8,6.1h-4.1c-0.5-1.7-1.9-2.6-3.9-2.6c-3.4,0-5.1,2.6-5.1,6.2
			c0,3.7,1.6,6.3,5.1,6.3c2.2,0,3.6-1,4-2.9H90.6z"/>
		<path id="XMLID_13411_" class="st2" d="M93.3,43.5v-3.5h16.5v3.5h-6.2v15h-4.1v-15H93.3z"/>
		<path id="XMLID_13413_" class="st2" d="M113.7,40.1h4.1v5.7h4.6c4.6,0,7.2,2.3,7.2,6.3c0,4-2.6,6.5-7.2,6.5h-8.7V40.1z
			 M117.8,49.1V55h4c2.6,0,3.7-1.1,3.7-3c0-2-1-3-3.7-3H117.8z M132.5,40.1h4.1v18.5h-4.1V40.1z"/>
		<path id="XMLID_13417_" class="st2" d="M146.9,58.5h-4.6V40.1h4v12.2h0.9l7.6-12.2h4.8v18.5h-4V46.3h-0.9L146.9,58.5z M156.9,32.4
			c-0.2,3.4-2.4,5.4-6.1,5.4s-5.9-2-6.1-5.4h3.2c0.1,1.7,1.1,2.6,2.9,2.6s2.8-0.9,2.9-2.6H156.9z"/>
		<path id="XMLID_13420_" class="st2" d="M169.6,58.5h-4.7v-4.9h4.7V58.5z"/>
		<path id="XMLID_13422_" class="st2" d="M24.2,96.4H25c1.1,0,2-0.3,2.6-0.8c1.2-1,1.9-4.2,1.9-10.7V74.8h18v25.9h-4.4V78.7h-9.5
			v6.7c0,6.2-0.6,10.2-2.1,12.4c-1.5,2.2-3.3,2.9-6.4,2.9h-0.8V96.4z"/>
		<path id="XMLID_13424_" class="st2" d="M58,100.7h-4.6V82.2h4v12.2h0.9l7.6-12.2h4.8v18.5h-4V88.5h-0.9L58,100.7z"/>
		<path id="XMLID_13426_" class="st2" d="M93.4,100.7h-4.1V93h-8.9v7.7h-4.1V82.2h4.1v7.3h8.9v-7.3h4.1V100.7z"/>
		<path id="XMLID_13428_" class="st2" d="M115.6,91.8H102c0.1,3.9,1.8,5.9,5.2,5.9c2.1,0,3.5-0.8,4-2.4h4.2
			c-0.7,3.5-3.6,5.8-8.2,5.8c-2.9,0-5.1-0.9-6.7-2.7c-1.6-1.8-2.5-4.2-2.5-7.1c0-2.9,0.8-5.3,2.4-7c1.6-1.7,3.9-2.6,6.7-2.6
			c2.6,0,4.8,0.8,6.2,2.5c1.5,1.6,2.3,3.7,2.4,6.2V91.8z M102.2,88.7h9.2c-0.3-2.2-1.8-3.7-4.4-3.7C104.3,85,102.7,86.5,102.2,88.7z
			"/>
		<path id="XMLID_13431_" class="st2" d="M124.8,100.7h-4.6V82.2h4v12.2h0.9l7.6-12.2h4.8v18.5h-4V88.5h-0.9L124.8,100.7z
			 M134.9,74.5c-0.2,3.4-2.4,5.4-6.1,5.4s-5.9-2-6.1-5.4h3.2c0.1,1.7,1.1,2.6,2.9,2.6s2.8-0.9,2.9-2.6H134.9z"/>
		<path id="XMLID_13434_" class="st2" d="M160.1,100.7H156V93h-8.9v7.7H143V82.2h4.1v7.3h8.9v-7.3h4.1V100.7z"/>
		<path id="XMLID_13436_" class="st2" d="M165.8,82.2h4.1V88h4.6c4.6,0,7.2,2.3,7.2,6.3c0,4-2.6,6.5-7.2,6.5h-8.7V82.2z M169.9,91.3
			v5.9h4c2.6,0,3.7-1.1,3.7-3c0-2-1-3-3.7-3H169.9z M184.5,82.2h4.1v18.5h-4.1V82.2z"/>
		<path id="XMLID_13440_" class="st2" d="M198.9,100.7h-4.6V82.2h4v12.2h0.9l7.6-12.2h4.8v18.5h-4V88.5h-0.9L198.9,100.7z M209,74.5
			c-0.2,3.4-2.4,5.4-6.1,5.4s-5.9-2-6.1-5.4h3.2c0.1,1.7,1.1,2.6,2.9,2.6s2.8-0.9,2.9-2.6H209z"/>
		<path id="XMLID_13443_" class="st2" d="M221.6,100.7H217v-4.9h4.7V100.7z"/>
		<path id="XMLID_13445_" class="st2" d="M26.8,142.8v-25.9h4.4v10.6h7l5-10.6h4.5l-5.8,12.6l6.1,13.3h-4.5l-5.3-11.4h-7v11.4H26.8z
			"/>
		<path id="XMLID_13447_" class="st2" d="M66.1,140.6c-1.7,1.8-3.9,2.7-6.8,2.7s-5.1-0.9-6.8-2.7c-1.7-1.8-2.5-4.2-2.5-7
			c0-2.9,0.8-5.2,2.5-7c1.7-1.8,4-2.7,6.8-2.7s5.1,0.9,6.8,2.7c1.7,1.8,2.5,4.1,2.5,7C68.6,136.5,67.8,138.8,66.1,140.6z
			 M59.3,127.4c-3.4,0-5.2,2.7-5.2,6.2c0,3.5,1.9,6.2,5.2,6.2s5.2-2.7,5.2-6.2C64.5,130.1,62.7,127.4,59.3,127.4z"/>
		<path id="XMLID_13453_" class="st2" d="M90.3,142.8h-4.1v-7.7h-8.9v7.7h-4.1v-18.5h4.1v7.3h8.9v-7.3h4.1V142.8z"/>
		<path id="XMLID_13455_" class="st2" d="M108.7,142.8l-3.9-7.7h-4.8v7.7H96v-18.5h4.1v7.3h4.8l3.7-7.3h4.2l-4.5,8.9l4.8,9.6H108.7z
			"/>
		<path id="XMLID_13457_" class="st2" d="M117.2,124.4h4v1.8h0.9c1.2-1.5,3-2.2,5.4-2.2c2.4,0,4.4,0.9,5.8,2.7
			c1.5,1.8,2.2,4.1,2.2,7c0,2.9-0.7,5.2-2.2,7c-1.4,1.8-3.4,2.7-5.8,2.7c-2.4,0-4.2-0.8-5.3-2.2h-0.9v9h-4.1V124.4z M121.2,133.6
			c0,3.5,1.7,6.2,5.1,6.2c3.2,0,5-2.5,5-6.2s-1.8-6.2-5-6.2C123,127.4,121.2,130.1,121.2,133.6z"/>
		<path id="XMLID_13460_" class="st2" d="M156.7,134H143c0.1,3.9,1.8,5.9,5.2,5.9c2.1,0,3.5-0.8,4-2.4h4.2c-0.7,3.5-3.6,5.8-8.2,5.8
			c-2.9,0-5.1-0.9-6.7-2.7c-1.6-1.8-2.5-4.2-2.5-7.1c0-2.9,0.8-5.3,2.4-7c1.6-1.7,3.9-2.6,6.7-2.6c2.6,0,4.8,0.8,6.2,2.5
			c1.5,1.6,2.3,3.7,2.4,6.2V134z M143.2,130.9h9.2c-0.3-2.2-1.8-3.7-4.4-3.7C145.3,127.2,143.7,128.6,143.2,130.9z"/>
		<path id="XMLID_13463_" class="st2" d="M158.8,127.9v-3.5h16.5v3.5h-6.2v15h-4.1v-15H158.8z"/>
		<path id="XMLID_13465_" class="st2" d="M196.4,142.8h-4.1v-7.7h-8.9v7.7h-4.1v-18.5h4.1v7.3h8.9v-7.3h4.1V142.8z"/>
		<path id="XMLID_13467_" class="st2" d="M202.1,124.4h4.1v5.7h4.6c4.6,0,7.2,2.3,7.2,6.3c0,4-2.6,6.5-7.2,6.5h-8.7V124.4z
			 M206.2,133.4v5.9h4c2.6,0,3.7-1.1,3.7-3c0-2-1-3-3.7-3H206.2z M220.8,124.4h4.1v18.5h-4.1V124.4z"/>
		<path id="XMLID_13471_" class="st2" d="M235.2,142.8h-4.6v-18.5h4v12.2h0.9l7.6-12.2h4.8v18.5h-4v-12.2h-0.9L235.2,142.8z
			 M245.3,116.7c-0.2,3.4-2.4,5.4-6.1,5.4s-5.9-2-6.1-5.4h3.2c0.1,1.7,1.1,2.6,2.9,2.6s2.8-0.9,2.9-2.6H245.3z"/>
		<path id="XMLID_13474_" class="st2" d="M257.9,142.8h-4.7V138h4.7V142.8z"/>
	</g>
	<g id="XMLID_118_">
		<g id="XMLID_13356_">
			<path id="XMLID_13357_" class="st3" d="M154.7,711.7v2.4h-0.8v-1.6h-5v1.6h-0.8v-2.4h0.7c0.4-0.9,0.8-2.3,0.8-4.5v-1.3h4.2v5.8
				H154.7z M153,706.6h-2.6v0.7c0,2-0.4,3.5-0.7,4.4h3.3V706.6z"/>
			<path id="XMLID_13360_" class="st3" d="M160,710.1c0,1.4-0.8,2.5-2.3,2.5c-1.5,0-2.3-1.1-2.3-2.5s0.8-2.5,2.3-2.5
				C159.2,707.6,160,708.7,160,710.1z M159.3,710.1c0-0.9-0.5-1.8-1.5-1.8c-1,0-1.5,0.9-1.5,1.8c0,0.9,0.5,1.8,1.5,1.8
				C158.8,711.9,159.3,711,159.3,710.1z"/>
			<path id="XMLID_13363_" class="st3" d="M164.6,712.4v-4H162v4h-0.8v-4.7h4.1v4.7H164.6z"/>
			<path id="XMLID_13365_" class="st3" d="M171.2,710.1c0,1.4-0.8,2.5-2.3,2.5c-1.5,0-2.3-1.1-2.3-2.5s0.8-2.5,2.3-2.5
				C170.3,707.6,171.2,708.7,171.2,710.1z M170.4,710.1c0-0.9-0.5-1.8-1.5-1.8c-1,0-1.5,0.9-1.5,1.8c0,0.9,0.5,1.8,1.5,1.8
				C169.9,711.9,170.4,711,170.4,710.1z"/>
			<path id="XMLID_13368_" class="st3" d="M171.9,711.7h0.2c0.6,0,0.9-0.5,0.9-2.1v-1.8h3.6v4.7h-0.8v-4h-2v1.1
				c0,2.1-0.5,2.8-1.6,2.8h-0.2V711.7z"/>
			<path id="XMLID_13370_" class="st3" d="M181.4,712.4v-2.1h-2.6v2.1H178v-4.7h0.8v1.9h2.6v-1.9h0.8v4.7H181.4z"/>
			<path id="XMLID_13372_" class="st3" d="M183.7,712.4v-4.7h0.8v3.6h0.2l2-3.6h1.1v4.7h-0.8v-3.6h-0.2l-2.1,3.6H183.7z"/>
			<path id="XMLID_13374_" class="st3" d="M188.9,707.8h4v0.7h-1.6v4h-0.8v-4h-1.6V707.8z"/>
			<path id="XMLID_13376_" class="st3" d="M197.9,710.1h-3.6c0,1.1,0.5,1.8,1.5,1.8c0.7,0,1-0.3,1.2-0.7h0.8c-0.1,0.8-0.8,1.4-2,1.4
				c-1.5,0-2.3-1.1-2.3-2.5c0-1.4,0.8-2.4,2.2-2.4c1.4,0,2.1,1,2.1,2.2V710.1z M194.4,709.4h2.7c0-0.6-0.5-1.1-1.3-1.1
				C195,708.3,194.5,708.8,194.4,709.4z"/>
			<path id="XMLID_13379_" class="st3" d="M198.6,711.7h0.2c0.6,0,0.9-0.5,0.9-2.1v-1.8h3.6v4.7h-0.8v-4h-2v1.1
				c0,2.1-0.5,2.8-1.6,2.8h-0.2V711.7z"/>
			<path id="XMLID_13381_" class="st3" d="M205.5,709.3h1.4c1.1,0,1.8,0.6,1.8,1.5c0,1-0.6,1.6-1.8,1.6h-2.2v-4.7h0.8V709.3z
				 M206.8,711.7c0.8,0,1.1-0.3,1.1-0.9c0-0.6-0.3-0.9-1.1-0.9h-1.3v1.8H206.8z"/>
			<path id="XMLID_13384_" class="st3" d="M213.1,712.4v-2.1h-2.6v2.1h-0.8v-4.7h0.8v1.9h2.6v-1.9h0.8v4.7H213.1z"/>
			<path id="XMLID_13386_" class="st3" d="M216.2,707.8v1.6h1.3c1.1,0,1.8,0.6,1.8,1.5c0,1-0.6,1.6-1.8,1.6h-2.1v-4.7H216.2z
				 M216.2,711.7h1.2c0.8,0,1.1-0.3,1.1-0.9c0-0.6-0.3-0.9-1.1-0.9h-1.2V711.7z M220.8,707.8v4.7H220v-4.7H220.8z"/>
			<path id="XMLID_13390_" class="st3" d="M222.3,712.4v-4.7h0.8v3.6h0.2l2-3.6h1.1v4.7h-0.8v-3.6h-0.2l-2.1,3.6H222.3z
				 M225.8,705.7c0,0.9-0.6,1.4-1.4,1.4c-0.9,0-1.4-0.5-1.4-1.4h0.6c0,0.5,0.3,0.8,0.8,0.8c0.6,0,0.8-0.3,0.8-0.8H225.8z"/>
			<path id="XMLID_13393_" class="st3" d="M148.3,718.8h4v0.7h-1.6v4h-0.8v-4h-1.6V718.8z"/>
			<path id="XMLID_13395_" class="st3" d="M157.3,721.2h-3.6c0,1.1,0.5,1.8,1.5,1.8c0.7,0,1-0.3,1.2-0.7h0.8c-0.1,0.8-0.8,1.4-2,1.4
				c-1.5,0-2.3-1.1-2.3-2.5c0-1.4,0.8-2.4,2.2-2.4c1.4,0,2.1,1,2.1,2.2V721.2z M153.8,720.5h2.7c0-0.6-0.5-1.1-1.3-1.1
				C154.3,719.4,153.9,719.9,153.8,720.5z"/>
			<path id="XMLID_13398_" class="st3" d="M160.7,721.4h-1.4v2.1h-0.8v-4.7h0.8v1.9h1.4l1-1.9h0.8l-1.1,2.2l1.2,2.4h-0.8
				L160.7,721.4z"/>
			<path id="XMLID_13400_" class="st3" d="M167.5,722.1c-0.2,0.9-0.9,1.5-2,1.5c-1.5,0-2.3-1.1-2.3-2.5c0-1.4,0.8-2.5,2.3-2.5
				c1.1,0,1.8,0.6,1.9,1.5h-0.8c-0.1-0.5-0.5-0.8-1.1-0.8c-1.1,0-1.5,0.8-1.5,1.7c0,0.9,0.4,1.8,1.5,1.8c0.7,0,1.1-0.3,1.2-0.8
				H167.5z"/>
			<path id="XMLID_13402_" class="st3" d="M168.1,718.8h4v0.7h-1.6v4h-0.8v-4h-1.6V718.8z"/>
		</g>
		<g id="XMLID_13308_">
			<path id="XMLID_13309_" class="st3" d="M294.8,711.7v2.4H294v-1.6h-5v1.6h-0.8v-2.4h0.7c0.4-0.9,0.8-2.3,0.8-4.5v-1.3h4.2v5.8
				H294.8z M293.1,706.6h-2.6v0.7c0,2-0.4,3.5-0.7,4.4h3.3V706.6z"/>
			<path id="XMLID_13312_" class="st3" d="M300.1,710.1c0,1.4-0.8,2.5-2.3,2.5c-1.5,0-2.3-1.1-2.3-2.5s0.8-2.5,2.3-2.5
				C299.3,707.6,300.1,708.7,300.1,710.1z M299.4,710.1c0-0.9-0.5-1.8-1.5-1.8c-1,0-1.5,0.9-1.5,1.8c0,0.9,0.5,1.8,1.5,1.8
				C298.9,711.9,299.4,711,299.4,710.1z"/>
			<path id="XMLID_13315_" class="st3" d="M304.7,712.4v-4h-2.5v4h-0.8v-4.7h4.1v4.7H304.7z"/>
			<path id="XMLID_13317_" class="st3" d="M311.3,710.1c0,1.4-0.8,2.5-2.3,2.5c-1.5,0-2.3-1.1-2.3-2.5s0.8-2.5,2.3-2.5
				C310.5,707.6,311.3,708.7,311.3,710.1z M310.5,710.1c0-0.9-0.5-1.8-1.5-1.8c-1,0-1.5,0.9-1.5,1.8c0,0.9,0.5,1.8,1.5,1.8
				C310,711.9,310.5,711,310.5,710.1z"/>
			<path id="XMLID_13320_" class="st3" d="M312,711.7h0.2c0.6,0,0.9-0.5,0.9-2.1v-1.8h3.6v4.7h-0.8v-4h-2v1.1c0,2.1-0.5,2.8-1.6,2.8
				H312V711.7z"/>
			<path id="XMLID_13322_" class="st3" d="M321.5,712.4v-2.1h-2.6v2.1h-0.8v-4.7h0.8v1.9h2.6v-1.9h0.8v4.7H321.5z"/>
			<path id="XMLID_13324_" class="st3" d="M323.8,712.4v-4.7h0.8v3.6h0.2l2-3.6h1.1v4.7h-0.8v-3.6H327l-2.1,3.6H323.8z"/>
			<path id="XMLID_13326_" class="st3" d="M329,707.8h4v0.7h-1.6v4h-0.8v-4H329V707.8z"/>
			<path id="XMLID_13328_" class="st3" d="M338,710.1h-3.6c0,1.1,0.5,1.8,1.5,1.8c0.7,0,1-0.3,1.2-0.7h0.8c-0.1,0.8-0.8,1.4-2,1.4
				c-1.5,0-2.3-1.1-2.3-2.5c0-1.4,0.8-2.4,2.2-2.4c1.4,0,2.1,1,2.1,2.2V710.1z M334.5,709.4h2.7c0-0.6-0.5-1.1-1.3-1.1
				C335.1,708.3,334.6,708.8,334.5,709.4z"/>
			<path id="XMLID_13331_" class="st3" d="M338.7,711.7h0.2c0.6,0,0.9-0.5,0.9-2.1v-1.8h3.6v4.7h-0.8v-4h-2v1.1
				c0,2.1-0.5,2.8-1.6,2.8h-0.2V711.7z"/>
			<path id="XMLID_13333_" class="st3" d="M345.6,709.3h1.4c1.1,0,1.8,0.6,1.8,1.5c0,1-0.6,1.6-1.8,1.6h-2.2v-4.7h0.8V709.3z
				 M346.9,711.7c0.8,0,1.1-0.3,1.1-0.9c0-0.6-0.3-0.9-1.1-0.9h-1.3v1.8H346.9z"/>
			<path id="XMLID_13336_" class="st3" d="M353.2,712.4v-2.1h-2.6v2.1h-0.8v-4.7h0.8v1.9h2.6v-1.9h0.8v4.7H353.2z"/>
			<path id="XMLID_13338_" class="st3" d="M356.3,707.8v1.6h1.3c1.1,0,1.8,0.6,1.8,1.5c0,1-0.6,1.6-1.8,1.6h-2.1v-4.7H356.3z
				 M356.3,711.7h1.2c0.8,0,1.1-0.3,1.1-0.9c0-0.6-0.3-0.9-1.1-0.9h-1.2V711.7z M360.9,707.8v4.7h-0.8v-4.7H360.9z"/>
			<path id="XMLID_13342_" class="st3" d="M362.4,712.4v-4.7h0.8v3.6h0.2l2-3.6h1.1v4.7h-0.8v-3.6h-0.2l-2.1,3.6H362.4z
				 M365.9,705.7c0,0.9-0.6,1.4-1.4,1.4c-0.9,0-1.4-0.5-1.4-1.4h0.6c0,0.5,0.3,0.8,0.8,0.8c0.6,0,0.8-0.3,0.8-0.8H365.9z"/>
			<path id="XMLID_13345_" class="st3" d="M288.4,718.8h4v0.7h-1.6v4H290v-4h-1.6V718.8z"/>
			<path id="XMLID_13347_" class="st3" d="M297.4,721.2h-3.6c0,1.1,0.5,1.8,1.5,1.8c0.7,0,1-0.3,1.2-0.7h0.8c-0.1,0.8-0.8,1.4-2,1.4
				c-1.5,0-2.3-1.1-2.3-2.5c0-1.4,0.8-2.4,2.2-2.4c1.4,0,2.1,1,2.1,2.2V721.2z M293.9,720.5h2.7c0-0.6-0.5-1.1-1.3-1.1
				C294.4,719.4,294,719.9,293.9,720.5z"/>
			<path id="XMLID_13350_" class="st3" d="M300.8,721.4h-1.4v2.1h-0.8v-4.7h0.8v1.9h1.4l1-1.9h0.8l-1.1,2.2l1.2,2.4h-0.8
				L300.8,721.4z"/>
			<path id="XMLID_13352_" class="st3" d="M307.6,722.1c-0.2,0.9-0.9,1.5-2,1.5c-1.5,0-2.3-1.1-2.3-2.5c0-1.4,0.8-2.5,2.3-2.5
				c1.1,0,1.8,0.6,1.9,1.5h-0.8c-0.1-0.5-0.5-0.8-1.1-0.8c-1.1,0-1.5,0.8-1.5,1.7c0,0.9,0.4,1.8,1.5,1.8c0.7,0,1.1-0.3,1.2-0.8
				H307.6z"/>
			<path id="XMLID_13354_" class="st3" d="M308.3,718.8h4v0.7h-1.6v4h-0.8v-4h-1.6V718.8z"/>
		</g>
	</g>
</g>
<g id="XMLID_31_">
	<g id="XMLID_78_">
		<rect id="XMLID_115_" x="763.4" y="2" class="st1" width="1283.6" height="1033"/>
		<line id="XMLID_96_" class="st1" x1="1619.1" y1="2" x2="1619.1" y2="1035"/>
		<line id="XMLID_88_" class="st1" x1="1191.3" y1="2" x2="1191.3" y2="1035"/>
	</g>
	<g id="XMLID_13121_">
		<path id="XMLID_13122_" class="st2" d="M1208.5,52.9c-4.3,0-6.8,1.6-7.4,4.8h-6.2c0.8-6.4,5.9-10.3,13.7-10.3
			c4.1,0,7.2,0.9,9.5,2.8c2.3,1.8,3.4,4.1,3.4,6.9c0,3.5-1.3,5.8-3.7,7.2v1.2c3.4,1.3,5.1,4.1,5.1,8.3c0,3.1-1.3,5.7-3.8,7.8
			c-2.5,2.1-6,3.1-10.4,3.1c-9.1,0-14.3-4.1-15.3-11.1h6.3c1,3.7,4,5.6,9,5.6c4.7,0,7.8-2.2,7.8-5.6c0-3.6-2.4-5.4-7.2-5.4h-5.5
			v-5.4h5.5c4.2,0,5.9-2,5.9-4.9C1215.3,54.7,1212.6,52.9,1208.5,52.9z"/>
		<path id="XMLID_13124_" class="st2" d="M1244.1,84v-2.4h-1.2c-1.6,2-4.1,3-7.5,3c-2.8,0-5-0.8-6.7-2.4c-1.7-1.7-2.5-3.6-2.5-6
			c0-2.3,0.9-4.3,2.5-6s4.2-2.6,7.6-2.6h7.5v-0.8c0-3-1.8-4.7-5.4-4.7c-3.2,0-4.9,1.1-5.1,3.3h-5.6c0.3-4.8,4.5-7.7,10.6-7.7
			c6.9,0,11.1,3.1,11.1,9.3v17H1244.1z M1241.9,78.2c1.3-1.3,2-2.8,2-4.5v-2h-6.5c-3.6,0-5.4,1.6-5.4,4.2c0,2.6,1.9,4.1,5.2,4.1
			C1239,80,1240.6,79.4,1241.9,78.2z"/>
		<path id="XMLID_13127_" class="st2" d="M1255.6,84V58.4h20v4.8h-14.3V84H1255.6z"/>
		<path id="XMLID_13129_" class="st2" d="M1299.6,80.9c-2.3,2.5-5.4,3.7-9.4,3.7c-4,0-7.1-1.3-9.5-3.7c-2.3-2.5-3.5-5.8-3.5-9.8
			s1.2-7.2,3.5-9.7c2.4-2.5,5.5-3.8,9.5-3.8c4,0,7.1,1.3,9.4,3.8c2.4,2.5,3.5,5.7,3.5,9.7S1302,78.4,1299.6,80.9z M1290.2,62.6
			c-4.7,0-7.2,3.8-7.2,8.6c0,4.9,2.6,8.7,7.2,8.7s7.2-3.8,7.2-8.7C1297.4,66.4,1294.9,62.6,1290.2,62.6z"/>
		<path id="XMLID_13132_" class="st2" d="M1305.4,84v-5.4h0.9c3.5,0,4.9-2.4,4.9-9.9V58.4h20.7V84h-5.7V63.2h-9.8v5.7
			c0,5.5-0.8,9.5-2.4,11.7c-1.6,2.3-4.1,3.4-7.7,3.4H1305.4z"/>
		<path id="XMLID_13134_" class="st2" d="M1359.4,80.9c-2.3,2.5-5.4,3.7-9.4,3.7c-4,0-7.1-1.3-9.5-3.7c-2.3-2.5-3.5-5.8-3.5-9.8
			s1.2-7.2,3.5-9.7c2.4-2.5,5.5-3.8,9.5-3.8c4,0,7.1,1.3,9.4,3.8c2.4,2.5,3.5,5.7,3.5,9.7S1361.7,78.4,1359.4,80.9z M1350,62.6
			c-4.7,0-7.2,3.8-7.2,8.6c0,4.9,2.6,8.7,7.2,8.7s7.2-3.8,7.2-8.7C1357.2,66.4,1354.6,62.6,1350,62.6z"/>
		<path id="XMLID_13137_" class="st2" d="M1386.9,71c2.6,0.7,4.3,2.8,4.3,5.9c0,4.6-3.2,7-9.1,7H1368V58.4h13.7
			c5.2,0,8.1,2.5,8.1,6.5c0,2.3-1.3,4.2-2.9,5V71z M1373.6,62.7v6h6.9c2.5,0,3.6-1.3,3.6-3c0-2-1.2-3-3.6-3H1373.6z M1381,79.7
			c2.9,0,4.4-1.1,4.4-3.4c0-2.3-1.5-3.4-4.4-3.4h-7.5v6.8H1381z"/>
		<path id="XMLID_13141_" class="st2" d="M1417.1,80.9c-2.3,2.5-5.4,3.7-9.4,3.7c-4,0-7.1-1.3-9.5-3.7c-2.3-2.5-3.5-5.8-3.5-9.8
			s1.2-7.2,3.5-9.7c2.4-2.5,5.5-3.8,9.5-3.8c4,0,7.1,1.3,9.4,3.8c2.4,2.5,3.5,5.7,3.5,9.7S1419.4,78.4,1417.1,80.9z M1407.7,62.6
			c-4.7,0-7.2,3.8-7.2,8.6c0,4.9,2.6,8.7,7.2,8.7s7.2-3.8,7.2-8.7C1414.9,66.4,1412.3,62.6,1407.7,62.6z"/>
		<path id="XMLID_13144_" class="st2" d="M1443.4,84l-5.4-10.7h-6.6V84h-5.7V58.4h5.7v10.1h6.7l5.1-10.1h5.8l-6.3,12.3l6.6,13.3
			H1443.4z"/>
		<path id="XMLID_13146_" class="st2" d="M1473.1,84h-6.4V58.4h5.5v16.9h1.2l10.5-16.9h6.6V84h-5.5V67.1h-1.2L1473.1,84z"/>
		<path id="XMLID_13148_" class="st2" d="M1494.3,84v-5.4h0.9c3.5,0,4.9-2.4,4.9-9.9V58.4h20.7V84h-5.7V63.2h-9.8v5.7
			c0,5.5-0.8,9.5-2.4,11.7c-1.6,2.3-4.1,3.4-7.7,3.4H1494.3z"/>
		<path id="XMLID_13150_" class="st2" d="M1533.8,84h-6.4V58.4h5.5v16.9h1.2l10.5-16.9h6.6V84h-5.5V67.1h-1.2L1533.8,84z"/>
		<path id="XMLID_13152_" class="st2" d="M1589.5,71c2.6,0.7,4.3,2.8,4.3,5.9c0,4.6-3.2,7-9.1,7h-14.1V58.4h13.7
			c5.2,0,8.1,2.5,8.1,6.5c0,2.3-1.3,4.2-2.9,5V71z M1576.1,62.7v6h6.9c2.5,0,3.6-1.3,3.6-3c0-2-1.2-3-3.6-3H1576.1z M1583.6,79.7
			c2.9,0,4.4-1.1,4.4-3.4c0-2.3-1.5-3.4-4.4-3.4h-7.5v6.8H1583.6z"/>
		<path id="XMLID_13156_" class="st2" d="M1614.8,84v-2.4h-1.2c-1.6,2-4.1,3-7.5,3c-2.8,0-5-0.8-6.7-2.4c-1.7-1.7-2.5-3.6-2.5-6
			c0-2.3,0.9-4.3,2.5-6s4.2-2.6,7.6-2.6h7.5v-0.8c0-3-1.8-4.7-5.4-4.7c-3.2,0-4.9,1.1-5.1,3.3h-5.6c0.3-4.8,4.5-7.7,10.6-7.7
			c6.9,0,11.1,3.1,11.1,9.3v17H1614.8z M1612.7,78.2c1.3-1.3,2-2.8,2-4.5v-2h-6.5c-3.6,0-5.4,1.6-5.4,4.2c0,2.6,1.9,4.1,5.2,4.1
			C1609.7,80,1611.4,79.4,1612.7,78.2z"/>
		<path id="XMLID_13159_" class="st2" d="M1634.9,73.4l-4.8,10.7h-5.8l5.9-13.2l-5.6-12.4h5.8l4.5,10.1h5.7V58.4h5.3v10.1h5.7
			l4.5-10.1h5.8l-5.5,12.4l5.9,13.2h-5.9l-4.8-10.7h-5.7V84h-5.3V73.4H1634.9z"/>
		<path id="XMLID_13161_" class="st2" d="M1690.5,84h-5.7V73.3h-12.4V84h-5.7V58.4h5.7v10.1h12.4V58.4h5.7V84z"/>
		<path id="XMLID_13163_" class="st2" d="M1697.1,58.4h5.7v7.9h6.4c6.4,0,10,3.2,10,8.7c0,5.6-3.6,9-10,9h-12.1V58.4z M1702.8,70.9
			v8.3h5.6c3.7,0,5.1-1.5,5.1-4.1c0-2.8-1.4-4.1-5.1-4.1H1702.8z M1723.1,58.4h5.7V84h-5.7V58.4z"/>
		<path id="XMLID_13167_" class="st2" d="M1741.9,84h-6.4V58.4h5.5v16.9h1.2l10.5-16.9h6.6V84h-5.5V67.1h-1.2L1741.9,84z
			 M1755.8,47.7c-0.3,4.7-3.3,7.4-8.5,7.4s-8.3-2.8-8.5-7.4h4.5c0.2,2.4,1.5,3.6,4,3.6s3.9-1.2,4-3.6H1755.8z"/>
		<path id="XMLID_13170_" class="st2" d="M1192.8,121.7v-4.8h22.9v4.8h-8.6v20.8h-5.7v-20.8H1192.8z"/>
		<path id="XMLID_13172_" class="st2" d="M1242.7,130.2h-18.9c0.2,5.4,2.6,8.1,7.2,8.1c3,0,4.8-1.1,5.6-3.3h5.8
			c-1,4.9-5,8.1-11.4,8.1c-4,0-7.1-1.3-9.4-3.8s-3.4-5.8-3.4-9.9c0-4.1,1.1-7.3,3.4-9.7c2.3-2.4,5.4-3.6,9.3-3.6
			c3.7,0,6.6,1.2,8.7,3.4c2.1,2.3,3.2,5.1,3.3,8.6V130.2z M1224,126h12.8c-0.4-3-2.6-5.2-6.1-5.2C1227,120.8,1224.7,122.8,1224,126z
			"/>
		<path id="XMLID_13175_" class="st2" d="M1265.4,142.5l-5.4-10.7h-6.6v10.7h-5.7v-25.6h5.7V127h6.7l5.1-10.1h5.8l-6.3,12.3
			l6.6,13.3H1265.4z"/>
		<path id="XMLID_13177_" class="st2" d="M1297.6,134.3c-0.8,5.4-5.2,8.9-11.3,8.9c-3.9,0-7-1.3-9.3-3.7c-2.3-2.5-3.4-5.7-3.4-9.8
			c0-4,1.1-7.2,3.4-9.7s5.4-3.7,9.3-3.7c6.1,0,10.3,3.4,11.1,8.5h-5.6c-0.8-2.4-2.6-3.6-5.4-3.6c-4.8,0-7,3.6-7,8.6
			c0,5.1,2.3,8.7,7,8.7c3.1,0,5-1.4,5.6-4H1297.6z"/>
		<path id="XMLID_13179_" class="st2" d="M1300.1,121.7v-4.8h22.9v4.8h-8.6v20.8h-5.7v-20.8H1300.1z"/>
		<path id="XMLID_13181_" class="st2" d="M1361.7,137.7h4.6v12h-5.4v-7.2h-20.5v7.2h-5.4v-12h3.6c1.8-4.2,2.7-8.7,2.7-13.6v-7.2
			h20.5V137.7z M1356,137.7v-15.9h-9.6v2.4c0,5.1-0.8,9.6-2.3,13.5H1356z"/>
		<path id="XMLID_13184_" class="st2" d="M1369,142.5v-5.4h0.9c3.5,0,4.9-2.4,4.9-9.9v-10.4h20.7v25.6h-5.7v-20.8h-9.8v5.7
			c0,5.5-0.8,9.5-2.4,11.7c-1.6,2.3-4.1,3.4-7.7,3.4H1369z"/>
		<path id="XMLID_13186_" class="st2" d="M1423.9,116.9v25.6h-5.7v-9.3h-6c-0.8,0-1.4,0-1.8-0.1l-3.6,9.4h-5.7l4.1-10.6
			c-2.6-1.4-3.9-3.7-3.9-6.8c0-5.1,3.5-8.2,9.7-8.2H1423.9z M1418.2,128.8v-7.2h-6.7c-3,0-4.5,1.2-4.5,3.6c0,2.4,1.5,3.6,4.5,3.6
			H1418.2z"/>
		<path id="XMLID_13189_" class="st2" d="M1443.1,142.5v-25.6h20v4.8h-14.3v20.8H1443.1z"/>
		<path id="XMLID_13191_" class="st2" d="M1467.3,116.9h5.5v2.5h1.2c1.7-2.1,4.2-3.1,7.5-3.1c3.4,0,6.1,1.3,8,3.8c2,2.5,3,5.7,3,9.7
			c0,4-1,7.2-3,9.7c-2,2.5-4.7,3.8-8,3.8c-3.3,0-5.8-1.1-7.3-3.1h-1.2v12.5h-5.7V116.9z M1472.8,129.7c0,4.9,2.4,8.7,7.1,8.7
			c4.5,0,7-3.5,7-8.7s-2.5-8.6-7-8.6C1475.2,121.1,1472.8,124.8,1472.8,129.7z"/>
		<path id="XMLID_13194_" class="st2" d="M1518.5,139.4c-2.3,2.5-5.4,3.7-9.4,3.7c-4,0-7.1-1.3-9.5-3.7c-2.3-2.5-3.5-5.8-3.5-9.8
			s1.2-7.2,3.5-9.7c2.4-2.5,5.5-3.8,9.5-3.8c4,0,7.1,1.3,9.4,3.8c2.4,2.5,3.5,5.7,3.5,9.7S1520.9,136.9,1518.5,139.4z M1509.1,121.1
			c-4.7,0-7.2,3.8-7.2,8.6c0,4.9,2.6,8.7,7.2,8.7s7.2-3.8,7.2-8.7C1516.3,124.8,1513.8,121.1,1509.1,121.1z"/>
		<path id="XMLID_13197_" class="st2" d="M1527.1,142.5v-25.6h8.1l5.7,11.2h1.2l5.7-11.2h8v25.6h-5.5v-18.4h-1.2l-5,9.6h-5.3l-5-9.6
			h-1.2v18.4H1527.1z"/>
		<path id="XMLID_13199_" class="st2" d="M1580.2,142.5l-5.4-10.7h-6.6v10.7h-5.7v-25.6h5.7V127h6.7l5.1-10.1h5.8l-6.3,12.3
			l6.6,13.3H1580.2z"/>
		<path id="XMLID_13201_" class="st2" d="M1610.8,139.4c-2.3,2.5-5.4,3.7-9.4,3.7c-4,0-7.1-1.3-9.5-3.7c-2.3-2.5-3.5-5.8-3.5-9.8
			s1.2-7.2,3.5-9.7c2.4-2.5,5.5-3.8,9.5-3.8c4,0,7.1,1.3,9.4,3.8c2.4,2.5,3.5,5.7,3.5,9.7S1613.1,136.9,1610.8,139.4z M1601.3,121.1
			c-4.7,0-7.2,3.8-7.2,8.6c0,4.9,2.6,8.7,7.2,8.7s7.2-3.8,7.2-8.7C1608.6,124.8,1606,121.1,1601.3,121.1z"/>
		<path id="XMLID_13204_" class="st2" d="M1619.4,142.5v-25.6h20v4.8H1625v20.8H1619.4z"/>
		<path id="XMLID_13206_" class="st2" d="M1663.4,139.4c-2.3,2.5-5.4,3.7-9.4,3.7c-4,0-7.1-1.3-9.5-3.7c-2.3-2.5-3.5-5.8-3.5-9.8
			s1.2-7.2,3.5-9.7c2.4-2.5,5.5-3.8,9.5-3.8c4,0,7.1,1.3,9.4,3.8c2.4,2.5,3.5,5.7,3.5,9.7S1665.7,136.9,1663.4,139.4z M1654,121.1
			c-4.7,0-7.2,3.8-7.2,8.6c0,4.9,2.6,8.7,7.2,8.7s7.2-3.8,7.2-8.7C1661.2,124.8,1658.6,121.1,1654,121.1z"/>
		<path id="XMLID_13209_" class="st2" d="M1707.1,134.3c-0.8,5.4-5.2,8.9-11.3,8.9c-3.9,0-7-1.3-9.3-3.7c-2.3-2.5-3.4-5.7-3.4-9.8
			c0-4,1.1-7.2,3.4-9.7c2.3-2.5,5.4-3.7,9.3-3.7c6.1,0,10.3,3.4,11.1,8.5h-5.6c-0.8-2.4-2.6-3.6-5.4-3.6c-4.8,0-7,3.6-7,8.6
			c0,5.1,2.3,8.7,7,8.7c3.1,0,5-1.4,5.6-4H1707.1z"/>
		<path id="XMLID_13211_" class="st2" d="M1732.8,139.4c-2.3,2.5-5.4,3.7-9.4,3.7c-4,0-7.1-1.3-9.5-3.7c-2.3-2.5-3.5-5.8-3.5-9.8
			s1.2-7.2,3.5-9.7c2.4-2.5,5.5-3.8,9.5-3.8c4,0,7.1,1.3,9.4,3.8c2.4,2.5,3.5,5.7,3.5,9.7S1735.2,136.9,1732.8,139.4z M1723.4,121.1
			c-4.7,0-7.2,3.8-7.2,8.6c0,4.9,2.6,8.7,7.2,8.7s7.2-3.8,7.2-8.7C1730.7,124.8,1728.1,121.1,1723.4,121.1z"/>
		<path id="XMLID_13214_" class="st2" d="M1762.3,139.4c-2.3,2.5-5.4,3.7-9.4,3.7c-4,0-7.1-1.3-9.5-3.7c-2.3-2.5-3.5-5.8-3.5-9.8
			s1.2-7.2,3.5-9.7c2.4-2.5,5.5-3.8,9.5-3.8c4,0,7.1,1.3,9.4,3.8c2.4,2.5,3.5,5.7,3.5,9.7S1764.6,136.9,1762.3,139.4z M1752.9,121.1
			c-4.7,0-7.2,3.8-7.2,8.6c0,4.9,2.6,8.7,7.2,8.7s7.2-3.8,7.2-8.7C1760.1,124.8,1757.5,121.1,1752.9,121.1z"/>
		<path id="XMLID_13217_" class="st2" d="M1792.1,121.1c2.2,2.4,3.3,5.5,3.3,9.3c0,3.7-1.2,6.8-3.6,9.2c-2.4,2.4-5.5,3.6-9.4,3.6
			c-8.3,0-13.1-5.6-13.1-15.6c0-4.7,0.4-8.1,1.8-11.8c1.4-3.7,4.2-6.1,8.4-6.7l6.7-1.1c2-0.4,2.5-0.6,2.5-1.9h4.9
			c-0.2,3.5-1.3,5.7-5.1,6.3l-8.1,1.3c-3.9,0.6-5.5,3-6.3,7.4h1.2c1.8-2.4,4.5-3.5,8.1-3.5C1787,117.5,1789.9,118.7,1792.1,121.1z
			 M1787.8,136c1.3-1.6,1.9-3.5,1.9-5.8c0-4.6-2.6-8-7.2-8c-4.8,0-7.3,3.5-7.3,8c0,2.3,0.6,4.2,1.9,5.8s3.1,2.4,5.4,2.4
			C1784.8,138.3,1786.5,137.5,1787.8,136z"/>
		<path id="XMLID_13220_" class="st2" d="M1829.1,116.9h5.5v20.8h4.6v12h-5.4v-7.2h-33.4v-25.6h5.5v20.8h8.8v-20.8h5.5v20.8h8.8
			V116.9z"/>
		<path id="XMLID_13222_" class="st2" d="M1866.3,130.2h-18.9c0.2,5.4,2.6,8.1,7.2,8.1c3,0,4.8-1.1,5.6-3.3h5.8
			c-1,4.9-5,8.1-11.4,8.1c-4,0-7.1-1.3-9.4-3.8s-3.4-5.8-3.4-9.9c0-4.1,1.1-7.3,3.4-9.7c2.3-2.4,5.4-3.6,9.3-3.6
			c3.7,0,6.6,1.2,8.7,3.4c2.1,2.3,3.2,5.1,3.3,8.6V130.2z M1847.7,126h12.8c-0.4-3-2.6-5.2-6.1-5.2
			C1850.6,120.8,1848.3,122.8,1847.7,126z"/>
		<path id="XMLID_13225_" class="st2" d="M1895.1,142.5h-5.7v-10.7H1877v10.7h-5.7v-25.6h5.7V127h12.4v-10.1h5.7V142.5z"/>
		<path id="XMLID_13227_" class="st2" d="M1908.1,142.5h-6.4v-25.6h5.5v16.9h1.2l10.5-16.9h6.6v25.6h-5.5v-16.9h-1.2L1908.1,142.5z"
			/>
		<path id="XMLID_13229_" class="st2" d="M1953.8,116.9v25.6h-5.7v-9.3h-6c-0.8,0-1.4,0-1.8-0.1l-3.6,9.4h-5.7l4.1-10.6
			c-2.6-1.4-3.9-3.7-3.9-6.8c0-5.1,3.5-8.2,9.7-8.2H1953.8z M1948.2,128.8v-7.2h-6.7c-3,0-4.5,1.2-4.5,3.6c0,2.4,1.5,3.6,4.5,3.6
			H1948.2z"/>
		<path id="XMLID_13232_" class="st2" d="M1217.6,192.8c-0.8,5.4-5.2,8.9-11.3,8.9c-3.9,0-7-1.3-9.3-3.7c-2.3-2.5-3.4-5.7-3.4-9.8
			c0-4,1.1-7.2,3.4-9.7c2.3-2.5,5.4-3.7,9.3-3.7c6.1,0,10.3,3.4,11.1,8.5h-5.6c-0.8-2.4-2.6-3.6-5.4-3.6c-4.8,0-7,3.6-7,8.6
			c0,5.1,2.3,8.7,7,8.7c3.1,0,5-1.4,5.6-4H1217.6z"/>
		<path id="XMLID_13234_" class="st2" d="M1252.9,175.4h5.7v20.8h4.6v12h-5.4V201h-22.5v-25.6h5.7v20.8h12V175.4z"/>
		<path id="XMLID_13236_" class="st2" d="M1290.2,188.7h-18.9c0.2,5.4,2.6,8.1,7.2,8.1c3,0,4.8-1.1,5.6-3.3h5.8
			c-1,4.9-5,8.1-11.4,8.1c-4,0-7.1-1.3-9.4-3.8s-3.4-5.8-3.4-9.9c0-4.1,1.1-7.3,3.4-9.7c2.3-2.4,5.4-3.6,9.3-3.6
			c3.7,0,6.6,1.2,8.7,3.4c2.1,2.3,3.2,5.1,3.3,8.6V188.7z M1271.5,184.4h12.8c-0.4-3-2.6-5.2-6.1-5.2
			C1274.4,179.3,1272.2,181.3,1271.5,184.4z"/>
		<path id="XMLID_13239_" class="st2" d="M1319,201h-5.7v-10.7h-12.4V201h-5.7v-25.6h5.7v10.1h12.4v-10.1h5.7V201z"/>
		<path id="XMLID_13241_" class="st2" d="M1323.1,180.2v-4.8h22.9v4.8h-8.6V201h-5.7v-20.8H1323.1z"/>
		<path id="XMLID_13243_" class="st2" d="M1350.3,175.4h5.5v2.5h1.2c1.7-2.1,4.2-3.1,7.5-3.1c3.4,0,6.1,1.3,8,3.8c2,2.5,3,5.7,3,9.7
			c0,4-1,7.2-3,9.7c-2,2.5-4.7,3.8-8,3.8c-3.3,0-5.8-1.1-7.3-3.1h-1.2v12.5h-5.7V175.4z M1355.8,188.2c0,4.9,2.4,8.7,7.1,8.7
			c4.5,0,7-3.5,7-8.7s-2.5-8.6-7-8.6C1358.2,179.6,1355.8,183.3,1355.8,188.2z"/>
		<path id="XMLID_13246_" class="st2" d="M1396.6,201v-2.4h-1.2c-1.6,2-4.1,3-7.5,3c-2.8,0-5-0.8-6.7-2.4c-1.7-1.7-2.5-3.6-2.5-6
			c0-2.3,0.9-4.3,2.5-6s4.2-2.6,7.6-2.6h7.5v-0.8c0-3-1.8-4.7-5.4-4.7c-3.2,0-4.9,1.1-5.1,3.3h-5.6c0.3-4.8,4.5-7.7,10.6-7.7
			c6.9,0,11.1,3.1,11.1,9.3v17H1396.6z M1394.5,195.2c1.3-1.3,2-2.8,2-4.5v-2h-6.5c-3.6,0-5.4,1.6-5.4,4.2c0,2.6,1.9,4.1,5.2,4.1
			C1391.6,197,1393.2,196.4,1394.5,195.2z"/>
		<path id="XMLID_13249_" class="st2" d="M1405.4,201v-5.4h0.9c3.5,0,4.9-2.4,4.9-9.9v-10.4h20.7V201h-5.7v-20.8h-9.8v5.7
			c0,5.5-0.8,9.5-2.4,11.7c-1.6,2.3-4.1,3.4-7.7,3.4H1405.4z"/>
		<path id="XMLID_13251_" class="st2" d="M1444.2,175.4v7.9h6.9c6.4,0,10,3.2,10,8.7c0,5.6-3.6,9-10,9h-12.6v-25.6H1444.2z
			 M1450.3,196.2c3.7,0,5.1-1.5,5.1-4.1c0-2.8-1.4-4.1-5.1-4.1h-6.1v8.3H1450.3z"/>
		<path id="XMLID_13254_" class="st2" d="M1489.4,201h-5.7v-10.7h-12.4V201h-5.7v-25.6h5.7v10.1h12.4v-10.1h5.7V201z"/>
		<path id="XMLID_13256_" class="st2" d="M1516.8,197.9c-2.3,2.5-5.4,3.7-9.4,3.7c-4,0-7.1-1.3-9.5-3.7c-2.3-2.5-3.5-5.8-3.5-9.8
			s1.2-7.2,3.5-9.7c2.4-2.5,5.5-3.8,9.5-3.8c4,0,7.1,1.3,9.4,3.8c2.4,2.5,3.5,5.7,3.5,9.7S1519.1,195.4,1516.8,197.9z M1507.4,179.6
			c-4.7,0-7.2,3.8-7.2,8.6c0,4.9,2.6,8.7,7.2,8.7s7.2-3.8,7.2-8.7C1514.6,183.3,1512,179.6,1507.4,179.6z"/>
		<path id="XMLID_13259_" class="st2" d="M1525.4,201v-25.6h20v4.8h-14.3V201H1525.4z"/>
		<path id="XMLID_13261_" class="st2" d="M1569.4,197.9c-2.3,2.5-5.4,3.7-9.4,3.7c-4,0-7.1-1.3-9.5-3.7c-2.3-2.5-3.5-5.8-3.5-9.8
			s1.2-7.2,3.5-9.7c2.4-2.5,5.5-3.8,9.5-3.8c4,0,7.1,1.3,9.4,3.8c2.4,2.5,3.5,5.7,3.5,9.7S1571.8,195.4,1569.4,197.9z M1560,179.6
			c-4.7,0-7.2,3.8-7.2,8.6c0,4.9,2.6,8.7,7.2,8.7s7.2-3.8,7.2-8.7C1567.2,183.3,1564.7,179.6,1560,179.6z"/>
		<path id="XMLID_13264_" class="st2" d="M1613.2,192.8c-0.8,5.4-5.2,8.9-11.3,8.9c-3.9,0-7-1.3-9.3-3.7c-2.3-2.5-3.4-5.7-3.4-9.8
			c0-4,1.1-7.2,3.4-9.7s5.4-3.7,9.3-3.7c6.1,0,10.3,3.4,11.1,8.5h-5.6c-0.8-2.4-2.6-3.6-5.4-3.6c-4.8,0-7,3.6-7,8.6
			c0,5.1,2.3,8.7,7,8.7c3.1,0,5-1.4,5.6-4H1613.2z"/>
		<path id="XMLID_13266_" class="st2" d="M1615.6,180.2v-4.8h22.9v4.8h-8.6V201h-5.7v-20.8H1615.6z"/>
		<path id="XMLID_13268_" class="st2" d="M1663.3,197.9c-2.3,2.5-5.4,3.7-9.4,3.7c-4,0-7.1-1.3-9.5-3.7c-2.3-2.5-3.5-5.8-3.5-9.8
			s1.2-7.2,3.5-9.7c2.4-2.5,5.5-3.8,9.5-3.8c4,0,7.1,1.3,9.4,3.8c2.4,2.5,3.5,5.7,3.5,9.7S1665.7,195.4,1663.3,197.9z M1653.9,179.6
			c-4.7,0-7.2,3.8-7.2,8.6c0,4.9,2.6,8.7,7.2,8.7s7.2-3.8,7.2-8.7C1661.2,183.3,1658.6,179.6,1653.9,179.6z"/>
		<path id="XMLID_13271_" class="st2" d="M1669.2,201v-5.4h0.9c3.5,0,4.9-2.4,4.9-9.9v-10.4h20.7V201h-5.7v-20.8h-9.8v5.7
			c0,5.5-0.8,9.5-2.4,11.7c-1.6,2.3-4.1,3.4-7.7,3.4H1669.2z"/>
		<path id="XMLID_13273_" class="st2" d="M1723.5,179.6c2.2,2.4,3.3,5.5,3.3,9.3c0,3.7-1.2,6.8-3.6,9.2c-2.4,2.4-5.5,3.6-9.4,3.6
			c-8.3,0-13.1-5.6-13.1-15.6c0-4.7,0.4-8.1,1.8-11.8c1.4-3.7,4.2-6.1,8.4-6.7l6.7-1.1c2-0.4,2.5-0.6,2.5-1.9h4.9
			c-0.2,3.5-1.3,5.7-5.1,6.3l-8.1,1.3c-3.9,0.6-5.5,3-6.3,7.4h1.2c1.8-2.4,4.5-3.5,8.1-3.5C1718.4,175.9,1721.3,177.2,1723.5,179.6z
			 M1719.2,194.5c1.3-1.6,1.9-3.5,1.9-5.8c0-4.6-2.6-8-7.2-8c-4.8,0-7.3,3.5-7.3,8c0,2.3,0.6,4.2,1.9,5.8c1.3,1.6,3.1,2.4,5.4,2.4
			C1716.1,196.8,1717.9,196,1719.2,194.5z"/>
		<path id="XMLID_13276_" class="st2" d="M1749.5,175.4h5.7v20.8h4.6v12h-5.4V201h-22.5v-25.6h5.7v20.8h12V175.4z"/>
		<path id="XMLID_13278_" class="st2" d="M1779.8,201v-2.4h-1.2c-1.6,2-4.1,3-7.5,3c-2.8,0-5-0.8-6.7-2.4c-1.7-1.7-2.5-3.6-2.5-6
			c0-2.3,0.9-4.3,2.5-6s4.2-2.6,7.6-2.6h7.5v-0.8c0-3-1.8-4.7-5.4-4.7c-3.2,0-4.9,1.1-5.1,3.3h-5.6c0.3-4.8,4.5-7.7,10.6-7.7
			c6.9,0,11.1,3.1,11.1,9.3v17H1779.8z M1777.6,195.2c1.3-1.3,2-2.8,2-4.5v-2h-6.5c-3.6,0-5.4,1.6-5.4,4.2c0,2.6,1.9,4.1,5.2,4.1
			C1774.7,197,1776.3,196.4,1777.6,195.2z"/>
		<path id="XMLID_13281_" class="st2" d="M1219,254.7h4.6v12h-5.4v-7.2h-20.5v7.2h-5.4v-12h3.6c1.8-4.2,2.7-8.7,2.7-13.6v-7.2h20.5
			V254.7z M1213.3,254.7v-15.9h-9.6v2.4c0,5.1-0.8,9.6-2.3,13.5H1213.3z"/>
		<path id="XMLID_13284_" class="st2" d="M1226.3,259.5v-5.4h0.9c3.5,0,4.9-2.4,4.9-9.9v-10.4h20.7v25.6h-5.7v-20.8h-9.8v5.7
			c0,5.5-0.8,9.5-2.4,11.7c-1.6,2.3-4.1,3.4-7.7,3.4H1226.3z"/>
		<path id="XMLID_13286_" class="st2" d="M1281.1,233.9v25.6h-5.7v-9.3h-6c-0.8,0-1.4,0-1.8-0.1l-3.6,9.4h-5.7l4.1-10.6
			c-2.6-1.4-3.9-3.7-3.9-6.8c0-5.1,3.5-8.2,9.7-8.2H1281.1z M1275.5,245.8v-7.2h-6.7c-3,0-4.5,1.2-4.5,3.6c0,2.4,1.5,3.6,4.5,3.6
			H1275.5z"/>
		<path id="XMLID_13289_" class="st2" d="M1316.4,259.5v-2.4h-1.2c-1.6,2-4.1,3-7.5,3c-2.8,0-5-0.8-6.7-2.4c-1.7-1.7-2.5-3.6-2.5-6
			c0-2.3,0.9-4.3,2.5-6s4.2-2.6,7.6-2.6h7.5v-0.8c0-3-1.8-4.7-5.4-4.7c-3.2,0-4.9,1.1-5.1,3.3h-5.6c0.3-4.8,4.5-7.7,10.6-7.7
			c6.9,0,11.1,3.1,11.1,9.3v17H1316.4z M1314.2,253.7c1.3-1.3,2-2.8,2-4.5v-2h-6.5c-3.6,0-5.4,1.6-5.4,4.2c0,2.6,1.9,4.1,5.2,4.1
			C1311.3,255.5,1312.9,254.9,1314.2,253.7z"/>
		<path id="XMLID_13292_" class="st2" d="M1345.6,259.5l-5.4-10.7h-6.6v10.7h-5.7v-25.6h5.7v10.1h6.7l5.1-10.1h5.8l-6.3,12.3
			l6.6,13.3H1345.6z"/>
		<path id="XMLID_13294_" class="st2" d="M1373.8,233.9h5.7v20.8h4.6v12h-5.4v-7.2h-22.5v-25.6h5.7v20.8h12V233.9z"/>
		<path id="XMLID_13296_" class="st2" d="M1411.1,247.2h-18.9c0.2,5.4,2.6,8.1,7.2,8.1c3,0,4.8-1.1,5.6-3.3h5.8
			c-1,4.9-5,8.1-11.4,8.1c-4,0-7.1-1.3-9.4-3.8s-3.4-5.8-3.4-9.9c0-4.1,1.1-7.3,3.4-9.7c2.3-2.4,5.4-3.6,9.3-3.6
			c3.7,0,6.6,1.2,8.7,3.4c2.1,2.3,3.2,5.1,3.3,8.6V247.2z M1392.4,242.9h12.8c-0.4-3-2.6-5.2-6.1-5.2
			C1395.3,237.8,1393.1,239.8,1392.4,242.9z"/>
		<path id="XMLID_13299_" class="st2" d="M1439.9,259.5h-5.7v-10.7h-12.4v10.7h-5.7v-25.6h5.7v10.1h12.4v-10.1h5.7V259.5z"/>
		<path id="XMLID_13301_" class="st2" d="M1444,238.7v-4.8h22.9v4.8h-8.6v20.8h-5.7v-20.8H1444z"/>
		<path id="XMLID_13303_" class="st2" d="M1487.1,259.5v-2.4h-1.2c-1.6,2-4.1,3-7.5,3c-2.8,0-5-0.8-6.7-2.4c-1.7-1.7-2.5-3.6-2.5-6
			c0-2.3,0.9-4.3,2.5-6s4.2-2.6,7.6-2.6h7.5v-0.8c0-3-1.8-4.7-5.4-4.7c-3.2,0-4.9,1.1-5.1,3.3h-5.6c0.3-4.8,4.5-7.7,10.6-7.7
			c6.9,0,11.1,3.1,11.1,9.3v17H1487.1z M1485,253.7c1.3-1.3,2-2.8,2-4.5v-2h-6.5c-3.6,0-5.4,1.6-5.4,4.2c0,2.6,1.9,4.1,5.2,4.1
			C1482.1,255.5,1483.7,254.9,1485,253.7z"/>
		<path id="XMLID_13306_" class="st2" d="M1504.9,259.5h-6.5v-6.7h6.5V259.5z"/>
	</g>
	<g id="XMLID_13003_">
		<path id="XMLID_13004_" class="st3" d="M817.2,60.8v4.9h-1.7v-3.3h-10.3v3.3h-1.7v-4.9h1.4c0.9-1.8,1.7-4.7,1.7-9.3v-2.7h8.6v12
			H817.2z M813.5,50.4h-5.3v1.5c0,4.2-0.7,7.2-1.5,9h6.8V50.4z"/>
		<path id="XMLID_13007_" class="st3" d="M828.1,57.6c0,2.8-1.7,5-4.7,5c-3,0-4.7-2.2-4.7-5c0-2.8,1.7-5,4.7-5
			C826.3,52.5,828.1,54.8,828.1,57.6z M826.4,57.6c0-1.9-1-3.6-3.1-3.6c-2.1,0-3.1,1.7-3.1,3.6c0,1.9,1,3.6,3.1,3.6
			C825.5,61.2,826.4,59.5,826.4,57.6z"/>
		<path id="XMLID_13010_" class="st3" d="M837.4,62.4v-8.2h-5.2v8.2h-1.6v-9.6h8.4v9.6H837.4z"/>
		<path id="XMLID_13012_" class="st3" d="M851,57.6c0,2.8-1.7,5-4.7,5c-3,0-4.7-2.2-4.7-5c0-2.8,1.7-5,4.7-5
			C849.2,52.5,851,54.8,851,57.6z M849.4,57.6c0-1.9-1-3.6-3.1-3.6c-2.1,0-3.1,1.7-3.1,3.6c0,1.9,1,3.6,3.1,3.6
			C848.4,61.2,849.4,59.5,849.4,57.6z"/>
		<path id="XMLID_13015_" class="st3" d="M852.4,60.8h0.3c1.3,0,1.9-0.9,1.9-4.3v-3.7h7.3v9.6h-1.6v-8.2h-4.2v2.3
			c0,4.4-1,5.8-3.4,5.8h-0.3V60.8z"/>
		<path id="XMLID_13017_" class="st3" d="M871.9,62.4v-4.2h-5.3v4.2H865v-9.6h1.6v3.9h5.3v-3.9h1.6v9.6H871.9z"/>
		<path id="XMLID_13019_" class="st3" d="M876.7,62.4v-9.6h1.6v7.4h0.4l4.2-7.4h2.4v9.6h-1.6V55h-0.4l-4.3,7.4H876.7z"/>
		<path id="XMLID_13021_" class="st3" d="M887.3,52.8h8.2v1.4h-3.3v8.2h-1.6v-8.2h-3.3V52.8z"/>
		<path id="XMLID_13023_" class="st3" d="M905.8,57.6h-7.3c0.1,2.3,1.1,3.6,3.1,3.6c1.3,0,2.1-0.6,2.4-1.5h1.6
			c-0.3,1.6-1.7,2.9-4.1,2.9c-3,0-4.7-2.2-4.7-5.1c0-2.9,1.7-4.9,4.6-4.9c2.8,0,4.2,2.1,4.3,4.5V57.6z M898.6,56.2h5.5
			c-0.1-1.2-1-2.3-2.6-2.3C899.8,54,898.8,55,898.6,56.2z"/>
		<path id="XMLID_13026_" class="st3" d="M907.2,60.8h0.3c1.3,0,1.9-0.9,1.9-4.3v-3.7h7.3v9.6h-1.6v-8.2h-4.2v2.3
			c0,4.4-1,5.8-3.4,5.8h-0.3V60.8z"/>
		<path id="XMLID_13028_" class="st3" d="M921.5,56h2.8c2.3,0,3.6,1.2,3.6,3.2c0,2-1.3,3.2-3.6,3.2h-4.4v-9.6h1.6V56z M924.1,61
			c1.7,0,2.2-0.7,2.2-1.8c0-1.1-0.6-1.8-2.2-1.8h-2.6V61H924.1z"/>
		<path id="XMLID_13031_" class="st3" d="M937.1,62.4v-4.2h-5.3v4.2h-1.6v-9.6h1.6v3.9h5.3v-3.9h1.6v9.6H937.1z"/>
		<path id="XMLID_13033_" class="st3" d="M943.5,52.8V56h2.6c2.3,0,3.6,1.2,3.6,3.2c0,2-1.3,3.2-3.6,3.2h-4.3v-9.6H943.5z M943.5,61
			h2.4c1.7,0,2.2-0.7,2.2-1.8c0-1.1-0.6-1.8-2.2-1.8h-2.4V61z M952.8,52.8v9.6h-1.6v-9.6H952.8z"/>
		<path id="XMLID_13037_" class="st3" d="M956,62.4v-9.6h1.6v7.4h0.4l4.2-7.4h2.4v9.6h-1.6V55h-0.4l-4.3,7.4H956z M963.2,48.6
			c-0.1,1.8-1.1,2.8-3,2.8c-1.8,0-2.9-1-2.9-2.8h1.3c0,1,0.5,1.6,1.6,1.6c1.2,0,1.6-0.6,1.7-1.6H963.2z"/>
		<path id="XMLID_13040_" class="st3" d="M971.1,52.8h8.2v1.4h-3.3v8.2h-1.6v-8.2h-3.3V52.8z"/>
		<path id="XMLID_13042_" class="st3" d="M989.6,57.6h-7.3c0.1,2.3,1.1,3.6,3.1,3.6c1.3,0,2.1-0.6,2.4-1.5h1.6
			c-0.3,1.6-1.7,2.9-4.1,2.9c-3,0-4.7-2.2-4.7-5.1c0-2.9,1.7-4.9,4.6-4.9c2.8,0,4.2,2.1,4.3,4.5V57.6z M982.4,56.2h5.5
			c-0.1-1.2-1-2.3-2.6-2.3C983.6,54,982.7,55,982.4,56.2z"/>
		<path id="XMLID_13045_" class="st3" d="M996.6,58.1h-2.9v4.2h-1.6v-9.6h1.6v3.9h2.9l2-3.9h1.7l-2.3,4.6l2.5,5h-1.7L996.6,58.1z"/>
		<path id="XMLID_13047_" class="st3" d="M1010.6,59.5c-0.4,1.9-1.8,3.1-4,3.1c-3,0-4.7-2.2-4.7-5c0-2.9,1.7-5,4.7-5
			c2.3,0,3.6,1.3,4,3h-1.6c-0.3-1-1-1.6-2.4-1.6c-2.2,0-3,1.7-3,3.6c0,1.9,0.9,3.7,3,3.7c1.4,0,2.2-0.7,2.4-1.7H1010.6z"/>
		<path id="XMLID_13049_" class="st3" d="M1012,52.8h8.2v1.4h-3.3v8.2h-1.6v-8.2h-3.3V52.8z"/>
		<path id="XMLID_13051_" class="st3" d="M1026.9,62.4v-9.6h1.6v7.4h0.4l4.2-7.4h2.4v9.6h-1.6V55h-0.4l-4.3,7.4H1026.9z"/>
		<path id="XMLID_13053_" class="st3" d="M1043.8,52.8h7.2v1.4h-5.6v8.2h-1.6V52.8z"/>
		<path id="XMLID_13055_" class="st3" d="M1054.7,52.8v1h0.4c0.5-0.7,1.5-1.3,3-1.3c2.6,0,4.2,2.2,4.2,5c0,2.9-1.6,5-4.2,5
			c-1.5,0-2.4-0.6-2.9-1.3h-0.4v4.8h-1.6V52.8H1054.7z M1054.7,57.6c0,1.9,0.9,3.6,3,3.6c1.9,0,2.9-1.5,2.9-3.6s-1-3.6-2.9-3.6
			C1055.6,54,1054.7,55.7,1054.7,57.6z"/>
		<path id="XMLID_13058_" class="st3" d="M1070.9,61.4h-0.4c-0.6,0.7-1.6,1.3-3,1.3c-2.2,0-3.4-1.5-3.4-3.1c0-1.5,1-3.2,3.7-3.2h3.1
			v-0.4c0-1.2-0.7-2-2.3-2c-1.4,0-2.1,0.6-2.2,1.4h-1.6c0.1-1.8,1.7-2.8,3.8-2.8c2.4,0,3.9,1.2,3.9,3.3v6.5h-1.5V61.4z M1070.8,58.5
			v-0.9h-2.9c-1.6,0-2.3,0.7-2.3,1.8c0,1.1,0.8,1.8,2.2,1.8C1069.5,61.2,1070.8,60,1070.8,58.5z"/>
		<path id="XMLID_13061_" class="st3" d="M1081.4,66.2h-1.6v-3.8h-0.3c-3,0-4.7-2-4.7-4.8c0-2.8,1.7-4.8,4.7-4.8h0.3v-4.2h1.6v4.2
			h0.3c3,0,4.7,2,4.7,4.8c0,2.9-1.8,4.8-5,4.8V66.2z M1079.5,61h0.3v-6.8h-0.3c-2.1,0-3.1,1.6-3.1,3.4
			C1076.4,59.4,1077.3,61,1079.5,61z M1081.7,61c2.1,0,3.2-1.6,3.2-3.4c0-1.9-1-3.4-3.2-3.4h-0.3V61H1081.7z"/>
		<path id="XMLID_13065_" class="st3" d="M1088.9,62.4v-9.6h1.6v7.4h0.4l4.2-7.4h2.4v9.6h-1.6V55h-0.4l-4.3,7.4H1088.9z"/>
		<path id="XMLID_13067_" class="st3" d="M1105.1,58.1h-2.9v4.2h-1.6v-9.6h1.6v3.9h2.9l2-3.9h1.7l-2.3,4.6l2.5,5h-1.7L1105.1,58.1z"
			/>
		<path id="XMLID_13069_" class="st3" d="M1117.3,61.4h-0.4c-0.6,0.7-1.6,1.3-3,1.3c-2.2,0-3.4-1.5-3.4-3.1c0-1.5,1-3.2,3.7-3.2h3.1
			v-0.4c0-1.2-0.7-2-2.3-2c-1.4,0-2.1,0.6-2.2,1.4h-1.6c0.1-1.8,1.7-2.8,3.8-2.8c2.4,0,3.9,1.2,3.9,3.3v6.5h-1.5V61.4z M1117.2,58.5
			v-0.9h-2.9c-1.6,0-2.3,0.7-2.3,1.8c0,1.1,0.8,1.8,2.2,1.8C1115.9,61.2,1117.2,60,1117.2,58.5z"/>
		<path id="XMLID_13072_" class="st3" d="M806.4,75.5v1h0.4c0.5-0.7,1.5-1.3,3-1.3c2.6,0,4.2,2.2,4.2,5c0,2.9-1.6,5-4.2,5
			c-1.5,0-2.4-0.6-2.9-1.3h-0.4v4.8h-1.6V75.5H806.4z M806.4,80.3c0,1.9,0.9,3.6,3,3.6c1.9,0,2.9-1.5,2.9-3.6s-1-3.6-2.9-3.6
			C807.3,76.7,806.4,78.5,806.4,80.3z"/>
		<path id="XMLID_13075_" class="st3" d="M822.6,84.1h-0.4c-0.6,0.7-1.6,1.3-3,1.3c-2.2,0-3.4-1.5-3.4-3.1c0-1.5,1-3.2,3.7-3.2h3.1
			v-0.4c0-1.2-0.7-2-2.3-2c-1.4,0-2.1,0.6-2.2,1.4h-1.6c0.1-1.8,1.7-2.8,3.8-2.8c2.4,0,3.9,1.2,3.9,3.3v6.5h-1.5V84.1z M822.6,81.2
			v-0.9h-2.9c-1.6,0-2.3,0.7-2.3,1.8c0,1.1,0.8,1.8,2.2,1.8C821.2,84,822.6,82.8,822.6,81.2z"/>
		<path id="XMLID_13078_" class="st3" d="M835.2,82.2c-0.4,1.9-1.8,3.1-4,3.1c-3,0-4.7-2.2-4.7-5c0-2.9,1.7-5,4.7-5
			c2.3,0,3.6,1.3,4,3h-1.6c-0.3-1-1-1.6-2.4-1.6c-2.2,0-3,1.7-3,3.6c0,1.9,0.9,3.7,3,3.7c1.4,0,2.2-0.7,2.4-1.7H835.2z"/>
		<path id="XMLID_13080_" class="st3" d="M844.4,85.1V77h-5.2v8.2h-1.6v-9.6h8.4v9.6H844.4z"/>
		<path id="XMLID_13082_" class="st3" d="M858,80.3c0,2.8-1.7,5-4.7,5c-3,0-4.7-2.2-4.7-5c0-2.8,1.7-5,4.7-5
			C856.2,75.3,858,77.5,858,80.3z M856.4,80.3c0-1.9-1-3.6-3.1-3.6c-2.1,0-3.1,1.7-3.1,3.6c0,1.9,1,3.6,3.1,3.6
			C855.4,84,856.4,82.2,856.4,80.3z"/>
		<path id="XMLID_13085_" class="st3" d="M859.4,83.6h0.3c1.3,0,1.9-0.9,1.9-4.3v-3.7h7.3v9.6h-1.6V77h-4.2v2.3c0,4.4-1,5.8-3.4,5.8
			h-0.3V83.6z"/>
		<path id="XMLID_13087_" class="st3" d="M878.1,84.1h-0.4c-0.6,0.7-1.6,1.3-3,1.3c-2.2,0-3.4-1.5-3.4-3.1c0-1.5,1-3.2,3.7-3.2h3.1
			v-0.4c0-1.2-0.7-2-2.3-2c-1.4,0-2.1,0.6-2.2,1.4h-1.6c0.1-1.8,1.7-2.8,3.8-2.8c2.4,0,3.9,1.2,3.9,3.3v6.5h-1.5V84.1z M878.1,81.2
			v-0.9h-2.9c-1.6,0-2.3,0.7-2.3,1.8c0,1.1,0.8,1.8,2.2,1.8C876.7,84,878.1,82.8,878.1,81.2z"/>
		<path id="XMLID_13090_" class="st3" d="M882.6,75.5h7.2V77h-5.6v8.2h-1.6V75.5z"/>
		<path id="XMLID_13092_" class="st3" d="M897.7,84.1h-0.4c-0.6,0.7-1.6,1.3-3,1.3c-2.2,0-3.4-1.5-3.4-3.1c0-1.5,1-3.2,3.7-3.2h3.1
			v-0.4c0-1.2-0.7-2-2.3-2c-1.4,0-2.1,0.6-2.2,1.4h-1.6c0.1-1.8,1.7-2.8,3.8-2.8c2.4,0,3.9,1.2,3.9,3.3v6.5h-1.5V84.1z M897.7,81.2
			v-0.9h-2.9c-1.6,0-2.3,0.7-2.3,1.8c0,1.1,0.8,1.8,2.2,1.8C896.3,84,897.7,82.8,897.7,81.2z"/>
		<path id="XMLID_13095_" class="st3" d="M910.5,80.3h-7.3c0.1,2.3,1.1,3.6,3.1,3.6c1.3,0,2.1-0.6,2.4-1.5h1.6
			c-0.3,1.6-1.7,2.9-4.1,2.9c-3,0-4.7-2.2-4.7-5.1c0-2.9,1.7-4.9,4.6-4.9c2.8,0,4.2,2.1,4.3,4.5V80.3z M903.3,79h5.5
			c-0.1-1.2-1-2.3-2.6-2.3C904.5,76.7,903.5,77.7,903.3,79z"/>
		<path id="XMLID_13098_" class="st3" d="M911.7,75.5h8.2V77h-3.3v8.2H915V77h-3.3V75.5z"/>
		<path id="XMLID_13100_" class="st3" d="M930,82.2c-0.4,1.9-1.8,3.1-4,3.1c-3,0-4.7-2.2-4.7-5c0-2.9,1.7-5,4.7-5c2.3,0,3.6,1.3,4,3
			h-1.6c-0.3-1-1-1.6-2.4-1.6c-2.2,0-3,1.7-3,3.6c0,1.9,0.9,3.7,3,3.7c1.4,0,2.2-0.7,2.4-1.7H930z"/>
		<path id="XMLID_13102_" class="st3" d="M940.2,75.5v9.6h-1.6v-3.8h-2.9c-0.2,0-0.4,0-0.6,0l-1.4,3.8H932l1.6-4.2
			c-1-0.5-1.5-1.3-1.5-2.5c0-1.8,1.2-2.9,3.4-2.9H940.2z M935.7,76.9c-1.4,0-1.9,0.6-1.9,1.6c0,0.9,0.5,1.5,1.9,1.5h3v-3.1H935.7z"
			/>
		<path id="XMLID_13105_" class="st3" d="M955.4,80.3c0.9,0.2,1.6,1,1.6,2.2c0,1.7-1.2,2.6-3.4,2.6h-4.9v-9.6h4.7c1.9,0,3,0.9,3,2.4
			c0,0.9-0.5,1.6-1,1.9V80.3z M950.2,79.5h3c1.2,0,1.6-0.6,1.6-1.3c0-0.7-0.4-1.3-1.6-1.3h-3V79.5z M953.4,83.7
			c1.4,0,1.9-0.6,1.9-1.4c0-0.8-0.5-1.4-1.9-1.4h-3.2v2.9H953.4z"/>
		<path id="XMLID_13109_" class="st3" d="M968.2,80.3c0,2.8-1.7,5-4.7,5c-3,0-4.7-2.2-4.7-5c0-2.8,1.7-5,4.7-5
			C966.5,75.3,968.2,77.5,968.2,80.3z M966.6,80.3c0-1.9-1-3.6-3.1-3.6c-2.1,0-3.1,1.7-3.1,3.6c0,1.9,1,3.6,3.1,3.6
			C965.6,84,966.6,82.2,966.6,80.3z"/>
		<path id="XMLID_13112_" class="st3" d="M975.2,80.9h-2.9v4.2h-1.6v-9.6h1.6v3.9h2.9l2-3.9h1.7l-2.3,4.6l2.5,5h-1.7L975.2,80.9z"/>
		<path id="XMLID_13114_" class="st3" d="M982.9,75.5v1h0.4c0.5-0.7,1.5-1.3,3-1.3c2.6,0,4.2,2.2,4.2,5c0,2.9-1.6,5-4.2,5
			c-1.5,0-2.4-0.6-2.9-1.3H983v4.8h-1.6V75.5H982.9z M983,80.3c0,1.9,0.9,3.6,3,3.6c1.9,0,2.9-1.5,2.9-3.6s-1-3.6-2.9-3.6
			C983.9,76.7,983,78.5,983,80.3z"/>
		<path id="XMLID_13117_" class="st3" d="M993.8,88.9l2-4.7l-4.1-8.7h1.7l2.9,6.3h0.5l2.7-6.3h1.7l-5.7,13.4H993.8z"/>
		<path id="XMLID_13119_" class="st3" d="M1003,75.5h7.2V77h-5.6v8.2h-1.6V75.5z"/>
	</g>
	<g id="XMLID_12885_">
		<path id="XMLID_12886_" class="st3" d="M1205.2,915.2v4.9h-1.7v-3.3h-10.3v3.3h-1.7v-4.9h1.4c0.9-1.8,1.7-4.7,1.7-9.3v-2.7h8.6v12
			H1205.2z M1201.5,904.8h-5.3v1.5c0,4.2-0.7,7.2-1.5,9h6.8V904.8z"/>
		<path id="XMLID_12889_" class="st3" d="M1216.1,912c0,2.8-1.7,5-4.7,5c-3,0-4.7-2.2-4.7-5s1.7-5,4.7-5
			C1214.3,907,1216.1,909.2,1216.1,912z M1214.4,912c0-1.9-1-3.6-3.1-3.6c-2.1,0-3.1,1.7-3.1,3.6c0,1.9,1,3.6,3.1,3.6
			C1213.5,915.6,1214.4,913.9,1214.4,912z"/>
		<path id="XMLID_12892_" class="st3" d="M1225.4,916.8v-8.2h-5.2v8.2h-1.6v-9.6h8.4v9.6H1225.4z"/>
		<path id="XMLID_12894_" class="st3" d="M1239,912c0,2.8-1.7,5-4.7,5c-3,0-4.7-2.2-4.7-5s1.7-5,4.7-5
			C1237.2,907,1239,909.2,1239,912z M1237.3,912c0-1.9-1-3.6-3.1-3.6c-2.1,0-3.1,1.7-3.1,3.6c0,1.9,1,3.6,3.1,3.6
			C1236.4,915.6,1237.3,913.9,1237.3,912z"/>
		<path id="XMLID_12897_" class="st3" d="M1240.4,915.2h0.3c1.3,0,1.9-0.9,1.9-4.3v-3.7h7.3v9.6h-1.6v-8.2h-4.2v2.3
			c0,4.4-1,5.8-3.4,5.8h-0.3V915.2z"/>
		<path id="XMLID_12899_" class="st3" d="M1259.9,916.8v-4.2h-5.3v4.2h-1.6v-9.6h1.6v3.9h5.3v-3.9h1.6v9.6H1259.9z"/>
		<path id="XMLID_12901_" class="st3" d="M1264.7,916.8v-9.6h1.6v7.4h0.4l4.2-7.4h2.4v9.6h-1.6v-7.4h-0.4l-4.3,7.4H1264.7z"/>
		<path id="XMLID_12903_" class="st3" d="M1275.3,907.2h8.2v1.4h-3.3v8.2h-1.6v-8.2h-3.3V907.2z"/>
		<path id="XMLID_12905_" class="st3" d="M1293.8,912h-7.3c0.1,2.3,1.1,3.6,3.1,3.6c1.3,0,2.1-0.6,2.4-1.5h1.6
			c-0.3,1.6-1.7,2.9-4.1,2.9c-3,0-4.7-2.2-4.7-5.1c0-2.9,1.7-4.9,4.6-4.9c2.8,0,4.2,2.1,4.3,4.5V912z M1286.6,910.6h5.5
			c-0.1-1.2-1-2.3-2.6-2.3C1287.8,908.4,1286.8,909.4,1286.6,910.6z"/>
		<path id="XMLID_12908_" class="st3" d="M1295.2,915.2h0.3c1.3,0,1.9-0.9,1.9-4.3v-3.7h7.3v9.6h-1.6v-8.2h-4.2v2.3
			c0,4.4-1,5.8-3.4,5.8h-0.3V915.2z"/>
		<path id="XMLID_12910_" class="st3" d="M1309.5,910.4h2.8c2.3,0,3.6,1.2,3.6,3.2c0,2-1.3,3.2-3.6,3.2h-4.4v-9.6h1.6V910.4z
			 M1312.1,915.4c1.7,0,2.2-0.7,2.2-1.8c0-1.1-0.6-1.8-2.2-1.8h-2.6v3.6H1312.1z"/>
		<path id="XMLID_12913_" class="st3" d="M1325.1,916.8v-4.2h-5.3v4.2h-1.6v-9.6h1.6v3.9h5.3v-3.9h1.6v9.6H1325.1z"/>
		<path id="XMLID_12915_" class="st3" d="M1331.4,907.2v3.2h2.6c2.3,0,3.6,1.2,3.6,3.2c0,2-1.3,3.2-3.6,3.2h-4.3v-9.6H1331.4z
			 M1331.4,915.4h2.4c1.7,0,2.2-0.7,2.2-1.8c0-1.1-0.6-1.8-2.2-1.8h-2.4V915.4z M1340.8,907.2v9.6h-1.6v-9.6H1340.8z"/>
		<path id="XMLID_12919_" class="st3" d="M1344,916.8v-9.6h1.6v7.4h0.4l4.2-7.4h2.4v9.6h-1.6v-7.4h-0.4l-4.3,7.4H1344z M1351.1,903
			c-0.1,1.8-1.1,2.8-3,2.8c-1.8,0-2.9-1-2.9-2.8h1.3c0,1,0.5,1.6,1.6,1.6c1.2,0,1.6-0.6,1.7-1.6H1351.1z"/>
		<path id="XMLID_12922_" class="st3" d="M1359.1,907.2h8.2v1.4h-3.3v8.2h-1.6v-8.2h-3.3V907.2z"/>
		<path id="XMLID_12924_" class="st3" d="M1377.6,912h-7.3c0.1,2.3,1.1,3.6,3.1,3.6c1.3,0,2.1-0.6,2.4-1.5h1.6
			c-0.3,1.6-1.7,2.9-4.1,2.9c-3,0-4.7-2.2-4.7-5.1c0-2.9,1.7-4.9,4.6-4.9c2.8,0,4.2,2.1,4.3,4.5V912z M1370.4,910.6h5.5
			c-0.1-1.2-1-2.3-2.6-2.3C1371.6,908.4,1370.7,909.4,1370.4,910.6z"/>
		<path id="XMLID_12927_" class="st3" d="M1384.6,912.6h-2.9v4.2h-1.6v-9.6h1.6v3.9h2.9l2-3.9h1.7l-2.3,4.6l2.5,5h-1.7L1384.6,912.6
			z"/>
		<path id="XMLID_12929_" class="st3" d="M1398.6,913.9c-0.4,1.9-1.8,3.1-4,3.1c-3,0-4.7-2.2-4.7-5c0-2.9,1.7-5,4.7-5
			c2.3,0,3.6,1.3,4,3h-1.6c-0.3-1-1-1.6-2.4-1.6c-2.2,0-3,1.7-3,3.6c0,1.9,0.9,3.7,3,3.7c1.4,0,2.2-0.7,2.4-1.7H1398.6z"/>
		<path id="XMLID_12931_" class="st3" d="M1400,907.2h8.2v1.4h-3.3v8.2h-1.6v-8.2h-3.3V907.2z"/>
		<path id="XMLID_12933_" class="st3" d="M1414.9,916.8v-9.6h1.6v7.4h0.4l4.2-7.4h2.4v9.6h-1.6v-7.4h-0.4l-4.3,7.4H1414.9z"/>
		<path id="XMLID_12935_" class="st3" d="M1431.8,907.2h7.2v1.4h-5.6v8.2h-1.6V907.2z"/>
		<path id="XMLID_12937_" class="st3" d="M1442.7,907.2v1h0.4c0.5-0.7,1.5-1.3,3-1.3c2.6,0,4.2,2.2,4.2,5c0,2.9-1.6,5-4.2,5
			c-1.5,0-2.4-0.6-2.9-1.3h-0.4v4.8h-1.6v-13.4H1442.7z M1442.7,912c0,1.9,0.9,3.6,3,3.6c1.9,0,2.9-1.5,2.9-3.6s-1-3.6-2.9-3.6
			C1443.6,908.4,1442.7,910.1,1442.7,912z"/>
		<path id="XMLID_12940_" class="st3" d="M1458.9,915.8h-0.4c-0.6,0.7-1.6,1.3-3,1.3c-2.2,0-3.4-1.5-3.4-3.1c0-1.5,1-3.2,3.7-3.2
			h3.1v-0.4c0-1.2-0.7-2-2.3-2c-1.4,0-2.1,0.6-2.2,1.4h-1.6c0.1-1.8,1.7-2.8,3.8-2.8c2.4,0,3.9,1.2,3.9,3.3v6.5h-1.5V915.8z
			 M1458.8,912.9V912h-2.9c-1.6,0-2.3,0.7-2.3,1.8c0,1.1,0.8,1.8,2.2,1.8C1457.5,915.6,1458.8,914.4,1458.8,912.9z"/>
		<path id="XMLID_12943_" class="st3" d="M1469.4,920.6h-1.6v-3.8h-0.3c-3,0-4.7-2-4.7-4.8s1.7-4.8,4.7-4.8h0.3V903h1.6v4.2h0.3
			c3,0,4.7,2,4.7,4.8c0,2.9-1.8,4.8-5,4.8V920.6z M1467.5,915.4h0.3v-6.8h-0.3c-2.1,0-3.1,1.6-3.1,3.4S1465.3,915.4,1467.5,915.4z
			 M1469.7,915.4c2.1,0,3.2-1.6,3.2-3.4s-1-3.4-3.2-3.4h-0.3v6.8H1469.7z"/>
		<path id="XMLID_12947_" class="st3" d="M1476.9,916.8v-9.6h1.6v7.4h0.4l4.2-7.4h2.4v9.6h-1.6v-7.4h-0.4l-4.3,7.4H1476.9z"/>
		<path id="XMLID_12949_" class="st3" d="M1493,912.6h-2.9v4.2h-1.6v-9.6h1.6v3.9h2.9l2-3.9h1.7l-2.3,4.6l2.5,5h-1.7L1493,912.6z"/>
		<path id="XMLID_12951_" class="st3" d="M1505.3,915.8h-0.4c-0.6,0.7-1.6,1.3-3,1.3c-2.2,0-3.4-1.5-3.4-3.1c0-1.5,1-3.2,3.7-3.2
			h3.1v-0.4c0-1.2-0.7-2-2.3-2c-1.4,0-2.1,0.6-2.2,1.4h-1.6c0.1-1.8,1.7-2.8,3.8-2.8c2.4,0,3.9,1.2,3.9,3.3v6.5h-1.5V915.8z
			 M1505.2,912.9V912h-2.9c-1.6,0-2.3,0.7-2.3,1.8c0,1.1,0.8,1.8,2.2,1.8C1503.9,915.6,1505.2,914.4,1505.2,912.9z"/>
		<path id="XMLID_12954_" class="st3" d="M1194.4,930v1h0.4c0.5-0.7,1.5-1.3,3-1.3c2.6,0,4.2,2.2,4.2,5c0,2.9-1.6,5-4.2,5
			c-1.5,0-2.4-0.6-2.9-1.3h-0.4v4.8h-1.6V930H1194.4z M1194.4,934.7c0,1.9,0.9,3.6,3,3.6c1.9,0,2.9-1.5,2.9-3.6s-1-3.6-2.9-3.6
			C1195.3,931.1,1194.4,932.9,1194.4,934.7z"/>
		<path id="XMLID_12957_" class="st3" d="M1210.6,938.5h-0.4c-0.6,0.7-1.6,1.3-3,1.3c-2.2,0-3.4-1.5-3.4-3.1c0-1.5,1-3.2,3.7-3.2
			h3.1v-0.4c0-1.2-0.7-2-2.3-2c-1.4,0-2.1,0.6-2.2,1.4h-1.6c0.1-1.8,1.7-2.8,3.8-2.8c2.4,0,3.9,1.2,3.9,3.3v6.5h-1.5V938.5z
			 M1210.6,935.6v-0.9h-2.9c-1.6,0-2.3,0.7-2.3,1.8c0,1.1,0.8,1.8,2.2,1.8C1209.2,938.4,1210.6,937.2,1210.6,935.6z"/>
		<path id="XMLID_12960_" class="st3" d="M1223.2,936.6c-0.4,1.9-1.8,3.1-4,3.1c-3,0-4.7-2.2-4.7-5c0-2.9,1.7-5,4.7-5
			c2.3,0,3.6,1.3,4,3h-1.6c-0.3-1-1-1.6-2.4-1.6c-2.2,0-3,1.7-3,3.6c0,1.9,0.9,3.7,3,3.7c1.4,0,2.2-0.7,2.4-1.7H1223.2z"/>
		<path id="XMLID_12962_" class="st3" d="M1232.4,939.5v-8.2h-5.2v8.2h-1.6V930h8.4v9.6H1232.4z"/>
		<path id="XMLID_12964_" class="st3" d="M1246,934.7c0,2.8-1.7,5-4.7,5c-3,0-4.7-2.2-4.7-5s1.7-5,4.7-5
			C1244.2,929.7,1246,931.9,1246,934.7z M1244.3,934.7c0-1.9-1-3.6-3.1-3.6c-2.1,0-3.1,1.7-3.1,3.6c0,1.9,1,3.6,3.1,3.6
			C1243.4,938.4,1244.3,936.6,1244.3,934.7z"/>
		<path id="XMLID_12967_" class="st3" d="M1247.4,938h0.3c1.3,0,1.9-0.9,1.9-4.3V930h7.3v9.6h-1.6v-8.2h-4.2v2.3
			c0,4.4-1,5.8-3.4,5.8h-0.3V938z"/>
		<path id="XMLID_12969_" class="st3" d="M1266.1,938.5h-0.4c-0.6,0.7-1.6,1.3-3,1.3c-2.2,0-3.4-1.5-3.4-3.1c0-1.5,1-3.2,3.7-3.2
			h3.1v-0.4c0-1.2-0.7-2-2.3-2c-1.4,0-2.1,0.6-2.2,1.4h-1.6c0.1-1.8,1.7-2.8,3.8-2.8c2.4,0,3.9,1.2,3.9,3.3v6.5h-1.5V938.5z
			 M1266.1,935.6v-0.9h-2.9c-1.6,0-2.3,0.7-2.3,1.8c0,1.1,0.8,1.8,2.2,1.8C1264.7,938.4,1266.1,937.2,1266.1,935.6z"/>
		<path id="XMLID_12972_" class="st3" d="M1270.6,930h7.2v1.4h-5.6v8.2h-1.6V930z"/>
		<path id="XMLID_12974_" class="st3" d="M1285.7,938.5h-0.4c-0.6,0.7-1.6,1.3-3,1.3c-2.2,0-3.4-1.5-3.4-3.1c0-1.5,1-3.2,3.7-3.2
			h3.1v-0.4c0-1.2-0.7-2-2.3-2c-1.4,0-2.1,0.6-2.2,1.4h-1.6c0.1-1.8,1.7-2.8,3.8-2.8c2.4,0,3.9,1.2,3.9,3.3v6.5h-1.5V938.5z
			 M1285.7,935.6v-0.9h-2.9c-1.6,0-2.3,0.7-2.3,1.8c0,1.1,0.8,1.8,2.2,1.8C1284.3,938.4,1285.7,937.2,1285.7,935.6z"/>
		<path id="XMLID_12977_" class="st3" d="M1298.5,934.7h-7.3c0.1,2.3,1.1,3.6,3.1,3.6c1.3,0,2.1-0.6,2.4-1.5h1.6
			c-0.3,1.6-1.7,2.9-4.1,2.9c-3,0-4.7-2.2-4.7-5.1c0-2.9,1.7-4.9,4.6-4.9c2.8,0,4.2,2.1,4.3,4.5V934.7z M1291.3,933.4h5.5
			c-0.1-1.2-1-2.3-2.6-2.3C1292.5,931.1,1291.5,932.2,1291.3,933.4z"/>
		<path id="XMLID_12980_" class="st3" d="M1299.7,930h8.2v1.4h-3.3v8.2h-1.6v-8.2h-3.3V930z"/>
		<path id="XMLID_12982_" class="st3" d="M1318,936.6c-0.4,1.9-1.8,3.1-4,3.1c-3,0-4.7-2.2-4.7-5c0-2.9,1.7-5,4.7-5
			c2.3,0,3.6,1.3,4,3h-1.6c-0.3-1-1-1.6-2.4-1.6c-2.2,0-3,1.7-3,3.6c0,1.9,0.9,3.7,3,3.7c1.4,0,2.2-0.7,2.4-1.7H1318z"/>
		<path id="XMLID_12984_" class="st3" d="M1328.2,930v9.6h-1.6v-3.8h-2.9c-0.2,0-0.4,0-0.6,0l-1.4,3.8h-1.7l1.6-4.2
			c-1-0.5-1.5-1.3-1.5-2.5c0-1.8,1.2-2.9,3.4-2.9H1328.2z M1323.6,931.3c-1.4,0-1.9,0.6-1.9,1.6c0,0.9,0.5,1.5,1.9,1.5h3v-3.1
			H1323.6z"/>
		<path id="XMLID_12987_" class="st3" d="M1343.3,934.7c0.9,0.2,1.6,1,1.6,2.2c0,1.7-1.2,2.6-3.4,2.6h-4.9V930h4.7
			c1.9,0,3,0.9,3,2.4c0,0.9-0.5,1.6-1,1.9V934.7z M1338.2,933.9h3c1.2,0,1.6-0.6,1.6-1.3c0-0.7-0.4-1.3-1.6-1.3h-3V933.9z
			 M1341.4,938.2c1.4,0,1.9-0.6,1.9-1.4s-0.5-1.4-1.9-1.4h-3.2v2.9H1341.4z"/>
		<path id="XMLID_12991_" class="st3" d="M1356.2,934.7c0,2.8-1.7,5-4.7,5c-3,0-4.7-2.2-4.7-5s1.7-5,4.7-5
			C1354.5,929.7,1356.2,931.9,1356.2,934.7z M1354.6,934.7c0-1.9-1-3.6-3.1-3.6c-2.1,0-3.1,1.7-3.1,3.6c0,1.9,1,3.6,3.1,3.6
			C1353.6,938.4,1354.6,936.6,1354.6,934.7z"/>
		<path id="XMLID_12994_" class="st3" d="M1363.2,935.3h-2.9v4.2h-1.6V930h1.6v3.9h2.9l2-3.9h1.7l-2.3,4.6l2.5,5h-1.7L1363.2,935.3z
			"/>
		<path id="XMLID_12996_" class="st3" d="M1370.9,930v1h0.4c0.5-0.7,1.5-1.3,3-1.3c2.6,0,4.2,2.2,4.2,5c0,2.9-1.6,5-4.2,5
			c-1.5,0-2.4-0.6-2.9-1.3h-0.4v4.8h-1.6V930H1370.9z M1371,934.7c0,1.9,0.9,3.6,3,3.6c1.9,0,2.9-1.5,2.9-3.6s-1-3.6-2.9-3.6
			C1371.8,931.1,1371,932.9,1371,934.7z"/>
		<path id="XMLID_12999_" class="st3" d="M1381.8,943.3l2-4.7l-4.1-8.7h1.7l2.9,6.3h0.5l2.7-6.3h1.7l-5.7,13.4H1381.8z"/>
		<path id="XMLID_13001_" class="st3" d="M1391,930h7.2v1.4h-5.6v8.2h-1.6V930z"/>
	</g>
	<g id="XMLID_160_">
		<path id="XMLID_161_" class="st3" d="M1633,915.2v4.9h-1.7v-3.3h-10.3v3.3h-1.7v-4.9h1.4c0.9-1.8,1.7-4.7,1.7-9.3v-2.7h8.6v12
			H1633z M1629.4,904.8h-5.3v1.5c0,4.2-0.7,7.2-1.5,9h6.8V904.8z"/>
		<path id="XMLID_164_" class="st3" d="M1643.9,912c0,2.8-1.7,5-4.7,5c-3,0-4.7-2.2-4.7-5s1.7-5,4.7-5
			C1642.2,907,1643.9,909.2,1643.9,912z M1642.3,912c0-1.9-1-3.6-3.1-3.6c-2.1,0-3.1,1.7-3.1,3.6c0,1.9,1,3.6,3.1,3.6
			C1641.3,915.6,1642.3,913.9,1642.3,912z"/>
		<path id="XMLID_167_" class="st3" d="M1653.3,916.8v-8.2h-5.2v8.2h-1.6v-9.6h8.4v9.6H1653.3z"/>
		<path id="XMLID_169_" class="st3" d="M1666.8,912c0,2.8-1.7,5-4.7,5c-3,0-4.7-2.2-4.7-5s1.7-5,4.7-5
			C1665.1,907,1666.8,909.2,1666.8,912z M1665.2,912c0-1.9-1-3.6-3.1-3.6c-2.1,0-3.1,1.7-3.1,3.6c0,1.9,1,3.6,3.1,3.6
			C1664.2,915.6,1665.2,913.9,1665.2,912z"/>
		<path id="XMLID_172_" class="st3" d="M1668.3,915.2h0.3c1.3,0,1.9-0.9,1.9-4.3v-3.7h7.3v9.6h-1.6v-8.2h-4.2v2.3
			c0,4.4-1,5.8-3.4,5.8h-0.3V915.2z"/>
		<path id="XMLID_174_" class="st3" d="M1687.8,916.8v-4.2h-5.3v4.2h-1.6v-9.6h1.6v3.9h5.3v-3.9h1.6v9.6H1687.8z"/>
		<path id="XMLID_12783_" class="st3" d="M1692.5,916.8v-9.6h1.6v7.4h0.4l4.2-7.4h2.4v9.6h-1.6v-7.4h-0.4l-4.3,7.4H1692.5z"/>
		<path id="XMLID_12785_" class="st3" d="M1703.2,907.2h8.2v1.4h-3.3v8.2h-1.6v-8.2h-3.3V907.2z"/>
		<path id="XMLID_12787_" class="st3" d="M1721.7,912h-7.3c0.1,2.3,1.1,3.6,3.1,3.6c1.3,0,2.1-0.6,2.4-1.5h1.6
			c-0.3,1.6-1.7,2.9-4.1,2.9c-3,0-4.7-2.2-4.7-5.1c0-2.9,1.7-4.9,4.6-4.9c2.8,0,4.2,2.1,4.3,4.5V912z M1714.5,910.6h5.5
			c-0.1-1.2-1-2.3-2.6-2.3C1715.6,908.4,1714.7,909.4,1714.5,910.6z"/>
		<path id="XMLID_12790_" class="st3" d="M1723.1,915.2h0.3c1.3,0,1.9-0.9,1.9-4.3v-3.7h7.3v9.6h-1.6v-8.2h-4.2v2.3
			c0,4.4-1,5.8-3.4,5.8h-0.3V915.2z"/>
		<path id="XMLID_12792_" class="st3" d="M1737.3,910.4h2.8c2.3,0,3.6,1.2,3.6,3.2c0,2-1.3,3.2-3.6,3.2h-4.4v-9.6h1.6V910.4z
			 M1739.9,915.4c1.7,0,2.2-0.7,2.2-1.8c0-1.1-0.5-1.8-2.2-1.8h-2.6v3.6H1739.9z"/>
		<path id="XMLID_12795_" class="st3" d="M1753,916.8v-4.2h-5.3v4.2h-1.6v-9.6h1.6v3.9h5.3v-3.9h1.6v9.6H1753z"/>
		<path id="XMLID_12797_" class="st3" d="M1759.3,907.2v3.2h2.6c2.3,0,3.6,1.2,3.6,3.2c0,2-1.3,3.2-3.6,3.2h-4.3v-9.6H1759.3z
			 M1759.3,915.4h2.4c1.7,0,2.2-0.7,2.2-1.8c0-1.1-0.6-1.8-2.2-1.8h-2.4V915.4z M1768.7,907.2v9.6h-1.6v-9.6H1768.7z"/>
		<path id="XMLID_12801_" class="st3" d="M1771.8,916.8v-9.6h1.6v7.4h0.4l4.2-7.4h2.4v9.6h-1.6v-7.4h-0.4l-4.3,7.4H1771.8z
			 M1779,903c-0.1,1.8-1.1,2.8-3,2.8c-1.8,0-2.9-1-2.9-2.8h1.3c0,1,0.5,1.6,1.6,1.6c1.2,0,1.6-0.6,1.7-1.6H1779z"/>
		<path id="XMLID_12804_" class="st3" d="M1787,907.2h8.2v1.4h-3.3v8.2h-1.6v-8.2h-3.3V907.2z"/>
		<path id="XMLID_12806_" class="st3" d="M1805.5,912h-7.3c0.1,2.3,1.1,3.6,3.1,3.6c1.3,0,2.1-0.6,2.4-1.5h1.6
			c-0.3,1.6-1.7,2.9-4.1,2.9c-3,0-4.7-2.2-4.7-5.1c0-2.9,1.7-4.9,4.6-4.9c2.8,0,4.2,2.1,4.3,4.5V912z M1798.3,910.6h5.5
			c-0.1-1.2-1-2.3-2.6-2.3C1799.5,908.4,1798.5,909.4,1798.3,910.6z"/>
		<path id="XMLID_12809_" class="st3" d="M1812.5,912.6h-2.9v4.2h-1.6v-9.6h1.6v3.9h2.9l2-3.9h1.7l-2.3,4.6l2.5,5h-1.7L1812.5,912.6
			z"/>
		<path id="XMLID_12811_" class="st3" d="M1826.4,913.9c-0.4,1.9-1.8,3.1-4,3.1c-3,0-4.7-2.2-4.7-5c0-2.9,1.7-5,4.7-5
			c2.3,0,3.6,1.3,4,3h-1.6c-0.3-1-1-1.6-2.4-1.6c-2.2,0-3,1.7-3,3.6c0,1.9,0.9,3.7,3,3.7c1.4,0,2.2-0.7,2.4-1.7H1826.4z"/>
		<path id="XMLID_12813_" class="st3" d="M1827.8,907.2h8.2v1.4h-3.3v8.2h-1.6v-8.2h-3.3V907.2z"/>
		<path id="XMLID_12815_" class="st3" d="M1842.7,916.8v-9.6h1.6v7.4h0.4l4.2-7.4h2.4v9.6h-1.6v-7.4h-0.4l-4.3,7.4H1842.7z"/>
		<path id="XMLID_12817_" class="st3" d="M1859.6,907.2h7.2v1.4h-5.6v8.2h-1.6V907.2z"/>
		<path id="XMLID_12819_" class="st3" d="M1870.5,907.2v1h0.4c0.5-0.7,1.5-1.3,3-1.3c2.6,0,4.2,2.2,4.2,5c0,2.9-1.6,5-4.2,5
			c-1.5,0-2.4-0.6-2.9-1.3h-0.4v4.8h-1.6v-13.4H1870.5z M1870.6,912c0,1.9,0.9,3.6,3,3.6c1.9,0,2.9-1.5,2.9-3.6s-1-3.6-2.9-3.6
			C1871.4,908.4,1870.6,910.1,1870.6,912z"/>
		<path id="XMLID_12822_" class="st3" d="M1886.7,915.8h-0.4c-0.6,0.7-1.6,1.3-3,1.3c-2.2,0-3.4-1.5-3.4-3.1c0-1.5,1-3.2,3.7-3.2
			h3.1v-0.4c0-1.2-0.7-2-2.3-2c-1.4,0-2.1,0.6-2.2,1.4h-1.6c0.1-1.8,1.7-2.8,3.8-2.8c2.4,0,3.9,1.2,3.9,3.3v6.5h-1.5V915.8z
			 M1886.7,912.9V912h-2.9c-1.6,0-2.3,0.7-2.3,1.8c0,1.1,0.8,1.8,2.2,1.8C1885.3,915.6,1886.7,914.4,1886.7,912.9z"/>
		<path id="XMLID_12825_" class="st3" d="M1897.2,920.6h-1.6v-3.8h-0.3c-3,0-4.7-2-4.7-4.8s1.7-4.8,4.7-4.8h0.3V903h1.6v4.2h0.3
			c3,0,4.7,2,4.7,4.8c0,2.9-1.8,4.8-5,4.8V920.6z M1895.3,915.4h0.3v-6.8h-0.3c-2.1,0-3.1,1.6-3.1,3.4S1893.2,915.4,1895.3,915.4z
			 M1897.5,915.4c2.1,0,3.2-1.6,3.2-3.4s-1-3.4-3.2-3.4h-0.3v6.8H1897.5z"/>
		<path id="XMLID_12829_" class="st3" d="M1904.8,916.8v-9.6h1.6v7.4h0.4l4.2-7.4h2.4v9.6h-1.6v-7.4h-0.4l-4.3,7.4H1904.8z"/>
		<path id="XMLID_12831_" class="st3" d="M1920.9,912.6h-2.9v4.2h-1.6v-9.6h1.6v3.9h2.9l2-3.9h1.7l-2.3,4.6l2.5,5h-1.7L1920.9,912.6
			z"/>
		<path id="XMLID_12833_" class="st3" d="M1933.1,915.8h-0.4c-0.6,0.7-1.6,1.3-3,1.3c-2.2,0-3.4-1.5-3.4-3.1c0-1.5,1-3.2,3.7-3.2
			h3.1v-0.4c0-1.2-0.7-2-2.3-2c-1.4,0-2.1,0.6-2.2,1.4h-1.6c0.1-1.8,1.7-2.8,3.8-2.8c2.4,0,3.9,1.2,3.9,3.3v6.5h-1.5V915.8z
			 M1933.1,912.9V912h-2.9c-1.6,0-2.3,0.7-2.3,1.8c0,1.1,0.8,1.8,2.2,1.8C1931.7,915.6,1933.1,914.4,1933.1,912.9z"/>
		<path id="XMLID_12836_" class="st3" d="M1622.3,930v1h0.4c0.5-0.7,1.5-1.3,3-1.3c2.6,0,4.2,2.2,4.2,5c0,2.9-1.6,5-4.2,5
			c-1.5,0-2.4-0.6-2.9-1.3h-0.4v4.8h-1.6V930H1622.3z M1622.3,934.7c0,1.9,0.9,3.6,3,3.6c1.9,0,2.9-1.5,2.9-3.6s-1-3.6-2.9-3.6
			C1623.2,931.1,1622.3,932.9,1622.3,934.7z"/>
		<path id="XMLID_12839_" class="st3" d="M1638.5,938.5h-0.4c-0.6,0.7-1.6,1.3-3,1.3c-2.2,0-3.4-1.5-3.4-3.1c0-1.5,1-3.2,3.7-3.2
			h3.1v-0.4c0-1.2-0.7-2-2.3-2c-1.4,0-2.1,0.6-2.2,1.4h-1.6c0.1-1.8,1.7-2.8,3.8-2.8c2.4,0,3.9,1.2,3.9,3.3v6.5h-1.5V938.5z
			 M1638.4,935.6v-0.9h-2.9c-1.6,0-2.3,0.7-2.3,1.8c0,1.1,0.8,1.8,2.2,1.8C1637.1,938.4,1638.4,937.2,1638.4,935.6z"/>
		<path id="XMLID_12842_" class="st3" d="M1651,936.6c-0.4,1.9-1.8,3.1-4,3.1c-3,0-4.7-2.2-4.7-5c0-2.9,1.7-5,4.7-5
			c2.3,0,3.6,1.3,4,3h-1.6c-0.3-1-1-1.6-2.4-1.6c-2.2,0-3,1.7-3,3.6c0,1.9,0.9,3.7,3,3.7c1.4,0,2.2-0.7,2.4-1.7H1651z"/>
		<path id="XMLID_12844_" class="st3" d="M1660.3,939.5v-8.2h-5.2v8.2h-1.6V930h8.4v9.6H1660.3z"/>
		<path id="XMLID_12846_" class="st3" d="M1673.8,934.7c0,2.8-1.7,5-4.7,5c-3,0-4.7-2.2-4.7-5s1.7-5,4.7-5
			C1672.1,929.7,1673.8,931.9,1673.8,934.7z M1672.2,934.7c0-1.9-1-3.6-3.1-3.6c-2.1,0-3.1,1.7-3.1,3.6c0,1.9,1,3.6,3.1,3.6
			C1671.2,938.4,1672.2,936.6,1672.2,934.7z"/>
		<path id="XMLID_12849_" class="st3" d="M1675.3,938h0.3c1.3,0,1.9-0.9,1.9-4.3V930h7.3v9.6h-1.6v-8.2h-4.2v2.3
			c0,4.4-1,5.8-3.4,5.8h-0.3V938z"/>
		<path id="XMLID_12851_" class="st3" d="M1694,938.5h-0.4c-0.6,0.7-1.6,1.3-3,1.3c-2.2,0-3.4-1.5-3.4-3.1c0-1.5,1-3.2,3.7-3.2h3.1
			v-0.4c0-1.2-0.7-2-2.3-2c-1.4,0-2.1,0.6-2.2,1.4h-1.6c0.1-1.8,1.7-2.8,3.8-2.8c2.4,0,3.9,1.2,3.9,3.3v6.5h-1.5V938.5z
			 M1693.9,935.6v-0.9h-2.9c-1.6,0-2.3,0.7-2.3,1.8c0,1.1,0.8,1.8,2.2,1.8C1692.6,938.4,1693.9,937.2,1693.9,935.6z"/>
		<path id="XMLID_12854_" class="st3" d="M1698.4,930h7.2v1.4h-5.6v8.2h-1.6V930z"/>
		<path id="XMLID_12856_" class="st3" d="M1713.6,938.5h-0.4c-0.6,0.7-1.6,1.3-3,1.3c-2.2,0-3.4-1.5-3.4-3.1c0-1.5,1-3.2,3.7-3.2
			h3.1v-0.4c0-1.2-0.7-2-2.3-2c-1.4,0-2.1,0.6-2.2,1.4h-1.6c0.1-1.8,1.7-2.8,3.8-2.8c2.4,0,3.9,1.2,3.9,3.3v6.5h-1.5V938.5z
			 M1713.5,935.6v-0.9h-2.9c-1.6,0-2.3,0.7-2.3,1.8c0,1.1,0.8,1.8,2.2,1.8C1712.2,938.4,1713.5,937.2,1713.5,935.6z"/>
		<path id="XMLID_12859_" class="st3" d="M1726.3,934.7h-7.3c0.1,2.3,1.1,3.6,3.1,3.6c1.3,0,2.1-0.6,2.4-1.5h1.6
			c-0.3,1.6-1.7,2.9-4.1,2.9c-3,0-4.7-2.2-4.7-5.1c0-2.9,1.7-4.9,4.6-4.9c2.8,0,4.2,2.1,4.3,4.5V934.7z M1719.1,933.4h5.5
			c-0.1-1.2-1-2.3-2.6-2.3C1720.3,931.1,1719.4,932.2,1719.1,933.4z"/>
		<path id="XMLID_12862_" class="st3" d="M1727.5,930h8.2v1.4h-3.3v8.2h-1.6v-8.2h-3.3V930z"/>
		<path id="XMLID_12864_" class="st3" d="M1745.8,936.6c-0.4,1.9-1.8,3.1-4,3.1c-3,0-4.7-2.2-4.7-5c0-2.9,1.7-5,4.7-5
			c2.3,0,3.6,1.3,4,3h-1.6c-0.3-1-1-1.6-2.4-1.6c-2.2,0-3,1.7-3,3.6c0,1.9,0.9,3.7,3,3.7c1.4,0,2.2-0.7,2.4-1.7H1745.8z"/>
		<path id="XMLID_12866_" class="st3" d="M1756.1,930v9.6h-1.6v-3.8h-2.9c-0.2,0-0.4,0-0.6,0l-1.4,3.8h-1.7l1.6-4.2
			c-1-0.5-1.5-1.3-1.5-2.5c0-1.8,1.2-2.9,3.4-2.9H1756.1z M1751.5,931.3c-1.4,0-1.9,0.6-1.9,1.6c0,0.9,0.5,1.5,1.9,1.5h3v-3.1
			H1751.5z"/>
		<path id="XMLID_12869_" class="st3" d="M1771.2,934.7c0.9,0.2,1.6,1,1.6,2.2c0,1.7-1.2,2.6-3.4,2.6h-4.9V930h4.7
			c1.9,0,3,0.9,3,2.4c0,0.9-0.5,1.6-1,1.9V934.7z M1766.1,933.9h3c1.2,0,1.6-0.6,1.6-1.3c0-0.7-0.4-1.3-1.6-1.3h-3V933.9z
			 M1769.3,938.2c1.4,0,1.9-0.6,1.9-1.4s-0.5-1.4-1.9-1.4h-3.2v2.9H1769.3z"/>
		<path id="XMLID_12873_" class="st3" d="M1784.1,934.7c0,2.8-1.7,5-4.7,5c-3,0-4.7-2.2-4.7-5s1.7-5,4.7-5
			C1782.4,929.7,1784.1,931.9,1784.1,934.7z M1782.5,934.7c0-1.9-1-3.6-3.1-3.6c-2.1,0-3.1,1.7-3.1,3.6c0,1.9,1,3.6,3.1,3.6
			C1781.5,938.4,1782.5,936.6,1782.5,934.7z"/>
		<path id="XMLID_12876_" class="st3" d="M1791.1,935.3h-2.9v4.2h-1.6V930h1.6v3.9h2.9l2-3.9h1.7l-2.3,4.6l2.5,5h-1.7L1791.1,935.3z
			"/>
		<path id="XMLID_12878_" class="st3" d="M1798.8,930v1h0.4c0.5-0.7,1.5-1.3,3-1.3c2.6,0,4.2,2.2,4.2,5c0,2.9-1.6,5-4.2,5
			c-1.5,0-2.4-0.6-2.9-1.3h-0.4v4.8h-1.6V930H1798.8z M1798.8,934.7c0,1.9,0.9,3.6,3,3.6c1.9,0,2.9-1.5,2.9-3.6s-1-3.6-2.9-3.6
			C1799.7,931.1,1798.8,932.9,1798.8,934.7z"/>
		<path id="XMLID_12881_" class="st3" d="M1809.6,943.3l2-4.7l-4.1-8.7h1.7l2.9,6.3h0.5l2.7-6.3h1.7l-5.7,13.4H1809.6z"/>
		<path id="XMLID_12883_" class="st3" d="M1818.9,930h7.2v1.4h-5.6v8.2h-1.6V930z"/>
	</g>
</g>
</svg>
