<?xml version="1.0" encoding="utf-8"?>
<!-- Generator: Adobe Illustrator 19.0.0, SVG Export Plug-In . SVG Version: 6.00 Build 0)  -->
<svg version="1.1" id="Layer_1" xmlns="http://www.w3.org/2000/svg" xmlns:xlink="http://www.w3.org/1999/xlink" x="0px" y="0px"
	 viewBox="571 71.8 2492.9 758.2" style="enable-background:new 571 71.8 2492.9 758.2;" xml:space="preserve">
<style type="text/css">
	.st0{fill:#FFFFFF;}
	.st1{fill:#9AD6D2;}
	.st2{fill:#101010;}
	.st3{opacity:0.5;fill:#101010;}
	.st4{fill:#36AFA7;}
</style>
<polygon id="XMLID_7_" class="st0" points="3063.9,71.8 2626.2,830 2188.4,71.8 "/>
<g id="XMLID_1113_">
	<polygon id="XMLID_16_" class="st0" points="1884.3,71.8 1446.5,830 1008.8,71.8 	"/>
</g>
<g id="XMLID_5_">
	<polygon id="XMLID_6_" class="st1" points="1884.3,71.8 1446.5,830 1008.8,71.8 	"/>
</g>
<polygon id="XMLID_1116_" class="st2" points="1750.7,830 2188.4,71.8 2626.2,830 "/>
<polygon id="XMLID_110_" class="st3" points="3063.9,71.8 2626.2,830 2188.4,71.8 "/>
<g id="XMLID_112_">
	<path id="XMLID_124_" class="st0" d="M2778.7,437.7c7.3,7.1,10.9,16.6,10.9,28.3c0,12.4-4.3,22.7-12.9,30.6
		c-8.4,7.9-19.2,11.9-32,11.9c-13.7,0-24.7-3.6-33-10.9s-12.8-16.7-13.4-28.2h29.6c1.3,8.6,7,13.7,15.7,13.7
		c10.1,0,16.2-7,16.2-16.7c0-11.4-6.8-17.1-16.2-17.1c-6.5,0-11.6,2.5-15.4,7.3h-27l5.1-66.2h74.9v24.5H2729l-1.2,18.1h4.6
		c5.5-4.1,12.1-6.1,19.9-6.1C2762.7,427,2771.4,430.6,2778.7,437.7z"/>
	<path id="XMLID_182_" class="st0" d="M2845.6,388.2c14.1,0,25.5,5,34.1,14.9s12.9,25,12.9,45.2s-4.3,35.3-12.9,45.4
		c-8.6,9.9-20,14.9-34.1,14.9s-25.5-5-34.1-14.9c-8.6-10.1-12.9-25.2-12.9-45.4c0-20.2,4.3-35.3,12.9-45.2
		C2820.1,393.2,2831.6,388.2,2845.6,388.2z M2845.6,414.2c-11.6,0-17.4,11.4-17.4,34.1c0,22.9,5.8,34.3,17.4,34.3
		s17.4-11.4,17.4-34.3C2863,425.6,2857.2,414.2,2845.6,414.2z"/>
	<path id="XMLID_185_" class="st0" d="M2927.6,450.8c-18.4,0-28-12.4-28-31.1s9.9-31.5,28-31.5s28.2,12.8,28.2,31.5
		C2955.8,438.2,2946,450.8,2927.6,450.8z M2938,419.7c0-10.6-3.5-15.9-10.4-15.9c-6.8,0-10.3,5.3-10.3,15.9
		c0,10.4,3.5,15.6,10.3,15.6C2934.6,435.2,2938,430.1,2938,419.7z M2942,506.5h-19.4l70.2-115.9h19.2L2942,506.5z M3006.9,508.6
		c-18.4,0-28-12.4-28-31.1s9.9-31.5,28-31.5s28.2,12.8,28.2,31.5C3035.1,496,3025.3,508.6,3006.9,508.6z M3017.4,477.5
		c0-10.6-3.5-15.9-10.4-15.9c-6.8,0-10.3,5.3-10.3,15.9c0,10.4,3.5,15.6,10.3,15.6C3013.9,493,3017.4,487.9,3017.4,477.5z"/>
</g>
<g id="XMLID_1_">
	<path id="XMLID_4_" class="st0" d="M1583.1,450.9c7.3,7.1,10.9,16.6,10.9,28.3c0,12.4-4.3,22.7-12.9,30.6
		c-8.4,7.9-19.2,11.9-32,11.9c-13.7,0-24.7-3.6-33-10.9s-12.8-16.7-13.4-28.2h29.6c1.3,8.6,7,13.7,15.7,13.7
		c10.1,0,16.2-7,16.2-16.7c0-11.4-6.8-17.1-16.2-17.1c-6.5,0-11.6,2.5-15.4,7.3h-27l5.1-66.2h74.9v24.5h-52.2l-1.2,18.1h4.6
		c5.5-4.1,12.1-6.1,19.9-6.1C1567.1,440.2,1575.8,443.8,1583.1,450.9z"/>
	<path id="XMLID_3_" class="st0" d="M1650,401.4c14.1,0,25.5,5,34.1,14.9c8.6,9.9,12.9,25,12.9,45.2s-4.3,35.3-12.9,45.4
		c-8.6,9.9-20,14.9-34.1,14.9s-25.5-5-34.1-14.9c-8.6-10.1-12.9-25.2-12.9-45.4s4.3-35.3,12.9-45.2
		C1624.5,406.4,1636,401.4,1650,401.4z M1650,427.4c-11.6,0-17.4,11.4-17.4,34.1c0,22.9,5.8,34.3,17.4,34.3s17.4-11.4,17.4-34.3
		C1667.4,438.8,1661.6,427.4,1650,427.4z"/>
	<path id="XMLID_2_" class="st0" d="M1732,464c-18.4,0-28-12.4-28-31.1s9.9-31.5,28-31.5s28.2,12.8,28.2,31.5
		C1760.2,451.4,1750.4,464,1732,464z M1742.4,432.9c0-10.6-3.5-15.9-10.4-15.9c-6.8,0-10.3,5.3-10.3,15.9c0,10.4,3.5,15.6,10.3,15.6
		C1739,448.4,1742.4,443.3,1742.4,432.9z M1746.4,519.7H1727l70.2-115.9h19.2L1746.4,519.7z M1811.3,521.8c-18.4,0-28-12.4-28-31.1
		s9.9-31.5,28-31.5s28.2,12.8,28.2,31.5C1839.5,509.2,1829.7,521.8,1811.3,521.8z M1821.8,490.7c0-10.6-3.5-15.9-10.4-15.9
		c-6.8,0-10.3,5.3-10.3,15.9c0,10.4,3.5,15.6,10.3,15.6C1818.3,506.2,1821.8,501.1,1821.8,490.7z"/>
</g>
<g id="XMLID_1114_">
	<polygon id="XMLID_14_" class="st4" points="571,830 1008.8,71.8 1446.5,830 	"/>
</g>
</svg>
