<?xml version="1.0" encoding="utf-8"?>
<!-- Generator: Adobe Illustrator 19.0.0, SVG Export Plug-In . SVG Version: 6.00 Build 0)  -->
<svg version="1.1" id="logotype" xmlns="http://www.w3.org/2000/svg" xmlns:xlink="http://www.w3.org/1999/xlink" x="0px" y="0px"
	 viewBox="0 0 1200 869.7" style="enable-background:new 0 0 1200 869.7;" xml:space="preserve">
<style type="text/css">
	.st0{fill:#36ACA7;}
	.st1{fill:#FFFFFF;}
	.st2{fill:#101010;}
	.st3{fill:#EFEFEF;}
</style>
<rect id="XMLID_469_" class="st0" width="600" height="289.9"/>
<rect id="XMLID_15_" x="600" y="0" class="st1" width="600" height="289.9"/>
<g id="XMLID_63_">
	<g id="XMLID_174_">
		<path id="XMLID_184_" class="st1" d="M164.2,193.3v-8.9h-4.6c-5.9,7.6-15.4,11.4-28.5,11.4c-10.6,0-19-3-25.3-9.1
			c-6.3-6.3-9.3-13.7-9.3-22.6c0-8.7,3.2-16.3,9.5-22.8c6.3-6.5,15.9-9.7,28.9-9.7h28.5v-2.8c0-11.2-6.6-17.7-20.3-17.7
			c-12,0-18.4,4.2-19.4,12.3h-21.3c0.9-18,16.9-29.2,39.9-29.2c26,0,41.8,11.6,41.8,34.9v64.2H164.2z M156.1,171.2
			c4.9-4.7,7.4-10.4,7.4-17.1v-7.4h-24.7c-13.5,0-20.5,5.9-20.5,15.9c0,9.9,7.2,15.6,19.6,15.6C145,178.3,151.1,176,156.1,171.2z"/>
		<path id="XMLID_182_" class="st1" d="M259.2,96.6v19.9h-8.7c-19.6,0-30.2,11.2-30.2,31.5v45.2h-21.5V96.6h20.7v11.2h4.6
			c5.5-7.4,14.6-11.2,27-11.2H259.2z"/>
		<path id="XMLID_180_" class="st1" d="M289.4,96.6h22.8v18.2h-22.8v47.1c0,8.5,4.9,12.7,14.8,12.7h8v18.6h-8.4
			c-23.4,0-35.9-7.8-35.9-28.5V72.2h21.5V96.6z"/>
		<path id="XMLID_177_" class="st1" d="M400.9,181.7c-8.7,9.3-20.5,14-35.5,14c-15,0-26.8-4.7-35.7-14c-8.7-9.5-13.1-21.8-13.1-36.8
			c0-15,4.4-27.1,13.1-36.5c8.9-9.5,20.7-14.2,35.7-14.2c15,0,26.8,4.7,35.5,14.2c8.9,9.3,13.3,21.5,13.3,36.5
			C414.2,159.9,409.9,172.2,400.9,181.7z M365.4,112.4c-17.7,0-27.3,14.2-27.3,32.5c0,18.4,9.7,32.7,27.3,32.7
			c17.7,0,27.3-14.2,27.3-32.7C392.8,126.6,383.1,112.4,365.4,112.4z"/>
		<path id="XMLID_175_" class="st1" d="M479.3,122.5c-1.1-7-7.4-10.4-19-10.4c-11.6,0-17.5,3.4-17.5,10.1c0,5.9,3.8,8.2,12.3,9.7
			l18.8,3c19.6,3.2,29.4,13.1,29.4,30c0,8.5-3.6,15.9-11,22c-7.2,5.9-17.3,8.9-30.4,8.9c-27.3,0-42.1-12-44.2-31.7h21.5
			c1.7,9.3,9.1,13.9,22.4,13.9c13.5,0,20.3-4.2,20.3-12.5c0-7.4-4.6-10.8-15.8-12.9L446,149c-15.2-2.5-24.7-11-24.7-25.4
			c0-17.3,13.7-29.4,39.7-29.4c23,0,37.6,11,39.7,28.3H479.3z"/>
	</g>
</g>
<g id="XMLID_241_">
	<path id="XMLID_497_" class="st0" d="M764.2,193.3v-8.9h-4.6c-5.9,7.6-15.4,11.4-28.5,11.4c-10.6,0-19-3-25.3-9.1
		c-6.3-6.3-9.3-13.7-9.3-22.6c0-8.7,3.2-16.3,9.5-22.8c6.3-6.5,15.9-9.7,28.9-9.7h28.5v-2.8c0-11.2-6.6-17.7-20.3-17.7
		c-12,0-18.4,4.2-19.4,12.3h-21.3c0.9-18,16.9-29.2,39.9-29.2c26,0,41.8,11.6,41.8,34.9v64.2H764.2z M756.1,171.2
		c4.9-4.7,7.4-10.4,7.4-17.1v-7.4h-24.7c-13.5,0-20.5,5.9-20.5,15.9c0,9.9,7.2,15.6,19.6,15.6C745,178.3,751.1,176,756.1,171.2z"/>
	<path id="XMLID_495_" class="st0" d="M859.2,96.6v19.9h-8.7c-19.6,0-30.2,11.2-30.2,31.5v45.2h-21.5V96.6h20.7v11.2h4.6
		c5.5-7.4,14.6-11.2,27-11.2H859.2z"/>
	<path id="XMLID_493_" class="st0" d="M889.4,96.6h22.8v18.2h-22.8v47.1c0,8.5,4.9,12.7,14.8,12.7h8v18.6h-8.4
		c-23.4,0-35.9-7.8-35.9-28.5V72.2h21.5V96.6z"/>
	<path id="XMLID_489_" class="st0" d="M1000.9,181.7c-8.7,9.3-20.5,14-35.5,14c-15,0-26.8-4.7-35.7-14c-8.7-9.5-13.1-21.8-13.1-36.8
		c0-15,4.4-27.1,13.1-36.5c8.9-9.5,20.7-14.2,35.7-14.2c15,0,26.8,4.7,35.5,14.2c8.9,9.3,13.3,21.5,13.3,36.5
		C1014.2,159.9,1009.9,172.2,1000.9,181.7z M965.4,112.4c-17.7,0-27.3,14.2-27.3,32.5c0,18.4,9.7,32.7,27.3,32.7
		c17.7,0,27.3-14.2,27.3-32.7C992.8,126.6,983.1,112.4,965.4,112.4z"/>
	<path id="XMLID_474_" class="st0" d="M1079.3,122.5c-1.1-7-7.4-10.4-19-10.4c-11.6,0-17.5,3.4-17.5,10.1c0,5.9,3.8,8.2,12.3,9.7
		l18.8,3c19.6,3.2,29.4,13.1,29.4,30c0,8.5-3.6,15.9-11,22c-7.2,5.9-17.3,8.9-30.4,8.9c-27.3,0-42.1-12-44.2-31.7h21.5
		c1.7,9.3,9.1,13.9,22.4,13.9c13.5,0,20.3-4.2,20.3-12.5c0-7.4-4.6-10.8-15.8-12.9L1046,149c-15.2-2.5-24.7-11-24.7-25.4
		c0-17.3,13.7-29.4,39.7-29.4c23,0,37.6,11,39.7,28.3H1079.3z"/>
</g>
<rect id="XMLID_570_" y="289.9" class="st2" width="600" height="289.9"/>
<g id="XMLID_542_">
	<g id="XMLID_129_">
		<path id="XMLID_156_" class="st1" d="M164.2,483.2v-8.9h-4.6c-5.9,7.6-15.4,11.4-28.5,11.4c-10.6,0-19-3-25.3-9.1
			c-6.3-6.3-9.3-13.7-9.3-22.6c0-8.7,3.2-16.3,9.5-22.8c6.3-6.5,15.9-9.7,28.9-9.7h28.5v-2.8c0-11.2-6.6-17.7-20.3-17.7
			c-12,0-18.4,4.2-19.4,12.3h-21.3c0.9-18,16.9-29.2,39.9-29.2c26,0,41.8,11.6,41.8,34.9v64.2H164.2z M156.1,461.2
			c4.9-4.7,7.4-10.4,7.4-17.1v-7.4h-24.7c-13.5,0-20.5,5.9-20.5,15.9c0,9.9,7.2,15.6,19.6,15.6C145,468.2,151.1,465.9,156.1,461.2z"
			/>
		<path id="XMLID_154_" class="st1" d="M259.2,386.5v19.9h-8.7c-19.6,0-30.2,11.2-30.2,31.5v45.2h-21.5v-96.6h20.7v11.2h4.6
			c5.5-7.4,14.6-11.2,27-11.2H259.2z"/>
		<path id="XMLID_152_" class="st1" d="M289.4,386.5h22.8v18.2h-22.8v47.1c0,8.5,4.9,12.7,14.8,12.7h8v18.6h-8.4
			c-23.4,0-35.9-7.8-35.9-28.5v-92.6h21.5V386.5z"/>
		<path id="XMLID_149_" class="st1" d="M400.9,471.6c-8.7,9.3-20.5,14-35.5,14c-15,0-26.8-4.7-35.7-14c-8.7-9.5-13.1-21.8-13.1-36.8
			c0-15,4.4-27.1,13.1-36.5c8.9-9.5,20.7-14.2,35.7-14.2c15,0,26.8,4.7,35.5,14.2c8.9,9.3,13.3,21.5,13.3,36.5
			C414.2,449.8,409.9,462.1,400.9,471.6z M365.4,402.3c-17.7,0-27.3,14.2-27.3,32.5c0,18.4,9.7,32.7,27.3,32.7
			c17.7,0,27.3-14.2,27.3-32.7C392.8,416.5,383.1,402.3,365.4,402.3z"/>
		<path id="XMLID_130_" class="st1" d="M479.3,412.4c-1.1-7-7.4-10.4-19-10.4c-11.6,0-17.5,3.4-17.5,10.1c0,5.9,3.8,8.2,12.3,9.7
			l18.8,3c19.6,3.2,29.4,13.1,29.4,30c0,8.5-3.6,15.9-11,22c-7.2,5.9-17.3,8.9-30.4,8.9c-27.3,0-42.1-12-44.2-31.7h21.5
			c1.7,9.3,9.1,13.9,22.4,13.9c13.5,0,20.3-4.2,20.3-12.5c0-7.4-4.6-10.8-15.8-12.9l-20.1-3.4c-15.2-2.5-24.7-11-24.7-25.4
			c0-17.3,13.7-29.4,39.7-29.4c23,0,37.6,11,39.7,28.3H479.3z"/>
	</g>
</g>
<rect id="XMLID_541_" x="600" y="289.9" class="st2" width="600" height="289.9"/>
<g id="XMLID_242_">
	<path id="XMLID_525_" class="st0" d="M764.2,483.2v-8.9h-4.6c-5.9,7.6-15.4,11.4-28.5,11.4c-10.6,0-19-3-25.3-9.1
		c-6.3-6.3-9.3-13.7-9.3-22.6c0-8.7,3.2-16.3,9.5-22.8c6.3-6.5,15.9-9.7,28.9-9.7h28.5v-2.8c0-11.2-6.6-17.7-20.3-17.7
		c-12,0-18.4,4.2-19.4,12.3h-21.3c0.9-18,16.9-29.2,39.9-29.2c26,0,41.8,11.6,41.8,34.9v64.2H764.2z M756.1,461.2
		c4.9-4.7,7.4-10.4,7.4-17.1v-7.4h-24.7c-13.5,0-20.5,5.9-20.5,15.9c0,9.9,7.2,15.6,19.6,15.6C745,468.2,751.1,465.9,756.1,461.2z"
		/>
	<path id="XMLID_523_" class="st0" d="M859.2,386.5v19.9h-8.7c-19.6,0-30.2,11.2-30.2,31.5v45.2h-21.5v-96.6h20.7v11.2h4.6
		c5.5-7.4,14.6-11.2,27-11.2H859.2z"/>
	<path id="XMLID_521_" class="st0" d="M889.4,386.5h22.8v18.2h-22.8v47.1c0,8.5,4.9,12.7,14.8,12.7h8v18.6h-8.4
		c-23.4,0-35.9-7.8-35.9-28.5v-92.6h21.5V386.5z"/>
	<path id="XMLID_505_" class="st0" d="M1000.9,471.6c-8.7,9.3-20.5,14-35.5,14c-15,0-26.8-4.7-35.7-14c-8.7-9.5-13.1-21.8-13.1-36.8
		c0-15,4.4-27.1,13.1-36.5c8.9-9.5,20.7-14.2,35.7-14.2c15,0,26.8,4.7,35.5,14.2c8.9,9.3,13.3,21.5,13.3,36.5
		C1014.2,449.8,1009.9,462.1,1000.9,471.6z M965.4,402.3c-17.7,0-27.3,14.2-27.3,32.5c0,18.4,9.7,32.7,27.3,32.7
		c17.7,0,27.3-14.2,27.3-32.7C992.8,416.5,983.1,402.3,965.4,402.3z"/>
	<path id="XMLID_503_" class="st0" d="M1079.3,412.4c-1.1-7-7.4-10.4-19-10.4c-11.6,0-17.5,3.4-17.5,10.1c0,5.9,3.8,8.2,12.3,9.7
		l18.8,3c19.6,3.2,29.4,13.1,29.4,30c0,8.5-3.6,15.9-11,22c-7.2,5.9-17.3,8.9-30.4,8.9c-27.3,0-42.1-12-44.2-31.7h21.5
		c1.7,9.3,9.1,13.9,22.4,13.9c13.5,0,20.3-4.2,20.3-12.5c0-7.4-4.6-10.8-15.8-12.9l-20.1-3.4c-15.2-2.5-24.7-11-24.7-25.4
		c0-17.3,13.7-29.4,39.7-29.4c23,0,37.6,11,39.7,28.3H1079.3z"/>
</g>
<rect id="XMLID_643_" y="579.8" class="st1" width="600" height="289.9"/>
<g id="XMLID_556_">
	<path id="XMLID_640_" class="st2" d="M164.2,773.1v-8.9h-4.6c-5.9,7.6-15.4,11.4-28.5,11.4c-10.6,0-19-3-25.3-9.1
		c-6.3-6.3-9.3-13.7-9.3-22.6c0-8.7,3.2-16.3,9.5-22.8c6.3-6.5,15.9-9.7,28.9-9.7h28.5v-2.8c0-11.2-6.6-17.7-20.3-17.7
		c-12,0-18.4,4.2-19.4,12.3h-21.3c0.9-18,16.9-29.2,39.9-29.2c26,0,41.8,11.6,41.8,34.9v64.2H164.2z M156.1,751.1
		c4.9-4.7,7.4-10.4,7.4-17.1v-7.4h-24.7c-13.5,0-20.5,5.9-20.5,15.9c0,9.9,7.2,15.6,19.6,15.6C145,758.1,151.1,755.8,156.1,751.1z"
		/>
	<path id="XMLID_634_" class="st2" d="M259.2,676.5v19.9h-8.7c-19.6,0-30.2,11.2-30.2,31.5v45.2h-21.5v-96.6h20.7v11.2h4.6
		c5.5-7.4,14.6-11.2,27-11.2H259.2z"/>
	<path id="XMLID_632_" class="st2" d="M289.4,676.5h22.8v18.2h-22.8v47.1c0,8.5,4.9,12.7,14.8,12.7h8v18.6h-8.4
		c-23.4,0-35.9-7.8-35.9-28.5V652h21.5V676.5z"/>
	<path id="XMLID_628_" class="st2" d="M400.9,761.5c-8.7,9.3-20.5,14-35.5,14c-15,0-26.8-4.7-35.7-14c-8.7-9.5-13.1-21.8-13.1-36.8
		c0-15,4.4-27.1,13.1-36.5c8.9-9.5,20.7-14.2,35.7-14.2c15,0,26.8,4.7,35.5,14.2c8.9,9.3,13.3,21.5,13.3,36.5
		C414.2,739.7,409.9,752,400.9,761.5z M365.4,692.2c-17.7,0-27.3,14.2-27.3,32.5c0,18.4,9.7,32.7,27.3,32.7
		c17.7,0,27.3-14.2,27.3-32.7C392.8,706.4,383.1,692.2,365.4,692.2z"/>
	<path id="XMLID_626_" class="st2" d="M479.3,702.3c-1.1-7-7.4-10.4-19-10.4c-11.6,0-17.5,3.4-17.5,10.1c0,5.9,3.8,8.2,12.3,9.7
		l18.8,3c19.6,3.2,29.4,13.1,29.4,30c0,8.5-3.6,15.9-11,22c-7.2,5.9-17.3,8.9-30.4,8.9c-27.3,0-42.1-12-44.2-31.7h21.5
		c1.7,9.3,9.1,13.9,22.4,13.9c13.5,0,20.3-4.2,20.3-12.5c0-7.4-4.6-10.8-15.8-12.9l-20.1-3.4c-15.2-2.5-24.7-11-24.7-25.4
		c0-17.3,13.7-29.4,39.7-29.4c23,0,37.6,11,39.7,28.3H479.3z"/>
</g>
<rect id="XMLID_555_" x="600" y="579.8" class="st3" width="600" height="289.9"/>
<g id="XMLID_243_">
	<path id="XMLID_552_" class="st0" d="M764.2,773.1v-8.9h-4.6c-5.9,7.6-15.4,11.4-28.5,11.4c-10.6,0-19-3-25.3-9.1
		c-6.3-6.3-9.3-13.7-9.3-22.6c0-8.7,3.2-16.3,9.5-22.8c6.3-6.5,15.9-9.7,28.9-9.7h28.5v-2.8c0-11.2-6.6-17.7-20.3-17.7
		c-12,0-18.4,4.2-19.4,12.3h-21.3c0.9-18,16.9-29.2,39.9-29.2c26,0,41.8,11.6,41.8,34.9v64.2H764.2z M756.1,751.1
		c4.9-4.7,7.4-10.4,7.4-17.1v-7.4h-24.7c-13.5,0-20.5,5.9-20.5,15.9c0,9.9,7.2,15.6,19.6,15.6C745,758.1,751.1,755.8,756.1,751.1z"
		/>
	<path id="XMLID_550_" class="st0" d="M859.2,676.5v19.9h-8.7c-19.6,0-30.2,11.2-30.2,31.5v45.2h-21.5v-96.6h20.7v11.2h4.6
		c5.5-7.4,14.6-11.2,27-11.2H859.2z"/>
	<path id="XMLID_548_" class="st0" d="M889.4,676.5h22.8v18.2h-22.8v47.1c0,8.5,4.9,12.7,14.8,12.7h8v18.6h-8.4
		c-23.4,0-35.9-7.8-35.9-28.5V652h21.5V676.5z"/>
	<path id="XMLID_545_" class="st0" d="M1000.9,761.5c-8.7,9.3-20.5,14-35.5,14c-15,0-26.8-4.7-35.7-14c-8.7-9.5-13.1-21.8-13.1-36.8
		c0-15,4.4-27.1,13.1-36.5c8.9-9.5,20.7-14.2,35.7-14.2c15,0,26.8,4.7,35.5,14.2c8.9,9.3,13.3,21.5,13.3,36.5
		C1014.2,739.7,1009.9,752,1000.9,761.5z M965.4,692.2c-17.7,0-27.3,14.2-27.3,32.5c0,18.4,9.7,32.7,27.3,32.7
		c17.7,0,27.3-14.2,27.3-32.7C992.8,706.4,983.1,692.2,965.4,692.2z"/>
	<path id="XMLID_543_" class="st0" d="M1079.3,702.3c-1.1-7-7.4-10.4-19-10.4c-11.6,0-17.5,3.4-17.5,10.1c0,5.9,3.8,8.2,12.3,9.7
		l18.8,3c19.6,3.2,29.4,13.1,29.4,30c0,8.5-3.6,15.9-11,22c-7.2,5.9-17.3,8.9-30.4,8.9c-27.3,0-42.1-12-44.2-31.7h21.5
		c1.7,9.3,9.1,13.9,22.4,13.9c13.5,0,20.3-4.2,20.3-12.5c0-7.4-4.6-10.8-15.8-12.9l-20.1-3.4c-15.2-2.5-24.7-11-24.7-25.4
		c0-17.3,13.7-29.4,39.7-29.4c23,0,37.6,11,39.7,28.3H1079.3z"/>
</g>
</svg>
