<?xml version="1.0" encoding="utf-8"?>
<!-- Generator: Adobe Illustrator 19.0.0, SVG Export Plug-In . SVG Version: 6.00 Build 0)  -->
<svg version="1.1" id="_x31_" xmlns="http://www.w3.org/2000/svg" xmlns:xlink="http://www.w3.org/1999/xlink" x="0px" y="0px"
	 viewBox="-39 119.9 1200 1042.1" style="enable-background:new -39 119.9 1200 1042.1;" xml:space="preserve">
<style type="text/css">
	.st0{fill:#2BB9AF;}
	.st1{fill:#101010;fill-opacity:0;}
	.st2{fill:#101010;}
</style>
<g id="XMLID_2_">
	<g id="XMLID_654_">
		<path id="XMLID_55_" class="st0" d="M439.4,122.9v676.7H-36V122.9H439.4 M440.4,121.9H-37v678.7h477.4V121.9L440.4,121.9z"/>
	</g>
	<g id="XMLID_653_">
		<path id="XMLID_51_" class="st0" d="M1158,122.9v475.4H481.3V122.9H1158 M1159,121.9H480.3v477.4H1159V121.9L1159,121.9z"/>
	</g>
	<g id="XMLID_652_">
		<path id="XMLID_42_" class="st0" d="M1000,640.9v518.7H481.3V640.9H1000 M1001,639.9H480.3v520.7H1001V639.9L1001,639.9z"/>
	</g>
</g>
<g id="XMLID_593_">
	<g id="XMLID_623_">
		<rect id="XMLID_651_" x="-37" y="735.8" class="st1" width="134.8" height="65.2"/>
		<g id="XMLID_624_">
			<g id="XMLID_671_">
				<path id="XMLID_681_" class="st2" d="M-0.1,779.2v-2h-1c-1.3,1.7-3.5,2.6-6.4,2.6c-2.4,0-4.3-0.7-5.7-2
					c-1.4-1.4-2.1-3.1-2.1-5.1s0.7-3.7,2.1-5.1c1.4-1.5,3.6-2.2,6.5-2.2h6.4v-0.6c0-2.5-1.5-4-4.6-4c-2.7,0-4.1,0.9-4.4,2.8H-14
					c0.2-4.1,3.8-6.6,9-6.6c5.8,0,9.4,2.6,9.4,7.9v14.3H-0.1L-0.1,779.2z M-1.9,774.2c1.1-1.1,1.7-2.3,1.7-3.8v-1.7h-5.5
					c-3,0-4.6,1.3-4.6,3.6c0,2.2,1.6,3.5,4.4,3.5C-4.4,775.8-3,775.3-1.9,774.2z"/>
				<path id="XMLID_679_" class="st2" d="M21.2,757.5v4.5h-2c-4.4,0-6.8,2.5-6.8,7.1v10.1H7.6v-21.7h4.7v2.5h1
					c1.2-1.7,3.3-2.5,6.1-2.5H21.2L21.2,757.5z"/>
				<path id="XMLID_677_" class="st2" d="M28.1,757.5h5.1v4.1h-5.1v10.6c0,1.9,1.1,2.9,3.3,2.9h1.8v4.2h-1.9c-5.2,0-8.1-1.7-8.1-6.4
					v-20.8H28L28.1,757.5L28.1,757.5z"/>
				<path id="XMLID_674_" class="st2" d="M53.1,776.6c-2,2.1-4.6,3.2-8,3.2c-3.4,0-6-1.1-8-3.2c-2-2.1-2.9-4.9-2.9-8.3
					c0-3.4,1-6.1,2.9-8.2c2-2.1,4.7-3.2,8-3.2c3.4,0,6,1.1,8,3.2s3,4.8,3,8.2S55.1,774.5,53.1,776.6z M45.1,761
					c-4,0-6.1,3.2-6.1,7.3s2.2,7.3,6.1,7.3c4,0,6.1-3.2,6.1-7.3C51.3,764.2,49.1,761,45.1,761z"/>
				<path id="XMLID_672_" class="st2" d="M70.7,763.3c-0.3-1.6-1.7-2.3-4.3-2.3s-3.9,0.8-3.9,2.3c0,1.3,0.9,1.8,2.8,2.2l4.2,0.7
					c4.4,0.7,6.6,2.9,6.6,6.7c0,1.9-0.8,3.6-2.5,4.9c-1.6,1.3-3.9,2-6.8,2c-6.1,0-9.5-2.7-9.9-7.1h4.8c0.4,2.1,2,3.1,5,3.1
					c3,0,4.6-0.9,4.6-2.8c0-1.7-1-2.4-3.5-2.9l-4.5-0.8c-3.4-0.6-5.5-2.5-5.5-5.7c0-3.9,3.1-6.6,8.9-6.6c5.2,0,8.4,2.5,8.9,6.4h-4.9
					C70.7,763.4,70.7,763.3,70.7,763.3z"/>
			</g>
		</g>
	</g>
	<g id="XMLID_594_">
		<rect id="XMLID_622_" x="305.5" y="735.8" class="st1" width="134.8" height="65.2"/>
		<g id="XMLID_595_">
			<g id="XMLID_685_">
				<path id="XMLID_695_" class="st2" d="M342.4,779.2v-2h-1c-1.3,1.7-3.5,2.6-6.4,2.6c-2.4,0-4.3-0.7-5.7-2
					c-1.4-1.4-2.1-3.1-2.1-5.1s0.7-3.7,2.1-5.1c1.4-1.5,3.6-2.2,6.5-2.2h6.4v-0.6c0-2.5-1.5-4-4.6-4c-2.7,0-4.1,0.9-4.4,2.8h-4.8
					c0.2-4.1,3.8-6.6,9-6.6c5.8,0,9.4,2.6,9.4,7.9v14.3H342.4L342.4,779.2z M340.6,774.2c1.1-1.1,1.7-2.3,1.7-3.8v-1.7h-5.5
					c-3,0-4.6,1.3-4.6,3.6c0,2.2,1.6,3.5,4.4,3.5C338.1,775.8,339.5,775.3,340.6,774.2z"/>
				<path id="XMLID_693_" class="st2" d="M363.8,757.5v4.5h-2c-4.4,0-6.8,2.5-6.8,7.1v10.1h-4.8v-21.7h4.7v2.5h1
					c1.2-1.7,3.3-2.5,6.1-2.5H363.8L363.8,757.5z"/>
				<path id="XMLID_691_" class="st2" d="M370.6,757.5h5.1v4.1h-5.1v10.6c0,1.9,1.1,2.9,3.3,2.9h1.8v4.2h-1.9
					c-5.2,0-8.1-1.7-8.1-6.4v-20.8h4.8v5.4H370.6z"/>
				<path id="XMLID_688_" class="st2" d="M395.6,776.6c-2,2.1-4.6,3.2-8,3.2s-6-1.1-8-3.2c-2-2.1-2.9-4.9-2.9-8.3
					c0-3.4,1-6.1,2.9-8.2c2-2.1,4.7-3.2,8-3.2c3.4,0,6,1.1,8,3.2s3,4.8,3,8.2S397.6,774.5,395.6,776.6z M387.6,761
					c-4,0-6.1,3.2-6.1,7.3s2.2,7.3,6.1,7.3c4,0,6.1-3.2,6.1-7.3C393.8,764.2,391.6,761,387.6,761z"/>
				<path id="XMLID_686_" class="st2" d="M413.2,763.3c-0.3-1.6-1.7-2.3-4.3-2.3c-2.6,0-3.9,0.8-3.9,2.3c0,1.3,0.9,1.8,2.8,2.2
					l4.2,0.7c4.4,0.7,6.6,2.9,6.6,6.7c0,1.9-0.8,3.6-2.5,4.9c-1.6,1.3-3.9,2-6.8,2c-6.1,0-9.5-2.7-9.9-7.1h4.8c0.4,2.1,2,3.1,5,3.1
					s4.6-0.9,4.6-2.8c0-1.7-1-2.4-3.5-2.9l-4.5-0.8c-3.4-0.6-5.5-2.5-5.5-5.7c0-3.9,3.1-6.6,8.9-6.6c5.2,0,8.4,2.5,8.9,6.4h-4.9
					L413.2,763.3L413.2,763.3z"/>
			</g>
		</g>
	</g>
</g>
<g id="XMLID_657_">
	<g id="XMLID_407_">
		<rect id="XMLID_592_" x="480.3" y="534.4" class="st1" width="134.8" height="65.2"/>
		<g id="XMLID_408_">
			<g id="XMLID_719_">
				<path id="XMLID_729_" class="st2" d="M517.2,577.8v-2h-1c-1.3,1.7-3.5,2.6-6.4,2.6c-2.4,0-4.3-0.7-5.7-2
					c-1.4-1.4-2.1-3.1-2.1-5.1s0.7-3.7,2.1-5.1c1.4-1.5,3.6-2.2,6.5-2.2h6.4v-0.6c0-2.5-1.5-4-4.6-4c-2.7,0-4.1,0.9-4.4,2.8h-4.8
					c0.2-4.1,3.8-6.6,9-6.6c5.8,0,9.4,2.6,9.4,7.9v14.4L517.2,577.8L517.2,577.8z M515.4,572.9c1.1-1.1,1.7-2.3,1.7-3.8v-1.7h-5.5
					c-3,0-4.6,1.3-4.6,3.6c0,2.2,1.6,3.5,4.4,3.5C512.9,574.5,514.2,574,515.4,572.9z"/>
				<path id="XMLID_727_" class="st2" d="M538.5,556.1v4.5h-2c-4.4,0-6.8,2.5-6.8,7.1v10.2H525v-21.7h4.7v2.5h1
					c1.2-1.7,3.3-2.5,6.1-2.5L538.5,556.1L538.5,556.1z"/>
				<path id="XMLID_725_" class="st2" d="M545.3,556.1h5.1v4.1h-5.1v10.6c0,1.9,1.1,2.9,3.3,2.9h1.8v4.2h-1.9
					c-5.2,0-8.1-1.7-8.1-6.4v-20.8h4.8v5.4H545.3z"/>
				<path id="XMLID_722_" class="st2" d="M570.4,575.2c-2,2.1-4.6,3.2-8,3.2s-6-1.1-8-3.2c-2-2.1-2.9-4.9-2.9-8.3
					c0-3.4,1-6.1,2.9-8.2c2-2.1,4.7-3.2,8-3.2c3.4,0,6,1.1,8,3.2c2,2.1,3,4.8,3,8.2S572.4,573.1,570.4,575.2z M562.4,559.7
					c-4,0-6.1,3.2-6.1,7.3s2.2,7.3,6.1,7.3c4,0,6.1-3.2,6.1-7.3C568.6,562.9,566.4,559.7,562.4,559.7z"/>
				<path id="XMLID_720_" class="st2" d="M588,561.9c-0.3-1.6-1.7-2.3-4.3-2.3s-3.9,0.8-3.9,2.3c0,1.3,0.9,1.8,2.8,2.2l4.2,0.7
					c4.4,0.7,6.6,2.9,6.6,6.7c0,1.9-0.8,3.6-2.5,4.9c-1.6,1.3-3.9,2-6.8,2c-6.1,0-9.5-2.7-9.9-7.1h4.8c0.4,2.1,2,3.1,5,3.1
					s4.6-0.9,4.6-2.8c0-1.7-1-2.4-3.5-2.9l-4.5-0.8c-3.4-0.6-5.5-2.5-5.5-5.7c0-3.9,3.1-6.6,8.9-6.6c5.2,0,8.4,2.5,8.9,6.4H588
					V561.9z"/>
			</g>
		</g>
	</g>
	<g id="XMLID_285_">
		<rect id="XMLID_406_" x="1024.2" y="534.4" class="st1" width="134.8" height="65.2"/>
		<g id="XMLID_286_">
			<g id="XMLID_705_">
				<path id="XMLID_716_" class="st2" d="M1061.1,577.8v-2h-1c-1.3,1.7-3.5,2.6-6.4,2.6c-2.4,0-4.3-0.7-5.7-2
					c-1.4-1.4-2.1-3.1-2.1-5.1s0.7-3.7,2.1-5.1c1.4-1.5,3.6-2.2,6.5-2.2h6.4v-0.6c0-2.5-1.5-4-4.6-4c-2.7,0-4.1,0.9-4.4,2.8h-4.8
					c0.2-4.1,3.8-6.6,9-6.6c5.8,0,9.4,2.6,9.4,7.9v14.4L1061.1,577.8L1061.1,577.8z M1059.2,572.9c1.1-1.1,1.7-2.3,1.7-3.8v-1.7
					h-5.5c-3,0-4.6,1.3-4.6,3.6c0,2.2,1.6,3.5,4.4,3.5C1056.8,574.5,1058.1,574,1059.2,572.9z"/>
				<path id="XMLID_714_" class="st2" d="M1082.4,556.1v4.5h-2c-4.4,0-6.8,2.5-6.8,7.1v10.2h-4.8v-21.7h4.7v2.5h1
					c1.2-1.7,3.3-2.5,6.1-2.5L1082.4,556.1L1082.4,556.1z"/>
				<path id="XMLID_712_" class="st2" d="M1089.2,556.1h5.1v4.1h-5.1v10.6c0,1.9,1.1,2.9,3.3,2.9h1.8v4.2h-1.9
					c-5.2,0-8.1-1.7-8.1-6.4v-20.8h4.8L1089.2,556.1L1089.2,556.1z"/>
				<path id="XMLID_708_" class="st2" d="M1114.3,575.2c-2,2.1-4.6,3.2-8,3.2s-6-1.1-8-3.2c-2-2.1-2.9-4.9-2.9-8.3
					c0-3.4,1-6.1,2.9-8.2c2-2.1,4.7-3.2,8-3.2c3.4,0,6,1.1,8,3.2c2,2.1,3,4.8,3,8.2C1117.2,570.3,1116.3,573.1,1114.3,575.2z
					 M1106.3,559.7c-4,0-6.1,3.2-6.1,7.3s2.2,7.3,6.1,7.3c4,0,6.1-3.2,6.1-7.3S1110.3,559.7,1106.3,559.7z"/>
				<path id="XMLID_706_" class="st2" d="M1131.9,561.9c-0.3-1.6-1.7-2.3-4.3-2.3c-2.6,0-3.9,0.8-3.9,2.3c0,1.3,0.9,1.8,2.8,2.2
					l4.2,0.7c4.4,0.7,6.6,2.9,6.6,6.7c0,1.9-0.8,3.6-2.5,4.9c-1.6,1.3-3.9,2-6.8,2c-6.1,0-9.5-2.7-9.9-7.1h4.8c0.4,2.1,2,3.1,5,3.1
					s4.6-0.9,4.6-2.8c0-1.7-1-2.4-3.5-2.9l-4.5-0.8c-3.4-0.6-5.5-2.5-5.5-5.7c0-3.9,3.1-6.6,8.9-6.6c5.2,0,8.4,2.5,8.9,6.4h-4.9
					L1131.9,561.9L1131.9,561.9z"/>
			</g>
		</g>
	</g>
</g>
<g id="XMLID_656_">
	<g id="XMLID_191_">
		<rect id="XMLID_284_" x="480.3" y="1095.6" class="st1" width="134.8" height="65.2"/>
		<g id="XMLID_192_">
			<g id="XMLID_664_">
				<path id="XMLID_701_" class="st2" d="M517.2,1139.1v-2h-1c-1.3,1.7-3.5,2.6-6.4,2.6c-2.4,0-4.3-0.7-5.7-2
					c-1.4-1.4-2.1-3.1-2.1-5.1s0.7-3.7,2.1-5.1c1.4-1.5,3.6-2.2,6.5-2.2h6.4v-0.6c0-2.5-1.5-4-4.6-4c-2.7,0-4.1,0.9-4.4,2.8h-4.8
					c0.2-4.1,3.8-6.6,9-6.6c5.8,0,9.4,2.6,9.4,7.9v14.4h-4.4V1139.1z M515.4,1134.1c1.1-1.1,1.7-2.3,1.7-3.8v-1.7h-5.5
					c-3,0-4.6,1.3-4.6,3.6c0,2.2,1.6,3.5,4.4,3.5C512.9,1135.7,514.2,1135.2,515.4,1134.1z"/>
				<path id="XMLID_699_" class="st2" d="M538.5,1117.4v4.5h-2c-4.4,0-6.8,2.5-6.8,7.1v10.2H525v-21.7h4.7v2.5h1
					c1.2-1.7,3.3-2.5,6.1-2.5L538.5,1117.4L538.5,1117.4z"/>
				<path id="XMLID_697_" class="st2" d="M545.3,1117.4h5.1v4.1h-5.1v10.6c0,1.9,1.1,2.9,3.3,2.9h1.8v4.2h-1.9
					c-5.2,0-8.1-1.7-8.1-6.4V1112h4.8v5.4L545.3,1117.4L545.3,1117.4z"/>
				<path id="XMLID_667_" class="st2" d="M570.4,1136.5c-2,2.1-4.6,3.2-8,3.2s-6-1.1-8-3.2s-2.9-4.9-2.9-8.3s1-6.1,2.9-8.2
					c2-2.1,4.7-3.2,8-3.2c3.4,0,6,1.1,8,3.2s3,4.8,3,8.2S572.4,1134.3,570.4,1136.5z M562.4,1120.9c-4,0-6.1,3.2-6.1,7.3
					s2.2,7.3,6.1,7.3c4,0,6.1-3.2,6.1-7.3C568.6,1124.1,566.4,1120.9,562.4,1120.9z"/>
				<path id="XMLID_665_" class="st2" d="M588,1123.2c-0.3-1.6-1.7-2.3-4.3-2.3s-3.9,0.8-3.9,2.3c0,1.3,0.9,1.8,2.8,2.2l4.2,0.7
					c4.4,0.7,6.6,2.9,6.6,6.7c0,1.9-0.8,3.6-2.5,4.9c-1.6,1.3-3.9,2-6.8,2c-6.1,0-9.5-2.7-9.9-7.1h4.8c0.4,2.1,2,3.1,5,3.1
					s4.6-0.9,4.6-2.8c0-1.7-1-2.4-3.5-2.9l-4.5-0.8c-3.4-0.6-5.5-2.5-5.5-5.7c0-3.9,3.1-6.6,8.9-6.6c5.2,0,8.4,2.5,8.9,6.4
					L588,1123.2L588,1123.2z"/>
			</g>
		</g>
	</g>
	<g id="XMLID_44_">
		<rect id="XMLID_190_" x="866.1" y="1095.6" class="st1" width="134.8" height="65.2"/>
		<g id="XMLID_45_">
			<g id="XMLID_626_">
				<path id="XMLID_638_" class="st2" d="M903,1139.1v-2h-1c-1.3,1.7-3.5,2.6-6.4,2.6c-2.4,0-4.3-0.7-5.7-2
					c-1.4-1.4-2.1-3.1-2.1-5.1s0.7-3.7,2.1-5.1c1.4-1.5,3.6-2.2,6.5-2.2h6.4v-0.6c0-2.5-1.5-4-4.6-4c-2.7,0-4.1,0.9-4.4,2.8H889
					c0.2-4.1,3.8-6.6,9-6.6c5.8,0,9.4,2.6,9.4,7.9v14.4H903V1139.1z M901.2,1134.1c1.1-1.1,1.7-2.3,1.7-3.8v-1.7h-5.5
					c-3,0-4.6,1.3-4.6,3.6c0,2.2,1.6,3.5,4.4,3.5C898.7,1135.7,900.1,1135.2,901.2,1134.1z"/>
				<path id="XMLID_634_" class="st2" d="M924.4,1117.4v4.5h-2c-4.4,0-6.8,2.5-6.8,7.1v10.2h-4.8v-21.7h4.7v2.5h1
					c1.2-1.7,3.3-2.5,6.1-2.5L924.4,1117.4L924.4,1117.4z"/>
				<path id="XMLID_632_" class="st2" d="M931.2,1117.4h5.1v4.1h-5.1v10.6c0,1.9,1.1,2.9,3.3,2.9h1.8v4.2h-1.9
					c-5.2,0-8.1-1.7-8.1-6.4V1112h4.8v5.4L931.2,1117.4L931.2,1117.4z"/>
				<path id="XMLID_629_" class="st2" d="M956.2,1136.5c-2,2.1-4.6,3.2-8,3.2s-6-1.1-8-3.2s-2.9-4.9-2.9-8.3s1-6.1,2.9-8.2
					c2-2.1,4.7-3.2,8-3.2c3.4,0,6,1.1,8,3.2s3,4.8,3,8.2S958.2,1134.3,956.2,1136.5z M948.2,1120.9c-4,0-6.1,3.2-6.1,7.3
					s2.2,7.3,6.1,7.3c4,0,6.1-3.2,6.1-7.3C954.4,1124.1,952.2,1120.9,948.2,1120.9z"/>
				<path id="XMLID_627_" class="st2" d="M973.8,1123.2c-0.3-1.6-1.7-2.3-4.3-2.3s-3.9,0.8-3.9,2.3c0,1.3,0.9,1.8,2.8,2.2l4.2,0.7
					c4.4,0.7,6.6,2.9,6.6,6.7c0,1.9-0.8,3.6-2.5,4.9c-1.6,1.3-3.9,2-6.8,2c-6.1,0-9.5-2.7-9.9-7.1h4.8c0.4,2.1,2,3.1,5,3.1
					s4.6-0.9,4.6-2.8c0-1.7-1-2.4-3.5-2.9l-4.5-0.8c-3.4-0.6-5.5-2.5-5.5-5.7c0-3.9,3.1-6.6,8.9-6.6c5.2,0,8.4,2.5,8.9,6.4
					L973.8,1123.2L973.8,1123.2L973.8,1123.2z"/>
			</g>
		</g>
	</g>
</g>
</svg>
