<?xml version="1.0" encoding="utf-8"?>
<!-- Generator: Adobe Illustrator 19.0.0, SVG Export Plug-In . SVG Version: 6.00 Build 0)  -->
<svg version="1.1" id="Layer_1" xmlns="http://www.w3.org/2000/svg" xmlns:xlink="http://www.w3.org/1999/xlink" x="0px" y="0px"
	 viewBox="110 141 1500 1000" style="enable-background:new 110 141 1500 1000;" xml:space="preserve">
<style type="text/css">
	.st0{fill:#FFFFFF;}
	.st1{fill:#2BB9AF;}
</style>
<g>
	<g>
		<path class="st0" d="M531.3,682H595v9.6h-73.9V581h10.2L531.3,682L531.3,682z"/>
		<path class="st0" d="M617.3,591.2h-10.7V579h10.7V591.2z M616.8,614.2v77.4H607v-77.4L616.8,614.2L616.8,614.2z"/>
		<path class="st0" d="M693.6,614.2h9.4v73.6c0,21.8-13.2,35.8-35,35.8c-19.2,0-31.4-8.4-34.1-22.8h9.6c2.3,9.4,10.4,14.1,24.3,14.1
			c16.9,0,25.4-9.8,25.4-27.1V681h-3.1c-5.7,7.1-13.9,10.7-24.6,10.7c-10.5,0-18.9-3.7-25.2-11.2c-6.4-7.4-9.4-16.9-9.4-28.5
			s3.1-21.1,9.4-28.5c6.4-7.6,14.7-11.3,25.2-11.3c10.7,0,19.1,3.6,24.9,10.7h3.1L693.6,614.2L693.6,614.2z M686.5,674.1
			c4.5-6,6.8-13.3,6.8-22.2s-2.3-16.1-6.8-22.2c-4.5-6-11.2-9-19.8-9c-16.3,0-26,12.1-26,31.1c0,18.7,9.8,31,26,31
			C675.3,682.9,682,680,686.5,674.1z"/>
		<path class="st0" d="M788.3,691.6h-9.8V644c0-15.5-7.1-23.2-21.5-23.2c-7.4,0-13.6,2.8-18.4,8.4c-4.8,5.6-7.1,12.2-7.1,20v42.4
			h-9.8V579h9.8v43.8h3.1c4.3-6.2,13.8-10.7,23.9-10.7c18.6,0,29.9,11.5,29.9,29.6v49.9H788.3z"/>
		<path class="st0" d="M820.8,614.2h20.6v8.7h-20.6v46.9c0,9.1,4.2,13.2,15.3,13.2h5.3v8.7H836c-16.9,0-24.9-5.9-24.9-20.8v-48
			h-14.3v-8.7H811v-24h9.8V614.2z"/>
		<path class="st0" d="M569.6,730.1c23.4,0,36.4,11.9,36.4,32.2c0,13.6-5.7,23.4-16.9,28.3l17.7,50h-14.4l-16.6-46.8
			c-2.9,0.3-6,0.5-9,0.5h-32.2v46.3h-13.9V730.1H569.6z M567.5,782c17.8,0,24.3-7.4,24.3-19.7c0-12.4-6.5-19.8-24.3-19.8h-33V782
			H567.5z"/>
		<path class="st0" d="M689,801.5h-59.5c0.5,18.6,8.8,29.7,24.9,29.7c11,0,17.5-4.6,19.8-12.1h13.3c-2.5,13.3-13.8,23.5-33.1,23.5
			c-24.3,0-38-17.8-38-41.8s13.9-40.3,37.6-40.3c23.2,0,34.4,17.2,34.9,36.4L689,801.5L689,801.5z M630.3,790.5h45.1
			c-0.8-9.9-8.4-18.4-21.5-18.4C639.7,772.1,632,780.6,630.3,790.5z"/>
		<path class="st0" d="M771.5,762.6v74.2c0,21.8-13.6,35.9-36.4,35.9c-20,0-33-8.4-35.3-23.9h13c2.3,9.3,10.4,12.7,22.2,12.7
			c16.1,0,23.4-9.8,23.4-25.4V830H755c-4.2,5.4-11.6,10.4-23.4,10.4c-21.5,0-34.7-17-34.7-39.8c0-22.9,13.2-40,34.7-40
			c12.2,0,19.7,5,23.9,10.4h3.4v-8.4L771.5,762.6L771.5,762.6z M758.7,800.6c0-15-7.9-28.5-24.6-28.5c-15.3,0-24,11.3-24,28.5
			c0,16.9,8.7,28.3,24,28.3C750.8,828.9,758.7,815.4,758.7,800.6z"/>
		<path class="st0" d="M801.1,762.6v46.8c0,14.4,6.7,21.5,19.8,21.5c13.8,0,23.2-11.9,23.2-26v-42.3h13.2v78.1h-12.7v-8.4h-3.4
			c-4.3,6-13,10.4-23.5,10.4c-19.2,0-29.7-11.8-29.7-30.5v-49.6H801.1z"/>
		<path class="st0" d="M888.2,728.1v112.6H875V728.1H888.2z"/>
		<path class="st0" d="M955.6,832.5h-3.4c-4.8,6-13.2,10.2-24.3,10.2c-18,0-28-12.1-28-25.4c0-12.5,8.2-25.9,29.9-25.9h25.4v-3.1
			c0-9.4-5.4-16.3-19.1-16.3c-11.6,0-17.5,4.5-18.1,11.3h-13.2c1.1-14.4,13.5-22.8,31-22.8c19.7,0,32.2,9.4,32.2,27v53.1h-12.4
			L955.6,832.5L955.6,832.5z M955.1,809.1V802h-23.4c-12.9,0-18.7,5.6-18.7,14.9c0,8.8,6.5,14.4,18.1,14.4
			C944.1,831.2,955.1,821.5,955.1,809.1z"/>
		<path class="st0" d="M1029,775h-6.5c-15.5,0-24.9,9.4-24.9,26.6v39h-13.2v-78.1h12.7v9.3h3.4c3.9-4.8,11.3-9.3,22.6-9.3h5.9V775z"
			/>
		<path class="st0" d="M520,989.8V879.2h29.4l22.9,48.2h3.7l22.6-48.2h29.6v110.6h-17.7v-88.4h-3.7l-23.4,48.5h-18.9l-23.2-48.5
			h-3.7v88.4H520z"/>
		<path class="st0" d="M716.9,951.8h-58.2c0.5,16.7,7.9,25.1,22.2,25.1c9.1,0,14.9-3.4,17.2-10.1h17.8c-3.1,15-15.3,24.9-35.2,24.9
			c-12.2,0-21.8-3.9-28.8-11.6c-7-7.7-10.5-17.8-10.5-30.4c0-12.5,3.4-22.5,10.4-29.7c7-7.4,16.6-11.2,28.5-11.2
			c11.3,0,20.3,3.6,26.6,10.5c6.5,7,9.9,15.8,10.1,26.5L716.9,951.8L716.9,951.8z M659.4,938.8h39.5c-1.2-9.3-7.9-16-18.9-16
			C668.4,922.9,661.4,929,659.4,938.8z"/>
		<path class="st0" d="M780.5,918.5h3.7v-41.4h17.5v112.6h-16.9v-7.6h-3.7c-5.1,6.4-12.9,9.6-23.2,9.6c-10.4,0-18.7-3.9-24.9-11.6
			c-6-7.7-9.1-17.7-9.1-29.9c0-12.1,3.1-22,9.1-29.7c6.2-7.7,14.6-11.6,24.9-11.6C768.3,908.9,775.7,912.2,780.5,918.5z
			 M784.7,950.3c0-15-7.4-26.5-21.8-26.5c-13.8,0-21.5,10.5-21.5,26.5s7.7,26.6,21.5,26.6C777.3,976.9,784.7,965.3,784.7,950.3z"/>
		<path class="st0" d="M836.1,894h-18v-16.9h18V894z M835.8,910.9v78.8h-17.5v-78.8H835.8z"/>
		<path class="st0" d="M851.5,910.9H869v45.9c0,12.9,5.9,19.4,17.5,19.4c6,0,11-2.3,14.7-6.8c3.9-4.5,5.7-9.9,5.7-16.3V911h17.5
			v78.8h-16.9v-7.6h-3.7c-4.8,6.4-12.4,9.6-22.8,9.6c-19.2,0-29.6-11.8-29.6-31.6L851.5,910.9L851.5,910.9z"/>
		<path class="st0" d="M1053.9,939.4v50.3h-17.5v-47.4c0-11.9-4.5-17.8-13.5-17.8c-10.5,0-16.7,8.4-16.7,20.3v44.9h-17.5v-47.2
			c0-11.9-4.5-18-13.5-18c-11.2,0-16.9,9.3-16.9,22.3v42.9h-17.5v-78.8h16.9v7.1h3.7c4-6,10.7-9.1,19.8-9.1c9.4,0,16.3,3.3,20.4,9.6
			h3.7c4.8-6.4,12.1-9.6,21.8-9.6C1045.3,908.9,1053.9,920.2,1053.9,939.4z"/>
		<path class="st0" d="M599,1084c7.3,3.3,13.8,12.2,13.8,22.3c0,19.7-12.9,32.5-38.4,32.5h-55.9v-110.6h54.2
			c24.2,0,37.2,12.7,37.2,30.2c0,9.4-4.5,17.7-10.8,21.2v4.4H599L599,1084z M547.2,1051.5v19.1h21.5c7.6,0,11.5-3.1,11.5-9.4
			c0-6.4-3.9-9.6-11.8-9.6L547.2,1051.5L547.2,1051.5z M569.7,1115.1c7.4,0,13.5-3.1,13.5-10.4s-4.3-11-13-11h-22.9v21.4H569.7z"/>
		<path class="st0" d="M623.8,1026.2h27v112.6h-27V1026.2z"/>
		<path class="st0" d="M737.5,1088v50.8h-24.6v-6.2h-4.3c-4.8,5.4-11.9,8.2-21.2,8.2c-8.5,0-15.5-2.6-20.6-7.9
			c-5.1-5.3-7.6-11.6-7.6-19.2c0-7.1,2.8-13.3,8.5-18.7c5.7-5.4,14.1-8.1,25.4-8.1h18.6v-1.4c0-6.8-3.7-10.2-11-10.2
			c-6.5,0-10.1,2.3-10.7,7h-26.6c0.2-7.9,3.6-14.1,10.2-18.9c6.7-4.8,15.2-7.1,25.6-7.1C724.6,1056.3,737.5,1066.8,737.5,1088z
			 M711.6,1102.3h-13c-7.6,0-12.5,3.6-12.5,9.3c0,6.4,3.9,9.4,11.5,9.4c8.7,0,14.1-5.9,14.1-13.9L711.6,1102.3L711.6,1102.3z"/>
		<path class="st0" d="M825.9,1110c-0.8,9.1-4.6,16.6-11.9,22.3c-7.1,5.7-16,8.5-26.5,8.5c-12.5,0-22.8-3.7-30.4-11.3
			c-7.6-7.6-11.3-18-11.3-31s3.7-23.2,11.3-30.8c7.6-7.6,17.8-11.5,30.4-11.5c10.4,0,19.1,2.6,26,8.1c7,5.4,10.8,12.4,11.6,21.2
			h-26.5c-1.4-4.8-5.1-7.3-11-7.3c-10.4,0-14.9,8.4-14.9,20.3c0,12.2,4.5,20.3,14.9,20.3c7,0,11-2.9,11.8-8.8H825.9z"/>
		<path class="st0" d="M920.4,1138.8h-27.9l-16.3-34.2h-4.3l-9.3,10.7v23.5h-27.1v-112.6h27.1v58.6l24.8-26.5H917l-22.8,24.9
			L920.4,1138.8z"/>
	</g>
</g>
<g>
	<g>
		<g>
			<path class="st1" d="M117.8,583.2h60.9v12.1L149,621.6v3.1c10.2,0,18.6,2.9,24.9,9c6.4,5.9,9.6,14.1,9.6,24.6
				c0,11-3.4,19.5-10.4,25.9s-15.8,9.4-26.6,9.4c-10.4,0-18.9-2.9-25.7-8.8c-6.7-5.9-10.4-13.3-10.8-22.5h10.1
				c0.5,6.7,3.3,11.9,8.2,16.1c5.1,4.2,11.2,6.2,18.3,6.2c16.1,0,27-10.2,27-26.3c0-15.6-9.9-25.1-26.8-25.1c-3.9,0-6.8,0.3-9.1,0.9
				v-12.7l29.1-26.2v-3.1h-49C117.8,592.1,117.8,583.2,117.8,583.2z"/>
			<path class="st1" d="M231.2,581c11.8,0,21.2,4.8,28.2,14.3c7.1,9.4,10.7,23.4,10.7,42.1c0,18.7-3.6,32.7-10.7,42.1
				c-7,9.4-16.4,14.1-28.2,14.1s-21.2-4.6-28.3-14.1c-7-9.4-10.5-23.4-10.5-42.1c0-18.7,3.6-32.7,10.5-42.1
				C210,585.8,219.5,581,231.2,581z M231.2,684.6c9.4,0,16.6-4,21.4-12.1c5-8.1,7.4-19.8,7.4-35.2c0-15.3-2.5-27.1-7.4-35.2
				c-4.8-8.1-11.9-12.1-21.4-12.1c-9.4,0-16.6,4-21.5,12.2c-4.8,8.1-7.3,19.8-7.3,35.2c0,15.3,2.5,27.1,7.3,35.2
				C214.7,680.6,221.8,684.6,231.2,684.6z"/>
			<path class="st1" d="M318.9,581c11.8,0,21.2,4.8,28.2,14.3c7.1,9.4,10.7,23.4,10.7,42.1c0,18.7-3.6,32.7-10.7,42.1
				c-7,9.4-16.4,14.1-28.2,14.1s-21.2-4.6-28.3-14.1c-7-9.4-10.5-23.4-10.5-42.1c0-18.7,3.6-32.7,10.5-42.1
				C297.7,585.8,307.1,581,318.9,581z M318.9,684.6c9.4,0,16.6-4,21.4-12.1c5-8.1,7.4-19.8,7.4-35.2c0-15.3-2.5-27.1-7.4-35.2
				c-4.8-8.2-11.9-12.2-21.4-12.2c-9.4,0-16.6,4-21.5,12.2c-4.8,8.1-7.3,19.8-7.3,35.2c0,15.3,2.5,27.1,7.3,35.2
				C302.3,680.6,309.5,684.6,318.9,684.6z"/>
		</g>
		<g>
			<path class="st1" d="M191.8,803.2v12.1h-14.9v25.4h-13.3v-25.4H110v-15.5l47.9-67.5H177v70.9H191.8z M163.8,803.2v-55.6h-3.4
				l-36.1,52.2v3.4L163.8,803.2L163.8,803.2z"/>
			<path class="st1" d="M279.3,786.5c0,39-17,56.2-40,56.2c-22.9,0-39.8-17.2-39.8-56.2s16.9-56.4,39.8-56.4
				C262.3,730.1,279.3,747.4,279.3,786.5z M265.7,786.5c0-27-8.2-44.3-26.3-44.3c-18,0-26.2,17.3-26.2,44.3
				c0,26.8,8.2,44.1,26.2,44.1C257.5,830.6,265.7,813.3,265.7,786.5z"/>
			<path class="st1" d="M368.4,786.5c0,39-17,56.2-40,56.2c-22.9,0-39.8-17.2-39.8-56.2s16.9-56.4,39.8-56.4
				C351.4,730.1,368.4,747.4,368.4,786.5z M354.8,786.5c0-27-8.2-44.3-26.3-44.3c-18,0-26.2,17.3-26.2,44.3
				c0,26.8,8.2,44.1,26.2,44.1C346.6,830.6,354.8,813.3,354.8,786.5z"/>
		</g>
		<g>
			<path class="st1" d="M178.4,926.6c6.5,6.8,9.8,15.5,9.8,26.2c0,11.6-3.6,21.1-10.8,28.3c-7.3,7.1-16.6,10.7-27.9,10.7
				c-23.7,0-38.3-13.8-39.5-33.8h18c1.4,11.6,9,17.7,20.9,17.7c12.9,0,21.2-8.7,21.2-22.5c0-13.6-8.4-22.3-20.9-22.3
				c-8.5,0-15,3.1-19.4,9.1h-17.4l4.8-58.7h64.6v15.3h-50.3l-2,26.5h3.7c5.4-4.5,12.2-6.8,20.1-6.8
				C163.7,916.3,172,919.8,178.4,926.6z"/>
			<path class="st1" d="M237.4,879.2c12.4,0,22.3,4.6,29.9,14.1c7.6,9.4,11.3,23.5,11.3,42.3c0,18.7-3.7,32.8-11.3,42.3
				c-7.6,9.3-17.5,13.9-29.9,13.9c-12.4,0-22.3-4.6-29.9-13.9c-7.6-9.4-11.3-23.5-11.3-42.3c0-18.7,3.7-32.8,11.3-42.3
				S225,879.2,237.4,879.2z M237.4,975.7c8.1,0,13.9-3.7,17.5-11c3.7-7.3,5.6-17,5.6-29.1s-1.9-21.8-5.6-29.1
				c-3.6-7.4-9.4-11.2-17.5-11.2s-13.9,3.7-17.7,11.2c-3.6,7.3-5.4,17-5.4,29.1s1.9,21.8,5.4,29.1
				C223.5,972,229.3,975.7,237.4,975.7z"/>
			<path class="st1" d="M328.2,879.2c12.4,0,22.3,4.6,29.9,14.1c7.6,9.4,11.3,23.5,11.3,42.3c0,18.7-3.7,32.8-11.3,42.3
				c-7.6,9.3-17.5,13.9-29.9,13.9c-12.4,0-22.3-4.6-29.9-13.9c-7.6-9.4-11.3-23.5-11.3-42.3c0-18.7,3.7-32.8,11.3-42.3
				C305.9,883.8,315.8,879.2,328.2,879.2z M328.2,975.7c8.1,0,13.9-3.7,17.5-11c3.7-7.3,5.6-17,5.6-29.1s-1.9-21.8-5.6-29.1
				c-3.6-7.4-9.4-11.2-17.5-11.2c-8.1,0-13.9,3.7-17.7,11.2c-3.6,7.3-5.4,17-5.4,29.1s1.9,21.8,5.4,29.1
				C314.2,972,320.1,975.7,328.2,975.7z"/>
		</g>
		<g>
			<path class="st1" d="M120.1,1093.2c-6.7-6.7-10.1-15.3-10.1-25.9c0-11,3.9-20.1,11.5-27.7c7.6-7.6,17.7-11.3,30.1-11.3
				c25.6,0,45.2,14.6,45.2,54.8c0,17.8-3.7,31.9-11.3,42.3c-7.6,10.4-18.9,15.5-34.1,15.5c-10.1,0-18.9-2.9-26.2-8.8
				c-7.3-6-11.5-13.2-12.5-21.7h27.6c1.2,5.6,5.3,8.4,11.9,8.4c10.1,0,17.2-7.1,18.3-23.1h-4.4c-4.6,5.1-11.6,7.6-21.1,7.6
				C135.3,1103.2,127,1099.8,120.1,1093.2z M137.8,1066.5c0,5,1.2,8.8,3.9,11.6c2.6,2.6,6.2,4,10.7,4s7.9-1.4,10.5-4
				c2.6-2.6,4-6.5,4-11.5c0-9.9-5.9-16.1-14.6-16.1C143.5,1050.6,137.8,1056.4,137.8,1066.5z"/>
			<path class="st1" d="M247.3,1028.2c13.2,0,23.9,4.6,31.9,13.9c8.1,9.3,12.1,23.4,12.1,42.3s-4,33-12.1,42.4
				c-8.1,9.3-18.7,13.9-31.9,13.9s-23.9-4.6-31.9-13.9c-8.1-9.4-12.1-23.5-12.1-42.4s4-33,12.1-42.3
				C223.5,1032.9,234.1,1028.2,247.3,1028.2z M247.3,1052.6c-10.8,0-16.3,10.7-16.3,31.9c0,21.4,5.4,32.1,16.3,32.1
				c10.8,0,16.3-10.7,16.3-32.1C263.6,1063.3,258.2,1052.6,247.3,1052.6z"/>
			<path class="st1" d="M341.8,1028.2c13.2,0,23.9,4.6,31.9,13.9c8.1,9.3,12.1,23.4,12.1,42.3s-4,33-12.1,42.4
				c-8.1,9.3-18.7,13.9-31.9,13.9s-23.9-4.6-31.9-13.9c-8.1-9.4-12.1-23.5-12.1-42.4s4-33,12.1-42.3
				C317.9,1032.9,328.6,1028.2,341.8,1028.2z M341.8,1052.6c-10.8,0-16.3,10.7-16.3,31.9c0,21.4,5.4,32.1,16.3,32.1
				c10.8,0,16.3-10.7,16.3-32.1C358.1,1063.3,352.6,1052.6,341.8,1052.6z"/>
		</g>
	</g>
</g>
<g id="XMLID_13_">
	<g>
		<path id="XMLID_74_" class="st0" d="M746.9,246.1c-7.8-33.5-34-50.2-78.4-50.2c-41.8,0-71.6,17.8-71.6,50.7
			c0,27.7,20.4,39.2,54.4,46l34,6.8l36.1,6.8c65.3,14.1,97.8,50.2,97.8,107.2c0,32.4-12.5,59.6-38.2,81.6
			c-25.1,22-61.2,32.9-107.7,32.9c-44.4,0-80.5-10.5-108.2-31.9s-42.9-49.1-46.5-84.2h63.8c6.8,40.8,38.2,61.2,93.6,61.2
			c47.6,0,80-21.4,80-57c0-32.9-19.3-47.1-56.5-55.4c-5.2-1.6-18.3-4.2-39.7-7.8c-21.4-4.2-32.4-6.3-32.9-6.3
			c-59.1-11-93.1-43.9-93.1-98.3c0-30.8,12-56.5,36.1-76.8c24.3-20.5,57.3-30.4,99.6-30.4c78.9,0,132.8,40.8,141.2,105.1H746.9z"/>
		<path id="XMLID_71_" class="st0" d="M1019.3,521.1v-24.6h-12.5c-16.2,20.9-42.3,31.4-78.4,31.4c-29.3,0-52.3-8.4-69.5-25.1
			c-17.3-17.3-25.6-37.6-25.6-62.2c0-24,8.9-45,26.1-62.7c17.2-17.7,43.9-26.7,79.5-26.7h78.4v-7.8c0-30.8-18.3-48.6-55.9-48.6
			c-32.9,0-50.7,11.5-53.3,34h-58.6c2.6-49.7,46.5-80.5,109.8-80.5c71.6,0,115,31.9,115,96.2v176.7L1019.3,521.1L1019.3,521.1z
			 M996.8,460.4c13.6-13.1,20.4-28.8,20.4-47.1V393h-68c-37.1,0-56.5,16.2-56.5,43.9c0,27.2,19.9,42.9,53.8,42.9
			C966.5,479.8,983.2,473.5,996.8,460.4z"/>
		<path id="XMLID_69_" class="st0" d="M1355.9,521.1h-59.1V366.3c0-43.4-19.9-65.3-59.1-65.3c-20.4,0-37.1,7.8-50.2,23
			c-12.5,15.2-18.8,33.5-18.8,54.9v142.2h-59.1V255h57v25.6h12.5c16.2-21.4,41.8-32.4,76.8-32.4c64.8,0,99.9,39.7,99.9,106.6
			L1355.9,521.1L1355.9,521.1z"/>
		<path id="XMLID_67_" class="st0" d="M1543.6,326.1c-3.1-19.3-20.4-28.8-52.3-28.8s-48.1,9.4-48.1,27.7c0,16.2,10.5,22.5,34,26.7
			l51.8,8.4c53.8,8.9,81,36.1,81,82.6c0,23.5-9.9,43.9-30.3,60.6c-19.9,16.2-47.6,24.6-83.6,24.6c-75.3,0-116.1-32.9-121.8-87.3
			h59.1c4.7,25.6,25.1,38.2,61.7,38.2c37.1,0,55.9-11.5,55.9-34.5c0-20.4-12.5-29.8-43.4-35.5l-55.4-9.4c-41.8-6.8-68-30.3-68-70.1
			c0-47.6,37.6-81,109.3-81c63.3,0,103.5,30.3,109.3,77.9L1543.6,326.1L1543.6,326.1z"/>
	</g>
</g>
<g id="XMLID_928_">
	<path id="XMLID_929_" class="st1" d="M394.4,521.1l-34.5-107.2H206.7l-34,107.2H110l123.9-373.3h100.4l124.4,373.3H394.4
		L394.4,521.1z M271.5,209l-47.1,149h117.1L294,209H271.5z"/>
</g>
</svg>
