<?xml version="1.0" encoding="utf-8"?>
<!-- Generator: Adobe Illustrator 19.0.0, SVG Export Plug-In . SVG Version: 6.00 Build 0)  -->
<svg version="1.1" id="clearspace" xmlns="http://www.w3.org/2000/svg" xmlns:xlink="http://www.w3.org/1999/xlink" x="0px" y="0px"
	 viewBox="35 400.1 1350 480.9" style="enable-background:new 35 400.1 1350 480.9;" xml:space="preserve">
<style type="text/css">
	.st0{fill:none;stroke:#2BB9AF;stroke-width:2;stroke-miterlimit:10;}
	.st1{fill:#2BB9AF;}
	.st2{fill:#FFFFFF;}
	.st3{fill:#101010;}
	.st4{opacity:0.5;}
	.st5{fill:none;stroke:#2BB9AF;stroke-miterlimit:10;}
</style>
<g>
	<g id="XMLID_1448_">
		<circle id="XMLID_739_" class="st0" cx="661.4" cy="499.9" r="95.5"/>
	</g>
	<g id="XMLID_1421_">
		<g id="XMLID_1583_">
			<path id="XMLID_1643_" class="st1" d="M606.8,519.4v-3.6h-1.9c-2.4,3.1-6.2,4.6-11.5,4.6c-4.2,0-7.7-1.2-10.2-3.7
				s-3.7-5.5-3.7-9.1c0-3.5,1.3-6.6,3.8-9.2c2.5-2.6,6.4-3.9,11.6-3.9h11.5v-1.1c0-4.6-2.7-7.2-8.2-7.2c-4.9,0-7.5,1.7-7.8,5h-8.6
				c0.4-7.3,6.8-11.8,16.1-11.8c10.5,0,16.9,4.7,16.9,14.1v25.8h-8.1L606.8,519.4L606.8,519.4z M603.5,510.5c2-1.9,3-4.2,3-6.9v-3
				h-9.9c-5.5,0-8.3,2.4-8.3,6.4c0,3.9,2.9,6.3,7.9,6.3C599,513.3,601.5,512.3,603.5,510.5z"/>
			<path id="XMLID_1597_" class="st1" d="M645,480.4v8.1h-3.5c-7.9,0-12.2,4.6-12.2,12.7v18.1h-8.7v-39h8.4v4.6h1.9
				c2.2-3,5.9-4.6,10.9-4.6h3.2V480.4z"/>
			<path id="XMLID_1595_" class="st1" d="M657.1,480.4h9.2v7.4h-9.2v18.9c0,3.4,2,5.2,6,5.2h3.2v7.6H663c-9.4,0-14.5-3.1-14.5-11.5
				v-37.3h8.7v9.7H657.1z"/>
			<path id="XMLID_1592_" class="st1" d="M702,514.6c-3.5,3.7-8.3,5.7-14.3,5.7s-10.8-1.9-14.4-5.7c-3.5-3.8-5.3-8.8-5.3-14.9
				c0-6,1.8-11,5.3-14.7c3.6-3.8,8.4-5.7,14.4-5.7s10.8,1.9,14.3,5.7c3.6,3.7,5.4,8.7,5.4,14.7C707.4,505.8,705.6,510.8,702,514.6z
				 M687.8,486.7c-7.2,0-11.1,5.7-11.1,13.2s3.9,13.2,11.1,13.2s11.1-5.7,11.1-13.2C698.7,492.4,694.9,486.7,687.8,486.7z"/>
			<path id="XMLID_1584_" class="st1" d="M733.5,490.9c-0.4-2.8-3-4.2-7.7-4.2s-7,1.3-7,4c0,2.4,1.6,3.3,5,3.9l7.6,1.2
				c7.9,1.3,11.9,5.3,11.9,12.1c0,3.4-1.5,6.4-4.5,8.9c-2.9,2.4-6.9,3.6-12.2,3.6c-11.1,0-17-4.9-17.7-12.9h8.7
				c0.7,3.7,3.7,5.6,9,5.6c5.5,0,8.2-1.7,8.2-5.1c0-3-1.9-4.4-6.3-5.2l-8.1-1.3c-6.1-1-9.9-4.5-9.9-10.3c0-6.9,5.5-11.9,16.1-11.9
				c9.3,0,15.2,4.5,16.1,11.4L733.5,490.9L733.5,490.9z"/>
		</g>
	</g>
</g>
<g>
	<g id="XMLID_796_">
		<path id="XMLID_765_" class="st0" d="M1039.9,595.5h-130c-17,0-30.6-13.7-30.6-30.6v-130c0-16.9,13.7-30.6,30.6-30.6h130
			c16.9,0,30.6,13.7,30.6,30.6v130C1070.5,581.8,1056.8,595.5,1039.9,595.5z"/>
	</g>
	<g id="XMLID_757_">
		<g id="XMLID_1598_">
			<path id="XMLID_1663_" class="st1" d="M920.3,519.3v-3.6h-1.9c-2.4,3.1-6.2,4.6-11.5,4.6c-4.2,0-7.7-1.2-10.2-3.7
				s-3.7-5.5-3.7-9.1c0-3.5,1.3-6.6,3.8-9.2s6.4-3.9,11.6-3.9H920v-1.1c0-4.6-2.7-7.2-8.2-7.2c-4.9,0-7.5,1.7-7.8,5h-8.6
				c0.4-7.3,6.8-11.8,16.1-11.8c10.5,0,16.9,4.7,16.9,14.1v25.8h-8.1L920.3,519.3L920.3,519.3z M917,510.4c2-1.9,3-4.2,3-6.9v-3h-10
				c-5.5,0-8.3,2.4-8.3,6.4c0,3.9,2.9,6.3,7.9,6.3C912.5,513.3,915,512.3,917,510.4z"/>
			<path id="XMLID_1661_" class="st1" d="M958.5,480.3v8.1H955c-7.9,0-12.2,4.6-12.2,12.7v18.1h-8.7v-39h8.4v4.6h1.9
				c2.2-3,5.9-4.6,10.9-4.6h3.2V480.3z"/>
			<path id="XMLID_1604_" class="st1" d="M970.6,480.3h9.2v7.4h-9.2v18.9c0,3.4,2,5.2,6,5.2h3.2v7.6h-3.4c-9.4,0-14.5-3.1-14.5-11.5
				v-37.3h8.7V480.3z"/>
			<path id="XMLID_1601_" class="st1" d="M1015.5,514.6c-3.5,3.7-8.3,5.7-14.3,5.7s-10.8-1.9-14.4-5.7c-3.5-3.8-5.3-8.8-5.3-14.9
				c0-6,1.8-11,5.3-14.7c3.6-3.8,8.4-5.7,14.4-5.7s10.8,1.9,14.3,5.7c3.6,3.7,5.4,8.7,5.4,14.7
				C1020.9,505.8,1019.1,510.8,1015.5,514.6z M1001.3,486.7c-7.2,0-11.1,5.7-11.1,13.2s3.9,13.2,11.1,13.2s11.1-5.7,11.1-13.2
				C1012.2,492.4,1008.4,486.7,1001.3,486.7z"/>
			<path id="XMLID_1599_" class="st1" d="M1047,490.8c-0.4-2.8-3-4.2-7.7-4.2c-4.7,0-7,1.3-7,4c0,2.4,1.6,3.3,5,3.9l7.6,1.2
				c7.9,1.3,11.9,5.3,11.9,12.1c0,3.4-1.5,6.4-4.5,8.9c-2.9,2.4-6.9,3.6-12.2,3.6c-11.1,0-17-4.9-17.7-12.9h8.7
				c0.7,3.7,3.7,5.6,9,5.6c5.5,0,8.2-1.7,8.2-5.1c0-3-1.9-4.4-6.3-5.2l-8.1-1.3c-6.1-1-9.9-4.5-9.9-10.3c0-6.9,5.5-11.9,16.1-11.9
				c9.3,0,15.2,4.5,16.1,11.4L1047,490.8L1047,490.8z"/>
		</g>
	</g>
</g>
<g>
	<rect id="XMLID_791_" x="1192.8" y="404.3" class="st0" width="191.2" height="191.2"/>
	<g id="XMLID_671_">
		<g id="XMLID_1631_">
			<path id="XMLID_1657_" class="st1" d="M1235.9,518.5v-3.4h-1.8c-2.3,2.9-5.9,4.5-11,4.5c-4.1,0-7.4-1.1-9.7-3.5
				c-2.4-2.4-3.6-5.3-3.6-8.7s1.2-6.3,3.6-8.8s6.2-3.7,11.2-3.7h11v-1.1c0-4.4-2.6-6.8-7.9-6.8c-4.7,0-7.2,1.7-7.5,4.8h-8.2
				c0.4-6.9,6.5-11.3,15.4-11.3c10.1,0,16.2,4.5,16.2,13.6v24.8L1235.9,518.5L1235.9,518.5L1235.9,518.5z M1232.8,510
				c1.9-1.9,2.9-4,2.9-6.6v-2.9h-9.5c-5.2,0-8,2.3-8,6.2c0,3.8,2.8,6,7.6,6C1228.6,512.7,1230.9,511.9,1232.8,510z"/>
			<path id="XMLID_1655_" class="st1" d="M1272.6,481.2v7.7h-3.3c-7.6,0-11.7,4.4-11.7,12.2v17.4h-8.3v-37.3h8v4.4h1.8
				c2.2-2.9,5.7-4.4,10.5-4.4H1272.6L1272.6,481.2z"/>
			<path id="XMLID_1653_" class="st1" d="M1284.2,481.2h8.8v7h-8.8v18.1c0,3.3,1.9,5,5.7,5h3.1v7.3h-3.2c-9,0-13.9-3-13.9-11v-35.8
				h8.3V481.2z"/>
			<path id="XMLID_1634_" class="st1" d="M1327.3,514.1c-3.4,3.6-8,5.4-13.8,5.4s-10.4-1.9-13.8-5.4c-3.4-3.6-5.1-8.5-5.1-14.3
				c0-5.8,1.7-10.5,5.1-14.1c3.4-3.6,8-5.5,13.8-5.5s10.4,1.9,13.8,5.5c3.4,3.6,5.2,8.3,5.2,14.1
				C1332.5,505.6,1330.7,510.4,1327.3,514.1z M1313.6,487.2c-6.8,0-10.6,5.5-10.6,12.5c0,7.2,3.7,12.6,10.6,12.6s10.6-5.5,10.6-12.6
				C1324.1,492.7,1320.4,487.2,1313.6,487.2z"/>
			<path id="XMLID_1632_" class="st1" d="M1357.6,491.2c-0.4-2.7-2.9-4-7.4-4s-6.7,1.3-6.7,3.9c0,2.3,1.5,3.2,4.8,3.7l7.3,1.1
				c7.6,1.2,11.4,5.1,11.4,11.6c0,3.3-1.3,6.2-4.2,8.5c-2.8,2.3-6.7,3.4-11.7,3.4c-10.6,0-16.3-4.7-17.1-12.2h8.3
				c0.6,3.6,3.5,5.4,8.7,5.4s7.9-1.7,7.9-4.9c0-2.9-1.8-4.1-6.1-5l-8-1.3c-5.9-0.9-9.5-4.2-9.5-9.8c0-6.7,5.3-11.4,15.3-11.4
				c8.9,0,14.5,4.2,15.3,11H1357.6L1357.6,491.2z"/>
		</g>
	</g>
</g>
<g>
	<g id="XMLID_669_">
		<circle id="XMLID_670_" class="st2" cx="661.4" cy="756.1" r="95.5"/>
	</g>
	<g id="XMLID_662_">
		<g id="XMLID_663_">
			<path id="XMLID_668_" class="st3" d="M606.7,775.6V772h-1.9c-2.4,3.1-6.2,4.6-11.5,4.6c-4.2,0-7.7-1.2-10.2-3.7s-3.7-5.5-3.7-9.1
				c0-3.5,1.3-6.6,3.8-9.2s6.4-3.9,11.6-3.9h11.5v-1.1c0-4.6-2.7-7.2-8.2-7.2c-4.9,0-7.5,1.7-7.8,5h-8.6c0.4-7.3,6.8-11.8,16.1-11.8
				c10.5,0,16.9,4.7,16.9,14.1v25.8h-8.1L606.7,775.6L606.7,775.6z M603.4,766.7c2-1.9,3-4.2,3-6.9v-3h-9.9c-5.5,0-8.3,2.4-8.3,6.4
				c0,3.9,2.9,6.3,7.9,6.3C599,769.5,601.5,768.6,603.4,766.7z"/>
			<path id="XMLID_667_" class="st3" d="M644.9,736.6v8.1h-3.5c-7.9,0-12.2,4.6-12.2,12.7v18.1h-8.7v-39h8.4v4.6h1.9
				c2.2-3,5.9-4.6,10.9-4.6L644.9,736.6L644.9,736.6z"/>
			<path id="XMLID_666_" class="st3" d="M657.1,736.6h9.2v7.4h-9.2v18.9c0,3.4,2,5.2,6,5.2h3.2v7.6H663c-9.4,0-14.5-3.1-14.5-11.5
				v-37.3h8.7v9.7H657.1z"/>
			<path id="XMLID_665_" class="st3" d="M702,770.8c-3.5,3.7-8.3,5.7-14.3,5.7s-10.8-1.9-14.4-5.7c-3.5-3.8-5.3-8.8-5.3-14.9
				c0-6,1.8-11,5.3-14.7c3.6-3.8,8.4-5.7,14.4-5.7s10.8,1.9,14.3,5.7c3.6,3.7,5.4,8.7,5.4,14.7C707.4,762,705.6,767,702,770.8z
				 M687.7,743c-7.2,0-11.1,5.7-11.1,13.2s3.9,13.2,11.1,13.2s11.1-5.7,11.1-13.2C698.7,748.7,694.9,743,687.7,743z"/>
			<path id="XMLID_664_" class="st3" d="M733.5,747.1c-0.4-2.8-3-4.2-7.7-4.2s-7,1.3-7,4c0,2.4,1.6,3.3,5,3.9l7.6,1.2
				c7.9,1.3,11.9,5.3,11.9,12.1c0,3.4-1.5,6.4-4.5,8.9c-2.9,2.4-6.9,3.6-12.2,3.6c-11.1,0-17-4.9-17.7-12.9h8.7
				c0.7,3.7,3.7,5.6,9,5.6c5.5,0,8.2-1.7,8.2-5.1c0-3-1.9-4.4-6.3-5.2l-8.1-1.3c-6.1-1-9.9-4.5-9.9-10.3c0-6.9,5.5-11.9,16.1-11.9
				c9.3,0,15.2,4.5,16.1,11.4L733.5,747.1L733.5,747.1z"/>
		</g>
	</g>
</g>
<g>
	<g id="XMLID_660_">
		<path id="XMLID_661_" class="st2" d="M1039.9,851.7h-130c-17,0-30.6-13.7-30.6-30.6v-130c0-16.9,13.7-30.6,30.6-30.6h130
			c16.9,0,30.6,13.7,30.6,30.6v130C1070.4,838,1056.7,851.7,1039.9,851.7z"/>
	</g>
	<g id="XMLID_18_">
		<g id="XMLID_10_">
			<path id="XMLID_659_" class="st3" d="M920.2,775.5v-3.6h-1.9c-2.4,3.1-6.2,4.6-11.5,4.6c-4.2,0-7.7-1.2-10.2-3.7
				s-3.7-5.5-3.7-9.1c0-3.5,1.3-6.6,3.8-9.2c2.5-2.6,6.4-3.9,11.6-3.9h11.5v-1.1c0-4.6-2.7-7.2-8.2-7.2c-4.9,0-7.5,1.7-7.8,5h-8.6
				c0.4-7.3,6.8-11.8,16.1-11.8c10.5,0,16.9,4.7,16.9,14.1v25.8h-8.1L920.2,775.5L920.2,775.5z M916.9,766.6c2-1.9,3-4.2,3-6.9v-3
				H910c-5.5,0-8.3,2.4-8.3,6.4c0,3.9,2.9,6.3,7.9,6.3C912.5,769.5,915,768.6,916.9,766.6z"/>
			<path id="XMLID_658_" class="st3" d="M958.4,736.5v8.1h-3.5c-7.9,0-12.2,4.6-12.2,12.7v18.1H934v-39h8.4v4.6h1.9
				c2.2-3,5.9-4.6,10.9-4.6L958.4,736.5L958.4,736.5z"/>
			<path id="XMLID_657_" class="st3" d="M970.6,736.5h9.2v7.4h-9.2v18.9c0,3.4,2,5.2,6,5.2h3.2v7.6h-3.4c-9.4,0-14.5-3.1-14.5-11.5
				v-37.4h8.7V736.5z"/>
			<path id="XMLID_627_" class="st3" d="M1015.5,770.8c-3.5,3.7-8.3,5.7-14.3,5.7s-10.8-1.9-14.4-5.7c-3.5-3.8-5.3-8.8-5.3-14.9
				c0-6,1.8-11,5.3-14.7c3.6-3.8,8.4-5.7,14.4-5.7s10.8,1.9,14.3,5.7c3.6,3.7,5.4,8.7,5.4,14.7C1020.9,762,1019.1,767,1015.5,770.8z
				 M1001.2,743c-7.2,0-11.1,5.7-11.1,13.2s3.9,13.2,11.1,13.2s11.1-5.7,11.1-13.2C1012.2,748.7,1008.4,743,1001.2,743z"/>
			<path id="XMLID_625_" class="st3" d="M1047,747c-0.4-2.8-3-4.2-7.7-4.2c-4.7,0-7,1.3-7,4c0,2.4,1.6,3.3,5,3.9l7.6,1.2
				c7.9,1.3,11.9,5.3,11.9,12.1c0,3.4-1.5,6.4-4.5,8.9c-2.9,2.4-6.9,3.6-12.2,3.6c-11.1,0-17-4.9-17.7-12.9h8.7
				c0.7,3.7,3.7,5.6,9,5.6c5.5,0,8.2-1.7,8.2-5.1c0-3-1.9-4.4-6.3-5.2l-8.1-1.3c-6.1-1-9.9-4.5-9.9-10.3c0-6.9,5.5-11.9,16.1-11.9
				c9.3,0,15.2,4.5,16.1,11.4L1047,747L1047,747z"/>
		</g>
	</g>
</g>
<g>
	<rect id="XMLID_16_" x="1192.8" y="660.5" class="st2" width="191.2" height="191.2"/>
	<g id="XMLID_1_">
		<g id="XMLID_5_">
			<path id="XMLID_9_" class="st3" d="M1235.8,774.7v-3.4h-1.8c-2.3,2.9-5.9,4.5-11,4.5c-4.1,0-7.4-1.1-9.7-3.5
				c-2.4-2.4-3.6-5.3-3.6-8.7c0-3.4,1.2-6.3,3.6-8.8s6.2-3.7,11.2-3.7h11V750c0-4.4-2.6-6.8-7.9-6.8c-4.7,0-7.2,1.7-7.5,4.8h-8.2
				c0.4-6.9,6.5-11.3,15.4-11.3c10.1,0,16.2,4.5,16.2,13.6v24.8L1235.8,774.7L1235.8,774.7L1235.8,774.7z M1232.7,766.2
				c1.9-1.9,2.9-4,2.9-6.6v-2.9h-9.5c-5.2,0-8,2.3-8,6.2c0,3.8,2.8,6,7.6,6C1228.6,768.9,1230.8,768.1,1232.7,766.2z"/>
			<path id="XMLID_6_" class="st3" d="M1272.5,737.4v7.7h-3.3c-7.6,0-11.7,4.4-11.7,12.2v17.4h-8.3v-37.3h8v4.4h1.8
				c2.2-2.9,5.7-4.4,10.5-4.4H1272.5L1272.5,737.4z"/>
			<path id="XMLID_7_" class="st3" d="M1284.2,737.4h8.8v7h-8.8v18.1c0,3.3,1.9,5,5.7,5h3.1v7.3h-3.2c-9,0-13.9-3-13.9-11V728h8.3
				V737.4z"/>
			<path id="XMLID_8_" class="st3" d="M1327.3,770.3c-3.4,3.6-8,5.4-13.8,5.4s-10.4-1.9-13.8-5.4c-3.4-3.6-5.1-8.5-5.1-14.3
				c0-5.8,1.7-10.5,5.1-14.1s8-5.5,13.8-5.5s10.4,1.9,13.8,5.5s5.2,8.3,5.2,14.1C1332.5,761.8,1330.7,766.6,1327.3,770.3z
				 M1313.5,743.4c-6.8,0-10.6,5.5-10.6,12.5c0,7.2,3.7,12.6,10.6,12.6s10.6-5.5,10.6-12.6C1324.1,748.9,1320.4,743.4,1313.5,743.4z
				"/>
			<path id="XMLID_12_" class="st3" d="M1357.6,747.4c-0.4-2.7-2.9-4-7.4-4s-6.7,1.3-6.7,3.9c0,2.3,1.5,3.2,4.8,3.7l7.3,1.1
				c7.6,1.2,11.4,5.1,11.4,11.6c0,3.3-1.3,6.2-4.2,8.5c-2.8,2.3-6.7,3.4-11.7,3.4c-10.6,0-16.3-4.7-17.1-12.2h8.3
				c0.6,3.6,3.5,5.4,8.7,5.4s7.9-1.7,7.9-4.9c0-2.9-1.8-4.1-6.1-5l-8-1.3c-5.9-0.9-9.5-4.2-9.5-9.8c0-6.7,5.3-11.4,15.3-11.4
				c8.9,0,14.5,4.2,15.3,11H1357.6L1357.6,747.4z"/>
		</g>
	</g>
</g>
<g>
	<g id="XMLID_1478_" class="st4">
		<line id="XMLID_1522_" class="st5" x1="37" y1="818.1" x2="485" y2="818.1"/>
		<line id="XMLID_1521_" class="st5" x1="37" y1="786.1" x2="485" y2="786.1"/>
		<line id="XMLID_1520_" class="st5" x1="37" y1="754.1" x2="485" y2="754.1"/>
		<line id="XMLID_1519_" class="st5" x1="37" y1="722.2" x2="485" y2="722.2"/>
		<line id="XMLID_1518_" class="st5" x1="37" y1="690.2" x2="485" y2="690.2"/>
		<line id="XMLID_1517_" class="st5" x1="37" y1="658.2" x2="485" y2="658.2"/>
		<line id="XMLID_1516_" class="st5" x1="37" y1="626.2" x2="485" y2="626.2"/>
		<line id="XMLID_1515_" class="st5" x1="37" y1="594.2" x2="485" y2="594.2"/>
		<line id="XMLID_1514_" class="st5" x1="37" y1="562.1" x2="485" y2="562.1"/>
		<line id="XMLID_1513_" class="st5" x1="37" y1="530.1" x2="485" y2="530.1"/>
		<line id="XMLID_1512_" class="st5" x1="37" y1="498.1" x2="485" y2="498.1"/>
		<line id="XMLID_1511_" class="st5" x1="37" y1="466.1" x2="485" y2="466.1"/>
		<line id="XMLID_1497_" class="st5" x1="37" y1="434.1" x2="485" y2="434.1"/>
		<line id="XMLID_1496_" class="st5" x1="453" y1="402.1" x2="453" y2="850.1"/>
		<line id="XMLID_1495_" class="st5" x1="421" y1="402.1" x2="421" y2="850.1"/>
		<line id="XMLID_1491_" class="st5" x1="389" y1="402.1" x2="389" y2="850.1"/>
		<line id="XMLID_1490_" class="st5" x1="357" y1="402.1" x2="357" y2="850.1"/>
		<line id="XMLID_1489_" class="st5" x1="325" y1="402.1" x2="325" y2="850.1"/>
		<line id="XMLID_1487_" class="st5" x1="293" y1="402.1" x2="293" y2="850.1"/>
		<line id="XMLID_1486_" class="st5" x1="261" y1="402.1" x2="261" y2="850.1"/>
		<line id="XMLID_1485_" class="st5" x1="229" y1="402.1" x2="229" y2="850.1"/>
		<line id="XMLID_1483_" class="st5" x1="197" y1="402.1" x2="197" y2="850.1"/>
		<line id="XMLID_1482_" class="st5" x1="165" y1="402.1" x2="165" y2="850.1"/>
		<line id="XMLID_1481_" class="st5" x1="133" y1="402.1" x2="133" y2="850.1"/>
		<line id="XMLID_1480_" class="st5" x1="101" y1="402.1" x2="101" y2="850.1"/>
		<line id="XMLID_1479_" class="st5" x1="69" y1="402.1" x2="69" y2="850.1"/>
	</g>
	<g id="XMLID_1451_">
		<g id="XMLID_1575_">
			<path id="XMLID_1648_" class="st2" d="M132.6,671.9v-8.4h-4.3c-5.5,7.2-14.5,10.7-26.8,10.7c-10,0-17.9-2.8-23.8-8.5
				c-5.9-5.9-8.7-12.9-8.7-21.3c0-8.2,3-15.4,8.9-21.5c5.9-6.1,15-9.1,27.2-9.1h26.8v-2.7c0-10.5-6.3-16.6-19.1-16.6
				c-11.2,0-17.3,3.9-18.2,11.6h-20c0.9-17,15.9-27.5,37.5-27.5c24.5,0,39.3,10.9,39.3,32.9v60.4H132.6L132.6,671.9z M124.9,651.1
				c4.6-4.5,7-9.8,7-16.1v-7h-23.3c-12.7,0-19.3,5.5-19.3,15c0,9.3,6.8,14.7,18.4,14.7C114.5,657.7,120.3,655.6,124.9,651.1z"/>
			<path id="XMLID_1646_" class="st2" d="M222.1,580.8v18.8h-8.2c-18.4,0-28.4,10.5-28.4,29.7v42.5h-20.3v-91h19.5v10.6h4.3
				c5.2-7,13.8-10.5,25.4-10.5L222.1,580.8L222.1,580.8L222.1,580.8z"/>
			<path id="XMLID_1581_" class="st2" d="M250.6,580.8h21.5V598h-21.5v44.3c0,8.1,4.6,12,13.9,12h7.5v17.5h-7.9
				c-22,0-33.8-7.3-33.8-26.8v-87.2h20.2v23H250.6z"/>
			<path id="XMLID_1578_" class="st2" d="M355.6,661c-8.2,8.7-19.3,13.2-33.5,13.2s-25.2-4.5-33.6-13.2
				c-8.2-8.9-12.3-20.6-12.3-34.7s4.1-25.6,12.3-34.4c8.4-8.9,19.5-13.4,33.6-13.4s25.2,4.5,33.5,13.4c8.4,8.7,12.5,20.2,12.5,34.4
				S364,652,355.6,661z M322.2,595.7c-16.6,0-25.7,13.4-25.7,30.6c0,17.3,9.1,30.8,25.7,30.8c16.6,0,25.7-13.4,25.7-30.8
				C347.9,609.1,338.8,595.7,322.2,595.7z"/>
			<path id="XMLID_1576_" class="st2" d="M429.4,605.1c-1.1-6.6-7-9.8-17.9-9.8s-16.5,3.3-16.5,9.4c0,5.5,3.6,7.7,11.6,9.1l17.7,2.8
				c18.4,3,27.7,12.3,27.7,28.3c0,8.1-3.4,15-10.3,20.8c-6.8,5.5-16.3,8.4-28.6,8.4c-25.7,0-39.7-11.2-41.7-29.9h20.2
				c1.6,8.7,8.5,13,21.1,13c12.7,0,19.1-3.9,19.1-11.8c0-7-4.3-10.2-14.8-12.1l-19-3.2c-14.3-2.3-23.3-10.3-23.3-24
				c0-16.3,12.9-27.7,37.4-27.7c21.7,0,35.4,10.3,37.4,26.6L429.4,605.1L429.4,605.1z"/>
		</g>
	</g>
	<rect x="37" y="402.1" class="st5" width="448" height="447.4"/>
	<path class="st5" d="M405.4,849.6H116.7c-43.8,0-79.7-35.8-79.7-79.7V481.8c0-43.8,35.8-79.7,79.7-79.7h288.7
		c43.8,0,79.7,35.8,79.7,79.7v288.1C485,813.7,449.2,849.6,405.4,849.6z"/>
	<circle class="st5" cx="260.1" cy="625.2" r="223.1"/>
</g>
</svg>
