<?xml version="1.0" encoding="utf-8"?>
<!-- Generator: Adobe Illustrator 19.0.0, SVG Export Plug-In . SVG Version: 6.00 Build 0)  -->
<svg version="1.1" id="Layer_1" xmlns="http://www.w3.org/2000/svg" xmlns:xlink="http://www.w3.org/1999/xlink" x="0px" y="0px"
	 viewBox="0 0 1500 1000" style="enable-background:new 0 0 1500 1000;" xml:space="preserve">
<style type="text/css">
	.st0{fill:#36AFA7;}
	.st1{fill:#101010;}
	.st2{fill:none;stroke:#101010;stroke-miterlimit:10;}
	.st3{fill:#FFFFFF;}
</style>
<rect id="XMLID_1_" x="0" class="st0" width="1499.4" height="999.6"/>
<g id="XMLID_715_">
	<path id="XMLID_2591_" class="st1" d="M82.7,87.2H72.5l-2.4,7.1h-3l8-23.2h4.9l8.1,23.2h-3.1L82.7,87.2z M73.4,84.6h8.4l-3.5-10.4
		h-1.3L73.4,84.6z"/>
	<path id="XMLID_2594_" class="st1" d="M99.2,80.6h-1.4c-3.2,0-5.2,2-5.2,5.6v8.2h-2.8V78h2.7v1.9h0.7c0.8-1,2.4-1.9,4.7-1.9h1.2
		V80.6z"/>
	<path id="XMLID_2596_" class="st1" d="M110.1,78v2.4H106v9c0,1.7,0.7,2.5,2.9,2.5h1.2v2.5h-1.3c-3.5,0-5.6-1.1-5.6-4.6v-9.4h-2.8
		V78h2.8V73h2.8V78H110.1z"/>
	<path id="XMLID_2598_" class="st1" d="M127.9,86.2c0,4.8-3,8.6-8.1,8.6c-5.1,0-8.1-3.8-8.1-8.6s2.9-8.6,8.1-8.6
		C124.9,77.5,127.9,81.3,127.9,86.2z M125.1,86.2c0-3.2-1.7-6.2-5.3-6.2c-3.6,0-5.3,3-5.3,6.2c0,3.2,1.7,6.2,5.3,6.2
		C123.4,92.4,125.1,89.4,125.1,86.2z"/>
	<path id="XMLID_2601_" class="st1" d="M136.7,84.4l1.9,0.3c2.9,0.5,4.7,1.9,4.7,4.9c0,2.7-2.3,5.1-6.7,5.1c-4.6,0-6.9-2-7.3-5.2
		h2.8c0.3,1.9,1.9,2.8,4.4,2.8c2.5,0,4.1-0.9,4.1-2.7c0-1.4-0.9-2.2-3-2.6l-3.7-0.6c-2.3-0.4-3.9-1.7-3.9-4.1c0-2.7,2-4.8,6.5-4.8
		c3.9,0,6.1,1.8,6.5,4.7H140c-0.2-1.6-1.8-2.3-3.8-2.3c-2.1,0-3.5,0.8-3.5,2.2c0,1.3,0.8,1.8,2.5,2L136.7,84.4z"/>
	<path id="XMLID_2712_" class="st1" d="M164.2,81.3c3.5,0.8,5.8,2.6,5.8,6.5c0,3.6-2.9,6.9-8.8,6.9c-5.4,0-9-2.9-9.3-6.9h3
		c0.5,3.2,3.3,4.2,6.5,4.2c3.2,0,5.7-1.5,5.7-4.2c0-2.5-1.7-3.4-3.9-4c-1.2-0.3-3.4-0.7-4.6-0.9c-3.4-0.7-5.6-2.5-5.6-5.9
		c0-3.6,2.9-6.4,8.2-6.4c4.8,0,7.9,2.5,8.4,6.3h-3c-0.6-2.3-2.1-3.6-5.5-3.6c-2.8,0-5.1,1.3-5.1,3.7c0,2.2,2,3,3.9,3.4
		C160.9,80.6,163,81.1,164.2,81.3z"/>
	<path id="XMLID_2714_" class="st1" d="M183.4,92.6h-0.7c-1,1.3-2.8,2.1-5.1,2.1c-3.8,0-5.9-2.5-5.9-5.3c0-2.6,1.7-5.4,6.3-5.4h5.3
		v-0.6c0-2-1.1-3.4-4-3.4c-2.4,0-3.7,0.9-3.8,2.4h-2.8c0.2-3,2.8-4.8,6.5-4.8c4.1,0,6.8,2,6.8,5.7v11.1h-2.6V92.6z M183.3,87.7v-1.5
		h-4.9c-2.7,0-3.9,1.2-3.9,3.1c0,1.9,1.4,3,3.8,3C181,92.4,183.3,90.3,183.3,87.7z"/>
	<path id="XMLID_2717_" class="st1" d="M201.3,94.3v-9.8c0-3-1.4-4.5-4.2-4.5c-2.9,0-4.9,2.6-4.9,5.5v8.9h-2.8V78h2.7v1.8h0.7
		c0.9-1.3,2.7-2.2,4.9-2.2c4,0,6.2,2.5,6.2,6.4v10.4H201.3z"/>
	<path id="XMLID_2719_" class="st1" d="M213.6,84.4l1.9,0.3c2.9,0.5,4.7,1.9,4.7,4.9c0,2.7-2.3,5.1-6.7,5.1c-4.6,0-6.9-2-7.3-5.2
		h2.8c0.3,1.9,1.9,2.8,4.4,2.8c2.5,0,4.1-0.9,4.1-2.7c0-1.4-0.9-2.2-3-2.6l-3.7-0.6c-2.3-0.4-3.9-1.7-3.9-4.1c0-2.7,2-4.8,6.5-4.8
		c3.9,0,6.1,1.8,6.5,4.7h-2.8c-0.2-1.6-1.8-2.3-3.8-2.3c-2.1,0-3.5,0.8-3.5,2.2c0,1.3,0.8,1.8,2.5,2L213.6,84.4z"/>
	<path id="XMLID_2721_" class="st1" d="M79.7,108.6c4.9,0,7.6,2.5,7.6,6.8c0,2.9-1.2,4.9-3.5,5.9l3.7,10.5h-3L81,122
		c-0.6,0.1-1.3,0.1-1.9,0.1h-6.8v9.7h-2.9v-23.2H79.7z M79.3,119.5c3.7,0,5.1-1.6,5.1-4.1c0-2.6-1.4-4.2-5.1-4.2h-6.9v8.3H79.3z"/>
	<path id="XMLID_2724_" class="st1" d="M104.7,123.6H92.3c0.1,3.9,1.9,6.2,5.2,6.2c2.3,0,3.7-1,4.2-2.5h2.8c-0.5,2.8-2.9,4.9-7,4.9
		c-5.1,0-8-3.7-8-8.8c0-5,2.9-8.4,7.9-8.4c4.9,0,7.2,3.6,7.3,7.6V123.6z M92.4,121.3h9.5c-0.2-2.1-1.8-3.9-4.5-3.9
		C94.4,117.4,92.8,119.2,92.4,121.3z"/>
	<path id="XMLID_2836_" class="st1" d="M122,115.5V131c0,4.6-2.9,7.5-7.6,7.5c-4.2,0-6.9-1.8-7.4-5h2.7c0.5,1.9,2.2,2.7,4.6,2.7
		c3.4,0,4.9-2,4.9-5.3v-1.3h-0.7c-0.9,1.1-2.4,2.2-4.9,2.2c-4.5,0-7.3-3.6-7.3-8.3c0-4.8,2.8-8.4,7.3-8.4c2.6,0,4.1,1,5,2.2h0.7
		v-1.8H122z M119.4,123.4c0-3.2-1.7-6-5.2-6c-3.2,0-5,2.4-5,6c0,3.5,1.8,5.9,5,5.9C117.7,129.4,119.4,126.5,119.4,123.4z"/>
	<path id="XMLID_2839_" class="st1" d="M128.3,115.5v9.8c0,3,1.4,4.5,4.2,4.5c2.9,0,4.9-2.5,4.9-5.5v-8.9h2.8v16.4h-2.7v-1.8h-0.7
		c-0.9,1.3-2.7,2.2-4.9,2.2c-4,0-6.2-2.5-6.2-6.4v-10.4H128.3z"/>
	<path id="XMLID_2841_" class="st1" d="M146.5,108.2v23.6h-2.8v-23.6H146.5z"/>
	<path id="XMLID_2843_" class="st1" d="M160.6,130.1h-0.7c-1,1.3-2.8,2.1-5.1,2.1c-3.8,0-5.9-2.5-5.9-5.3c0-2.6,1.7-5.4,6.3-5.4h5.3
		v-0.6c0-2-1.1-3.4-4-3.4c-2.4,0-3.7,0.9-3.8,2.4H150c0.2-3,2.8-4.8,6.5-4.8c4.1,0,6.8,2,6.8,5.7v11.1h-2.6V130.1z M160.5,125.2
		v-1.5h-4.9c-2.7,0-3.9,1.2-3.9,3.1c0,1.9,1.4,3,3.8,3C158.2,129.8,160.5,127.8,160.5,125.2z"/>
	<path id="XMLID_2846_" class="st1" d="M176,118.1h-1.4c-3.2,0-5.2,2-5.2,5.6v8.2h-2.8v-16.4h2.7v1.9h0.7c0.8-1,2.4-1.9,4.7-1.9h1.2
		V118.1z"/>
	<path id="XMLID_2861_" class="st1" d="M72.7,169.3h-3l9.9-19.6V149H68.1v-2.5h14.5v3.2L72.7,169.3z"/>
	<path id="XMLID_2864_" class="st1" d="M84.4,152.8c0.3-4.5,3.5-6.7,7.6-6.7c4.3,0,7.4,2.4,7.4,6.9c0,3.1-2.3,6-5,8.2l-5.7,4.8v0.7
		H100v2.5H84.4v-3.2l3.3-2.7c1.8-1.5,4-3.3,5.2-4.4c1.6-1.4,3.5-3.2,3.5-5.9c0-2.9-1.8-4.4-4.6-4.4c-2.6,0-4.4,1.3-4.6,4.2H84.4z"/>
	<path id="XMLID_2869_" class="st1" d="M105.3,152.9v1.8h0.7c0.9-1.1,2.5-2.2,5.1-2.2c4.5,0,7.2,3.8,7.2,8.6c0,4.9-2.7,8.6-7.2,8.6
		c-2.6,0-4.1-1-5-2.2h-0.7v8.3h-2.8v-22.9H105.3z M105.3,161.1c0,3.2,1.5,6.2,5.1,6.2c3.3,0,5-2.6,5-6.2c0-3.6-1.8-6.2-5-6.2
		C106.8,154.9,105.3,157.9,105.3,161.1z"/>
	<path id="XMLID_2872_" class="st1" d="M127.4,162.5h-1.2l-4.2,6.9h-3l5.1-8.4l-4.6-8h2.9l3.8,6.5h1.2l3.8-6.5h2.9l-4.6,7.9l5.1,8.5
		h-3.1L127.4,162.5z"/>
</g>
<g id="XMLID_342_">
	<line id="XMLID_469_" class="st2" x1="1500" y1="476.3" x2="0.6" y2="476.3"/>
	<line id="XMLID_468_" class="st2" x1="1499.4" y1="611.8" x2="0" y2="611.8"/>
	<line id="XMLID_466_" class="st2" x1="66.5" y1="0" x2="66.5" y2="999.6"/>
	<line id="XMLID_465_" class="st2" x1="1432.9" y1="0" x2="1432.9" y2="999.6"/>
</g>
<g id="XMLID_3_">
	<g id="XMLID_5_">
		<path id="XMLID_6_" class="st3" d="M141,436.3c0,22.9-13,41.4-37.3,41.4c-24.4,0-37.3-18.5-37.3-41.4c0-22.9,12.9-41.4,37.3-41.4
			C128,394.9,141,413.4,141,436.3z M130.8,436.3c0-16.7-8.1-32.2-27.1-32.2c-19,0-27.1,15.6-27.1,32.2s8.1,32.2,27.1,32.2
			C122.8,468.5,130.8,453,130.8,436.3z"/>
		<path id="XMLID_9_" class="st3" d="M212,468v24.3h-9.3v-16h-48.8v16h-9.3V468h7.5c3.6-7.6,6.9-18.7,6.9-32.7v-15.4h42.5V468H212z
			 M192,428.1h-24.2v7.2c0,14.2-2.7,25.1-6.2,32.7H192V428.1z"/>
		<path id="XMLID_12_" class="st3" d="M270.4,448h-43c0.3,13.4,6.4,21.5,18,21.5c7.9,0,12.6-3.4,14.3-8.7h9.6c-1.8,9.6-10,17-24,17
			c-17.6,0-27.4-12.9-27.4-30.2c0-17.3,10.1-29.1,27.2-29.1c16.8,0,24.8,12.4,25.2,26.3V448z M228,440h32.6
			c-0.6-7.2-6-13.3-15.6-13.3C234.8,426.7,229.2,432.8,228,440z"/>
		<path id="XMLID_15_" class="st3" d="M287.5,476.3h-10l12.8-29l-12-27.4h9.8l10.2,23.4h14.4v-23.4h9.2v23.4h14.4l10.2-23.4h9.8
			l-12,27.4l12.9,29h-10.1l-10.9-24.7H322v24.7h-9.2v-24.7h-14.4L287.5,476.3z"/>
		<path id="XMLID_17_" class="st3" d="M428.6,468v24.3h-9.3v-16h-48.8v16h-9.3V468h7.5c3.6-7.6,6.9-18.7,6.9-32.7v-15.4h42.5V468
			H428.6z M408.7,428.1h-24.2v7.2c0,14.2-2.7,25.1-6.2,32.7h30.3V428.1z"/>
		<path id="XMLID_20_" class="st3" d="M474.1,470.3h-2.5c-3.5,4.4-9.5,7.4-17.6,7.4c-13,0-20.3-8.7-20.3-18.4
			c0-9.1,5.9-18.7,21.6-18.7h18.4v-2.2c0-6.8-3.9-11.8-13.8-11.8c-8.4,0-12.6,3.2-13.1,8.2h-9.5c0.8-10.4,9.7-16.5,22.4-16.5
			c14.2,0,23.3,6.8,23.3,19.5v38.4h-9V470.3z M473.7,453.4v-5.1h-16.9c-9.3,0-13.5,4-13.5,10.7c0,6.4,4.7,10.4,13.1,10.4
			C465.8,469.4,473.7,462.4,473.7,453.4z"/>
		<path id="XMLID_23_" class="st3" d="M566.3,476.3v-48.1h-30.8v48.1H526v-56.4h49.8v56.4H566.3z"/>
		<path id="XMLID_25_" class="st3" d="M600.6,419.9v6h2.5c3.1-3.9,8.6-7.5,17.6-7.5c15.6,0,24.7,13,24.7,29.7
			c0,17-9.2,29.7-24.7,29.7c-9,0-14.2-3.5-17.2-7.5h-2.5v28.4h-9.5v-78.8H600.6z M600.8,448.1c0,11.1,5.1,21.4,17.7,21.4
			c11.3,0,17.3-8.8,17.3-21.4c0-12.5-6-21.4-17.3-21.4C605.9,426.7,600.8,437,600.8,448.1z"/>
		<path id="XMLID_28_" class="st3" d="M709.5,448.1c0,16.7-10.2,29.7-27.8,29.7c-17.7,0-27.8-13-27.8-29.7s10.1-29.7,27.8-29.7
			C699.3,418.4,709.5,431.4,709.5,448.1z M699.9,448.1c0-11.1-5.8-21.4-18.2-21.4c-12.5,0-18.2,10.3-18.2,21.4
			c0,11.1,5.7,21.4,18.2,21.4C694.1,469.4,699.9,459.1,699.9,448.1z"/>
		<path id="XMLID_31_" class="st3" d="M757.1,498.7h-9.4v-22.4h-1.8c-17.9,0-27.9-11.9-27.9-28.2c0-16.3,9.7-28.2,27.8-28.2h1.9v-25
			h9.4v25h1.8c17.8,0,27.8,11.9,27.8,28.2c0,17.3-10.5,28.2-29.5,28.2V498.7z M745.9,468.2h1.8v-40.3h-1.8
			c-12.5,0-18.5,9.2-18.5,20.1C727.5,459,733.3,468.2,745.9,468.2z M758.7,468.2c12.6,0,18.6-9.2,18.6-20.1c0-11-5.9-20.1-18.6-20.1
			h-1.6v40.3H758.7z"/>
		<path id="XMLID_35_" class="st3" d="M847.7,448h-43c0.3,13.4,6.4,21.5,18,21.5c7.9,0,12.6-3.4,14.3-8.7h9.6c-1.8,9.6-10,17-24,17
			c-17.6,0-27.4-12.9-27.4-30.2c0-17.3,10.1-29.1,27.2-29.1c16.8,0,24.8,12.4,25.2,26.3V448z M805.3,440h32.6
			c-0.6-7.2-6-13.3-15.6-13.3C812.1,426.7,806.5,432.8,805.3,440z"/>
		<path id="XMLID_38_" class="st3" d="M907.3,459.3c-2.1,11.1-10.6,18.5-23.7,18.5c-17.6,0-27.4-13-27.4-29.7
			c0-17,9.8-29.7,27.4-29.7c13.4,0,21.5,7.4,23.4,17.8h-9.5c-1.8-5.7-6.2-9.5-13.9-9.5c-12.8,0-17.9,10-17.9,21.2
			c0,11.3,5.3,21.6,17.9,21.6c8.1,0,12.8-3.9,14.2-10.2H907.3z"/>
		<path id="XMLID_40_" class="st3" d="M966.4,459.3c-2.1,11.1-10.6,18.5-23.7,18.5c-17.6,0-27.4-13-27.4-29.7
			c0-17,9.8-29.7,27.4-29.7c13.4,0,21.5,7.4,23.4,17.8h-9.5c-1.8-5.7-6.2-9.5-13.9-9.5c-12.8,0-17.9,10-17.9,21.2
			c0,11.3,5.3,21.6,17.9,21.6c8.1,0,12.8-3.9,14.2-10.2H966.4z"/>
		<path id="XMLID_42_" class="st3" d="M977.8,476.3v-56.4h9.3v43.6h2.5l24.7-43.6h13.9v56.4h-9.3v-43.6h-2.5l-25.2,43.6H977.8z"/>
		<path id="XMLID_44_" class="st3" d="M1095.8,448.1c0,16.7-10.2,29.7-27.8,29.7c-17.7,0-27.8-13-27.8-29.7s10.1-29.7,27.8-29.7
			C1085.6,418.4,1095.8,431.4,1095.8,448.1z M1086.3,448.1c0-11.1-5.8-21.4-18.2-21.4c-12.5,0-18.2,10.3-18.2,21.4
			c0,11.1,5.7,21.4,18.2,21.4C1080.5,469.4,1086.3,459.1,1086.3,448.1z"/>
		<path id="XMLID_47_" class="st3" d="M1148.6,476.3v-24.8h-31.2v24.8h-9.5v-56.4h9.5v23.3h31.2v-23.3h9.5v56.4H1148.6z"/>
		<path id="XMLID_49_" class="st3" d="M1209.6,470.3h-2.5c-3.5,4.4-9.5,7.4-17.6,7.4c-13,0-20.3-8.7-20.3-18.4
			c0-9.1,5.9-18.7,21.6-18.7h18.4v-2.2c0-6.8-3.9-11.8-13.8-11.8c-8.4,0-12.6,3.2-13.1,8.2h-9.5c0.8-10.4,9.7-16.5,22.4-16.5
			c14.2,0,23.3,6.8,23.3,19.5v38.4h-9V470.3z M1209.3,453.4v-5.1h-16.9c-9.3,0-13.5,4-13.5,10.7c0,6.4,4.7,10.4,13.1,10.4
			C1201.4,469.4,1209.3,462.4,1209.3,453.4z"/>
		<path id="XMLID_52_" class="st3" d="M1226.9,467.3h1.9c7.6,0,11.1-5.6,11.1-25.6v-21.8h43.2v56.4h-9.6v-48.1h-24.7v13.8
			c0,26-6,34.4-19.9,34.4h-1.9V467.3z"/>
		<path id="XMLID_54_" class="st3" d="M1350.5,448.1c0,16.7-10.2,29.7-27.8,29.7c-17.7,0-27.8-13-27.8-29.7s10.1-29.7,27.8-29.7
			C1340.4,418.4,1350.5,431.4,1350.5,448.1z M1341,448.1c0-11.1-5.8-21.4-18.2-21.4c-12.5,0-18.2,10.3-18.2,21.4
			c0,11.1,5.7,21.4,18.2,21.4C1335.2,469.4,1341,459.1,1341,448.1z"/>
		<path id="XMLID_57_" class="st3" d="M1402.4,447.6c5.3,1.3,9.2,5.9,9.2,13.2c0,10.3-7.1,15.4-19.9,15.4h-29v-56.4h28
			c11.3,0,17.8,5.3,17.8,14.2c0,5.5-2.9,9.4-6,11.1V447.6z M1372,443.3h17.7c6.8,0,9.2-3.6,9.2-7.6c0-4.4-2.4-7.7-9.2-7.7H1372
			V443.3z M1391.1,468.2c8.2,0,11-3.6,11-8.4c0-4.8-2.8-8.5-11-8.5h-19v16.9H1391.1z"/>
		<path id="XMLID_61_" class="st3" d="M1421.3,476.3v-13h11.6v15.1l-6.3,10.7h-6l6.3-10.7v-2.1H1421.3z"/>
	</g>
	<g id="XMLID_63_">
		<path id="XMLID_64_" class="st3" d="M92.9,586.9H76v24.8h-9.5v-56.4H76v23.3h17.1l11.8-23.3h10L101,582.6l14.5,29.2h-10.2
			L92.9,586.9z"/>
		<path id="XMLID_66_" class="st3" d="M176.7,583.6c0,16.7-10.2,29.7-27.8,29.7c-17.7,0-27.8-13-27.8-29.7
			c0-16.7,10.1-29.7,27.8-29.7C166.5,553.9,176.7,566.9,176.7,583.6z M167.2,583.6c0-11.1-5.8-21.4-18.2-21.4
			c-12.5,0-18.2,10.3-18.2,21.4c0,11.1,5.7,21.4,18.2,21.4C161.4,604.9,167.2,594.6,167.2,583.6z"/>
		<path id="XMLID_69_" class="st3" d="M181.9,555.4h48.6v8.3H211v48.1h-9.5v-48.1h-19.6V555.4z"/>
		<path id="XMLID_71_" class="st3" d="M291.3,583.6c0,16.7-10.2,29.7-27.8,29.7c-17.7,0-27.8-13-27.8-29.7
			c0-16.7,10.1-29.7,27.8-29.7C281.1,553.9,291.3,566.9,291.3,583.6z M281.8,583.6c0-11.1-5.8-21.4-18.2-21.4
			c-12.5,0-18.2,10.3-18.2,21.4c0,11.1,5.7,21.4,18.2,21.4C276,604.9,281.8,594.6,281.8,583.6z"/>
		<path id="XMLID_74_" class="st3" d="M312.6,555.4v6h2.5c3.1-3.9,8.6-7.5,17.6-7.5c15.6,0,24.7,13,24.7,29.7
			c0,17-9.2,29.7-24.7,29.7c-9,0-14.2-3.5-17.2-7.5h-2.5v28.4h-9.5v-78.8H312.6z M312.8,583.6c0,11.1,5.1,21.4,17.7,21.4
			c11.3,0,17.3-8.8,17.3-21.4s-6-21.4-17.3-21.4C318,562.2,312.8,572.5,312.8,583.6z"/>
		<path id="XMLID_77_" class="st3" d="M373.7,634.2l11.6-27.6l-24.1-51.1h10.2l17.2,37.2h2.8l15.7-37.2h10l-33.8,78.8H373.7z"/>
		<path id="XMLID_79_" class="st3" d="M502.2,583.6c0,16.6-10.2,29.7-27.3,29.7c-15.9,0-25.9-11.4-27.1-26.3h-12.9v24.8h-9.4v-56.4
			h9.4v23.3h13.2c1.8-14.3,11.5-24.7,26.7-24.7C492,553.9,502.2,567,502.2,583.6z M492.7,583.6c0-11.1-5.7-21.4-17.8-21.4
			c-12.2,0-17.8,10.3-17.8,21.4c0,11.1,5.6,21.4,17.8,21.4C487,604.9,492.7,594.6,492.7,583.6z"/>
		<path id="XMLID_82_" class="st3" d="M536.2,602.8h1.9c7.6,0,11.1-5.6,11.1-25.6v-21.8h43.2v56.4h-9.6v-48.1H558v13.8
			c0,26-6,34.4-19.9,34.4h-1.9V602.8z"/>
		<path id="XMLID_84_" class="st3" d="M684.5,583.6c0,16.6-10.2,29.7-27.3,29.7c-15.9,0-25.9-11.4-27.1-26.3h-12.9v24.8h-9.4v-56.4
			h9.4v23.3h13.2c1.8-14.3,11.5-24.7,26.7-24.7C674.3,553.9,684.5,567,684.5,583.6z M675,583.6c0-11.1-5.7-21.4-17.8-21.4
			c-12.2,0-17.8,10.3-17.8,21.4c0,11.1,5.6,21.4,17.8,21.4C669.3,604.9,675,594.6,675,583.6z"/>
		<path id="XMLID_87_" class="st3" d="M749.1,584.6c0,16-10.4,28.7-27.9,28.7c-17.9,0-28.1-12.2-28.1-34.1c0-19,2.7-38.6,22.3-41.9
			l15-2.5c4.1-0.6,5.1-1.1,5.5-4.4h8.8c-0.3,6.4-2.4,11-11.1,12.5l-17.3,2.9c-10.1,1.8-13.4,8.8-14.7,18.2h2.5
			c4.8-6.3,10.3-8.2,18.2-8.2C739.3,555.9,749.1,568.6,749.1,584.6z M739.3,584.5c0-10.5-5.8-20.4-18.4-20.4
			c-12.5,0-18.4,9.8-18.4,20.4c0,10.4,5.8,20.5,18.4,20.5C733.5,604.9,739.3,594.9,739.3,584.5z"/>
		<path id="XMLID_90_" class="st3" d="M807.5,555.4v56.4h-9.6v-22.3h-17.1c-1.2,0-2.2,0-3.5-0.1l-8.5,22.4h-10l9.5-24.5
			c-5.8-2.8-8.7-7.7-8.7-14.8c0-10.7,6.9-17.1,19.8-17.1H807.5z M780.4,563.4c-8.5,0-11.3,3.5-11.3,9.2c0,5.5,2.8,8.8,11.3,8.8h17.5
			v-18H780.4z"/>
		<path id="XMLID_93_" class="st3" d="M817.1,555.4h48.6v8.3h-19.5v48.1h-9.5v-48.1h-19.6V555.4z"/>
		<path id="XMLID_95_" class="st3" d="M867.3,611.8v-13h11.6v13H867.3z"/>
	</g>
</g>
</svg>
