<?xml version="1.0" encoding="utf-8"?>
<!-- Generator: Adobe Illustrator 19.0.0, SVG Export Plug-In . SVG Version: 6.00 Build 0)  -->
<svg version="1.1" id="clearspace" xmlns="http://www.w3.org/2000/svg" xmlns:xlink="http://www.w3.org/1999/xlink" x="0px" y="0px"
	 viewBox="75 151 1350 900" style="enable-background:new 75 151 1350 900;" xml:space="preserve">
<style type="text/css">
	.st0{fill:#36ACA7;}
	.st1{fill:none;stroke:#36ACA7;stroke-miterlimit:10;}
	.st2{fill:#FFFFFF;}
	.st3{fill:#101010;}
</style>
<g id="XMLID_12_">
	<g id="XMLID_1524_">
		<path id="XMLID_731_" class="st0" d="M974.3,153.3c60.4,0,119,11.9,174.3,35.2c53.3,22.5,101.2,54.8,142.3,95.9
			s73.4,89,95.9,142.3C1410.1,482,1422,540.6,1422,601s-11.9,119-35.2,174.3c-22.5,53.3-54.8,101.2-95.9,142.3s-89,73.4-142.3,95.9
			c-55.2,23.3-113.9,35.2-174.3,35.2c-60.4,0-119-11.9-174.3-35.2c-53.3-22.5-101.2-54.8-142.3-95.9s-73.4-89-95.9-142.3
			C538.5,720,526.7,661.4,526.7,601s11.9-119,35.2-174.3c22.5-53.3,54.8-101.2,95.9-142.3s89-73.4,142.3-95.9
			C855.3,165.2,913.9,153.3,974.3,153.3 M974.3,152.3c-247.8,0-448.7,200.9-448.7,448.7s200.9,448.7,448.7,448.7
			S1423,848.8,1423,601S1222.1,152.3,974.3,152.3L974.3,152.3z"/>
	</g>
	<g id="XMLID_1523_">
		<path id="XMLID_683_" class="st0" d="M1279.4,153.3c38.1,0,73.9,14.9,100.8,41.8c26.9,26.9,41.8,62.7,41.8,100.8v610.2
			c0,38.1-14.9,73.9-41.8,100.8c-26.9,26.9-62.7,41.8-100.8,41.8H669.2c-38.1,0-73.9-14.9-100.8-41.8
			c-26.9-26.9-41.8-62.7-41.8-100.8V295.9c0-38.1,14.9-73.9,41.8-100.8c26.9-26.9,62.7-41.8,100.8-41.8H1279.4 M1279.4,152.3H669.2
			c-79.3,0-143.6,64.3-143.6,143.6v610.2c0,79.3,64.3,143.6,143.6,143.6h610.2c79.3,0,143.6-64.3,143.6-143.6V295.9
			C1423,216.6,1358.7,152.3,1279.4,152.3L1279.4,152.3z"/>
	</g>
	<g id="XMLID_1478_">
		<line id="XMLID_1522_" class="st1" x1="525.7" y1="985.6" x2="1423" y2="985.6"/>
		<line id="XMLID_1521_" class="st1" x1="525.7" y1="921.4" x2="1423" y2="921.4"/>
		<line id="XMLID_1520_" class="st1" x1="525.7" y1="857.3" x2="1423" y2="857.3"/>
		<line id="XMLID_1519_" class="st1" x1="525.7" y1="793.3" x2="1423" y2="793.3"/>
		<line id="XMLID_1518_" class="st1" x1="525.7" y1="729.2" x2="1423" y2="729.2"/>
		<line id="XMLID_1517_" class="st1" x1="525.7" y1="665.1" x2="1423" y2="665.1"/>
		<line id="XMLID_1516_" class="st1" x1="525.7" y1="601" x2="1423" y2="601"/>
		<line id="XMLID_1515_" class="st1" x1="525.7" y1="536.9" x2="1423" y2="536.9"/>
		<line id="XMLID_1514_" class="st1" x1="525.7" y1="472.8" x2="1423" y2="472.8"/>
		<line id="XMLID_1513_" class="st1" x1="525.7" y1="408.7" x2="1423" y2="408.7"/>
		<line id="XMLID_1512_" class="st1" x1="525.7" y1="344.7" x2="1423" y2="344.7"/>
		<line id="XMLID_1511_" class="st1" x1="525.7" y1="280.6" x2="1423" y2="280.6"/>
		<line id="XMLID_1497_" class="st1" x1="525.7" y1="216.4" x2="1423" y2="216.4"/>
		<line id="XMLID_1496_" class="st1" x1="1358.9" y1="152.3" x2="1358.9" y2="1049.7"/>
		<line id="XMLID_1495_" class="st1" x1="1294.8" y1="152.3" x2="1294.8" y2="1049.7"/>
		<line id="XMLID_1491_" class="st1" x1="1230.7" y1="152.3" x2="1230.7" y2="1049.7"/>
		<line id="XMLID_1490_" class="st1" x1="1166.7" y1="152.3" x2="1166.7" y2="1049.7"/>
		<line id="XMLID_1489_" class="st1" x1="1102.6" y1="152.3" x2="1102.6" y2="1049.7"/>
		<line id="XMLID_1487_" class="st1" x1="1038.4" y1="152.3" x2="1038.4" y2="1049.7"/>
		<line id="XMLID_1486_" class="st1" x1="974.3" y1="152.3" x2="974.3" y2="1049.7"/>
		<line id="XMLID_1485_" class="st1" x1="910.2" y1="152.3" x2="910.2" y2="1049.7"/>
		<line id="XMLID_1483_" class="st1" x1="846.1" y1="152.3" x2="846.1" y2="1049.7"/>
		<line id="XMLID_1482_" class="st1" x1="782" y1="152.3" x2="782" y2="1049.7"/>
		<line id="XMLID_1481_" class="st1" x1="718" y1="152.3" x2="718" y2="1049.7"/>
		<line id="XMLID_1480_" class="st1" x1="653.9" y1="152.3" x2="653.9" y2="1049.7"/>
		<line id="XMLID_1479_" class="st1" x1="589.8" y1="152.3" x2="589.8" y2="1049.7"/>
	</g>
	<g id="XMLID_1451_">
		<g id="XMLID_1575_">
			<path id="XMLID_1648_" class="st2" d="M717.2,692.5v-16.8h-8.6c-11.1,14.4-29,21.5-53.7,21.5c-20,0-35.8-5.7-47.7-17.1
				c-11.9-11.9-17.5-25.8-17.5-42.7c0-16.5,6.1-30.8,17.9-43c11.9-12.2,30.1-18.2,54.4-18.2h53.7v-5.4c0-21.1-12.6-33.3-38.3-33.3
				c-22.5,0-34.7,7.9-36.5,23.3h-40.1c1.8-34,31.9-55.1,75.2-55.1c49.1,0,78.8,21.8,78.8,65.9v121L717.2,692.5L717.2,692.5z
				 M701.8,651c9.3-9,14-19.7,14-32.2v-14h-46.6c-25.4,0-38.7,11.1-38.7,30.1c0,18.6,13.7,29.4,36.9,29.4
				C681,664.2,692.5,659.9,701.8,651z"/>
			<path id="XMLID_1646_" class="st2" d="M896.4,510.2v37.6h-16.5c-36.9,0-56.9,21.1-56.9,59.4v85.2h-40.5V510.2h39.1v21.1h8.6
				c10.4-14,27.6-21.1,50.8-21.1H896.4z"/>
			<path id="XMLID_1581_" class="st2" d="M953.5,510.2h43v34.4h-43v88.8c0,16.2,9.3,24,27.9,24h15.1v35.1h-15.8
				c-44.1,0-67.7-14.7-67.7-53.7V464.1h40.5L953.5,510.2L953.5,510.2z"/>
			<path id="XMLID_1578_" class="st2" d="M1163.9,670.7c-16.5,17.5-38.7,26.5-67,26.5c-28.3,0-50.5-9-67.3-26.5
				c-16.5-17.9-24.7-41.2-24.7-69.5c0-28.3,8.3-51.2,24.7-68.8c16.8-17.9,39.1-26.8,67.3-26.8c28.3,0,50.5,9,67,26.8
				c16.8,17.5,25,40.5,25,68.8S1180.7,652.7,1163.9,670.7z M1096.9,540c-33.3,0-51.5,26.8-51.5,61.2c0,34.7,18.2,61.6,51.5,61.6
				c33.3,0,51.5-26.8,51.5-61.6C1148.4,566.8,1130.2,540,1096.9,540z"/>
			<path id="XMLID_1576_" class="st2" d="M1311.6,558.9c-2.2-13.3-14-19.7-35.8-19.7c-21.8,0-33,6.5-33,18.9
				c0,11.1,7.2,15.4,23.3,18.2l35.5,5.7c36.9,6.1,55.5,24.7,55.5,56.6c0,16.2-6.8,30.1-20.7,41.6c-13.7,11.1-32.6,16.8-57.3,16.8
				c-51.5,0-79.6-22.5-83.5-59.8h40.5c3.2,17.5,17.1,26.1,42.3,26.1c25.4,0,38.3-7.9,38.3-23.6c0-14-8.6-20.4-29.7-24.3l-38-6.5
				c-28.6-4.7-46.6-20.7-46.6-48c0-32.6,25.8-55.5,74.9-55.5c43.4,0,70.9,20.7,74.9,53.3L1311.6,558.9L1311.6,558.9z"/>
		</g>
	</g>
	<g id="XMLID_1450_">
		<path id="XMLID_682_" class="st0" d="M1422,153.3v895.3H526.7V153.3H1422 M1423,152.3H525.7v897.3H1423V152.3L1423,152.3z"/>
	</g>
	<g id="XMLID_1448_">
		<circle id="XMLID_739_" class="st1" cx="169.2" cy="244.6" r="92.2"/>
	</g>
	<g id="XMLID_1421_">
		<g id="XMLID_1583_">
			<path id="XMLID_1643_" class="st0" d="M116.5,263.3v-3.5h-1.8c-2.3,3-6,4.4-11.1,4.4c-4.1,0-7.4-1.2-9.8-3.6
				c-2.4-2.4-3.6-5.3-3.6-8.8c0-3.4,1.3-6.4,3.7-8.9c2.4-2.5,6.2-3.8,11.2-3.8h11.1v-1.1c0-4.4-2.6-6.9-7.9-6.9
				c-4.7,0-7.2,1.6-7.5,4.8h-8.3c0.4-7,6.6-11.4,15.5-11.4c10.1,0,16.3,4.5,16.3,13.6v24.9h-7.8
				C116.5,263.1,116.5,263.3,116.5,263.3z M113.3,254.7c1.9-1.8,2.9-4.1,2.9-6.7v-2.9h-9.6c-5.3,0-8,2.3-8,6.2
				c0,3.8,2.8,6.1,7.6,6.1C109,257.4,111.4,256.5,113.3,254.7z"/>
			<path id="XMLID_1597_" class="st0" d="M153.4,225.7v7.8H150c-7.6,0-11.8,4.4-11.8,12.3v17.5h-8.4v-37.6h8.1v4.4h1.8
				c2.1-2.9,5.7-4.4,10.5-4.4H153.4z"/>
			<path id="XMLID_1595_" class="st0" d="M165.1,225.7h8.9v7.1h-8.9V251c0,3.3,1.9,5,5.8,5h3.1v7.3h-3.3c-9.1,0-14-3-14-11.1v-36
				h8.4V225.7z"/>
			<path id="XMLID_1592_" class="st0" d="M208.4,258.7c-3.4,3.6-8,5.5-13.8,5.5c-5.8,0-10.4-1.8-13.9-5.5c-3.4-3.7-5.1-8.5-5.1-14.4
				c0-5.8,1.7-10.6,5.1-14.2c3.5-3.7,8.1-5.5,13.9-5.5c5.8,0,10.4,1.8,13.8,5.5c3.5,3.6,5.2,8.4,5.2,14.2
				C213.6,250.2,211.9,255,208.4,258.7z M194.7,231.8c-6.9,0-10.7,5.5-10.7,12.7s3.8,12.7,10.7,12.7s10.7-5.5,10.7-12.7
				C205.2,237.4,201.5,231.8,194.7,231.8z"/>
			<path id="XMLID_1584_" class="st0" d="M238.8,235.8c-0.4-2.7-2.9-4.1-7.4-4.1c-4.5,0-6.8,1.3-6.8,3.9c0,2.3,1.5,3.2,4.8,3.8
				l7.3,1.2c7.6,1.3,11.5,5.1,11.5,11.7c0,3.3-1.4,6.2-4.3,8.6c-2.8,2.3-6.7,3.5-11.8,3.5c-10.7,0-16.4-4.7-17.1-12.4h8.4
				c0.7,3.6,3.6,5.4,8.7,5.4c5.3,0,7.9-1.6,7.9-4.9c0-2.9-1.8-4.2-6.1-5l-7.8-1.3c-5.9-1-9.6-4.3-9.6-9.9c0-6.7,5.3-11.5,15.5-11.5
				c9,0,14.7,4.3,15.5,11C247.4,235.8,238.8,235.8,238.8,235.8z"/>
		</g>
	</g>
	<g id="XMLID_796_">
		<path id="XMLID_765_" class="st1" d="M231.9,693.4H106.5c-16.4,0-29.5-13.2-29.5-29.5V538.5c0-16.3,13.2-29.5,29.5-29.5h125.4
			c16.3,0,29.5,13.2,29.5,29.5v125.4C261.5,680.3,248.2,693.4,231.9,693.4z"/>
	</g>
	<g id="XMLID_757_">
		<g id="XMLID_1598_">
			<path id="XMLID_1663_" class="st0" d="M116.5,619.9v-3.5h-1.8c-2.3,3-6,4.4-11.1,4.4c-4.1,0-7.4-1.2-9.8-3.6s-3.6-5.3-3.6-8.8
				c0-3.4,1.3-6.4,3.7-8.9c2.4-2.5,6.2-3.8,11.2-3.8h11.1v-1.1c0-4.4-2.6-6.9-7.9-6.9c-4.7,0-7.2,1.6-7.5,4.8h-8.3
				c0.4-7,6.6-11.4,15.5-11.4c10.1,0,16.3,4.5,16.3,13.6v24.9h-7.8C116.5,619.7,116.5,619.9,116.5,619.9z M113.3,611.4
				c1.9-1.8,2.9-4.1,2.9-6.7v-2.9h-9.6c-5.3,0-8,2.3-8,6.2c0,3.8,2.8,6.1,7.6,6.1C109,614.2,111.4,613.3,113.3,611.4z"/>
			<path id="XMLID_1661_" class="st0" d="M153.4,582.4v7.8H150c-7.6,0-11.8,4.4-11.8,12.3v17.5h-8.4v-37.6h8.1v4.4h1.8
				c2.1-2.9,5.7-4.4,10.5-4.4H153.4z"/>
			<path id="XMLID_1604_" class="st0" d="M165.1,582.4h8.9v7.1h-8.9v18.2c0,3.3,1.9,5,5.8,5h3.1v7.3h-3.3c-9.1,0-14-3-14-11.1v-36
				h8.4V582.4z"/>
			<path id="XMLID_1601_" class="st0" d="M208.4,615.5c-3.4,3.6-8,5.5-13.8,5.5c-5.8,0-10.4-1.8-13.9-5.5c-3.4-3.7-5.1-8.5-5.1-14.4
				c0-5.8,1.7-10.6,5.1-14.2c3.5-3.7,8.1-5.5,13.9-5.5c5.8,0,10.4,1.8,13.8,5.5c3.5,3.6,5.2,8.4,5.2,14.2
				C213.6,607,211.9,611.8,208.4,615.5z M194.7,588.5c-6.9,0-10.7,5.5-10.7,12.7c0,7.2,3.8,12.7,10.7,12.7s10.7-5.5,10.7-12.7
				C205.2,594,201.5,588.5,194.7,588.5z"/>
			<path id="XMLID_1599_" class="st0" d="M238.8,592.4c-0.4-2.7-2.9-4.1-7.4-4.1c-4.5,0-6.8,1.3-6.8,3.9c0,2.3,1.5,3.2,4.8,3.8
				l7.3,1.2c7.6,1.3,11.5,5.1,11.5,11.7c0,3.3-1.4,6.2-4.3,8.6c-2.8,2.3-6.7,3.5-11.8,3.5c-10.7,0-16.4-4.7-17.1-12.4h8.4
				c0.7,3.6,3.6,5.4,8.7,5.4c5.3,0,7.9-1.6,7.9-4.9c0-2.9-1.8-4.2-6.1-5l-7.8-1.3c-5.9-1-9.6-4.3-9.6-9.9c0-6.7,5.3-11.5,15.5-11.5
				c9,0,14.7,4.3,15.5,11H238.8L238.8,592.4z"/>
		</g>
	</g>
	<rect id="XMLID_791_" x="77" y="865.2" class="st1" width="184.5" height="184.5"/>
	<g id="XMLID_2_">
		<g id="XMLID_1631_">
			<path id="XMLID_1657_" class="st0" d="M118.6,975.4v-3.3h-1.7c-2.2,2.8-5.7,4.3-10.6,4.3c-4,0-7.1-1.1-9.4-3.4s-3.5-5.1-3.5-8.4
				s1.2-6.1,3.5-8.5c2.3-2.4,6-3.6,10.8-3.6h10.6v-1.1c0-4.2-2.5-6.6-7.6-6.6c-4.5,0-6.9,1.6-7.2,4.6h-7.9
				c0.4-6.7,6.3-10.9,14.9-10.9c9.7,0,15.6,4.3,15.6,13.1v23.9h-7.5C118.6,975.6,118.6,975.4,118.6,975.4z M115.6,967.2
				c1.8-1.8,2.8-3.9,2.8-6.4V958h-9.2c-5,0-7.7,2.2-7.7,6c0,3.7,2.7,5.8,7.3,5.8C111.5,969.8,113.8,969,115.6,967.2z"/>
			<path id="XMLID_1655_" class="st0" d="M154,939.4v7.4h-3.2c-7.3,0-11.3,4.2-11.3,11.8v16.8h-8v-36h7.7v4.2h1.7
				c2.1-2.8,5.5-4.2,10.1-4.2L154,939.4L154,939.4z"/>
			<path id="XMLID_1653_" class="st0" d="M165.2,939.4h8.5v6.8h-8.5v17.5c0,3.2,1.8,4.8,5.5,4.8h3v7h-3.1c-8.7,0-13.4-2.9-13.4-10.6
				v-34.5h8V939.4z"/>
			<path id="XMLID_1634_" class="st0" d="M206.8,971.1c-3.3,3.5-7.7,5.2-13.3,5.2c-5.6,0-10-1.8-13.3-5.2c-3.3-3.5-4.9-8.2-4.9-13.8
				s1.6-10.1,4.9-13.6s7.7-5.3,13.3-5.3s10,1.8,13.3,5.3c3.3,3.5,5,8,5,13.6S210.1,967.6,206.8,971.1z M193.6,945.3
				c-6.6,0-10.2,5.3-10.2,12.1c0,6.9,3.6,12.2,10.2,12.2s10.2-5.3,10.2-12.2C203.7,950.6,200.1,945.3,193.6,945.3z"/>
			<path id="XMLID_1632_" class="st0" d="M236,949.1c-0.4-2.6-2.8-3.9-7.1-3.9s-6.5,1.3-6.5,3.8c0,2.2,1.4,3.1,4.6,3.6l7,1.1
				c7.3,1.2,11,4.9,11,11.2c0,3.2-1.3,6-4.1,8.2c-2.7,2.2-6.5,3.3-11.3,3.3c-10.2,0-15.7-4.5-16.5-11.8h8c0.6,3.5,3.4,5.2,8.4,5.2
				s7.6-1.6,7.6-4.7c0-2.8-1.7-4-5.9-4.8l-7.7-1.3c-5.7-0.9-9.2-4.1-9.2-9.5c0-6.5,5.1-11,14.8-11c8.6,0,14,4.1,14.8,10.6H236z"/>
		</g>
	</g>
	<g id="XMLID_35_">
		<circle id="XMLID_36_" class="st2" cx="385.7" cy="244.6" r="92.2"/>
	</g>
	<g id="XMLID_28_">
		<g id="XMLID_29_">
			<path id="XMLID_34_" class="st3" d="M332.9,263.3v-3.5h-1.8c-2.3,3-6,4.4-11.1,4.4c-4.1,0-7.4-1.2-9.8-3.6
				c-2.4-2.4-3.6-5.3-3.6-8.8c0-3.4,1.3-6.4,3.7-8.9c2.4-2.5,6.2-3.8,11.2-3.8h11.1v-1.1c0-4.4-2.6-6.9-7.9-6.9
				c-4.7,0-7.2,1.6-7.5,4.8H309c0.4-7,6.6-11.4,15.5-11.4c10.1,0,16.3,4.5,16.3,13.6v24.9h-7.8V263.3z M329.7,254.7
				c1.9-1.8,2.9-4.1,2.9-6.7v-2.9h-9.6c-5.3,0-8,2.3-8,6.2c0,3.8,2.8,6.1,7.6,6.1C325.5,257.4,327.9,256.5,329.7,254.7z"/>
			<path id="XMLID_33_" class="st3" d="M369.8,225.7v7.8h-3.4c-7.6,0-11.8,4.4-11.8,12.3v17.5h-8.4v-37.6h8.1v4.4h1.8
				c2.1-2.9,5.7-4.4,10.5-4.4H369.8z"/>
			<path id="XMLID_32_" class="st3" d="M381.6,225.7h8.9v7.1h-8.9V251c0,3.3,1.9,5,5.8,5h3.1v7.3h-3.3c-9.1,0-14-3-14-11.1v-36h8.4
				V225.7z"/>
			<path id="XMLID_31_" class="st3" d="M424.9,258.7c-3.4,3.6-8,5.5-13.8,5.5s-10.4-1.8-13.9-5.5c-3.4-3.7-5.1-8.5-5.1-14.4
				c0-5.8,1.7-10.6,5.1-14.2c3.5-3.7,8.1-5.5,13.9-5.5s10.4,1.8,13.8,5.5c3.5,3.6,5.2,8.4,5.2,14.2
				C430.1,250.2,428.4,255,424.9,258.7z M411.1,231.8c-6.9,0-10.7,5.5-10.7,12.7s3.8,12.7,10.7,12.7s10.7-5.5,10.7-12.7
				C421.7,237.4,418,231.8,411.1,231.8z"/>
			<path id="XMLID_30_" class="st3" d="M455.3,235.8c-0.4-2.7-2.9-4.1-7.4-4.1s-6.8,1.3-6.8,3.9c0,2.3,1.5,3.2,4.8,3.8l7.3,1.2
				c7.6,1.3,11.5,5.1,11.5,11.7c0,3.3-1.4,6.2-4.3,8.6c-2.8,2.3-6.7,3.5-11.8,3.5c-10.7,0-16.4-4.7-17.1-12.4h8.4
				c0.7,3.6,3.6,5.4,8.7,5.4c5.3,0,7.9-1.6,7.9-4.9c0-2.9-1.8-4.2-6.1-5l-7.8-1.3c-5.9-1-9.6-4.3-9.6-9.9c0-6.7,5.3-11.5,15.5-11.5
				c9,0,14.7,4.3,15.5,11C463.9,235.8,455.3,235.8,455.3,235.8z"/>
		</g>
	</g>
	<g id="XMLID_25_">
		<path id="XMLID_26_" class="st2" d="M448.4,693.4H323c-16.4,0-29.5-13.2-29.5-29.5V538.5c0-16.3,13.2-29.5,29.5-29.5h125.4
			c16.3,0,29.5,13.2,29.5,29.5v125.4C477.9,680.3,464.6,693.4,448.4,693.4z"/>
	</g>
	<g id="XMLID_18_">
		<g id="XMLID_19_">
			<path id="XMLID_24_" class="st3" d="M332.9,619.9v-3.5h-1.8c-2.3,3-6,4.4-11.1,4.4c-4.1,0-7.4-1.2-9.8-3.6s-3.6-5.3-3.6-8.8
				c0-3.4,1.3-6.4,3.7-8.9c2.4-2.5,6.2-3.8,11.2-3.8h11.1v-1.1c0-4.4-2.6-6.9-7.9-6.9c-4.7,0-7.2,1.6-7.5,4.8H309
				c0.4-7,6.6-11.4,15.5-11.4c10.1,0,16.3,4.5,16.3,13.6v24.9h-7.8V619.9z M329.7,611.4c1.9-1.8,2.9-4.1,2.9-6.7v-2.9h-9.6
				c-5.3,0-8,2.3-8,6.2c0,3.8,2.8,6.1,7.6,6.1C325.5,614.2,327.9,613.3,329.7,611.4z"/>
			<path id="XMLID_23_" class="st3" d="M369.8,582.4v7.8h-3.4c-7.6,0-11.8,4.4-11.8,12.3v17.5h-8.4v-37.6h8.1v4.4h1.8
				c2.1-2.9,5.7-4.4,10.5-4.4H369.8z"/>
			<path id="XMLID_22_" class="st3" d="M381.6,582.4h8.9v7.1h-8.9v18.2c0,3.3,1.9,5,5.8,5h3.1v7.3h-3.3c-9.1,0-14-3-14-11.1v-36h8.4
				V582.4z"/>
			<path id="XMLID_21_" class="st3" d="M424.9,615.5c-3.4,3.6-8,5.5-13.8,5.5s-10.4-1.8-13.9-5.5c-3.4-3.7-5.1-8.5-5.1-14.4
				c0-5.8,1.7-10.6,5.1-14.2c3.5-3.7,8.1-5.5,13.9-5.5s10.4,1.8,13.8,5.5c3.5,3.6,5.2,8.4,5.2,14.2
				C430.1,607,428.4,611.8,424.9,615.5z M411.1,588.5c-6.9,0-10.7,5.5-10.7,12.7c0,7.2,3.8,12.7,10.7,12.7s10.7-5.5,10.7-12.7
				C421.7,594,418,588.5,411.1,588.5z"/>
			<path id="XMLID_20_" class="st3" d="M455.3,592.4c-0.4-2.7-2.9-4.1-7.4-4.1s-6.8,1.3-6.8,3.9c0,2.3,1.5,3.2,4.8,3.8l7.3,1.2
				c7.6,1.3,11.5,5.1,11.5,11.7c0,3.3-1.4,6.2-4.3,8.6c-2.8,2.3-6.7,3.5-11.8,3.5c-10.7,0-16.4-4.7-17.1-12.4h8.4
				c0.7,3.6,3.6,5.4,8.7,5.4c5.3,0,7.9-1.6,7.9-4.9c0-2.9-1.8-4.2-6.1-5l-7.8-1.3c-5.9-1-9.6-4.3-9.6-9.9c0-6.7,5.3-11.5,15.5-11.5
				c9,0,14.7,4.3,15.5,11H455.3L455.3,592.4z"/>
		</g>
	</g>
	<rect id="XMLID_16_" x="293.5" y="865.2" class="st2" width="184.5" height="184.5"/>
	<g id="XMLID_6_">
		<g id="XMLID_7_">
			<path id="XMLID_15_" class="st3" d="M335,975.4v-3.3h-1.7c-2.2,2.8-5.7,4.3-10.6,4.3c-4,0-7.1-1.1-9.4-3.4s-3.5-5.1-3.5-8.4
				s1.2-6.1,3.5-8.5c2.3-2.4,6-3.6,10.8-3.6h10.6v-1.1c0-4.2-2.5-6.6-7.6-6.6c-4.5,0-6.9,1.6-7.2,4.6h-7.9
				c0.4-6.7,6.3-10.9,14.9-10.9c9.7,0,15.6,4.3,15.6,13.1v23.9H335L335,975.4L335,975.4z M332,967.2c1.8-1.8,2.8-3.9,2.8-6.4V958
				h-9.2c-5,0-7.7,2.2-7.7,6c0,3.7,2.7,5.8,7.3,5.8C328,969.8,330.2,969,332,967.2z"/>
			<path id="XMLID_14_" class="st3" d="M370.4,939.4v7.4h-3.2c-7.3,0-11.3,4.2-11.3,11.8v16.8h-8v-36h7.7v4.2h1.7
				c2.1-2.8,5.5-4.2,10.1-4.2L370.4,939.4L370.4,939.4z"/>
			<path id="XMLID_13_" class="st3" d="M381.7,939.4h8.5v6.8h-8.5v17.5c0,3.2,1.8,4.8,5.5,4.8h3v7h-3.1c-8.7,0-13.4-2.9-13.4-10.6
				v-34.5h8V939.4z"/>
			<path id="XMLID_11_" class="st3" d="M423.3,971.1c-3.3,3.5-7.7,5.2-13.3,5.2s-10-1.8-13.3-5.2c-3.3-3.5-4.9-8.2-4.9-13.8
				s1.6-10.1,4.9-13.6c3.3-3.5,7.7-5.3,13.3-5.3s10,1.8,13.3,5.3c3.3,3.5,5,8,5,13.6S426.6,967.6,423.3,971.1z M410,945.3
				c-6.6,0-10.2,5.3-10.2,12.1c0,6.9,3.6,12.2,10.2,12.2s10.2-5.3,10.2-12.2C420.2,950.6,416.6,945.3,410,945.3z"/>
			<path id="XMLID_8_" class="st3" d="M452.5,949.1c-0.4-2.6-2.8-3.9-7.1-3.9c-4.3,0-6.5,1.3-6.5,3.8c0,2.2,1.4,3.1,4.6,3.6l7,1.1
				c7.3,1.2,11,4.9,11,11.2c0,3.2-1.3,6-4.1,8.2c-2.7,2.2-6.5,3.3-11.3,3.3c-10.2,0-15.7-4.5-16.5-11.8h8c0.6,3.5,3.4,5.2,8.4,5.2
				c5,0,7.6-1.6,7.6-4.7c0-2.8-1.7-4-5.9-4.8l-7.7-1.3c-5.7-0.9-9.2-4.1-9.2-9.5c0-6.5,5.1-11,14.8-11c8.6,0,14,4.1,14.8,10.6
				L452.5,949.1L452.5,949.1z"/>
		</g>
	</g>
</g>
</svg>
