<?xml version="1.0" encoding="utf-8"?>
<!-- Generator: Adobe Illustrator 19.0.0, SVG Export Plug-In . SVG Version: 6.00 Build 0)  -->
<svg version="1.1" id="Layer_1" xmlns="http://www.w3.org/2000/svg" xmlns:xlink="http://www.w3.org/1999/xlink" x="0px" y="0px"
	 viewBox="110 -72.1 1500 1425.1" style="enable-background:new 110 -72.1 1500 1425.1;" xml:space="preserve">
<style type="text/css">
	.st0{fill:none;stroke:#2BB9AF;stroke-miterlimit:10;}
	.st1{fill:#2BB9AF;}
	.st2{fill:#FFFFFF;}
	.st3{font-family:'Formular';}
	.st4{font-size:31.8804px;}
	.st5{font-size:47.3228px;}
</style>
<g id="XMLID_514_">
	<line id="XMLID_820_" class="st0" x1="120.7" y1="820.2" x2="1610" y2="820.2"/>
	<line id="XMLID_819_" class="st0" x1="120.7" y1="926.7" x2="1610" y2="926.7"/>
	<rect id="XMLID_818_" x="1503.5" y="820.2" class="st1" width="106.5" height="106.5"/>
	<text id="XMLID_680_" transform="matrix(1 0 0 1 1547.9355 990.2107)" class="st2 st3 st4">x</text>
	<line id="XMLID_678_" class="st0" x1="1503.5" y1="950.8" x2="1610" y2="950.8"/>
	<rect id="XMLID_817_" x="568.9" y="820.2" class="st1" width="53.3" height="106.5"/>
	<text id="XMLID_679_" transform="matrix(1 0 0 1 563.0082 990.2107)" class="st2 st3 st4">1/2x</text>
	<line id="XMLID_677_" class="st0" x1="569" y1="950.8" x2="622.3" y2="950.8"/>
	<g id="XMLID_681_">
		<g id="XMLID_682_">
			<g id="XMLID_342_">
				<path id="XMLID_358_" class="st2" d="M195.2,926.7v-9.8h-5c-6.5,8.4-17,12.6-31.4,12.6c-11.7,0-20.9-3.3-27.8-10
					c-6.9-6.9-10.3-15.1-10.3-24.9c0-9.6,3.6-18,10.5-25.1c6.9-7.1,17.6-10.7,31.8-10.7h31.4v-3.1c0-12.3-7.3-19.5-22.4-19.5
					c-13.2,0-20.3,4.6-21.3,13.6h-23.5c1-19.9,18.6-32.2,44-32.2c28.7,0,46,12.8,46,38.5v70.7L195.2,926.7L195.2,926.7z
					 M186.2,902.4c5.4-5.2,8.2-11.5,8.2-18.8v-8.2h-27.2c-14.9,0-22.6,6.5-22.6,17.6c0,10.9,8,17.2,21.6,17.2
					C174.1,910.2,180.8,907.7,186.2,902.4z"/>
				<path id="XMLID_356_" class="st2" d="M299.9,820.2v22h-9.6c-21.6,0-33.3,12.3-33.3,34.7v49.8h-23.6V820.2h22.8v12.3h5
					c6.1-8.2,16.1-12.3,29.7-12.3H299.9z"/>
				<path id="XMLID_354_" class="st2" d="M333.3,820.2h25.1v20.1h-25.1v51.9c0,9.4,5.4,14,16.3,14h8.8v20.5h-9.2
					c-25.7,0-39.6-8.6-39.6-31.4V793.2h23.7V820.2z"/>
				<path id="XMLID_351_" class="st2" d="M456.2,914c-9.6,10.3-22.6,15.5-39.1,15.5s-29.5-5.2-39.3-15.5
					c-9.6-10.5-14.4-24.1-14.4-40.6s4.8-29.9,14.4-40.2c9.8-10.5,22.8-15.7,39.3-15.7s29.5,5.2,39.1,15.7
					c9.8,10.3,14.6,23.6,14.6,40.2C470.8,889.9,466,903.5,456.2,914z M417,837.6c-19.5,0-30.1,15.7-30.1,35.8
					c0,20.3,10.7,36,30.1,36c19.5,0,30.1-15.7,30.1-36C447.2,853.3,436.5,837.6,417,837.6z"/>
				<path id="XMLID_348_" class="st2" d="M542.5,848.7c-1.3-7.7-8.2-11.5-20.9-11.5c-12.8,0-19.3,3.8-19.3,11.1
					c0,6.5,4.2,9,13.6,10.7l20.7,3.3c21.6,3.6,32.4,14.4,32.4,33.1c0,9.4-4,17.6-12.1,24.3c-8,6.5-19,9.8-33.5,9.8
					c-30.1,0-46.5-13.2-48.8-35h23.7c1.9,10.3,10,15.3,24.7,15.3c14.9,0,22.4-4.6,22.4-13.8c0-8.2-5-11.9-17.4-14.2l-22.2-3.8
					c-16.7-2.7-27.2-12.1-27.2-28c0-19,15.1-32.4,43.7-32.4c25.3,0,41.4,12.1,43.7,31.2L542.5,848.7L542.5,848.7z"/>
			</g>
		</g>
	</g>
	<g id="XMLID_99_">
		<g id="XMLID_132_">
			<path id="XMLID_187_" class="st2" d="M658.9,840.5c0,11.3-6.4,20.3-18.3,20.3c-12,0-18.3-9.1-18.3-20.3
				c0-11.3,6.3-20.3,18.3-20.3C652.5,820.2,658.9,829.3,658.9,840.5z M653.9,840.5c0-8.2-4-15.8-13.3-15.8s-13.3,7.6-13.3,15.8
				s4,15.8,13.3,15.8C649.9,856.4,653.9,848.7,653.9,840.5z"/>
			<path id="XMLID_184_" class="st2" d="M695.1,856.1V868h-4.6v-7.9h-24v7.9H662v-11.9h3.7c1.8-3.7,3.4-9.2,3.4-16v-7.6H690v23.6
				H695.1z M685.3,836.5h-11.9v3.5c0,7-1.3,12.3-3,16h14.9V836.5z"/>
			<path id="XMLID_181_" class="st2" d="M725.1,846.2H704c0.2,6.6,3.1,10.6,8.8,10.6c3.9,0,6.2-1.6,7-4.3h4.7
				c-0.9,4.7-4.9,8.4-11.8,8.4c-8.6,0-13.5-6.3-13.5-14.8s4.9-14.3,13.4-14.3c8.2,0,12.2,6.1,12.4,12.9L725.1,846.2L725.1,846.2z
				 M704.3,842.3h16c-0.3-3.5-3-6.5-7.6-6.5C707.7,835.8,704.9,838.8,704.3,842.3z"/>
			<path id="XMLID_179_" class="st2" d="M734.9,860.1H730l6.3-14.2l-5.9-13.5h4.8l5,11.5h7.1v-11.5h4.5v11.5h7.1l5-11.5h4.8
				l-5.9,13.5l6.3,14.2h-4.9l-5.3-12.1h-7.1v12.1h-4.5V848h-7.1L734.9,860.1z"/>
			<path id="XMLID_176_" class="st2" d="M805.6,856.1V868H801v-7.9h-24v7.9h-4.6v-11.9h3.7c1.8-3.7,3.4-9.2,3.4-16v-7.6h20.9v23.6
				H805.6z M795.8,836.5H784v3.5c0,7-1.3,12.3-3,16h14.9v-19.5H795.8z"/>
			<path id="XMLID_173_" class="st2" d="M829.3,857.2h-1.2c-1.7,2.1-4.7,3.6-8.6,3.6c-6.4,0-9.9-4.3-9.9-9c0-4.5,2.9-9.2,10.6-9.2h9
				v-1.1c0-3.4-1.9-5.8-6.8-5.8c-4.1,0-6.2,1.6-6.4,4h-4.7c0.4-5.1,4.8-8.1,11-8.1c7,0,11.4,3.4,11.4,9.6v18.9h-4.4L829.3,857.2
				L829.3,857.2z M829.1,848.9v-2.5h-8.3c-4.6,0-6.7,2-6.7,5.3c0,3.1,2.3,5.1,6.4,5.1C825.2,856.8,829.1,853.3,829.1,848.9z"/>
			<path id="XMLID_171_" class="st2" d="M877.3,860.1v-23.6h-15.1v23.6h-4.7v-27.7H882v27.7H877.3z"/>
			<path id="XMLID_168_" class="st2" d="M895.5,832.4v3h1.2c1.5-1.9,4.2-3.7,8.6-3.7c7.6,0,12.1,6.4,12.1,14.6
				c0,8.4-4.5,14.6-12.1,14.6c-4.4,0-7-1.7-8.5-3.7h-1.2v14H891v-38.7L895.5,832.4L895.5,832.4z M895.6,846.3
				c0,5.4,2.5,10.5,8.7,10.5c5.6,0,8.5-4.3,8.5-10.5s-3-10.5-8.5-10.5C898.2,835.8,895.6,840.9,895.6,846.3z"/>
			<path id="XMLID_165_" class="st2" d="M950.4,846.3c0,8.2-5,14.6-13.6,14.6c-8.7,0-13.6-6.4-13.6-14.6c0-8.2,4.9-14.6,13.6-14.6
				C945.4,831.7,950.4,838.1,950.4,846.3z M945.7,846.3c0-5.4-2.9-10.5-9-10.5c-6.2,0-9,5.1-9,10.5s2.8,10.5,9,10.5
				S945.7,851.7,945.7,846.3z"/>
			<path id="XMLID_161_" class="st2" d="M975.2,871.1h-4.6v-11h-0.9c-8.8,0-13.7-5.8-13.7-13.9c0-8,4.8-13.9,13.6-13.9h0.9V820h4.6
				v12.3h0.9c8.7,0,13.6,5.8,13.6,13.9c0,8.5-5.2,13.9-14.5,13.9v11H975.2z M969.7,856.2h0.9v-19.8h-0.9c-6.2,0-9.1,4.5-9.1,9.9
				C960.6,851.7,963.5,856.2,969.7,856.2z M975.9,856.2c6.2,0,9.1-4.5,9.1-9.9s-2.9-9.9-9.1-9.9h-0.8v19.8L975.9,856.2L975.9,856.2z
				"/>
			<path id="XMLID_158_" class="st2" d="M1021,846.2h-21.1c0.2,6.6,3.1,10.6,8.8,10.6c3.9,0,6.2-1.6,7-4.3h4.7
				c-0.9,4.7-4.9,8.4-11.8,8.4c-8.6,0-13.5-6.3-13.5-14.8s4.9-14.3,13.4-14.3c8.2,0,12.2,6.1,12.4,12.9L1021,846.2L1021,846.2z
				 M1000.2,842.3h16c-0.3-3.5-3-6.5-7.6-6.5C1003.5,835.8,1000.8,838.8,1000.2,842.3z"/>
			<path id="XMLID_156_" class="st2" d="M1051.7,851.8c-1,5.4-5.2,9.1-11.7,9.1c-8.6,0-13.5-6.4-13.5-14.6c0-8.4,4.8-14.6,13.5-14.6
				c6.6,0,10.6,3.6,11.5,8.7h-4.7c-0.9-2.8-3-4.7-6.8-4.7c-6.3,0-8.8,4.9-8.8,10.4c0,5.6,2.6,10.6,8.8,10.6c4,0,6.3-1.9,7-5
				L1051.7,851.8L1051.7,851.8z"/>
			<path id="XMLID_154_" class="st2" d="M1082.1,851.8c-1,5.4-5.2,9.1-11.7,9.1c-8.6,0-13.5-6.4-13.5-14.6c0-8.4,4.8-14.6,13.5-14.6
				c6.6,0,10.6,3.6,11.5,8.7h-4.7c-0.9-2.8-3-4.7-6.8-4.7c-6.3,0-8.8,4.9-8.8,10.4c0,5.6,2.6,10.6,8.8,10.6c4,0,6.3-1.9,7-5
				L1082.1,851.8L1082.1,851.8z"/>
			<path id="XMLID_152_" class="st2" d="M1089.1,860.1v-27.7h4.6v21.5h1.2l12.1-21.4h6.8v27.7h-4.6v-21.4h-1.2l-12.4,21.4
				L1089.1,860.1L1089.1,860.1z"/>
			<path id="XMLID_149_" class="st2" d="M1148.4,846.3c0,8.2-5,14.6-13.6,14.6c-8.7,0-13.6-6.4-13.6-14.6c0-8.2,4.9-14.6,13.6-14.6
				C1143.4,831.7,1148.4,838.1,1148.4,846.3z M1143.7,846.3c0-5.4-2.9-10.5-9-10.5c-6.2,0-9,5.1-9,10.5s2.8,10.5,9,10.5
				C1140.8,856.8,1143.7,851.7,1143.7,846.3z"/>
			<path id="XMLID_147_" class="st2" d="M1175.7,860.1v-12.2h-15.3v12.2h-4.7v-27.7h4.7v11.5h15.3v-11.4h4.7v27.7L1175.7,860.1
				L1175.7,860.1z"/>
			<path id="XMLID_144_" class="st2" d="M1207,857.2h-1.2c-1.7,2.1-4.7,3.6-8.6,3.6c-6.4,0-9.9-4.3-9.9-9c0-4.5,2.9-9.2,10.6-9.2h9
				v-1.1c0-3.4-1.9-5.8-6.8-5.8c-4.1,0-6.2,1.6-6.4,4h-4.7c0.4-5.1,4.8-8.1,11-8.1c7,0,11.4,3.4,11.4,9.6v18.9h-4.4V857.2z
				 M1206.8,848.9v-2.5h-8.3c-4.6,0-6.7,2-6.7,5.3c0,3.1,2.3,5.1,6.4,5.1C1202.9,856.8,1206.8,853.3,1206.8,848.9z"/>
			<path id="XMLID_142_" class="st2" d="M1216.8,855.7h0.9c3.7,0,5.4-2.7,5.4-12.6v-10.7h21.2v27.7h-4.7v-23.6h-12.1v6.8
				c0,12.8-3,16.9-9.8,16.9h-0.9V855.7z"/>
			<path id="XMLID_139_" class="st2" d="M1278.9,846.3c0,8.2-5,14.6-13.6,14.6c-8.7,0-13.6-6.4-13.6-14.6c0-8.2,4.9-14.6,13.6-14.6
				C1273.9,831.7,1278.9,838.1,1278.9,846.3z M1274.3,846.3c0-5.4-2.9-10.5-9-10.5c-6.2,0-9,5.1-9,10.5s2.8,10.5,9,10.5
				C1271.4,856.8,1274.3,851.7,1274.3,846.3z"/>
			<path id="XMLID_135_" class="st2" d="M1305.8,846.1c2.6,0.7,4.5,2.9,4.5,6.5c0,5.1-3.5,7.6-9.8,7.6h-14.2v-27.7h13.7
				c5.6,0,8.7,2.6,8.7,7c0,2.7-1.4,4.6-3,5.4v1.2H1305.8z M1290.9,843.9h8.7c3.4,0,4.5-1.8,4.5-3.7c0-2.1-1.2-3.8-4.5-3.8h-8.7
				V843.9z M1300.2,856.2c4,0,5.4-1.8,5.4-4.1c0-2.4-1.4-4.2-5.4-4.2h-9.3v8.3H1300.2z"/>
			<path id="XMLID_133_" class="st2" d="M1316.4,860.1v-6.4h5.7v7.4l-3.1,5.3h-3l3.1-5.3v-1H1316.4z"/>
		</g>
		<g id="XMLID_100_">
			<path id="XMLID_130_" class="st2" d="M635.2,914.5h-8.3v12.2h-4.7V899h4.7v11.4h8.4l5.8-11.4h4.9l-6.8,13.4l7.1,14.3h-5
				L635.2,914.5z"/>
			<path id="XMLID_127_" class="st2" d="M677.8,912.8c0,8.2-5,14.6-13.6,14.6c-8.7,0-13.6-6.4-13.6-14.6c0-8.2,4.9-14.6,13.6-14.6
				C672.8,898.3,677.8,904.6,677.8,912.8z M673.1,912.8c0-5.4-2.9-10.5-9-10.5c-6.2,0-9,5.1-9,10.5s2.8,10.5,9,10.5
				C670.2,923.3,673.1,918.3,673.1,912.8z"/>
			<path id="XMLID_125_" class="st2" d="M681.7,899h23.9v4.1H696v23.6h-4.7v-23.6h-9.6V899z"/>
			<path id="XMLID_122_" class="st2" d="M736.8,912.8c0,8.2-5,14.6-13.6,14.6c-8.7,0-13.6-6.4-13.6-14.6c0-8.2,4.9-14.6,13.6-14.6
				C731.8,898.3,736.8,904.6,736.8,912.8z M732.1,912.8c0-5.4-2.9-10.5-9-10.5c-6.2,0-9,5.1-9,10.5s2.8,10.5,9,10.5
				S732.1,918.3,732.1,912.8z"/>
			<path id="XMLID_119_" class="st2" d="M748.6,899v3h1.2c1.5-1.9,4.2-3.7,8.6-3.7c7.6,0,12.1,6.4,12.1,14.6
				c0,8.4-4.5,14.6-12.1,14.6c-4.4,0-7-1.7-8.5-3.7h-1.2v14H744v-38.7L748.6,899L748.6,899z M748.7,912.8c0,5.4,2.5,10.5,8.7,10.5
				c5.6,0,8.5-4.3,8.5-10.5s-3-10.5-8.5-10.5C751.3,902.3,748.7,907.4,748.7,912.8z"/>
			<path id="XMLID_117_" class="st2" d="M780,937.7l5.7-13.6L773.9,899h5l8.5,18.2h1.4l7.7-18.2h4.9l-16.6,38.7L780,937.7L780,937.7
				z"/>
			<path id="XMLID_114_" class="st2" d="M844.5,912.8c0,8.1-5,14.6-13.4,14.6c-7.8,0-12.7-5.6-13.3-12.9h-6.3v12.2h-4.6V899h4.6
				v11.4h6.5c0.9-7,5.7-12.1,13.1-12.1C839.5,898.3,844.5,904.7,844.5,912.8z M839.8,912.8c0-5.4-2.8-10.5-8.7-10.5
				c-6,0-8.7,5.1-8.7,10.5s2.7,10.5,8.7,10.5C837,923.3,839.8,918.3,839.8,912.8z"/>
			<path id="XMLID_112_" class="st2" d="M863.9,922.3h0.9c3.7,0,5.4-2.7,5.4-12.6V899h21.2v27.7h-4.7v-23.6h-12.1v6.8
				c0,12.8-3,16.9-9.8,16.9h-0.9L863.9,922.3L863.9,922.3z"/>
			<path id="XMLID_109_" class="st2" d="M938.1,912.8c0,8.1-5,14.6-13.4,14.6c-7.8,0-12.7-5.6-13.3-12.9h-6.3v12.2h-4.6V899h4.6
				v11.4h6.5c0.9-7,5.7-12.1,13.1-12.1C933.1,898.3,938.1,904.7,938.1,912.8z M933.5,912.8c0-5.4-2.8-10.5-8.7-10.5
				c-6,0-8.7,5.1-8.7,10.5s2.7,10.5,8.7,10.5C930.7,923.3,933.5,918.3,933.5,912.8z"/>
			<path id="XMLID_106_" class="st2" d="M971.2,913.3c0,7.9-5.1,14.1-13.7,14.1c-8.8,0-13.8-6-13.8-16.8c0-9.3,1.3-19,10.9-20.6
				l7.4-1.2c2-0.3,2.5-0.5,2.7-2.1h4.3c-0.2,3.1-1.2,5.4-5.4,6.2l-8.5,1.4c-4.9,0.9-6.6,4.3-7.2,9h1.2c2.4-3.1,5.1-4,9-4
				C966.4,899.3,971.2,905.5,971.2,913.3z M966.4,913.3c0-5.2-2.9-10-9-10s-9,4.8-9,10c0,5.1,2.9,10.1,9,10.1
				S966.4,918.4,966.4,913.3z"/>
			<path id="XMLID_103_" class="st2" d="M1001.3,899v27.7h-4.7v-10.9h-8.4c-0.6,0-1.1,0-1.7-0.1l-4.2,11h-4.9l4.7-12
				c-2.9-1.4-4.3-3.8-4.3-7.3c0-5.3,3.4-8.4,9.7-8.4H1001.3z M988,902.9c-4.2,0-5.6,1.7-5.6,4.5c0,2.7,1.4,4.3,5.6,4.3h8.6v-8.8H988
				z"/>
			<path id="XMLID_101_" class="st2" d="M1007.4,899h23.9v4.1h-9.6v23.6h-4.7v-23.6h-9.6V899z"/>
			<path id="XMLID_190_" class="st2" d="M1033.4,926.7v-6.4h5.7v6.4H1033.4z"/>
		</g>
	</g>
</g>
<g id="XMLID_1304_">
	<rect id="XMLID_349_" x="558.4" y="1131.4" class="st1" width="106.5" height="106.5"/>
	<line id="XMLID_347_" class="st0" x1="110" y1="1131.4" x2="1599.3" y2="1131.4"/>
	<line id="XMLID_346_" class="st0" x1="110" y1="1237.9" x2="1599.3" y2="1237.9"/>
	<rect id="XMLID_345_" x="1492.8" y="1131.4" class="st1" width="106.5" height="106.5"/>
	<text id="XMLID_344_" transform="matrix(1 0 0 1 1537.2344 1301.4412)" class="st2 st3 st4">x</text>
	<line id="XMLID_343_" class="st0" x1="1492.8" y1="1262" x2="1599.3" y2="1262"/>
	<text id="XMLID_341_" transform="matrix(1 0 0 1 602.8266 1301.4412)" class="st2 st3 st4">x</text>
	<line id="XMLID_340_" class="st0" x1="558.3" y1="1262" x2="664.9" y2="1262"/>
	<g id="XMLID_312_">
		<g id="XMLID_313_">
			<g id="XMLID_314_">
				<path id="XMLID_324_" class="st2" d="M184.5,1237.9v-9.8h-5c-6.5,8.4-17,12.6-31.4,12.6c-11.7,0-20.9-3.3-27.8-10
					c-6.9-6.9-10.3-15.1-10.3-24.9c0-9.6,3.6-18,10.5-25.1s17.6-10.7,31.8-10.7h31.4v-3.1c0-12.3-7.3-19.5-22.4-19.5
					c-13.2,0-20.3,4.6-21.3,13.6h-23.5c1-19.9,18.6-32.2,44-32.2c28.7,0,46,12.8,46,38.5v70.7L184.5,1237.9L184.5,1237.9z
					 M175.5,1213.7c5.4-5.2,8.2-11.5,8.2-18.8v-8.2h-27.2c-14.9,0-22.6,6.5-22.6,17.6c0,10.9,8,17.2,21.6,17.2
					C163.4,1221.4,170.1,1218.9,175.5,1213.7z"/>
				<path id="XMLID_322_" class="st2" d="M289.2,1131.4v22h-9.6c-21.6,0-33.3,12.3-33.3,34.7v49.8h-23.6v-106.5h22.8v12.3h5
					c6.1-8.2,16.1-12.3,29.7-12.3H289.2z"/>
				<path id="XMLID_320_" class="st2" d="M322.6,1131.4h25.1v20.1h-25.1v51.9c0,9.4,5.4,14,16.3,14h8.8v20.5h-9.2
					c-25.7,0-39.6-8.6-39.6-31.4v-102.1h23.7L322.6,1131.4L322.6,1131.4z"/>
				<path id="XMLID_317_" class="st2" d="M445.5,1225.2c-9.6,10.3-22.6,15.5-39.1,15.5s-29.5-5.2-39.3-15.5
					c-9.6-10.5-14.4-24.1-14.4-40.6s4.8-29.9,14.4-40.2c9.8-10.5,22.8-15.7,39.3-15.7s29.5,5.2,39.1,15.7
					c9.8,10.3,14.6,23.6,14.6,40.2C460.1,1201.1,455.3,1214.7,445.5,1225.2z M406.3,1148.8c-19.5,0-30.1,15.7-30.1,35.8
					c0,20.3,10.7,36,30.1,36c19.5,0,30.1-15.7,30.1-36C436.5,1164.5,425.8,1148.8,406.3,1148.8z"/>
				<path id="XMLID_315_" class="st2" d="M531.8,1159.9c-1.3-7.7-8.2-11.5-20.9-11.5c-12.8,0-19.3,3.8-19.3,11.1
					c0,6.5,4.2,9,13.6,10.7l20.7,3.3c21.6,3.6,32.4,14.4,32.4,33.1c0,9.4-4,17.6-12.1,24.3c-8,6.5-19,9.8-33.5,9.8
					c-30.1,0-46.5-13.2-48.8-35h23.7c1.9,10.3,10,15.3,24.7,15.3c14.9,0,22.4-4.6,22.4-13.8c0-8.2-5-11.9-17.4-14.2l-22.2-3.8
					c-16.7-2.7-27.2-12.1-27.2-28c0-19,15.1-32.4,43.7-32.4c25.3,0,41.4,12.1,43.7,31.2L531.8,1159.9L531.8,1159.9z"/>
			</g>
		</g>
	</g>
	<g id="XMLID_192_">
		<g id="XMLID_226_">
			<path id="XMLID_283_" class="st2" d="M701.5,1151.8c0,11.3-6.4,20.3-18.3,20.3c-12,0-18.3-9.1-18.3-20.3
				c0-11.3,6.3-20.3,18.3-20.3C695.1,1131.4,701.5,1140.5,701.5,1151.8z M696.5,1151.8c0-8.2-4-15.8-13.3-15.8s-13.3,7.6-13.3,15.8
				c0,8.2,4,15.8,13.3,15.8C692.5,1167.6,696.5,1159.9,696.5,1151.8z"/>
			<path id="XMLID_280_" class="st2" d="M737.7,1167.3v11.9h-4.6v-7.9h-24v7.9h-4.6v-11.9h3.7c1.8-3.7,3.4-9.2,3.4-16v-7.6h20.9
				v23.6H737.7z M727.9,1147.7H716v3.5c0,7-1.3,12.3-3,16h14.9V1147.7z"/>
			<path id="XMLID_277_" class="st2" d="M767.8,1157.5h-21.1c0.2,6.6,3.1,10.6,8.8,10.6c3.9,0,6.2-1.6,7-4.3h4.7
				c-0.9,4.7-4.9,8.4-11.8,8.4c-8.6,0-13.5-6.3-13.5-14.8s4.9-14.3,13.4-14.3c8.2,0,12.2,6.1,12.4,12.9L767.8,1157.5L767.8,1157.5z
				 M746.9,1153.6h16c-0.3-3.5-3-6.5-7.6-6.5C750.3,1147,747.5,1150,746.9,1153.6z"/>
			<path id="XMLID_275_" class="st2" d="M777.6,1171.4h-4.9l6.3-14.2l-5.9-13.5h4.8l5,11.5h7.1v-11.5h4.5v11.5h7.1l5-11.5h4.8
				l-5.9,13.5l6.3,14.2h-4.9l-5.3-12.1h-7.1v12.1H790v-12.1h-7.1L777.6,1171.4z"/>
			<path id="XMLID_272_" class="st2" d="M848.2,1167.3v11.9h-4.6v-7.9h-24v7.9H815v-11.9h3.7c1.8-3.7,3.4-9.2,3.4-16v-7.6H843v23.6
				H848.2z M838.5,1147.7h-11.9v3.5c0,7-1.3,12.3-3,16h14.9V1147.7z"/>
			<path id="XMLID_267_" class="st2" d="M871.9,1168.5h-1.2c-1.7,2.1-4.7,3.6-8.6,3.6c-6.4,0-9.9-4.3-9.9-9c0-4.5,2.9-9.2,10.6-9.2
				h9v-1.1c0-3.4-1.9-5.8-6.8-5.8c-4.1,0-6.2,1.6-6.4,4h-4.7c0.4-5.1,4.8-8.1,11-8.1c7,0,11.4,3.4,11.4,9.6v18.9h-4.4L871.9,1168.5
				L871.9,1168.5z M871.8,1160.2v-2.5h-8.3c-4.6,0-6.7,2-6.7,5.3c0,3.1,2.3,5.1,6.4,5.1C867.9,1168,871.8,1164.6,871.8,1160.2z"/>
			<path id="XMLID_265_" class="st2" d="M920,1171.4v-23.6h-15.1v23.6h-4.7v-27.7h24.5v27.7H920z"/>
			<path id="XMLID_262_" class="st2" d="M938.2,1143.7v3h1.2c1.5-1.9,4.2-3.7,8.6-3.7c7.6,0,12.1,6.4,12.1,14.6
				c0,8.4-4.5,14.6-12.1,14.6c-4.4,0-7-1.7-8.5-3.7h-1.2v14h-4.7v-38.7h4.6V1143.7z M938.3,1157.5c0,5.4,2.5,10.5,8.7,10.5
				c5.6,0,8.5-4.3,8.5-10.5s-3-10.5-8.5-10.5C940.8,1147,938.3,1152.1,938.3,1157.5z"/>
			<path id="XMLID_259_" class="st2" d="M993,1157.5c0,8.2-5,14.6-13.6,14.6c-8.7,0-13.6-6.4-13.6-14.6s4.9-14.6,13.6-14.6
				C988,1143,993,1149.3,993,1157.5z M988.3,1157.5c0-5.4-2.9-10.5-9-10.5c-6.2,0-9,5.1-9,10.5s2.8,10.5,9,10.5
				S988.3,1163,988.3,1157.5z"/>
			<path id="XMLID_255_" class="st2" d="M1017.8,1182.4h-4.6v-11h-0.9c-8.8,0-13.7-5.8-13.7-13.9c0-8,4.8-13.9,13.6-13.9h0.9v-12.3
				h4.6v12.3h0.9c8.7,0,13.6,5.8,13.6,13.9c0,8.5-5.2,13.9-14.5,13.9v11H1017.8z M1012.3,1167.4h0.9v-19.8h-0.9
				c-6.2,0-9.1,4.5-9.1,9.9S1006.1,1167.4,1012.3,1167.4z M1018.6,1167.4c6.2,0,9.1-4.5,9.1-9.9s-2.9-9.9-9.1-9.9h-0.8v19.8H1018.6z
				"/>
			<path id="XMLID_252_" class="st2" d="M1063.6,1157.5h-21.1c0.2,6.6,3.1,10.6,8.8,10.6c3.9,0,6.2-1.6,7-4.3h4.7
				c-0.9,4.7-4.9,8.4-11.8,8.4c-8.6,0-13.5-6.3-13.5-14.8s4.9-14.3,13.4-14.3c8.2,0,12.2,6.1,12.4,12.9L1063.6,1157.5L1063.6,1157.5
				z M1042.8,1153.6h16c-0.3-3.5-3-6.5-7.6-6.5C1046.2,1147,1043.4,1150,1042.8,1153.6z"/>
			<path id="XMLID_250_" class="st2" d="M1094.3,1163c-1,5.4-5.2,9.1-11.7,9.1c-8.6,0-13.5-6.4-13.5-14.6c0-8.4,4.8-14.6,13.5-14.6
				c6.6,0,10.6,3.6,11.5,8.7h-4.7c-0.9-2.8-3-4.7-6.8-4.7c-6.3,0-8.8,4.9-8.8,10.4c0,5.6,2.6,10.6,8.8,10.6c4,0,6.3-1.9,7-5
				L1094.3,1163L1094.3,1163z"/>
			<path id="XMLID_248_" class="st2" d="M1124.7,1163c-1,5.4-5.2,9.1-11.7,9.1c-8.6,0-13.5-6.4-13.5-14.6c0-8.4,4.8-14.6,13.5-14.6
				c6.6,0,10.6,3.6,11.5,8.7h-4.7c-0.9-2.8-3-4.7-6.8-4.7c-6.3,0-8.8,4.9-8.8,10.4c0,5.6,2.6,10.6,8.8,10.6c4,0,6.3-1.9,7-5
				L1124.7,1163L1124.7,1163z"/>
			<path id="XMLID_246_" class="st2" d="M1131.7,1171.4v-27.7h4.6v21.4h1.2l12.1-21.4h6.8v27.7h-4.6v-21.5h-1.2l-12.4,21.4
				L1131.7,1171.4L1131.7,1171.4z"/>
			<path id="XMLID_243_" class="st2" d="M1191,1157.5c0,8.2-5,14.6-13.6,14.6c-8.7,0-13.6-6.4-13.6-14.6s4.9-14.6,13.6-14.6
				C1186,1143,1191,1149.3,1191,1157.5z M1186.3,1157.5c0-5.4-2.9-10.5-9-10.5c-6.2,0-9,5.1-9,10.5s2.8,10.5,9,10.5
				S1186.3,1163,1186.3,1157.5z"/>
			<path id="XMLID_241_" class="st2" d="M1218.3,1171.4v-12.2H1203v12.2h-4.7v-27.7h4.7v11.4h15.3v-11.4h4.7v27.7H1218.3z"/>
			<path id="XMLID_238_" class="st2" d="M1249.6,1168.5h-1.2c-1.7,2.1-4.7,3.6-8.6,3.6c-6.4,0-9.9-4.3-9.9-9c0-4.5,2.9-9.2,10.6-9.2
				h9v-1.1c0-3.4-1.9-5.8-6.8-5.8c-4.1,0-6.2,1.6-6.4,4h-4.7c0.4-5.1,4.8-8.1,11-8.1c7,0,11.4,3.4,11.4,9.6v18.9h-4.4V1168.5z
				 M1249.5,1160.2v-2.5h-8.3c-4.6,0-6.7,2-6.7,5.3c0,3.1,2.3,5.1,6.4,5.1C1245.6,1168,1249.5,1164.6,1249.5,1160.2z"/>
			<path id="XMLID_236_" class="st2" d="M1259.5,1167h0.9c3.7,0,5.4-2.7,5.4-12.6v-10.7h21.2v27.7h-4.7v-23.6h-12.1v6.8
				c0,12.8-3,16.9-9.8,16.9h-0.9V1167z"/>
			<path id="XMLID_233_" class="st2" d="M1321.6,1157.5c0,8.2-5,14.6-13.6,14.6c-8.7,0-13.6-6.4-13.6-14.6s4.9-14.6,13.6-14.6
				C1316.6,1143,1321.6,1149.3,1321.6,1157.5z M1316.9,1157.5c0-5.4-2.9-10.5-9-10.5c-6.2,0-9,5.1-9,10.5s2.8,10.5,9,10.5
				C1314,1168,1316.9,1163,1316.9,1157.5z"/>
			<path id="XMLID_229_" class="st2" d="M1348.4,1157.3c2.6,0.7,4.5,2.9,4.5,6.5c0,5.1-3.5,7.6-9.8,7.6h-14.2v-27.7h13.7
				c5.6,0,8.7,2.6,8.7,7c0,2.7-1.4,4.6-3,5.4v1.2H1348.4z M1333.5,1155.2h8.7c3.4,0,4.5-1.8,4.5-3.7c0-2.1-1.2-3.8-4.5-3.8h-8.7
				V1155.2z M1342.8,1167.4c4,0,5.4-1.8,5.4-4.1c0-2.4-1.4-4.2-5.4-4.2h-9.3v8.3L1342.8,1167.4L1342.8,1167.4z"/>
			<path id="XMLID_227_" class="st2" d="M1359.1,1171.4v-6.4h5.7v7.4l-3.1,5.3h-3l3.1-5.3v-1H1359.1z"/>
		</g>
		<g id="XMLID_193_">
			<path id="XMLID_224_" class="st2" d="M677.9,1225.7h-8.3v12.2h-4.7v-27.7h4.7v11.4h8.4l5.8-11.4h4.9l-6.8,13.4l7.1,14.3h-5
				L677.9,1225.7z"/>
			<path id="XMLID_221_" class="st2" d="M720.4,1224.1c0,8.2-5,14.6-13.6,14.6c-8.7,0-13.6-6.4-13.6-14.6s4.9-14.6,13.6-14.6
				C715.4,1209.5,720.4,1215.9,720.4,1224.1z M715.7,1224.1c0-5.4-2.9-10.5-9-10.5c-6.2,0-9,5.1-9,10.5s2.8,10.5,9,10.5
				S715.7,1229.5,715.7,1224.1z"/>
			<path id="XMLID_219_" class="st2" d="M724.3,1210.2h23.9v4.1h-9.6v23.6h-4.7v-23.6h-9.6L724.3,1210.2L724.3,1210.2z"/>
			<path id="XMLID_216_" class="st2" d="M779.4,1224.1c0,8.2-5,14.6-13.6,14.6c-8.7,0-13.6-6.4-13.6-14.6s4.9-14.6,13.6-14.6
				C774.4,1209.5,779.4,1215.9,779.4,1224.1z M774.8,1224.1c0-5.4-2.9-10.5-9-10.5c-6.2,0-9,5.1-9,10.5s2.8,10.5,9,10.5
				C771.9,1234.6,774.8,1229.5,774.8,1224.1z"/>
			<path id="XMLID_213_" class="st2" d="M791.2,1210.2v3h1.2c1.5-1.9,4.2-3.7,8.6-3.7c7.6,0,12.1,6.4,12.1,14.6
				c0,8.4-4.5,14.6-12.1,14.6c-4.4,0-7-1.7-8.5-3.7h-1.2v14h-4.7v-38.7h4.6V1210.2z M791.4,1224.1c0,5.4,2.5,10.5,8.7,10.5
				c5.6,0,8.5-4.3,8.5-10.5s-3-10.5-8.5-10.5C793.9,1213.6,791.4,1218.6,791.4,1224.1z"/>
			<path id="XMLID_211_" class="st2" d="M822.6,1248.9l5.7-13.6l-11.8-25.1h5l8.5,18.2h1.4l7.7-18.2h4.9l-16.6,38.7H822.6z"/>
			<path id="XMLID_208_" class="st2" d="M887.1,1224.1c0,8.1-5,14.6-13.4,14.6c-7.8,0-12.7-5.6-13.3-12.9h-6.3v12.2h-4.6v-27.7h4.6
				v11.4h6.5c0.9-7,5.7-12.1,13.1-12.1C882.1,1209.5,887.1,1215.9,887.1,1224.1z M882.4,1224.1c0-5.4-2.8-10.5-8.7-10.5
				c-6,0-8.7,5.1-8.7,10.5s2.7,10.5,8.7,10.5C879.6,1234.6,882.4,1229.5,882.4,1224.1z"/>
			<path id="XMLID_206_" class="st2" d="M906.6,1233.5h0.9c3.7,0,5.4-2.7,5.4-12.6v-10.7h21.2v27.7h-4.7v-23.6h-12.1v6.8
				c0,12.8-3,16.9-9.8,16.9h-0.9L906.6,1233.5L906.6,1233.5z"/>
			<path id="XMLID_203_" class="st2" d="M980.8,1224.1c0,8.1-5,14.6-13.4,14.6c-7.8,0-12.7-5.6-13.3-12.9h-6.3v12.2h-4.6v-27.7h4.6
				v11.4h6.5c0.9-7,5.7-12.1,13.1-12.1C975.8,1209.5,980.8,1215.9,980.8,1224.1z M976.1,1224.1c0-5.4-2.8-10.5-8.7-10.5
				c-6,0-8.7,5.1-8.7,10.5s2.7,10.5,8.7,10.5C973.3,1234.6,976.1,1229.5,976.1,1224.1z"/>
			<path id="XMLID_200_" class="st2" d="M1013.8,1224.6c0,7.9-5.1,14.1-13.7,14.1c-8.8,0-13.8-6-13.8-16.8c0-9.3,1.3-19,10.9-20.6
				l7.4-1.2c2-0.3,2.5-0.5,2.7-2.1h4.3c-0.2,3.1-1.2,5.4-5.4,6.2l-8.5,1.4c-4.9,0.9-6.6,4.3-7.2,9h1.2c2.4-3.1,5.1-4,9-4
				C1009.1,1210.5,1013.8,1216.7,1013.8,1224.6z M1009.1,1224.5c0-5.2-2.9-10-9-10c-6.2,0-9,4.8-9,10c0,5.1,2.9,10.1,9,10.1
				C1006.2,1234.6,1009.1,1229.6,1009.1,1224.5z"/>
			<path id="XMLID_197_" class="st2" d="M1043.9,1210.2v27.7h-4.7V1227h-8.4c-0.6,0-1.1,0-1.7-0.1l-4.2,11h-4.9l4.7-12
				c-2.9-1.4-4.3-3.8-4.3-7.3c0-5.3,3.4-8.4,9.7-8.4L1043.9,1210.2L1043.9,1210.2z M1030.6,1214.2c-4.2,0-5.6,1.7-5.6,4.5
				c0,2.7,1.4,4.3,5.6,4.3h8.6v-8.8H1030.6z"/>
			<path id="XMLID_195_" class="st2" d="M1050,1210.2h23.9v4.1h-9.6v23.6h-4.7v-23.6h-9.6V1210.2z"/>
			<path id="XMLID_194_" class="st2" d="M1076,1237.9v-6.4h5.7v6.4H1076z"/>
		</g>
	</g>
	<rect id="XMLID_284_" x="610" y="1118.1" class="st2" width="3.3" height="133.2"/>
</g>
<g id="XMLID_97_">
	<line id="XMLID_667_" class="st0" x1="120.7" y1="332.6" x2="1608.5" y2="332.6"/>
	<line id="XMLID_669_" class="st0" x1="120.7" y1="490.7" x2="1608.5" y2="490.7"/>
	<rect id="XMLID_668_" x="1451.9" y="332.6" class="st1" width="158.1" height="158.1"/>
	<text id="XMLID_671_" transform="matrix(1 0 0 1 1517.8711 577.6149)" class="st2 st3 st5">x</text>
	<line id="XMLID_673_" class="st0" x1="1451.9" y1="526.4" x2="1610" y2="526.4"/>
	<rect id="XMLID_672_" x="786" y="332.6" class="st1" width="79.1" height="158.3"/>
	<g id="XMLID_652_">
		<g id="XMLID_298_">
			<path id="XMLID_308_" class="st2" d="M231.3,490.7v-14.6h-7.5c-9.6,12.4-25.2,18.6-46.6,18.6c-17.4,0-31.1-5-41.3-14.9
				c-10.3-10.3-15.2-22.4-15.2-37c0-14.3,5.3-26.7,15.5-37.3c10.3-10.6,26.1-15.8,47.2-15.8H230V385c0-18.3-10.9-28.9-33.2-28.9
				c-19.6,0-30.1,6.8-31.7,20.2h-34.8c1.6-29.5,27.6-47.8,65.2-47.8c42.6,0,68.3,19,68.3,57.2v105L231.3,490.7L231.3,490.7z
				 M217.9,454.7c8.1-7.8,12.1-17.1,12.1-28v-12.1h-40.3c-22.1,0-33.6,9.6-33.6,26.1c0,16.2,11.8,25.5,32,25.5
				C199.9,466.2,209.9,462.5,217.9,454.7z"/>
			<path id="XMLID_306_" class="st2" d="M386.6,332.6v32.6h-14.3c-32,0-49.4,18.3-49.4,51.6v73.9h-35.1V332.6h33.9v18.3h7.5
				c9-12.1,23.9-18.3,44.1-18.3H386.6z"/>
			<path id="XMLID_304_" class="st2" d="M436.2,332.6h37.3v29.8h-37.3v77c0,14,8.1,20.8,24.2,20.8h13v30.4h-13.7
				c-38.2,0-58.7-12.7-58.7-46.6V292.6h35.1v40H436.2z"/>
			<path id="XMLID_301_" class="st2" d="M618.7,471.8c-14.3,15.2-33.6,23-58.1,23s-43.8-7.8-58.4-23c-14.3-15.5-21.4-35.7-21.4-60.3
				c0-24.5,7.1-44.4,21.4-59.6c14.6-15.5,33.9-23.3,58.4-23.3s43.8,7.8,58.1,23.3c14.6,15.2,21.7,35.1,21.7,59.6
				C640.4,436.1,633.3,456.3,618.7,471.8z M560.6,358.4c-28.9,0-44.7,23.3-44.7,53.1c0,30.1,15.8,53.4,44.7,53.4
				s44.7-23.3,44.7-53.4C605.3,381.7,589.5,358.4,560.6,358.4z"/>
			<path id="XMLID_299_" class="st2" d="M746.8,374.9c-1.9-11.5-12.1-17.1-31.1-17.1s-28.6,5.6-28.6,16.5c0,9.6,6.2,13.4,20.2,15.8
				l30.8,5c32,5.3,48.2,21.4,48.2,49.1c0,14-5.9,26.1-18,36c-11.8,9.6-28.3,14.6-49.7,14.6c-44.7,0-69-19.6-72.4-51.9h35.1
				c2.8,15.2,14.9,22.7,36.7,22.7c22.1,0,33.2-6.8,33.2-20.5c0-12.1-7.5-17.7-25.8-21.1l-32.9-5.6c-24.9-4-40.4-18-40.4-41.6
				c0-28.3,22.4-48.2,64.9-48.2c37.6,0,61.5,18,64.9,46.3L746.8,374.9L746.8,374.9z"/>
		</g>
	</g>
	<text id="XMLID_674_" transform="matrix(1 0 0 1 777.2109 577.614)" class="st2 st3 st5">1/2x</text>
	<line id="XMLID_676_" class="st0" x1="786" y1="526.4" x2="865.1" y2="526.4"/>
	<g id="XMLID_714_">
		<g id="XMLID_711_">
			<path id="XMLID_716_" class="st2" d="M898.6,351.2c0,10.3-5.8,18.6-16.7,18.6c-11,0-16.7-8.3-16.7-18.6
				c0-10.3,5.8-18.6,16.7-18.6C892.8,332.6,898.6,340.9,898.6,351.2z M894,351.2c0-7.5-3.6-14.5-12.2-14.5c-8.6,0-12.2,7-12.2,14.5
				s3.6,14.5,12.2,14.5S894,358.7,894,351.2z"/>
			<path id="XMLID_719_" class="st2" d="M931.8,365.5v10.9h-4.2v-7.2h-21.9v7.2h-4.2v-10.9h3.4c1.6-3.4,3.1-8.4,3.1-14.7v-6.9h19.1
				v21.6H931.8z M922.8,347.6h-10.9v3.2c0,6.4-1.2,11.3-2.8,14.7h13.6v-17.9H922.8z"/>
			<path id="XMLID_722_" class="st2" d="M959.3,356.5H940c0.2,6,2.9,9.7,8.1,9.7c3.6,0,5.7-1.5,6.4-3.9h4.3
				c-0.8,4.3-4.5,7.6-10.8,7.6c-7.9,0-12.3-5.8-12.3-13.6c0-7.8,4.5-13.1,12.2-13.1c7.5,0,11.2,5.6,11.3,11.8L959.3,356.5
				L959.3,356.5z M940.2,352.9h14.6c-0.3-3.2-2.7-6-7-6C943.3,346.9,940.8,349.7,940.2,352.9z"/>
			<path id="XMLID_725_" class="st2" d="M968.2,369.2h-4.5l5.7-13l-5.4-12.3h4.4l4.6,10.5h6.5v-10.5h4.1v10.5h6.5l4.6-10.5h4.4
				l-5.4,12.3l5.8,13H995l-4.9-11.1h-6.5v11.1h-4.1v-11.1H973L968.2,369.2z"/>
			<path id="XMLID_727_" class="st2" d="M1032.9,365.5v10.9h-4.2v-7.2h-21.9v7.2h-4.2v-10.9h3.4c1.6-3.4,3.1-8.4,3.1-14.7v-6.9h19.1
				v21.6H1032.9z M1023.9,347.6H1013v3.2c0,6.4-1.2,11.3-2.8,14.7h13.6v-17.9H1023.9z"/>
			<path id="XMLID_730_" class="st2" d="M1054.6,366.5h-1.1c-1.6,2-4.3,3.3-7.9,3.3c-5.8,0-9.1-3.9-9.1-8.2c0-4.1,2.7-8.4,9.7-8.4
				h8.2v-1c0-3.1-1.8-5.3-6.2-5.3c-3.8,0-5.7,1.5-5.9,3.7h-4.3c0.4-4.7,4.4-7.4,10.1-7.4c6.4,0,10.5,3.1,10.5,8.8v17.3h-4V366.5z
				 M1054.4,358.9v-2.3h-7.6c-4.2,0-6.1,1.8-6.1,4.8c0,2.9,2.1,4.7,5.9,4.7C1050.9,366.1,1054.4,362.9,1054.4,358.9z"/>
		</g>
		<g id="XMLID_806_">
			<path id="XMLID_733_" class="st2" d="M883.2,430.1v-21.6h-13.8v21.6h-4.3v-25.3h22.4v25.3H883.2z"/>
			<path id="XMLID_735_" class="st2" d="M899.9,404.7v2.7h1.1c1.4-1.8,3.9-3.4,7.9-3.4c7,0,11.1,5.8,11.1,13.3
				c0,7.6-4.1,13.3-11.1,13.3c-4,0-6.4-1.6-7.7-3.4H900V440h-4.3v-35.4h4.2V404.7z M900,417.4c0,5,2.3,9.6,7.9,9.6
				c5.1,0,7.8-4,7.8-9.6s-2.7-9.6-7.8-9.6C902.3,407.8,900,412.4,900,417.4z"/>
			<path id="XMLID_738_" class="st2" d="M950.1,417.4c0,7.5-4.6,13.3-12.5,13.3s-12.5-5.8-12.5-13.3s4.5-13.3,12.5-13.3
				C945.5,404.1,950.1,409.9,950.1,417.4z M945.8,417.4c0-5-2.6-9.6-8.2-9.6c-5.6,0-8.2,4.6-8.2,9.6s2.6,9.6,8.2,9.6
				S945.8,422.4,945.8,417.4z"/>
			<path id="XMLID_741_" class="st2" d="M972.7,440.1h-4.2V430h-0.8c-8,0-12.5-5.3-12.5-12.7c0-7.3,4.4-12.7,12.5-12.7h0.9v-11.2
				h4.2v11.2h0.8c8,0,12.5,5.3,12.5,12.7c0,7.8-4.7,12.7-13.3,12.7v10.1H972.7z M967.7,426.5h0.8v-18.1h-0.8c-5.6,0-8.3,4.1-8.3,9.1
				C959.4,422.3,962,426.5,967.7,426.5z M973.4,426.5c5.7,0,8.3-4.1,8.3-9.1c0-4.9-2.7-9.1-8.3-9.1h-0.7v18.1h0.7V426.5z"/>
			<path id="XMLID_745_" class="st2" d="M1014.7,417.3h-19.3c0.2,6,2.9,9.7,8.1,9.7c3.6,0,5.7-1.5,6.4-3.9h4.3
				c-0.8,4.3-4.5,7.6-10.8,7.6c-7.9,0-12.3-5.8-12.3-13.6s4.5-13.1,12.2-13.1c7.5,0,11.2,5.6,11.3,11.8L1014.7,417.3L1014.7,417.3z
				 M995.6,413.8h14.6c-0.3-3.2-2.7-6-7-6C998.7,407.8,996.2,410.6,995.6,413.8z"/>
			<path id="XMLID_748_" class="st2" d="M1042.8,422.4c-1,5-4.8,8.3-10.7,8.3c-7.9,0-12.3-5.8-12.3-13.3c0-7.6,4.4-13.3,12.3-13.3
				c6,0,9.7,3.3,10.5,8h-4.3c-0.8-2.6-2.8-4.3-6.2-4.3c-5.7,0-8,4.5-8,9.5c0,5.1,2.4,9.7,8,9.7c3.6,0,5.7-1.8,6.4-4.6L1042.8,422.4
				L1042.8,422.4z"/>
			<path id="XMLID_750_" class="st2" d="M1070.6,422.4c-1,5-4.8,8.3-10.7,8.3c-7.9,0-12.3-5.8-12.3-13.3c0-7.6,4.4-13.3,12.3-13.3
				c6,0,9.7,3.3,10.5,8h-4.3c-0.8-2.6-2.8-4.3-6.2-4.3c-5.7,0-8,4.5-8,9.5c0,5.1,2.4,9.7,8,9.7c3.6,0,5.7-1.8,6.4-4.6L1070.6,422.4
				L1070.6,422.4z"/>
			<path id="XMLID_752_" class="st2" d="M1077,430.1v-25.3h4.2v19.6h1.1l11.1-19.6h6.2v25.3h-4.2v-19.6h-1.1l-11.3,19.6H1077z"/>
			<path id="XMLID_754_" class="st2" d="M1131.2,417.4c0,7.5-4.6,13.3-12.5,13.3c-7.9,0-12.5-5.8-12.5-13.3s4.5-13.3,12.5-13.3
				S1131.2,409.9,1131.2,417.4z M1127,417.4c0-5-2.6-9.6-8.2-9.6c-5.6,0-8.2,4.6-8.2,9.6s2.6,9.6,8.2,9.6
				C1124.3,427,1127,422.4,1127,417.4z"/>
			<path id="XMLID_757_" class="st2" d="M1156.2,430.1v-11.2h-14v11.2h-4.3v-25.3h4.3v10.5h14v-10.5h4.3v25.3H1156.2z"/>
			<path id="XMLID_759_" class="st2" d="M1184.9,427.4h-1.1c-1.6,2-4.3,3.3-7.9,3.3c-5.8,0-9.1-3.9-9.1-8.2c0-4.1,2.7-8.4,9.7-8.4
				h8.2v-1c0-3.1-1.8-5.3-6.2-5.3c-3.8,0-5.7,1.5-5.9,3.7h-4.3c0.4-4.7,4.4-7.4,10.1-7.4c6.4,0,10.5,3.1,10.5,8.8v17.3h-4
				L1184.9,427.4L1184.9,427.4z M1184.7,419.8v-2.3h-7.6c-4.2,0-6.1,1.8-6.1,4.8c0,2.9,2.1,4.7,5.9,4.7
				C1181.2,427,1184.7,423.8,1184.7,419.8z"/>
			<path id="XMLID_762_" class="st2" d="M1193.9,426h0.9c3.4,0,5-2.5,5-11.5v-9.8h19.4V430h-4.3v-21.6h-11.1v6.2
				c0,11.7-2.7,15.4-9,15.4h-0.9V426z"/>
			<path id="XMLID_764_" class="st2" d="M1250.7,417.4c0,7.5-4.6,13.3-12.5,13.3s-12.5-5.8-12.5-13.3s4.5-13.3,12.5-13.3
				S1250.7,409.9,1250.7,417.4z M1246.5,417.4c0-5-2.6-9.6-8.2-9.6s-8.2,4.6-8.2,9.6s2.6,9.6,8.2,9.6
				C1243.8,427,1246.5,422.4,1246.5,417.4z"/>
			<path id="XMLID_767_" class="st2" d="M1275.3,417.2c2.4,0.6,4.1,2.7,4.1,5.9c0,4.6-3.2,6.9-9,6.9h-13v-25.3h12.6
				c5.1,0,8,2.4,8,6.4c0,2.5-1.3,4.2-2.7,5V417.2z M1261.6,415.2h7.9c3.1,0,4.1-1.6,4.1-3.4c0-2-1.1-3.5-4.1-3.5h-7.9V415.2z
				 M1270.2,426.5c3.7,0,4.9-1.6,4.9-3.8s-1.3-3.8-4.9-3.8h-8.6v7.6L1270.2,426.5L1270.2,426.5z"/>
			<path id="XMLID_771_" class="st2" d="M1285,430.1v-5.8h5.2v6.8l-2.8,4.8h-2.7l2.8-4.8v-1H1285z"/>
		</g>
		<g id="XMLID_807_">
			<path id="XMLID_773_" class="st2" d="M877,479.8h-7.6V491h-4.3v-25.3h4.3v10.5h7.7l5.3-10.5h4.5l-6.2,12.2l6.5,13.1h-4.6
				L877,479.8z"/>
			<path id="XMLID_775_" class="st2" d="M915.9,478.3c0,7.5-4.6,13.3-12.5,13.3s-12.5-5.8-12.5-13.3s4.5-13.3,12.5-13.3
				C911.3,465,915.9,470.8,915.9,478.3z M911.6,478.3c0-5-2.6-9.6-8.2-9.6c-5.6,0-8.2,4.6-8.2,9.6s2.6,9.6,8.2,9.6
				S911.6,483.3,911.6,478.3z"/>
			<path id="XMLID_778_" class="st2" d="M919.5,465.6h21.8v3.7h-8.8v21.6h-4.3v-21.6h-8.8L919.5,465.6L919.5,465.6z"/>
			<path id="XMLID_780_" class="st2" d="M969.9,478.3c0,7.5-4.6,13.3-12.5,13.3s-12.5-5.8-12.5-13.3s4.5-13.3,12.5-13.3
				C965.3,465,969.9,470.8,969.9,478.3z M965.7,478.3c0-5-2.6-9.6-8.2-9.6c-5.6,0-8.2,4.6-8.2,9.6s2.6,9.6,8.2,9.6
				C963,487.9,965.7,483.3,965.7,478.3z"/>
			<path id="XMLID_783_" class="st2" d="M980.7,465.6v2.7h1.1c1.4-1.8,3.9-3.4,7.9-3.4c7,0,11.1,5.8,11.1,13.3
				c0,7.6-4.1,13.3-11.1,13.3c-4,0-6.4-1.6-7.7-3.4h-1.1v12.8h-4.3v-35.4h4.1V465.6z M980.8,478.3c0,5,2.3,9.6,7.9,9.6
				c5.1,0,7.8-4,7.8-9.6s-2.7-9.6-7.8-9.6C983.2,468.7,980.8,473.3,980.8,478.3z"/>
			<path id="XMLID_786_" class="st2" d="M1009.5,501l5.2-12.4l-10.8-23h4.6l7.7,16.7h1.3l7-16.7h4.5l-15.2,35.4H1009.5z"/>
			<path id="XMLID_788_" class="st2" d="M1068.5,478.3c0,7.4-4.6,13.3-12.3,13.3c-7.1,0-11.6-5.1-12.2-11.8h-5.8V491h-4.2v-25.3h4.2
				v10.5h5.9c0.8-6.4,5.2-11.1,12-11.1C1063.9,465,1068.5,470.8,1068.5,478.3z M1064.2,478.3c0-5-2.6-9.6-8-9.6c-5.5,0-8,4.6-8,9.6
				s2.5,9.6,8,9.6C1061.6,487.9,1064.2,483.3,1064.2,478.3z"/>
			<path id="XMLID_791_" class="st2" d="M1086.3,486.9h0.9c3.4,0,5-2.5,5-11.5v-9.8h19.4v25.3h-4.3v-21.6h-11.1v6.2
				c0,11.7-2.7,15.4-9,15.4h-0.9V486.9L1086.3,486.9z"/>
			<path id="XMLID_793_" class="st2" d="M1154.2,478.3c0,7.4-4.6,13.3-12.3,13.3c-7.1,0-11.6-5.1-12.2-11.8h-5.8V491h-4.2v-25.3h4.2
				v10.5h5.9c0.8-6.4,5.2-11.1,12-11.1C1149.6,465,1154.2,470.8,1154.2,478.3z M1149.9,478.3c0-5-2.6-9.6-8-9.6c-5.5,0-8,4.6-8,9.6
				s2.5,9.6,8,9.6C1147.3,487.9,1149.9,483.3,1149.9,478.3z"/>
			<path id="XMLID_796_" class="st2" d="M1184.4,478.7c0,7.2-4.7,12.9-12.5,12.9c-8,0-12.6-5.5-12.6-15.3c0-8.6,1.2-17.4,10-18.8
				l6.7-1.1c1.9-0.3,2.3-0.5,2.5-2h4c-0.2,2.9-1.1,4.9-5,5.6l-7.8,1.3c-4.5,0.8-6,4-6.6,8.2h1.1c2.2-2.8,4.6-3.7,8.2-3.7
				C1180.1,465.9,1184.4,471.6,1184.4,478.7z M1180.1,478.7c0-4.7-2.6-9.2-8.2-9.2s-8.2,4.4-8.2,9.2c0,4.7,2.6,9.2,8.2,9.2
				S1180.1,483.4,1180.1,478.7z"/>
			<path id="XMLID_799_" class="st2" d="M1212,465.6v25.3h-4.3v-10h-7.7c-0.6,0-1,0-1.6-0.1l-3.8,10.1h-4.5l4.3-11
				c-2.6-1.3-3.9-3.5-3.9-6.6c0-4.8,3.1-7.7,8.9-7.7H1212z M1199.8,469.2c-3.8,0-5.1,1.6-5.1,4.1s1.3,4,5.1,4h7.8v-8.1H1199.8z"/>
			<path id="XMLID_802_" class="st2" d="M1217.5,465.6h21.8v3.7h-8.8v21.6h-4.3v-21.6h-8.8v-3.7H1217.5z"/>
			<path id="XMLID_804_" class="st2" d="M1241.3,491v-5.8h5.2v5.8H1241.3z"/>
		</g>
	</g>
</g>
<g id="XMLID_666_">
	<line id="XMLID_847_" class="st0" x1="120.7" y1="-32.1" x2="1608.5" y2="-32.1"/>
	<line id="XMLID_846_" class="st0" x1="120.7" y1="126" x2="1608.5" y2="126"/>
	<rect id="XMLID_845_" x="1451.9" y="-32.1" class="st1" width="158.1" height="158.1"/>
	<rect id="XMLID_848_" x="786" y="-32.1" class="st1" width="158.1" height="158.1"/>
	<text id="XMLID_844_" transform="matrix(1 0 0 1 1517.8711 212.8927)" class="st2 st3 st5">x</text>
	<line id="XMLID_843_" class="st0" x1="1451.9" y1="161.7" x2="1610" y2="161.7"/>
	<g id="XMLID_810_">
		<g id="XMLID_327_">
			<path id="XMLID_370_" class="st2" d="M231.3,126v-14.6h-7.5c-9.6,12.4-25.2,18.6-46.6,18.6c-17.4,0-31.1-5-41.3-14.9
				c-10.3-10.3-15.2-22.4-15.2-37c0-14.3,5.3-26.7,15.5-37.3C146.5,30.2,162.3,25,183.4,25H230v-4.7C230,2,219.1-8.6,196.8-8.6
				c-19.6,0-30.1,6.8-31.7,20.2h-34.8c1.6-29.4,27.7-47.7,65.3-47.7c42.6,0,68.3,19,68.3,57.2v105L231.3,126L231.3,126z M217.9,90
				C226,82.2,230,72.9,230,62V49.9h-40.3c-22.1,0-33.6,9.6-33.6,26.1c0,16.2,11.8,25.5,32,25.5C199.9,101.5,209.9,97.8,217.9,90z"/>
			<path id="XMLID_368_" class="st2" d="M386.6-32.1V0.5h-14.3c-32,0-49.4,18.3-49.4,51.6V126h-35.1V-32.1h33.9v18.3h7.5
				c9-12.1,23.9-18.3,44.1-18.3H386.6z"/>
			<path id="XMLID_366_" class="st2" d="M436.2-32.1h37.3v29.8h-37.3v77c0,14,8.1,20.8,24.2,20.8h13v30.4h-13.7
				c-38.2,0-58.7-12.7-58.7-46.6V-72.1h35.1v40H436.2z"/>
			<path id="XMLID_363_" class="st2" d="M618.7,107.1c-14.3,15.2-33.6,23-58.1,23s-43.8-7.8-58.4-23c-14.3-15.5-21.4-35.7-21.4-60.3
				s7.1-44.4,21.4-59.6c14.6-15.6,33.8-23.3,58.4-23.3c24.5,0,43.8,7.8,58.1,23.3c14.6,15.2,21.7,35.1,21.7,59.6
				S633.3,91.5,618.7,107.1z M560.6-6.3c-28.9,0-44.7,23.3-44.7,53.1c0,30.1,15.8,53.4,44.7,53.4s44.7-23.3,44.7-53.4
				C605.3,17,589.5-6.3,560.6-6.3z"/>
			<path id="XMLID_361_" class="st2" d="M746.8,10.1C744.9-1.4,734.7-7,715.7-7s-28.6,5.6-28.6,16.5c0,9.6,6.2,13.4,20.2,15.8
				l30.8,5c32,5.3,48.2,21.4,48.2,49.1c0,14-5.9,26.1-18,36C756.5,125,740,130,718.6,130c-44.7,0-69-19.6-72.4-51.9h35.1
				c2.8,15.2,14.9,22.7,36.7,22.7c22.1,0,33.2-6.8,33.2-20.5c0-12.1-7.5-17.7-25.8-21.1l-32.9-5.6c-24.9-4-40.4-18-40.4-41.6
				C652-16.3,674.4-36.1,717-36.1c37.6,0,61.5,18,64.9,46.3h-35.1V10.1z"/>
		</g>
	</g>
	<text id="XMLID_809_" transform="matrix(1 0 0 1 852.0468 212.8918)" class="st2 st3 st5">x</text>
	<line id="XMLID_808_" class="st0" x1="786" y1="161.7" x2="944.2" y2="161.7"/>
	<g id="XMLID_559_">
		<g id="XMLID_635_">
			<path id="XMLID_650_" class="st2" d="M978.2-13.5c0,10.3-5.8,18.6-16.7,18.6c-11,0-16.7-8.3-16.7-18.6s5.7-18.6,16.6-18.6
				C972.3-32.1,978.2-23.8,978.2-13.5z M973.6-13.5c0-7.5-3.6-14.5-12.2-14.5c-8.6,0-12.2,7-12.2,14.5S952.8,1,961.4,1
				S973.6-6,973.6-13.5z"/>
			<path id="XMLID_647_" class="st2" d="M1011.3,0.7v10.9h-4.2V4.4h-21.9v7.2H981V0.7h3.4c1.6-3.4,3.1-8.4,3.1-14.7v-6.9h19.1V0.7
				H1011.3z M1002.4-17.2h-10.9v3.2c0,6.4-1.2,11.3-2.8,14.7h13.6v-17.9H1002.4z"/>
			<path id="XMLID_644_" class="st2" d="M1038.8-8.3h-19.3c0.2,6,2.9,9.7,8.1,9.7c3.6,0,5.7-1.5,6.4-3.9h4.3
				c-0.8,4.3-4.5,7.6-10.8,7.6c-7.9,0-12.3-5.8-12.3-13.6s4.5-13.1,12.2-13.1c7.5,0,11.2,5.6,11.3,11.8v1.5H1038.8z M1019.8-11.8
				h14.6c-0.3-3.2-2.7-6-7-6C1022.8-17.8,1020.3-15.1,1019.8-11.8z"/>
			<path id="XMLID_642_" class="st2" d="M1047.8,4.5h-4.5l5.7-13l-5.4-12.3h4.4l4.6,10.5h6.5v-10.6h4.1v10.5h6.5l4.6-10.5h4.4
				l-5.4,12.3l5.8,13h-4.5l-4.9-11.1h-6.5V4.4h-4.1V-6.7h-6.5L1047.8,4.5z"/>
			<path id="XMLID_639_" class="st2" d="M1112.5,0.7v10.9h-4.2V4.4h-21.9v7.2h-4.2V0.7h3.4c1.6-3.4,3.1-8.4,3.1-14.7v-6.9h19.1V0.7
				H1112.5z M1103.5-17.2h-10.9v3.2c0,6.4-1.2,11.3-2.8,14.7h13.6v-17.9H1103.5z"/>
			<path id="XMLID_636_" class="st2" d="M1134.1,1.8h-1.1c-1.6,2-4.3,3.3-7.9,3.3c-5.8,0-9.1-3.9-9.1-8.2c0-4.1,2.7-8.4,9.7-8.4h8.2
				v-1c0-3.1-1.8-5.3-6.2-5.3c-3.8,0-5.7,1.5-5.9,3.7h-4.3c0.4-4.7,4.4-7.4,10.1-7.4c6.4,0,10.5,3.1,10.5,8.8V4.6h-4V1.8z M1134-5.8
				v-2.3h-7.6c-4.2,0-6.1,1.8-6.1,4.8c0,2.9,2.1,4.7,5.9,4.7C1130.4,1.4,1134-1.8,1134-5.8z"/>
		</g>
		<g id="XMLID_594_">
			<path id="XMLID_633_" class="st2" d="M962.8,65.3V43.7H949v21.6h-4.3V40h22.4v25.3H962.8z"/>
			<path id="XMLID_630_" class="st2" d="M979.4,40v2.7h1.1c1.4-1.8,3.9-3.4,7.9-3.4c7,0,11.1,5.8,11.1,13.3
				c0,7.6-4.1,13.3-11.1,13.3c-4,0-6.4-1.6-7.7-3.4h-1.1v12.8h-4.3V39.9L979.4,40L979.4,40z M979.5,52.7c0,5,2.3,9.6,7.9,9.6
				c5.1,0,7.8-4,7.8-9.6s-2.7-9.6-7.8-9.6C981.8,43.1,979.5,47.7,979.5,52.7z"/>
			<path id="XMLID_627_" class="st2" d="M1029.6,52.7c0,7.5-4.6,13.3-12.5,13.3s-12.5-5.8-12.5-13.3s4.5-13.3,12.5-13.3
				C1025,39.3,1029.6,45.2,1029.6,52.7z M1025.3,52.7c0-5-2.6-9.6-8.2-9.6c-5.6,0-8.2,4.6-8.2,9.6s2.6,9.6,8.2,9.6
				C1022.7,62.3,1025.3,57.7,1025.3,52.7z"/>
			<path id="XMLID_623_" class="st2" d="M1052.3,75.4h-4.2V65.3h-0.8c-8,0-12.5-5.3-12.5-12.7c0-7.3,4.4-12.7,12.5-12.7h0.9V28.7
				h4.2v11.2h0.8c8,0,12.5,5.3,12.5,12.7c0,7.8-4.7,12.7-13.3,12.7L1052.3,75.4L1052.3,75.4z M1047.3,61.7h0.8V43.6h-0.8
				c-5.6,0-8.3,4.1-8.3,9.1C1039,57.6,1041.6,61.7,1047.3,61.7z M1053,61.7c5.7,0,8.3-4.1,8.3-9.1c0-4.9-2.7-9.1-8.3-9.1h-0.7v18.1
				L1053,61.7L1053,61.7z"/>
			<path id="XMLID_620_" class="st2" d="M1094.3,52.6H1075c0.2,6,2.9,9.7,8.1,9.7c3.6,0,5.7-1.5,6.4-3.9h4.3
				c-0.8,4.3-4.5,7.6-10.8,7.6c-7.9,0-12.3-5.8-12.3-13.6s4.5-13.1,12.2-13.1c7.5,0,11.2,5.6,11.3,11.8v1.5H1094.3z M1075.2,49.1
				h14.6c-0.3-3.2-2.7-6-7-6C1078.3,43.1,1075.7,45.8,1075.2,49.1z"/>
			<path id="XMLID_618_" class="st2" d="M1122.3,57.7c-1,5-4.8,8.3-10.7,8.3c-7.9,0-12.3-5.8-12.3-13.3c0-7.6,4.4-13.3,12.3-13.3
				c6,0,9.7,3.3,10.5,8h-4.3c-0.8-2.6-2.8-4.3-6.2-4.3c-5.7,0-8,4.5-8,9.5c0,5.1,2.4,9.7,8,9.7c3.6,0,5.7-1.8,6.4-4.6L1122.3,57.7
				L1122.3,57.7z"/>
			<path id="XMLID_616_" class="st2" d="M1150.1,57.7c-1,5-4.8,8.3-10.7,8.3c-7.9,0-12.3-5.8-12.3-13.3c0-7.6,4.4-13.3,12.3-13.3
				c6,0,9.7,3.3,10.5,8h-4.3c-0.8-2.6-2.8-4.3-6.2-4.3c-5.7,0-8,4.5-8,9.5c0,5.1,2.4,9.7,8,9.7c3.6,0,5.7-1.8,6.4-4.6L1150.1,57.7
				L1150.1,57.7z"/>
			<path id="XMLID_614_" class="st2" d="M1156.5,65.3V40h4.2v19.6h1.1l11.1-19.6h6.2v25.3h-4.2V45.7h-1.1l-11.3,19.6H1156.5z"/>
			<path id="XMLID_611_" class="st2" d="M1210.8,52.7c0,7.5-4.6,13.3-12.5,13.3s-12.5-5.8-12.5-13.3s4.5-13.3,12.5-13.3
				C1206.2,39.3,1210.8,45.2,1210.8,52.7z M1206.5,52.7c0-5-2.6-9.6-8.2-9.6s-8.2,4.6-8.2,9.6s2.6,9.6,8.2,9.6
				C1203.9,62.3,1206.5,57.7,1206.5,52.7z"/>
			<path id="XMLID_609_" class="st2" d="M1235.8,65.3V54.1h-14v11.2h-4.3V40h4.3v10.5h14V40h4.3v25.3H1235.8z"/>
			<path id="XMLID_606_" class="st2" d="M1264.5,62.7h-1.1c-1.6,2-4.3,3.3-7.9,3.3c-5.8,0-9.1-3.9-9.1-8.2c0-4.1,2.7-8.4,9.7-8.4
				h8.2v-1c0-3.1-1.8-5.3-6.2-5.3c-3.8,0-5.7,1.5-5.9,3.7h-4.3c0.4-4.7,4.4-7.4,10.1-7.4c6.4,0,10.5,3.1,10.5,8.8v17.3h-4
				L1264.5,62.7L1264.5,62.7z M1264.3,55.1v-2.3h-7.6c-4.2,0-6.1,1.8-6.1,4.8c0,2.9,2.1,4.7,5.9,4.7
				C1260.7,62.3,1264.3,59.1,1264.3,55.1z"/>
			<path id="XMLID_604_" class="st2" d="M1273.5,61.3h0.9c3.4,0,5-2.5,5-11.5V40h19.4v25.3h-4.3V43.7h-11.1v6.2
				c0,11.7-2.7,15.4-9,15.4h-0.9V61.3z"/>
			<path id="XMLID_601_" class="st2" d="M1330.3,52.7c0,7.5-4.6,13.3-12.5,13.3s-12.5-5.8-12.5-13.3s4.5-13.3,12.5-13.3
				C1325.7,39.3,1330.3,45.2,1330.3,52.7z M1326,52.7c0-5-2.6-9.6-8.2-9.6s-8.2,4.6-8.2,9.6s2.6,9.6,8.2,9.6
				C1323.4,62.3,1326,57.7,1326,52.7z"/>
			<path id="XMLID_597_" class="st2" d="M1354.8,52.5c2.4,0.6,4.1,2.7,4.1,5.9c0,4.6-3.2,6.9-9,6.9h-13V40h12.6c5.1,0,8,2.4,8,6.4
				c0,2.5-1.3,4.2-2.7,5V52.5z M1341.2,50.5h7.9c3.1,0,4.1-1.6,4.1-3.4c0-2-1.1-3.5-4.1-3.5h-7.9V50.5z M1349.8,61.7
				c3.7,0,4.9-1.6,4.9-3.8s-1.3-3.8-4.9-3.8h-8.6v7.6H1349.8z"/>
			<path id="XMLID_595_" class="st2" d="M1364.6,65.3v-5.8h5.2v6.8l-2.8,4.8h-2.7l2.8-4.8v-1H1364.6z"/>
		</g>
		<g id="XMLID_560_">
			<path id="XMLID_592_" class="st2" d="M956.5,115.1h-7.6v11.2h-4.3v-25.4h4.3v10.5h7.7l5.3-10.5h4.5l-6.2,12.2l6.5,13.1h-4.6
				L956.5,115.1z"/>
			<path id="XMLID_589_" class="st2" d="M995.5,113.6c0,7.5-4.6,13.3-12.5,13.3s-12.5-5.8-12.5-13.3s4.5-13.3,12.5-13.3
				C990.9,100.2,995.5,106.1,995.5,113.6z M991.2,113.6c0-5-2.6-9.6-8.2-9.6c-5.6,0-8.2,4.6-8.2,9.6s2.6,9.6,8.2,9.6
				C988.6,123.2,991.2,118.5,991.2,113.6z"/>
			<path id="XMLID_587_" class="st2" d="M999,100.9h21.8v3.7h-8.8v21.6h-4.3v-21.6H999V100.9z"/>
			<path id="XMLID_584_" class="st2" d="M1049.5,113.6c0,7.5-4.6,13.3-12.5,13.3s-12.5-5.8-12.5-13.3s4.5-13.3,12.5-13.3
				C1044.9,100.2,1049.5,106.1,1049.5,113.6z M1045.2,113.6c0-5-2.6-9.6-8.2-9.6c-5.6,0-8.2,4.6-8.2,9.6s2.6,9.6,8.2,9.6
				C1042.6,123.2,1045.2,118.5,1045.2,113.6z"/>
			<path id="XMLID_581_" class="st2" d="M1060.3,100.9v2.7h1.1c1.4-1.8,3.9-3.4,7.9-3.4c7,0,11.1,5.8,11.1,13.3
				c0,7.6-4.1,13.3-11.1,13.3c-4,0-6.4-1.6-7.7-3.4h-1.1v12.8h-4.3v-35.3H1060.3z M1060.4,113.6c0,5,2.3,9.6,7.9,9.6
				c5.1,0,7.8-4,7.8-9.6s-2.7-9.6-7.8-9.6C1062.7,104,1060.4,108.6,1060.4,113.6z"/>
			<path id="XMLID_579_" class="st2" d="M1089,136.3l5.2-12.4l-10.8-23h4.6l7.7,16.7h1.3l7-16.7h4.5l-15.2,35.4H1089z"/>
			<path id="XMLID_576_" class="st2" d="M1148,113.6c0,7.4-4.6,13.3-12.3,13.3c-7.1,0-11.6-5.1-12.2-11.8h-5.8v11.2h-4.2v-25.4h4.2
				v10.5h5.9c0.8-6.4,5.2-11.1,12-11.1C1143.4,100.2,1148,106.1,1148,113.6z M1143.7,113.6c0-5-2.6-9.6-8-9.6c-5.5,0-8,4.6-8,9.6
				s2.5,9.6,8,9.6S1143.7,118.5,1143.7,113.6z"/>
			<path id="XMLID_574_" class="st2" d="M1165.8,122.2h0.9c3.4,0,5-2.5,5-11.5v-9.8h19.4v25.3h-4.3v-21.6h-11.1v6.2
				c0,11.7-2.7,15.4-9,15.4h-0.9V122.2z"/>
			<path id="XMLID_571_" class="st2" d="M1233.7,113.6c0,7.4-4.6,13.3-12.3,13.3c-7.1,0-11.6-5.1-12.2-11.8h-5.8v11.2h-4.2v-25.4
				h4.2v10.5h5.9c0.8-6.4,5.2-11.1,12-11.1C1229.1,100.2,1233.7,106.1,1233.7,113.6z M1229.5,113.6c0-5-2.6-9.6-8-9.6
				c-5.5,0-8,4.6-8,9.6s2.5,9.6,8,9.6C1226.9,123.2,1229.5,118.5,1229.5,113.6z"/>
			<path id="XMLID_568_" class="st2" d="M1264,114c0,7.2-4.7,12.9-12.5,12.9c-8,0-12.6-5.5-12.6-15.3c0-8.6,1.2-17.4,10-18.8
				l6.7-1.1c1.9-0.3,2.3-0.5,2.5-2h4c-0.2,2.9-1.1,4.9-5,5.6l-7.8,1.3c-4.5,0.8-6,4-6.6,8.2h1.1c2.2-2.8,4.6-3.7,8.2-3.7
				C1259.6,101.1,1264,106.8,1264,114z M1259.6,114c0-4.7-2.6-9.2-8.2-9.2s-8.2,4.4-8.2,9.2c0,4.7,2.6,9.2,8.2,9.2
				S1259.6,118.6,1259.6,114z"/>
			<path id="XMLID_565_" class="st2" d="M1291.5,100.9v25.3h-4.3v-10h-7.7c-0.6,0-1,0-1.6-0.1l-3.8,10.1h-4.5l4.3-11
				c-2.6-1.3-3.9-3.5-3.9-6.6c0-4.8,3.1-7.7,8.9-7.7H1291.5z M1279.3,104.5c-3.8,0-5.1,1.6-5.1,4.1s1.3,4,5.1,4h7.8v-8.1H1279.3z"/>
			<path id="XMLID_563_" class="st2" d="M1297.1,100.9h21.8v3.7h-8.8v21.6h-4.3v-21.6h-8.8v-3.7H1297.1z"/>
			<path id="XMLID_561_" class="st2" d="M1320.9,126.2v-5.8h5.2v5.8H1320.9z"/>
		</g>
	</g>
	<rect id="XMLID_558_" x="862.6" y="-53.4" class="st2" width="5" height="200.7"/>
</g>
</svg>
