<?xml version="1.0" encoding="utf-8"?>
<!-- Generator: Adobe Illustrator 19.0.0, SVG Export Plug-In . SVG Version: 6.00 Build 0)  -->
<svg version="1.1" id="Layer_1" xmlns="http://www.w3.org/2000/svg" xmlns:xlink="http://www.w3.org/1999/xlink" x="0px" y="0px"
	 viewBox="110 141 1500 1000" style="enable-background:new 110 141 1500 1000;" xml:space="preserve">
<style type="text/css">
	.st0{fill:#2BB9AF;}
	.st1{fill:#FFFFFF;}
</style>
<g id="XMLID_1322_">
	<g id="XMLID_385_">
		<path id="XMLID_386_" class="st0" d="M216.6,280.6l-12.7-39.4h-56.3l-12.5,39.4h-23l45.5-137.1h36.9l45.7,137.1H216.6z M171.4,166
			l-17.2,54.7h43L179.7,166H171.4z"/>
		<path id="XMLID_389_" class="st0" d="M374.6,179.6c-2.9-12.3-12.5-18.4-28.8-18.4c-15.4,0-26.3,6.5-26.3,18.6
			c0,10.2,7.5,14.4,20,16.9l12.5,2.5l13.2,2.5c24,5.2,35.9,18.4,35.9,39.4c0,11.9-4.6,21.9-14,30c-9.2,8.1-22.5,12.1-39.6,12.1
			c-16.3,0-29.6-3.8-39.7-11.7c-10.2-7.9-15.7-18-17.1-30.9h23.4c2.5,15,14,22.5,34.4,22.5c17.5,0,29.4-7.9,29.4-20.9
			c0-12.1-7.1-17.3-20.7-20.4c-1.9-0.6-6.7-1.5-14.6-2.9c-7.9-1.5-11.9-2.3-12.1-2.3c-21.7-4-34.2-16.1-34.2-36.1
			c0-11.3,4.4-20.7,13.2-28.2c9-7.5,21.1-11.1,36.7-11.1c29,0,48.8,15,51.8,38.6h-23.4V179.6z"/>
		<path id="XMLID_391_" class="st0" d="M480.2,280.6v-9h-4.6c-6,7.7-15.6,11.5-28.8,11.5c-10.8,0-19.2-3.1-25.5-9.2
			c-6.3-6.3-9.4-13.8-9.4-22.8c0-8.8,3.3-16.5,9.6-23c6.3-6.5,16.1-9.8,29.2-9.8h28.8v-2.9c0-11.3-6.7-17.9-20.5-17.9
			c-12.1,0-18.6,4.2-19.6,12.5h-21.5c1-18.2,17.1-29.6,40.3-29.6c26.3,0,42.2,11.7,42.2,35.3v64.9H480.2z M471.9,258.3
			c5-4.8,7.5-10.6,7.5-17.3v-7.5h-25c-13.6,0-20.7,6-20.7,16.1c0,10,7.3,15.7,19.8,15.7C460.8,265.4,466.9,263.1,471.9,258.3z"/>
		<path id="XMLID_394_" class="st0" d="M611.7,280.6H590v-56.8c0-15.9-7.3-24-21.7-24c-7.5,0-13.6,2.9-18.4,8.4
			c-4.6,5.6-6.9,12.3-6.9,20.2v52.2h-21.7v-97.7h20.9v9.4h4.6c6-7.9,15.4-11.9,28.2-11.9c23.8,0,36.7,14.6,36.7,39.2V280.6z"/>
		<path id="XMLID_396_" class="st0" d="M687.3,209c-1.2-7.1-7.5-10.6-19.2-10.6s-17.7,3.5-17.7,10.2c0,6,3.8,8.3,12.5,9.8l19,3.1
			c19.8,3.3,29.8,13.2,29.8,30.3c0,8.6-3.6,16.1-11.1,22.3c-7.3,6-17.5,9-30.7,9c-27.6,0-42.6-12.1-44.7-32.1h21.7
			c1.7,9.4,9.2,14,22.7,14c13.6,0,20.5-4.2,20.5-12.7c0-7.5-4.6-10.9-15.9-13.1l-20.4-3.5c-15.4-2.5-25-11.1-25-25.7
			c0-17.5,13.8-29.8,40.1-29.8c23.2,0,38,11.1,40.1,28.6h-21.7V209z"/>
	</g>
	<g id="XMLID_369_">
		<path id="XMLID_370_" class="st0" d="M112.8,451.1v-137h36.5l28.4,59.7h4.6l28-59.7H247v137.1h-21.9V341.5h-4.6l-29,60.1h-23.4
			l-28.8-60.1h-4.6v109.6H112.8z"/>
		<path id="XMLID_372_" class="st0" d="M358.8,404.1h-72.2c0.6,20.7,9.8,31.1,27.5,31.1c11.3,0,18.4-4.2,21.3-12.5h22.1
			c-3.8,18.6-19,30.9-43.6,30.9c-15.2,0-27.1-4.8-35.7-14.4c-8.6-9.6-13.1-22.1-13.1-37.6c0-15.6,4.2-27.8,12.9-36.9
			c8.6-9.2,20.5-13.8,35.3-13.8c14,0,25.2,4.4,33,13.1c8.1,8.6,12.3,19.6,12.5,32.8L358.8,404.1L358.8,404.1z M287.6,388h49
			c-1.5-11.5-9.8-19.8-23.4-19.8C298.7,368.2,290.1,375.9,287.6,388z"/>
		<path id="XMLID_375_" class="st0" d="M439.6,362.8h4.6v-51.3h21.7v139.6H445v-9.4h-4.6c-6.3,7.9-15.9,11.9-28.8,11.9
			s-23.2-4.8-30.9-14.4c-7.5-9.6-11.3-21.9-11.3-37.1c0-15,3.8-27.3,11.3-36.9c7.7-9.6,18-14.4,30.9-14.4
			C424.5,350.9,433.7,354.9,439.6,362.8z M444.8,402.2c0-18.6-9.2-32.8-27.1-32.8c-17.1,0-26.7,13.1-26.7,32.8
			c0,19.8,9.6,33,26.7,33C435.6,435.2,444.8,420.8,444.8,402.2z"/>
		<path id="XMLID_378_" class="st0" d="M510.5,332.5h-22.3v-20.9h22.3V332.5z M510.1,353.4v97.7h-21.7v-97.7L510.1,353.4
			L510.1,353.4z"/>
		<path id="XMLID_381_" class="st0" d="M531.4,353.4h21.7v56.8c0,15.9,7.3,24,21.7,24c7.5,0,13.6-2.9,18.2-8.4
			c4.8-5.6,7.1-12.3,7.1-20.2v-52.2h21.7v97.7h-20.9v-9.4h-4.6c-6,7.9-15.4,11.9-28.2,11.9c-23.8,0-36.7-14.6-36.7-39.2V353.4
			L531.4,353.4z"/>
		<path id="XMLID_383_" class="st0" d="M784.3,388.7v62.4h-21.7v-58.8c0-14.8-5.6-22.1-16.7-22.1c-13.1,0-20.7,10.4-20.7,25.2v55.7
			h-21.7v-58.6c0-14.8-5.6-22.3-16.7-22.3c-13.8,0-20.9,11.5-20.9,27.6V451h-21.7v-97.7H665v8.8h4.6c5-7.5,13.2-11.3,24.6-11.3
			c11.7,0,20.2,4,25.3,11.9h4.6c6-7.9,15-11.9,27.1-11.9C773.5,350.9,784.3,364.9,784.3,388.7z"/>
	</g>
</g>
<g id="XMLID_360_">
	<path id="XMLID_361_" class="st1" d="M949.6,372.8c8.1,8.4,12.1,19.2,12.1,32.4c0,14.4-4.4,26.1-13.4,35.1
		c-9,8.8-20.5,13.2-34.6,13.2c-29.4,0-47.4-17.1-49-41.9H887c1.7,14.4,11.1,21.9,25.9,21.9c15.9,0,26.3-10.8,26.3-27.8
		c0-16.9-10.4-27.6-25.9-27.6c-10.6,0-18.6,3.8-24,11.3h-21.5l6-72.8h80.1v19h-62.4l-2.5,32.8h4.6c6.7-5.6,15.2-8.4,25-8.4
		C931.3,360.1,941.7,364.4,949.6,372.8z"/>
	<path id="XMLID_363_" class="st1" d="M1024.6,314.1c15.4,0,27.6,5.8,37.1,17.5c9.4,11.7,14,29.2,14,52.4s-4.6,40.7-14,52.4
		c-9.4,11.5-21.7,17.3-37.1,17.3c-15.4,0-27.6-5.8-37.1-17.3c-9.4-11.7-14-29.2-14-52.4c0-23.2,4.6-40.7,14-52.4
		C997,319.8,1009.3,314.1,1024.6,314.1z M1024.6,433.7c10,0,17.3-4.6,21.7-13.6c4.6-9,6.9-21.1,6.9-36.1s-2.3-27.1-6.9-36.1
		c-4.4-9.2-11.7-13.8-21.7-13.8s-17.3,4.6-21.9,13.8c-4.4,9-6.7,21.1-6.7,36.1s2.3,27.1,6.7,36.1
		C1007.4,429.1,1014.7,433.7,1024.6,433.7z"/>
	<path id="XMLID_366_" class="st1" d="M1139.1,314.1c15.4,0,27.6,5.8,37.1,17.5c9.4,11.7,14,29.2,14,52.4s-4.6,40.7-14,52.4
		c-9.4,11.5-21.7,17.3-37.1,17.3s-27.6-5.8-37.1-17.3c-9.4-11.7-14-29.2-14-52.4c0-23.2,4.6-40.7,14-52.4
		C1111.4,319.8,1123.7,314.1,1139.1,314.1z M1139.1,433.7c10,0,17.3-4.6,21.7-13.6c4.6-9,6.9-21.1,6.9-36.1s-2.3-27.1-6.9-36.1
		c-4.4-9.2-11.7-13.8-21.7-13.8s-17.3,4.6-21.9,13.8c-4.4,9-6.7,21.1-6.7,36.1s2.3,27.1,6.7,36.1
		C1121.8,429.1,1129.1,433.7,1139.1,433.7z"/>
</g>
<g id="XMLID_286_">
	<g id="XMLID_917_">
		<path id="XMLID_988_" class="st1" d="M129.9,615.7c6.2,0,11,2,14.5,6s5.2,9.1,5.2,15.4c0,6.2-1.7,11.4-5.2,15.4
			c-3.4,4-8.3,6-14.5,6c-6.2,0-11-2-14.5-6s-5.2-9.1-5.2-15.4c0-6.2,1.7-11.4,5.2-15.4C118.9,617.8,123.8,615.7,129.9,615.7z
			 M129.9,652.2c4.2,0,7.3-1.4,9.4-4.3c2.1-2.8,3.2-6.5,3.2-10.8s-1-8-3.2-10.8s-5.3-4.3-9.4-4.3c-4.2,0-7.3,1.4-9.5,4.3
			c-2.2,2.9-3.2,6.5-3.2,10.8s1,8,3.2,10.8C122.6,650.8,125.8,652.2,129.9,652.2z"/>
		<path id="XMLID_985_" class="st1" d="M180.9,652.2h5.3V666H180v-8.3h-23.6v8.3h-6.2v-13.8h4.2c2-4.8,3.1-10,3.1-15.6v-8.3H181
			v23.9H180.9z M174.4,652.2v-18.3h-11v2.8c0,5.8-0.9,11-2.7,15.6h13.7V652.2z"/>
		<path id="XMLID_982_" class="st1" d="M215.9,643.6h-21.8c0.2,6.2,2.9,9.4,8.3,9.4c3.4,0,5.6-1.3,6.4-3.8h6.6
			c-1.2,5.6-5.7,9.3-13.1,9.3c-4.6,0-8.2-1.4-10.8-4.3s-3.9-6.6-3.9-11.3c0-4.7,1.3-8.4,3.9-11.1c2.6-2.8,6.2-4.2,10.6-4.2
			c4.2,0,7.6,1.3,9.9,3.9c2.4,2.6,3.7,5.9,3.8,9.9L215.9,643.6L215.9,643.6z M194.4,638.7h14.7c-0.5-3.5-2.9-6-7.1-6
			C197.8,632.8,195.2,635.1,194.4,638.7z"/>
		<path id="XMLID_980_" class="st1" d="M230.1,645.5l-5.6,12.3h-6.7l6.8-15.1l-6.4-14.3h6.6L230,640h6.5v-11.6h6.1V640h6.5l5.1-11.6
			h6.6l-6.4,14.3l6.8,15.1h-6.8l-5.5-12.3h-6.5v12.3h-6.1v-12.3H230.1z"/>
		<path id="XMLID_977_" class="st1" d="M292.5,652.2h5.3V666h-6.2v-8.3H268v8.3h-6.2v-13.8h4.2c2-4.8,3.1-10,3.1-15.6v-8.3h23.5
			v23.9H292.5z M286,652.2v-18.3h-11v2.8c0,5.8-0.9,11-2.7,15.6H286V652.2z"/>
		<path id="XMLID_974_" class="st1" d="M319.3,657.8V655H318c-1.8,2.3-4.7,3.5-8.7,3.5c-3.2,0-5.8-0.9-7.7-2.8
			c-1.9-1.9-2.8-4.2-2.8-6.9c0-2.7,1-5,2.9-6.9c1.9-2,4.9-2.9,8.8-2.9h8.7v-0.9c0-3.4-2-5.4-6.2-5.4c-3.6,0-5.6,1.3-5.9,3.8h-6.5
			c0.3-5.5,5.1-8.9,12.1-8.9c7.9,0,12.7,3.5,12.7,10.6v19.5L319.3,657.8L319.3,657.8z M316.9,651.1c1.5-1.4,2.3-3.2,2.3-5.2v-2.3
			h-7.5c-4.1,0-6.2,1.8-6.2,4.9c0,3,2.2,4.7,6,4.7C313.5,653.2,315.4,652.5,316.9,651.1z"/>
		<path id="XMLID_971_" class="st1" d="M371.6,652.2h5.3V666h-6.2v-8.3h-23.6v8.3h-6.2v-13.8h4.2c2-4.8,3.1-10,3.1-15.6v-8.3h23.5
			L371.6,652.2L371.6,652.2z M365.1,652.2v-18.3h-11v2.8c0,5.8-0.9,11-2.7,15.6h13.7V652.2z"/>
		<path id="XMLID_969_" class="st1" d="M378.6,657.8v-6.2h1c4,0,5.6-2.8,5.6-11.3v-11.9H409v29.4h-6.5v-23.9h-11.3v6.5
			c0,6.4-0.9,10.9-2.8,13.5c-1.8,2.6-4.7,3.9-8.8,3.9L378.6,657.8L378.6,657.8z"/>
		<path id="XMLID_966_" class="st1" d="M440.2,628.3v29.4h-6.5V647h-6.9c-0.9,0-1.6,0-2.1-0.1l-4.1,10.8H414l4.7-12.1
			c-2.9-1.6-4.5-4.2-4.5-7.9c0-5.8,4-9.4,11.2-9.4L440.2,628.3L440.2,628.3z M433.6,642v-8.3h-7.7c-3.5,0-5.2,1.4-5.2,4.2
			s1.7,4.2,5.2,4.2h7.7V642z"/>
		<path id="XMLID_964_" class="st1" d="M485.2,648.3c-0.9,6.2-6,10.2-13,10.2c-4.5,0-8.1-1.4-10.7-4.3c-2.6-2.8-3.9-6.6-3.9-11.2
			s1.3-8.3,3.9-11.2c2.6-2.8,6.2-4.3,10.7-4.3c7,0,11.9,3.9,12.7,9.7h-6.5c-0.9-2.8-2.9-4.2-6.2-4.2c-5.5,0-8.1,4.1-8.1,9.8
			c0,5.8,2.6,10,8.1,10c3.6,0,5.7-1.6,6.4-4.6h6.6V648.3z"/>
		<path id="XMLID_960_" class="st1" d="M509.7,669.3h-6.4v-11.6h-0.7c-4.7-0.1-8.4-1.4-11-4.1c-2.6-2.7-3.9-6.2-3.9-10.6
			c0-4.3,1.3-7.8,3.9-10.5c2.6-2.7,6.2-4.1,10.9-4.2h0.9v-12.6h6.4v12.6h0.9c4.6,0.1,8.3,1.4,10.9,4.2c2.6,2.7,3.9,6.2,3.9,10.5
			c0,9-5.7,14.7-15.7,14.7L509.7,669.3L509.7,669.3z M502.6,652.5h0.8v-18.9h-0.7c-5.6,0.1-8.6,4-8.6,9.4
			C494.1,648.5,497,652.4,502.6,652.5z M509.7,652.5h0.6c5.6-0.1,8.6-4,8.6-9.5c0-5.4-3.1-9.4-8.6-9.4h-0.6V652.5z"/>
		<path id="XMLID_957_" class="st1" d="M556.3,643.6h-21.7c0.2,6.2,2.9,9.4,8.3,9.4c3.4,0,5.6-1.3,6.4-3.8h6.6
			c-1.2,5.6-5.7,9.3-13.1,9.3c-4.6,0-8.2-1.4-10.8-4.3c-2.6-2.9-3.9-6.6-3.9-11.3c0-4.7,1.3-8.4,3.9-11.1c2.6-2.8,6.2-4.2,10.6-4.2
			c4.2,0,7.6,1.3,9.9,3.9c2.4,2.6,3.7,5.9,3.8,9.9L556.3,643.6L556.3,643.6z M534.8,638.7h14.7c-0.5-3.5-2.9-6-7.1-6
			C538.2,632.8,535.6,635.1,534.8,638.7z"/>
		<path id="XMLID_954_" class="st1" d="M560.6,628.3h6.3v2.8h1.4c1.9-2.4,4.8-3.6,8.7-3.6s7,1.4,9.3,4.3c2.3,2.9,3.5,6.6,3.5,11.1
			c0,4.6-1.2,8.3-3.5,11.2s-5.4,4.3-9.3,4.3c-3.8,0-6.6-1.2-8.4-3.6h-1.4v14.4h-6.5v-40.9H560.6z M567,643c0,5.6,2.8,9.9,8.2,9.9
			c5.1,0,8-4,8-9.9s-2.9-9.9-8-9.9C569.7,633.1,567,637.4,567,643z"/>
		<path id="XMLID_950_" class="st1" d="M594.1,628.3h6.5v9.1h7.3c7.3,0,11.4,3.7,11.4,10c0,6.4-4.1,10.3-11.4,10.3H594L594.1,628.3
			L594.1,628.3z M600.6,642.7v9.5h6.4c4.2,0,5.8-1.7,5.8-4.7c0-3.2-1.6-4.7-5.8-4.7L600.6,642.7L600.6,642.7z M624,628.3h6.5v29.4
			H624V628.3z"/>
		<path id="XMLID_947_" class="st1" d="M135.7,722.2c-2.7,2.8-6.2,4.3-10.8,4.3s-8.2-1.4-10.9-4.3c-2.7-2.9-4-6.6-4-11.2
			s1.3-8.3,4-11.1c2.7-2.9,6.3-4.3,10.9-4.3s8.2,1.4,10.8,4.3c2.7,2.8,4,6.5,4,11.1S138.4,719.3,135.7,722.2z M124.9,701.1
			c-5.4,0-8.3,4.3-8.3,9.9c0,5.6,2.9,9.9,8.3,9.9s8.3-4.3,8.3-9.9C133.2,705.5,130.2,701.1,124.9,701.1z"/>
		<path id="XMLID_944_" class="st1" d="M168.5,701.1c2.5,2.8,3.8,6.3,3.8,10.6s-1.4,7.8-4.1,10.6s-6.3,4.2-10.8,4.2
			c-9.5,0-15-6.4-15-18c0-5.4,0.5-9.4,2-13.6c1.6-4.2,4.8-7,9.6-7.7l7.7-1.3c2.3-0.4,2.8-0.6,2.9-2.2h5.6c-0.2,4-1.4,6.5-5.9,7.3
			l-9.4,1.5c-4.5,0.7-6.4,3.5-7.2,8.5h1.4c2.1-2.7,5.2-4,9.3-4C162.6,697,166,698.4,168.5,701.1z M163.5,718.2
			c1.4-1.8,2.1-4,2.1-6.6c0-5.3-2.9-9.3-8.3-9.3c-5.5,0-8.4,4-8.4,9.3c0,2.6,0.7,4.9,2.1,6.6c1.4,1.8,3.5,2.7,6.2,2.7
			S162.1,720,163.5,718.2z"/>
		<path id="XMLID_942_" class="st1" d="M202.5,716.3c-0.9,6.2-6,10.2-13,10.2c-4.5,0-8.1-1.4-10.7-4.3c-2.6-2.8-3.9-6.6-3.9-11.2
			c0-4.6,1.3-8.3,3.9-11.2c2.6-2.8,6.2-4.3,10.7-4.3c7,0,11.9,3.9,12.7,9.7h-6.5c-0.9-2.8-2.9-4.2-6.2-4.2c-5.5,0-8.1,4.1-8.1,9.8
			c0,5.8,2.6,10,8.1,10c3.6,0,5.7-1.6,6.4-4.6L202.5,716.3L202.5,716.3z"/>
		<path id="XMLID_940_" class="st1" d="M203.5,725.8v-6.2h1c4,0,5.6-2.8,5.6-11.3v-11.9H234v29.4h-6.5v-23.9h-11.3v6.5
			c0,6.4-0.9,10.9-2.8,13.5c-1.8,2.6-4.7,3.9-8.8,3.9H203.5z"/>
		<path id="XMLID_938_" class="st1" d="M249.7,737.3H243l6.1-14.5l-12.5-26.5h6.9l8.2,17.7h1.5l7.5-17.7h6.7L249.7,737.3z"/>
		<path id="XMLID_936_" class="st1" d="M279.8,713.5l-5.6,12.3h-6.7l6.8-15.1l-6.4-14.3h6.6l5.2,11.6h6.5v-11.6h6.1V708h6.5
			l5.1-11.6h6.6l-6.4,14.3l6.8,15.1h-6.8l-5.5-12.3h-6.5v12.3H286v-12.3H279.8z"/>
		<path id="XMLID_934_" class="st1" d="M322.4,725.8H315v-29.4h6.4v19.4h1.4l12.1-19.4h7.6v29.4H336v-19.4h-1.4L322.4,725.8z"/>
		<path id="XMLID_930_" class="st1" d="M370.2,710.8c2.9,0.8,4.9,3.2,4.9,6.8c0,5.3-3.7,8.1-10.4,8.1h-16.2v-29.4h15.7
			c6,0,9.3,2.8,9.3,7.5c0,2.6-1.4,4.8-3.3,5.7V710.8z M354.9,701.3v6.9h7.9c2.8,0,4.2-1.4,4.2-3.5c0-2.3-1.4-3.5-4.2-3.5
			L354.9,701.3L354.9,701.3z M363.5,720.8c3.4,0,5-1.3,5-3.9s-1.7-3.9-5-3.9h-8.6v7.8L363.5,720.8L363.5,720.8z"/>
		<path id="XMLID_927_" class="st1" d="M397.9,725.8V723h-1.4c-1.8,2.3-4.7,3.5-8.7,3.5c-3.2,0-5.8-0.9-7.7-2.8
			c-1.9-1.9-2.8-4.2-2.8-6.9s1-5,2.9-6.9c1.9-2,4.9-2.9,8.8-2.9h8.7v-0.9c0-3.4-2-5.4-6.2-5.4c-3.6,0-5.6,1.3-5.9,3.8h-6.5
			c0.3-5.5,5.1-8.9,12.1-8.9c7.9,0,12.7,3.5,12.7,10.6v19.5h-6V725.8z M395.4,719.1c1.5-1.4,2.3-3.2,2.3-5.2v-2.3h-7.5
			c-4.1,0-6.2,1.8-6.2,4.9c0,3,2.2,4.7,6,4.7C392.1,721.2,393.9,720.5,395.4,719.1z"/>
		<path id="XMLID_925_" class="st1" d="M437,725.8h-6.5v-12.3h-14.2v12.3h-6.5v-29.4h6.5V708h14.2v-11.6h6.5V725.8z"/>
		<path id="XMLID_923_" class="st1" d="M450.5,725.8h-7.4v-29.4h6.4v19.4h1.4l12.1-19.4h7.6v29.4h-6.4v-19.4h-1.4L450.5,725.8z"/>
		<path id="XMLID_920_" class="st1" d="M501.6,696.3v29.4h-6.5V715h-6.9c-0.9,0-1.6,0-2.1-0.1l-4.1,10.8h-6.6l4.7-12.1
			c-2.9-1.6-4.5-4.2-4.5-7.9c0-5.8,4-9.4,11.2-9.4H501.6z M495.1,710v-8.3h-7.7c-3.5,0-5.2,1.4-5.2,4.2s1.7,4.2,5.2,4.2h7.7V710z"/>
		<path id="XMLID_918_" class="st1" d="M514.9,725.8h-7.5V718h7.5V725.8z"/>
	</g>
</g>
<g id="XMLID_1_">
	<path id="XMLID_2_" class="st1" d="M884.5,651.7l-3.6-11.1h-15.8l-3.5,11.1h-6.5l12.8-38.6h10.4l12.9,38.6H884.5z M871.9,619.5
		l-4.9,15.4h12.1l-4.9-15.4H871.9z"/>
	<path id="XMLID_5_" class="st1" d="M914.2,628.3c8.4,0,13.2,4.3,13.2,11.7c0,7.3-4.8,11.7-13.2,11.7h-17.3v-38.6h27.3v5.9h-20.8
		v9.3H914.2z M913.1,646c5.6,0,7.8-2.1,7.8-6.2s-2.2-6.1-7.8-6.1h-9.7V646H913.1z"/>
	<path id="XMLID_8_" class="st1" d="M960.7,632.1c3,1.3,5.2,4.7,5.2,8.5c0,6.5-4.6,11-13.2,11h-17.9V613h17.4c4,0,7.1,1,9.2,2.9
		c2.2,1.9,3.3,4.3,3.3,7.1c0,3.7-1.4,6.3-4.1,7.7L960.7,632.1L960.7,632.1z M951.7,629c4.3,0,6.5-1.7,6.5-5.1c0-3.4-2.2-5.1-6.5-5.1
		h-10.4V629H951.7z M951.9,646.1c4.9,0,7.4-1.9,7.4-5.8c0-3.8-2.5-5.8-7.4-5.8h-10.6v11.6L951.9,646.1L951.9,646.1z"/>
	<path id="XMLID_13_" class="st1" d="M1000.4,619h-20.6v32.7h-6.5v-38.6h27.1V619z"/>
	<path id="XMLID_16_" class="st1" d="M1034.1,645.8h5.5v15.3h-6.3v-9.5H1006v9.5h-6.3v-15.3h4c3.1-6.2,4.7-14.1,4.7-23.7v-9h25.7
		L1034.1,645.8L1034.1,645.8z M1027.7,645.8V619h-13.2v3.7c0,9.7-1.4,17.4-4.1,23.1L1027.7,645.8L1027.7,645.8z"/>
	<path id="XMLID_19_" class="st1" d="M1052.2,645.8h21.9v5.9h-28.4v-38.6h27.7v5.9h-21.2v9.9h16.8v5.8h-16.8V645.8z"/>
	<path id="XMLID_21_" class="st1" d="M1087.7,645.8h21.9v5.9h-28.4v-38.6h27.8v5.9h-21.2v9.9h16.8v5.8h-16.8v11.1H1087.7z
		 M1092.6,608.8h-5.5v-5.5h5.5V608.8z M1102.8,608.8h-5.4v-5.5h5.4V608.8z"/>
	<path id="XMLID_25_" class="st1" d="M1152.7,635.1h-9v16.6h-6.4v-16.6h-9l-6.9,16.6h-6.7l8.2-19.5l-7.7-19h6.7l6.4,16h9v-16h6.4v16
		h9l6.4-16h6.7l-7.7,19l8.2,19.5h-6.7L1152.7,635.1z"/>
	<path id="XMLID_27_" class="st1" d="M1186.8,618.3c-4.6,0-7.3,1.7-8,5.2h-6.7c0.8-6.9,6.4-11.1,14.7-11.1c4.4,0,7.8,1,10.2,3
		c2.4,1.9,3.7,4.4,3.7,7.4c0,3.7-1.3,6.3-4,7.7v1.3c3.6,1.4,5.5,4.4,5.5,8.9c0,3.3-1.3,6.2-4,8.4c-2.7,2.2-6.4,3.3-11.1,3.3
		c-9.8,0-15.3-4.4-16.4-11.9h6.8c1,4,4.3,6,9.7,6c5,0,8.4-2.3,8.4-6c0-3.9-2.6-5.8-7.7-5.8h-5.9v-5.8h5.9c4.5,0,6.4-2.2,6.4-5.2
		C1194.1,620.2,1191.1,618.3,1186.8,618.3z"/>
	<path id="XMLID_29_" class="st1" d="M1209.6,613.1h6.2v30h1.3l15.9-30h9.2v38.6h-6.2v-30h-1.3l-15.9,30h-9.2V613.1z"/>
	<path id="XMLID_31_" class="st1" d="M1251.5,613.1h6.2v30h1.3l15.9-30h9.2v38.6h-6.2v-30h-1.3l-15.9,30h-9.2V613.1z M1277.6,602.9
		c-0.3,5.2-4,8.3-9.8,8.3c-5.7,0-9.5-3.1-9.8-8.3h5c0.2,2.4,2,4,4.8,4s4.7-1.6,4.9-4H1277.6z"/>
	<path id="XMLID_34_" class="st1" d="M1293.4,651.7v-38.6h6.5v15.8h10.4l7.4-15.8h6.7l-8.6,18.7l9.1,19.8h-6.7l-7.9-16.9h-10.4v16.9
		h-6.5V651.7z"/>
	<path id="XMLID_36_" class="st1" d="M1328.2,645.3h1.2c1.7,0,3-0.4,3.8-1.1c1.8-1.5,2.8-6.2,2.8-16v-15.1h26.7v38.6h-6.5V619H1342
		v9.9c0,9.3-0.9,15.1-3.1,18.4s-5,4.3-9.6,4.3h-1.2L1328.2,645.3L1328.2,645.3z"/>
	<path id="XMLID_38_" class="st1" d="M1372.1,651.7v-38.6h10.3l8,16.8h1.3l7.9-16.8h10.3v38.6h-6.2v-30.8h-1.3l-8.2,16.9h-6.6
		l-8.1-16.9h-1.3v30.8H1372.1z"/>
	<path id="XMLID_40_" class="st1" d="M1445,613.1h6.5v38.6h-6.5v-16.8h-19.3v16.8h-6.5v-38.6h6.5v15.7h19.3V613.1z"/>
	<path id="XMLID_42_" class="st1" d="M1477.3,612.4c5.8,0,10.3,1.9,13.5,5.6s4.9,8.5,4.9,14.4c0,5.9-1.6,10.6-4.9,14.4
		c-3.2,3.7-7.7,5.6-13.5,5.6s-10.3-1.9-13.6-5.6s-4.9-8.5-4.9-14.4c0-5.9,1.6-10.6,4.9-14.4C1467,614.3,1471.5,612.4,1477.3,612.4z
		 M1477.3,646.5c3.9,0,6.8-1.3,8.8-4c2-2.6,3-6,3-10.1c0-4.1-1-7.5-3-10.1s-4.9-4-8.8-4s-6.9,1.3-8.9,4c-2,2.6-3,6-3,10.1
		c0,4.1,1,7.5,3,10.1C1470.4,645.2,1473.4,646.5,1477.3,646.5z"/>
	<path id="XMLID_45_" class="st1" d="M1503.2,613.1h31.8v38.6h-6.5V619h-18.8v32.7h-6.5V613.1z"/>
	<path id="XMLID_47_" class="st1" d="M875.8,679.1c8.6,0,13.5,4.5,13.5,11.9c0,7.6-4.9,12-13.5,12h-10.5v14.6h-6.5V679L875.8,679.1
		L875.8,679.1z M874.8,697.3c5.2,0,7.9-2.1,7.9-6.3c0-4.1-2.3-6.2-7.9-6.2h-9.5v12.5H874.8z"/>
	<path id="XMLID_50_" class="st1" d="M928.7,706c-1.4,7.5-7.1,12.4-15.7,12.4c-5.7,0-10.2-1.8-13.3-5.5c-3.2-3.7-4.8-8.5-4.8-14.5
		s1.6-10.7,4.8-14.4s7.7-5.6,13.4-5.6c4.1,0,7.4,1,10.1,3.1c2.7,2.1,4.4,4.8,5.1,8.3h-6.8c-1.2-3.7-4-5.5-8.4-5.5
		c-3.8,0-6.6,1.3-8.6,4c-2,2.6-3,6-3,10.1s1,7.5,2.9,10.2c2,2.6,4.9,3.9,8.6,3.9c4.7,0,7.9-2.4,8.9-6.5H928.7z"/>
	<path id="XMLID_52_" class="st1" d="M963.4,679.1v5.7h-12.3v32.8h-6.5v-32.8h-12.4v-5.7H963.4z"/>
	<path id="XMLID_54_" class="st1" d="M981.9,697.8h1.5l8.9-18.7h6.6l-18.5,38.6h-6.6l5.5-11.6l-14.3-27h6.9L981.9,697.8z"/>
	<path id="XMLID_56_" class="st1" d="M1025.4,682.4h0.6c5.3,0,9.6,1.3,12.8,4c3.2,2.6,4.8,6.5,4.8,11.5c0,10.2-6.8,15.5-17.6,15.5
		h-0.6v5h-6.3v-5h-0.5c-11,0-17.6-5.3-17.6-15.5c0-5,1.6-8.9,4.8-11.5s7.5-4,12.9-4h0.5v-4.5h6.3L1025.4,682.4L1025.4,682.4z
		 M1019.2,707.8V688h-0.5c-7.1,0-11.1,3.2-11.1,9.9c0,6.5,4.2,9.9,11.1,9.9L1019.2,707.8L1019.2,707.8z M1025.4,707.8h0.6
		c7,0,11.1-3.3,11.1-9.9c0-6.6-4.2-9.9-11.1-9.9h-0.6V707.8z"/>
	<path id="XMLID_60_" class="st1" d="M1073.1,717.7l-8.9-16.7h-1.8l-9.1,16.7h-7l11.1-20.3l-9.5-18.3h6.8l7.8,14.7h1.8l7.9-14.7h6.8
		l-9.7,18l11.1,20.5L1073.1,717.7L1073.1,717.7z"/>
	<path id="XMLID_62_" class="st1" d="M1117,727.1v-9.5h-30.8V679h6.5v32.7h18.6V679h6.5v32.7h5.6V727L1117,727.1L1117,727.1z"/>
	<path id="XMLID_64_" class="st1" d="M1127.7,679.1h6.5v11v1.5c0.1,0.6,0.3,2.1,0.7,2.7c1.1,1.6,3,2.8,8.2,2.8c2.7,0,5.3-0.3,7.9-1
		V679h6.5v38.6h-6.5V702c-2.7,0.6-5.8,1-9.2,1c-5.2,0-8.9-1.2-10.8-2.5c-0.9-0.7-1.7-1.6-2.2-2.9c-0.5-1.2-0.8-2.3-0.9-3.2
		c-0.1-0.9-0.1-2.2-0.1-3.7L1127.7,679.1L1127.7,679.1z"/>
	<path id="XMLID_66_" class="st1" d="M1186.8,711.8v-32.7h6.3v32.7h13.7v-32.7h6.3v38.6h-46.3v-38.6h6.3v32.7H1186.8z"/>
	<path id="XMLID_68_" class="st1" d="M1267.9,727.1v-9.5h-45.5V679h6.3v32.7h13.7V679h6.3v32.7h13.7V679h6.3v32.7h5.5V727
		L1267.9,727.1L1267.9,727.1z"/>
	<path id="XMLID_70_" class="st1" d="M1285.7,717.7V685h-9.8v-5.9h16.3V693h10.2c8.8,0,13.8,4.5,13.8,12.3s-5,12.4-13.8,12.4H1285.7
		z M1301.3,712c5.9,0,8.3-2.3,8.3-6.6s-2.4-6.5-8.3-6.5h-9.1V712H1301.3z"/>
	<path id="XMLID_73_" class="st1" d="M1323.6,717.7v-38.6h6.5V693h9.2c8.8,0,13.9,4.5,13.9,12.3s-5.1,12.4-13.9,12.4L1323.6,717.7
		L1323.6,717.7z M1338.2,712c5.9,0,8.3-2.3,8.3-6.6s-2.4-6.5-8.3-6.5h-8.2V712H1338.2z M1357.9,679.1h6.5v38.6h-6.5V679.1z"/>
	<path id="XMLID_77_" class="st1" d="M1373.7,717.7v-38.6h6.5V693h10.2c8.7,0,13.8,4.5,13.8,12.3s-5.1,12.4-13.8,12.4L1373.7,717.7
		L1373.7,717.7z M1389.3,712c5.9,0,8.3-2.3,8.3-6.6s-2.4-6.5-8.3-6.5h-9.1V712H1389.3z"/>
	<path id="XMLID_80_" class="st1" d="M1416.1,706.7c1,3.6,4.3,5.8,8.9,5.8c6.9,0,10.7-4.8,11.2-11.7H1420V695h16.1
		c-0.7-6.5-4.5-10.9-11-10.9c-4.5,0-7.4,1.7-8.6,5.2h-6.8c0.7-3.3,2.4-6,5.2-8s6.1-3,10.1-3c5.7,0,10,1.8,13.2,5.6
		c3.2,3.7,4.8,8.5,4.8,14.4s-1.6,10.7-4.8,14.4c-3.2,3.7-7.6,5.6-13.3,5.6c-4.2,0-7.7-1.1-10.5-3.2c-2.8-2.2-4.5-5-5.1-8.5h6.8
		V706.7z"/>
	<path id="XMLID_82_" class="st1" d="M1495.4,684.1c3.2,3.7,4.8,8.5,4.8,14.4s-1.6,10.6-4.8,14.4c-3.2,3.7-7.6,5.6-13.3,5.6
		c-5.2,0-9.5-1.6-12.6-4.9c-3.1-3.2-4.9-7.5-5.3-12.7h-7.2v16.8h-6.5v-38.6h6.5v15.7h7.4c0.6-4.9,2.5-8.9,5.6-11.8
		c3.1-3,7.2-4.5,12.2-4.5C1487.8,678.4,1492.3,680.3,1495.4,684.1z M1490.6,708.5c1.9-2.6,2.9-6,2.9-10.1s-1-7.5-2.9-10.1
		s-4.8-4-8.5-4s-6.6,1.3-8.5,4c-1.9,2.6-2.9,6-2.9,10.1s1,7.5,2.9,10.1s4.8,4,8.5,4C1485.9,712.5,1488.7,711.2,1490.6,708.5z"/>
	<path id="XMLID_85_" class="st1" d="M1537,679.1v38.6h-6.5v-15.3h-9c-1.5,0-2.6-0.1-3.4-0.1l-5.5,15.4h-6.6l5.9-16.8
		c-3.8-1.9-5.8-5.3-5.8-10.1c0-7.3,4.9-11.6,13.1-11.6h17.8V679.1z M1530.5,696.7v-11.9h-10.2c-5.2,0-7.5,2-7.5,5.9s2.5,5.9,7.5,5.9
		L1530.5,696.7L1530.5,696.7z"/>
	<path id="XMLID_88_" class="st1" d="M875.5,807.7v-2.5h-1.3c-1.7,2.2-4.4,3.2-8.1,3.2c-3,0-5.4-0.9-7.2-2.6
		c-1.8-1.8-2.6-3.9-2.6-6.4s0.9-4.6,2.7-6.5s4.5-2.8,8.2-2.8h8.1v-0.8c0-3.2-1.9-5-5.8-5c-3.4,0-5.2,1.2-5.5,3.5h-6
		c0.3-5.1,4.8-8.3,11.3-8.3c7.4,0,11.9,3.3,11.9,9.9v18.3L875.5,807.7L875.5,807.7z M873.2,801.4c1.4-1.4,2.1-3,2.1-4.9v-2.1h-7
		c-3.8,0-5.8,1.7-5.8,4.5s2.1,4.4,5.6,4.4C870.1,803.4,871.8,802.8,873.2,801.4z"/>
	<path id="XMLID_91_" class="st1" d="M912,784.7c2.4,2.6,3.6,5.9,3.6,9.9s-1.3,7.3-3.8,9.9c-2.5,2.6-5.9,3.9-10.1,3.9
		c-8.9,0-14-6-14-16.8c0-5,0.4-8.7,1.9-12.7c1.5-3.9,4.5-6.5,9-7.2l7.2-1.2c2.1-0.4,2.6-0.6,2.7-2.1h5.2c-0.2,3.7-1.3,6.1-5.5,6.8
		l-8.7,1.4c-4.2,0.6-5.9,3.2-6.8,7.9h1.3c1.9-2.5,4.9-3.8,8.7-3.8C906.5,780.8,909.7,782.1,912,784.7z M907.4,800.7
		c1.3-1.7,2-3.8,2-6.2c0-4.9-2.8-8.6-7.8-8.6c-5.1,0-7.8,3.7-7.8,8.6c0,2.4,0.6,4.5,2,6.2s3.3,2.5,5.8,2.5S906,802.3,907.4,800.7z"
		/>
	<path id="XMLID_94_" class="st1" d="M942.7,793.8c2.8,0.7,4.6,3,4.6,6.4c0,5-3.5,7.6-9.7,7.6h-15.2v-27.5h14.7c5.6,0,8.7,2.6,8.7,7
		c0,2.4-1.4,4.5-3.1,5.3V793.8z M928.4,784.9v6.5h7.4c2.6,0,3.9-1.3,3.9-3.2c0-2.2-1.3-3.2-3.9-3.2L928.4,784.9L928.4,784.9z
		 M936.4,803c3.1,0,4.7-1.2,4.7-3.6c0-2.4-1.6-3.7-4.7-3.7h-8v7.3H936.4z"/>
	<path id="XMLID_98_" class="st1" d="M954.1,807.7v-27.5h21.4v5.2h-15.3v22.3H954.1z"/>
	<path id="XMLID_100_" class="st1" d="M1004.2,802.5h5v12.9h-5.8v-7.7h-22v7.7h-5.8v-12.9h3.9c1.9-4.5,2.9-9.3,2.9-14.6v-7.7h22
		v22.3H1004.2z M998.1,802.5v-17.1h-10.3v2.6c0,5.5-0.8,10.3-2.5,14.5H998.1z"/>
	<path id="XMLID_103_" class="st1" d="M1039.5,794.5h-20.3c0.2,5.8,2.8,8.7,7.7,8.7c3.2,0,5.2-1.2,6-3.5h6.2
		c-1.1,5.2-5.3,8.7-12.3,8.7c-4.3,0-7.6-1.4-10-4c-2.4-2.7-3.7-6.2-3.7-10.6s1.2-7.8,3.6-10.4c2.4-2.6,5.8-3.9,9.9-3.9
		c3.9,0,7.1,1.2,9.3,3.7c2.3,2.4,3.5,5.5,3.5,9.2L1039.5,794.5L1039.5,794.5z M1019.4,789.9h13.8c-0.4-3.2-2.8-5.6-6.6-5.6
		C1022.6,784.4,1020.1,786.5,1019.4,789.9z"/>
	<path id="XMLID_106_" class="st1" d="M1071,794.5h-20.3c0.2,5.8,2.8,8.7,7.7,8.7c3.2,0,5.2-1.2,6-3.5h6.2
		c-1.1,5.2-5.3,8.7-12.3,8.7c-4.3,0-7.6-1.4-10-4c-2.4-2.7-3.7-6.2-3.7-10.6s1.2-7.8,3.6-10.4c2.4-2.6,5.8-3.9,9.9-3.9
		c3.9,0,7.1,1.2,9.3,3.7c2.3,2.4,3.5,5.5,3.5,9.2L1071,794.5L1071,794.5z M1055.8,774.8h-5.5v-5.9h5.5V774.8z M1050.9,789.9h13.8
		c-0.4-3.2-2.8-5.6-6.6-5.6C1054,784.4,1051.6,786.5,1050.9,789.9z M1066,774.8h-5.4v-5.9h5.4V774.8z"/>
	<path id="XMLID_111_" class="st1" d="M1086.9,796.2l-5.2,11.4h-6.3l6.4-14.1l-6-13.3h6.2l4.9,10.9h6.1v-10.9h5.7v10.9h6.1l4.8-10.9
		h6.2l-5.9,13.3l6.4,14.1h-6.3l-5.1-11.4h-6.1v11.4h-5.8v-11.4H1086.9z"/>
	<path id="XMLID_113_" class="st1" d="M1132.9,784.7c-3.4,0-5.4,1.2-5.9,3.5h-5.7c0.5-5.6,5.1-8.7,11.9-8.7c6.9,0,11.1,3.3,11.1,7.8
		c0,2.9-0.9,4.6-2.8,5.4v1.3c2.4,0.7,3.7,2.7,3.7,5.9c0,2.4-1.1,4.5-3.2,6.1s-5,2.4-8.6,2.4c-7.8,0-12.3-3.3-13-8.9h5.7
		c0.7,2.5,3.1,3.7,7,3.7c4,0,6-1.2,6-3.6c0-2.3-1.7-3.4-5.2-3.4h-4.7v-5h4.4c3.1,0,4.6-1.1,4.6-3.2S1136.2,784.7,1132.9,784.7z"/>
	<path id="XMLID_115_" class="st1" d="M1159.1,807.7h-6.9v-27.5h5.9v18.1h1.3l11.3-18.1h7.1v27.5h-5.9v-18.1h-1.3L1159.1,807.7z"/>
	<path id="XMLID_117_" class="st1" d="M1193.1,807.7h-6.9v-27.5h5.9v18.1h1.3l11.3-18.1h7.1v27.5h-5.9v-18.1h-1.3L1193.1,807.7z
		 M1208.1,768.8c-0.3,5-3.6,8-9.1,8c-5.6,0-8.9-3-9.1-8h4.8c0.2,2.6,1.6,3.9,4.3,3.9s4.2-1.3,4.3-3.9H1208.1z"/>
	<path id="XMLID_120_" class="st1" d="M1239.2,807.7l-5.8-11.5h-7.1v11.5h-6.1v-27.5h6.1V791h7.2l5.5-10.8h6.3l-6.8,13.2l7.1,14.3
		H1239.2z"/>
	<path id="XMLID_122_" class="st1" d="M1248.9,807.7v-5.8h1c3.7,0,5.2-2.6,5.2-10.6v-11.1h22.2v27.5h-6.1v-22.3h-10.5v6.1
		c0,5.9-0.9,10.2-2.6,12.6c-1.7,2.4-4.4,3.6-8.3,3.6H1248.9z"/>
	<path id="XMLID_124_" class="st1" d="M1285.8,807.7v-27.5h8.7l6.2,12h1.3l6.1-12h8.6v27.5h-5.9v-19.8h-1.3l-5.3,10.3h-5.7
		l-5.3-10.3h-1.3v19.8H1285.8z"/>
	<path id="XMLID_126_" class="st1" d="M1350.6,807.7h-6.1v-11.5h-13.3v11.5h-6.1v-27.5h6.1V791h13.3v-10.8h6.1V807.7z"/>
	<path id="XMLID_128_" class="st1" d="M1381.3,804.4c-2.5,2.6-5.8,4-10.1,4c-4.3,0-7.6-1.4-10.2-4c-2.5-2.7-3.7-6.2-3.7-10.5
		s1.2-7.7,3.7-10.4s5.9-4,10.2-4c4.3,0,7.6,1.3,10.1,4c2.5,2.6,3.8,6.1,3.8,10.4C1385.1,798.2,1383.9,801.7,1381.3,804.4z
		 M1371.2,784.7c-5,0-7.8,4-7.8,9.2s2.8,9.3,7.8,9.3s7.8-4,7.8-9.3C1379,788.7,1376.3,784.7,1371.2,784.7z"/>
	<path id="XMLID_131_" class="st1" d="M1417.2,807.7h-6.1v-22.3H1398v22.3h-6.1v-27.5h25.3L1417.2,807.7L1417.2,807.7z"/>
	<path id="XMLID_133_" class="st1" d="M1425.6,780.2h5.9v2.6h1.3c1.8-2.2,4.5-3.3,8.1-3.3s6.5,1.3,8.6,4c2.2,2.7,3.2,6.2,3.2,10.4
		c0,4.3-1.1,7.7-3.2,10.4s-5,4-8.6,4s-6.2-1.1-7.9-3.3h-1.3v13.4h-6.1V780.2z M1431.6,793.9c0,5.2,2.6,9.3,7.6,9.3
		c4.8,0,7.5-3.7,7.5-9.3s-2.7-9.2-7.5-9.2C1434.1,784.7,1431.6,788.7,1431.6,793.9z"/>
	<path id="XMLID_136_" class="st1" d="M1483.7,798.9c-0.9,5.8-5.6,9.5-12.1,9.5c-4.2,0-7.6-1.4-10-4s-3.6-6.2-3.6-10.5
		s1.2-7.8,3.6-10.4c2.4-2.6,5.8-4,10-4c6.5,0,11.1,3.6,11.9,9.1h-6c-0.8-2.6-2.8-3.9-5.8-3.9c-5.1,0-7.6,3.8-7.6,9.2
		c0,5.5,2.4,9.3,7.6,9.3c3.3,0,5.3-1.5,6-4.3L1483.7,798.9L1483.7,798.9z"/>
	<path id="XMLID_138_" class="st1" d="M1487.7,785.4v-5.2h24.6v5.2h-9.2v22.3h-6.1v-22.3H1487.7z"/>
	<path id="XMLID_140_" class="st1" d="M1527.1,818.5h-6.2l5.7-13.5l-11.7-24.8h6.4l7.7,16.6h1.4l7-16.6h6.3L1527.1,818.5z"/>
	<path id="XMLID_142_" class="st1" d="M877.4,884.5h-6v-10.8h-0.6c-4.4-0.1-7.8-1.3-10.3-3.8c-2.4-2.5-3.7-5.8-3.7-9.9
		c0-4,1.2-7.3,3.6-9.8c2.4-2.5,5.8-3.8,10.2-3.9h0.8v-11.8h6v11.8h0.8c4.3,0.1,7.7,1.3,10.2,3.9c2.4,2.5,3.7,5.8,3.7,9.8
		c0,8.4-5.3,13.8-14.6,13.8v10.7H877.4z M870.7,868.8h0.7v-17.7h-0.6c-5.2,0.1-8,3.8-8,8.8C862.7,865.1,865.5,868.7,870.7,868.8z
		 M877.4,868.8h0.6c5.2-0.1,8-3.7,8-8.9c0-5-2.9-8.7-8-8.8h-0.6V868.8z"/>
	<path id="XMLID_146_" class="st1" d="M916.5,873.7l-6-10.8h-2l-6.2,10.8h-6.5l8.2-14.1l-7.4-13.4h6.4l5.6,10.2h2l5.7-10.2h6.3
		l-7.5,13.2l8.1,14.3H916.5z"/>
	<path id="XMLID_148_" class="st1" d="M948.2,846.2h6.1v22.3h4.9v12.9h-5.8v-7.7h-24.2v-27.5h6.1v22.3h12.9V846.2z"/>
	<path id="XMLID_150_" class="st1" d="M963.2,846.2h6.1v7.9c0,1.5,0.1,2.2,0.8,3.2s2.4,1.5,5.2,1.5c1.9,0,3.9-0.2,6-0.6v-12h6.2
		v27.5h-6.2v-10.4c-2.3,0.5-4.9,0.8-7.7,0.8c-3.7,0-6.4-0.8-7.8-1.9c-2.3-1.9-2.6-4.4-2.6-7.2V846.2z"/>
	<path id="XMLID_152_" class="st1" d="M1026.7,846.2h5.9v27.5h-36.7v-27.5h5.9v22.3h9.5v-22.3h5.9v22.3h9.5L1026.7,846.2
		L1026.7,846.2z"/>
	<path id="XMLID_154_" class="st1" d="M1071.8,846.2h5.9v22.3h5v12.9h-5.8v-7.7H1041v-27.5h5.9v22.3h9.5v-22.3h5.9v22.3h9.5V846.2
		L1071.8,846.2z"/>
	<path id="XMLID_156_" class="st1" d="M1085,851.4v-5.2h14.1v8.5h7.4c6.9,0,10.7,3.5,10.7,9.3c0,6-3.9,9.6-10.7,9.6H1093v-22.3h-8
		V851.4z M1105.7,868.5c3.9,0,5.5-1.6,5.5-4.4c0-3-1.5-4.4-5.5-4.4h-6.5v8.9L1105.7,868.5L1105.7,868.5z"/>
	<path id="XMLID_159_" class="st1" d="M1123.6,846.2h6.1v8.5h6.9c6.9,0,10.7,3.5,10.7,9.3c0,6-3.8,9.6-10.7,9.6h-13V846.2z
		 M1129.7,859.7v8.9h6c3.9,0,5.5-1.6,5.5-4.4c0-3-1.5-4.4-5.5-4.4L1129.7,859.7L1129.7,859.7z M1151.5,846.2h6.1v27.5h-6.1V846.2z"
		/>
	<path id="XMLID_163_" class="st1" d="M1172.1,846.2v8.5h7.4c6.9,0,10.7,3.5,10.7,9.3c0,6-3.8,9.6-10.7,9.6H1166v-27.5h6.1V846.2z
		 M1178.7,868.5c3.9,0,5.5-1.6,5.5-4.4c0-3-1.5-4.4-5.5-4.4h-6.5v8.9L1178.7,868.5L1178.7,868.5z"/>
	<path id="XMLID_166_" class="st1" d="M1200.7,865.3c0.6,2.6,2.8,3.9,6.5,3.9c4.4,0,7-2.7,7.4-7h-11v-5h10.9c-0.4-3.9-3-6.6-7.3-6.6
		c-3.5,0-5.5,1.2-6.2,3.5h-5.8c1-5.2,5.6-8.7,12-8.7c4.2,0,7.5,1.3,9.9,4c2.4,2.6,3.7,6.2,3.7,10.4c0,4.4-1.2,7.9-3.7,10.5
		c-2.4,2.6-5.8,3.9-9.9,3.9c-3.3,0-6-0.8-8.3-2.5s-3.6-3.9-4-6.6h5.8V865.3z"/>
	<path id="XMLID_168_" class="st1" d="M1262.6,849.6c2.5,2.7,3.8,6.2,3.8,10.3c0,4.2-1.2,7.7-3.8,10.4c-2.5,2.7-5.8,4-9.9,4
		c-3.7,0-6.8-1.1-9.2-3.3c-2.4-2.3-3.8-5.2-4.3-8.9h-5.6v11.6h-6v-27.5h6V857h5.8c0.5-3.4,2-6.2,4.4-8.3s5.3-3.2,9-3.2
		C1256.8,845.5,1260.1,846.9,1262.6,849.6z M1260.3,859.9c0-5.2-2.6-9.2-7.6-9.2s-7.7,4-7.7,9.2c0,5.3,2.6,9.3,7.7,9.3
		C1257.6,869.2,1260.3,865.2,1260.3,859.9z"/>
	<path id="XMLID_171_" class="st1" d="M1296.5,846.2v27.5h-6.1v-10h-6.5c-0.9,0-1.5,0-1.9-0.1l-3.8,10h-6.2l4.4-11.3
		c-2.8-1.5-4.2-3.9-4.2-7.3c0-5.5,3.8-8.8,10.4-8.8L1296.5,846.2L1296.5,846.2z M1290.4,859v-7.8h-7.2c-3.2,0-4.9,1.3-4.9,3.9
		c0,2.6,1.6,3.9,4.9,3.9L1290.4,859L1290.4,859z"/>
	<path id="XMLID_174_" class="st1" d="M871.3,925.1c4.3,0,7.8,1.6,10.4,4.9c2.6,3.3,3.9,8.2,3.9,14.7s-1.3,11.4-3.9,14.7
		c-2.6,3.2-6.1,4.9-10.4,4.9s-7.8-1.6-10.4-4.9c-2.6-3.3-3.9-8.2-3.9-14.7s1.3-11.4,3.9-14.7C863.5,926.8,867,925.1,871.3,925.1z
		 M871.3,958.8c2.8,0,4.9-1.3,6.1-3.8c1.3-2.5,1.9-5.9,1.9-10.2s-0.6-7.6-1.9-10.2c-1.2-2.6-3.3-3.9-6.1-3.9s-4.9,1.3-6.2,3.9
		c-1.2,2.5-1.9,5.9-1.9,10.2s0.6,7.6,1.9,10.2C866.5,957.5,868.5,958.8,871.3,958.8z"/>
	<path id="XMLID_177_" class="st1" d="M891.5,963.7v-5.5h8.7v-25.9H899l-7.5,5.1v-6.3l7.6-5.2h7.5v32.3h8v5.5L891.5,963.7
		L891.5,963.7z"/>
	<path id="XMLID_179_" class="st1" d="M919.2,936.8c0.4-7.6,5.5-11.7,13.2-11.7c3.8,0,6.9,1,9.2,3.1s3.5,5,3.5,8.7
		c0,4.5-2.5,8.7-7.7,12.9l-8.7,7.1v1.3h17.5v5.5h-26.9v-6.8l13.6-10.7c3.6-2.8,6-5.6,6-9.2c0-4-2.5-6.3-6.5-6.3c-3.8,0-6.4,2-6.8,6
		h-6.4V936.8z"/>
	<path id="XMLID_181_" class="st1" d="M952.7,925.9h23.2v6.6l-8.2,6.6v1.4c5.9,0.4,10.1,4.4,10.1,11.2c0,3.9-1.3,7-3.9,9.3
		c-2.5,2.3-5.9,3.4-10,3.4c-4,0-7.2-1.1-9.8-3.3s-3.9-5.1-4.1-8.5h6.3c0.4,3.8,3.4,6.2,7.5,6.2c4.7,0,7.6-2.7,7.6-7.1
		s-2.8-7.1-7.6-7.1c-1.4,0-2.5,0.1-3.4,0.3v-5.7l8.2-6.6v-1.3h-16v-5.4H952.7z"/>
	<path id="XMLID_183_" class="st1" d="M1006.7,949.7h4.9v5.5h-4.9v8.5h-6.1v-8.5h-18.4v-6.8l16.6-22.5h7.8v23.8H1006.7z
		 M988.5,949.7h12.3V933h-1.3l-11,15.4V949.7z"/>
	<path id="XMLID_186_" class="st1" d="M1040.8,941.7c2.3,2.4,3.4,5.4,3.4,9.1c0,4-1.2,7.3-3.8,9.9c-2.5,2.5-5.8,3.7-9.7,3.7
		c-8.3,0-13.3-4.8-13.8-11.8h6.3c0.5,4,3.1,6.2,7.3,6.2c4.5,0,7.4-3,7.4-7.8s-2.9-7.8-7.3-7.8c-3,0-5.2,1.1-6.8,3.2h-6l1.7-20.5
		h22.5v5.3h-17.5l-0.7,9.2h1.3c1.9-1.6,4.3-2.4,7-2.4C1035.6,938.1,1038.5,939.3,1040.8,941.7z"/>
	<path id="XMLID_188_" class="st1" d="M1074,942.3c2.3,2.3,3.5,5.3,3.5,8.9c0,3.7-1.2,6.9-3.7,9.4c-2.4,2.5-5.7,3.8-9.7,3.8
		c-4.5,0-8-1.5-10.6-4.5s-3.9-7.7-3.9-14.3c0-4,0.5-7.5,1.5-10.5c2.1-6,6.7-10,13.3-10c3.2,0,5.9,0.9,8.1,2.7s3.5,4,3.9,6.8h-6.2
		c-0.8-2.8-2.8-4.2-5.9-4.2c-5.2,0-8.4,4.2-8.7,11.6h1.3c1.9-2.2,4.6-3.3,8.4-3.3C1068.8,938.8,1071.7,940,1074,942.3z M1064,944
		c-4.3,0-7.2,2.6-7.2,7.3c0,4.8,3,7.6,7.3,7.6s7.2-2.8,7.2-7.6C1071.2,946.7,1068.2,944,1064,944z"/>
	<path id="XMLID_191_" class="st1" d="M1107.2,932.6l-15.7,31.1h-6.6l15.8-31.1v-1.3h-18.5v-5.5h24.9L1107.2,932.6L1107.2,932.6z"/>
	<path id="XMLID_193_" class="st1" d="M1135.2,944.4c3,1.1,5.7,4.3,5.7,8.9c0,3.2-1.3,5.9-3.8,8s-5.9,3.2-10.3,3.2
		c-4.4,0-7.8-1.1-10.4-3.2c-2.5-2.1-3.8-4.8-3.8-8c0-4.5,2.8-7.7,5.7-8.9v-1.3c-2.4-1.2-4.5-3.9-4.5-7.8c0-3,1.2-5.4,3.6-7.3
		c2.4-1.9,5.5-2.9,9.4-2.9c3.9,0,7,1,9.3,2.9c2.4,1.9,3.6,4.3,3.6,7.3c0,3.8-2.2,6.5-4.5,7.8L1135.2,944.4L1135.2,944.4z
		 M1134.7,952.6c0-3.8-3-6.4-7.9-6.4c-5,0-7.9,2.5-7.9,6.4s2.9,6.4,7.9,6.4C1131.7,959,1134.7,956.5,1134.7,952.6z M1126.8,941.4
		c3.9,0,6.8-2.2,6.8-5.6c0-3.4-2.9-5.6-6.8-5.6c-3.9,0-6.9,2.3-6.9,5.6C1119.9,939.2,1122.8,941.4,1126.8,941.4z"/>
	<path id="XMLID_197_" class="st1" d="M1149.2,947.3c-2.3-2.3-3.5-5.3-3.5-9s1.2-6.9,3.7-9.4s5.7-3.8,9.7-3.8c4.5,0,8,1.5,10.6,4.5
		s3.9,7.7,3.9,14.3c0,4-0.5,7.5-1.6,10.5c-2,6-6.6,10-13.3,10c-3.2,0-5.9-0.9-8.1-2.7s-3.5-4-3.9-6.8h6.2c0.8,2.8,2.8,4.2,5.9,4.2
		c5.2,0,8.4-4.2,8.7-11.6h-1.3c-1.9,2.2-4.6,3.3-8.4,3.3C1154.4,950.7,1151.5,949.6,1149.2,947.3z M1159.3,945.5
		c4.3,0,7.2-2.6,7.2-7.3c0-4.8-3-7.6-7.3-7.6s-7.2,2.8-7.2,7.6C1152.1,942.8,1155,945.5,1159.3,945.5z"/>
	<path id="XMLID_200_" class="st1" d="M865,1009.4h-7v-7.2h7V1009.4z M865,1029.7h-7v-7.2h7V1029.7z"/>
	<path id="XMLID_203_" class="st1" d="M876.2,1029.7H873v-7.2h7v8.4l-3.6,5.8h-3.8l3.6-5.8V1029.7z M880,1009.4h-7v-7.2h7V1009.4z"
		/>
	<path id="XMLID_206_" class="st1" d="M894.9,1029.7h-7v-7.2h7V1029.7z"/>
	<path id="XMLID_208_" class="st1" d="M906,1029.7h-3.2v-7.2h7v8.4l-3.6,5.8h-3.8l3.6-5.8V1029.7z"/>
	<path id="XMLID_210_" class="st1" d="M941,1001.3c0,1.7-0.3,3.2-1,4.6c-0.6,1.4-1.3,2.4-2.1,3.1c-0.8,0.7-1.9,1.6-3.5,2.8
		c-1.3,1-2.3,1.8-2.8,2.5s-0.7,1.7-0.7,3.1v1.5h-6.2v-1.5c0-2.1,0.4-3.8,1.2-5s2.3-2.7,4.5-4.4c1.1-0.8,1.8-1.5,2.3-1.9
		c0.9-0.9,2-2.6,2-4.7c0-3-2.3-5.5-6-5.5c-4.2,0-6.3,2.1-6.5,6.4H916c0.1-3.5,1.2-6.4,3.4-8.5s5.3-3.2,9.2-3.2
		C936.4,990.4,941,994.8,941,1001.3z M931.3,1029.7h-7v-7.2h7V1029.7z"/>
	<path id="XMLID_213_" class="st1" d="M949.4,1037.3H944l16.3-48.6h5.2L949.4,1037.3z"/>
	<path id="XMLID_215_" class="st1" d="M979.4,1029.7h-7v-7.2h7V1029.7z M972.8,991.1h6.2v15.8l-1.1,11.9H974l-1.1-11.9v-15.8H972.8z
		"/>
	<path id="XMLID_218_" class="st1" d="M1023.5,1035.9c-4.2,2.8-8.9,4.1-14.2,4.1c-6.6,0-11.8-2-15.8-6c-3.9-3.9-5.8-9.2-5.8-15.7
		c0-7.5,2.4-13.7,7.1-18.6c4.7-5,10.9-7.5,18.4-7.5c3.9,0,7.5,0.8,10.6,2.3c6.5,3,10.9,9.3,10.9,17.3c0,4.5-1.1,8.3-3.2,11.4
		c-2.1,3.1-5.1,4.6-8.9,4.6c-3.3,0-5.5-1-6.4-3.1h-1.1c-1.8,2.1-4.1,3.1-6.9,3.1c-5.4,0-8.7-3.7-8.7-9.8c0-3.7,1.1-6.8,3.2-9.5
		c2.2-2.6,5-4,8.4-4c2.6,0,4.7,1.2,5.5,2.5h1.1l0.4-1.8h5l-2.3,13.7c-0.2,1.2-0.3,2.1-0.3,2.6c0,1.8,1,2.8,3,2.8s3.7-1.1,5.2-3.3
		s2.3-5.3,2.3-9.4c0-4.9-1.7-8.8-5-11.8c-3.3-3-7.8-4.5-13.4-4.5c-6.2,0-11.3,2.1-15.3,6.3s-6,9.7-6,16.5c0,3.3,0.6,6.4,1.8,9.1
		c2.4,5.4,8.3,9.4,16.5,9.4c4.5,0,8.6-1.2,12.4-3.7L1023.5,1035.9z M1014.3,1021c1.2-1.7,1.9-3.9,1.9-6.5c0-3.8-1.5-5.7-4.6-5.7
		c-1.9,0-3.5,0.9-4.8,2.8c-1.2,1.8-1.8,3.9-1.8,6.3c0,3.6,1.5,5.7,4.5,5.7C1011.5,1023.6,1013.1,1022.7,1014.3,1021z"/>
	<path id="XMLID_221_" class="st1" d="M1053.2,1011.6v-11.2h5.2v11.2h11.2v5.2h-11.2v11.2h-5.2v-11.2H1042v-5.2H1053.2z"/>
	<path id="XMLID_223_" class="st1" d="M1090.7,1037.3h-5.5c-5.7-6.9-8.5-15-8.5-24.5c0-9.3,2.8-17.3,8.3-24.1h5.5
		c-5.6,7.7-8.3,15.7-8.3,24.1C1082.1,1021.5,1084.9,1029.6,1090.7,1037.3z"/>
	<path id="XMLID_225_" class="st1" d="M1091.4,988.7h5.5c5.5,6.8,8.3,14.8,8.3,24.1c0,9.5-2.9,17.6-8.5,24.5h-5.5
		c5.7-7.7,8.6-15.8,8.6-24.5C1099.7,1004.4,1096.9,996.4,1091.4,988.7z"/>
	<path id="XMLID_227_" class="st1" d="M1115.4,1014.4h-5.7l11.1-22.1h4.2l11.1,22.1h-5.6l-7-14h-1.1L1115.4,1014.4z"/>
	<path id="XMLID_229_" class="st1" d="M1149.4,991.1c2.9,0,5,1,6.5,2.9c1.6,1.9,2.3,4.4,2.3,7.3s-0.8,5.5-2.3,7.3
		c-1.5,1.9-3.7,2.9-6.5,2.9s-5-1-6.5-2.9s-2.3-4.4-2.3-7.3s0.8-5.5,2.3-7.3C1144.4,992.1,1146.5,991.1,1149.4,991.1z M1153.9,1001.3
		c0-3.7-1.5-6.3-4.5-6.3c-2.9,0-4.4,2.5-4.4,6.3s1.6,6.3,4.4,6.3C1152.4,1007.6,1153.9,1005.2,1153.9,1001.3z M1153,1029.7h-4.8
		l22.9-37.8h4.8L1153,1029.7z M1174.6,1010c2.9,0,5,1,6.5,2.9c1.6,1.9,2.3,4.4,2.3,7.3c0,3-0.8,5.5-2.3,7.3
		c-1.5,1.9-3.7,2.9-6.5,2.9s-5-1-6.6-2.9c-1.5-1.9-2.3-4.4-2.3-7.3c0-3,0.8-5.5,2.3-7.3C1169.6,1011,1171.8,1010,1174.6,1010z
		 M1170.1,1020.2c0,1.9,0.4,3.5,1.1,4.6c0.8,1.1,1.9,1.7,3.3,1.7s2.6-0.6,3.3-1.7c0.8-1.1,1.1-2.6,1.1-4.5c0-3.7-1.6-6.3-4.5-6.3
		C1171.7,1013.9,1170.1,1016.5,1170.1,1020.2z"/>
	<path id="XMLID_235_" class="st1" d="M1189.4,1002h6.2l1.6-10.1h4.9l-1.6,10.1h6.7l1.6-10.1h4.9l-1.6,10.1h5.3v4.8h-6l-1.3,8.2h5.5
		v4.8h-6.2l-1.6,10h-5l1.6-10h-6.7l-1.6,10h-5l1.6-10h-5.3v-4.8h6l1.3-8.2h-5.5v-4.8H1189.4z M1199.8,1006.7l-1.3,8.2h6.7l1.3-8.2
		H1199.8z"/>
	<path id="XMLID_238_" class="st1" d="M1249.7,991.9h5.9v37.8h-8.9l-15.7-28.6h-1.3v28.6h-5.9v-37.8h8.9l15.7,28.6h1.3V991.9z
		 M1269.6,991.1c2.9,0,5,1,6.5,2.9c1.6,1.9,2.3,4.4,2.3,7.3s-0.8,5.5-2.3,7.3c-1.5,1.9-3.7,2.9-6.5,2.9s-5-1-6.5-2.9
		s-2.3-4.4-2.3-7.3s0.8-5.5,2.3-7.3C1264.5,992.1,1266.7,991.1,1269.6,991.1z M1278.5,1018.6h-17.7v-3.8h17.7V1018.6z M1274,1001.3
		c0-3.7-1.5-6.3-4.5-6.3c-2.9,0-4.4,2.5-4.4,6.3s1.6,6.3,4.4,6.3C1272.5,1007.6,1274,1005.2,1274,1001.3z"/>
	<path id="XMLID_243_" class="st1" d="M1288.7,998.4h-3.2v-7.2h7v8.4l-3.6,5.8h-3.8l3.6-5.8V998.4z M1299.4,998.4h-3.2v-7.2h7v8.4
		l-3.6,5.8h-3.8l3.6-5.8V998.4z"/>
	<path id="XMLID_246_" class="st1" d="M1317.3,1013.7c2.2,0.7,3.3,2.6,3.3,5.9v7.6c0,3.7,1.6,5.5,4.8,5.5h1.8v4.6h-2.6
		c-5.8,0-9.5-3.5-9.5-9.2v-7.5c0-3.5-1-5.1-3.6-5.1h-1v-4.9h1c2.6,0,3.6-1.7,3.6-5.1V998c0-5.8,3.7-9.2,9.5-9.2h2.6v4.6h-1.8
		c-3.2,0-4.8,1.8-4.8,5.5v7.6c0,3.2-1.1,5.2-3.3,5.9V1013.7z"/>
	<path id="XMLID_248_" class="st1" d="M1341.2,1012.4c-2.2-0.7-3.3-2.6-3.3-5.9v-7.6c0-3.7-1.6-5.5-4.8-5.5h-1.8v-4.6h2.6
		c5.8,0,9.5,3.5,9.5,9.2v7.5c0,3.5,1,5.1,3.6,5.1h1v4.9h-1c-2.6,0-3.6,1.7-3.6,5.1v7.5c0,5.8-3.7,9.2-9.5,9.2h-2.6v-4.6h1.8
		c3.2,0,4.8-1.8,4.8-5.5v-7.6c0-3.2,1.1-5.2,3.3-5.9V1012.4z"/>
	<path id="XMLID_250_" class="st1" d="M1362.3,991.1h4.4l-0.3,8.9l8.4-3.1l1.4,4.3l-8.5,2.5l5.5,7l-3.6,2.7l-5-7.3l-4.9,7.3
		l-3.6-2.7l5.4-7l-8.5-2.5l1.4-4.3l8.3,3.1L1362.3,991.1z"/>
	<path id="XMLID_252_" class="st1" d="M870.3,1068.2h7.3l-9.9,9.8v1.3h27.4v5.3h-27.4v1.3l9.9,9.8h-7.3l-13.8-13.7L870.3,1068.2z"/>
	<path id="XMLID_254_" class="st1" d="M902.6,1078.2v-7.2l13.8-13.8l13.7,13.8v7.3l-9.8-9.9H919v27.4h-5.3v-27.4h-1.3L902.6,1078.2z
		"/>
	<path id="XMLID_256_" class="st1" d="M955.1,1068.2h7.3l13.8,13.8l-13.8,13.7h-7.3l9.9-9.8v-1.3h-27.4v-5.3H965v-1.3L955.1,1068.2z
		"/>
	<path id="XMLID_258_" class="st1" d="M1010.5,1074.6v7.2l-13.8,13.8l-13.7-13.7v-7.3l9.8,9.9h1.3v-27.4h5.3v27.4h1.3L1010.5,1074.6
		z"/>
	<path id="XMLID_260_" class="st1" d="M1024.6,1081.7l-5.1-5.1v-19.5h19.4l5.2,5.1h-13.9l-0.9,0.9l19.4,19.3l-3.7,3.8l-19.4-19.4
		l-0.9,0.9L1024.6,1081.7L1024.6,1081.7z"/>
	<path id="XMLID_262_" class="st1" d="M1086.7,1076.6l-5.1,5.1v-13.9l-0.9-0.9l-19.4,19.4l-3.7-3.8l19.4-19.3l-0.9-0.9h-13.9
		l5.2-5.1h19.4v19.4H1086.7z"/>
	<path id="XMLID_264_" class="st1" d="M1095.7,1076.2l5.1-5.1v13.9l0.9,0.9l19.4-19.4l3.7,3.8l-19.4,19.3l0.9,0.9h13.9l-5.2,5.1
		h-19.4L1095.7,1076.2L1095.7,1076.2z"/>
	<path id="XMLID_266_" class="st1" d="M1157.8,1071.1l5.1,5.1v19.5h-19.4l-5.2-5.1h13.9l0.9-0.9l-19.4-19.3l3.7-3.8l19.4,19.4
		l0.9-0.9L1157.8,1071.1L1157.8,1071.1z"/>
	<path id="XMLID_268_" class="st1" d="M1176,1079.6v1.2l9,9.6h-6.6l-7.9-8.2v-4l7.9-8.3h6.6L1176,1079.6z"/>
	<path id="XMLID_270_" class="st1" d="M1200,1080.8v-1.2l-9-9.6h6.6l7.9,8.3v4l-7.9,8.2h-6.6L1200,1080.8z"/>
	<path id="XMLID_272_" class="st1" d="M1219.7,1074h4.8v3.7h-14v-3.7h5v-12.3h-1l-4,2.4v-4.1l5-3h4.2V1074z M1223.3,1095.7h-4.8
		l22.9-37.8h4.8L1223.3,1095.7z M1250.8,1087.6h2.6v3.7h-2.6v4.4h-4.2v-4.4h-10v-4.2l9-12h5.2V1087.6z M1240.9,1087.6h5.9v-7.6h-0.9
		l-5,6.8V1087.6z"/>
	<path id="XMLID_277_" class="st1" d="M1266.7,1074h4.8v3.7h-14v-3.7h5v-12.3h-1l-4,2.4v-4.1l5-3h4.2V1074z M1270.3,1095.7h-4.8
		l22.9-37.8h4.8L1270.3,1095.7z M1292.1,1092h9.2v3.7h-15.8v-4.5l6.2-4.2c1-0.6,1.7-1.2,2.3-1.6c1.1-0.9,2.4-2.4,2.4-3.9
		c0-1.9-1.2-3-3.2-3c-2.3,0-3.4,1.1-3.5,3.2h-4.2c0.1-4.6,3.2-7,7.8-7c4.4,0,7.3,2.4,7.3,6.6c0,2.5-1.3,4.8-4.1,6.7l-4.4,3.1
		L1292.1,1092L1292.1,1092z"/>
	<path id="XMLID_281_" class="st1" d="M1316.1,1065.1c2.9,0.4,5.1,2.6,5.1,6c0,4.3-3.3,7-8,7c-4.8,0-7.9-2.9-8.1-7h4.2
		c0.2,2,1.8,3.2,3.9,3.2c2.3,0,3.8-1.3,3.8-3.3c0-2.1-1.4-3.3-3.7-3.3c-0.7,0-1.3,0.1-2,0.2v-3.5l3.7-2.6v-0.9h-8.4v-3.7h13.7v4.3
		l-4.2,2.8V1065.1z M1318.4,1095.7h-4.8l22.9-37.8h4.8L1318.4,1095.7z M1345.9,1087.6h2.6v3.7h-2.6v4.4h-4.2v-4.4h-10v-4.2l9-12h5.2
		V1087.6z M1336,1087.6h5.9v-7.6h-0.9l-5,6.8V1087.6z"/>
</g>
</svg>
