<?xml version="1.0" encoding="utf-8"?>
<!-- Generator: Adobe Illustrator 19.0.0, SVG Export Plug-In . SVG Version: 6.00 Build 0)  -->
<svg version="1.1" id="font" xmlns="http://www.w3.org/2000/svg" xmlns:xlink="http://www.w3.org/1999/xlink" x="0px" y="0px"
	 viewBox="0 0 1500 1000" style="enable-background:new 0 0 1500 1000;" xml:space="preserve">
<style type="text/css">
	.st0{fill:#FFFFFF;}
	.st1{fill:#101010;}
	.st2{fill:#36AFA7;}
</style>
<rect id="XMLID_26_" class="st0" width="1500" height="1000"/>
<g id="XMLID_1664_">
	<path id="XMLID_837_" class="st1" d="M22.7,233.3h141v21.3H0V9.7h22.7V233.3z"/>
	<g id="XMLID_2_">
		<path id="XMLID_835_" class="st2" d="M241.6,14.5h134.9v26.7l-65.9,58.3v6.9c22.7,0,41.2,6.5,55.3,19.8
			c14.1,13.1,21.3,31.2,21.3,54.5c0,24.3-7.5,43.2-23,57.2c-15.5,14.1-35,20.9-59,20.9c-23,0-41.9-6.5-56.9-19.5
			c-14.7-13.1-23-29.5-24-49.7h22.2c1,14.7,7.2,26.4,18.2,35.7c11.3,9.3,24.7,13.7,40.5,13.7c35.7,0,59.6-22.7,59.6-58.3
			c0-34.7-21.9-55.6-59.3-55.6c-8.6,0-15,0.7-20.3,2.1V99.2l64.4-58v-6.9h-108V14.5z"/>
		<path id="XMLID_832_" class="st2" d="M560.6,176.1h34.3v19.8h-34.3v58.7h-22.2v-58.7H417.9v-26.7L524.6,14.5h36V176.1z
			 M442.3,176.1h96.1V37.5h-6.9l-89.2,131.7L442.3,176.1L442.3,176.1z"/>
	</g>
	<path id="XMLID_828_" class="st1" d="M108.4,532c51.8,0,80.6,26.4,80.6,71.3c0,30.2-12.7,51.8-37.4,62.8l39.1,110.8h-32
		l-36.7-103.6c-6.5,0.7-13.4,1-19.8,1H30.9v102.6H0V532H108.4z M103.9,646.9c39.5,0,53.9-16.5,53.9-43.6c0-27.5-14.4-43.9-53.9-43.9
		h-73v87.4H103.9z"/>
	<path id="XMLID_820_" class="st1" d="M798.8,254.6V9.7H864l50.8,106.7h8.3L973,9.7h65.5v245h-39.1V58.8h-8.3l-51.8,107.4h-41.9
		L846.2,58.8H838v195.9H798.8z"/>
	<g id="XMLID_815_">
		<path id="XMLID_818_" class="st2" d="M1226.8,114.7c14.4,15.1,21.6,34.3,21.6,58c0,25.7-7.9,46.7-24,62.8
			c-16.1,15.8-36.7,23.7-61.7,23.7c-52.4,0-84.7-30.5-87.4-74.8h39.8c3.1,25.7,19.8,39.1,46.3,39.1c28.5,0,47-19.2,47-49.7
			c0-30.2-18.5-49.4-46.3-49.4c-18.9,0-33.3,6.9-42.8,20.3h-38.4l10.7-130h143v33.9h-111.6l-4.5,58.7h8.3c12-9.9,27.1-15,44.6-15
			C1194.3,92,1212.8,99.6,1226.8,114.7z"/>
		<path id="XMLID_816_" class="st2" d="M1440.6,57l-99.9,197.6h-41.9l100.5-197.2v-8.3H1282V14.5h158.5V57H1440.6z"/>
	</g>
	<g id="XMLID_831_">
		<g id="XMLID_823_">
			<path id="XMLID_826_" class="st2" d="M224.5,750.1h56.9V568.3h-6.9l-50.5,33.9v-31.5l50-33.9h37.4v213.4h52.4v26.7H224.5V750.1z"
				/>
			<path id="XMLID_824_" class="st2" d="M395.3,603c2.7-48.1,37.4-71,79.9-71c44.9,0,77.8,25.1,77.8,73c0,32.6-24.7,63.1-53.2,86.8
				l-60.4,50.8v7.5h121.1v26.7h-165v-33.9l35.3-28.8c19.2-15.5,41.9-34.7,54.5-46.3c16.5-14.7,37.4-34.3,37.4-62.8
				c0-30.2-19.2-46.3-48.4-46.3c-27.1,0-46,14.1-49.1,44.3L395.3,603L395.3,603z"/>
		</g>
		<g id="XMLID_617_">
			<path id="XMLID_811_" class="st1" d="M240.1,821.9h-9.8l-2.3,6.8h-2.8l7.7-22.2h4.7l7.7,22.2h-2.9L240.1,821.9z M231.3,819.3h8
				l-3.4-10h-1.3L231.3,819.3z"/>
			<path id="XMLID_808_" class="st1" d="M258.4,815.6c4.8,0,7.4,2.5,7.4,6.6c0,4.2-2.7,6.6-7.4,6.6h-9.5v-22.2h15.3v2.6h-12.4v6.5
				H258.4z M257.9,826.2c3.8,0,5.1-1.6,5.1-4.2c0-2.5-1.4-4.1-5.1-4.1h-6.3v8.3H257.9z"/>
			<path id="XMLID_804_" class="st1" d="M284.7,817.3c1.9,0.8,3.1,2.8,3.1,5.1c0,3.6-2.5,6.3-7.5,6.3h-9.9v-22.2h9.7
				c4.7,0,7.1,2.6,7.1,5.6c0,2-0.8,3.7-2.4,4.5L284.7,817.3L284.7,817.3z M273.2,816h6.8c2.5,0,4.4-0.8,4.4-3.6
				c0-2.5-2.2-3.4-4.4-3.4h-6.8V816z M280,826.2c2.5,0,4.9-0.9,4.9-4c0-2.8-2.3-3.9-4.9-3.9h-7v7.8H280z"/>
			<path id="XMLID_802_" class="st1" d="M295,809.1v19.7h-2.8v-22.2h15.3v2.6H295V809.1z"/>
			<path id="XMLID_799_" class="st1" d="M329.5,826.2v8h-2.8v-5.4h-16.9v5.4h-2.8v-8h2.3c1.5-3,2.8-7.8,2.8-15.3v-4.5h14.1v19.7
				L329.5,826.2L329.5,826.2z M323.5,809.1h-8.7v2.4c0,6.9-1.3,11.9-2.5,14.7h11.2L323.5,809.1L323.5,809.1z"/>
			<path id="XMLID_797_" class="st1" d="M349.2,826.2v2.6h-16v-22.2h15.6v2.6H336v6.9h10.2v2.6H336v7.7h13.2V826.2z"/>
			<path id="XMLID_793_" class="st1" d="M369.5,826.2v2.6h-16v-22.2H369v2.6h-12.7v6.9h10.2v2.6h-10.2v7.7h13.2V826.2z M356.9,803.5
				v-2.7h2.6v2.8h-2.6V803.5z M362.7,803.5v-2.7h2.6v2.8h-2.6V803.5z"/>
			<path id="XMLID_791_" class="st1" d="M388.5,818.7v10h-2.8v-10h-5.8l-4.1,10h-2.9l4.7-11.3l-4.4-11h2.9l3.9,9.7h5.8v-9.7h2.8v9.7
				h5.7l3.9-9.7h2.9l-4.4,11l4.7,11.3h-2.9l-4.2-10H388.5z"/>
			<path id="XMLID_789_" class="st1" d="M413.2,808.7c-3.1,0-4.7,1.3-5.2,3.4h-2.8c0.5-3.8,3.4-6.1,8-6.1c5.1,0,7.7,2.7,7.7,5.8
				c0,2.5-1,3.8-2.3,4.5v0.7c1.8,0.7,3.2,2.2,3.2,5.3c0,3.6-2.9,6.7-8.4,6.7c-5.5,0-8.6-2.6-9.2-6.5h2.9c0.7,2.6,2.9,4,6.3,4
				c3.2,0,5.5-1.6,5.5-4.2c0-2.4-1.4-4-5.1-4h-3.6v-2.6h3.6c3.1,0,4.2-1.7,4.2-3.6C418,809.9,415.9,808.7,413.2,808.7z"/>
			<path id="XMLID_787_" class="st1" d="M428.9,806.5v18.9h0.7l10.3-18.9h4.4v22.2h-2.7v-18.9h-0.7l-10.3,18.9h-4.4v-22.2H428.9z"/>
			<path id="XMLID_784_" class="st1" d="M452.8,806.5v18.9h0.7l10.3-18.9h4.4v22.2h-2.7v-18.9h-0.7l-10.3,18.9h-4.4v-22.2H452.8z
				 M464.6,800.5c-0.1,3.1-2.3,4.8-5.4,4.8c-3,0-5.3-1.8-5.4-4.8h2.3c0,1.8,1.3,2.8,3.1,2.8s3.1-1,3.1-2.8H464.6z"/>
			<path id="XMLID_782_" class="st1" d="M473.9,806.5h2.8v9.5h6.8l4.5-9.5h2.9l-5,10.9l5.2,11.5h-2.9l-4.7-10.2h-6.8v10.2h-2.8
				V806.5z"/>
			<path id="XMLID_780_" class="st1" d="M494,826c2.9,0,4.2-1.7,4.2-11.3v-8.1h14.6v22.2H510v-19.7h-9.2v6.2c0,11-2,13.6-6.8,13.6
				h-0.6V826H494z"/>
			<path id="XMLID_778_" class="st1" d="M518.5,806.5h4.7l5.6,10.4h0.7l5.5-10.4h4.7v22.2h-2.9v-19.1h-0.7l-5.7,10.6h-2.9l-5.7-10.6
				h-0.5v19.1h-2.7V806.5z"/>
			<path id="XMLID_776_" class="st1" d="M563.4,806.5v22.2h-2.8v-10.1h-12.4v10.1h-2.8v-22.2h2.8v9.5h12.4v-9.5H563.4z"/>
			<path id="XMLID_773_" class="st1" d="M588.8,817.7c0,6.4-3.7,11.6-10.4,11.6s-10.4-5.1-10.4-11.6c0-6.4,3.6-11.6,10.4-11.6
				C585.2,806.1,588.8,811.2,588.8,817.7z M586,817.7c0-4.7-2.3-9-7.5-9c-5.3,0-7.5,4.4-7.5,9c0,4.7,2.3,9,7.5,9
				C583.7,826.6,586,822.2,586,817.7z"/>
			<path id="XMLID_771_" class="st1" d="M611.3,806.5v22.2h-2.8V809h-12.2v19.7h-2.8v-22.2H611.3z"/>
			<path id="XMLID_768_" class="st1" d="M236.8,846.6c4.9,0,7.5,2.5,7.5,6.7s-2.7,6.7-7.5,6.7h-6.6v8.9h-2.8v-22.2L236.8,846.6
				L236.8,846.6z M236.4,857.4c3.8,0,5.2-1.6,5.2-4.2c0-2.6-1.4-4.2-5.2-4.2h-6.2v8.4H236.4z"/>
			<path id="XMLID_766_" class="st1" d="M266.9,862.6c-0.9,4-4,6.8-8.9,6.8c-6.7,0-10.3-4.9-10.3-11.6c0-6.6,3.8-11.6,10.3-11.6
				c4.5,0,7.6,2.4,8.6,6.3h-2.9c-0.8-2.4-2.5-3.7-5.5-3.7c-5.2,0-7.5,4.3-7.5,9s2.3,9,7.4,9c3.1,0,5.1-1.6,5.8-4.2H266.9z"/>
			<path id="XMLID_764_" class="st1" d="M286.5,849.1h-7.3v19.7h-2.8v-19.7H269v-2.5h17.4v2.5H286.5z"/>
			<path id="XMLID_762_" class="st1" d="M297.7,858.3l5.5-11.7h2.9l-10.6,22.2h-2.9l3.1-6.7l-8.3-15.6h3l6.2,11.7L297.7,858.3
				L297.7,858.3z"/>
			<path id="XMLID_758_" class="st1" d="M321.3,848.5c6.2,0,10.1,3,10.1,9c0,6.1-4.1,9-10.1,9h-0.4v2.8h-2.7v-2.8h-0.4
				c-6.2,0-10.1-2.9-10.1-9c0-6,4.1-9,10.1-9h0.4v-2.6h2.7v2.6H321.3z M318.2,863.9v-13h-0.4c-4.5,0-7.4,2.1-7.4,6.5
				s2.8,6.5,7.4,6.5H318.2z M321.3,863.9c4.5,0,7.4-2.1,7.4-6.5s-2.8-6.5-7.4-6.5h-0.4v13H321.3z"/>
			<path id="XMLID_756_" class="st1" d="M343.2,858.8h-1.1l-5.7,10.1h-3.1l6.7-11.8l-5.7-10.6h3l4.9,8.9h1.1l4.9-8.9h3l-5.7,10.4
				l6.7,11.9h-3.2L343.2,858.8z"/>
			<path id="XMLID_754_" class="st1" d="M373.7,868.8h-18.2v-22.2h2.8v19.7h12.1v-19.7h2.8v19.7h3.2v8h-2.8L373.7,868.8L373.7,868.8
				z"/>
			<path id="XMLID_752_" class="st1" d="M382,846.6v6.4c0,2.2,0,4.5,5.6,4.5c1.9,0,3.8-0.2,5.3-0.6v-10.2h2.8v22.2H393v-9.5
				c-1.7,0.4-4,0.6-5.6,0.6c-7.7,0-8-3.6-8-7v-6.4H382z"/>
			<path id="XMLID_750_" class="st1" d="M413,846.6h2.7v19.7h8.8v-19.7h2.7v22.2h-25.8v-22.2h2.7v19.7h8.8v-19.7H413z"/>
			<path id="XMLID_748_" class="st1" d="M459.2,868.8H433v-22.2h2.7v19.7h8.8v-19.7h2.7v19.7h8.8v-19.7h2.7v19.7h3.2v8h-2.8v-5.5
				L459.2,868.8L459.2,868.8z"/>
			<path id="XMLID_745_" class="st1" d="M468.6,868.8v-19.7h-5.7v-2.6h8.6v8.6h6.5c5,0,7.7,2.6,7.7,6.9c0,4.4-2.8,6.9-7.7,6.9
				L468.6,868.8L468.6,868.8z M477.3,866.4c4,0,5.4-1.7,5.4-4.4c0-2.6-1.4-4.4-5.4-4.4h-6v8.8H477.3z"/>
			<path id="XMLID_741_" class="st1" d="M490,868.8v-22.2h2.8v8.6h6.1c5,0,7.7,2.6,7.7,6.9c0,4.4-2.8,6.9-7.7,6.9L490,868.8
				L490,868.8z M498.4,866.4c4,0,5.4-1.7,5.4-4.4c0-2.6-1.4-4.4-5.4-4.4h-5.5v8.8H498.4z M512.4,846.6v22.2h-2.8v-22.2H512.4z"/>
			<path id="XMLID_738_" class="st1" d="M518.1,868.8v-22.2h2.8v8.6h6.5c5,0,7.7,2.6,7.7,6.9c0,4.4-2.8,6.9-7.7,6.9L518.1,868.8
				L518.1,868.8z M526.8,866.4c4,0,5.4-1.7,5.4-4.4c0-2.6-1.4-4.4-5.4-4.4h-6v8.8H526.8z"/>
			<path id="XMLID_736_" class="st1" d="M541.1,862.8c0.7,2.4,2.8,4,5.8,4c4.9,0,7.2-3.8,7.3-8h-10.4v-2.5h10.4
				c-0.4-4.1-2.6-7.4-7.3-7.4c-3.1,0-4.8,1.3-5.6,3.6h-2.9c0.9-3.8,4.1-6.1,8.6-6.1c6.6,0,10.2,5,10.2,11.6
				c0,6.5-3.7,11.6-10.2,11.6c-4.8,0-8-2.6-8.9-6.5h3V862.8z"/>
			<path id="XMLID_733_" class="st1" d="M589.6,857.8c0,6.4-3.6,11.6-10.1,11.6c-6.3,0-9.8-4.6-10.1-10.6h-4.6v10.1h-2.8v-22.2h2.8
				v9.5h4.7c0.6-5.5,4.1-9.9,10-9.9C586,846.2,589.6,851.4,589.6,857.8z M586.6,857.8c0-4.7-2.2-9-7.3-9s-7.3,4.4-7.3,9
				c0,4.7,2.2,9,7.3,9S586.6,862.5,586.6,857.8z"/>
			<path id="XMLID_730_" class="st1" d="M610.7,846.6v22.2h-2.8v-9.3h-6.5c-0.6,0-1.3,0-1.8-0.1l-3.3,9.4h-2.9l3.6-10.1
				c-2.3-1-3.4-2.9-3.4-5.7c0-4.1,2.6-6.5,7.3-6.5h9.9L610.7,846.6L610.7,846.6z M607.8,857v-7.9h-6.7c-3.6,0-4.9,1.5-4.9,4
				c0,2.5,1.4,4,4.9,4H607.8z"/>
			<path id="XMLID_727_" class="st1" d="M237.1,907.4h-0.7c-0.9,1.3-2.6,2.1-4.9,2.1c-3.7,0-5.6-2.4-5.6-5.1c0-2.5,1.7-5.2,6.1-5.2
				h5.1v-0.6c0-1.9-1-3.2-3.9-3.2c-2.3,0-3.6,0.9-3.7,2.3h-2.6c0.2-2.9,2.7-4.6,6.3-4.6c4,0,6.5,1.9,6.5,5.4v10.7h-2.5V907.4z
				 M237,902.7v-1.5h-4.7c-2.6,0-3.8,1.1-3.8,3c0,1.8,1.4,2.9,3.7,2.9C234.8,907.1,237,905.1,237,902.7z"/>
			<path id="XMLID_724_" class="st1" d="M259.2,901.4c0,4.5-2.9,8-7.7,8c-5,0-7.8-3.4-7.8-9.5c0-5.3,0.7-10.8,6.2-11.7l4.2-0.7
				c1.1-0.1,1.5-0.3,1.6-1.3h2.5c-0.1,1.8-0.6,3-3.1,3.4l-4.8,0.8c-2.8,0.5-3.8,2.5-4.1,5.1h0.7c1.4-1.8,2.9-2.3,5.1-2.3
				C256.4,893.4,259.2,896.9,259.2,901.4z M256.4,901.4c0-2.9-1.7-5.6-5.1-5.6c-3.4,0-5.1,2.7-5.1,5.6c0,2.9,1.7,5.7,5.1,5.7
				C254.9,907.1,256.4,904.2,256.4,901.4z"/>
			<path id="XMLID_720_" class="st1" d="M274.4,901c1.5,0.4,2.6,1.7,2.6,3.7c0,2.8-2,4.3-5.5,4.3h-8v-15.8h7.8c3.1,0,5,1.5,5,4
				c0,1.6-0.8,2.6-1.7,3.1v0.7H274.4z M265.9,899.8h4.9c1.9,0,2.6-1,2.6-2.1c0-1.3-0.6-2.2-2.6-2.2h-4.9V899.8z M271.3,906.8
				c2.3,0,3-1,3-2.3c0-1.3-0.7-2.4-3-2.4h-5.3v4.7H271.3z"/>
			<path id="XMLID_718_" class="st1" d="M281.1,893.3h11.8v2.3h-9.2v13.4h-2.6V893.3z"/>
			<path id="XMLID_715_" class="st1" d="M311.8,906.6v6.8h-2.6v-4.5h-13.6v4.5H293v-6.8h2.1c1-2.1,2-5.2,2-9.1v-4.3H309v13.4H311.8z
				 M306.3,895.6h-6.8v2c0,4-0.7,7-1.7,9.1h8.5V895.6z"/>
			<path id="XMLID_712_" class="st1" d="M328.8,901.1h-12c0.1,3.8,1.8,6,5,6c2.2,0,3.6-0.9,4-2.4h2.7c-0.5,2.7-2.8,4.7-6.7,4.7
				c-4.9,0-7.6-3.6-7.6-8.5c0-4.8,2.8-8.1,7.6-8.1c4.7,0,6.9,3.4,7,7.3V901.1z M317,898.9h9.1c-0.1-2-1.7-3.8-4.4-3.8
				C318.9,895.2,317.3,896.9,317,898.9z"/>
			<path id="XMLID_707_" class="st1" d="M346.6,901.1h-12c0.1,3.8,1.8,6,5,6c2.2,0,3.6-0.9,4-2.4h2.7c-0.5,2.7-2.8,4.7-6.7,4.7
				c-4.9,0-7.6-3.6-7.6-8.5c0-4.8,2.8-8.1,7.6-8.1c4.7,0,6.9,3.4,7,7.3V901.1z M334.8,898.9h9.1c-0.1-2-1.7-3.8-4.4-3.8
				C336.7,895.2,335.1,896.9,334.8,898.9z M335.4,889.3v-2.8h2.6v2.8H335.4z M341.2,889.3v-2.8h2.6v2.8H341.2z"/>
			<path id="XMLID_705_" class="st1" d="M352.2,909.1h-2.8l3.6-8l-3.3-7.6h2.7l2.8,6.5h4.1v-6.5h2.5v6.5h4.1l2.8-6.5h2.7L368,901
				l3.6,8h-2.8l-3-6.9h-4.1v6.9h-2.5v-6.9H355L352.2,909.1z"/>
			<path id="XMLID_703_" class="st1" d="M381,895.2c-2.3,0-3.4,0.7-3.8,2.4h-2.5c0.3-3,2.7-4.7,6.4-4.7c3.9,0,6.1,2,6.1,4.4
				c0,1.8-0.7,2.8-1.7,3.1v0.7c1.1,0.3,2.3,1.4,2.3,3.6c0,2.6-2.3,4.7-6.5,4.7c-4.4,0-6.6-1.9-7.1-4.9h2.6c0.6,2,2.4,2.6,4.5,2.6
				c2.3,0,3.9-0.8,3.9-2.5c0-1.6-0.8-2.4-3.4-2.4h-2.8v-2.3h2.6c2.3,0,3-1,3-2.3C384.4,896,383,895.2,381,895.2z"/>
			<path id="XMLID_701_" class="st1" d="M391.8,909.1v-15.8h2.6v12.2h0.7l6.9-12.2h3.9v15.8h-2.6v-12.2h-0.7l-7,12.2H391.8z"/>
			<path id="XMLID_698_" class="st1" d="M411,909.1v-15.8h2.6v12.2h0.7l6.9-12.2h3.9v15.8h-2.6v-12.2h-0.7l-7,12.2H411z
				 M422.8,886.4c-0.1,2.9-1.9,4.6-4.9,4.6c-2.9,0-4.7-1.7-4.8-4.6h2.2c0,1.6,0.8,2.6,2.7,2.6c1.9,0,2.6-1,2.7-2.6H422.8z"/>
			<path id="XMLID_696_" class="st1" d="M437.6,902.1h-4.7v6.9h-2.6v-15.8h2.6v6.5h4.8l3.2-6.5h2.8l-3.9,7.6l4.1,8.1h-2.8
				L437.6,902.1z"/>
			<path id="XMLID_694_" class="st1" d="M445.9,906.5h0.5c2.1,0,3.1-1.6,3.1-7.1v-6.1h12v15.8h-2.7v-13.4H452v3.9
				c0,7.2-1.7,9.6-5.5,9.6h-0.5V906.5z"/>
			<path id="XMLID_692_" class="st1" d="M466.7,893.3h4.2l3.9,7.2h0.7l3.9-7.2h4.2v15.8h-2.6v-12.6h-0.7l-3.7,6.8h-2.9l-3.7-6.8
				h-0.7v12.6h-2.6L466.7,893.3L466.7,893.3z"/>
			<path id="XMLID_690_" class="st1" d="M499.9,909.1v-6.9h-8.7v6.9h-2.6v-15.8h2.6v6.5h8.7v-6.5h2.6v15.8H499.9z"/>
			<path id="XMLID_687_" class="st1" d="M522.3,901.1c0,4.7-2.8,8.3-7.7,8.3c-4.9,0-7.7-3.7-7.7-8.3s2.8-8.3,7.7-8.3
				C519.4,892.9,522.3,896.5,522.3,901.1z M519.6,901.1c0-3.1-1.7-6-5.1-6s-5.1,2.8-5.1,6c0,3.1,1.6,6,5.1,6
				C518,907.1,519.6,904.2,519.6,901.1z"/>
			<path id="XMLID_685_" class="st1" d="M537.6,909.1v-13.4h-8.6v13.4h-2.6v-15.8h13.9v15.8H537.6z"/>
			<path id="XMLID_682_" class="st1" d="M548,893.3v1.7h0.7c0.8-1,2.4-2.1,4.9-2.1c4.4,0,6.9,3.7,6.9,8.3c0,4.7-2.5,8.3-6.9,8.3
				c-2.5,0-4-0.9-4.8-2.1h-0.7v7.9h-2.6v-21.9H548z M548.1,901.1c0,3.1,1.5,6,4.9,6c3.1,0,4.8-2.5,4.8-6c0-3.4-1.7-6-4.8-6
				C549.4,895.2,548.1,898.1,548.1,901.1z"/>
			<path id="XMLID_680_" class="st1" d="M578,904.2c-0.6,3.1-2.9,5.1-6.6,5.1c-4.9,0-7.6-3.7-7.6-8.3c0-4.7,2.7-8.3,7.6-8.3
				c3.8,0,6,2.1,6.5,5h-2.6c-0.5-1.6-1.7-2.6-3.9-2.6c-3.6,0-5,2.8-5,5.8c0,3.1,1.5,6.1,5,6.1c2.3,0,3.6-1,4-2.8L578,904.2
				L578,904.2z"/>
			<path id="XMLID_678_" class="st1" d="M580.3,893.3h13.6v2.3h-5.4v13.4h-2.6v-13.4h-5.4L580.3,893.3L580.3,893.3z"/>
			<path id="XMLID_676_" class="st1" d="M598.9,915.2l3.2-7.7l-6.7-14.3h2.8l4.8,10.3h0.7l4.4-10.3h2.8l-9.4,21.9h-2.7V915.2z"/>
			<path id="XMLID_672_" class="st1" d="M237,946.6h-2.6v-6.3H234c-5,0-7.7-3.3-7.7-7.8c0-4.6,2.7-7.8,7.7-7.8h0.5v-7h2.6v7h0.5
				c5,0,7.7,3.3,7.7,7.8c0,4.8-2.9,7.8-8.3,7.8v6.3H237z M234,938.1h0.5v-11.3H234c-3.4,0-5.1,2.6-5.1,5.6
				C228.8,935.5,230.4,938.1,234,938.1z M237.5,938.1c3.6,0,5.2-2.6,5.2-5.6c0-3-1.7-5.6-5.2-5.6h-0.4v11.3L237.5,938.1L237.5,938.1
				z"/>
			<path id="XMLID_670_" class="st1" d="M255.6,933.7h-1.1l-4,6.6h-2.9l4.9-8l-4.4-7.7h2.8l3.7,6.3h1.1l3.7-6.3h2.8l-4.5,7.6
				l4.9,8.1h-3L255.6,933.7z"/>
			<path id="XMLID_668_" class="st1" d="M279.9,924.6V938h2.8v6.8h-2.6v-4.5h-14.1v-15.8h2.6v13.4h8.5v-13.4L279.9,924.6
				L279.9,924.6z"/>
			<path id="XMLID_666_" class="st1" d="M288.1,924.6v4.4c0,1.6,0.1,3.1,4,3.1c1.5,0,2.8-0.1,4-0.4v-7.2h2.7v15.8H296v-6.2
				c-1.4,0.3-3.1,0.4-4.5,0.4c-5.7,0-6.1-2.7-6.1-5.3v-4.7h2.6V924.6z"/>
			<path id="XMLID_664_" class="st1" d="M323.6,924.6v15.8h-20.2v-15.8h2.6V938h6.2v-13.4h2.6V938h6.2v-13.4H323.6z"/>
			<path id="XMLID_662_" class="st1" d="M348.9,924.6V938h2.9v6.8h-2.6v-4.5h-20.5v-15.8h2.6v13.4h6.2v-13.4h2.6v13.4h6.2v-13.4
				L348.9,924.6L348.9,924.6z"/>
			<path id="XMLID_659_" class="st1" d="M353.3,924.6h7.3v5.2h4.7c3.9,0,6,2,6,5.2c0,3.2-2.1,5.3-6,5.3H358V927h-4.7V924.6z
				 M364.9,938c2.7,0,3.7-1.1,3.7-2.9c0-1.9-0.9-2.9-3.7-2.9h-4.3v6h4.3V938z"/>
			<path id="XMLID_655_" class="st1" d="M377.6,924.6v5.2h4.4c3.9,0,6,2,6,5.2c0,3.2-2.1,5.3-6,5.3h-7v-15.8H377.6z M377.6,938h4
				c2.7,0,3.7-1.1,3.7-2.9c0-1.9-0.9-2.9-3.7-2.9h-4V938z M393.1,924.6v15.8h-2.6v-15.8H393.1z"/>
			<path id="XMLID_652_" class="st1" d="M400.9,929.8h4.7c3.9,0,6,2,6,5.2c0,3.2-2.1,5.3-6,5.3h-7.3v-15.8h2.6V929.8z M405.2,938
				c2.7,0,3.7-1.1,3.7-2.9c0-1.9-0.9-2.9-3.7-2.9h-4.3v6h4.3V938z"/>
			<path id="XMLID_650_" class="st1" d="M416.9,935.8c0.4,1.7,1.9,2.6,4.2,2.6c2.9,0,4.7-2.1,4.8-5h-7.1v-2.3h7.1
				c-0.2-2.7-1.8-4.7-4.8-4.7c-2.3,0-3.7,0.8-4.1,2.5h-2.6c0.6-2.8,3-4.8,6.7-4.8c4.7,0,7.5,3.4,7.5,8.3c0,4.8-2.8,8.3-7.6,8.3
				c-3.6,0-6.2-2-6.8-5h2.7L416.9,935.8L416.9,935.8z"/>
			<path id="XMLID_647_" class="st1" d="M454.1,932.4c0,4.6-2.8,8.3-7.6,8.3c-4.4,0-7.2-3.1-7.5-7.3h-3.6v6.9h-2.6v-15.8h2.6v6.5
				h3.7c0.5-4,3.2-6.9,7.4-6.9C451.3,924.2,454.1,927.9,454.1,932.4z M451.5,932.4c0-3.1-1.6-6-5-6c-3.4,0-5,2.8-5,6
				c0,3.1,1.6,6,5,6C449.9,938.4,451.5,935.5,451.5,932.4z"/>
			<path id="XMLID_644_" class="st1" d="M471.2,924.6v15.8h-2.7v-6.2h-4.7c-0.3,0-0.6,0-0.9,0l-2.4,6.3h-2.8l2.6-6.8
				c-1.7-0.7-2.4-2.2-2.4-4.1c0-3,2-4.8,5.5-4.8h7.8V924.6z M463.7,926.8c-2.4,0-3.1,0.9-3.1,2.6c0,1.6,0.7,2.5,3.1,2.5h4.9v-5h-4.9
				V926.8z"/>
			<path id="XMLID_641_" class="st1" d="M242.3,973.1c0,7.8-3.4,11.3-8,11.3s-8-3.4-8-11.3c0-7.8,3.4-11.4,8-11.4
				S242.3,965.2,242.3,973.1z M239.6,973.1c0-5.4-1.7-8.9-5.3-8.9s-5.3,3.4-5.3,8.9s1.7,8.9,5.3,8.9S239.6,978.5,239.6,973.1z"/>
			<path id="XMLID_639_" class="st1" d="M245.9,981.6h5.2v-16.5h-0.6l-4.6,3.1v-2.8l4.6-3.1h3.4v19.4h4.8v2.4H246L245.9,981.6
				L245.9,981.6z"/>
			<path id="XMLID_637_" class="st1" d="M261.5,968.2c0.2-4.4,3.4-6.5,7.3-6.5c4.1,0,7.1,2.3,7.1,6.7c0,2.9-2.3,5.7-4.8,7.9
				l-5.5,4.6v0.7h11v2.4h-15v-3.1l3.2-2.6c1.8-1.4,3.8-3.1,5-4.2c1.5-1.4,3.4-3.1,3.4-5.7c0-2.7-1.8-4.2-4.4-4.2
				c-2.5,0-4.2,1.3-4.5,4.1h-2.8L261.5,968.2L261.5,968.2z"/>
			<path id="XMLID_635_" class="st1" d="M293.2,962.2v3l-5.4,4.7v0.6c3.8,0.1,6.5,2.4,6.5,6.7c0,4.5-3.2,7.2-7.7,7.2
				c-4.4,0-7.4-2.8-7.6-6.5h2.7c0.2,2.5,2.3,4.1,4.9,4.1c3,0,5-1.8,5-4.8c0-2.8-1.7-4.7-4.9-4.7c-0.7,0-1.4,0.1-1.9,0.2v-2.9
				l5.3-4.6v-0.7h-9.5v-2.4L293.2,962.2L293.2,962.2z"/>
			<path id="XMLID_632_" class="st1" d="M313.5,976.4v2.4h-3v5.1h-2.7v-5.1H297v-3.1l9.6-13.6h3.9v14.3H313.5z M307.8,976.4v-11.2
				h-0.7l-7.3,10.6v0.7L307.8,976.4L307.8,976.4z"/>
			<path id="XMLID_630_" class="st1" d="M331.8,976.6c0,4.7-3,7.8-7.5,7.8c-4.8,0-7.4-2.8-7.6-6.5h2.7c0.3,2.7,2.1,4.1,4.8,4.1
				c2.9,0,4.9-2,4.9-5.2c0-3-1.9-5.1-4.8-5.1c-2,0-3.4,0.7-4.4,2.1h-2.7l0.9-11.5h12.5v2.4h-10.2l-0.5,6.3h0.7
				c1-0.9,2.2-1.6,4.2-1.6C329.1,969.3,331.8,972.6,331.8,976.6z"/>
			<path id="XMLID_627_" class="st1" d="M350.7,976.9c0,4.2-2.8,7.5-7.4,7.5c-4.7,0-8-2.8-8-10.8c0-6.7,2.6-11.9,8.3-11.9
				c3.8,0,6.1,2.2,6.6,5.2h-2.7c-0.5-1.9-1.7-2.8-3.9-2.8c-3.4,0-5.5,2.9-5.6,7.7h0.7c0.7-0.9,2.5-2.1,5.1-2.1
				C347.6,969.8,350.7,972.8,350.7,976.9z M347.8,977.1c0-3.2-2.1-4.8-4.8-4.8c-2.6,0-4.7,1.7-4.7,4.8c0,3.1,2.2,5,4.8,5
				C345.9,982,347.8,980.3,347.8,977.1z"/>
			<path id="XMLID_625_" class="st1" d="M358,984.1h-2.8l9.5-18.8v-0.7h-11.1v-2.4h13.9v3L358,984.1z"/>
			<path id="XMLID_621_" class="st1" d="M383,972.9c1.5,0.5,3.4,2.3,3.4,5.2c0,3.7-3.1,6.4-7.9,6.4s-7.9-2.7-7.9-6.4
				c0-2.8,2-4.7,3.4-5.2v-0.7c-1.1-0.5-2.7-2.1-2.7-4.6c0-3.4,3-5.8,7.2-5.8c4.3,0,7.2,2.4,7.2,5.8c0,2.4-1.7,4.1-2.7,4.6L383,972.9
				L383,972.9z M383.8,977.8c0-2.6-2-4.1-5.2-4.1c-3.2,0-5.2,1.6-5.2,4.1c0,2.5,2,4.2,5.2,4.2C381.8,982,383.8,980.4,383.8,977.8z
				 M374.1,967.8c0,2.3,2.1,3.7,4.6,3.7s4.6-1.3,4.6-3.7c0-2.3-2.1-3.6-4.6-3.6C376.1,964.1,374.1,965.4,374.1,967.8z"/>
			<path id="XMLID_618_" class="st1" d="M389.5,969.2c0-4.2,2.8-7.5,7.4-7.5c4.7,0,8,2.8,8,10.8c0,6.7-2.6,11.9-8.3,11.9
				c-3.8,0-6.1-2.2-6.6-5.2h2.7c0.5,1.9,1.7,2.8,3.9,2.8c3.4,0,5.5-2.9,5.6-7.7h-0.7c-0.7,0.9-2.5,2.1-5.1,2.1
				C392.4,976.4,389.5,973.4,389.5,969.2z M392.2,969.1c0,3.2,2.1,4.8,4.8,4.8c2.6,0,4.7-1.7,4.7-4.8s-2.2-5-4.8-5
				C394.3,964.2,392.2,965.9,392.2,969.1z"/>
		</g>
	</g>
	<g id="XMLID_420_">
		<path id="XMLID_614_" class="st1" d="M235.8,284.2l8,22.2h-2.2l-2.5-7.2h-10.3l-2.5,7.2h-2.2l7.9-22.2H235.8z M233.4,286.4
			l-3.9,11h9l-3.9-11H233.4z"/>
		<path id="XMLID_611_" class="st1" d="M256.5,293.5c4.7,0,7.3,2.4,7.3,6.5c0,4.1-2.7,6.5-7.3,6.5h-9.2v-22.2h14.8v1.9h-12.8v7.4
			L256.5,293.5L256.5,293.5z M256.2,304.7c3.8,0,5.6-1.6,5.6-4.6c0-3.1-1.9-4.6-5.6-4.6h-6.8v9.2H256.2z"/>
		<path id="XMLID_607_" class="st1" d="M282.3,294.9c2,0.9,3.2,2.9,3.2,5.3c0,3.7-2.6,6.2-7.5,6.2h-9.6v-22.2h9.4
			c2.2,0,4,0.5,5.2,1.6c1.3,1,1.9,2.4,1.9,4c0,2.2-0.8,3.7-2.6,4.6V294.9z M270.5,286.1v7.8h7.4c3.2,0,4.9-1.4,4.9-4
			s-2.2-3.8-4.9-3.8h-7.4V286.1z M278.2,304.7c3.2,0,5.4-1.4,5.4-4.5c0-3-2.2-4.4-5.4-4.4h-7.6v8.9H278.2z"/>
		<path id="XMLID_605_" class="st1" d="M305,286.1h-12.8v20.4h-2.1v-22.2H305V286.1z"/>
		<path id="XMLID_602_" class="st1" d="M323.3,304.7h3.2v7.3h-2.1v-5.4h-17.9v5.4h-2.1v-7.3h2.3c2-4.5,2.9-9.8,2.9-15.9v-4.5h13.5
			v20.4H323.3z M321.2,304.7v-18.6h-9.3v2.6c0,6.2-0.9,11.5-2.7,15.9L321.2,304.7L321.2,304.7z"/>
		<path id="XMLID_600_" class="st1" d="M332.4,304.7H346v1.9h-15.7v-22.2h15.1v1.9h-13.1v7.8H343v1.9h-10.7V304.7z"/>
		<path id="XMLID_596_" class="st1" d="M352.5,304.7h13.6v1.9h-15.7v-22.2h15.1v1.9h-13.1v7.8h10.7v1.9h-10.7V304.7z M356.2,281.6
			H354v-2.5h2.2V281.6z M361.6,281.6h-2.2v-2.5h2.2V281.6z"/>
		<path id="XMLID_594_" class="st1" d="M390.8,296.1h-6.3v10.4h-2.1v-10.4h-6.3l-4.3,10.4h-2.3l4.7-11.3l-4.4-11h2.3l4,10h6.3v-10
			h2.1v10h6.3l4-10h2.3l-4.4,11l4.7,11.3h-2.3L390.8,296.1z"/>
		<path id="XMLID_592_" class="st1" d="M409.3,285.7c-3.1,0-5,1.4-5.7,4h-2.1c0.5-3.6,3.4-5.8,7.7-5.8c2.4,0,4.2,0.5,5.5,1.7
			c1.3,1.1,2,2.5,2,4.1c0,2.2-0.8,3.7-2.6,4.6v0.6c2.3,1,3.4,2.8,3.4,5.4c0,1.9-0.7,3.4-2.2,4.7c-1.4,1.3-3.4,2-6,2
			c-5.1,0-8.1-2.4-8.9-6.3h2.2c0.7,2.8,3.2,4.4,6.8,4.4c3.7,0,6.1-1.9,6.1-4.7c0-3-1.9-4.5-5.5-4.5h-3.7v-1.9h3.8
			c3.2,0,4.7-1.7,4.7-4C414.5,287.3,412.4,285.7,409.3,285.7z"/>
		<path id="XMLID_590_" class="st1" d="M422,284.2h2.1v20.1h0.6l11.4-20.1h3.7v22.2h-2.1v-20.1H437l-11.4,20.1H422V284.2z"/>
		<path id="XMLID_587_" class="st1" d="M445.6,284.2h2.1v20.1h0.6l11.4-20.1h3.7v22.2h-2.1v-20.1h-0.6l-11.5,20.2h-3.7v-22.4
			L445.6,284.2L445.6,284.2z M459.7,278.3c0,3-2.3,4.9-5.3,4.9c-1.5,0-2.7-0.4-3.8-1.3c-1-0.8-1.5-2.1-1.5-3.6h1.8
			c0,1.9,1.5,3.1,3.4,3.1c2,0,3.4-1.3,3.4-3.1h1.9L459.7,278.3L459.7,278.3z"/>
		<path id="XMLID_585_" class="st1" d="M469.2,306.5v-22.2h2.1v9.8h7.3l4.6-9.8h2.3l-5,10.9l5.2,11.5h-2.3l-4.9-10.6h-7.3v10.6h-2
			V306.5z"/>
		<path id="XMLID_583_" class="st1" d="M488,304.5h0.5c1,0,1.9-0.3,2.5-0.8c1.3-1.1,2-4.5,2-11v-8.4h14v22.2h-2.1v-20.4H495v6.5
			c-0.1,11.1-1.8,13.9-6.5,13.9H488V304.5z"/>
		<path id="XMLID_581_" class="st1" d="M512.9,306.5v-22.2h3.6l6.5,11.1h0.6l6.4-11.1h3.7v22.2h-2.1v-20.1h-0.6l-6.5,11.2h-2.2
			l-6.6-11.2H515v20.1H512.9z"/>
		<path id="XMLID_579_" class="st1" d="M555,284.2h2.1v22.2H555v-10.6h-13.5v10.6h-2.1v-22.2h2.1v9.8H555V284.2z"/>
		<path id="XMLID_576_" class="st1" d="M572,283.9c3.2,0,5.7,1,7.5,3.2c1.8,2.2,2.7,4.9,2.7,8.3c0,3.3-0.9,6.1-2.7,8.3
			c-1.8,2.2-4.3,3.2-7.5,3.2s-5.7-1-7.5-3.2c-1.8-2.2-2.7-4.9-2.7-8.3c0-3.3,0.9-6.1,2.7-8.3C566.3,284.9,568.8,283.9,572,283.9z
			 M572,305.1c1.4,0,2.6-0.3,3.7-0.8c2.2-1,3.3-3,4-5.3c1.1-4.6,0.2-10.3-4-12.4c-1-0.5-2.3-0.8-3.7-0.8s-2.6,0.3-3.8,0.8
			c-2.1,1-3.3,3-4,5.3c-1.3,4.6-0.1,10.3,4,12.4C569.3,304.8,570.5,305.1,572,305.1z"/>
		<path id="XMLID_574_" class="st1" d="M586.8,284.2h17.4v22.2h-2.1v-20.4h-13.3v20.4h-2.1V284.2z"/>
		<path id="XMLID_571_" class="st1" d="M235.6,324.3c4.7,0,7.3,2.4,7.3,6.5s-2.7,6.5-7.3,6.5h-7.1v9.3h-2.1v-22.2L235.6,324.3
			L235.6,324.3z M235.2,335.5c3.8,0,5.6-1.6,5.6-4.6c0-3.1-1.9-4.6-5.6-4.6h-6.8v9.2H235.2z"/>
		<path id="XMLID_569_" class="st1" d="M265.1,340.6c-0.9,3.9-4.1,6.5-8.6,6.5c-3.1,0-5.6-1-7.5-3.2c-1.8-2.2-2.7-4.9-2.7-8.3
			c0-3.3,0.9-6.2,2.7-8.3c1.8-2.2,4.3-3.2,7.5-3.2c4.3,0,7.4,2.3,8.4,6h-2.2c-1-2.7-2.8-4.1-6.2-4.1c-2.6,0-4.7,0.9-6.1,2.8
			s-2.1,4.2-2.1,6.9s0.7,5,2.1,6.9c1.4,1.9,3.4,2.8,6.1,2.8c3.3,0,5.5-1.7,6.4-4.6h2.2V340.6z"/>
		<path id="XMLID_567_" class="st1" d="M284.4,324.3v1.8h-7.5v20.5h-2.1v-20.5h-7.5v-1.8H284.4z"/>
		<path id="XMLID_565_" class="st1" d="M292.8,346.7h-2.2l3.1-6.7l-8.3-15.6h2.3l6.6,12.4h0.8l6-12.4h2.2L292.8,346.7z"/>
		<path id="XMLID_561_" class="st1" d="M317.4,326.2h0.4c6.4,0,10.2,3.1,10.2,9c0,6-3.9,9-10.2,9h-0.4v2.8h-2.1v-2.8h-0.4
			c-6.4,0-10.2-3-10.2-9c0-5.8,3.9-9,10.2-9h0.4v-2.5h2.1V326.2z M315.4,342.4v-14.3h-0.4c-5.1,0-8.1,2.4-8.1,7.1s3,7.1,8.1,7.1h0.4
			V342.4z M317.4,342.4h0.4c5.1,0,8.1-2.4,8.1-7.1s-3-7.1-8.1-7.1h-0.4V342.4z"/>
		<path id="XMLID_559_" class="st1" d="M345.1,346.7l-6-10.6h-1.3l-6.2,10.6h-2.3l6.9-11.8l-5.8-10.4h2.3l5.1,9.2h1.3l5.2-9.2h2.3
			l-6,10.3l6.9,11.9H345.1z"/>
		<path id="XMLID_557_" class="st1" d="M369.8,352.1v-5.4h-18.4v-22.2h2.1v20.4h13.2v-20.4h2.1v20.4h3.2v7.3H369.8z"/>
		<path id="XMLID_555_" class="st1" d="M374.6,324.3h2.1v6.4c0,1.3,0,1.7,0.4,2.6c0.5,1.4,2,2,5.5,2.1c2.1,0,4.1-0.2,6-0.6v-10.6
			h2.1v22.2h-2.1v-9.8c-2,0.4-4,0.6-6,0.6c-2.9,0-5-0.6-6.2-1.5c-0.5-0.4-0.9-0.9-1.3-1.7c-0.3-0.7-0.4-1.4-0.5-1.9
			s-0.1-1.3-0.1-2.1L374.6,324.3L374.6,324.3z"/>
		<path id="XMLID_553_" class="st1" d="M408,344.8v-20.4h2.1v20.4h9.4v-20.4h2.1v22.2h-25.1v-22.2h2.1v20.4H408z"/>
		<path id="XMLID_551_" class="st1" d="M453.6,352.1v-5.4h-26.2v-22.2h2.1v20.4h9.4v-20.4h2.1v20.4h9.4v-20.4h2.1v20.4h3.2v7.3
			H453.6z"/>
		<path id="XMLID_548_" class="st1" d="M462.2,346.7v-20.4h-5.7v-1.9h7.7v8.9h6.9c4.8,0,7.5,2.5,7.5,6.7c0,4.2-2.8,6.7-7.5,6.7
			H462.2z M470.8,344.8c3.9,0,5.8-1.7,5.8-4.8s-2-4.8-5.8-4.8h-6.5v9.6H470.8z"/>
		<path id="XMLID_544_" class="st1" d="M483.3,346.7v-22.2h2.1v8.9h6.6c4.8,0,7.5,2.5,7.5,6.7c0,4.2-2.8,6.7-7.5,6.7H483.3z
			 M491.6,344.8c3.9,0,5.8-1.7,5.8-4.8s-2-4.8-5.8-4.8h-6.2v9.6H491.6z M502.8,324.3h2.1v22.2h-2.1V324.3z"/>
		<path id="XMLID_541_" class="st1" d="M510.7,346.7v-22.2h2.1v8.9h6.9c4.8,0,7.5,2.5,7.5,6.7c0,4.2-2.8,6.7-7.5,6.7H510.7z
			 M519.3,344.8c3.9,0,5.8-1.7,5.8-4.8s-2-4.8-5.8-4.8h-6.5v9.6H519.3z"/>
		<path id="XMLID_539_" class="st1" d="M532.6,340.8c0.7,2.7,3.1,4.4,6.5,4.4c1.8,0,3.2-0.4,4.4-1.4c2.5-1.8,3.4-4.5,3.6-7.8h-11.3
			v-1.9H547c-0.2-2.4-1-4.4-2.3-6c-1.4-1.6-3.2-2.4-5.6-2.4c-3.1,0-5.2,1.4-6.2,4h-2.3c0.9-3.7,4.1-5.8,8.4-5.8c3.1,0,5.6,1,7.4,3.2
			s2.7,4.9,2.7,8.3c0,3.3-0.9,6.2-2.7,8.3c-1.8,2.2-4.3,3.2-7.4,3.2c-4.5,0-7.7-2.5-8.7-6.3h2.3V340.8z"/>
		<path id="XMLID_536_" class="st1" d="M578.2,327.2c1.8,2.2,2.6,4.9,2.6,8.3c0,3.3-0.8,6.1-2.6,8.3s-4.2,3.2-7.3,3.2
			c-3,0-5.4-1-7.2-3.1c-1.7-2.1-2.6-4.7-2.7-7.8h-5v10.6h-2.1v-22.2h2.1v9.8h5c0.2-3,1.1-5.4,2.9-7.3c1.7-1.9,4.1-2.8,7-2.8
			C574,324,576.4,325,578.2,327.2z M570.9,345.2c1.4,0,2.5-0.3,3.6-0.8c2.1-1,3.2-3,3.9-5.3c1.1-4.6,0.2-10.3-3.9-12.4
			c-1-0.5-2.2-0.8-3.6-0.8c-1.4,0-2.6,0.3-3.6,0.8c-2,1-3.2,3-3.9,5.3c-1.1,4.6-0.1,10.3,3.9,12.4
			C568.2,344.9,569.5,345.2,570.9,345.2z"/>
		<path id="XMLID_533_" class="st1" d="M601.8,324.3v22.2h-2.1v-9.7h-7.5c-0.6,0-1.3,0-1.7-0.1l-3.4,9.8h-2.2l3.7-10.3
			c-2.3-1-3.4-2.8-3.4-5.6c0-4,2.6-6.3,7.1-6.3H601.8z M599.7,335.1v-8.9h-7.2c-3.6,0-5.4,1.5-5.4,4.4c0,2.9,1.8,4.4,5.4,4.4
			L599.7,335.1L599.7,335.1z"/>
		<path id="XMLID_530_" class="st1" d="M236.2,387.1v-1.8h-0.6c-1,1.3-2.8,2.2-5,2.2c-1.8,0-3.1-0.5-4.2-1.5c-1-0.9-1.5-2.2-1.5-3.6
			c0-1.4,0.4-2.6,1.4-3.7c0.9-1,2.4-1.5,4.4-1.5h5.4v-0.9c0-2.1-1.4-3.6-4.2-3.6c-2.5,0-4,0.9-4.1,2.7h-2c0.2-2.8,2.6-4.4,6.1-4.4
			c3.8,0,6.2,2,6.2,5.2v10.9h-1.9L236.2,387.1L236.2,387.1z M234.6,384.4c1-0.9,1.6-2.1,1.6-3.4V379h-4.9c-2.8,0-4.4,1.4-4.4,3.3
			c0,2.2,1.6,3.4,4,3.4C232.2,385.7,233.6,385.2,234.6,384.4z"/>
		<path id="XMLID_527_" class="st1" d="M255.4,373.7c1.3,1.6,2,3.4,2,5.7s-0.7,4.2-2,5.7c-1.4,1.6-3.1,2.3-5.5,2.3
			c-4.8,0-7.6-3.4-7.6-9.4c0-2.5,0.1-4.1,0.6-6.2c0.6-3,2.3-5,5.5-5.6l4.3-0.7c1.3-0.2,1.4-0.3,1.5-1.3h2c-0.1,1.9-0.8,2.7-3,3.1
			l-4.7,0.7c-2.8,0.4-3.8,2.5-4.2,5.5h0.6c1.3-1.6,2.9-2.3,5.2-2.3C252.3,371.4,254.1,372.2,255.4,373.7z M253.8,375.1
			c-0.9-1.3-2.3-1.9-4.1-1.9c-1.8,0-3.1,0.6-4.2,1.9c-0.9,1.3-1.5,2.7-1.5,4.4c0,1.7,0.4,3.1,1.5,4.4c0.9,1.3,2.4,1.9,4.2,1.9
			c1.8,0,3.1-0.6,4.1-1.9c0.9-1.3,1.5-2.7,1.5-4.4C255.3,377.8,254.8,376.2,253.8,375.1z"/>
		<path id="XMLID_523_" class="st1" d="M272,379.1c1.6,0.4,2.7,1.8,2.7,3.7c0,2.8-2,4.3-5.5,4.3h-7.5v-15.6h7.3c3.1,0,4.9,1.5,4.9,4
			c0,1.4-0.7,2.6-1.8,3.1v0.5H272z M263.6,373.2v5h5.3c2,0,2.9-1,2.9-2.5c0-1.7-0.9-2.5-2.9-2.5H263.6z M269.4,385.3
			c2.3,0,3.3-0.9,3.3-2.7c0-1.8-1.1-2.7-3.3-2.7h-5.7v5.4H269.4z"/>
		<path id="XMLID_521_" class="st1" d="M278.9,387.1v-15.6h11.3v1.8h-9.4v13.9h-1.9V387.1z"/>
		<path id="XMLID_518_" class="st1" d="M305.8,385.3h2.9v6.2h-2V387h-14.3v4.5h-2v-6.2h2c1.5-2.8,2.2-6.1,2.2-9.7v-4.2h11.2
			L305.8,385.3L305.8,385.3z M303.9,385.3v-12.1h-7.4v2.4c0,3.9-0.6,7.1-1.9,9.7L303.9,385.3L303.9,385.3z"/>
		<path id="XMLID_515_" class="st1" d="M325.4,378.9h-12.1v0.4c0,3.9,2.1,6.4,5.4,6.4c2.3,0,3.9-1,4.4-2.8h2
			c-0.5,2.6-2.8,4.5-6.4,4.5c-2.3,0-4.2-0.7-5.4-2.4c-1.4-1.6-2-3.6-2-6.1c0-2.4,0.6-4.4,2-5.8c1.4-1.5,3.1-2.2,5.4-2.2
			c2.2,0,3.8,0.7,5,2.1c1.1,1.4,1.8,3.1,1.8,5.1v0.8L325.4,378.9L325.4,378.9z M313.4,377.2h10c-0.1-2.4-2-4.4-4.7-4.4
			C315.7,372.8,313.8,374.6,313.4,377.2z"/>
		<path id="XMLID_510_" class="st1" d="M342.8,378.9h-12.1v0.4c0,3.9,2.1,6.4,5.4,6.4c2.3,0,3.9-1,4.4-2.8h2
			c-0.5,2.6-2.8,4.5-6.4,4.5c-2.3,0-4.2-0.7-5.4-2.4c-1.4-1.6-2-3.6-2-6.1c0-2.4,0.6-4.4,2-5.8c1.4-1.5,3.1-2.2,5.4-2.2
			c2.2,0,3.8,0.7,5,2.1c1.1,1.4,1.8,3.1,1.8,5.1v0.8L342.8,378.9L342.8,378.9z M330.8,377.2h10c-0.1-2.4-2-4.4-4.7-4.4
			C333.1,372.8,331.2,374.6,330.8,377.2z M334.4,366.8h-2.2v-2.5h2.2V366.8z M339.9,366.8h-2.2v-2.5h2.2V366.8z"/>
		<path id="XMLID_508_" class="st1" d="M351,380l-3.1,7.1h-2.1l3.4-8l-3.2-7.6h2.1l2.9,6.8h4.4v-6.8h2v6.8h4.4l2.9-6.8h2.1l-3.2,7.6
			l3.4,8h-2.1l-3.1-7.1h-4.4v7.1h-2V380H351z"/>
		<path id="XMLID_506_" class="st1" d="M376,372.8c-2.3,0-3.8,0.9-4.1,2.7h-2c0.3-2.7,2.6-4.5,6.1-4.5c3.7,0,5.7,1.9,5.7,4.3
			c0,1.7-0.8,2.8-1.9,3.2v0.6c1.7,0.5,2.4,1.8,2.4,3.7c0,1.3-0.5,2.4-1.7,3.2c-1,0.9-2.6,1.4-4.6,1.4c-4,0-6.3-1.8-6.8-4.7h2
			c0.6,2,2.2,2.9,4.8,2.9c2.5,0,4.3-1,4.3-2.9c0-1.9-1.3-2.8-3.9-2.8h-2.8v-1.8h2.7c2.3,0,3.3-1.1,3.3-2.6
			C379.7,373.8,378.2,372.8,376,372.8z"/>
		<path id="XMLID_504_" class="st1" d="M390.1,387.1h-3.4v-15.6h2v13.6h0.6l7.2-13.7h3.7V387h-2v-13.7h-0.6L390.1,387.1z"/>
		<path id="XMLID_501_" class="st1" d="M408.9,387.1h-3.4v-15.6h2v13.6h0.6l7.2-13.7h3.7V387h-2v-13.7h-0.6L408.9,387.1z M415,364.4
			h1.7v0.4c0,2.6-1.9,4.2-4.5,4.2s-4.5-1.6-4.5-4.2v-0.4h1.7v0.4c0,1.7,1.1,2.6,2.8,2.6c1.8,0,2.8-1,2.8-2.6L415,364.4L415,364.4z"
			/>
		<path id="XMLID_499_" class="st1" d="M435,387.1l-3.6-7.2h-5.2v7.2h-2v-15.6h2v6.7h5.2l3.3-6.7h2.1l-3.8,7.5l4.1,8L435,387.1
			L435,387.1z"/>
		<path id="XMLID_497_" class="st1" d="M439.2,387.1v-1.8h0.5c1.1,0,2-0.5,2.4-1.7c0.4-1.1,0.7-3.2,0.7-6.3v-5.8h11.4v15.6h-2v-13.9
			h-7.5v4.1c0,3.7-0.4,6.2-1.1,7.6c-0.7,1.5-2.1,2.2-3.9,2.2H439.2L439.2,387.1z"/>
		<path id="XMLID_495_" class="st1" d="M459.6,387.1v-15.6h3.4l4.2,7.5h0.6l4.1-7.5h3.4v15.6h-2v-13.7h-0.5l-4.1,7.4h-2.6l-4.1-7.4
			h-0.5v13.7H459.6z"/>
		<path id="XMLID_493_" class="st1" d="M494.2,387.1h-2v-7.2h-9.5v7.2h-2v-15.6h2v6.7h9.5v-6.7h2V387.1z"/>
		<path id="XMLID_490_" class="st1" d="M511.5,373.4c1.4,1.6,2,3.6,2,5.8s-0.7,4.3-2,5.8c-1.4,1.6-3.1,2.3-5.5,2.3
			c-2.3,0-4.2-0.7-5.5-2.3c-1.4-1.6-2-3.6-2-5.8s0.6-4.3,2-5.8c1.4-1.6,3.1-2.3,5.5-2.3C508.3,371.1,510.2,371.8,511.5,373.4z
			 M506,385.7c1.8,0,3.1-0.6,4.1-1.9c0.9-1.3,1.5-2.8,1.5-4.6s-0.4-3.3-1.5-4.6c-0.9-1.3-2.3-1.9-4.1-1.9c-1.8,0-3.1,0.6-4.1,1.9
			c-0.9,1.3-1.5,2.8-1.5,4.6c0,1.8,0.4,3.3,1.5,4.6C502.9,385.1,504.2,385.7,506,385.7z"/>
		<path id="XMLID_488_" class="st1" d="M531.2,387.1h-2v-13.9h-9.4v13.9h-2v-15.6h13.4L531.2,387.1L531.2,387.1z"/>
		<path id="XMLID_485_" class="st1" d="M539.1,385.3h-0.6v8h-2v-21.8h1.9v1.8h0.6c1.1-1.5,2.8-2.2,5-2.2c2.1,0,3.8,0.7,5,2.3
			c1.3,1.6,1.9,3.4,1.9,5.8c0,2.4-0.6,4.4-1.9,5.8c-1.3,1.6-2.9,2.3-5.1,2.3C541.8,387.5,540.1,386.8,539.1,385.3z M539.7,374.6
			c-0.9,1.3-1.4,2.8-1.4,4.6c0,1.8,0.4,3.3,1.4,4.6c0.9,1.3,2.3,1.9,4.1,1.9c3.3,0,5.2-2.6,5.2-6.5c0-3.9-1.9-6.5-5.2-6.5
			C542,372.8,540.7,373.4,539.7,374.6z"/>
		<path id="XMLID_483_" class="st1" d="M568.1,382.6c-0.6,2.9-2.9,4.9-6.4,4.9c-2.3,0-4.2-0.7-5.5-2.3c-1.4-1.6-2-3.6-2-5.8
			c0-2.4,0.6-4.4,2-5.8c1.4-1.6,3.1-2.3,5.5-2.3c3.4,0,5.6,1.9,6.3,4.7h-2c-0.6-2-2.1-3-4.3-3c-1.9,0-3.2,0.6-4.1,1.8
			c-0.9,1.3-1.4,2.7-1.4,4.6c0,1.9,0.4,3.4,1.4,4.7c0.9,1.3,2.3,1.9,4.1,1.9c2.4,0,3.9-1,4.4-3.1L568.1,382.6L568.1,382.6z"/>
		<path id="XMLID_481_" class="st1" d="M570.5,373.2v-1.8h13v1.8H578v13.9h-2v-13.9H570.5z"/>
		<path id="XMLID_479_" class="st1" d="M590.6,393.3h-2l3.2-7.7l-6.6-14.1h2.1l5.1,11h0.7l4.7-11h2.1L590.6,393.3z"/>
		<path id="XMLID_475_" class="st1" d="M235.2,418.3v6.3h-2v-6.3h-0.5c-2.4,0-4.2-0.7-5.5-2.2c-1.4-1.5-2-3.3-2-5.6
			c0-2.3,0.6-4.2,2-5.6c1.4-1.5,3.1-2.2,5.5-2.2h0.5v-7.1h2v7.1h0.5c2.4,0,4.2,0.7,5.5,2.2c1.4,1.5,2,3.3,2,5.6c0,2.3-0.6,4.2-2,5.6
			c-1.4,1.5-3.1,2.2-5.5,2.2H235.2z M233.3,416.6v-12.1h-0.5c-3.7,0-5.5,2.6-5.5,6.1c0,3.4,2,6.1,5.5,6.1L233.3,416.6L233.3,416.6z
			 M235.2,416.6h0.5c3.7,0,5.5-2.6,5.5-6.1c0-3.4-2-6.1-5.5-6.1h-0.5V416.6z"/>
		<path id="XMLID_473_" class="st1" d="M257.5,418.3l-4.2-6.9h-1.1l-4.4,6.9h-2.2l5-8l-4.5-7.6h2.1l3.9,6.5h1.1l4-6.5h2.1l-4.6,7.5
			l5,8L257.5,418.3L257.5,418.3z"/>
		<path id="XMLID_471_" class="st1" d="M274.9,402.7h2v13.9h2.9v6.2h-2v-4.5h-14.1v-15.6h2v13.9h9.3L274.9,402.7L274.9,402.7z"/>
		<path id="XMLID_469_" class="st1" d="M282.5,402.7h2v4.4c0,1.1,0,1.5,0.5,2.3c0.5,0.7,1.7,1.1,3.8,1.1c1.5,0,2.9-0.1,4.3-0.4v-7.4
			h2v15.6h-2v-6.5c-1.5,0.3-3,0.4-4.5,0.4c-2.3,0-3.9-0.5-4.7-1c-0.4-0.3-0.7-0.7-0.9-1.3c-0.4-1-0.4-1.7-0.4-2.9L282.5,402.7
			L282.5,402.7z"/>
		<path id="XMLID_467_" class="st1" d="M317.8,402.7h2v15.6h-19.4v-15.6h2v13.9h6.8v-13.9h2v13.9h6.8L317.8,402.7L317.8,402.7z"/>
		<path id="XMLID_465_" class="st1" d="M342.5,402.7h2v13.9h2.9v6.2h-2v-4.5h-20.4v-15.6h2v13.9h6.8v-13.9h2v13.9h6.8L342.5,402.7
			L342.5,402.7z"/>
		<path id="XMLID_462_" class="st1" d="M348.9,404.5v-1.8h6.7v5.4h4.9c3.7,0,5.7,1.9,5.7,5c0,3.1-2.1,5.1-5.7,5.1h-6.9v-13.9h-4.7
			V404.5z M360.3,416.6c2.7,0,4.1-1,4.1-3.3c0-2.2-1.4-3.3-4.1-3.3h-4.7v6.7L360.3,416.6L360.3,416.6z"/>
		<path id="XMLID_458_" class="st1" d="M372.2,402.7v5.4h4.6c3.7,0,5.7,1.9,5.7,5c0,3.1-2.1,5.1-5.7,5.1h-6.6v-15.6H372.2z
			 M376.6,416.6c2.7,0,4.1-1,4.1-3.3c0-2.2-1.4-3.3-4.1-3.3h-4.4v6.7L376.6,416.6L376.6,416.6z M387,402.7v15.6h-2v-15.6H387z"/>
		<path id="XMLID_455_" class="st1" d="M394.3,402.7v5.4h4.9c3.7,0,5.7,1.9,5.7,5c0,3.1-2.1,5.1-5.7,5.1h-6.9v-15.6H394.3z
			 M399,416.6c2.7,0,4.1-1,4.1-3.3c0-2.2-1.4-3.3-4.1-3.3h-4.7v6.7L399,416.6L399,416.6z"/>
		<path id="XMLID_453_" class="st1" d="M409.9,414c0.5,1.8,2.1,2.9,4.6,2.9c3.1,0,5.1-2.4,5.2-5.7H412v-1.8h7.6
			c-0.1-3.2-2.1-5.4-5.2-5.4c-2.4,0-4,1-4.5,2.8h-2c0.6-2.7,3-4.6,6.4-4.6c2.3,0,4.1,0.7,5.3,2.3c1.3,1.5,2,3.4,2,6
			c0,2.4-0.6,4.4-2,6c-1.3,1.6-3.1,2.3-5.4,2.3c-3.3,0-5.8-1.9-6.5-4.7L409.9,414L409.9,414z"/>
		<path id="XMLID_450_" class="st1" d="M444.6,404.7c1.4,1.6,2,3.6,2,5.8s-0.6,4.3-2,5.8c-1.4,1.6-3.1,2.3-5.4,2.3
			c-2.2,0-3.9-0.7-5.2-2.1c-1.3-1.5-2-3.2-2.1-5.4H428v7.2h-2v-15.6h2v6.7h4c0.2-2.1,0.9-3.8,2.2-5.1c1.3-1.4,2.9-2,5-2
			C441.4,402.3,443.2,403.2,444.6,404.7z M439.1,417.1c1.7,0,3-0.6,4-1.9c0.9-1.3,1.4-2.8,1.4-4.6c0-1.8-0.4-3.2-1.4-4.6
			c-0.9-1.3-2.3-1.9-4-1.9s-3,0.6-4,1.9c-0.9,1.3-1.4,2.8-1.4,4.6s0.4,3.3,1.4,4.6C436.1,416.4,437.5,417.1,439.1,417.1z"/>
		<path id="XMLID_447_" class="st1" d="M463.3,402.7v15.6h-2v-6.6h-5.7c-0.4,0-0.6,0-0.8,0l-2.5,6.6h-2.1l2.7-7.1
			c-1.7-0.7-2.4-2.1-2.4-4.1c0-2.8,1.9-4.5,5.1-4.5L463.3,402.7L463.3,402.7z M461.4,404.5h-5.5c-2.2,0-3.3,0.9-3.3,2.8
			s1.1,2.7,3.3,2.7h5.5V404.5z"/>
		<path id="XMLID_444_" class="st1" d="M233,439.8c2.4,0,4.3,0.9,5.6,2.8c1.5,1.9,2.2,4.7,2.2,8.5c0,3.8-0.7,6.6-2.2,8.5
			c-1.4,1.9-3.3,2.8-5.6,2.8c-2.4,0-4.3-0.9-5.7-2.8c-1.4-1.9-2.1-4.7-2.1-8.5c0-3.8,0.7-6.6,2.1-8.5
			C228.8,440.8,230.6,439.8,233,439.8z M233,460.7c1.9,0,3.3-0.8,4.3-2.4c1-1.7,1.5-4,1.5-7.1c0-3.1-0.5-5.4-1.5-7.1
			c-0.9-1.7-2.4-2.5-4.3-2.5c-1.9,0-3.3,0.8-4.4,2.5c-0.9,1.7-1.5,4-1.5,7.1c0,3.1,0.5,5.4,1.5,7.1
			C229.7,459.9,231.2,460.7,233,460.7z"/>
		<path id="XMLID_442_" class="st1" d="M244.6,462.1v-1.8h5.3v-17.9h-0.6l-4.7,3.1v-2.2l4.7-3.1h2.6v20.1h4.9v1.8H244.6z"/>
		<path id="XMLID_440_" class="st1" d="M274.4,460.3v1.8h-14.5v-2.4c4.1-3.4,6.9-5.8,8.5-7.3c2.3-2.1,3.3-4.1,3.3-6
			c0-3-1.9-4.7-4.9-4.7c-2.8,0-4.6,1.6-4.9,4.4h-2c0.1-2,0.8-3.6,2.2-4.7c1.4-1,2.9-1.6,4.8-1.6c2,0,3.7,0.5,5,1.7
			c1.3,1.1,2,2.7,2,4.8c0,2.7-1.5,4.7-4.2,7.3c-0.4,0.4-1.3,1.1-2.4,2.2l-3,2.6l-1.4,1.1v0.6L274.4,460.3L274.4,460.3z"/>
		<path id="XMLID_438_" class="st1" d="M278.5,440.2h12.2v2.4l-6,5.3v0.6c2.1,0,3.8,0.6,5,1.8c1.3,1.1,2,2.8,2,5
			c0,2.2-0.7,4-2.1,5.2c-1.4,1.3-3.1,1.9-5.3,1.9c-2.1,0-3.8-0.6-5.2-1.8c-1.4-1.1-2.1-2.7-2.2-4.5h2c0.1,1.4,0.6,2.4,1.7,3.2
			c1,0.8,2.3,1.3,3.7,1.3c3.2,0,5.4-2.1,5.4-5.3c0-3.1-2-5-5.4-5c-0.7,0-1.4,0.1-1.9,0.2V448l5.8-5.3V442h-9.8v-1.8H278.5z"/>
		<path id="XMLID_435_" class="st1" d="M307.5,455h3.1v1.8h-3.1v5.3h-2v-5.3h-11v-2.4l9.7-14.1h3.2V455z M296.8,455h8.8v-12.6h-0.6
			l-8.1,12V455z"/>
		<path id="XMLID_433_" class="st1" d="M326.7,449.5c1.3,1.4,1.9,3.1,1.9,5.2c0,2.3-0.6,4.3-2,5.6c-1.4,1.4-3.1,2.1-5.3,2.1
			c-4.5,0-7.1-2.6-7.3-6.3h2c0.3,2.9,2.3,4.5,5.2,4.5c3.2,0,5.3-2.2,5.3-5.8c0-1.7-0.4-2.9-1.5-4.1c-0.9-1-2.2-1.6-3.8-1.6
			c-2.2,0-3.8,0.7-4.7,2.3h-2.2l0.9-11.3h12.1v1.8H317l-0.5,7h0.6c1.1-1,2.6-1.7,4.4-1.7C323.7,447.5,325.5,448.2,326.7,449.5z"/>
		<path id="XMLID_430_" class="st1" d="M345,450c1.4,1.4,2,3,2,5.1c0,2.2-0.6,4-2,5.3c-1.3,1.4-3,2.1-5.2,2.1
			c-5.2,0-7.7-3.6-7.7-10.7c0-3.6,0.7-6.5,2.1-8.7c1.4-2.3,3.4-3.3,6.1-3.3c3.4,0,5.6,2,6.3,5h-2c-0.6-2.1-2-3.1-4.2-3.1
			c-3.8,0-6,3.3-6.2,8.6h0.6c1.3-1.5,3-2.3,5.3-2.3C342.1,448,343.8,448.6,345,450z M345,455.2c0-3.4-2.2-5.4-5.2-5.4
			s-5.2,2-5.2,5.3c0,3.4,2.3,5.5,5.3,5.5C342.9,460.7,345,458.6,345,455.2z"/>
		<path id="XMLID_428_" class="st1" d="M363.5,442.7l-9.7,19.4h-2.2l9.8-19.4V442H350v-1.8h13.5V442.7z"/>
		<path id="XMLID_424_" class="st1" d="M379.6,460.8c-1.5,1.1-3.2,1.7-5.5,1.7s-4.1-0.5-5.5-1.7c-1.5-1.1-2.2-2.6-2.2-4.5
			c0-2.7,1.8-4.6,3.8-5.3v-0.6c-2.1-1-3.1-2.6-3.1-4.7c0-1.8,0.6-3.1,2-4.3c1.4-1,3-1.7,5.1-1.7c2.1,0,3.8,0.5,5.1,1.7
			c1.4,1,2,2.5,2,4.3c0,2-1,3.6-3.1,4.7v0.6c2,0.7,3.8,2.6,3.8,5.3C381.7,458.1,381,459.6,379.6,460.8z M378.1,452.9
			c-1-0.8-2.4-1.3-4.1-1.3c-1.7,0-3,0.4-4.1,1.3s-1.6,2-1.6,3.3c0,1.4,0.5,2.4,1.6,3.2c1,0.8,2.4,1.3,4.1,1.3c1.7,0,3-0.4,4.1-1.3
			c1-0.8,1.7-2,1.7-3.2C379.7,454.8,379.2,453.7,378.1,452.9z M368.9,445.7c0,1.3,0.4,2.3,1.5,3c0.9,0.7,2.2,1,3.6,1
			c1.4,0,2.6-0.4,3.6-1c0.9-0.7,1.5-1.7,1.5-3c0-1.4-0.5-2.3-1.5-3s-2.2-1-3.6-1c-1.4,0-2.6,0.4-3.6,1
			C369.5,443.4,368.9,444.4,368.9,445.7z"/>
		<path id="XMLID_421_" class="st1" d="M386.8,452.4c-1.4-1.4-2-3-2-5.1c0-2.2,0.6-3.9,2-5.3c1.3-1.4,3-2.1,5.2-2.1
			c5.2,0,7.7,3.6,7.7,10.7c0,3.6-0.7,6.5-2.1,8.7c-1.4,2.3-3.4,3.3-6.1,3.3c-3.4,0-5.6-2-6.3-5h2c0.6,2.1,2,3.1,4.2,3.1
			c3.8,0,6-3.3,6.2-8.6H397c-1.3,1.5-3,2.3-5.3,2.3C389.7,454.4,388.2,453.6,386.8,452.4z M386.8,447.1c0,3.4,2.2,5.4,5.2,5.4
			s5.2-2,5.2-5.3c0-3.4-2.3-5.5-5.3-5.5C388.9,441.6,386.8,443.6,386.8,447.1z"/>
	</g>
	<g id="XMLID_223_">
		<path id="XMLID_417_" class="st1" d="M1092.2,306.5l-2.1-6.4h-9.2l-2,6.4h-3.8l7.4-22.2h6l7.4,22.2H1092.2z M1084.9,287.8
			l-2.8,8.9h7l-2.8-8.9H1084.9z"/>
		<path id="XMLID_414_" class="st1" d="M1109.4,293c4.8,0,7.6,2.5,7.6,6.8s-2.8,6.8-7.6,6.8h-10v-22.2h15.8v3.4h-12v5.3h6.3V293z
			 M1108.7,303.2c3.2,0,4.5-1.3,4.5-3.6s-1.3-3.6-4.5-3.6h-5.6v7.1H1108.7z"/>
		<path id="XMLID_410_" class="st1" d="M1136.3,295.3c1.8,0.7,3,2.7,3,4.9c0,3.8-2.6,6.4-7.6,6.4h-10.3v-22.2h10.1
			c2.3,0,4.1,0.5,5.3,1.7c1.3,1,1.9,2.5,1.9,4.1c0,2.1-0.7,3.7-2.3,4.5L1136.3,295.3L1136.3,295.3z M1131.1,293.4
			c2.5,0,3.8-1,3.8-2.9c0-2-1.3-2.9-3.8-2.9h-6v5.8L1131.1,293.4L1131.1,293.4z M1131.2,303.3c2.8,0,4.3-1.1,4.3-3.3
			s-1.5-3.3-4.3-3.3h-6.2v6.7L1131.2,303.3L1131.2,303.3z"/>
		<path id="XMLID_408_" class="st1" d="M1159.3,287.6h-11.9v18.9h-3.8v-22.2h15.7V287.6z"/>
		<path id="XMLID_405_" class="st1" d="M1178.7,303.1h3.1v8.9h-3.7v-5.4h-15.8v5.4h-3.7v-8.9h2.3c1.8-3.6,2.7-8.1,2.7-13.7v-5.2
			h14.8v18.9H1178.7z M1175,303.1v-15.5h-7.6v2.2c0,5.5-0.7,10-2.4,13.4h10L1175,303.1L1175,303.1z"/>
		<path id="XMLID_403_" class="st1" d="M1189.1,303.1h12.6v3.4h-16.4v-22.2h16v3.4h-12.2v5.7h9.7v3.3h-9.7L1189.1,303.1
			L1189.1,303.1z"/>
		<path id="XMLID_399_" class="st1" d="M1209.7,303.1h12.6v3.4H1206v-22.2h16v3.4h-12.2v5.7h9.7v3.3h-9.7L1209.7,303.1L1209.7,303.1
			z M1212.5,281.7h-3.1v-3.1h3.1V281.7z M1218.4,281.7h-3.1v-3.1h3.1V281.7z"/>
		<path id="XMLID_397_" class="st1" d="M1247.3,296.9h-5.2v9.6h-3.7v-9.6h-5.2l-4,9.6h-3.9l4.7-11.3l-4.4-11h3.9l3.7,9.3h5.2v-9.3
			h3.7v9.3h5.2l3.7-9.3h3.9l-4.5,11l4.7,11.3h-3.9L1247.3,296.9z"/>
		<path id="XMLID_395_" class="st1" d="M1267,287.2c-2.7,0-4.2,1-4.6,3h-3.9c0.4-4,3.7-6.4,8.6-6.4c2.5,0,4.5,0.5,5.8,1.7
			c1.4,1.1,2.1,2.6,2.1,4.3c0,2.2-0.7,3.7-2.3,4.5v0.7c2.1,0.8,3.1,2.5,3.1,5.1c0,2-0.7,3.6-2.3,4.8c-1.6,1.3-3.8,2-6.5,2
			c-5.6,0-8.9-2.5-9.5-6.9h4c0.6,2.3,2.5,3.4,5.5,3.4c2.9,0,4.8-1.4,4.8-3.4c0-2.3-1.5-3.3-4.5-3.3h-3.4v-3.3h3.4
			c2.6,0,3.7-1.3,3.7-3C1271.2,288.4,1269.5,287.2,1267,287.2z"/>
		<path id="XMLID_393_" class="st1" d="M1280.1,284.2h3.6v17.3h0.7l9.2-17.3h5.3v22.2h-3.6v-17.3h-0.7l-9.2,17.3h-5.3V284.2z"/>
		<path id="XMLID_390_" class="st1" d="M1304.4,284.2h3.6v17.3h0.7l9.2-17.3h5.3v22.2h-3.6v-17.3h-0.7l-9.2,17.3h-5.3V284.2z
			 M1319.5,278.3c-0.1,3-2.3,4.8-5.6,4.8c-3.2,0-5.5-1.8-5.6-4.8h2.8c0.1,1.4,1.1,2.3,2.8,2.3c1.7,0,2.7-0.9,2.8-2.3H1319.5z"/>
		<path id="XMLID_388_" class="st1" d="M1328.6,306.5v-22.2h3.8v9.1h6.1l4.3-9.1h3.9l-5,10.9l5.3,11.5h-3.9l-4.6-9.8h-6.1v9.8h-3.8
			L1328.6,306.5L1328.6,306.5z"/>
		<path id="XMLID_386_" class="st1" d="M1348.7,302.8h0.7c0.9,0,1.7-0.2,2.2-0.6c1-0.8,1.7-3.6,1.7-9.2v-8.7h15.5v22.2h-3.8v-18.9
			h-8.3v5.7c0,5.3-0.5,8.8-1.8,10.7c-1.3,1.9-2.8,2.5-5.5,2.5h-0.7V302.8z"/>
		<path id="XMLID_384_" class="st1" d="M1374.1,306.5v-22.2h6l4.6,9.7h0.7l4.6-9.7h6v22.2h-3.6v-17.9h-0.7l-4.7,9.8h-3.8l-4.7-9.8
			h-0.7v17.9H1374.1z"/>
		<path id="XMLID_382_" class="st1" d="M1416.2,284.2h3.8v22.2h-3.8v-9.7H1405v9.7h-3.8v-22.2h3.8v9.1h11.2V284.2z"/>
		<path id="XMLID_379_" class="st1" d="M1434.9,283.8c3.3,0,6,1,7.8,3.2c1.9,2.2,2.8,4.9,2.8,8.3c0,3.3-0.9,6.2-2.8,8.3
			c-1.9,2.2-4.5,3.2-7.8,3.2s-6-1-7.8-3.2c-1.9-2.2-2.8-4.9-2.8-8.3c0-3.3,0.9-6.2,2.8-8.3C1429,284.9,1431.6,283.8,1434.9,283.8z
			 M1434.9,303.5c2.3,0,4-0.7,5.1-2.3c1.1-1.6,1.7-3.4,1.7-5.8s-0.5-4.3-1.7-5.8c-1.1-1.6-2.8-2.3-5.1-2.3c-2.3,0-4,0.7-5.1,2.3
			c-1.1,1.6-1.7,3.4-1.7,5.8s0.5,4.3,1.7,5.8C1431,302.8,1432.7,303.5,1434.9,303.5z"/>
		<path id="XMLID_377_" class="st1" d="M1450,284.2h18.4v22.2h-3.8v-18.9h-10.9v18.9h-3.8V284.2z"/>
		<path id="XMLID_374_" class="st1" d="M1087.2,324.3c5,0,7.8,2.6,7.8,6.9c0,4.4-2.8,7-7.8,7h-6.1v8.5h-3.8v-22.2h9.8V324.3z
			 M1086.6,334.9c3,0,4.6-1.3,4.6-3.7s-1.4-3.6-4.6-3.6h-5.5v7.2H1086.6z"/>
		<path id="XMLID_372_" class="st1" d="M1117.7,339.9c-0.7,4.4-4.1,7.1-9.1,7.1c-3.2,0-5.8-1-7.7-3.1c-1.9-2.2-2.8-4.9-2.8-8.4
			s0.9-6.2,2.8-8.4c1.9-2.2,4.5-3.2,7.7-3.2c2.3,0,4.3,0.6,5.8,1.8c1.6,1.1,2.6,2.8,2.9,4.8h-4c-0.7-2.1-2.3-3.1-4.9-3.1
			c-2.2,0-3.9,0.7-5,2.3c-1.1,1.6-1.7,3.4-1.7,5.8c0,2.4,0.5,4.4,1.7,5.8c1.1,1.6,2.8,2.3,5,2.3c2.7,0,4.6-1.4,5.1-3.8L1117.7,339.9
			L1117.7,339.9z"/>
		<path id="XMLID_370_" class="st1" d="M1137.8,324.3v3.3h-7.1v19h-3.8v-19h-7.1v-3.3H1137.8z"/>
		<path id="XMLID_368_" class="st1" d="M1148.5,335.2h0.8l5.1-10.8h3.9l-10.7,22.2h-3.8l3.1-6.7l-8.3-15.6h4L1148.5,335.2z"/>
		<path id="XMLID_364_" class="st1" d="M1173.7,326.2h0.3c3.1,0,5.5,0.7,7.4,2.3c1.9,1.6,2.7,3.8,2.7,6.7c0,5.8-3.9,9-10.1,9h-0.3
			v2.9h-3.7v-2.9h-0.3c-6.4,0-10.1-3-10.1-9c0-2.9,0.9-5.1,2.7-6.7c1.9-1.6,4.3-2.3,7.4-2.3h0.3v-2.6h3.7V326.2z M1170,340.9v-11.4
			h-0.3c-4.1,0-6.5,1.9-6.5,5.7c0,3.8,2.4,5.7,6.5,5.7h0.3V340.9z M1173.7,340.9h0.3c4.1,0,6.5-2,6.5-5.7c0-3.9-2.4-5.7-6.5-5.7
			h-0.3V340.9z"/>
		<path id="XMLID_362_" class="st1" d="M1201.3,346.7l-5.1-9.6h-1l-5.2,9.6h-4.1l6.4-11.7l-5.5-10.6h4l4.5,8.6h1l4.6-8.6h3.9
			l-5.5,10.4l6.4,11.9L1201.3,346.7L1201.3,346.7z"/>
		<path id="XMLID_360_" class="st1" d="M1226.6,352.1v-5.4h-17.8v-22.2h3.8v18.9h10.8v-18.9h3.8v18.9h3.2v8.9h-3.8V352.1z"/>
		<path id="XMLID_358_" class="st1" d="M1232.8,324.3h3.8v6.4v0.8c0,0.4,0.1,1.1,0.4,1.6c0.6,0.9,1.8,1.7,4.7,1.7
			c1.6,0,3.1-0.2,4.6-0.5v-9.8h3.8v22.2h-3.8v-9c-1.6,0.4-3.3,0.5-5.3,0.5c-3,0-5.1-0.7-6.3-1.5c-0.5-0.4-0.9-0.9-1.3-1.7
			c-0.3-0.7-0.4-1.4-0.5-1.9c0-0.5-0.1-1.3-0.1-2.1L1232.8,324.3L1232.8,324.3z"/>
		<path id="XMLID_356_" class="st1" d="M1267,343.2v-18.9h3.7v18.9h7.9v-18.9h3.7v22.2h-26.7v-22.2h3.7v18.9H1267z"/>
		<path id="XMLID_354_" class="st1" d="M1313.9,352.1v-5.4h-26.3v-22.2h3.7v18.9h7.9v-18.9h3.7v18.9h7.9v-18.9h3.7v18.9h3.1v8.9
			h-3.7V352.1z"/>
		<path id="XMLID_351_" class="st1" d="M1324.2,346.7v-18.9h-5.6v-3.4h9.4v8h5.8c5.1,0,8,2.6,8,7.1c0,4.5-2.9,7.1-8,7.1h-9.6V346.7z
			 M1333.2,343.3c3.4,0,4.8-1.4,4.8-3.9s-1.4-3.8-4.8-3.8h-5.3v7.6L1333.2,343.3L1333.2,343.3z"/>
		<path id="XMLID_347_" class="st1" d="M1346.1,346.7v-22.2h3.8v8h5.3c5.1,0,8,2.6,8,7.1c0,4.5-2.9,7.1-8,7.1H1346.1z M1354.6,343.3
			c3.4,0,4.8-1.4,4.8-3.9s-1.4-3.8-4.8-3.8h-4.7v7.6L1354.6,343.3L1354.6,343.3z M1365.9,324.3h3.8v22.2h-3.8V324.3z"/>
		<path id="XMLID_344_" class="st1" d="M1375.1,346.7v-22.2h3.8v8h5.8c5,0,8,2.6,8,7.1c0,4.5-2.9,7.1-8,7.1H1375.1z M1384.1,343.3
			c3.4,0,4.8-1.4,4.8-3.9s-1.4-3.8-4.8-3.8h-5.3v7.6L1384.1,343.3L1384.1,343.3z"/>
		<path id="XMLID_342_" class="st1" d="M1399.5,340.3c0.6,2.1,2.5,3.3,5.1,3.3c4,0,6.2-2.7,6.5-6.8h-9.3v-3.3h9.3
			c-0.4-3.8-2.6-6.3-6.4-6.3c-2.6,0-4.3,1-5,3h-3.9c0.4-2,1.4-3.4,3-4.6c1.6-1.1,3.6-1.8,5.8-1.8c3.2,0,5.8,1,7.6,3.2
			c1.9,2.1,2.8,4.9,2.8,8.4s-0.9,6.2-2.8,8.4c-1.9,2.2-4.4,3.2-7.7,3.2c-2.4,0-4.5-0.6-6.1-1.9c-1.7-1.3-2.6-2.8-2.9-4.9H1399.5z"/>
		<path id="XMLID_339_" class="st1" d="M1445.5,327.2c1.9,2.2,2.7,4.9,2.7,8.3s-0.9,6.2-2.7,8.3c-1.9,2.2-4.4,3.2-7.7,3.2
			c-3,0-5.4-0.9-7.3-2.8c-1.8-1.9-2.8-4.3-3.1-7.3h-4.2v9.7h-3.8v-22.2h3.8v9.1h4.3c0.3-2.8,1.5-5.1,3.2-6.8
			c1.8-1.8,4.2-2.6,7.1-2.6C1441.1,324,1443.6,325,1445.5,327.2z M1442.7,341.3c1.1-1.6,1.7-3.4,1.7-5.8s-0.5-4.3-1.7-5.8
			c-1.1-1.6-2.7-2.3-4.9-2.3s-3.8,0.7-4.9,2.3c-1.1,1.6-1.7,3.4-1.7,5.8s0.5,4.3,1.7,5.8c1.1,1.6,2.8,2.3,4.9,2.3
			C1439.9,343.6,1441.5,342.9,1442.7,341.3z"/>
		<path id="XMLID_336_" class="st1" d="M1469.5,324.3v22.2h-3.8v-8.9h-5.2c-0.8,0-1.6,0-2-0.1l-3.1,8.9h-3.8l3.4-9.7
			c-2.2-1-3.3-3-3.3-5.8c0-4.2,2.8-6.7,7.6-6.7h10.1L1469.5,324.3L1469.5,324.3z M1465.7,334.5v-6.9h-5.8c-3,0-4.3,1.1-4.3,3.4
			s1.5,3.4,4.3,3.4L1465.7,334.5L1465.7,334.5z"/>
		<path id="XMLID_333_" class="st1" d="M1087,386.8v-1.5h-0.7c-0.9,1.3-2.5,1.9-4.7,1.9c-1.8,0-3.1-0.5-4.2-1.5
			c-1-1-1.6-2.3-1.6-3.8c0-1.5,0.5-2.7,1.6-3.8c1-1,2.6-1.6,4.7-1.6h4.7v-0.4c0-1.9-1-2.9-3.3-2.9c-2,0-3,0.7-3.1,2h-3.4
			c0.1-2.9,2.8-4.8,6.6-4.8c4.3,0,6.9,1.9,6.9,5.7v10.6H1087z M1085.6,383.1c0.8-0.7,1.3-1.7,1.3-2.8V379h-4.1
			c-2.2,0-3.3,0.9-3.3,2.6c0,1.7,1.1,2.6,3.2,2.6C1083.8,384.3,1084.9,383.9,1085.6,383.1z"/>
		<path id="XMLID_330_" class="st1" d="M1108.1,373.5c1.4,1.5,2.1,3.4,2.1,5.7s-0.7,4.2-2.2,5.7c-1.5,1.5-3.4,2.3-5.8,2.3
			c-5.1,0-8.1-3.4-8.1-9.7c0-2.9,0.2-5,1-7.3c0.8-2.3,2.6-3.8,5.2-4.2l4.2-0.7c1.3-0.2,1.6-0.3,1.6-1.1h3c-0.1,2.2-0.7,3.6-3.1,4
			l-5,0.8c-2.4,0.4-3.4,1.9-3.9,4.6h0.7c1.1-1.5,2.8-2.2,5-2.2C1104.9,371.2,1106.8,371.9,1108.1,373.5z M1105.5,382.7
			c0.7-0.9,1.1-2.2,1.1-3.6c0-2.8-1.6-5-4.5-5c-2.9,0-4.5,2.2-4.5,5c0,1.4,0.4,2.6,1.1,3.6c0.7,0.9,1.9,1.5,3.3,1.5
			C1103.6,384.2,1104.6,383.6,1105.5,382.7z"/>
		<path id="XMLID_326_" class="st1" d="M1125.8,378.7c1.6,0.4,2.6,1.7,2.6,3.7c0,2.9-2,4.4-5.6,4.4h-8.8v-15.9h8.5
			c3.2,0,5,1.6,5,4.1c0,1.4-0.7,2.6-1.8,3.1L1125.8,378.7L1125.8,378.7z M1117.6,373.6v3.8h4.3c1.6,0,2.3-0.7,2.3-1.9
			c0-1.3-0.7-1.9-2.3-1.9L1117.6,373.6L1117.6,373.6z M1122.2,384.1c1.8,0,2.7-0.7,2.7-2.1c0-1.4-0.9-2.1-2.7-2.1h-4.7v4.2H1122.2z"
			/>
		<path id="XMLID_324_" class="st1" d="M1132.4,386.8v-15.9h12.4v3h-8.9v12.8L1132.4,386.8L1132.4,386.8z"/>
		<path id="XMLID_321_" class="st1" d="M1161.4,383.7h2.8v7.4h-3.3v-4.5h-12.7v4.5h-3.3v-7.4h2.3c1-2.6,1.7-5.4,1.7-8.5v-4.5h12.7
			L1161.4,383.7L1161.4,383.7z M1157.9,383.7v-9.9h-6v1.5c0,3.1-0.4,6-1.5,8.4h7.4V383.7z"/>
		<path id="XMLID_318_" class="st1" d="M1181.8,379.1h-11.7c0.1,3.3,1.6,5,4.5,5c1.9,0,3-0.7,3.4-2h3.6c-0.6,3-3.1,5-7.1,5
			c-2.5,0-4.4-0.7-5.8-2.3c-1.4-1.6-2.1-3.6-2.1-6.2s0.7-4.5,2.1-6c1.4-1.5,3.3-2.3,5.7-2.3c2.3,0,4.1,0.7,5.3,2.1
			c1.4,1.4,2,3.1,2,5.3L1181.8,379.1L1181.8,379.1z M1170.2,376.5h7.9c-0.2-1.9-1.6-3.2-3.8-3.2
			C1172,373.3,1170.6,374.5,1170.2,376.5z"/>
		<path id="XMLID_313_" class="st1" d="M1200,379.1h-11.7c0.1,3.3,1.6,5,4.5,5c1.9,0,3-0.7,3.4-2h3.6c-0.6,3-3.1,5-7.1,5
			c-2.5,0-4.4-0.7-5.8-2.3c-1.4-1.6-2.1-3.6-2.1-6.2s0.7-4.5,2.1-6c1.4-1.5,3.3-2.3,5.7-2.3c2.3,0,4.1,0.7,5.3,2.1
			c1.4,1.4,2,3.1,2,5.3L1200,379.1L1200,379.1z M1191.2,367.8h-3.1v-3.4h3.1V367.8z M1188.4,376.5h7.9c-0.2-1.9-1.6-3.2-3.8-3.2
			C1190.3,373.3,1188.8,374.5,1188.4,376.5z M1197.2,367.8h-3.1v-3.4h3.1V367.8z"/>
		<path id="XMLID_311_" class="st1" d="M1209.3,380.2l-3,6.6h-3.7l3.7-8.1l-3.4-7.7h3.6l2.8,6.3h3.6v-6.3h3.3v6.3h3.6l2.8-6.3h3.6
			l-3.4,7.7l3.7,8.1h-3.7l-2.9-6.6h-3.6v6.6h-3.3v-6.6H1209.3z"/>
		<path id="XMLID_309_" class="st1" d="M1235.8,373.5c-2,0-3.1,0.7-3.4,2h-3.2c0.3-3.2,2.9-5,6.9-5c4,0,6.4,1.9,6.4,4.5
			c0,1.7-0.5,2.7-1.7,3.1v0.7c1.4,0.4,2.1,1.6,2.1,3.4c0,1.4-0.6,2.6-1.9,3.6c-1.3,0.9-2.9,1.4-5,1.4c-4.5,0-7.1-1.9-7.5-5.1h3.3
			c0.4,1.5,1.8,2.2,4.1,2.2s3.4-0.7,3.4-2.1c0-1.4-1-2-3-2h-2.7v-2.9h2.6c1.8,0,2.7-0.6,2.7-1.9
			C1239,374.1,1237.7,373.5,1235.8,373.5z"/>
		<path id="XMLID_307_" class="st1" d="M1251,386.8h-4v-15.9h3.4v10.4h0.7l6.5-10.4h4.1v15.9h-3.4v-10.4h-0.7L1251,386.8z"/>
		<path id="XMLID_304_" class="st1" d="M1270.6,386.8h-4v-15.9h3.4v10.4h0.7l6.5-10.4h4.1v15.9h-3.4v-10.4h-0.7L1270.6,386.8z
			 M1279.3,364.2c-0.1,2.9-2.1,4.6-5.3,4.6c-3.2,0-5.1-1.7-5.2-4.6h2.8c0.1,1.5,0.9,2.3,2.5,2.3c1.6,0,2.4-0.7,2.5-2.3H1279.3z"/>
		<path id="XMLID_302_" class="st1" d="M1297.2,386.8l-3.3-6.7h-4.1v6.7h-3.6v-15.9h3.6v6.3h4.2l3.1-6.3h3.7l-3.9,7.6l4.1,8.3
			L1297.2,386.8L1297.2,386.8z"/>
		<path id="XMLID_300_" class="st1" d="M1302.9,386.8v-3.3h0.5c2.2,0,3-1.5,3-6.2v-6.5h12.8v15.9h-3.6v-12.8h-6.1v3.6
			c0,3.4-0.5,5.8-1.5,7.3c-0.9,1.4-2.6,2.1-4.8,2.1H1302.9z"/>
		<path id="XMLID_298_" class="st1" d="M1324.2,386.8v-15.9h5l3.6,7h0.7l3.6-7h5v15.9h-3.4v-11.4h-0.7l-3.1,6h-3.3l-3.1-6h-0.7v11.4
			H1324.2z"/>
		<path id="XMLID_296_" class="st1" d="M1361.7,386.8h-3.6v-6.7h-7.7v6.7h-3.6v-15.9h3.6v6.3h7.7v-6.3h3.6V386.8z"/>
		<path id="XMLID_293_" class="st1" d="M1379.5,384.9c-1.5,1.6-3.3,2.3-5.8,2.3c-2.5,0-4.4-0.7-5.8-2.3c-1.5-1.6-2.2-3.6-2.2-6.1
			s0.7-4.5,2.2-6c1.5-1.6,3.4-2.3,5.8-2.3c2.5,0,4.4,0.7,5.8,2.3c1.5,1.6,2.2,3.6,2.2,6C1381.7,381.2,1380.9,383.3,1379.5,384.9z
			 M1373.6,373.5c-2.9,0-4.5,2.3-4.5,5.3s1.6,5.3,4.5,5.3c2.9,0,4.5-2.3,4.5-5.3S1376.5,373.5,1373.6,373.5z"/>
		<path id="XMLID_291_" class="st1" d="M1400.2,386.8h-3.6v-12.8h-7.5v12.8h-3.6v-15.9h14.6V386.8z"/>
		<path id="XMLID_288_" class="st1" d="M1405,370.9h3.4v1.6h0.7c1-1.3,2.6-2,4.7-2c2.1,0,3.8,0.7,5,2.3c1.3,1.6,1.9,3.6,1.9,6
			c0,2.5-0.6,4.5-1.9,6.1c-1.3,1.6-2.9,2.3-5,2.3c-2.1,0-3.6-0.6-4.6-2h-0.7v7.7h-3.6V370.9z M1408.5,378.8c0,3,1.5,5.3,4.4,5.3
			c2.8,0,4.4-2.2,4.4-5.3c0-3.2-1.6-5.3-4.4-5.3C1410.1,373.5,1408.5,375.8,1408.5,378.8z"/>
		<path id="XMLID_286_" class="st1" d="M1438.7,381.6c-0.5,3.3-3.2,5.5-7,5.5c-2.4,0-4.4-0.7-5.7-2.3c-1.4-1.6-2.1-3.6-2.1-6.1
			s0.7-4.5,2.1-6.1c1.4-1.6,3.3-2.3,5.7-2.3c3.8,0,6.4,2.1,6.9,5.2h-3.4c-0.4-1.5-1.6-2.3-3.3-2.3c-2.9,0-4.4,2.2-4.4,5.3
			s1.4,5.4,4.4,5.4c2,0,3.1-0.8,3.4-2.5H1438.7z"/>
		<path id="XMLID_284_" class="st1" d="M1441,373.9v-3h14.2v3h-5.3v12.8h-3.6v-12.8H1441z"/>
		<path id="XMLID_282_" class="st1" d="M1463.8,393h-3.6l3.2-7.8l-6.8-14.3h3.8l4.4,9.6h0.8l4.1-9.6h3.7L1463.8,393z"/>
		<path id="XMLID_278_" class="st1" d="M1088,426.9h-3.4v-6.3h-0.4c-2.5,0-4.5-0.7-6-2.2c-1.4-1.5-2.1-3.3-2.1-5.7
			c0-2.3,0.7-4.2,2.1-5.6c1.4-1.5,3.3-2.2,5.8-2.3h0.4v-6.8h3.4v6.8h0.4c2.5,0,4.5,0.7,5.8,2.3c1.4,1.5,2.1,3.3,2.1,5.6
			c0,4.9-3.1,7.9-8.5,7.9v6.3H1088z M1084.2,417.8h0.4v-10.2h-0.4c-3,0-4.6,2.2-4.6,5.1C1079.6,415.7,1081.2,417.8,1084.2,417.8z
			 M1088,417.8h0.3c3,0,4.7-2.2,4.7-5.1c0-2.9-1.7-5-4.7-5.1h-0.3V417.8z"/>
		<path id="XMLID_276_" class="st1" d="M1110.7,420.6l-3.4-6.3h-1.1l-3.6,6.3h-3.8l4.7-8.1l-4.3-7.7h3.8l3.2,5.8h1.1l3.3-5.8h3.7
			l-4.3,7.6l4.7,8.3H1110.7z"/>
		<path id="XMLID_274_" class="st1" d="M1129,404.7h3.6v12.8h2.8v7.4h-3.3v-4.4h-14v-15.9h3.6v12.8h7.4V404.7z"/>
		<path id="XMLID_272_" class="st1" d="M1137.7,404.7h3.6v4.6c0,0.8,0.1,1.3,0.4,1.9c0.4,0.6,1.4,0.8,3,0.8c1.1,0,2.3-0.1,3.4-0.4
			v-7h3.6v16h-3.6v-6c-1.4,0.3-2.8,0.4-4.5,0.4c-2.1,0-3.7-0.4-4.5-1c-1.4-1.1-1.5-2.6-1.5-4.2V404.7z"/>
		<path id="XMLID_270_" class="st1" d="M1174.4,404.7h3.4v15.9h-21.2v-15.9h3.4v12.8h5.4v-12.8h3.4v12.8h5.4V404.7z"/>
		<path id="XMLID_268_" class="st1" d="M1200.5,404.7h3.4v12.8h2.8v7.4h-3.3v-4.4h-20.7v-15.9h3.4v12.8h5.4v-12.8h3.4v12.8h5.4
			V404.7z"/>
		<path id="XMLID_265_" class="st1" d="M1208.1,407.8v-3h8.1v4.9h4.3c4,0,6.2,2,6.2,5.4s-2.3,5.5-6.2,5.5h-7.8v-12.8L1208.1,407.8
			L1208.1,407.8z M1220.2,417.7c2.3,0,3.1-0.9,3.1-2.5c0-1.7-0.8-2.6-3.1-2.6h-3.8v5.1H1220.2z"/>
		<path id="XMLID_261_" class="st1" d="M1230.5,404.7h3.6v4.9h4c4,0,6.2,2,6.2,5.4s-2.2,5.5-6.2,5.5h-7.5L1230.5,404.7L1230.5,404.7
			z M1233.9,412.6v5.1h3.4c2.3,0,3.1-0.9,3.1-2.5c0-1.7-0.8-2.6-3.1-2.6H1233.9z M1246.6,404.7h3.6v15.9h-3.6V404.7z"/>
		<path id="XMLID_258_" class="st1" d="M1258.5,404.7v4.9h4.3c4,0,6.2,2,6.2,5.4s-2.2,5.5-6.2,5.5h-7.8v-15.9H1258.5z M1262.3,417.7
			c2.3,0,3.1-0.9,3.1-2.5c0-1.7-0.8-2.6-3.1-2.6h-3.8v5.1H1262.3z"/>
		<path id="XMLID_256_" class="st1" d="M1275,415.8c0.3,1.5,1.6,2.3,3.8,2.3c2.5,0,4.1-1.6,4.3-4.1h-6.4v-2.8h6.3
			c-0.2-2.3-1.8-3.8-4.3-3.8c-2,0-3.1,0.7-3.6,2h-3.3c0.6-3,3.2-5,7-5c2.4,0,4.3,0.7,5.7,2.3c1.4,1.6,2.1,3.6,2.1,6.1
			c0,2.5-0.7,4.6-2.1,6.1c-1.4,1.6-3.3,2.3-5.7,2.3c-1.9,0-3.4-0.4-4.8-1.5c-1.3-0.9-2.1-2.3-2.3-3.8h3.3V415.8z"/>
		<path id="XMLID_253_" class="st1" d="M1310.8,406.7c1.5,1.6,2.2,3.6,2.2,6c0,2.4-0.7,4.4-2.2,6.1c-1.5,1.6-3.3,2.3-5.7,2.3
			c-2.2,0-4-0.6-5.3-2c-1.4-1.4-2.2-3-2.5-5.1h-3.2v6.7h-3.4v-15.9h3.4v6.2h3.3c0.3-2,1.1-3.6,2.5-4.8c1.4-1.3,3.1-1.9,5.2-1.9
			C1307.5,404.4,1309.4,405.2,1310.8,406.7z M1309.5,412.7c0-3-1.6-5.3-4.4-5.3s-4.4,2.3-4.4,5.3c0,3.1,1.6,5.3,4.4,5.3
			C1307.9,418.1,1309.5,415.7,1309.5,412.7z"/>
		<path id="XMLID_250_" class="st1" d="M1330.5,404.7v15.9h-3.6v-5.7h-3.8c-0.5,0-0.8,0-1.1,0l-2.2,5.8h-3.6l2.6-6.6
			c-1.6-0.8-2.4-2.3-2.4-4.3c0-3.1,2.2-5.1,6.1-5.1L1330.5,404.7L1330.5,404.7z M1326.9,412.1v-4.5h-4.2c-1.9,0-2.8,0.7-2.8,2.3
			c0,1.5,0.9,2.3,2.8,2.3h4.2V412.1z"/>
		<path id="XMLID_247_" class="st1" d="M1084.6,442.1c2.5,0,4.5,0.9,6.1,2.8c1.6,1.9,2.3,4.7,2.3,8.6c0,3.8-0.7,6.6-2.3,8.6
			c-1.6,1.9-3.6,2.8-6.1,2.8c-2.5,0-4.5-0.9-6.1-2.8c-1.6-1.9-2.3-4.7-2.3-8.6c0-3.8,0.7-6.6,2.3-8.6
			C1080.1,443.1,1082.1,442.1,1084.6,442.1z M1084.6,461.6c1.7,0,2.8-0.7,3.6-2.2c0.7-1.5,1.1-3.4,1.1-5.8c0-2.4-0.4-4.4-1.1-5.8
			c-0.7-1.5-1.9-2.3-3.6-2.3c-1.7,0-2.8,0.7-3.6,2.3c-0.7,1.5-1,3.4-1,5.8c0,2.4,0.4,4.4,1,5.8
			C1081.8,460.8,1082.9,461.6,1084.6,461.6z"/>
		<path id="XMLID_245_" class="st1" d="M1096.3,464.4v-3.1h5v-14.9h-0.7l-4.4,2.9v-3.7l4.4-3h4.4v18.7h4.7v3.1H1096.3z"/>
		<path id="XMLID_243_" class="st1" d="M1112.3,448.8c0.2-4.4,3.1-6.8,7.6-6.8c2.2,0,4,0.6,5.3,1.8c1.4,1.1,2,2.9,2,5
			c0,2.6-1.5,5-4.4,7.4l-5,4.1v0.7h10.1v3.1h-15.6v-3.9l7.8-6.2c2.1-1.7,3.4-3.2,3.4-5.3c0-2.3-1.5-3.7-3.8-3.7
			c-2.2,0-3.7,1.1-4,3.4h-3.7V448.8z"/>
		<path id="XMLID_241_" class="st1" d="M1131.6,442.5h13.4v3.9l-4.7,3.9v0.7c3.4,0.2,5.8,2.6,5.8,6.5c0,2.3-0.7,4.1-2.3,5.3
			c-1.5,1.4-3.4,2-5.7,2s-4.2-0.6-5.6-1.9s-2.3-2.9-2.3-4.9h3.7c0.2,2.2,2,3.6,4.4,3.6c2.7,0,4.4-1.6,4.4-4.1s-1.6-4.1-4.4-4.1
			c-0.7,0-1.5,0.1-2,0.2v-3.3l4.7-3.9v-0.7h-9.3V442.5z"/>
		<path id="XMLID_238_" class="st1" d="M1162.9,456.3h2.8v3.1h-2.8v4.9h-3.6v-4.9h-10.7v-4l9.6-13.1h4.5L1162.9,456.3L1162.9,456.3z
			 M1152.4,456.3h7.1v-9.6h-0.7l-6.4,8.9L1152.4,456.3L1152.4,456.3z"/>
		<path id="XMLID_236_" class="st1" d="M1182.6,451.6c1.4,1.4,2,3.1,2,5.2c0,2.3-0.7,4.3-2.2,5.7c-1.5,1.5-3.3,2.2-5.6,2.2
			c-4.8,0-7.7-2.8-7.9-6.8h3.7c0.3,2.3,1.8,3.6,4.2,3.6c2.6,0,4.3-1.8,4.3-4.5c0-2.7-1.7-4.5-4.2-4.5c-1.7,0-3,0.6-3.9,1.9h-3.4
			l0.9-11.8h13.1v3.1h-10.1l-0.4,5.3h0.7c1-0.9,2.5-1.4,4.1-1.4C1179.6,449.6,1181.3,450.3,1182.6,451.6z"/>
		<path id="XMLID_233_" class="st1" d="M1201.8,452.1c1.4,1.4,2,3,2,5.1c0,2.2-0.7,4-2.1,5.4c-1.4,1.5-3.2,2.2-5.6,2.2
			c-2.6,0-4.6-0.8-6.2-2.6c-1.5-1.7-2.3-4.5-2.3-8.3c0-2.3,0.3-4.4,0.8-6.1c1.3-3.4,3.9-5.8,7.7-5.8c1.9,0,3.4,0.5,4.7,1.6
			c1.3,1,2,2.3,2.3,4h-3.6c-0.4-1.6-1.6-2.4-3.4-2.4c-3,0-4.9,2.4-5,6.7h0.7c1-1.3,2.7-1.9,4.8-1.9
			C1198.7,450,1200.4,450.7,1201.8,452.1z M1195.9,453c-2.5,0-4.2,1.6-4.2,4.3s1.8,4.4,4.2,4.4c2.5,0,4.2-1.6,4.2-4.4
			C1200.2,454.6,1198.4,453,1195.9,453z"/>
		<path id="XMLID_231_" class="st1" d="M1221,446.4l-9.1,18h-3.8l9.2-18v-0.7h-10.7v-3.1h14.4v3.9H1221z"/>
		<path id="XMLID_227_" class="st1" d="M1237.1,453.2c1.7,0.6,3.3,2.5,3.3,5.1c0,1.9-0.7,3.4-2.2,4.6c-1.5,1.3-3.4,1.9-6,1.9
			c-2.5,0-4.5-0.6-6-1.9c-1.5-1.3-2.2-2.8-2.2-4.6c0-2.6,1.6-4.5,3.3-5.1v-0.7c-1.4-0.7-2.6-2.3-2.6-4.5c0-1.7,0.7-3.1,2.1-4.2
			c1.4-1,3.1-1.7,5.4-1.7c2.3,0,4.1,0.5,5.4,1.7c1.4,1,2.1,2.5,2.1,4.2c0,2.2-1.3,3.8-2.6,4.5v0.7H1237.1z M1236.9,458
			c0-2.2-1.7-3.7-4.6-3.7c-2.8,0-4.6,1.5-4.6,3.7s1.7,3.7,4.6,3.7C1235.1,461.7,1236.9,460.2,1236.9,458z M1232.3,451.5
			c2.3,0,4-1.3,4-3.2c0-2-1.7-3.2-4-3.2c-2.3,0-4,1.4-4,3.2C1228.3,450.3,1230,451.5,1232.3,451.5z"/>
		<path id="XMLID_224_" class="st1" d="M1245.2,454.9c-1.4-1.4-2-3.1-2-5.2c0-2.2,0.7-4,2.1-5.4s3.2-2.2,5.6-2.2
			c2.6,0,4.6,0.8,6.2,2.6c1.5,1.7,2.3,4.5,2.3,8.3c0,2.3-0.3,4.4-0.9,6.1c-1.1,3.4-3.9,5.7-7.7,5.7c-1.9,0-3.4-0.5-4.7-1.6
			c-1.3-1-2-2.3-2.3-4h3.6c0.4,1.6,1.6,2.4,3.4,2.4c3,0,4.9-2.4,5-6.7h-0.7c-1,1.3-2.7,1.9-4.8,1.9
			C1248.3,456.9,1246.6,456.2,1245.2,454.9z M1251.1,453.8c2.5,0,4.2-1.6,4.2-4.3s-1.8-4.4-4.2-4.4c-2.5,0-4.2,1.6-4.2,4.4
			S1248.6,453.8,1251.1,453.8z"/>
	</g>
	<g id="XMLID_17_">
		<path id="XMLID_220_" class="st1" d="M1090.7,809.7l6.7,22.2h-5.7l-1.7-5.7h-7.5l-1.6,5.7h-5.6l6.7-22.2H1090.7z M1085.5,815.2
			l-1.8,6.5h5l-1.8-6.5H1085.5z"/>
		<path id="XMLID_217_" class="st1" d="M1106.1,814.8v3h5.3c5,0,8,2.6,8,7c0,4.5-2.9,7.1-8,7.1h-11.1v-22.2h17v5.1L1106.1,814.8
			L1106.1,814.8z M1110.4,827.1c2.2,0,3.1-0.7,3.1-2.3c0-1.6-1-2.3-3.1-2.3h-4.3v4.7L1110.4,827.1L1110.4,827.1z"/>
		<path id="XMLID_213_" class="st1" d="M1139.5,821c1.5,0.6,2.8,2.5,2.8,4.5c0,4-2.6,6.6-7.7,6.6h-11.3v-22.2h11
			c4.9,0,7.5,2.5,7.5,6.1c0,1.9-0.9,3.6-2.2,4.3L1139.5,821L1139.5,821z M1129.1,814.4v3.9h4.4c1.6,0,2.3-0.6,2.3-1.9s-0.7-2-2.4-2
			H1129.1z M1133.6,827.3c1.5,0,2.7-0.6,2.7-2.1c0-1.5-0.8-2.2-2.6-2.2h-4.6v4.3H1133.6z"/>
		<path id="XMLID_211_" class="st1" d="M1152.2,814.8V832h-5.8v-22.2h16.6v5.1L1152.2,814.8L1152.2,814.8z"/>
		<path id="XMLID_208_" class="st1" d="M1181.3,832h-13.2v5.4h-5.6v-10.6h2.3c1.7-2.6,2.4-6.1,2.4-10.3v-6.8h16.5v17.1h3.1v10.6
			h-5.6L1181.3,832L1181.3,832z M1178.2,826.8v-12h-5.6v1.7c0,4.8-0.6,8.3-2,10.3H1178.2z"/>
		<path id="XMLID_206_" class="st1" d="M1204.5,823.2h-8.6v3.8h11.6v5.1h-17.3v-22.2h17.1v5.1H1196v3.3h8.6L1204.5,823.2
			L1204.5,823.2z"/>
		<path id="XMLID_202_" class="st1" d="M1225.6,823.2h-8.6v3.8h11.6v5.1h-17.3v-22.2h17.1v5.1h-11.5v3.3h8.6v4.9L1225.6,823.2
			L1225.6,823.2z M1214.4,804.1h4.4v4.1h-4.4V804.1z M1220.8,804.1h4.4v4.1h-4.4V804.1z"/>
		<path id="XMLID_200_" class="st1" d="M1244.3,818.1v-8.4h5.6v8.4h3.9l3.3-8.4h5.8l-4.5,11l4.7,11.3h-5.8l-3.6-8.7h-3.9v8.7h-5.6
			v-8.7h-3.9l-3.6,8.7h-5.8l4.7-11.3l-4.5-11h5.8l3.3,8.4H1244.3z"/>
		<path id="XMLID_198_" class="st1" d="M1275,814.4c-2,0-3.1,0.6-3.3,2h-6.1c0.4-4.5,4-7.1,9.5-7.1c2.7,0,4.8,0.5,6.4,1.7
			c1.6,1.1,2.4,2.6,2.4,4.5c0,2-0.7,3.4-2.2,4.3v0.8c2,0.7,2.9,2.3,2.9,4.8c0,2-0.8,3.8-2.6,5c-1.7,1.3-4.1,2-6.9,2
			c-6.4,0-9.7-2.7-10.2-7.6h6.2c0.4,1.7,1.7,2.5,4.1,2.5c2.1,0,3.4-0.8,3.4-2.1c0-1.4-1-2.1-3.1-2.1h-3.1v-5h3.1
			c1.7,0,2.5-0.6,2.5-1.9C1277.9,815.1,1276.7,814.4,1275,814.4z"/>
		<path id="XMLID_196_" class="st1" d="M1288.7,809.7h5.3v14.1h0.8l6.6-14.1h7.4V832h-5.3v-14.1h-0.8l-6.6,14.1h-7.4V809.7z"/>
		<path id="XMLID_193_" class="st1" d="M1313.8,809.7h5.3v14.1h0.8l6.6-14.1h7.4V832h-5.3v-14.1h-0.8l-6.6,14.1h-7.4V809.7z
			 M1321.8,803.8c0.3,0.9,0.9,1.5,2.1,1.5c1.1,0,1.8-0.4,2.1-1.5h4.1c-0.4,2.9-2.5,4.8-6.2,4.8c-3.7,0-5.8-1.8-6.2-4.8H1321.8z"/>
		<path id="XMLID_191_" class="st1" d="M1338.7,832v-22.2h5.8v8.3h4.5l3.9-8.3h5.8l-5,10.9l5.2,11.5h-5.8l-4.1-8.9h-4.5v8.9h-5.8
			L1338.7,832L1338.7,832z"/>
		<path id="XMLID_189_" class="st1" d="M1360.4,832v-5.6h0.8c0.8,0,1.5-0.1,1.9-0.3c0.7-0.5,1.3-2.3,1.3-6.5v-9.9h17.2v22.2h-5.8
			v-17.1h-6.1v4.9c0,5.2-0.6,8.4-2.1,10.1c-1.5,1.7-3.2,2.1-6.3,2.1h-0.9V832z"/>
		<path id="XMLID_187_" class="st1" d="M1401,809.7h8.7V832h-5.3v-15h-0.8l-2.5,8h-5.6l-2.5-8h-0.8v15h-5.3v-22.2h8.7l2.5,8h0.8
			L1401,809.7z"/>
		<path id="XMLID_185_" class="st1" d="M1428.4,809.7h5.8V832h-5.8v-8.9h-8.3v8.9h-5.8v-22.2h5.8v8.3h8.3V809.7z"/>
		<path id="XMLID_182_" class="st1" d="M1449.3,809.3c3.6,0,6.3,1,8.3,3.2c2,2.2,2.9,4.9,2.9,8.4c0,3.4-0.9,6.2-2.9,8.4
			c-2,2.2-4.7,3.2-8.3,3.2c-3.6,0-6.3-1-8.3-3.2c-2-2.2-2.9-4.9-2.9-8.4c0-3.4,0.9-6.2,2.9-8.4
			C1443.1,810.3,1445.8,809.3,1449.3,809.3z M1449.3,827.3c3.3,0,5.2-2.5,5.2-6.5s-1.9-6.5-5.2-6.5c-3.3,0-5.2,2.5-5.2,6.5
			C1444.1,824.8,1445.9,827.3,1449.3,827.3z"/>
		<path id="XMLID_180_" class="st1" d="M1464.3,809.7h19.6V832h-5.8v-17.1h-8V832h-5.8L1464.3,809.7L1464.3,809.7z"/>
		<path id="XMLID_177_" class="st1" d="M1087.8,849.8c5.2,0,8.4,2.7,8.4,7.3c0,4.7-3.1,7.4-8.4,7.4h-4.9v7.5h-5.8v-22.2H1087.8z
			 M1087.1,859.6c2.1,0,3.1-0.8,3.1-2.4s-0.9-2.4-3.1-2.4h-4.1v4.8H1087.1z"/>
		<path id="XMLID_175_" class="st1" d="M1119.5,864.6c-0.3,2.4-1.4,4.4-3,5.8s-3.9,2.2-6.6,2.2c-3.4,0-6.1-1-8-3.1
			c-1.9-2.1-2.8-4.9-2.8-8.5c0-3.6,0.9-6.3,2.8-8.4c1.9-2.1,4.6-3.1,8-3.1c2.6,0,4.7,0.7,6.4,2c1.7,1.4,2.7,3.1,3.1,5.2h-6.1
			c-0.4-1.4-1.7-2.2-3.4-2.2c-3.1,0-4.9,2.6-4.9,6.5s1.8,6.5,4.9,6.5c2,0,3.3-1,3.7-2.8h6L1119.5,864.6L1119.5,864.6z"/>
		<path id="XMLID_173_" class="st1" d="M1140.6,849.8v5.1h-6.7v17.1h-5.8v-17.1h-6.7v-5.1H1140.6z"/>
		<path id="XMLID_171_" class="st1" d="M1151.9,858.7h0.8l4.2-8.9h5.7l-10.7,22.2h-5.7l3.1-6.7l-8.3-15.6h6L1151.9,858.7z"/>
		<path id="XMLID_167_" class="st1" d="M1179.6,851.8h0.2c3,0,5.5,0.7,7.4,2.3c1.9,1.6,2.8,3.8,2.8,6.6c0,2.9-0.9,5.1-2.8,6.6
			c-1.9,1.6-4.3,2.3-7.4,2.3h-0.2v2.9h-5.5v-2.9h-0.2c-3.1,0-5.5-0.7-7.4-2.3c-1.9-1.6-2.7-3.8-2.7-6.6c0-2.8,0.9-5,2.8-6.6
			c1.9-1.6,4.3-2.3,7.4-2.3h0.2v-2.6h5.5L1179.6,851.8L1179.6,851.8z M1174.1,864.8v-8.1h-0.2c-2.7,0-4.4,1.4-4.4,4.1
			c0,2.7,1.7,4.1,4.4,4.1L1174.1,864.8L1174.1,864.8z M1179.6,864.8h0.2c2.7,0,4.4-1.4,4.4-4.1c0-2.8-1.7-4.1-4.4-4.1h-0.2V864.8z"
			/>
		<path id="XMLID_165_" class="st1" d="M1206.4,872.2l-4.1-8.6h-0.8l-4.1,8.6h-6.2l5.8-11.7l-5-10.7h5.7l3.8,7.7h0.8l3.9-7.7h5.7
			l-5.1,10.6l5.8,11.8L1206.4,872.2L1206.4,872.2z"/>
		<path id="XMLID_163_" class="st1" d="M1232.7,877.6v-5.4h-17v-22.2h5.8v17.1h7.9v-17.1h5.8v17.1h3.1v10.6H1232.7z"/>
		<path id="XMLID_161_" class="st1" d="M1240.5,849.8h5.8v6.4c0,1,0,1.5,0.5,2.2c0.4,0.7,1.7,1,3.6,1c1,0,2-0.1,2.9-0.4v-9.2h5.8
			v22.2h-5.8v-8.1c-1.4,0.3-2.8,0.5-4.5,0.5c-3.3,0-5.4-0.6-6.6-1.7c-0.7-0.7-1.1-1.4-1.4-2.5c-0.2-1.1-0.2-1.7-0.2-2.9v-7.5
			L1240.5,849.8L1240.5,849.8z"/>
		<path id="XMLID_159_" class="st1" d="M1292.9,872.2h-28.9v-22.2h5.6v17.1h6.1v-17.1h5.6v17.1h6.1v-17.1h5.6v22.2H1292.9z"/>
		<path id="XMLID_157_" class="st1" d="M1324.1,877.6v-5.4h-26.4v-22.2h5.6v17.1h6.1v-17.1h5.6v17.1h6.1v-17.1h5.6v17.1h3.1v10.6
			H1324.1z"/>
		<path id="XMLID_154_" class="st1" d="M1347,856.8c5.4,0,8.6,2.8,8.6,7.5c0,4.8-3.1,7.7-8.6,7.7h-10.6v-17.1h-5.6v-5.1h11.5v7H1347
			z M1346,867.2c2.5,0,3.6-0.9,3.6-2.7s-1-2.6-3.6-2.6h-3.9v5.3H1346z"/>
		<path id="XMLID_150_" class="st1" d="M1369,856.8c5.4,0,8.6,2.8,8.6,7.5c0,4.8-3.1,7.7-8.6,7.7h-9.6v-22.2h5.8v7L1369,856.8
			L1369,856.8z M1368.1,867.2c2.5,0,3.6-0.9,3.6-2.7s-1-2.6-3.6-2.6h-2.9v5.3H1368.1z M1385.5,849.8v22.2h-5.8v-22.2H1385.5z"/>
		<path id="XMLID_147_" class="st1" d="M1400.9,856.8c5.4,0,8.6,2.8,8.6,7.5c0,4.8-3.1,7.7-8.6,7.7h-10.6v-22.2h5.8v7L1400.9,856.8
			L1400.9,856.8z M1400,867.2c2.5,0,3.6-0.9,3.6-2.7s-1-2.6-3.6-2.6h-3.9v5.3H1400z"/>
		<path id="XMLID_145_" class="st1" d="M1418,865.2c0.3,1.4,1.7,2.2,3.7,2.2c2.4,0,4.2-1.5,4.5-4h-6.9v-5h6.9
			c-0.4-2.5-2.1-3.9-4.5-3.9c-1.8,0-3.1,0.7-3.4,2h-6.1c0.4-2.1,1.4-3.8,3-5.1c1.7-1.4,3.8-2,6.4-2c3.4,0,6.1,1,7.9,3.1
			c1.9,2.1,2.9,4.9,2.9,8.4c0,3.4-0.9,6.4-2.9,8.5c-1.9,2.1-4.6,3.1-7.9,3.1c-2.7,0-4.9-0.7-6.7-2c-1.7-1.4-2.7-3.1-2.9-5.3
			L1418,865.2L1418,865.2z"/>
		<path id="XMLID_139_" class="st1" d="M1464.3,852.6c2,2.2,2.9,4.9,2.9,8.4c0,3.4-0.9,6.2-2.9,8.4c-2,2.2-4.6,3.2-8,3.2
			c-3,0-5.5-0.8-7.4-2.5c-1.9-1.7-3-4-3.4-6.8h-3.2v8.9h-5.8v-22.2h5.8v8.3h3.4c0.5-2.6,1.7-4.7,3.6-6.3c1.9-1.6,4.3-2.4,7.2-2.4
			C1459.7,849.4,1462.3,850.5,1464.3,852.6z M1456.2,867.4c3.2,0,5.1-2.6,5.1-6.5c0-3.9-1.9-6.5-5.1-6.5s-5.1,2.6-5.1,6.5
			C1451.1,864.9,1453,867.4,1456.2,867.4z"/>
		<path id="XMLID_136_" class="st1" d="M1488.9,849.8v22.2h-5.8v-7.8h-4.6l-2.8,7.8h-5.8l3.2-9c-2.2-1.3-3.2-3.2-3.2-6.2
			c0-4.5,3-7.2,8.1-7.2h11L1488.9,849.8L1488.9,849.8z M1483.1,859.5v-4.6h-4.3c-2,0-3,0.7-3,2.3s1,2.3,3,2.3H1483.1z"/>
		<path id="XMLID_133_" class="st1" d="M1091.6,902.1v10.2h-5V911h-0.8c-0.9,1-2.4,1.7-4.3,1.7c-1.7,0-3.1-0.5-4.2-1.6
			c-1-1-1.6-2.3-1.6-3.9c0-1.5,0.5-2.7,1.7-3.8c1.1-1,2.8-1.7,5.1-1.7h3.8v-0.3c0-1.4-0.7-2.1-2.2-2.1c-1.4,0-2,0.4-2.2,1.4h-5.3
			c0-1.6,0.7-2.8,2.1-3.8c1.4-0.9,3-1.5,5.1-1.5C1089,895.6,1091.6,897.8,1091.6,902.1z M1086.4,904.9h-2.6c-1.6,0-2.5,0.7-2.5,1.9
			c0,1.3,0.7,1.9,2.3,1.9c1.8,0,2.8-1.1,2.8-2.8L1086.4,904.9L1086.4,904.9z"/>
		<path id="XMLID_130_" class="st1" d="M1094.8,902.6c0-6.8,2.1-10.6,6.4-11.2l4.1-0.6c1.3-0.2,1.7-0.4,1.7-1.1h4.2
			c0,1.1-0.1,1.9-0.5,2.9s-1.4,1.7-2.8,1.9l-5.5,0.8c-2,0.3-3.1,1.1-3.7,3.8h0.8c0.9-1.5,2.5-2.2,4.8-2.2c2.3,0,4.2,0.7,5.6,2.3
			c1.5,1.5,2.2,3.3,2.2,5.7c0,2.3-0.8,4.3-2.4,5.7c-1.6,1.5-3.7,2.2-6.2,2.2C1098.1,912.7,1094.8,909.2,1094.8,902.6z M1103.6,908.2
			c2.2,0,3.2-1.6,3.2-3.7c0-2.1-1-3.7-3.2-3.7c-2.2,0-3.2,1.6-3.2,3.7C1100.3,906.6,1101.4,908.2,1103.6,908.2z"/>
		<path id="XMLID_122_" class="st1" d="M1128.9,904.1c1.7,0.4,2.8,1.7,2.8,3.7c0,2.9-2,4.5-5.7,4.5h-10.2v-16.2h10
			c3.2,0,5.1,1.6,5.1,4.1c0,1.5-0.8,2.6-2,3.1L1128.9,904.1L1128.9,904.1z M1120.9,899.4v2.8h2.8c1,0,1.7-0.4,1.7-1.4
			c0-0.9-0.5-1.4-1.7-1.4h-2.8V899.4z M1124.2,908.7c1.4,0,2.1-0.5,2.1-1.7c0-1-0.7-1.7-2.1-1.7h-3.1v3.3L1124.2,908.7L1124.2,908.7
			z"/>
		<path id="XMLID_120_" class="st1" d="M1135.2,912.3v-16.2h13.7v4.4h-8.3v11.8H1135.2z"/>
		<path id="XMLID_116_" class="st1" d="M1167.1,907.8h2.8v8.9h-5v-4.5H1154v4.5h-5v-8.9h2.6c0.7-2.2,1-4.5,1-7V896h14.5
			L1167.1,907.8L1167.1,907.8z M1161.7,907.8v-7.4h-4.3v0.4c0,2.5-0.3,4.8-0.9,7L1161.7,907.8L1161.7,907.8z"/>
		<path id="XMLID_113_" class="st1" d="M1188.6,907c-0.7,3.6-3.4,5.6-7.9,5.6c-2.6,0-4.7-0.7-6.2-2.3c-1.6-1.6-2.3-3.6-2.3-6.3
			c0-2.6,0.7-4.7,2.3-6.3s3.6-2.3,6.2-2.3c2.5,0,4.6,0.7,6.1,2.2c1.5,1.5,2.2,3.3,2.2,5.8v1.3h-11.3c0.2,2.3,1.3,3.3,3.2,3.3
			c1.3,0,2-0.4,2.4-1.3h5.3V907z M1177.8,901.6h5.4c-0.3-1.4-1.1-2.1-2.6-2.1C1179.1,899.4,1178.2,900.2,1177.8,901.6z"/>
		<path id="XMLID_108_" class="st1" d="M1207.8,907c-0.7,3.6-3.4,5.6-7.9,5.6c-2.6,0-4.7-0.7-6.2-2.3c-1.6-1.6-2.3-3.6-2.3-6.3
			c0-2.6,0.7-4.7,2.3-6.3c1.6-1.6,3.6-2.3,6.2-2.3c2.5,0,4.6,0.7,6.1,2.2c1.5,1.5,2.2,3.3,2.2,5.8v1.3h-11.3
			c0.2,2.3,1.3,3.3,3.2,3.3c1.3,0,2-0.4,2.4-1.3h5.3V907z M1194.5,890.1h4.4v4.5h-4.4V890.1z M1196.9,901.6h5.4
			c-0.3-1.4-1.1-2.1-2.6-2.1C1198.2,899.4,1197.3,900.2,1196.9,901.6z M1200.8,890.1h4.4v4.5h-4.4V890.1z"/>
		<path id="XMLID_106_" class="st1" d="M1218.5,906.1l-2.8,6.1h-5.4l3.9-8.4l-3.7-7.9h5.4l2.6,5.7h2.5v-5.7h5v5.7h2.5l2.6-5.7h5.4
			l-3.7,7.9l3.9,8.4h-5.4l-2.8-6.1h-2.5v6.1h-5v-6.1H1218.5z"/>
		<path id="XMLID_104_" class="st1" d="M1246.5,899.9c-1.6,0-2.4,0.4-2.5,1.4h-4.9c0.4-3.8,3.4-5.6,7.8-5.6c2.2,0,4,0.4,5.2,1.4
			c1.4,0.8,2,2,2,3.4c0,1.4-0.5,2.4-1.6,3v0.8c1.4,0.4,2,1.6,2,3.1s-0.7,2.8-2.2,3.8c-1.4,0.9-3.2,1.5-5.5,1.5c-5.2,0-7.9-2-8.3-5.7
			h4.9c0.2,1,1.3,1.5,3,1.5c1.8,0,2.6-0.4,2.6-1.4c0-0.7-0.7-1.1-2.1-1.1h-2.5v-3.4h2.4c1.3,0,1.9-0.4,1.9-1.3
			C1248.9,900.4,1248.1,899.9,1246.5,899.9z"/>
		<path id="XMLID_102_" class="st1" d="M1262.8,912.3h-4.6v-16.2h5.2v7.4h0.7l5.8-7.4h4.6v16.2h-5.2v-7.4h-0.7L1262.8,912.3z"/>
		<path id="XMLID_99_" class="st1" d="M1283.6,912.3h-4.6v-16.2h5.2v7.4h0.7l5.8-7.4h4.6v16.2h-5.2v-7.4h-0.7L1283.6,912.3z
			 M1285.1,889.9c0.3,0.9,0.9,1.5,2.1,1.5c1,0,1.8-0.4,2.1-1.5h4.1c-0.4,2.9-2.5,4.8-6.2,4.8c-3.8,0-5.8-1.8-6.2-4.8H1285.1z"/>
		<path id="XMLID_97_" class="st1" d="M1310.9,912.3l-3.1-6.2h-2.8v6.2h-5.4v-16.2h5.4v5.6h2.8l2.9-5.6h5.5l-4,7.8l4.3,8.4H1310.9z"
			/>
		<path id="XMLID_95_" class="st1" d="M1318.2,912.3v-5.2h0.6c2,0,2.8-0.9,2.8-3.9v-7.1h14.7v16.2h-5.4v-11.8h-4.3v2.9
			c0,3.2-0.6,5.5-1.9,6.8c-1.3,1.4-3.2,2-6,2L1318.2,912.3L1318.2,912.3z"/>
		<path id="XMLID_93_" class="st1" d="M1354.7,903.5l-1.9,4.2h-4.1l-1.9-4.2h-0.8v8.8h-5.2v-16.2h6.8l2.9,6.5h0.8l2.8-6.5h6.8v16.2
			h-5.2v-8.8H1354.7z"/>
		<path id="XMLID_91_" class="st1" d="M1381.4,912.3h-5.4v-6.2h-5.4v6.2h-5.4v-16.2h5.4v5.6h5.4v-5.6h5.4V912.3z"/>
		<path id="XMLID_88_" class="st1" d="M1399.8,898c1.6,1.6,2.4,3.7,2.4,6.2c0,2.6-0.7,4.7-2.4,6.2c-1.6,1.6-3.7,2.3-6.3,2.3
			s-4.7-0.7-6.3-2.3c-1.6-1.6-2.4-3.7-2.4-6.2c0-2.6,0.7-4.7,2.4-6.2c1.6-1.6,3.8-2.3,6.3-2.3C1396.2,895.6,1398.3,896.4,1399.8,898
			z M1393.6,900.1c-2.2,0-3.2,1.7-3.2,4.1c0,2.4,1,4.1,3.2,4.1s3.2-1.7,3.2-4.1C1396.8,901.7,1395.8,900.1,1393.6,900.1z"/>
		<path id="XMLID_86_" class="st1" d="M1421.9,912.3h-5.4v-11.8h-5.3v11.8h-5.4v-16.2h16.2L1421.9,912.3L1421.9,912.3z"/>
		<path id="XMLID_83_" class="st1" d="M1432.4,910.9h-0.8v7.6h-5.4v-22.5h5.2v1.4h0.8c0.9-1.1,2.4-1.8,4.3-1.8
			c2.1,0,3.8,0.7,4.9,2.4c1.3,1.6,1.8,3.7,1.8,6.2c0,2.5-0.6,4.6-1.9,6.2c-1.3,1.6-2.8,2.4-4.9,2.4
			C1434.7,912.7,1433.4,912.1,1432.4,910.9z M1434.6,900.1c-1,0-1.9,0.4-2.5,1.1c-0.5,0.7-0.8,1.8-0.8,2.9s0.3,2.2,0.8,2.9
			c0.5,0.7,1.4,1.1,2.5,1.1c1,0,1.9-0.4,2.4-1.1c0.5-0.7,0.7-1.8,0.7-2.9s-0.2-2.2-0.7-2.9C1436.5,900.4,1435.8,900.1,1434.6,900.1z
			"/>
		<path id="XMLID_81_" class="st1" d="M1462,906.4c-0.1,1.9-0.9,3.3-2.4,4.5c-1.5,1.1-3.2,1.7-5.3,1.7c-2.5,0-4.6-0.7-6.2-2.3
			c-1.6-1.6-2.3-3.7-2.3-6.3c0-2.6,0.7-4.7,2.3-6.2c1.6-1.6,3.6-2.3,6.2-2.3c2.1,0,3.9,0.5,5.2,1.7c1.4,1,2.2,2.5,2.3,4.3h-5.3
			c-0.3-0.9-1-1.5-2.2-1.5c-2.1,0-3,1.7-3,4.1c0,2.5,0.9,4.1,3,4.1c1.4,0,2.2-0.6,2.4-1.8L1462,906.4L1462,906.4z"/>
		<path id="XMLID_79_" class="st1" d="M1464.2,900.5v-4.4h15.8v4.4h-5.1v11.8h-5.4v-11.8H1464.2z"/>
		<path id="XMLID_77_" class="st1" d="M1494.7,896h5.3l-9.8,22.5h-5.3l3.4-8l-6.8-14.4h5.4l3.7,7.8h0.8L1494.7,896z"/>
		<path id="XMLID_73_" class="st1" d="M1090.1,952.4h-5.2v-6.3c-2.8,0-5-0.7-6.6-2.3c-1.6-1.5-2.4-3.4-2.4-5.8
			c0-2.4,0.7-4.4,2.4-5.8c1.6-1.5,3.8-2.3,6.6-2.3v-6.5h5.2v6.5c2.8,0,5,0.7,6.6,2.3c1.6,1.5,2.4,3.4,2.4,5.8c0,2.4-0.7,4.4-2.4,5.8
			c-1.6,1.5-3.8,2.3-6.6,2.3V952.4z M1084.9,933.9c-2.3,0-3.7,1.7-3.7,4.1c0,2.4,1.3,4.1,3.7,4.1V933.9z M1090.1,942.2
			c2.3,0,3.7-1.7,3.7-4.1s-1.3-4.1-3.7-4.1V942.2z"/>
		<path id="XMLID_71_" class="st1" d="M1113.1,946.1l-2.6-5.4h-1.1l-2.7,5.4h-5.6l4.4-8.4l-4-7.9h5.5l2.4,5.1h1.1l2.5-5.1h5.5
			l-4.1,7.8l4.4,8.4L1113.1,946.1L1113.1,946.1z"/>
		<path id="XMLID_69_" class="st1" d="M1132.5,929.9h5.4v11.8h2.8v8.9h-5v-4.5H1122v-16.2h5.4v11.8h5.2L1132.5,929.9L1132.5,929.9z"
			/>
		<path id="XMLID_67_" class="st1" d="M1143.1,929.9h5.4v4.8c0,1.3,0.5,2,2.5,2c0.7,0,1.6-0.1,2.5-0.3v-6.5h5.4v16.2h-5.4v-5.3
			c-1.4,0.3-2.9,0.4-4.4,0.4c-2.5,0-4.2-0.5-5-1.7c-0.7-1-0.9-2-0.9-3.4L1143.1,929.9L1143.1,929.9z"/>
		<path id="XMLID_65_" class="st1" d="M1186.7,929.9v16.2h-23.5v-16.2h5.2v11.8h3.9v-11.8h5.2v11.8h3.9v-11.8H1186.7z"/>
		<path id="XMLID_63_" class="st1" d="M1214.5,941.7h2.8v8.9h-5v-4.5H1191v-16.2h5.2v11.8h3.9v-11.8h5.2v11.8h3.9v-11.8h5.2v11.8
			H1214.5z"/>
		<path id="XMLID_60_" class="st1" d="M1218.9,934.3v-4.4h10v4.4h3.4c4.4,0,6.8,2.2,6.8,5.8c0,3.8-2.5,6-6.8,6h-8.9v-11.8H1218.9z
			 M1231.5,941.7c1.4,0,2.1-0.5,2.1-1.7c0-1.1-0.5-1.7-2.1-1.7h-2.7v3.3L1231.5,941.7L1231.5,941.7z"/>
		<path id="XMLID_56_" class="st1" d="M1247.7,929.9v4.4h3.1c4.4,0,6.8,2.2,6.8,5.8c0,3.8-2.5,6-6.8,6h-8.6v-16.2H1247.7z
			 M1250.1,941.7c1.4,0,2.1-0.5,2.1-1.7c0-1.1-0.5-1.7-2.1-1.7h-2.4v3.3L1250.1,941.7L1250.1,941.7z M1265.4,929.9v16.2h-5.4v-16.2
			H1265.4z"/>
		<path id="XMLID_53_" class="st1" d="M1269.8,946.1v-16.2h5.4v4.4h3.4c4.4,0,6.8,2.2,6.8,5.8c0,3.8-2.5,6-6.8,6H1269.8z
			 M1277.8,941.7c1.4,0,2.1-0.5,2.1-1.7c0-1.1-0.5-1.7-2.1-1.7h-2.7v3.3L1277.8,941.7L1277.8,941.7z"/>
		<path id="XMLID_51_" class="st1" d="M1292.8,940.7c0.1,1.1,1.3,1.9,2.7,1.9c1.8,0,2.8-1,3.1-2.6h-4.8v-4h4.7
			c-0.4-1.7-1.5-2.4-3.1-2.4c-1.4,0-2.3,0.5-2.5,1.5h-5c0.6-3.3,3.4-5.5,7.6-5.5c2.5,0,4.5,0.7,6.1,2.4c1.6,1.6,2.4,3.7,2.4,6.2
			c0,2.6-0.7,4.6-2.4,6.2c-1.6,1.6-3.7,2.3-6.2,2.3c-2.2,0-4-0.5-5.4-1.7c-1.5-1-2.3-2.5-2.5-4.3L1292.8,940.7L1292.8,940.7z"/>
		<path id="XMLID_48_" class="st1" d="M1329.9,931.9c1.6,1.6,2.4,3.7,2.4,6.2c0,2.5-0.8,4.6-2.4,6.2c-1.6,1.6-3.7,2.4-6.2,2.4
			c-2.2,0-4-0.6-5.5-1.8c-1.6-1.1-2.5-2.7-2.9-4.8h-2.5v6.2h-5.3V930h5.3v5.6h2.6c0.4-1.9,1.5-3.3,2.9-4.5c1.5-1,3.3-1.7,5.4-1.7
			C1326.3,929.5,1328.4,930.3,1329.9,931.9z M1323.7,933.9c-2.2,0-3.2,1.7-3.2,4.1c0,2.4,1,4.1,3.2,4.1c2.2,0,3.2-1.7,3.2-4.1
			C1326.9,935.7,1325.9,933.9,1323.7,933.9z"/>
		<path id="XMLID_45_" class="st1" d="M1350.5,929.9v16.2h-5.4v-4.8h-2.9l-1.9,4.8h-5.3l2.3-6c-1.6-0.9-2.3-2.5-2.3-4.5
			c0-3.6,2.6-5.7,7.1-5.7H1350.5z M1342.6,937.5h2.5v-3.3h-2.5c-1.7,0-2.3,0.6-2.3,1.7C1340.4,936.9,1340.9,937.5,1342.6,937.5z"/>
		<path id="XMLID_42_" class="st1" d="M1085,967.7c2.6,0,4.8,0.9,6.5,2.8c1.7,1.9,2.4,4.7,2.4,8.6c0,3.8-0.8,6.7-2.4,8.6
			c-1.7,1.9-3.8,2.8-6.5,2.8c-2.6,0-4.8-0.9-6.5-2.8c-1.7-1.9-2.4-4.7-2.4-8.6c0-3.8,0.8-6.7,2.4-8.6
			C1080.2,968.5,1082.4,967.7,1085,967.7z M1085,972.5c-2.2,0-3.2,2.2-3.2,6.5c0,4.3,1,6.5,3.2,6.5c2.2,0,3.2-2.2,3.2-6.5
			C1088.3,974.6,1087.2,972.5,1085,972.5z"/>
		<path id="XMLID_40_" class="st1" d="M1107.2,985.1h4.4v4.8h-14.8v-4.8h4.8v-11.6h-0.8l-4,2.7v-5.4l3.9-2.7h6.5v17H1107.2z"/>
		<path id="XMLID_38_" class="st1" d="M1130.7,985.1v4.8h-16.8v-5.6l7.1-4.8c0.7-0.5,1.4-1,1.8-1.4c0.8-0.7,1.8-1.9,1.8-3.1
			c0-1.7-0.9-2.5-2.5-2.5c-1.5,0-2.6,0.8-2.7,2.6h-5.5c0.2-4.7,3.2-7.4,8.5-7.4c2.4,0,4.3,0.6,5.7,2c1.5,1.3,2.2,3,2.2,5.3
			c0,1.7-0.8,3.4-1.7,4.6c-0.4,0.5-1,1.1-1.9,1.9c-0.8,0.7-1.5,1.1-2,1.5l-2.1,1.4v0.8H1130.7z"/>
		<path id="XMLID_36_" class="st1" d="M1134.1,968.1h14.8v5.5l-3.4,2.2v0.8c2.7,0.4,4.8,2.5,4.8,6.1c0,2.3-0.8,4.1-2.4,5.5
			c-1.6,1.4-3.8,2.1-6.3,2.1c-2.6,0-4.7-0.7-6.3-2.1c-1.6-1.4-2.4-3.1-2.4-5.2h5.5c0.2,1.7,1.4,2.6,3.1,2.6c1.9,0,3.1-1.3,3.1-2.8
			c0-1.8-1.1-3-3.1-3c-0.7,0-1.5,0.1-2.1,0.2v-4.2l3.4-2.2v-0.8h-8.8L1134.1,968.1L1134.1,968.1z"/>
		<path id="XMLID_33_" class="st1" d="M1168,980.7h2.6v4.7h-2.6v4.5h-5.3v-4.5h-10.1v-5.6l9.5-11.8h6V980.7z M1157.6,980.7h5.3v-6.5
			h-0.8l-4.5,5.5L1157.6,980.7L1157.6,980.7z"/>
		<path id="XMLID_31_" class="st1" d="M1188.4,976.9c1.4,1.4,2.1,3.1,2.1,5.3c0,2.3-0.8,4.3-2.4,5.7c-1.6,1.5-3.7,2.3-6.1,2.3
			c-2.6,0-4.7-0.7-6.2-2.1c-1.6-1.4-2.4-3.1-2.5-5.3h5.5c0.2,1.7,1.4,2.6,2.9,2.6c1.9,0,3-1.4,3-3.1c0-2.2-1.3-3.2-3-3.2
			c-1.3,0-2.2,0.4-2.9,1.4h-5.1l0.9-12.5h14.1v4.6h-9.8l-0.2,3.4h0.8c1-0.7,2.3-1.1,3.8-1.1C1185.4,974.9,1186.9,975.6,1188.4,976.9
			z"/>
		<path id="XMLID_28_" class="st1" d="M1208.7,977.3c1.4,1.4,2.1,3.1,2.1,5.2c0,2.2-0.7,4.1-2.3,5.5c-1.6,1.6-3.6,2.3-6.1,2.3
			c-5.1,0-9.1-2.9-9.1-11.1c0-3.6,0.7-6.4,2.3-8.5c1.6-2.1,3.8-3.1,6.9-3.1c2,0,3.8,0.6,5.3,1.8c1.5,1.1,2.3,2.6,2.5,4.4h-5.5
			c-0.2-1.1-1-1.7-2.4-1.7c-2,0-3.4,1.5-3.7,4.7h0.8c0.9-1,2.3-1.6,4.3-1.6C1205.6,975.2,1207.3,975.9,1208.7,977.3z M1205.1,982.6
			c0-1-0.3-1.8-0.8-2.3c-0.5-0.5-1.3-0.8-2.1-0.8s-1.7,0.3-2.2,0.8c-0.5,0.5-0.7,1.4-0.7,2.3c0,2,1.1,3.2,2.9,3.2
			C1204,985.8,1205.1,984.6,1205.1,982.6z"/>
		<path id="XMLID_25_" class="st1" d="M1228.7,973.7l-8.3,16.2h-5.8l8.3-16.2v-0.8h-9.8v-4.8h15.6L1228.7,973.7L1228.7,973.7z"/>
		<path id="XMLID_21_" class="st1" d="M1245.4,978.7c1.7,0.7,3.1,2.4,3.1,4.9c0,1.9-0.7,3.4-2.3,4.7c-1.6,1.3-3.7,2-6.5,2
			s-5-0.6-6.5-2c-1.6-1.3-2.3-2.8-2.3-4.7c0-2.5,1.5-4.2,3.1-4.9v-0.8c-1.7-0.9-2.4-2.4-2.4-4.3c0-1.7,0.7-3,2.1-4.2
			c1.5-1.1,3.4-1.7,5.8-1.7c2.5,0,4.5,0.5,5.8,1.7c1.4,1.1,2.1,2.5,2.1,4.2c0,1.9-0.8,3.3-2.4,4.3v0.8H1245.4z M1239.9,985.8
			c2.1,0,3.1-1.3,3.1-2.7c0-1.5-1-2.7-3.1-2.7c-2.1,0-3.2,1.3-3.2,2.7C1236.7,984.6,1237.7,985.8,1239.9,985.8z M1239.9,971.7
			c-3.6-0.1-3.6,5,0,4.9C1243.3,976.7,1243.3,971.6,1239.9,971.7z"/>
		<path id="XMLID_18_" class="st1" d="M1253.1,980.7c-1.4-1.4-2-3.1-2-5.2c0-2.2,0.7-4.1,2.3-5.5c1.6-1.6,3.6-2.3,6.1-2.3
			c5.1,0,9.1,2.9,9.1,11.1c0,3.6-0.7,6.5-2.3,8.6c-1.6,2.1-3.8,3.1-6.9,3.1c-2,0-3.8-0.6-5.3-1.8c-1.5-1.3-2.3-2.6-2.5-4.4h5.5
			c0.2,1.1,1,1.7,2.4,1.7c2,0,3.4-1.5,3.7-4.7h-0.8c-0.9,1-2.3,1.6-4.3,1.6C1256.1,982.7,1254.4,982.1,1253.1,980.7z M1256.6,975.3
			c0,1,0.2,1.8,0.7,2.3c0.5,0.5,1.3,0.8,2.2,0.8c0.9,0,1.6-0.3,2.1-0.8c0.5-0.5,0.8-1.4,0.8-2.3c0-2-1.1-3.2-2.9-3.2
			C1257.8,972.1,1256.6,973.3,1256.6,975.3z"/>
	</g>
	<path id="XMLID_11_" class="st1" d="M1008,655.4c16.1,7.2,30.5,27.1,30.5,49.4c0,43.6-28.5,72.1-85,72.1H829.6V532h120
		c53.5,0,82.3,28.1,82.3,66.9c0,20.9-9.9,39.1-24,47L1008,655.4L1008,655.4z M893.4,583.4v42.2h47.6c16.8,0,25.4-6.9,25.4-20.9
		s-8.6-21.3-26.1-21.3H893.4z M943.1,724.4c16.5,0,29.9-6.9,29.9-23s-9.6-24.3-28.8-24.3h-50.8v47.3H943.1z"/>
	<g id="XMLID_3_">
		<path id="XMLID_7_" class="st2" d="M1232.7,653.8c18.9,8.6,35,26.7,35,54.2c0,20.6-8.3,38.1-25.1,52.1
			c-16.8,14.1-40.5,21.3-71,21.3c-30.9,0-54.5-7.2-71.3-21.3c-16.8-14.1-25.1-31.5-25.1-52.1c0-27.5,16.1-45.6,35-54.2v-9.6
			c-17.9-10.7-26.7-26.4-26.7-47.3c0-18.2,7.9-33.6,23.3-46c15.8-12.7,37.4-18.9,64.9-18.9s49.1,6.2,64.4,18.9
			c15.5,12.3,23.3,27.8,23.3,46c0,20.9-8.9,36.7-26.7,47.3L1232.7,653.8L1232.7,653.8z M1171.6,731.9c23.3,0,35-13.7,35-29.9
			c0-16.1-11.7-29.9-35-29.9c-23.3,0-35.3,13.7-35.3,29.9C1136.3,718.5,1148.3,731.9,1171.6,731.9z M1171.6,577.6
			c-38.8-1.7-39.1,55.3,0,53.5C1210,632.8,1210,575.8,1171.6,577.6z"/>
		<path id="XMLID_4_" class="st2" d="M1298.9,675.7c-14.7-14.7-22.2-33.9-22.2-57.2c0-24.3,8.6-44.6,25.4-61.4
			c16.8-16.8,39.1-25.1,66.5-25.1c56.6,0,100.2,32.3,100.2,121.5c0,39.5-8.3,70.7-25.1,93.7c-16.8,23-41.9,34.3-75.4,34.3
			c-22.2,0-41.9-6.5-58-19.5c-16.1-13.4-25.4-29.1-27.8-48.1h61.1c2.7,12.3,11.7,18.5,26.4,18.5c22.2,0,38.1-15.8,40.5-51.1h-9.6
			c-10.3,11.3-25.7,16.8-46.7,16.8C1332.6,697.9,1314,690.4,1298.9,675.7z M1338,616.7c0,11,2.7,19.5,8.6,25.7
			c5.8,5.8,13.7,8.9,23.7,8.9c9.9,0,17.4-3.1,23.3-8.9c5.8-5.8,8.9-14.4,8.9-25.4c0-21.9-13.1-35.7-32.3-35.7
			C1350.7,581.4,1338,594.4,1338,616.7z"/>
	</g>
</g>
</svg>
