<?xml version="1.0" encoding="utf-8"?>
<!-- Generator: Adobe Illustrator 19.0.0, SVG Export Plug-In . SVG Version: 6.00 Build 0)  -->
<svg version="1.1" id="Layer_1" xmlns="http://www.w3.org/2000/svg" xmlns:xlink="http://www.w3.org/1999/xlink" x="0px" y="0px"
	 viewBox="0 0 1500 1000" style="enable-background:new 0 0 1500 1000;" xml:space="preserve">
<style type="text/css">
	.st0{opacity:0.5;fill:#36AFA7;}
	.st1{fill:#101010;}
	.st2{fill:#EAF7F6;}
	.st3{opacity:0.3;fill:#36ACA7;}
	.st4{fill:none;stroke:#36AFA7;stroke-width:2;stroke-miterlimit:10;}
	.st5{opacity:0.6;}
	.st6{opacity:0;}
	.st7{fill:none;stroke:#36AFA7;stroke-miterlimit:10;}
</style>
<polygon id="XMLID_166_" class="st0" points="1500,0 1038.7,0 461.3,1000 962.6,1000 1500,69.2 "/>
<polygon id="XMLID_214_" class="st1" points="1500,69.2 962.6,1000 1500,1000 "/>
<polygon id="XMLID_165_" class="st2" points="0,0 0,930.1 537,0 "/>
<polygon id="XMLID_213_" class="st3" points="537,0 0,930.1 0,1000 461.3,1000 1038.7,0 "/>
<g id="XMLID_167_">
	<g id="XMLID_208_">
		<line id="XMLID_210_" class="st4" x1="55.6" y1="1000" x2="55.6" y2="0.7"/>
		<line id="XMLID_209_" class="st4" x1="1444.4" y1="0.7" x2="1444.4" y2="1000"/>
	</g>
	<g id="XMLID_175_" class="st5">
		<g id="XMLID_192_">
			<g id="XMLID_205_">
				<line id="XMLID_207_" class="st4" x1="55.6" y1="792.6" x2="1444.4" y2="792.6"/>
				<line id="XMLID_206_" class="st4" x1="1444.4" y1="812.6" x2="55.6" y2="812.6"/>
			</g>
			<g id="XMLID_202_">
				<line id="XMLID_204_" class="st4" x1="55.6" y1="641.3" x2="1444.4" y2="641.3"/>
				<line id="XMLID_203_" class="st4" x1="1444.4" y1="661.3" x2="55.6" y2="661.3"/>
			</g>
			<g id="XMLID_199_">
				<line id="XMLID_201_" class="st4" x1="55.6" y1="490" x2="1444.4" y2="490"/>
				<line id="XMLID_200_" class="st4" x1="1444.4" y1="510" x2="55.6" y2="510"/>
			</g>
			<g id="XMLID_196_">
				<line id="XMLID_198_" class="st4" x1="55.6" y1="338.7" x2="1444.4" y2="338.7"/>
				<line id="XMLID_197_" class="st4" x1="1444.4" y1="358.7" x2="55.6" y2="358.7"/>
			</g>
			<g id="XMLID_193_">
				<line id="XMLID_195_" class="st4" x1="55.6" y1="187.4" x2="1444.4" y2="187.4"/>
				<line id="XMLID_194_" class="st4" x1="1444.4" y1="207.4" x2="55.6" y2="207.4"/>
			</g>
		</g>
		<g id="XMLID_176_">
			<g id="XMLID_189_">
				<line id="XMLID_191_" class="st4" x1="1209.3" y1="944.4" x2="1209.3" y2="55.6"/>
				<line id="XMLID_190_" class="st4" x1="1229.3" y1="55.6" x2="1229.3" y2="944.4"/>
			</g>
			<g id="XMLID_186_">
				<line id="XMLID_188_" class="st4" x1="974.6" y1="944.4" x2="974.6" y2="55.6"/>
				<line id="XMLID_187_" class="st4" x1="994.6" y1="55.6" x2="994.6" y2="944.4"/>
			</g>
			<g id="XMLID_183_">
				<line id="XMLID_185_" class="st4" x1="740" y1="944.4" x2="740" y2="55.6"/>
				<line id="XMLID_184_" class="st4" x1="760" y1="55.6" x2="760" y2="944.4"/>
			</g>
			<g id="XMLID_180_">
				<line id="XMLID_182_" class="st4" x1="505.4" y1="944.4" x2="505.4" y2="55.6"/>
				<line id="XMLID_181_" class="st4" x1="525.4" y1="55.6" x2="525.4" y2="944.4"/>
			</g>
			<g id="XMLID_177_">
				<line id="XMLID_179_" class="st4" x1="270.7" y1="944.4" x2="270.7" y2="55.6"/>
				<line id="XMLID_178_" class="st4" x1="290.7" y1="55.6" x2="290.7" y2="944.4"/>
			</g>
		</g>
	</g>
	<line id="XMLID_174_" class="st4" x1="0" y1="55.6" x2="1500" y2="55.6"/>
	<line id="XMLID_173_" class="st4" x1="1500" y1="944.4" x2="0" y2="944.4"/>
	<path id="XMLID_172_" class="st4" d="M1444.4,55.6"/>
	<path id="XMLID_171_" class="st4" d="M1444.4,55.6"/>
	<g id="XMLID_168_" class="st6">
		<rect id="XMLID_170_" x="505.4" y="55.6" class="st7" width="20" height="888.9"/>
		<rect id="XMLID_169_" x="974.6" y="55.6" class="st7" width="20" height="888.9"/>
	</g>
</g>
</svg>
