<?xml version="1.0" encoding="utf-8"?>
<!-- Generator: Adobe Illustrator 19.0.0, SVG Export Plug-In . SVG Version: 6.00 Build 0)  -->
<svg version="1.1" id="_x31_" xmlns="http://www.w3.org/2000/svg" xmlns:xlink="http://www.w3.org/1999/xlink" x="0px" y="0px"
	 viewBox="-39 119.9 1200 1042.1" style="enable-background:new -39 119.9 1200 1042.1;" xml:space="preserve">
<style type="text/css">
	.st0{fill:#2BB9AF;}
	.st1{fill:#101010;fill-opacity:0;}
	.st2{fill:#101010;}
</style>
<g id="XMLID_654_">
	<path id="XMLID_55_" class="st0" d="M439.4,122.9v676.7H-36V122.9H439.4 M440.4,121.9H-37v678.7h477.4V121.9L440.4,121.9z"/>
</g>
<g id="XMLID_653_">
	<path id="XMLID_51_" class="st0" d="M1158,122.9v475.4H481.3V122.9H1158 M1159,121.9H480.3v477.4H1159V121.9L1159,121.9z"/>
</g>
<g id="XMLID_652_">
	<path id="XMLID_42_" class="st0" d="M1000,640.9v518.7H481.3V640.9H1000 M1001,639.9H480.3v520.7H1001V639.9L1001,639.9z"/>
</g>
<g id="XMLID_593_">
	<g id="XMLID_623_">
		<rect id="XMLID_651_" x="-37" y="121.9" class="st1" width="134.8" height="65.2"/>
		<g id="XMLID_624_">
			<g id="XMLID_123_">
				<path id="XMLID_133_" class="st2" d="M-0.1,165.4v-2h-1c-1.3,1.7-3.5,2.6-6.4,2.6c-2.4,0-4.3-0.7-5.7-2
					c-1.4-1.4-2.1-3.1-2.1-5.1s0.7-3.7,2.1-5.1c1.4-1.5,3.6-2.2,6.5-2.2h6.4V151c0-2.5-1.5-4-4.6-4c-2.7,0-4.1,0.9-4.4,2.8H-14
					c0.2-4.1,3.8-6.6,9-6.6c5.8,0,9.4,2.6,9.4,7.9v14.4L-0.1,165.4L-0.1,165.4z M-1.9,160.4c1.1-1.1,1.7-2.3,1.7-3.8v-1.7h-5.5
					c-3,0-4.6,1.3-4.6,3.6c0,2.2,1.6,3.5,4.4,3.5C-4.4,162-3,161.5-1.9,160.4z"/>
				<path id="XMLID_131_" class="st2" d="M21.2,143.7v4.5h-2c-4.4,0-6.8,2.5-6.8,7.1v10.2H7.6v-21.8h4.7v2.5h1
					c1.2-1.7,3.3-2.5,6.1-2.5H21.2z"/>
				<path id="XMLID_129_" class="st2" d="M28.1,143.7h5.1v4.1h-5.1v10.6c0,1.9,1.1,2.9,3.3,2.9h1.8v4.2h-1.9c-5.2,0-8.1-1.7-8.1-6.4
					v-20.9H28L28.1,143.7L28.1,143.7z"/>
				<path id="XMLID_126_" class="st2" d="M53.1,162.8c-2,2.1-4.6,3.2-8,3.2c-3.4,0-6-1.1-8-3.2c-2-2.1-2.9-4.9-2.9-8.3
					c0-3.4,1-6.1,2.9-8.2c2-2.1,4.7-3.2,8-3.2c3.4,0,6,1.1,8,3.2c2,2.1,3,4.8,3,8.2C56.1,157.9,55.1,160.6,53.1,162.8z M45.1,147.2
					c-4,0-6.1,3.2-6.1,7.3s2.2,7.3,6.1,7.3c4,0,6.1-3.2,6.1-7.3C51.3,150.4,49.1,147.2,45.1,147.2z"/>
				<path id="XMLID_124_" class="st2" d="M70.7,149.5c-0.3-1.6-1.7-2.3-4.3-2.3s-3.9,0.8-3.9,2.3c0,1.3,0.9,1.8,2.8,2.2l4.2,0.7
					c4.4,0.7,6.6,2.9,6.6,6.7c0,1.9-0.8,3.6-2.5,4.9c-1.6,1.3-3.9,2-6.8,2c-6.1,0-9.5-2.7-9.9-7.1h4.8c0.4,2.1,2,3.1,5,3.1
					c3,0,4.6-0.9,4.6-2.8c0-1.7-1-2.4-3.5-2.9l-4.5-0.8c-3.4-0.6-5.5-2.5-5.5-5.7c0-3.9,3.1-6.6,8.9-6.6c5.2,0,8.4,2.5,8.9,6.4
					L70.7,149.5L70.7,149.5z"/>
			</g>
		</g>
	</g>
	<g id="XMLID_594_">
		<rect id="XMLID_622_" x="305.5" y="121.9" class="st1" width="134.8" height="65.2"/>
		<g id="XMLID_595_">
			<g id="XMLID_109_">
				<path id="XMLID_119_" class="st2" d="M342.4,165.4v-2h-1c-1.3,1.7-3.5,2.6-6.4,2.6c-2.4,0-4.3-0.7-5.7-2
					c-1.4-1.4-2.1-3.1-2.1-5.1s0.7-3.7,2.1-5.1c1.4-1.5,3.6-2.2,6.5-2.2h6.4V151c0-2.5-1.5-4-4.6-4c-2.7,0-4.1,0.9-4.4,2.8h-4.8
					c0.2-4.1,3.8-6.6,9-6.6c5.8,0,9.4,2.6,9.4,7.9v14.4L342.4,165.4L342.4,165.4z M340.6,160.4c1.1-1.1,1.7-2.3,1.7-3.8v-1.7h-5.5
					c-3,0-4.6,1.3-4.6,3.6c0,2.2,1.6,3.5,4.4,3.5C338.1,162,339.5,161.5,340.6,160.4z"/>
				<path id="XMLID_117_" class="st2" d="M363.8,143.7v4.5h-2c-4.4,0-6.8,2.5-6.8,7.1v10.2h-4.8v-21.8h4.7v2.5h1
					c1.2-1.7,3.3-2.5,6.1-2.5H363.8z"/>
				<path id="XMLID_115_" class="st2" d="M370.6,143.7h5.1v4.1h-5.1v10.6c0,1.9,1.1,2.9,3.3,2.9h1.8v4.2h-1.9
					c-5.2,0-8.1-1.7-8.1-6.4v-20.9h4.8v5.5L370.6,143.7L370.6,143.7z"/>
				<path id="XMLID_112_" class="st2" d="M395.6,162.8c-2,2.1-4.6,3.2-8,3.2s-6-1.1-8-3.2c-2-2.1-2.9-4.9-2.9-8.3
					c0-3.4,1-6.1,2.9-8.2c2-2.1,4.7-3.2,8-3.2c3.4,0,6,1.1,8,3.2c2,2.1,3,4.8,3,8.2C398.6,157.9,397.6,160.6,395.6,162.8z
					 M387.6,147.2c-4,0-6.1,3.2-6.1,7.3s2.2,7.3,6.1,7.3c4,0,6.1-3.2,6.1-7.3C393.8,150.4,391.6,147.2,387.6,147.2z"/>
				<path id="XMLID_110_" class="st2" d="M413.2,149.5c-0.3-1.6-1.7-2.3-4.3-2.3c-2.6,0-3.9,0.8-3.9,2.3c0,1.3,0.9,1.8,2.8,2.2
					l4.2,0.5c4.4,0.7,6.6,2.9,6.6,6.7c0,1.9-0.8,3.6-2.5,4.9c-1.6,1.3-3.9,2-6.8,2c-6.1,0-9.5-2.7-9.9-7.1h4.8c0.4,2.1,2,3.1,5,3.1
					s4.6-0.9,4.6-2.8c0-1.7-1-2.4-3.5-2.9l-4.5-0.8c-3.4-0.6-5.5-2.5-5.5-5.7c0-3.9,3.1-6.6,8.9-6.6c5.2,0,8.4,2.5,8.9,6.4h-4.9
					L413.2,149.5L413.2,149.5z"/>
			</g>
		</g>
	</g>
</g>
<g id="XMLID_657_">
	<g id="XMLID_407_">
		<rect id="XMLID_592_" x="480.3" y="121.9" class="st1" width="134.8" height="65.2"/>
		<g id="XMLID_408_">
			<g id="XMLID_152_">
				<path id="XMLID_162_" class="st2" d="M517.2,165.4v-2h-1c-1.3,1.7-3.5,2.6-6.4,2.6c-2.4,0-4.3-0.7-5.7-2
					c-1.4-1.4-2.1-3.1-2.1-5.1s0.7-3.7,2.1-5.1c1.4-1.5,3.6-2.2,6.5-2.2h6.4V151c0-2.5-1.5-4-4.6-4c-2.7,0-4.1,0.9-4.4,2.8h-4.8
					c0.2-4.1,3.8-6.6,9-6.6c5.8,0,9.4,2.6,9.4,7.9v14.4L517.2,165.4L517.2,165.4z M515.4,160.4c1.1-1.1,1.7-2.3,1.7-3.8v-1.7h-5.5
					c-3,0-4.6,1.3-4.6,3.6c0,2.2,1.6,3.5,4.4,3.5C512.9,162,514.2,161.5,515.4,160.4z"/>
				<path id="XMLID_160_" class="st2" d="M538.5,143.7v4.5h-2c-4.4,0-6.8,2.5-6.8,7.1v10.2H525v-21.8h4.7v2.5h1
					c1.2-1.7,3.3-2.5,6.1-2.5H538.5z"/>
				<path id="XMLID_158_" class="st2" d="M545.3,143.7h5.1v4.1h-5.1v10.6c0,1.9,1.1,2.9,3.3,2.9h1.8v4.2h-1.9
					c-5.2,0-8.1-1.7-8.1-6.4v-20.9h4.8v5.5L545.3,143.7L545.3,143.7z"/>
				<path id="XMLID_155_" class="st2" d="M570.4,162.8c-2,2.1-4.6,3.2-8,3.2s-6-1.1-8-3.2c-2-2.1-2.9-4.9-2.9-8.3
					c0-3.4,1-6.1,2.9-8.2c2-2.1,4.7-3.2,8-3.2c3.4,0,6,1.1,8,3.2c2,2.1,3,4.8,3,8.2C573.4,157.9,572.4,160.6,570.4,162.8z
					 M562.4,147.2c-4,0-6.1,3.2-6.1,7.3s2.2,7.3,6.1,7.3c4,0,6.1-3.2,6.1-7.3C568.6,150.4,566.4,147.2,562.4,147.2z"/>
				<path id="XMLID_153_" class="st2" d="M588,149.5c-0.3-1.6-1.7-2.3-4.3-2.3s-3.9,0.8-3.9,2.3c0,1.3,0.9,1.8,2.8,2.2l4.2,0.7
					c4.4,0.7,6.6,2.9,6.6,6.7c0,1.9-0.8,3.6-2.5,4.9c-1.6,1.3-3.9,2-6.8,2c-6.1,0-9.5-2.7-9.9-7.1h4.8c0.4,2.1,2,3.1,5,3.1
					s4.6-0.9,4.6-2.8c0-1.7-1-2.4-3.5-2.9l-4.5-0.8c-3.4-0.6-5.5-2.5-5.5-5.7c0-3.9,3.1-6.6,8.9-6.6c5.2,0,8.4,2.5,8.9,6.4
					L588,149.5L588,149.5z"/>
			</g>
		</g>
	</g>
	<g id="XMLID_285_">
		<rect id="XMLID_406_" x="1024.2" y="121.9" class="st1" width="134.8" height="65.2"/>
		<g id="XMLID_286_">
			<g id="XMLID_137_">
				<path id="XMLID_147_" class="st2" d="M1061.1,165.4v-2h-1c-1.3,1.7-3.5,2.6-6.4,2.6c-2.4,0-4.3-0.7-5.7-2
					c-1.4-1.4-2.1-3.1-2.1-5.1s0.7-3.7,2.1-5.1c1.4-1.5,3.6-2.2,6.5-2.2h6.4V151c0-2.5-1.5-4-4.6-4c-2.7,0-4.1,0.9-4.4,2.8h-4.8
					c0.2-4.1,3.8-6.6,9-6.6c5.8,0,9.4,2.6,9.4,7.9v14.4L1061.1,165.4L1061.1,165.4L1061.1,165.4z M1059.2,160.4
					c1.1-1.1,1.7-2.3,1.7-3.8v-1.7h-5.5c-3,0-4.6,1.3-4.6,3.6c0,2.2,1.6,3.5,4.4,3.5C1056.8,162,1058.1,161.5,1059.2,160.4z"/>
				<path id="XMLID_145_" class="st2" d="M1082.4,143.7v4.5h-2c-4.4,0-6.8,2.5-6.8,7.1v10.2h-4.8v-21.8h4.7v2.5h1
					c1.2-1.7,3.3-2.5,6.1-2.5H1082.4z"/>
				<path id="XMLID_143_" class="st2" d="M1089.2,143.7h5.1v4.1h-5.1v10.6c0,1.9,1.1,2.9,3.3,2.9h1.8v4.2h-1.9
					c-5.2,0-8.1-1.7-8.1-6.4v-20.9h4.8L1089.2,143.7L1089.2,143.7z"/>
				<path id="XMLID_140_" class="st2" d="M1114.3,162.8c-2,2.1-4.6,3.2-8,3.2s-6-1.1-8-3.2c-2-2.1-2.9-4.9-2.9-8.3
					c0-3.4,1-6.1,2.9-8.2c2-2.1,4.7-3.2,8-3.2c3.4,0,6,1.1,8,3.2c2,2.1,3,4.8,3,8.2C1117.3,157.9,1116.3,160.6,1114.3,162.8z
					 M1106.3,147.2c-4,0-6.1,3.2-6.1,7.3s2.2,7.3,6.1,7.3c4,0,6.1-3.2,6.1-7.3C1112.4,150.4,1110.3,147.2,1106.3,147.2z"/>
				<path id="XMLID_138_" class="st2" d="M1131.9,149.5c-0.3-1.6-1.7-2.3-4.3-2.3c-2.6,0-3.9,0.8-3.9,2.3c0,1.3,0.9,1.8,2.8,2.2
					l4.2,0.7c4.4,0.7,6.6,2.9,6.6,6.7c0,1.9-0.8,3.6-2.5,4.9c-1.6,1.3-3.9,2-6.8,2c-6.1,0-9.5-2.7-9.9-7.1h4.8c0.4,2.1,2,3.1,5,3.1
					s4.6-0.9,4.6-2.8c0-1.7-1-2.4-3.5-2.9l-4.5-0.8c-3.4-0.6-5.5-2.5-5.5-5.7c0-3.9,3.1-6.6,8.9-6.6c5.2,0,8.4,2.5,8.9,6.4
					L1131.9,149.5L1131.9,149.5z"/>
			</g>
		</g>
	</g>
</g>
<g id="XMLID_656_">
	<g id="XMLID_191_">
		<rect id="XMLID_284_" x="480.3" y="639.9" class="st1" width="134.8" height="65.2"/>
		<g id="XMLID_192_">
			<g id="XMLID_194_">
				<path id="XMLID_204_" class="st2" d="M517.2,683.3v-2h-1c-1.3,1.7-3.5,2.6-6.4,2.6c-2.4,0-4.3-0.7-5.7-2
					c-1.4-1.4-2.1-3.1-2.1-5.1s0.7-3.7,2.1-5.1c1.4-1.5,3.6-2.2,6.5-2.2h6.4v-0.6c0-2.5-1.5-4-4.6-4c-2.7,0-4.1,0.9-4.4,2.8h-4.8
					c0.2-4.1,3.8-6.6,9-6.6c5.8,0,9.4,2.6,9.4,7.9v14.4h-4.4V683.3z M515.4,678.3c1.1-1.1,1.7-2.3,1.7-3.8v-1.7h-5.5
					c-3,0-4.6,1.3-4.6,3.6c0,2.2,1.6,3.5,4.4,3.5C512.9,679.9,514.2,679.4,515.4,678.3z"/>
				<path id="XMLID_202_" class="st2" d="M538.5,661.6v4.5h-2c-4.4,0-6.8,2.5-6.8,7.1v10.2H525v-21.7h4.7v2.5h1
					c1.2-1.7,3.3-2.5,6.1-2.5L538.5,661.6L538.5,661.6z"/>
				<path id="XMLID_200_" class="st2" d="M545.3,661.6h5.1v4.1h-5.1v10.6c0,1.9,1.1,2.9,3.3,2.9h1.8v4.2h-1.9
					c-5.2,0-8.1-1.7-8.1-6.4v-20.8h4.8v5.4L545.3,661.6L545.3,661.6z"/>
				<path id="XMLID_197_" class="st2" d="M570.4,680.7c-2,2.1-4.6,3.2-8,3.2s-6-1.1-8-3.2s-2.9-4.9-2.9-8.3s1-6.1,2.9-8.2
					c2-2.1,4.7-3.2,8-3.2c3.4,0,6,1.1,8,3.2c2,2.1,3,4.8,3,8.2S572.4,678.6,570.4,680.7z M562.4,665.1c-4,0-6.1,3.2-6.1,7.3
					s2.2,7.3,6.1,7.3c4,0,6.1-3.2,6.1-7.3C568.6,668.3,566.4,665.1,562.4,665.1z"/>
				<path id="XMLID_195_" class="st2" d="M588,667.4c-0.3-1.6-1.7-2.3-4.3-2.3s-3.9,0.8-3.9,2.3c0,1.3,0.9,1.8,2.8,2.2l4.2,0.7
					c4.4,0.7,6.6,2.9,6.6,6.7c0,1.9-0.8,3.6-2.5,4.9c-1.6,1.3-3.9,2-6.8,2c-6.1,0-9.5-2.7-9.9-7.1h4.8c0.4,2.1,2,3.1,5,3.1
					s4.6-0.9,4.6-2.8c0-1.7-1-2.4-3.5-2.9l-4.5-0.8c-3.4-0.6-5.5-2.5-5.5-5.7c0-3.9,3.1-6.6,8.9-6.6c5.2,0,8.4,2.5,8.9,6.4H588
					V667.4z"/>
			</g>
		</g>
	</g>
	<g id="XMLID_44_">
		<rect id="XMLID_190_" x="866.1" y="639.9" class="st1" width="134.8" height="65.2"/>
		<g id="XMLID_45_">
			<g id="XMLID_176_">
				<path id="XMLID_186_" class="st2" d="M903,683.3v-2h-1c-1.3,1.7-3.5,2.6-6.4,2.6c-2.4,0-4.3-0.7-5.7-2c-1.4-1.4-2.1-3.1-2.1-5.1
					s0.7-3.7,2.1-5.1c1.4-1.5,3.6-2.2,6.5-2.2h6.4v-0.6c0-2.5-1.5-4-4.6-4c-2.7,0-4.1,0.9-4.4,2.8H889c0.2-4.1,3.8-6.6,9-6.6
					c5.8,0,9.4,2.6,9.4,7.9v14.4H903V683.3z M901.2,678.3c1.1-1.1,1.7-2.3,1.7-3.8v-1.7h-5.5c-3,0-4.6,1.3-4.6,3.6
					c0,2.2,1.6,3.5,4.4,3.5C898.7,679.9,900.1,679.4,901.2,678.3z"/>
				<path id="XMLID_184_" class="st2" d="M924.4,661.6v4.5h-2c-4.4,0-6.8,2.5-6.8,7.1v10.2h-4.8v-21.7h4.7v2.5h1
					c1.2-1.7,3.3-2.5,6.1-2.5L924.4,661.6L924.4,661.6z"/>
				<path id="XMLID_182_" class="st2" d="M931.2,661.6h5.1v4.1h-5.1v10.6c0,1.9,1.1,2.9,3.3,2.9h1.8v4.2h-1.9
					c-5.2,0-8.1-1.7-8.1-6.4v-20.8h4.8v5.4L931.2,661.6L931.2,661.6z"/>
				<path id="XMLID_179_" class="st2" d="M956.2,680.7c-2,2.1-4.6,3.2-8,3.2s-6-1.1-8-3.2s-2.9-4.9-2.9-8.3s1-6.1,2.9-8.2
					c2-2.1,4.7-3.2,8-3.2c3.4,0,6,1.1,8,3.2c2,2.1,3,4.8,3,8.2S958.2,678.6,956.2,680.7z M948.2,665.1c-4,0-6.1,3.2-6.1,7.3
					s2.2,7.3,6.1,7.3c4,0,6.1-3.2,6.1-7.3C954.4,668.3,952.2,665.1,948.2,665.1z"/>
				<path id="XMLID_177_" class="st2" d="M973.8,667.4c-0.3-1.6-1.7-2.3-4.3-2.3s-3.9,0.8-3.9,2.3c0,1.3,0.9,1.8,2.8,2.2l4.2,0.7
					c4.4,0.7,6.6,2.9,6.6,6.7c0,1.9-0.8,3.6-2.5,4.9c-1.6,1.3-3.9,2-6.8,2c-6.1,0-9.5-2.7-9.9-7.1h4.8c0.4,2.1,2,3.1,5,3.1
					s4.6-0.9,4.6-2.8c0-1.7-1-2.4-3.5-2.9l-4.5-0.8c-3.4-0.6-5.5-2.5-5.5-5.7c0-3.9,3.1-6.6,8.9-6.6c5.2,0,8.4,2.5,8.9,6.4h-4.9
					L973.8,667.4L973.8,667.4z"/>
			</g>
		</g>
	</g>
</g>
</svg>
