<?xml version="1.0" encoding="utf-8"?>
<!-- Generator: Adobe Illustrator 19.0.0, SVG Export Plug-In . SVG Version: 6.00 Build 0)  -->
<svg version="1.1" id="_x31_" xmlns="http://www.w3.org/2000/svg" xmlns:xlink="http://www.w3.org/1999/xlink" x="0px" y="0px"
	 viewBox="0 0 1200 1042.1" style="enable-background:new 0 0 1200 1042.1;" xml:space="preserve">
<style type="text/css">
	.st0{fill:#36ACA7;}
	.st1{opacity:0;fill:#101010;}
	.st2{fill:#101010;}
</style>
<g id="XMLID_2_">
	<g id="XMLID_654_">
		<path id="XMLID_55_" class="st0" d="M478.4,2.7v676.7H3V2.7H478.4 M479.4,1.7H2v678.7h477.4V1.7L479.4,1.7z"/>
	</g>
	<g id="XMLID_653_">
		<path id="XMLID_51_" class="st0" d="M1197,2.7v475.4H520.3V2.7H1197 M1198,1.7H519.3v477.4H1198V1.7L1198,1.7z"/>
	</g>
	<g id="XMLID_652_">
		<path id="XMLID_42_" class="st0" d="M1039,520.7v518.7H520.3V520.7H1039 M1040,519.7H519.3v520.7H1040V519.7L1040,519.7z"/>
	</g>
</g>
<g id="XMLID_593_">
	<g id="XMLID_623_">
		<rect id="XMLID_651_" x="2" y="615.6" class="st1" width="134.8" height="65.2"/>
		<g id="XMLID_624_">
			<g id="XMLID_671_">
				<path id="XMLID_681_" class="st2" d="M38.9,659v-2h-1c-1.3,1.7-3.5,2.6-6.4,2.6c-2.4,0-4.3-0.7-5.7-2c-1.4-1.4-2.1-3.1-2.1-5.1
					c0-2,0.7-3.7,2.1-5.1c1.4-1.5,3.6-2.2,6.5-2.2h6.4v-0.6c0-2.5-1.5-4-4.6-4c-2.7,0-4.1,0.9-4.4,2.8H25c0.2-4.1,3.8-6.6,9-6.6
					c5.8,0,9.4,2.6,9.4,7.9V659H38.9z M37.1,654c1.1-1.1,1.7-2.3,1.7-3.8v-1.7h-5.5c-3,0-4.6,1.3-4.6,3.6c0,2.2,1.6,3.5,4.4,3.5
					C34.6,655.6,36,655.1,37.1,654z"/>
				<path id="XMLID_679_" class="st2" d="M60.2,637.3v4.5h-2c-4.4,0-6.8,2.5-6.8,7.1V659h-4.8v-21.7h4.7v2.5h1
					c1.2-1.7,3.3-2.5,6.1-2.5H60.2z"/>
				<path id="XMLID_677_" class="st2" d="M67.1,637.3h5.1v4.1h-5.1V652c0,1.9,1.1,2.9,3.3,2.9h1.8v4.2h-1.9c-5.2,0-8.1-1.7-8.1-6.4
					v-20.8h4.8V637.3z"/>
				<path id="XMLID_674_" class="st2" d="M92.1,656.4c-2,2.1-4.6,3.2-8,3.2c-3.4,0-6-1.1-8-3.2c-2-2.1-2.9-4.9-2.9-8.3
					c0-3.4,1-6.1,2.9-8.2c2-2.1,4.7-3.2,8-3.2c3.4,0,6,1.1,8,3.2c2,2.1,3,4.8,3,8.2C95.1,651.5,94.1,654.3,92.1,656.4z M84.1,640.8
					c-4,0-6.1,3.2-6.1,7.3c0,4.1,2.2,7.3,6.1,7.3c4,0,6.1-3.2,6.1-7.3C90.3,644,88.1,640.8,84.1,640.8z"/>
				<path id="XMLID_672_" class="st2" d="M109.7,643.1c-0.3-1.6-1.7-2.3-4.3-2.3c-2.6,0-3.9,0.8-3.9,2.3c0,1.3,0.9,1.8,2.8,2.2
					l4.2,0.7c4.4,0.7,6.6,2.9,6.6,6.7c0,1.9-0.8,3.6-2.5,4.9c-1.6,1.3-3.9,2-6.8,2c-6.1,0-9.5-2.7-9.9-7.1h4.8c0.4,2.1,2,3.1,5,3.1
					c3,0,4.6-0.9,4.6-2.8c0-1.7-1-2.4-3.5-2.9l-4.5-0.8c-3.4-0.6-5.5-2.5-5.5-5.7c0-3.9,3.1-6.6,8.9-6.6c5.2,0,8.4,2.5,8.9,6.4
					H109.7z"/>
			</g>
		</g>
	</g>
	<g id="XMLID_594_">
		<rect id="XMLID_622_" x="344.5" y="615.6" class="st1" width="134.8" height="65.2"/>
		<g id="XMLID_595_">
			<g id="XMLID_685_">
				<path id="XMLID_695_" class="st2" d="M381.4,659v-2h-1c-1.3,1.7-3.5,2.6-6.4,2.6c-2.4,0-4.3-0.7-5.7-2c-1.4-1.4-2.1-3.1-2.1-5.1
					c0-2,0.7-3.7,2.1-5.1c1.4-1.5,3.6-2.2,6.5-2.2h6.4v-0.6c0-2.5-1.5-4-4.6-4c-2.7,0-4.1,0.9-4.4,2.8h-4.8c0.2-4.1,3.8-6.6,9-6.6
					c5.8,0,9.4,2.6,9.4,7.9V659H381.4z M379.6,654c1.1-1.1,1.7-2.3,1.7-3.8v-1.7h-5.5c-3,0-4.6,1.3-4.6,3.6c0,2.2,1.6,3.5,4.4,3.5
					C377.1,655.6,378.5,655.1,379.6,654z"/>
				<path id="XMLID_693_" class="st2" d="M402.8,637.3v4.5h-2c-4.4,0-6.8,2.5-6.8,7.1V659h-4.8v-21.7h4.7v2.5h1
					c1.2-1.7,3.3-2.5,6.1-2.5H402.8z"/>
				<path id="XMLID_691_" class="st2" d="M409.6,637.3h5.1v4.1h-5.1V652c0,1.9,1.1,2.9,3.3,2.9h1.8v4.2h-1.9c-5.2,0-8.1-1.7-8.1-6.4
					v-20.8h4.8V637.3z"/>
				<path id="XMLID_688_" class="st2" d="M434.6,656.4c-2,2.1-4.6,3.2-8,3.2c-3.4,0-6-1.1-8-3.2c-2-2.1-2.9-4.9-2.9-8.3
					c0-3.4,1-6.1,2.9-8.2c2-2.1,4.7-3.2,8-3.2c3.4,0,6,1.1,8,3.2c2,2.1,3,4.8,3,8.2C437.6,651.5,436.6,654.3,434.6,656.4z
					 M426.6,640.8c-4,0-6.1,3.2-6.1,7.3c0,4.1,2.2,7.3,6.1,7.3c4,0,6.1-3.2,6.1-7.3C432.8,644,430.6,640.8,426.6,640.8z"/>
				<path id="XMLID_686_" class="st2" d="M452.2,643.1c-0.3-1.6-1.7-2.3-4.3-2.3c-2.6,0-3.9,0.8-3.9,2.3c0,1.3,0.9,1.8,2.8,2.2
					l4.2,0.7c4.4,0.7,6.6,2.9,6.6,6.7c0,1.9-0.8,3.6-2.5,4.9c-1.6,1.3-3.9,2-6.8,2c-6.1,0-9.5-2.7-9.9-7.1h4.8c0.4,2.1,2,3.1,5,3.1
					c3,0,4.6-0.9,4.6-2.8c0-1.7-1-2.4-3.5-2.9l-4.5-0.8c-3.4-0.6-5.5-2.5-5.5-5.7c0-3.9,3.1-6.6,8.9-6.6c5.2,0,8.4,2.5,8.9,6.4
					H452.2z"/>
			</g>
		</g>
	</g>
</g>
<g id="XMLID_657_">
	<g id="XMLID_407_">
		<rect id="XMLID_592_" x="519.3" y="414.2" class="st1" width="134.8" height="65.2"/>
		<g id="XMLID_408_">
			<g id="XMLID_719_">
				<path id="XMLID_729_" class="st2" d="M556.2,457.6v-2h-1c-1.3,1.7-3.5,2.6-6.4,2.6c-2.4,0-4.3-0.7-5.7-2
					c-1.4-1.4-2.1-3.1-2.1-5.1c0-2,0.7-3.7,2.1-5.1c1.4-1.5,3.6-2.2,6.5-2.2h6.4v-0.6c0-2.5-1.5-4-4.6-4c-2.7,0-4.1,0.9-4.4,2.8
					h-4.8c0.2-4.1,3.8-6.6,9-6.6c5.8,0,9.4,2.6,9.4,7.9v14.4H556.2z M554.4,452.7c1.1-1.1,1.7-2.3,1.7-3.8v-1.7h-5.5
					c-3,0-4.6,1.3-4.6,3.6c0,2.2,1.6,3.5,4.4,3.5C551.9,454.3,553.2,453.8,554.4,452.7z"/>
				<path id="XMLID_727_" class="st2" d="M577.5,435.9v4.5h-2c-4.4,0-6.8,2.5-6.8,7.1v10.2H564v-21.7h4.7v2.5h1
					c1.2-1.7,3.3-2.5,6.1-2.5H577.5z"/>
				<path id="XMLID_725_" class="st2" d="M584.3,435.9h5.1v4.1h-5.1v10.6c0,1.9,1.1,2.9,3.3,2.9h1.8v4.2h-1.9
					c-5.2,0-8.1-1.7-8.1-6.4v-20.8h4.8V435.9z"/>
				<path id="XMLID_722_" class="st2" d="M609.4,455c-2,2.1-4.6,3.2-8,3.2c-3.4,0-6-1.1-8-3.2c-2-2.1-2.9-4.9-2.9-8.3
					c0-3.4,1-6.1,2.9-8.2c2-2.1,4.7-3.2,8-3.2c3.4,0,6,1.1,8,3.2c2,2.1,3,4.8,3,8.2C612.4,450.1,611.4,452.9,609.4,455z
					 M601.4,439.5c-4,0-6.1,3.2-6.1,7.3c0,4.1,2.2,7.3,6.1,7.3c4,0,6.1-3.2,6.1-7.3C607.6,442.7,605.4,439.5,601.4,439.5z"/>
				<path id="XMLID_720_" class="st2" d="M627,441.7c-0.3-1.6-1.7-2.3-4.3-2.3c-2.6,0-3.9,0.8-3.9,2.3c0,1.3,0.9,1.8,2.8,2.2
					l4.2,0.7c4.4,0.7,6.6,2.9,6.6,6.7c0,1.9-0.8,3.6-2.5,4.9c-1.6,1.3-3.9,2-6.8,2c-6.1,0-9.5-2.7-9.9-7.1h4.8c0.4,2.1,2,3.1,5,3.1
					c3,0,4.6-0.9,4.6-2.8c0-1.7-1-2.4-3.5-2.9l-4.5-0.8c-3.4-0.6-5.5-2.5-5.5-5.7c0-3.9,3.1-6.6,8.9-6.6c5.2,0,8.4,2.5,8.9,6.4H627z
					"/>
			</g>
		</g>
	</g>
	<g id="XMLID_285_">
		<rect id="XMLID_406_" x="1063.2" y="414.2" class="st1" width="134.8" height="65.2"/>
		<g id="XMLID_286_">
			<g id="XMLID_705_">
				<path id="XMLID_716_" class="st2" d="M1100.1,457.6v-2h-1c-1.3,1.7-3.5,2.6-6.4,2.6c-2.4,0-4.3-0.7-5.7-2
					c-1.4-1.4-2.1-3.1-2.1-5.1c0-2,0.7-3.7,2.1-5.1c1.4-1.5,3.6-2.2,6.5-2.2h6.4v-0.6c0-2.5-1.5-4-4.6-4c-2.7,0-4.1,0.9-4.4,2.8
					h-4.8c0.2-4.1,3.8-6.6,9-6.6c5.8,0,9.4,2.6,9.4,7.9v14.4H1100.1z M1098.2,452.7c1.1-1.1,1.7-2.3,1.7-3.8v-1.7h-5.5
					c-3,0-4.6,1.3-4.6,3.6c0,2.2,1.6,3.5,4.4,3.5C1095.8,454.3,1097.1,453.8,1098.2,452.7z"/>
				<path id="XMLID_714_" class="st2" d="M1121.4,435.9v4.5h-2c-4.4,0-6.8,2.5-6.8,7.1v10.2h-4.8v-21.7h4.7v2.5h1
					c1.2-1.7,3.3-2.5,6.1-2.5H1121.4z"/>
				<path id="XMLID_712_" class="st2" d="M1128.2,435.9h5.1v4.1h-5.1v10.6c0,1.9,1.1,2.9,3.3,2.9h1.8v4.2h-1.9
					c-5.2,0-8.1-1.7-8.1-6.4v-20.8h4.8V435.9z"/>
				<path id="XMLID_708_" class="st2" d="M1153.3,455c-2,2.1-4.6,3.2-8,3.2c-3.4,0-6-1.1-8-3.2c-2-2.1-2.9-4.9-2.9-8.3
					c0-3.4,1-6.1,2.9-8.2c2-2.1,4.7-3.2,8-3.2c3.4,0,6,1.1,8,3.2c2,2.1,3,4.8,3,8.2C1156.2,450.1,1155.3,452.9,1153.3,455z
					 M1145.3,439.5c-4,0-6.1,3.2-6.1,7.3c0,4.1,2.2,7.3,6.1,7.3c4,0,6.1-3.2,6.1-7.3C1151.4,442.7,1149.3,439.5,1145.3,439.5z"/>
				<path id="XMLID_706_" class="st2" d="M1170.9,441.7c-0.3-1.6-1.7-2.3-4.3-2.3c-2.6,0-3.9,0.8-3.9,2.3c0,1.3,0.9,1.8,2.8,2.2
					l4.2,0.7c4.4,0.7,6.6,2.9,6.6,6.7c0,1.9-0.8,3.6-2.5,4.9c-1.6,1.3-3.9,2-6.8,2c-6.1,0-9.5-2.7-9.9-7.1h4.8c0.4,2.1,2,3.1,5,3.1
					c3,0,4.6-0.9,4.6-2.8c0-1.7-1-2.4-3.5-2.9l-4.5-0.8c-3.4-0.6-5.5-2.5-5.5-5.7c0-3.9,3.1-6.6,8.9-6.6c5.2,0,8.4,2.5,8.9,6.4
					H1170.9z"/>
			</g>
		</g>
	</g>
</g>
<g id="XMLID_656_">
	<g id="XMLID_191_">
		<rect id="XMLID_284_" x="519.3" y="975.4" class="st1" width="134.8" height="65.2"/>
		<g id="XMLID_192_">
			<g id="XMLID_664_">
				<path id="XMLID_701_" class="st2" d="M556.2,1018.9v-2h-1c-1.3,1.7-3.5,2.6-6.4,2.6c-2.4,0-4.3-0.7-5.7-2
					c-1.4-1.4-2.1-3.1-2.1-5.1c0-2,0.7-3.7,2.1-5.1c1.4-1.5,3.6-2.2,6.5-2.2h6.4v-0.6c0-2.5-1.5-4-4.6-4c-2.7,0-4.1,0.9-4.4,2.8
					h-4.8c0.2-4.1,3.8-6.6,9-6.6c5.8,0,9.4,2.6,9.4,7.9v14.4H556.2z M554.4,1013.9c1.1-1.1,1.7-2.3,1.7-3.8v-1.7h-5.5
					c-3,0-4.6,1.3-4.6,3.6c0,2.2,1.6,3.5,4.4,3.5C551.9,1015.5,553.2,1015,554.4,1013.9z"/>
				<path id="XMLID_699_" class="st2" d="M577.5,997.2v4.5h-2c-4.4,0-6.8,2.5-6.8,7.1v10.2H564v-21.7h4.7v2.5h1
					c1.2-1.7,3.3-2.5,6.1-2.5H577.5z"/>
				<path id="XMLID_697_" class="st2" d="M584.3,997.2h5.1v4.1h-5.1v10.6c0,1.9,1.1,2.9,3.3,2.9h1.8v4.2h-1.9
					c-5.2,0-8.1-1.7-8.1-6.4v-20.8h4.8V997.2z"/>
				<path id="XMLID_667_" class="st2" d="M609.4,1016.3c-2,2.1-4.6,3.2-8,3.2c-3.4,0-6-1.1-8-3.2c-2-2.1-2.9-4.9-2.9-8.3
					c0-3.4,1-6.1,2.9-8.2c2-2.1,4.7-3.2,8-3.2c3.4,0,6,1.1,8,3.2c2,2.1,3,4.8,3,8.2C612.4,1011.4,611.4,1014.1,609.4,1016.3z
					 M601.4,1000.7c-4,0-6.1,3.2-6.1,7.3c0,4.1,2.2,7.3,6.1,7.3c4,0,6.1-3.2,6.1-7.3C607.6,1003.9,605.4,1000.7,601.4,1000.7z"/>
				<path id="XMLID_665_" class="st2" d="M627,1003c-0.3-1.6-1.7-2.3-4.3-2.3c-2.6,0-3.9,0.8-3.9,2.3c0,1.3,0.9,1.8,2.8,2.2l4.2,0.7
					c4.4,0.7,6.6,2.9,6.6,6.7c0,1.9-0.8,3.6-2.5,4.9c-1.6,1.3-3.9,2-6.8,2c-6.1,0-9.5-2.7-9.9-7.1h4.8c0.4,2.1,2,3.1,5,3.1
					c3,0,4.6-0.9,4.6-2.8c0-1.7-1-2.4-3.5-2.9l-4.5-0.8c-3.4-0.6-5.5-2.5-5.5-5.7c0-3.9,3.1-6.6,8.9-6.6c5.2,0,8.4,2.5,8.9,6.4H627z
					"/>
			</g>
		</g>
	</g>
	<g id="XMLID_44_">
		<rect id="XMLID_190_" x="905.1" y="975.4" class="st1" width="134.8" height="65.2"/>
		<g id="XMLID_45_">
			<g id="XMLID_626_">
				<path id="XMLID_638_" class="st2" d="M942,1018.9v-2h-1c-1.3,1.7-3.5,2.6-6.4,2.6c-2.4,0-4.3-0.7-5.7-2
					c-1.4-1.4-2.1-3.1-2.1-5.1c0-2,0.7-3.7,2.1-5.1c1.4-1.5,3.6-2.2,6.5-2.2h6.4v-0.6c0-2.5-1.5-4-4.6-4c-2.7,0-4.1,0.9-4.4,2.8
					h-4.8c0.2-4.1,3.8-6.6,9-6.6c5.8,0,9.4,2.6,9.4,7.9v14.4H942z M940.2,1013.9c1.1-1.1,1.7-2.3,1.7-3.8v-1.7h-5.5
					c-3,0-4.6,1.3-4.6,3.6c0,2.2,1.6,3.5,4.4,3.5C937.7,1015.5,939.1,1015,940.2,1013.9z"/>
				<path id="XMLID_634_" class="st2" d="M963.4,997.2v4.5h-2c-4.4,0-6.8,2.5-6.8,7.1v10.2h-4.8v-21.7h4.7v2.5h1
					c1.2-1.7,3.3-2.5,6.1-2.5H963.4z"/>
				<path id="XMLID_632_" class="st2" d="M970.2,997.2h5.1v4.1h-5.1v10.6c0,1.9,1.1,2.9,3.3,2.9h1.8v4.2h-1.9
					c-5.2,0-8.1-1.7-8.1-6.4v-20.8h4.8V997.2z"/>
				<path id="XMLID_629_" class="st2" d="M995.2,1016.3c-2,2.1-4.6,3.2-8,3.2c-3.4,0-6-1.1-8-3.2c-2-2.1-2.9-4.9-2.9-8.3
					c0-3.4,1-6.1,2.9-8.2c2-2.1,4.7-3.2,8-3.2c3.4,0,6,1.1,8,3.2c2,2.1,3,4.8,3,8.2C998.2,1011.4,997.2,1014.1,995.2,1016.3z
					 M987.2,1000.7c-4,0-6.1,3.2-6.1,7.3c0,4.1,2.2,7.3,6.1,7.3c4,0,6.1-3.2,6.1-7.3C993.4,1003.9,991.2,1000.7,987.2,1000.7z"/>
				<path id="XMLID_627_" class="st2" d="M1012.8,1003c-0.3-1.6-1.7-2.3-4.3-2.3c-2.6,0-3.9,0.8-3.9,2.3c0,1.3,0.9,1.8,2.8,2.2
					l4.2,0.7c4.4,0.7,6.6,2.9,6.6,6.7c0,1.9-0.8,3.6-2.5,4.9c-1.6,1.3-3.9,2-6.8,2c-6.1,0-9.5-2.7-9.9-7.1h4.8c0.4,2.1,2,3.1,5,3.1
					c3,0,4.6-0.9,4.6-2.8c0-1.7-1-2.4-3.5-2.9l-4.5-0.8c-3.4-0.6-5.5-2.5-5.5-5.7c0-3.9,3.1-6.6,8.9-6.6c5.2,0,8.4,2.5,8.9,6.4
					H1012.8z"/>
			</g>
		</g>
	</g>
</g>
</svg>
