<?xml version="1.0" encoding="utf-8"?>
<!-- Generator: Adobe Illustrator 19.0.0, SVG Export Plug-In . SVG Version: 6.00 Build 0)  -->
<svg version="1.1" id="_x32_" xmlns="http://www.w3.org/2000/svg" xmlns:xlink="http://www.w3.org/1999/xlink" x="0px" y="0px"
	 viewBox="-39 119.9 1200 1042.1" style="enable-background:new -39 119.9 1200 1042.1;" xml:space="preserve">
<style type="text/css">
	.st0{fill:#EFEFEF;stroke:#2BB9AF;stroke-miterlimit:10;}
	.st1{fill:#36ACA7;stroke:#2BB9AF;stroke-miterlimit:10;}
	.st2{fill:none;stroke:#2BB9AF;stroke-miterlimit:10;}
	.st3{fill:#2BB9AF;}
</style>
<g id="XMLID_16_">
	<g id="XMLID_367_">
		<rect id="XMLID_29_" x="-36.5" y="122.4" class="st0" width="476.4" height="677.7"/>
		<path id="XMLID_26_" class="st1" d="M439.4,122.9v676.7H-36V122.9H439.4 M440.4,121.9H-37v678.7h477.4V121.9L440.4,121.9z"/>
	</g>
	<g id="XMLID_366_">
		<rect id="XMLID_24_" x="480.8" y="122.4" class="st0" width="677.7" height="476.4"/>
		<path id="XMLID_21_" class="st1" d="M1158,122.9v475.4H481.3V122.9H1158 M1159,121.9H480.3v477.4H1159V121.9L1159,121.9z"/>
	</g>
	<g id="XMLID_365_">
		<rect id="XMLID_19_" x="480.8" y="640.4" class="st0" width="519.7" height="519.7"/>
		<path id="XMLID_14_" class="st1" d="M1000,640.9v518.7H481.3V640.9H1000 M1001,639.9H480.3v520.7H1001V639.9L1001,639.9z"/>
	</g>
	<g id="XMLID_6_">
		<line id="XMLID_9_" class="st2" x1="-37" y1="121.9" x2="440.4" y2="800.7"/>
		<line id="XMLID_10_" class="st2" x1="440.4" y1="121.9" x2="-37" y2="800.7"/>
	</g>
	<g id="XMLID_15_">
		<line id="XMLID_109_" class="st2" x1="480.3" y1="639.9" x2="1001" y2="1160.5"/>
		<line id="XMLID_30_" class="st2" x1="1001" y1="639.9" x2="480.3" y2="1160.5"/>
	</g>
	<g id="XMLID_12_">
		<line id="XMLID_1_" class="st2" x1="1159" y1="121.9" x2="480.3" y2="599.3"/>
		<line id="XMLID_13_" class="st2" x1="1159" y1="599.3" x2="480.3" y2="121.9"/>
	</g>
</g>
<g id="XMLID_74_">
	<g id="XMLID_5_">
		<g id="XMLID_384_">
			<path id="XMLID_397_" class="st3" d="M16.1,480.9v-4h-2c-2.6,3.4-6.9,5.1-12.8,5.1c-4.8,0-8.5-1.4-11.3-4.1
				c-2.8-2.8-4.2-6.1-4.2-10.1c0-3.9,1.4-7.3,4.3-10.2c2.8-2.9,7.1-4.3,12.9-4.3h12.8V452c0-5-3-7.9-9.1-7.9c-5.4,0-8.3,1.9-8.7,5.5
				h-9.5c0.4-8.1,7.6-13.1,17.9-13.1c11.7,0,18.7,5.2,18.7,15.7V481h-9V480.9z M12.5,471c2.2-2.1,3.3-4.7,3.3-7.7V460H4.7
				c-6,0-9.2,2.6-9.2,7.1c0,4.4,3.2,7,8.8,7C7.5,474.2,10.3,473.1,12.5,471z"/>
			<path id="XMLID_395_" class="st3" d="M58.7,437.6v8.9h-3.9c-8.8,0-13.5,5-13.5,14.1v20.3h-9.6v-43.3H41v5h2c2.5-3.3,6.6-5,12.1-5
				H58.7z"/>
			<path id="XMLID_390_" class="st3" d="M72.2,437.6h10.2v8.2H72.2v21.1c0,3.8,2.2,5.7,6.6,5.7h3.6v8.3h-3.7
				c-10.5,0-16.1-3.5-16.1-12.8v-41.5h9.6C72.2,426.6,72.2,437.6,72.2,437.6z"/>
			<path id="XMLID_387_" class="st3" d="M122.2,475.7c-3.9,4.2-9.2,6.3-15.9,6.3s-12-2.1-16-6.3c-3.9-4.3-5.9-9.8-5.9-16.5
				s2-12.2,5.9-16.3c4-4.3,9.3-6.4,16-6.4s12,2.1,15.9,6.4c4,4.2,6,9.6,6,16.3S126.2,471.4,122.2,475.7z M106.3,444.6
				c-7.9,0-12.3,6.4-12.3,14.6c0,8.3,4.3,14.6,12.3,14.6c7.9,0,12.3-6.4,12.3-14.6S114.2,444.6,106.3,444.6z"/>
			<path id="XMLID_385_" class="st3" d="M157.3,449.1c-0.5-3.1-3.3-4.7-8.5-4.7s-7.8,1.5-7.8,4.5c0,2.6,1.7,3.7,5.5,4.3l8.4,1.4
				c8.8,1.4,13.2,5.9,13.2,13.4c0,3.8-1.6,7.1-4.9,9.9c-3.2,2.6-7.7,4-13.6,4c-12.3,0-18.9-5.4-19.8-14.2h9.6
				c0.8,4.2,4.1,6.2,10,6.2c6,0,9.1-1.9,9.1-5.6c0-3.3-2-4.9-7.1-5.8l-9-1.5c-6.8-1.1-11.1-4.9-11.1-11.4c0-7.7,6.1-13.2,17.8-13.2
				c10.3,0,16.8,4.9,17.8,12.7H157.3L157.3,449.1z"/>
		</g>
	</g>
	<g id="XMLID_140_">
		<g id="XMLID_356_">
			<path id="XMLID_369_" class="st3" d="M265.5,480.9v-4h-2c-2.6,3.4-6.9,5.1-12.8,5.1c-4.8,0-8.5-1.4-11.3-4.1
				c-2.8-2.8-4.2-6.1-4.2-10.1c0-3.9,1.4-7.3,4.3-10.2c2.8-2.9,7.1-4.3,12.9-4.3h12.8V452c0-5-3-7.9-9.1-7.9c-5.4,0-8.3,1.9-8.7,5.5
				h-9.5c0.4-8.1,7.6-13.1,17.9-13.1c11.7,0,18.7,5.2,18.7,15.7V481h-9V480.9L265.5,480.9z M261.9,471c2.2-2.1,3.3-4.7,3.3-7.7V460
				h-11.1c-6,0-9.2,2.6-9.2,7.1c0,4.4,3.2,7,8.8,7C256.9,474.2,259.7,473.1,261.9,471z"/>
			<path id="XMLID_364_" class="st3" d="M308.1,437.6v8.9h-3.9c-8.8,0-13.5,5-13.5,14.1v20.3H281v-43.3h9.3v5h2
				c2.5-3.3,6.6-5,12.1-5H308.1z"/>
			<path id="XMLID_362_" class="st3" d="M321.6,437.6h10.2v8.2h-10.2v21.1c0,3.8,2.2,5.7,6.6,5.7h3.6v8.3h-3.7
				c-10.5,0-16.1-3.5-16.1-12.8v-41.5h9.6V437.6z"/>
			<path id="XMLID_359_" class="st3" d="M371.6,475.7c-3.9,4.2-9.2,6.3-15.9,6.3c-6.7,0-12-2.1-16-6.3c-3.9-4.3-5.9-9.8-5.9-16.5
				s2-12.2,5.9-16.3c4-4.3,9.3-6.4,16-6.4s12,2.1,15.9,6.4c4,4.2,6,9.6,6,16.3S375.6,471.4,371.6,475.7z M355.7,444.6
				c-7.9,0-12.3,6.4-12.3,14.6c0,8.3,4.3,14.6,12.3,14.6c7.9,0,12.3-6.4,12.3-14.6S363.6,444.6,355.7,444.6z"/>
			<path id="XMLID_357_" class="st3" d="M406.7,449.1c-0.5-3.1-3.3-4.7-8.5-4.7s-7.8,1.5-7.8,4.5c0,2.6,1.7,3.7,5.5,4.3l8.4,1.4
				c8.8,1.4,13.2,5.9,13.2,13.4c0,3.8-1.6,7.1-4.9,9.9c-3.2,2.6-7.7,4-13.6,4c-12.3,0-18.9-5.4-19.8-14.2h9.6
				c0.8,4.2,4.1,6.2,10,6.2c6,0,9.1-1.9,9.1-5.6c0-3.3-2-4.9-7.1-5.8l-9-1.5c-6.8-1.1-11.1-4.9-11.1-11.4c0-7.7,6.1-13.2,17.8-13.2
				c10.3,0,16.8,4.9,17.8,12.7H406.7L406.7,449.1z"/>
		</g>
	</g>
</g>
<g id="XMLID_73_">
	<g id="XMLID_136_">
		<g id="XMLID_317_">
			<path id="XMLID_353_" class="st3" d="M554.4,382.2v-4h-2c-2.6,3.4-6.9,5.1-12.8,5.1c-4.8,0-8.5-1.4-11.3-4.1
				c-2.8-2.8-4.2-6.1-4.2-10.1c0-3.9,1.4-7.3,4.3-10.2c2.8-2.9,7.1-4.3,12.9-4.3h12.8v-1.3c0-5-3-7.9-9.1-7.9
				c-5.4,0-8.3,1.9-8.7,5.5h-9.5c0.4-8.1,7.6-13.1,17.9-13.1c11.7,0,18.7,5.2,18.7,15.7v28.7L554.4,382.2L554.4,382.2z M550.8,372.3
				c2.2-2.1,3.3-4.7,3.3-7.7v-3.3H543c-6,0-9.2,2.6-9.2,7.1c0,4.4,3.2,7,8.8,7C545.8,375.5,548.6,374.5,550.8,372.3z"/>
			<path id="XMLID_334_" class="st3" d="M597,338.9v8.9h-3.9c-8.8,0-13.5,5-13.5,14.1v20.3H570v-43.3h9.3v5h2c2.5-3.3,6.6-5,12.1-5
				H597z"/>
			<path id="XMLID_332_" class="st3" d="M610.6,338.9h10.2v8.2h-10.2v21.1c0,3.8,2.2,5.7,6.6,5.7h3.6v8.3H617
				c-10.5,0-16.1-3.5-16.1-12.8v-41.5h9.6L610.6,338.9L610.6,338.9z"/>
			<path id="XMLID_329_" class="st3" d="M660.5,377c-3.9,4.2-9.2,6.3-15.9,6.3s-12-2.1-16-6.3c-3.9-4.3-5.9-9.8-5.9-16.5
				s2-12.2,5.9-16.3c4-4.3,9.3-6.4,16-6.4s12,2.1,15.9,6.4c4,4.2,6,9.6,6,16.3S664.5,372.8,660.5,377z M644.6,345.9
				c-7.9,0-12.3,6.4-12.3,14.6c0,8.3,4.3,14.6,12.3,14.6c7.9,0,12.3-6.4,12.3-14.6C656.9,352.3,652.5,345.9,644.6,345.9z"/>
			<path id="XMLID_327_" class="st3" d="M695.6,350.5c-0.5-3.1-3.3-4.7-8.5-4.7s-7.8,1.5-7.8,4.5c0,2.6,1.7,3.7,5.5,4.3l8.4,1.4
				c8.8,1.4,13.2,5.9,13.2,13.4c0,3.8-1.6,7.1-4.9,9.9c-3.2,2.6-7.7,4-13.6,4c-12.3,0-18.9-5.4-19.8-14.2h9.6
				c0.8,4.2,4.1,6.2,10,6.2c6,0,9.1-1.9,9.1-5.6c0-3.3-2-4.9-7.1-5.8l-9-1.5c-6.8-1.1-11.1-4.9-11.1-11.4c0-7.7,6.1-13.2,17.8-13.2
				c10.3,0,16.8,4.9,17.8,12.7L695.6,350.5L695.6,350.5z"/>
		</g>
	</g>
	<g id="XMLID_138_">
		<g id="XMLID_297_">
			<path id="XMLID_307_" class="st3" d="M960.1,382.2v-4h-2c-2.6,3.4-6.9,5.1-12.8,5.1c-4.8,0-8.5-1.4-11.3-4.1
				c-2.8-2.8-4.2-6.1-4.2-10.1c0-3.9,1.4-7.3,4.3-10.2c2.8-2.9,7.1-4.3,12.9-4.3h12.8v-1.3c0-5-3-7.9-9.1-7.9
				c-5.4,0-8.3,1.9-8.7,5.5h-9.5c0.4-8.1,7.6-13.1,17.9-13.1c11.7,0,18.7,5.2,18.7,15.7v28.7L960.1,382.2L960.1,382.2z M956.5,372.3
				c2.2-2.1,3.3-4.7,3.3-7.7v-3.3h-11.1c-6,0-9.2,2.6-9.2,7.1c0,4.4,3.2,7,8.8,7C951.5,375.5,954.3,374.5,956.5,372.3z"/>
			<path id="XMLID_305_" class="st3" d="M1002.7,338.9v8.9h-3.9c-8.8,0-13.5,5-13.5,14.1v20.3h-9.6v-43.3h9.3v5h2
				c2.5-3.3,6.6-5,12.1-5H1002.7z"/>
			<path id="XMLID_303_" class="st3" d="M1016.3,338.9h10.2v8.2h-10.2v21.1c0,3.8,2.2,5.7,6.6,5.7h3.6v8.3h-3.7
				c-10.5,0-16.1-3.5-16.1-12.8v-41.5h9.6L1016.3,338.9L1016.3,338.9z"/>
			<path id="XMLID_300_" class="st3" d="M1066.2,377c-3.9,4.2-9.2,6.3-15.9,6.3s-12-2.1-16-6.3c-3.9-4.3-5.9-9.8-5.9-16.5
				s2-12.2,5.9-16.3c4-4.3,9.3-6.4,16-6.4s12,2.1,15.9,6.4c4,4.2,6,9.6,6,16.3S1070.2,372.8,1066.2,377z M1050.3,345.9
				c-7.9,0-12.3,6.4-12.3,14.6c0,8.3,4.3,14.6,12.3,14.6c7.9,0,12.3-6.4,12.3-14.6S1058.2,345.9,1050.3,345.9z"/>
			<path id="XMLID_298_" class="st3" d="M1101.3,350.5c-0.5-3.1-3.3-4.7-8.5-4.7s-7.8,1.5-7.8,4.5c0,2.6,1.7,3.7,5.5,4.3l8.4,1.4
				c8.8,1.4,13.2,5.9,13.2,13.4c0,3.8-1.6,7.1-4.9,9.9c-3.2,2.6-7.7,4-13.6,4c-12.3,0-18.9-5.4-19.8-14.2h9.6
				c0.8,4.2,4.1,6.2,10,6.2c6,0,9.1-1.9,9.1-5.6c0-3.3-2-4.9-7.1-5.8l-9-1.5c-6.8-1.1-11.1-4.9-11.1-11.4c0-7.7,6.1-13.2,17.8-13.2
				c10.3,0,16.8,4.9,17.8,12.7L1101.3,350.5L1101.3,350.5z"/>
		</g>
	</g>
</g>
<g id="XMLID_75_">
	<g id="XMLID_326_">
		<g id="XMLID_240_">
			<path id="XMLID_294_" class="st3" d="M543.4,921.8v-4h-2c-2.6,3.4-6.9,5.1-12.8,5.1c-4.8,0-8.5-1.4-11.3-4.1
				c-2.8-2.8-4.2-6.1-4.2-10.1c0-3.9,1.4-7.3,4.3-10.2c2.8-2.9,7.1-4.3,12.9-4.3h12.8v-1.3c0-5-3-7.9-9.1-7.9
				c-5.4,0-8.3,1.9-8.7,5.5h-9.5c0.4-8.1,7.6-13.1,17.9-13.1c11.7,0,18.7,5.2,18.7,15.7v28.8L543.4,921.8L543.4,921.8L543.4,921.8z
				 M539.8,911.9c2.2-2.1,3.3-4.7,3.3-7.7v-3.3H532c-6,0-9.2,2.6-9.2,7.1c0,4.4,3.2,7,8.8,7C534.8,915.1,537.6,914,539.8,911.9z"/>
			<path id="XMLID_292_" class="st3" d="M586,878.5v8.9h-3.9c-8.8,0-13.5,5-13.5,14.1v20.3H559v-43.3h9.3v5h2c2.5-3.3,6.6-5,12.1-5
				H586z"/>
			<path id="XMLID_290_" class="st3" d="M599.6,878.5h10.2v8.2h-10.2v21.1c0,3.8,2.2,5.7,6.6,5.7h3.6v8.3H606
				c-10.5,0-16.1-3.5-16.1-12.8v-41.5h9.6L599.6,878.5L599.6,878.5z"/>
			<path id="XMLID_287_" class="st3" d="M649.5,916.6c-3.9,4.2-9.2,6.3-15.9,6.3s-12-2.1-16-6.3c-3.9-4.3-5.9-9.8-5.9-16.5
				c0-6.7,2-12.2,5.9-16.3c4-4.3,9.3-6.4,16-6.4s12,2.1,15.9,6.4c4,4.2,6,9.6,6,16.3C655.5,906.8,653.5,912.3,649.5,916.6z
				 M633.6,885.5c-7.9,0-12.3,6.4-12.3,14.6c0,8.3,4.3,14.6,12.3,14.6c7.9,0,12.3-6.4,12.3-14.6
				C645.9,891.9,641.5,885.5,633.6,885.5z"/>
			<path id="XMLID_241_" class="st3" d="M684.6,890c-0.5-3.1-3.3-4.7-8.5-4.7s-7.8,1.5-7.8,4.5c0,2.6,1.7,3.7,5.5,4.3l8.4,1.4
				c8.8,1.4,13.2,5.9,13.2,13.4c0,3.8-1.6,7.1-4.9,9.9c-3.2,2.6-7.7,4-13.6,4c-12.3,0-18.9-5.4-19.8-14.2h9.6
				c0.8,4.2,4.1,6.2,10,6.2c6,0,9.1-1.9,9.1-5.6c0-3.3-2-4.9-7.1-5.8l-9-1.5c-6.8-1.1-11.1-4.9-11.1-11.4c0-7.7,6.1-13.2,17.8-13.2
				c10.3,0,16.8,4.9,17.8,12.7L684.6,890L684.6,890z"/>
		</g>
	</g>
	<g id="XMLID_4_">
		<g id="XMLID_221_">
			<path id="XMLID_237_" class="st3" d="M816.2,921.8v-4h-2c-2.6,3.4-6.9,5.1-12.8,5.1c-4.8,0-8.5-1.4-11.3-4.1
				c-2.8-2.8-4.2-6.1-4.2-10.1c0-3.9,1.4-7.3,4.3-10.2c2.8-2.9,7.1-4.3,12.9-4.3h12.8v-1.3c0-5-3-7.9-9.1-7.9
				c-5.4,0-8.3,1.9-8.7,5.5h-9.5c0.4-8.1,7.6-13.1,17.9-13.1c11.7,0,18.7,5.2,18.7,15.7v28.8L816.2,921.8L816.2,921.8L816.2,921.8z
				 M812.6,911.9c2.2-2.1,3.3-4.7,3.3-7.7v-3.3h-11.1c-6,0-9.2,2.6-9.2,7.1c0,4.4,3.2,7,8.8,7C807.6,915.1,810.4,914,812.6,911.9z"
				/>
			<path id="XMLID_235_" class="st3" d="M858.8,878.5v8.9h-3.9c-8.8,0-13.5,5-13.5,14.1v20.3h-9.6v-43.3h9.3v5h2
				c2.5-3.3,6.6-5,12.1-5H858.8z"/>
			<path id="XMLID_227_" class="st3" d="M872.3,878.5h10.2v8.2h-10.2v21.1c0,3.8,2.2,5.7,6.6,5.7h3.6v8.3h-3.7
				c-10.5,0-16.1-3.5-16.1-12.8v-41.5h9.6L872.3,878.5L872.3,878.5z"/>
			<path id="XMLID_224_" class="st3" d="M922.3,916.6c-3.9,4.2-9.2,6.3-15.9,6.3s-12-2.1-16-6.3c-3.9-4.3-5.9-9.8-5.9-16.5
				c0-6.7,2-12.2,5.9-16.3c4-4.3,9.3-6.4,16-6.4s12,2.1,15.9,6.4c4,4.2,6,9.6,6,16.3C928.3,906.8,926.3,912.3,922.3,916.6z
				 M906.4,885.5c-7.9,0-12.3,6.4-12.3,14.6c0,8.3,4.3,14.6,12.3,14.6c7.9,0,12.3-6.4,12.3-14.6S914.3,885.5,906.4,885.5z"/>
			<path id="XMLID_222_" class="st3" d="M957.4,890c-0.5-3.1-3.3-4.7-8.5-4.7s-7.8,1.5-7.8,4.5c0,2.6,1.7,3.7,5.5,4.3l8.4,1.4
				c8.8,1.4,13.2,5.9,13.2,13.4c0,3.8-1.6,7.1-4.9,9.9c-3.2,2.6-7.7,4-13.6,4c-12.3,0-18.9-5.4-19.8-14.2h9.6
				c0.8,4.2,4.1,6.2,10,6.2c6,0,9.1-1.9,9.1-5.6c0-3.3-2-4.9-7.1-5.8l-9-1.5c-6.8-1.1-11.1-4.9-11.1-11.4c0-7.7,6.1-13.2,17.8-13.2
				c10.3,0,16.8,4.9,17.8,12.7L957.4,890L957.4,890z"/>
		</g>
	</g>
</g>
</svg>
