<?xml version="1.0" encoding="utf-8"?>
<!-- Generator: Adobe Illustrator 19.0.0, SVG Export Plug-In . SVG Version: 6.00 Build 0)  -->
<svg version="1.1" id="Layer_1" xmlns="http://www.w3.org/2000/svg" xmlns:xlink="http://www.w3.org/1999/xlink" x="0px" y="0px"
	 viewBox="0 0 1500 1000" style="enable-background:new 0 0 1500 1000;" xml:space="preserve">
<style type="text/css">
	.st0{fill:#36AFA7;}
	.st1{fill:none;stroke:#101010;stroke-miterlimit:10;}
	.st2{fill:#FFFFFF;}
	.st3{fill:#101010;}
</style>
<rect id="XMLID_1_" x="0" class="st0" width="1500" height="1000"/>
<line id="XMLID_710_" class="st1" x1="1500" y1="411.7" x2="0" y2="411.7"/>
<line id="XMLID_709_" class="st1" x1="1500" y1="529.5" x2="0" y2="529.5"/>
<line id="XMLID_450_" class="st1" x1="1500" y1="647.3" x2="0" y2="647.3"/>
<line id="XMLID_696_" class="st1" x1="301.7" y1="0" x2="301.7" y2="1000"/>
<line id="XMLID_695_" class="st1" x1="1198.3" y1="0" x2="1198.3" y2="1000"/>
<g id="XMLID_286_">
	<g id="XMLID_288_">
		<path id="XMLID_289_" class="st2" d="M339.9,330.3c12,0,21.4,3.9,28,11.6c6.7,7.7,10.1,17.7,10.1,29.8c0,12.1-3.4,22.1-10.1,29.8
			c-6.6,7.7-16,11.6-28,11.6c-12,0-21.4-3.9-28.1-11.6c-6.7-7.7-10.1-17.7-10.1-29.8c0-12.1,3.4-22.1,10.1-29.8
			C318.5,334.2,327.9,330.3,339.9,330.3z M339.9,401c8.1,0,14.1-2.8,18.3-8.3c4.1-5.5,6.2-12.5,6.2-20.9s-2-15.5-6.2-20.9
			c-4.1-5.5-10.2-8.3-18.3-8.3s-14.2,2.8-18.4,8.3c-4.1,5.5-6.2,12.5-6.2,20.9s2,15.5,6.2,20.9C325.6,398.2,331.8,401,339.9,401z"/>
		<path id="XMLID_292_" class="st2" d="M438.6,401h10.3v26.8h-12.1v-16h-45.7v16h-12.1V401h8.1c3.9-9.3,5.9-19.4,5.9-30.2v-16h45.6
			V401z M426,401v-35.5h-21.4v5.4c0,11.3-1.7,21.4-5.2,30.1H426z"/>
		<path id="XMLID_296_" class="st2" d="M506.2,384.3h-42.1c0.3,12.1,5.7,18.1,16,18.1c6.6,0,10.7-2.5,12.4-7.3h12.9
			c-2.2,10.9-11.1,18-25.4,18c-8.8,0-15.8-2.8-20.8-8.4c-5-5.6-7.6-12.9-7.6-21.9c0-9.1,2.5-16.2,7.5-21.5c5-5.4,12-8.1,20.6-8.1
			c8.2,0,14.7,2.6,19.3,7.6c4.7,5,7.2,11.4,7.3,19.1V384.3z M464.7,374.9h28.6c-0.9-6.7-5.7-11.5-13.7-11.5
			C471.2,363.4,466.2,367.8,464.7,374.9z"/>
		<path id="XMLID_451_" class="st2" d="M533.8,388L523,411.7h-13l13.2-29.3l-12.4-27.7h12.9l10.1,22.5h12.7v-22.5h11.9v22.5H571
			l10-22.5h12.9l-12.3,27.7l13.2,29.3h-13.1L571,388h-12.7v23.7h-11.9V388H533.8z"/>
		<path id="XMLID_665_" class="st2" d="M654.7,401H665v26.8h-12.1v-16h-45.7v16h-12.1V401h8.1c3.9-9.3,5.9-19.4,5.9-30.2v-16h45.6
			V401z M642.1,401v-35.5h-21.4v5.4c0,11.3-1.7,21.4-5.2,30.1H642.1z"/>
		<path id="XMLID_685_" class="st2" d="M706.7,411.7v-5.3H704c-3.5,4.5-9.1,6.7-16.8,6.7c-6.3,0-11.2-1.8-14.9-5.4
			c-3.7-3.7-5.5-8.1-5.5-13.3c0-5.2,1.9-9.6,5.6-13.4c3.7-3.8,9.4-5.7,17-5.7h16.8v-1.7c0-6.6-3.9-10.4-12-10.4
			c-7.1,0-10.9,2.5-11.4,7.3h-12.5c0.6-10.6,10-17.2,23.5-17.2c15.3,0,24.6,6.8,24.6,20.6v37.8H706.7z M701.9,398.7
			c2.9-2.8,4.4-6.2,4.4-10.1v-4.4h-14.6c-7.9,0-12.1,3.5-12.1,9.4c0,5.8,4.3,9.2,11.5,9.2C695.4,402.9,698.9,401.5,701.9,398.7z"/>
	</g>
	<g id="XMLID_1253_">
		<path id="XMLID_688_" class="st2" d="M354.1,529.5h-12.7v-46.2h-27.1v46.2h-12.7v-57h52.4V529.5z"/>
		<path id="XMLID_690_" class="st2" d="M365.9,472.5h12.2v5.5h2.7c3.7-4.6,9.3-6.9,16.8-6.9c7.5,0,13.5,2.8,17.9,8.4
			c4.5,5.6,6.7,12.8,6.7,21.5c0,8.8-2.2,16-6.7,21.6c-4.4,5.6-10.4,8.4-17.9,8.4c-7.4,0-12.9-2.4-16.3-6.9h-2.7v27.9h-12.7V472.5z
			 M378.3,501c0,10.9,5.4,19.3,15.8,19.3c10,0,15.6-7.7,15.6-19.3c0-11.5-5.6-19.1-15.6-19.1C383.6,481.8,378.3,490.1,378.3,501z"/>
		<path id="XMLID_1054_" class="st2" d="M477.1,522.7c-5.2,5.5-12.1,8.3-20.9,8.3c-8.8,0-15.8-2.8-21-8.3
			c-5.2-5.6-7.7-12.9-7.7-21.7s2.6-16,7.7-21.5c5.3-5.6,12.2-8.4,21-8.4c8.8,0,15.8,2.8,20.9,8.4c5.3,5.5,7.8,12.7,7.8,21.5
			S482.4,517.1,477.1,522.7z M456.2,481.8c-10.4,0-16.1,8.4-16.1,19.1c0,10.9,5.7,19.3,16.1,19.3s16.1-8.4,16.1-19.3
			C472.3,490.2,466.6,481.8,456.2,481.8z"/>
		<path id="XMLID_1057_" class="st2" d="M532.9,551.9h-12.4v-22.4h-1.3c-9.1-0.1-16.2-2.7-21.4-7.9c-5-5.3-7.6-12.1-7.6-20.6
			c0-8.4,2.5-15.1,7.5-20.4c5-5.3,12.1-7.9,21.2-8.1h1.7v-24.4h12.4v24.4h1.7c9,0.1,16,2.8,21,8.1c5,5.3,7.6,12,7.6,20.4
			c0,17.5-11.1,28.6-30.3,28.6V551.9z M519,519.3h1.5v-36.6h-1.3c-10.7,0.1-16.6,7.8-16.6,18.2C502.6,511.6,508.3,519.2,519,519.3z
			 M532.9,519.3h1.2c10.7-0.1,16.7-7.7,16.7-18.4c0-10.4-5.9-18.1-16.7-18.2h-1.2V519.3z"/>
		<path id="XMLID_1061_" class="st2" d="M623,502.1h-42.1c0.3,12.1,5.7,18.1,16,18.1c6.6,0,10.7-2.5,12.4-7.3h12.9
			c-2.2,10.9-11.1,18-25.4,18c-8.8,0-15.8-2.8-20.8-8.4c-5-5.6-7.6-12.9-7.6-21.9c0-9.1,2.5-16.2,7.5-21.5c5-5.4,12-8.1,20.6-8.1
			c8.2,0,14.7,2.6,19.3,7.6c4.7,5,7.2,11.4,7.3,19.1V502.1z M581.5,492.7H610c-0.9-6.7-5.7-11.5-13.7-11.5
			C588,481.1,582.9,485.6,581.5,492.7z"/>
		<path id="XMLID_1064_" class="st2" d="M681.4,511.3c-1.8,12-11.5,19.7-25.1,19.7c-8.7,0-15.7-2.8-20.7-8.3
			c-5-5.5-7.5-12.8-7.5-21.7c0-8.8,2.5-16.1,7.5-21.6s12-8.3,20.7-8.3c13.5,0,23,7.5,24.6,18.8h-12.5c-1.7-5.4-5.7-8.1-12-8.1
			c-10.6,0-15.7,7.9-15.7,19c0,11.3,5,19.4,15.7,19.4c6.9,0,11.1-3,12.4-9H681.4z"/>
		<path id="XMLID_1180_" class="st2" d="M739.4,511.3c-1.8,12-11.5,19.7-25.1,19.7c-8.7,0-15.7-2.8-20.7-8.3
			c-5-5.5-7.5-12.8-7.5-21.7c0-8.8,2.5-16.1,7.5-21.6s12-8.3,20.7-8.3c13.5,0,23,7.5,24.6,18.8h-12.5c-1.7-5.4-5.7-8.1-12-8.1
			c-10.6,0-15.7,7.9-15.7,19c0,11.3,5,19.4,15.7,19.4c6.9,0,11.1-3,12.4-9H739.4z"/>
		<path id="XMLID_1182_" class="st2" d="M761.8,529.5h-14.3v-57h12.3v37.6h2.7l23.4-37.6h14.7v57h-12.3v-37.6h-2.7L761.8,529.5z"/>
		<path id="XMLID_1184_" class="st2" d="M858.7,522.7c-5.1,5.5-12.1,8.3-20.9,8.3c-8.8,0-15.8-2.8-21-8.3
			c-5.1-5.6-7.7-12.9-7.7-21.7s2.6-16,7.7-21.5c5.3-5.6,12.2-8.4,21-8.4c8.8,0,15.8,2.8,20.9,8.4c5.3,5.5,7.8,12.7,7.8,21.5
			S864,517.1,858.7,522.7z M837.8,481.8c-10.4,0-16.1,8.4-16.1,19.1c0,10.9,5.7,19.3,16.1,19.3c10.4,0,16.1-8.4,16.1-19.3
			C853.9,490.2,848.2,481.8,837.8,481.8z"/>
		<path id="XMLID_1187_" class="st2" d="M927.9,529.5h-12.7v-23.8h-27.5v23.8h-12.7v-57h12.7v22.4h27.5v-22.4h12.7V529.5z"/>
		<path id="XMLID_1189_" class="st2" d="M975.4,529.5v-5.3h-2.7c-3.5,4.5-9.1,6.7-16.8,6.7c-6.3,0-11.2-1.8-14.9-5.4
			c-3.7-3.7-5.5-8.1-5.5-13.3c0-5.2,1.9-9.6,5.6-13.4c3.7-3.8,9.4-5.7,17-5.7h16.8v-1.7c0-6.6-3.9-10.4-12-10.4
			c-7.1,0-10.9,2.5-11.4,7.3H939c0.6-10.6,10-17.2,23.5-17.2c15.3,0,24.6,6.8,24.6,20.6v37.8H975.4z M970.6,516.5
			c2.9-2.8,4.4-6.2,4.4-10.1v-4.4h-14.6c-7.9,0-12.1,3.5-12.1,9.4c0,5.8,4.3,9.2,11.5,9.2C964.1,520.7,967.7,519.3,970.6,516.5z"/>
		<path id="XMLID_1204_" class="st2" d="M992.1,529.5v-12h2c7.7,0,10.9-5.4,10.9-21.9v-23.1h46.1v57h-12.7v-46.2h-21.8v12.7
			c0,12.3-1.8,21-5.4,26.1c-3.5,5-9.2,7.5-17.1,7.5H992.1z"/>
		<path id="XMLID_1206_" class="st2" d="M1109.3,522.7c-5.1,5.5-12.1,8.3-20.9,8.3s-15.8-2.8-21-8.3c-5.2-5.6-7.7-12.9-7.7-21.7
			s2.6-16,7.7-21.5c5.3-5.6,12.2-8.4,21-8.4s15.8,2.8,20.9,8.4c5.3,5.5,7.8,12.7,7.8,21.5S1114.6,517.1,1109.3,522.7z M1088.4,481.8
			c-10.4,0-16.1,8.4-16.1,19.1c0,10.9,5.7,19.3,16.1,19.3c10.4,0,16.1-8.4,16.1-19.3C1104.5,490.2,1098.8,481.8,1088.4,481.8z"/>
		<path id="XMLID_1209_" class="st2" d="M1167.8,500.6c5.7,1.5,9.5,6.2,9.5,13.2c0,10.3-7.2,15.7-20.2,15.7h-31.5v-57h30.5
			c11.5,0,18,5.5,18,14.4c0,5-2.8,9.3-6.4,11.1V500.6z M1138.1,482.1v13.4h15.3c5.5,0,8.1-2.8,8.1-6.7c0-4.5-2.7-6.7-8.1-6.7H1138.1
			z M1154.8,519.9c6.5,0,9.7-2.5,9.7-7.5c0-5-3.2-7.6-9.7-7.6h-16.7v15.1H1154.8z"/>
		<path id="XMLID_1213_" class="st2" d="M1190.5,529.5h-6.6v-15h14.4V532l-7.4,12h-7.8l7.4-12V529.5z"/>
	</g>
	<g id="XMLID_1254_">
		<path id="XMLID_1215_" class="st2" d="M341.1,647.3L329,623.4h-14.7v23.8h-12.7v-57h12.7v22.4h14.9l11.4-22.4h13l-14,27.4
			l14.8,29.6H341.1z"/>
		<path id="XMLID_1217_" class="st2" d="M406.4,640.5c-5.2,5.5-12.1,8.3-20.9,8.3c-8.8,0-15.8-2.8-21-8.3
			c-5.2-5.6-7.7-12.9-7.7-21.7c0-8.8,2.6-16,7.7-21.5c5.3-5.6,12.2-8.4,21-8.4c8.8,0,15.8,2.8,20.9,8.4c5.3,5.5,7.8,12.7,7.8,21.5
			C414.2,627.6,411.6,634.9,406.4,640.5z M385.4,599.6c-10.4,0-16.1,8.4-16.1,19.1c0,10.9,5.7,19.3,16.1,19.3s16.1-8.4,16.1-19.3
			C401.6,608,395.8,599.6,385.4,599.6z"/>
		<path id="XMLID_1220_" class="st2" d="M416.2,601v-10.7h51.1V601h-19.1v46.2h-12.7V601H416.2z"/>
		<path id="XMLID_1222_" class="st2" d="M519.6,640.5c-5.2,5.5-12.1,8.3-20.9,8.3c-8.8,0-15.8-2.8-21-8.3
			c-5.2-5.6-7.7-12.9-7.7-21.7c0-8.8,2.6-16,7.7-21.5c5.3-5.6,12.2-8.4,21-8.4c8.8,0,15.8,2.8,20.9,8.4c5.3,5.5,7.8,12.7,7.8,21.5
			C527.4,627.6,524.8,634.9,519.6,640.5z M498.6,599.6c-10.4,0-16.1,8.4-16.1,19.1c0,10.9,5.7,19.3,16.1,19.3s16.1-8.4,16.1-19.3
			C514.8,608,509,599.6,498.6,599.6z"/>
		<path id="XMLID_1225_" class="st2" d="M535.9,590.3h12.2v5.5h2.7c3.7-4.6,9.3-6.9,16.8-6.9c7.5,0,13.5,2.8,17.9,8.4
			c4.5,5.6,6.7,12.8,6.7,21.5c0,8.8-2.2,16-6.7,21.6c-4.4,5.6-10.4,8.4-17.9,8.4c-7.4,0-12.9-2.4-16.3-6.9h-2.7v27.9h-12.7V590.3z
			 M548.2,618.7c0,10.9,5.4,19.3,15.8,19.3c10,0,15.6-7.7,15.6-19.3c0-11.5-5.6-19.1-15.6-19.1C553.6,599.6,548.2,607.9,548.2,618.7
			z"/>
		<path id="XMLID_1228_" class="st2" d="M618,669.7h-12.9l11.8-28l-24.2-51.4H606l15.9,34.4h2.9l14.4-34.4h13L618,669.7z"/>
		<path id="XMLID_1230_" class="st2" d="M729.8,597.3c5.3,5.6,7.8,12.8,7.8,21.4c0,8.7-2.6,15.9-7.8,21.6c-5.2,5.6-12,8.4-20.6,8.4
			c-7.7,0-14.1-2.4-19.1-6.9c-5-4.7-7.9-10.9-8.8-18.5h-11.6v24h-12.4v-57h12.4v22.3h12c1.1-7.1,4.1-12.8,9.1-17.1
			c4.9-4.4,11.1-6.6,18.6-6.6C717.9,588.8,724.7,591.6,729.8,597.3z M725,618.7c0-10.7-5.5-19.1-15.8-19.1
			c-10.3,0-15.9,8.4-15.9,19.1c0,11.1,5.5,19.3,15.9,19.3C719.5,638,725,629.6,725,618.7z"/>
		<path id="XMLID_1235_" class="st2" d="M765.6,647.3v-12h2c7.7,0,10.9-5.4,10.9-21.9v-23.1h46.1v57h-12.7V601h-21.8v12.7
			c0,12.3-1.8,21-5.4,26.1c-3.5,5-9.2,7.5-17.1,7.5H765.6z"/>
		<path id="XMLID_1237_" class="st2" d="M909.1,597.3c5.3,5.6,7.8,12.8,7.8,21.4c0,8.7-2.6,15.9-7.8,21.6c-5.2,5.6-12,8.4-20.6,8.4
			c-7.7,0-14.1-2.4-19.1-6.9c-5-4.7-7.9-10.9-8.8-18.5h-11.6v24h-12.4v-57h12.4v22.3h12c1.1-7.1,4.1-12.8,9.1-17.1
			s11.1-6.6,18.6-6.6C897.1,588.8,904,591.6,909.1,597.3z M904.3,618.7c0-10.7-5.5-19.1-15.8-19.1c-10.3,0-15.9,8.4-15.9,19.1
			c0,11.1,5.5,19.3,15.9,19.3C898.8,638,904.3,629.6,904.3,618.7z"/>
		<path id="XMLID_1240_" class="st2" d="M972.7,599.6c4.9,5.4,7.4,12.2,7.4,20.6c0,8.3-2.7,15.1-7.9,20.5
			c-5.3,5.4-12.2,8.1-20.9,8.1c-18.4,0-29.1-12.4-29.1-34.8c0-10.4,0.9-18.1,3.9-26.3c3.1-8.2,9.3-13.5,18.6-15l14.9-2.5
			c4.4-0.8,5.5-1.2,5.6-4.3H976c-0.3,7.7-2.8,12.7-11.4,14.1l-18.1,2.9c-8.6,1.3-12.3,6.7-14,16.5h2.7c4-5.3,10.1-7.8,18-7.8
			C961.3,591.5,967.9,594.2,972.7,599.6z M963.1,632.7c2.8-3.5,4.1-7.8,4.1-12.9c0-10.2-5.7-17.9-16.1-17.9
			c-10.6,0-16.2,7.7-16.2,17.9c0,5,1.3,9.4,4.1,12.9c2.8,3.5,6.8,5.3,12.1,5.3C956.4,638,960.3,636.2,963.1,632.7z"/>
		<path id="XMLID_1243_" class="st2" d="M1037,590.3v57h-12.7v-20.7h-13.4c-1.8,0-3.1,0-4-0.1l-7.9,20.8h-12.8l9.2-23.5
			c-5.7-3-8.6-8.2-8.6-15.2c0-11.3,7.8-18.2,21.6-18.2H1037z M1024.3,616.7v-16.1h-15c-6.7,0-10.1,2.7-10.1,8.1s3.4,8.1,10.1,8.1
			H1024.3z"/>
		<path id="XMLID_1246_" class="st2" d="M1043.4,601v-10.7h51.1V601h-19.1v46.2h-12.7V601H1043.4z"/>
		<path id="XMLID_1251_" class="st2" d="M1107.5,647.3h-14.4v-15h14.4V647.3z"/>
	</g>
</g>
<g id="XMLID_1340_">
	<path id="XMLID_1341_" class="st3" d="M320,94.4l-2.1-6.7h-9.5l-2.1,6.7h-3.9l7.7-23.2h6.2l7.7,23.2H320z M312.3,75l-2.9,9.3h7.3
		l-3-9.3H312.3z"/>
	<path id="XMLID_1344_" class="st3" d="M335.8,77.8v3.4h-1.5c-3.3,0-5.2,1.9-5.2,5.4v7.7h-3.7V77.8h3.5v1.9h0.8
		c0.9-1.3,2.5-1.9,4.6-1.9H335.8z"/>
	<path id="XMLID_1346_" class="st3" d="M343.4,77.8h3.9V81h-3.9V89c0,1.5,0.8,2.2,2.5,2.2h1.4v3.2h-1.4c-4,0-6.1-1.3-6.1-4.9V81
		h-2.6v-3.1h2.6V73h3.7V77.8z"/>
	<path id="XMLID_1348_" class="st3" d="M363.3,92.4c-1.5,1.6-3.5,2.4-6.1,2.4c-2.6,0-4.6-0.8-6.1-2.4c-1.5-1.6-2.2-3.7-2.2-6.3
		s0.7-4.6,2.2-6.2c1.5-1.6,3.5-2.4,6.1-2.4c2.6,0,4.6,0.8,6.1,2.4c1.5,1.6,2.3,3.7,2.3,6.2S364.8,90.8,363.3,92.4z M357.2,80.5
		c-3,0-4.7,2.4-4.7,5.6c0,3.2,1.7,5.6,4.7,5.6c3,0,4.7-2.4,4.7-5.6C361.9,83,360.2,80.5,357.2,80.5z"/>
	<path id="XMLID_1351_" class="st3" d="M377.3,82.3c-0.2-1.2-1.3-1.8-3.3-1.8c-2,0-3,0.6-3,1.7c0,1,0.6,1.4,2.1,1.7l3.2,0.5
		c3.3,0.6,5,2.2,5,5.1c0,1.5-0.6,2.7-1.9,3.8c-1.2,1-3,1.5-5.2,1.5c-4.7,0-7.2-2-7.6-5.4h3.7c0.3,1.6,1.6,2.4,3.8,2.4
		c2.3,0,3.5-0.7,3.5-2.1c0-1.3-0.8-1.9-2.7-2.2l-3.4-0.6c-2.6-0.4-4.2-1.9-4.2-4.4c0-3,2.3-5,6.8-5c3.9,0,6.4,1.9,6.8,4.8H377.3z"/>
	<path id="XMLID_1353_" class="st3" d="M404.2,77.3c-0.5-2.1-2.1-3.1-4.9-3.1c-2.6,0-4.5,1.1-4.5,3.2c0,1.7,1.3,2.4,3.4,2.9l2.1,0.4
		l2.2,0.4c4.1,0.9,6.1,3.1,6.1,6.7c0,2-0.8,3.7-2.4,5.1c-1.6,1.4-3.8,2-6.7,2c-2.8,0-5-0.6-6.7-2c-1.7-1.3-2.7-3.1-2.9-5.2h4
		c0.4,2.5,2.4,3.8,5.8,3.8c3,0,5-1.3,5-3.5c0-2-1.2-2.9-3.5-3.4c-0.3-0.1-1.1-0.3-2.5-0.5c-1.3-0.3-2-0.4-2-0.4
		c-3.7-0.7-5.8-2.7-5.8-6.1c0-1.9,0.7-3.5,2.2-4.8c1.5-1.3,3.6-1.9,6.2-1.9c4.9,0,8.3,2.5,8.8,6.5H404.2z"/>
	<path id="XMLID_1355_" class="st3" d="M421.8,94.4v-1.5H421c-1,1.3-2.6,2-4.9,2c-1.8,0-3.2-0.5-4.3-1.6c-1.1-1.1-1.6-2.3-1.6-3.9
		c0-1.5,0.6-2.8,1.6-3.9c1.1-1.1,2.7-1.7,4.9-1.7h4.9v-0.5c0-1.9-1.1-3-3.5-3c-2,0-3.2,0.7-3.3,2.1h-3.6c0.2-3.1,2.9-5,6.8-5
		c4.5,0,7.2,2,7.2,6v11H421.8z M420.4,90.6c0.8-0.8,1.3-1.8,1.3-2.9v-1.3h-4.2c-2.3,0-3.5,1-3.5,2.7c0,1.7,1.2,2.7,3.3,2.7
		C418.5,91.8,419.6,91.4,420.4,90.6z"/>
	<path id="XMLID_2504_" class="st3" d="M443.7,94.4h-3.7v-9.6c0-2.7-1.2-4.1-3.7-4.1c-1.3,0-2.3,0.5-3.1,1.4
		c-0.8,0.9-1.2,2.1-1.2,3.4v8.8h-3.7V77.8h3.5v1.6h0.8c1-1.3,2.6-2,4.8-2c4,0,6.2,2.5,6.2,6.6V94.4z"/>
	<path id="XMLID_2506_" class="st3" d="M456.2,82.3c-0.2-1.2-1.3-1.8-3.3-1.8c-2,0-3,0.6-3,1.7c0,1,0.6,1.4,2.1,1.7l3.2,0.5
		c3.3,0.6,5,2.2,5,5.1c0,1.5-0.6,2.7-1.9,3.8c-1.2,1-3,1.5-5.2,1.5c-4.7,0-7.2-2-7.6-5.4h3.7c0.3,1.6,1.6,2.4,3.8,2.4
		c2.3,0,3.5-0.7,3.5-2.1c0-1.3-0.8-1.9-2.7-2.2l-3.4-0.6c-2.6-0.4-4.2-1.9-4.2-4.4c0-3,2.3-5,6.8-5c3.9,0,6.4,1.9,6.8,4.8H456.2z"/>
	<path id="XMLID_2508_" class="st3" d="M304.5,131.9v-23.2h6.2l4.8,10.1h0.8l4.7-10.1h6.2v23.2h-3.7v-18.6h-0.8l-4.9,10.2h-4
		l-4.9-10.2h-0.8v18.6H304.5z"/>
	<path id="XMLID_2510_" class="st3" d="M345.8,123.9h-12.2c0.1,3.5,1.7,5.3,4.6,5.3c1.9,0,3.1-0.7,3.6-2.1h3.7
		c-0.6,3.2-3.2,5.2-7.4,5.2c-2.6,0-4.6-0.8-6-2.4s-2.2-3.7-2.2-6.4c0-2.6,0.7-4.7,2.2-6.2c1.5-1.6,3.5-2.3,6-2.3
		c2.4,0,4.3,0.7,5.6,2.2c1.4,1.5,2.1,3.3,2.1,5.6V123.9z M333.8,121.2h8.3c-0.3-2-1.7-3.3-4-3.3
		C335.6,117.8,334.2,119.1,333.8,121.2z"/>
	<path id="XMLID_2514_" class="st3" d="M359.2,116.9h0.8v-8.7h3.7v23.6h-3.5v-1.6h-0.8c-1.1,1.3-2.7,2-4.9,2s-3.9-0.8-5.2-2.4
		c-1.3-1.6-1.9-3.7-1.9-6.3c0-2.5,0.7-4.6,1.9-6.2c1.3-1.6,3.1-2.4,5.2-2.4S358.2,115.6,359.2,116.9z M360.1,123.6
		c0-3.2-1.6-5.6-4.6-5.6c-2.9,0-4.5,2.2-4.5,5.6c0,3.3,1.6,5.6,4.5,5.6C358.5,129.2,360.1,126.7,360.1,123.6z"/>
	<path id="XMLID_2557_" class="st3" d="M370.8,111.8h-3.8v-3.5h3.8V111.8z M370.8,115.3v16.5h-3.7v-16.5H370.8z"/>
	<path id="XMLID_2560_" class="st3" d="M374.1,115.3h3.7v9.6c0,2.7,1.2,4.1,3.7,4.1c1.3,0,2.3-0.5,3.1-1.4c0.8-0.9,1.2-2.1,1.2-3.4
		v-8.8h3.7v16.5h-3.5v-1.6H385c-1,1.3-2.6,2-4.8,2c-4,0-6.2-2.5-6.2-6.6V115.3z"/>
	<path id="XMLID_2562_" class="st3" d="M416.5,121.3v10.6h-3.7v-9.9c0-2.5-0.9-3.7-2.8-3.7c-2.2,0-3.5,1.8-3.5,4.3v9.4h-3.7V122
		c0-2.5-0.9-3.8-2.8-3.8c-2.3,0-3.5,2-3.5,4.7v9h-3.7v-16.5h3.5v1.5h0.8c0.8-1.3,2.2-1.9,4.2-1.9c2,0,3.4,0.7,4.3,2h0.8
		c1-1.3,2.5-2,4.6-2C414.7,114.9,416.5,117.3,416.5,121.3z"/>
	<path id="XMLID_2564_" class="st3" d="M318.3,150.7l-9.5,18.7h-4l9.5-18.7v-0.8h-11.1v-3.3h15V150.7z"/>
	<path id="XMLID_2566_" class="st3" d="M319.9,153.2c0.3-4.6,3.3-7,8-7c2.3,0,4.1,0.6,5.5,1.9c1.4,1.2,2.1,3,2.1,5.2
		c0,2.7-1.5,5.3-4.6,7.7l-5.3,4.3v0.8h10.5v3.3H320v-4.1l8.2-6.4c2.2-1.7,3.6-3.4,3.6-5.6c0-2.4-1.5-3.8-3.9-3.8
		c-2.3,0-3.8,1.2-4.1,3.6H319.9z"/>
	<path id="XMLID_2582_" class="st3" d="M338.5,152.8h3.5v1.6h0.8c1.1-1.3,2.7-2,4.9-2s3.9,0.8,5.2,2.4c1.3,1.6,2,3.7,2,6.2
		c0,2.6-0.7,4.6-2,6.3c-1.3,1.6-3,2.4-5.2,2.4c-2.1,0-3.7-0.7-4.7-2h-0.8v8.1h-3.7V152.8z M342.1,161.1c0,3.2,1.6,5.6,4.6,5.6
		c2.9,0,4.5-2.2,4.5-5.6c0-3.3-1.6-5.6-4.5-5.6C343.7,155.5,342.1,157.9,342.1,161.1z"/>
	<path id="XMLID_2589_" class="st3" d="M368.1,169.4l-3.6-6.5h-1.2l-3.7,6.5h-3.9l4.9-8.5l-4.5-8.1h3.9l3.3,6.1h1.2l3.4-6.1h3.8
		l-4.5,8l4.9,8.6H368.1z"/>
</g>
</svg>
