<?xml version="1.0" encoding="utf-8"?>
<!-- Generator: Adobe Illustrator 19.0.0, SVG Export Plug-In . SVG Version: 6.00 Build 0)  -->
<svg version="1.1" id="Layer_1" xmlns="http://www.w3.org/2000/svg" xmlns:xlink="http://www.w3.org/1999/xlink" x="0px" y="0px"
	 viewBox="0 0 1500 1425.1" style="enable-background:new 0 0 1500 1425.1;" xml:space="preserve">
<style type="text/css">
	.st0{fill:none;stroke:#36AFA7;stroke-miterlimit:10;}
	.st1{fill:#36AFA7;}
	.st2{fill:#FFFFFF;}
	.st3{font-family:'Formular';}
	.st4{font-size:31.8804px;}
	.st5{font-size:47.3228px;}
</style>
<g id="XMLID_514_">
	<line id="XMLID_820_" class="st0" x1="10.7" y1="892.3" x2="1500" y2="892.3"/>
	<line id="XMLID_819_" class="st0" x1="10.7" y1="998.8" x2="1500" y2="998.8"/>
	<rect id="XMLID_818_" x="1393.5" y="892.3" class="st1" width="106.5" height="106.5"/>
	<text id="XMLID_680_" transform="matrix(1 0 0 1 1437.9355 1062.3107)" class="st2 st3 st4">x</text>
	<line id="XMLID_678_" class="st0" x1="1393.5" y1="1022.9" x2="1500" y2="1022.9"/>
	<rect id="XMLID_817_" x="458.9" y="892.3" class="st1" width="53.3" height="106.5"/>
	<text id="XMLID_679_" transform="matrix(1 0 0 1 453.0082 1062.3107)" class="st2 st3 st4">1/2x</text>
	<line id="XMLID_677_" class="st0" x1="459" y1="1022.9" x2="512.3" y2="1022.9"/>
	<g id="XMLID_681_">
		<g id="XMLID_682_">
			<g id="XMLID_342_">
				<path id="XMLID_358_" class="st2" d="M85.2,998.8V989h-5c-6.5,8.4-17,12.6-31.4,12.6c-11.7,0-20.9-3.3-27.8-10
					c-6.9-6.9-10.3-15.1-10.3-24.9c0-9.6,3.6-18,10.5-25.1c6.9-7.1,17.6-10.7,31.8-10.7h31.4v-3.1c0-12.3-7.3-19.5-22.4-19.5
					c-13.2,0-20.3,4.6-21.3,13.6H17.2c1-19.9,18.6-32.2,44-32.2c28.7,0,46,12.8,46,38.5v70.7H85.2z M76.2,974.5
					c5.4-5.2,8.2-11.5,8.2-18.8v-8.2H57.2c-14.9,0-22.6,6.5-22.6,17.6c0,10.9,8,17.2,21.6,17.2C64.1,982.3,70.8,979.8,76.2,974.5z"
					/>
				<path id="XMLID_356_" class="st2" d="M189.9,892.3v22h-9.6c-21.6,0-33.3,12.3-33.3,34.7v49.8h-23.6V892.3h22.8v12.3h5
					c6.1-8.2,16.1-12.3,29.7-12.3H189.9z"/>
				<path id="XMLID_354_" class="st2" d="M223.3,892.3h25.1v20.1h-25.1v51.9c0,9.4,5.4,14,16.3,14h8.8v20.5h-9.2
					c-25.7,0-39.6-8.6-39.6-31.4V865.3h23.7V892.3z"/>
				<path id="XMLID_351_" class="st2" d="M346.2,986.1c-9.6,10.3-22.6,15.5-39.1,15.5c-16.5,0-29.5-5.2-39.3-15.5
					c-9.6-10.5-14.4-24.1-14.4-40.6c0-16.5,4.8-29.9,14.4-40.2c9.8-10.5,22.8-15.7,39.3-15.7c16.5,0,29.5,5.2,39.1,15.7
					c9.8,10.3,14.6,23.6,14.6,40.2C360.8,962,356,975.6,346.2,986.1z M307,909.7c-19.5,0-30.1,15.7-30.1,35.8
					c0,20.3,10.7,36,30.1,36c19.5,0,30.1-15.7,30.1-36C337.2,925.4,326.5,909.7,307,909.7z"/>
				<path id="XMLID_348_" class="st2" d="M432.5,920.8c-1.3-7.7-8.2-11.5-20.9-11.5c-12.8,0-19.3,3.8-19.3,11.1
					c0,6.5,4.2,9,13.6,10.7l20.7,3.3c21.6,3.6,32.4,14.4,32.4,33.1c0,9.4-4,17.6-12.1,24.3c-8,6.5-19,9.8-33.5,9.8
					c-30.1,0-46.5-13.2-48.8-35h23.7c1.9,10.3,10,15.3,24.7,15.3c14.9,0,22.4-4.6,22.4-13.8c0-8.2-5-11.9-17.4-14.2l-22.2-3.8
					c-16.7-2.7-27.2-12.1-27.2-28c0-19,15.1-32.4,43.7-32.4c25.3,0,41.4,12.1,43.7,31.2H432.5z"/>
			</g>
		</g>
	</g>
	<g id="XMLID_99_">
		<g id="XMLID_132_">
			<path id="XMLID_187_" class="st2" d="M548.9,912.6c0,11.3-6.4,20.3-18.3,20.3c-12,0-18.3-9.1-18.3-20.3
				c0-11.3,6.3-20.3,18.3-20.3C542.5,892.3,548.9,901.4,548.9,912.6z M543.9,912.6c0-8.2-4-15.8-13.3-15.8
				c-9.3,0-13.3,7.6-13.3,15.8c0,8.2,4,15.8,13.3,15.8C539.9,928.5,543.9,920.8,543.9,912.6z"/>
			<path id="XMLID_184_" class="st2" d="M585.1,928.2v11.9h-4.6v-7.9h-24v7.9H552v-11.9h3.7c1.8-3.7,3.4-9.2,3.4-16v-7.6H580v23.6
				H585.1z M575.3,908.6h-11.9v3.5c0,7-1.3,12.3-3,16h14.9V908.6z"/>
			<path id="XMLID_181_" class="st2" d="M615.1,918.3H594c0.2,6.6,3.1,10.6,8.8,10.6c3.9,0,6.2-1.6,7-4.3h4.7
				c-0.9,4.7-4.9,8.4-11.8,8.4c-8.6,0-13.5-6.3-13.5-14.8c0-8.5,4.9-14.3,13.4-14.3c8.2,0,12.2,6.1,12.4,12.9V918.3z M594.3,914.4
				h16c-0.3-3.5-3-6.5-7.6-6.5C597.7,907.9,594.9,910.9,594.3,914.4z"/>
			<path id="XMLID_179_" class="st2" d="M624.9,932.2H620l6.3-14.2l-5.9-13.5h4.8l5,11.5h7.1v-11.5h4.5V916h7.1l5-11.5h4.8
				l-5.9,13.5l6.3,14.2h-4.9l-5.3-12.1h-7.1v12.1h-4.5v-12.1h-7.1L624.9,932.2z"/>
			<path id="XMLID_176_" class="st2" d="M695.6,928.2v11.9H691v-7.9h-24v7.9h-4.6v-11.9h3.7c1.8-3.7,3.4-9.2,3.4-16v-7.6h20.9v23.6
				H695.6z M685.8,908.6H674v3.5c0,7-1.3,12.3-3,16h14.9V908.6z"/>
			<path id="XMLID_173_" class="st2" d="M719.3,929.3h-1.2c-1.7,2.1-4.7,3.6-8.6,3.6c-6.4,0-9.9-4.3-9.9-9c0-4.5,2.9-9.2,10.6-9.2h9
				v-1.1c0-3.4-1.9-5.8-6.8-5.8c-4.1,0-6.2,1.6-6.4,4h-4.7c0.4-5.1,4.8-8.1,11-8.1c7,0,11.4,3.4,11.4,9.6v18.9h-4.4V929.3z
				 M719.1,921v-2.5h-8.3c-4.6,0-6.7,2-6.7,5.3c0,3.1,2.3,5.1,6.4,5.1C715.2,928.9,719.1,925.4,719.1,921z"/>
			<path id="XMLID_171_" class="st2" d="M767.3,932.2v-23.6h-15.1v23.6h-4.7v-27.7H772v27.7H767.3z"/>
			<path id="XMLID_168_" class="st2" d="M785.5,904.5v3h1.2c1.5-1.9,4.2-3.7,8.6-3.7c7.6,0,12.1,6.4,12.1,14.6
				c0,8.4-4.5,14.6-12.1,14.6c-4.4,0-7-1.7-8.5-3.7h-1.2v14H781v-38.7H785.5z M785.6,918.4c0,5.4,2.5,10.5,8.7,10.5
				c5.6,0,8.5-4.3,8.5-10.5s-3-10.5-8.5-10.5C788.2,907.9,785.6,913,785.6,918.4z"/>
			<path id="XMLID_165_" class="st2" d="M840.4,918.4c0,8.2-5,14.6-13.6,14.6c-8.7,0-13.6-6.4-13.6-14.6c0-8.2,4.9-14.6,13.6-14.6
				C835.4,903.8,840.4,910.2,840.4,918.4z M835.7,918.4c0-5.4-2.9-10.5-9-10.5c-6.2,0-9,5.1-9,10.5c0,5.4,2.8,10.5,9,10.5
				C832.9,928.9,835.7,923.8,835.7,918.4z"/>
			<path id="XMLID_161_" class="st2" d="M865.2,943.2h-4.6v-11h-0.9c-8.8,0-13.7-5.8-13.7-13.9c0-8,4.8-13.9,13.6-13.9h0.9v-12.3
				h4.6v12.3h0.9c8.7,0,13.6,5.8,13.6,13.9c0,8.5-5.2,13.9-14.5,13.9V943.2z M859.7,928.3h0.9v-19.8h-0.9c-6.2,0-9.1,4.5-9.1,9.9
				C850.6,923.8,853.5,928.3,859.7,928.3z M865.9,928.3c6.2,0,9.1-4.5,9.1-9.9c0-5.4-2.9-9.9-9.1-9.9h-0.8v19.8H865.9z"/>
			<path id="XMLID_158_" class="st2" d="M911,918.3h-21.1c0.2,6.6,3.1,10.6,8.8,10.6c3.9,0,6.2-1.6,7-4.3h4.7
				c-0.9,4.7-4.9,8.4-11.8,8.4c-8.6,0-13.5-6.3-13.5-14.8c0-8.5,4.9-14.3,13.4-14.3c8.2,0,12.2,6.1,12.4,12.9V918.3z M890.2,914.4
				h16c-0.3-3.5-3-6.5-7.6-6.5C893.5,907.9,890.8,910.9,890.2,914.4z"/>
			<path id="XMLID_156_" class="st2" d="M941.7,923.9c-1,5.4-5.2,9.1-11.7,9.1c-8.6,0-13.5-6.4-13.5-14.6c0-8.4,4.8-14.6,13.5-14.6
				c6.6,0,10.6,3.6,11.5,8.7h-4.7c-0.9-2.8-3-4.7-6.8-4.7c-6.3,0-8.8,4.9-8.8,10.4c0,5.6,2.6,10.6,8.8,10.6c4,0,6.3-1.9,7-5H941.7z"
				/>
			<path id="XMLID_154_" class="st2" d="M972.1,923.9c-1,5.4-5.2,9.1-11.7,9.1c-8.6,0-13.5-6.4-13.5-14.6c0-8.4,4.8-14.6,13.5-14.6
				c6.6,0,10.6,3.6,11.5,8.7h-4.7c-0.9-2.8-3-4.7-6.8-4.7c-6.3,0-8.8,4.9-8.8,10.4c0,5.6,2.6,10.6,8.8,10.6c4,0,6.3-1.9,7-5H972.1z"
				/>
			<path id="XMLID_152_" class="st2" d="M979.1,932.2v-27.7h4.6V926h1.2l12.1-21.4h6.8v27.7h-4.6v-21.4H998l-12.4,21.4H979.1z"/>
			<path id="XMLID_149_" class="st2" d="M1038.4,918.4c0,8.2-5,14.6-13.6,14.6c-8.7,0-13.6-6.4-13.6-14.6c0-8.2,4.9-14.6,13.6-14.6
				C1033.4,903.8,1038.4,910.2,1038.4,918.4z M1033.7,918.4c0-5.4-2.9-10.5-9-10.5c-6.2,0-9,5.1-9,10.5c0,5.4,2.8,10.5,9,10.5
				C1030.8,928.9,1033.7,923.8,1033.7,918.4z"/>
			<path id="XMLID_147_" class="st2" d="M1065.7,932.2V920h-15.3v12.2h-4.7v-27.7h4.7V916h15.3v-11.4h4.7v27.7H1065.7z"/>
			<path id="XMLID_144_" class="st2" d="M1097,929.3h-1.2c-1.7,2.1-4.7,3.6-8.6,3.6c-6.4,0-9.9-4.3-9.9-9c0-4.5,2.9-9.2,10.6-9.2h9
				v-1.1c0-3.4-1.9-5.8-6.8-5.8c-4.1,0-6.2,1.6-6.4,4h-4.7c0.4-5.1,4.8-8.1,11-8.1c7,0,11.4,3.4,11.4,9.6v18.9h-4.4V929.3z
				 M1096.8,921v-2.5h-8.3c-4.6,0-6.7,2-6.7,5.3c0,3.1,2.3,5.1,6.4,5.1C1092.9,928.9,1096.8,925.4,1096.8,921z"/>
			<path id="XMLID_142_" class="st2" d="M1106.8,927.8h0.9c3.7,0,5.4-2.7,5.4-12.6v-10.7h21.2v27.7h-4.7v-23.6h-12.1v6.8
				c0,12.8-3,16.9-9.8,16.9h-0.9V927.8z"/>
			<path id="XMLID_139_" class="st2" d="M1168.9,918.4c0,8.2-5,14.6-13.6,14.6c-8.7,0-13.6-6.4-13.6-14.6c0-8.2,4.9-14.6,13.6-14.6
				C1163.9,903.8,1168.9,910.2,1168.9,918.4z M1164.3,918.4c0-5.4-2.9-10.5-9-10.5c-6.2,0-9,5.1-9,10.5c0,5.4,2.8,10.5,9,10.5
				C1161.4,928.9,1164.3,923.8,1164.3,918.4z"/>
			<path id="XMLID_135_" class="st2" d="M1195.8,918.2c2.6,0.7,4.5,2.9,4.5,6.5c0,5.1-3.5,7.6-9.8,7.6h-14.2v-27.7h13.7
				c5.6,0,8.7,2.6,8.7,7c0,2.7-1.4,4.6-3,5.4V918.2z M1180.9,916h8.7c3.4,0,4.5-1.8,4.5-3.7c0-2.1-1.2-3.8-4.5-3.8h-8.7V916z
				 M1190.2,928.3c4,0,5.4-1.8,5.4-4.1c0-2.4-1.4-4.2-5.4-4.2h-9.3v8.3H1190.2z"/>
			<path id="XMLID_133_" class="st2" d="M1206.4,932.2v-6.4h5.7v7.4l-3.1,5.3h-3l3.1-5.3v-1H1206.4z"/>
		</g>
		<g id="XMLID_100_">
			<path id="XMLID_130_" class="st2" d="M525.2,986.6h-8.3v12.2h-4.7v-27.7h4.7v11.4h8.4l5.8-11.4h4.9l-6.8,13.4l7.1,14.3h-5
				L525.2,986.6z"/>
			<path id="XMLID_127_" class="st2" d="M567.8,984.9c0,8.2-5,14.6-13.6,14.6c-8.7,0-13.6-6.4-13.6-14.6c0-8.2,4.9-14.6,13.6-14.6
				C562.8,970.4,567.8,976.7,567.8,984.9z M563.1,984.9c0-5.4-2.9-10.5-9-10.5c-6.2,0-9,5.1-9,10.5c0,5.4,2.8,10.5,9,10.5
				C560.2,995.4,563.1,990.4,563.1,984.9z"/>
			<path id="XMLID_125_" class="st2" d="M571.7,971.1h23.9v4.1H586v23.6h-4.7v-23.6h-9.6V971.1z"/>
			<path id="XMLID_122_" class="st2" d="M626.8,984.9c0,8.2-5,14.6-13.6,14.6c-8.7,0-13.6-6.4-13.6-14.6c0-8.2,4.9-14.6,13.6-14.6
				C621.8,970.4,626.8,976.7,626.8,984.9z M622.1,984.9c0-5.4-2.9-10.5-9-10.5c-6.2,0-9,5.1-9,10.5c0,5.4,2.8,10.5,9,10.5
				C619.3,995.4,622.1,990.4,622.1,984.9z"/>
			<path id="XMLID_119_" class="st2" d="M638.6,971.1v3h1.2c1.5-1.9,4.2-3.7,8.6-3.7c7.6,0,12.1,6.4,12.1,14.6
				c0,8.4-4.5,14.6-12.1,14.6c-4.4,0-7-1.7-8.5-3.7h-1.2v14h-4.7v-38.7H638.6z M638.7,984.9c0,5.4,2.5,10.5,8.7,10.5
				c5.6,0,8.5-4.3,8.5-10.5s-3-10.5-8.5-10.5C641.3,974.4,638.7,979.5,638.7,984.9z"/>
			<path id="XMLID_117_" class="st2" d="M670,1009.8l5.7-13.6l-11.8-25.1h5l8.5,18.2h1.4l7.7-18.2h4.9l-16.6,38.7H670z"/>
			<path id="XMLID_114_" class="st2" d="M734.5,984.9c0,8.1-5,14.6-13.4,14.6c-7.8,0-12.7-5.6-13.3-12.9h-6.3v12.2h-4.6v-27.7h4.6
				v11.4h6.5c0.9-7,5.7-12.1,13.1-12.1C729.5,970.4,734.5,976.8,734.5,984.9z M729.8,984.9c0-5.4-2.8-10.5-8.7-10.5
				c-6,0-8.7,5.1-8.7,10.5c0,5.4,2.7,10.5,8.7,10.5C727,995.4,729.8,990.4,729.8,984.9z"/>
			<path id="XMLID_112_" class="st2" d="M753.9,994.4h0.9c3.7,0,5.4-2.7,5.4-12.6v-10.7h21.2v27.7h-4.7v-23.6h-12.1v6.8
				c0,12.8-3,16.9-9.8,16.9h-0.9V994.4z"/>
			<path id="XMLID_109_" class="st2" d="M828.1,984.9c0,8.1-5,14.6-13.4,14.6c-7.8,0-12.7-5.6-13.3-12.9h-6.3v12.2h-4.6v-27.7h4.6
				v11.4h6.5c0.9-7,5.7-12.1,13.1-12.1C823.1,970.4,828.1,976.8,828.1,984.9z M823.5,984.9c0-5.4-2.8-10.5-8.7-10.5
				c-6,0-8.7,5.1-8.7,10.5c0,5.4,2.7,10.5,8.7,10.5C820.7,995.4,823.5,990.4,823.5,984.9z"/>
			<path id="XMLID_106_" class="st2" d="M861.2,985.4c0,7.9-5.1,14.1-13.7,14.1c-8.8,0-13.8-6-13.8-16.8c0-9.3,1.3-19,10.9-20.6
				l7.4-1.2c2-0.3,2.5-0.5,2.7-2.1h4.3c-0.2,3.1-1.2,5.4-5.4,6.2l-8.5,1.4c-4.9,0.9-6.6,4.3-7.2,9h1.2c2.4-3.1,5.1-4,9-4
				C856.4,971.4,861.2,977.6,861.2,985.4z M856.4,985.4c0-5.2-2.9-10-9-10s-9,4.8-9,10c0,5.1,2.9,10.1,9,10.1
				S856.4,990.5,856.4,985.4z"/>
			<path id="XMLID_103_" class="st2" d="M891.3,971.1v27.7h-4.7v-10.9h-8.4c-0.6,0-1.1,0-1.7-0.1l-4.2,11h-4.9l4.7-12
				c-2.9-1.4-4.3-3.8-4.3-7.3c0-5.3,3.4-8.4,9.7-8.4H891.3z M878,975c-4.2,0-5.6,1.7-5.6,4.5c0,2.7,1.4,4.3,5.6,4.3h8.6V975H878z"/>
			<path id="XMLID_101_" class="st2" d="M897.4,971.1h23.9v4.1h-9.6v23.6H907v-23.6h-9.6V971.1z"/>
			<path id="XMLID_190_" class="st2" d="M923.4,998.8v-6.4h5.7v6.4H923.4z"/>
		</g>
	</g>
</g>
<g id="XMLID_1304_">
	<rect id="XMLID_349_" x="448.4" y="1203.5" class="st1" width="106.5" height="106.5"/>
	<line id="XMLID_347_" class="st0" x1="0" y1="1203.5" x2="1489.3" y2="1203.5"/>
	<line id="XMLID_346_" class="st0" x1="0" y1="1310" x2="1489.3" y2="1310"/>
	<rect id="XMLID_345_" x="1382.8" y="1203.5" class="st1" width="106.5" height="106.5"/>
	<text id="XMLID_344_" transform="matrix(1 0 0 1 1427.2344 1373.5411)" class="st2 st3 st4">x</text>
	<line id="XMLID_343_" class="st0" x1="1382.8" y1="1334.1" x2="1489.3" y2="1334.1"/>
	<text id="XMLID_341_" transform="matrix(1 0 0 1 492.8266 1373.5411)" class="st2 st3 st4">x</text>
	<line id="XMLID_340_" class="st0" x1="448.3" y1="1334.1" x2="554.9" y2="1334.1"/>
	<g id="XMLID_312_">
		<g id="XMLID_313_">
			<g id="XMLID_314_">
				<path id="XMLID_324_" class="st2" d="M74.5,1310v-9.8h-5c-6.5,8.4-17,12.6-31.4,12.6c-11.7,0-20.9-3.3-27.8-10
					c-6.9-6.9-10.3-15.1-10.3-24.9c0-9.6,3.6-18,10.5-25.1c6.9-7.1,17.6-10.7,31.8-10.7h31.4v-3.1c0-12.3-7.3-19.5-22.4-19.5
					c-13.2,0-20.3,4.6-21.3,13.6H6.5c1-19.9,18.6-32.2,44-32.2c28.7,0,46,12.8,46,38.5v70.7H74.5z M65.5,1285.8
					c5.4-5.2,8.2-11.5,8.2-18.8v-8.2H46.5c-14.9,0-22.6,6.5-22.6,17.6c0,10.9,8,17.2,21.6,17.2C53.4,1293.5,60.1,1291,65.5,1285.8z"
					/>
				<path id="XMLID_322_" class="st2" d="M179.2,1203.5v22h-9.6c-21.6,0-33.3,12.3-33.3,34.7v49.8h-23.6v-106.5h22.8v12.3h5
					c6.1-8.2,16.1-12.3,29.7-12.3H179.2z"/>
				<path id="XMLID_320_" class="st2" d="M212.6,1203.5h25.1v20.1h-25.1v51.9c0,9.4,5.4,14,16.3,14h8.8v20.5h-9.2
					c-25.7,0-39.6-8.6-39.6-31.4v-102.1h23.7V1203.5z"/>
				<path id="XMLID_317_" class="st2" d="M335.5,1297.3c-9.6,10.3-22.6,15.5-39.1,15.5c-16.5,0-29.5-5.2-39.3-15.5
					c-9.6-10.5-14.4-24.1-14.4-40.6c0-16.5,4.8-29.9,14.4-40.2c9.8-10.5,22.8-15.7,39.3-15.7c16.5,0,29.5,5.2,39.1,15.7
					c9.8,10.3,14.6,23.6,14.6,40.2C350.1,1273.2,345.3,1286.8,335.5,1297.3z M296.3,1220.9c-19.5,0-30.1,15.7-30.1,35.8
					c0,20.3,10.7,36,30.1,36c19.5,0,30.1-15.7,30.1-36C326.5,1236.6,315.8,1220.9,296.3,1220.9z"/>
				<path id="XMLID_315_" class="st2" d="M421.8,1232c-1.3-7.7-8.2-11.5-20.9-11.5c-12.8,0-19.3,3.8-19.3,11.1
					c0,6.5,4.2,9,13.6,10.7l20.7,3.3c21.6,3.6,32.4,14.4,32.4,33.1c0,9.4-4,17.6-12.1,24.3c-8,6.5-19,9.8-33.5,9.8
					c-30.1,0-46.5-13.2-48.8-35h23.7c1.9,10.3,10,15.3,24.7,15.3c14.9,0,22.4-4.6,22.4-13.8c0-8.2-5-11.9-17.4-14.2l-22.2-3.8
					c-16.7-2.7-27.2-12.1-27.2-28c0-19,15.1-32.4,43.7-32.4c25.3,0,41.4,12.1,43.7,31.2H421.8z"/>
			</g>
		</g>
	</g>
	<g id="XMLID_192_">
		<g id="XMLID_226_">
			<path id="XMLID_283_" class="st2" d="M591.5,1223.9c0,11.3-6.4,20.3-18.3,20.3c-12,0-18.3-9.1-18.3-20.3
				c0-11.3,6.3-20.3,18.3-20.3C585.1,1203.5,591.5,1212.6,591.5,1223.9z M586.5,1223.9c0-8.2-4-15.8-13.3-15.8
				c-9.3,0-13.3,7.6-13.3,15.8c0,8.2,4,15.8,13.3,15.8C582.5,1239.7,586.5,1232,586.5,1223.9z"/>
			<path id="XMLID_280_" class="st2" d="M627.7,1239.4v11.9h-4.6v-7.9h-24v7.9h-4.6v-11.9h3.7c1.8-3.7,3.4-9.2,3.4-16v-7.6h20.9
				v23.6H627.7z M617.9,1219.8h-11.9v3.5c0,7-1.3,12.3-3,16h14.9V1219.8z"/>
			<path id="XMLID_277_" class="st2" d="M657.8,1229.6h-21.1c0.2,6.6,3.1,10.6,8.8,10.6c3.9,0,6.2-1.6,7-4.3h4.7
				c-0.9,4.7-4.9,8.4-11.8,8.4c-8.6,0-13.5-6.3-13.5-14.8c0-8.5,4.9-14.3,13.4-14.3c8.2,0,12.2,6.1,12.4,12.9V1229.6z M636.9,1225.7
				h16c-0.3-3.5-3-6.5-7.6-6.5C640.3,1219.1,637.5,1222.1,636.9,1225.7z"/>
			<path id="XMLID_275_" class="st2" d="M667.6,1243.5h-4.9l6.3-14.2l-5.9-13.5h4.8l5,11.5h7.1v-11.5h4.5v11.5h7.1l5-11.5h4.8
				l-5.9,13.5l6.3,14.2h-4.9l-5.3-12.1h-7.1v12.1H680v-12.1h-7.1L667.6,1243.5z"/>
			<path id="XMLID_272_" class="st2" d="M738.2,1239.4v11.9h-4.6v-7.9h-24v7.9h-4.6v-11.9h3.7c1.8-3.7,3.4-9.2,3.4-16v-7.6h20.9
				v23.6H738.2z M728.5,1219.8h-11.9v3.5c0,7-1.3,12.3-3,16h14.9V1219.8z"/>
			<path id="XMLID_267_" class="st2" d="M761.9,1240.6h-1.2c-1.7,2.1-4.7,3.6-8.6,3.6c-6.4,0-9.9-4.3-9.9-9c0-4.5,2.9-9.2,10.6-9.2
				h9v-1.1c0-3.4-1.9-5.8-6.8-5.8c-4.1,0-6.2,1.6-6.4,4h-4.7c0.4-5.1,4.8-8.1,11-8.1c7,0,11.4,3.4,11.4,9.6v18.9h-4.4V1240.6z
				 M761.8,1232.3v-2.5h-8.3c-4.6,0-6.7,2-6.7,5.3c0,3.1,2.3,5.1,6.4,5.1C757.9,1240.1,761.8,1236.7,761.8,1232.3z"/>
			<path id="XMLID_265_" class="st2" d="M810,1243.5v-23.6h-15.1v23.6h-4.7v-27.7h24.5v27.7H810z"/>
			<path id="XMLID_262_" class="st2" d="M828.2,1215.8v3h1.2c1.5-1.9,4.2-3.7,8.6-3.7c7.6,0,12.1,6.4,12.1,14.6
				c0,8.4-4.5,14.6-12.1,14.6c-4.4,0-7-1.7-8.5-3.7h-1.2v14h-4.7v-38.7H828.2z M828.3,1229.6c0,5.4,2.5,10.5,8.7,10.5
				c5.6,0,8.5-4.3,8.5-10.5c0-6.2-3-10.5-8.5-10.5C830.8,1219.1,828.3,1224.2,828.3,1229.6z"/>
			<path id="XMLID_259_" class="st2" d="M883,1229.6c0,8.2-5,14.6-13.6,14.6c-8.7,0-13.6-6.4-13.6-14.6c0-8.2,4.9-14.6,13.6-14.6
				C878,1215.1,883,1221.4,883,1229.6z M878.3,1229.6c0-5.4-2.9-10.5-9-10.5c-6.2,0-9,5.1-9,10.5c0,5.4,2.8,10.5,9,10.5
				C875.5,1240.1,878.3,1235.1,878.3,1229.6z"/>
			<path id="XMLID_255_" class="st2" d="M907.8,1254.5h-4.6v-11h-0.9c-8.8,0-13.7-5.8-13.7-13.9c0-8,4.8-13.9,13.6-13.9h0.9v-12.3
				h4.6v12.3h0.9c8.7,0,13.6,5.8,13.6,13.9c0,8.5-5.2,13.9-14.5,13.9V1254.5z M902.3,1239.5h0.9v-19.8h-0.9c-6.2,0-9.1,4.5-9.1,9.9
				C893.2,1235,896.1,1239.5,902.3,1239.5z M908.6,1239.5c6.2,0,9.1-4.5,9.1-9.9c0-5.4-2.9-9.9-9.1-9.9h-0.8v19.8H908.6z"/>
			<path id="XMLID_252_" class="st2" d="M953.6,1229.6h-21.1c0.2,6.6,3.1,10.6,8.8,10.6c3.9,0,6.2-1.6,7-4.3h4.7
				c-0.9,4.7-4.9,8.4-11.8,8.4c-8.6,0-13.5-6.3-13.5-14.8c0-8.5,4.9-14.3,13.4-14.3c8.2,0,12.2,6.1,12.4,12.9V1229.6z M932.8,1225.7
				h16c-0.3-3.5-3-6.5-7.6-6.5C936.2,1219.1,933.4,1222.1,932.8,1225.7z"/>
			<path id="XMLID_250_" class="st2" d="M984.3,1235.1c-1,5.4-5.2,9.1-11.7,9.1c-8.6,0-13.5-6.4-13.5-14.6c0-8.4,4.8-14.6,13.5-14.6
				c6.6,0,10.6,3.6,11.5,8.7h-4.7c-0.9-2.8-3-4.7-6.8-4.7c-6.3,0-8.8,4.9-8.8,10.4c0,5.6,2.6,10.6,8.8,10.6c4,0,6.3-1.9,7-5H984.3z"
				/>
			<path id="XMLID_248_" class="st2" d="M1014.7,1235.1c-1,5.4-5.2,9.1-11.7,9.1c-8.6,0-13.5-6.4-13.5-14.6
				c0-8.4,4.8-14.6,13.5-14.6c6.6,0,10.6,3.6,11.5,8.7h-4.7c-0.9-2.8-3-4.7-6.8-4.7c-6.3,0-8.8,4.9-8.8,10.4
				c0,5.6,2.6,10.6,8.8,10.6c4,0,6.3-1.9,7-5H1014.7z"/>
			<path id="XMLID_246_" class="st2" d="M1021.7,1243.5v-27.7h4.6v21.4h1.2l12.1-21.4h6.8v27.7h-4.6V1222h-1.2l-12.4,21.4H1021.7z"
				/>
			<path id="XMLID_243_" class="st2" d="M1081,1229.6c0,8.2-5,14.6-13.6,14.6c-8.7,0-13.6-6.4-13.6-14.6c0-8.2,4.9-14.6,13.6-14.6
				C1076,1215.1,1081,1221.4,1081,1229.6z M1076.3,1229.6c0-5.4-2.9-10.5-9-10.5c-6.2,0-9,5.1-9,10.5c0,5.4,2.8,10.5,9,10.5
				C1073.5,1240.1,1076.3,1235.1,1076.3,1229.6z"/>
			<path id="XMLID_241_" class="st2" d="M1108.3,1243.5v-12.2H1093v12.2h-4.7v-27.7h4.7v11.4h15.3v-11.4h4.7v27.7H1108.3z"/>
			<path id="XMLID_238_" class="st2" d="M1139.6,1240.6h-1.2c-1.7,2.1-4.7,3.6-8.6,3.6c-6.4,0-9.9-4.3-9.9-9c0-4.5,2.9-9.2,10.6-9.2
				h9v-1.1c0-3.4-1.9-5.8-6.8-5.8c-4.1,0-6.2,1.6-6.4,4h-4.7c0.4-5.1,4.8-8.1,11-8.1c7,0,11.4,3.4,11.4,9.6v18.9h-4.4V1240.6z
				 M1139.5,1232.3v-2.5h-8.3c-4.6,0-6.7,2-6.7,5.3c0,3.1,2.3,5.1,6.4,5.1C1135.6,1240.1,1139.5,1236.7,1139.5,1232.3z"/>
			<path id="XMLID_236_" class="st2" d="M1149.5,1239.1h0.9c3.7,0,5.4-2.7,5.4-12.6v-10.7h21.2v27.7h-4.7v-23.6h-12.1v6.8
				c0,12.8-3,16.9-9.8,16.9h-0.9V1239.1z"/>
			<path id="XMLID_233_" class="st2" d="M1211.6,1229.6c0,8.2-5,14.6-13.6,14.6c-8.7,0-13.6-6.4-13.6-14.6c0-8.2,4.9-14.6,13.6-14.6
				C1206.6,1215.1,1211.6,1221.4,1211.6,1229.6z M1206.9,1229.6c0-5.4-2.9-10.5-9-10.5c-6.2,0-9,5.1-9,10.5c0,5.4,2.8,10.5,9,10.5
				C1204,1240.1,1206.9,1235.1,1206.9,1229.6z"/>
			<path id="XMLID_229_" class="st2" d="M1238.4,1229.4c2.6,0.7,4.5,2.9,4.5,6.5c0,5.1-3.5,7.6-9.8,7.6h-14.2v-27.7h13.7
				c5.6,0,8.7,2.6,8.7,7c0,2.7-1.4,4.6-3,5.4V1229.4z M1223.5,1227.3h8.7c3.4,0,4.5-1.8,4.5-3.7c0-2.1-1.2-3.8-4.5-3.8h-8.7V1227.3z
				 M1232.8,1239.5c4,0,5.4-1.8,5.4-4.1c0-2.4-1.4-4.2-5.4-4.2h-9.3v8.3H1232.8z"/>
			<path id="XMLID_227_" class="st2" d="M1249.1,1243.5v-6.4h5.7v7.4l-3.1,5.3h-3l3.1-5.3v-1H1249.1z"/>
		</g>
		<g id="XMLID_193_">
			<path id="XMLID_224_" class="st2" d="M567.9,1297.8h-8.3v12.2h-4.7v-27.7h4.7v11.4h8.4l5.8-11.4h4.9l-6.8,13.4l7.1,14.3h-5
				L567.9,1297.8z"/>
			<path id="XMLID_221_" class="st2" d="M610.4,1296.2c0,8.2-5,14.6-13.6,14.6c-8.7,0-13.6-6.4-13.6-14.6c0-8.2,4.9-14.6,13.6-14.6
				C605.4,1281.6,610.4,1288,610.4,1296.2z M605.7,1296.2c0-5.4-2.9-10.5-9-10.5c-6.2,0-9,5.1-9,10.5c0,5.4,2.8,10.5,9,10.5
				C602.9,1306.7,605.7,1301.6,605.7,1296.2z"/>
			<path id="XMLID_219_" class="st2" d="M614.3,1282.3h23.9v4.1h-9.6v23.6h-4.7v-23.6h-9.6V1282.3z"/>
			<path id="XMLID_216_" class="st2" d="M669.4,1296.2c0,8.2-5,14.6-13.6,14.6c-8.7,0-13.6-6.4-13.6-14.6c0-8.2,4.9-14.6,13.6-14.6
				C664.4,1281.6,669.4,1288,669.4,1296.2z M664.8,1296.2c0-5.4-2.9-10.5-9-10.5c-6.2,0-9,5.1-9,10.5c0,5.4,2.8,10.5,9,10.5
				C661.9,1306.7,664.8,1301.6,664.8,1296.2z"/>
			<path id="XMLID_213_" class="st2" d="M681.2,1282.3v3h1.2c1.5-1.9,4.2-3.7,8.6-3.7c7.6,0,12.1,6.4,12.1,14.6
				c0,8.4-4.5,14.6-12.1,14.6c-4.4,0-7-1.7-8.5-3.7h-1.2v14h-4.7v-38.7H681.2z M681.4,1296.2c0,5.4,2.5,10.5,8.7,10.5
				c5.6,0,8.5-4.3,8.5-10.5c0-6.2-3-10.5-8.5-10.5C683.9,1285.7,681.4,1290.7,681.4,1296.2z"/>
			<path id="XMLID_211_" class="st2" d="M712.6,1321l5.7-13.6l-11.8-25.1h5l8.5,18.2h1.4l7.7-18.2h4.9l-16.6,38.7H712.6z"/>
			<path id="XMLID_208_" class="st2" d="M777.1,1296.2c0,8.1-5,14.6-13.4,14.6c-7.8,0-12.7-5.6-13.3-12.9h-6.3v12.2h-4.6v-27.7h4.6
				v11.4h6.5c0.9-7,5.7-12.1,13.1-12.1C772.1,1281.6,777.1,1288,777.1,1296.2z M772.4,1296.2c0-5.4-2.8-10.5-8.7-10.5
				c-6,0-8.7,5.1-8.7,10.5c0,5.4,2.7,10.5,8.7,10.5C769.6,1306.7,772.4,1301.6,772.4,1296.2z"/>
			<path id="XMLID_206_" class="st2" d="M796.6,1305.6h0.9c3.7,0,5.4-2.7,5.4-12.6v-10.7h21.2v27.7h-4.7v-23.6h-12.1v6.8
				c0,12.8-3,16.9-9.8,16.9h-0.9V1305.6z"/>
			<path id="XMLID_203_" class="st2" d="M870.8,1296.2c0,8.1-5,14.6-13.4,14.6c-7.8,0-12.7-5.6-13.3-12.9h-6.3v12.2h-4.6v-27.7h4.6
				v11.4h6.5c0.9-7,5.7-12.1,13.1-12.1C865.8,1281.6,870.8,1288,870.8,1296.2z M866.1,1296.2c0-5.4-2.8-10.5-8.7-10.5
				c-6,0-8.7,5.1-8.7,10.5c0,5.4,2.7,10.5,8.7,10.5C863.3,1306.7,866.1,1301.6,866.1,1296.2z"/>
			<path id="XMLID_200_" class="st2" d="M903.8,1296.7c0,7.9-5.1,14.1-13.7,14.1c-8.8,0-13.8-6-13.8-16.8c0-9.3,1.3-19,10.9-20.6
				l7.4-1.2c2-0.3,2.5-0.5,2.7-2.1h4.3c-0.2,3.1-1.2,5.4-5.4,6.2l-8.5,1.4c-4.9,0.9-6.6,4.3-7.2,9h1.2c2.4-3.1,5.1-4,9-4
				C899.1,1282.6,903.8,1288.8,903.8,1296.7z M899.1,1296.6c0-5.2-2.9-10-9-10c-6.2,0-9,4.8-9,10c0,5.1,2.9,10.1,9,10.1
				C896.2,1306.7,899.1,1301.7,899.1,1296.6z"/>
			<path id="XMLID_197_" class="st2" d="M933.9,1282.3v27.7h-4.7v-10.9h-8.4c-0.6,0-1.1,0-1.7-0.1l-4.2,11H910l4.7-12
				c-2.9-1.4-4.3-3.8-4.3-7.3c0-5.3,3.4-8.4,9.7-8.4H933.9z M920.6,1286.3c-4.2,0-5.6,1.7-5.6,4.5c0,2.7,1.4,4.3,5.6,4.3h8.6v-8.8
				H920.6z"/>
			<path id="XMLID_195_" class="st2" d="M940,1282.3h23.9v4.1h-9.6v23.6h-4.7v-23.6H940V1282.3z"/>
			<path id="XMLID_194_" class="st2" d="M966,1310v-6.4h5.7v6.4H966z"/>
		</g>
	</g>
	<rect id="XMLID_284_" x="500" y="1190.2" class="st2" width="3.3" height="133.2"/>
</g>
<g id="XMLID_97_">
	<line id="XMLID_667_" class="st0" x1="10.7" y1="404.7" x2="1498.5" y2="404.7"/>
	<line id="XMLID_669_" class="st0" x1="10.7" y1="562.8" x2="1498.5" y2="562.8"/>
	<rect id="XMLID_668_" x="1341.9" y="404.7" class="st1" width="158.1" height="158.1"/>
	<text id="XMLID_671_" transform="matrix(1 0 0 1 1407.8711 649.7149)" class="st2 st3 st5">x</text>
	<line id="XMLID_673_" class="st0" x1="1341.9" y1="598.5" x2="1500" y2="598.5"/>
	<rect id="XMLID_672_" x="676" y="404.7" class="st1" width="79.1" height="158.3"/>
	<g id="XMLID_652_">
		<g id="XMLID_298_">
			<path id="XMLID_308_" class="st2" d="M121.3,562.8v-14.6h-7.5c-9.6,12.4-25.2,18.6-46.6,18.6c-17.4,0-31.1-5-41.3-14.9
				c-10.3-10.3-15.2-22.4-15.2-37c0-14.3,5.3-26.7,15.5-37.3c10.3-10.6,26.1-15.8,47.2-15.8h46.6v-4.7c0-18.3-10.9-28.9-33.2-28.9
				c-19.6,0-30.1,6.8-31.7,20.2H20.3c1.6-29.5,27.6-47.8,65.2-47.8c42.6,0,68.3,19,68.3,57.2v105H121.3z M107.9,526.8
				c8.1-7.8,12.1-17.1,12.1-28v-12.1H79.7c-22.1,0-33.6,9.6-33.6,26.1c0,16.2,11.8,25.5,32,25.5C89.9,538.3,99.9,534.6,107.9,526.8z
				"/>
			<path id="XMLID_306_" class="st2" d="M276.6,404.7v32.6h-14.3c-32,0-49.4,18.3-49.4,51.6v73.9h-35.1V404.7h33.9V423h7.5
				c9-12.1,23.9-18.3,44.1-18.3H276.6z"/>
			<path id="XMLID_304_" class="st2" d="M326.2,404.7h37.3v29.8h-37.3v77c0,14,8.1,20.8,24.2,20.8h13v30.4h-13.7
				c-38.2,0-58.7-12.7-58.7-46.6V364.7h35.1V404.7z"/>
			<path id="XMLID_301_" class="st2" d="M508.7,543.9c-14.3,15.2-33.6,23-58.1,23c-24.5,0-43.8-7.8-58.4-23
				c-14.3-15.5-21.4-35.7-21.4-60.3c0-24.5,7.1-44.4,21.4-59.6c14.6-15.5,33.9-23.3,58.4-23.3c24.5,0,43.8,7.8,58.1,23.3
				c14.6,15.2,21.7,35.1,21.7,59.6C530.4,508.2,523.3,528.4,508.7,543.9z M450.6,430.5c-28.9,0-44.7,23.3-44.7,53.1
				c0,30.1,15.8,53.4,44.7,53.4c28.9,0,44.7-23.3,44.7-53.4C495.3,453.8,479.5,430.5,450.6,430.5z"/>
			<path id="XMLID_299_" class="st2" d="M636.8,447c-1.9-11.5-12.1-17.1-31.1-17.1c-19,0-28.6,5.6-28.6,16.5
				c0,9.6,6.2,13.4,20.2,15.8l30.8,5c32,5.3,48.2,21.4,48.2,49.1c0,14-5.9,26.1-18,36c-11.8,9.6-28.3,14.6-49.7,14.6
				c-44.7,0-69-19.6-72.4-51.9h35.1c2.8,15.2,14.9,22.7,36.7,22.7c22.1,0,33.2-6.8,33.2-20.5c0-12.1-7.5-17.7-25.8-21.1l-32.9-5.6
				c-24.9-4-40.4-18-40.4-41.6c0-28.3,22.4-48.2,64.9-48.2c37.6,0,61.5,18,64.9,46.3H636.8z"/>
		</g>
	</g>
	<text id="XMLID_674_" transform="matrix(1 0 0 1 667.2109 649.7139)" class="st2 st3 st5">1/2x</text>
	<line id="XMLID_676_" class="st0" x1="676" y1="598.5" x2="755.1" y2="598.5"/>
	<g id="XMLID_714_">
		<g id="XMLID_711_">
			<path id="XMLID_716_" class="st2" d="M788.6,423.3c0,10.3-5.8,18.6-16.7,18.6c-11,0-16.7-8.3-16.7-18.6
				c0-10.3,5.8-18.6,16.7-18.6C782.8,404.7,788.6,413,788.6,423.3z M784,423.3c0-7.5-3.6-14.5-12.2-14.5c-8.6,0-12.2,7-12.2,14.5
				c0,7.5,3.6,14.5,12.2,14.5C780.4,437.8,784,430.8,784,423.3z"/>
			<path id="XMLID_719_" class="st2" d="M821.8,437.6v10.9h-4.2v-7.2h-21.9v7.2h-4.2v-10.9h3.4c1.6-3.4,3.1-8.4,3.1-14.7v-6.9h19.1
				v21.6H821.8z M812.8,419.7h-10.9v3.2c0,6.4-1.2,11.3-2.8,14.7h13.6V419.7z"/>
			<path id="XMLID_722_" class="st2" d="M849.3,428.6h-19.3c0.2,6,2.9,9.7,8.1,9.7c3.6,0,5.7-1.5,6.4-3.9h4.3
				c-0.8,4.3-4.5,7.6-10.8,7.6c-7.9,0-12.3-5.8-12.3-13.6c0-7.8,4.5-13.1,12.2-13.1c7.5,0,11.2,5.6,11.3,11.8V428.6z M830.2,425
				h14.6c-0.3-3.2-2.7-6-7-6C833.3,419,830.8,421.8,830.2,425z"/>
			<path id="XMLID_725_" class="st2" d="M858.2,441.3h-4.5l5.7-13l-5.4-12.3h4.4l4.6,10.5h6.5v-10.5h4.1v10.5h6.5l4.6-10.5h4.4
				l-5.4,12.3l5.8,13h-4.5l-4.9-11.1h-6.5v11.1h-4.1v-11.1h-6.5L858.2,441.3z"/>
			<path id="XMLID_727_" class="st2" d="M922.9,437.6v10.9h-4.2v-7.2h-21.9v7.2h-4.2v-10.9h3.4c1.6-3.4,3.1-8.4,3.1-14.7v-6.9h19.1
				v21.6H922.9z M913.9,419.7h-10.9v3.2c0,6.4-1.2,11.3-2.8,14.7h13.6V419.7z"/>
			<path id="XMLID_730_" class="st2" d="M944.6,438.6h-1.1c-1.6,2-4.3,3.3-7.9,3.3c-5.8,0-9.1-3.9-9.1-8.2c0-4.1,2.7-8.4,9.7-8.4
				h8.2v-1c0-3.1-1.8-5.3-6.2-5.3c-3.8,0-5.7,1.5-5.9,3.7h-4.3c0.4-4.7,4.4-7.4,10.1-7.4c6.4,0,10.5,3.1,10.5,8.8v17.3h-4V438.6z
				 M944.4,431v-2.3h-7.6c-4.2,0-6.1,1.8-6.1,4.8c0,2.9,2.1,4.7,5.9,4.7C940.9,438.2,944.4,435,944.4,431z"/>
		</g>
		<g id="XMLID_806_">
			<path id="XMLID_733_" class="st2" d="M773.2,502.2v-21.6h-13.8v21.6h-4.3v-25.3h22.4v25.3H773.2z"/>
			<path id="XMLID_735_" class="st2" d="M789.9,476.8v2.7h1.1c1.4-1.8,3.9-3.4,7.9-3.4c7,0,11.1,5.8,11.1,13.3
				c0,7.6-4.1,13.3-11.1,13.3c-4,0-6.4-1.6-7.7-3.4H790v12.8h-4.3v-35.4H789.9z M790,489.5c0,5,2.3,9.6,7.9,9.6c5.1,0,7.8-4,7.8-9.6
				c0-5.6-2.7-9.6-7.8-9.6C792.3,479.9,790,484.5,790,489.5z"/>
			<path id="XMLID_738_" class="st2" d="M840.1,489.5c0,7.5-4.6,13.3-12.5,13.3c-7.9,0-12.5-5.8-12.5-13.3c0-7.5,4.5-13.3,12.5-13.3
				C835.5,476.2,840.1,482,840.1,489.5z M835.8,489.5c0-5-2.6-9.6-8.2-9.6c-5.6,0-8.2,4.6-8.2,9.6c0,5,2.6,9.6,8.2,9.6
				C833.2,499.1,835.8,494.5,835.8,489.5z"/>
			<path id="XMLID_741_" class="st2" d="M862.7,512.2h-4.2v-10.1h-0.8c-8,0-12.5-5.3-12.5-12.7c0-7.3,4.4-12.7,12.5-12.7h0.9v-11.2
				h4.2v11.2h0.8c8,0,12.5,5.3,12.5,12.7c0,7.8-4.7,12.7-13.3,12.7V512.2z M857.7,498.6h0.8v-18.1h-0.8c-5.6,0-8.3,4.1-8.3,9.1
				C849.4,494.4,852,498.6,857.7,498.6z M863.4,498.6c5.7,0,8.3-4.1,8.3-9.1c0-4.9-2.7-9.1-8.3-9.1h-0.7v18.1H863.4z"/>
			<path id="XMLID_745_" class="st2" d="M904.7,489.4h-19.3c0.2,6,2.9,9.7,8.1,9.7c3.6,0,5.7-1.5,6.4-3.9h4.3
				c-0.8,4.3-4.5,7.6-10.8,7.6c-7.9,0-12.3-5.8-12.3-13.6s4.5-13.1,12.2-13.1c7.5,0,11.2,5.6,11.3,11.8V489.4z M885.6,485.9h14.6
				c-0.3-3.2-2.7-6-7-6C888.7,479.9,886.2,482.7,885.6,485.9z"/>
			<path id="XMLID_748_" class="st2" d="M932.8,494.5c-1,5-4.8,8.3-10.7,8.3c-7.9,0-12.3-5.8-12.3-13.3c0-7.6,4.4-13.3,12.3-13.3
				c6,0,9.7,3.3,10.5,8h-4.3c-0.8-2.6-2.8-4.3-6.2-4.3c-5.7,0-8,4.5-8,9.5c0,5.1,2.4,9.7,8,9.7c3.6,0,5.7-1.8,6.4-4.6H932.8z"/>
			<path id="XMLID_750_" class="st2" d="M960.6,494.5c-1,5-4.8,8.3-10.7,8.3c-7.9,0-12.3-5.8-12.3-13.3c0-7.6,4.4-13.3,12.3-13.3
				c6,0,9.7,3.3,10.5,8h-4.3c-0.8-2.6-2.8-4.3-6.2-4.3c-5.7,0-8,4.5-8,9.5c0,5.1,2.4,9.7,8,9.7c3.6,0,5.7-1.8,6.4-4.6H960.6z"/>
			<path id="XMLID_752_" class="st2" d="M967,502.2v-25.3h4.2v19.6h1.1l11.1-19.6h6.2v25.3h-4.2v-19.6h-1.1L973,502.2H967z"/>
			<path id="XMLID_754_" class="st2" d="M1021.2,489.5c0,7.5-4.6,13.3-12.5,13.3c-7.9,0-12.5-5.8-12.5-13.3
				c0-7.5,4.5-13.3,12.5-13.3C1016.7,476.2,1021.2,482,1021.2,489.5z M1017,489.5c0-5-2.6-9.6-8.2-9.6c-5.6,0-8.2,4.6-8.2,9.6
				c0,5,2.6,9.6,8.2,9.6C1014.3,499.1,1017,494.5,1017,489.5z"/>
			<path id="XMLID_757_" class="st2" d="M1046.2,502.2V491h-14v11.2h-4.3v-25.3h4.3v10.5h14v-10.5h4.3v25.3H1046.2z"/>
			<path id="XMLID_759_" class="st2" d="M1074.9,499.5h-1.1c-1.6,2-4.3,3.3-7.9,3.3c-5.8,0-9.1-3.9-9.1-8.2c0-4.1,2.7-8.4,9.7-8.4
				h8.2v-1c0-3.1-1.8-5.3-6.2-5.3c-3.8,0-5.7,1.5-5.9,3.7h-4.3c0.4-4.7,4.4-7.4,10.1-7.4c6.4,0,10.5,3.1,10.5,8.8v17.3h-4V499.5z
				 M1074.7,491.9v-2.3h-7.6c-4.2,0-6.1,1.8-6.1,4.8c0,2.9,2.1,4.7,5.9,4.7C1071.2,499.1,1074.7,495.9,1074.7,491.9z"/>
			<path id="XMLID_762_" class="st2" d="M1083.9,498.1h0.9c3.4,0,5-2.5,5-11.5v-9.8h19.4v25.3h-4.3v-21.6h-11.1v6.2
				c0,11.7-2.7,15.4-9,15.4h-0.9V498.1z"/>
			<path id="XMLID_764_" class="st2" d="M1140.7,489.5c0,7.5-4.6,13.3-12.5,13.3c-7.9,0-12.5-5.8-12.5-13.3
				c0-7.5,4.5-13.3,12.5-13.3C1136.2,476.2,1140.7,482,1140.7,489.5z M1136.5,489.5c0-5-2.6-9.6-8.2-9.6c-5.6,0-8.2,4.6-8.2,9.6
				c0,5,2.6,9.6,8.2,9.6C1133.8,499.1,1136.5,494.5,1136.5,489.5z"/>
			<path id="XMLID_767_" class="st2" d="M1165.3,489.3c2.4,0.6,4.1,2.7,4.1,5.9c0,4.6-3.2,6.9-9,6.9h-13v-25.3h12.6
				c5.1,0,8,2.4,8,6.4c0,2.5-1.3,4.2-2.7,5V489.3z M1151.6,487.3h7.9c3.1,0,4.1-1.6,4.1-3.4c0-2-1.1-3.5-4.1-3.5h-7.9V487.3z
				 M1160.2,498.6c3.7,0,4.9-1.6,4.9-3.8s-1.3-3.8-4.9-3.8h-8.6v7.6H1160.2z"/>
			<path id="XMLID_771_" class="st2" d="M1175,502.2v-5.8h5.2v6.8l-2.8,4.8h-2.7l2.8-4.8v-1H1175z"/>
		</g>
		<g id="XMLID_807_">
			<path id="XMLID_773_" class="st2" d="M767,551.9h-7.6v11.2h-4.3v-25.3h4.3v10.5h7.7l5.3-10.5h4.5l-6.2,12.2l6.5,13.1h-4.6
				L767,551.9z"/>
			<path id="XMLID_775_" class="st2" d="M805.9,550.4c0,7.5-4.6,13.3-12.5,13.3c-7.9,0-12.5-5.8-12.5-13.3s4.5-13.3,12.5-13.3
				C801.3,537.1,805.9,542.9,805.9,550.4z M801.6,550.4c0-5-2.6-9.6-8.2-9.6c-5.6,0-8.2,4.6-8.2,9.6c0,5,2.6,9.6,8.2,9.6
				C799,560,801.6,555.4,801.6,550.4z"/>
			<path id="XMLID_778_" class="st2" d="M809.5,537.7h21.8v3.7h-8.8v21.6h-4.3v-21.6h-8.8V537.7z"/>
			<path id="XMLID_780_" class="st2" d="M859.9,550.4c0,7.5-4.6,13.3-12.5,13.3c-7.9,0-12.5-5.8-12.5-13.3s4.5-13.3,12.5-13.3
				C855.3,537.1,859.9,542.9,859.9,550.4z M855.7,550.4c0-5-2.6-9.6-8.2-9.6c-5.6,0-8.2,4.6-8.2,9.6c0,5,2.6,9.6,8.2,9.6
				C853,560,855.7,555.4,855.7,550.4z"/>
			<path id="XMLID_783_" class="st2" d="M870.7,537.7v2.7h1.1c1.4-1.8,3.9-3.4,7.9-3.4c7,0,11.1,5.8,11.1,13.3
				c0,7.6-4.1,13.3-11.1,13.3c-4,0-6.4-1.6-7.7-3.4h-1.1v12.8h-4.3v-35.4H870.7z M870.8,550.4c0,5,2.3,9.6,7.9,9.6
				c5.1,0,7.8-4,7.8-9.6s-2.7-9.6-7.8-9.6C873.2,540.8,870.8,545.4,870.8,550.4z"/>
			<path id="XMLID_786_" class="st2" d="M899.5,573.1l5.2-12.4l-10.8-23h4.6l7.7,16.7h1.3l7-16.7h4.5l-15.2,35.4H899.5z"/>
			<path id="XMLID_788_" class="st2" d="M958.5,550.4c0,7.4-4.6,13.3-12.3,13.3c-7.1,0-11.6-5.1-12.2-11.8h-5.8v11.2H924v-25.3h4.2
				v10.5h5.9c0.8-6.4,5.2-11.1,12-11.1C953.9,537.1,958.5,542.9,958.5,550.4z M954.2,550.4c0-5-2.6-9.6-8-9.6c-5.5,0-8,4.6-8,9.6
				c0,5,2.5,9.6,8,9.6C951.6,560,954.2,555.4,954.2,550.4z"/>
			<path id="XMLID_791_" class="st2" d="M976.3,559h0.9c3.4,0,5-2.5,5-11.5v-9.8h19.4v25.3h-4.3v-21.6h-11.1v6.2
				c0,11.7-2.7,15.4-9,15.4h-0.9V559z"/>
			<path id="XMLID_793_" class="st2" d="M1044.2,550.4c0,7.4-4.6,13.3-12.3,13.3c-7.1,0-11.6-5.1-12.2-11.8h-5.8v11.2h-4.2v-25.3
				h4.2v10.5h5.9c0.8-6.4,5.2-11.1,12-11.1C1039.6,537.1,1044.2,542.9,1044.2,550.4z M1039.9,550.4c0-5-2.6-9.6-8-9.6
				c-5.5,0-8,4.6-8,9.6c0,5,2.5,9.6,8,9.6C1037.3,560,1039.9,555.4,1039.9,550.4z"/>
			<path id="XMLID_796_" class="st2" d="M1074.4,550.8c0,7.2-4.7,12.9-12.5,12.9c-8,0-12.6-5.5-12.6-15.3c0-8.6,1.2-17.4,10-18.8
				l6.7-1.1c1.9-0.3,2.3-0.5,2.5-2h4c-0.2,2.9-1.1,4.9-5,5.6l-7.8,1.3c-4.5,0.8-6,4-6.6,8.2h1.1c2.2-2.8,4.6-3.7,8.2-3.7
				C1070.1,538,1074.4,543.7,1074.4,550.8z M1070.1,550.8c0-4.7-2.6-9.2-8.2-9.2c-5.6,0-8.2,4.4-8.2,9.2c0,4.7,2.6,9.2,8.2,9.2
				C1067.5,560,1070.1,555.5,1070.1,550.8z"/>
			<path id="XMLID_799_" class="st2" d="M1102,537.7v25.3h-4.3v-10h-7.7c-0.6,0-1,0-1.6-0.1l-3.8,10.1h-4.5l4.3-11
				c-2.6-1.3-3.9-3.5-3.9-6.6c0-4.8,3.1-7.7,8.9-7.7H1102z M1089.8,541.3c-3.8,0-5.1,1.6-5.1,4.1c0,2.5,1.3,4,5.1,4h7.8v-8.1H1089.8
				z"/>
			<path id="XMLID_802_" class="st2" d="M1107.5,537.7h21.8v3.7h-8.8v21.6h-4.3v-21.6h-8.8V537.7z"/>
			<path id="XMLID_804_" class="st2" d="M1131.3,563.1v-5.8h5.2v5.8H1131.3z"/>
		</g>
	</g>
</g>
<g id="XMLID_666_">
	<line id="XMLID_847_" class="st0" x1="10.7" y1="40" x2="1498.5" y2="40"/>
	<line id="XMLID_846_" class="st0" x1="10.7" y1="198.1" x2="1498.5" y2="198.1"/>
	<rect id="XMLID_845_" x="1341.9" y="40" class="st1" width="158.1" height="158.1"/>
	<rect id="XMLID_848_" x="676" y="40" class="st1" width="158.1" height="158.1"/>
	<text id="XMLID_844_" transform="matrix(1 0 0 1 1407.8711 284.9927)" class="st2 st3 st5">x</text>
	<line id="XMLID_843_" class="st0" x1="1341.9" y1="233.8" x2="1500" y2="233.8"/>
	<g id="XMLID_810_">
		<g id="XMLID_327_">
			<path id="XMLID_370_" class="st2" d="M121.3,198.1v-14.6h-7.5c-9.6,12.4-25.2,18.6-46.6,18.6c-17.4,0-31.1-5-41.3-14.9
				c-10.3-10.3-15.2-22.4-15.2-37c0-14.3,5.3-26.7,15.5-37.3c10.3-10.6,26.1-15.8,47.2-15.8h46.6v-4.7c0-18.3-10.9-28.9-33.2-28.9
				c-19.6,0-30.1,6.8-31.7,20.2H20.3C21.9,54.3,48,36,85.6,36c42.6,0,68.3,19,68.3,57.2v105H121.3z M107.9,162.1
				c8.1-7.8,12.1-17.1,12.1-28V122H79.7c-22.1,0-33.6,9.6-33.6,26.1c0,16.2,11.8,25.5,32,25.5C89.9,173.6,99.9,169.9,107.9,162.1z"
				/>
			<path id="XMLID_368_" class="st2" d="M276.6,40v32.6h-14.3c-32,0-49.4,18.3-49.4,51.6v73.9h-35.1V40h33.9v18.3h7.5
				c9-12.1,23.9-18.3,44.1-18.3H276.6z"/>
			<path id="XMLID_366_" class="st2" d="M326.2,40h37.3v29.8h-37.3v77c0,14,8.1,20.8,24.2,20.8h13v30.4h-13.7
				c-38.2,0-58.7-12.7-58.7-46.6V0h35.1V40z"/>
			<path id="XMLID_363_" class="st2" d="M508.7,179.2c-14.3,15.2-33.6,23-58.1,23c-24.5,0-43.8-7.8-58.4-23
				c-14.3-15.5-21.4-35.7-21.4-60.3s7.1-44.4,21.4-59.6C406.8,43.7,426,36,450.6,36c24.5,0,43.8,7.8,58.1,23.3
				c14.6,15.2,21.7,35.1,21.7,59.6S523.3,163.6,508.7,179.2z M450.6,65.8c-28.9,0-44.7,23.3-44.7,53.1c0,30.1,15.8,53.4,44.7,53.4
				c28.9,0,44.7-23.3,44.7-53.4C495.3,89.1,479.5,65.8,450.6,65.8z"/>
			<path id="XMLID_361_" class="st2" d="M636.8,82.2c-1.9-11.5-12.1-17.1-31.1-17.1c-19,0-28.6,5.6-28.6,16.5
				c0,9.6,6.2,13.4,20.2,15.8l30.8,5c32,5.3,48.2,21.4,48.2,49.1c0,14-5.9,26.1-18,36c-11.8,9.6-28.3,14.6-49.7,14.6
				c-44.7,0-69-19.6-72.4-51.9h35.1c2.8,15.2,14.9,22.7,36.7,22.7c22.1,0,33.2-6.8,33.2-20.5c0-12.1-7.5-17.7-25.8-21.1l-32.9-5.6
				c-24.9-4-40.4-18-40.4-41.6C542,55.8,564.4,36,607,36c37.6,0,61.5,18,64.9,46.3H636.8z"/>
		</g>
	</g>
	<text id="XMLID_809_" transform="matrix(1 0 0 1 742.0468 284.9918)" class="st2 st3 st5">x</text>
	<line id="XMLID_808_" class="st0" x1="676" y1="233.8" x2="834.2" y2="233.8"/>
	<g id="XMLID_559_">
		<g id="XMLID_635_">
			<path id="XMLID_650_" class="st2" d="M868.2,58.6c0,10.3-5.8,18.6-16.7,18.6c-11,0-16.7-8.3-16.7-18.6S840.5,40,851.4,40
				C862.3,40,868.2,48.3,868.2,58.6z M863.6,58.6c0-7.5-3.6-14.5-12.2-14.5c-8.6,0-12.2,7-12.2,14.5s3.6,14.5,12.2,14.5
				C860,73.1,863.6,66.1,863.6,58.6z"/>
			<path id="XMLID_647_" class="st2" d="M901.3,72.8v10.9h-4.2v-7.2h-21.9v7.2H871V72.8h3.4c1.6-3.4,3.1-8.4,3.1-14.7v-6.9h19.1
				v21.6H901.3z M892.4,54.9h-10.9v3.2c0,6.4-1.2,11.3-2.8,14.7h13.6V54.9z"/>
			<path id="XMLID_644_" class="st2" d="M928.8,63.8h-19.3c0.2,6,2.9,9.7,8.1,9.7c3.6,0,5.7-1.5,6.4-3.9h4.3
				c-0.8,4.3-4.5,7.6-10.8,7.6c-7.9,0-12.3-5.8-12.3-13.6c0-7.8,4.5-13.1,12.2-13.1c7.5,0,11.2,5.6,11.3,11.8V63.8z M909.8,60.3
				h14.6c-0.3-3.2-2.7-6-7-6C912.8,54.3,910.3,57,909.8,60.3z"/>
			<path id="XMLID_642_" class="st2" d="M937.8,76.6h-4.5l5.7-13l-5.4-12.3h4.4l4.6,10.5h6.5V51.2h4.1v10.5h6.5l4.6-10.5h4.4
				l-5.4,12.3l5.8,13h-4.5l-4.9-11.1h-6.5v11.1h-4.1V65.4h-6.5L937.8,76.6z"/>
			<path id="XMLID_639_" class="st2" d="M1002.5,72.8v10.9h-4.2v-7.2h-21.9v7.2h-4.2V72.8h3.4c1.6-3.4,3.1-8.4,3.1-14.7v-6.9h19.1
				v21.6H1002.5z M993.5,54.9h-10.9v3.2c0,6.4-1.2,11.3-2.8,14.7h13.6V54.9z"/>
			<path id="XMLID_636_" class="st2" d="M1024.1,73.9h-1.1c-1.6,2-4.3,3.3-7.9,3.3c-5.8,0-9.1-3.9-9.1-8.2c0-4.1,2.7-8.4,9.7-8.4
				h8.2v-1c0-3.1-1.8-5.3-6.2-5.3c-3.8,0-5.7,1.5-5.9,3.7h-4.3c0.4-4.7,4.4-7.4,10.1-7.4c6.4,0,10.5,3.1,10.5,8.8v17.3h-4V73.9z
				 M1024,66.3V64h-7.6c-4.2,0-6.1,1.8-6.1,4.8c0,2.9,2.1,4.7,5.9,4.7C1020.4,73.5,1024,70.3,1024,66.3z"/>
		</g>
		<g id="XMLID_594_">
			<path id="XMLID_633_" class="st2" d="M852.8,137.4v-21.6h-13.8v21.6h-4.3v-25.3h22.4v25.3H852.8z"/>
			<path id="XMLID_630_" class="st2" d="M869.4,112.1v2.7h1.1c1.4-1.8,3.9-3.4,7.9-3.4c7,0,11.1,5.8,11.1,13.3
				c0,7.6-4.1,13.3-11.1,13.3c-4,0-6.4-1.6-7.7-3.4h-1.1v12.8h-4.3v-35.4H869.4z M869.5,124.8c0,5,2.3,9.6,7.9,9.6
				c5.1,0,7.8-4,7.8-9.6c0-5.6-2.7-9.6-7.8-9.6C871.8,115.2,869.5,119.8,869.5,124.8z"/>
			<path id="XMLID_627_" class="st2" d="M919.6,124.8c0,7.5-4.6,13.3-12.5,13.3c-7.9,0-12.5-5.8-12.5-13.3c0-7.5,4.5-13.3,12.5-13.3
				C915,111.4,919.6,117.3,919.6,124.8z M915.3,124.8c0-5-2.6-9.6-8.2-9.6c-5.6,0-8.2,4.6-8.2,9.6c0,5,2.6,9.6,8.2,9.6
				C912.7,134.4,915.3,129.8,915.3,124.8z"/>
			<path id="XMLID_623_" class="st2" d="M942.3,147.5h-4.2v-10.1h-0.8c-8,0-12.5-5.3-12.5-12.7c0-7.3,4.4-12.7,12.5-12.7h0.9v-11.2
				h4.2v11.2h0.8c8,0,12.5,5.3,12.5,12.7c0,7.8-4.7,12.7-13.3,12.7V147.5z M937.3,133.8h0.8v-18.1h-0.8c-5.6,0-8.3,4.1-8.3,9.1
				C929,129.7,931.6,133.8,937.3,133.8z M943,133.8c5.7,0,8.3-4.1,8.3-9.1c0-4.9-2.7-9.1-8.3-9.1h-0.7v18.1H943z"/>
			<path id="XMLID_620_" class="st2" d="M984.3,124.7h-19.3c0.2,6,2.9,9.7,8.1,9.7c3.6,0,5.7-1.5,6.4-3.9h4.3
				c-0.8,4.3-4.5,7.6-10.8,7.6c-7.9,0-12.3-5.8-12.3-13.6s4.5-13.1,12.2-13.1c7.5,0,11.2,5.6,11.3,11.8V124.7z M965.2,121.2h14.6
				c-0.3-3.2-2.7-6-7-6C968.3,115.2,965.7,117.9,965.2,121.2z"/>
			<path id="XMLID_618_" class="st2" d="M1012.3,129.8c-1,5-4.8,8.3-10.7,8.3c-7.9,0-12.3-5.8-12.3-13.3c0-7.6,4.4-13.3,12.3-13.3
				c6,0,9.7,3.3,10.5,8h-4.3c-0.8-2.6-2.8-4.3-6.2-4.3c-5.7,0-8,4.5-8,9.5c0,5.1,2.4,9.7,8,9.7c3.6,0,5.7-1.8,6.4-4.6H1012.3z"/>
			<path id="XMLID_616_" class="st2" d="M1040.1,129.8c-1,5-4.8,8.3-10.7,8.3c-7.9,0-12.3-5.8-12.3-13.3c0-7.6,4.4-13.3,12.3-13.3
				c6,0,9.7,3.3,10.5,8h-4.3c-0.8-2.6-2.8-4.3-6.2-4.3c-5.7,0-8,4.5-8,9.5c0,5.1,2.4,9.7,8,9.7c3.6,0,5.7-1.8,6.4-4.6H1040.1z"/>
			<path id="XMLID_614_" class="st2" d="M1046.5,137.4v-25.3h4.2v19.6h1.1l11.1-19.6h6.2v25.3h-4.2v-19.6h-1.1l-11.3,19.6H1046.5z"
				/>
			<path id="XMLID_611_" class="st2" d="M1100.8,124.8c0,7.5-4.6,13.3-12.5,13.3c-7.9,0-12.5-5.8-12.5-13.3
				c0-7.5,4.5-13.3,12.5-13.3C1096.2,111.4,1100.8,117.3,1100.8,124.8z M1096.5,124.8c0-5-2.6-9.6-8.2-9.6c-5.6,0-8.2,4.6-8.2,9.6
				c0,5,2.6,9.6,8.2,9.6C1093.9,134.4,1096.5,129.8,1096.5,124.8z"/>
			<path id="XMLID_609_" class="st2" d="M1125.8,137.4v-11.2h-14v11.2h-4.3v-25.3h4.3v10.5h14v-10.5h4.3v25.3H1125.8z"/>
			<path id="XMLID_606_" class="st2" d="M1154.5,134.8h-1.1c-1.6,2-4.3,3.3-7.9,3.3c-5.8,0-9.1-3.9-9.1-8.2c0-4.1,2.7-8.4,9.7-8.4
				h8.2v-1c0-3.1-1.8-5.3-6.2-5.3c-3.8,0-5.7,1.5-5.9,3.7h-4.3c0.4-4.7,4.4-7.4,10.1-7.4c6.4,0,10.5,3.1,10.5,8.8v17.3h-4V134.8z
				 M1154.3,127.2v-2.3h-7.6c-4.2,0-6.1,1.8-6.1,4.8c0,2.9,2.1,4.7,5.9,4.7C1150.7,134.4,1154.3,131.2,1154.3,127.2z"/>
			<path id="XMLID_604_" class="st2" d="M1163.5,133.4h0.9c3.4,0,5-2.5,5-11.5v-9.8h19.4v25.3h-4.3v-21.6h-11.1v6.2
				c0,11.7-2.7,15.4-9,15.4h-0.9V133.4z"/>
			<path id="XMLID_601_" class="st2" d="M1220.3,124.8c0,7.5-4.6,13.3-12.5,13.3c-7.9,0-12.5-5.8-12.5-13.3
				c0-7.5,4.5-13.3,12.5-13.3C1215.7,111.4,1220.3,117.3,1220.3,124.8z M1216,124.8c0-5-2.6-9.6-8.2-9.6c-5.6,0-8.2,4.6-8.2,9.6
				c0,5,2.6,9.6,8.2,9.6C1213.4,134.4,1216,129.8,1216,124.8z"/>
			<path id="XMLID_597_" class="st2" d="M1244.8,124.6c2.4,0.6,4.1,2.7,4.1,5.9c0,4.6-3.2,6.9-9,6.9h-13v-25.3h12.6
				c5.1,0,8,2.4,8,6.4c0,2.5-1.3,4.2-2.7,5V124.6z M1231.2,122.6h7.9c3.1,0,4.1-1.6,4.1-3.4c0-2-1.1-3.5-4.1-3.5h-7.9V122.6z
				 M1239.8,133.8c3.7,0,4.9-1.6,4.9-3.8c0-2.2-1.3-3.8-4.9-3.8h-8.6v7.6H1239.8z"/>
			<path id="XMLID_595_" class="st2" d="M1254.6,137.4v-5.8h5.2v6.8l-2.8,4.8h-2.7l2.8-4.8v-1H1254.6z"/>
		</g>
		<g id="XMLID_560_">
			<path id="XMLID_592_" class="st2" d="M846.5,187.2h-7.6v11.2h-4.3V173h4.3v10.5h7.7l5.3-10.5h4.5l-6.2,12.2l6.5,13.1h-4.6
				L846.5,187.2z"/>
			<path id="XMLID_589_" class="st2" d="M885.5,185.7c0,7.5-4.6,13.3-12.5,13.3c-7.9,0-12.5-5.8-12.5-13.3s4.5-13.3,12.5-13.3
				C880.9,172.3,885.5,178.2,885.5,185.7z M881.2,185.7c0-5-2.6-9.6-8.2-9.6c-5.6,0-8.2,4.6-8.2,9.6c0,5,2.6,9.6,8.2,9.6
				C878.6,195.3,881.2,190.6,881.2,185.7z"/>
			<path id="XMLID_587_" class="st2" d="M889,173h21.8v3.7h-8.8v21.6h-4.3v-21.6H889V173z"/>
			<path id="XMLID_584_" class="st2" d="M939.5,185.7c0,7.5-4.6,13.3-12.5,13.3c-7.9,0-12.5-5.8-12.5-13.3s4.5-13.3,12.5-13.3
				C934.9,172.3,939.5,178.2,939.5,185.7z M935.2,185.7c0-5-2.6-9.6-8.2-9.6c-5.6,0-8.2,4.6-8.2,9.6c0,5,2.6,9.6,8.2,9.6
				C932.6,195.3,935.2,190.6,935.2,185.7z"/>
			<path id="XMLID_581_" class="st2" d="M950.3,173v2.7h1.1c1.4-1.8,3.9-3.4,7.9-3.4c7,0,11.1,5.8,11.1,13.3
				c0,7.6-4.1,13.3-11.1,13.3c-4,0-6.4-1.6-7.7-3.4h-1.1v12.8h-4.3V173H950.3z M950.4,185.7c0,5,2.3,9.6,7.9,9.6
				c5.1,0,7.8-4,7.8-9.6s-2.7-9.6-7.8-9.6C952.7,176.1,950.4,180.7,950.4,185.7z"/>
			<path id="XMLID_579_" class="st2" d="M979,208.4l5.2-12.4l-10.8-23h4.6l7.7,16.7h1.3l7-16.7h4.5l-15.2,35.4H979z"/>
			<path id="XMLID_576_" class="st2" d="M1038,185.7c0,7.4-4.6,13.3-12.3,13.3c-7.1,0-11.6-5.1-12.2-11.8h-5.8v11.2h-4.2V173h4.2
				v10.5h5.9c0.8-6.4,5.2-11.1,12-11.1C1033.4,172.3,1038,178.2,1038,185.7z M1033.7,185.7c0-5-2.6-9.6-8-9.6c-5.5,0-8,4.6-8,9.6
				c0,5,2.5,9.6,8,9.6C1031.2,195.3,1033.7,190.6,1033.7,185.7z"/>
			<path id="XMLID_574_" class="st2" d="M1055.8,194.3h0.9c3.4,0,5-2.5,5-11.5V173h19.4v25.3h-4.3v-21.6h-11.1v6.2
				c0,11.7-2.7,15.4-9,15.4h-0.9V194.3z"/>
			<path id="XMLID_571_" class="st2" d="M1123.7,185.7c0,7.4-4.6,13.3-12.3,13.3c-7.1,0-11.6-5.1-12.2-11.8h-5.8v11.2h-4.2V173h4.2
				v10.5h5.9c0.8-6.4,5.2-11.1,12-11.1C1119.1,172.3,1123.7,178.2,1123.7,185.7z M1119.5,185.7c0-5-2.6-9.6-8-9.6
				c-5.5,0-8,4.6-8,9.6c0,5,2.5,9.6,8,9.6C1116.9,195.3,1119.5,190.6,1119.5,185.7z"/>
			<path id="XMLID_568_" class="st2" d="M1154,186.1c0,7.2-4.7,12.9-12.5,12.9c-8,0-12.6-5.5-12.6-15.3c0-8.6,1.2-17.4,10-18.8
				l6.7-1.1c1.9-0.3,2.3-0.5,2.5-2h4c-0.2,2.9-1.1,4.9-5,5.6l-7.8,1.3c-4.5,0.8-6,4-6.6,8.2h1.1c2.2-2.8,4.6-3.7,8.2-3.7
				C1149.6,173.2,1154,178.9,1154,186.1z M1149.6,186.1c0-4.7-2.6-9.2-8.2-9.2c-5.6,0-8.2,4.4-8.2,9.2c0,4.7,2.6,9.2,8.2,9.2
				C1147,195.3,1149.6,190.7,1149.6,186.1z"/>
			<path id="XMLID_565_" class="st2" d="M1181.5,173v25.3h-4.3v-10h-7.7c-0.6,0-1,0-1.6-0.1l-3.8,10.1h-4.5l4.3-11
				c-2.6-1.3-3.9-3.5-3.9-6.6c0-4.8,3.1-7.7,8.9-7.7H1181.5z M1169.3,176.6c-3.8,0-5.1,1.6-5.1,4.1c0,2.5,1.3,4,5.1,4h7.8v-8.1
				H1169.3z"/>
			<path id="XMLID_563_" class="st2" d="M1187.1,173h21.8v3.7h-8.8v21.6h-4.3v-21.6h-8.8V173z"/>
			<path id="XMLID_561_" class="st2" d="M1210.9,198.3v-5.8h5.2v5.8H1210.9z"/>
		</g>
	</g>
	<rect id="XMLID_558_" x="752.6" y="18.7" class="st2" width="5" height="200.7"/>
</g>
</svg>
