<?xml version="1.0" encoding="utf-8"?>
<!-- Generator: Adobe Illustrator 19.0.0, SVG Export Plug-In . SVG Version: 6.00 Build 0)  -->
<svg version="1.1" id="Layer_1" xmlns="http://www.w3.org/2000/svg" xmlns:xlink="http://www.w3.org/1999/xlink" x="0px" y="0px"
	 viewBox="110 141 1500 1000" style="enable-background:new 110 141 1500 1000;" xml:space="preserve">
<style type="text/css">
	.st0{fill:#EFEFEF;}
	.st1{fill:#FFFFFF;}
	.st2{fill:#E6E6E6;}
	.st3{fill:none;}
	.st4{fill:none;stroke:#55C7BF;stroke-width:2;stroke-miterlimit:10;}
	.st5{opacity:0.6;}
	.st6{opacity:0;}
	.st7{fill:none;stroke:#55C7BF;stroke-miterlimit:10;}
	.st8{fill:#101010;fill-opacity:0;}
	.st9{fill:#101010;}
</style>
<rect id="XMLID_1_" x="110" y="141" class="st0" width="1500" height="1000"/>
<polygon id="XMLID_254_" class="st1" points="1084.5,252.1 694.4,252.1 276.7,252.1 276.7,975.6 276.7,1029.9 635.5,1029.9 
	1025.4,1029.9 1443.3,1029.9 1443.3,305.9 1443.3,252.1 "/>
<g id="XMLID_246_">
	<polygon id="XMLID_253_" class="st2" points="1084.5,252.1 635.5,1029.9 1025.4,1029.9 1443.3,1029.9 1443.3,305.9 1443.3,252.1 	
		"/>
	<polygon id="XMLID_243_" class="st3" points="694.4,252.1 276.7,252.1 276.7,975.6 276.7,1029.9 635.5,1029.9 1084.5,252.1 	"/>
</g>
<g id="XMLID_51_">
	<g id="XMLID_224_">
		<line id="XMLID_239_" class="st4" x1="319.9" y1="1029.9" x2="319.9" y2="252.7"/>
		<line id="XMLID_225_" class="st4" x1="1400.1" y1="252.7" x2="1400.1" y2="1029.9"/>
	</g>
	<g id="XMLID_62_" class="st5">
		<g id="XMLID_158_">
			<g id="XMLID_221_">
				<line id="XMLID_223_" class="st4" x1="319.9" y1="868.6" x2="1400.1" y2="868.6"/>
				<line id="XMLID_222_" class="st4" x1="1400.1" y1="884.1" x2="319.9" y2="884.1"/>
			</g>
			<g id="XMLID_218_">
				<line id="XMLID_220_" class="st4" x1="319.9" y1="750.9" x2="1400.1" y2="750.9"/>
				<line id="XMLID_219_" class="st4" x1="1400.1" y1="766.5" x2="319.9" y2="766.5"/>
			</g>
			<g id="XMLID_215_">
				<line id="XMLID_217_" class="st4" x1="319.9" y1="633.2" x2="1400.1" y2="633.2"/>
				<line id="XMLID_216_" class="st4" x1="1400.1" y1="648.8" x2="319.9" y2="648.8"/>
			</g>
			<g id="XMLID_162_">
				<line id="XMLID_211_" class="st4" x1="319.9" y1="515.5" x2="1400.1" y2="515.5"/>
				<line id="XMLID_163_" class="st4" x1="1400.1" y1="531.1" x2="319.9" y2="531.1"/>
			</g>
			<g id="XMLID_159_">
				<line id="XMLID_161_" class="st4" x1="319.9" y1="397.9" x2="1400.1" y2="397.9"/>
				<line id="XMLID_160_" class="st4" x1="1400.1" y1="413.4" x2="319.9" y2="413.4"/>
			</g>
		</g>
		<g id="XMLID_63_">
			<g id="XMLID_141_">
				<line id="XMLID_157_" class="st4" x1="1217.2" y1="986.7" x2="1217.2" y2="295.3"/>
				<line id="XMLID_155_" class="st4" x1="1232.8" y1="295.3" x2="1232.8" y2="986.7"/>
			</g>
			<g id="XMLID_137_">
				<line id="XMLID_139_" class="st4" x1="1034.7" y1="986.7" x2="1034.7" y2="295.3"/>
				<line id="XMLID_138_" class="st4" x1="1050.3" y1="295.3" x2="1050.3" y2="986.7"/>
			</g>
			<g id="XMLID_132_">
				<line id="XMLID_136_" class="st4" x1="852.2" y1="986.7" x2="852.2" y2="295.3"/>
				<line id="XMLID_135_" class="st4" x1="867.8" y1="295.3" x2="867.8" y2="986.7"/>
			</g>
			<g id="XMLID_69_">
				<line id="XMLID_130_" class="st4" x1="669.7" y1="986.7" x2="669.7" y2="295.3"/>
				<line id="XMLID_129_" class="st4" x1="685.3" y1="295.3" x2="685.3" y2="986.7"/>
			</g>
			<g id="XMLID_65_">
				<line id="XMLID_68_" class="st4" x1="487.2" y1="986.7" x2="487.2" y2="295.3"/>
				<line id="XMLID_66_" class="st4" x1="502.8" y1="295.3" x2="502.8" y2="986.7"/>
			</g>
		</g>
	</g>
	<line id="XMLID_61_" class="st4" x1="276.7" y1="295.3" x2="1443.3" y2="295.3"/>
	<line id="XMLID_59_" class="st4" x1="1443.3" y1="986.7" x2="276.7" y2="986.7"/>
	<path id="XMLID_58_" class="st4" d="M1400.1,295.3"/>
	<path id="XMLID_57_" class="st4" d="M1400.1,295.3"/>
	<g id="XMLID_54_" class="st6">
		<rect id="XMLID_56_" x="669.7" y="295.3" class="st7" width="15.6" height="691.4"/>
		<rect id="XMLID_55_" x="1034.7" y="295.3" class="st7" width="15.6" height="691.4"/>
	</g>
</g>
<g id="XMLID_244_">
	<rect id="XMLID_272_" x="276.7" y="252.1" class="st8" width="252.6" height="124.2"/>
	<g id="XMLID_245_">
		<g>
			<path id="XMLID_164_" class="st9" d="M347.3,335.6V332h-1.9c-2.4,3.1-6.3,4.7-11.8,4.7c-4.4,0-7.8-1.3-10.4-3.8
				c-2.6-2.6-3.8-5.6-3.8-9.3c0-3.6,1.3-6.7,3.9-9.4c2.6-2.7,6.6-4,11.9-4H347V309c0-4.6-2.7-7.3-8.4-7.3c-4.9,0-7.6,1.7-8,5.1h-8.8
				c0.4-7.4,7-12.1,16.5-12.1c10.7,0,17.2,4.8,17.2,14.4v26.5L347.3,335.6L347.3,335.6z M343.9,326.6c2-2,3.1-4.3,3.1-7.1v-3.1
				h-10.2c-5.6,0-8.5,2.4-8.5,6.6c0,4.1,3,6.4,8.1,6.4C339.4,329.5,341.9,328.5,343.9,326.6z"/>
			<path id="XMLID_154_" class="st9" d="M386.5,295.8v8.2h-3.6c-8.1,0-12.5,4.6-12.5,13v18.6h-8.9v-39.9h8.5v4.6h1.9
				c2.3-3.1,6-4.6,11.1-4.6L386.5,295.8L386.5,295.8z"/>
			<path id="XMLID_152_" class="st9" d="M399,295.8h9.4v7.5H399v19.4c0,3.5,2,5.2,6.1,5.2h3.3v7.7H405c-9.6,0-14.8-3.2-14.8-11.8
				v-38.2h8.9v10.2H399z"/>
			<path id="XMLID_149_" class="st9" d="M445,330.9c-3.6,3.8-8.5,5.8-14.6,5.8c-6.2,0-11-2-14.7-5.8c-3.6-3.9-5.4-9-5.4-15.2
				c0-6.2,1.8-11.2,5.4-15c3.7-3.9,8.5-5.9,14.7-5.9s11,2,14.6,5.9c3.7,3.8,5.5,8.9,5.5,15C450.4,321.9,448.6,326.9,445,330.9z
				 M430.3,302.3c-7.3,0-11.3,5.9-11.3,13.4c0,7.6,4,13.5,11.3,13.5s11.3-5.9,11.3-13.5C441.6,308.1,437.6,302.3,430.3,302.3z"/>
			<path id="XMLID_147_" class="st9" d="M477.3,306.4c-0.5-2.9-3.1-4.3-7.8-4.3c-4.8,0-7.2,1.4-7.2,4.2c0,2.4,1.6,3.4,5.1,4l7.8,1.3
				c8.1,1.3,12.1,5.4,12.1,12.4c0,3.5-1.5,6.6-4.5,9.1c-3,2.4-7.1,3.7-12.5,3.7c-11.3,0-17.4-4.9-18.3-13.1h8.9
				c0.7,3.8,3.8,5.7,9.2,5.7c5.6,0,8.4-1.7,8.4-5.2c0-3.1-1.9-4.5-6.5-5.3l-8.3-1.4c-6.3-1-10.2-4.5-10.2-10.5
				c0-7.1,5.6-12.1,16.4-12.1c9.5,0,15.5,4.5,16.4,11.7h-9V306.4z"/>
		</g>
	</g>
</g>
<g id="XMLID_50_">
	<rect id="XMLID_287_" x="1190.7" y="252.1" class="st8" width="252.6" height="124.2"/>
	<g id="XMLID_247_">
		<g>
			<path id="XMLID_144_" class="st9" d="M1261.3,335.6V332h-1.9c-2.4,3.1-6.3,4.7-11.8,4.7c-4.4,0-7.8-1.3-10.4-3.8
				c-2.6-2.6-3.8-5.6-3.8-9.3c0-3.6,1.3-6.7,3.9-9.4c2.6-2.7,6.6-4,11.9-4h11.8V309c0-4.6-2.7-7.3-8.4-7.3c-4.9,0-7.6,1.7-8,5.1
				h-8.8c0.4-7.4,7-12.1,16.5-12.1c10.7,0,17.2,4.8,17.2,14.4v26.5L1261.3,335.6L1261.3,335.6z M1258,326.6c2-2,3.1-4.3,3.1-7.1
				v-3.1h-10.2c-5.6,0-8.5,2.4-8.5,6.6c0,4.1,3,6.4,8.1,6.4C1253.4,329.5,1255.9,328.5,1258,326.6z"/>
			<path id="XMLID_142_" class="st9" d="M1300.5,295.8v8.2h-3.6c-8.1,0-12.5,4.6-12.5,13v18.6h-8.9v-39.9h8.5v4.6h1.9
				c2.3-3.1,6-4.6,11.1-4.6L1300.5,295.8L1300.5,295.8z"/>
			<path id="XMLID_134_" class="st9" d="M1313,295.8h9.4v7.5h-9.4v19.4c0,3.5,2,5.2,6.1,5.2h3.3v7.7h-3.4c-9.6,0-14.8-3.2-14.8-11.8
				v-38.2h8.9L1313,295.8L1313,295.8z"/>
			<path id="XMLID_128_" class="st9" d="M1359,330.9c-3.6,3.8-8.5,5.8-14.6,5.8c-6.2,0-11-2-14.7-5.8c-3.6-3.9-5.4-9-5.4-15.2
				c0-6.2,1.8-11.2,5.4-15c3.7-3.9,8.5-5.9,14.7-5.9s11,2,14.6,5.9c3.7,3.8,5.5,8.9,5.5,15C1364.5,321.9,1362.7,326.9,1359,330.9z
				 M1344.3,302.3c-7.3,0-11.3,5.9-11.3,13.4c0,7.6,4,13.5,11.3,13.5s11.3-5.9,11.3-13.5C1355.6,308.1,1351.6,302.3,1344.3,302.3z"
				/>
			<path id="XMLID_126_" class="st9" d="M1391.3,306.4c-0.5-2.9-3.1-4.3-7.8-4.3c-4.8,0-7.2,1.4-7.2,4.2c0,2.4,1.6,3.4,5.1,4
				l7.8,1.3c8.1,1.3,12.1,5.4,12.1,12.4c0,3.5-1.5,6.6-4.5,9.1c-3,2.4-7.1,3.7-12.5,3.7c-11.3,0-17.4-4.9-18.3-13.1h8.9
				c0.7,3.8,3.8,5.7,9.2,5.7c5.6,0,8.4-1.7,8.4-5.2c0-3.1-1.9-4.5-6.5-5.3l-8.3-1.4c-6.3-1-10.2-4.5-10.2-10.5
				c0-7.1,5.6-12.1,16.4-12.1c9.5,0,15.5,4.5,16.4,11.7h-9V306.4z"/>
		</g>
	</g>
</g>
<g id="XMLID_248_">
	<rect id="XMLID_302_" x="276.7" y="903.5" class="st8" width="252.6" height="124.2"/>
	<g id="XMLID_249_">
		<g>
			<path id="XMLID_122_" class="st9" d="M347.3,987v-3.7h-1.9c-2.4,3.1-6.3,4.7-11.8,4.7c-4.4,0-7.8-1.3-10.4-3.8
				c-2.6-2.6-3.8-5.6-3.8-9.3c0-3.6,1.3-6.7,3.9-9.4c2.6-2.7,6.6-4,11.9-4H347v-1.2c0-4.6-2.7-7.3-8.4-7.3c-4.9,0-7.6,1.7-8,5.1
				h-8.8c0.4-7.4,7-12.1,16.5-12.1c10.7,0,17.2,4.8,17.2,14.4V987H347.3z M343.9,977.9c2-2,3.1-4.3,3.1-7.1v-3.1h-10.2
				c-5.6,0-8.5,2.4-8.5,6.6c0,4.1,3,6.4,8.1,6.4C339.4,980.8,341.9,979.9,343.9,977.9z"/>
			<path id="XMLID_120_" class="st9" d="M386.5,947.1v8.2h-3.6c-8.1,0-12.5,4.6-12.5,13V987h-8.9v-39.9h8.5v4.6h1.9
				c2.3-3.1,6-4.6,11.1-4.6H386.5z"/>
			<path id="XMLID_118_" class="st9" d="M399,947.1h9.4v7.5H399V974c0,3.5,2,5.2,6.1,5.2h3.3v7.7H405c-9.6,0-14.8-3.2-14.8-11.8
				v-38.2h8.9v10.2H399z"/>
			<path id="XMLID_115_" class="st9" d="M445,982.2c-3.6,3.8-8.5,5.8-14.6,5.8c-6.2,0-11-2-14.7-5.8c-3.6-3.9-5.4-9-5.4-15.2
				s1.8-11.2,5.4-15c3.7-3.9,8.5-5.9,14.7-5.9s11,2,14.6,5.9c3.7,3.8,5.5,8.9,5.5,15S448.6,978.3,445,982.2z M430.3,953.6
				c-7.3,0-11.3,5.9-11.3,13.4c0,7.6,4,13.5,11.3,13.5s11.3-5.9,11.3-13.5C441.6,959.5,437.6,953.6,430.3,953.6z"/>
			<path id="XMLID_113_" class="st9" d="M477.3,957.8c-0.5-2.9-3.1-4.3-7.8-4.3c-4.8,0-7.2,1.4-7.2,4.2c0,2.4,1.6,3.4,5.1,4l7.8,1.3
				c8.1,1.3,12.1,5.4,12.1,12.4c0,3.5-1.5,6.6-4.5,9.1c-3,2.4-7.1,3.7-12.5,3.7c-11.3,0-17.4-4.9-18.3-13.1h8.9
				c0.7,3.8,3.8,5.7,9.2,5.7c5.6,0,8.4-1.7,8.4-5.2c0-3.1-1.9-4.5-6.5-5.3l-8.3-1.4c-6.3-1-10.2-4.5-10.2-10.5
				c0-7.1,5.6-12.1,16.4-12.1c9.5,0,15.5,4.5,16.4,11.7h-9V957.8z"/>
		</g>
	</g>
</g>
<g id="XMLID_250_">
	<rect id="XMLID_317_" x="1190.7" y="903.5" class="st8" width="252.6" height="124.2"/>
	<g id="XMLID_251_">
		<g>
			<path id="XMLID_111_" class="st9" d="M1261.3,987v-3.7h-1.9c-2.4,3.1-6.3,4.7-11.8,4.7c-4.4,0-7.8-1.3-10.4-3.8
				c-2.6-2.6-3.8-5.6-3.8-9.3c0-3.6,1.3-6.7,3.9-9.4s6.6-4,11.9-4h11.8v-1.2c0-4.6-2.7-7.3-8.4-7.3c-4.9,0-7.6,1.7-8,5.1h-8.8
				c0.4-7.4,7-12.1,16.5-12.1c10.7,0,17.2,4.8,17.2,14.4V987H1261.3z M1258,977.9c2-2,3.1-4.3,3.1-7.1v-3.1h-10.2
				c-5.6,0-8.5,2.4-8.5,6.6c0,4.1,3,6.4,8.1,6.4C1253.4,980.8,1255.9,979.9,1258,977.9z"/>
			<path id="XMLID_109_" class="st9" d="M1300.5,947.1v8.2h-3.6c-8.1,0-12.5,4.6-12.5,13V987h-8.9v-39.9h8.5v4.6h1.9
				c2.3-3.1,6-4.6,11.1-4.6H1300.5z"/>
			<path id="XMLID_107_" class="st9" d="M1313,947.1h9.4v7.5h-9.4V974c0,3.5,2,5.2,6.1,5.2h3.3v7.7h-3.4c-9.6,0-14.8-3.2-14.8-11.8
				v-38.2h8.9L1313,947.1L1313,947.1z"/>
			<path id="XMLID_104_" class="st9" d="M1359,982.2c-3.6,3.8-8.5,5.8-14.6,5.8c-6.2,0-11-2-14.7-5.8c-3.6-3.9-5.4-9-5.4-15.2
				s1.8-11.2,5.4-15c3.7-3.9,8.5-5.9,14.7-5.9s11,2,14.6,5.9c3.7,3.8,5.5,8.9,5.5,15S1362.7,978.3,1359,982.2z M1344.3,953.6
				c-7.3,0-11.3,5.9-11.3,13.4c0,7.6,4,13.5,11.3,13.5s11.3-5.9,11.3-13.5C1355.6,959.5,1351.6,953.6,1344.3,953.6z"/>
			<path id="XMLID_102_" class="st9" d="M1391.3,957.8c-0.5-2.9-3.1-4.3-7.8-4.3c-4.8,0-7.2,1.4-7.2,4.2c0,2.4,1.6,3.4,5.1,4
				l7.8,1.3c8.1,1.3,12.1,5.4,12.1,12.4c0,3.5-1.5,6.6-4.5,9.1c-3,2.4-7.1,3.7-12.5,3.7c-11.3,0-17.4-4.9-18.3-13.1h8.9
				c0.7,3.8,3.8,5.7,9.2,5.7c5.6,0,8.4-1.7,8.4-5.2c0-3.1-1.9-4.5-6.5-5.3l-8.3-1.4c-6.3-1-10.2-4.5-10.2-10.5
				c0-7.1,5.6-12.1,16.4-12.1c9.5,0,15.5,4.5,16.4,11.7h-9V957.8z"/>
		</g>
	</g>
</g>
</svg>
