<?xml version="1.0" encoding="utf-8"?>
<!-- Generator: Adobe Illustrator 19.0.0, SVG Export Plug-In . SVG Version: 6.00 Build 0)  -->
<svg version="1.1" id="Layer_1" xmlns="http://www.w3.org/2000/svg" xmlns:xlink="http://www.w3.org/1999/xlink" x="0px" y="0px"
	 viewBox="0 0 1500 1000" style="enable-background:new 0 0 1500 1000;" xml:space="preserve">
<style type="text/css">
	.st0{fill:#EFEFEF;}
	.st1{fill:#101010;}
	.st2{fill:#FFFFFF;}
	.st3{fill:#36AFA7;}
</style>
<g id="XMLID_2_">
	<rect id="XMLID_1_" y="0" class="st0" width="1500" height="1000"/>
	<g id="XMLID_257_">
		<rect id="XMLID_557_" x="0" class="st1" width="772.3" height="1000"/>
		<g id="XMLID_372_">
			<path id="XMLID_373_" class="st2" d="M239,832.6v-12.1h19.3v-57h-2.9l-16.6,11.2v-13.9l16.7-11.4h16.6v71.2h17.7v12.1H239z"/>
			<path id="XMLID_375_" class="st2" d="M328.4,747.6c9.5,0,17.1,3.6,23,10.8c5.8,7.3,8.7,18.1,8.7,32.5c0,14.4-2.9,25.2-8.7,32.5
				c-5.8,7.1-13.5,10.7-23,10.7c-9.5,0-17.1-3.6-23-10.7c-5.8-7.3-8.7-18.1-8.7-32.5c0-14.4,2.9-25.2,8.7-32.5
				C311.2,751.1,318.8,747.6,328.4,747.6z M328.4,821.8c6.2,0,10.7-2.9,13.5-8.5c2.9-5.6,4.3-13.1,4.3-22.4c0-9.3-1.4-16.8-4.3-22.4
				c-2.7-5.7-7.3-8.6-13.5-8.6s-10.7,2.9-13.6,8.6c-2.7,5.6-4.2,13.1-4.2,22.4c0,9.3,1.4,16.8,4.2,22.4
				C317.6,818.9,322.2,821.8,328.4,821.8z"/>
			<path id="XMLID_378_" class="st2" d="M418.2,790c6.6,2.5,12.6,9.5,12.6,19.5c0,7-2.9,13-8.5,17.6s-13.1,7-22.6,7
				c-9.6,0-17.3-2.4-22.9-7c-5.6-4.6-8.3-10.6-8.3-17.6c0-10,6.1-17,12.6-19.5v-2.9c-5.2-2.7-10-8.6-10-17.1
				c0-6.6,2.6-11.9,7.9-16.1s12.1-6.3,20.7-6.3s15.5,2.1,20.6,6.3c5.2,4.2,7.9,9.5,7.9,16.1c0,8.5-4.8,14.4-10,17.1V790z
				 M417.1,808.2c0-8.5-6.6-14.1-17.4-14.1c-11,0-17.4,5.6-17.4,14.1c0,8.5,6.4,14.1,17.4,14.1C410.5,822.2,417.1,816.6,417.1,808.2
				z M399.7,783.4c8.7,0,15-4.9,15-12.4s-6.3-12.3-15-12.3s-15.1,5-15.1,12.3C384.6,778.5,391,783.4,399.7,783.4z"/>
			<path id="XMLID_382_" class="st2" d="M444.7,849.4h-11.8l36-107.2h11.4L444.7,849.4z"/>
			<path id="XMLID_384_" class="st2" d="M486.6,832.6v-12.1h19.3v-57h-2.9l-16.6,11.2v-13.9l16.7-11.4h16.6v71.2h17.7v12.1H486.6z"
				/>
			<path id="XMLID_386_" class="st2" d="M576,747.6c9.5,0,17.1,3.6,23,10.8s8.7,18.1,8.7,32.5c0,14.4-2.9,25.2-8.7,32.5
				c-5.8,7.1-13.5,10.7-23,10.7c-9.5,0-17.1-3.6-23-10.7c-5.8-7.3-8.7-18.1-8.7-32.5c0-14.4,2.9-25.2,8.7-32.5
				C558.8,751.1,566.4,747.6,576,747.6z M576,821.8c6.2,0,10.7-2.9,13.5-8.5c2.9-5.6,4.3-13.1,4.3-22.4c0-9.3-1.4-16.8-4.3-22.4
				c-2.7-5.7-7.3-8.6-13.5-8.6s-10.7,2.9-13.6,8.6c-2.7,5.6-4.2,13.1-4.2,22.4c0,9.3,1.4,16.8,4.2,22.4
				C565.2,818.9,569.8,821.8,576,821.8z"/>
			<path id="XMLID_389_" class="st2" d="M616.3,773.3c1-16.7,12.1-25.7,29.2-25.7c8.3,0,15.1,2.3,20.2,6.9c5.1,4.5,7.7,11,7.7,19.2
				c0,9.9-5.6,19.3-16.9,28.3l-19.3,15.6v2.9h38.6v12.1h-59.4v-14.9l29.9-23.6c8-6.2,13.2-12.4,13.2-20.4c0-8.9-5.5-13.8-14.4-13.8
				c-8.5,0-14.1,4.4-15,13.3H616.3z"/>
			<path id="XMLID_391_" class="st2" d="M242.7,946.9v-85h22.6l17.6,37h2.9l17.4-37H326v85h-13.6v-68h-2.9l-18,37.3H277l-17.9-37.3
				h-2.9v68H242.7z"/>
			<path id="XMLID_393_" class="st2" d="M396.5,917.8h-44.8c0.4,12.9,6.1,19.3,17,19.3c7,0,11.4-2.6,13.2-7.7h13.7
				c-2.4,11.6-11.8,19.2-27,19.2c-9.4,0-16.8-3-22.2-8.9s-8.1-13.7-8.1-23.3s2.6-17.3,8-22.9c5.4-5.7,12.7-8.6,21.9-8.6
				c8.7,0,15.6,2.7,20.5,8.1c5,5.4,7.6,12.1,7.7,20.4V917.8z M352.3,907.8h30.4c-1-7.1-6.1-12.3-14.5-12.3
				C359.2,895.5,353.8,900.3,352.3,907.8z"/>
			<path id="XMLID_396_" class="st2" d="M447.8,892.2h2.9v-31.8h13.5v86.6h-13v-5.8h-2.9c-3.9,4.9-9.9,7.4-17.9,7.4
				s-14.4-3-19.2-8.9c-4.6-6-7-13.6-7-23c0-9.3,2.4-16.9,7-22.9c4.8-6,11.2-8.9,19.2-8.9S444.1,887.3,447.8,892.2z M451,916.6
				c0-11.6-5.7-20.4-16.8-20.4c-10.6,0-16.6,8.1-16.6,20.4s6,20.5,16.6,20.5C445.3,937.1,451,928.1,451,916.6z"/>
			<path id="XMLID_399_" class="st2" d="M493,873.3h-13.8v-13H493V873.3z M492.7,886.3v60.6h-13.5v-60.6H492.7z"/>
			<path id="XMLID_402_" class="st2" d="M507.1,886.3h13.5v35.3c0,9.9,4.5,14.9,13.5,14.9c4.6,0,8.5-1.8,11.3-5.2
				c3-3.5,4.4-7.6,4.4-12.5v-32.4h13.5v60.6h-13v-5.8h-2.9c-3.7,4.9-9.5,7.4-17.5,7.4c-14.8,0-22.7-9.1-22.7-24.3V886.3z"/>
			<path id="XMLID_404_" class="st2" d="M665.2,908.2v38.7h-13.5v-36.4c0-9.2-3.5-13.7-10.4-13.7c-8.1,0-12.9,6.4-12.9,15.6v34.5
				H615v-36.3c0-9.2-3.5-13.8-10.4-13.8c-8.6,0-13,7.1-13,17.1v33h-13.5v-60.6h13v5.5h2.9c3.1-4.6,8.2-7,15.2-7
				c7.3,0,12.5,2.5,15.7,7.4h2.9c3.7-4.9,9.3-7.4,16.8-7.4C658.5,884.8,665.2,893.5,665.2,908.2z"/>
		</g>
		<g id="XMLID_343_">
			<path id="XMLID_344_" class="st2" d="M276.1,536.3l-25,49.4h-10.5l25.1-49.3v-2.1h-29.3v-8.7h39.6V536.3z"/>
			<path id="XMLID_346_" class="st2" d="M282.3,543c0.7-12,8.7-18.5,21-18.5c6,0,10.9,1.6,14.6,5c3.7,3.3,5.6,7.9,5.6,13.8
				c0,7.1-4,13.9-12.2,20.4l-13.9,11.2v2.1h27.8v8.7h-42.8V575l21.5-17c5.7-4.5,9.5-8.9,9.5-14.7c0-6.4-3.9-9.9-10.4-9.9
				c-6.1,0-10.1,3.2-10.8,9.6H282.3z"/>
			<path id="XMLID_348_" class="st2" d="M334.7,597.8h-8.5l25.9-77.2h8.2L334.7,597.8z"/>
			<path id="XMLID_350_" class="st2" d="M400.6,551.7c3.7,3.7,5.6,8.4,5.6,14.1c0,5.9-2,10.9-5.8,14.9c-3.9,4-9,6-15.4,6
				c-7.1,0-12.7-2.4-16.8-7.1s-6.2-12.3-6.2-22.6c0-6.3,0.8-11.9,2.4-16.6c3.3-9.6,10.6-16,21.2-16c5.1,0,9.4,1.5,12.9,4.3
				c3.4,2.8,5.5,6.4,6.2,10.8h-9.9c-1.3-4.4-4.4-6.6-9.3-6.6c-8.2,0-13.4,6.7-13.8,18.4h2.1c3-3.5,7.4-5.2,13.3-5.2
				C392.4,546.2,396.9,548.1,400.6,551.7z M384.7,554.5c-6.8,0-11.5,4.2-11.5,11.7c0,7.5,4.8,12.1,11.6,12.1c6.8,0,11.4-4.4,11.4-12
				C396.1,558.7,391.4,554.5,384.7,554.5z"/>
			<path id="XMLID_353_" class="st2" d="M447,555c4.7,1.8,9.1,6.9,9.1,14.1c0,5.1-2.1,9.3-6.1,12.7c-4,3.3-9.4,5.1-16.3,5.1
				c-6.9,0-12.4-1.7-16.5-5.1c-4-3.3-6-7.6-6-12.7c0-7.2,4.4-12.3,9.1-14.1v-2.1c-3.8-2-7.2-6.2-7.2-12.3c0-4.7,1.9-8.6,5.7-11.6
				c3.8-3,8.7-4.5,14.9-4.5s11.1,1.5,14.8,4.5c3.8,3,5.7,6.9,5.7,11.6c0,6.1-3.4,10.4-7.2,12.3V555z M446.2,568.1
				c0-6.1-4.7-10.1-12.5-10.1c-7.9,0-12.5,4-12.5,10.1c0,6.1,4.6,10.1,12.5,10.1C441.5,578.2,446.2,574.2,446.2,568.1z M433.7,550.3
				c6.3,0,10.8-3.5,10.8-8.9s-4.5-8.8-10.8-8.8c-6.3,0-10.9,3.6-10.9,8.8C422.8,546.8,427.4,550.3,433.7,550.3z"/>
			<path id="XMLID_357_" class="st2" d="M239.8,670.3V609h16.3l12.7,26.7h2.1l12.5-26.7h16.4v61.2H290v-49h-2.1L275,648.1h-10.5
				l-12.9-26.8h-2.1v49H239.8z"/>
			<path id="XMLID_359_" class="st2" d="M350.5,649.2h-32.2c0.3,9.3,4.4,13.9,12.3,13.9c5.1,0,8.2-1.9,9.5-5.6h9.9
				c-1.7,8.3-8.5,13.8-19.5,13.8c-6.8,0-12.1-2.1-16-6.4c-3.9-4.3-5.8-9.9-5.8-16.8c0-6.9,1.9-12.4,5.7-16.5
				c3.9-4.1,9.2-6.2,15.8-6.2c6.3,0,11.2,2,14.7,5.8c3.6,3.9,5.5,8.7,5.6,14.7V649.2z M318.7,642h21.9c-0.7-5.1-4.4-8.8-10.5-8.8
				C323.7,633.2,319.8,636.6,318.7,642z"/>
			<path id="XMLID_362_" class="st2" d="M387.5,630.8h2.1v-22.9h9.7v62.3h-9.3v-4.2h-2.1c-2.8,3.5-7.1,5.3-12.9,5.3
				c-5.7,0-10.4-2.1-13.8-6.4c-3.3-4.3-5.1-9.8-5.1-16.6c0-6.7,1.7-12.2,5.1-16.5c3.4-4.3,8.1-6.4,13.8-6.4
				C380.7,625.5,384.8,627.3,387.5,630.8z M389.8,648.4c0-8.3-4.1-14.7-12.1-14.7c-7.6,0-11.9,5.8-11.9,14.7
				c0,8.8,4.3,14.8,11.9,14.8C385.7,663.1,389.8,656.7,389.8,648.4z"/>
			<path id="XMLID_365_" class="st2" d="M420,617.3H410v-9.3h9.9V617.3z M419.8,626.6v43.6h-9.7v-43.6H419.8z"/>
			<path id="XMLID_368_" class="st2" d="M430.2,626.6h9.7V652c0,7.1,3.3,10.7,9.7,10.7c3.3,0,6.1-1.3,8.1-3.8c2.1-2.5,3.2-5.5,3.2-9
				v-23.3h9.7v43.6h-9.3v-4.2h-2.1c-2.7,3.5-6.9,5.3-12.6,5.3c-10.6,0-16.4-6.5-16.4-17.5V626.6z"/>
			<path id="XMLID_370_" class="st2" d="M544,642.4v27.9h-9.7V644c0-6.6-2.5-9.9-7.5-9.9c-5.8,0-9.3,4.6-9.3,11.2v24.9h-9.7v-26.2
				c0-6.6-2.5-9.9-7.5-9.9c-6.2,0-9.3,5.1-9.3,12.3v23.8h-9.7v-43.6h9.3v3.9h2.1c2.2-3.3,5.9-5.1,11-5.1c5.2,0,9,1.8,11.3,5.3h2.1
				c2.7-3.5,6.7-5.3,12.1-5.3C539.2,625.5,544,631.8,544,642.4z"/>
		</g>
		<g id="XMLID_314_">
			<path id="XMLID_315_" class="st2" d="M236,215.2h20.5v5.9l-7.2,5.9v1.2c5.2,0.3,8.9,3.9,8.9,9.9c0,3.4-1.1,6.1-3.4,8.2
				c-2.2,2-5.2,3-8.8,3c-3.5,0-6.4-1-8.6-2.9s-3.4-4.5-3.6-7.5h5.6c0.3,3.4,3,5.4,6.6,5.4c4.1,0,6.7-2.4,6.7-6.2
				c0-3.9-2.4-6.3-6.7-6.3c-1.2,0-2.2,0.1-3,0.3v-5l7.2-5.9v-1.1H236V215.2z"/>
			<path id="XMLID_317_" class="st2" d="M284.3,229.7c2,2,3.1,4.7,3.1,7.9c0,3.3-1.1,6.1-3.2,8.3c-2.1,2.2-5,3.3-8.6,3.3
				c-4,0-7.1-1.3-9.3-4s-3.4-6.8-3.4-12.6c0-3.5,0.4-6.6,1.3-9.2c1.9-5.3,5.9-8.9,11.8-8.9c2.9,0,5.2,0.8,7.1,2.4
				c1.9,1.6,3,3.6,3.4,6H281c-0.7-2.4-2.4-3.7-5.2-3.7c-4.6,0-7.4,3.7-7.7,10.2h1.1c1.7-2,4.1-2.9,7.4-2.9
				C279.7,226.6,282.2,227.6,284.3,229.7z M275.4,231.2c-3.8,0-6.4,2.3-6.4,6.5c0,4.2,2.7,6.7,6.4,6.7c3.8,0,6.3-2.4,6.3-6.7
				C281.8,233.5,279.2,231.2,275.4,231.2z"/>
			<path id="XMLID_320_" class="st2" d="M293.6,255.3h-4.7l14.4-42.9h4.6L293.6,255.3z"/>
			<path id="XMLID_322_" class="st2" d="M329.1,236.2h4.3v4.9h-4.3v7.5h-5.4v-7.5h-16.2v-6l14.7-19.9h6.9V236.2z M313,236.2h10.9
				v-14.7h-1.1l-9.7,13.6V236.2z"/>
			<path id="XMLID_325_" class="st2" d="M350.6,214.5c3.8,0,6.9,1.4,9.2,4.3c2.3,2.9,3.5,7.2,3.5,13s-1.1,10.1-3.5,13
				c-2.3,2.9-5.4,4.3-9.2,4.3s-6.9-1.4-9.2-4.3c-2.3-2.9-3.5-7.2-3.5-13s1.1-10.1,3.5-13C343.7,216,346.7,214.5,350.6,214.5z
				 M350.6,244.2c2.5,0,4.3-1.1,5.4-3.4c1.1-2.2,1.7-5.2,1.7-9s-0.6-6.7-1.7-9c-1.1-2.3-2.9-3.4-5.4-3.4s-4.3,1.1-5.4,3.4
				c-1.1,2.2-1.7,5.2-1.7,9s0.6,6.7,1.7,9C346.3,243.1,348.1,244.2,350.6,244.2z"/>
			<path id="XMLID_328_" class="st2" d="M236.5,297.4v-34h9.1l7.1,14.8h1.1l7-14.8h9.1v34h-5.4v-27.2h-1.1l-7.2,14.9h-5.8l-7.1-14.9
				h-1.1v27.2H236.5z"/>
			<path id="XMLID_330_" class="st2" d="M299.4,285.7h-17.9c0.1,5.1,2.4,7.7,6.8,7.7c2.8,0,4.6-1,5.3-3.1h5.5
				c-1,4.6-4.7,7.7-10.8,7.7c-3.8,0-6.7-1.2-8.9-3.6c-2.1-2.4-3.2-5.5-3.2-9.3c0-3.9,1-6.9,3.2-9.1c2.1-2.3,5.1-3.4,8.8-3.4
				c3.5,0,6.2,1.1,8.2,3.2c2,2.1,3,4.9,3.1,8.1V285.7z M281.8,281.7h12.1c-0.4-2.9-2.4-4.9-5.8-4.9
				C284.5,276.8,282.4,278.7,281.8,281.7z"/>
			<path id="XMLID_333_" class="st2" d="M321.4,275.5h1.1v-12.7h5.4v34.6h-5.2V295h-1.1c-1.6,2-4,3-7.1,3c-3.2,0-5.8-1.2-7.7-3.6
				c-1.9-2.4-2.8-5.4-2.8-9.2c0-3.7,1-6.8,2.8-9.1c1.9-2.4,4.5-3.6,7.7-3.6C317.6,272.5,319.9,273.5,321.4,275.5z M322.7,285.2
				c0-4.6-2.3-8.1-6.7-8.1c-4.2,0-6.6,3.2-6.6,8.1s2.4,8.2,6.6,8.2C320.4,293.4,322.7,289.8,322.7,285.2z"/>
			<path id="XMLID_336_" class="st2" d="M340.9,267.9h-5.5v-5.2h5.5V267.9z M340.8,273.1v24.2h-5.4v-24.2H340.8z"/>
			<path id="XMLID_339_" class="st2" d="M348,273.1h5.4v14.1c0,4,1.8,6,5.4,6c1.9,0,3.4-0.7,4.5-2.1c1.2-1.4,1.8-3,1.8-5v-13h5.4
				v24.2h-5.2V295h-1.1c-1.5,2-3.8,3-7,3c-5.9,0-9.1-3.6-9.1-9.7V273.1z"/>
			<path id="XMLID_341_" class="st2" d="M412.6,281.9v15.5h-5.4v-14.6c0-3.7-1.4-5.5-4.1-5.5c-3.2,0-5.1,2.6-5.1,6.2v13.8h-5.4
				v-14.5c0-3.7-1.4-5.5-4.1-5.5c-3.4,0-5.2,2.9-5.2,6.9v13.2h-5.4v-24.2h5.2v2.2h1.1c1.2-1.9,3.3-2.8,6.1-2.8c2.9,0,5,1,6.3,3h1.1
				c1.5-2,3.7-3,6.7-3C410,272.5,412.6,276,412.6,281.9z"/>
		</g>
		<g id="XMLID_282_">
			<path id="XMLID_283_" class="st2" d="M233.8,136.2h4v-12.6h-0.5l-3.5,2.4v-2.2l3.5-2.4h2.6v14.8h3.6v1.9h-9.7V136.2z"/>
			<path id="XMLID_285_" class="st2" d="M255.1,129.6c1.1,0.4,2.6,1.8,2.6,4c0,2.8-2.4,4.9-6,4.9c-3.7,0-6-2.1-6-4.9
				c0-2.2,1.5-3.6,2.6-4V129c-0.9-0.4-2.1-1.6-2.1-3.5c0-2.6,2.3-4.5,5.5-4.5c3.2,0,5.5,1.8,5.5,4.5c0,1.9-1.2,3.1-2.1,3.5V129.6z
				 M255.6,133.4c0-2-1.5-3.1-4-3.1c-2.5,0-4,1.2-4,3.1c0,1.9,1.5,3.2,4,3.2C254.1,136.5,255.6,135.3,255.6,133.4z M248.2,125.6
				c0,1.8,1.6,2.8,3.5,2.8c1.9,0,3.5-1,3.5-2.8c0-1.8-1.6-2.7-3.5-2.7C249.7,122.9,248.2,123.8,248.2,125.6z"/>
			<path id="XMLID_289_" class="st2" d="M258.9,141.4l7.2-21.4h1.8l-7.1,21.4H258.9z"/>
			<path id="XMLID_291_" class="st2" d="M269.9,126c0.2-3.3,2.6-4.9,5.5-4.9c3.1,0,5.4,1.7,5.4,5.1c0,2.3-1.7,4.4-3.7,6l-4.2,3.5
				v0.5h8.4v1.9h-11.5v-2.4l2.5-2c1.3-1.1,2.9-2.4,3.8-3.2c1.1-1,2.6-2.4,2.6-4.4c0-2.1-1.3-3.2-3.4-3.2c-1.9,0-3.2,1-3.4,3.1H269.9
				z"/>
			<path id="XMLID_293_" class="st2" d="M296,129.8c0,6-2.6,8.6-6.1,8.6c-3.5,0-6.1-2.6-6.1-8.6c0-6,2.6-8.7,6.1-8.7
				C293.4,121.1,296,123.8,296,129.8z M293.9,129.8c0-4.1-1.3-6.8-4-6.8c-2.8,0-4,2.7-4,6.8c0,4.1,1.3,6.8,4,6.8
				C292.7,136.5,293.9,133.9,293.9,129.8z"/>
			<path id="XMLID_296_" class="st2" d="M242.1,148.5c3.6,0,5.6,1.8,5.6,5c0,2.1-0.9,3.6-2.6,4.4l2.7,7.7h-2.2l-2.5-7.2
				c-0.5,0-0.9,0.1-1.4,0.1h-5v7.1h-2.1v-17H242.1z M241.8,156.5c2.7,0,3.7-1.1,3.7-3c0-1.9-1-3-3.7-3h-5.1v6.1H241.8z"/>
			<path id="XMLID_299_" class="st2" d="M261.6,159.5h-9.1c0.1,2.9,1.4,4.6,3.8,4.6c1.7,0,2.7-0.7,3-1.9h2c-0.4,2-2.1,3.6-5.1,3.6
				c-3.7,0-5.8-2.7-5.8-6.4s2.1-6.2,5.8-6.2c3.6,0,5.3,2.6,5.4,5.6V159.5z M252.6,157.8h6.9c-0.1-1.5-1.3-2.8-3.3-2.8
				C254,154.9,252.9,156.2,252.6,157.8z"/>
			<path id="XMLID_302_" class="st2" d="M275.5,153.5v11.4c0,3.4-2.1,5.5-5.6,5.5c-3.1,0-5.1-1.3-5.4-3.7h2c0.4,1.4,1.6,2,3.4,2
				c2.5,0,3.6-1.5,3.6-3.9v-1H273c-0.6,0.8-1.8,1.6-3.6,1.6c-3.3,0-5.3-2.6-5.3-6.1c0-3.5,2-6.1,5.3-6.1c1.9,0,3,0.8,3.7,1.6h0.5
				v-1.3H275.5z M273.5,159.3c0-2.3-1.2-4.4-3.8-4.4c-2.4,0-3.7,1.7-3.7,4.4c0,2.6,1.3,4.4,3.7,4.4
				C272.3,163.7,273.5,161.6,273.5,159.3z"/>
			<path id="XMLID_305_" class="st2" d="M281.2,153.5v7.2c0,2.2,1,3.3,3,3.3c2.1,0,3.6-1.8,3.6-4v-6.5h2v12h-2v-1.3h-0.5
				c-0.7,0.9-2,1.6-3.6,1.6c-3,0-4.6-1.8-4.6-4.7v-7.6H281.2z"/>
			<path id="XMLID_307_" class="st2" d="M295.8,148.2v17.3h-2v-17.3H295.8z"/>
			<path id="XMLID_309_" class="st2" d="M307.4,164.2h-0.5c-0.7,0.9-2,1.6-3.7,1.6c-2.8,0-4.3-1.9-4.3-3.9c0-1.9,1.3-4,4.6-4h3.9
				v-0.5c0-1.5-0.8-2.5-2.9-2.5c-1.8,0-2.7,0.7-2.8,1.7h-2c0.2-2.2,2.1-3.5,4.8-3.5c3,0,5,1.5,5,4.1v8.2h-1.9V164.2z M307.3,160.6
				v-1.1h-3.6c-2,0-2.9,0.9-2.9,2.3c0,1.4,1,2.2,2.8,2.2C305.6,164,307.3,162.5,307.3,160.6z"/>
			<path id="XMLID_312_" class="st2" d="M319.9,155.4h-1c-2.4,0-3.8,1.5-3.8,4.1v6h-2v-12h2v1.4h0.5c0.6-0.7,1.7-1.4,3.5-1.4h0.9
				V155.4z"/>
		</g>
		<g id="XMLID_234_">
			<path id="XMLID_235_" class="st2" d="M233.4,48h3v-9.5H236l-2.6,1.8v-1.6l2.6-1.8h1.9V48h2.7v1.4h-7.3V48z"/>
			<path id="XMLID_237_" class="st2" d="M250.1,36.9v1.8l-3.1,2.7v0.4c2.1,0.1,3.7,1.4,3.7,3.8c0,2.6-1.9,4.1-4.4,4.1
				c-2.5,0-4.2-1.6-4.4-3.7h1.6c0.1,1.4,1.3,2.3,2.8,2.3c1.7,0,2.8-1,2.8-2.7c0-1.6-1-2.7-2.8-2.7c-0.4,0-0.8,0-1.1,0.1v-1.7
				l3.1-2.6v-0.4h-5.5v-1.4H250.1z"/>
			<path id="XMLID_239_" class="st2" d="M252.6,49.4v-2.1h1.9v2.1H252.6z"/>
			<path id="XMLID_241_" class="st2" d="M265.6,45.2c0,2.7-1.8,4.5-4.3,4.5c-2.8,0-4.2-1.6-4.4-3.7h1.6c0.2,1.6,1.2,2.3,2.7,2.3
				c1.7,0,2.8-1.1,2.8-3c0-1.7-1.1-2.9-2.7-2.9c-1.1,0-1.9,0.4-2.5,1.2h-1.6l0.6-6.6h7.1v1.4H259l-0.3,3.6h0.4
				c0.6-0.5,1.3-0.9,2.4-0.9C264,41,265.6,42.8,265.6,45.2z"/>
			<path id="XMLID_243_" class="st2" d="M266.5,51.9l5.4-16.1h1.4l-5.3,16.1H266.5z"/>
			<path id="XMLID_245_" class="st2" d="M274.8,48h3v-9.5h-0.4l-2.6,1.8v-1.6l2.6-1.8h1.9V48h2.7v1.4h-7.3V48z"/>
			<path id="XMLID_247_" class="st2" d="M292.4,45.2c0,2.7-1.8,4.5-4.3,4.5c-2.8,0-4.2-1.6-4.4-3.7h1.6c0.2,1.6,1.2,2.3,2.7,2.3
				c1.7,0,2.8-1.1,2.8-3c0-1.7-1.1-2.9-2.7-2.9c-1.1,0-1.9,0.4-2.5,1.2h-1.6l0.6-6.6h7.1v1.4h-5.9l-0.3,3.6h0.4
				c0.6-0.5,1.3-0.9,2.4-0.9C290.9,41,292.4,42.8,292.4,45.2z"/>
			<path id="XMLID_249_" class="st2" d="M242.8,65.7v1.5H234V54.5h1.6v11.2H242.8z"/>
			<path id="XMLID_251_" class="st2" d="M245,55.9v-1.6h1.6v1.6H245z M246.5,67.3H245v-9h1.5V67.3z"/>
			<path id="XMLID_254_" class="st2" d="M257.6,58.3v8.6c0,2.5-1.6,4.1-4.2,4.1c-2.3,0-3.8-1-4.1-2.8h1.5c0.3,1.1,1.2,1.5,2.6,1.5
				c1.9,0,2.7-1.1,2.7-2.9V66h-0.4c-0.5,0.6-1.3,1.2-2.7,1.2c-2.5,0-4-2-4-4.6c0-2.6,1.5-4.6,4-4.6c1.4,0,2.3,0.6,2.8,1.2h0.4v-1
				H257.6z M256.1,62.6c0-1.7-0.9-3.3-2.8-3.3c-1.8,0-2.8,1.3-2.8,3.3c0,1.9,1,3.3,2.8,3.3C255.2,65.9,256.1,64.3,256.1,62.6z"/>
			<path id="XMLID_258_" class="st2" d="M267,67.3v-5.4c0-1.6-0.8-2.5-2.3-2.5c-1.6,0-2.7,1.4-2.7,3v4.9h-1.5v-13h1.5v4.9h0.4
				c0.5-0.7,1.5-1.2,2.7-1.2c2.2,0,3.4,1.4,3.4,3.5v5.7H267z"/>
			<path id="XMLID_260_" class="st2" d="M275.6,58.3v1.3h-2.3v4.9c0,0.9,0.4,1.4,1.6,1.4h0.7v1.4h-0.7c-1.9,0-3.1-0.6-3.1-2.5v-5.2
				h-1.6v-1.3h1.6v-2.7h1.5v2.7H275.6z"/>
			<path id="XMLID_262_" class="st2" d="M278,67.3v-2.1h1.9v2.4l-1,1.7h-1l1-1.7v-0.3H278z"/>
			<path id="XMLID_264_" class="st2" d="M293.5,54.5c2.7,0,4.2,1.4,4.2,3.7c0,1.6-0.7,2.7-1.9,3.3l2,5.8h-1.7l-1.9-5.4
				c-0.3,0-0.7,0.1-1,0.1h-3.7v5.3h-1.6V54.5H293.5z M293.3,60.5c2.1,0,2.8-0.9,2.8-2.3c0-1.4-0.8-2.3-2.8-2.3h-3.8v4.6H293.3z"/>
			<path id="XMLID_267_" class="st2" d="M308.2,62.7h-6.9c0.1,2.1,1,3.4,2.9,3.4c1.3,0,2-0.5,2.3-1.4h1.5c-0.3,1.5-1.6,2.7-3.8,2.7
				c-2.8,0-4.4-2.1-4.4-4.8s1.6-4.6,4.3-4.6c2.7,0,4,2,4,4.2V62.7z M301.4,61.5h5.2c-0.1-1.1-1-2.1-2.5-2.1
				C302.5,59.3,301.6,60.3,301.4,61.5z"/>
			<path id="XMLID_270_" class="st2" d="M318.6,58.3v8.6c0,2.5-1.6,4.1-4.2,4.1c-2.3,0-3.8-1-4.1-2.8h1.5c0.3,1.1,1.2,1.5,2.6,1.5
				c1.9,0,2.7-1.1,2.7-2.9V66h-0.4c-0.5,0.6-1.3,1.2-2.7,1.2c-2.5,0-4-2-4-4.6c0-2.6,1.5-4.6,4-4.6c1.4,0,2.3,0.6,2.8,1.2h0.4v-1
				H318.6z M317.1,62.6c0-1.7-0.9-3.3-2.8-3.3c-1.8,0-2.8,1.3-2.8,3.3c0,1.9,1,3.3,2.8,3.3C316.2,65.9,317.1,64.3,317.1,62.6z"/>
			<path id="XMLID_273_" class="st2" d="M322.9,58.3v5.4c0,1.7,0.8,2.5,2.3,2.5c1.6,0,2.7-1.4,2.7-3v-4.9h1.5v9h-1.5v-1h-0.4
				c-0.5,0.7-1.5,1.2-2.7,1.2c-2.2,0-3.4-1.4-3.4-3.5v-5.7H322.9z"/>
			<path id="XMLID_275_" class="st2" d="M333.8,54.3v13h-1.5v-13H333.8z"/>
			<path id="XMLID_277_" class="st2" d="M342.5,66.3h-0.4c-0.6,0.7-1.5,1.2-2.8,1.2c-2.1,0-3.2-1.4-3.2-2.9c0-1.4,0.9-3,3.4-3h2.9
				v-0.4c0-1.1-0.6-1.9-2.2-1.9c-1.3,0-2,0.5-2.1,1.3h-1.5c0.1-1.7,1.6-2.6,3.6-2.6c2.3,0,3.7,1.1,3.7,3.1v6.1h-1.4V66.3z
				 M342.4,63.6v-0.8h-2.7c-1.5,0-2.2,0.6-2.2,1.7c0,1,0.8,1.7,2.1,1.7C341.2,66.2,342.4,65,342.4,63.6z"/>
			<path id="XMLID_280_" class="st2" d="M351.9,59.7h-0.8c-1.8,0-2.9,1.1-2.9,3.1v4.5h-1.5v-9h1.5v1.1h0.4c0.4-0.6,1.3-1.1,2.6-1.1
				h0.7V59.7z"/>
		</g>
		<g id="XMLID_204_">
			<path id="XMLID_205_" class="st2" d="M236.5,359.8h28.3v10.5l-6.7,4.2v1.7c5.2,0.9,9.1,4.9,9.1,11.6c0,4.3-1.5,7.9-4.6,10.5
				c-3,2.7-7.1,4-12,4c-4.9,0-8.9-1.3-12-4c-3-2.7-4.6-6-4.6-10.1h10.7c0.5,3.2,2.7,4.9,6,4.9c3.6,0,6-2.3,6-5.4
				c0-3.4-2.2-5.7-6-5.7c-1.4,0-2.7,0.2-3.9,0.5v-8l6.7-4.2v-1.7h-16.8V359.8z"/>
			<path id="XMLID_207_" class="st2" d="M301.8,377.3c2.6,2.6,3.9,5.9,3.9,9.9c0,4.2-1.5,7.7-4.4,10.7c-2.9,2.9-6.8,4.3-11.6,4.3
				c-9.8,0-17.4-5.6-17.4-21.1c0-6.8,1.4-12.2,4.3-16.2c2.9-4,7.3-6,13.1-6c3.9,0,7.3,1.1,10.1,3.5c2.8,2.3,4.4,5,4.8,8.3h-10.6
				c-0.5-2.1-2-3.2-4.6-3.2c-3.9,0-6.6,2.7-7,8.9h1.7c1.8-2,4.5-2.9,8.1-2.9C296,373.4,299.2,374.7,301.8,377.3z M295.1,387.5
				c0-1.9-0.5-3.4-1.5-4.4c-1-1.1-2.3-1.6-4-1.6s-3.1,0.5-4.1,1.5c-1,1-1.5,2.5-1.5,4.4c0,3.8,2.3,6.2,5.6,6.2
				C292.9,393.6,295.1,391.4,295.1,387.5z"/>
			<path id="XMLID_210_" class="st2" d="M315.5,409.8h-8.3l18-53.6h8.2L315.5,409.8z"/>
			<path id="XMLID_212_" class="st2" d="M357.4,392.3h8.3v9.2h-28.1v-9.2h9.2v-22.1h-1.7l-7.5,5.2V365l7.4-5.2h12.3V392.3z"/>
			<path id="XMLID_214_" class="st2" d="M387.1,358.9c5.1,0,9.2,1.8,12.3,5.4c3.1,3.6,4.6,9,4.6,16.3s-1.5,12.7-4.6,16.3
				c-3.1,3.6-7.2,5.4-12.3,5.4c-5.1,0-9.2-1.8-12.3-5.4c-3.1-3.6-4.6-9.1-4.6-16.3s1.5-12.7,4.6-16.3
				C378,360.7,382.1,358.9,387.1,358.9z M387.1,368.3c-4.2,0-6.3,4.1-6.3,12.3c0,8.2,2.1,12.3,6.3,12.3s6.3-4.1,6.3-12.3
				C393.4,372.4,391.3,368.3,387.1,368.3z"/>
			<path id="XMLID_217_" class="st2" d="M436.6,380.1c3.3,1.5,6.1,4.6,6.1,9.4c0,3.6-1.4,6.6-4.3,9.1c-2.9,2.4-7,3.7-12.3,3.7
				c-5.4,0-9.5-1.3-12.4-3.7c-2.9-2.4-4.3-5.5-4.3-9.1c0-4.8,2.8-7.9,6.1-9.4v-1.7c-3.1-1.8-4.6-4.6-4.6-8.2c0-3.2,1.4-5.8,4-8
				c2.7-2.2,6.5-3.3,11.3-3.3c4.8,0,8.5,1.1,11.2,3.3c2.7,2.1,4,4.8,4,8c0,3.6-1.5,6.4-4.6,8.2V380.1z M426,393.6
				c4,0,6.1-2.4,6.1-5.2c0-2.8-2-5.2-6.1-5.2s-6.1,2.4-6.1,5.2C419.9,391.3,422,393.6,426,393.6z M426,366.8c-6.7-0.3-6.8,9.6,0,9.3
				C432.7,376.4,432.7,366.5,426,366.8z"/>
			<path id="XMLID_221_" class="st2" d="M267.9,435.1c2.8,1.3,5.3,4.7,5.3,8.6c0,7.6-4.9,12.5-14.8,12.5H237v-42.5h20.8
				c9.3,0,14.3,4.9,14.3,11.6c0,3.6-1.7,6.8-4.2,8.2V435.1z M248,422.6v7.3h8.3c2.9,0,4.4-1.2,4.4-3.6c0-2.4-1.5-3.7-4.5-3.7H248z
				 M256.7,447.1c2.9,0,5.2-1.2,5.2-4c0-2.8-1.7-4.2-5-4.2H248v8.2H256.7z"/>
			<path id="XMLID_225_" class="st2" d="M280.4,412.9h10.4v43.3h-10.4V412.9z"/>
			<path id="XMLID_227_" class="st2" d="M327.1,436.7v19.5h-9.5v-2.4H316c-1.8,2.1-4.6,3.2-8.2,3.2c-3.3,0-6-1-7.9-3
				s-2.9-4.5-2.9-7.4c0-2.7,1.1-5.1,3.3-7.2s5.4-3.1,9.8-3.1h7.1v-0.5c0-2.6-1.4-3.9-4.2-3.9c-2.5,0-3.9,0.9-4.1,2.7h-10.2
				c0.1-3,1.4-5.4,3.9-7.3s5.8-2.7,9.8-2.7C322.2,424.5,327.1,428.5,327.1,436.7z M317.2,442.2h-5c-2.9,0-4.8,1.4-4.8,3.6
				c0,2.4,1.5,3.6,4.4,3.6c3.3,0,5.4-2.3,5.4-5.4V442.2z"/>
			<path id="XMLID_230_" class="st2" d="M364.1,445.2c-0.3,3.5-1.8,6.4-4.6,8.6c-2.7,2.2-6.1,3.3-10.2,3.3c-4.8,0-8.8-1.4-11.7-4.3
				c-2.9-2.9-4.3-6.9-4.3-11.9c0-5,1.4-8.9,4.3-11.9c2.9-2.9,6.8-4.4,11.7-4.4c4,0,7.3,1,10,3.1s4.2,4.8,4.5,8.2h-10.2
				c-0.5-1.8-2-2.8-4.2-2.8c-4,0-5.7,3.2-5.7,7.8c0,4.7,1.7,7.8,5.7,7.8c2.7,0,4.2-1.1,4.5-3.4H364.1z"/>
			<path id="XMLID_232_" class="st2" d="M403.4,456.2h-10.7l-6.3-13.2h-1.7l-3.6,4.1v9.1h-10.4v-43.3h10.4v22.5l9.5-10.2h11.4
				l-8.8,9.6L403.4,456.2z"/>
		</g>
		<g id="XMLID_170_">
			<path id="XMLID_171_" class="st1" d="M1007.6,832.6v-12.1h19.3v-57h-2.9l-16.6,11.2v-13.9l16.7-11.4h16.6v71.2h17.7v12.1H1007.6z
				"/>
			<path id="XMLID_173_" class="st1" d="M1096.9,747.6c9.5,0,17.1,3.6,23,10.8s8.7,18.1,8.7,32.5c0,14.4-2.9,25.2-8.7,32.5
				c-5.8,7.1-13.5,10.7-23,10.7s-17.1-3.6-23-10.7c-5.8-7.3-8.7-18.1-8.7-32.5c0-14.4,2.9-25.2,8.7-32.5S1087.4,747.6,1096.9,747.6z
				 M1096.9,821.8c6.2,0,10.7-2.9,13.5-8.5c2.9-5.6,4.3-13.1,4.3-22.4c0-9.3-1.4-16.8-4.3-22.4c-2.7-5.7-7.3-8.6-13.5-8.6
				c-6.2,0-10.7,2.9-13.6,8.6c-2.7,5.6-4.2,13.1-4.2,22.4c0,9.3,1.4,16.8,4.2,22.4C1086.2,818.9,1090.7,821.8,1096.9,821.8z"/>
			<path id="XMLID_176_" class="st1" d="M1186.7,790c6.6,2.5,12.6,9.5,12.6,19.5c0,7-2.9,13-8.5,17.6c-5.6,4.6-13.1,7-22.6,7
				c-9.6,0-17.3-2.4-22.9-7c-5.6-4.6-8.3-10.6-8.3-17.6c0-10,6.1-17,12.6-19.5v-2.9c-5.2-2.7-10-8.6-10-17.1
				c0-6.6,2.6-11.9,7.9-16.1s12.1-6.3,20.7-6.3c8.6,0,15.5,2.1,20.6,6.3c5.2,4.2,7.9,9.5,7.9,16.1c0,8.5-4.8,14.4-10,17.1V790z
				 M1185.6,808.2c0-8.5-6.6-14.1-17.4-14.1c-11,0-17.4,5.6-17.4,14.1c0,8.5,6.4,14.1,17.4,14.1
				C1179.1,822.2,1185.6,816.6,1185.6,808.2z M1168.2,783.4c8.7,0,15-4.9,15-12.4s-6.3-12.3-15-12.3c-8.7,0-15.1,5-15.1,12.3
				C1153.1,778.5,1159.6,783.4,1168.2,783.4z"/>
			<path id="XMLID_180_" class="st1" d="M1213.3,849.4h-11.8l36-107.2h11.4L1213.3,849.4z"/>
			<path id="XMLID_182_" class="st1" d="M1255.2,832.6v-12.1h19.3v-57h-2.9l-16.6,11.2v-13.9l16.7-11.4h16.6v71.2h17.7v12.1H1255.2z
				"/>
			<path id="XMLID_184_" class="st1" d="M1344.5,747.6c9.5,0,17.1,3.6,23,10.8s8.7,18.1,8.7,32.5c0,14.4-2.9,25.2-8.7,32.5
				c-5.8,7.1-13.5,10.7-23,10.7s-17.1-3.6-23-10.7c-5.8-7.3-8.7-18.1-8.7-32.5c0-14.4,2.9-25.2,8.7-32.5S1335,747.6,1344.5,747.6z
				 M1344.5,821.8c6.2,0,10.7-2.9,13.5-8.5c2.9-5.6,4.3-13.1,4.3-22.4c0-9.3-1.4-16.8-4.3-22.4c-2.7-5.7-7.3-8.6-13.5-8.6
				c-6.2,0-10.7,2.9-13.6,8.6c-2.7,5.6-4.2,13.1-4.2,22.4c0,9.3,1.4,16.8,4.2,22.4C1333.8,818.9,1338.3,821.8,1344.5,821.8z"/>
			<path id="XMLID_187_" class="st1" d="M1384.9,773.3c1-16.7,12.1-25.7,29.2-25.7c8.3,0,15.1,2.3,20.2,6.9c5.1,4.5,7.7,11,7.7,19.2
				c0,9.9-5.6,19.3-16.9,28.3l-19.3,15.6v2.9h38.6v12.1H1385v-14.9l29.9-23.6c8-6.2,13.2-12.4,13.2-20.4c0-8.9-5.5-13.8-14.4-13.8
				c-8.5,0-14.1,4.4-15,13.3H1384.9z"/>
			<path id="XMLID_189_" class="st1" d="M1011.3,946.9v-85h22.6l17.6,37h2.9l17.4-37h22.7v85h-13.6v-68h-2.9l-18,37.3h-14.5
				l-17.9-37.3h-2.9v68H1011.3z"/>
			<path id="XMLID_191_" class="st1" d="M1165,917.8h-44.8c0.4,12.9,6.1,19.3,17,19.3c7,0,11.4-2.6,13.2-7.7h13.7
				c-2.4,11.6-11.8,19.2-27,19.2c-9.4,0-16.8-3-22.2-8.9c-5.4-6-8.1-13.7-8.1-23.3s2.6-17.3,8-22.9c5.4-5.7,12.7-8.6,21.9-8.6
				c8.7,0,15.6,2.7,20.5,8.1c5,5.4,7.6,12.1,7.7,20.4V917.8z M1120.8,907.8h30.4c-1-7.1-6.1-12.3-14.5-12.3
				C1127.8,895.5,1122.4,900.3,1120.8,907.8z"/>
			<path id="XMLID_194_" class="st1" d="M1216.4,892.2h2.9v-31.8h13.5v86.6h-13v-5.8h-2.9c-3.9,4.9-9.9,7.4-17.9,7.4
				c-8,0-14.4-3-19.2-8.9c-4.6-6-7-13.6-7-23c0-9.3,2.4-16.9,7-22.9c4.8-6,11.2-8.9,19.2-8.9C1207,884.8,1212.7,887.3,1216.4,892.2z
				 M1219.6,916.6c0-11.6-5.7-20.4-16.8-20.4c-10.6,0-16.6,8.1-16.6,20.4s6,20.5,16.6,20.5C1213.9,937.1,1219.6,928.1,1219.6,916.6z
				"/>
			<path id="XMLID_197_" class="st1" d="M1261.5,873.3h-13.8v-13h13.8V873.3z M1261.3,886.3v60.6h-13.5v-60.6H1261.3z"/>
			<path id="XMLID_200_" class="st1" d="M1275.7,886.3h13.5v35.3c0,9.9,4.5,14.9,13.5,14.9c4.6,0,8.5-1.8,11.3-5.2
				c3-3.5,4.4-7.6,4.4-12.5v-32.4h13.5v60.6h-13v-5.8h-2.9c-3.7,4.9-9.5,7.4-17.5,7.4c-14.8,0-22.7-9.1-22.7-24.3V886.3z"/>
			<path id="XMLID_202_" class="st1" d="M1433.7,908.2v38.7h-13.5v-36.4c0-9.2-3.5-13.7-10.4-13.7c-8.1,0-12.9,6.4-12.9,15.6v34.5
				h-13.5v-36.3c0-9.2-3.5-13.8-10.4-13.8c-8.6,0-13,7.1-13,17.1v33h-13.5v-60.6h13v5.5h2.9c3.1-4.6,8.2-7,15.2-7
				c7.3,0,12.5,2.5,15.7,7.4h2.9c3.7-4.9,9.3-7.4,16.8-7.4C1427,884.8,1433.7,893.5,1433.7,908.2z"/>
		</g>
		<g id="XMLID_141_">
			<path id="XMLID_142_" class="st1" d="M1044.7,536.3l-25,49.4h-10.5l25.1-49.3v-2.1H1005v-8.7h39.6V536.3z"/>
			<path id="XMLID_144_" class="st1" d="M1050.8,543c0.7-12,8.7-18.5,21-18.5c6,0,10.9,1.6,14.6,5c3.7,3.3,5.6,7.9,5.6,13.8
				c0,7.1-4,13.9-12.2,20.4l-13.9,11.2v2.1h27.8v8.7h-42.8V575l21.5-17c5.7-4.5,9.5-8.9,9.5-14.7c0-6.4-3.9-9.9-10.4-9.9
				c-6.1,0-10.1,3.2-10.8,9.6H1050.8z"/>
			<path id="XMLID_146_" class="st1" d="M1103.2,597.8h-8.5l25.9-77.2h8.2L1103.2,597.8z"/>
			<path id="XMLID_148_" class="st1" d="M1169.2,551.7c3.7,3.7,5.6,8.4,5.6,14.1c0,5.9-2,10.9-5.8,14.9c-3.9,4-9,6-15.4,6
				c-7.1,0-12.7-2.4-16.8-7.1s-6.2-12.3-6.2-22.6c0-6.3,0.8-11.9,2.4-16.6c3.3-9.6,10.6-16,21.2-16c5.1,0,9.4,1.5,12.9,4.3
				c3.4,2.8,5.5,6.4,6.2,10.8h-9.9c-1.3-4.4-4.4-6.6-9.3-6.6c-8.2,0-13.4,6.7-13.8,18.4h2.1c3-3.5,7.4-5.2,13.3-5.2
				C1160.9,546.2,1165.5,548.1,1169.2,551.7z M1153.2,554.5c-6.8,0-11.5,4.2-11.5,11.7c0,7.5,4.8,12.1,11.6,12.1
				c6.8,0,11.4-4.4,11.4-12C1164.7,558.7,1160,554.5,1153.2,554.5z"/>
			<path id="XMLID_151_" class="st1" d="M1215.6,555c4.7,1.8,9.1,6.9,9.1,14.1c0,5.1-2.1,9.3-6.1,12.7c-4,3.3-9.4,5.1-16.3,5.1
				c-6.9,0-12.4-1.7-16.5-5.1c-4-3.3-6-7.6-6-12.7c0-7.2,4.4-12.3,9.1-14.1v-2.1c-3.8-2-7.2-6.2-7.2-12.3c0-4.7,1.9-8.6,5.7-11.6
				c3.8-3,8.7-4.5,14.9-4.5c6.2,0,11.1,1.5,14.8,4.5c3.8,3,5.7,6.9,5.7,11.6c0,6.1-3.4,10.4-7.2,12.3V555z M1214.8,568.1
				c0-6.1-4.7-10.1-12.5-10.1c-7.9,0-12.5,4-12.5,10.1c0,6.1,4.6,10.1,12.5,10.1C1210.1,578.2,1214.8,574.2,1214.8,568.1z
				 M1202.3,550.3c6.3,0,10.8-3.5,10.8-8.9s-4.5-8.8-10.8-8.8c-6.3,0-10.9,3.6-10.9,8.8C1191.4,546.8,1196,550.3,1202.3,550.3z"/>
			<path id="XMLID_155_" class="st1" d="M1008.4,670.3V609h16.3l12.7,26.7h2.1l12.5-26.7h16.4v61.2h-9.8v-49h-2.1l-12.9,26.8h-10.5
				l-12.9-26.8h-2.1v49H1008.4z"/>
			<path id="XMLID_157_" class="st1" d="M1119.1,649.2h-32.2c0.3,9.3,4.4,13.9,12.3,13.9c5.1,0,8.2-1.9,9.5-5.6h9.9
				c-1.7,8.3-8.5,13.8-19.5,13.8c-6.8,0-12.1-2.1-16-6.4c-3.9-4.3-5.8-9.9-5.8-16.8c0-6.9,1.9-12.4,5.7-16.5
				c3.9-4.1,9.2-6.2,15.8-6.2c6.3,0,11.2,2,14.8,5.8c3.6,3.9,5.5,8.7,5.6,14.7V649.2z M1087.3,642h21.9c-0.7-5.1-4.4-8.8-10.5-8.8
				C1092.2,633.2,1088.4,636.6,1087.3,642z"/>
			<path id="XMLID_160_" class="st1" d="M1156,630.8h2.1v-22.9h9.7v62.3h-9.3v-4.2h-2.1c-2.8,3.5-7.1,5.3-12.9,5.3
				c-5.7,0-10.4-2.1-13.8-6.4c-3.3-4.3-5.1-9.8-5.1-16.6c0-6.7,1.7-12.2,5.1-16.5c3.4-4.3,8.1-6.4,13.8-6.4
				C1149.3,625.5,1153.4,627.3,1156,630.8z M1158.4,648.4c0-8.3-4.1-14.7-12.1-14.7c-7.6,0-11.9,5.8-11.9,14.7
				c0,8.8,4.3,14.8,11.9,14.8C1154.2,663.1,1158.4,656.7,1158.4,648.4z"/>
			<path id="XMLID_163_" class="st1" d="M1188.5,617.3h-9.9v-9.3h9.9V617.3z M1188.4,626.6v43.6h-9.7v-43.6H1188.4z"/>
			<path id="XMLID_166_" class="st1" d="M1198.7,626.6h9.7V652c0,7.1,3.3,10.7,9.7,10.7c3.3,0,6.1-1.3,8.1-3.8
				c2.1-2.5,3.2-5.5,3.2-9v-23.3h9.7v43.6h-9.3v-4.2h-2.1c-2.7,3.5-6.9,5.3-12.6,5.3c-10.6,0-16.4-6.5-16.4-17.5V626.6z"/>
			<path id="XMLID_168_" class="st1" d="M1312.5,642.4v27.9h-9.7V644c0-6.6-2.5-9.9-7.5-9.9c-5.8,0-9.3,4.6-9.3,11.2v24.9h-9.7
				v-26.2c0-6.6-2.5-9.9-7.5-9.9c-6.2,0-9.3,5.1-9.3,12.3v23.8h-9.7v-43.6h9.3v3.9h2.1c2.2-3.3,5.9-5.1,11-5.1c5.2,0,9,1.8,11.3,5.3
				h2.1c2.7-3.5,6.7-5.3,12.1-5.3C1307.7,625.5,1312.5,631.8,1312.5,642.4z"/>
		</g>
		<g id="XMLID_112_">
			<path id="XMLID_113_" class="st1" d="M1004.5,215.2h20.5v5.9l-7.2,5.9v1.2c5.2,0.3,8.9,3.9,8.9,9.9c0,3.4-1.1,6.1-3.4,8.2
				c-2.2,2-5.2,3-8.8,3c-3.5,0-6.4-1-8.6-2.9c-2.2-2-3.4-4.5-3.6-7.5h5.6c0.3,3.4,3,5.4,6.6,5.4c4.1,0,6.7-2.4,6.7-6.2
				c0-3.9-2.4-6.3-6.7-6.3c-1.2,0-2.2,0.1-3,0.3v-5l7.2-5.9v-1.1h-14.1V215.2z"/>
			<path id="XMLID_115_" class="st1" d="M1052.8,229.7c2,2,3.1,4.7,3.1,7.9c0,3.3-1.1,6.1-3.2,8.3c-2.1,2.2-5,3.3-8.6,3.3
				c-4,0-7.1-1.3-9.3-4c-2.3-2.6-3.4-6.8-3.4-12.6c0-3.5,0.4-6.6,1.3-9.2c1.9-5.3,5.9-8.9,11.8-8.9c2.9,0,5.2,0.8,7.1,2.4
				c1.9,1.6,3,3.6,3.4,6h-5.5c-0.7-2.4-2.4-3.7-5.2-3.7c-4.6,0-7.4,3.7-7.7,10.2h1.1c1.7-2,4.1-2.9,7.4-2.9
				C1048.3,226.6,1050.8,227.6,1052.8,229.7z M1044,231.2c-3.8,0-6.4,2.3-6.4,6.5c0,4.2,2.7,6.7,6.4,6.7c3.8,0,6.3-2.4,6.3-6.7
				C1050.4,233.5,1047.7,231.2,1044,231.2z"/>
			<path id="XMLID_118_" class="st1" d="M1062.1,255.3h-4.7l14.4-42.9h4.6L1062.1,255.3z"/>
			<path id="XMLID_120_" class="st1" d="M1097.6,236.2h4.3v4.9h-4.3v7.5h-5.4v-7.5H1076v-6l14.7-19.9h6.9V236.2z M1081.5,236.2h10.9
				v-14.7h-1.1l-9.7,13.6V236.2z"/>
			<path id="XMLID_123_" class="st1" d="M1119.1,214.5c3.8,0,6.9,1.4,9.2,4.3c2.3,2.9,3.5,7.2,3.5,13s-1.1,10.1-3.5,13
				c-2.3,2.9-5.4,4.3-9.2,4.3c-3.8,0-6.9-1.4-9.2-4.3c-2.3-2.9-3.5-7.2-3.5-13s1.1-10.1,3.5-13
				C1112.2,216,1115.3,214.5,1119.1,214.5z M1119.1,244.2c2.5,0,4.3-1.1,5.4-3.4c1.1-2.2,1.7-5.2,1.7-9s-0.6-6.7-1.7-9
				c-1.1-2.3-2.9-3.4-5.4-3.4c-2.5,0-4.3,1.1-5.4,3.4c-1.1,2.2-1.7,5.2-1.7,9s0.6,6.7,1.7,9C1114.8,243.1,1116.6,244.2,1119.1,244.2
				z"/>
			<path id="XMLID_126_" class="st1" d="M1005.1,297.4v-34h9.1l7.1,14.8h1.1l7-14.8h9.1v34h-5.4v-27.2h-1.1l-7.2,14.9h-5.8
				l-7.1-14.9h-1.1v27.2H1005.1z"/>
			<path id="XMLID_128_" class="st1" d="M1068,285.7h-17.9c0.1,5.1,2.4,7.7,6.8,7.7c2.8,0,4.6-1,5.3-3.1h5.5
				c-1,4.6-4.7,7.7-10.8,7.7c-3.8,0-6.7-1.2-8.9-3.6c-2.1-2.4-3.2-5.5-3.2-9.3c0-3.9,1-6.9,3.2-9.1c2.1-2.3,5.1-3.4,8.8-3.4
				c3.5,0,6.2,1.1,8.2,3.2c2,2.1,3,4.9,3.1,8.1V285.7z M1050.3,281.7h12.1c-0.4-2.9-2.4-4.9-5.8-4.9
				C1053.1,276.8,1050.9,278.7,1050.3,281.7z"/>
			<path id="XMLID_131_" class="st1" d="M1090,275.5h1.1v-12.7h5.4v34.6h-5.2V295h-1.1c-1.6,2-4,3-7.1,3c-3.2,0-5.8-1.2-7.7-3.6
				c-1.9-2.4-2.8-5.4-2.8-9.2c0-3.7,1-6.8,2.8-9.1c1.9-2.4,4.5-3.6,7.7-3.6C1086.2,272.5,1088.5,273.5,1090,275.5z M1091.2,285.2
				c0-4.6-2.3-8.1-6.7-8.1c-4.2,0-6.6,3.2-6.6,8.1s2.4,8.2,6.6,8.2C1089,293.4,1091.2,289.8,1091.2,285.2z"/>
			<path id="XMLID_134_" class="st1" d="M1109.4,267.9h-5.5v-5.2h5.5V267.9z M1109.3,273.1v24.2h-5.4v-24.2H1109.3z"/>
			<path id="XMLID_137_" class="st1" d="M1116.5,273.1h5.4v14.1c0,4,1.8,6,5.4,6c1.9,0,3.4-0.7,4.5-2.1c1.2-1.4,1.8-3,1.8-5v-13h5.4
				v24.2h-5.2V295h-1.1c-1.5,2-3.8,3-7,3c-5.9,0-9.1-3.6-9.1-9.7V273.1z"/>
			<path id="XMLID_139_" class="st1" d="M1181.2,281.9v15.5h-5.4v-14.6c0-3.7-1.4-5.5-4.1-5.5c-3.2,0-5.1,2.6-5.1,6.2v13.8h-5.4
				v-14.5c0-3.7-1.4-5.5-4.1-5.5c-3.4,0-5.2,2.9-5.2,6.9v13.2h-5.4v-24.2h5.2v2.2h1.1c1.2-1.9,3.3-2.8,6.1-2.8c2.9,0,5,1,6.3,3h1.1
				c1.5-2,3.7-3,6.7-3C1178.5,272.5,1181.2,276,1181.2,281.9z"/>
		</g>
		<g id="XMLID_80_">
			<path id="XMLID_81_" class="st1" d="M1002.3,136.2h4v-12.6h-0.5l-3.5,2.4v-2.2l3.5-2.4h2.6v14.8h3.6v1.9h-9.7V136.2z"/>
			<path id="XMLID_83_" class="st1" d="M1023.6,129.6c1.1,0.4,2.6,1.8,2.6,4c0,2.8-2.4,4.9-6,4.9s-6-2.1-6-4.9c0-2.2,1.5-3.6,2.6-4
				V129c-0.9-0.4-2.1-1.6-2.1-3.5c0-2.6,2.3-4.5,5.5-4.5s5.5,1.8,5.5,4.5c0,1.9-1.2,3.1-2.1,3.5V129.6z M1024.1,133.4
				c0-2-1.5-3.1-4-3.1s-4,1.2-4,3.1c0,1.9,1.5,3.2,4,3.2S1024.1,135.3,1024.1,133.4z M1016.7,125.6c0,1.8,1.6,2.8,3.5,2.8
				s3.5-1,3.5-2.8c0-1.8-1.6-2.7-3.5-2.7S1016.7,123.8,1016.7,125.6z"/>
			<path id="XMLID_87_" class="st1" d="M1027.5,141.4l7.2-21.4h1.8l-7.1,21.4H1027.5z"/>
			<path id="XMLID_89_" class="st1" d="M1038.4,126c0.2-3.3,2.6-4.9,5.5-4.9c3.1,0,5.4,1.7,5.4,5.1c0,2.3-1.7,4.4-3.7,6l-4.2,3.5
				v0.5h8.4v1.9h-11.5v-2.4l2.5-2c1.3-1.1,2.9-2.4,3.8-3.2c1.1-1,2.6-2.4,2.6-4.4c0-2.1-1.3-3.2-3.4-3.2c-1.9,0-3.2,1-3.4,3.1
				H1038.4z"/>
			<path id="XMLID_91_" class="st1" d="M1064.6,129.8c0,6-2.6,8.6-6.1,8.6s-6.1-2.6-6.1-8.6c0-6,2.6-8.7,6.1-8.7
				S1064.6,123.8,1064.6,129.8z M1062.5,129.8c0-4.1-1.3-6.8-4-6.8c-2.8,0-4,2.7-4,6.8c0,4.1,1.3,6.8,4,6.8
				C1061.2,136.5,1062.5,133.9,1062.5,129.8z"/>
			<path id="XMLID_94_" class="st1" d="M1010.6,148.5c3.6,0,5.6,1.8,5.6,5c0,2.1-0.9,3.6-2.6,4.4l2.7,7.7h-2.2l-2.5-7.2
				c-0.5,0-0.9,0.1-1.4,0.1h-5v7.1h-2.1v-17H1010.6z M1010.3,156.5c2.7,0,3.7-1.1,3.7-3c0-1.9-1-3-3.7-3h-5.1v6.1H1010.3z"/>
			<path id="XMLID_97_" class="st1" d="M1030.2,159.5h-9.1c0.1,2.9,1.4,4.6,3.8,4.6c1.7,0,2.7-0.7,3-1.9h2c-0.4,2-2.1,3.6-5.1,3.6
				c-3.7,0-5.8-2.7-5.8-6.4s2.1-6.2,5.8-6.2c3.6,0,5.3,2.6,5.4,5.6V159.5z M1021.1,157.8h6.9c-0.1-1.5-1.3-2.8-3.3-2.8
				C1022.6,154.9,1021.4,156.2,1021.1,157.8z"/>
			<path id="XMLID_100_" class="st1" d="M1044.1,153.5v11.4c0,3.4-2.1,5.5-5.6,5.5c-3.1,0-5.1-1.3-5.4-3.7h2c0.4,1.4,1.6,2,3.4,2
				c2.5,0,3.6-1.5,3.6-3.9v-1h-0.5c-0.6,0.8-1.8,1.6-3.6,1.6c-3.3,0-5.3-2.6-5.3-6.1c0-3.5,2-6.1,5.3-6.1c1.9,0,3,0.8,3.7,1.6h0.5
				v-1.3H1044.1z M1042.1,159.3c0-2.3-1.2-4.4-3.8-4.4c-2.4,0-3.7,1.7-3.7,4.4c0,2.6,1.3,4.4,3.7,4.4
				C1040.9,163.7,1042.1,161.6,1042.1,159.3z"/>
			<path id="XMLID_103_" class="st1" d="M1049.8,153.5v7.2c0,2.2,1,3.3,3,3.3c2.1,0,3.6-1.8,3.6-4v-6.5h2v12h-2v-1.3h-0.5
				c-0.7,0.9-2,1.6-3.6,1.6c-3,0-4.6-1.8-4.6-4.7v-7.6H1049.8z"/>
			<path id="XMLID_105_" class="st1" d="M1064.4,148.2v17.3h-2v-17.3H1064.4z"/>
			<path id="XMLID_107_" class="st1" d="M1075.9,164.2h-0.5c-0.7,0.9-2,1.6-3.7,1.6c-2.8,0-4.3-1.9-4.3-3.9c0-1.9,1.3-4,4.6-4h3.9
				v-0.5c0-1.5-0.8-2.5-2.9-2.5c-1.8,0-2.7,0.7-2.8,1.7h-2c0.2-2.2,2.1-3.5,4.8-3.5c3,0,5,1.5,5,4.1v8.2h-1.9V164.2z M1075.9,160.6
				v-1.1h-3.6c-2,0-2.9,0.9-2.9,2.3c0,1.4,1,2.2,2.8,2.2C1074.2,164,1075.9,162.5,1075.9,160.6z"/>
			<path id="XMLID_110_" class="st1" d="M1088.4,155.4h-1c-2.4,0-3.8,1.5-3.8,4.1v6h-2v-12h2v1.4h0.5c0.6-0.7,1.7-1.4,3.5-1.4h0.9
				V155.4z"/>
		</g>
		<g id="XMLID_33_">
			<path id="XMLID_34_" class="st1" d="M1002,48h3v-9.5h-0.4l-2.6,1.8v-1.6l2.6-1.8h1.9V48h2.7v1.4h-7.3V48z"/>
			<path id="XMLID_36_" class="st1" d="M1018.6,36.9v1.8l-3.1,2.7v0.4c2.1,0.1,3.7,1.4,3.7,3.8c0,2.6-1.9,4.1-4.4,4.1
				c-2.5,0-4.2-1.6-4.4-3.7h1.6c0.1,1.4,1.3,2.3,2.8,2.3c1.7,0,2.8-1,2.8-2.7c0-1.6-1-2.7-2.8-2.7c-0.4,0-0.8,0-1.1,0.1v-1.7
				l3.1-2.6v-0.4h-5.5v-1.4H1018.6z"/>
			<path id="XMLID_38_" class="st1" d="M1021.2,49.4v-2.1h1.9v2.1H1021.2z"/>
			<path id="XMLID_40_" class="st1" d="M1034.1,45.2c0,2.7-1.8,4.5-4.3,4.5c-2.8,0-4.2-1.6-4.4-3.7h1.6c0.2,1.6,1.2,2.3,2.7,2.3
				c1.7,0,2.8-1.1,2.8-3c0-1.7-1.1-2.9-2.7-2.9c-1.1,0-1.9,0.4-2.5,1.2h-1.6l0.6-6.6h7.1v1.4h-5.9l-0.3,3.6h0.4
				c0.6-0.5,1.3-0.9,2.4-0.9C1032.6,41,1034.1,42.8,1034.1,45.2z"/>
			<path id="XMLID_42_" class="st1" d="M1035,51.9l5.4-16.1h1.4l-5.3,16.1H1035z"/>
			<path id="XMLID_44_" class="st1" d="M1043.4,48h3v-9.5h-0.4l-2.6,1.8v-1.6l2.6-1.8h1.9V48h2.7v1.4h-7.3V48z"/>
			<path id="XMLID_46_" class="st1" d="M1061,45.2c0,2.7-1.8,4.5-4.3,4.5c-2.8,0-4.2-1.6-4.4-3.7h1.6c0.2,1.6,1.2,2.3,2.7,2.3
				c1.7,0,2.8-1.1,2.8-3c0-1.7-1.1-2.9-2.7-2.9c-1.1,0-1.9,0.4-2.5,1.2h-1.6l0.6-6.6h7.1v1.4h-5.9l-0.3,3.6h0.4
				c0.6-0.5,1.3-0.9,2.4-0.9C1059.5,41,1061,42.8,1061,45.2z"/>
			<path id="XMLID_48_" class="st1" d="M1011.3,65.7v1.5h-8.8V54.5h1.6v11.2H1011.3z"/>
			<path id="XMLID_50_" class="st1" d="M1013.5,55.9v-1.6h1.6v1.6H1013.5z M1015.1,67.3h-1.5v-9h1.5V67.3z"/>
			<path id="XMLID_53_" class="st1" d="M1026.1,58.3v8.6c0,2.5-1.6,4.1-4.2,4.1c-2.3,0-3.8-1-4.1-2.8h1.5c0.3,1.1,1.2,1.5,2.6,1.5
				c1.9,0,2.7-1.1,2.7-2.9V66h-0.4c-0.5,0.6-1.3,1.2-2.7,1.2c-2.5,0-4-2-4-4.6c0-2.6,1.5-4.6,4-4.6c1.4,0,2.3,0.6,2.8,1.2h0.4v-1
				H1026.1z M1024.6,62.6c0-1.7-0.9-3.3-2.8-3.3c-1.8,0-2.8,1.3-2.8,3.3c0,1.9,1,3.3,2.8,3.3C1023.7,65.9,1024.6,64.3,1024.6,62.6z"
				/>
			<path id="XMLID_56_" class="st1" d="M1035.5,67.3v-5.4c0-1.6-0.8-2.5-2.3-2.5c-1.6,0-2.7,1.4-2.7,3v4.9h-1.5v-13h1.5v4.9h0.4
				c0.5-0.7,1.5-1.2,2.7-1.2c2.2,0,3.4,1.4,3.4,3.5v5.7H1035.5z"/>
			<path id="XMLID_58_" class="st1" d="M1044.2,58.3v1.3h-2.3v4.9c0,0.9,0.4,1.4,1.6,1.4h0.7v1.4h-0.7c-1.9,0-3.1-0.6-3.1-2.5v-5.2
				h-1.6v-1.3h1.6v-2.7h1.5v2.7H1044.2z"/>
			<path id="XMLID_60_" class="st1" d="M1046.6,67.3v-2.1h1.9v2.4l-1,1.7h-1l1-1.7v-0.3H1046.6z"/>
			<path id="XMLID_62_" class="st1" d="M1062.1,54.5c2.7,0,4.2,1.4,4.2,3.7c0,1.6-0.7,2.7-1.9,3.3l2,5.8h-1.7l-1.9-5.4
				c-0.3,0-0.7,0.1-1,0.1h-3.7v5.3h-1.6V54.5H1062.1z M1061.8,60.5c2.1,0,2.8-0.9,2.8-2.3c0-1.4-0.8-2.3-2.8-2.3h-3.8v4.6H1061.8z"
				/>
			<path id="XMLID_65_" class="st1" d="M1076.7,62.7h-6.9c0.1,2.1,1,3.4,2.9,3.4c1.3,0,2-0.5,2.3-1.4h1.5c-0.3,1.5-1.6,2.7-3.8,2.7
				c-2.8,0-4.4-2.1-4.4-4.8s1.6-4.6,4.3-4.6c2.7,0,4,2,4,4.2V62.7z M1070,61.5h5.2c-0.1-1.1-1-2.1-2.5-2.1
				C1071.1,59.3,1070.2,60.3,1070,61.5z"/>
			<path id="XMLID_68_" class="st1" d="M1087.2,58.3v8.6c0,2.5-1.6,4.1-4.2,4.1c-2.3,0-3.8-1-4.1-2.8h1.5c0.3,1.1,1.2,1.5,2.6,1.5
				c1.9,0,2.7-1.1,2.7-2.9V66h-0.4c-0.5,0.6-1.3,1.2-2.7,1.2c-2.5,0-4-2-4-4.6c0-2.6,1.5-4.6,4-4.6c1.4,0,2.3,0.6,2.8,1.2h0.4v-1
				H1087.2z M1085.7,62.6c0-1.7-0.9-3.3-2.8-3.3c-1.8,0-2.8,1.3-2.8,3.3c0,1.9,1,3.3,2.8,3.3C1084.8,65.9,1085.7,64.3,1085.7,62.6z"
				/>
			<path id="XMLID_71_" class="st1" d="M1091.5,58.3v5.4c0,1.7,0.8,2.5,2.3,2.5c1.6,0,2.7-1.4,2.7-3v-4.9h1.5v9h-1.5v-1h-0.4
				c-0.5,0.7-1.5,1.2-2.7,1.2c-2.2,0-3.4-1.4-3.4-3.5v-5.7H1091.5z"/>
			<path id="XMLID_73_" class="st1" d="M1102.4,54.3v13h-1.5v-13H1102.4z"/>
			<path id="XMLID_75_" class="st1" d="M1111.1,66.3h-0.4c-0.6,0.7-1.5,1.2-2.8,1.2c-2.1,0-3.2-1.4-3.2-2.9c0-1.4,0.9-3,3.4-3h2.9
				v-0.4c0-1.1-0.6-1.9-2.2-1.9c-1.3,0-2,0.5-2.1,1.3h-1.5c0.1-1.7,1.6-2.6,3.6-2.6c2.3,0,3.7,1.1,3.7,3.1v6.1h-1.4V66.3z
				 M1111,63.6v-0.8h-2.7c-1.5,0-2.2,0.6-2.2,1.7c0,1,0.8,1.7,2.1,1.7C1109.7,66.2,1111,65,1111,63.6z"/>
			<path id="XMLID_78_" class="st1" d="M1120.4,59.7h-0.8c-1.8,0-2.9,1.1-2.9,3.1v4.5h-1.5v-9h1.5v1.1h0.4c0.4-0.6,1.3-1.1,2.6-1.1
				h0.7V59.7z"/>
		</g>
		<g id="XMLID_3_">
			<path id="XMLID_4_" class="st1" d="M1005.1,359.8h28.3v10.5l-6.7,4.2v1.7c5.2,0.9,9.1,4.9,9.1,11.6c0,4.3-1.5,7.9-4.6,10.5
				c-3,2.7-7.1,4-12,4c-4.9,0-8.9-1.3-12-4c-3-2.7-4.6-6-4.6-10.1h10.7c0.5,3.2,2.7,4.9,6,4.9c3.6,0,6-2.3,6-5.4
				c0-3.4-2.2-5.7-6-5.7c-1.4,0-2.7,0.2-3.9,0.5v-8l6.7-4.2v-1.7h-16.8V359.8z"/>
			<path id="XMLID_6_" class="st1" d="M1070.4,377.3c2.6,2.6,3.9,5.9,3.9,9.9c0,4.2-1.5,7.7-4.4,10.7c-2.9,2.9-6.8,4.3-11.6,4.3
				c-9.8,0-17.4-5.6-17.4-21.1c0-6.8,1.4-12.2,4.3-16.2s7.3-6,13.1-6c3.9,0,7.3,1.1,10.1,3.5c2.8,2.3,4.4,5,4.8,8.3h-10.6
				c-0.5-2.1-2-3.2-4.6-3.2c-3.9,0-6.6,2.7-7,8.9h1.7c1.8-2,4.5-2.9,8.1-2.9C1064.6,373.4,1067.8,374.7,1070.4,377.3z M1063.6,387.5
				c0-1.9-0.5-3.4-1.5-4.4c-1-1.1-2.3-1.6-4-1.6c-1.7,0-3.1,0.5-4.1,1.5c-1,1-1.5,2.5-1.5,4.4c0,3.8,2.3,6.2,5.6,6.2
				C1061.4,393.6,1063.6,391.4,1063.6,387.5z"/>
			<path id="XMLID_9_" class="st1" d="M1084,409.8h-8.3l18-53.6h8.2L1084,409.8z"/>
			<path id="XMLID_11_" class="st1" d="M1126,392.3h8.3v9.2h-28.1v-9.2h9.2v-22.1h-1.7l-7.5,5.2V365l7.4-5.2h12.3V392.3z"/>
			<path id="XMLID_13_" class="st1" d="M1155.7,358.9c5.1,0,9.2,1.8,12.3,5.4c3.1,3.6,4.6,9,4.6,16.3s-1.5,12.7-4.6,16.3
				c-3.1,3.6-7.2,5.4-12.3,5.4s-9.2-1.8-12.3-5.4c-3.1-3.6-4.6-9.1-4.6-16.3s1.5-12.7,4.6-16.3
				C1146.5,360.7,1150.6,358.9,1155.7,358.9z M1155.7,368.3c-4.2,0-6.3,4.1-6.3,12.3c0,8.2,2.1,12.3,6.3,12.3s6.3-4.1,6.3-12.3
				C1161.9,372.4,1159.9,368.3,1155.7,368.3z"/>
			<path id="XMLID_16_" class="st1" d="M1205.2,380.1c3.3,1.5,6.1,4.6,6.1,9.4c0,3.6-1.4,6.6-4.3,9.1c-2.9,2.4-7,3.7-12.3,3.7
				c-5.4,0-9.5-1.3-12.4-3.7c-2.9-2.4-4.3-5.5-4.3-9.1c0-4.8,2.8-7.9,6.1-9.4v-1.7c-3.1-1.8-4.6-4.6-4.6-8.2c0-3.2,1.4-5.8,4-8
				c2.7-2.2,6.5-3.3,11.3-3.3s8.5,1.1,11.2,3.3c2.7,2.1,4,4.8,4,8c0,3.6-1.5,6.4-4.6,8.2V380.1z M1194.6,393.6c4,0,6.1-2.4,6.1-5.2
				c0-2.8-2-5.2-6.1-5.2s-6.1,2.4-6.1,5.2C1188.4,391.3,1190.5,393.6,1194.6,393.6z M1194.6,366.8c-6.7-0.3-6.8,9.6,0,9.3
				C1201.2,376.4,1201.2,366.5,1194.6,366.8z"/>
			<path id="XMLID_20_" class="st1" d="M1036.5,435.1c2.8,1.3,5.3,4.7,5.3,8.6c0,7.6-4.9,12.5-14.8,12.5h-21.5v-42.5h20.8
				c9.3,0,14.3,4.9,14.3,11.6c0,3.6-1.7,6.8-4.2,8.2V435.1z M1016.6,422.6v7.3h8.3c2.9,0,4.4-1.2,4.4-3.6c0-2.4-1.5-3.7-4.5-3.7
				H1016.6z M1025.2,447.1c2.9,0,5.2-1.2,5.2-4c0-2.8-1.7-4.2-5-4.2h-8.8v8.2H1025.2z"/>
			<path id="XMLID_24_" class="st1" d="M1049,412.9h10.4v43.3H1049V412.9z"/>
			<path id="XMLID_26_" class="st1" d="M1095.7,436.7v19.5h-9.5v-2.4h-1.7c-1.8,2.1-4.6,3.2-8.2,3.2c-3.3,0-6-1-7.9-3
				c-2-2-2.9-4.5-2.9-7.4c0-2.7,1.1-5.1,3.3-7.2c2.2-2.1,5.4-3.1,9.8-3.1h7.1v-0.5c0-2.6-1.4-3.9-4.2-3.9c-2.5,0-3.9,0.9-4.1,2.7
				h-10.2c0.1-3,1.4-5.4,3.9-7.3s5.8-2.7,9.8-2.7C1090.7,424.5,1095.7,428.5,1095.7,436.7z M1085.7,442.2h-5c-2.9,0-4.8,1.4-4.8,3.6
				c0,2.4,1.5,3.6,4.4,3.6c3.3,0,5.4-2.3,5.4-5.4V442.2z"/>
			<path id="XMLID_29_" class="st1" d="M1132.6,445.2c-0.3,3.5-1.8,6.4-4.6,8.6c-2.7,2.2-6.1,3.3-10.2,3.3c-4.8,0-8.8-1.4-11.7-4.3
				c-2.9-2.9-4.3-6.9-4.3-11.9c0-5,1.4-8.9,4.3-11.9c2.9-2.9,6.8-4.4,11.7-4.4c4,0,7.3,1,10,3.1c2.7,2.1,4.2,4.8,4.5,8.2h-10.2
				c-0.5-1.8-2-2.8-4.2-2.8c-4,0-5.7,3.2-5.7,7.8c0,4.7,1.7,7.8,5.7,7.8c2.7,0,4.2-1.1,4.5-3.4H1132.6z"/>
			<path id="XMLID_31_" class="st1" d="M1171.9,456.2h-10.7l-6.3-13.2h-1.7l-3.6,4.1v9.1h-10.4v-43.3h10.4v22.5l9.5-10.2h11.4
				l-8.8,9.6L1171.9,456.2z"/>
		</g>
		<rect id="XMLID_778_" x="41" y="747.6" class="st3" width="85" height="85"/>
		<rect id="XMLID_1635_" x="41" y="523.6" class="st3" width="62.1" height="62.1"/>
		<rect id="XMLID_1724_" x="41" y="36.9" class="st3" width="13.5" height="13.5"/>
		<rect id="XMLID_1640_" x="41" y="120.2" class="st3" width="17.9" height="17.9"/>
		<rect id="XMLID_1639_" x="41" y="214.4" class="st3" width="35.7" height="35.7"/>
		<rect id="XMLID_1636_" x="41" y="358.6" class="st3" width="42.9" height="42.9"/>
		<rect id="XMLID_1728_" x="809.2" y="747.6" class="st3" width="85" height="85"/>
		<rect id="XMLID_1727_" x="809.2" y="523.6" class="st3" width="62.1" height="62.1"/>
		<rect id="XMLID_1726_" x="809.2" y="36.9" class="st3" width="13.5" height="13.5"/>
		<rect id="XMLID_1725_" x="809.2" y="120.2" class="st3" width="17.9" height="17.9"/>
		<rect id="XMLID_1634_" x="809.2" y="214.4" class="st3" width="35.7" height="35.7"/>
		<rect id="XMLID_1729_" x="809.2" y="358.6" class="st3" width="42.9" height="42.9"/>
	</g>
</g>
</svg>
