<?xml version="1.0" encoding="utf-8"?>
<!-- Generator: Adobe Illustrator 19.0.0, SVG Export Plug-In . SVG Version: 6.00 Build 0)  -->
<svg version="1.1" id="_x31_" xmlns="http://www.w3.org/2000/svg" xmlns:xlink="http://www.w3.org/1999/xlink" x="0px" y="0px"
	 viewBox="-74 154.9 1200 1042.1" style="enable-background:new -74 154.9 1200 1042.1;" xml:space="preserve">
<style type="text/css">
	.st0{fill:#36AFA7;}
	.st1{fill:#101010;fill-opacity:0;}
	.st2{fill:#101010;}
</style>
<g id="XMLID_654_">
	<path id="XMLID_55_" class="st0" d="M404.4,157.6v676.7H-71V157.6H404.4 M405.4,156.6H-72v678.7h477.4V156.6L405.4,156.6z"/>
</g>
<g id="XMLID_653_">
	<path id="XMLID_51_" class="st0" d="M1123,157.6V633H446.3V157.6H1123 M1124,156.6H445.3V634H1124V156.6L1124,156.6z"/>
</g>
<g id="XMLID_652_">
	<path id="XMLID_42_" class="st0" d="M965,675.6v518.7H446.3V675.6H965 M966,674.6H445.3v520.7H966V674.6L966,674.6z"/>
</g>
<g id="XMLID_593_">
	<g id="XMLID_623_">
		<rect id="XMLID_651_" x="-72" y="156.6" class="st1" width="134.8" height="65.2"/>
		<g id="XMLID_624_">
			<g id="XMLID_123_">
				<path id="XMLID_133_" class="st2" d="M-35.1,200.1v-2h-1c-1.3,1.7-3.5,2.6-6.4,2.6c-2.4,0-4.3-0.7-5.7-2
					c-1.4-1.4-2.1-3.1-2.1-5.1s0.7-3.7,2.1-5.1c1.4-1.5,3.6-2.2,6.5-2.2h6.4v-0.6c0-2.5-1.5-4-4.6-4c-2.7,0-4.1,0.9-4.4,2.8H-49
					c0.2-4.1,3.8-6.6,9-6.6c5.8,0,9.4,2.6,9.4,7.9v14.4h-4.5V200.1z M-36.9,195.1c1.1-1.1,1.7-2.3,1.7-3.8v-1.7h-5.5
					c-3,0-4.6,1.3-4.6,3.6c0,2.2,1.6,3.5,4.4,3.5C-39.4,196.7-38,196.2-36.9,195.1z"/>
				<path id="XMLID_131_" class="st2" d="M-13.8,178.4v4.5h-2c-4.4,0-6.8,2.5-6.8,7.1v10.2h-4.8v-21.8h4.7v2.5h1
					c1.2-1.7,3.3-2.5,6.1-2.5H-13.8z"/>
				<path id="XMLID_129_" class="st2" d="M-6.9,178.4h5.1v4.1h-5.1v10.6c0,1.9,1.1,2.9,3.3,2.9h1.8v4.2h-1.9c-5.2,0-8.1-1.7-8.1-6.4
					v-20.9H-7L-6.9,178.4L-6.9,178.4z"/>
				<path id="XMLID_126_" class="st2" d="M18.1,197.5c-2,2.1-4.6,3.2-8,3.2s-6-1.1-8-3.2c-2-2.1-2.9-4.9-2.9-8.3
					c0-3.4,1-6.1,2.9-8.2c2-2.1,4.7-3.2,8-3.2c3.4,0,6,1.1,8,3.2c2,2.1,3,4.8,3,8.2C21.1,192.6,20.1,195.3,18.1,197.5z M10.1,181.9
					c-4,0-6.1,3.2-6.1,7.3c0,4.1,2.2,7.3,6.1,7.3c4,0,6.1-3.2,6.1-7.3C16.3,185.1,14.1,181.9,10.1,181.9z"/>
				<path id="XMLID_124_" class="st2" d="M35.7,184.2c-0.3-1.6-1.7-2.3-4.3-2.3c-2.6,0-3.9,0.8-3.9,2.3c0,1.3,0.9,1.8,2.8,2.2
					l4.2,0.7c4.4,0.7,6.6,2.9,6.6,6.7c0,1.9-0.8,3.6-2.5,4.9c-1.6,1.3-3.9,2-6.8,2c-6.1,0-9.5-2.7-9.9-7.1h4.8c0.4,2.1,2,3.1,5,3.1
					s4.6-0.9,4.6-2.8c0-1.7-1-2.4-3.5-2.9l-4.5-0.8c-3.4-0.6-5.5-2.5-5.5-5.7c0-3.9,3.1-6.6,8.9-6.6c5.2,0,8.4,2.5,8.9,6.4
					L35.7,184.2L35.7,184.2z"/>
			</g>
		</g>
	</g>
	<g id="XMLID_594_">
		<rect id="XMLID_622_" x="270.5" y="156.6" class="st1" width="134.8" height="65.2"/>
		<g id="XMLID_595_">
			<g id="XMLID_109_">
				<path id="XMLID_119_" class="st2" d="M307.4,200.1v-2h-1c-1.3,1.7-3.5,2.6-6.4,2.6c-2.4,0-4.3-0.7-5.7-2
					c-1.4-1.4-2.1-3.1-2.1-5.1s0.7-3.7,2.1-5.1c1.4-1.5,3.6-2.2,6.5-2.2h6.4v-0.6c0-2.5-1.5-4-4.6-4c-2.7,0-4.1,0.9-4.4,2.8h-4.8
					c0.2-4.1,3.8-6.6,9-6.6c5.8,0,9.4,2.6,9.4,7.9v14.4h-4.4V200.1z M305.6,195.1c1.1-1.1,1.7-2.3,1.7-3.8v-1.7h-5.5
					c-3,0-4.6,1.3-4.6,3.6c0,2.2,1.6,3.5,4.4,3.5C303.1,196.7,304.5,196.2,305.6,195.1z"/>
				<path id="XMLID_117_" class="st2" d="M328.8,178.4v4.5h-2c-4.4,0-6.8,2.5-6.8,7.1v10.2h-4.8v-21.8h4.7v2.5h1
					c1.2-1.7,3.3-2.5,6.1-2.5H328.8z"/>
				<path id="XMLID_115_" class="st2" d="M335.6,178.4h5.1v4.1h-5.1v10.6c0,1.9,1.1,2.9,3.3,2.9h1.8v4.2h-1.9
					c-5.2,0-8.1-1.7-8.1-6.4v-20.9h4.8v5.5H335.6z"/>
				<path id="XMLID_112_" class="st2" d="M360.6,197.5c-2,2.1-4.6,3.2-8,3.2s-6-1.1-8-3.2c-2-2.1-2.9-4.9-2.9-8.3
					c0-3.4,1-6.1,2.9-8.2c2-2.1,4.7-3.2,8-3.2c3.4,0,6,1.1,8,3.2c2,2.1,3,4.8,3,8.2C363.6,192.6,362.6,195.3,360.6,197.5z
					 M352.6,181.9c-4,0-6.1,3.2-6.1,7.3c0,4.1,2.2,7.3,6.1,7.3c4,0,6.1-3.2,6.1-7.3C358.8,185.1,356.6,181.9,352.6,181.9z"/>
				<path id="XMLID_110_" class="st2" d="M378.2,184.2c-0.3-1.6-1.7-2.3-4.3-2.3c-2.6,0-3.9,0.8-3.9,2.3c0,1.3,0.9,1.8,2.8,2.2
					l4.2,0.5c4.4,0.7,6.6,2.9,6.6,6.7c0,1.9-0.8,3.6-2.5,4.9c-1.6,1.3-3.9,2-6.8,2c-6.1,0-9.5-2.7-9.9-7.1h4.8c0.4,2.1,2,3.1,5,3.1
					s4.6-0.9,4.6-2.8c0-1.7-1-2.4-3.5-2.9l-4.5-0.8c-3.4-0.6-5.5-2.5-5.5-5.7c0-3.9,3.1-6.6,8.9-6.6c5.2,0,8.4,2.5,8.9,6.4h-4.9
					V184.2z"/>
			</g>
		</g>
	</g>
</g>
<g id="XMLID_657_">
	<g id="XMLID_407_">
		<rect id="XMLID_592_" x="445.3" y="156.6" class="st1" width="134.8" height="65.2"/>
		<g id="XMLID_408_">
			<g id="XMLID_152_">
				<path id="XMLID_162_" class="st2" d="M482.2,200.1v-2h-1c-1.3,1.7-3.5,2.6-6.4,2.6c-2.4,0-4.3-0.7-5.7-2
					c-1.4-1.4-2.1-3.1-2.1-5.1s0.7-3.7,2.1-5.1c1.4-1.5,3.6-2.2,6.5-2.2h6.4v-0.6c0-2.5-1.5-4-4.6-4c-2.7,0-4.1,0.9-4.4,2.8h-4.8
					c0.2-4.1,3.8-6.6,9-6.6c5.8,0,9.4,2.6,9.4,7.9v14.4h-4.4V200.1z M480.4,195.1c1.1-1.1,1.7-2.3,1.7-3.8v-1.7h-5.5
					c-3,0-4.6,1.3-4.6,3.6c0,2.2,1.6,3.5,4.4,3.5C477.9,196.7,479.2,196.2,480.4,195.1z"/>
				<path id="XMLID_160_" class="st2" d="M503.5,178.4v4.5h-2c-4.4,0-6.8,2.5-6.8,7.1v10.2H490v-21.8h4.7v2.5h1
					c1.2-1.7,3.3-2.5,6.1-2.5H503.5z"/>
				<path id="XMLID_158_" class="st2" d="M510.3,178.4h5.1v4.1h-5.1v10.6c0,1.9,1.1,2.9,3.3,2.9h1.8v4.2h-1.9
					c-5.2,0-8.1-1.7-8.1-6.4v-20.9h4.8v5.5H510.3z"/>
				<path id="XMLID_155_" class="st2" d="M535.4,197.5c-2,2.1-4.6,3.2-8,3.2s-6-1.1-8-3.2c-2-2.1-2.9-4.9-2.9-8.3
					c0-3.4,1-6.1,2.9-8.2c2-2.1,4.7-3.2,8-3.2c3.4,0,6,1.1,8,3.2c2,2.1,3,4.8,3,8.2C538.4,192.6,537.4,195.3,535.4,197.5z
					 M527.4,181.9c-4,0-6.1,3.2-6.1,7.3c0,4.1,2.2,7.3,6.1,7.3c4,0,6.1-3.2,6.1-7.3C533.6,185.1,531.4,181.9,527.4,181.9z"/>
				<path id="XMLID_153_" class="st2" d="M553,184.2c-0.3-1.6-1.7-2.3-4.3-2.3s-3.9,0.8-3.9,2.3c0,1.3,0.9,1.8,2.8,2.2l4.2,0.7
					c4.4,0.7,6.6,2.9,6.6,6.7c0,1.9-0.8,3.6-2.5,4.9c-1.6,1.3-3.9,2-6.8,2c-6.1,0-9.5-2.7-9.9-7.1h4.8c0.4,2.1,2,3.1,5,3.1
					s4.6-0.9,4.6-2.8c0-1.7-1-2.4-3.5-2.9l-4.5-0.8c-3.4-0.6-5.5-2.5-5.5-5.7c0-3.9,3.1-6.6,8.9-6.6c5.2,0,8.4,2.5,8.9,6.4
					L553,184.2L553,184.2z"/>
			</g>
		</g>
	</g>
	<g id="XMLID_285_">
		<rect id="XMLID_406_" x="989.2" y="156.6" class="st1" width="134.8" height="65.2"/>
		<g id="XMLID_286_">
			<g id="XMLID_137_">
				<path id="XMLID_147_" class="st2" d="M1026.1,200.1v-2h-1c-1.3,1.7-3.5,2.6-6.4,2.6c-2.4,0-4.3-0.7-5.7-2
					c-1.4-1.4-2.1-3.1-2.1-5.1s0.7-3.7,2.1-5.1c1.4-1.5,3.6-2.2,6.5-2.2h6.4v-0.6c0-2.5-1.5-4-4.6-4c-2.7,0-4.1,0.9-4.4,2.8h-4.8
					c0.2-4.1,3.8-6.6,9-6.6c5.8,0,9.4,2.6,9.4,7.9v14.4h-4.4V200.1z M1024.2,195.1c1.1-1.1,1.7-2.3,1.7-3.8v-1.7h-5.5
					c-3,0-4.6,1.3-4.6,3.6c0,2.2,1.6,3.5,4.4,3.5C1021.8,196.7,1023.1,196.2,1024.2,195.1z"/>
				<path id="XMLID_145_" class="st2" d="M1047.4,178.4v4.5h-2c-4.4,0-6.8,2.5-6.8,7.1v10.2h-4.8v-21.8h4.7v2.5h1
					c1.2-1.7,3.3-2.5,6.1-2.5H1047.4z"/>
				<path id="XMLID_143_" class="st2" d="M1054.2,178.4h5.1v4.1h-5.1v10.6c0,1.9,1.1,2.9,3.3,2.9h1.8v4.2h-1.9
					c-5.2,0-8.1-1.7-8.1-6.4v-20.9h4.8L1054.2,178.4L1054.2,178.4z"/>
				<path id="XMLID_140_" class="st2" d="M1079.3,197.5c-2,2.1-4.6,3.2-8,3.2s-6-1.1-8-3.2c-2-2.1-2.9-4.9-2.9-8.3
					c0-3.4,1-6.1,2.9-8.2c2-2.1,4.7-3.2,8-3.2c3.4,0,6,1.1,8,3.2c2,2.1,3,4.8,3,8.2C1082.3,192.6,1081.3,195.3,1079.3,197.5z
					 M1071.3,181.9c-4,0-6.1,3.2-6.1,7.3c0,4.1,2.2,7.3,6.1,7.3c4,0,6.1-3.2,6.1-7.3C1077.4,185.1,1075.3,181.9,1071.3,181.9z"/>
				<path id="XMLID_138_" class="st2" d="M1096.9,184.2c-0.3-1.6-1.7-2.3-4.3-2.3c-2.6,0-3.9,0.8-3.9,2.3c0,1.3,0.9,1.8,2.8,2.2
					l4.2,0.7c4.4,0.7,6.6,2.9,6.6,6.7c0,1.9-0.8,3.6-2.5,4.9c-1.6,1.3-3.9,2-6.8,2c-6.1,0-9.5-2.7-9.9-7.1h4.8c0.4,2.1,2,3.1,5,3.1
					s4.6-0.9,4.6-2.8c0-1.7-1-2.4-3.5-2.9l-4.5-0.8c-3.4-0.6-5.5-2.5-5.5-5.7c0-3.9,3.1-6.6,8.9-6.6c5.2,0,8.4,2.5,8.9,6.4
					L1096.9,184.2L1096.9,184.2z"/>
			</g>
		</g>
	</g>
</g>
<g id="XMLID_656_">
	<g id="XMLID_191_">
		<rect id="XMLID_284_" x="445.3" y="674.6" class="st1" width="134.8" height="65.2"/>
		<g id="XMLID_192_">
			<g id="XMLID_194_">
				<path id="XMLID_204_" class="st2" d="M482.2,718v-2h-1c-1.3,1.7-3.5,2.6-6.4,2.6c-2.4,0-4.3-0.7-5.7-2c-1.4-1.4-2.1-3.1-2.1-5.1
					s0.7-3.7,2.1-5.1c1.4-1.5,3.6-2.2,6.5-2.2h6.4v-0.6c0-2.5-1.5-4-4.6-4c-2.7,0-4.1,0.9-4.4,2.8h-4.8c0.2-4.1,3.8-6.6,9-6.6
					c5.8,0,9.4,2.6,9.4,7.9v14.4h-4.4V718z M480.4,713c1.1-1.1,1.7-2.3,1.7-3.8v-1.7h-5.5c-3,0-4.6,1.3-4.6,3.6
					c0,2.2,1.6,3.5,4.4,3.5C477.9,714.6,479.2,714.1,480.4,713z"/>
				<path id="XMLID_202_" class="st2" d="M503.5,696.3v4.5h-2c-4.4,0-6.8,2.5-6.8,7.1v10.2H490v-21.7h4.7v2.5h1
					c1.2-1.7,3.3-2.5,6.1-2.5L503.5,696.3L503.5,696.3z"/>
				<path id="XMLID_200_" class="st2" d="M510.3,696.3h5.1v4.1h-5.1V711c0,1.9,1.1,2.9,3.3,2.9h1.8v4.2h-1.9c-5.2,0-8.1-1.7-8.1-6.4
					v-20.8h4.8v5.4H510.3z"/>
				<path id="XMLID_197_" class="st2" d="M535.4,715.4c-2,2.1-4.6,3.2-8,3.2s-6-1.1-8-3.2c-2-2.1-2.9-4.9-2.9-8.3
					c0-3.4,1-6.1,2.9-8.2c2-2.1,4.7-3.2,8-3.2c3.4,0,6,1.1,8,3.2c2,2.1,3,4.8,3,8.2C538.4,710.5,537.4,713.3,535.4,715.4z
					 M527.4,699.8c-4,0-6.1,3.2-6.1,7.3s2.2,7.3,6.1,7.3c4,0,6.1-3.2,6.1-7.3C533.6,703,531.4,699.8,527.4,699.8z"/>
				<path id="XMLID_195_" class="st2" d="M553,702.1c-0.3-1.6-1.7-2.3-4.3-2.3s-3.9,0.8-3.9,2.3c0,1.3,0.9,1.8,2.8,2.2l4.2,0.7
					c4.4,0.7,6.6,2.9,6.6,6.7c0,1.9-0.8,3.6-2.5,4.9c-1.6,1.3-3.9,2-6.8,2c-6.1,0-9.5-2.7-9.9-7.1h4.8c0.4,2.1,2,3.1,5,3.1
					s4.6-0.9,4.6-2.8c0-1.7-1-2.4-3.5-2.9l-4.5-0.8c-3.4-0.6-5.5-2.5-5.5-5.7c0-3.9,3.1-6.6,8.9-6.6c5.2,0,8.4,2.5,8.9,6.4H553
					V702.1z"/>
			</g>
		</g>
	</g>
	<g id="XMLID_44_">
		<rect id="XMLID_190_" x="831.1" y="674.6" class="st1" width="134.8" height="65.2"/>
		<g id="XMLID_45_">
			<g id="XMLID_176_">
				<path id="XMLID_186_" class="st2" d="M868,718v-2h-1c-1.3,1.7-3.5,2.6-6.4,2.6c-2.4,0-4.3-0.7-5.7-2c-1.4-1.4-2.1-3.1-2.1-5.1
					s0.7-3.7,2.1-5.1c1.4-1.5,3.6-2.2,6.5-2.2h6.4v-0.6c0-2.5-1.5-4-4.6-4c-2.7,0-4.1,0.9-4.4,2.8H854c0.2-4.1,3.8-6.6,9-6.6
					c5.8,0,9.4,2.6,9.4,7.9v14.4H868V718z M866.2,713c1.1-1.1,1.7-2.3,1.7-3.8v-1.7h-5.5c-3,0-4.6,1.3-4.6,3.6
					c0,2.2,1.6,3.5,4.4,3.5C863.7,714.6,865.1,714.1,866.2,713z"/>
				<path id="XMLID_184_" class="st2" d="M889.4,696.3v4.5h-2c-4.4,0-6.8,2.5-6.8,7.1v10.2h-4.8v-21.7h4.7v2.5h1
					c1.2-1.7,3.3-2.5,6.1-2.5L889.4,696.3L889.4,696.3z"/>
				<path id="XMLID_182_" class="st2" d="M896.2,696.3h5.1v4.1h-5.1V711c0,1.9,1.1,2.9,3.3,2.9h1.8v4.2h-1.9c-5.2,0-8.1-1.7-8.1-6.4
					v-20.8h4.8v5.4H896.2z"/>
				<path id="XMLID_179_" class="st2" d="M921.2,715.4c-2,2.1-4.6,3.2-8,3.2s-6-1.1-8-3.2c-2-2.1-2.9-4.9-2.9-8.3
					c0-3.4,1-6.1,2.9-8.2c2-2.1,4.7-3.2,8-3.2c3.4,0,6,1.1,8,3.2c2,2.1,3,4.8,3,8.2C924.2,710.5,923.2,713.3,921.2,715.4z
					 M913.2,699.8c-4,0-6.1,3.2-6.1,7.3s2.2,7.3,6.1,7.3c4,0,6.1-3.2,6.1-7.3C919.4,703,917.2,699.8,913.2,699.8z"/>
				<path id="XMLID_177_" class="st2" d="M938.8,702.1c-0.3-1.6-1.7-2.3-4.3-2.3s-3.9,0.8-3.9,2.3c0,1.3,0.9,1.8,2.8,2.2l4.2,0.7
					c4.4,0.7,6.6,2.9,6.6,6.7c0,1.9-0.8,3.6-2.5,4.9c-1.6,1.3-3.9,2-6.8,2c-6.1,0-9.5-2.7-9.9-7.1h4.8c0.4,2.1,2,3.1,5,3.1
					s4.6-0.9,4.6-2.8c0-1.7-1-2.4-3.5-2.9l-4.5-0.8c-3.4-0.6-5.5-2.5-5.5-5.7c0-3.9,3.1-6.6,8.9-6.6c5.2,0,8.4,2.5,8.9,6.4h-4.9
					V702.1z"/>
			</g>
		</g>
	</g>
</g>
</svg>
