<?xml version="1.0" encoding="utf-8"?>
<!-- Generator: Adobe Illustrator 19.0.0, SVG Export Plug-In . SVG Version: 6.00 Build 0)  -->
<svg version="1.1" id="Layer_1" xmlns="http://www.w3.org/2000/svg" xmlns:xlink="http://www.w3.org/1999/xlink" x="0px" y="0px"
	 viewBox="0 0 1500.8 532" style="enable-background:new 0 0 1500.8 532;" xml:space="preserve">
<style type="text/css">
	.st0{fill:none;stroke:#36AFA7;stroke-miterlimit:10;}
	.st1{fill:none;stroke:#36AFA7;stroke-width:1.5;stroke-miterlimit:10;}
	.st2{fill:#36AFA7;}
	.st3{fill:#FFFFFF;}
	.st4{font-family:'Formular';}
	.st5{font-size:66.6926px;}
</style>
<g id="XMLID_98_">
	<line id="XMLID_1484_" class="st0" x1="0.8" y1="56.4" x2="1500.8" y2="56.4"/>
	<line id="XMLID_1082_" class="st0" x1="0.8" y1="518.2" x2="1500.8" y2="518.2"/>
	<line id="XMLID_1483_" class="st0" x1="0.8" y1="279.2" x2="1500.8" y2="279.2"/>
	<line id="XMLID_1080_" class="st1" x1="0.8" y1="56.4" x2="0.8" y2="517.2"/>
	<line id="XMLID_1081_" class="st0" x1="938.7" y1="56.4" x2="938.7" y2="517.2"/>
	<rect id="XMLID_1482_" x="1277.9" y="56.4" class="st2" width="222.9" height="222.9"/>
	<text id="XMLID_1481_" transform="matrix(1 0 0 1 1370.917 401.6446)" class="st3 st4 st5">x</text>
	<line id="XMLID_1480_" class="st0" x1="1277.9" y1="329.5" x2="1500.8" y2="329.5"/>
	<rect id="XMLID_1478_" x="0.8" y="279.2" class="st2" width="938" height="111.4"/>
	<text id="XMLID_1233_" transform="matrix(1 0 0 1 1027.9238 360.6739)" class="st3 st4 st5">1/2x</text>
	<line id="XMLID_1232_" class="st0" x1="994.1" y1="279.2" x2="994.1" y2="390.6"/>
	<g id="XMLID_1357_">
		<g id="XMLID_109_">
			<path id="XMLID_119_" class="st3" d="M156.6,279.2v-20.6h-10.5c-13.6,17.5-35.5,26.3-65.7,26.3c-24.5,0-43.8-7-58.2-21
				C7.8,249.4,0.8,232.4,0.8,211.8c0-20.1,7.4-37.7,21.9-52.5c14.4-14.9,36.8-22.3,66.6-22.3h65.7v-6.6c0-25.8-15.3-40.7-46.8-40.7
				c-27.6,0-42.5,9.6-44.7,28.5h-49c2.2-41.6,39-67.4,91.9-67.4c60,0,96.3,26.7,96.3,80.6v148H156.6z M137.8,228.4
				c11.4-10.9,17.1-24.1,17.1-39.4v-17.1H97.9c-31.1,0-47.3,13.6-47.3,36.8c0,22.8,16.6,35.9,45.1,35.9
				C112.4,244.6,126.4,239.4,137.8,228.4z"/>
			<path id="XMLID_117_" class="st3" d="M375.5,56.4v46h-20.1c-45.1,0-69.6,25.8-69.6,72.7v104.2h-49.5V56.4H284v25.8h10.5
				c12.7-17.1,33.7-25.8,62.2-25.8H375.5z"/>
			<path id="XMLID_115_" class="st3" d="M445.4,56.4h52.5v42h-52.5V207c0,19.7,11.4,29.3,34.2,29.3h18.4v42.9h-19.3
				c-53.9,0-82.8-18-82.8-65.7V0h49.5V56.4z"/>
			<path id="XMLID_112_" class="st3" d="M702.5,252.5c-20.1,21.5-47.3,32.4-81.9,32.4c-34.6,0-61.7-10.9-82.3-32.4
				c-20.1-21.9-30.2-50.4-30.2-84.9s10.1-62.6,30.2-84.1c20.6-21.9,47.7-32.8,82.3-32.8c34.6,0,61.7,10.9,81.9,32.8
				c20.6,21.5,30.6,49.5,30.6,84.1S723.1,230.6,702.5,252.5z M620.6,92.7c-40.7,0-63,32.8-63,74.9c0,42.5,22.3,75.3,63,75.3
				c40.7,0,63-32.8,63-75.3C683.7,125.5,661.4,92.7,620.6,92.7z"/>
			<path id="XMLID_110_" class="st3" d="M883.1,115.9c-2.6-16.2-17.1-24.1-43.8-24.1c-26.7,0-40.3,7.9-40.3,23.2
				c0,13.6,8.8,18.8,28.5,22.3l43.3,7c45.1,7.4,67.9,30.2,67.9,69.2c0,19.7-8.3,36.8-25.4,50.8c-16.6,13.6-39.8,20.6-70.1,20.6
				c-63,0-97.2-27.6-102-73.1h49.5c3.9,21.5,21,32,51.7,32c31.1,0,46.8-9.6,46.8-28.9c0-17.1-10.5-25-36.3-29.8l-46.4-7.9
				c-35-5.7-56.9-25.4-56.9-58.7c0-39.8,31.5-67.9,91.5-67.9c53,0,86.7,25.4,91.5,65.2H883.1z"/>
		</g>
	</g>
	<g id="XMLID_945_">
		<g id="XMLID_993_">
			<path id="XMLID_1050_" class="st3" d="M49.8,401.8c0,15.1-8.5,27.3-24.5,27.3c-16.1,0-24.5-12.2-24.5-27.3
				c0-15.1,8.5-27.3,24.5-27.3C41.3,374.5,49.8,386.7,49.8,401.8z M43.1,401.8c0-11-5.3-21.2-17.8-21.2c-12.5,0-17.8,10.2-17.8,21.2
				c0,11,5.3,21.2,17.8,21.2C37.8,423,43.1,412.7,43.1,401.8z"/>
			<path id="XMLID_1047_" class="st3" d="M98.3,422.6v16h-6.1v-10.5H60.1v10.5H54v-16h4.9c2.4-5,4.6-12.3,4.6-21.5v-10.2h28v31.7
				H98.3z M85.2,396.4H69.3v4.7c0,9.4-1.8,16.5-4.1,21.5h20V396.4z"/>
			<path id="XMLID_1044_" class="st3" d="M138.6,409.4h-28.3c0.2,8.8,4.2,14.1,11.9,14.1c5.2,0,8.3-2.2,9.4-5.7h6.3
				c-1.2,6.3-6.6,11.2-15.8,11.2c-11.6,0-18-8.5-18-19.9c0-11.4,6.6-19.2,17.9-19.2c11,0,16.4,8.2,16.6,17.3V409.4z M110.7,404.2
				h21.4c-0.4-4.7-4-8.8-10.2-8.8C115.2,395.4,111.5,399.5,110.7,404.2z"/>
			<path id="XMLID_1042_" class="st3" d="M151.8,428.1h-6.6l8.4-19.1l-7.9-18h6.5l6.7,15.4h9.5v-15.4h6v15.4h9.5l6.7-15.4h6.5
				l-7.9,18l8.5,19.1h-6.6l-7.1-16.3h-9.5v16.3h-6v-16.3h-9.5L151.8,428.1z"/>
			<path id="XMLID_1037_" class="st3" d="M246.5,422.6v16h-6.1v-10.5h-32.1v10.5h-6.1v-16h4.9c2.4-5,4.6-12.3,4.6-21.5v-10.2h28
				v31.7H246.5z M233.4,396.4h-15.9v4.7c0,9.4-1.8,16.5-4.1,21.5h20V396.4z"/>
			<path id="XMLID_1034_" class="st3" d="M278.2,424.2h-1.6c-2.3,2.9-6.3,4.9-11.6,4.9c-8.5,0-13.3-5.7-13.3-12.1
				c0-6,3.9-12.3,14.2-12.3H278v-1.5c0-4.5-2.6-7.7-9.1-7.7c-5.5,0-8.3,2.1-8.6,5.4h-6.3c0.5-6.9,6.4-10.8,14.7-10.8
				c9.4,0,15.3,4.5,15.3,12.8v25.3h-5.9V424.2z M278,413v-3.4h-11.1c-6.1,0-8.9,2.7-8.9,7.1c0,4.2,3.1,6.9,8.6,6.9
				C272.8,423.6,278,418.9,278,413z"/>
			<path id="XMLID_1032_" class="st3" d="M342.6,428.1v-31.7h-20.3v31.7h-6.3v-37.1h32.8v37.1H342.6z"/>
			<path id="XMLID_1029_" class="st3" d="M367,390.9v4h1.6c2.1-2.6,5.7-4.9,11.6-4.9c10.2,0,16.3,8.5,16.3,19.5
				c0,11.2-6,19.5-16.3,19.5c-5.9,0-9.4-2.3-11.3-4.9h-1.6v18.7h-6.3v-51.9H367z M367.1,409.5c0,7.3,3.4,14.1,11.6,14.1
				c7.4,0,11.4-5.8,11.4-14.1s-4-14.1-11.4-14.1C370.5,395.4,367.1,402.2,367.1,409.5z"/>
			<path id="XMLID_1026_" class="st3" d="M440.5,409.5c0,11-6.7,19.5-18.3,19.5c-11.6,0-18.3-8.5-18.3-19.5c0-11,6.6-19.5,18.3-19.5
				C433.8,390,440.5,398.5,440.5,409.5z M434.2,409.5c0-7.3-3.8-14.1-12-14.1c-8.2,0-12,6.8-12,14.1c0,7.3,3.8,14.1,12,14.1
				C430.4,423.6,434.2,416.8,434.2,409.5z"/>
			<path id="XMLID_1022_" class="st3" d="M473.7,442.8h-6.2v-14.7h-1.2c-11.8,0-18.3-7.8-18.3-18.6c0-10.8,6.4-18.6,18.3-18.6h1.3
				v-16.4h6.2v16.4h1.2c11.7,0,18.3,7.8,18.3,18.6c0,11.4-6.9,18.6-19.4,18.6V442.8z M466.3,422.8h1.2v-26.5h-1.2
				c-8.2,0-12.2,6-12.2,13.3C454.2,416.7,458,422.8,466.3,422.8z M474.7,422.8c8.3,0,12.2-6,12.2-13.3c0-7.2-3.9-13.3-12.2-13.3h-1
				v26.5H474.7z"/>
			<path id="XMLID_1019_" class="st3" d="M535.1,409.4h-28.3c0.2,8.8,4.2,14.1,11.9,14.1c5.2,0,8.3-2.2,9.4-5.7h6.3
				c-1.2,6.3-6.6,11.2-15.8,11.2c-11.6,0-18-8.5-18-19.9c0-11.4,6.6-19.2,17.9-19.2c11,0,16.4,8.2,16.6,17.3V409.4z M507.2,404.2
				h21.4c-0.4-4.7-4-8.8-10.2-8.8C511.7,395.4,508,399.5,507.2,404.2z"/>
			<path id="XMLID_1017_" class="st3" d="M576.2,416.9c-1.4,7.3-7,12.2-15.6,12.2c-11.6,0-18-8.5-18-19.5c0-11.2,6.5-19.5,18-19.5
				c8.8,0,14.1,4.9,15.4,11.7h-6.3c-1.2-3.8-4.1-6.3-9.1-6.3c-8.4,0-11.8,6.6-11.8,13.9c0,7.4,3.5,14.2,11.8,14.2
				c5.3,0,8.4-2.6,9.4-6.7H576.2z"/>
			<path id="XMLID_1015_" class="st3" d="M617,416.9c-1.4,7.3-7,12.2-15.6,12.2c-11.6,0-18-8.5-18-19.5c0-11.2,6.5-19.5,18-19.5
				c8.8,0,14.1,4.9,15.4,11.7h-6.3c-1.2-3.8-4.1-6.3-9.1-6.3c-8.4,0-11.8,6.6-11.8,13.9c0,7.4,3.5,14.2,11.8,14.2
				c5.3,0,8.4-2.6,9.4-6.7H617z"/>
			<path id="XMLID_1013_" class="st3" d="M626.3,428.1v-37.1h6.1v28.7h1.6l16.3-28.7h9.1v37.1h-6.1v-28.7h-1.6l-16.6,28.7H626.3z"/>
			<path id="XMLID_1010_" class="st3" d="M705.8,409.5c0,11-6.7,19.5-18.3,19.5c-11.6,0-18.3-8.5-18.3-19.5c0-11,6.6-19.5,18.3-19.5
				C699.1,390,705.8,398.5,705.8,409.5z M699.6,409.5c0-7.3-3.8-14.1-12-14.1c-8.2,0-12,6.8-12,14.1c0,7.3,3.8,14.1,12,14.1
				C695.7,423.6,699.6,416.8,699.6,409.5z"/>
			<path id="XMLID_1008_" class="st3" d="M742.4,428.1v-16.4h-20.6v16.4h-6.3v-37.1h6.3v15.3h20.6v-15.3h6.3v37.1H742.4z"/>
			<path id="XMLID_1005_" class="st3" d="M784.4,424.2h-1.6c-2.3,2.9-6.3,4.9-11.6,4.9c-8.5,0-13.3-5.7-13.3-12.1
				c0-6,3.9-12.3,14.2-12.3h12.1v-1.5c0-4.5-2.6-7.7-9.1-7.7c-5.5,0-8.3,2.1-8.6,5.4h-6.3c0.5-6.9,6.4-10.8,14.7-10.8
				c9.4,0,15.3,4.5,15.3,12.8v25.3h-5.9V424.2z M784.2,413v-3.4h-11.1c-6.1,0-8.9,2.7-8.9,7.1c0,4.2,3.1,6.9,8.6,6.9
				C779,423.6,784.2,418.9,784.2,413z"/>
			<path id="XMLID_1003_" class="st3" d="M797.6,422.2h1.3c5,0,7.3-3.7,7.3-16.9v-14.4h28.4v37.1h-6.3v-31.7H812v9.1
				c0,17.1-4,22.6-13.1,22.6h-1.3V422.2z"/>
			<path id="XMLID_1000_" class="st3" d="M880.8,409.5c0,11-6.7,19.5-18.3,19.5c-11.6,0-18.3-8.5-18.3-19.5c0-11,6.6-19.5,18.3-19.5
				C874.1,390,880.8,398.5,880.8,409.5z M874.6,409.5c0-7.3-3.8-14.1-12-14.1c-8.2,0-12,6.8-12,14.1c0,7.3,3.8,14.1,12,14.1
				C870.7,423.6,874.6,416.8,874.6,409.5z"/>
			<path id="XMLID_996_" class="st3" d="M916.8,409.2c3.5,0.9,6,3.9,6,8.7c0,6.8-4.6,10.2-13.1,10.2h-19.1v-37.1H909
				c7.4,0,11.7,3.5,11.7,9.4c0,3.6-1.9,6.2-4,7.3V409.2z M896.8,406.3h11.6c4.5,0,6-2.4,6-5c0-2.9-1.5-5.1-6-5.1h-11.6V406.3z
				 M909.3,422.8c5.4,0,7.2-2.4,7.2-5.5c0-3.2-1.8-5.6-7.2-5.6h-12.5v11.1H909.3z"/>
			<path id="XMLID_994_" class="st3" d="M931.1,428.1v-8.5h7.7v9.9l-4.1,7.1h-4l4.1-7.1v-1.4H931.1z"/>
		</g>
		<g id="XMLID_947_">
			<path id="XMLID_991_" class="st3" d="M18.1,500.9H7v16.4H0.8v-37.1H7v15.3h11.3l7.7-15.3h6.6L23.5,498l9.6,19.2h-6.7L18.1,500.9z
				"/>
			<path id="XMLID_988_" class="st3" d="M75.1,498.7c0,11-6.7,19.5-18.3,19.5c-11.6,0-18.3-8.5-18.3-19.5s6.6-19.5,18.3-19.5
				C68.4,479.2,75.1,487.7,75.1,498.7z M68.9,498.7c0-7.3-3.8-14.1-12-14.1c-8.2,0-12,6.8-12,14.1c0,7.3,3.8,14.1,12,14.1
				C65.1,512.7,68.9,506,68.9,498.7z"/>
			<path id="XMLID_986_" class="st3" d="M80.4,480.1h32v5.5H99.5v31.7h-6.3v-31.7H80.4V480.1z"/>
			<path id="XMLID_983_" class="st3" d="M154.3,498.7c0,11-6.7,19.5-18.3,19.5c-11.6,0-18.3-8.5-18.3-19.5s6.6-19.5,18.3-19.5
				C147.6,479.2,154.3,487.7,154.3,498.7z M148,498.7c0-7.3-3.8-14.1-12-14.1c-8.2,0-12,6.8-12,14.1c0,7.3,3.8,14.1,12,14.1
				C144.2,512.7,148,506,148,498.7z"/>
			<path id="XMLID_980_" class="st3" d="M170.1,480.1v4h1.6c2.1-2.6,5.7-4.9,11.6-4.9c10.2,0,16.3,8.5,16.3,19.5
				c0,11.2-6,19.5-16.3,19.5c-5.9,0-9.4-2.3-11.3-4.9h-1.6V532h-6.3v-51.9H170.1z M170.2,498.7c0,7.3,3.4,14.1,11.6,14.1
				c7.4,0,11.4-5.8,11.4-14.1s-4-14.1-11.4-14.1C173.6,484.6,170.2,491.4,170.2,498.7z"/>
			<path id="XMLID_978_" class="st3" d="M212.2,532l7.7-18.2L204,480.1h6.7l11.3,24.5h1.8l10.3-24.5h6.6L218.5,532H212.2z"/>
			<path id="XMLID_975_" class="st3" d="M298.6,498.7c0,10.9-6.7,19.5-18,19.5c-10.5,0-17-7.5-17.8-17.3h-8.5v16.4h-6.2v-37.1h6.2
				v15.3h8.7c1.2-9.4,7.6-16.3,17.6-16.3C291.9,479.2,298.6,487.8,298.6,498.7z M292.3,498.7c0-7.3-3.8-14.1-11.7-14.1
				c-8,0-11.7,6.8-11.7,14.1c0,7.3,3.7,14.1,11.7,14.1C288.5,512.7,292.3,506,292.3,498.7z"/>
			<path id="XMLID_973_" class="st3" d="M324.6,511.3h1.3c5,0,7.3-3.7,7.3-16.9v-14.4h28.4v37.1h-6.3v-31.7H339v9.1
				c0,17.1-4,22.6-13.1,22.6h-1.3V511.3z"/>
			<path id="XMLID_970_" class="st3" d="M424.1,498.7c0,10.9-6.7,19.5-18,19.5c-10.5,0-17-7.5-17.8-17.3h-8.5v16.4h-6.2v-37.1h6.2
				v15.3h8.7c1.2-9.4,7.6-16.3,17.6-16.3C417.4,479.2,424.1,487.8,424.1,498.7z M417.8,498.7c0-7.3-3.8-14.1-11.7-14.1
				c-8,0-11.7,6.8-11.7,14.1c0,7.3,3.7,14.1,11.7,14.1C414.1,512.7,417.8,506,417.8,498.7z"/>
			<path id="XMLID_955_" class="st3" d="M468.4,499.3c0,10.5-6.9,18.9-18.3,18.9c-11.8,0-18.5-8-18.5-22.5
				c0-12.5,1.8-25.4,14.7-27.5l9.9-1.6c2.7-0.4,3.4-0.7,3.6-2.9h5.8c-0.2,4.2-1.5,7.2-7.3,8.2l-11.4,1.9c-6.6,1.2-8.8,5.8-9.6,12
				h1.6c3.2-4.1,6.8-5.4,12-5.4C462,480.5,468.4,488.8,468.4,499.3z M462,499.3c0-6.9-3.8-13.4-12.1-13.4s-12.1,6.5-12.1,13.4
				c0,6.9,3.8,13.5,12.1,13.5S462,506.1,462,499.3z"/>
			<path id="XMLID_952_" class="st3" d="M508.7,480.1v37.1h-6.3v-14.7h-11.3c-0.8,0-1.5,0-2.3-0.1l-5.6,14.7h-6.6l6.3-16.1
				c-3.8-1.8-5.7-5.1-5.7-9.7c0-7.1,4.6-11.3,13-11.3H508.7z M490.9,485.4c-5.6,0-7.4,2.3-7.4,6c0,3.6,1.8,5.8,7.4,5.8h11.5v-11.9
				H490.9z"/>
			<path id="XMLID_950_" class="st3" d="M516.9,480.1h32v5.5H536v31.7h-6.3v-31.7h-12.9V480.1z"/>
			<path id="XMLID_948_" class="st3" d="M551.7,517.2v-8.5h7.7v8.5H551.7z"/>
		</g>
	</g>
</g>
</svg>
