<?xml version="1.0" encoding="utf-8"?>
<!-- Generator: Adobe Illustrator 19.0.0, SVG Export Plug-In . SVG Version: 6.00 Build 0)  -->
<svg version="1.1" id="construction" xmlns="http://www.w3.org/2000/svg" xmlns:xlink="http://www.w3.org/1999/xlink" x="0px"
	 y="0px" viewBox="-74 51 1500 1000" style="enable-background:new -74 51 1500 1000;" xml:space="preserve">
<style type="text/css">
	.st0{fill:#101010;}
	.st1{fill:#36AFA7;}
	.st2{fill:none;}
	.st3{opacity:0.6;}
	.st4{fill:none;stroke:#FFFFFF;stroke-miterlimit:10;}
	.st5{fill:none;stroke:#6F6F6F;stroke-miterlimit:10;}
	.st6{opacity:0.7;}
	.st7{fill:#EFEFEF;}
	.st8{font-family:'Formular';}
	.st9{font-size:5.6272px;}
</style>
<rect x="-74" y="51" class="st0" width="1500" height="1000"/>
<g id="XMLID_356_">
	<path id="XMLID_367_" class="st1" d="M220.6,727v-29.9h-15.3c-19.7,25.5-51.6,38.2-95.5,38.2c-35.7,0-63.7-10.2-84.7-30.6
		c-21-21-31.2-45.8-31.2-75.8c0-29.3,10.8-54.8,31.8-76.4c21-21.7,53.5-32.5,96.8-32.5h95.5v-9.6c0-37.6-22.3-59.2-68.1-59.2
		c-40.1,0-61.8,14-65,41.4H13.7c3.2-60.5,56.7-98.1,133.7-98.1c87.2,0,140.1,38.8,140.1,117.2V727H220.6z M193.2,653.2
		c16.6-15.9,24.8-35,24.8-57.3V571h-82.8c-45.2,0-68.8,19.7-68.8,53.5c0,33.1,24.2,52.2,65.6,52.2
		C156.3,676.7,176.7,669.1,193.2,653.2z"/>
	<path id="XMLID_365_" class="st1" d="M539,402.9v66.9h-29.3c-65.6,0-101.2,37.6-101.2,105.7V727h-72V402.9h69.4v37.6h15.3
		c18.5-24.8,49-37.6,90.4-37.6H539z"/>
	<path id="XMLID_363_" class="st1" d="M640.6,402.9H717V464h-76.4V622c0,28.7,16.6,42.7,49.7,42.7H717V727h-28
		c-78.3,0-120.4-26.1-120.4-95.5V320.9h72V402.9z"/>
	<path id="XMLID_359_" class="st1" d="M1014.6,688.2c-29.3,31.2-68.8,47.1-119.1,47.1c-50.3,0-89.8-15.9-119.7-47.1
		c-29.3-31.8-43.9-73.2-43.9-123.5c0-50.3,14.6-91.1,43.9-122.3c29.9-31.8,69.4-47.8,119.7-47.8c50.3,0,89.8,15.9,119.1,47.8
		c29.9,31.2,44.6,72,44.6,122.3C1059.1,614.9,1044.5,656.3,1014.6,688.2z M895.5,455.8c-59.2,0-91.7,47.8-91.7,108.9
		c0,61.8,32.5,109.5,91.7,109.5c59.2,0,91.7-47.8,91.7-109.5C987.2,503.5,954.7,455.8,895.5,455.8z"/>
	<path id="XMLID_357_" class="st1" d="M1277.2,489.5c-3.8-23.6-24.8-35-63.7-35c-38.8,0-58.6,11.5-58.6,33.7
		c0,19.7,12.7,27.4,41.4,32.5l63,10.2c65.6,10.8,98.7,43.9,98.7,100.6c0,28.7-12.1,53.5-36.9,73.9c-24.2,19.7-57.9,29.9-101.9,29.9
		c-91.7,0-141.4-40.1-148.4-106.3h72c5.7,31.2,30.6,46.5,75.1,46.5c45.2,0,68.1-14,68.1-42c0-24.8-15.3-36.3-52.9-43.3l-67.5-11.5
		c-50.9-8.3-82.8-36.9-82.8-85.3c0-57.9,45.8-98.7,133.1-98.7c77.1,0,126.1,36.9,133.1,94.9H1277.2z"/>
</g>
<line id="XMLID_355_" class="st2" x1="4.1" y1="683.7" x2="48.7" y2="728.1"/>
<g id="XMLID_475_" class="st3">
	<line id="XMLID_354_" class="st4" x1="16.8" y1="435.5" x2="14" y2="487.1"/>
	<circle id="XMLID_353_" class="st4" cx="13.6" cy="492.7" r="5.6"/>
	<circle id="XMLID_352_" class="st4" cx="84.9" cy="492.7" r="5.6"/>
	<circle id="XMLID_351_" class="st4" cx="150.1" cy="451.3" r="5.6"/>
	<circle id="XMLID_350_" class="st4" cx="146.9" cy="394.6" r="5.6"/>
	<circle id="XMLID_349_" class="st4" cx="287.5" cy="507.8" r="5.6"/>
	<circle id="XMLID_347_" class="st4" cx="336.5" cy="727" r="5.6"/>
	<circle id="XMLID_346_" class="st4" cx="408.5" cy="727" r="5.6"/>
	<circle id="XMLID_344_" class="st4" cx="568.6" cy="631.5" r="5.6"/>
	<circle id="XMLID_343_" class="st4" cx="686.7" cy="727" r="5.6"/>
	<circle id="XMLID_342_" class="st4" cx="717" cy="727" r="5.6"/>
	<circle id="XMLID_340_" class="st4" cx="717" cy="664.6" r="5.6"/>
	<circle id="XMLID_339_" class="st4" cx="690.3" cy="664.6" r="5.6"/>
	<circle id="XMLID_338_" class="st4" cx="640.6" cy="622" r="5.6"/>
	<circle id="XMLID_337_" class="st4" cx="408.5" cy="575.5" r="5.6"/>
	<circle id="XMLID_334_" class="st4" cx="509.7" cy="469.8" r="5.6"/>
	<circle id="XMLID_333_" class="st4" cx="539" cy="469.8" r="5.6"/>
	<circle id="XMLID_332_" class="st4" cx="539" cy="402.9" r="5.6"/>
	<circle id="XMLID_329_" class="st4" cx="640.8" cy="402.9" r="5.6"/>
	<circle id="XMLID_326_" class="st4" cx="640.8" cy="464.1" r="5.6"/>
	<circle id="XMLID_315_" class="st4" cx="717" cy="464.1" r="5.6"/>
	<circle id="XMLID_200_" class="st4" cx="717" cy="402.9" r="5.6"/>
	<circle id="XMLID_199_" class="st4" cx="640.8" cy="320.9" r="5.6"/>
	<circle id="XMLID_198_" class="st4" cx="568.6" cy="320.9" r="5.6"/>
	<circle id="XMLID_197_" class="st4" cx="513.8" cy="402.9" r="5.6"/>
	<circle id="XMLID_196_" class="st4" cx="421.4" cy="440.5" r="5.6"/>
	<circle id="XMLID_194_" class="st4" cx="406.1" cy="440.5" r="5.6"/>
	<circle id="XMLID_193_" class="st4" cx="406.1" cy="402.9" r="5.6"/>
	<circle id="XMLID_192_" class="st4" cx="336.5" cy="402.9" r="5.6"/>
	<circle id="XMLID_191_" class="st4" cx="218.1" cy="520.1" r="5.6"/>
	<circle id="XMLID_190_" class="st4" cx="218.1" cy="571" r="5.6"/>
	<circle id="XMLID_189_" class="st4" cx="218.1" cy="596.4" r="5.6"/>
	<circle id="XMLID_187_" class="st4" cx="135.3" cy="571" r="5.6"/>
	<circle id="XMLID_186_" class="st4" cx="26.2" cy="551.3" r="5.6"/>
	<circle id="XMLID_183_" class="st4" cx="122.5" cy="520.1" r="5.6"/>
	<circle id="XMLID_182_" class="st4" cx="66.5" cy="624.2" r="5.6"/>
	<circle id="XMLID_179_" class="st4" cx="-6.1" cy="628.9" r="5.6"/>
	<circle id="XMLID_174_" class="st4" cx="25.5" cy="705.1" r="5.6"/>
	<circle id="XMLID_154_" class="st4" cx="108.4" cy="735.3" r="5.6"/>
	<circle id="XMLID_140_" class="st4" cx="132.2" cy="676.7" r="5.6"/>
	<circle id="XMLID_139_" class="st4" cx="192.6" cy="653.9" r="5.6"/>
	<circle id="XMLID_138_" class="st4" cx="205.3" cy="697.1" r="6.7"/>
	<circle id="XMLID_137_" class="st4" cx="220.4" cy="697.1" r="6.7"/>
	<circle id="XMLID_136_" class="st4" cx="220.4" cy="727" r="5.6"/>
	<circle id="XMLID_134_" class="st4" cx="287.5" cy="727" r="5.6"/>
	<circle id="XMLID_133_" class="st4" cx="16.8" cy="432.2" r="3.3"/>
	<circle id="XMLID_132_" class="st4" cx="88.2" cy="463" r="3.3"/>
	<circle id="XMLID_131_" class="st4" cx="79.2" cy="520.1" r="3.3"/>
	<circle id="XMLID_130_" class="st4" cx="47.5" cy="529.1" r="3.3"/>
	<circle id="XMLID_129_" class="st4" cx="4.7" cy="574.2" r="3.3"/>
	<circle id="XMLID_128_" class="st4" cx="88.2" cy="571" r="3.3"/>
	<circle id="XMLID_127_" class="st4" cx="66.5" cy="589.5" r="3.3"/>
	<circle id="XMLID_126_" class="st4" cx="-6.1" cy="599" r="3.3"/>
	<circle id="XMLID_125_" class="st4" cx="-6.1" cy="658.9" r="3.3"/>
	<circle id="XMLID_124_" class="st4" cx="66.5" cy="658.9" r="3.3"/>
	<circle id="XMLID_123_" class="st4" cx="90.7" cy="676.7" r="3.3"/>
	<circle id="XMLID_122_" class="st4" cx="4.1" cy="683.7" r="3.3"/>
	<circle id="XMLID_117_" class="st4" cx="46.2" cy="725.7" r="3.3"/>
	<circle id="XMLID_114_" class="st4" cx="74.1" cy="735.3" r="3.3"/>
	<circle id="XMLID_113_" class="st4" cx="161" cy="735.3" r="3.3"/>
	<circle id="XMLID_148_" class="st4" cx="185.9" cy="723.4" r="3.3"/>
	<circle id="XMLID_112_" class="st4" cx="156.4" cy="676.7" r="3.3"/>
	<circle id="XMLID_111_" class="st4" cx="176.7" cy="669.4" r="3.3"/>
	<circle id="XMLID_110_" class="st4" cx="211.4" cy="635.2" r="3.3"/>
	<circle id="XMLID_109_" class="st4" cx="218.1" cy="618.1" r="3.3"/>
	<circle id="XMLID_108_" class="st4" cx="109.8" cy="451.3" r="3.3"/>
	<circle id="XMLID_107_" class="st4" cx="192.8" cy="451.3" r="3.3"/>
	<circle id="XMLID_106_" class="st4" cx="234.2" cy="394.6" r="3.3"/>
	<circle id="XMLID_105_" class="st4" cx="470.2" cy="402.9" r="3.3"/>
	<circle id="XMLID_104_" class="st4" cx="440.4" cy="414.8" r="3.3"/>
	<circle id="XMLID_101_" class="st4" cx="443.7" cy="469.8" r="3.3"/>
	<circle id="XMLID_118_" class="st4" cx="609.4" cy="727" r="3.3"/>
	<circle id="XMLID_119_" class="st4" cx="568.6" cy="699.3" r="3.3"/>
	<circle id="XMLID_120_" class="st4" cx="640.6" cy="652.9" r="3.3"/>
	<circle id="XMLID_121_" class="st4" cx="654.7" cy="664.6" r="3.3"/>
	<circle id="XMLID_103_" class="st4" cx="408.5" cy="507.4" r="3.3"/>
	<circle id="XMLID_99_" class="st4" cx="68.4" cy="394.6" r="3.3"/>
	<circle id="XMLID_98_" class="st4" cx="218.1" cy="472.9" r="3.3"/>
	<circle id="XMLID_96_" class="st4" cx="287.5" cy="433.5" r="3.3"/>
	<g>
		<line id="XMLID_95_" class="st5" x1="-98.8" y1="402.9" x2="1450.8" y2="402.9"/>
		<line id="XMLID_94_" class="st5" x1="-98.8" y1="320.9" x2="1450.8" y2="320.9"/>
		<line id="XMLID_93_" class="st5" x1="-98.8" y1="727" x2="1450.8" y2="727"/>
	</g>
	<line id="XMLID_92_" class="st4" x1="87.9" y1="466.3" x2="85.6" y2="487.1"/>
	<line id="XMLID_91_" class="st4" x1="113.1" y1="451.3" x2="144.4" y2="451.3"/>
	<line id="XMLID_142_" class="st4" x1="155.7" y1="451.3" x2="189.5" y2="451.3"/>
	<line id="XMLID_90_" class="st4" x1="218.1" y1="520.1" x2="218.1" y2="472.9"/>
	<line id="XMLID_89_" class="st4" x1="71.8" y1="394.6" x2="141.3" y2="394.6"/>
	<line id="XMLID_141_" class="st4" x1="152.5" y1="394.6" x2="230.9" y2="394.6"/>
	<line id="XMLID_88_" class="st4" x1="287.5" y1="436.8" x2="287.5" y2="502.1"/>
	<line id="XMLID_87_" class="st4" x1="187.9" y1="720.7" x2="201.3" y2="702.6"/>
	<line id="XMLID_86_" class="st4" x1="77.5" y1="735.3" x2="102.7" y2="735.3"/>
	<line id="XMLID_149_" class="st4" x1="114" y1="735.3" x2="157.7" y2="735.3"/>
	<line id="XMLID_85_" class="st4" x1="30.2" y1="547.4" x2="45.3" y2="531.5"/>
	<line id="XMLID_143_" class="st4" x1="7.1" y1="571.7" x2="22.5" y2="555.5"/>
	<line id="XMLID_84_" class="st4" x1="-6.1" y1="623.4" x2="-6.1" y2="602.3"/>
	<line id="XMLID_144_" class="st4" x1="-6.1" y1="655.7" x2="-6.1" y2="634.6"/>
	<line id="XMLID_83_" class="st4" x1="82.6" y1="520.1" x2="116.9" y2="520.1"/>
	<line id="XMLID_82_" class="st4" x1="88.2" y1="571" x2="135.3" y2="571"/>
	<line id="XMLID_81_" class="st4" x1="66.5" y1="592.8" x2="66.5" y2="618.6"/>
	<line id="XMLID_145_" class="st4" x1="66.5" y1="629.8" x2="66.5" y2="655.6"/>
	<line id="XMLID_80_" class="st4" x1="94" y1="676.7" x2="126.6" y2="676.7"/>
	<line id="XMLID_146_" class="st4" x1="137.6" y1="676.7" x2="153.1" y2="676.7"/>
	<line id="XMLID_79_" class="st4" x1="218.1" y1="614.8" x2="218.1" y2="602"/>
	<line id="XMLID_78_" class="st4" x1="438.3" y1="417.4" x2="424.5" y2="435.8"/>
	<line id="XMLID_97_" class="st4" x1="447.4" y1="469.8" x2="504.1" y2="469.8"/>
	<line id="XMLID_100_" class="st4" x1="408.5" y1="569.8" x2="408.5" y2="510.7"/>
	<line id="XMLID_102_" class="st4" x1="640.6" y1="627.5" x2="640.6" y2="649.6"/>
	<line id="XMLID_115_" class="st4" x1="684.6" y1="664.6" x2="658" y2="664.6"/>
	<line id="XMLID_116_" class="st4" x1="568.6" y1="637.1" x2="568.6" y2="696.1"/>
	<line id="XMLID_135_" class="st4" x1="179" y1="667.1" x2="188.2" y2="658.1"/>
	<line id="XMLID_147_" class="st4" x1="196.6" y1="649.8" x2="209" y2="637.6"/>
	<line id="XMLID_77_" class="st4" x1="29.4" y1="709.2" x2="43.7" y2="723.2"/>
	<line id="XMLID_150_" class="st4" x1="6.5" y1="686.1" x2="21.4" y2="701"/>
	<circle id="XMLID_188_" class="st4" cx="895.5" cy="674.2" r="5.6"/>
	<circle id="XMLID_201_" class="st4" cx="895.5" cy="735.3" r="5.6"/>
	<circle id="XMLID_170_" class="st4" cx="895.5" cy="394.6" r="5.6"/>
	<circle id="XMLID_178_" class="st4" cx="895.5" cy="455.8" r="5.6"/>
	<circle id="XMLID_202_" class="st4" cx="742.2" cy="652.9" r="3.3"/>
	<circle id="XMLID_203_" class="st4" cx="806.9" cy="719.7" r="3.3"/>
	<circle id="XMLID_204_" class="st4" cx="842.4" cy="735.3" r="3.3"/>
	<circle id="XMLID_205_" class="st4" cx="833.3" cy="674.2" r="3.3"/>
	<circle id="XMLID_206_" class="st4" cx="803.6" cy="628.4" r="3.3"/>
	<circle id="XMLID_207_" class="st4" cx="731.8" cy="616" r="3.3"/>
	<circle id="XMLID_208_" class="st4" cx="803.8" cy="501.5" r="3.3"/>
	<circle id="XMLID_209_" class="st4" cx="731.8" cy="514" r="3.3"/>
	<circle id="XMLID_210_" class="st4" cx="741.7" cy="477.8" r="3.3"/>
	<circle id="XMLID_211_" class="st4" cx="806.4" cy="411.1" r="3.3"/>
	<circle id="XMLID_213_" class="st4" cx="833.3" cy="455.8" r="3.3"/>
	<circle id="XMLID_212_" class="st4" cx="842.4" cy="394.6" r="3.3"/>
	<line id="XMLID_76_" class="st4" x1="836.6" y1="455.8" x2="889.9" y2="455.8"/>
	<line id="XMLID_168_" class="st4" x1="836.6" y1="674.2" x2="889.9" y2="674.2"/>
	<line id="XMLID_151_" class="st4" x1="845.7" y1="394.6" x2="889.9" y2="394.6"/>
	<line id="XMLID_167_" class="st4" x1="845.7" y1="735.3" x2="889.9" y2="735.3"/>
	<line id="XMLID_153_" class="st4" x1="731.8" y1="517.3" x2="731.8" y2="559.3"/>
	<line id="XMLID_216_" class="st4" x1="731.8" y1="570.6" x2="731.8" y2="612.6"/>
	<line id="XMLID_166_" class="st4" x1="803.8" y1="504.9" x2="803.8" y2="559.4"/>
	<line id="XMLID_215_" class="st4" x1="803.8" y1="570.6" x2="803.8" y2="625.2"/>
	<circle id="XMLID_165_" class="st4" cx="803.8" cy="565" r="5.6"/>
	<circle id="XMLID_173_" class="st4" cx="731.8" cy="565" r="5.6"/>
	<circle id="XMLID_185_" class="st4" cx="776.3" cy="688.5" r="5.6"/>
	<circle id="XMLID_175_" class="st4" cx="775.5" cy="443.3" r="5.6"/>
	<line id="XMLID_177_" class="st4" x1="803.8" y1="413.7" x2="779.2" y2="439.1"/>
	<line id="XMLID_214_" class="st4" x1="771.4" y1="447.2" x2="744" y2="475.4"/>
	<line id="XMLID_1_" class="st4" x1="744.4" y1="655.5" x2="772.6" y2="684.3"/>
	<line id="XMLID_217_" class="st4" x1="780.4" y1="692.3" x2="804.6" y2="717.3"/>
	<circle id="XMLID_247_" class="st4" cx="1048.8" cy="652.9" r="3.3"/>
	<circle id="XMLID_246_" class="st4" cx="984" cy="719.7" r="3.3"/>
	<circle id="XMLID_245_" class="st4" cx="948.6" cy="735.3" r="3.3"/>
	<circle id="XMLID_244_" class="st4" cx="957.7" cy="674.2" r="3.3"/>
	<circle id="XMLID_243_" class="st4" cx="987.4" cy="628.4" r="3.3"/>
	<circle id="XMLID_242_" class="st4" cx="1059.1" cy="616" r="3.3"/>
	<circle id="XMLID_241_" class="st4" cx="987.2" cy="501.5" r="3.3"/>
	<circle id="XMLID_240_" class="st4" cx="1059.1" cy="514" r="3.3"/>
	<circle id="XMLID_239_" class="st4" cx="1049.3" cy="477.8" r="3.3"/>
	<circle id="XMLID_238_" class="st4" cx="984.6" cy="411.1" r="3.3"/>
	<circle id="XMLID_237_" class="st4" cx="957.7" cy="455.8" r="3.3"/>
	<circle id="XMLID_236_" class="st4" cx="948.6" cy="394.6" r="3.3"/>
	<line id="XMLID_235_" class="st4" x1="954.3" y1="455.8" x2="901.1" y2="455.8"/>
	<line id="XMLID_234_" class="st4" x1="954.3" y1="674.2" x2="901.1" y2="674.2"/>
	<line id="XMLID_233_" class="st4" x1="945.3" y1="394.6" x2="901.1" y2="394.6"/>
	<line id="XMLID_232_" class="st4" x1="945.3" y1="735.3" x2="901.1" y2="735.3"/>
	<line id="XMLID_231_" class="st4" x1="1059.1" y1="517.3" x2="1059.1" y2="559.3"/>
	<line id="XMLID_230_" class="st4" x1="1059.1" y1="570.6" x2="1059.1" y2="612.6"/>
	<line id="XMLID_229_" class="st4" x1="987.2" y1="504.9" x2="987.2" y2="559.4"/>
	<line id="XMLID_228_" class="st4" x1="987.2" y1="570.6" x2="987.2" y2="625.2"/>
	<circle id="XMLID_227_" class="st4" cx="987.2" cy="565" r="5.6"/>
	<circle id="XMLID_226_" class="st4" cx="1059.1" cy="565" r="5.6"/>
	<circle id="XMLID_225_" class="st4" cx="1014.7" cy="688.5" r="5.6"/>
	<circle id="XMLID_224_" class="st4" cx="1015.5" cy="443.3" r="5.6"/>
	<line id="XMLID_223_" class="st4" x1="987.2" y1="413.7" x2="1011.8" y2="439.1"/>
	<line id="XMLID_222_" class="st4" x1="1019.5" y1="447.2" x2="1047" y2="475.4"/>
	<line id="XMLID_221_" class="st4" x1="1046.6" y1="655.5" x2="1018.4" y2="684.3"/>
	<line id="XMLID_220_" class="st4" x1="1010.6" y1="692.3" x2="986.4" y2="717.3"/>
	<line id="XMLID_218_" class="st4" x1="1077.4" y1="691.9" x2="1071.6" y2="634.6"/>
	<line id="XMLID_248_" class="st4" x1="1148" y1="656.9" x2="1143.9" y2="634.6"/>
	<line id="XMLID_250_" class="st4" x1="1220" y1="735.3" x2="1262.3" y2="735.3"/>
	<line id="XMLID_313_" class="st4" x1="1130.3" y1="735.3" x2="1208.9" y2="735.3"/>
	<line id="XMLID_252_" class="st4" x1="1222.7" y1="675.4" x2="1262.3" y2="675.4"/>
	<line id="XMLID_309_" class="st4" x1="1176.7" y1="675.4" x2="1212" y2="675.4"/>
	<line id="XMLID_249_" class="st4" x1="1358.1" y1="624.6" x2="1358.1" y2="577.5"/>
	<line id="XMLID_311_" class="st4" x1="1358.1" y1="656.8" x2="1358.1" y2="635.7"/>
	<line id="XMLID_251_" class="st4" x1="1286.1" y1="611.9" x2="1286.1" y2="629.9"/>
	<line id="XMLID_308_" class="st4" x1="1286.1" y1="641.2" x2="1286.1" y2="659.7"/>
	<line id="XMLID_254_" class="st4" x1="1267.6" y1="596.5" x2="1118.9" y2="570.1"/>
	<line id="XMLID_255_" class="st4" x1="1082.9" y1="438.4" x2="1082.9" y2="487.6"/>
	<line id="XMLID_310_" class="st4" x1="1082.9" y1="498.8" x2="1082.9" y2="543.7"/>
	<line id="XMLID_256_" class="st4" x1="1321.7" y1="541.2" x2="1171.4" y2="516.3"/>
	<line id="XMLID_257_" class="st4" x1="1155" y1="469.2" x2="1155" y2="482.5"/>
	<line id="XMLID_307_" class="st4" x1="1155" y1="493.9" x2="1155" y2="505.9"/>
	<line id="XMLID_258_" class="st4" x1="1219.5" y1="454.5" x2="1249.6" y2="454.5"/>
	<line id="XMLID_306_" class="st4" x1="1178.4" y1="454.5" x2="1208.4" y2="454.5"/>
	<line id="XMLID_259_" class="st4" x1="1273.9" y1="469.2" x2="1276.6" y2="483.9"/>
	<line id="XMLID_261_" class="st4" x1="1293.1" y1="394.6" x2="1127.4" y2="394.6"/>
	<circle id="XMLID_263_" class="st4" cx="1070.9" cy="629" r="5.6"/>
	<circle id="XMLID_264_" class="st4" cx="1142.9" cy="629" r="5.6"/>
	<circle id="XMLID_265_" class="st4" cx="1217.6" cy="675.4" r="5.6"/>
	<circle id="XMLID_266_" class="st4" cx="1214.5" cy="735.3" r="5.6"/>
	<circle id="XMLID_268_" class="st4" cx="1358.1" cy="630" r="5.6"/>
	<circle id="XMLID_269_" class="st4" cx="1286.1" cy="635.6" r="5.6"/>
	<circle id="XMLID_270_" class="st4" cx="1233" cy="590.4" r="5.6"/>
	<circle id="XMLID_271_" class="st4" cx="1165.3" cy="578.2" r="5.6"/>
	<circle id="XMLID_272_" class="st4" cx="1195.7" cy="520.5" r="5.6"/>
	<circle id="XMLID_274_" class="st4" cx="1155" cy="488.3" r="5.6"/>
	<circle id="XMLID_276_" class="st4" cx="1213.9" cy="454.5" r="5.6"/>
	<circle id="XMLID_277_" class="st4" cx="1277.2" cy="489.5" r="5.6"/>
	<circle id="XMLID_279_" class="st4" cx="1349.2" cy="489.5" r="5.6"/>
	<circle id="XMLID_278_" class="st4" cx="1215.9" cy="394.6" r="5.6"/>
	<circle id="XMLID_275_" class="st4" cx="1082.9" cy="493.2" r="5.6"/>
	<circle id="XMLID_273_" class="st4" cx="1257.5" cy="530.6" r="5.6"/>
	<circle id="XMLID_262_" class="st4" cx="1077.9" cy="695.2" r="3.3"/>
	<circle id="XMLID_281_" class="st4" cx="1148.6" cy="660.2" r="3.3"/>
	<circle id="XMLID_282_" class="st4" cx="1173.4" cy="675.4" r="3.3"/>
	<circle id="XMLID_283_" class="st4" cx="1127.6" cy="735.3" r="3.3"/>
	<circle id="XMLID_284_" class="st4" cx="1265.7" cy="735.3" r="3.3"/>
	<circle id="XMLID_290_" class="st4" cx="1358.1" cy="660.2" r="3.3"/>
	<circle id="XMLID_291_" class="st4" cx="1358.1" cy="574.2" r="3.3"/>
	<circle id="XMLID_292_" class="st4" cx="1325" cy="541.7" r="3.3"/>
	<circle id="XMLID_285_" class="st4" cx="1265.7" cy="675.4" r="3.3"/>
	<circle id="XMLID_286_" class="st4" cx="1286.1" cy="663" r="3.3"/>
	<circle id="XMLID_287_" class="st4" cx="1286.1" cy="608.6" r="3.3"/>
	<circle id="XMLID_293_" class="st4" cx="1270.9" cy="597.1" r="3.3"/>
	<circle id="XMLID_294_" class="st4" cx="1115.6" cy="569.6" r="3.3"/>
	<circle id="XMLID_295_" class="st4" cx="1082.9" cy="546.4" r="3.3"/>
	<circle id="XMLID_296_" class="st4" cx="1168.1" cy="515.8" r="3.3"/>
	<circle id="XMLID_297_" class="st4" cx="1155" cy="509.2" r="3.3"/>
	<circle id="XMLID_298_" class="st4" cx="1155" cy="465.9" r="3.3"/>
	<circle id="XMLID_299_" class="st4" cx="1082.9" cy="434.7" r="3.3"/>
	<circle id="XMLID_300_" class="st4" cx="1174.7" cy="454.5" r="3.3"/>
	<circle id="XMLID_301_" class="st4" cx="1252.9" cy="454.5" r="3.3"/>
	<circle id="XMLID_304_" class="st4" cx="1293.1" cy="394.6" r="3.3"/>
	<circle id="XMLID_305_" class="st4" cx="1342.6" cy="430.7" r="3.3"/>
	<circle id="XMLID_302_" class="st4" cx="1273.4" cy="465.9" r="3.3"/>
	<circle id="XMLID_303_" class="st4" cx="1127.4" cy="394.6" r="3.3"/>
	<line id="XMLID_260_" class="st4" x1="1342.9" y1="434.1" x2="1348.5" y2="483.9"/>
	<circle id="XMLID_267_" class="st4" cx="1320.5" cy="706.4" r="5.6"/>
	<circle id="XMLID_288_" class="st4" cx="1297" cy="725.1" r="3.3"/>
	<circle id="XMLID_289_" class="st4" cx="1347.7" cy="684.3" r="3.3"/>
	<line id="XMLID_280_" class="st4" x1="1324.8" y1="702.8" x2="1345.1" y2="686.3"/>
	<line id="XMLID_312_" class="st4" x1="1299.6" y1="723.1" x2="1315.9" y2="709.6"/>
</g>
<g id="XMLID_478_" class="st6">
	<g id="XMLID_152_">
		<text transform="matrix(1 0 0 1 135.4058 385.3879)" class="st7 st8 st9">565.695</text>
	</g>
	<g id="XMLID_157_">
		<text transform="matrix(1 0 0 1 4.9708 507.6526)" class="st7 st8 st9">305.22</text>
	</g>
	<g id="XMLID_158_">
		<text transform="matrix(1 0 0 1 84.4449 505.8621)" class="st7 st8 st9">444.551 </text>
	</g>
	<g id="XMLID_160_">
		<text transform="matrix(1 0 0 1 123.171 510.2112)" class="st7 st8 st9">518.106</text>
	</g>
	<g id="XMLID_341_">
		<text transform="matrix(1 0 0 1 189.5186 512.5125)" class="st7 st8 st9">704.822</text>
	</g>
	<g id="XMLID_162_">
		<text transform="matrix(1 0 0 1 139.6519 442.428)" class="st7 st8 st9">571.883</text>
	</g>
	<g id="XMLID_159_">
		<text transform="matrix(1 0 0 1 54.6534 514.1326)" class="st7 st8 st9">433.466</text>
	</g>
	<g id="XMLID_316_">
		<text transform="matrix(1 0 0 1 297.5015 510.2117)" class="st7 st8 st9">840.5 </text>
	</g>
	<g id="XMLID_155_">
		<text transform="matrix(1 0 0 1 325.7891 391.3005)" class="st7 st8 st9">936.344</text>
	</g>
	<g id="XMLID_156_">
		<text transform="matrix(1 0 0 1 394.2178 391.3005)" class="st7 st8 st9">1072.501</text>
	</g>
	<g id="XMLID_161_">
		<text transform="matrix(1 0 0 1 376.5694 433.467)" class="st7 st8 st9">1072.501</text>
	</g>
	<g id="XMLID_180_">
		<text transform="matrix(1 0 0 1 419.5054 576.6375)" class="st7 st8 st9">1077.001</text>
	</g>
	<g id="XMLID_181_">
		<text transform="matrix(1 0 0 1 396.5308 741.95)" class="st7 st8 st9">1077.001</text>
	</g>
	<g id="XMLID_184_">
		<text transform="matrix(1 0 0 1 325.7891 741.9509)" class="st7 st8 st9">936.344</text>
	</g>
	<g id="XMLID_163_">
		<text transform="matrix(1 0 0 1 430.7808 442.9402)" class="st7 st8 st9">1102.368</text>
	</g>
	<g id="XMLID_164_">
		<text transform="matrix(1 0 0 1 498.3101 391.3005)" class="st7 st8 st9">1282.918</text>
	</g>
	<g id="XMLID_171_">
		<text transform="matrix(1 0 0 1 530.9547 391.2991)" class="st7 st8 st9">1332.175</text>
	</g>
	<g id="XMLID_195_">
		<text transform="matrix(1 0 0 1 556.6949 309.4485)" class="st7 st8 st9">1390.142</text>
	</g>
	<g id="XMLID_378_">
		<text transform="matrix(1 0 0 1 533.6754 632.5027)" class="st7 st8 st9">1390.142</text>
	</g>
	<g id="XMLID_314_">
		<text transform="matrix(1 0 0 1 629.1255 309.449)" class="st7 st8 st9">1531.145</text>
	</g>
	<g id="XMLID_328_">
		<text transform="matrix(1 0 0 1 646.774 394.6243)" class="st7 st8 st9">1531.145</text>
	</g>
	<g id="XMLID_345_">
		<text transform="matrix(1 0 0 1 648.565 474.4871)" class="st7 st8 st9">1531.145</text>
	</g>
	<g id="XMLID_372_">
		<text transform="matrix(1 0 0 1 650.8677 623.864)" class="st7 st8 st9">1531.145</text>
	</g>
	<g id="XMLID_348_">
		<text transform="matrix(1 0 0 1 723.3043 457.0935)" class="st7 st8 st9">1680.173</text>
	</g>
	<g id="XMLID_393_">
		<text transform="matrix(1 0 0 1 743.1675 439.0725)" class="st7 st8 st9">1794.454</text>
	</g>
	<g id="XMLID_169_">
		<text transform="matrix(1 0 0 1 883.0269 383.5676)" class="st7 st8 st9">2029.036</text>
	</g>
	<g id="XMLID_219_">
		<text transform="matrix(1 0 0 1 883.0269 469.7634)" class="st7 st8 st9">2029.036</text>
	</g>
	<g id="XMLID_417_">
		<text transform="matrix(1 0 0 1 1025.483 440.3474)" class="st7 st8 st9">2263.631</text>
	</g>
	<g id="XMLID_423_">
		<text transform="matrix(1 0 0 1 1068.7584 566.2273)" class="st7 st8 st9">2348.951</text>
	</g>
	<g id="XMLID_427_">
		<text transform="matrix(1 0 0 1 1052.7662 495.1194)" class="st7 st8 st9">2395.33</text>
	</g>
	<g id="XMLID_430_">
		<text transform="matrix(1 0 0 1 1203.6891 383.5681)" class="st7 st8 st9">2655.357</text>
	</g>
	<g id="XMLID_433_">
		<text transform="matrix(1 0 0 1 1164.6617 489.9871)" class="st7 st8 st9">2536.258</text>
	</g>
	<g id="XMLID_436_">
		<text transform="matrix(1 0 0 1 1183.6324 510.2112)" class="st7 st8 st9">2615.962</text>
	</g>
	<g id="XMLID_439_">
		<text transform="matrix(1 0 0 1 1202.5573 469.199)" class="st7 st8 st9">2651.514</text>
	</g>
	<g id="XMLID_442_">
		<text transform="matrix(1 0 0 1 1245.5065 519.0891)" class="st7 st8 st9">2736.681</text>
	</g>
	<g id="XMLID_445_">
		<text transform="matrix(1 0 0 1 1265.3678 504.8669)" class="st7 st8 st9">2775.251</text>
	</g>
	<g id="XMLID_472_">
		<text transform="matrix(1 0 0 1 1337.4586 504.8665)" class="st7 st8 st9">2915.905</text>
	</g>
	<g id="XMLID_448_">
		<text transform="matrix(1 0 0 1 1152.903 593.7927)" class="st7 st8 st9">2556.435</text>
	</g>
	<g id="XMLID_460_">
		<text transform="matrix(1 0 0 1 1130.6705 618.3474)" class="st7 st8 st9">2512.606</text>
	</g>
	<g id="XMLID_463_">
		<text transform="matrix(1 0 0 1 1073.068 619.281)" class="st7 st8 st9">2371.946</text>
	</g>
	<g id="XMLID_466_">
		<text transform="matrix(1 0 0 1 1203.7614 750.1355)" class="st7 st8 st9">2652.64</text>
	</g>
	<g id="XMLID_469_">
		<text transform="matrix(1 0 0 1 1328.4469 717.3953)" class="st7 st8 st9">2859.912</text>
	</g>
	<g id="XMLID_253_">
		<text transform="matrix(1 0 0 1 1367.9498 631.4529)" class="st7 st8 st9">2933.333</text>
	</g>
	<g id="XMLID_451_">
		<text transform="matrix(1 0 0 1 1220.6188 606.2791)" class="st7 st8 st9">2688.833</text>
	</g>
	<g id="XMLID_454_">
		<text transform="matrix(1 0 0 1 1254.0504 637.4851)" class="st7 st8 st9">2792.68</text>
	</g>
	<g id="XMLID_457_">
		<text transform="matrix(1 0 0 1 1205.3541 665.1101)" class="st7 st8 st9">2658.681</text>
	</g>
	<g id="XMLID_396_">
		<text transform="matrix(1 0 0 1 883.025 662.6228)" class="st7 st8 st9">2029.036</text>
	</g>
	<g id="XMLID_399_">
		<text transform="matrix(1 0 0 1 883.025 750.1355)" class="st7 st8 st9">2029.036</text>
	</g>
	<g id="XMLID_402_">
		<text transform="matrix(1 0 0 1 748.942 701.281)" class="st7 st8 st9">1796.057</text>
	</g>
	<g id="XMLID_405_">
		<text transform="matrix(1 0 0 1 697.9283 566.4841)" class="st7 st8 st9">1709.134</text>
	</g>
	<g id="XMLID_408_">
		<text transform="matrix(1 0 0 1 813.9781 566.4841)" class="st7 st8 st9">1849.794</text>
	</g>
	<g id="XMLID_411_">
		<text transform="matrix(1 0 0 1 954.2701 566.4841)" class="st7 st8 st9">2208.29</text>
	</g>
	<g id="XMLID_414_">
		<text transform="matrix(1 0 0 1 1020.2525 700.0027)" class="st7 st8 st9">2262.027</text>
	</g>
	<g id="XMLID_381_">
		<text transform="matrix(1 0 0 1 706.9351 652.9373)" class="st7 st8 st9">1680.173</text>
	</g>
	<g id="XMLID_387_">
		<text transform="matrix(1 0 0 1 705.1636 741.9509)" class="st7 st8 st9">1680.173</text>
	</g>
	<g id="XMLID_384_">
		<text transform="matrix(1 0 0 1 674.689 652.9382)" class="st7 st8 st9">1627.895</text>
	</g>
	<g id="XMLID_390_">
		<text transform="matrix(1 0 0 1 680.6011 741.9509)" class="st7 st8 st9">1621</text>
	</g>
	<g id="XMLID_360_">
		<text transform="matrix(1 0 0 1 722.0259 394.6248)" class="st7 st8 st9">1680.173</text>
	</g>
	<g id="XMLID_172_">
		<text transform="matrix(1 0 0 1 527.3736 484.6604)" class="st7 st8 st9">1332.175</text>
	</g>
	<g id="XMLID_176_">
		<text transform="matrix(1 0 0 1 494.6558 484.6609)" class="st7 st8 st9">1274.918</text>
	</g>
	<g id="XMLID_317_">
		<text transform="matrix(1 0 0 1 279.0845 741.95)" class="st7 st8 st9">840.5 </text>
	</g>
	<g id="XMLID_318_">
		<text transform="matrix(1 0 0 1 211.3609 741.9509)" class="st7 st8 st9">709.49</text>
	</g>
	<g id="XMLID_321_">
		<text transform="matrix(1 0 0 1 97.5948 750.1355)" class="st7 st8 st9">490.401</text>
	</g>
	<g id="XMLID_322_">
		<text transform="matrix(1 0 0 1 2.8643 717.3943)" class="st7 st8 st9">328.49</text>
	</g>
	<g id="XMLID_323_">
		<text transform="matrix(1 0 0 1 121.4888 667.1052)" class="st7 st8 st9">537.048</text>
	</g>
	<g id="XMLID_324_">
		<text transform="matrix(1 0 0 1 76.3912 626.6912)" class="st7 st8 st9">408.568</text>
	</g>
	<g id="XMLID_335_">
		<text transform="matrix(1 0 0 1 -37.7919 630.3425)" class="st7 st8 st9">266.667</text>
	</g>
	<g id="XMLID_336_">
		<text transform="matrix(1 0 0 1 -2.5434 545.678)" class="st7 st8 st9">329.705</text>
	</g>
	<g id="XMLID_325_">
		<text transform="matrix(1 0 0 1 124.4097 586.1785)" class="st7 st8 st9">543.005</text>
	</g>
	<g id="XMLID_327_">
		<text transform="matrix(1 0 0 1 187.9307 579.5281)" class="st7 st8 st9">704.822</text>
	</g>
	<g id="XMLID_330_">
		<text transform="matrix(1 0 0 1 185.8931 598.9675)" class="st7 st8 st9">704.822</text>
	</g>
	<g id="XMLID_331_">
		<text transform="matrix(1 0 0 1 176.2564 646.5427)" class="st7 st8 st9">655</text>
	</g>
	<g id="XMLID_319_">
		<text transform="matrix(1 0 0 1 215.6241 686.0701)" class="st7 st8 st9">709.49</text>
	</g>
	<g id="XMLID_320_">
		<text transform="matrix(1 0 0 1 189.0264 686.0701)" class="st7 st8 st9">679.927 </text>
	</g>
</g>
</svg>
