<?xml version="1.0" encoding="utf-8"?>
<!-- Generator: Adobe Illustrator 19.0.0, SVG Export Plug-In . SVG Version: 6.00 Build 0)  -->
<svg version="1.1" id="construction" xmlns="http://www.w3.org/2000/svg" xmlns:xlink="http://www.w3.org/1999/xlink" x="0px"
	 y="0px" viewBox="0 0 1350 900" style="enable-background:new 0 0 1350 900;" xml:space="preserve">
<style type="text/css">
	.st0{fill:#36ACA7;}
	.st1{fill:none;}
	.st2{fill:none;stroke:#101010;stroke-miterlimit:10;}
	.st3{fill:none;stroke:#36ACA7;stroke-miterlimit:10;}
	.st4{fill:#FFFFFF;}
</style>
<g id="XMLID_11_">
	<g id="XMLID_1405_">
		<path id="XMLID_1415_" class="st0" d="M787.7-1054.8v-90.3h-46.1c-59.5,76.8-155.6,115.2-288.1,115.2
			c-107.6,0-192.1-30.7-255.4-92.2c-63.4-63.4-94.1-138.3-94.1-228.5c0-88.4,32.6-165.2,96-230.5s161.3-98,291.9-98H780v-28.8
			c0-113.3-67.2-178.6-205.5-178.6c-121,0-186.3,42.3-195.9,124.8H163.5c9.6-182.5,170.9-295.8,403.3-295.8
			c263.1,0,422.5,117.2,422.5,353.4v649.2L787.7-1054.8L787.7-1054.8z M705.1-1277.6c49.9-48,74.9-105.6,74.9-172.9v-74.9H530.3
			c-136.4,0-207.4,59.5-207.4,161.3c0,99.9,73,157.5,197.8,157.5C593.7-1206.5,655.2-1229.6,705.1-1277.6z"/>
		<path id="XMLID_1413_" class="st0" d="M1748-2032.4v201.7h-88.3c-197.8,0-305.4,113.3-305.4,318.8v457.1h-217v-977.6h209.3v113.3
			h46.1c55.7-74.9,147.9-113.3,272.7-113.3L1748-2032.4L1748-2032.4z"/>
		<path id="XMLID_1411_" class="st0" d="M2054.4-2032.4h230.5v184.4h-230.5v476.3c0,86.4,49.9,128.7,149.8,128.7h80.7v188.2h-84.5
			c-236.2,0-363-78.7-363-288.1v-936.7h217V-2032.4z"/>
		<path id="XMLID_1408_" class="st0" d="M3182.4-1171.9c-88.4,94.1-207.4,142.1-359.2,142.1c-151.7,0-270.8-48-361.1-142.1
			c-88.4-96-132.5-220.9-132.5-372.6s44.2-274.6,132.5-368.8c90.3-96,209.3-144,361.1-144c151.7,0,270.8,48,359.2,144
			c90.3,94.1,134.4,217,134.4,368.8S3272.6-1268,3182.4-1171.9z M2823.2-1873c-178.6,0-276.6,144-276.6,328.4
			c0,186.3,97.9,330.3,276.6,330.3c178.6,0,276.6-144,276.6-330.3C3099.8-1728.9,3001.8-1873,2823.2-1873z"/>
		<path id="XMLID_1406_" class="st0" d="M3974.6-1771.2c-11.5-71.1-74.9-105.6-192.1-105.6c-117.2,0-176.7,34.6-176.7,101.8
			c0,59.5,38.4,82.6,124.8,98l190.1,30.7c197.8,32.6,297.7,132.5,297.7,303.5c0,86.4-36.5,161.3-111.4,222.8
			c-73,59.5-174.8,90.3-307.3,90.3c-276.6,0-426.4-121-447.5-320.7h217c17.3,94.1,92.2,140.2,226.6,140.2
			c136.4,0,205.5-42.3,205.5-126.8c0-74.9-46.1-109.5-159.4-130.6l-203.6-34.6c-153.6-25-249.7-111.4-249.7-257.4
			c0-174.8,138.3-297.7,401.4-297.7c232.4,0,380.3,111.4,401.4,286.2L3974.6-1771.2L3974.6-1771.2z"/>
	</g>
	<line id="XMLID_1404_" class="st1" x1="134.7" y1="-1185.4" x2="269" y2="-1051.4"/>
	<g id="XMLID_1400_">
		<line id="XMLID_1403_" class="st2" x1="-175.6" y1="-2032.4" x2="4498.1" y2="-2032.4"/>
		<line id="XMLID_1402_" class="st2" x1="-175.6" y1="-2279.6" x2="4498.1" y2="-2279.6"/>
		<line id="XMLID_1401_" class="st2" x1="-175.6" y1="-1054.8" x2="4498.1" y2="-1054.8"/>
	</g>
	<g id="XMLID_1162_">
		<line id="XMLID_1399_" class="st2" x1="173.1" y1="-1934" x2="164.4" y2="-1778.5"/>
		<circle id="XMLID_1398_" class="st2" cx="163.4" cy="-1761.6" r="17"/>
		<circle id="XMLID_1397_" class="st2" cx="378.4" cy="-1761.6" r="17"/>
		<circle id="XMLID_1396_" class="st2" cx="574.9" cy="-1886.4" r="17"/>
		<circle id="XMLID_1395_" class="st2" cx="565.3" cy="-2057.3" r="17"/>
		<circle id="XMLID_1394_" class="st2" cx="989.3" cy="-1716.1" r="17"/>
		<circle id="XMLID_1393_" class="st2" cx="1137.2" cy="-1054.8" r="17"/>
		<circle id="XMLID_1392_" class="st2" cx="1354.3" cy="-1054.8" r="17"/>
		<circle id="XMLID_1391_" class="st2" cx="1837.4" cy="-1342.9" r="17"/>
		<circle id="XMLID_1390_" class="st2" cx="2193.6" cy="-1054.8" r="17"/>
		<circle id="XMLID_1389_" class="st2" cx="2284.9" cy="-1054.8" r="17"/>
		<circle id="XMLID_1388_" class="st2" cx="2284.9" cy="-1243" r="17"/>
		<circle id="XMLID_1387_" class="st2" cx="2204.3" cy="-1243" r="17"/>
		<circle id="XMLID_1386_" class="st2" cx="2054.4" cy="-1371.7" r="17"/>
		<circle id="XMLID_1385_" class="st2" cx="1354.3" cy="-1511.9" r="17"/>
		<circle id="XMLID_1384_" class="st2" cx="1659.6" cy="-1830.7" r="17"/>
		<circle id="XMLID_1383_" class="st2" cx="1748" cy="-1830.7" r="17"/>
		<circle id="XMLID_1382_" class="st2" cx="1748" cy="-2032.4" r="17"/>
		<circle id="XMLID_1381_" class="st2" cx="2055" cy="-2032.4" r="17"/>
		<circle id="XMLID_1380_" class="st2" cx="2055" cy="-1847.7" r="17"/>
		<circle id="XMLID_1379_" class="st2" cx="2284.9" cy="-1847.7" r="17"/>
		<circle id="XMLID_1378_" class="st2" cx="2284.9" cy="-2032.4" r="17"/>
		<circle id="XMLID_1377_" class="st2" cx="2055" cy="-2279.6" r="17"/>
		<circle id="XMLID_1376_" class="st2" cx="1837.4" cy="-2279.6" r="17"/>
		<circle id="XMLID_1375_" class="st2" cx="1672" cy="-2032.4" r="17"/>
		<circle id="XMLID_1374_" class="st2" cx="1393.4" cy="-1919.1" r="17"/>
		<circle id="XMLID_1373_" class="st2" cx="1347.3" cy="-1919.1" r="17"/>
		<circle id="XMLID_1372_" class="st2" cx="1347.3" cy="-2032.4" r="17"/>
		<circle id="XMLID_1371_" class="st2" cx="1137.2" cy="-2032.4" r="17"/>
		<circle id="XMLID_1370_" class="st2" cx="780" cy="-1679" r="17"/>
		<circle id="XMLID_1369_" class="st2" cx="780" cy="-1525.3" r="17"/>
		<circle id="XMLID_1368_" class="st2" cx="780" cy="-1448.7" r="17"/>
		<circle id="XMLID_1367_" class="st2" cx="530.3" cy="-1525.3" r="17"/>
		<circle id="XMLID_1366_" class="st2" cx="201.2" cy="-1584.8" r="17"/>
		<circle id="XMLID_1365_" class="st2" cx="491.9" cy="-1679" r="17"/>
		<circle id="XMLID_1364_" class="st2" cx="322.9" cy="-1364.9" r="17"/>
		<circle id="XMLID_1363_" class="st2" cx="104" cy="-1350.7" r="17"/>
		<circle id="XMLID_1362_" class="st2" cx="199.3" cy="-1120.9" r="17"/>
		<circle id="XMLID_1361_" class="st2" cx="449.2" cy="-1029.8" r="17"/>
		<circle id="XMLID_1360_" class="st2" cx="521.1" cy="-1206.5" r="17"/>
		<circle id="XMLID_1359_" class="st2" cx="703.1" cy="-1275.5" r="17"/>
		<circle id="XMLID_1358_" class="st2" cx="741.6" cy="-1145.1" r="20.1"/>
		<circle id="XMLID_1357_" class="st2" cx="787.2" cy="-1145.1" r="20.1"/>
		<circle id="XMLID_1356_" class="st2" cx="787.2" cy="-1054.8" r="17"/>
		<circle id="XMLID_1355_" class="st2" cx="989.3" cy="-1054.8" r="17"/>
		<circle id="XMLID_1354_" class="st2" cx="173.1" cy="-1944" r="10"/>
		<circle id="XMLID_1353_" class="st2" cx="388.4" cy="-1851" r="10"/>
		<circle id="XMLID_1352_" class="st2" cx="361.3" cy="-1679" r="10"/>
		<circle id="XMLID_1351_" class="st2" cx="265.7" cy="-1651.6" r="10"/>
		<circle id="XMLID_1350_" class="st2" cx="136.6" cy="-1515.7" r="10"/>
		<circle id="XMLID_1349_" class="st2" cx="388.4" cy="-1525.3" r="10"/>
		<circle id="XMLID_1348_" class="st2" cx="322.9" cy="-1469.6" r="10"/>
		<circle id="XMLID_1347_" class="st2" cx="104" cy="-1441" r="10"/>
		<circle id="XMLID_1346_" class="st2" cx="104" cy="-1260.2" r="10"/>
		<circle id="XMLID_1345_" class="st2" cx="322.9" cy="-1260.3" r="10"/>
		<circle id="XMLID_1344_" class="st2" cx="395.9" cy="-1206.5" r="10"/>
		<circle id="XMLID_1343_" class="st2" cx="134.7" cy="-1185.4" r="10"/>
		<circle id="XMLID_1342_" class="st2" cx="261.6" cy="-1058.9" r="10"/>
		<circle id="XMLID_1341_" class="st2" cx="346" cy="-1029.8" r="10"/>
		<circle id="XMLID_1340_" class="st2" cx="608" cy="-1029.8" r="10"/>
		<circle id="XMLID_1339_" class="st2" cx="683.1" cy="-1065.8" r="10"/>
		<circle id="XMLID_1338_" class="st2" cx="594.1" cy="-1206.5" r="10"/>
		<circle id="XMLID_1337_" class="st2" cx="655.2" cy="-1228.5" r="10"/>
		<circle id="XMLID_1336_" class="st2" cx="759.9" cy="-1331.7" r="10"/>
		<circle id="XMLID_1335_" class="st2" cx="780" cy="-1383.2" r="10"/>
		<circle id="XMLID_1334_" class="st2" cx="453.5" cy="-1886.4" r="10"/>
		<circle id="XMLID_1333_" class="st2" cx="703.9" cy="-1886.4" r="10"/>
		<circle id="XMLID_1332_" class="st2" cx="828.7" cy="-2057.3" r="10"/>
		<circle id="XMLID_1331_" class="st2" cx="1540.5" cy="-2032.4" r="10"/>
		<circle id="XMLID_1330_" class="st2" cx="1450.7" cy="-1996.5" r="10"/>
		<circle id="XMLID_1329_" class="st2" cx="1460.7" cy="-1830.7" r="10"/>
		<circle id="XMLID_1328_" class="st2" cx="1960.3" cy="-1054.8" r="10"/>
		<circle id="XMLID_1327_" class="st2" cx="1837.4" cy="-1138.3" r="10"/>
		<circle id="XMLID_1326_" class="st2" cx="2054.4" cy="-1278.2" r="10"/>
		<circle id="XMLID_1325_" class="st2" cx="2096.9" cy="-1243" r="10"/>
		<circle id="XMLID_1324_" class="st2" cx="1354.3" cy="-1717.2" r="10"/>
		<circle id="XMLID_1323_" class="st2" cx="328.7" cy="-2057.3" r="10"/>
		<circle id="XMLID_1322_" class="st2" cx="780" cy="-1821.4" r="10"/>
		<circle id="XMLID_1321_" class="st2" cx="989.3" cy="-1940.2" r="10"/>
		<line id="XMLID_1320_" class="st2" x1="387.4" y1="-1841" x2="380.5" y2="-1778.5"/>
		<line id="XMLID_1319_" class="st2" x1="463.5" y1="-1886.4" x2="557.9" y2="-1886.4"/>
		<line id="XMLID_1318_" class="st2" x1="591.9" y1="-1886.4" x2="693.9" y2="-1886.4"/>
		<line id="XMLID_1317_" class="st2" x1="780" y1="-1696" x2="780" y2="-1811.3"/>
		<line id="XMLID_1316_" class="st2" x1="338.7" y1="-2057.3" x2="548.4" y2="-2057.3"/>
		<line id="XMLID_1315_" class="st2" x1="582.3" y1="-2057.3" x2="818.6" y2="-2057.3"/>
		<line id="XMLID_1314_" class="st2" x1="989.3" y1="-1930.2" x2="989.3" y2="-1733"/>
		<line id="XMLID_1313_" class="st2" x1="689" y1="-1073.9" x2="729.4" y2="-1128.6"/>
		<line id="XMLID_1312_" class="st2" x1="356" y1="-1029.8" x2="432.2" y2="-1029.8"/>
		<line id="XMLID_1311_" class="st2" x1="466.1" y1="-1029.8" x2="598" y2="-1029.8"/>
		<line id="XMLID_1310_" class="st2" x1="213.4" y1="-1596.6" x2="258.8" y2="-1644.4"/>
		<line id="XMLID_1309_" class="st2" x1="143.9" y1="-1523.4" x2="190" y2="-1572"/>
		<line id="XMLID_1308_" class="st2" x1="104" y1="-1367.3" x2="104" y2="-1431"/>
		<line id="XMLID_1307_" class="st2" x1="104" y1="-1270" x2="104" y2="-1333.7"/>
		<line id="XMLID_1306_" class="st2" x1="371.3" y1="-1679" x2="474.9" y2="-1679"/>
		<line id="XMLID_1305_" class="st2" x1="398.4" y1="-1525.3" x2="513.4" y2="-1525.3"/>
		<line id="XMLID_1304_" class="st2" x1="322.9" y1="-1459.5" x2="322.9" y2="-1381.9"/>
		<line id="XMLID_1303_" class="st2" x1="322.9" y1="-1347.9" x2="322.9" y2="-1270.3"/>
		<line id="XMLID_1302_" class="st2" x1="405.9" y1="-1206.5" x2="504.2" y2="-1206.5"/>
		<line id="XMLID_1301_" class="st2" x1="537.3" y1="-1206.5" x2="584.1" y2="-1206.5"/>
		<line id="XMLID_1300_" class="st2" x1="780" y1="-1393.2" x2="780" y2="-1431.9"/>
		<line id="XMLID_1299_" class="st2" x1="1444.4" y1="-1988.7" x2="1402.7" y2="-1933"/>
		<line id="XMLID_1298_" class="st2" x1="1471.7" y1="-1830.7" x2="1642.7" y2="-1830.7"/>
		<line id="XMLID_1297_" class="st2" x1="1354.3" y1="-1528.9" x2="1354.3" y2="-1707.2"/>
		<line id="XMLID_1296_" class="st2" x1="2054.4" y1="-1355" x2="2054.4" y2="-1288.3"/>
		<line id="XMLID_1295_" class="st2" x1="2187.3" y1="-1243" x2="2107" y2="-1243"/>
		<line id="XMLID_1294_" class="st2" x1="2176.6" y1="-1054.8" x2="1970.4" y2="-1054.8"/>
		<line id="XMLID_1293_" class="st2" x1="1837.4" y1="-1326.1" x2="1837.4" y2="-1148.1"/>
		<line id="XMLID_1292_" class="st2" x1="662.3" y1="-1235.5" x2="690" y2="-1262.8"/>
		<line id="XMLID_1291_" class="st2" x1="715.4" y1="-1287.8" x2="752.8" y2="-1324.6"/>
		<line id="XMLID_1290_" class="st2" x1="211" y1="-1108.6" x2="254.2" y2="-1066.2"/>
		<line id="XMLID_1289_" class="st2" x1="141.8" y1="-1178.3" x2="187" y2="-1133.3"/>
		<circle id="XMLID_1288_" class="st2" cx="2823.2" cy="-1214.2" r="17"/>
		<circle id="XMLID_1287_" class="st2" cx="2823.2" cy="-1029.8" r="17"/>
		<circle id="XMLID_1286_" class="st2" cx="2823.2" cy="-2057.3" r="17"/>
		<circle id="XMLID_1285_" class="st2" cx="2823.2" cy="-1873" r="17"/>
		<circle id="XMLID_1284_" class="st2" cx="2360.9" cy="-1278.2" r="10"/>
		<circle id="XMLID_1283_" class="st2" cx="2556.1" cy="-1076.9" r="10"/>
		<circle id="XMLID_1282_" class="st2" cx="2663" cy="-1029.8" r="10"/>
		<circle id="XMLID_1281_" class="st2" cx="2635.7" cy="-1214.2" r="10"/>
		<circle id="XMLID_1280_" class="st2" cx="2546.1" cy="-1352.3" r="10"/>
		<circle id="XMLID_1279_" class="st2" cx="2329.6" cy="-1389.8" r="10"/>
		<circle id="XMLID_1278_" class="st2" cx="2546.6" cy="-1734.9" r="10"/>
		<circle id="XMLID_1277_" class="st2" cx="2329.6" cy="-1697.4" r="10"/>
		<circle id="XMLID_1276_" class="st2" cx="2359.2" cy="-1806.4" r="10"/>
		<circle id="XMLID_1275_" class="st2" cx="2554.5" cy="-2007.8" r="10"/>
		<circle id="XMLID_1274_" class="st2" cx="2635.7" cy="-1873" r="10"/>
		<circle id="XMLID_1273_" class="st2" cx="2663" cy="-2057.3" r="10"/>
		<line id="XMLID_1272_" class="st2" x1="2645.7" y1="-1873" x2="2806.2" y2="-1873"/>
		<line id="XMLID_1271_" class="st2" x1="2645.7" y1="-1214.2" x2="2806.2" y2="-1214.2"/>
		<line id="XMLID_1270_" class="st2" x1="2673" y1="-2057.3" x2="2806.2" y2="-2057.3"/>
		<line id="XMLID_1269_" class="st2" x1="2673" y1="-1029.8" x2="2806.2" y2="-1029.8"/>
		<line id="XMLID_1268_" class="st2" x1="2329.6" y1="-1687.4" x2="2329.6" y2="-1560.6"/>
		<line id="XMLID_1267_" class="st2" x1="2329.6" y1="-1526.6" x2="2329.6" y2="-1399.8"/>
		<line id="XMLID_1266_" class="st2" x1="2546.6" y1="-1724.8" x2="2546.6" y2="-1560.2"/>
		<line id="XMLID_1265_" class="st2" x1="2546.6" y1="-1526.6" x2="2546.6" y2="-1362"/>
		<circle id="XMLID_1264_" class="st2" cx="2546.6" cy="-1543.6" r="17"/>
		<circle id="XMLID_1263_" class="st2" cx="2329.6" cy="-1543.6" r="17"/>
		<circle id="XMLID_1262_" class="st2" cx="2463.7" cy="-1171" r="17"/>
		<circle id="XMLID_1261_" class="st2" cx="2461.2" cy="-1910.6" r="17"/>
		<line id="XMLID_1260_" class="st2" x1="2546.6" y1="-1999.7" x2="2472.5" y2="-1923.3"/>
		<line id="XMLID_1259_" class="st2" x1="2449.1" y1="-1898.8" x2="2366.2" y2="-1813.6"/>
		<line id="XMLID_1258_" class="st2" x1="2367.4" y1="-1270.6" x2="2452.5" y2="-1183.8"/>
		<line id="XMLID_1257_" class="st2" x1="2476.1" y1="-1159.4" x2="2549.1" y2="-1084.1"/>
		<circle id="XMLID_1256_" class="st2" cx="3285.5" cy="-1278.2" r="10"/>
		<circle id="XMLID_1255_" class="st2" cx="3090.3" cy="-1076.9" r="10"/>
		<circle id="XMLID_1254_" class="st2" cx="2983.5" cy="-1029.8" r="10"/>
		<circle id="XMLID_1253_" class="st2" cx="3010.7" cy="-1214.2" r="10"/>
		<circle id="XMLID_1252_" class="st2" cx="3100.3" cy="-1352.3" r="10"/>
		<circle id="XMLID_1251_" class="st2" cx="3316.8" cy="-1389.8" r="10"/>
		<circle id="XMLID_1250_" class="st2" cx="3099.8" cy="-1734.9" r="10"/>
		<circle id="XMLID_1249_" class="st2" cx="3316.8" cy="-1697.4" r="10"/>
		<circle id="XMLID_1248_" class="st2" cx="3287.2" cy="-1806.4" r="10"/>
		<circle id="XMLID_1247_" class="st2" cx="3092" cy="-2007.8" r="10"/>
		<circle id="XMLID_1246_" class="st2" cx="3010.7" cy="-1873" r="10"/>
		<circle id="XMLID_1245_" class="st2" cx="2983.5" cy="-2057.3" r="10"/>
		<line id="XMLID_1244_" class="st2" x1="3000.7" y1="-1873" x2="2840.2" y2="-1873"/>
		<line id="XMLID_1243_" class="st2" x1="3000.7" y1="-1214.2" x2="2840.2" y2="-1214.2"/>
		<line id="XMLID_1242_" class="st2" x1="2973.4" y1="-2057.3" x2="2840.2" y2="-2057.3"/>
		<line id="XMLID_1241_" class="st2" x1="2973.4" y1="-1029.8" x2="2840.2" y2="-1029.8"/>
		<line id="XMLID_1240_" class="st2" x1="3316.8" y1="-1687.4" x2="3316.8" y2="-1560.6"/>
		<line id="XMLID_1239_" class="st2" x1="3316.8" y1="-1526.6" x2="3316.8" y2="-1399.8"/>
		<line id="XMLID_1238_" class="st2" x1="3099.8" y1="-1724.8" x2="3099.8" y2="-1560.2"/>
		<line id="XMLID_1237_" class="st2" x1="3099.8" y1="-1526.6" x2="3099.8" y2="-1362"/>
		<circle id="XMLID_1236_" class="st2" cx="3099.8" cy="-1543.6" r="17"/>
		<circle id="XMLID_1235_" class="st2" cx="3316.8" cy="-1543.6" r="17"/>
		<circle id="XMLID_1234_" class="st2" cx="3182.7" cy="-1171" r="17"/>
		<circle id="XMLID_1233_" class="st2" cx="3185.2" cy="-1910.6" r="17"/>
		<line id="XMLID_1232_" class="st2" x1="3099.8" y1="-1999.7" x2="3173.9" y2="-1923.3"/>
		<line id="XMLID_1231_" class="st2" x1="3197.4" y1="-1898.8" x2="3280.2" y2="-1813.6"/>
		<line id="XMLID_1230_" class="st2" x1="3279" y1="-1270.6" x2="3193.9" y2="-1183.8"/>
		<line id="XMLID_1229_" class="st2" x1="3170.3" y1="-1159.4" x2="3097.3" y2="-1084.1"/>
		<line id="XMLID_1228_" class="st2" x1="3371.9" y1="-1160.8" x2="3354.4" y2="-1333.6"/>
		<line id="XMLID_1227_" class="st2" x1="3584.8" y1="-1266.3" x2="3572.4" y2="-1333.6"/>
		<line id="XMLID_1226_" class="st2" x1="3802.1" y1="-1029.8" x2="3929.7" y2="-1029.8"/>
		<line id="XMLID_1225_" class="st2" x1="3531.6" y1="-1029.8" x2="3768.4" y2="-1029.8"/>
		<line id="XMLID_1224_" class="st2" x1="3810.1" y1="-1210.4" x2="3929.7" y2="-1210.4"/>
		<line id="XMLID_1223_" class="st2" x1="3671.5" y1="-1210.4" x2="3777.7" y2="-1210.4"/>
		<line id="XMLID_1222_" class="st2" x1="4218.5" y1="-1363.8" x2="4218.5" y2="-1505.8"/>
		<line id="XMLID_1221_" class="st2" x1="4218.5" y1="-1266.5" x2="4218.5" y2="-1330.4"/>
		<line id="XMLID_1220_" class="st2" x1="4001.5" y1="-1402" x2="4001.5" y2="-1347.6"/>
		<line id="XMLID_1219_" class="st2" x1="4001.5" y1="-1313.7" x2="4001.5" y2="-1257.9"/>
		<line id="XMLID_1218_" class="st2" x1="3945.5" y1="-1448.3" x2="3497" y2="-1528"/>
		<line id="XMLID_1217_" class="st2" x1="3388.4" y1="-1925.2" x2="3388.4" y2="-1776.9"/>
		<line id="XMLID_1216_" class="st2" x1="3388.4" y1="-1743" x2="3388.4" y2="-1607.7"/>
		<line id="XMLID_1215_" class="st2" x1="4108.6" y1="-1615.3" x2="3655.5" y2="-1690.3"/>
		<line id="XMLID_1214_" class="st2" x1="3605.8" y1="-1832.4" x2="3605.8" y2="-1792.3"/>
		<line id="XMLID_1213_" class="st2" x1="3605.8" y1="-1757.8" x2="3605.8" y2="-1721.8"/>
		<line id="XMLID_1212_" class="st2" x1="3800.6" y1="-1876.8" x2="3891.1" y2="-1876.8"/>
		<line id="XMLID_1211_" class="st2" x1="3676.4" y1="-1876.8" x2="3766.9" y2="-1876.8"/>
		<line id="XMLID_1210_" class="st2" x1="3964.6" y1="-1832.3" x2="3972.7" y2="-1788"/>
		<line id="XMLID_1209_" class="st2" x1="4022.6" y1="-2057.3" x2="3522.6" y2="-2057.3"/>
		<circle id="XMLID_1208_" class="st2" cx="3352.3" cy="-1350.6" r="17"/>
		<circle id="XMLID_1207_" class="st2" cx="3569.3" cy="-1350.6" r="17"/>
		<circle id="XMLID_1206_" class="st2" cx="3794.7" cy="-1210.4" r="17"/>
		<circle id="XMLID_1205_" class="st2" cx="3785.4" cy="-1029.8" r="17"/>
		<circle id="XMLID_1204_" class="st2" cx="4218.5" cy="-1347.3" r="17"/>
		<circle id="XMLID_1203_" class="st2" cx="4001.5" cy="-1330.6" r="17"/>
		<circle id="XMLID_1202_" class="st2" cx="3841.2" cy="-1466.7" r="17"/>
		<circle id="XMLID_1201_" class="st2" cx="3636.9" cy="-1503.6" r="17"/>
		<circle id="XMLID_1200_" class="st2" cx="3728.8" cy="-1677.7" r="17"/>
		<circle id="XMLID_1199_" class="st2" cx="3605.8" cy="-1774.8" r="17"/>
		<circle id="XMLID_1198_" class="st2" cx="3783.6" cy="-1876.8" r="17"/>
		<circle id="XMLID_1197_" class="st2" cx="3974.6" cy="-1771.2" r="17"/>
		<circle id="XMLID_1196_" class="st2" cx="4191.6" cy="-1771.2" r="17"/>
		<circle id="XMLID_1195_" class="st2" cx="3789.6" cy="-2057.3" r="17"/>
		<circle id="XMLID_1194_" class="st2" cx="3388.4" cy="-1760" r="17"/>
		<circle id="XMLID_1193_" class="st2" cx="3915.1" cy="-1647.1" r="17"/>
		<circle id="XMLID_1192_" class="st2" cx="3373.4" cy="-1150.8" r="10"/>
		<circle id="XMLID_1191_" class="st2" cx="3586.6" cy="-1256.5" r="10"/>
		<circle id="XMLID_1190_" class="st2" cx="3661.5" cy="-1210.4" r="10"/>
		<circle id="XMLID_1189_" class="st2" cx="3523.2" cy="-1029.8" r="10"/>
		<circle id="XMLID_1188_" class="st2" cx="3939.7" cy="-1029.8" r="10"/>
		<circle id="XMLID_1187_" class="st2" cx="4218.5" cy="-1256.5" r="10"/>
		<circle id="XMLID_1186_" class="st2" cx="4218.5" cy="-1515.8" r="10"/>
		<circle id="XMLID_1185_" class="st2" cx="4118.6" cy="-1613.7" r="10"/>
		<circle id="XMLID_1184_" class="st2" cx="3939.7" cy="-1210.4" r="10"/>
		<circle id="XMLID_1183_" class="st2" cx="4001.5" cy="-1247.9" r="10"/>
		<circle id="XMLID_1182_" class="st2" cx="4001.5" cy="-1412" r="10"/>
		<circle id="XMLID_1181_" class="st2" cx="3955.4" cy="-1446.6" r="10"/>
		<circle id="XMLID_1180_" class="st2" cx="3487.1" cy="-1529.7" r="10"/>
		<circle id="XMLID_1179_" class="st2" cx="3388.4" cy="-1599.7" r="10"/>
		<circle id="XMLID_1178_" class="st2" cx="3645.6" cy="-1692" r="10"/>
		<circle id="XMLID_1177_" class="st2" cx="3605.8" cy="-1711.8" r="10"/>
		<circle id="XMLID_1176_" class="st2" cx="3605.8" cy="-1842.2" r="10"/>
		<circle id="XMLID_1175_" class="st2" cx="3388.4" cy="-1936.6" r="10"/>
		<circle id="XMLID_1174_" class="st2" cx="3665.3" cy="-1876.8" r="10"/>
		<circle id="XMLID_1173_" class="st2" cx="3901.1" cy="-1876.8" r="10"/>
		<circle id="XMLID_1172_" class="st2" cx="4022.6" cy="-2057.3" r="10"/>
		<circle id="XMLID_1171_" class="st2" cx="4171.7" cy="-1948.4" r="10"/>
		<circle id="XMLID_1170_" class="st2" cx="3963" cy="-1842.2" r="10"/>
		<circle id="XMLID_1169_" class="st2" cx="3522.6" cy="-2057.3" r="10"/>
		<line id="XMLID_1168_" class="st2" x1="4172.8" y1="-1938.4" x2="4189.7" y2="-1788"/>
		<circle id="XMLID_1167_" class="st2" cx="4105.2" cy="-1116.9" r="17"/>
		<circle id="XMLID_1166_" class="st2" cx="4034.1" cy="-1060.6" r="10"/>
		<circle id="XMLID_1165_" class="st2" cx="4187.1" cy="-1183.8" r="10"/>
		<line id="XMLID_1164_" class="st2" x1="4118.1" y1="-1127.9" x2="4179.3" y2="-1177.5"/>
		<line id="XMLID_1163_" class="st2" x1="4042.1" y1="-1066.6" x2="4091.2" y2="-1107.2"/>
	</g>
	<g id="XMLID_14_">
		<g id="XMLID_1159_">
			
				<text id="XMLID_650_" transform="matrix(1 0 0 1 530.7134 -2085.1953)" style="fill:#101010; font-family:'Formular'; font-size:16.9724px;">565.695</text>
		</g>
		<g id="XMLID_1156_">
			
				<text id="XMLID_648_" transform="matrix(1 0 0 1 137.3037 -1716.4312)" style="fill:#101010; font-family:'Formular'; font-size:16.9724px;">305.22</text>
		</g>
		<g id="XMLID_1146_">
			
				<text id="XMLID_646_" transform="matrix(1 0 0 1 377.0117 -1721.8325)" style="fill:#101010; font-family:'Formular'; font-size:16.9724px;">444.551 </text>
		</g>
		<g id="XMLID_1143_">
			
				<text id="XMLID_644_" transform="matrix(1 0 0 1 493.8105 -1708.7158)" style="fill:#101010; font-family:'Formular'; font-size:16.9724px;">518.106</text>
		</g>
		<g id="XMLID_1023_">
			
				<text id="XMLID_642_" transform="matrix(1 0 0 1 693.9258 -1701.7729)" style="fill:#101010; font-family:'Formular'; font-size:16.9724px;">704.822</text>
		</g>
		<g id="XMLID_1020_">
			
				<text id="XMLID_640_" transform="matrix(1 0 0 1 543.52 -1913.1553)" style="fill:#101010; font-family:'Formular'; font-size:16.9724px;">571.883</text>
		</g>
		<g id="XMLID_1017_">
			
				<text id="XMLID_635_" transform="matrix(1 0 0 1 287.1538 -1696.8877)" style="fill:#101010; font-family:'Formular'; font-size:16.9724px;">433.466</text>
		</g>
		<g id="XMLID_1014_">
			
				<text id="XMLID_286_" transform="matrix(1 0 0 1 1019.6138 -1708.7158)" style="fill:#101010; font-family:'Formular'; font-size:16.9724px;">840.5 </text>
		</g>
		<g id="XMLID_1011_">
			
				<text id="XMLID_258_" transform="matrix(1 0 0 1 1104.936 -2067.3687)" style="fill:#101010; font-family:'Formular'; font-size:16.9724px;">936.344</text>
		</g>
		<g id="XMLID_1008_">
			
				<text id="XMLID_256_" transform="matrix(1 0 0 1 1311.3203 -2067.3687)" style="fill:#101010; font-family:'Formular'; font-size:16.9724px;">1072.501</text>
		</g>
		<g id="XMLID_1005_">
			
				<text id="XMLID_254_" transform="matrix(1 0 0 1 1258.085 -1940.1841)" style="fill:#101010; font-family:'Formular'; font-size:16.9724px;">1072.501</text>
		</g>
		<g id="XMLID_1002_">
			
				<text id="XMLID_252_" transform="matrix(1 0 0 1 1387.5908 -1508.3618)" style="fill:#101010; font-family:'Formular'; font-size:16.9724px;">1077.001</text>
		</g>
		<g id="XMLID_999_">
			
				<text id="XMLID_250_" transform="matrix(1 0 0 1 1318.3018 -1009.7603)" style="fill:#101010; font-family:'Formular'; font-size:16.9724px;">1077.001</text>
		</g>
		<g id="XMLID_996_">
			
				<text id="XMLID_248_" transform="matrix(1 0 0 1 1104.936 -1009.7603)" style="fill:#101010; font-family:'Formular'; font-size:16.9724px;">936.344</text>
		</g>
		<g id="XMLID_993_">
			
				<text id="XMLID_246_" transform="matrix(1 0 0 1 1421.5996 -1911.6138)" style="fill:#101010; font-family:'Formular'; font-size:16.9724px;">1102.368</text>
		</g>
		<g id="XMLID_990_">
			
				<text id="XMLID_244_" transform="matrix(1 0 0 1 1625.2798 -2067.3677)" style="fill:#101010; font-family:'Formular'; font-size:16.9724px;">1282.918</text>
		</g>
		<g id="XMLID_987_">
			
				<text id="XMLID_242_" transform="matrix(1 0 0 1 1723.7397 -2067.3687)" style="fill:#101010; font-family:'Formular'; font-size:16.9724px;">1332.175</text>
		</g>
		<g id="XMLID_984_">
			
				<text id="XMLID_240_" transform="matrix(1 0 0 1 1801.376 -2314.2388)" style="fill:#101010; font-family:'Formular'; font-size:16.9724px;">1390.142</text>
		</g>
		<g id="XMLID_981_">
			
				<text id="XMLID_238_" transform="matrix(1 0 0 1 1731.9443 -1339.8696)" style="fill:#101010; font-family:'Formular'; font-size:16.9724px;">1390.142</text>
		</g>
		<g id="XMLID_978_">
			
				<text id="XMLID_236_" transform="matrix(1 0 0 1 2019.834 -2314.2388)" style="fill:#101010; font-family:'Formular'; font-size:16.9724px;">1531.145</text>
		</g>
		<g id="XMLID_975_">
			
				<text id="XMLID_234_" transform="matrix(1 0 0 1 2073.0645 -2057.3398)" style="fill:#101010; font-family:'Formular'; font-size:16.9724px;">1531.145</text>
		</g>
		<g id="XMLID_972_">
			
				<text id="XMLID_232_" transform="matrix(1 0 0 1 2078.4697 -1816.4644)" style="fill:#101010; font-family:'Formular'; font-size:16.9724px;">1531.145</text>
		</g>
		<g id="XMLID_969_">
			
				<text id="XMLID_230_" transform="matrix(1 0 0 1 2085.4102 -1365.9238)" style="fill:#101010; font-family:'Formular'; font-size:16.9724px;">1531.145</text>
		</g>
		<g id="XMLID_966_">
			
				<text id="XMLID_228_" transform="matrix(1 0 0 1 2303.8877 -1868.9268)" style="fill:#101010; font-family:'Formular'; font-size:16.9724px;">1680.173</text>
		</g>
		<g id="XMLID_963_">
			
				<text id="XMLID_226_" transform="matrix(1 0 0 1 2363.8018 -1923.2778)" style="fill:#101010; font-family:'Formular'; font-size:16.9724px;">1794.454</text>
		</g>
		<g id="XMLID_960_">
			
				<text id="XMLID_207_" transform="matrix(1 0 0 1 2785.6338 -2090.687)" style="fill:#101010; font-family:'Formular'; font-size:16.9724px;">2029.036</text>
		</g>
		<g id="XMLID_957_">
			
				<text id="XMLID_205_" transform="matrix(1 0 0 1 2785.6338 -1830.7124)" style="fill:#101010; font-family:'Formular'; font-size:16.9724px;">2029.036</text>
		</g>
		<g id="XMLID_954_">
			
				<text id="XMLID_175_" transform="matrix(1 0 0 1 3215.3037 -1919.4307)" style="fill:#101010; font-family:'Formular'; font-size:16.9724px;">2263.631</text>
		</g>
		<g id="XMLID_951_">
			
				<text id="XMLID_173_" transform="matrix(1 0 0 1 3345.8281 -1539.7646)" style="fill:#101010; font-family:'Formular'; font-size:16.9724px;">2348.951</text>
		</g>
		<g id="XMLID_948_">
			
				<text id="XMLID_171_" transform="matrix(1 0 0 1 3297.5938 -1754.2329)" style="fill:#101010; font-family:'Formular'; font-size:16.9724px;">2395.33</text>
		</g>
		<g id="XMLID_945_">
			
				<text id="XMLID_169_" transform="matrix(1 0 0 1 3752.7852 -2090.686)" style="fill:#101010; font-family:'Formular'; font-size:16.9724px;">2655.357</text>
		</g>
		<g id="XMLID_942_">
			
				<text id="XMLID_167_" transform="matrix(1 0 0 1 3635.0801 -1769.7134)" style="fill:#101010; font-family:'Formular'; font-size:16.9724px;">2536.258</text>
		</g>
		<g id="XMLID_939_">
			
				<text id="XMLID_165_" transform="matrix(1 0 0 1 3692.3008 -1708.7158)" style="fill:#101010; font-family:'Formular'; font-size:16.9724px;">2615.962</text>
		</g>
		<g id="XMLID_936_">
			
				<text id="XMLID_163_" transform="matrix(1 0 0 1 3749.3818 -1832.4126)" style="fill:#101010; font-family:'Formular'; font-size:16.9724px;">2651.514</text>
		</g>
		<g id="XMLID_933_">
			
				<text id="XMLID_161_" transform="matrix(1 0 0 1 3878.9209 -1681.938)" style="fill:#101010; font-family:'Formular'; font-size:16.9724px;">2736.681</text>
		</g>
		<g id="XMLID_930_">
			
				<text id="XMLID_159_" transform="matrix(1 0 0 1 3938.8252 -1724.834)" style="fill:#101010; font-family:'Formular'; font-size:16.9724px;">2775.251</text>
		</g>
		<g id="XMLID_927_">
			
				<text id="XMLID_157_" transform="matrix(1 0 0 1 4156.2588 -1724.834)" style="fill:#101010; font-family:'Formular'; font-size:16.9724px;">2915.905</text>
		</g>
		<g id="XMLID_924_">
			
				<text id="XMLID_141_" transform="matrix(1 0 0 1 3599.6133 -1456.6221)" style="fill:#101010; font-family:'Formular'; font-size:16.9724px;">2556.435</text>
		</g>
		<g id="XMLID_921_">
			
				<text id="XMLID_139_" transform="matrix(1 0 0 1 3532.5547 -1382.5591)" style="fill:#101010; font-family:'Formular'; font-size:16.9724px;">2512.606</text>
		</g>
		<g id="XMLID_918_">
			
				<text id="XMLID_110_" transform="matrix(1 0 0 1 3358.8242 -1379.7466)" style="fill:#101010; font-family:'Formular'; font-size:16.9724px;">2371.946</text>
		</g>
		<g id="XMLID_915_">
			
				<text id="XMLID_108_" transform="matrix(1 0 0 1 3753.0146 -985.0728)" style="fill:#101010; font-family:'Formular'; font-size:16.9724px;">2652.64</text>
		</g>
		<g id="XMLID_912_">
			
				<text id="XMLID_106_" transform="matrix(1 0 0 1 4129.0781 -1083.8213)" style="fill:#101010; font-family:'Formular'; font-size:16.9724px;">2859.912</text>
		</g>
		<g id="XMLID_909_">
			
				<text id="XMLID_104_" transform="matrix(1 0 0 1 4248.2227 -1343.0352)" style="fill:#101010; font-family:'Formular'; font-size:16.9724px;">2933.333</text>
		</g>
		<g id="XMLID_906_">
			
				<text id="XMLID_102_" transform="matrix(1 0 0 1 3803.8525 -1418.9619)" style="fill:#101010; font-family:'Formular'; font-size:16.9724px;">2688.833</text>
		</g>
		<g id="XMLID_903_">
			
				<text id="XMLID_100_" transform="matrix(1 0 0 1 3904.6875 -1324.8418)" style="fill:#101010; font-family:'Formular'; font-size:16.9724px;">2792.68</text>
		</g>
		<g id="XMLID_900_">
			
				<text id="XMLID_98_" transform="matrix(1 0 0 1 3757.8164 -1241.5234)" style="fill:#101010; font-family:'Formular'; font-size:16.9724px;">2658.681</text>
		</g>
		<g id="XMLID_895_">
			
				<text id="XMLID_96_" transform="matrix(1 0 0 1 2785.626 -1249.0195)" style="fill:#101010; font-family:'Formular'; font-size:16.9724px;">2029.036</text>
		</g>
		<g id="XMLID_891_">
			
				<text id="XMLID_94_" transform="matrix(1 0 0 1 2785.626 -985.0728)" style="fill:#101010; font-family:'Formular'; font-size:16.9724px;">2029.036</text>
		</g>
		<g id="XMLID_886_">
			
				<text id="XMLID_92_" transform="matrix(1 0 0 1 2381.2183 -1132.4229)" style="fill:#101010; font-family:'Formular'; font-size:16.9724px;">1796.057</text>
		</g>
		<g id="XMLID_882_">
			
				<text id="XMLID_90_" transform="matrix(1 0 0 1 2227.354 -1538.9902)" style="fill:#101010; font-family:'Formular'; font-size:16.9724px;">1709.134</text>
		</g>
		<g id="XMLID_877_">
			
				<text id="XMLID_88_" transform="matrix(1 0 0 1 2577.376 -1538.9902)" style="fill:#101010; font-family:'Formular'; font-size:16.9724px;">1849.794</text>
		</g>
		<g id="XMLID_873_">
			
				<text id="XMLID_86_" transform="matrix(1 0 0 1 3000.5117 -1538.9902)" style="fill:#101010; font-family:'Formular'; font-size:16.9724px;">2208.29</text>
		</g>
		<g id="XMLID_868_">
			
				<text id="XMLID_84_" transform="matrix(1 0 0 1 3199.5195 -1136.2822)" style="fill:#101010; font-family:'Formular'; font-size:16.9724px;">2262.027</text>
		</g>
		<g id="XMLID_864_">
			
				<text id="XMLID_82_" transform="matrix(1 0 0 1 2254.5127 -1278.2339)" style="fill:#101010; font-family:'Formular'; font-size:16.9724px;">1680.173</text>
		</g>
		<g id="XMLID_859_">
			
				<text id="XMLID_80_" transform="matrix(1 0 0 1 2249.1758 -1009.7603)" style="fill:#101010; font-family:'Formular'; font-size:16.9724px;">1680.173</text>
		</g>
		<g id="XMLID_855_">
			
				<text id="XMLID_78_" transform="matrix(1 0 0 1 2157.2627 -1278.2339)" style="fill:#101010; font-family:'Formular'; font-size:16.9724px;">1627.895</text>
		</g>
		<g id="XMLID_850_">
			
				<text id="XMLID_76_" transform="matrix(1 0 0 1 2175.0918 -1009.7603)" style="fill:#101010; font-family:'Formular'; font-size:16.9724px;">1621</text>
		</g>
		<g id="XMLID_846_">
			
				<text id="XMLID_74_" transform="matrix(1 0 0 1 2300.0342 -2057.3398)" style="fill:#101010; font-family:'Formular'; font-size:16.9724px;">1680.173</text>
		</g>
		<g id="XMLID_841_">
			
				<text id="XMLID_72_" transform="matrix(1 0 0 1 1712.9409 -1785.7798)" style="fill:#101010; font-family:'Formular'; font-size:16.9724px;">1332.175</text>
		</g>
		<g id="XMLID_837_">
			
				<text id="XMLID_70_" transform="matrix(1 0 0 1 1614.2549 -1785.7798)" style="fill:#101010; font-family:'Formular'; font-size:16.9724px;">1274.918</text>
		</g>
		<g id="XMLID_832_">
			
				<text id="XMLID_68_" transform="matrix(1 0 0 1 964.0649 -1009.7603)" style="fill:#101010; font-family:'Formular'; font-size:16.9724px;">840.5 </text>
		</g>
		<g id="XMLID_828_">
			
				<text id="XMLID_66_" transform="matrix(1 0 0 1 759.8032 -1009.7603)" style="fill:#101010; font-family:'Formular'; font-size:16.9724px;">709.49</text>
		</g>
		<g id="XMLID_798_">
			
				<text id="XMLID_64_" transform="matrix(1 0 0 1 416.6689 -985.0737)" style="fill:#101010; font-family:'Formular'; font-size:16.9724px;">490.401</text>
		</g>
		<g id="XMLID_795_">
			
				<text id="XMLID_62_" transform="matrix(1 0 0 1 130.9482 -1083.8223)" style="fill:#101010; font-family:'Formular'; font-size:16.9724px;">328.49</text>
		</g>
		<g id="XMLID_792_">
			
				<text id="XMLID_60_" transform="matrix(1 0 0 1 488.7373 -1235.5039)" style="fill:#101010; font-family:'Formular'; font-size:16.9724px;">537.048</text>
		</g>
		<g id="XMLID_789_">
			
				<text id="XMLID_58_" transform="matrix(1 0 0 1 352.7148 -1357.396)" style="fill:#101010; font-family:'Formular'; font-size:16.9724px;">408.568</text>
		</g>
		<g id="XMLID_786_">
			
				<text id="XMLID_56_" transform="matrix(1 0 0 1 8.3247 -1346.3804)" style="fill:#101010; font-family:'Formular'; font-size:16.9724px;">266.667</text>
		</g>
		<g id="XMLID_781_">
			
				<text id="XMLID_54_" transform="matrix(1 0 0 1 114.6372 -1601.7422)" style="fill:#101010; font-family:'Formular'; font-size:16.9724px;">329.705</text>
		</g>
		<g id="XMLID_778_">
			
				<text id="XMLID_52_" transform="matrix(1 0 0 1 497.5469 -1479.5889)" style="fill:#101010; font-family:'Formular'; font-size:16.9724px;">543.005</text>
		</g>
		<g id="XMLID_775_">
			
				<text id="XMLID_50_" transform="matrix(1 0 0 1 689.1299 -1499.646)" style="fill:#101010; font-family:'Formular'; font-size:16.9724px;">704.822</text>
		</g>
		<g id="XMLID_267_">
			
				<text id="XMLID_634_" transform="matrix(1 0 0 1 682.9863 -1441.0151)" style="fill:#101010; font-family:'Formular'; font-size:16.9724px;">704.822</text>
		</g>
		<g id="XMLID_23_">
			
				<text id="XMLID_637_" transform="matrix(1 0 0 1 653.9229 -1297.521)" style="fill:#101010; font-family:'Formular'; font-size:16.9724px;">655</text>
		</g>
		<g id="XMLID_20_">
			
				<text id="XMLID_653_" transform="matrix(1 0 0 1 772.6616 -1178.3052)" style="fill:#101010; font-family:'Formular'; font-size:16.9724px;">709.49</text>
		</g>
		<g id="XMLID_15_">
			
				<text id="XMLID_655_" transform="matrix(1 0 0 1 692.4409 -1178.3052)" style="fill:#101010; font-family:'Formular'; font-size:16.9724px;">679.927 </text>
		</g>
	</g>
</g>
<g id="XMLID_741_">
	<g id="XMLID_762_">
		<line id="XMLID_1557_" class="st3" x1="0" y1="89" x2="1350" y2="89"/>
		<line id="XMLID_1556_" class="st3" x1="0" y1="208.8" x2="1350" y2="208.8"/>
		<line id="XMLID_1555_" class="st3" x1="0" y1="376.5" x2="1350" y2="376.5"/>
		<line id="XMLID_1554_" class="st3" x1="0" y1="495.7" x2="1350" y2="495.7"/>
		<line id="XMLID_1553_" class="st3" x1="0" y1="672" x2="1350" y2="672"/>
		<line id="XMLID_1552_" class="st3" x1="0" y1="790.8" x2="1350" y2="790.8"/>
	</g>
	<g id="XMLID_1461_">
		<g>
			<path id="XMLID_158_" class="st4" d="M89.6,208.3v-11H84c-7.2,9.3-18.9,14-35,14c-13.1,0-23.3-3.7-31-11.2
				c-7.7-7.7-11.4-16.8-11.4-27.8c0-10.7,4-20.1,11.7-28c7.7-7.9,19.6-11.9,35.5-11.9h35V129c0-13.8-8.2-21.7-25-21.7
				c-14.7,0-22.6,5.1-23.8,15.2H13.7c1.2-22.2,20.8-35.9,49-35.9c32,0,51.3,14.2,51.3,42.9v78.9H89.6z M79.5,181.2
				c6.1-5.8,9.1-12.8,9.1-21v-9.1H58.3c-16.6,0-25.2,7.2-25.2,19.6c0,12.1,8.9,19.1,24,19.1C66,189.8,73.5,187,79.5,181.2z"/>
			<path id="XMLID_155_" class="st4" d="M206.2,89.5V114h-10.7c-24,0-37.1,13.8-37.1,38.7v55.5H132V89.5h25.4v13.8h5.6
				c6.8-9.1,18-13.8,33.1-13.8H206.2z"/>
			<path id="XMLID_153_" class="st4" d="M243.5,89.5h28v22.4h-28v57.9c0,10.5,6.1,15.6,18.2,15.6h9.8v22.9h-10.3
				c-28.7,0-44.1-9.6-44.1-35V59.5h26.4V89.5z"/>
			<path id="XMLID_150_" class="st4" d="M380.5,194c-10.7,11.4-25.2,17.3-43.6,17.3c-18.4,0-32.9-5.8-43.9-17.3
				c-10.7-11.7-16.1-26.8-16.1-45.3s5.4-33.4,16.1-44.8c11-11.7,25.4-17.5,43.9-17.5c18.4,0,32.9,5.8,43.6,17.5
				c11,11.4,16.3,26.4,16.3,44.8S391.4,182.4,380.5,194z M336.8,108.9c-21.7,0-33.6,17.5-33.6,39.9c0,22.6,11.9,40.1,33.6,40.1
				c21.7,0,33.6-17.5,33.6-40.1C370.4,126.4,358.5,108.9,336.8,108.9z"/>
			<path id="XMLID_148_" class="st4" d="M476.7,121.3c-1.4-8.6-9.1-12.8-23.3-12.8c-14.2,0-21.5,4.2-21.5,12.4
				c0,7.2,4.7,10,15.2,11.9l23.1,3.7c24,4,36.2,16.1,36.2,36.9c0,10.5-4.4,19.6-13.5,27.1c-8.9,7.2-21.2,11-37.3,11
				c-33.6,0-51.8-14.7-54.4-39h26.4c2.1,11.4,11.2,17,27.5,17c16.6,0,25-5.1,25-15.4c0-9.1-5.6-13.3-19.4-15.9l-24.7-4.2
				c-18.7-3-30.3-13.5-30.3-31.3c0-21.2,16.8-36.2,48.8-36.2c28.2,0,46.2,13.5,48.8,34.8H476.7z"/>
		</g>
	</g>
	<g id="XMLID_1444_">
		<path id="XMLID_1458_" class="st0" d="M602.4,208.8v-11.1h-5.6c-7.3,9.4-19.1,14.1-35.3,14.1c-13.2,0-23.5-3.8-31.3-11.3
			c-7.8-7.8-11.5-16.9-11.5-28c0-10.8,4-20.2,11.8-28.2s19.8-12,35.8-12h35.3v-3.5c0-13.9-8.2-21.9-25.2-21.9
			c-14.8,0-22.8,5.2-24,15.3h-26.4c1.2-22.4,20.9-36.2,49.4-36.2c32.2,0,51.8,14.4,51.8,43.3v79.6H602.4z M592.3,181.5
			c6.1-5.9,9.2-12.9,9.2-21.2v-9.2h-30.6c-16.7,0-25.4,7.3-25.4,19.8c0,12.2,8.9,19.3,24.2,19.3
			C578.7,190.2,586.2,187.4,592.3,181.5z"/>
		<path id="XMLID_1455_" class="st0" d="M644.6,89h25.7v11.5h5.6c7.8-9.6,19.5-14.6,35.3-14.6c15.8,0,28.5,5.9,37.7,17.7
			c9.4,11.8,14.1,26.8,14.1,45.2c0,18.6-4.7,33.7-14.1,45.4c-9.2,11.8-21.9,17.7-37.7,17.7c-15.5,0-27.1-4.9-34.4-14.6h-5.6v58.6
			h-26.6V89z M670.5,148.8c0,22.8,11.3,40.5,33.2,40.5c20.9,0,32.7-16.2,32.7-40.5c0-24.2-11.8-40.2-32.7-40.2
			C681.8,108.6,670.5,126,670.5,148.8z"/>
		<path id="XMLID_1453_" class="st0" d="M761.3,111.6V89h107.3v22.6h-40.2v97.2h-26.6v-97.2H761.3z"/>
		<path id="XMLID_1447_" class="st0" d="M972.7,194.5c-10.8,11.5-25.4,17.4-44,17.4c-18.6,0-33.2-5.9-44.3-17.4
			c-10.8-11.8-16.2-27.1-16.2-45.7c0-18.6,5.4-33.7,16.2-45.2C895.5,91.8,910.1,86,928.7,86c18.6,0,33.2,5.9,44,17.7
			c11.1,11.5,16.5,26.6,16.5,45.2C989.1,167.4,983.7,182.7,972.7,194.5z M928.7,108.6c-21.9,0-33.9,17.7-33.9,40.2
			c0,22.8,12,40.5,33.9,40.5c21.9,0,33.9-17.7,33.9-40.5C962.5,126.2,950.5,108.6,928.7,108.6z"/>
		<path id="XMLID_1445_" class="st0" d="M1107.4,170.5c-3.8,25.2-24.2,41.4-52.7,41.4c-18.4,0-33-5.9-43.5-17.4
			c-10.6-11.5-15.8-26.8-15.8-45.7c0-18.6,5.2-33.9,15.8-45.4c10.6-11.5,25.2-17.4,43.5-17.4c28.5,0,48.3,15.8,51.8,39.5h-26.4
			c-3.5-11.3-12-16.9-25.2-16.9c-22.4,0-33,16.7-33,40c0,23.8,10.6,40.7,33,40.7c14.6,0,23.3-6.4,26.1-18.8H1107.4z"/>
	</g>
	<g id="XMLID_1158_">
		<g>
			<path id="XMLID_145_" class="st4" d="M89.6,495.7v-11H84c-7.2,9.3-18.9,14-35,14c-13.1,0-23.3-3.7-31-11.2
				c-7.7-7.7-11.4-16.8-11.4-27.8c0-10.7,4-20.1,11.7-28c7.7-7.9,19.6-11.9,35.5-11.9h35v-3.5c0-13.8-8.2-21.7-25-21.7
				c-14.7,0-22.6,5.1-23.8,15.2H13.7c1.2-22.2,20.8-35.9,49-35.9c32,0,51.3,14.2,51.3,42.9v78.9H89.6z M79.5,468.7
				c6.1-5.8,9.1-12.8,9.1-21v-9.1H58.3c-16.6,0-25.2,7.2-25.2,19.6c0,12.1,8.9,19.1,24,19.1C66,477.3,73.5,474.5,79.5,468.7z"/>
			<path id="XMLID_143_" class="st4" d="M206.2,377v24.5h-10.7c-24,0-37.1,13.8-37.1,38.7v55.5H132V377h25.4v13.8h5.6
				c6.8-9.1,18-13.8,33.1-13.8H206.2z"/>
			<path id="XMLID_140_" class="st4" d="M243.5,377h28v22.4h-28v57.9c0,10.5,6.1,15.6,18.2,15.6h9.8v22.9h-10.3
				c-28.7,0-44.1-9.6-44.1-35V346.9h26.4V377z"/>
			<path id="XMLID_136_" class="st4" d="M380.5,481.5c-10.7,11.4-25.2,17.3-43.6,17.3c-18.4,0-32.9-5.8-43.9-17.3
				c-10.7-11.7-16.1-26.8-16.1-45.3s5.4-33.4,16.1-44.8c11-11.7,25.4-17.5,43.9-17.5c18.4,0,32.9,5.8,43.6,17.5
				c11,11.4,16.3,26.4,16.3,44.8S391.4,469.8,380.5,481.5z M336.8,396.3c-21.7,0-33.6,17.5-33.6,39.9c0,22.6,11.9,40.1,33.6,40.1
				c21.7,0,33.6-17.5,33.6-40.1C370.4,413.8,358.5,396.3,336.8,396.3z"/>
			<path id="XMLID_134_" class="st4" d="M476.7,408.7c-1.4-8.6-9.1-12.8-23.3-12.8c-14.2,0-21.5,4.2-21.5,12.4
				c0,7.2,4.7,10,15.2,11.9l23.1,3.7c24,4,36.2,16.1,36.2,36.9c0,10.5-4.4,19.6-13.5,27.1c-8.9,7.2-21.2,11-37.3,11
				c-33.6,0-51.8-14.7-54.4-39h26.4c2.1,11.4,11.2,17,27.5,17c16.6,0,25-5.1,25-15.4c0-9.1-5.6-13.3-19.4-15.9l-24.7-4.2
				c-18.7-3-30.3-13.5-30.3-31.3c0-21.2,16.8-36.2,48.8-36.2c28.2,0,46.2,13.5,48.8,34.8H476.7z"/>
		</g>
	</g>
	<g id="XMLID_1007_">
		<path id="XMLID_1147_" class="st0" d="M625,481.9c-10.8,11.5-25.4,17.4-44,17.4c-18.6,0-33.2-5.9-44.3-17.4
			c-10.8-11.8-16.2-27.1-16.2-45.7c0-18.6,5.4-33.7,16.2-45.2c11.1-11.8,25.7-17.7,44.3-17.7c18.6,0,33.2,5.9,44,17.7
			c11.1,11.5,16.5,26.6,16.5,45.2C641.5,454.8,636.1,470.1,625,481.9z M581,396c-21.9,0-33.9,17.7-33.9,40.2
			c0,22.8,12,40.5,33.9,40.5c21.9,0,33.9-17.7,33.9-40.5C614.9,413.7,602.9,396,581,396z"/>
		<path id="XMLID_1025_" class="st0" d="M764.6,473.7h21.7v56.3h-25.4v-33.7h-96v33.7h-25.4v-56.3h16.9
			c8.2-19.5,12.5-40.7,12.5-63.6v-33.7h95.8V473.7z M738,473.7v-74.6h-45v11.3c0,23.8-3.5,45-10.8,63.3H738z"/>
		<path id="XMLID_1021_" class="st0" d="M900.9,438.6h-88.5c0.7,25.4,12,38.1,33.7,38.1c13.9,0,22.6-5.2,26.1-15.3h27.1
			c-4.7,22.8-23.3,37.9-53.4,37.9c-18.6,0-33.2-5.9-43.8-17.7c-10.6-11.8-16-27.1-16-46.1s5.2-34.1,15.8-45.2
			c10.6-11.3,25.2-16.9,43.3-16.9c17.2,0,30.8,5.4,40.5,16c9.9,10.6,15.1,24,15.3,40.2V438.6z M813.6,418.8h60
			c-1.9-14.1-12-24.2-28.7-24.2C827.2,394.6,816.6,404,813.6,418.8z"/>
		<path id="XMLID_1018_" class="st0" d="M952.9,446.4l-22.6,49.9H903l27.8-61.7l-26.1-58.1h27.1l21.2,47.3h26.6v-47.3h24.9v47.3
			h26.6l20.9-47.3h27.1l-25.9,58.1l27.8,61.7h-27.5l-22.4-49.9h-26.6v49.9h-24.9v-49.9H952.9z"/>
		<path id="XMLID_1013_" class="st0" d="M1210.1,473.7h21.7v56.3h-25.4v-33.7h-96v33.7h-25.4v-56.3h16.9
			c8.2-19.5,12.5-40.7,12.5-63.6v-33.7h95.8V473.7z M1183.5,473.7v-74.6h-45v11.3c0,23.8-3.5,45-10.8,63.3H1183.5z"/>
		<path id="XMLID_1009_" class="st0" d="M1316.7,496.3v-11.1h-5.6c-7.3,9.4-19.1,14.1-35.3,14.1c-13.2,0-23.5-3.8-31.3-11.3
			c-7.8-7.8-11.5-16.9-11.5-28c0-10.8,4-20.2,11.8-28.2c7.8-8,19.8-12,35.8-12h35.3v-3.5c0-13.9-8.2-21.9-25.2-21.9
			c-14.8,0-22.8,5.2-24,15.3h-26.4c1.2-22.4,20.9-36.2,49.4-36.2c32.2,0,51.8,14.4,51.8,43.3v79.6H1316.7z M1306.6,469
			c6.1-5.9,9.2-12.9,9.2-21.2v-9.2h-30.6c-16.7,0-25.4,7.3-25.4,19.8c0,12.2,8.9,19.3,24.2,19.3C1293,477.7,1300.5,474.8,1306.6,469
			z"/>
	</g>
	<g id="XMLID_761_">
		<g>
			<path id="XMLID_131_" class="st4" d="M89.6,790.8v-11H84c-7.2,9.3-18.9,14-35,14c-13.1,0-23.3-3.7-31-11.2
				c-7.7-7.7-11.4-16.8-11.4-27.8c0-10.7,4-20.1,11.7-28c7.7-7.9,19.6-11.9,35.5-11.9h35v-3.5c0-13.8-8.2-21.7-25-21.7
				c-14.7,0-22.6,5.1-23.8,15.2H13.7c1.2-22.2,20.8-35.9,49-35.9c32,0,51.3,14.2,51.3,42.9v78.9H89.6z M79.5,763.7
				c6.1-5.8,9.1-12.8,9.1-21v-9.1H58.3c-16.6,0-25.2,7.2-25.2,19.6c0,12.1,8.9,19.1,24,19.1C66,772.3,73.5,769.5,79.5,763.7z"/>
			<path id="XMLID_129_" class="st4" d="M206.2,672v24.5h-10.7c-24,0-37.1,13.8-37.1,38.7v55.5H132V672h25.4v13.8h5.6
				c6.8-9.1,18-13.8,33.1-13.8H206.2z"/>
			<path id="XMLID_127_" class="st4" d="M243.5,672h28v22.4h-28v57.9c0,10.5,6.1,15.6,18.2,15.6h9.8v22.9h-10.3
				c-28.7,0-44.1-9.6-44.1-35V642h26.4V672z"/>
			<path id="XMLID_124_" class="st4" d="M380.5,776.5c-10.7,11.4-25.2,17.3-43.6,17.3c-18.4,0-32.9-5.8-43.9-17.3
				c-10.7-11.7-16.1-26.8-16.1-45.3s5.4-33.4,16.1-44.8c11-11.7,25.4-17.5,43.9-17.5c18.4,0,32.9,5.8,43.6,17.5
				c11,11.4,16.3,26.4,16.3,44.8S391.4,764.9,380.5,776.5z M336.8,691.4c-21.7,0-33.6,17.5-33.6,39.9c0,22.6,11.9,40.1,33.6,40.1
				c21.7,0,33.6-17.5,33.6-40.1C370.4,708.9,358.5,691.4,336.8,691.4z"/>
			<path id="XMLID_122_" class="st4" d="M476.7,703.8c-1.4-8.6-9.1-12.8-23.3-12.8c-14.2,0-21.5,4.2-21.5,12.4
				c0,7.2,4.7,10,15.2,11.9l23.1,3.7c24,4,36.2,16.1,36.2,36.9c0,10.5-4.4,19.6-13.5,27.1c-8.9,7.2-21.2,11-37.3,11
				c-33.6,0-51.8-14.7-54.4-39h26.4c2.1,11.4,11.2,17,27.5,17c16.6,0,25-5.1,25-15.4c0-9.1-5.6-13.3-19.4-15.9l-24.7-4.2
				c-18.7-3-30.3-13.5-30.3-31.3c0-21.2,16.8-36.2,48.8-36.2c28.2,0,46.2,13.5,48.8,34.8H476.7z"/>
		</g>
	</g>
	<g id="XMLID_742_">
		<path id="XMLID_758_" class="st0" d="M613.3,671.5h25.7v113.9c0,16.9-5.2,30.4-15.8,40.2c-10.6,9.9-24.5,14.8-42.1,14.8
			c-32,0-53.2-14.1-56-38.6h26.4c2.1,11.1,12,16.7,29.2,16.7c21.2,0,31.8-11.8,31.8-35.1v-8h-5.6c-6.8,9.7-18.1,14.6-33.4,14.6
			c-16,0-28.7-5.6-38.4-16.9c-9.7-11.3-14.4-25.9-14.4-43.8s4.7-32.5,14.4-43.8c9.6-11.5,22.6-17.2,38.4-17.2s27.3,4.9,34.4,14.6
			h5.6V671.5z M613.3,729.4c0-21.9-12-38.4-33.4-38.4c-20.5,0-32.7,15.5-32.7,38.4c0,22.8,12.2,38.1,32.7,38.1
			C601.3,767.6,613.3,751.1,613.3,729.4z"/>
		<path id="XMLID_754_" class="st0" d="M765.8,733.7h-88.5c0.7,25.4,12,38.1,33.7,38.1c13.9,0,22.6-5.2,26.1-15.3h27.1
			c-4.7,22.8-23.3,37.9-53.4,37.9c-18.6,0-33.2-5.9-43.8-17.7c-10.6-11.8-16-27.1-16-46.1s5.2-34.1,15.8-45.2
			c10.6-11.3,25.2-16.9,43.3-16.9c17.2,0,30.8,5.4,40.5,16c9.9,10.6,15.1,24,15.3,40.2V733.7z M678.5,713.9h60
			c-1.9-14.1-12-24.2-28.7-24.2C692.1,689.6,681.5,699.1,678.5,713.9z"/>
		<path id="XMLID_751_" class="st0" d="M852.4,791.3v-11.1h-5.6c-7.3,9.4-19.1,14.1-35.3,14.1c-13.2,0-23.5-3.8-31.3-11.3
			c-7.8-7.8-11.5-16.9-11.5-28c0-10.8,4-20.2,11.8-28.2c7.8-8,19.8-12,35.8-12h35.3v-3.5c0-13.9-8.2-21.9-25.2-21.9
			c-14.8,0-22.8,5.2-24,15.3h-26.4c1.2-22.4,20.9-36.2,49.4-36.2c32.2,0,51.8,14.4,51.8,43.3v79.6H852.4z M842.3,764
			c6.1-5.9,9.2-12.9,9.2-21.2v-9.2h-30.6c-16.7,0-25.4,7.3-25.4,19.8c0,12.2,8.9,19.3,24.2,19.3C828.6,772.7,836.2,769.9,842.3,764z
			"/>
		<path id="XMLID_749_" class="st0" d="M969.4,671.5v24.7h-10.8c-24.2,0-37.4,13.9-37.4,39.1v56h-26.6V671.5h25.7v13.9h5.6
			c6.8-9.2,18.1-13.9,33.4-13.9H969.4z"/>
		<path id="XMLID_747_" class="st0" d="M994.1,791.3h-30.4v-31.5h30.4V791.3z"/>
		<path id="XMLID_745_" class="st0" d="M1087.1,671.5v24.7h-10.8c-24.2,0-37.4,13.9-37.4,39.1v56h-26.6V671.5h25.7v13.9h5.6
			c6.8-9.2,18.1-13.9,33.4-13.9H1087.1z"/>
		<path id="XMLID_743_" class="st0" d="M1095.2,671.5h26.6v69.7c0,19.5,8.9,29.4,26.6,29.4c9.2,0,16.7-3.5,22.4-10.4
			c5.9-6.8,8.7-15.1,8.7-24.7v-64h26.6v119.8h-25.7v-11.5h-5.6c-7.3,9.6-18.8,14.6-34.6,14.6c-29.2,0-45-17.9-45-48V671.5z"/>
	</g>
</g>
</svg>
