<?xml version="1.0" encoding="utf-8"?>
<!-- Generator: Adobe Illustrator 19.0.0, SVG Export Plug-In . SVG Version: 6.00 Build 0)  -->
<svg version="1.1" id="Layer_1" xmlns="http://www.w3.org/2000/svg" xmlns:xlink="http://www.w3.org/1999/xlink" x="0px" y="0px"
	 viewBox="0 0 1500 1000" style="enable-background:new 0 0 1500 1000;" xml:space="preserve">
<style type="text/css">
	.st0{fill:#EFEFEF;}
	.st1{fill:#FFFFFF;}
	.st2{fill:#E6E6E6;}
	.st3{fill:none;}
	.st4{fill:none;stroke:#36AFA7;stroke-width:2;stroke-miterlimit:10;}
	.st5{opacity:0.6;}
	.st6{opacity:0;}
	.st7{fill:none;stroke:#36AFA7;stroke-miterlimit:10;}
	.st8{opacity:0;fill:#101010;}
	.st9{fill:#101010;}
</style>
<rect id="XMLID_1_" class="st0" width="1500" height="1000"/>
<polygon id="XMLID_254_" class="st1" points="974.5,111.1 584.4,111.1 166.7,111.1 166.7,834.6 166.7,888.9 525.5,888.9 
	915.4,888.9 1333.3,888.9 1333.3,164.9 1333.3,111.1 "/>
<g id="XMLID_246_">
	<polygon id="XMLID_253_" class="st2" points="974.5,111.1 525.5,888.9 915.4,888.9 1333.3,888.9 1333.3,164.9 1333.3,111.1 	"/>
	<polygon id="XMLID_243_" class="st3" points="584.4,111.1 166.7,111.1 166.7,834.6 166.7,888.9 525.5,888.9 974.5,111.1 	"/>
</g>
<g id="XMLID_51_">
	<g id="XMLID_224_">
		<line id="XMLID_239_" class="st4" x1="209.9" y1="888.9" x2="209.9" y2="111.7"/>
		<line id="XMLID_225_" class="st4" x1="1290.1" y1="111.7" x2="1290.1" y2="888.9"/>
	</g>
	<g id="XMLID_62_" class="st5">
		<g id="XMLID_158_">
			<g id="XMLID_221_">
				<line id="XMLID_223_" class="st4" x1="209.9" y1="727.6" x2="1290.1" y2="727.6"/>
				<line id="XMLID_222_" class="st4" x1="1290.1" y1="743.1" x2="209.9" y2="743.1"/>
			</g>
			<g id="XMLID_218_">
				<line id="XMLID_220_" class="st4" x1="209.9" y1="609.9" x2="1290.1" y2="609.9"/>
				<line id="XMLID_219_" class="st4" x1="1290.1" y1="625.5" x2="209.9" y2="625.5"/>
			</g>
			<g id="XMLID_215_">
				<line id="XMLID_217_" class="st4" x1="209.9" y1="492.2" x2="1290.1" y2="492.2"/>
				<line id="XMLID_216_" class="st4" x1="1290.1" y1="507.8" x2="209.9" y2="507.8"/>
			</g>
			<g id="XMLID_162_">
				<line id="XMLID_211_" class="st4" x1="209.9" y1="374.5" x2="1290.1" y2="374.5"/>
				<line id="XMLID_163_" class="st4" x1="1290.1" y1="390.1" x2="209.9" y2="390.1"/>
			</g>
			<g id="XMLID_159_">
				<line id="XMLID_161_" class="st4" x1="209.9" y1="256.9" x2="1290.1" y2="256.9"/>
				<line id="XMLID_160_" class="st4" x1="1290.1" y1="272.4" x2="209.9" y2="272.4"/>
			</g>
		</g>
		<g id="XMLID_63_">
			<g id="XMLID_141_">
				<line id="XMLID_157_" class="st4" x1="1107.2" y1="845.7" x2="1107.2" y2="154.3"/>
				<line id="XMLID_155_" class="st4" x1="1122.8" y1="154.3" x2="1122.8" y2="845.7"/>
			</g>
			<g id="XMLID_137_">
				<line id="XMLID_139_" class="st4" x1="924.7" y1="845.7" x2="924.7" y2="154.3"/>
				<line id="XMLID_138_" class="st4" x1="940.3" y1="154.3" x2="940.3" y2="845.7"/>
			</g>
			<g id="XMLID_132_">
				<line id="XMLID_136_" class="st4" x1="742.2" y1="845.7" x2="742.2" y2="154.3"/>
				<line id="XMLID_135_" class="st4" x1="757.8" y1="154.3" x2="757.8" y2="845.7"/>
			</g>
			<g id="XMLID_69_">
				<line id="XMLID_130_" class="st4" x1="559.7" y1="845.7" x2="559.7" y2="154.3"/>
				<line id="XMLID_129_" class="st4" x1="575.3" y1="154.3" x2="575.3" y2="845.7"/>
			</g>
			<g id="XMLID_65_">
				<line id="XMLID_68_" class="st4" x1="377.2" y1="845.7" x2="377.2" y2="154.3"/>
				<line id="XMLID_66_" class="st4" x1="392.8" y1="154.3" x2="392.8" y2="845.7"/>
			</g>
		</g>
	</g>
	<line id="XMLID_61_" class="st4" x1="166.7" y1="154.3" x2="1333.3" y2="154.3"/>
	<line id="XMLID_59_" class="st4" x1="1333.3" y1="845.7" x2="166.7" y2="845.7"/>
	<path id="XMLID_58_" class="st4" d="M1290.1,154.3"/>
	<path id="XMLID_57_" class="st4" d="M1290.1,154.3"/>
	<g id="XMLID_54_" class="st6">
		<rect id="XMLID_56_" x="559.7" y="154.3" class="st7" width="15.6" height="691.4"/>
		<rect id="XMLID_55_" x="924.7" y="154.3" class="st7" width="15.6" height="691.4"/>
	</g>
</g>
<g id="XMLID_244_">
	<rect id="XMLID_272_" x="166.7" y="111.1" class="st8" width="252.6" height="124.2"/>
	<g id="XMLID_245_">
		<g>
			<path id="XMLID_164_" class="st9" d="M237.3,194.6V191h-1.9c-2.4,3.1-6.3,4.7-11.8,4.7c-4.4,0-7.8-1.3-10.4-3.8
				c-2.6-2.6-3.8-5.6-3.8-9.3c0-3.6,1.3-6.7,3.9-9.4c2.6-2.7,6.6-4,11.9-4H237V168c0-4.6-2.7-7.3-8.4-7.3c-4.9,0-7.6,1.7-8,5.1h-8.8
				c0.4-7.4,7-12.1,16.5-12.1c10.7,0,17.2,4.8,17.2,14.4v26.5H237.3z M233.9,185.6c2-2,3.1-4.3,3.1-7.1v-3.1h-10.2
				c-5.6,0-8.5,2.4-8.5,6.6c0,4.1,3,6.4,8.1,6.4C229.4,188.5,231.9,187.5,233.9,185.6z"/>
			<path id="XMLID_154_" class="st9" d="M276.5,154.8v8.2h-3.6c-8.1,0-12.5,4.6-12.5,13v18.6h-8.9v-39.9h8.5v4.6h1.9
				c2.3-3.1,6-4.6,11.1-4.6H276.5z"/>
			<path id="XMLID_152_" class="st9" d="M289,154.8h9.4v7.5H289v19.4c0,3.5,2,5.2,6.1,5.2h3.3v7.7h-3.4c-9.6,0-14.8-3.2-14.8-11.8
				v-38.2h8.9V154.8z"/>
			<path id="XMLID_149_" class="st9" d="M335,189.9c-3.6,3.8-8.5,5.8-14.6,5.8c-6.2,0-11-2-14.7-5.8c-3.6-3.9-5.4-9-5.4-15.2
				c0-6.2,1.8-11.2,5.4-15c3.7-3.9,8.5-5.9,14.7-5.9c6.2,0,11,2,14.6,5.9c3.7,3.8,5.5,8.9,5.5,15C340.4,180.9,338.6,185.9,335,189.9
				z M320.3,161.3c-7.3,0-11.3,5.9-11.3,13.4c0,7.6,4,13.5,11.3,13.5c7.3,0,11.3-5.9,11.3-13.5C331.6,167.1,327.6,161.3,320.3,161.3
				z"/>
			<path id="XMLID_147_" class="st9" d="M367.3,165.4c-0.5-2.9-3.1-4.3-7.8-4.3c-4.8,0-7.2,1.4-7.2,4.2c0,2.4,1.6,3.4,5.1,4l7.8,1.3
				c8.1,1.3,12.1,5.4,12.1,12.4c0,3.5-1.5,6.6-4.5,9.1c-3,2.4-7.1,3.7-12.5,3.7c-11.3,0-17.4-4.9-18.3-13.1h8.9
				c0.7,3.8,3.8,5.7,9.2,5.7c5.6,0,8.4-1.7,8.4-5.2c0-3.1-1.9-4.5-6.5-5.3l-8.3-1.4c-6.3-1-10.2-4.5-10.2-10.5
				c0-7.1,5.6-12.1,16.4-12.1c9.5,0,15.5,4.5,16.4,11.7H367.3z"/>
		</g>
	</g>
</g>
<g id="XMLID_50_">
	<rect id="XMLID_287_" x="1080.7" y="111.1" class="st8" width="252.6" height="124.2"/>
	<g id="XMLID_247_">
		<g>
			<path id="XMLID_144_" class="st9" d="M1151.3,194.6V191h-1.9c-2.4,3.1-6.3,4.7-11.8,4.7c-4.4,0-7.8-1.3-10.4-3.8
				c-2.6-2.6-3.8-5.6-3.8-9.3c0-3.6,1.3-6.7,3.9-9.4c2.6-2.7,6.6-4,11.9-4h11.8V168c0-4.6-2.7-7.3-8.4-7.3c-4.9,0-7.6,1.7-8,5.1
				h-8.8c0.4-7.4,7-12.1,16.5-12.1c10.7,0,17.2,4.8,17.2,14.4v26.5H1151.3z M1148,185.6c2-2,3.1-4.3,3.1-7.1v-3.1h-10.2
				c-5.6,0-8.5,2.4-8.5,6.6c0,4.1,3,6.4,8.1,6.4C1143.4,188.5,1145.9,187.5,1148,185.6z"/>
			<path id="XMLID_142_" class="st9" d="M1190.5,154.8v8.2h-3.6c-8.1,0-12.5,4.6-12.5,13v18.6h-8.9v-39.9h8.5v4.6h1.9
				c2.3-3.1,6-4.6,11.1-4.6H1190.5z"/>
			<path id="XMLID_134_" class="st9" d="M1203,154.8h9.4v7.5h-9.4v19.4c0,3.5,2,5.2,6.1,5.2h3.3v7.7h-3.4c-9.6,0-14.8-3.2-14.8-11.8
				v-38.2h8.9V154.8z"/>
			<path id="XMLID_128_" class="st9" d="M1249,189.9c-3.6,3.8-8.5,5.8-14.6,5.8c-6.2,0-11-2-14.7-5.8c-3.6-3.9-5.4-9-5.4-15.2
				c0-6.2,1.8-11.2,5.4-15c3.7-3.9,8.5-5.9,14.7-5.9c6.2,0,11,2,14.6,5.9c3.7,3.8,5.5,8.9,5.5,15
				C1254.5,180.9,1252.7,185.9,1249,189.9z M1234.3,161.3c-7.3,0-11.3,5.9-11.3,13.4c0,7.6,4,13.5,11.3,13.5
				c7.3,0,11.3-5.9,11.3-13.5C1245.6,167.1,1241.6,161.3,1234.3,161.3z"/>
			<path id="XMLID_126_" class="st9" d="M1281.3,165.4c-0.5-2.9-3.1-4.3-7.8-4.3c-4.8,0-7.2,1.4-7.2,4.2c0,2.4,1.6,3.4,5.1,4
				l7.8,1.3c8.1,1.3,12.1,5.4,12.1,12.4c0,3.5-1.5,6.6-4.5,9.1c-3,2.4-7.1,3.7-12.5,3.7c-11.3,0-17.4-4.9-18.3-13.1h8.9
				c0.7,3.8,3.8,5.7,9.2,5.7c5.6,0,8.4-1.7,8.4-5.2c0-3.1-1.9-4.5-6.5-5.3l-8.3-1.4c-6.3-1-10.2-4.5-10.2-10.5
				c0-7.1,5.6-12.1,16.4-12.1c9.5,0,15.5,4.5,16.4,11.7H1281.3z"/>
		</g>
	</g>
</g>
<g id="XMLID_248_">
	<rect id="XMLID_302_" x="166.7" y="762.5" class="st8" width="252.6" height="124.2"/>
	<g id="XMLID_249_">
		<g>
			<path id="XMLID_122_" class="st9" d="M237.3,846v-3.7h-1.9c-2.4,3.1-6.3,4.7-11.8,4.7c-4.4,0-7.8-1.3-10.4-3.8
				c-2.6-2.6-3.8-5.6-3.8-9.3c0-3.6,1.3-6.7,3.9-9.4c2.6-2.7,6.6-4,11.9-4H237v-1.2c0-4.6-2.7-7.3-8.4-7.3c-4.9,0-7.6,1.7-8,5.1
				h-8.8c0.4-7.4,7-12.1,16.5-12.1c10.7,0,17.2,4.8,17.2,14.4V846H237.3z M233.9,836.9c2-2,3.1-4.3,3.1-7.1v-3.1h-10.2
				c-5.6,0-8.5,2.4-8.5,6.6c0,4.1,3,6.4,8.1,6.4C229.4,839.8,231.9,838.9,233.9,836.9z"/>
			<path id="XMLID_120_" class="st9" d="M276.5,806.1v8.2h-3.6c-8.1,0-12.5,4.6-12.5,13V846h-8.9v-39.9h8.5v4.6h1.9
				c2.3-3.1,6-4.6,11.1-4.6H276.5z"/>
			<path id="XMLID_118_" class="st9" d="M289,806.1h9.4v7.5H289v19.4c0,3.5,2,5.2,6.1,5.2h3.3v7.7h-3.4c-9.6,0-14.8-3.2-14.8-11.8
				v-38.2h8.9V806.1z"/>
			<path id="XMLID_115_" class="st9" d="M335,841.2c-3.6,3.8-8.5,5.8-14.6,5.8c-6.2,0-11-2-14.7-5.8c-3.6-3.9-5.4-9-5.4-15.2
				s1.8-11.2,5.4-15c3.7-3.9,8.5-5.9,14.7-5.9c6.2,0,11,2,14.6,5.9c3.7,3.8,5.5,8.9,5.5,15S338.6,837.3,335,841.2z M320.3,812.6
				c-7.3,0-11.3,5.9-11.3,13.4c0,7.6,4,13.5,11.3,13.5c7.3,0,11.3-5.9,11.3-13.5C331.6,818.5,327.6,812.6,320.3,812.6z"/>
			<path id="XMLID_113_" class="st9" d="M367.3,816.8c-0.5-2.9-3.1-4.3-7.8-4.3c-4.8,0-7.2,1.4-7.2,4.2c0,2.4,1.6,3.4,5.1,4l7.8,1.3
				c8.1,1.3,12.1,5.4,12.1,12.4c0,3.5-1.5,6.6-4.5,9.1c-3,2.4-7.1,3.7-12.5,3.7c-11.3,0-17.4-4.9-18.3-13.1h8.9
				c0.7,3.8,3.8,5.7,9.2,5.7c5.6,0,8.4-1.7,8.4-5.2c0-3.1-1.9-4.5-6.5-5.3l-8.3-1.4c-6.3-1-10.2-4.5-10.2-10.5
				c0-7.1,5.6-12.1,16.4-12.1c9.5,0,15.5,4.5,16.4,11.7H367.3z"/>
		</g>
	</g>
</g>
<g id="XMLID_250_">
	<rect id="XMLID_317_" x="1080.7" y="762.5" class="st8" width="252.6" height="124.2"/>
	<g id="XMLID_251_">
		<g>
			<path id="XMLID_111_" class="st9" d="M1151.3,846v-3.7h-1.9c-2.4,3.1-6.3,4.7-11.8,4.7c-4.4,0-7.8-1.3-10.4-3.8
				c-2.6-2.6-3.8-5.6-3.8-9.3c0-3.6,1.3-6.7,3.9-9.4c2.6-2.7,6.6-4,11.9-4h11.8v-1.2c0-4.6-2.7-7.3-8.4-7.3c-4.9,0-7.6,1.7-8,5.1
				h-8.8c0.4-7.4,7-12.1,16.5-12.1c10.7,0,17.2,4.8,17.2,14.4V846H1151.3z M1148,836.9c2-2,3.1-4.3,3.1-7.1v-3.1h-10.2
				c-5.6,0-8.5,2.4-8.5,6.6c0,4.1,3,6.4,8.1,6.4C1143.4,839.8,1145.9,838.9,1148,836.9z"/>
			<path id="XMLID_109_" class="st9" d="M1190.5,806.1v8.2h-3.6c-8.1,0-12.5,4.6-12.5,13V846h-8.9v-39.9h8.5v4.6h1.9
				c2.3-3.1,6-4.6,11.1-4.6H1190.5z"/>
			<path id="XMLID_107_" class="st9" d="M1203,806.1h9.4v7.5h-9.4v19.4c0,3.5,2,5.2,6.1,5.2h3.3v7.7h-3.4c-9.6,0-14.8-3.2-14.8-11.8
				v-38.2h8.9V806.1z"/>
			<path id="XMLID_104_" class="st9" d="M1249,841.2c-3.6,3.8-8.5,5.8-14.6,5.8c-6.2,0-11-2-14.7-5.8c-3.6-3.9-5.4-9-5.4-15.2
				s1.8-11.2,5.4-15c3.7-3.9,8.5-5.9,14.7-5.9c6.2,0,11,2,14.6,5.9c3.7,3.8,5.5,8.9,5.5,15S1252.7,837.3,1249,841.2z M1234.3,812.6
				c-7.3,0-11.3,5.9-11.3,13.4c0,7.6,4,13.5,11.3,13.5c7.3,0,11.3-5.9,11.3-13.5C1245.6,818.5,1241.6,812.6,1234.3,812.6z"/>
			<path id="XMLID_102_" class="st9" d="M1281.3,816.8c-0.5-2.9-3.1-4.3-7.8-4.3c-4.8,0-7.2,1.4-7.2,4.2c0,2.4,1.6,3.4,5.1,4
				l7.8,1.3c8.1,1.3,12.1,5.4,12.1,12.4c0,3.5-1.5,6.6-4.5,9.1c-3,2.4-7.1,3.7-12.5,3.7c-11.3,0-17.4-4.9-18.3-13.1h8.9
				c0.7,3.8,3.8,5.7,9.2,5.7c5.6,0,8.4-1.7,8.4-5.2c0-3.1-1.9-4.5-6.5-5.3l-8.3-1.4c-6.3-1-10.2-4.5-10.2-10.5
				c0-7.1,5.6-12.1,16.4-12.1c9.5,0,15.5,4.5,16.4,11.7H1281.3z"/>
		</g>
	</g>
</g>
</svg>
