<?xml version="1.0" encoding="utf-8"?>
<!-- Generator: Adobe Illustrator 19.0.0, SVG Export Plug-In . SVG Version: 6.00 Build 0)  -->
<svg version="1.1" id="construction" xmlns="http://www.w3.org/2000/svg" xmlns:xlink="http://www.w3.org/1999/xlink" x="0px"
	 y="0px" viewBox="-74 51 1500 1000" style="enable-background:new -74 51 1500 1000;" xml:space="preserve">
<style type="text/css">
	.st0{fill:#36AFA7;}
	.st1{fill:#FFFFFF;}
</style>
<rect x="-74" y="51" class="st0" width="1500" height="1000"/>
<g id="XMLID_608_">
	<path id="XMLID_618_" class="st1" d="M375.5,672.1v-19.8h-10.1c-13.1,16.8-34,25.2-63,25.2c-23.6,0-42-6.7-55.9-20.1
		c-13.9-13.9-20.6-30.2-20.6-50c0-19.3,7.1-36.1,21-50.4c13.9-14.3,35.3-21.4,63.9-21.4h63v-6.3c0-24.8-14.7-39.1-45-39.1
		c-26.4,0-40.7,9.2-42.9,27.3h-47c2.2-39.9,37.4-64.7,88.2-64.7c57.5,0,92.4,25.6,92.4,77.3v142h-44.1V672.1L375.5,672.1z
		 M357.4,623.4c10.9-10.5,16.4-23.1,16.4-37.8v-16.4h-54.6c-29.8,0-45.4,13.1-45.4,35.3c0,21.8,16,34.5,43.3,34.5
		C333,639,346.5,633.9,357.4,623.4z"/>
	<path id="XMLID_616_" class="st1" d="M585.5,458.3v44.1h-19.3c-43.3,0-66.8,24.8-66.8,69.7v99.9h-47.5V458.3h45.8v24.8h10.1
		c12.2-16.4,32.3-24.8,59.7-24.8H585.5z"/>
	<path id="XMLID_614_" class="st1" d="M652.6,458.3H703v40.4h-50.4v104.2c0,18.9,10.9,28.2,32.8,28.2H703v41.2h-18.5
		c-51.6,0-79.3-17.2-79.3-63V404.2h47.5L652.6,458.3L652.6,458.3z"/>
	<path id="XMLID_611_" class="st1" d="M899.3,646.5c-19.3,20.6-45.4,31.1-78.5,31.1s-59.2-10.5-79-31.1c-19.3-21-29-48.3-29-81.5
		c0-33.2,9.7-60,29-80.6c19.8-21,45.8-31.5,79-31.5s59.2,10.5,78.5,31.5c19.8,20.6,29.4,47.5,29.4,80.6
		C928.7,598.2,919,625.5,899.3,646.5z M820.7,493.3c-39.1,0-60.5,31.5-60.5,71.9c0,40.7,21.4,72.2,60.5,72.2s60.5-31.5,60.5-72.2
		C881.2,524.7,859.8,493.3,820.7,493.3z"/>
	<path id="XMLID_609_" class="st1" d="M1072.6,515.5c-2.5-15.5-16.4-23.1-42-23.1c-25.6,0-38.6,7.6-38.6,22.3
		c0,13.1,8.4,18.1,27.3,21.4l41.6,6.7c43.3,7.1,65.1,29,65.1,66.4c0,18.9-7.9,35.3-24.4,48.8c-15.9,13.1-38.2,19.8-67.2,19.8
		c-60.5,0-93.3-26.4-97.9-70.1H984c3.8,20.6,20.1,30.7,49.6,30.7c29.8,0,45-9.2,45-27.7c0-16.4-10.1-24-34.9-28.5l-44.6-7.6
		c-33.6-5.5-54.6-24.4-54.6-56.3c0-38.2,30.2-65.1,87.8-65.1c50.8,0,83.1,24.4,87.8,62.7h-47.5L1072.6,515.5L1072.6,515.5z"/>
</g>
</svg>
