<?xml version="1.0" encoding="utf-8"?>
<!-- Generator: Adobe Illustrator 19.0.0, SVG Export Plug-In . SVG Version: 6.00 Build 0)  -->
<svg version="1.1" id="construction" xmlns="http://www.w3.org/2000/svg" xmlns:xlink="http://www.w3.org/1999/xlink" x="0px"
	 y="0px" viewBox="35 191 1350 900" style="enable-background:new 35 191 1350 900;" xml:space="preserve">
<style type="text/css">
	.st0{fill:none;stroke:#2BB9AF;stroke-width:1.5;stroke-miterlimit:10;}
	.st1{fill:none;stroke:#FFFFFF;stroke-width:1.5;stroke-miterlimit:10;}
	.st2{fill:none;}
	.st3{fill:none;stroke:#FFFFFF;stroke-miterlimit:10;}
	.st4{fill:#101010;stroke:#FFFFFF;stroke-miterlimit:10;}
	.st5{opacity:0;}
	.st6{fill:#101010;}
	.st7{font-family:'Formular';}
	.st8{font-size:5.3844px;}
</style>
<g id="XMLID_601_">
	<line id="XMLID_606_" class="st0" x1="41.1" y1="524.5" x2="1378.5" y2="524.5"/>
	<line id="XMLID_1_" class="st0" x1="41.1" y1="516.4" x2="1378.5" y2="516.4"/>
	<line id="XMLID_605_" class="st0" x1="41.1" y1="444.1" x2="1378.5" y2="444.1"/>
	<line id="XMLID_13_" class="st0" x1="41.1" y1="191" x2="41.1" y2="1107.6"/>
	<line id="XMLID_19_" class="st0" x1="328.9" y1="191" x2="328.9" y2="1107.6"/>
	<line id="XMLID_21_" class="st0" x1="376.9" y1="191" x2="376.9" y2="1107.6"/>
	<line id="XMLID_22_" class="st0" x1="575.4" y1="191" x2="575.4" y2="1107.6"/>
	<line id="XMLID_25_" class="st0" x1="604.5" y1="191" x2="604.5" y2="1107.6"/>
	<line id="XMLID_26_" class="st0" x1="749.9" y1="191" x2="749.9" y2="1107.6"/>
	<line id="XMLID_27_" class="st0" x1="764.4" y1="191" x2="764.4" y2="1107.6"/>
	<line id="XMLID_28_" class="st0" x1="1085.3" y1="191" x2="1085.3" y2="1107.6"/>
	<line id="XMLID_29_" class="st0" x1="1097.6" y1="191" x2="1097.6" y2="1107.6"/>
	<line id="XMLID_30_" class="st0" x1="1378.4" y1="191" x2="1378.4" y2="1107.6"/>
	<line id="XMLID_604_" class="st0" x1="41.1" y1="842.2" x2="1378.5" y2="842.2"/>
	<line id="XMLID_2_" class="st0" x1="41.2" y1="850.3" x2="1378.6" y2="850.3"/>
</g>
<g id="XMLID_608_">
	<path id="XMLID_618_" class="st1" d="M263.4,842.2v-29.4h-15c-19.4,25-50.5,37.5-93.6,37.5c-35,0-62.4-10-83-29.9
		c-20.6-20.6-30.6-44.9-30.6-74.3c0-28.7,10.6-53.7,31.2-74.9s52.4-31.8,94.9-31.8h93.6v-9.3c0-36.8-21.8-58.1-66.8-58.1
		c-39.3,0-60.5,13.7-63.7,40.6H60.5c3.2-59.3,55.6-96.1,131.1-96.1c85.5,0,137.3,38,137.3,114.9v211h-65.5L263.4,842.2L263.4,842.2z
		 M236.5,769.8c16.2-15.6,24.3-34.3,24.3-56.1v-24.4h-81.1c-44.3,0-67.4,19.4-67.4,52.4c0,32.4,23.7,51.2,64.3,51.2
		C200.2,793,220.3,785.4,236.5,769.8z"/>
	<path id="XMLID_616_" class="st1" d="M575.4,524.5V590h-28.7c-64.3,0-99.2,36.8-99.2,103.6v148.5h-70.6V524.5H445v36.8h15
		c18.1-24.3,48-36.8,88.7-36.8H575.4z"/>
	<path id="XMLID_614_" class="st1" d="M675.1,524.5H750v60h-74.9v154.8c0,28.1,16.2,41.9,48.7,41.9H750v61.2h-27.5
		c-76.7,0-117.9-25.5-117.9-93.6V444.1h70.6L675.1,524.5L675.1,524.5z"/>
	<path id="XMLID_611_" class="st1" d="M1041.7,804.1c-28.7,30.6-67.4,46.2-116.7,46.2s-88-15.6-117.4-46.2
		c-28.7-31.2-43.1-71.8-43.1-121.1s14.4-89.2,43.1-119.8C837,532,875.7,516.4,925,516.4s88,15.6,116.7,46.8
		c29.4,30.6,43.7,70.6,43.7,119.8C1085.3,732.3,1070.9,772.9,1041.7,804.1z M924.9,576.4c-58.1,0-89.9,46.8-89.9,106.8
		c0,60.5,31.8,107.3,89.9,107.3s89.9-46.8,89.9-107.3C1014.8,623.2,983,576.4,924.9,576.4z"/>
	<path id="XMLID_609_" class="st1" d="M1299.1,609.4c-3.7-23.1-24.3-34.3-62.4-34.3c-38,0-57.4,11.3-57.4,33.1
		c0,19.4,12.5,26.9,40.6,31.8l61.8,10c64.3,10.6,96.8,43.1,96.8,98.7c0,28.1-11.8,52.4-36.2,72.5c-23.7,19.4-56.8,29.4-99.9,29.4
		c-89.9,0-138.6-39.3-145.5-104.2h70.6c5.6,30.6,29.9,45.6,73.7,45.6c44.3,0,66.8-13.7,66.8-41.2c0-24.3-15-35.6-51.8-42.4
		l-66.2-11.3c-50-8.1-81.1-36.2-81.1-83.6c0-56.8,44.9-96.8,130.4-96.8c75.5,0,123.5,36.2,130.4,93.1h-70.6L1299.1,609.4
		L1299.1,609.4z"/>
</g>
<line id="XMLID_607_" class="st2" x1="51" y1="799.8" x2="94.7" y2="843.4"/>
<g id="XMLID_291_">
	<line id="XMLID_596_" class="st3" x1="63.5" y1="556.4" x2="60.7" y2="607"/>
	<circle id="XMLID_595_" class="st4" cx="60.4" cy="612.5" r="5.5"/>
	<circle id="XMLID_594_" class="st4" cx="130.3" cy="612.5" r="5.5"/>
	<circle id="XMLID_593_" class="st4" cx="194.2" cy="572" r="5.5"/>
	<circle id="XMLID_592_" class="st4" cx="191" cy="516.4" r="5.5"/>
	<circle id="XMLID_591_" class="st4" cx="328.9" cy="627.3" r="5.5"/>
	<circle id="XMLID_590_" class="st4" cx="376.9" cy="842.2" r="5.5"/>
	<circle id="XMLID_589_" class="st4" cx="447.5" cy="842.2" r="5.5"/>
	<circle id="XMLID_588_" class="st4" cx="604.5" cy="748.6" r="5.5"/>
	<circle id="XMLID_587_" class="st4" cx="720.3" cy="842.2" r="5.5"/>
	<circle id="XMLID_586_" class="st4" cx="749.9" cy="842.2" r="5.5"/>
	<circle id="XMLID_585_" class="st4" cx="749.9" cy="781" r="5.5"/>
	<circle id="XMLID_584_" class="st4" cx="723.7" cy="781" r="5.5"/>
	<circle id="XMLID_583_" class="st4" cx="675.1" cy="739.3" r="5.5"/>
	<circle id="XMLID_582_" class="st4" cx="447.5" cy="693.7" r="5.5"/>
	<circle id="XMLID_581_" class="st4" cx="546.7" cy="590.1" r="5.5"/>
	<circle id="XMLID_580_" class="st4" cx="575.4" cy="590.1" r="5.5"/>
	<circle id="XMLID_579_" class="st4" cx="575.4" cy="524.5" r="5.5"/>
	<circle id="XMLID_578_" class="st4" cx="675.2" cy="524.5" r="5.5"/>
	<circle id="XMLID_577_" class="st4" cx="675.2" cy="584.6" r="5.5"/>
	<circle id="XMLID_576_" class="st4" cx="749.9" cy="584.6" r="5.5"/>
	<circle id="XMLID_575_" class="st4" cx="749.9" cy="524.5" r="5.5"/>
	<circle id="XMLID_574_" class="st4" cx="675.2" cy="444.1" r="5.5"/>
	<circle id="XMLID_573_" class="st4" cx="604.5" cy="444.1" r="5.5"/>
	<circle id="XMLID_572_" class="st4" cx="550.8" cy="524.5" r="5.5"/>
	<circle id="XMLID_571_" class="st4" cx="460.2" cy="561.3" r="5.5"/>
	<circle id="XMLID_570_" class="st4" cx="445.2" cy="561.3" r="5.5"/>
	<circle id="XMLID_569_" class="st4" cx="445.2" cy="524.5" r="5.5"/>
	<circle id="XMLID_568_" class="st4" cx="376.9" cy="524.5" r="5.5"/>
	<circle id="XMLID_567_" class="st4" cx="260.8" cy="639.4" r="5.5"/>
	<circle id="XMLID_566_" class="st4" cx="260.8" cy="689.3" r="5.5"/>
	<circle id="XMLID_565_" class="st4" cx="260.8" cy="714.2" r="5.5"/>
	<circle id="XMLID_564_" class="st4" cx="179.7" cy="689.3" r="5.5"/>
	<circle id="XMLID_563_" class="st4" cx="72.8" cy="670" r="5.5"/>
	<circle id="XMLID_562_" class="st4" cx="167.2" cy="639.4" r="5.5"/>
	<circle id="XMLID_561_" class="st4" cx="112.3" cy="741.4" r="5.5"/>
	<circle id="XMLID_560_" class="st4" cx="41.1" cy="746" r="5.5"/>
	<circle id="XMLID_559_" class="st4" cx="72.1" cy="820.8" r="5.5"/>
	<circle id="XMLID_558_" class="st4" cx="153.3" cy="850.3" r="5.5"/>
	<circle id="XMLID_557_" class="st4" cx="176.7" cy="793" r="5.5"/>
	<circle id="XMLID_556_" class="st4" cx="235.8" cy="770.5" r="5.5"/>
	<circle id="XMLID_555_" class="st4" cx="248.3" cy="812.9" r="6.5"/>
	<circle id="XMLID_554_" class="st4" cx="263.1" cy="812.9" r="6.5"/>
	<circle id="XMLID_553_" class="st4" cx="263.1" cy="842.2" r="5.5"/>
	<circle id="XMLID_552_" class="st4" cx="328.9" cy="842.2" r="5.5"/>
	<circle id="XMLID_551_" class="st4" cx="63.5" cy="553.2" r="3.3"/>
	<circle id="XMLID_550_" class="st4" cx="133.5" cy="583.4" r="3.3"/>
	<circle id="XMLID_549_" class="st4" cx="124.7" cy="639.4" r="3.3"/>
	<circle id="XMLID_548_" class="st4" cx="93.7" cy="648.3" r="3.3"/>
	<circle id="XMLID_547_" class="st4" cx="51.7" cy="692.4" r="3.3"/>
	<circle id="XMLID_546_" class="st4" cx="133.5" cy="689.3" r="3.3"/>
	<circle id="XMLID_545_" class="st4" cx="112.3" cy="707.4" r="3.3"/>
	<circle id="XMLID_544_" class="st4" cx="41.1" cy="716.7" r="3.3"/>
	<circle id="XMLID_543_" class="st4" cx="41.1" cy="775.4" r="3.3"/>
	<circle id="XMLID_542_" class="st4" cx="112.3" cy="775.4" r="3.3"/>
	<circle id="XMLID_541_" class="st4" cx="136" cy="793" r="3.3"/>
	<circle id="XMLID_540_" class="st4" cx="51" cy="799.8" r="3.3"/>
	<circle id="XMLID_539_" class="st4" cx="92.3" cy="840.9" r="3.3"/>
	<circle id="XMLID_538_" class="st4" cx="119.8" cy="850.3" r="3.3"/>
	<circle id="XMLID_537_" class="st4" cx="204.9" cy="850.3" r="3.3"/>
	<circle id="XMLID_536_" class="st4" cx="229.3" cy="838.6" r="3.3"/>
	<circle id="XMLID_535_" class="st4" cx="200.4" cy="793" r="3.3"/>
	<circle id="XMLID_534_" class="st4" cx="220.3" cy="785.8" r="3.3"/>
	<circle id="XMLID_533_" class="st4" cx="254.3" cy="752.2" r="3.3"/>
	<circle id="XMLID_532_" class="st4" cx="260.8" cy="735.5" r="3.3"/>
	<circle id="XMLID_531_" class="st4" cx="154.7" cy="572" r="3.3"/>
	<circle id="XMLID_530_" class="st4" cx="236.1" cy="572" r="3.3"/>
	<circle id="XMLID_529_" class="st4" cx="276.7" cy="516.4" r="3.3"/>
	<circle id="XMLID_528_" class="st4" cx="508" cy="524.5" r="3.3"/>
	<circle id="XMLID_527_" class="st4" cx="478.9" cy="536.2" r="3.3"/>
	<circle id="XMLID_526_" class="st4" cx="482.1" cy="590.1" r="3.3"/>
	<circle id="XMLID_525_" class="st4" cx="644.5" cy="842.2" r="3.3"/>
	<circle id="XMLID_524_" class="st4" cx="604.5" cy="815.1" r="3.3"/>
	<circle id="XMLID_523_" class="st4" cx="675.1" cy="769.6" r="3.3"/>
	<circle id="XMLID_522_" class="st4" cx="688.8" cy="781" r="3.3"/>
	<circle id="XMLID_521_" class="st4" cx="447.5" cy="627" r="3.3"/>
	<circle id="XMLID_520_" class="st4" cx="114.2" cy="516.4" r="3.3"/>
	<circle id="XMLID_519_" class="st4" cx="260.8" cy="593.1" r="3.3"/>
	<circle id="XMLID_518_" class="st4" cx="328.9" cy="554.4" r="3.3"/>
	<line id="XMLID_517_" class="st3" x1="133.2" y1="586.7" x2="130.9" y2="607"/>
	<line id="XMLID_516_" class="st3" x1="157.9" y1="572" x2="188.7" y2="572"/>
	<line id="XMLID_515_" class="st3" x1="199.7" y1="572" x2="232.9" y2="572"/>
	<line id="XMLID_514_" class="st3" x1="260.8" y1="633.9" x2="260.8" y2="596.4"/>
	<line id="XMLID_513_" class="st3" x1="117.4" y1="516.4" x2="185.5" y2="516.4"/>
	<line id="XMLID_512_" class="st3" x1="196.5" y1="516.4" x2="273.4" y2="516.4"/>
	<line id="XMLID_511_" class="st3" x1="328.9" y1="557.7" x2="328.9" y2="621.8"/>
	<line id="XMLID_510_" class="st3" x1="231.3" y1="836.1" x2="244.4" y2="818.3"/>
	<line id="XMLID_509_" class="st3" x1="123.1" y1="850.3" x2="147.8" y2="850.3"/>
	<line id="XMLID_508_" class="st3" x1="158.8" y1="850.3" x2="201.7" y2="850.3"/>
	<line id="XMLID_507_" class="st3" x1="76.7" y1="666.2" x2="91.4" y2="650.6"/>
	<line id="XMLID_506_" class="st3" x1="54.1" y1="689.9" x2="69" y2="674.1"/>
	<line id="XMLID_505_" class="st3" x1="41.1" y1="740.6" x2="41.1" y2="719.9"/>
	<line id="XMLID_504_" class="st3" x1="41.1" y1="772.3" x2="41.1" y2="751.6"/>
	<line id="XMLID_503_" class="st3" x1="128" y1="639.4" x2="161.7" y2="639.4"/>
	<line id="XMLID_502_" class="st3" x1="136.8" y1="689.3" x2="174.1" y2="689.3"/>
	<line id="XMLID_501_" class="st3" x1="112.3" y1="710.7" x2="112.3" y2="735.9"/>
	<line id="XMLID_500_" class="st3" x1="112.3" y1="746.9" x2="112.3" y2="772.1"/>
	<line id="XMLID_485_" class="st3" x1="139.3" y1="793" x2="171.2" y2="793"/>
	<line id="XMLID_484_" class="st3" x1="181.9" y1="793" x2="197.1" y2="793"/>
	<line id="XMLID_483_" class="st3" x1="260.8" y1="732.2" x2="260.8" y2="719.7"/>
	<line id="XMLID_482_" class="st3" x1="476.7" y1="538.7" x2="463.2" y2="556.8"/>
	<line id="XMLID_481_" class="st3" x1="485.6" y1="590.1" x2="541.2" y2="590.1"/>
	<line id="XMLID_480_" class="st3" x1="447.5" y1="688.2" x2="447.5" y2="630.1"/>
	<line id="XMLID_479_" class="st3" x1="675.1" y1="744.7" x2="675.1" y2="766.3"/>
	<line id="XMLID_477_" class="st3" x1="718.2" y1="781" x2="692.1" y2="781"/>
	<line id="XMLID_476_" class="st3" x1="714.8" y1="842.2" x2="647.7" y2="842.2"/>
	<line id="XMLID_475_" class="st3" x1="604.5" y1="754" x2="604.5" y2="811.9"/>
	<line id="XMLID_474_" class="st3" x1="222.5" y1="783.5" x2="231.5" y2="774.6"/>
	<line id="XMLID_473_" class="st3" x1="239.9" y1="766.5" x2="252" y2="754.5"/>
	<line id="XMLID_471_" class="st3" x1="75.9" y1="824.7" x2="90" y2="838.5"/>
	<line id="XMLID_470_" class="st3" x1="53.4" y1="802.1" x2="68" y2="816.7"/>
	<circle id="XMLID_468_" class="st4" cx="924.9" cy="790.4" r="5.5"/>
	<circle id="XMLID_467_" class="st4" cx="924.9" cy="850.3" r="5.5"/>
	<circle id="XMLID_465_" class="st4" cx="924.9" cy="516.4" r="5.5"/>
	<circle id="XMLID_464_" class="st4" cx="924.9" cy="576.4" r="5.5"/>
	<circle id="XMLID_462_" class="st4" cx="774.7" cy="769.6" r="3.3"/>
	<circle id="XMLID_461_" class="st4" cx="838.1" cy="835" r="3.3"/>
	<circle id="XMLID_459_" class="st4" cx="872.8" cy="850.3" r="3.3"/>
	<circle id="XMLID_458_" class="st4" cx="863.9" cy="790.4" r="3.3"/>
	<circle id="XMLID_456_" class="st4" cx="834.9" cy="745.6" r="3.3"/>
	<circle id="XMLID_455_" class="st4" cx="764.4" cy="733.3" r="3.3"/>
	<circle id="XMLID_453_" class="st4" cx="835" cy="621.1" r="3.3"/>
	<circle id="XMLID_452_" class="st4" cx="764.4" cy="633.4" r="3.3"/>
	<circle id="XMLID_450_" class="st4" cx="774.1" cy="598" r="3.3"/>
	<circle id="XMLID_449_" class="st4" cx="837.6" cy="532.5" r="3.3"/>
	<circle id="XMLID_447_" class="st4" cx="863.9" cy="576.4" r="3.3"/>
	<circle id="XMLID_446_" class="st4" cx="872.8" cy="516.4" r="3.3"/>
	<line id="XMLID_444_" class="st3" x1="867.2" y1="576.4" x2="919.4" y2="576.4"/>
	<line id="XMLID_443_" class="st3" x1="867.2" y1="790.4" x2="919.4" y2="790.4"/>
	<line id="XMLID_441_" class="st3" x1="876.1" y1="516.4" x2="919.4" y2="516.4"/>
	<line id="XMLID_440_" class="st3" x1="876.1" y1="850.3" x2="919.4" y2="850.3"/>
	<line id="XMLID_438_" class="st3" x1="764.4" y1="636.7" x2="764.4" y2="677.9"/>
	<line id="XMLID_437_" class="st3" x1="764.4" y1="688.9" x2="764.4" y2="730.1"/>
	<line id="XMLID_435_" class="st3" x1="835" y1="624.4" x2="835" y2="678"/>
	<line id="XMLID_434_" class="st3" x1="835" y1="688.9" x2="835" y2="742.4"/>
	<circle id="XMLID_432_" class="st4" cx="835" cy="683.4" r="5.5"/>
	<circle id="XMLID_431_" class="st4" cx="764.4" cy="683.4" r="5.5"/>
	<circle id="XMLID_429_" class="st4" cx="808.1" cy="804.4" r="5.5"/>
	<circle id="XMLID_428_" class="st4" cx="807.3" cy="564.1" r="5.5"/>
	<line id="XMLID_426_" class="st3" x1="835" y1="535.1" x2="810.9" y2="559.9"/>
	<line id="XMLID_425_" class="st3" x1="803.3" y1="567.9" x2="776.4" y2="595.6"/>
	<line id="XMLID_424_" class="st3" x1="776.8" y1="772" x2="804.4" y2="800.3"/>
	<line id="XMLID_422_" class="st3" x1="812.1" y1="808.3" x2="835.9" y2="832.7"/>
	<circle id="XMLID_421_" class="st4" cx="1075.2" cy="769.6" r="3.3"/>
	<circle id="XMLID_420_" class="st4" cx="1011.8" cy="835" r="3.3"/>
	<circle id="XMLID_419_" class="st4" cx="977" cy="850.3" r="3.3"/>
	<circle id="XMLID_418_" class="st4" cx="985.9" cy="790.4" r="3.3"/>
	<circle id="XMLID_416_" class="st4" cx="1015" cy="745.6" r="3.3"/>
	<circle id="XMLID_415_" class="st4" cx="1085.3" cy="733.3" r="3.3"/>
	<circle id="XMLID_413_" class="st4" cx="1014.8" cy="621.1" r="3.3"/>
	<circle id="XMLID_412_" class="st4" cx="1085.3" cy="633.4" r="3.3"/>
	<circle id="XMLID_410_" class="st4" cx="1075.7" cy="598" r="3.3"/>
	<circle id="XMLID_409_" class="st4" cx="1012.2" cy="532.5" r="3.3"/>
	<circle id="XMLID_407_" class="st4" cx="985.9" cy="576.4" r="3.3"/>
	<circle id="XMLID_406_" class="st4" cx="977" cy="516.4" r="3.3"/>
	<line id="XMLID_404_" class="st3" x1="982.6" y1="576.4" x2="930.4" y2="576.4"/>
	<line id="XMLID_403_" class="st3" x1="982.6" y1="790.4" x2="930.4" y2="790.4"/>
	<line id="XMLID_401_" class="st3" x1="973.7" y1="516.4" x2="930.4" y2="516.4"/>
	<line id="XMLID_400_" class="st3" x1="973.7" y1="850.3" x2="930.4" y2="850.3"/>
	<line id="XMLID_398_" class="st3" x1="1085.3" y1="636.7" x2="1085.3" y2="677.9"/>
	<line id="XMLID_397_" class="st3" x1="1085.3" y1="688.9" x2="1085.3" y2="730.1"/>
	<line id="XMLID_395_" class="st3" x1="1014.8" y1="624.4" x2="1014.8" y2="678"/>
	<line id="XMLID_394_" class="st3" x1="1014.8" y1="688.9" x2="1014.8" y2="742.4"/>
	<circle id="XMLID_392_" class="st4" cx="1014.8" cy="683.4" r="5.5"/>
	<circle id="XMLID_391_" class="st4" cx="1085.3" cy="683.4" r="5.5"/>
	<circle id="XMLID_389_" class="st4" cx="1041.8" cy="804.4" r="5.5"/>
	<circle id="XMLID_388_" class="st4" cx="1042.6" cy="564.1" r="5.5"/>
	<line id="XMLID_386_" class="st3" x1="1014.8" y1="535.1" x2="1038.9" y2="559.9"/>
	<line id="XMLID_385_" class="st3" x1="1046.5" y1="567.9" x2="1073.4" y2="595.6"/>
	<line id="XMLID_383_" class="st3" x1="1073.1" y1="772" x2="1045.4" y2="800.3"/>
	<line id="XMLID_382_" class="st3" x1="1037.8" y1="808.3" x2="1014" y2="832.7"/>
	<line id="XMLID_380_" class="st3" x1="1103.2" y1="807.8" x2="1097.6" y2="751.7"/>
	<line id="XMLID_379_" class="st3" x1="1172.4" y1="773.5" x2="1168.4" y2="751.7"/>
	<line id="XMLID_377_" class="st3" x1="1243.1" y1="850.3" x2="1284.5" y2="850.3"/>
	<line id="XMLID_376_" class="st3" x1="1155.1" y1="850.3" x2="1232.1" y2="850.3"/>
	<line id="XMLID_375_" class="st3" x1="1245.7" y1="791.7" x2="1284.5" y2="791.7"/>
	<line id="XMLID_374_" class="st3" x1="1200.7" y1="791.7" x2="1235.1" y2="791.7"/>
	<line id="XMLID_373_" class="st3" x1="1378.4" y1="741.8" x2="1378.4" y2="695.6"/>
	<line id="XMLID_371_" class="st3" x1="1378.4" y1="773.4" x2="1378.4" y2="752.7"/>
	<line id="XMLID_370_" class="st3" x1="1307.9" y1="729.4" x2="1307.9" y2="747.1"/>
	<line id="XMLID_369_" class="st3" x1="1307.9" y1="758.1" x2="1307.9" y2="776.2"/>
	<line id="XMLID_368_" class="st3" x1="1289.7" y1="714.3" x2="1143.9" y2="688.4"/>
	<line id="XMLID_367_" class="st3" x1="1108.6" y1="559.4" x2="1108.6" y2="607.5"/>
	<line id="XMLID_366_" class="st3" x1="1108.6" y1="618.6" x2="1108.6" y2="662.6"/>
	<line id="XMLID_365_" class="st3" x1="1342.7" y1="660.1" x2="1195.4" y2="635.7"/>
	<line id="XMLID_364_" class="st3" x1="1179.3" y1="589.5" x2="1179.3" y2="602.6"/>
	<line id="XMLID_363_" class="st3" x1="1179.3" y1="613.7" x2="1179.3" y2="625.4"/>
	<line id="XMLID_362_" class="st3" x1="1242.5" y1="575" x2="1272" y2="575"/>
	<line id="XMLID_361_" class="st3" x1="1202.3" y1="575" x2="1231.6" y2="575"/>
	<line id="XMLID_359_" class="st3" x1="1295.9" y1="589.5" x2="1298.5" y2="603.9"/>
	<line id="XMLID_358_" class="st3" x1="1314.8" y1="516.4" x2="1152.2" y2="516.4"/>
	<circle id="XMLID_357_" class="st4" cx="1096.8" cy="746.2" r="5.5"/>
	<circle id="XMLID_356_" class="st4" cx="1167.4" cy="746.2" r="5.5"/>
	<circle id="XMLID_355_" class="st4" cx="1240.6" cy="791.7" r="5.5"/>
	<circle id="XMLID_354_" class="st4" cx="1237.6" cy="850.3" r="5.5"/>
	<circle id="XMLID_353_" class="st4" cx="1378.4" cy="747.2" r="5.5"/>
	<circle id="XMLID_352_" class="st4" cx="1307.9" cy="752.6" r="5.5"/>
	<circle id="XMLID_351_" class="st4" cx="1255.8" cy="708.3" r="5.5"/>
	<circle id="XMLID_350_" class="st4" cx="1189.4" cy="696.4" r="5.5"/>
	<circle id="XMLID_349_" class="st4" cx="1219.2" cy="639.7" r="5.5"/>
	<circle id="XMLID_347_" class="st4" cx="1179.3" cy="608.2" r="5.5"/>
	<circle id="XMLID_346_" class="st4" cx="1237" cy="575" r="5.5"/>
	<circle id="XMLID_344_" class="st4" cx="1299.1" cy="609.4" r="5.5"/>
	<circle id="XMLID_343_" class="st4" cx="1369.7" cy="609.4" r="5.5"/>
	<circle id="XMLID_342_" class="st4" cx="1239.1" cy="516.4" r="5.5"/>
	<circle id="XMLID_340_" class="st4" cx="1108.6" cy="613" r="5.5"/>
	<circle id="XMLID_339_" class="st4" cx="1279.8" cy="649.7" r="5.5"/>
	<circle id="XMLID_338_" class="st4" cx="1103.7" cy="811.1" r="3.3"/>
	<circle id="XMLID_337_" class="st4" cx="1173" cy="776.6" r="3.3"/>
	<circle id="XMLID_334_" class="st4" cx="1197.4" cy="791.7" r="3.3"/>
	<circle id="XMLID_333_" class="st4" cx="1152.4" cy="850.3" r="3.3"/>
	<circle id="XMLID_332_" class="st4" cx="1287.8" cy="850.3" r="3.3"/>
	<circle id="XMLID_329_" class="st4" cx="1378.4" cy="776.6" r="3.3"/>
	<circle id="XMLID_326_" class="st4" cx="1378.4" cy="692.4" r="3.3"/>
	<circle id="XMLID_315_" class="st4" cx="1345.9" cy="660.6" r="3.3"/>
	<circle id="XMLID_313_" class="st4" cx="1287.8" cy="791.7" r="3.3"/>
	<circle id="XMLID_311_" class="st4" cx="1307.9" cy="779.5" r="3.3"/>
	<circle id="XMLID_310_" class="st4" cx="1307.9" cy="726.1" r="3.3"/>
	<circle id="XMLID_309_" class="st4" cx="1292.8" cy="714.9" r="3.3"/>
	<circle id="XMLID_308_" class="st4" cx="1140.7" cy="687.9" r="3.3"/>
	<circle id="XMLID_307_" class="st4" cx="1108.6" cy="665.1" r="3.3"/>
	<circle id="XMLID_306_" class="st4" cx="1192.2" cy="635.1" r="3.3"/>
	<circle id="XMLID_297_" class="st4" cx="1179.3" cy="628.7" r="3.3"/>
	<circle id="XMLID_298_" class="st4" cx="1179.3" cy="586.3" r="3.3"/>
	<circle id="XMLID_299_" class="st4" cx="1108.6" cy="555.7" r="3.3"/>
	<circle id="XMLID_300_" class="st4" cx="1198.7" cy="575" r="3.3"/>
	<circle id="XMLID_301_" class="st4" cx="1275.3" cy="575" r="3.3"/>
	<circle id="XMLID_304_" class="st4" cx="1314.8" cy="516.4" r="3.3"/>
	<circle id="XMLID_305_" class="st4" cx="1363.2" cy="551.8" r="3.3"/>
	<circle id="XMLID_302_" class="st4" cx="1295.4" cy="586.3" r="3.3"/>
	<circle id="XMLID_303_" class="st4" cx="1152.2" cy="516.4" r="3.3"/>
	<line id="XMLID_296_" class="st3" x1="1363.5" y1="555.1" x2="1369" y2="603.9"/>
	<circle id="XMLID_295_" class="st4" cx="1341.6" cy="822.1" r="5.5"/>
	<circle id="XMLID_294_" class="st4" cx="1318.5" cy="840.3" r="3.3"/>
	<circle id="XMLID_293_" class="st4" cx="1368.2" cy="800.3" r="3.3"/>
	<line id="XMLID_292_" class="st3" x1="1345.7" y1="818.5" x2="1365.6" y2="802.4"/>
	<line id="XMLID_312_" class="st3" x1="1321.1" y1="838.4" x2="1337.1" y2="825.1"/>
</g>
<g id="XMLID_478_" class="st5">
	<g id="XMLID_288_">
		<text transform="matrix(1 0 0 1 179.7865 507.3317)" class="st6 st7 st8">565.695</text>
	</g>
	<g id="XMLID_285_">
		<text transform="matrix(1 0 0 1 51.9207 627.1915)" class="st6 st7 st8">305.22</text>
	</g>
	<g id="XMLID_282_">
		<text transform="matrix(1 0 0 1 129.8308 625.4308)" class="st6 st7 st8">444.551 </text>
	</g>
	<g id="XMLID_279_">
		<text transform="matrix(1 0 0 1 167.7932 629.6901)" class="st6 st7 st8">518.106</text>
	</g>
	<g id="XMLID_341_">
		<text transform="matrix(1 0 0 1 232.8336 631.9543)" class="st6 st7 st8">704.822</text>
	</g>
	<g id="XMLID_274_">
		<text transform="matrix(1 0 0 1 183.9502 563.2518)" class="st6 st7 st8">571.883</text>
	</g>
	<g id="XMLID_271_">
		<text transform="matrix(1 0 0 1 100.6259 633.5374)" class="st6 st7 st8">433.466</text>
	</g>
	<g id="XMLID_316_">
		<text transform="matrix(1 0 0 1 338.6894 629.6901)" class="st6 st7 st8">840.5 </text>
	</g>
	<g id="XMLID_266_">
		<text transform="matrix(1 0 0 1 366.4192 513.1237)" class="st6 st7 st8">936.344</text>
	</g>
	<g id="XMLID_263_">
		<text transform="matrix(1 0 0 1 433.5001 513.1237)" class="st6 st7 st8">1072.501</text>
	</g>
	<g id="XMLID_260_">
		<text transform="matrix(1 0 0 1 416.1957 554.4651)" class="st6 st7 st8">1072.501</text>
	</g>
	<g id="XMLID_223_">
		<text transform="matrix(1 0 0 1 458.2856 694.812)" class="st6 st7 st8">1077.001</text>
	</g>
	<g id="XMLID_220_">
		<text transform="matrix(1 0 0 1 435.7682 856.8707)" class="st6 st7 st8">1077.001</text>
	</g>
	<g id="XMLID_215_">
		<text transform="matrix(1 0 0 1 366.4192 856.8707)" class="st6 st7 st8">936.344</text>
	</g>
	<g id="XMLID_212_">
		<text transform="matrix(1 0 0 1 469.3424 563.7454)" class="st6 st7 st8">1102.368</text>
	</g>
	<g id="XMLID_209_">
		<text transform="matrix(1 0 0 1 535.5396 513.1237)" class="st6 st7 st8">1282.918</text>
	</g>
	<g id="XMLID_203_">
		<text transform="matrix(1 0 0 1 567.5449 513.1237)" class="st6 st7 st8">1332.175</text>
	</g>
	<g id="XMLID_199_">
		<text transform="matrix(1 0 0 1 592.7722 432.8882)" class="st6 st7 st8">1390.142</text>
	</g>
	<g id="XMLID_378_">
		<text transform="matrix(1 0 0 1 570.2119 749.5842)" class="st6 st7 st8">1390.142</text>
	</g>
	<g id="XMLID_314_">
		<text transform="matrix(1 0 0 1 663.7805 432.8882)" class="st6 st7 st8">1531.145</text>
	</g>
	<g id="XMLID_328_">
		<text transform="matrix(1 0 0 1 681.0839 516.385)" class="st6 st7 st8">1531.145</text>
	</g>
	<g id="XMLID_345_">
		<text transform="matrix(1 0 0 1 682.8348 594.6697)" class="st6 st7 st8">1531.145</text>
	</g>
	<g id="XMLID_372_">
		<text transform="matrix(1 0 0 1 685.0927 741.1027)" class="st6 st7 st8">1531.145</text>
	</g>
	<g id="XMLID_348_">
		<text transform="matrix(1 0 0 1 756.0974 577.6221)" class="st6 st7 st8">1680.173</text>
	</g>
	<g id="XMLID_393_">
		<text transform="matrix(1 0 0 1 775.5723 559.9617)" class="st6 st7 st8">1794.454</text>
	</g>
	<g id="XMLID_182_">
		<text transform="matrix(1 0 0 1 912.6688 505.5474)" class="st6 st7 st8">2029.036</text>
	</g>
	<g id="XMLID_219_">
		<text transform="matrix(1 0 0 1 912.6688 590.0393)" class="st6 st7 st8">2029.036</text>
	</g>
	<g id="XMLID_417_">
		<text transform="matrix(1 0 0 1 1052.3239 561.2108)" class="st6 st7 st8">2263.631</text>
	</g>
	<g id="XMLID_423_">
		<text transform="matrix(1 0 0 1 1094.7491 684.601)" class="st6 st7 st8">2348.951</text>
	</g>
	<g id="XMLID_427_">
		<text transform="matrix(1 0 0 1 1079.0703 614.896)" class="st6 st7 st8">2395.33</text>
	</g>
	<g id="XMLID_430_">
		<text transform="matrix(1 0 0 1 1227.0184 505.5484)" class="st6 st7 st8">2655.357</text>
	</g>
	<g id="XMLID_433_">
		<text transform="matrix(1 0 0 1 1188.7621 609.8706)" class="st6 st7 st8">2536.258</text>
	</g>
	<g id="XMLID_436_">
		<text transform="matrix(1 0 0 1 1207.3571 629.6901)" class="st6 st7 st8">2615.962</text>
	</g>
	<g id="XMLID_439_">
		<text transform="matrix(1 0 0 1 1225.9091 589.4953)" class="st6 st7 st8">2651.514</text>
	</g>
	<g id="XMLID_442_">
		<text transform="matrix(1 0 0 1 1268.0131 638.3944)" class="st6 st7 st8">2736.681</text>
	</g>
	<g id="XMLID_445_">
		<text transform="matrix(1 0 0 1 1287.483 624.4611)" class="st6 st7 st8">2775.251</text>
	</g>
	<g id="XMLID_472_">
		<text transform="matrix(1 0 0 1 1358.1538 624.4611)" class="st6 st7 st8">2915.905</text>
	</g>
	<g id="XMLID_448_">
		<text transform="matrix(1 0 0 1 1177.2346 711.6404)" class="st6 st7 st8">2556.435</text>
	</g>
	<g id="XMLID_460_">
		<text transform="matrix(1 0 0 1 1155.4414 735.6934)" class="st6 st7 st8">2512.606</text>
	</g>
	<g id="XMLID_463_">
		<text transform="matrix(1 0 0 1 1098.9749 736.6124)" class="st6 st7 st8">2371.946</text>
	</g>
	<g id="XMLID_466_">
		<text transform="matrix(1 0 0 1 1227.0897 864.8884)" class="st6 st7 st8">2652.64</text>
	</g>
	<g id="XMLID_469_">
		<text transform="matrix(1 0 0 1 1349.3168 832.8031)" class="st6 st7 st8">2859.912</text>
	</g>
	<g id="XMLID_17_">
		<text transform="matrix(1 0 0 1 1388.0468 748.551)" class="st6 st7 st8">2933.333</text>
	</g>
	<g id="XMLID_451_">
		<text transform="matrix(1 0 0 1 1243.6144 723.8788)" class="st6 st7 st8">2688.833</text>
	</g>
	<g id="XMLID_454_">
		<text transform="matrix(1 0 0 1 1276.3901 754.4534)" class="st6 st7 st8">2792.68</text>
	</g>
	<g id="XMLID_457_">
		<text transform="matrix(1 0 0 1 1228.6483 781.5426)" class="st6 st7 st8">2658.681</text>
	</g>
	<g id="XMLID_396_">
		<text transform="matrix(1 0 0 1 912.6668 779.1149)" class="st6 st7 st8">2029.036</text>
	</g>
	<g id="XMLID_399_">
		<text transform="matrix(1 0 0 1 912.6668 864.8884)" class="st6 st7 st8">2029.036</text>
	</g>
	<g id="XMLID_402_">
		<text transform="matrix(1 0 0 1 781.2393 817.004)" class="st6 st7 st8">1796.057</text>
	</g>
	<g id="XMLID_405_">
		<text transform="matrix(1 0 0 1 731.2339 684.8676)" class="st6 st7 st8">1709.134</text>
	</g>
	<g id="XMLID_408_">
		<text transform="matrix(1 0 0 1 844.9854 684.8676)" class="st6 st7 st8">1849.794</text>
	</g>
	<g id="XMLID_411_">
		<text transform="matrix(1 0 0 1 982.5106 684.8676)" class="st6 st7 st8">2208.29</text>
	</g>
	<g id="XMLID_414_">
		<text transform="matrix(1 0 0 1 1047.1919 815.751)" class="st6 st7 st8">2262.027</text>
	</g>
	<g id="XMLID_381_">
		<text transform="matrix(1 0 0 1 740.0485 769.6196)" class="st6 st7 st8">1680.173</text>
	</g>
	<g id="XMLID_387_">
		<text transform="matrix(1 0 0 1 738.3228 856.8707)" class="st6 st7 st8">1680.173</text>
	</g>
	<g id="XMLID_384_">
		<text transform="matrix(1 0 0 1 708.4514 769.6196)" class="st6 st7 st8">1627.895</text>
	</g>
	<g id="XMLID_390_">
		<text transform="matrix(1 0 0 1 714.2405 856.8707)" class="st6 st7 st8">1621</text>
	</g>
	<g id="XMLID_360_">
		<text transform="matrix(1 0 0 1 754.8435 516.385)" class="st6 st7 st8">1680.173</text>
	</g>
	<g id="XMLID_3_">
		<text transform="matrix(1 0 0 1 564.035 604.6454)" class="st6 st7 st8">1332.175</text>
	</g>
	<g id="XMLID_4_">
		<text transform="matrix(1 0 0 1 531.9575 604.6454)" class="st6 st7 st8">1274.918</text>
	</g>
	<g id="XMLID_317_">
		<text transform="matrix(1 0 0 1 320.6355 856.8707)" class="st6 st7 st8">840.5 </text>
	</g>
	<g id="XMLID_318_">
		<text transform="matrix(1 0 0 1 254.245 856.8707)" class="st6 st7 st8">709.49</text>
	</g>
	<g id="XMLID_321_">
		<text transform="matrix(1 0 0 1 142.7202 864.8874)" class="st6 st7 st8">490.401</text>
	</g>
	<g id="XMLID_322_">
		<text transform="matrix(1 0 0 1 49.8552 832.8021)" class="st6 st7 st8">328.49</text>
	</g>
	<g id="XMLID_323_">
		<text transform="matrix(1 0 0 1 166.1462 783.4996)" class="st6 st7 st8">537.048</text>
	</g>
	<g id="XMLID_324_">
		<text transform="matrix(1 0 0 1 121.9328 743.8888)" class="st6 st7 st8">408.568</text>
	</g>
	<g id="XMLID_335_">
		<text transform="matrix(1 0 0 1 10.0002 747.4592)" class="st6 st7 st8">266.667</text>
	</g>
	<g id="XMLID_336_">
		<text transform="matrix(1 0 0 1 44.5534 664.4728)" class="st6 st7 st8">329.705</text>
	</g>
	<g id="XMLID_325_">
		<text transform="matrix(1 0 0 1 169.0071 704.1647)" class="st6 st7 st8">543.005</text>
	</g>
	<g id="XMLID_327_">
		<text transform="matrix(1 0 0 1 231.2755 697.6461)" class="st6 st7 st8">704.822</text>
	</g>
	<g id="XMLID_330_">
		<text transform="matrix(1 0 0 1 229.2789 716.6971)" class="st6 st7 st8">704.822</text>
	</g>
	<g id="XMLID_331_">
		<text transform="matrix(1 0 0 1 219.832 763.3432)" class="st6 st7 st8">655</text>
	</g>
	<g id="XMLID_319_">
		<text transform="matrix(1 0 0 1 258.4237 802.0927)" class="st6 st7 st8">709.49</text>
	</g>
	<g id="XMLID_320_">
		<text transform="matrix(1 0 0 1 232.3521 802.0927)" class="st6 st7 st8">679.927 </text>
	</g>
</g>
</svg>
