<?xml version="1.0" encoding="utf-8"?>
<!-- Generator: Adobe Illustrator 19.0.0, SVG Export Plug-In . SVG Version: 6.00 Build 0)  -->
<svg version="1.1" id="Layer_1" xmlns="http://www.w3.org/2000/svg" xmlns:xlink="http://www.w3.org/1999/xlink" x="0px" y="0px"
	 viewBox="0 0 1500 1000" style="enable-background:new 0 0 1500 1000;" xml:space="preserve">
<style type="text/css">
	.st0{fill:#36AFA7;}
	.st1{fill:#101010;}
	.st2{fill:none;stroke:#101010;stroke-width:1.5;stroke-miterlimit:10;}
	.st3{fill:#FFFFFF;}
</style>
<rect id="XMLID_1_" x="0" class="st0" width="1500" height="1000"/>
<g id="XMLID_348_">
	<path id="XMLID_454_" class="st1" d="M150.2,87.3H140l-2.4,7.1h-3l8-23.2h4.9l8.1,23.2h-3.1L150.2,87.3z M140.9,84.6h8.4l-3.5-10.4
		h-1.3L140.9,84.6z"/>
	<path id="XMLID_457_" class="st1" d="M166.7,80.6h-1.4c-3.2,0-5.2,2-5.2,5.6v8.2h-2.8V78h2.7v2h0.7c0.8-1,2.4-2,4.7-2h1.2V80.6z"/>
	<path id="XMLID_476_" class="st1" d="M177.7,78v2.4h-4.1v9c0,1.7,0.7,2.5,2.9,2.5h1.2v2.5h-1.3c-3.5,0-5.6-1.1-5.6-4.6v-9.4H168V78
		h2.8v-4.9h2.8V78H177.7z"/>
	<path id="XMLID_478_" class="st1" d="M195.4,86.2c0,4.8-3,8.6-8.1,8.6c-5.1,0-8.1-3.8-8.1-8.6c0-4.8,2.9-8.6,8.1-8.6
		C192.5,77.6,195.4,81.3,195.4,86.2z M192.7,86.2c0-3.2-1.7-6.2-5.3-6.2c-3.6,0-5.3,3-5.3,6.2c0,3.2,1.7,6.2,5.3,6.2
		C191,92.4,192.7,89.4,192.7,86.2z"/>
	<path id="XMLID_481_" class="st1" d="M204.3,84.4l1.9,0.3c2.9,0.5,4.7,1.9,4.7,4.9c0,2.7-2.3,5.1-6.7,5.1c-4.6,0-6.9-2-7.3-5.2h2.8
		c0.3,1.9,1.9,2.8,4.4,2.8c2.5,0,4.1-0.9,4.1-2.7c0-1.4-0.9-2.2-3-2.6l-3.7-0.6c-2.3-0.4-3.9-1.7-3.9-4.1c0-2.7,2-4.8,6.5-4.8
		c3.9,0,6.1,1.8,6.5,4.7h-2.8c-0.2-1.6-1.8-2.3-3.8-2.3c-2.1,0-3.5,0.8-3.5,2.2c0,1.3,0.8,1.8,2.5,2L204.3,84.4z"/>
	<path id="XMLID_483_" class="st1" d="M231.8,81.4c3.5,0.8,5.8,2.6,5.8,6.5c0,3.6-2.9,6.9-8.8,6.9c-5.4,0-9-2.9-9.3-6.9h3
		c0.5,3.2,3.3,4.2,6.5,4.2c3.2,0,5.7-1.5,5.7-4.2c0-2.5-1.7-3.4-3.9-4c-1.2-0.3-3.4-0.7-4.6-0.9c-3.4-0.7-5.6-2.5-5.6-5.9
		c0-3.6,2.9-6.4,8.2-6.4c4.8,0,7.9,2.5,8.4,6.3h-3c-0.6-2.3-2.1-3.6-5.5-3.6c-2.8,0-5.1,1.3-5.1,3.7c0,2.2,2,3,3.9,3.4
		C228.4,80.7,230.6,81.1,231.8,81.4z"/>
	<path id="XMLID_485_" class="st1" d="M251,92.7h-0.7c-1,1.3-2.8,2.1-5.1,2.1c-3.8,0-5.9-2.5-5.9-5.3c0-2.6,1.7-5.4,6.3-5.4h5.3
		v-0.6c0-2-1.1-3.4-4-3.4c-2.4,0-3.7,0.9-3.8,2.4h-2.8c0.2-3,2.8-4.8,6.5-4.8c4.1,0,6.8,2,6.8,5.7v11.1H251V92.7z M250.9,87.7v-1.5
		H246c-2.7,0-3.9,1.2-3.9,3.1c0,1.9,1.4,3,3.8,3C248.6,92.4,250.9,90.3,250.9,87.7z"/>
	<path id="XMLID_488_" class="st1" d="M268.9,94.4v-9.8c0-3-1.4-4.5-4.2-4.5c-2.9,0-4.9,2.6-4.9,5.5v8.9h-2.8V78h2.7v1.8h0.7
		c0.9-1.3,2.7-2.2,4.9-2.2c4,0,6.2,2.5,6.2,6.4v10.4H268.9z"/>
	<path id="XMLID_490_" class="st1" d="M281.2,84.4l1.9,0.3c2.9,0.5,4.7,1.9,4.7,4.9c0,2.7-2.3,5.1-6.7,5.1c-4.6,0-6.9-2-7.3-5.2h2.8
		c0.3,1.9,1.9,2.8,4.4,2.8c2.5,0,4.1-0.9,4.1-2.7c0-1.4-0.9-2.2-3-2.6l-3.7-0.6c-2.3-0.4-3.9-1.7-3.9-4.1c0-2.7,2-4.8,6.5-4.8
		c3.9,0,6.1,1.8,6.5,4.7h-2.8c-0.2-1.6-1.8-2.3-3.8-2.3c-2.1,0-3.5,0.8-3.5,2.2c0,1.3,0.8,1.8,2.5,2L281.2,84.4z"/>
	<path id="XMLID_492_" class="st1" d="M152.9,129.1v2.8h-16v-23.2h2.9v20.4H152.9z"/>
	<path id="XMLID_494_" class="st1" d="M155.3,111.2v-3h2.9v3H155.3z M158.1,131.9h-2.8v-16.4h2.8V131.9z"/>
	<path id="XMLID_497_" class="st1" d="M176.6,115.5v15.6c0,4.6-2.9,7.5-7.6,7.5c-4.2,0-6.9-1.8-7.4-5h2.7c0.5,1.9,2.2,2.7,4.6,2.7
		c3.4,0,4.9-2,4.9-5.3v-1.3h-0.7c-0.9,1.1-2.4,2.2-4.9,2.2c-4.5,0-7.3-3.6-7.3-8.4c0-4.8,2.8-8.4,7.3-8.4c2.6,0,4.1,1,5,2.2h0.7
		v-1.8H176.6z M173.9,123.5c0-3.2-1.7-6-5.2-6c-3.2,0-5,2.4-5,6c0,3.5,1.8,5.9,5,5.9C172.2,129.4,173.9,126.6,173.9,123.5z"/>
	<path id="XMLID_500_" class="st1" d="M192.1,131.9v-9.8c0-3-1.4-4.5-4.2-4.5c-2.9,0-4.9,2.6-4.9,5.5v8.9h-2.8v-23.6h2.8v9h0.7
		c0.9-1.3,2.7-2.2,4.9-2.2c4,0,6.2,2.5,6.2,6.4v10.4H192.1z"/>
	<path id="XMLID_502_" class="st1" d="M206.2,115.5v2.4h-4.1v9c0,1.7,0.7,2.5,2.9,2.5h1.2v2.5h-1.3c-3.5,0-5.6-1.1-5.6-4.6v-9.4
		h-2.8v-2.4h2.8v-4.9h2.8v4.9H206.2z"/>
	<path id="XMLID_504_" class="st1" d="M135.7,152.9c0.3-4.6,3.5-6.7,7.6-6.7c4.3,0,7.4,2.4,7.4,6.9c0,3.1-2.3,6-5,8.2l-5.7,4.8v0.7
		h11.5v2.5h-15.6v-3.2l3.3-2.7c1.8-1.5,4-3.3,5.2-4.4c1.6-1.4,3.5-3.3,3.5-5.9c0-2.9-1.8-4.4-4.6-4.4c-2.6,0-4.4,1.3-4.6,4.2H135.7z
		"/>
	<path id="XMLID_506_" class="st1" d="M169.2,162c0,4.3-2.9,7.8-7.7,7.8c-4.8,0-8.4-3-8.4-11.2c0-6.9,2.7-12.4,8.6-12.4
		c3.9,0,6.3,2.3,6.8,5.4h-2.8c-0.6-1.9-1.8-2.9-4-2.9c-3.6,0-5.7,3.1-5.9,8.1h0.7c0.8-0.9,2.6-2.2,5.3-2.2
		C166,154.6,169.2,157.6,169.2,162z M166.3,162.1c0-3.4-2.2-5-5-5c-2.7,0-4.9,1.8-4.9,5c0,3.3,2.2,5.2,5,5.2
		S166.3,165.5,166.3,162.1z"/>
	<path id="XMLID_509_" class="st1" d="M174.3,153v1.8h0.7c0.9-1.1,2.5-2.2,5.1-2.2c4.5,0,7.2,3.8,7.2,8.6c0,4.9-2.7,8.6-7.2,8.6
		c-2.6,0-4.1-1-5-2.2h-0.7v8.3h-2.8V153H174.3z M174.3,161.2c0,3.2,1.5,6.2,5.1,6.2c3.3,0,5-2.6,5-6.2c0-3.6-1.8-6.2-5-6.2
		C175.8,155,174.3,158,174.3,161.2z"/>
	<path id="XMLID_512_" class="st1" d="M196.4,162.5h-1.2l-4.2,6.9h-3l5.1-8.4l-4.6-8h2.9l3.8,6.5h1.2l3.8-6.5h2.9l-4.6,7.9l5.1,8.5
		h-3.1L196.4,162.5z"/>
</g>
<line id="XMLID_1308_" class="st2" x1="1500" y1="512.8" x2="0" y2="512.8"/>
<line id="XMLID_1306_" class="st2" x1="134.6" y1="0" x2="134.6" y2="1000"/>
<line id="XMLID_1305_" class="st2" x1="1365.4" y1="0" x2="1365.4" y2="1000"/>
<g id="XMLID_467_">
	<path id="XMLID_2875_" class="st3" d="M156.4,463.8c6.9,0,12.3,2.3,16.1,7c3.8,4.7,5.7,10.5,5.7,17.7c0,7.1-1.9,13-5.7,17.7
		c-3.8,4.7-9.2,7-16.1,7s-12.3-2.3-16.1-7c-3.8-4.7-5.7-10.5-5.7-17.7c0-7.1,1.9-13,5.7-17.7C144.2,466.1,149.6,463.8,156.4,463.8z
		 M156.4,509.1c3,0,5.6-0.6,7.9-1.7c4.6-2.3,7.2-6.5,8.5-11.3c2.5-9.9,0.5-22.1-8.5-26.6c-2.3-1.1-4.9-1.7-7.9-1.7s-5.6,0.6-7.9,1.7
		c-4.5,2.3-7.1,6.5-8.5,11.3c-2.7,9.8-0.3,22.1,8.5,26.6C150.8,508.5,153.4,509.1,156.4,509.1z"/>
	<path id="XMLID_2878_" class="st3" d="M211.8,508.5h6.2v13.3h-4.2v-9.5h-30.5v9.5H179v-13.3h4.2c3.1-5.9,4.6-12.9,4.6-20.7v-8.9
		h23.9V508.5z M207.6,508.5v-25.9h-15.7v5.2c0,8.3-1.3,15.3-4.1,20.7H207.6z"/>
	<path id="XMLID_2881_" class="st3" d="M250.3,494.8h-25.9v0.9c0,8.3,4.5,13.6,11.7,13.6c5,0,8.3-2.2,9.4-5.9h4.2
		c-1.1,5.6-5.9,9.7-13.6,9.7c-5,0-8.9-1.7-11.7-5.1c-2.8-3.4-4.2-7.7-4.2-12.9c0-5.1,1.4-9.3,4.2-12.4c2.8-3.1,6.7-4.7,11.6-4.7
		c4.6,0,8.1,1.5,10.6,4.5c2.5,3,3.7,6.7,3.7,10.9V494.8z M224.6,491.1H246c-0.3-5.1-4.2-9.3-10.1-9.3
		C229.4,481.8,225.5,485.8,224.6,491.1z"/>
	<path id="XMLID_2885_" class="st3" d="M264.3,497l-6.6,15.2h-4.5l7.5-17.1l-7-16.2h4.5l6.2,14.4h9.4v-14.4h4.2v14.4h9.4l6.2-14.4
		h4.5l-7,16.2l7.5,17.1h-4.5l-6.6-15.2h-9.4v15.2h-4.2V497H264.3z"/>
	<path id="XMLID_2973_" class="st3" d="M332.2,508.5h6.2v13.3h-4.2v-9.5h-30.5v9.5h-4.2v-13.3h4.2c3.1-5.9,4.6-12.9,4.6-20.7v-8.9
		h23.9V508.5z M328,508.5v-25.9h-15.7v5.2c0,8.3-1.3,15.3-4.1,20.7H328z"/>
	<path id="XMLID_2976_" class="st3" d="M364.2,512.2v-3.7h-1.3c-2.1,2.7-6.1,4.6-10.8,4.6c-3.8,0-6.7-1.1-8.9-3.1
		c-2.1-2.1-3.2-4.6-3.2-7.6s1-5.6,3-7.7c2.1-2.1,5.2-3.2,9.5-3.2h11.6v-2.1c0-4.5-2.9-7.6-9-7.6c-5.3,0-8.4,2.1-8.7,5.7h-4.2
		c0.5-5.9,5.5-9.5,12.9-9.5c8.1,0,13.2,4.2,13.2,11.1v23.1H364.2z M360.8,506.4c2.2-2,3.3-4.5,3.3-7.5V495h-10.5
		c-5.9,0-9.4,2.8-9.4,7.1c0,4.6,3.4,7.3,8.5,7.3C355.8,509.4,358.6,508.4,360.8,506.4z"/>
	<path id="XMLID_2979_" class="st3" d="M419.4,512.2h-4.2v-29.6h-20.1v29.6H391v-33.3h28.5V512.2z"/>
	<path id="XMLID_2981_" class="st3" d="M433,508.5h-1.3v17.1h-4.2v-46.7h4.1v3.7h1.3c2.5-3.1,6.1-4.6,10.8-4.6c4.5,0,8.1,1.7,10.8,5
		c2.7,3.3,4.1,7.5,4.1,12.5c0,5.1-1.3,9.3-4,12.6c-2.7,3.3-6.3,4.9-10.9,4.9C438.9,513.1,435.4,511.6,433,508.5z M434.5,485.8
		c-1.9,2.7-2.9,5.9-2.9,9.8c0,3.9,0.9,7.1,2.9,9.8c1.9,2.7,4.8,4,8.6,4c7.1,0,11.2-5.5,11.2-13.8c0-8.3-4.1-13.8-11.2-13.8
		C439.3,481.8,436.4,483.1,434.5,485.8z"/>
	<path id="XMLID_2984_" class="st3" d="M490,483c2.9,3.3,4.3,7.5,4.3,12.5c0,5-1.5,9.2-4.3,12.5c-2.9,3.3-6.7,5-11.7,5
		c-5,0-8.9-1.7-11.8-5c-2.9-3.3-4.3-7.5-4.3-12.5c0-5,1.4-9.2,4.3-12.5c2.9-3.3,6.8-5,11.8-5C483.3,478,487.2,479.7,490,483z
		 M478.3,509.4c3.8,0,6.7-1.3,8.8-4c2.1-2.7,3.1-6,3.1-9.8c0-3.8-1-7.1-3.1-9.7c-2.1-2.7-5-4.1-8.8-4.1c-3.8,0-6.7,1.3-8.8,4.1
		c-2.1,2.7-3.1,5.9-3.1,9.7c0,3.8,1,7.1,3.1,9.8C471.6,508,474.5,509.4,478.3,509.4z"/>
	<path id="XMLID_2987_" class="st3" d="M519.6,512.2v13.3h-4.2v-13.3h-1.2c-5.1,0-9-1.5-11.9-4.6c-2.9-3.1-4.3-7.1-4.3-12.1
		c0-5,1.4-9,4.3-12.1c2.9-3.1,6.8-4.6,11.9-4.6h1.2v-15.1h4.2v15.1h1.1c5.1,0,9,1.5,11.9,4.6c2.9,3.1,4.3,7.1,4.3,12.1
		c0,5-1.4,9-4.3,12.1c-2.9,3.1-6.8,4.6-11.9,4.6H519.6z M515.4,508.5v-25.9h-1.2c-7.7,0-11.9,5.5-11.9,12.9
		c0,7.5,4.2,12.9,11.9,12.9H515.4z M519.6,508.5h1.1c7.7,0,11.9-5.5,11.9-12.9c0-7.5-4.2-12.9-11.9-12.9h-1.1V508.5z"/>
	<path id="XMLID_2991_" class="st3" d="M570.8,494.8h-25.9v0.9c0,8.3,4.5,13.6,11.7,13.6c5,0,8.3-2.2,9.4-5.9h4.2
		c-1.1,5.6-5.9,9.7-13.6,9.7c-5,0-8.9-1.7-11.7-5.1c-2.8-3.4-4.2-7.7-4.2-12.9c0-5.1,1.4-9.3,4.2-12.4c2.8-3.1,6.7-4.7,11.6-4.7
		c4.6,0,8.1,1.5,10.6,4.5s3.7,6.7,3.7,10.9V494.8z M545.1,491.1h21.3c-0.3-5.1-4.2-9.3-10.1-9.3C549.9,481.8,546,485.8,545.1,491.1z
		"/>
	<path id="XMLID_2994_" class="st3" d="M604,502.7c-1.4,6.3-6.3,10.4-13.5,10.4c-5,0-8.9-1.7-11.7-5c-2.8-3.3-4.2-7.5-4.2-12.5
		c0-5.1,1.4-9.3,4.2-12.5c2.9-3.3,6.7-5,11.7-5c7.5,0,12.1,4,13.4,10.1h-4.2c-1.3-4.3-4.4-6.4-9.2-6.4c-3.9,0-6.9,1.3-8.8,3.9
		s-2.9,5.9-2.9,9.8c0,3.9,1,7.3,2.9,9.9c1.9,2.7,4.9,4,8.8,4c5.1,0,8.2-2.2,9.3-6.7H604z"/>
	<path id="XMLID_2996_" class="st3" d="M636.7,502.7c-1.4,6.3-6.3,10.4-13.5,10.4c-5,0-8.9-1.7-11.7-5c-2.8-3.3-4.2-7.5-4.2-12.5
		c0-5.1,1.4-9.3,4.2-12.5c2.9-3.3,6.7-5,11.7-5c7.5,0,12.1,4,13.4,10.1h-4.2c-1.3-4.3-4.4-6.4-9.2-6.4c-3.9,0-6.9,1.3-8.8,3.9
		c-1.9,2.6-2.9,5.9-2.9,9.8c0,3.9,1,7.3,2.9,9.9c1.9,2.7,4.9,4,8.8,4c5.1,0,8.2-2.2,9.3-6.7H636.7z"/>
	<path id="XMLID_2998_" class="st3" d="M649.5,512.2h-7.4v-33.3h4.2v29.2h1.3l15.5-29.2h7.7v33.3h-4.2V483h-1.3L649.5,512.2z"/>
	<path id="XMLID_3000_" class="st3" d="M704.5,483c2.9,3.3,4.3,7.5,4.3,12.5c0,5-1.5,9.2-4.3,12.5c-2.9,3.3-6.7,5-11.7,5
		c-5,0-8.9-1.7-11.8-5c-2.9-3.3-4.3-7.5-4.3-12.5c0-5,1.4-9.2,4.3-12.5c2.9-3.3,6.8-5,11.8-5C697.8,478,701.6,479.7,704.5,483z
		 M692.8,509.4c3.8,0,6.7-1.3,8.8-4c2.1-2.7,3.1-6,3.1-9.8c0-3.8-1-7.1-3.1-9.7c-2.1-2.7-5-4.1-8.8-4.1c-3.8,0-6.7,1.3-8.8,4.1
		c-2.1,2.7-3.1,5.9-3.1,9.7c0,3.8,1,7.1,3.1,9.8C686,508,689,509.4,692.8,509.4z"/>
	<path id="XMLID_3003_" class="st3" d="M743.4,512.2h-4.2v-15.3h-20.3v15.3h-4.2v-33.3h4.2v14.3h20.3v-14.3h4.2V512.2z"/>
	<path id="XMLID_3005_" class="st3" d="M773,512.2v-3.7h-1.3c-2.1,2.7-6.1,4.6-10.8,4.6c-3.8,0-6.7-1.1-8.9-3.1
		c-2.1-2.1-3.2-4.6-3.2-7.6s1-5.6,3-7.7c2.1-2.1,5.2-3.2,9.5-3.2h11.6v-2.1c0-4.5-2.9-7.6-9-7.6c-5.3,0-8.4,2.1-8.7,5.7H751
		c0.5-5.9,5.5-9.5,12.9-9.5c8.1,0,13.2,4.2,13.2,11.1v23.1H773z M769.5,506.4c2.2-2,3.3-4.5,3.3-7.5V495h-10.5
		c-5.9,0-9.4,2.8-9.4,7.1c0,4.6,3.4,7.3,8.5,7.3C764.6,509.4,767.3,508.4,769.5,506.4z"/>
	<path id="XMLID_3008_" class="st3" d="M780.6,512.2v-3.9h1.1c2.5,0,4.2-1.2,5.2-3.7c1-2.5,1.5-6.9,1.5-13.3v-12.5h24.3v33.3h-4.2
		v-29.6h-16.1v8.7c0,7.8-0.8,13.2-2.5,16.3c-1.7,3.1-4.4,4.6-8.2,4.6H780.6z"/>
	<path id="XMLID_3010_" class="st3" d="M846.4,483c2.9,3.3,4.3,7.5,4.3,12.5c0,5-1.5,9.2-4.3,12.5c-2.9,3.3-6.7,5-11.7,5
		s-8.9-1.7-11.8-5c-2.9-3.3-4.3-7.5-4.3-12.5c0-5,1.4-9.2,4.3-12.5c2.9-3.3,6.8-5,11.8-5S843.5,479.7,846.4,483z M834.6,509.4
		c3.8,0,6.7-1.3,8.8-4c2.1-2.7,3.1-6,3.1-9.8c0-3.8-1-7.1-3.1-9.7c-2.1-2.7-5-4.1-8.8-4.1c-3.8,0-6.7,1.3-8.8,4.1
		c-2.1,2.7-3.1,5.9-3.1,9.7c0,3.8,1,7.1,3.1,9.8C827.9,508,830.8,509.4,834.6,509.4z"/>
	<path id="XMLID_3013_" class="st3" d="M878.8,495.2c3.4,0.9,5.7,3.8,5.7,7.9c0,6.1-4.1,9.1-11.8,9.1h-16.1v-33.3h15.5
		c6.7,0,10.5,3.1,10.5,8.4c0,3-1.7,5.5-3.8,6.6V495.2z M860.8,482.6v10.6h11.4c4.3,0,6.2-2.3,6.2-5.3c0-3.5-2.1-5.3-6.2-5.3H860.8z
		 M873.1,508.5c4.8,0,7.2-1.9,7.2-5.7c0-3.9-2.4-5.8-7.2-5.8h-12.3v11.5H873.1z"/>
	<path id="XMLID_3017_" class="st3" d="M891.6,512.2h-2.9v-6.8h5.6v7.9l-3.2,5.8h-2.7l3.2-5.8V512.2z"/>
	<path id="XMLID_3019_" class="st3" d="M940.2,512.2l-7.7-15.3h-11.1v15.3h-4.2v-33.3h4.2v14.3h11.2l7.2-14.3h4.5l-8.1,16.1
		l8.6,17.3H940.2z"/>
	<path id="XMLID_3021_" class="st3" d="M974.4,483c2.9,3.3,4.3,7.5,4.3,12.5c0,5-1.5,9.2-4.3,12.5c-2.9,3.3-6.7,5-11.7,5
		c-5,0-8.9-1.7-11.8-5c-2.9-3.3-4.3-7.5-4.3-12.5c0-5,1.4-9.2,4.3-12.5c2.9-3.3,6.8-5,11.8-5C967.7,478,971.6,479.7,974.4,483z
		 M962.7,509.4c3.8,0,6.7-1.3,8.8-4c2.1-2.7,3.1-6,3.1-9.8c0-3.8-1-7.1-3.1-9.7c-2.1-2.7-5-4.1-8.8-4.1s-6.7,1.3-8.8,4.1
		c-2.1,2.7-3.1,5.9-3.1,9.7c0,3.8,1,7.1,3.1,9.8C956,508,958.9,509.4,962.7,509.4z"/>
	<path id="XMLID_3024_" class="st3" d="M980.3,482.6v-3.7h27.7v3.7h-11.7v29.6h-4.2v-29.6H980.3z"/>
	<path id="XMLID_3026_" class="st3" d="M1037.4,483c2.9,3.3,4.3,7.5,4.3,12.5c0,5-1.5,9.2-4.3,12.5c-2.9,3.3-6.7,5-11.7,5
		c-5,0-8.9-1.7-11.8-5c-2.9-3.3-4.3-7.5-4.3-12.5c0-5,1.4-9.2,4.3-12.5c2.9-3.3,6.8-5,11.8-5C1030.6,478,1034.5,479.7,1037.4,483z
		 M1025.6,509.4c3.8,0,6.7-1.3,8.8-4c2.1-2.7,3.1-6,3.1-9.8c0-3.8-1-7.1-3.1-9.7c-2.1-2.7-5-4.1-8.8-4.1s-6.7,1.3-8.8,4.1
		c-2.1,2.7-3.1,5.9-3.1,9.7c0,3.8,1,7.1,3.1,9.8C1018.9,508,1021.8,509.4,1025.6,509.4z"/>
	<path id="XMLID_3029_" class="st3" d="M1053.1,508.5h-1.3v17.1h-4.2v-46.7h4.1v3.7h1.3c2.5-3.1,6.1-4.6,10.8-4.6
		c4.5,0,8.1,1.7,10.8,5c2.7,3.3,4.1,7.5,4.1,12.5c0,5.1-1.3,9.3-4,12.6c-2.7,3.3-6.3,4.9-10.9,4.9
		C1059,513.1,1055.5,511.6,1053.1,508.5z M1054.6,485.8c-1.9,2.7-2.9,5.9-2.9,9.8c0,3.9,0.9,7.1,2.9,9.8c1.9,2.7,4.8,4,8.6,4
		c7.1,0,11.2-5.5,11.2-13.8c0-8.3-4.1-13.8-11.2-13.8C1059.4,481.8,1056.6,483.1,1054.6,485.8z"/>
	<path id="XMLID_3032_" class="st3" d="M1091.2,525.6h-4.3l6.9-16.5l-14.1-30.2h4.5l11,23.5h1.6l9.9-23.5h4.4L1091.2,525.6z"/>
	<path id="XMLID_3034_" class="st3" d="M1154.4,483c2.8,3.3,4.2,7.5,4.2,12.5c0,5-1.4,9.2-4.2,12.5c-2.8,3.3-6.7,5-11.5,5
		c-4.6,0-8.3-1.5-11.1-4.5c-2.7-3.1-4.3-6.9-4.5-11.7h-8.3v15.3h-4.2v-33.3h4.2v14.3h8.4c0.5-4.5,2-8.1,4.7-10.9
		c2.7-2.9,6.3-4.3,10.8-4.3C1147.8,478,1151.6,479.7,1154.4,483z M1142.9,509.4c3.7,0,6.5-1.3,8.5-4.1c2-2.7,3-5.9,3-9.7
		c0-3.8-1-7-3-9.7c-2-2.7-4.9-4.1-8.5-4.1c-3.7,0-6.5,1.3-8.5,4.1c-1.9,2.7-2.9,5.9-2.9,9.7c0,3.8,1,7.1,2.9,9.8
		C1136.4,508,1139.2,509.4,1142.9,509.4z"/>
	<path id="XMLID_3037_" class="st3" d="M1175.8,512.2v-3.9h1.1c2.5,0,4.2-1.2,5.2-3.7c1-2.5,1.5-6.9,1.5-13.3v-12.5h24.3v33.3h-4.2
		v-29.6h-16.1v8.7c0,7.8-0.8,13.2-2.5,16.3c-1.7,3.1-4.4,4.6-8.2,4.6H1175.8z"/>
	<path id="XMLID_3039_" class="st3" d="M1255.6,483c2.8,3.3,4.2,7.5,4.2,12.5c0,5-1.4,9.2-4.2,12.5c-2.8,3.3-6.7,5-11.5,5
		c-4.6,0-8.3-1.5-11.1-4.5c-2.7-3.1-4.3-6.9-4.5-11.7h-8.3v15.3h-4.2v-33.3h4.2v14.3h8.4c0.5-4.5,2-8.1,4.7-10.9
		c2.7-2.9,6.3-4.3,10.8-4.3C1248.9,478,1252.8,479.7,1255.6,483z M1244,509.4c3.7,0,6.5-1.3,8.5-4.1c2-2.7,3-5.9,3-9.7
		c0-3.8-1-7-3-9.7c-2-2.7-4.9-4.1-8.5-4.1c-3.7,0-6.5,1.3-8.5,4.1c-1.9,2.7-2.9,5.9-2.9,9.7c0,3.8,1,7.1,2.9,9.8
		C1237.5,508,1240.4,509.4,1244,509.4z"/>
	<path id="XMLID_3042_" class="st3" d="M1291.8,483.8c2.7,3.3,4.1,7.3,4.1,12.3c0,4.9-1.5,8.9-4.3,12.2c-2.9,3.3-6.8,4.9-11.8,4.9
		c-10.3,0-16.3-7.4-16.3-20c0-5.3,0.2-8.7,1.3-13.2c1.4-6.5,4.9-10.6,11.9-12l9.1-1.5c2.6-0.5,3-0.7,3.2-2.7h4.2
		c-0.3,3.9-1.8,5.8-6.5,6.6l-9.9,1.6c-5.9,1-8.1,5.3-8.9,11.9h1.3c2.6-3.3,6.3-4.9,11.1-4.9C1285.2,478.9,1289,480.5,1291.8,483.8z
		 M1288.4,486.6c-2.1-2.6-5-3.9-8.8-3.9s-6.8,1.3-8.9,3.9c-2.1,2.6-3.1,5.8-3.1,9.5c0,3.7,1,6.8,3.1,9.4c2.1,2.6,5.1,3.9,8.9,3.9
		s6.7-1.3,8.8-3.9c2.1-2.6,3.1-5.7,3.1-9.4C1291.6,492.4,1290.5,489.2,1288.4,486.6z"/>
	<path id="XMLID_3045_" class="st3" d="M1328.4,478.9v33.3h-4.2v-14.1H1312c-0.8,0-1.4,0-1.7-0.1l-5.4,14.1h-4.4l5.8-15.1
		c-3.5-1.5-5.2-4.4-5.2-8.6c0-6.1,3.9-9.7,10.9-9.7H1328.4z M1324.2,482.6h-11.8c-4.7,0-7.1,2-7.1,5.9c0,3.9,2.4,5.9,7.1,5.9h11.8
		V482.6z"/>
	<path id="XMLID_3048_" class="st3" d="M1332.7,482.6v-3.7h27.7v3.7h-11.7v29.6h-4.2v-29.6H1332.7z"/>
	<path id="XMLID_3050_" class="st3" d="M1365.4,512.2h-5.6v-6.8h5.6V512.2z"/>
</g>
</svg>
