<?xml version="1.0" encoding="utf-8"?>
<!-- Generator: Adobe Illustrator 19.0.0, SVG Export Plug-In . SVG Version: 6.00 Build 0)  -->
<svg version="1.1" id="Layer_1" xmlns="http://www.w3.org/2000/svg" xmlns:xlink="http://www.w3.org/1999/xlink" x="0px" y="0px"
	 viewBox="110 141 1500 1000" style="enable-background:new 110 141 1500 1000;" xml:space="preserve">
<style type="text/css">
	.st0{fill:#2BB9AF;}
	.st1{fill:#101010;}
	.st2{fill:none;stroke:#101010;stroke-miterlimit:10;}
	.st3{fill:#FFFFFF;}
</style>
<rect id="XMLID_1_" x="110" y="141" class="st0" width="1499.4" height="999.6"/>
<g id="XMLID_715_">
	<path id="XMLID_2591_" class="st1" d="M192.7,228.2h-10.2l-2.4,7.1h-3l8-23.2h4.9l8.1,23.2H195L192.7,228.2z M183.4,225.6h8.4
		l-3.5-10.4H187L183.4,225.6z"/>
	<path id="XMLID_2594_" class="st1" d="M209.2,221.6h-1.4c-3.2,0-5.2,2-5.2,5.6v8.2h-2.8V219h2.7v1.9h0.7c0.8-1,2.4-1.9,4.7-1.9h1.2
		v2.6H209.2z"/>
	<path id="XMLID_2596_" class="st1" d="M220.1,219v2.4H216v9c0,1.7,0.7,2.5,2.9,2.5h1.2v2.5h-1.3c-3.5,0-5.6-1.1-5.6-4.6v-9.4h-2.8
		V219h2.8v-5h2.8v5H220.1z"/>
	<path id="XMLID_2598_" class="st1" d="M237.9,227.2c0,4.8-3,8.6-8.1,8.6s-8.1-3.8-8.1-8.6s2.9-8.6,8.1-8.6
		C234.9,218.5,237.9,222.3,237.9,227.2z M235.1,227.2c0-3.2-1.7-6.2-5.3-6.2c-3.6,0-5.3,3-5.3,6.2s1.7,6.2,5.3,6.2
		S235.1,230.4,235.1,227.2z"/>
	<path id="XMLID_2601_" class="st1" d="M246.7,225.4l1.9,0.3c2.9,0.5,4.7,1.9,4.7,4.9c0,2.7-2.3,5.1-6.7,5.1c-4.6,0-6.9-2-7.3-5.2
		h2.8c0.3,1.9,1.9,2.8,4.4,2.8s4.1-0.9,4.1-2.7c0-1.4-0.9-2.2-3-2.6l-3.7-0.6c-2.3-0.4-3.9-1.7-3.9-4.1c0-2.7,2-4.8,6.5-4.8
		c3.9,0,6.1,1.8,6.5,4.7h-3c-0.2-1.6-1.8-2.3-3.8-2.3c-2.1,0-3.5,0.8-3.5,2.2c0,1.3,0.8,1.8,2.5,2L246.7,225.4z"/>
	<path id="XMLID_2712_" class="st1" d="M274.2,222.3c3.5,0.8,5.8,2.6,5.8,6.5c0,3.6-2.9,6.9-8.8,6.9c-5.4,0-9-2.9-9.3-6.9h3
		c0.5,3.2,3.3,4.2,6.5,4.2s5.7-1.5,5.7-4.2c0-2.5-1.7-3.4-3.9-4c-1.2-0.3-3.4-0.7-4.6-0.9c-3.4-0.7-5.6-2.5-5.6-5.9
		c0-3.6,2.9-6.4,8.2-6.4c4.8,0,7.9,2.5,8.4,6.3h-3c-0.6-2.3-2.1-3.6-5.5-3.6c-2.8,0-5.1,1.3-5.1,3.7c0,2.2,2,3,3.9,3.4
		C270.9,221.6,273,222.1,274.2,222.3z"/>
	<path id="XMLID_2714_" class="st1" d="M293.4,233.6h-0.7c-1,1.3-2.8,2.1-5.1,2.1c-3.8,0-5.9-2.5-5.9-5.3c0-2.6,1.7-5.4,6.3-5.4h5.3
		v-0.6c0-2-1.1-3.4-4-3.4c-2.4,0-3.7,0.9-3.8,2.4h-2.8c0.2-3,2.8-4.8,6.5-4.8c4.1,0,6.8,2,6.8,5.7v11.1h-2.6V233.6z M293.3,228.7
		v-1.5h-4.9c-2.7,0-3.9,1.2-3.9,3.1c0,1.9,1.4,3,3.8,3C291,233.4,293.3,231.3,293.3,228.7z"/>
	<path id="XMLID_2717_" class="st1" d="M311.3,235.3v-9.8c0-3-1.4-4.5-4.2-4.5c-2.9,0-4.9,2.6-4.9,5.5v8.9h-2.8V219h2.7v1.8h0.7
		c0.9-1.3,2.7-2.2,4.9-2.2c4,0,6.2,2.5,6.2,6.4v10.4h-2.6V235.3z"/>
	<path id="XMLID_2719_" class="st1" d="M323.6,225.4l1.9,0.3c2.9,0.5,4.7,1.9,4.7,4.9c0,2.7-2.3,5.1-6.7,5.1c-4.6,0-6.9-2-7.3-5.2
		h2.8c0.3,1.9,1.9,2.8,4.4,2.8s4.1-0.9,4.1-2.7c0-1.4-0.9-2.2-3-2.6l-3.7-0.6c-2.3-0.4-3.9-1.7-3.9-4.1c0-2.7,2-4.8,6.5-4.8
		c3.9,0,6.1,1.8,6.5,4.7h-2.8c-0.2-1.6-1.8-2.3-3.8-2.3c-2.1,0-3.5,0.8-3.5,2.2c0,1.3,0.8,1.8,2.5,2L323.6,225.4z"/>
	<path id="XMLID_2721_" class="st1" d="M189.7,249.6c4.9,0,7.6,2.5,7.6,6.8c0,2.9-1.2,4.9-3.5,5.9l3.7,10.5h-3L191,263
		c-0.6,0.1-1.3,0.1-1.9,0.1h-6.8v9.7h-2.9v-23.2C179.4,249.6,189.7,249.6,189.7,249.6z M189.3,260.5c3.7,0,5.1-1.6,5.1-4.1
		c0-2.6-1.4-4.2-5.1-4.2h-6.9v8.3C182.4,260.5,189.3,260.5,189.3,260.5z"/>
	<path id="XMLID_2724_" class="st1" d="M214.7,264.6h-12.4c0.1,3.9,1.9,6.2,5.2,6.2c2.3,0,3.7-1,4.2-2.5h2.8c-0.5,2.8-2.9,4.9-7,4.9
		c-5.1,0-8-3.7-8-8.8c0-5,2.9-8.4,7.9-8.4c4.9,0,7.2,3.6,7.3,7.6C214.7,263.6,214.7,264.6,214.7,264.6z M202.4,262.3h9.5
		c-0.2-2.1-1.8-3.9-4.5-3.9C204.4,258.4,202.8,260.2,202.4,262.3z"/>
	<path id="XMLID_2836_" class="st1" d="M232,256.5V272c0,4.6-2.9,7.5-7.6,7.5c-4.2,0-6.9-1.8-7.4-5h2.7c0.5,1.9,2.2,2.7,4.6,2.7
		c3.4,0,4.9-2,4.9-5.3v-1.3h-0.7c-0.9,1.1-2.4,2.2-4.9,2.2c-4.5,0-7.3-3.6-7.3-8.3c0-4.8,2.8-8.4,7.3-8.4c2.6,0,4.1,1,5,2.2h0.7
		v-1.8L232,256.5L232,256.5z M229.4,264.4c0-3.2-1.7-6-5.2-6c-3.2,0-5,2.4-5,6c0,3.5,1.8,5.9,5,5.9
		C227.7,270.4,229.4,267.5,229.4,264.4z"/>
	<path id="XMLID_2839_" class="st1" d="M238.3,256.5v9.8c0,3,1.4,4.5,4.2,4.5c2.9,0,4.9-2.5,4.9-5.5v-8.9h2.8v16.4h-2.7V271h-0.7
		c-0.9,1.3-2.7,2.2-4.9,2.2c-4,0-6.2-2.5-6.2-6.4v-10.4h2.6V256.5z"/>
	<path id="XMLID_2841_" class="st1" d="M256.5,249.2v23.6h-2.8v-23.6C253.7,249.2,256.5,249.2,256.5,249.2z"/>
	<path id="XMLID_2843_" class="st1" d="M270.6,271.1h-0.7c-1,1.3-2.8,2.1-5.1,2.1c-3.8,0-5.9-2.5-5.9-5.3c0-2.6,1.7-5.4,6.3-5.4h5.3
		v-0.6c0-2-1.1-3.4-4-3.4c-2.4,0-3.7,0.9-3.8,2.4H260c0.2-3,2.8-4.8,6.5-4.8c4.1,0,6.8,2,6.8,5.7v11.1h-2.6v-1.8H270.6z
		 M270.5,266.2v-1.5h-4.9c-2.7,0-3.9,1.2-3.9,3.1c0,1.9,1.4,3,3.8,3C268.2,270.8,270.5,268.8,270.5,266.2z"/>
	<path id="XMLID_2846_" class="st1" d="M286,259.1h-1.4c-3.2,0-5.2,2-5.2,5.6v8.2h-2.8v-16.4h2.7v1.9h0.7c0.8-1,2.4-1.9,4.7-1.9h1.2
		v2.6H286z"/>
	<path id="XMLID_2861_" class="st1" d="M182.7,310.3h-3l9.9-19.6V290h-11.5v-2.5h14.5v3.2L182.7,310.3z"/>
	<path id="XMLID_2864_" class="st1" d="M194.4,293.8c0.3-4.5,3.5-6.7,7.6-6.7c4.3,0,7.4,2.4,7.4,6.9c0,3.1-2.3,6-5,8.2l-5.7,4.8v0.7
		H210v2.5h-15.6V307l3.3-2.7c1.8-1.5,4-3.3,5.2-4.4c1.6-1.4,3.5-3.2,3.5-5.9c0-2.9-1.8-4.4-4.6-4.4c-2.6,0-4.4,1.3-4.6,4.2
		L194.4,293.8L194.4,293.8z"/>
	<path id="XMLID_2869_" class="st1" d="M215.3,293.9v1.8h0.7c0.9-1.1,2.5-2.2,5.1-2.2c4.5,0,7.2,3.8,7.2,8.6c0,4.9-2.7,8.6-7.2,8.6
		c-2.6,0-4.1-1-5-2.2h-0.7v8.3h-2.8v-22.9L215.3,293.9L215.3,293.9z M215.3,302.1c0,3.2,1.5,6.2,5.1,6.2c3.3,0,5-2.6,5-6.2
		s-1.8-6.2-5-6.2C216.8,295.9,215.3,298.9,215.3,302.1z"/>
	<path id="XMLID_2872_" class="st1" d="M237.4,303.5h-1.2l-4.2,6.9h-3l5.1-8.4l-4.6-8h2.9l3.8,6.5h1.2l3.8-6.5h2.9l-4.6,7.9l5.1,8.5
		h-3.1L237.4,303.5z"/>
</g>
<g id="XMLID_342_">
	<line id="XMLID_469_" class="st2" x1="1610" y1="617.3" x2="110.6" y2="617.3"/>
	<line id="XMLID_468_" class="st2" x1="1609.4" y1="752.8" x2="110" y2="752.8"/>
	<line id="XMLID_466_" class="st2" x1="176.5" y1="141" x2="176.5" y2="1140.6"/>
	<line id="XMLID_465_" class="st2" x1="1542.9" y1="141" x2="1542.9" y2="1140.6"/>
</g>
<g id="XMLID_3_">
	<g id="XMLID_5_">
		<path id="XMLID_6_" class="st3" d="M251,577.3c0,22.9-13,41.4-37.3,41.4c-24.4,0-37.3-18.5-37.3-41.4s12.9-41.4,37.3-41.4
			C238,535.9,251,554.4,251,577.3z M240.8,577.3c0-16.7-8.1-32.2-27.1-32.2s-27.1,15.6-27.1,32.2s8.1,32.2,27.1,32.2
			C232.8,609.5,240.8,594,240.8,577.3z"/>
		<path id="XMLID_9_" class="st3" d="M322,609v24.3h-9.3v-16h-48.8v16h-9.3V609h7.5c3.6-7.6,6.9-18.7,6.9-32.7v-15.4h42.5V609H322z
			 M302,569.1h-24.2v7.2c0,14.2-2.7,25.1-6.2,32.7H302V569.1z"/>
		<path id="XMLID_12_" class="st3" d="M380.4,589h-43c0.3,13.4,6.4,21.5,18,21.5c7.9,0,12.6-3.4,14.3-8.7h9.6c-1.8,9.6-10,17-24,17
			c-17.6,0-27.4-12.9-27.4-30.2c0-17.3,10.1-29.1,27.2-29.1c16.8,0,24.8,12.4,25.2,26.3v3.2H380.4z M338,581h32.6
			c-0.6-7.2-6-13.3-15.6-13.3C344.8,567.7,339.2,573.8,338,581z"/>
		<path id="XMLID_15_" class="st3" d="M397.5,617.3h-10l12.8-29l-12-27.4h9.8l10.2,23.4h14.4v-23.4h9.2v23.4h14.4l10.2-23.4h9.8
			l-12,27.4l12.9,29h-10.1l-10.9-24.7H432v24.7h-9.2v-24.7h-14.4L397.5,617.3z"/>
		<path id="XMLID_17_" class="st3" d="M538.6,609v24.3h-9.3v-16h-48.8v16h-9.3V609h7.5c3.6-7.6,6.9-18.7,6.9-32.7v-15.4h42.5V609
			H538.6z M518.7,569.1h-24.2v7.2c0,14.2-2.7,25.1-6.2,32.7h30.3v-39.9H518.7z"/>
		<path id="XMLID_20_" class="st3" d="M584.1,611.3h-2.5c-3.5,4.4-9.5,7.4-17.6,7.4c-13,0-20.3-8.7-20.3-18.4
			c0-9.1,5.9-18.7,21.6-18.7h18.4v-2.2c0-6.8-3.9-11.8-13.8-11.8c-8.4,0-12.6,3.2-13.1,8.2h-9.5c0.8-10.4,9.7-16.5,22.4-16.5
			c14.2,0,23.3,6.8,23.3,19.5v38.4h-9L584.1,611.3L584.1,611.3z M583.7,594.4v-5.1h-16.9c-9.3,0-13.5,4-13.5,10.7
			c0,6.4,4.7,10.4,13.1,10.4C575.8,610.4,583.7,603.4,583.7,594.4z"/>
		<path id="XMLID_23_" class="st3" d="M676.3,617.3v-48.1h-30.8v48.1H636v-56.4h49.8v56.4H676.3z"/>
		<path id="XMLID_25_" class="st3" d="M710.6,560.9v6h2.5c3.1-3.9,8.6-7.5,17.6-7.5c15.6,0,24.7,13,24.7,29.7
			c0,17-9.2,29.7-24.7,29.7c-9,0-14.2-3.5-17.2-7.5H711v28.4h-9.5v-78.8H710.6L710.6,560.9z M710.8,589.1c0,11.1,5.1,21.4,17.7,21.4
			c11.3,0,17.3-8.8,17.3-21.4c0-12.5-6-21.4-17.3-21.4C715.9,567.7,710.8,578,710.8,589.1z"/>
		<path id="XMLID_28_" class="st3" d="M819.5,589.1c0,16.7-10.2,29.7-27.8,29.7c-17.7,0-27.8-13-27.8-29.7
			c0-16.7,10.1-29.7,27.8-29.7C809.3,559.4,819.5,572.4,819.5,589.1z M809.9,589.1c0-11.1-5.8-21.4-18.2-21.4
			c-12.5,0-18.2,10.3-18.2,21.4c0,11.1,5.7,21.4,18.2,21.4C804.1,610.4,809.9,600.1,809.9,589.1z"/>
		<path id="XMLID_31_" class="st3" d="M867.1,639.7h-9.4v-22.4h-1.8c-17.9,0-27.9-11.9-27.9-28.2c0-16.3,9.7-28.2,27.8-28.2h1.9v-25
			h9.4v25h1.8c17.8,0,27.8,11.9,27.8,28.2c0,17.3-10.5,28.2-29.5,28.2L867.1,639.7L867.1,639.7z M855.9,609.2h1.8v-40.3h-1.8
			c-12.5,0-18.5,9.2-18.5,20.1C837.5,600,843.3,609.2,855.9,609.2z M868.7,609.2c12.6,0,18.6-9.2,18.6-20.1c0-11-5.9-20.1-18.6-20.1
			h-1.6v40.3L868.7,609.2L868.7,609.2z"/>
		<path id="XMLID_35_" class="st3" d="M957.7,589h-43c0.3,13.4,6.4,21.5,18,21.5c7.9,0,12.6-3.4,14.3-8.7h9.6c-1.8,9.6-10,17-24,17
			c-17.6,0-27.4-12.9-27.4-30.2c0-17.3,10.1-29.1,27.2-29.1c16.8,0,24.8,12.4,25.2,26.3v3.2H957.7z M915.3,581h32.6
			c-0.6-7.2-6-13.3-15.6-13.3C922.1,567.7,916.5,573.8,915.3,581z"/>
		<path id="XMLID_38_" class="st3" d="M1017.3,600.3c-2.1,11.1-10.6,18.5-23.7,18.5c-17.6,0-27.4-13-27.4-29.7
			c0-17,9.8-29.7,27.4-29.7c13.4,0,21.5,7.4,23.4,17.8h-9.5c-1.8-5.7-6.2-9.5-13.9-9.5c-12.8,0-17.9,10-17.9,21.2
			c0,11.3,5.3,21.6,17.9,21.6c8.1,0,12.8-3.9,14.2-10.2L1017.3,600.3L1017.3,600.3z"/>
		<path id="XMLID_40_" class="st3" d="M1076.4,600.3c-2.1,11.1-10.6,18.5-23.7,18.5c-17.6,0-27.4-13-27.4-29.7
			c0-17,9.8-29.7,27.4-29.7c13.4,0,21.5,7.4,23.4,17.8h-9.5c-1.8-5.7-6.2-9.5-13.9-9.5c-12.8,0-17.9,10-17.9,21.2
			c0,11.3,5.3,21.6,17.9,21.6c8.1,0,12.8-3.9,14.2-10.2L1076.4,600.3L1076.4,600.3z"/>
		<path id="XMLID_42_" class="st3" d="M1087.8,617.3v-56.4h9.3v43.6h2.5l24.7-43.6h13.9v56.4h-9.3v-43.6h-2.5l-25.2,43.6H1087.8z"/>
		<path id="XMLID_44_" class="st3" d="M1205.8,589.1c0,16.7-10.2,29.7-27.8,29.7c-17.7,0-27.8-13-27.8-29.7
			c0-16.7,10.1-29.7,27.8-29.7C1195.6,559.4,1205.8,572.4,1205.8,589.1z M1196.3,589.1c0-11.1-5.8-21.4-18.2-21.4
			c-12.5,0-18.2,10.3-18.2,21.4c0,11.1,5.7,21.4,18.2,21.4C1190.5,610.4,1196.3,600.1,1196.3,589.1z"/>
		<path id="XMLID_47_" class="st3" d="M1258.6,617.3v-24.8h-31.2v24.8h-9.5v-56.4h9.5v23.3h31.2v-23.3h9.5v56.4H1258.6z"/>
		<path id="XMLID_49_" class="st3" d="M1319.6,611.3h-2.5c-3.5,4.4-9.5,7.4-17.6,7.4c-13,0-20.3-8.7-20.3-18.4
			c0-9.1,5.9-18.7,21.6-18.7h18.4v-2.2c0-6.8-3.9-11.8-13.8-11.8c-8.4,0-12.6,3.2-13.1,8.2h-9.5c0.8-10.4,9.7-16.5,22.4-16.5
			c14.2,0,23.3,6.8,23.3,19.5v38.4h-9L1319.6,611.3L1319.6,611.3z M1319.3,594.4v-5.1h-16.9c-9.3,0-13.5,4-13.5,10.7
			c0,6.4,4.7,10.4,13.1,10.4C1311.4,610.4,1319.3,603.4,1319.3,594.4z"/>
		<path id="XMLID_52_" class="st3" d="M1336.9,608.3h1.9c7.6,0,11.1-5.6,11.1-25.6v-21.8h43.2v56.4h-9.6v-48.1h-24.7V583
			c0,26-6,34.4-19.9,34.4h-1.9L1336.9,608.3L1336.9,608.3z"/>
		<path id="XMLID_54_" class="st3" d="M1460.5,589.1c0,16.7-10.2,29.7-27.8,29.7c-17.7,0-27.8-13-27.8-29.7
			c0-16.7,10.1-29.7,27.8-29.7S1460.5,572.4,1460.5,589.1z M1451,589.1c0-11.1-5.8-21.4-18.2-21.4c-12.5,0-18.2,10.3-18.2,21.4
			c0,11.1,5.7,21.4,18.2,21.4C1445.2,610.4,1451,600.1,1451,589.1z"/>
		<path id="XMLID_57_" class="st3" d="M1512.4,588.6c5.3,1.3,9.2,5.9,9.2,13.2c0,10.3-7.1,15.4-19.9,15.4h-29v-56.4h28
			c11.3,0,17.8,5.3,17.8,14.2c0,5.5-2.9,9.4-6,11.1L1512.4,588.6L1512.4,588.6z M1482,584.3h17.7c6.8,0,9.2-3.6,9.2-7.6
			c0-4.4-2.4-7.7-9.2-7.7H1482V584.3z M1501.1,609.2c8.2,0,11-3.6,11-8.4c0-4.8-2.8-8.5-11-8.5h-19v16.9H1501.1z"/>
		<path id="XMLID_61_" class="st3" d="M1531.3,617.3v-13h11.6v15.1l-6.3,10.7h-6l6.3-10.7v-2.1H1531.3z"/>
	</g>
	<g id="XMLID_63_">
		<path id="XMLID_64_" class="st3" d="M202.9,727.9H186v24.8h-9.5v-56.4h9.5v23.3h17.1l11.8-23.3h10L211,723.6l14.5,29.2h-10.2
			L202.9,727.9z"/>
		<path id="XMLID_66_" class="st3" d="M286.7,724.6c0,16.7-10.2,29.7-27.8,29.7c-17.7,0-27.8-13-27.8-29.7s10.1-29.7,27.8-29.7
			C276.5,694.9,286.7,707.9,286.7,724.6z M277.2,724.6c0-11.1-5.8-21.4-18.2-21.4c-12.5,0-18.2,10.3-18.2,21.4
			c0,11.1,5.7,21.4,18.2,21.4C271.4,745.9,277.2,735.6,277.2,724.6z"/>
		<path id="XMLID_69_" class="st3" d="M291.9,696.4h48.6v8.3H321v48.1h-9.5v-48.1h-19.6V696.4z"/>
		<path id="XMLID_71_" class="st3" d="M401.3,724.6c0,16.7-10.2,29.7-27.8,29.7c-17.7,0-27.8-13-27.8-29.7s10.1-29.7,27.8-29.7
			C391.1,694.9,401.3,707.9,401.3,724.6z M391.8,724.6c0-11.1-5.8-21.4-18.2-21.4c-12.5,0-18.2,10.3-18.2,21.4
			c0,11.1,5.7,21.4,18.2,21.4C386,745.9,391.8,735.6,391.8,724.6z"/>
		<path id="XMLID_74_" class="st3" d="M422.6,696.4v6h2.5c3.1-3.9,8.6-7.5,17.6-7.5c15.6,0,24.7,13,24.7,29.7
			c0,17-9.2,29.7-24.7,29.7c-9,0-14.2-3.5-17.2-7.5H423v28.4h-9.5v-78.8L422.6,696.4L422.6,696.4z M422.8,724.6
			c0,11.1,5.1,21.4,17.7,21.4c11.3,0,17.3-8.8,17.3-21.4s-6-21.4-17.3-21.4C428,703.2,422.8,713.5,422.8,724.6z"/>
		<path id="XMLID_77_" class="st3" d="M483.7,775.2l11.6-27.6l-24.1-51.1h10.2l17.2,37.2h2.8l15.7-37.2h10l-33.8,78.8h-9.6V775.2z"
			/>
		<path id="XMLID_79_" class="st3" d="M612.2,724.6c0,16.6-10.2,29.7-27.3,29.7c-15.9,0-25.9-11.4-27.1-26.3h-12.9v24.8h-9.4v-56.4
			h9.4v23.3h13.2c1.8-14.3,11.5-24.7,26.7-24.7C602,694.9,612.2,708,612.2,724.6z M602.7,724.6c0-11.1-5.7-21.4-17.8-21.4
			c-12.2,0-17.8,10.3-17.8,21.4c0,11.1,5.6,21.4,17.8,21.4C597,745.9,602.7,735.6,602.7,724.6z"/>
		<path id="XMLID_82_" class="st3" d="M646.2,743.8h1.9c7.6,0,11.1-5.6,11.1-25.6v-21.8h43.2v56.4h-9.6v-48.1H668v13.8
			c0,26-6,34.4-19.9,34.4h-1.9L646.2,743.8L646.2,743.8z"/>
		<path id="XMLID_84_" class="st3" d="M794.5,724.6c0,16.6-10.2,29.7-27.3,29.7c-15.9,0-25.9-11.4-27.1-26.3h-12.9v24.8h-9.4v-56.4
			h9.4v23.3h13.2c1.8-14.3,11.5-24.7,26.7-24.7C784.3,694.9,794.5,708,794.5,724.6z M785,724.6c0-11.1-5.7-21.4-17.8-21.4
			c-12.2,0-17.8,10.3-17.8,21.4c0,11.1,5.6,21.4,17.8,21.4C779.3,745.9,785,735.6,785,724.6z"/>
		<path id="XMLID_87_" class="st3" d="M859.1,725.6c0,16-10.4,28.7-27.9,28.7c-17.9,0-28.1-12.2-28.1-34.1c0-19,2.7-38.6,22.3-41.9
			l15-2.5c4.1-0.6,5.1-1.1,5.5-4.4h8.8c-0.3,6.4-2.4,11-11.1,12.5l-17.3,2.9c-10.1,1.8-13.4,8.8-14.7,18.2h2.5
			c4.8-6.3,10.3-8.2,18.2-8.2C849.3,696.9,859.1,709.6,859.1,725.6z M849.3,725.5c0-10.5-5.8-20.4-18.4-20.4
			c-12.5,0-18.4,9.8-18.4,20.4c0,10.4,5.8,20.5,18.4,20.5C843.5,745.9,849.3,735.9,849.3,725.5z"/>
		<path id="XMLID_90_" class="st3" d="M917.5,696.4v56.4h-9.6v-22.3h-17.1c-1.2,0-2.2,0-3.5-0.1l-8.5,22.4h-10l9.5-24.5
			c-5.8-2.8-8.7-7.7-8.7-14.8c0-10.7,6.9-17.1,19.8-17.1L917.5,696.4L917.5,696.4z M890.4,704.4c-8.5,0-11.3,3.5-11.3,9.2
			c0,5.5,2.8,8.8,11.3,8.8h17.5v-18H890.4z"/>
		<path id="XMLID_93_" class="st3" d="M927.1,696.4h48.6v8.3h-19.5v48.1h-9.5v-48.1h-19.6V696.4z"/>
		<path id="XMLID_95_" class="st3" d="M977.3,752.8v-13h11.6v13H977.3z"/>
	</g>
</g>
</svg>
