<?xml version="1.0" encoding="utf-8"?>
<!-- Generator: Adobe Illustrator 19.0.0, SVG Export Plug-In . SVG Version: 6.00 Build 0)  -->
<svg version="1.1" id="Layer_1" xmlns="http://www.w3.org/2000/svg" xmlns:xlink="http://www.w3.org/1999/xlink" x="0px" y="0px"
	 viewBox="110 141 1500 1000" style="enable-background:new 110 141 1500 1000;" xml:space="preserve">
<style type="text/css">
	.st0{fill:#2BB9AF;}
	.st1{fill:#FFFFFF;}
</style>
<g>
	<g id="XMLID_3_">
		<g>
			<path class="st0" d="M129,279.6h-15.6l46.1-135.1h27.1L233,279.6h-16l-14-42h-59.9L129,279.6z M147.5,223.8h50.9l-21-63.6h-8.8
				L147.5,223.8z"/>
			<path class="st0" d="M329.5,199.4c5.7,1.2,18.2,3.7,25,5.2c20,4.6,33.3,15,33.3,38.2c0,21.2-16.5,40.3-50,40.3
				c-30.2,0-50.5-16.4-53-39.3h15.6c3.5,18.9,20.1,25.3,38.2,25.3c18.6,0,33.7-9.1,33.7-25.9c0-15.6-10.3-21.6-23.4-24.7
				c-6.7-1.6-19.7-4.1-26.2-5.6c-19.3-4-32-14.6-32-34.3c0-21,16.7-37.6,46.3-37.6c26.7,0,44.2,14.4,47.7,35.6H369
				c-3.5-14-13.2-21.6-32.4-21.6c-16.1,0-30.3,7.7-30.3,23.2C306.2,192.4,318.4,197.1,329.5,199.4z"/>
			<path class="st0" d="M420.5,208.1h-14.4c1.8-16.9,16.4-26.8,36.3-26.8c23.2,0,38.1,11.6,38.1,33.2v66.1h-13.4v-10.2h-5.6
				l-0.3,0.4c-5.6,7.2-15.2,12.3-28,12.3c-21.2,0-33.2-14.8-33.2-31.1c0-15.4,9.7-31.7,35.4-31.7h31.2v-4.9
				c0-12.5-7.3-21.5-23.8-21.5C429.3,193.8,421.8,199.3,420.5,208.1z M466.5,241.4v-9.8h-28.9c-15.4,0-23.4,7.3-23.4,19.4
				c0,11.6,8.7,18.8,22.6,18.8C452.6,269.8,466.5,257.4,466.5,241.4z"/>
			<path class="st0" d="M584.9,278.7h-14.4v-57c0-18.2-8.7-27.6-24.8-27.6c-17.2,0-28.6,15.7-28.6,33.2v51.5h-14.4v-95h13.8v10.4
				h5.4l0.3-0.4c4.9-7.2,15-12.5,27.2-12.5c22.8,0,35.4,14.1,35.4,36.9v60.5H584.9z"/>
			<path class="st0" d="M632.3,221c6.3,1.2,12.7,2.3,19,3.3c16.4,2.9,26.6,11.3,26.6,28.8c0,15.6-13,29.9-37.9,29.9
				c-25.6,0-38.4-11.5-40.9-29.2h14.6c2,11.3,11.9,16.6,25.5,16.6c13.9,0,24.2-5.4,24.2-17c0-9.2-6-14.2-17.9-16.4l-20.5-3.7
				c-13.4-2.5-22.3-9.6-22.3-23.9c0-15.8,11.5-28.2,36.3-28.2c21.1,0,33.7,10.2,36.2,26.2h-14.4c-1.9-9.6-11.3-13.7-22.5-13.7
				c-11.9,0-20.9,4.8-20.9,14.1C617.4,216.3,622.9,219.5,632.3,221z"/>
		</g>
		<g>
			<path class="st0" d="M196.3,388.2l-0.8,0.4l21.7,61.6h-15.8l-20.1-58.1c-3.7,0.4-7.7,0.7-11.4,0.7h-39.8v57.4h-15.4V315h58.5
				c27.9,0,43.4,14.4,43.4,39C216.7,370.6,209.8,382.3,196.3,388.2z M170.8,379.3c21.7,0,30.3-9.6,30.3-25.3
				c0-15.9-8.6-25.5-30.3-25.5h-40.7v50.9h40.7V379.3z"/>
			<path class="st0" d="M245.8,401.6v1c0.6,23.8,11.2,38.5,30.8,38.5c13,0,21.2-5.8,24.4-15.3h14.6c-3.4,15.8-16.8,27.8-39.1,27.8
				c-28.5,0-45-21.9-45-51.9c0-29.9,16.9-49.9,44.7-49.9c27.3,0,40.8,21.1,41.4,45v4.7L245.8,401.6L245.8,401.6z M246.8,388.8
				l-0.2,1.1h56.1l-0.1-1c-1-12.8-10.7-23.7-26.7-23.7C258.8,365.1,249,376.1,246.8,388.8z"/>
			<path class="st0" d="M418.1,446.7c0,27-16.3,44.2-43.1,44.2c-23.2,0-38.6-9.8-41.8-27.6h14.3c3.3,11.6,13.5,15.7,27.4,15.7
				c19.8,0,28.9-12.9,28.9-32.9v-8.8h-5.5c-5,6.8-13.4,13.1-27.5,13.1c-25.4,0-41.4-20.8-41.4-49.1c0-28.5,16-49.3,41.4-49.3
				c14.7,0,23.1,6.3,28.1,13h5.5v-10.5h13.8L418.1,446.7L418.1,446.7z M404.1,401.4c0-18.9-9.7-36.3-30.4-36.3
				c-18.9,0-29.9,14.6-29.9,36.3c0,21.3,11,36.1,29.9,36.1C394.4,437.5,404.1,420.1,404.1,401.4z"/>
			<path class="st0" d="M454.7,413.3c0,18.2,8.7,27.6,24.7,27.6c16.8,0,28.7-15.3,28.7-33.2v-51.5h14.4V451h-13.8v-10.4H503
				l-0.3,0.4c-5.1,7.2-15,12.5-27.1,12.5c-22.6,0-35.3-14.1-35.3-36.9v-60.5h14.4V413.3z"/>
			<path class="st0" d="M560.7,449.2h-14.4V311.6h14.4V449.2z"/>
			<path class="st0" d="M597.7,378.7h-14.4c1.8-16.9,16.4-26.8,36.3-26.8c23.2,0,38.1,11.6,38.1,33.2v66.1h-13.4V441h-5.6l-0.3,0.4
				c-5.6,7.2-15.2,12.3-28,12.3c-21.2,0-33.2-14.8-33.2-31.1c0-15.4,9.7-31.7,35.4-31.7h31.2V386c0-12.5-7.3-21.5-23.8-21.5
				C606.5,364.4,598.9,369.9,597.7,378.7z M643.7,412v-9.8h-28.9c-15.4,0-23.4,7.3-23.4,19.4c0,11.6,8.7,18.8,22.6,18.8
				C629.8,440.4,643.7,427.9,643.7,412z"/>
			<path class="st0" d="M726.2,368.8c-19.7,0-31.9,12.2-31.9,34v47.4H680v-94.8h13.8v11.5h5.6c4.8-5.9,13.5-11.5,27.6-11.5h6.3v13.4
				H726.2L726.2,368.8z"/>
		</g>
	</g>
	<g>
		<path class="st1" d="M960.3,405.6v13.1h-18.4v31.5h-14.2v-31.5h-64.9v-17.9l57.6-83.1h21.5v87.9H960.3z M927.8,405.6v-70.8h-5.5
			l-43.8,65.4v0.3v5.2h49.3V405.6z"/>
		<path class="st1" d="M1066.8,383.9c0,48.1-20.8,68.7-47.6,68.7s-47.4-20.6-47.4-68.7s20.6-68.9,47.4-68.9
			C1046,315,1066.8,335.8,1066.8,383.9z M1051.8,383.9c0-33.4-10.2-55.9-32.6-55.9c-22.3,0-32.5,22.4-32.5,55.9
			c0,33.3,10.2,55.7,32.5,55.7C1041.7,439.6,1051.8,417.2,1051.8,383.9z"/>
		<path class="st1" d="M1175.3,383.9c0,48.1-20.8,68.7-47.6,68.7s-47.4-20.6-47.4-68.7s20.6-68.9,47.4-68.9
			C1154.5,315,1175.3,335.8,1175.3,383.9z M1160.3,383.9c0-33.4-10.2-55.9-32.6-55.9c-22.3,0-32.5,22.4-32.5,55.9
			c0,33.3,10.2,55.7,32.5,55.7C1150.2,439.6,1160.3,417.2,1160.3,383.9z"/>
	</g>
	<g>
		<g>
			<path class="st1" d="M120.6,634.4c3.2,0,5.4-1.7,6.2-4.5h2.8c-1,4.1-4.1,6.9-9,6.9c-6.7,0-10.5-5.2-10.5-12.2s3.9-12.2,10.5-12.2
				c4.5,0,7.7,2.4,8.7,6.3h-2.8c-0.9-2.5-2.7-3.9-5.9-3.9c-5.4,0-7.9,4.7-7.9,9.8C112.8,629.8,115.2,634.4,120.6,634.4z"/>
			<path class="st1" d="M148.6,628.1c0,4.9-2.9,8.7-7.8,8.7c-4.9,0-7.8-3.8-7.8-8.7s2.9-8.7,7.8-8.7
				C145.7,619.4,148.6,623.2,148.6,628.1z M146.2,628.1c0-3.3-1.7-6.5-5.4-6.5s-5.4,3.1-5.4,6.5c0,3.4,1.7,6.5,5.4,6.5
				C144.4,634.6,146.2,631.4,146.2,628.1z"/>
			<path class="st1" d="M167.8,628.4c0,4.7-3,8.4-7.9,8.4c-5,0-7.9-3.5-7.9-10c0-5.7,0.8-11.4,6.3-12.3l4.2-0.7
				c1-0.1,1.5-0.3,1.7-1.3h2.3c-0.1,1.7-0.7,2.9-3.1,3.4l-4.9,0.9c-2.9,0.6-4,2.8-4.3,5.6v0.2h1v-0.1c1.4-1.8,2.8-2.4,5.1-2.4
				C165,620.1,167.8,623.7,167.8,628.4z M165.3,628.4c0-3.1-1.7-6.2-5.4-6.2c-3.6,0-5.4,3-5.4,6.2c0,3.1,1.7,6.2,5.4,6.2
				C163.5,634.6,165.3,631.5,165.3,628.4z"/>
			<path class="st1" d="M178.9,634.7c2.3,0,3.7-1.2,4.2-3.1h2.5c-0.7,3.1-3.1,5.2-6.6,5.2c-4.9,0-7.7-3.8-7.7-8.7
				c0-5,2.8-8.7,7.7-8.7c3.7,0,5.9,2.1,6.5,5H183c-0.6-1.7-1.9-2.9-4.1-2.9c-3.7,0-5.2,3.1-5.2,6.5
				C173.6,631.5,175.2,634.7,178.9,634.7z"/>
			<path class="st1" d="M201.6,620v2.1H196v14.2h-2.3v-14.2H188V620H201.6z"/>
			<path class="st1" d="M216.5,628.2c1.5,0.4,2.6,1.6,2.6,3.7c0,2.9-2,4.4-5.6,4.4h-8.1V620h7.8c3.2,0,5,1.5,5,4
				c0,1.6-0.8,2.6-1.7,3.1h-0.1v1L216.5,628.2z M207.8,626.9h5.2c2,0,2.7-1.1,2.7-2.4c0-1.4-0.8-2.4-2.7-2.4h-5.2V626.9z
				 M213.3,634.2c2.4,0,3.3-1.1,3.3-2.6s-0.9-2.7-3.3-2.7h-5.5v5.3L213.3,634.2L213.3,634.2z"/>
			<path class="st1" d="M224.8,627.9v0.2c0.1,4.1,1.9,6.6,5.3,6.6c2.2,0,3.6-1,4.2-2.6h2.5c-0.6,2.7-2.9,4.8-6.7,4.8
				c-4.9,0-7.7-3.8-7.7-8.9s2.9-8.6,7.7-8.6c4.7,0,7,3.6,7.1,7.7v0.8H224.8z M225,625.7v0.2h9.6v-0.2c-0.2-2.2-1.8-4.1-4.6-4.1
				C227,621.7,225.3,623.5,225,625.7z"/>
			<path class="st1" d="M255.6,636.3h-2.5V629h-9.2v7.3h-2.5V620h2.5v6.8h9.2V620h2.5V636.3z"/>
			<path class="st1" d="M275.1,636.3h-2.5V629h-9.2v7.3H261V620h2.5v6.8h9.2V620h2.5v16.3H275.1z"/>
			<path class="st1" d="M295.1,628.1c0,4.9-2.9,8.7-7.8,8.7c-4.9,0-7.8-3.8-7.8-8.7s2.9-8.7,7.8-8.7
				C292.2,619.4,295.1,623.2,295.1,628.1z M292.7,628.1c0-3.3-1.7-6.5-5.4-6.5c-3.7,0-5.4,3.1-5.4,6.5c0,3.4,1.7,6.5,5.4,6.5
				C290.9,634.6,292.7,631.4,292.7,628.1z"/>
			<path class="st1" d="M300.9,627.9v0.2c0.1,4.1,1.9,6.6,5.3,6.6c2.2,0,3.6-1,4.2-2.6h2.5c-0.6,2.7-2.9,4.8-6.7,4.8
				c-4.9,0-7.7-3.8-7.7-8.9s2.9-8.6,7.7-8.6c4.7,0,7,3.6,7.1,7.7v0.8H300.9z M301.1,625.7v0.2h9.6v-0.2c-0.2-2.2-1.8-4.1-4.6-4.1
				C303.2,621.7,301.5,623.5,301.1,625.7z"/>
			<path class="st1" d="M347.3,636.3h-20.6V620h2.4v14.2h6.7V620h2.3v14.2h6.7V620h2.4v16.3H347.3z"/>
			<path class="st1" d="M363.8,628.2c1.5,0.4,2.6,1.6,2.6,3.7c0,2.9-2,4.4-5.6,4.4h-8.1V620h7.8c3.2,0,5,1.5,5,4
				c0,1.6-0.8,2.6-1.7,3.1h-0.1v1L363.8,628.2z M355.1,626.9h5.2c2,0,2.7-1.1,2.7-2.4c0-1.4-0.8-2.4-2.7-2.4h-5.2V626.9z
				 M360.7,634.2c2.4,0,3.3-1.1,3.3-2.6s-0.9-2.7-3.3-2.7h-5.5v5.3L360.7,634.2L360.7,634.2z"/>
			<path class="st1" d="M372.2,627.9v0.2c0.1,4.1,1.9,6.6,5.3,6.6c2.2,0,3.6-1,4.2-2.6h2.5c-0.6,2.7-2.9,4.8-6.7,4.8
				c-4.9,0-7.7-3.8-7.7-8.9s2.9-8.6,7.7-8.6c4.7,0,7,3.6,7.1,7.7v0.8H372.2z M372.3,625.7v0.2h9.6v-0.2c-0.2-2.2-1.8-4.1-4.6-4.1
				C374.4,621.7,372.7,623.5,372.3,625.7z"/>
			<path class="st1" d="M399.6,623.4l-7.1,12.8h-3.7V620h2.4v12.8h0.9h0.1l6.9-12.8h3.8v16.3h-2.4v-12.8L399.6,623.4L399.6,623.4z
				 M398.7,612.6h1.9c-0.2,2.9-1.9,4.5-4.8,4.5c-2.8,0-4.6-1.6-4.8-4.5h1.9c0.1,1.7,1,2.8,2.8,2.8
				C397.8,615.4,398.6,614.2,398.7,612.6z"/>
			<path class="st1" d="M422.5,636.3H420V629h-9.2v7.3h-2.5V620h2.5v6.8h9.2V620h2.5V636.3z"/>
			<path class="st1" d="M442.5,628.1c0,4.9-2.9,8.7-7.8,8.7s-7.8-3.8-7.8-8.7s2.9-8.7,7.8-8.7S442.5,623.2,442.5,628.1z
				 M440.1,628.1c0-3.3-1.7-6.5-5.4-6.5c-3.7,0-5.4,3.1-5.4,6.5c0,3.4,1.7,6.5,5.4,6.5C438.3,634.6,440.1,631.4,440.1,628.1z"/>
			<path class="st1" d="M448.3,627.9v0.2c0.1,4.1,1.9,6.6,5.3,6.6c2.2,0,3.6-1,4.2-2.6h2.5c-0.6,2.7-2.9,4.8-6.7,4.8
				c-4.9,0-7.7-3.8-7.7-8.9s2.9-8.6,7.7-8.6c4.7,0,7,3.6,7.1,7.7v0.8H448.3z M448.5,625.7v0.2h9.6v-0.2c-0.2-2.2-1.8-4.1-4.6-4.1
				C450.6,621.7,448.9,623.5,448.5,625.7z"/>
			<path class="st1" d="M488.1,636.3h-2.5v-14.2h-9.1v14.2H474V620h14v16.3H488.1z"/>
			<path class="st1" d="M495.9,621.6h0.9c0.9-1.2,2.4-2.2,4.9-2.2c4.3,0,7,3.8,7,8.7c0,5-2.6,8.7-7,8.7c-2.6,0-4-1-4.8-2.2H496v8.4
				h-2.5v-23.2h2.4V621.6z M496,628.1c0,3.3,1.5,6.5,5.2,6.5c3.3,0,5.1-2.7,5.1-6.5c0-3.8-1.8-6.5-5.1-6.5
				C497.5,621.7,496,624.8,496,628.1z"/>
			<path class="st1" d="M527.8,628.1c0,4.9-2.9,8.7-7.8,8.7s-7.8-3.8-7.8-8.7s2.9-8.7,7.8-8.7C524.8,619.4,527.8,623.2,527.8,628.1z
				 M525.3,628.1c0-3.3-1.7-6.5-5.4-6.5c-3.7,0-5.4,3.1-5.4,6.5c0,3.4,1.7,6.5,5.4,6.5C523.5,634.6,525.3,631.4,525.3,628.1z"/>
			<path class="st1" d="M542.9,623.4l-7.1,12.8h-3.7V620h2.4v12.8h0.9h0.1l6.9-12.8h3.8v16.3h-2.4v-12.8L542.9,623.4L542.9,623.4z"
				/>
			<path class="st1" d="M557.2,621.6c-2.2,0-3.5,0.8-4,2.6h-2.4c0.4-3,2.8-4.8,6.4-4.8c3.9,0,6,2.1,6,4.5c0,1.8-0.8,2.9-1.7,3.3
				h-0.1v1h0.1c1.1,0.3,2.3,1.4,2.3,3.7c0,2.7-2.3,4.9-6.6,4.9c-4.2,0-6.6-1.9-7.1-4.9h2.4c0.7,2.1,2.6,2.8,4.7,2.8
				c2.3,0,4.1-0.9,4.1-2.9c0-1.8-1-2.8-3.7-2.8H555v-2.1h2.5c2.3,0,3.3-1.2,3.3-2.6C560.8,622.5,559.2,621.6,557.2,621.6z"/>
			<path class="st1" d="M579.5,628.2c1.5,0.4,2.6,1.6,2.6,3.7c0,2.9-2,4.4-5.6,4.4h-8.1V620h7.8c3.2,0,5,1.5,5,4
				c0,1.6-0.8,2.6-1.7,3.1h-0.1v1L579.5,628.2z M570.8,626.9h5.2c2,0,2.7-1.1,2.7-2.4c0-1.4-0.8-2.4-2.7-2.4h-5.2V626.9z
				 M576.3,634.2c2.4,0,3.3-1.1,3.3-2.6s-0.9-2.7-3.3-2.7h-5.5v5.3L576.3,634.2L576.3,634.2z"/>
			<path class="st1" d="M601.1,628.1c0,4.9-2.9,8.7-7.8,8.7c-4.9,0-7.8-3.8-7.8-8.7s2.9-8.7,7.8-8.7
				C598.2,619.4,601.1,623.2,601.1,628.1z M598.6,628.1c0-3.3-1.7-6.5-5.4-6.5s-5.4,3.1-5.4,6.5c0,3.4,1.7,6.5,5.4,6.5
				S598.6,631.4,598.6,628.1z"/>
			<path class="st1" d="M622.6,634.3v6.8h-2.4v-4.7h-14.4v4.7h-2.4v-6.8h2.1c1.1-2.3,2.1-5.6,2.1-9.8v-4.4h11.9v14.2L622.6,634.3
				L622.6,634.3z M617.2,622.1H610v2.3c0,4.2-0.8,7.3-1.7,9.5l-0.1,0.2h9.1L617.2,622.1L617.2,622.1z"/>
			<path class="st1" d="M633,634.7c2.3,0,3.7-1.2,4.2-3.1h2.5c-0.7,3.1-3.1,5.2-6.6,5.2c-4.9,0-7.7-3.8-7.7-8.7c0-5,2.8-8.7,7.7-8.7
				c3.7,0,5.9,2.1,6.5,5H637c-0.6-1.7-1.9-2.9-4.1-2.9c-3.7,0-5.2,3.1-5.2,6.5C627.7,631.5,629.3,634.7,633,634.7z"/>
			<path class="st1" d="M655.7,620v2.1h-5.6v14.2h-2.3v-14.2h-5.7V620H655.7z"/>
			<path class="st1" d="M670.6,628.2c1.5,0.4,2.6,1.6,2.6,3.7c0,2.9-2,4.4-5.6,4.4h-8.1V620h7.8c3.2,0,5,1.5,5,4
				c0,1.6-0.8,2.6-1.7,3.1h-0.1v1L670.6,628.2z M661.8,626.9h5.2c2,0,2.7-1.1,2.7-2.4c0-1.4-0.8-2.4-2.7-2.4h-5.2V626.9z
				 M667.4,634.2c2.4,0,3.3-1.1,3.3-2.6s-0.9-2.7-3.3-2.7h-5.5v5.3L667.4,634.2L667.4,634.2z"/>
			<path class="st1" d="M692.1,628.1c0,4.9-2.9,8.7-7.8,8.7c-4.9,0-7.8-3.8-7.8-8.7s2.9-8.7,7.8-8.7
				C689.2,619.4,692.1,623.2,692.1,628.1z M689.7,628.1c0-3.3-1.7-6.5-5.4-6.5s-5.4,3.1-5.4,6.5c0,3.4,1.7,6.5,5.4,6.5
				C687.9,634.6,689.7,631.4,689.7,628.1z"/>
			<path class="st1" d="M117.7,684.1c2.3,0,3.7-1.2,4.2-3.1h2.5c-0.7,3.1-3.1,5.2-6.6,5.2c-4.9,0-7.7-3.8-7.7-8.7
				c0-5,2.8-8.7,7.7-8.7c3.7,0,5.9,2.1,6.5,5h-2.5c-0.6-1.7-1.9-2.9-4.1-2.9c-3.7,0-5.2,3.1-5.2,6.5
				C112.5,680.9,114.1,684.1,117.7,684.1z"/>
			<path class="st1" d="M151.7,685.6h-2.5v-14.2h-9.1v14.2h-2.5v-16.3h14L151.7,685.6L151.7,685.6z"/>
			<path class="st1" d="M159.5,671h0.9c0.9-1.2,2.4-2.2,4.9-2.2c4.3,0,7,3.8,7,8.7c0,5-2.6,8.7-7,8.7c-2.6,0-4-1-4.8-2.2h-0.9v8.4
				h-2.5v-23.2h2.4C159.5,669.2,159.5,671,159.5,671z M159.5,677.5c0,3.3,1.5,6.5,5.2,6.5c3.3,0,5.1-2.7,5.1-6.5s-1.8-6.5-5.1-6.5
				C161,671,159.5,674.2,159.5,677.5z"/>
			<path class="st1" d="M191.3,677.5c0,4.9-2.9,8.7-7.8,8.7s-7.8-3.8-7.8-8.7s2.9-8.7,7.8-8.7S191.3,672.6,191.3,677.5z
				 M188.9,677.5c0-3.3-1.7-6.5-5.4-6.5c-3.7,0-5.4,3.1-5.4,6.5c0,3.3,1.7,6.5,5.4,6.5C187.1,683.9,188.9,680.8,188.9,677.5z"/>
			<path class="st1" d="M205.6,692.4h-2.4v-6.7c-0.2-0.1-0.4-0.1-0.7,0c-5.1,0-7.9-3.4-7.9-8.2s2.8-8.2,7.9-8.2
				c0.2,0.1,0.5,0.1,0.7,0v-7.4h2.4v7.4c0.2,0.1,0.4,0.1,0.7,0c5,0,7.9,3.4,7.9,8.2c0,5.1-3,8.2-8.4,8.2h-0.2V692.4z M202.6,683.6
				h0.7v-12.2h-0.7c-3.7,0-5.5,2.8-5.5,6.1C197.1,680.8,198.9,683.6,202.6,683.6z M206.3,683.6c3.7,0,5.5-2.8,5.5-6.1
				s-1.8-6.1-5.5-6.1h-0.6v12.2L206.3,683.6L206.3,683.6z"/>
			<path class="st1" d="M220,677.3v0.2c0.1,4.1,1.9,6.6,5.3,6.6c2.2,0,3.6-1,4.2-2.6h2.5c-0.6,2.7-2.9,4.8-6.7,4.8
				c-4.9,0-7.7-3.8-7.7-8.9c0-5.1,2.9-8.6,7.7-8.6c4.7,0,7,3.6,7.1,7.7v0.8H220z M220.2,675.1v0.2h9.6v-0.2
				c-0.2-2.2-1.8-4.1-4.6-4.1C222.2,671,220.5,672.9,220.2,675.1z"/>
			<path class="st1" d="M243.3,684.1c2.3,0,3.7-1.2,4.2-3.1h2.5c-0.7,3.1-3.1,5.2-6.6,5.2c-4.9,0-7.7-3.8-7.7-8.7
				c0-5,2.8-8.7,7.7-8.7c3.7,0,5.9,2.1,6.5,5h-2.5c-0.6-1.7-1.9-2.9-4.1-2.9c-3.7,0-5.2,3.1-5.2,6.5
				C238.1,680.9,239.7,684.1,243.3,684.1z"/>
			<path class="st1" d="M260.9,684.1c2.3,0,3.7-1.2,4.2-3.1h2.5c-0.7,3.1-3.1,5.2-6.6,5.2c-4.9,0-7.7-3.8-7.7-8.7
				c0-5,2.8-8.7,7.7-8.7c3.7,0,5.9,2.1,6.5,5H265c-0.6-1.7-1.9-2.9-4.1-2.9c-3.7,0-5.2,3.1-5.2,6.5
				C255.6,680.9,257.2,684.1,260.9,684.1z"/>
			<path class="st1" d="M282.5,672.8l-7.1,12.8h-3.7v-16.3h2.4v12.8h0.9h0.1l6.9-12.8h3.8v16.3h-2.4v-12.8H282.5L282.5,672.8z"/>
			<path class="st1" d="M305.9,677.5c0,4.9-2.9,8.7-7.8,8.7c-4.9,0-7.8-3.8-7.8-8.7s2.9-8.7,7.8-8.7
				C303,668.8,305.9,672.6,305.9,677.5z M303.5,677.5c0-3.3-1.7-6.5-5.4-6.5s-5.4,3.1-5.4,6.5c0,3.3,1.7,6.5,5.4,6.5
				C301.7,683.9,303.5,680.8,303.5,677.5z"/>
			<path class="st1" d="M324.4,685.6H322v-7.3h-9.2v7.3h-2.5v-16.3h2.5v6.8h9.2v-6.8h2.5v16.3H324.4z"/>
			<path class="st1" d="M332.1,673.4h-2.5c0.3-2.9,2.8-4.6,6.2-4.6c4,0,6.5,2,6.5,5.7v11.3H340V684h-1v0.1c-1,1.2-2.6,2.1-4.8,2.1
				c-3.6,0-5.7-2.5-5.7-5.3c0-2.6,1.7-5.4,6.1-5.4h5.4v-0.8c0-2.1-1.2-3.7-4.1-3.7C333.6,670.9,332.3,671.9,332.1,673.4z M340,679.1
				v-1.7h-5c-2.6,0-4,1.2-4,3.3c0,2,1.5,3.2,3.9,3.2C337.6,683.9,340,681.8,340,679.1z"/>
			<path class="st1" d="M346,683.3c2.4,0,3.4-1.8,3.4-7.7v-6.3h12v16.3H359v-14.2h-7.4v4.2c0,7.6-1.7,9.9-5.6,9.9h-0.4v-2.3
				L346,683.3L346,683.3z"/>
			<path class="st1" d="M374.2,685.6h-7.3v-16.3h2.5v5.5h4.9c3.9,0,6,2,6,5.3C380.1,683.6,378,685.6,374.2,685.6z M373.8,683.5
				c1.2,0,2.1-0.2,2.7-0.7c0.8-0.6,1.1-1.5,1.1-2.6s-0.3-2-1.1-2.6c-0.6-0.5-1.5-0.7-2.7-0.7h-4.5v6.6H373.8z"/>
			<path class="st1" d="M398.2,685.6h-2.5v-7.3h-9.2v7.3H384v-16.3h2.5v6.8h9.2v-6.8h2.5V685.6z"/>
			<path class="st1" d="M406.1,674.9h4.6c3.9,0,5.9,2,5.9,5.3c0,3.4-2,5.4-5.9,5.4h-7.1v-16.3h2.5V674.9z M406.1,683.5h4.3
				c1.3,0,2.2-0.2,2.8-0.7c0.8-0.6,1.1-1.5,1.1-2.6s-0.3-2-1.1-2.6c-0.6-0.5-1.5-0.7-2.8-0.7h-4.3V683.5z M422.1,685.6h-2.5v-16.3
				h2.5V685.6z"/>
			<path class="st1" d="M431.6,669.4l3.9,7.6h0.1h0.7h0.1l3.9-7.6h4.1v16.3H442v-13.3h-1l-3.7,7.1h-2.8l-3.7-7.1h-1v13.3h-2.4v-16.3
				H431.6z"/>
			<path class="st1" d="M460.7,672.8l-7.1,12.8h-3.7v-16.3h2.4v12.8h0.9h0.1l6.9-12.8h3.8v16.3h-2.4v-12.8H460.7L460.7,672.8z"/>
			<path class="st1" d="M485.3,684.1c2.3,0,3.7-1.2,4.2-3.1h2.5c-0.7,3.1-3.1,5.2-6.6,5.2c-4.9,0-7.7-3.8-7.7-8.7
				c0-5,2.8-8.7,7.7-8.7c3.7,0,5.9,2.1,6.5,5h-2.5c-0.6-1.7-1.9-2.9-4.1-2.9c-3.7,0-5.2,3.1-5.2,6.5
				C480.1,680.9,481.7,684.1,485.3,684.1z"/>
			<path class="st1" d="M510.8,677.5c0,4.9-2.9,8.7-7.8,8.7s-7.8-3.8-7.8-8.7s2.9-8.7,7.8-8.7S510.8,672.6,510.8,677.5z
				 M508.3,677.5c0-3.3-1.7-6.5-5.4-6.5c-3.7,0-5.4,3.1-5.4,6.5c0,3.3,1.7,6.5,5.4,6.5C506.6,683.9,508.3,680.8,508.3,677.5z"/>
			<path class="st1" d="M526.8,669.4v2.1h-5.6v14.2h-2.3v-14.2h-5.7v-2.1H526.8z"/>
			<path class="st1" d="M532.8,671h0.9c0.9-1.2,2.4-2.2,4.9-2.2c4.3,0,7,3.8,7,8.7c0,5-2.6,8.7-7,8.7c-2.6,0-4-1-4.8-2.2h-0.9v8.4
				h-2.5v-23.2h2.4V671z M532.9,677.5c0,3.3,1.5,6.5,5.2,6.5c3.3,0,5.1-2.7,5.1-6.5s-1.8-6.5-5.1-6.5
				C534.4,671,532.9,674.2,532.9,677.5z"/>
			<path class="st1" d="M560.7,669.5h2.6l-9.6,22.8h-2.4l3.2-8l-6.9-14.9h2.6l4.9,10.9h1L560.7,669.5z"/>
			<path class="st1" d="M583.1,683.7v6.8h-2.4v-4.7h-14.4v4.7H564v-6.8h2.1c1.1-2.3,2.1-5.6,2.1-9.8v-4.4h11.9v14.2H583.1z
				 M577.6,671.5h-7.2v2.3c0,4.2-0.8,7.3-1.7,9.5l-0.1,0.2h9.1L577.6,671.5L577.6,671.5z"/>
			<path class="st1" d="M600.9,685.6h-2.5v-7.3h-9.2v7.3h-2.5v-16.3h2.5v6.8h9.2v-6.8h2.5V685.6z"/>
			<path class="st1" d="M617,672.8l-7.1,12.8h-3.7v-16.3h2.4v12.8h0.9h0.1l6.9-12.8h3.8v16.3H618v-12.8H617L617,672.8z"/>
			<path class="st1" d="M628.3,685.6h-2.5v-16.3h2.5v6.8h5.1l3.3-6.8h2.6l-4,7.8l4.2,8.4h-2.6l-3.6-7.3h-5V685.6z"/>
			<path class="st1" d="M645.8,673.4h-2.5c0.3-2.9,2.8-4.6,6.2-4.6c4,0,6.5,2,6.5,5.7v11.3h-2.3V684h-1v0.1c-1,1.2-2.6,2.1-4.8,2.1
				c-3.6,0-5.7-2.5-5.7-5.3c0-2.6,1.7-5.4,6.1-5.4h5.4v-0.8c0-2.1-1.2-3.7-4.1-3.7C647.3,670.9,646.1,671.9,645.8,673.4z
				 M653.7,679.1v-1.7h-4.9c-2.6,0-4,1.2-4,3.3c0,2,1.5,3.2,3.9,3.2C651.3,683.9,653.7,681.8,653.7,679.1z"/>
			<path class="st1" d="M665.4,669.4l3.9,7.6h0.1h0.7h0.1l3.9-7.6h4.1v16.3h-2.4v-13.3h-1l-3.7,7.1h-2.8l-3.7-7.1h-1v13.3h-2.4
				v-16.3H665.4z"/>
			<path class="st1" d="M694.5,672.8l-7.1,12.8h-3.7v-16.3h2.4v12.8h0.9h0.1l6.9-12.8h3.8v16.3h-2.4v-12.8H694.5L694.5,672.8z"/>
			<path class="st1" d="M706.3,682.1v3.5h-3.1v-3.5H706.3z"/>
		</g>
	</g>
	<g>
		<path class="st1" d="M860.7,651.4h-4.4l13-38h7.6l13,38h-4.5l-3.9-11.8h-16.8L860.7,651.4z M865.9,635.7h14.3l-5.9-17.9h-2.5
			L865.9,635.7z"/>
		<path class="st1" d="M912,629.1c7.9,0,12.4,4.2,12.4,11.2s-4.5,11.2-12.4,11.2h-15.9v-38h25.3v3.9h-21v11.8H912V629.1z
			 M911.3,647.6c6.4,0,8.9-2.8,8.9-7.5c0-4.5-2.5-7.4-8.9-7.4h-10.8v14.9H911.3z"/>
		<path class="st1" d="M956.2,632.2c3.1,1.5,5.2,4.8,5.2,8.7c0,6-4.1,10.6-12.6,10.6h-16.6v-38h16.2c7.8,0,11.8,4.4,11.8,9.5
			c0,3.4-1.4,6.1-4.1,7.6l-0.1,0.1v1.5L956.2,632.2z M936.5,629.8h11.8c4.2,0,7.6-1.5,7.6-6.4c0-4.6-3.9-6.2-7.7-6.2h-11.7
			L936.5,629.8L936.5,629.8z M948.5,647.6c4.3,0,8.5-1.6,8.5-7.2c0-5.2-4-7-8.5-7h-12v14.1L948.5,647.6L948.5,647.6z"/>
		<path class="st1" d="M973.3,651.4H969v-38h25.3v3.9h-21V651.4z"/>
		<path class="st1" d="M1031.2,647.8v13.3h-4.2v-9.5h-29.2v9.5h-4.3v-13.3h3.9c2.5-5.4,4.9-13.6,4.9-26.6v-7.5h23.4v34.1H1031.2z
			 M1021.5,617.3h-15.2v4.4c0,11.9-2.1,20.5-4.2,25.4l-0.2,0.4h19.5v-30.2H1021.5z"/>
		<path class="st1" d="M1064.2,647.5v3.9h-26.6v-38h25.8v3.9H1042v12.5h17.2v3.9H1042v13.9L1064.2,647.5L1064.2,647.5z"/>
		<path class="st1" d="M1098.3,647.5v3.9h-26.6v-38h25.8v3.9H1076v12.5h17.2v3.9H1076v13.9L1098.3,647.5L1098.3,647.5z
			 M1077.7,603.3h3.8v4.3h-3.8V603.3z M1087.2,603.3h3.8v4.3h-3.8V603.3z"/>
		<path class="st1" d="M1130.1,634v17.4h-4.2V634h-10.3l-7,17.4h-4.6l8-19.3l-7.5-18.7h4.5l6.6,16.7h10.3v-16.7h4.2v16.7h10.3
			l6.6-16.7h4.5l-7.5,18.7l8,19.3h-4.5l-7.1-17.4H1130.1z"/>
		<path class="st1" d="M1172.3,616.4c-5.2,0-8,2.2-9,6.1h-4.4c1-6.2,5.9-10.1,13.4-10.1c8.4,0,12.8,4.7,12.8,10.1
			c0,4.3-1.8,6.5-3.9,7.7l-0.1,0.1v1.5l0.2,0.1c3,1.3,5.4,3.7,5.4,9.1c0,6-4.9,11.4-14,11.4c-9,0-14-4.3-15.3-10.9h4.5
			c1.3,4.7,5.2,7,10.8,7c5.6,0,9.5-2.8,9.5-7.6c0-4.3-2.5-7.3-8.8-7.3h-5.7v-3.9h5.8c5.4,0,7.3-3.1,7.3-6.5
			C1180.6,618.7,1176.9,616.4,1172.3,616.4z"/>
		<path class="st1" d="M1198.4,646.1h1.5h0.2l17.4-32.7h7.2v38h-4.2v-32.7h-1.6l-17.4,32.7h-7.2v-38h4.2L1198.4,646.1L1198.4,646.1z
			"/>
		<path class="st1" d="M1238.6,646.1h1.5h0.2l17.4-32.7h7.2v38h-4.2v-32.7h-1.6l-17.4,32.7h-7.2v-38h4.2L1238.6,646.1L1238.6,646.1z
			 M1255.1,602.9h3.3c-0.3,5.1-3.9,7.8-8.9,7.8c-4.9,0-8.5-2.8-8.8-7.8h3.3c0.2,3,2.4,4.9,5.5,4.9
			C1252.7,607.7,1255,605.9,1255.1,602.9z"/>
		<path class="st1" d="M1278.9,613.4v16.5h11.8l7.5-16.5h4.5l-8.4,18.5l8.9,19.5h-4.5l-8-17.7h-11.8v17.7h-4.3v-38H1278.9z"/>
		<path class="st1" d="M1339.7,613.4v38h-4.3v-34.1h-16v10.9c0,8.4-0.7,14-2.1,17.5c-1.8,4.4-4.7,5.7-9.2,5.7h-0.8v-4.3h0.8
			c5.3,0,7.5-3.3,7.5-19.9v-13.9L1339.7,613.4L1339.7,613.4z"/>
		<path class="st1" d="M1357.1,613.4l9.5,18.1h1.5l9.3-18.1h7.7v38h-4.2v-33h-1.6l-9.7,18.3h-4.6l-9.7-18.3h-1.6v33h-4.2v-38H1357.1
			z"/>
		<path class="st1" d="M1425.1,651.4h-4.3v-17.6h-21.5v17.6h-4.3v-38h4.3v16.4h21.5v-16.4h4.3V651.4z"/>
		<path class="st1" d="M1467.9,632.4c0,11.1-6.2,20-17.4,20c-11.3,0-17.4-8.9-17.4-20c0-11.1,6.1-20,17.4-20
			C1461.7,612.4,1467.9,621.3,1467.9,632.4z M1463.5,632.4c0-8.1-3.9-15.8-13.1-15.8s-13.1,7.7-13.1,15.8s3.9,15.8,13.1,15.8
			C1459.6,648.2,1463.5,640.5,1463.5,632.4z"/>
		<path class="st1" d="M1505.6,651.4h-4.3v-34.1h-21.2v34.1h-4.3v-38h29.8V651.4z"/>
		<path class="st1" d="M864.5,717.4h-4.3v-38h15.7c8.1,0,12.6,4.2,12.6,11.2c0,7.1-4.5,11.3-12.6,11.3h-11.4V717.4z M875.1,698.2
			c6.5,0,9-2.9,9-7.5s-2.5-7.5-9-7.5h-10.6v15H875.1z"/>
		<path class="st1" d="M911.5,714.5c5.3,0,8.8-2.8,10.1-7.3h4.6c-1.6,6.7-6.7,11.3-14.7,11.3c-11,0-17.2-8.5-17.2-20s6.3-20,17.3-20
			c7.4,0,12.6,4,14.2,10.4h-4.6c-1.5-4.1-4.4-6.5-9.6-6.5c-8.9,0-12.9,7.7-12.9,16C898.6,706.8,902.6,714.5,911.5,714.5z"/>
		<path class="st1" d="M946.6,683.2v34.2h-4.2v-34.2h-12.5v-3.8h29.2v3.8H946.6z"/>
		<path class="st1" d="M987.4,679.4h4.5l-17.8,38h-4.3l5.2-11.3l-13.9-26.7h4.6l10.4,20.3h1.8L987.4,679.4z"/>
		<path class="st1" d="M1034.8,697.9c0,10.5-6.8,15.5-17.1,15.5c-0.3-0.2-0.6-0.2-0.9,0v5h-4.1v-5c-0.3-0.2-0.6-0.2-0.9,0
			c-10.3,0-17.1-5-17.1-15.5c0-10.3,6.8-15.5,17.1-15.5c0.3,0.2,0.6,0.2,0.9,0v-4.5h4.1v4.5c0.3,0.2,0.6,0.2,0.9,0
			C1027.9,682.4,1034.8,687.5,1034.8,697.9z M1012.6,709.4v-23h-0.9c-7.8,0-12.9,3.7-12.9,11.5s5.1,11.5,12.9,11.5H1012.6z
			 M1017.7,709.4c7.7,0,12.9-3.7,12.9-11.5s-5.1-11.5-12.9-11.5h-0.9v23H1017.7z"/>
		<path class="st1" d="M1042.5,717.4h-4.7l11.3-20.1l-9.6-17.9h4.6l8.2,15.4h2.3l8.3-15.4h4.6l-9.7,17.7l11.2,20.3h-5l-9.5-17.5
			h-2.2L1042.5,717.4z"/>
		<path class="st1" d="M1075.4,717.7v-38h4.3v34.1h21v-34.1h4.2v34.1h5.6v13.3h-4.3v-9.5h-30.8V717.7z"/>
		<path class="st1" d="M1119.4,690.2c0,1.7,0,3.4,0.9,4.9c1.2,1.9,3.6,3.1,8.8,3.1c3.3,0,6.4-0.5,9.2-1.1v-17.6h4.3v38h-4.3V701
			l-0.3,0.1c-2.9,0.6-6.6,1-9.5,1c-7.2,0-10.5-1.9-12.1-4.5c-1.3-2.1-1.4-4.7-1.4-7.4v-10.7h4.3L1119.4,690.2L1119.4,690.2z"/>
		<path class="st1" d="M1172.2,679.4h4.1v34.1h15.5v-34.1h4.2v38h-43.5v-38h4.2v34.1h15.5L1172.2,679.4L1172.2,679.4z"/>
		<path class="st1" d="M1205.9,717.7v-38h4.2v34.1h15.5v-34.1h4.1v34.1h15.5v-34.1h4.2v34.1h5.6v13.3h-4.3v-9.5h-44.8V717.7z"/>
		<path class="st1" d="M1281.7,717.4h-15.4v-34.1h-9.8v-3.9h14v14.7h11.2c8.3,0,13,4.4,13,11.6
			C1294.7,713.1,1290,717.4,1281.7,717.4z M1280.9,713.6c6.8,0,9.5-3,9.5-7.9c0-4.7-2.6-7.8-9.5-7.8h-10.3v15.7H1280.9z"/>
		<path class="st1" d="M1317.2,717.4h-14.8v-38h4.3v14.7h10.5c8.3,0,12.8,4.4,12.8,11.6C1330.1,713.1,1325.5,717.4,1317.2,717.4z
			 M1316.4,713.6c6.8,0,9.4-3,9.4-7.9c0-4.7-2.5-7.8-9.4-7.8h-9.7v15.7H1316.4z M1340,717.4h-4.3v-38h4.3V717.4z"/>
		<path class="st1" d="M1365.3,717.4h-15.4v-38h4.3v14.7h11.1c8.2,0,12.9,4.4,12.9,11.6C1378.2,713.1,1373.5,717.4,1365.3,717.4z
			 M1364.4,713.6c6.7,0,9.4-3,9.4-7.9c0-4.7-2.6-7.8-9.4-7.8h-10.2v15.7H1364.4z"/>
		<path class="st1" d="M1383.5,707.6h4.6c1.3,4.2,4.9,6.9,10.1,6.9c8.4,0,12.4-6.8,12.7-14.4v-0.3h-17.7V696h17.6v-0.3
			c-0.7-7.1-4.6-13.3-12.5-13.3c-5.2,0-8.2,2.3-9.7,6.2h-4.6c1.7-6.2,7-10.1,14.3-10.1c11,0,17.2,8.6,17.2,20c0,11.3-6.2,20-17.2,20
			C1390.4,718.4,1385.1,714,1383.5,707.6z"/>
		<path class="st1" d="M1470.2,698.4c0,11.1-6,20-17.1,20c-10.6,0-16.4-7.9-17-18.3v-0.3h-8.4v17.8h-4.3v-38.5h4.3v16.6h8.5v-0.2
			c1-9.7,6.8-17.1,16.9-17.1C1464.2,678.4,1470.2,687.3,1470.2,698.4z M1465.8,698.4c0-8.2-3.8-15.9-12.7-15.9s-12.7,7.7-12.7,15.9
			s3.8,15.9,12.7,15.9S1465.8,706.6,1465.8,698.4z"/>
		<path class="st1" d="M1505.5,679.4v38h-4.3v-16.1H1490c-1.1,0-2.2-0.1-3.2-0.2l-5.7,16.3h-4.4l6.1-17.3l-0.2-0.1
			c-3.8-1.7-5.7-5-5.7-9.6c0-6.9,4.4-11,12.2-11L1505.5,679.4L1505.5,679.4z M1501.2,697.5v-14.3h-11.5c-6.1,0-8.5,2.7-8.5,7.2
			c0,4.4,2.4,7.1,8.5,7.1H1501.2z"/>
		<path class="st1" d="M863.4,787.3h-4.1c0.5-4.8,4.6-7.5,10.2-7.5c6.5,0,10.7,3.3,10.7,9.3v18.6h-3.8v-2.9h-1.6l-0.1,0.1
			c-1.6,2-4.3,3.5-7.9,3.5c-6,0-9.3-4.2-9.3-8.8c0-4.3,2.7-8.9,10-8.9h8.8v-1.4c0-3.5-2-6.1-6.7-6.1
			C865.9,783.3,863.7,784.8,863.4,787.3z M876.3,796.7v-2.8h-8.1c-4.3,0-6.6,2-6.6,5.5c0,3.3,2.4,5.3,6.4,5.3
			C872.4,804.7,876.3,801.2,876.3,796.7z"/>
		<path class="st1" d="M912.9,794.6c0,7.7-4.9,13.8-12.9,13.8c-8.2,0-13-5.8-13-16.4c0-9.3,1.3-18.7,10.4-20.2l6.9-1.2
			c1.7-0.2,2.5-0.5,2.8-2.1h3.7c-0.2,2.9-1.1,4.8-5.1,5.5l-8,1.4c-4.8,0.9-6.5,4.5-7.1,9.2v0.3h1.6l0.1-0.1c2.2-3,4.7-3.9,8.3-3.9
			C908.3,780.8,912.9,786.9,912.9,794.6z M908.8,794.5c0-5.2-2.9-10.1-8.9-10.1s-8.9,4.9-8.9,10.1c0,5.1,2.9,10.2,8.9,10.2
			S908.8,799.6,908.8,794.5z"/>
		<path class="st1" d="M938.4,794.1c2.4,0.6,4.2,2.7,4.2,6.1c0,4.8-3.2,7.2-9.2,7.2h-13.3v-26.7H933c5.2,0,8.1,2.4,8.1,6.6
			c0,2.5-1.4,4.3-2.8,5.1l-0.1,0.1v1.6L938.4,794.1z M924.1,792h8.5c3.2,0,4.5-1.9,4.5-3.9c0-2.2-1.3-4-4.5-4h-8.5V792z
			 M933.2,804.1c3.9,0,5.4-1.8,5.4-4.3s-1.5-4.4-5.4-4.4h-9.1v8.7H933.2z"/>
		<path class="st1" d="M969.1,780.7v3.5h-15.3v23.2h-4.1v-26.7H969.1z"/>
		<path class="st1" d="M1000.7,804.2v11.2h-3.9v-7.7h-23.5v7.7h-3.9v-11.2h3.5c1.8-3.8,3.4-9.1,3.4-16V781h19.5v23.2H1000.7z
			 M991.7,784.2h-11.9v3.7c0,6.8-1.3,12-2.9,15.7l-0.2,0.4h14.9v-19.8H991.7z"/>
		<path class="st1" d="M1008.9,793.8v0.3c0.2,6.7,3.1,10.8,8.7,10.8c3.6,0,6-1.6,6.9-4.3h4.1c-1,4.4-4.7,7.8-11,7.8
			c-8,0-12.7-6.2-12.7-14.6c0-8.4,4.7-14,12.6-14c7.7,0,11.5,5.9,11.6,12.7v1.3H1008.9z M1009.2,790.2l-0.1,0.3h15.8v-0.3
			c-0.3-3.6-3-6.7-7.5-6.7C1012.6,783.5,1009.8,786.6,1009.2,790.2z"/>
		<path class="st1" d="M1038.6,793.8v0.3c0.2,6.7,3.1,10.8,8.7,10.8c3.6,0,6-1.6,6.9-4.3h4.1c-1,4.4-4.7,7.8-11,7.8
			c-8,0-12.7-6.2-12.7-14.6c0-8.4,4.7-14,12.6-14c7.7,0,11.5,5.9,11.6,12.7v1.3H1038.6z M1038.8,790.2l-0.1,0.3h15.8v-0.3
			c-0.3-3.6-3-6.7-7.5-6.7C1042.2,783.5,1039.5,786.6,1038.8,790.2z M1040.5,768.6h3.8v4.4h-3.8V768.6z M1049.9,768.6h3.8v4.4h-3.8
			V768.6z"/>
		<path class="st1" d="M1067.8,807.4h-4.2l6-13.7l-5.7-13h4.2l4.9,11.3h7.3v-11.3h3.8V792h7.3l4.8-11.3h4.2l-5.7,13l6.1,13.7h-4.3
			l-5.2-11.9h-7.3v11.9h-3.8v-11.9h-7.2L1067.8,807.4z"/>
		<path class="st1" d="M1116.5,783.3c-3.6,0-5.8,1.3-6.5,4.3h-3.9c0.6-4.9,4.7-7.8,10.5-7.8c6.4,0,9.9,3.4,9.9,7.4
			c0,3-1.3,4.8-2.7,5.4l-0.2,0.1v1.6l0.2,0.1c1.9,0.6,3.7,2.3,3.7,6c0,4.4-3.8,8.1-10.8,8.1s-10.7-3.1-11.6-8h3.9
			c1.1,3.5,4.2,4.5,7.7,4.5c3.7,0,6.7-1.5,6.7-4.7c0-2.9-1.7-4.6-6.1-4.6h-4.3V792h4.1c3.8,0,5.3-1.9,5.3-4.2
			C1122.5,784.8,1119.8,783.3,1116.5,783.3z"/>
		<path class="st1" d="M1152.5,786.4l-11.6,21.1h-6.1v-26.7h3.9v21.1h1.5h0.2l11.4-21.1h6.3v26.7h-3.9v-21.1h-1.5H1152.5z"/>
		<path class="st1" d="M1184.6,786.4l-11.6,21.1h-6.1v-26.7h3.9v21.1h1.5h0.2l11.4-21.1h6.3v26.7h-3.9v-21.1h-1.5H1184.6z
			 M1183.1,768.6h3.2c-0.3,4.7-3.2,7.3-7.9,7.3c-4.7,0-7.6-2.6-7.8-7.3h3.2c0.1,2.7,1.6,4.6,4.7,4.6
			C1181.6,773.2,1182.9,771.3,1183.1,768.6z"/>
		<path class="st1" d="M1203,807.4h-4.1v-26.7h4.1V792h8.4l5.5-11.2h4.2l-6.5,12.9l6.9,13.8h-4.3l-5.8-12h-8.3L1203,807.4
			L1203,807.4z"/>
		<path class="st1" d="M1225.7,803.6c3.9,0,5.6-3,5.6-12.6v-10.3h19.8v26.7h-4.1v-23.2h-12.1v6.9c0,12.5-2.7,16.3-9.2,16.3h-0.6
			v-3.8L1225.7,803.6L1225.7,803.6z"/>
		<path class="st1" d="M1266.8,780.7l6.5,12.4h0.2h1.1h0.2l6.5-12.4h6.7v26.7h-3.9v-21.9h-1.6l-6.1,11.7h-4.6l-6.1-11.7h-1.6v21.9
			h-3.9v-26.7H1266.8z"/>
		<path class="st1" d="M1319.9,807.4h-4.1v-12h-15.1v12h-4.1v-26.7h4.1V792h15.1v-11.2h4.1V807.4z"/>
		<path class="st1" d="M1352.8,794.1c0,8.1-4.8,14.3-12.9,14.3s-12.9-6.2-12.9-14.3s4.8-14.3,12.9-14.3S1352.8,786,1352.8,794.1z
			 M1348.7,794.1c0-5.4-2.9-10.6-8.8-10.6c-6,0-8.8,5.2-8.8,10.6s2.8,10.6,8.8,10.6C1345.9,804.7,1348.7,799.5,1348.7,794.1z"/>
		<path class="st1" d="M1382.9,807.4h-4.1v-23.2H1364v23.2h-4.1v-26.7h23V807.4z"/>
		<path class="st1" d="M1395.7,783.4h1.5c1.5-1.9,3.9-3.7,8-3.7c7.1,0,11.5,6.2,11.5,14.3c0,8.3-4.3,14.3-11.5,14.3
			c-4.2,0-6.5-1.7-7.9-3.6h-1.5v13.7h-4v-38h3.9V783.4z M1395.8,794.1c0,5.4,2.5,10.6,8.5,10.6c5.4,0,8.4-4.5,8.4-10.6
			s-3-10.6-8.4-10.6C1398.2,783.5,1395.8,788.7,1395.8,794.1z"/>
		<path class="st1" d="M1434.9,804.9c3.7,0,6.1-1.9,6.8-5h4c-1.1,5.1-5,8.5-10.9,8.5c-8,0-12.6-6.2-12.6-14.3
			c0-8.3,4.6-14.3,12.6-14.3c6,0,9.7,3.4,10.7,8.2h-4.1c-0.9-2.8-3.1-4.7-6.7-4.7c-6,0-8.6,5.1-8.6,10.7
			C1426.3,799.6,1428.9,804.9,1434.9,804.9z"/>
		<path class="st1" d="M1472.2,780.7v3.5h-9.2v23.2h-3.8v-23.2h-9.3v-3.5H1472.2z"/>
		<path class="st1" d="M1496.3,781h4.2l-15.7,37.5h-3.9l5.3-13.1L1475,781h4.3l8.1,17.9h1.6L1496.3,781z"/>
		<path class="st1" d="M876,884.5h-3.9v-10.9c-0.4-0.2-0.7-0.2-1.1,0c-8.3,0-13-5.6-13-13.5c0-7.8,4.6-13.5,12.9-13.5
			c0.4,0.1,0.8,0.1,1.2,0v-12.2h3.9v12.2c0.4,0.1,0.7,0.1,1.1,0c8.3,0,12.9,5.6,12.9,13.5c0,8.3-4.9,13.5-13.8,13.5H876V884.5z
			 M871,870.1h1.1v-20H871c-6.1,0-9,4.6-9,10S864.9,870.1,871,870.1z M877,870.1c6.1,0,9-4.6,9-10s-2.9-10-9-10h-1v20H877z"/>
		<path class="st1" d="M905,862l-6.7,11.4H894l8.2-13.7l-7.4-13h4.2l6,10.8h2.2l6.2-10.8h4.2l-7.5,12.9l8.2,13.8h-4.6l-6.5-11.4H907
			H905L905,862z"/>
		<path class="st1" d="M947.8,870.2h5v11.2h-3.9v-7.7h-23.8V847h4.1v23.2h14.7V847h4L947.8,870.2L947.8,870.2z"/>
		<path class="st1" d="M961.2,854.1c0,1.2,0,2.4,0.7,3.5c0.9,1.3,2.6,2.2,6.2,2.2c2.5,0,4.7-0.3,6.8-0.8v-12.4h4.1v26.7h-4.1v-10.8
			l-0.3,0.1c-2.3,0.5-5.2,0.8-7.4,0.8c-5.2,0-7.7-1.4-8.9-3.4c-1-1.6-1.1-3.5-1.1-5.5v-7.8h4V854.1z"/>
		<path class="st1" d="M1021.2,873.4h-33.8v-26.7h3.9V870h11v-23.2h3.8V870h11v-23.2h3.9v26.6H1021.2z"/>
		<path class="st1" d="M1063.8,870.2h5v11.2h-3.9v-7.7H1030V847h3.9v23.2h11.1V847h3.9v23.2h11V847h3.9V870.2L1063.8,870.2z"/>
		<path class="st1" d="M1071.3,850.2v-3.5h12v9.1h8.1c6.4,0,9.9,3.3,9.9,8.7c0,5.5-3.5,8.9-9.9,8.9h-12v-23.2H1071.3z M1090.8,870
			c2.1,0,3.5-0.4,4.6-1.1c1.3-1,1.8-2.4,1.8-4.3c0-1.8-0.5-3.3-1.8-4.3c-1-0.8-2.5-1.1-4.6-1.1h-7.5V870H1090.8z"/>
		<path class="st1" d="M1111.9,855.8h7.6c6.3,0,9.7,3.3,9.7,8.7c0,5.5-3.4,8.9-9.7,8.9h-11.7v-26.7h4.1L1111.9,855.8L1111.9,855.8z
			 M1111.9,870h7c2.1,0,3.6-0.4,4.6-1.1c1.3-0.9,1.8-2.4,1.8-4.3c0-1.8-0.5-3.3-1.8-4.3c-1-0.7-2.5-1.1-4.6-1.1h-7V870z
			 M1138.1,873.4h-4.1v-26.7h4.1V873.4z"/>
		<path class="st1" d="M1159,873.4h-12v-26.7h4.1v9.1h8c6.3,0,9.8,3.3,9.8,8.7C1168.8,870.1,1165.3,873.4,1159,873.4z M1158.4,870
			c2,0,3.5-0.4,4.5-1.1c1.3-0.9,1.8-2.4,1.8-4.3c0-1.8-0.5-3.3-1.8-4.3c-1-0.7-2.5-1.1-4.5-1.1h-7.4V870H1158.4z"/>
		<path class="st1" d="M1184.7,874.4c-5.7,0-10-3.3-11.1-8.2h3.9c0.8,2.9,3.4,4.7,7.3,4.7c5,0,8-3.9,8.3-9v-0.3h-11.8v-3.4h11.8
			v-0.3c-0.4-4.9-3.1-8.6-8.2-8.6c-3.7,0-6.1,1.5-7,4.3h-3.9c1.1-4.7,5.1-7.9,10.9-7.9c7.7,0,12.5,5.9,12.5,14.3
			C1197.2,868.5,1192.5,874.4,1184.7,874.4z"/>
		<path class="st1" d="M1240.4,860.1c0,8-4.8,14.3-12.8,14.3c-7.4,0-12-5.5-12.5-12.7v-0.3h-6.6v12.2h-4v-27.2h4v11.4h6.7v-0.2
			c0.8-6.9,5.3-11.9,12.4-11.9C1235.5,845.8,1240.4,852.1,1240.4,860.1z M1236.3,860.1c0-5.4-2.8-10.6-8.7-10.6
			c-6,0-8.7,5.2-8.7,10.6s2.7,10.6,8.7,10.6C1233.5,870.7,1236.3,865.5,1236.3,860.1z"/>
		<path class="st1" d="M1268.7,846.7v26.7h-4.1v-10.7h-8.2c-0.6,0-1.2,0-1.8-0.1l-4,10.8h-4.2l4.5-11.7l-0.2-0.1
			c-2.7-1.3-4.1-3.6-4.1-6.9c0-5,3.2-8,9.1-8H1268.7z M1256.2,850.1c-1.8,0-3,0.3-3.9,1c-1.2,0.8-1.6,2.1-1.6,3.7
			c0,1.5,0.4,2.8,1.6,3.6c0.9,0.6,2.2,1,3.9,1h8.3v-9.2L1256.2,850.1L1256.2,850.1z"/>
		<path class="st1" d="M884.9,944.8c0,13.5-5.9,19.3-13.4,19.3s-13.3-5.8-13.3-19.3s5.8-19.4,13.3-19.4
			C879.1,925.4,884.9,931.3,884.9,944.8z M880.7,944.8c0-9.4-2.9-15.7-9.2-15.7s-9.1,6.3-9.1,15.7s2.9,15.7,9.1,15.7
			C877.9,960.5,880.7,954.1,880.7,944.8z"/>
		<path class="st1" d="M899.9,959.8v-29.2h-1.3l-7.5,5.1v-4.3l7.6-5.2h5.2v33.6h8.1v3.7h-20.9v-3.7L899.9,959.8L899.9,959.8z"/>
		<path class="st1" d="M921.1,936h-4.2c0.5-7.2,5.8-10.6,12-10.6c6.7,0,11.7,3.8,11.7,11.2c0,5-3.8,9.7-8.1,13.5l-9.2,8.1v1.6h18.5
			v3.7h-24.9v-4.9c4.3-3.5,10.3-8.4,13.7-11.8c2.5-2.3,5.8-5.5,5.8-10.1c0-4.9-3.1-7.6-7.6-7.6C924.7,929.1,921.7,931.3,921.1,936z"
			/>
		<path class="st1" d="M969.6,931.1l-9.3,8.1v1.5h0.3c6.2,0.2,10.8,4.1,10.8,11.2c0,7.7-5.5,12.2-12.8,12.2
			c-7.2,0-12.1-4.6-12.7-10.7h4.2c0.6,4.3,4.1,7.1,8.5,7.1c5.1,0,8.6-3.2,8.6-8.5c0-5.1-3.1-8.3-8.5-8.3c-1.1,0-2.1,0.1-2.9,0.3
			v-4.6l8.9-8v-1.6h-16v-3.6h21L969.6,931.1L969.6,931.1z"/>
		<path class="st1" d="M1003.6,950.9v3.7h-5.2v8.9h-4v-8.9h-18.2v-5l16.2-23.4h6.1v24.7H1003.6z M994.4,950.9V931h-1.5l-12.3,18.4
			v0.1v1.5L994.4,950.9L994.4,950.9z"/>
		<path class="st1" d="M1034.2,950.9c0,8.1-5.2,13.2-12.4,13.2c-7.8,0-12.1-4.6-12.6-10.7h4.2c0.7,4.7,3.8,7.1,8.2,7.1
			c5,0,8.4-3.6,8.4-9.3c0-5.3-3.3-9.1-8.3-9.1c-3.3,0-5.7,1.2-7.4,3.6h-4.3l1.6-19.4h20.5v3.6H1015l-0.9,11.4h1.6
			c1.6-1.6,3.5-2.6,6.9-2.6C1029.7,938.5,1034.2,944,1034.2,950.9z"/>
		<path class="st1" d="M1065.7,951.4c0,7.1-4.7,12.7-12.3,12.7s-13.3-4.8-13.3-18.3c0-11.5,4.4-20.4,13.8-20.4
			c5.9,0,9.8,3.6,10.8,8.5h-4.2c-1-3.2-3.1-4.8-6.6-4.8c-6,0-9.5,5.3-9.7,13.7v0.3h1.6c1.3-1.6,4-3.7,8.4-3.7
			C1060.6,939.3,1065.7,944.3,1065.7,951.4z M1061.5,951.6c0-5.8-3.8-8.6-8.3-8.6s-8.2,3-8.2,8.6c0,5.7,3.8,8.9,8.3,8.9
			S1061.5,957.4,1061.5,951.6z"/>
		<path class="st1" d="M1093.6,931.1l-15.8,32.3h-4.3l15.7-32.2v-1.5h-18.6v-3.6h23L1093.6,931.1L1093.6,931.1z"/>
		<path class="st1" d="M1119.9,944.6c2.4,0.8,5.7,3.9,5.7,8.8c0,6.1-5.2,10.7-13.1,10.7c-7.9,0-13.1-4.7-13.1-10.7
			c0-4.8,3.3-7.9,5.7-8.8l0.2-0.1V943l-0.2-0.1c-1.9-0.8-4.6-3.5-4.6-7.7c0-5.8,5-9.8,12-9.8s12,4,12,9.8c0,4.1-2.7,6.9-4.6,7.7
			l-0.2,0.1v1.6H1119.9z M1121.4,952.9c0-4.7-3.5-7.4-9-7.4c-5.4,0-9,2.7-9,7.4c0,4.6,3.5,7.5,9,7.5
			C1117.9,960.5,1121.4,957.5,1121.4,952.9z M1104.6,935.5c0,4.3,3.7,6.5,7.9,6.5s7.9-2.3,7.9-6.5c0-4.3-3.7-6.5-7.9-6.5
			C1108.2,929,1104.6,931.2,1104.6,935.5z"/>
		<path class="st1" d="M1130.7,938.2c0-7.1,4.7-12.7,12.3-12.7s13.3,4.8,13.3,18.3c0,11.5-4.4,20.4-13.8,20.4
			c-5.9,0-9.8-3.6-10.8-8.5h4.2c1,3.2,3.1,4.8,6.6,4.8c6,0,9.5-5.3,9.7-13.7v-0.3h-1.6c-1.3,1.6-4,3.7-8.4,3.7
			C1135.8,950.2,1130.7,945.2,1130.7,938.2z M1135,937.9c0,5.8,3.8,8.6,8.3,8.6s8.2-3,8.2-8.6c0-5.7-3.8-8.9-8.3-8.9
			S1135,932.2,1135,937.9z"/>
		<path class="st1" d="M859.7,1008.5v-5.7h5.1v5.7H859.7z M864.7,1023.7v5.7h-5.1v-5.7H864.7z"/>
		<path class="st1" d="M876.3,1029.4h-2.7v-5.7h5.1v6.9l-2.9,5h-2.3l2.8-4.8L876.3,1029.4L876.3,1029.4z M873.6,1008.5v-5.7h5.1v5.7
			H873.6z"/>
		<path class="st1" d="M892.6,1023.7v5.7h-5.1v-5.7H892.6z"/>
		<path class="st1" d="M904.2,1029.4h-2.7v-5.7h5.1v6.9l-2.9,5h-2.3l2.8-4.8L904.2,1029.4L904.2,1029.4z"/>
		<path class="st1" d="M936.7,1000.9c0,5.6-2.8,7.6-6.5,10.6c-2.6,2-3.6,2.9-3.6,6.5v1.2h-4.1v-1.2c0-4.7,1.5-6.1,5.1-9
			c2.9-2.3,5-4.1,5-8.2c0-3.4-2.6-6.7-7.2-6.7c-4.5,0-7.2,2.1-7.6,7.2h-4.1c0.4-6.7,4.7-10.6,11.7-10.6
			C932.3,990.7,936.7,994.7,936.7,1000.9z M927.1,1023.7v5.7H922v-5.7H927.1z"/>
		<path class="st1" d="M940.8,1037l16.2-48h3.6l-16,48.1L940.8,1037L940.8,1037z"/>
		<path class="st1" d="M973.4,1023.7v5.7h-5.1v-5.7H973.4z M973,991.4v15.6l-0.9,12.2h-2.5l-0.8-12.2v-15.7h4.2V991.4z"/>
		<path class="st1" d="M1004.2,1037.1c4.7,0,8.6-1.4,12.2-3.6l1.3,2.2c-3.9,2.5-8.3,3.9-13.7,3.9c-13.1,0-21.3-8.6-21.3-21.4
			c0-14.6,10.1-25.8,25.1-25.8c11.3,0,21,6.9,21,19.1c0,8.2-4.2,15.8-11.7,15.8c-3,0-4.8-1-5.7-2.9l-0.1-0.2h-1.3
			c-1.4,1.5-3.2,3.1-6.8,3.1c-5.2,0-8.4-3.5-8.4-9.5c0-7,4.4-13.1,11.3-13.1c2.9,0,4.8,1.4,5.5,2.5l0.1,0.1h1.5l0.4-1.9h3.3
			l-2.2,13.4l0,0c0,0.1,0,0.3-0.1,0.5c-0.1,0.6-0.2,1.7-0.2,2.3c0,2,1.4,3.1,3.3,3.1c4.3,0,8.2-4.9,8.2-13.4
			c0-9.7-7.4-16.4-18.6-16.4c-12.3,0-21.7,9.3-21.7,23.2C985.6,1028.1,991.2,1037.1,1004.2,1037.1z M1004,1024.5
			c4.5,0,7.7-4.3,7.7-10.2c0-3-0.9-4.7-2.1-5.6c-1-0.7-2.2-0.9-3.4-0.9c-4.7,0-7.6,5.2-7.6,10
			C998.6,1021.6,1000.1,1024.5,1004,1024.5z"/>
		<path class="st1" d="M1048.8,1012.6v-11.7h3.4v11.7h11.8v3.4h-11.8v11.7h-3.4V1016h-11.7v-3.4H1048.8z"/>
		<path class="st1" d="M1084,1037h-3.8c-4.6-5.5-8.4-13.6-8.4-24.2c0-10.5,3.7-18.3,8.1-23.9h3.8c-4.2,5.9-8.1,13.4-8.1,23.9
			C1075.6,1023.5,1079.7,1031.2,1084,1037z"/>
		<path class="st1" d="M1094.1,1012.8c0-10.5-3.8-18-8.1-23.9h3.8c4.4,5.6,8.1,13.4,8.1,23.9c0,10.6-3.8,18.7-8.4,24.2h-3.8
			C1090,1031.2,1094.1,1023.5,1094.1,1012.8z"/>
		<path class="st1" d="M1114.8,998l-7.7,15.6h-3.7l10.5-21h3.1l10.5,21h-3.6l-7.8-15.6H1114.8z"/>
		<path class="st1" d="M1149.5,1001.3c0,5.5-2.8,9.9-8.3,9.9c-5.6,0-8.4-4.4-8.4-9.9s2.8-9.9,8.4-9.9
			C1146.7,991.4,1149.5,995.8,1149.5,1001.3z M1146.4,1001.3c0-3.9-1.6-7.1-5.1-7.1c-3.6,0-5.2,3.1-5.2,7.1s1.6,7.1,5.2,7.1
			C1144.8,1008.4,1146.4,1005.3,1146.4,1001.3z M1162.8,992.2h3.4l-22.1,37.3h-3.5L1162.8,992.2z M1174.1,1020.2
			c0,5.5-2.8,9.9-8.4,9.9c-5.5,0-8.3-4.4-8.3-9.9c0-5.5,2.8-9.9,8.3-9.9S1174.1,1014.7,1174.1,1020.2z M1170.9,1020.2
			c0-3.9-1.6-7.1-5.2-7.1s-5.1,3.1-5.1,7.1c0,3.9,1.6,7.1,5.1,7.1C1169.2,1027.3,1170.9,1024.1,1170.9,1020.2z"/>
		<path class="st1" d="M1186.8,1002.6l1.7-10.5h3.3l-1.7,10.5h7.9l1.7-10.5h3.3l-1.7,10.5h5.4v3.1h-6l-1.5,10h5.5v3.1h-6l-1.7,10.5
			h-3.3l1.7-10.5h-7.8l-1.7,10.5h-3.3l1.7-10.5h-5.4v-3.1h6l1.6-10h-5.6v-3.1H1186.8z M1189.6,1005.8l-1.5,10h7.8l1.6-10H1189.6z"/>
		<path class="st1" d="M1244.3,992.2v37.3h-7l-17.6-31.6h-1.6v31.6h-4.1v-37.3h7l17.6,31.6h0.2h1.4v-31.6H1244.3z M1258.7,991.4
			c5.6,0,8.4,4.4,8.4,9.9s-2.8,9.9-8.4,9.9s-8.4-4.4-8.4-9.9C1250.3,995.8,1253.1,991.4,1258.7,991.4z M1250.3,1018v-2.7h16.9v2.7
			H1250.3z M1258.7,1008.4c3.6,0,5.2-3.1,5.2-7.1s-1.6-7.1-5.2-7.1s-5.2,3.1-5.2,7.1S1255.1,1008.4,1258.7,1008.4z"/>
		<path class="st1" d="M1275.4,997.1v-5.7h5.1v6.9l-2.9,5h-2.3l2.8-4.8v-0.1v-1.3L1275.4,997.1L1275.4,997.1z M1284.8,997.1v-5.7
			h5.1v6.9l-2.9,5h-2.3l2.8-4.8v-0.1v-1.3L1284.8,997.1L1284.8,997.1z"/>
		<path class="st1" d="M1308.7,991.4l-0.3,9.2l8.8-3.2l1,3l-8.9,2.6l5.6,7.3l-2.5,1.9l-5.2-7.6l-5.2,7.6l-2.5-1.9l5.6-7.3l-8.8-2.6
			l1-3l8.7,3.2l-0.3-9.2H1308.7z"/>
		<path class="st1" d="M866.2,1080.3H896v3.6h-29.8v1.6l10,10h-4.8l-13.3-13.3l13.3-13.3h4.8l-10,10v0.1V1080.3z"/>
		<path class="st1" d="M914.4,1065.6l-10,10v-4.8l13.3-13.3l13.3,13.3v4.8l-10-10h-1.6v29.8h-3.6v-29.8H914.4z"/>
		<path class="st1" d="M969.2,1078.7l-10-10h4.8l13.3,13.3l-13.3,13.4h-4.8l10-10v-1.6h-29.8v-3.6h29.8V1078.7z"/>
		<path class="st1" d="M1001.7,1087.2L1001.7,1087.2l10.1-10v4.8l-13.3,13.3l-13.3-13.3v-4.8l10,10h0.1h1.5v-29.8h3.6v29.8H1001.7z"
			/>
		<path class="st1" d="M1025.1,1065.5v14.1l-3.3-3.4v-18.8h18.8l3.4,3.3h-14.1l-1.1,1.1l21.1,21.1l-2.5,2.5l-21.1-21.1
			L1025.1,1065.5z"/>
		<path class="st1" d="M1084.6,1065.5l-1.1-1.1l-21.1,21.1l-2.4-2.5l21.1-21.1l-1.1-1.1h-14.1l3.4-3.3h18.7v18.8l-3.3,3.4
			L1084.6,1065.5L1084.6,1065.5z"/>
		<path class="st1" d="M1101.3,1087.3l1.1,1.1l21.1-21.1l2.5,2.5l-21.1,21.2l1.1,1.1h14.1l-3.4,3.3h-18.8v-18.8l3.3-3.4v14.1H1101.3
			z"/>
		<path class="st1" d="M1160.8,1087.3v-14.1l3.3,3.4v18.8h-18.8l-3.4-3.3h14.1l1.1-1.1l-21.1-21.1l2.5-2.5l21.1,21.1L1160.8,1087.3z
			"/>
		<path class="st1" d="M1176.1,1081.1l8.4,8.9h-4.3l-7.7-7.9v-3.3l7.7-8h4.3l-8.4,8.9V1081.1z"/>
		<path class="st1" d="M1200.4,1079.7l-8.4-8.9h4.3l7.7,8v3.3l-7.7,7.9h-4.3l8.4-8.9V1079.7z"/>
		<path class="st1" d="M1217.9,1074.8h5v2.6h-13.1v-2.6h5.1V1061h-1.2l-3.9,2.2v-2.9l4.9-3h3.2V1074.8z M1218.2,1095.4l22.6-37.3
			h3.5l-22.5,37.3H1218.2z M1251.8,1088.2v2.6h-2.8v4.6h-3v-4.6h-10.4v-3.1l9.1-12.3h4.2v12.8H1251.8z M1239,1088.2h7v-9.1h-1.3
			l-5.7,7.8V1088.2z"/>
		<path class="st1" d="M1264.6,1074.8h5v2.6h-13.1v-2.6h5.1V1061h-1.2l-3.9,2.2v-2.9l4.9-3h3.2V1074.8z M1264.9,1095.4l22.6-37.3
			h3.5l-22.5,37.3H1264.9z M1289,1092.8h9.9v2.6h-14.8v-3.5l2.3-1.6c1.3-1,2.8-1.9,4.1-2.9c2-1.4,4.8-3.3,4.8-6.1
			c0-2.3-1.6-3.7-3.9-3.7c-2.6,0-4.1,1.2-4.3,3.7h-3c0.3-4.4,3.3-6.4,7.3-6.4s6.8,2.1,6.8,6.2c0,2.9-1.7,4.9-4,6.6l-5.2,3.8
			L1289,1092.8L1289,1092.8z"/>
		<path class="st1" d="M1313.4,1064.2v1h0.2c2.9,0.4,5.1,2.5,5.1,6c0,4.2-3.2,6.6-7.6,6.6s-7.3-2.6-7.6-6.3h2.9
			c0.3,2.3,2.3,3.6,4.7,3.6c2.6,0,4.6-1.5,4.6-4s-1.8-4-4.5-4c-0.8,0-1.2,0-1.7,0.1v-2.7l4.1-3.2v-0.1v-1.2h-8.6v-2.6h12.8v3.2
			L1313.4,1064.2L1313.4,1064.2L1313.4,1064.2z M1312.3,1095.4l22.6-37.3h3.5l-22.5,37.3H1312.3z M1345.9,1088.2v2.6h-2.8v4.6h-3
			v-4.6h-10.4v-3.1l9.1-12.3h4.2v12.8H1345.9z M1333.1,1088.2h7v-9.1h-1.3l-5.7,7.8V1088.2z"/>
	</g>
</g>
</svg>
