<?xml version="1.0" encoding="utf-8"?>
<!-- Generator: Adobe Illustrator 19.0.0, SVG Export Plug-In . SVG Version: 6.00 Build 0)  -->
<svg version="1.1" id="construction" xmlns="http://www.w3.org/2000/svg" xmlns:xlink="http://www.w3.org/1999/xlink" x="0px"
	 y="0px" viewBox="35 250.1 1350 780.9" style="enable-background:new 35 250.1 1350 780.9;" xml:space="preserve">
<style type="text/css">
	.st0{fill:none;stroke:#2BB9AF;stroke-width:1.5;stroke-miterlimit:10;}
	.st1{fill:#FFFFFF;}
	.st2{fill:#2BB9AF;}
</style>
<g id="XMLID_741_">
	<g id="XMLID_762_">
		<line id="XMLID_1557_" class="st0" x1="35" y1="279.6" x2="1385" y2="279.6"/>
		<line id="XMLID_1556_" class="st0" x1="35" y1="399.4" x2="1385" y2="399.4"/>
		<line id="XMLID_1555_" class="st0" x1="35" y1="567.1" x2="1385" y2="567.1"/>
		<line id="XMLID_1554_" class="st0" x1="35" y1="686.3" x2="1385" y2="686.3"/>
		<line id="XMLID_1553_" class="st0" x1="35" y1="862.6" x2="1385" y2="862.6"/>
		<line id="XMLID_1552_" class="st0" x1="35" y1="981.4" x2="1385" y2="981.4"/>
	</g>
	<g id="XMLID_1461_">
		<g>
			<path id="XMLID_158_" class="st1" d="M124.6,398.9v-11H119c-7.2,9.3-18.9,14-35,14c-13.1,0-23.3-3.7-31-11.2
				c-7.7-7.7-11.4-16.8-11.4-27.8c0-10.7,4-20.1,11.7-28C61,327,72.9,323,88.8,323h35v-3.4c0-13.8-8.2-21.7-25-21.7
				c-14.7,0-22.6,5.1-23.8,15.2H48.7c1.2-22.2,20.8-35.9,49-35.9c32,0,51.3,14.2,51.3,42.9V399h-24.4V398.9z M114.5,371.8
				c6.1-5.8,9.1-12.8,9.1-21v-9.1H93.3c-16.6,0-25.2,7.2-25.2,19.6c0,12.1,8.9,19.1,24,19.1C101,380.4,108.5,377.6,114.5,371.8z"/>
			<path id="XMLID_155_" class="st1" d="M241.2,280.1v24.5h-10.7c-24,0-37.1,13.8-37.1,38.7v55.5H167V280.1h25.4v13.8h5.6
				c6.8-9.1,18-13.8,33.1-13.8H241.2z"/>
			<path id="XMLID_153_" class="st1" d="M278.5,280.1h28v22.4h-28v57.9c0,10.5,6.1,15.6,18.2,15.6h9.8v22.9h-10.3
				c-28.7,0-44.1-9.6-44.1-35V250.1h26.4V280.1z"/>
			<path id="XMLID_150_" class="st1" d="M415.5,384.6c-10.7,11.4-25.2,17.3-43.6,17.3s-32.9-5.8-43.9-17.3
				c-10.7-11.7-16.1-26.8-16.1-45.3s5.4-33.4,16.1-44.8c11-11.7,25.4-17.5,43.9-17.5c18.4,0,32.9,5.8,43.6,17.5
				c11,11.4,16.3,26.4,16.3,44.8C431.8,357.7,426.4,373,415.5,384.6z M371.8,299.5c-21.7,0-33.6,17.5-33.6,39.9
				c0,22.6,11.9,40.1,33.6,40.1s33.6-17.5,33.6-40.1C405.4,317,393.5,299.5,371.8,299.5z"/>
			<path id="XMLID_148_" class="st1" d="M511.7,311.9c-1.4-8.6-9.1-12.8-23.3-12.8c-14.2,0-21.5,4.2-21.5,12.4
				c0,7.2,4.7,10,15.2,11.9l23.1,3.7c24,4,36.2,16.1,36.2,36.9c0,10.5-4.4,19.6-13.5,27.1c-8.9,7.2-21.2,11-37.3,11
				c-33.6,0-51.8-14.7-54.4-39h26.4c2.1,11.4,11.2,17,27.5,17c16.6,0,25-5.1,25-15.4c0-9.1-5.6-13.3-19.4-15.9l-24.7-4.2
				c-18.7-3-30.3-13.5-30.3-31.3c0-21.2,16.8-36.2,48.8-36.2c28.2,0,46.2,13.5,48.8,34.8L511.7,311.9L511.7,311.9z"/>
		</g>
	</g>
	<g id="XMLID_1444_">
		<path id="XMLID_1458_" class="st2" d="M637.4,399.4v-11.1h-5.6c-7.3,9.4-19.1,14.1-35.3,14.1c-13.2,0-23.5-3.8-31.3-11.3
			c-7.8-7.8-11.5-16.9-11.5-28c0-10.8,4-20.2,11.8-28.2s19.8-12,35.8-12h35.3v-3.5c0-13.9-8.2-21.9-25.2-21.9
			c-14.8,0-22.8,5.2-24,15.3H561c1.2-22.4,20.9-36.2,49.4-36.2c32.2,0,51.8,14.4,51.8,43.3v79.6L637.4,399.4L637.4,399.4z
			 M627.3,372.1c6.1-5.9,9.2-12.9,9.2-21.2v-9.2h-30.6c-16.7,0-25.4,7.3-25.4,19.8c0,12.2,8.9,19.3,24.2,19.3
			C613.7,380.8,621.2,378,627.3,372.1z"/>
		<path id="XMLID_1455_" class="st2" d="M679.6,279.6h25.7v11.5h5.6c7.8-9.6,19.5-14.6,35.3-14.6s28.5,5.9,37.7,17.7
			C793.3,306,798,321,798,339.4c0,18.6-4.7,33.7-14.1,45.4c-9.2,11.8-21.9,17.7-37.7,17.7c-15.5,0-27.1-4.9-34.4-14.6h-5.6v58.6
			h-26.6V279.6z M705.5,339.4c0,22.8,11.3,40.5,33.2,40.5c20.9,0,32.7-16.2,32.7-40.5c0-24.2-11.8-40.2-32.7-40.2
			C716.8,299.2,705.5,316.6,705.5,339.4z"/>
		<path id="XMLID_1453_" class="st2" d="M796.3,302.2v-22.6h107.3v22.6h-40.2v97.2h-26.6v-97.2C836.8,302.2,796.3,302.2,796.3,302.2
			z"/>
		<path id="XMLID_1447_" class="st2" d="M1007.7,385.1c-10.8,11.5-25.4,17.4-44,17.4s-33.2-5.9-44.3-17.4
			c-10.8-11.8-16.2-27.1-16.2-45.7c0-18.6,5.4-33.7,16.2-45.2c11.1-11.8,25.7-17.6,44.3-17.6s33.2,5.9,44,17.7
			c11.1,11.5,16.5,26.6,16.5,45.2C1024.1,358,1018.7,373.3,1007.7,385.1z M963.7,299.2c-21.9,0-33.9,17.7-33.9,40.2
			c0,22.8,12,40.5,33.9,40.5s33.9-17.7,33.9-40.5C997.5,316.8,985.5,299.2,963.7,299.2z"/>
		<path id="XMLID_1445_" class="st2" d="M1142.4,361.1c-3.8,25.2-24.2,41.4-52.7,41.4c-18.4,0-33-5.9-43.5-17.4
			c-10.6-11.5-15.8-26.8-15.8-45.7c0-18.6,5.2-33.9,15.8-45.4c10.6-11.5,25.2-17.4,43.5-17.4c28.5,0,48.3,15.8,51.8,39.5h-26.4
			c-3.5-11.3-12-16.9-25.2-16.9c-22.4,0-33,16.7-33,40c0,23.8,10.6,40.7,33,40.7c14.6,0,23.3-6.4,26.1-18.8H1142.4L1142.4,361.1z"/>
	</g>
	<g id="XMLID_1158_">
		<g>
			<path id="XMLID_145_" class="st1" d="M124.6,686.3v-11H119c-7.2,9.3-18.9,14-35,14c-13.1,0-23.3-3.7-31-11.2
				c-7.7-7.7-11.4-16.8-11.4-27.8c0-10.7,4-20.1,11.7-28s19.6-11.9,35.5-11.9h35v-3.5c0-13.8-8.2-21.7-25-21.7
				c-14.7,0-22.6,5.1-23.8,15.2H48.7c1.2-22.2,20.8-35.9,49-35.9c32,0,51.3,14.2,51.3,42.9v78.9H124.6z M114.5,659.3
				c6.1-5.8,9.1-12.8,9.1-21v-9.1H93.3c-16.6,0-25.2,7.2-25.2,19.6c0,12.1,8.9,19.1,24,19.1C101,667.9,108.5,665.1,114.5,659.3z"/>
			<path id="XMLID_143_" class="st1" d="M241.2,567.6v24.5h-10.7c-24,0-37.1,13.8-37.1,38.7v55.5H167V567.6h25.4v13.8h5.6
				c6.8-9.1,18-13.8,33.1-13.8H241.2z"/>
			<path id="XMLID_140_" class="st1" d="M278.5,567.6h28V590h-28v57.9c0,10.5,6.1,15.6,18.2,15.6h9.8v22.9h-10.3
				c-28.7,0-44.1-9.6-44.1-35V537.5h26.4V567.6z"/>
			<path id="XMLID_136_" class="st1" d="M415.5,672.1c-10.7,11.4-25.2,17.3-43.6,17.3s-32.9-5.8-43.9-17.3
				c-10.7-11.7-16.1-26.8-16.1-45.3s5.4-33.4,16.1-44.8c11-11.7,25.4-17.5,43.9-17.5c18.4,0,32.9,5.8,43.6,17.5
				c11,11.4,16.3,26.4,16.3,44.8S426.4,660.4,415.5,672.1z M371.8,586.9c-21.7,0-33.6,17.5-33.6,39.9c0,22.6,11.9,40.1,33.6,40.1
				s33.6-17.5,33.6-40.1C405.4,604.4,393.5,586.9,371.8,586.9z"/>
			<path id="XMLID_134_" class="st1" d="M511.7,599.3c-1.4-8.6-9.1-12.8-23.3-12.8c-14.2,0-21.5,4.2-21.5,12.4
				c0,7.2,4.7,10,15.2,11.9l23.1,3.7c24,4,36.2,16.1,36.2,36.9c0,10.5-4.4,19.6-13.5,27.1c-8.9,7.2-21.2,11-37.3,11
				c-33.6,0-51.8-14.7-54.4-39h26.4c2.1,11.4,11.2,17,27.5,17c16.6,0,25-5.1,25-15.4c0-9.1-5.6-13.3-19.4-15.9L471,632
				c-18.7-3-30.3-13.5-30.3-31.3c0-21.2,16.8-36.2,48.8-36.2c28.2,0,46.2,13.5,48.8,34.8H511.7z"/>
		</g>
	</g>
	<g id="XMLID_1007_">
		<path id="XMLID_1147_" class="st2" d="M660,672.5c-10.8,11.5-25.4,17.4-44,17.4s-33.2-5.9-44.3-17.4
			c-10.8-11.8-16.2-27.1-16.2-45.7c0-18.6,5.4-33.7,16.2-45.2c11.1-11.8,25.7-17.7,44.3-17.7s33.2,5.9,44,17.7
			c11.1,11.5,16.5,26.6,16.5,45.2C676.5,645.4,671.1,660.7,660,672.5z M616,586.6c-21.9,0-33.9,17.7-33.9,40.2
			c0,22.8,12,40.5,33.9,40.5s33.9-17.7,33.9-40.5C649.9,604.3,637.9,586.6,616,586.6z"/>
		<path id="XMLID_1025_" class="st2" d="M799.6,664.3h21.7v56.3h-25.4v-33.7h-96v33.7h-25.4v-56.3h16.9
			c8.2-19.5,12.5-40.7,12.5-63.6V567h95.8L799.6,664.3L799.6,664.3z M773,664.3v-74.6h-45V601c0,23.8-3.5,45-10.8,63.3L773,664.3
			L773,664.3z"/>
		<path id="XMLID_1021_" class="st2" d="M935.9,629.2h-88.5c0.7,25.4,12,38.1,33.7,38.1c13.9,0,22.6-5.2,26.1-15.3h27.1
			c-4.7,22.8-23.3,37.9-53.4,37.9c-18.6,0-33.2-5.9-43.8-17.7c-10.6-11.8-16-27.1-16-46.1s5.2-34.1,15.8-45.2
			c10.6-11.3,25.2-16.9,43.3-16.9c17.2,0,30.8,5.4,40.5,16c9.9,10.6,15.1,24,15.3,40.2L935.9,629.2L935.9,629.2z M848.6,609.4h60
			c-1.9-14.1-12-24.2-28.7-24.2C862.2,585.2,851.6,594.6,848.6,609.4z"/>
		<path id="XMLID_1018_" class="st2" d="M987.9,637l-22.6,49.9H938l27.8-61.7l-26.1-58.1h27.1l21.2,47.3h26.6v-47.3h24.9v47.3h26.6
			l20.9-47.3h27.1l-25.9,58.1l27.8,61.7h-27.5l-22.4-49.9h-26.6v49.9h-24.9V637H987.9L987.9,637z"/>
		<path id="XMLID_1013_" class="st2" d="M1245.1,664.3h21.7v56.3h-25.4v-33.7h-96v33.7H1120v-56.3h16.9
			c8.2-19.5,12.5-40.7,12.5-63.6V567h95.8L1245.1,664.3L1245.1,664.3z M1218.5,664.3v-74.6h-45V601c0,23.8-3.5,45-10.8,63.3
			L1218.5,664.3L1218.5,664.3z"/>
		<path id="XMLID_1009_" class="st2" d="M1351.7,686.9v-11.1h-5.6c-7.3,9.4-19.1,14.1-35.3,14.1c-13.2,0-23.5-3.8-31.3-11.3
			c-7.8-7.8-11.5-16.9-11.5-28c0-10.8,4-20.2,11.8-28.2s19.8-12,35.8-12h35.3v-3.5c0-13.9-8.2-21.9-25.2-21.9
			c-14.8,0-22.8,5.2-24,15.3h-26.4c1.2-22.4,20.9-36.2,49.4-36.2c32.2,0,51.8,14.4,51.8,43.3V687L1351.7,686.9L1351.7,686.9z
			 M1341.6,659.6c6.1-5.9,9.2-12.9,9.2-21.2v-9.2h-30.6c-16.7,0-25.4,7.3-25.4,19.8c0,12.2,8.9,19.3,24.2,19.3
			C1328,668.3,1335.5,665.4,1341.6,659.6z"/>
	</g>
	<g id="XMLID_761_">
		<g>
			<path id="XMLID_131_" class="st1" d="M124.6,981.4v-11H119c-7.2,9.3-18.9,14-35,14c-13.1,0-23.3-3.7-31-11.2
				c-7.7-7.7-11.4-16.8-11.4-27.8c0-10.7,4-20.1,11.7-28s19.6-11.9,35.5-11.9h35V902c0-13.8-8.2-21.7-25-21.7
				c-14.7,0-22.6,5.1-23.8,15.2H48.7c1.2-22.2,20.8-35.9,49-35.9c32,0,51.3,14.2,51.3,42.9v78.9H124.6z M114.5,954.3
				c6.1-5.8,9.1-12.8,9.1-21v-9.1H93.3c-16.6,0-25.2,7.2-25.2,19.6c0,12.1,8.9,19.1,24,19.1C101,962.9,108.5,960.1,114.5,954.3z"/>
			<path id="XMLID_129_" class="st1" d="M241.2,862.6v24.5h-10.7c-24,0-37.1,13.8-37.1,38.7v55.5H167V862.6h25.4v13.8h5.6
				c6.8-9.1,18-13.8,33.1-13.8H241.2z"/>
			<path id="XMLID_127_" class="st1" d="M278.5,862.6h28V885h-28v57.9c0,10.5,6.1,15.6,18.2,15.6h9.8v22.9h-10.3
				c-28.7,0-44.1-9.6-44.1-35V832.6h26.4V862.6z"/>
			<path id="XMLID_124_" class="st1" d="M415.5,967.1c-10.7,11.4-25.2,17.3-43.6,17.3s-32.9-5.8-43.9-17.3
				c-10.7-11.7-16.1-26.8-16.1-45.3s5.4-33.4,16.1-44.8c11-11.7,25.4-17.5,43.9-17.5c18.4,0,32.9,5.8,43.6,17.5
				c11,11.4,16.3,26.4,16.3,44.8S426.4,955.5,415.5,967.1z M371.8,882c-21.7,0-33.6,17.5-33.6,39.9c0,22.6,11.9,40.1,33.6,40.1
				s33.6-17.5,33.6-40.1C405.4,899.5,393.5,882,371.8,882z"/>
			<path id="XMLID_122_" class="st1" d="M511.7,894.4c-1.4-8.6-9.1-12.8-23.3-12.8c-14.2,0-21.5,4.2-21.5,12.4
				c0,7.2,4.7,10,15.2,11.9l23.1,3.7c24,4,36.2,16.1,36.2,36.9c0,10.5-4.4,19.6-13.5,27.1c-8.9,7.2-21.2,11-37.3,11
				c-33.6,0-51.8-14.7-54.4-39h26.4c2.1,11.4,11.2,17,27.5,17c16.6,0,25-5.1,25-15.4c0-9.1-5.6-13.3-19.4-15.9l-24.7-4.2
				c-18.7-3-30.3-13.5-30.3-31.3c0-21.2,16.8-36.2,48.8-36.2c28.2,0,46.2,13.5,48.8,34.8H511.7z"/>
		</g>
	</g>
	<g id="XMLID_742_">
		<path id="XMLID_758_" class="st2" d="M648.3,862.1H674V976c0,16.9-5.2,30.4-15.8,40.2c-10.6,9.9-24.5,14.8-42.1,14.8
			c-32,0-53.2-14.1-56-38.6h26.4c2.1,11.1,12,16.7,29.2,16.7c21.2,0,31.8-11.8,31.8-35.1v-8h-5.6c-6.8,9.7-18.1,14.6-33.4,14.6
			c-16,0-28.7-5.6-38.4-16.9c-9.7-11.3-14.4-25.9-14.4-43.8s4.7-32.5,14.4-43.8c9.6-11.5,22.6-17.2,38.4-17.2
			c15.8,0,27.3,4.9,34.4,14.6h5.6v-11.4H648.3L648.3,862.1z M648.3,920c0-21.9-12-38.4-33.4-38.4c-20.5,0-32.7,15.5-32.7,38.4
			c0,22.8,12.2,38.1,32.7,38.1C636.3,958.2,648.3,941.7,648.3,920z"/>
		<path id="XMLID_754_" class="st2" d="M800.8,924.3h-88.5c0.7,25.4,12,38.1,33.7,38.1c13.9,0,22.6-5.2,26.1-15.3h27.1
			c-4.7,22.8-23.3,37.9-53.4,37.9c-18.6,0-33.2-5.9-43.8-17.7s-16-27.1-16-46.1s5.2-34.1,15.8-45.2c10.6-11.3,25.2-16.9,43.3-16.9
			c17.2,0,30.8,5.4,40.5,16c9.9,10.6,15.1,24,15.3,40.2L800.8,924.3L800.8,924.3z M713.5,904.5h60c-1.9-14.1-12-24.2-28.7-24.2
			C727.1,880.2,716.5,889.7,713.5,904.5z"/>
		<path id="XMLID_751_" class="st2" d="M887.4,981.9v-11.1h-5.6c-7.3,9.4-19.1,14.1-35.3,14.1c-13.2,0-23.5-3.8-31.3-11.3
			c-7.8-7.8-11.5-16.9-11.5-28c0-10.8,4-20.2,11.8-28.2s19.8-12,35.8-12h35.3v-3.5c0-13.9-8.2-21.9-25.2-21.9
			c-14.8,0-22.8,5.2-24,15.3H811c1.2-22.4,20.9-36.2,49.4-36.2c32.2,0,51.8,14.4,51.8,43.3V982L887.4,981.9L887.4,981.9z
			 M877.3,954.6c6.1-5.9,9.2-12.9,9.2-21.2v-9.2h-30.6c-16.7,0-25.4,7.3-25.4,19.8c0,12.2,8.9,19.3,24.2,19.3
			C863.6,963.3,871.2,960.5,877.3,954.6z"/>
		<path id="XMLID_749_" class="st2" d="M1004.4,862.1v24.7h-10.8c-24.2,0-37.4,13.9-37.4,39.1v56h-26.6V862.1h25.7V876h5.6
			c6.8-9.2,18.1-13.9,33.4-13.9H1004.4z"/>
		<path id="XMLID_747_" class="st2" d="M1029.1,981.9h-30.4v-31.5h30.4V981.9z"/>
		<path id="XMLID_745_" class="st2" d="M1122.1,862.1v24.7h-10.8c-24.2,0-37.4,13.9-37.4,39.1v56h-26.6V862.1h25.7V876h5.6
			c6.8-9.2,18.1-13.9,33.4-13.9H1122.1z"/>
		<path id="XMLID_743_" class="st2" d="M1130.2,862.1h26.6v69.7c0,19.5,8.9,29.4,26.6,29.4c9.2,0,16.7-3.5,22.4-10.4
			c5.9-6.8,8.7-15.1,8.7-24.7v-64h26.6v119.8h-25.7v-11.5h-5.6c-7.3,9.6-18.8,14.6-34.6,14.6c-29.2,0-45-17.9-45-48L1130.2,862.1
			L1130.2,862.1z"/>
	</g>
</g>
</svg>
