<?xml version="1.0" encoding="utf-8"?>
<!-- Generator: Adobe Illustrator 19.0.0, SVG Export Plug-In . SVG Version: 6.00 Build 0)  -->
<svg version="1.1" id="Layer_1" xmlns="http://www.w3.org/2000/svg" xmlns:xlink="http://www.w3.org/1999/xlink" x="0px" y="0px"
	 viewBox="-0.5 124.2 1350 396.3" style="enable-background:new -0.5 124.2 1350 396.3;" xml:space="preserve">
<style type="text/css">
	.st0{opacity:0;fill:#101010;}
	.st1{fill:#FFFFFF;}
	.st2{fill:#36ACA7;}
	.st3{fill:none;stroke:#36ACA7;stroke-miterlimit:10;}
	.st4{font-family:'Formular';}
	.st5{font-size:36.4086px;}
</style>
<rect id="XMLID_787_" x="-0.5" y="124.2" class="st0" width="1350" height="396.3"/>
<g id="XMLID_788_">
	<path id="XMLID_1600_" class="st1" d="M134.6,186.9v44.6H115c-43.7,0-67.5,25.1-67.5,70.5V403h-48V186.9h46.3v25.1H56
		c12.3-16.6,32.7-25.1,60.3-25.1H134.6z"/>
	<rect id="XMLID_1596_" x="347.3" y="186.9" class="st2" width="216.2" height="216.2"/>
	<line id="XMLID_1594_" class="st3" x1="172.3" y1="186.9" x2="172.3" y2="403"/>
	<text id="XMLID_1593_" transform="matrix(1 0 0 1 189.9541 303.8602)" class="st1 st4 st5">x</text>
	<line id="XMLID_1591_" class="st3" x1="602.8" y1="186.9" x2="602.8" y2="403"/>
	<line id="XMLID_1590_" class="st3" x1="563.5" y1="439.5" x2="347.3" y2="439.5"/>
	<rect id="XMLID_1589_" x="795.6" y="240.1" class="st2" width="109.7" height="109.7"/>
	<line id="XMLID_1588_" class="st3" x1="944.6" y1="240.1" x2="944.6" y2="349.8"/>
	<text id="XMLID_1559_" transform="matrix(1 0 0 1 620.4097 306.5384)" class="st1 st4 st5">x</text>
	<g id="XMLID_1474_">
		<text transform="matrix(1 0 0 1 966.8438 306.5384)" class="st1 st4 st5">1/2x</text>
	</g>
	<g id="XMLID_1006_">
		<text transform="matrix(1 0 0 1 1276.8652 306.5384)" class="st1 st4 st5">1/4x</text>
	</g>
	<rect id="XMLID_794_" x="1161.3" y="267.5" class="st2" width="54.9" height="54.9"/>
	<line id="XMLID_793_" class="st3" x1="1247.8" y1="267.5" x2="1247.8" y2="322.4"/>
	<g id="XMLID_771_">
		<text transform="matrix(1 0 0 1 441.7803 479.8353)" class="st1 st4 st5">x</text>
	</g>
</g>
</svg>
