<?xml version="1.0" encoding="utf-8"?>
<!-- Generator: Adobe Illustrator 19.0.0, SVG Export Plug-In . SVG Version: 6.00 Build 0)  -->
<svg version="1.1" id="Layer_1" xmlns="http://www.w3.org/2000/svg" xmlns:xlink="http://www.w3.org/1999/xlink" x="0px" y="0px"
	 viewBox="604 52 2487.5 1177" style="enable-background:new 604 52 2487.5 1177;" xml:space="preserve">
<style type="text/css">
	.st0{fill:#101010;}
	.st1{fill:#2BB9AF;}
</style>
<g>
	<g>
		<g>
			<path class="st0" d="M2331.8,967.9V810.6h41.8l32.6,68.6h5.3l32.2-68.6h42.1V968h-25.2V842.2h-5.3l-33.3,69h-26.9l-33-69h-5.3
				V968h-25V967.9z"/>
			<path class="st0" d="M2612,913.9h-82.8c0.7,23.8,11.2,35.7,31.6,35.7c12.9,0,21.2-4.8,24.5-14.4h25.3
				c-4.4,21.3-21.8,35.4-50.1,35.4c-17.4,0-31-5.5-41-16.5s-14.9-25.3-14.9-43.3c0-17.8,4.8-32,14.8-42.3
				c10-10.5,23.6-15.9,40.6-15.9c16.1,0,28.9,5.1,37.9,14.9c9.2,10,14.1,22.5,14.4,37.7L2612,913.9L2612,913.9z M2530.2,895.4h56.2
				c-1.7-13.2-11.2-22.8-26.9-22.8C2543,872.7,2533,881.4,2530.2,895.4z"/>
			<path class="st0" d="M2702.5,866.5h5.3v-58.9h24.9v160.2h-24V957h-5.3c-7.3,9.1-18.4,13.7-33,13.7c-14.8,0-26.6-5.5-35.4-16.5
				c-8.5-11-12.9-25.2-12.9-42.5c0-17.2,4.4-31.3,12.9-42.3c8.8-11,20.8-16.5,35.4-16.5C2685.1,852.8,2695.7,857.5,2702.5,866.5z
				 M2708.5,911.7c0-21.3-10.5-37.7-31-37.7c-19.6,0-30.6,14.9-30.6,37.7c0,22.8,11,37.9,30.6,37.9
				C2698,949.6,2708.5,933.1,2708.5,911.7z"/>
			<path class="st0" d="M2781.6,831.6H2756v-24h25.6V831.6z M2781.2,855.7v112.1h-24.9V855.7H2781.2z"/>
			<path class="st0" d="M2803.5,855.7h24.9V921c0,18.4,8.4,27.6,24.9,27.6c8.5,0,15.7-3.3,20.9-9.7c5.5-6.4,8.1-14.1,8.1-23.2v-59.9
				h24.9v112.1h-24v-10.8h-5.3c-6.8,9.1-17.6,13.7-32.4,13.7c-27.3,0-42.1-16.8-42.1-45L2803.5,855.7L2803.5,855.7z"/>
			<path class="st0" d="M3091.6,896.2v71.6h-24.9v-67.4c0-16.9-6.4-25.3-19.2-25.3c-14.9,0-23.8,12-23.8,28.9v63.9h-24.9v-67.2
				c0-16.9-6.4-25.6-19.2-25.6c-15.9,0-24,13.2-24,31.7v61h-24.9V855.7h24v10.1h5.3c5.7-8.5,15.2-12.9,28.2-12.9
				c13.4,0,23.2,4.7,29,13.7h5.3c6.8-9.1,17.2-13.7,31-13.7C3079.3,852.8,3091.6,868.9,3091.6,896.2z"/>
			<path class="st0" d="M2444.2,1102c10.4,4.7,19.6,17.4,19.6,31.7c0,28-18.4,46.2-54.6,46.2h-79.5v-157.4h77.1
				c34.4,0,52.9,18.1,52.9,43c0,13.4-6.4,25.2-15.4,30.2v6.3L2444.2,1102L2444.2,1102z M2370.5,1055.7v27.2h30.6
				c10.8,0,16.4-4.4,16.4-13.4c0-9.1-5.5-13.7-16.8-13.7L2370.5,1055.7L2370.5,1055.7z M2402.5,1146.2c10.5,0,19.2-4.4,19.2-14.8
				s-6.1-15.7-18.5-15.7h-32.6v30.5H2402.5z"/>
			<path class="st0" d="M2479.5,1019.7h38.4v160.2h-38.4V1019.7z"/>
			<path class="st0" d="M2641.3,1107.7v72.3h-35v-8.8h-6.1c-6.8,7.7-16.9,11.7-30.2,11.7c-12.1,0-22.1-3.7-29.3-11.2
				c-7.3-7.5-10.8-16.5-10.8-27.3c0-10.1,4-18.9,12.1-26.6s20.1-11.5,36.1-11.5h26.5v-2c0-9.7-5.3-14.5-15.7-14.5
				c-9.2,0-14.4,3.3-15.2,10h-37.9c0.3-11.2,5.1-20.1,14.5-26.9c9.5-6.8,21.6-10.1,36.4-10.1
				C2623,1062.6,2641.3,1077.5,2641.3,1107.7z M2604.5,1128H2586c-10.8,0-17.8,5.1-17.8,13.2c0,9.1,5.5,13.4,16.4,13.4
				c12.4,0,20.1-8.4,20.1-19.8L2604.5,1128L2604.5,1128z"/>
			<path class="st0" d="M2767.1,1139c-1.1,12.9-6.5,23.6-16.9,31.7c-10.1,8.1-22.8,12.1-37.7,12.1c-17.8,0-32.4-5.3-43.3-16.1
				c-10.8-10.8-16.1-25.6-16.1-44.1s5.3-33,16.1-43.8c10.8-10.8,25.3-16.4,43.3-16.4c14.8,0,27.2,3.7,37,11.5
				c10,7.7,15.4,17.6,16.5,30.2h-37.7c-2-6.8-7.3-10.4-15.7-10.4c-14.8,0-21.2,12-21.2,28.9c0,17.4,6.4,28.9,21.2,28.9
				c10,0,15.7-4.1,16.8-12.5L2767.1,1139L2767.1,1139z"/>
			<path class="st0" d="M2901.6,1180h-39.7l-23.2-48.7h-6.1l-13.2,15.2v33.4h-38.6v-160.2h38.6v83.4l35.3-37.7h42.1l-32.4,35.4
				L2901.6,1180z"/>
		</g>
	</g>
	<g>
		<g>
			<g>
				<path class="st1" d="M1999.9,878c9.2,9.7,13.9,22.1,13.9,37.3c0,16.5-5.1,30-15.4,40.3c-10.4,10.1-23.6,15.2-39.7,15.2
					c-33.7,0-54.5-19.6-56.2-48.1h25.6c2,16.5,12.8,25.2,29.7,25.2c18.4,0,30.2-12.4,30.2-32c0-19.4-12-31.7-29.7-31.7
					c-12.1,0-21.3,4.4-27.6,12.9h-24.8l6.8-83.5h91.9v21.8H1933l-2.8,37.7h5.3c7.7-6.4,17.4-9.7,28.6-9.7
					C1979,863.4,1990.8,868.3,1999.9,878z"/>
				<path class="st1" d="M2083.9,810.6c17.6,0,31.7,6.5,42.5,20.1c10.8,13.4,16.1,33.4,16.1,60.2c0,26.6-5.3,46.7-16.1,60.2
					c-10.8,13.2-24.9,19.8-42.5,19.8c-17.6,0-31.7-6.5-42.5-19.8c-10.8-13.4-16.1-33.4-16.1-60.2c0-26.6,5.3-46.7,16.1-60.2
					C2052.1,817.1,2066.2,810.6,2083.9,810.6z M2083.9,947.9c11.5,0,19.8-5.3,24.9-15.7c5.3-10.4,8-24.2,8-41.4s-2.7-31-8-41.4
					c-5.1-10.5-13.4-15.9-24.9-15.9s-19.8,5.3-25.2,15.9c-5.1,10.4-7.7,24.2-7.7,41.4s2.7,31,7.7,41.4
					C2064.1,942.6,2072.3,947.9,2083.9,947.9z"/>
				<path class="st1" d="M2213.1,810.6c17.6,0,31.7,6.5,42.5,20.1c10.8,13.4,16.1,33.4,16.1,60.2c0,26.6-5.3,46.7-16.1,60.2
					c-10.8,13.2-24.9,19.8-42.5,19.8s-31.7-6.5-42.5-19.8c-10.8-13.4-16.1-33.4-16.1-60.2c0-26.6,5.3-46.7,16.1-60.2
					C2181.3,817.1,2195.4,810.6,2213.1,810.6z M2213.1,947.9c11.5,0,19.8-5.3,24.9-15.7c5.3-10.4,8-24.2,8-41.4s-2.7-31-8-41.4
					c-5.1-10.5-13.4-15.9-24.9-15.9s-19.8,5.3-25.2,15.9c-5.1,10.4-7.7,24.2-7.7,41.4s2.7,31,7.7,41.4
					C2193.1,942.6,2201.5,947.9,2213.1,947.9z"/>
			</g>
			<g>
				<path class="st1" d="M1916.9,1115.1c-9.5-9.5-14.4-21.8-14.4-36.9c0-15.7,5.5-28.6,16.4-39.4c10.8-10.8,25.2-16.1,42.8-16.1
					c36.4,0,64.3,20.8,64.3,78c0,25.3-5.3,45.4-16.1,60.2c-10.8,14.8-26.9,22.1-48.5,22.1c-14.4,0-26.9-4.1-37.3-12.5
					c-10.4-8.5-16.4-18.8-17.8-30.9h39.3c1.7,8,7.5,12,16.9,12c14.4,0,24.5-10.1,26-32.9h-6.3c-6.5,7.3-16.5,10.8-30,10.8
					C1938.6,1129.3,1926.8,1124.5,1916.9,1115.1z M1942.1,1077.1c0,7.1,1.7,12.5,5.5,16.5c3.7,3.7,8.8,5.7,15.2,5.7s11.2-2,14.9-5.7
					c3.7-3.7,5.7-9.2,5.7-16.4c0-14.1-8.4-22.9-20.8-22.9C1950.2,1054.5,1942.1,1062.7,1942.1,1077.1z"/>
				<path class="st1" d="M2097.9,1022.6c18.8,0,34,6.5,45.4,19.8c11.5,13.2,17.2,33.3,17.2,60.2s-5.7,47-17.2,60.3
					c-11.5,13.2-26.6,19.8-45.4,19.8s-34-6.5-45.4-19.8c-11.5-13.4-17.2-33.4-17.2-60.3s5.7-47,17.2-60.2
					C2064.1,1029.3,2079.2,1022.6,2097.9,1022.6z M2097.9,1057.3c-15.4,0-23.2,15.2-23.2,45.4c0,30.5,7.7,45.7,23.2,45.7
					c15.4,0,23.2-15.2,23.2-45.7C2121.1,1072.5,2113.5,1057.3,2097.9,1057.3z"/>
				<path class="st1" d="M2232.4,1022.6c18.8,0,34,6.5,45.4,19.8c11.5,13.2,17.2,33.3,17.2,60.2s-5.7,47-17.2,60.3
					c-11.5,13.2-26.6,19.8-45.4,19.8s-34-6.5-45.4-19.8c-11.5-13.4-17.2-33.4-17.2-60.3s5.7-47,17.2-60.2
					C2198.4,1029.3,2213.6,1022.6,2232.4,1022.6z M2232.4,1057.3c-15.4,0-23.2,15.2-23.2,45.4c0,30.5,7.7,45.7,23.2,45.7
					c15.4,0,23.2-15.2,23.2-45.7C2255.6,1072.5,2247.8,1057.3,2232.4,1057.3z"/>
			</g>
		</g>
	</g>
</g>
<g>
	<g>
		<g>
			<path class="st0" d="M1049.4,957.3h90.6V971h-105.1V813.6h14.5V957.3L1049.4,957.3z"/>
			<path class="st0" d="M1171.8,828.1h-15.2v-17.4h15.2V828.1z M1171.1,860.9V971h-14V860.9H1171.1L1171.1,860.9z"/>
			<path class="st0" d="M1280.4,860.9h13.4v104.7c0,31-18.8,50.9-49.8,50.9c-27.3,0-44.7-12-48.5-32.4h13.7
				c3.3,13.4,14.8,20.1,34.6,20.1c24,0,36.1-13.9,36.1-38.6v-9.7h-4.4c-8.1,10.1-19.8,15.2-35,15.2c-14.9,0-26.9-5.3-35.9-15.9
				c-9.1-10.5-13.4-24-13.4-40.6c0-16.5,4.4-30,13.4-40.6c9.1-10.8,20.9-16.1,35.9-16.1c15.2,0,27.2,5.1,35.4,15.2h4.4L1280.4,860.9
				L1280.4,860.9z M1270.3,946.1c6.4-8.5,9.7-18.9,9.7-31.6s-3.3-22.9-9.7-31.6c-6.4-8.5-15.9-12.8-28.2-12.8
				c-23.2,0-37,17.2-37,44.3c0,26.6,13.9,44.1,37,44.1C1254.3,958.6,1263.9,954.5,1270.3,946.1z"/>
			<path class="st0" d="M1415.1,971h-13.9v-67.7c0-22.1-10.1-33-30.6-33c-10.5,0-19.4,4-26.2,12c-6.8,8-10.1,17.4-10.1,28.5v60.3
				h-13.9V810.8h13.9v62.3h4.4c6.1-8.8,19.6-15.2,34-15.2c26.5,0,42.5,16.4,42.5,42.1v71L1415.1,971L1415.1,971z"/>
			<path class="st0" d="M1461.4,860.9h29.3v12.4h-29.3V940c0,12.9,6,18.8,21.8,18.8h7.5v12.4h-7.7c-24,0-35.4-8.4-35.4-29.6v-68.3
				h-20.3v-12.4h20.2v-34.2h13.9V860.9z"/>
			<path class="st0" d="M1103.9,1025.8c33.3,0,51.8,16.9,51.8,45.8c0,19.4-8.1,33.3-24,40.3l25.2,71.1h-20.5l-23.6-66.6
				c-4.1,0.4-8.5,0.7-12.8,0.7h-45.9v65.9h-19.8v-157.2L1103.9,1025.8L1103.9,1025.8z M1100.9,1099.6c25.3,0,34.6-10.5,34.6-28
				c0-17.6-9.2-28.2-34.6-28.2h-47v56.2H1100.9z"/>
			<path class="st0" d="M1273.8,1127.4h-84.7c0.7,26.5,12.5,42.3,35.4,42.3c15.7,0,24.9-6.5,28.2-17.2h18.9
				c-3.6,18.9-19.6,33.4-47.1,33.4c-34.6,0-54.1-25.3-54.1-59.5s19.8-57.3,53.5-57.3c33,0,49,24.5,49.7,51.8L1273.8,1127.4
				L1273.8,1127.4z M1190.3,1111.7h64.2c-1.1-14.1-12-26.2-30.6-26.2C1203.7,1085.6,1192.7,1097.6,1190.3,1111.7z"/>
			<path class="st0" d="M1391.2,1072v105.6c0,31-19.4,51.1-51.8,51.1c-28.5,0-47-12-50.2-34h18.5c3.3,13.2,14.8,18.1,31.6,18.1
				c22.9,0,33.3-13.9,33.3-36.1v-8.7h-4.8c-6,7.7-16.5,14.8-33.3,14.8c-30.6,0-49.4-24.2-49.4-56.6c0-32.6,18.8-56.9,49.4-56.9
				c17.4,0,28,7.1,34,14.8h4.8v-12h17.9V1072z M1373,1126.1c0-21.3-11.2-40.6-35-40.6c-21.8,0-34.2,16.1-34.2,40.6
				c0,24,12.4,40.3,34.2,40.3C1361.8,1166.4,1373,1147.2,1373,1126.1z"/>
			<path class="st0" d="M1433.3,1072v66.6c0,20.5,9.5,30.6,28.2,30.6c19.6,0,33-16.9,33-37V1072h18.8v111.1h-18.1v-12h-4.8
				c-6.1,8.5-18.5,14.8-33.4,14.8c-27.3,0-42.3-16.8-42.3-43.4v-70.6L1433.3,1072L1433.3,1072z"/>
			<path class="st0" d="M1557.3,1022.9v160.2h-18.8v-160.2H1557.3z"/>
			<path class="st0" d="M1653.2,1171.5h-4.8c-6.8,8.5-18.8,14.5-34.6,14.5c-25.6,0-39.8-17.2-39.8-36.1c0-17.8,11.7-36.9,42.5-36.9
				h36.1v-4.4c0-13.4-7.7-23.2-27.2-23.2c-16.5,0-24.9,6.4-25.8,16.1h-18.8c1.6-20.5,19.2-32.4,44.1-32.4c28,0,45.8,13.4,45.8,38.4
				v75.6h-17.6v-11.6H1653.2z M1652.5,1138.2v-10.1h-33.3c-18.4,0-26.6,8-26.6,21.2c0,12.5,9.2,20.5,25.8,20.5
				C1636.8,1169.7,1652.5,1155.8,1652.5,1138.2z"/>
			<path class="st0" d="M1757.6,1089.7h-9.2c-22.1,0-35.4,13.4-35.4,37.9v55.5h-18.8V1072h18.1v13.2h4.8
				c5.5-6.8,16.1-13.2,32.2-13.2h8.4L1757.6,1089.7L1757.6,1089.7z"/>
		</g>
	</g>
	<g>
		<g>
			<g>
				<path class="st1" d="M615.2,816.8h86.7V834l-42.3,37.4v4.4c14.5,0,26.5,4.1,35.4,12.8c9.1,8.4,13.7,20.1,13.7,35
					c0,15.7-4.8,27.7-14.8,36.9c-10,9.1-22.5,13.4-37.9,13.4c-14.8,0-26.9-4.1-36.6-12.5c-9.5-8.4-14.8-18.9-15.4-32h14.4
					c0.7,9.5,4.7,16.9,11.7,22.9c7.3,6,15.9,8.8,26,8.8c22.9,0,38.4-14.5,38.4-37.4c0-22.2-14.1-35.7-38.1-35.7
					c-5.5,0-9.7,0.4-12.9,1.3v-18.1l41.4-37.3v-4.4h-69.7C615.2,829.4,615.2,816.8,615.2,816.8z"/>
				<path class="st1" d="M776.6,813.6c16.8,0,30.2,6.8,40.1,20.3c10.1,13.4,15.2,33.3,15.2,59.9s-5.1,46.5-15.2,59.9
					c-10,13.4-23.3,20.1-40.1,20.1s-30.2-6.5-40.3-20.1c-10-13.4-14.9-33.3-14.9-59.9s5.1-46.5,14.9-59.9
					C746.4,820.5,759.9,813.6,776.6,813.6z M776.6,961c13.4,0,23.6-5.7,30.5-17.2c7.1-11.5,10.5-28.2,10.5-50.1
					c0-21.8-3.6-38.6-10.5-50.1c-6.8-11.5-16.9-17.2-30.5-17.2c-13.4,0-23.6,5.7-30.6,17.4c-6.8,11.5-10.4,28.2-10.4,50.1
					c0,21.8,3.6,38.6,10.4,50.1C753.1,955.4,763.2,961,776.6,961z"/>
				<path class="st1" d="M901.4,813.6c16.8,0,30.2,6.8,40.1,20.3c10.1,13.4,15.2,33.3,15.2,59.9s-5.1,46.5-15.2,59.9
					c-10,13.4-23.3,20.1-40.1,20.1s-30.2-6.5-40.3-20.1c-10-13.4-14.9-33.3-14.9-59.9s5.1-46.5,14.9-59.9
					C871.2,820.5,884.6,813.6,901.4,813.6z M901.4,961c13.4,0,23.6-5.7,30.5-17.2c7.1-11.5,10.5-28.2,10.5-50.1
					c0-21.8-3.6-38.6-10.5-50.1c-6.8-11.7-16.9-17.4-30.5-17.4c-13.4,0-23.6,5.7-30.6,17.4c-6.8,11.5-10.4,28.2-10.4,50.1
					c0,21.8,3.6,38.6,10.4,50.1C877.7,955.4,888,961,901.4,961z"/>
			</g>
			<g>
				<path class="st1" d="M720.5,1129.8v17.2h-21.2v36.1h-18.9V1147h-76.3v-22.1l68.2-96.1h27.2v100.9L720.5,1129.8L720.5,1129.8z
					 M680.7,1129.8v-79.1h-4.8l-51.4,74.3v4.8L680.7,1129.8L680.7,1129.8z"/>
				<path class="st1" d="M845,1106c0,55.5-24.2,80-56.9,80c-32.6,0-56.6-24.5-56.6-80s24-80.3,56.6-80.3
					C820.8,1025.8,845,1050.4,845,1106z M825.7,1106c0-38.4-11.7-63-37.4-63c-25.6,0-37.3,24.6-37.3,63c0,38.1,11.7,62.8,37.3,62.8
					C814,1168.8,825.7,1144.2,825.7,1106z"/>
				<path class="st1" d="M971.8,1106c0,55.5-24.2,80-56.9,80c-32.6,0-56.6-24.5-56.6-80s24-80.3,56.6-80.3
					C947.6,1025.8,971.8,1050.4,971.8,1106z M952.4,1106c0-38.4-11.7-63-37.4-63c-25.6,0-37.3,24.6-37.3,63
					c0,38.1,11.7,62.8,37.3,62.8C940.8,1168.8,952.4,1144.2,952.4,1106z"/>
			</g>
		</g>
	</g>
</g>
<g>
	<g id="XMLID_13_">
		<g>
			<path id="XMLID_74_" class="st0" d="M1660.3,226c-12.9-55.6-56.4-83.2-130-83.2c-69.3,0-118.7,29.5-118.7,84.1
				c0,45.9,33.8,65,90.2,76.3l56.4,11.3l59.9,11.3c108.3,23.4,162.2,83.2,162.2,177.8c0,53.7-20.7,98.8-63.3,135.3
				c-41.6,36.5-101.5,54.6-178.6,54.6c-73.6,0-133.5-17.4-179.4-52.9s-71.1-81.4-77.1-139.6h105.8c11.3,67.7,63.3,101.5,155.2,101.5
				c78.9,0,132.7-35.5,132.7-94.5c0-54.6-32-78.1-93.7-91.9c-8.6-2.7-30.3-7-65.8-12.9c-35.5-7-53.7-10.4-54.6-10.4
				c-98-18.2-154.4-72.8-154.4-163c0-51.1,19.9-93.7,59.9-127.4c40.3-34,95-50.4,165.2-50.4c130.8,0,220.2,67.7,234.2,174.3h-106.1
				V226z"/>
			<path id="XMLID_1_" class="st0" d="M2112,682v-40.8h-20.7c-26.9,34.7-70.1,52.1-130,52.1c-48.6,0-86.7-13.9-115.3-41.6
				c-28.7-28.7-42.5-62.4-42.5-103.1c0-39.8,14.8-74.6,43.3-104s72.8-44.3,131.8-44.3h130v-12.9c0-51.1-30.3-80.6-92.7-80.6
				c-54.6,0-84.1,19.1-88.4,56.4h-97.2c4.3-82.4,77.1-133.5,182.1-133.5c118.7,0,190.7,52.9,190.7,159.5v293L2112,682L2112,682z
				 M2074.7,581.4c22.6-21.7,33.8-47.8,33.8-78.1v-33.7h-112.8c-61.5,0-93.7,26.9-93.7,72.8c0,45.1,33,71.1,89.2,71.1
				C2024.4,613.5,2052.1,603.1,2074.7,581.4z"/>
			<path id="XMLID_69_" class="st0" d="M2670.2,682h-98V425.3c0-72-33-108.3-98-108.3c-33.8,0-61.5,12.9-83.2,38.1
				c-20.7,25.2-31.2,55.6-31.2,91v235.8h-98V240.7h94.5v42.5h20.7c26.9-35.5,69.3-53.7,127.4-53.7c107.5,0,165.7,65.8,165.7,176.8
				L2670.2,682L2670.2,682z"/>
			<path id="XMLID_67_" class="st0" d="M2981.4,358.7c-5.1-32-33.8-47.8-86.7-47.8s-79.8,15.6-79.8,45.9c0,26.9,17.4,37.3,56.4,44.3
				l85.9,13.9c89.2,14.8,134.3,59.9,134.3,137c0,39-16.4,72.8-50.2,100.5c-33,26.9-78.9,40.8-138.6,40.8
				c-124.9,0-192.5-54.6-202-144.8h98c7.8,42.5,41.6,63.3,102.3,63.3c61.5,0,92.7-19.1,92.7-57.2c0-33.8-20.7-49.4-72-58.9
				l-91.9-15.6c-69.3-11.3-112.8-50.2-112.8-116.2c0-78.9,62.4-134.3,181.3-134.3c105,0,171.6,50.2,181.3,129.2L2981.4,358.7
				L2981.4,358.7z"/>
		</g>
	</g>
	<g id="XMLID_928_">
		<path id="XMLID_929_" class="st1" d="M1075.7,682l-57.2-177.8h-254L708.1,682h-104L809.6,63h166.5l206.3,619H1075.7L1075.7,682z
			 M871.9,164.5l-78.1,247.1H988l-78.8-247.1L871.9,164.5L871.9,164.5z"/>
	</g>
</g>
</svg>
