<?xml version="1.0" encoding="utf-8"?>
<!-- Generator: Adobe Illustrator 19.0.0, SVG Export Plug-In . SVG Version: 6.00 Build 0)  -->
<svg version="1.1" id="Layer_1" xmlns="http://www.w3.org/2000/svg" xmlns:xlink="http://www.w3.org/1999/xlink" x="0px" y="0px"
	 viewBox="110 375 1500.8 532" style="enable-background:new 110 375 1500.8 532;" xml:space="preserve">
<style type="text/css">
	.st0{fill:none;stroke:#2BB9AF;stroke-miterlimit:10;}
	.st1{fill:none;stroke:#36AFA7;stroke-miterlimit:10;}
	.st2{fill:none;stroke:#36AFA7;stroke-width:1.5;stroke-miterlimit:10;}
	.st3{fill:#2BB9AF;}
	.st4{fill:#FFFFFF;}
	.st5{font-family:'Formular';}
	.st6{font-size:66.6926px;}
</style>
<g id="XMLID_98_">
	<line id="XMLID_1484_" class="st0" x1="110.8" y1="431.4" x2="1610.8" y2="431.4"/>
	<line id="XMLID_1082_" class="st1" x1="110.8" y1="893.2" x2="1610.8" y2="893.2"/>
	<line id="XMLID_1483_" class="st0" x1="110.8" y1="654.2" x2="1610.8" y2="654.2"/>
	<line id="XMLID_1080_" class="st2" x1="110.8" y1="431.4" x2="110.8" y2="892.2"/>
	<line id="XMLID_1081_" class="st0" x1="1048.7" y1="431.4" x2="1048.7" y2="892.2"/>
	<rect id="XMLID_1482_" x="1387.9" y="431.4" class="st3" width="222.9" height="222.9"/>
	<text id="XMLID_1481_" transform="matrix(1 0 0 1 1480.917 776.6446)" class="st4 st5 st6">x</text>
	<line id="XMLID_1480_" class="st0" x1="1387.9" y1="704.5" x2="1610.8" y2="704.5"/>
	<rect id="XMLID_1478_" x="110.8" y="654.2" class="st3" width="938" height="111.4"/>
	<text id="XMLID_1233_" transform="matrix(1 0 0 1 1137.9238 735.6739)" class="st4 st5 st6">1/2x</text>
	<line id="XMLID_1232_" class="st0" x1="1104.1" y1="654.2" x2="1104.1" y2="765.6"/>
	<g id="XMLID_1357_">
		<g id="XMLID_109_">
			<path id="XMLID_119_" class="st4" d="M266.6,654.2v-20.6h-10.5c-13.6,17.5-35.5,26.3-65.7,26.3c-24.5,0-43.8-7-58.2-21
				c-14.4-14.5-21.4-31.5-21.4-52.1c0-20.1,7.4-37.7,21.9-52.5c14.4-14.9,36.8-22.3,66.6-22.3H265v-6.6c0-25.8-15.3-40.7-46.8-40.7
				c-27.6,0-42.5,9.6-44.7,28.5h-49c2.2-41.6,39-67.4,91.9-67.4c60,0,96.3,26.7,96.3,80.6v148h-46.1V654.2z M247.8,603.4
				c11.4-10.9,17.1-24.1,17.1-39.4v-17.1h-57c-31.1,0-47.3,13.6-47.3,36.8c0,22.8,16.6,35.9,45.1,35.9
				C222.4,619.6,236.4,614.4,247.8,603.4z"/>
			<path id="XMLID_117_" class="st4" d="M485.5,431.4v46h-20.1c-45.1,0-69.6,25.8-69.6,72.7v104.2h-49.5V431.4H394v25.8h10.5
				c12.7-17.1,33.7-25.8,62.2-25.8C466.7,431.4,485.5,431.4,485.5,431.4z"/>
			<path id="XMLID_115_" class="st4" d="M555.4,431.4h52.5v42h-52.5V582c0,19.7,11.4,29.3,34.2,29.3H608v42.9h-19.3
				c-53.9,0-82.8-18-82.8-65.7V375h49.5V431.4L555.4,431.4z"/>
			<path id="XMLID_112_" class="st4" d="M812.5,627.5c-20.1,21.5-47.3,32.4-81.9,32.4c-34.6,0-61.7-10.9-82.3-32.4
				c-20.1-21.9-30.2-50.4-30.2-84.9s10.1-62.6,30.2-84.1c20.6-21.9,47.7-32.8,82.3-32.8s61.7,10.9,81.9,32.8
				c20.6,21.5,30.6,49.5,30.6,84.1C843.1,577.2,833.1,605.6,812.5,627.5z M730.6,467.7c-40.7,0-63,32.8-63,74.9
				c0,42.5,22.3,75.3,63,75.3s63-32.8,63-75.3C793.7,500.5,771.4,467.7,730.6,467.7z"/>
			<path id="XMLID_110_" class="st4" d="M993.1,490.9c-2.6-16.2-17.1-24.1-43.8-24.1S909,474.7,909,490c0,13.6,8.8,18.8,28.5,22.3
				l43.3,7c45.1,7.4,67.9,30.2,67.9,69.2c0,19.7-8.3,36.8-25.4,50.8c-16.6,13.6-39.8,20.6-70.1,20.6c-63,0-97.2-27.6-102-73.1h49.5
				c3.9,21.5,21,32,51.7,32c31.1,0,46.8-9.6,46.8-28.9c0-17.1-10.5-25-36.3-29.8l-46.4-7.9c-35-5.7-56.9-25.4-56.9-58.7
				c0-39.8,31.5-67.9,91.5-67.9c53,0,86.7,25.4,91.5,65.2h-49.5V490.9z"/>
		</g>
	</g>
	<g id="XMLID_945_">
		<g id="XMLID_993_">
			<path id="XMLID_1050_" class="st4" d="M159.8,776.8c0,15.1-8.5,27.3-24.5,27.3c-16.1,0-24.5-12.2-24.5-27.3
				c0-15.1,8.5-27.3,24.5-27.3S159.8,761.7,159.8,776.8z M153.1,776.8c0-11-5.3-21.2-17.8-21.2s-17.8,10.2-17.8,21.2
				s5.3,21.2,17.8,21.2S153.1,787.7,153.1,776.8z"/>
			<path id="XMLID_1047_" class="st4" d="M208.3,797.6v16h-6.1v-10.5h-32.1v10.5H164v-16h4.9c2.4-5,4.6-12.3,4.6-21.5v-10.2h28v31.7
				H208.3z M195.2,771.4h-15.9v4.7c0,9.4-1.8,16.5-4.1,21.5h20C195.2,797.6,195.2,771.4,195.2,771.4z"/>
			<path id="XMLID_1044_" class="st4" d="M248.6,784.4h-28.3c0.2,8.8,4.2,14.1,11.9,14.1c5.2,0,8.3-2.2,9.4-5.7h6.3
				c-1.2,6.3-6.6,11.2-15.8,11.2c-11.6,0-18-8.5-18-19.9c0-11.4,6.6-19.2,17.9-19.2c11,0,16.4,8.2,16.6,17.3V784.4z M220.7,779.2
				h21.4c-0.4-4.7-4-8.8-10.2-8.8C225.2,770.4,221.5,774.5,220.7,779.2z"/>
			<path id="XMLID_1042_" class="st4" d="M261.8,803.1h-6.6l8.4-19.1l-7.9-18h6.5l6.7,15.4h9.5V766h6v15.4h9.5l6.7-15.4h6.5l-7.9,18
				l8.5,19.1h-6.6l-7.1-16.3h-9.5v16.3h-6v-16.3H269L261.8,803.1z"/>
			<path id="XMLID_1037_" class="st4" d="M356.5,797.6v16h-6.1v-10.5h-32.1v10.5h-6.1v-16h4.9c2.4-5,4.6-12.3,4.6-21.5v-10.2h28
				v31.7H356.5z M343.4,771.4h-15.9v4.7c0,9.4-1.8,16.5-4.1,21.5h20V771.4z"/>
			<path id="XMLID_1034_" class="st4" d="M388.2,799.2h-1.6c-2.3,2.9-6.3,4.9-11.6,4.9c-8.5,0-13.3-5.7-13.3-12.1
				c0-6,3.9-12.3,14.2-12.3H388v-1.5c0-4.5-2.6-7.7-9.1-7.7c-5.5,0-8.3,2.1-8.6,5.4H364c0.5-6.9,6.4-10.8,14.7-10.8
				c9.4,0,15.3,4.5,15.3,12.8v25.3h-5.9v-4H388.2z M388,788v-3.4h-11.1c-6.1,0-8.9,2.7-8.9,7.1c0,4.2,3.1,6.9,8.6,6.9
				C382.8,798.6,388,793.9,388,788z"/>
			<path id="XMLID_1032_" class="st4" d="M452.6,803.1v-31.7h-20.3v31.7H426V766h32.8v37.1H452.6z"/>
			<path id="XMLID_1029_" class="st4" d="M477,765.9v4h1.6c2.1-2.6,5.7-4.9,11.6-4.9c10.2,0,16.3,8.5,16.3,19.5
				c0,11.2-6,19.5-16.3,19.5c-5.9,0-9.4-2.3-11.3-4.9h-1.6v18.7H471v-51.9H477L477,765.9z M477.1,784.5c0,7.3,3.4,14.1,11.6,14.1
				c7.4,0,11.4-5.8,11.4-14.1s-4-14.1-11.4-14.1C480.5,770.4,477.1,777.2,477.1,784.5z"/>
			<path id="XMLID_1026_" class="st4" d="M550.5,784.5c0,11-6.7,19.5-18.3,19.5c-11.6,0-18.3-8.5-18.3-19.5s6.6-19.5,18.3-19.5
				C543.8,765,550.5,773.5,550.5,784.5z M544.2,784.5c0-7.3-3.8-14.1-12-14.1s-12,6.8-12,14.1c0,7.3,3.8,14.1,12,14.1
				S544.2,791.8,544.2,784.5z"/>
			<path id="XMLID_1022_" class="st4" d="M583.7,817.8h-6.2v-14.7h-1.2c-11.8,0-18.3-7.8-18.3-18.6c0-10.8,6.4-18.6,18.3-18.6h1.3
				v-16.4h6.2v16.4h1.2c11.7,0,18.3,7.8,18.3,18.6c0,11.4-6.9,18.6-19.4,18.6v14.7H583.7z M576.3,797.8h1.2v-26.5h-1.2
				c-8.2,0-12.2,6-12.2,13.3C564.2,791.7,568,797.8,576.3,797.8z M584.7,797.8c8.3,0,12.2-6,12.2-13.3c0-7.2-3.9-13.3-12.2-13.3h-1
				v26.5L584.7,797.8L584.7,797.8z"/>
			<path id="XMLID_1019_" class="st4" d="M645.1,784.4h-28.3c0.2,8.8,4.2,14.1,11.9,14.1c5.2,0,8.3-2.2,9.4-5.7h6.3
				c-1.2,6.3-6.6,11.2-15.8,11.2c-11.6,0-18-8.5-18-19.9c0-11.4,6.6-19.2,17.9-19.2c11,0,16.4,8.2,16.6,17.3L645.1,784.4
				L645.1,784.4z M617.2,779.2h21.4c-0.4-4.7-4-8.8-10.2-8.8C621.7,770.4,618,774.5,617.2,779.2z"/>
			<path id="XMLID_1017_" class="st4" d="M686.2,791.9c-1.4,7.3-7,12.2-15.6,12.2c-11.6,0-18-8.5-18-19.5c0-11.2,6.5-19.5,18-19.5
				c8.8,0,14.1,4.9,15.4,11.7h-6.3c-1.2-3.8-4.1-6.3-9.1-6.3c-8.4,0-11.8,6.6-11.8,13.9c0,7.4,3.5,14.2,11.8,14.2
				c5.3,0,8.4-2.6,9.4-6.7H686.2L686.2,791.9z"/>
			<path id="XMLID_1015_" class="st4" d="M727,791.9c-1.4,7.3-7,12.2-15.6,12.2c-11.6,0-18-8.5-18-19.5c0-11.2,6.5-19.5,18-19.5
				c8.8,0,14.1,4.9,15.4,11.7h-6.3c-1.2-3.8-4.1-6.3-9.1-6.3c-8.4,0-11.8,6.6-11.8,13.9c0,7.4,3.5,14.2,11.8,14.2
				c5.3,0,8.4-2.6,9.4-6.7H727L727,791.9z"/>
			<path id="XMLID_1013_" class="st4" d="M736.3,803.1V766h6.1v28.7h1.6l16.3-28.7h9.1v37.1h-6.1v-28.7h-1.6l-16.6,28.7H736.3z"/>
			<path id="XMLID_1010_" class="st4" d="M815.8,784.5c0,11-6.7,19.5-18.3,19.5s-18.3-8.5-18.3-19.5s6.6-19.5,18.3-19.5
				C809.1,765,815.8,773.5,815.8,784.5z M809.6,784.5c0-7.3-3.8-14.1-12-14.1s-12,6.8-12,14.1c0,7.3,3.8,14.1,12,14.1
				C805.7,798.6,809.6,791.8,809.6,784.5z"/>
			<path id="XMLID_1008_" class="st4" d="M852.4,803.1v-16.4h-20.6v16.4h-6.3V766h6.3v15.3h20.6V766h6.3v37.1H852.4z"/>
			<path id="XMLID_1005_" class="st4" d="M894.4,799.2h-1.6c-2.3,2.9-6.3,4.9-11.6,4.9c-8.5,0-13.3-5.7-13.3-12.1
				c0-6,3.9-12.3,14.2-12.3h12.1v-1.5c0-4.5-2.6-7.7-9.1-7.7c-5.5,0-8.3,2.1-8.6,5.4h-6.3c0.5-6.9,6.4-10.8,14.7-10.8
				c9.4,0,15.3,4.5,15.3,12.8v25.3h-5.9L894.4,799.2L894.4,799.2z M894.2,788v-3.4h-11.1c-6.1,0-8.9,2.7-8.9,7.1
				c0,4.2,3.1,6.9,8.6,6.9C889,798.6,894.2,793.9,894.2,788z"/>
			<path id="XMLID_1003_" class="st4" d="M907.6,797.2h1.3c5,0,7.3-3.7,7.3-16.9v-14.4h28.4V803h-6.3v-31.7H922v9.1
				c0,17.1-4,22.6-13.1,22.6h-1.3L907.6,797.2L907.6,797.2z"/>
			<path id="XMLID_1000_" class="st4" d="M990.8,784.5c0,11-6.7,19.5-18.3,19.5s-18.3-8.5-18.3-19.5s6.6-19.5,18.3-19.5
				C984.1,765,990.8,773.5,990.8,784.5z M984.6,784.5c0-7.3-3.8-14.1-12-14.1s-12,6.8-12,14.1c0,7.3,3.8,14.1,12,14.1
				C980.7,798.6,984.6,791.8,984.6,784.5z"/>
			<path id="XMLID_996_" class="st4" d="M1026.8,784.2c3.5,0.9,6,3.9,6,8.7c0,6.8-4.6,10.2-13.1,10.2h-19.1V766h18.4
				c7.4,0,11.7,3.5,11.7,9.4c0,3.6-1.9,6.2-4,7.3v1.5H1026.8z M1006.8,781.3h11.6c4.5,0,6-2.4,6-5c0-2.9-1.5-5.1-6-5.1h-11.6V781.3z
				 M1019.3,797.8c5.4,0,7.2-2.4,7.2-5.5c0-3.2-1.8-5.6-7.2-5.6h-12.5v11.1H1019.3z"/>
			<path id="XMLID_994_" class="st4" d="M1041.1,803.1v-8.5h7.7v9.9l-4.1,7.1h-4l4.1-7.1v-1.4H1041.1z"/>
		</g>
		<g id="XMLID_947_">
			<path id="XMLID_991_" class="st4" d="M128.1,875.9H117v16.4h-6.2v-37.1h6.2v15.3h11.3l7.7-15.3h6.6l-9.1,17.8l9.6,19.2h-6.7
				L128.1,875.9z"/>
			<path id="XMLID_988_" class="st4" d="M185.1,873.7c0,11-6.7,19.5-18.3,19.5c-11.6,0-18.3-8.5-18.3-19.5s6.6-19.5,18.3-19.5
				C178.4,854.2,185.1,862.7,185.1,873.7z M178.9,873.7c0-7.3-3.8-14.1-12-14.1c-8.2,0-12,6.8-12,14.1s3.8,14.1,12,14.1
				C175.1,887.7,178.9,881,178.9,873.7z"/>
			<path id="XMLID_986_" class="st4" d="M190.4,855.1h32v5.5h-12.9v31.7h-6.3v-31.7h-12.8V855.1z"/>
			<path id="XMLID_983_" class="st4" d="M264.3,873.7c0,11-6.7,19.5-18.3,19.5s-18.3-8.5-18.3-19.5s6.6-19.5,18.3-19.5
				C257.6,854.2,264.3,862.7,264.3,873.7z M258,873.7c0-7.3-3.8-14.1-12-14.1s-12,6.8-12,14.1s3.8,14.1,12,14.1
				C254.2,887.7,258,881,258,873.7z"/>
			<path id="XMLID_980_" class="st4" d="M280.1,855.1v4h1.6c2.1-2.6,5.7-4.9,11.6-4.9c10.2,0,16.3,8.5,16.3,19.5
				c0,11.2-6,19.5-16.3,19.5c-5.9,0-9.4-2.3-11.3-4.9h-1.6V907h-6.3v-51.9H280.1z M280.2,873.7c0,7.3,3.4,14.1,11.6,14.1
				c7.4,0,11.4-5.8,11.4-14.1c0-8.3-4-14.1-11.4-14.1C283.6,859.6,280.2,866.4,280.2,873.7z"/>
			<path id="XMLID_978_" class="st4" d="M322.2,907l7.7-18.2L314,855.1h6.7l11.3,24.5h1.8l10.3-24.5h6.6L328.5,907H322.2z"/>
			<path id="XMLID_975_" class="st4" d="M408.6,873.7c0,10.9-6.7,19.5-18,19.5c-10.5,0-17-7.5-17.8-17.3h-8.5v16.4h-6.2v-37.1h6.2
				v15.3h8.7c1.2-9.4,7.6-16.3,17.6-16.3C401.9,854.2,408.6,862.8,408.6,873.7z M402.3,873.7c0-7.3-3.8-14.1-11.7-14.1
				c-8,0-11.7,6.8-11.7,14.1s3.7,14.1,11.7,14.1C398.5,887.7,402.3,881,402.3,873.7z"/>
			<path id="XMLID_973_" class="st4" d="M434.6,886.3h1.3c5,0,7.3-3.7,7.3-16.9V855h28.4v37.1h-6.3v-31.7H449v9.1
				c0,17.1-4,22.6-13.1,22.6h-1.3V886.3z"/>
			<path id="XMLID_970_" class="st4" d="M534.1,873.7c0,10.9-6.7,19.5-18,19.5c-10.5,0-17-7.5-17.8-17.3h-8.5v16.4h-6.2v-37.1h6.2
				v15.3h8.7c1.2-9.4,7.6-16.3,17.6-16.3C527.4,854.2,534.1,862.8,534.1,873.7z M527.8,873.7c0-7.3-3.8-14.1-11.7-14.1
				c-8,0-11.7,6.8-11.7,14.1s3.7,14.1,11.7,14.1C524.1,887.7,527.8,881,527.8,873.7z"/>
			<path id="XMLID_955_" class="st4" d="M578.4,874.3c0,10.5-6.9,18.9-18.3,18.9c-11.8,0-18.5-8-18.5-22.5
				c0-12.5,1.8-25.4,14.7-27.5l9.9-1.6c2.7-0.4,3.4-0.7,3.6-2.9h5.8c-0.2,4.2-1.5,7.2-7.3,8.2l-11.4,1.9c-6.6,1.2-8.8,5.8-9.6,12
				h1.6c3.2-4.1,6.8-5.4,12-5.4C572,855.5,578.4,863.8,578.4,874.3z M572,874.3c0-6.9-3.8-13.4-12.1-13.4c-8.3,0-12.1,6.5-12.1,13.4
				s3.8,13.5,12.1,13.5C568.2,887.8,572,881.1,572,874.3z"/>
			<path id="XMLID_952_" class="st4" d="M618.7,855.1v37.1h-6.3v-14.7h-11.3c-0.8,0-1.5,0-2.3-0.1l-5.6,14.7h-6.6l6.3-16.1
				c-3.8-1.8-5.7-5.1-5.7-9.7c0-7.1,4.6-11.3,13-11.3L618.7,855.1L618.7,855.1z M600.9,860.4c-5.6,0-7.4,2.3-7.4,6
				c0,3.6,1.8,5.8,7.4,5.8h11.5v-11.9h-11.5V860.4z"/>
			<path id="XMLID_950_" class="st4" d="M626.9,855.1h32v5.5H646v31.7h-6.3v-31.7h-12.9v-5.5H626.9z"/>
			<path id="XMLID_948_" class="st4" d="M661.7,892.2v-8.5h7.7v8.5H661.7z"/>
		</g>
	</g>
</g>
</svg>
