<?xml version="1.0" encoding="utf-8"?>
<!-- Generator: Adobe Illustrator 19.0.0, SVG Export Plug-In . SVG Version: 6.00 Build 0)  -->
<svg version="1.1" id="Layer_1" xmlns="http://www.w3.org/2000/svg" xmlns:xlink="http://www.w3.org/1999/xlink" x="0px" y="0px"
	 viewBox="606 261.8 2492.9 758.2" style="enable-background:new 606 261.8 2492.9 758.2;" xml:space="preserve">
<style type="text/css">
	.st0{fill:#FFFFFF;}
	.st1{fill:#94DCD7;}
	.st2{fill:#101010;}
	.st3{opacity:0.5;fill:#101010;enable-background:new    ;}
	.st4{fill:#2BB9AF;}
</style>
<polygon id="XMLID_7_" class="st0" points="3098.9,261.8 2661.2,1020 2223.4,261.8 "/>
<g id="XMLID_1113_">
	<polygon id="XMLID_16_" class="st0" points="1919.3,261.8 1481.5,1020 1043.8,261.8 	"/>
</g>
<g id="XMLID_5_">
	<polygon id="XMLID_6_" class="st1" points="1919.3,261.8 1481.5,1020 1043.8,261.8 	"/>
</g>
<polygon id="XMLID_1116_" class="st2" points="1785.7,1020 2223.4,261.8 2661.2,1020 "/>
<polygon id="XMLID_110_" class="st3" points="3098.9,261.8 2661.2,1020 2223.4,261.8 "/>
<g id="XMLID_112_">
	<path id="XMLID_124_" class="st0" d="M2813.7,627.7c7.3,7.1,10.9,16.6,10.9,28.3c0,12.4-4.3,22.7-12.9,30.6
		c-8.4,7.9-19.2,11.9-32,11.9c-13.7,0-24.7-3.6-33-10.9s-12.8-16.7-13.4-28.2h29.6c1.3,8.6,7,13.7,15.7,13.7
		c10.1,0,16.2-7,16.2-16.7c0-11.4-6.8-17.1-16.2-17.1c-6.5,0-11.6,2.5-15.4,7.3h-27l5.1-66.2h74.9v24.5H2764l-1.2,18.1h4.6
		c5.5-4.1,12.1-6.1,19.9-6.1C2797.7,617,2806.4,620.6,2813.7,627.7z"/>
	<path id="XMLID_182_" class="st0" d="M2880.6,578.2c14.1,0,25.5,5,34.1,14.9c8.6,9.9,12.9,25,12.9,45.2s-4.3,35.3-12.9,45.4
		c-8.6,9.9-20,14.9-34.1,14.9s-25.5-5-34.1-14.9c-8.6-10.1-12.9-25.2-12.9-45.4s4.3-35.3,12.9-45.2
		C2855.1,583.2,2866.6,578.2,2880.6,578.2z M2880.6,604.2c-11.6,0-17.4,11.4-17.4,34.1c0,22.9,5.8,34.3,17.4,34.3
		s17.4-11.4,17.4-34.3C2898,615.6,2892.2,604.2,2880.6,604.2z"/>
	<path id="XMLID_185_" class="st0" d="M2962.6,640.8c-18.4,0-28-12.4-28-31.1s9.9-31.5,28-31.5s28.2,12.8,28.2,31.5
		C2990.8,628.2,2981,640.8,2962.6,640.8z M2973,609.7c0-10.6-3.5-15.9-10.4-15.9c-6.8,0-10.3,5.3-10.3,15.9
		c0,10.4,3.5,15.6,10.3,15.6C2969.6,625.2,2973,620.1,2973,609.7z M2977,696.5h-19.4l70.2-115.9h19.2L2977,696.5z M3041.9,698.6
		c-18.4,0-28-12.4-28-31.1s9.9-31.5,28-31.5s28.2,12.8,28.2,31.5C3070.1,686,3060.3,698.6,3041.9,698.6z M3052.4,667.5
		c0-10.6-3.5-15.9-10.4-15.9c-6.8,0-10.3,5.3-10.3,15.9c0,10.4,3.5,15.6,10.3,15.6C3048.9,683,3052.4,677.9,3052.4,667.5z"/>
</g>
<g id="XMLID_1_">
	<path id="XMLID_4_" class="st0" d="M1618.1,640.9c7.3,7.1,10.9,16.6,10.9,28.3c0,12.4-4.3,22.7-12.9,30.6
		c-8.4,7.9-19.2,11.9-32,11.9c-13.7,0-24.7-3.6-33-10.9c-8.3-7.3-12.8-16.7-13.4-28.2h29.6c1.3,8.6,7,13.7,15.7,13.7
		c10.1,0,16.2-7,16.2-16.7c0-11.4-6.8-17.1-16.2-17.1c-6.5,0-11.6,2.5-15.4,7.3h-27l5.1-66.2h74.9v24.5h-52.2l-1.2,18.1h4.6
		c5.5-4.1,12.1-6.1,19.9-6.1C1602.1,630.2,1610.8,633.8,1618.1,640.9z"/>
	<path id="XMLID_3_" class="st0" d="M1685,591.4c14.1,0,25.5,5,34.1,14.9c8.6,9.9,12.9,25,12.9,45.2s-4.3,35.3-12.9,45.4
		c-8.6,9.9-20,14.9-34.1,14.9s-25.5-5-34.1-14.9c-8.6-10.1-12.9-25.2-12.9-45.4c0-20.2,4.3-35.3,12.9-45.2S1671,591.4,1685,591.4z
		 M1685,617.4c-11.6,0-17.4,11.4-17.4,34.1c0,22.9,5.8,34.3,17.4,34.3s17.4-11.4,17.4-34.3C1702.4,628.8,1696.6,617.4,1685,617.4z"
		/>
	<path id="XMLID_2_" class="st0" d="M1767,654c-18.4,0-28-12.4-28-31.1s9.9-31.5,28-31.5s28.2,12.8,28.2,31.5
		C1795.2,641.4,1785.4,654,1767,654z M1777.4,622.9c0-10.6-3.5-15.9-10.4-15.9c-6.8,0-10.3,5.3-10.3,15.9c0,10.4,3.5,15.6,10.3,15.6
		C1774,638.4,1777.4,633.3,1777.4,622.9z M1781.4,709.7H1762l70.2-115.9h19.2L1781.4,709.7z M1846.3,711.8c-18.4,0-28-12.4-28-31.1
		s9.9-31.5,28-31.5s28.2,12.8,28.2,31.5C1874.5,699.2,1864.7,711.8,1846.3,711.8z M1856.8,680.7c0-10.6-3.5-15.9-10.4-15.9
		c-6.8,0-10.3,5.3-10.3,15.9c0,10.4,3.5,15.6,10.3,15.6C1853.3,696.2,1856.8,691.1,1856.8,680.7z"/>
</g>
<g id="XMLID_1114_">
	<polygon id="XMLID_14_" class="st4" points="606,1020 1043.8,261.8 1481.5,1020 	"/>
</g>
</svg>
