<?xml version="1.0" encoding="utf-8"?>
<!-- Generator: Adobe Illustrator 22.0.0, SVG Export Plug-In . SVG Version: 6.00 Build 0)  -->
<svg version="1.1" xmlns="http://www.w3.org/2000/svg" xmlns:xlink="http://www.w3.org/1999/xlink" x="0px" y="0px"
	 viewBox="0 0 1200 801.2" style="enable-background:new 0 0 1200 801.2;" xml:space="preserve">
<style type="text/css">
	.st0{display:none;}
	.st1{display:inline;}
	.st2{fill:#011151;}
	.st3{fill:#01327F;}
	.st4{fill:#015FC3;}
	.st5{fill:#389AFE;}
</style>
<g id="Layer_1" class="st0">
	<g class="st1">
		<g>
			<g>
				<path class="st2" d="M391.2,330.4V35.1h104.5v176.3h45.7V35.1h104.5v468.7c0,28.8-23.4,52.2-52.2,52.2h0
					c-28.8,0-52.2-23.4-52.2-52.2v-201h-45.7v27.6c0,28.8-23.4,52.2-52.2,52.2h0C414.6,382.6,391.2,359.2,391.2,330.4z"/>
				<path class="st2" d="M804.3,309.3l-13.1-84.9h-6.5l6.5,84.9v170.1c0,28.8-23.4,52.2-52.2,52.2h0c-28.8,0-52.2-23.4-52.2-52.2
					V35.1h127L863,244l6.5,78.3h6.5l6.5-78.3l49.3-208.9h127v331.7c0,28.8-23.4,52.2-52.2,52.2h0c-28.8,0-52.2-23.4-52.2-52.2v-57.5
					l6.5-84.9h-6.5l-13.1,84.9l-36.2,157.1c-3.5,15.1-16.9,25.7-32.3,25.7h0c-15.5,0-28.9-10.7-32.3-25.7L804.3,309.3z"/>
				<path class="st2" d="M1334.8,336.3c0,0,6.5,39.2,6.5,84.9c0,68.3-42.1,111-121.1,111c-87.8,0-127-39.2-127-124V152.7
					c0-84.9,39.2-124,127-124c78.9,0,121.1,42.1,121.1,111c0,39.2-6.5,78.3-6.5,78.3h-91.4v-65.3c0-22.6-10.1-32.6-23.1-32.6
					c-12.5,0-22.6,10.1-22.6,32.6v255.4c0,23.1,10.1,32.6,22.6,32.6c13.1,0,23.1-9.5,23.1-32.6v-71.8H1334.8z"/>
				<path class="st2" d="M1530,525.6h-99.5c-33.8,0-61.2-27.4-61.2-61.2V35.1h104.5v399.1h117.5v30.2
					C1591.2,498.2,1563.8,525.6,1530,525.6z"/>
			</g>
		</g>
		<path class="st3" d="M442.7,397.6L442.7,397.6c-28.4,0-51.5,23.1-51.5,51.5v44.5c0,28.4,23.1,51.5,51.5,51.5h0
			c28.4,0,51.5-23.1,51.5-51.5l0-44.5C494.2,420.6,471.2,397.6,442.7,397.6z"/>
		<path class="st3" d="M594.3,570.2L594.3,570.2c-28.4,0-51.5,23.1-51.5,51.5v0c0,28.4,23.1,51.5,51.5,51.5h0
			c28.4,0,51.5-23.1,51.5-51.5v0C645.8,593.3,622.8,570.2,594.3,570.2z"/>
		<path class="st4" d="M442.7,556L442.7,556c-28.4,0-51.5,23.1-51.5,51.5v0c0,28.4,23.1,51.5,51.5,51.5h0
			c28.4,0,51.5-23.1,51.5-51.5v0C494.2,579.1,471.2,556,442.7,556z"/>
		<path class="st5" d="M442.7,669.7L442.7,669.7c-21.1,0-38.3,17.1-38.3,38.3v0c0,21.1,17.1,38.3,38.3,38.3h0
			c21.1,0,38.3-17.1,38.3-38.3v0C481,686.9,463.9,669.7,442.7,669.7z"/>
		<path class="st3" d="M1144.8,538.3L1144.8,538.3c-28.4,0-51.5,23.1-51.5,51.5v0c0,28.4,23.1,51.5,51.5,51.5h0
			c28.4,0,51.5-23.1,51.5-51.5v0C1196.3,561.4,1173.2,538.3,1144.8,538.3z"/>
		<path class="st4" d="M1144.8,652L1144.8,652c-21.1,0-38.3,17.1-38.3,38.3v0c0,21.1,17.1,38.3,38.3,38.3l0,0
			c21.1,0,38.3-17.1,38.3-38.3v0C1183.1,669.2,1165.9,652,1144.8,652z"/>
		<path class="st3" d="M1420.7,546.2L1420.7,546.2c-28.4,0-51.5,23.1-51.5,51.5v0c0,28.4,23.1,51.5,51.5,51.5h0
			c28.4,0,51.5-23.1,51.5-51.5v0C1472.2,569.3,1449.2,546.2,1420.7,546.2z"/>
		<path class="st4" d="M1420.7,659.9L1420.7,659.9c-21.1,0-38.3,17.1-38.3,38.3v0c0,21.1,17.1,38.3,38.3,38.3h0
			c21.1,0,38.3-17.1,38.3-38.3v0C1459,677.1,1441.9,659.9,1420.7,659.9z"/>
		<path class="st3" d="M1007.4,433.7L1007.4,433.7c-28.4,0-51.5,23.1-51.5,51.5v44.5c0,28.4,23.1,51.5,51.5,51.5h0
			c28.4,0,51.5-23.1,51.5-51.5v-44.5C1058.9,456.8,1035.8,433.7,1007.4,433.7z"/>
		<path class="st4" d="M1007.4,592.2L1007.4,592.2c-28.4,0-51.5,23.1-51.5,51.5v0c0,28.4,23.1,51.5,51.5,51.5h0
			c28.4,0,51.5-23.1,51.5-51.5v0C1058.9,615.3,1035.8,592.2,1007.4,592.2z"/>
		<path class="st5" d="M1007.4,705.9L1007.4,705.9c-21.1,0-38.3,17.1-38.3,38.3v0c0,21.1,17.1,38.3,38.3,38.3h0
			c21.1,0,38.3-17.1,38.3-38.3v0C1045.6,723.1,1028.5,705.9,1007.4,705.9z"/>
		<path class="st4" d="M594.3,686.2L594.3,686.2c-21.1,0-38.3,17.1-38.3,38.3v0c0,21.1,17.1,38.3,38.3,38.3h0
			c21.1,0,38.3-17.1,38.3-38.3v0C632.6,703.4,615.4,686.2,594.3,686.2z"/>
		<path class="st4" d="M738.9,667L738.9,667c-21.1,0-38.3,17.1-38.3,38.3v0c0,21.1,17.1,38.3,38.3,38.3h0
			c21.1,0,38.3-17.1,38.3-38.3v0C777.2,684.2,760,667,738.9,667z"/>
		<path class="st5" d="M594.3,776L594.3,776c-14.8,0-26.9,12-26.9,26.9v0c0,14.8,12,26.9,26.9,26.9h0c14.8,0,26.9-12,26.9-26.9v0
			C621.2,788.1,609.1,776,594.3,776z"/>
		<path class="st5" d="M1420.7,749.7L1420.7,749.7c-14.8,0-26.9,12-26.9,26.9v0c0,14.8,12,26.9,26.9,26.9h0
			c14.8,0,26.9-12,26.9-26.9v0C1447.6,761.7,1435.6,749.7,1420.7,749.7z"/>
		<path class="st3" d="M1303.1,535.8L1303.1,535.8c-21.1,0-38.3,17.1-38.3,38.3v0c0,21.1,17.1,38.3,38.3,38.3h0
			c21.1,0,38.3-17.1,38.3-38.3v0C1341.4,552.9,1324.2,535.8,1303.1,535.8z"/>
		<path class="st4" d="M1303.1,625.6L1303.1,625.6c-14.8,0-26.9,12-26.9,26.9v0c0,14.8,12,26.9,26.9,26.9h0
			c14.8,0,26.9-12,26.9-26.9v0C1329.9,637.6,1317.9,625.6,1303.1,625.6z"/>
		<path class="st3" d="M872.8,510.5L872.8,510.5c-18.1,0-32.8,14.7-32.8,32.8v0c0,18.1,14.7,32.8,32.8,32.8h0
			c18.1,0,32.8-14.7,32.8-32.8v0C905.6,525.2,890.9,510.5,872.8,510.5z"/>
		<path class="st4" d="M872.8,587.4L872.8,587.4c-12.7,0-23,10.3-23,23v0c0,12.7,10.3,23,23,23h0c12.7,0,23-10.3,23-23v0
			C895.8,597.7,885.5,587.4,872.8,587.4z"/>
		<path class="st3" d="M738.9,547.2L738.9,547.2c-28.8,0-52.1,23.3-52.1,52.1v0c0,28.8,23.3,52.1,52.1,52.1h0
			c28.8,0,52.1-23.3,52.1-52.1v0C791,570.6,767.7,547.2,738.9,547.2z"/>
	</g>
</g>
<g id="Layer_2">
	<g>
		<g>
			<g>
				<path class="st2" d="M0,301.8V6.5h104.5v176.3h45.7V6.5h104.5v468.7c0,28.8-23.4,52.2-52.2,52.2h0c-28.8,0-52.2-23.4-52.2-52.2
					v-201h-45.7v27.6c0,28.8-23.4,52.2-52.2,52.2h0C23.4,354,0,330.6,0,301.8z"/>
				<path class="st2" d="M413.1,280.7L400,195.9h-6.5l6.5,84.9v170.1c0,28.8-23.4,52.2-52.2,52.2h0c-28.8,0-52.2-23.4-52.2-52.2V6.5
					h127l49.3,208.9l6.5,78.3h6.5l6.5-78.3L540.7,6.5h127v331.7c0,28.8-23.4,52.2-52.2,52.2h0c-28.8,0-52.2-23.4-52.2-52.2v-57.5
					l6.5-84.9h-6.5l-13.1,84.9l-36.2,157.1c-3.5,15.1-16.9,25.7-32.3,25.7h0c-15.5,0-28.9-10.7-32.3-25.7L413.1,280.7z"/>
				<path class="st2" d="M943.6,307.7c0,0,6.5,39.2,6.5,84.9c0,68.3-42.1,111-121.1,111c-87.8,0-127-39.2-127-124V124
					c0-84.9,39.2-124,127-124C908,0,950.2,42.1,950.2,111c0,39.2-6.5,78.3-6.5,78.3h-91.4V124c0-22.6-10.1-32.6-23.1-32.6
					c-12.5,0-22.6,10.1-22.6,32.6v255.4c0,23.1,10.1,32.6,22.6,32.6c13.1,0,23.1-9.5,23.1-32.6v-71.8H943.6z"/>
				<path class="st2" d="M1138.8,497h-99.5c-33.8,0-61.2-27.4-61.2-61.2V6.5h104.5v399.1H1200v30.2
					C1200,469.6,1172.6,497,1138.8,497z"/>
			</g>
		</g>
		<path class="st3" d="M51.5,368.9L51.5,368.9C23.1,368.9,0,392,0,420.4l0,44.5c0,28.4,23.1,51.5,51.5,51.5h0
			c28.4,0,51.5-23.1,51.5-51.5v-44.5C103,392,80,368.9,51.5,368.9z"/>
		<path class="st3" d="M203.1,541.6L203.1,541.6c-28.4,0-51.5,23.1-51.5,51.5v0c0,28.4,23.1,51.5,51.5,51.5h0
			c28.4,0,51.5-23.1,51.5-51.5v0C254.6,564.7,231.5,541.6,203.1,541.6z"/>
		<path class="st4" d="M51.5,527.4L51.5,527.4C23.1,527.4,0,550.5,0,578.9v0c0,28.4,23.1,51.5,51.5,51.5h0
			c28.4,0,51.5-23.1,51.5-51.5v0C103,550.5,80,527.4,51.5,527.4z"/>
		<path class="st5" d="M51.5,641.1L51.5,641.1c-21.1,0-38.3,17.1-38.3,38.3v0c0,21.1,17.1,38.3,38.3,38.3h0
			c21.1,0,38.3-17.1,38.3-38.3v0C89.8,658.3,72.6,641.1,51.5,641.1z"/>
		<path class="st3" d="M753.6,509.7L753.6,509.7c-28.4,0-51.5,23.1-51.5,51.5v0c0,28.4,23.1,51.5,51.5,51.5h0
			c28.4,0,51.5-23.1,51.5-51.5v0C805.1,532.8,782,509.7,753.6,509.7z"/>
		<path class="st4" d="M753.6,623.4L753.6,623.4c-21.1,0-38.3,17.1-38.3,38.3v0c0,21.1,17.1,38.3,38.3,38.3h0
			c21.1,0,38.3-17.1,38.3-38.3v0C791.9,640.6,774.7,623.4,753.6,623.4z"/>
		<path class="st3" d="M1029.5,517.6L1029.5,517.6c-28.4,0-51.5,23.1-51.5,51.5v0c0,28.4,23.1,51.5,51.5,51.5l0,0
			c28.4,0,51.5-23.1,51.5-51.5v0C1081,540.7,1058,517.6,1029.5,517.6z"/>
		<path class="st4" d="M1029.5,631.3L1029.5,631.3c-21.1,0-38.3,17.1-38.3,38.3v0c0,21.1,17.1,38.3,38.3,38.3l0,0
			c21.1,0,38.3-17.1,38.3-38.3v0C1067.8,648.4,1050.7,631.3,1029.5,631.3z"/>
		<path class="st3" d="M616.2,405.1L616.2,405.1c-28.4,0-51.5,23.1-51.5,51.5v44.5c0,28.4,23.1,51.5,51.5,51.5h0
			c28.4,0,51.5-23.1,51.5-51.5v-44.5C667.7,428.2,644.6,405.1,616.2,405.1z"/>
		<path class="st4" d="M616.2,563.6L616.2,563.6c-28.4,0-51.5,23.1-51.5,51.5v0c0,28.4,23.1,51.5,51.5,51.5h0
			c28.4,0,51.5-23.1,51.5-51.5v0C667.7,586.7,644.6,563.6,616.2,563.6z"/>
		<path class="st5" d="M616.2,677.3L616.2,677.3c-21.1,0-38.3,17.1-38.3,38.3v0c0,21.1,17.1,38.3,38.3,38.3h0
			c21.1,0,38.3-17.1,38.3-38.3v0C654.4,694.4,637.3,677.3,616.2,677.3z"/>
		<path class="st4" d="M203.1,657.6L203.1,657.6c-21.1,0-38.3,17.1-38.3,38.3v0c0,21.1,17.1,38.3,38.3,38.3h0
			c21.1,0,38.3-17.1,38.3-38.3v0C241.4,674.8,224.2,657.6,203.1,657.6z"/>
		<path class="st4" d="M347.7,638.4L347.7,638.4c-21.1,0-38.3,17.1-38.3,38.3v0c0,21.1,17.1,38.3,38.3,38.3h0
			c21.1,0,38.3-17.1,38.3-38.3v0C385.9,655.5,368.8,638.4,347.7,638.4z"/>
		<path class="st5" d="M203.1,747.4L203.1,747.4c-14.8,0-26.9,12-26.9,26.9v0c0,14.8,12,26.9,26.9,26.9h0c14.8,0,26.9-12,26.9-26.9
			v0C230,759.4,217.9,747.4,203.1,747.4z"/>
		<path class="st5" d="M1029.5,721.1L1029.5,721.1c-14.8,0-26.9,12-26.9,26.9v0c0,14.8,12,26.9,26.9,26.9l0,0
			c14.8,0,26.9-12,26.9-26.9v0C1056.4,733.1,1044.4,721.1,1029.5,721.1z"/>
		<path class="st3" d="M911.9,507.2L911.9,507.2c-21.1,0-38.3,17.1-38.3,38.3v0c0,21.1,17.1,38.3,38.3,38.3h0
			c21.1,0,38.3-17.1,38.3-38.3v0C950.2,524.3,933,507.2,911.9,507.2z"/>
		<path class="st4" d="M911.9,597L911.9,597c-14.8,0-26.9,12-26.9,26.9v0c0,14.8,12,26.9,26.9,26.9h0c14.8,0,26.9-12,26.9-26.9v0
			C938.7,609,926.7,597,911.9,597z"/>
		<path class="st3" d="M481.6,481.9L481.6,481.9c-18.1,0-32.8,14.7-32.8,32.8v0c0,18.1,14.7,32.8,32.8,32.8h0
			c18.1,0,32.8-14.7,32.8-32.8v0C514.4,496.6,499.7,481.9,481.6,481.9z"/>
		<path class="st4" d="M481.6,558.8L481.6,558.8c-12.7,0-23,10.3-23,23v0c0,12.7,10.3,23,23,23h0c12.7,0,23-10.3,23-23v0
			C504.6,569.1,494.3,558.8,481.6,558.8z"/>
		<path class="st3" d="M347.7,518.6L347.7,518.6c-28.8,0-52.1,23.3-52.1,52.1v0c0,28.8,23.3,52.1,52.1,52.1h0
			c28.8,0,52.1-23.3,52.1-52.1v0C399.8,542,376.5,518.6,347.7,518.6z"/>
	</g>
</g>
</svg>
