<?xml version="1.0" encoding="utf-8"?>
<!-- Generator: Adobe Illustrator 22.0.0, SVG Export Plug-In . SVG Version: 6.00 Build 0)  -->
<svg version="1.1" id="Layer_1" xmlns="http://www.w3.org/2000/svg" xmlns:xlink="http://www.w3.org/1999/xlink" x="0px" y="0px"
	 viewBox="0 0 1000 829.8" style="enable-background:new 0 0 1000 829.8;" xml:space="preserve">
<style type="text/css">
	.st0{fill:#012060;}
	.st1{fill:#92D14F;}
	.st2{fill:#222222;}
	.st3{fill:#FFFFFF;}
	.st4{fill:#00BFFF;}
	.st5{fill:#99D14A;}
	.st6{fill:#002260;}
</style>
<path class="st0" d="M503.7,877.3L503.7,877.3c-306.5,0-555-248.5-555-555v0c0-306.5,248.5-555,555-555h0c306.5,0,555,248.5,555,555
	v0C1058.7,628.8,810.2,877.3,503.7,877.3z"/>
<g>
	<g>
		<g>
			<path class="st1" d="M486.1,618.2l-89.9-225.8c46-19.7,46-125,46-125c-124.7,0-208.3,59.2-221.4,120.6l81.1,41.7l-26.3,48.2
				L486.1,618.2z"/>
			<path class="st1" d="M486.1,618.2L576,392.4c-46-19.7-46-125-46-125c124.7,0,208.3,59.2,221.4,120.6l-81.1,41.7l26.3,48.2
				L486.1,618.2z"/>
		</g>
	</g>
	<g>
		<path class="st2" d="M336.7,170.9c0,0,26,54.9,4.4,80.8c-21.5,26-55.6,94.9-8.2,153.5c0,0-15.6-51.9,8.2-66.7
			c0,0-20,63.8,22.2,104.6c0,0-15.6-55.1,6.3-88c0,0-4.1,29.4-0.4,49.4l54.1-49.7l5.9-170.5L336.7,170.9z"/>
		<path class="st2" d="M623.6,221.3c0,0-17.1,106.8,18.5,117.2c0,0-25.2,5.9-40-17.1c0,0-8.9,28.2,20.8,60.1
			c0,0-60.1,11.1-75.6-31.1s0-129,0-129L623.6,221.3L623.6,221.3z"/>
	</g>
	<path class="st3" d="M486.1,381.5L486.1,381.5c-51.4,0-94.4-62.8-99.3-114l-10.3-105.3h219.2l-10.3,105.3
		C580.5,318.6,537.5,381.5,486.1,381.5z"/>
	<g>
		<g>
			<path class="st2" d="M488.3,622.6c-39.2,0-76.1-15.3-103.9-43c-57.3-57.3-57.3-150.5,0-207.7c27.7-27.7,64.6-43,103.9-43
				s76.1,15.3,103.9,43l0,0l0,0c57.3,57.3,57.3,150.5,0,207.7C564.4,607.3,527.5,622.6,488.3,622.6z M488.3,372.7
				c-27.5,0-53.4,10.7-72.9,30.2c-40.2,40.2-40.2,105.5,0,145.7c19.5,19.5,45.3,30.2,72.9,30.2c27.5,0,53.4-10.7,72.9-30.2
				c40.2-40.2,40.2-105.5,0-145.7l0,0C541.7,383.4,515.8,372.7,488.3,372.7z"/>
		</g>
		<g>
			<path class="st2" d="M646.2,655.5c-5.6,0-11.2-2.1-15.5-6.4l-69.5-69.5c-8.6-8.6-8.6-22.4,0-31s22.4-8.6,31,0l69.5,69.5
				c8.6,8.6,8.6,22.4,0,31C657.4,653.4,651.8,655.5,646.2,655.5z"/>
		</g>
	</g>
	<path class="st2" d="M623.3,124.7l-12.1-65.1C604.8,25,574.7,0,539.5,0h-93.9c-28.7,0-54.8,16.9-66.5,43.1l-35.7,79.6
		c-29.5,0-60.9,0.1-94.4,0.1c-8.5,0-12.1,10.9-5.2,15.8c70.8,51.5,306,202.8,452.7,63.1C754,147,755.1,129.8,623.3,124.7z"/>
	<g>
		<g>
			<path class="st1" d="M3.7,296l123.9,0.2v21.2l-50.4-0.1v21.1l50.4,0.1v21.4l-124-0.2v-21.4l54.9,0.1v-21.1l-54.9-0.1L3.7,296z"/>
			<path class="st1" d="M64,409.2l10.2,10.5l3.5-0.7c7.7-1.5,10.6-5.5,9.7-9.9c-0.8-4.3-5-7.2-12-5.9l-6.9,1.4l-3.4-17.2
				c0,0,4.1-2.8,9.3-3.8c14.7-2.9,27.2,5.7,30.4,22.1c3.4,17.4-5,29.8-23.2,33.4L39,447.4c-13.9,2.7-16.7,6.9-16.7,6.9l-3.5,0.7
				l-3.7-19.1c0,0,4.5-4.5,14.2-6.4l-0.2-0.9c0,0-17.4-1-20.3-15.9c-2-10.4,3.6-18.6,17.5-21.3C41,388.5,49.5,393.9,64,409.2z
				 M58.4,422.8l-7.7-7.4c-5.3-5.4-8.7-7.5-15.6-6.1c-5.2,1-7.2,4.2-6.2,9.4c1,5.2,6.1,8.6,14,7.1L58.4,422.8z"/>
			<path class="st1" d="M72.2,526l-1.7,0.6c-15.6,6-28.3,0.4-35-16.8c-6.7-17.4-1.1-30,12.9-35.4c5-1.9,9.7-2,9.7-2l6.4,16.5
				l-6.8,2.6c-5.7,2.2-7.7,6.8-5.7,11.9c1.6,4.1,6.1,6.1,11.1,4.2l1.7-0.6c11.6-4.5,1.8-39.5,24.9-48.5c15.6-6,28.2-0.6,35.1,17.1
				c5.9,15.3,0.3,28-13.6,33.4c-5,1.9-8.9,1.5-8.9,1.5l-6.1-15.8l5.9-2.3c5.7-2.2,7.7-6.8,6.2-10.8c-1.6-4.2-6.2-6.2-11.2-4.3
				C85.5,481.8,95.3,517,72.2,526z"/>
			<path class="st1" d="M85.5,602.9l42.9-47.1l12.7-12.9l-0.5-0.8l-14.1,10.7l-51.3,34.7L63.3,570l102.6-69.5l15.3,22.6l-47.8,52.6
				l-13.7,11.4l0.5,0.8l15.6-8.5l66.6-24.7l15.3,22.6l-102.6,69.5l-11.9-17.6l51.3-34.7l15.2-9.1l-0.5-0.8l-16.6,7L93,614
				L85.5,602.9z"/>
			<path class="st1" d="M153.2,692.5l48.3-88.1l14.9,13.9l-28.9,48l-9.6,12.9l0.6,0.5l12.2-10.4l42.6-35.3l14.9,13.9l-80.7,57.8
				c-19,13.8-31.4,14.3-40.4,5.9c-5.2-4.8-7.3-10.3-7.3-10.3l11.9-12.7c0,0,1.6,3.5,4.2,5.9C139.6,698.1,144.6,697.9,153.2,692.5z"
				/>
			<path class="st1" d="M287.9,724c0,0-4.1,9.8-9.8,18.7c-11,17.2-25.6,20.5-42.7,9.6c-17.9-11.4-21.2-26.1-8.8-45.5l32.3-50.8
				c12.4-19.4,27-22.7,44.9-11.3c16.4,10.5,19.9,26.2,9.4,42.8c-5.2,8.1-11.9,15.3-11.9,15.3l-15.7-9.8l9-14.1
				c6.1-9.6,5-14.5-0.8-18.2c-6-3.8-10.9-2.7-17,6.9l-32.3,50.8c-6.1,9.6-5,14.5,0.9,18.3c5.8,3.7,10.7,2.6,16.9-7l9.9-15.6
				L287.9,724z"/>
			<path class="st1" d="M358,777.9c-7.1,18.1-20.9,24.1-38.1,17.4c-17.4-6.8-23.4-20.6-16.3-38.7l12.9-32.9
				c7.1-18.1,20.9-24.1,38.3-17.3c17.2,6.8,23.2,20.5,16.1,38.7L358,777.9z M322.5,763.9c-3.2,8.2-1.1,12.9,3.9,14.8
				c4.8,1.9,9.4-0.1,12.6-8.4l12.9-33c3.2-8.2,1.2-12.8-3.6-14.7c-4.9-1.9-9.7,0-12.9,8.2L322.5,763.9z"/>
			<path class="st1" d="M419.6,821.1l11.5-61.9c1.6-8.7-1.2-12.8-5.5-13.6c-5.2-1-10.5,2.6-11.9,10.4l-11.5,61.9l-19.9-3.7
				l16.8-90.5l19.9,3.7l-1.3,7l-3.2,7.4l0.8,0.1c0,0,8.4-15.5,22.2-12.9c11.4,2.1,17.8,11.5,14.6,28.7l-12.5,67.1L419.6,821.1z"/>
			<path class="st1" d="M517.5,753.9l-15-0.3l-0.8,48.8c-0.1,6.1,2.4,8.7,6.8,8.8c4.5,0.1,8.1-1.6,8.1-1.6l-0.3,17.9
				c0,0-4.5,2.5-13.2,2.4c-13.4-0.2-22.1-9.2-21.8-25.1l0.9-51.3l-10.6-0.2l0.3-17.7l10.6,0.2l0.4-21.2l20.4,0.3l-0.4,21.2l15,0.3
				L517.5,753.9z"/>
			<path class="st1" d="M561.8,784.3l1.7,11.5c1.3,8.8,5.5,11.7,10.7,10.9c5.1-0.8,8.1-4.8,7-11.8l-0.8-5.3l17.7-2.6
				c0,0,2.3,3.2,3,8.5c2.1,14-6.1,26-24.4,28.7c-18.6,2.8-30.5-6.2-33.4-25.5l-5.2-35c-2.9-19.3,6.1-31.3,24.6-34.1
				c18.3-2.7,30.4,6.2,33.2,25.5l3.5,23.6L561.8,784.3z M559.4,767.8l17.5-2.6l-1-7c-1.3-8.8-5.3-11.7-10.4-11
				c-5.3,0.8-8.4,4.8-7.1,13.6L559.4,767.8z"/>
			<path class="st1" d="M676.2,797l-20.8-59.4c-2.9-8.4-7.4-10.5-11.5-9.1c-5,1.8-7.8,7.5-5.2,14.9l20.8,59.4l-19.1,6.7L610,722.6
				l19.1-6.7l2.3,6.7l0.9,8l0.8-0.3c0,0-0.4-17.6,12.8-22.2c10.9-3.8,21.2,1.1,27,17.7l22.6,64.4L676.2,797z"/>
			<path class="st1" d="M727.7,689.9l-13.1,7.3l23.6,42.6c3,5.3,6.5,6.4,10.3,4.2c3.9-2.2,6.2-5.4,6.2-5.4l8.7,15.6
				c0,0-2.7,4.4-10.3,8.6c-11.7,6.5-23.7,3-31.4-10.9l-25-44.9l-9.3,5.1l-8.6-15.5l9.3-5.1L677.8,673l17.9-9.9l10.3,18.6l13.1-7.3
				L727.7,689.9z"/>
			<path class="st1" d="M835.7,702l-43.8,34.3l-76.4-97.5l16.7-13.1l64.9,82.8l27.1-21.2L835.7,702z"/>
			<path class="st1" d="M838.4,642.3l8.6,7.7c6.6,5.9,11.7,5.5,15.2,1.6c3.4-3.8,3.2-8.8-2.1-13.6l-3.9-3.5l11.9-13.3
				c0,0,3.8,1,7.8,4.6c10.5,9.5,11.9,23.9-0.5,37.6c-12.6,14-27.5,14.7-42,1.7l-26.3-23.7c-14.5-13-15.3-28-2.8-41.9
				c12.4-13.8,27.4-14.6,41.8-1.5l17.7,15.9L838.4,642.3z M825.9,631.1l11.8-13.2l-5.3-4.7c-6.6-5.9-11.6-5.6-15-1.8
				c-3.6,3.9-3.4,9.1,3.2,15L825.9,631.1z"/>
			<path class="st1" d="M880.4,566.2l-0.5-14.6l-3-1.8c-6.7-4.1-11.5-3.1-13.9,0.8c-2.3,3.7-1.2,8.7,4.9,12.4l6,3.7l-9.2,15
				c0,0-4.8-0.7-9.4-3.5c-12.8-7.8-16.2-22.6-7.5-36.8c9.2-15.1,23.8-18.6,39.6-8.9l37.1,22.7c12.1,7.4,16.9,6.2,16.9,6.2l3,1.8
				l-10.2,16.6c0,0-6.4,0.2-14.7-4.9l-0.5,0.8c0,0,12.1,12.5,4.2,25.4c-5.5,9.1-15.2,11.3-27.3,3.9
				C883.3,597,880.7,587.3,880.4,566.2z M893.7,560l0.7,10.6c0.3,7.5,1.3,11.4,7.4,15.1c4.5,2.8,8.2,1.8,10.9-2.7
				c2.8-4.5,1.3-10.5-5.5-14.7L893.7,560z"/>
			<path class="st1" d="M894.4,445.1l34.8,30.5l51.7,1l-7.4,19.1l-42.3-1.3l-2.3,5.9l37.2,14.4l-7.3,18.9L838.3,487l7.3-19
				l66.8,25.8l2.3-5.9L887,464.1L894.4,445.1z"/>
			<path class="st1" d="M952,424.6l11.4,2.2c8.7,1.7,12.9-1.3,13.9-6.5c1-5.1-1.8-9.2-8.8-10.5l-5.2-1l3.4-17.5c0,0,3.8-1.1,9-0.1
				c13.9,2.7,22.5,14.3,19,32.5c-3.5,18.5-15.9,26.8-35.1,23.1l-34.8-6.7c-19.1-3.7-27.5-16.1-24-34.4c3.5-18.2,15.9-26.6,35-22.9
				l23.4,4.5L952,424.6z M935.6,421.4l3.3-17.4l-7-1.3c-8.7-1.7-12.8,1.1-13.8,6.2c-1,5.2,1.8,9.5,10.5,11.2L935.6,421.4z"/>
			<path class="st1" d="M936.3,359.3c-20.3,0-28.3-8.1-28.3-19.5c0-14.2,16.8-19.4,16.8-19.4v-0.8l-7.9,1.8l-44.2-0.1v-20.4
				l129.2,0.2v20.4h-7.1l-8-1.8v0.8c0,0,16.9,5.3,16.9,19.5c0,11.4-7.9,19.5-28.3,19.4L936.3,359.3z M938.9,321.3
				c-8.9,0-12.4,3.5-12.4,8.7c0,5.3,3.5,9,12.4,9h33.6c8.8,0,12.4-3.7,12.4-9c0-5.1-3.5-8.7-12.4-8.7H938.9z"/>
		</g>
	</g>
</g>
<path class="st0" d="M-1044.3,868L-1044.3,868c-306.5,0-555-248.5-555-555v0c0-306.5,248.5-555,555-555h0c306.5,0,555,248.5,555,555
	v0C-489.3,619.5-737.8,868-1044.3,868z"/>
<path id="SVGID_x5F_1_x5F_" style="fill:none;" d="M-1044.3,700.5L-1044.3,700.5c-214,0-387.5-173.5-387.5-387.5v0
	c0-214,173.5-387.5,387.5-387.5h0c214,0,387.5,173.5,387.5,387.5v0C-656.8,527-830.3,700.5-1044.3,700.5z"/>
<text class="st5" style="font-family:'TTBackwardsSansTrial-Black'; font-size:150.6731px;"><textPath  xlink:href="#SVGID_x5F_1_x5F_" startOffset="4738.0088%">
HMLK</textPath>
</text>
<g>
	<g>
		<g>
			<path class="st1" d="M-1061.9,614.9l-89.9-225.8c46-19.7,46-125,46-125c-124.7,0-208.3,59.2-221.4,120.6l81.1,41.7l-26.3,48.2
				L-1061.9,614.9z"/>
			<path class="st1" d="M-1061.9,614.9l89.9-225.8c-46-19.7-46-125-46-125c124.7,0,208.3,59.2,221.4,120.6l-81.1,41.7l26.3,48.2
				L-1061.9,614.9z"/>
		</g>
	</g>
	<g>
		<path class="st4" d="M-1211.3,167.6c0,0,26,54.9,4.4,80.8c-21.5,26-55.6,94.9-8.2,153.5c0,0-15.6-51.9,8.2-66.7
			c0,0-20,63.8,22.2,104.6c0,0-15.6-55.1,6.3-88c0,0-4.1,29.4-0.4,49.4l54.1-49.7l5.9-170.5L-1211.3,167.6z"/>
		<path class="st4" d="M-924.4,218c0,0-17.1,106.8,18.5,117.2c0,0-25.2,5.9-40-17.1c0,0-8.9,28.2,20.8,60.1c0,0-60.1,11.1-75.6-31.1
			s0-129,0-129L-924.4,218L-924.4,218z"/>
	</g>
	<path class="st0" d="M-1061.9,378.2L-1061.9,378.2c-51.4,0-94.4-62.8-99.3-114l-10.3-105.3h219.2l-10.3,105.3
		C-967.5,315.3-1010.5,378.2-1061.9,378.2z"/>
	<g>
		<g>
			<path class="st4" d="M-1059.7,619.3c-39.2,0-76.1-15.3-103.9-43c-57.3-57.3-57.3-150.5,0-207.7c27.7-27.7,64.6-43,103.9-43
				c39.3,0,76.1,15.3,103.9,43l0,0l0,0c57.3,57.3,57.3,150.5,0,207.7C-983.6,604-1020.5,619.3-1059.7,619.3z M-1059.7,369.4
				c-27.5,0-53.4,10.7-72.9,30.2c-40.2,40.2-40.2,105.5,0,145.7c19.5,19.5,45.3,30.2,72.9,30.2c27.5,0,53.4-10.7,72.9-30.2
				c40.2-40.2,40.2-105.5,0-145.7l0,0C-1006.3,380.1-1032.2,369.4-1059.7,369.4z"/>
		</g>
		<g>
			<path class="st4" d="M-901.8,652.2c-5.6,0-11.2-2.1-15.5-6.4l-69.5-69.5c-8.6-8.6-8.6-22.4,0-31s22.4-8.6,31,0l69.5,69.5
				c8.6,8.6,8.6,22.4,0,31C-890.6,650.1-896.2,652.2-901.8,652.2z"/>
		</g>
	</g>
	<path class="st4" d="M-924.7,121.4l-12.1-65.1c-6.4-34.6-36.5-59.6-71.7-59.6h-93.9c-28.7,0-54.8,16.9-66.5,43.1l-35.7,79.6
		c-29.5,0-60.9,0.1-94.4,0.1c-8.5,0-12.1,10.9-5.2,15.8c70.8,51.5,306,202.8,452.7,63.1C-794,143.7-792.9,126.5-924.7,121.4z"/>
</g>
<g>
	<g>
		<path class="st5" d="M-1544.3,280.7l123.9,0.2v21.2l-50.4-0.1v21.1l50.4,0.1v21.4l-124-0.2V323l54.9,0.1V302l-54.9-0.1
			L-1544.3,280.7z"/>
		<path class="st5" d="M-1484,393.9l10.2,10.5l3.5-0.7c7.7-1.5,10.6-5.5,9.7-9.9c-0.8-4.3-5-7.2-12-5.9l-6.9,1.4l-3.4-17.2
			c0,0,4.1-2.8,9.3-3.8c14.7-2.9,27.2,5.7,30.4,22.1c3.4,17.4-5,29.8-23.2,33.4l-42.6,8.3c-13.9,2.7-16.7,6.9-16.7,6.9l-3.5,0.7
			l-3.7-19.1c0,0,4.5-4.5,14.2-6.4l-0.2-0.9c0,0-17.4-1-20.3-15.9c-2-10.4,3.6-18.6,17.5-21.3C-1507,373.2-1498.5,378.6-1484,393.9z
			 M-1489.6,407.5l-7.7-7.4c-5.3-5.4-8.7-7.5-15.6-6.1c-5.2,1-7.2,4.2-6.2,9.4c1,5.2,6.1,8.6,14,7.1L-1489.6,407.5z"/>
		<path class="st5" d="M-1475.8,510.7l-1.7,0.6c-15.6,6-28.3,0.4-35-16.8c-6.7-17.4-1.1-30,12.9-35.4c5-1.9,9.7-2,9.7-2l6.4,16.5
			l-6.8,2.6c-5.7,2.2-7.7,6.8-5.7,11.9c1.6,4.1,6.1,6.1,11.1,4.2l1.7-0.6c11.6-4.5,1.8-39.5,24.9-48.5c15.6-6,28.2-0.6,35.1,17.1
			c5.9,15.3,0.3,28-13.6,33.4c-5,1.9-8.9,1.5-8.9,1.5l-6.1-15.8l5.9-2.3c5.7-2.2,7.7-6.8,6.2-10.8c-1.6-4.2-6.2-6.2-11.2-4.3
			C-1462.5,466.5-1452.7,501.7-1475.8,510.7z"/>
		<path class="st5" d="M-1462.5,587.6l42.9-47.1l12.7-12.9l-0.5-0.8l-14.1,10.7l-51.3,34.7l-11.9-17.5l102.6-69.5l15.3,22.6
			l-47.8,52.6l-13.7,11.4l0.5,0.8l15.6-8.5l66.6-24.7l15.3,22.6l-102.6,69.5l-11.9-17.6l51.3-34.7l15.2-9.1l-0.5-0.8l-16.6,7
			l-59.6,22.4L-1462.5,587.6z"/>
		<path class="st5" d="M-1394.8,677.2l48.3-88.1l14.9,13.9l-28.9,48l-9.6,12.9l0.6,0.5l12.2-10.4l42.6-35.3l14.9,13.9l-80.7,57.8
			c-19,13.8-31.4,14.3-40.4,5.9c-5.2-4.8-7.3-10.3-7.3-10.3l11.9-12.7c0,0,1.6,3.5,4.2,5.9C-1408.4,682.8-1403.4,682.6-1394.8,677.2
			z"/>
		<path class="st5" d="M-1260.1,708.7c0,0-4.1,9.8-9.8,18.7c-11,17.2-25.6,20.5-42.7,9.6c-17.9-11.4-21.2-26.1-8.8-45.5l32.3-50.8
			c12.4-19.4,27-22.7,44.9-11.3c16.4,10.5,19.9,26.2,9.4,42.8c-5.2,8.1-11.9,15.3-11.9,15.3l-15.7-9.8l9-14.1
			c6.1-9.6,5-14.5-0.8-18.2c-6-3.8-10.9-2.7-17,6.9l-32.3,50.8c-6.1,9.6-5,14.5,0.9,18.3c5.8,3.7,10.7,2.6,16.9-7l9.9-15.6
			L-1260.1,708.7z"/>
		<path class="st5" d="M-1190,762.6c-7.1,18.1-20.9,24.1-38.1,17.4c-17.4-6.8-23.4-20.6-16.3-38.7l12.9-32.9
			c7.1-18.1,20.9-24.1,38.3-17.3c17.2,6.8,23.2,20.5,16.1,38.7L-1190,762.6z M-1225.5,748.6c-3.2,8.2-1.1,12.9,3.9,14.8
			c4.8,1.9,9.4-0.1,12.6-8.4l12.9-33c3.2-8.2,1.2-12.8-3.6-14.7c-4.9-1.9-9.7,0-12.9,8.2L-1225.5,748.6z"/>
		<path class="st5" d="M-1128.4,805.8l11.5-61.9c1.6-8.7-1.2-12.8-5.5-13.6c-5.2-1-10.5,2.6-11.9,10.4l-11.5,61.9l-19.9-3.7
			l16.8-90.5l19.9,3.7l-1.3,7l-3.2,7.4l0.8,0.1c0,0,8.4-15.5,22.2-12.9c11.4,2.1,17.8,11.5,14.6,28.7l-12.5,67.1L-1128.4,805.8z"/>
		<path class="st5" d="M-1030.5,738.6l-15-0.3l-0.8,48.8c-0.1,6.1,2.4,8.7,6.8,8.8c4.5,0.1,8.1-1.6,8.1-1.6l-0.3,17.9
			c0,0-4.5,2.5-13.2,2.4c-13.4-0.2-22.1-9.2-21.8-25.1l0.9-51.3l-10.6-0.2l0.3-17.7l10.6,0.2l0.4-21.2l20.4,0.3l-0.4,21.2l15,0.3
			L-1030.5,738.6z"/>
		<path class="st5" d="M-986.2,769l1.7,11.5c1.3,8.8,5.5,11.7,10.7,10.9c5.1-0.8,8.1-4.8,7-11.8l-0.8-5.3l17.7-2.6
			c0,0,2.3,3.2,3,8.5c2.1,14-6.1,26-24.4,28.7c-18.6,2.8-30.5-6.2-33.4-25.5l-5.2-35c-2.9-19.3,6.1-31.3,24.6-34.1
			c18.3-2.7,30.4,6.2,33.2,25.5l3.5,23.6L-986.2,769z M-988.6,752.5l17.5-2.6l-1-7c-1.3-8.8-5.3-11.7-10.4-11
			c-5.3,0.8-8.4,4.8-7.1,13.6L-988.6,752.5z"/>
		<path class="st5" d="M-871.8,781.7l-20.8-59.4c-2.9-8.4-7.4-10.5-11.5-9.1c-5,1.8-7.8,7.5-5.2,14.9l20.8,59.4l-19.1,6.7
			l-30.4-86.9l19.1-6.7l2.3,6.7l0.9,8l0.8-0.3c0,0-0.4-17.6,12.8-22.2c10.9-3.8,21.2,1.1,27,17.7l22.6,64.4L-871.8,781.7z"/>
		<path class="st5" d="M-820.3,674.6l-13.1,7.3l23.6,42.6c3,5.3,6.5,6.4,10.3,4.2c3.9-2.2,6.2-5.4,6.2-5.4l8.7,15.6
			c0,0-2.7,4.4-10.3,8.6c-11.7,6.5-23.7,3-31.4-10.9l-25-44.9l-9.3,5.1l-8.6-15.5l9.3-5.1l-10.3-18.5l17.9-9.9l10.3,18.6l13.1-7.3
			L-820.3,674.6z"/>
		<path class="st5" d="M-712.3,686.7l-43.8,34.3l-76.4-97.5l16.7-13.1l64.9,82.8l27.1-21.2L-712.3,686.7z"/>
		<path class="st5" d="M-709.6,627l8.6,7.7c6.6,5.9,11.7,5.5,15.2,1.6c3.4-3.8,3.2-8.8-2.1-13.6l-3.9-3.5l11.9-13.3
			c0,0,3.8,1,7.8,4.6c10.5,9.5,11.9,23.9-0.5,37.6c-12.6,14-27.5,14.7-42,1.7l-26.3-23.7c-14.5-13-15.3-28-2.8-41.9
			c12.4-13.8,27.4-14.6,41.8-1.5l17.7,15.9L-709.6,627z M-722.1,615.8l11.8-13.2l-5.3-4.7c-6.6-5.9-11.6-5.6-15-1.8
			c-3.6,3.9-3.4,9.1,3.2,15L-722.1,615.8z"/>
		<path class="st5" d="M-667.6,550.9l-0.5-14.6l-3-1.8c-6.7-4.1-11.5-3.1-13.9,0.8c-2.3,3.7-1.2,8.7,4.9,12.4l6,3.7l-9.2,15
			c0,0-4.8-0.7-9.4-3.5c-12.8-7.8-16.2-22.6-7.5-36.8c9.2-15.1,23.8-18.6,39.6-8.9l37.1,22.7c12.1,7.4,16.9,6.2,16.9,6.2l3,1.8
			l-10.2,16.6c0,0-6.4,0.2-14.7-4.9l-0.5,0.8c0,0,12.1,12.5,4.2,25.4c-5.5,9.1-15.2,11.3-27.3,3.9
			C-664.7,581.7-667.3,572-667.6,550.9z M-654.3,544.7l0.7,10.6c0.3,7.5,1.3,11.4,7.4,15.1c4.5,2.8,8.2,1.8,10.9-2.7
			c2.8-4.5,1.3-10.5-5.5-14.7L-654.3,544.7z"/>
		<path class="st5" d="M-653.6,429.8l34.8,30.5l51.7,1l-7.4,19.1l-42.3-1.3l-2.3,5.9l37.2,14.4l-7.3,18.9l-120.5-46.6l7.3-19
			l66.8,25.8l2.3-5.9l-27.7-23.8L-653.6,429.8z"/>
		<path class="st5" d="M-596,409.3l11.4,2.2c8.7,1.7,12.9-1.3,13.9-6.5c1-5.1-1.8-9.2-8.8-10.5l-5.2-1l3.4-17.5c0,0,3.8-1.1,9-0.1
			c13.9,2.7,22.5,14.3,19,32.5c-3.5,18.5-15.9,26.8-35.1,23.1l-34.8-6.7c-19.1-3.7-27.5-16.1-24-34.4c3.5-18.2,15.9-26.6,35-22.9
			l23.4,4.5L-596,409.3z M-612.4,406.1l3.3-17.4l-7-1.3c-8.7-1.7-12.8,1.1-13.8,6.2c-1,5.2,1.8,9.5,10.5,11.2L-612.4,406.1z"/>
		<path class="st5" d="M-611.7,344c-20.3,0-28.3-8.1-28.3-19.5c0-14.2,16.8-19.4,16.8-19.4v-0.8l-7.9,1.8l-44.2-0.1v-20.4l129.2,0.2
			v20.4h-7.1l-8-1.8v0.8c0,0,16.9,5.3,16.9,19.5c0,11.4-7.9,19.5-28.3,19.4L-611.7,344z M-609.1,306c-8.9,0-12.4,3.5-12.4,8.7
			c0,5.3,3.5,9,12.4,9h33.6c8.8,0,12.4-3.7,12.4-9c0-5.1-3.5-8.7-12.4-8.7H-609.1z"/>
	</g>
</g>
<path class="st0" d="M2664.5,2388L2664.5,2388c-347.1,0-628.6-281.4-628.6-628.6v0c0-347.1,281.4-628.6,628.6-628.6h0
	c347.1,0,628.6,281.4,628.6,628.6v0C3293.1,2106.6,3011.7,2388,2664.5,2388z"/>
<g>
	<g>
		<path class="st1" d="M2157.3,1706.1l123.9,0.2v21.2l-50.4-0.1v21.1l50.4,0.1v21.4l-124-0.2v-21.4l54.9,0.1v-21.1l-54.9-0.1
			L2157.3,1706.1z"/>
		<path class="st1" d="M2217.6,1819.3l10.2,10.5l3.5-0.7c7.7-1.5,10.6-5.5,9.7-9.9c-0.8-4.3-5-7.2-12-5.9l-6.9,1.4l-3.4-17.2
			c0,0,4.1-2.8,9.3-3.8c14.7-2.9,27.2,5.7,30.4,22.1c3.4,17.4-5,29.8-23.2,33.4l-42.6,8.3c-13.9,2.7-16.7,6.9-16.7,6.9l-3.5,0.7
			l-3.7-19.1c0,0,4.5-4.5,14.2-6.4l-0.2-0.9c0,0-17.4-1-20.3-15.9c-2-10.4,3.6-18.6,17.5-21.3
			C2194.6,1798.6,2203.1,1804,2217.6,1819.3z M2212,1832.9l-7.7-7.4c-5.3-5.4-8.7-7.5-15.6-6.1c-5.2,1-7.2,4.2-6.2,9.4
			c1,5.2,6.1,8.6,14,7.1L2212,1832.9z"/>
		<path class="st1" d="M2225.8,1936.1l-1.7,0.6c-15.6,6-28.3,0.4-35-16.8c-6.7-17.4-1.1-30,12.9-35.4c5-1.9,9.7-2,9.7-2l6.4,16.5
			l-6.8,2.6c-5.7,2.2-7.7,6.8-5.7,11.9c1.6,4.1,6.1,6.1,11.1,4.2l1.7-0.6c11.6-4.5,1.8-39.5,24.9-48.5c15.6-6,28.2-0.6,35.1,17.1
			c5.9,15.3,0.3,28-13.6,33.4c-5,1.9-8.9,1.5-8.9,1.5l-6.1-15.8l5.9-2.3c5.7-2.2,7.7-6.8,6.2-10.8c-1.6-4.2-6.2-6.2-11.2-4.3
			C2239.1,1891.9,2248.9,1927.1,2225.8,1936.1z"/>
		<path class="st1" d="M2239.1,2013l42.9-47.1l12.7-12.9l-0.5-0.8l-14.1,10.7l-51.3,34.7l-11.9-17.5l102.6-69.5l15.3,22.6
			l-47.8,52.6l-13.7,11.4l0.5,0.8l15.6-8.5l66.6-24.7l15.3,22.6l-102.6,69.5l-11.9-17.6l51.3-34.7l15.2-9.1l-0.5-0.8l-16.6,7
			l-59.6,22.4L2239.1,2013z"/>
		<path class="st1" d="M2306.8,2102.6l48.3-88.1l14.9,13.9l-28.9,48l-9.6,12.9l0.6,0.5l12.2-10.4l42.6-35.3l14.9,13.9l-80.7,57.8
			c-19,13.8-31.4,14.3-40.4,5.9c-5.2-4.8-7.3-10.3-7.3-10.3l11.9-12.7c0,0,1.6,3.5,4.2,5.9C2293.2,2108.2,2298.2,2108,2306.8,2102.6
			z"/>
		<path class="st1" d="M2441.5,2134.1c0,0-4.1,9.8-9.8,18.7c-11,17.2-25.6,20.5-42.7,9.6c-17.9-11.4-21.2-26.1-8.8-45.5l32.3-50.8
			c12.4-19.4,27-22.7,44.9-11.3c16.4,10.5,19.9,26.2,9.4,42.8c-5.2,8.1-11.9,15.3-11.9,15.3l-15.7-9.8l9-14.1
			c6.1-9.6,5-14.5-0.8-18.2c-6-3.8-10.9-2.7-17,6.9l-32.3,50.8c-6.1,9.6-5,14.5,0.9,18.3c5.8,3.7,10.7,2.6,16.9-7l9.9-15.6
			L2441.5,2134.1z"/>
		<path class="st1" d="M2511.6,2188c-7.1,18.1-20.9,24.1-38.1,17.4c-17.4-6.8-23.4-20.6-16.3-38.7l12.9-32.9
			c7.1-18.1,20.9-24.1,38.3-17.3c17.2,6.8,23.2,20.5,16.1,38.7L2511.6,2188z M2476.1,2174c-3.2,8.2-1.1,12.9,3.9,14.8
			c4.8,1.9,9.4-0.1,12.6-8.4l12.9-33c3.2-8.2,1.2-12.8-3.6-14.7c-4.9-1.9-9.7,0-12.9,8.2L2476.1,2174z"/>
		<path class="st1" d="M2573.2,2231.2l11.5-61.9c1.6-8.7-1.2-12.8-5.5-13.6c-5.2-1-10.5,2.6-11.9,10.4l-11.5,61.9l-19.9-3.7
			l16.8-90.5l19.9,3.7l-1.3,7l-3.2,7.4l0.8,0.1c0,0,8.4-15.5,22.2-12.9c11.4,2.1,17.8,11.5,14.6,28.7l-12.5,67.1L2573.2,2231.2z"/>
		<path class="st1" d="M2671.1,2164l-15-0.3l-0.8,48.8c-0.1,6.1,2.4,8.7,6.8,8.8c4.5,0.1,8.1-1.6,8.1-1.6l-0.3,17.9
			c0,0-4.5,2.5-13.2,2.4c-13.4-0.2-22.1-9.2-21.8-25.1l0.9-51.3l-10.6-0.2l0.3-17.7l10.6,0.2l0.4-21.2l20.4,0.3l-0.4,21.2l15,0.3
			L2671.1,2164z"/>
		<path class="st1" d="M2715.4,2194.4l1.7,11.5c1.3,8.8,5.5,11.7,10.7,10.9c5.1-0.8,8.1-4.8,7-11.8l-0.8-5.3l17.7-2.6
			c0,0,2.3,3.2,3,8.5c2.1,14-6.1,26-24.4,28.7c-18.6,2.8-30.5-6.2-33.4-25.5l-5.2-35c-2.9-19.3,6.1-31.3,24.6-34.1
			c18.3-2.7,30.4,6.2,33.2,25.5l3.5,23.6L2715.4,2194.4z M2713,2177.9l17.5-2.6l-1-7c-1.3-8.8-5.3-11.7-10.4-11
			c-5.3,0.8-8.4,4.8-7.1,13.6L2713,2177.9z"/>
		<path class="st1" d="M2829.8,2207.1l-20.8-59.4c-2.9-8.4-7.4-10.5-11.5-9.1c-5,1.8-7.8,7.5-5.2,14.9l20.8,59.4l-19.1,6.7
			l-30.4-86.9l19.1-6.7l2.3,6.7l0.9,8l0.8-0.3c0,0-0.4-17.6,12.8-22.2c10.9-3.8,21.2,1.1,27,17.7l22.6,64.4L2829.8,2207.1z"/>
		<path class="st1" d="M2881.3,2100l-13.1,7.3l23.6,42.6c3,5.3,6.5,6.4,10.3,4.2c3.9-2.2,6.2-5.4,6.2-5.4l8.7,15.6
			c0,0-2.7,4.4-10.3,8.6c-11.7,6.5-23.7,3-31.4-10.9l-25-44.9l-9.3,5.1l-8.6-15.5l9.3-5.1l-10.3-18.5l17.9-9.9l10.3,18.6l13.1-7.3
			L2881.3,2100z"/>
		<path class="st1" d="M2989.3,2112.1l-43.8,34.3l-76.4-97.5l16.7-13.1l64.9,82.8l27.1-21.2L2989.3,2112.1z"/>
		<path class="st1" d="M2992,2052.4l8.6,7.7c6.6,5.9,11.7,5.5,15.2,1.6c3.4-3.8,3.2-8.8-2.1-13.6l-3.9-3.5l11.9-13.3
			c0,0,3.8,1,7.8,4.6c10.5,9.5,11.9,23.9-0.5,37.6c-12.6,14-27.5,14.7-42,1.7l-26.3-23.7c-14.5-13-15.3-28-2.8-41.9
			c12.4-13.8,27.4-14.6,41.8-1.5l17.7,15.9L2992,2052.4z M2979.5,2041.2l11.8-13.2l-5.3-4.7c-6.6-5.9-11.6-5.6-15-1.8
			c-3.6,3.9-3.4,9.1,3.2,15L2979.5,2041.2z"/>
		<path class="st1" d="M3034,1976.3l-0.5-14.6l-3-1.8c-6.7-4.1-11.5-3.1-13.9,0.8c-2.3,3.7-1.2,8.7,4.9,12.4l6,3.7l-9.2,15
			c0,0-4.8-0.7-9.4-3.5c-12.8-7.8-16.2-22.6-7.5-36.8c9.2-15.1,23.8-18.6,39.6-8.9l37.1,22.7c12.1,7.4,16.9,6.2,16.9,6.2l3,1.8
			l-10.2,16.6c0,0-6.4,0.2-14.7-4.9l-0.5,0.8c0,0,12.1,12.5,4.2,25.4c-5.5,9.1-15.2,11.3-27.3,3.9
			C3036.9,2007.1,3034.3,1997.4,3034,1976.3z M3047.3,1970.1l0.7,10.6c0.3,7.5,1.3,11.4,7.4,15.1c4.5,2.8,8.2,1.8,10.9-2.7
			c2.8-4.5,1.3-10.5-5.5-14.7L3047.3,1970.1z"/>
		<path class="st1" d="M3048,1855.2l34.8,30.5l51.7,1l-7.4,19.1l-42.3-1.3l-2.3,5.9l37.2,14.4l-7.3,18.9l-120.5-46.6l7.3-19
			l66.8,25.8l2.3-5.9l-27.7-23.8L3048,1855.2z"/>
		<path class="st1" d="M3105.6,1834.7l11.4,2.2c8.7,1.7,12.9-1.3,13.9-6.5c1-5.1-1.8-9.2-8.8-10.5l-5.2-1l3.4-17.5
			c0,0,3.8-1.1,9-0.1c13.9,2.7,22.5,14.3,19,32.5c-3.5,18.5-15.9,26.8-35.1,23.1l-34.8-6.7c-19.1-3.7-27.5-16.1-24-34.4
			c3.5-18.2,15.9-26.6,35-22.9l23.4,4.5L3105.6,1834.7z M3089.2,1831.5l3.3-17.4l-7-1.3c-8.7-1.7-12.8,1.1-13.8,6.2
			c-1,5.2,1.8,9.5,10.5,11.2L3089.2,1831.5z"/>
		<path class="st1" d="M3089.9,1769.4c-20.3,0-28.3-8.1-28.3-19.5c0-14.2,16.8-19.4,16.8-19.4v-0.8l-7.9,1.8l-44.2-0.1V1711
			l129.2,0.2v20.4h-7.1l-8-1.8v0.8c0,0,16.9,5.3,16.9,19.5c0,11.4-7.9,19.5-28.3,19.4L3089.9,1769.4z M3092.5,1731.4
			c-8.9,0-12.4,3.5-12.4,8.7c0,5.3,3.5,9,12.4,9h33.6c8.8,0,12.4-3.7,12.4-9c0-5.1-3.5-8.7-12.4-8.7H3092.5z"/>
	</g>
</g>
<image style="overflow:visible;" width="1920" height="1080" xlink:href="5A9C3A09.jpg"  transform="matrix(1 0 0 1 1428 -343.7)">
</image>
<text transform="matrix(1 0 0 1 -1720.3767 -430.5022)" class="st5" style="font-family:'TTBackwardsSansTrial-Bold'; font-size:195px;">HasMyContentLeaked</text>
<rect x="-4853.6" y="-248" class="st6" width="2879.4" height="2879.4"/>
</svg>
