<?xml version="1.0" encoding="utf-8"?>
<!-- Generator: Adobe Illustrator 22.0.0, SVG Export Plug-In . SVG Version: 6.00 Build 0)  -->
<svg version="1.1" id="Layer_1" xmlns="http://www.w3.org/2000/svg" xmlns:xlink="http://www.w3.org/1999/xlink" x="0px" y="0px"
	 viewBox="0 0 707 493.4" style="enable-background:new 0 0 707 493.4;" xml:space="preserve">
<style type="text/css">
	.st0{fill:#FE59FE;}
	.st1{fill:#222222;}
	.st2{fill:#FFFFFF;}
</style>
<g>
	<path class="st0" d="M0,472.9v-68.4h11.7v27.8h11.6v-27.8h11.8v68.4H23.4v-30.3H11.7v30.3H0z"/>
	<path class="st0" d="M56.7,443.6l6.8-4.4v-2c0-4.4-1.9-6.3-4.4-6.3c-2.4,0-4.4,2-4.4,5.9v3.9h-9.7c0,0-1.1-2.5-1.1-5.4
		c0-8.3,6-14.1,15.2-14.1c9.8,0,15.6,5.9,15.6,16.1v24c0,7.8,2,9.8,2,9.8v2H65.9c0,0-2-2.9-2-8.3h-0.5c0,0-2.4,9.3-10.7,9.3
		c-5.9,0-9.7-3.9-9.7-11.7C43,453.8,46.8,449.8,56.7,443.6z M63.4,448l-4.8,3.4c-3.5,2.3-5,3.9-5,7.8c0,2.9,1.5,4.4,4.4,4.4
		c2.9,0,5.3-2.4,5.3-6.8V448z"/>
	<path class="st0" d="M112.9,458.2v1c0,9.2-5.4,14.7-15.6,14.7c-10.3,0-15.6-5.4-15.6-13.7c0-2.9,0.9-5.4,0.9-5.4h9.8v4
		c0,3.4,2,5.3,5,5.3c2.4,0,4.4-2,4.4-4.9v-1c0-6.8-20-8.8-20-22.5c0-9.2,5.3-14.7,15.8-14.7c9.1,0,14.5,5.4,14.5,13.7
		c0,2.9-1,4.9-1,4.9h-9.3v-3.5c0-3.4-2-5.3-4.4-5.3c-2.5,0-4.4,2-4.4,4.9C92.8,442.6,112.9,444.6,112.9,458.2z"/>
	<path class="st0" d="M142.7,472.9l-8.3-34.2l-2-9.8h-0.5l0.5,9.8v34.2h-11.7v-68.4h15.1l9.2,38.1l1,9.8h0.5l1-9.8l9.3-38.1H172
		v68.4h-11.7v-34.2l0.5-9.8h-0.5l-2,9.8l-8.3,34.2H142.7z"/>
	<path class="st0" d="M191.4,475.8l-13.7-53.7H189l6.4,30.3l1,8.8h0.4l1-8.8l3.9-30.3H213l-10.8,53.7c-2.5,12.7-7.3,17.6-14.1,17.6
		c-3.9,0-6.8-1.4-6.8-1.4v-9.6c0,0,2,0.8,3.9,0.8C188,483.2,190,481.3,191.4,475.8z"/>
	<path class="st0" d="M252.1,445.1c0,0,1,5.8,1,11.6c0,11.3-5.9,17.1-17.1,17.1c-11.7,0-17.6-5.9-17.6-18.6v-33.2
		c0-12.7,5.9-18.6,17.6-18.6c10.7,0,17.1,6.3,17.1,17.1c0,5.3-1,10.7-1,10.7h-10.3v-9.2c0-6.3-2-8.3-5.8-8.3c-3.9,0-5.9,2-5.9,8.3
		v33.2c0,6.3,2,8.3,5.9,8.3c3.8,0,5.8-2,5.8-8.3v-10.2H252.1z"/>
	<path class="st0" d="M292.7,457.3c0,10.7-5.9,16.6-16.1,16.6c-10.3,0-16.2-5.9-16.2-16.6v-19.5c0-10.7,5.9-16.6,16.2-16.6
		c10.2,0,16.1,5.9,16.1,16.6V457.3z M271.6,457.3c0,4.9,2,6.8,5,6.8c2.8,0,4.8-2,4.8-6.8v-19.5c0-4.9-2-6.8-4.8-6.8
		c-2.9,0-5,2-5,6.8V457.3z"/>
	<path class="st0" d="M322,472.9v-34.7c0-4.9-2-6.8-4.4-6.8c-2.9,0-5.4,2.5-5.4,6.8v34.7H301v-50.8h11.2v3.9l-1,4.4h0.4
		c0,0,3-9.2,10.7-9.2c6.4,0,10.8,4.4,10.8,14.1v37.7H322z"/>
	<path class="st0" d="M365,431.9h-8.3v26.9c0,3.4,1.4,4.8,3.8,4.8c2.5,0,4.4-1,4.4-1v9.9c0,0-2.5,1.4-7.3,1.4
		c-7.4,0-12.3-4.9-12.3-13.7v-28.3h-5.9v-9.8h5.9v-11.7h11.3v11.7h8.3V431.9z"/>
	<path class="st0" d="M383,450.9v6.4c0,4.9,2,6.8,5,6.8c2.8,0,4.8-2,4.8-5.9v-2.9h9.9c0,0,1,2,1,4.9c0,7.8-5.4,13.7-15.6,13.7
		c-10.4,0-16.2-5.9-16.2-16.6v-19.5c0-10.7,5.9-16.6,16.2-16.6c10.2,0,16.1,5.9,16.1,16.6v13.1H383z M383,441.6h9.8v-3.9
		c0-4.9-2-6.8-4.8-6.8c-2.9,0-5,2-5,6.8V441.6z"/>
	<path class="st0" d="M433.4,472.9v-34.7c0-4.9-2-6.8-4.4-6.8c-2.9,0-5.4,2.5-5.4,6.8v34.7h-11.2v-50.8h11.2v3.9l-1,4.4h0.4
		c0,0,3-9.2,10.7-9.2c6.4,0,10.8,4.4,10.8,14.1v37.7H433.4z"/>
	<path class="st0" d="M476.4,431.9h-8.3v26.9c0,3.4,1.4,4.8,3.8,4.8c2.5,0,4.4-1,4.4-1v9.9c0,0-2.5,1.4-7.3,1.4
		c-7.4,0-12.3-4.9-12.3-13.7v-28.3H451v-9.8h5.9v-11.7h11.3v11.7h8.3V431.9z"/>
	<path class="st0" d="M515.4,472.9h-30.7v-68.4h11.7v58.1h19V472.9z"/>
	<path class="st0" d="M530.1,450.9v6.4c0,4.9,2,6.8,5,6.8c2.8,0,4.8-2,4.8-5.9v-2.9h9.9c0,0,1,2,1,4.9c0,7.8-5.4,13.7-15.6,13.7
		c-10.4,0-16.2-5.9-16.2-16.6v-19.5c0-10.7,5.9-16.6,16.2-16.6c10.2,0,16.1,5.9,16.1,16.6v13.1H530.1z M530.1,441.6h9.8v-3.9
		c0-4.9-2-6.8-4.8-6.8c-2.9,0-5,2-5,6.8V441.6z"/>
	<path class="st0" d="M571.2,443.6l6.8-4.4v-2c0-4.4-1.9-6.3-4.4-6.3c-2.4,0-4.4,2-4.4,5.9v3.9h-9.7c0,0-1.1-2.5-1.1-5.4
		c0-8.3,6-14.1,15.2-14.1c9.8,0,15.6,5.9,15.6,16.1v24c0,7.8,2,9.8,2,9.8v2h-10.7c0,0-2-2.9-2-8.3H578c0,0-2.4,9.3-10.7,9.3
		c-5.9,0-9.7-3.9-9.7-11.7C557.6,453.8,561.4,449.8,571.2,443.6z M578,448l-4.8,3.4c-3.5,2.3-5,3.9-5,7.8c0,2.9,1.5,4.4,4.4,4.4
		s5.3-2.4,5.3-6.8V448z"/>
	<path class="st0" d="M630.8,422.1l-8.8,24l9.8,26.8h-11.3l-7.7-22h-3.5v22h-11.2v-71.3h11.2v39.5h3.5l6.8-19H630.8z"/>
	<path class="st0" d="M645.9,450.9v6.4c0,4.9,2,6.8,5,6.8c2.8,0,4.8-2,4.8-5.9v-2.9h9.9c0,0,1,2,1,4.9c0,7.8-5.4,13.7-15.6,13.7
		c-10.4,0-16.2-5.9-16.2-16.6v-19.5c0-10.7,5.9-16.6,16.2-16.6c10.2,0,16.1,5.9,16.1,16.6v13.1H645.9z M645.9,441.6h9.8v-3.9
		c0-4.9-2-6.8-4.8-6.8c-2.9,0-5,2-5,6.8V441.6z"/>
	<path class="st0" d="M674.8,436.8c0-11.2,4.4-15.6,10.7-15.6c7.8,0,10.7,9.2,10.7,9.2h0.4l-1-4.4v-24.4H707v71.3h-11.3V469l1-4.4
		h-0.4c0,0-2.9,9.3-10.7,9.3c-6.3,0-10.7-4.4-10.7-15.6V436.8z M695.8,438.2c0-4.9-2-6.8-4.8-6.8c-2.9,0-5,2-5,6.8v18.6
		c0,4.9,2,6.8,5,6.8c2.8,0,4.8-2,4.8-6.8V438.2z"/>
</g>
<g>
	<g>
		<g>
			<path class="st0" d="M353.5,348.3l-50.6-127.2c25.9-11.1,25.9-70.4,25.9-70.4c-70.3,0-117.3,33.4-124.8,67.9l45.7,23.5
				l-14.8,27.2L353.5,348.3z"/>
			<path class="st0" d="M353.5,348.3l50.6-127.2c-25.9-11.1-25.9-70.4-25.9-70.4c70.3,0,117.3,33.4,124.8,67.9l-45.7,23.5l14.8,27.2
				L353.5,348.3z"/>
		</g>
	</g>
	<g>
		<circle class="st1" cx="301.4" cy="190.8" r="16.8"/>
		<path class="st1" d="M269.3,96.3c0,0,14.6,30.9,2.5,45.5s-31.3,53.5-4.6,86.5c0,0-8.8-29.2,4.6-37.6c0,0-11.3,35.9,12.5,58.9
			c0,0-8.8-31.1,3.5-49.6c0,0-2.3,16.6-0.2,27.9l30.5-28l3.3-96.1L269.3,96.3z"/>
		<path class="st1" d="M431,124.7c0,0-9.6,60.2,10.4,66c0,0-14.2,3.3-22.6-9.6c0,0-5,15.9,11.7,33.8c0,0-33.8,6.3-42.6-17.5
			c-8.8-23.8,0-72.7,0-72.7H431z"/>
	</g>
	<path class="st1" d="M272,71.6l21.2-47.4C299.9,9.5,314.5,0,330.7,0h52.9c19.8,0,36.8,14.1,40.4,33.6l13.5,72.7L272,71.6z"/>
	<path class="st2" d="M353.5,214.9L353.5,214.9c-28.9,0-53.2-35.4-56-64.2l-5.8-59.3h123.5l-5.8,59.3
		C406.7,179.5,382.5,214.9,353.5,214.9z"/>
	<g>
		<g>
			<path class="st1" d="M354.8,350.8c-22.1,0-42.9-8.6-58.5-24.2c-32.3-32.3-32.3-84.8,0-117c15.6-15.6,36.4-24.2,58.5-24.2
				s42.9,8.6,58.5,24.2l0,0l0,0c32.3,32.3,32.3,84.8,0,117C397.6,342.2,376.9,350.8,354.8,350.8z M354.8,210c-15.5,0-30.1,6-41.1,17
				c-22.6,22.6-22.6,59.5,0,82.1c11,11,25.5,17,41.1,17s30.1-6,41.1-17c22.6-22.6,22.6-59.5,0-82.1l0,0
				C384.8,216,370.3,210,354.8,210z"/>
		</g>
		<g>
			<path class="st1" d="M443.7,369.3c-3.2,0-6.3-1.2-8.7-3.6l-39.2-39.2c-4.8-4.8-4.8-12.6,0-17.5c4.8-4.8,12.6-4.8,17.5,0
				l39.2,39.2c4.8,4.8,4.8,12.6,0,17.5C450,368.1,446.9,369.3,443.7,369.3z"/>
		</g>
	</g>
	<path class="st1" d="M220,69.2c-4.8,0-6.8,6.1-2.9,8.9c39.9,29,172.4,114.3,255.1,35.5C523.1,65.1,495.3,69,220,69.2z"/>
</g>
</svg>
