<?xml version="1.0" encoding="utf-8"?>
<!-- Generator: Adobe Illustrator 22.0.0, SVG Export Plug-In . SVG Version: 6.00 Build 0)  -->
<svg version="1.1" xmlns="http://www.w3.org/2000/svg" xmlns:xlink="http://www.w3.org/1999/xlink" x="0px" y="0px"
	 viewBox="0 0 1229 820.4" style="enable-background:new 0 0 1229 820.4;" xml:space="preserve">
<style type="text/css">
	.st0{display:none;}
	.st1{display:inline;}
	.st2{fill:#011151;}
	.st3{fill:#01327F;}
	.st4{fill:#015FC3;}
	.st5{fill:#389AFE;}
</style>
<g id="Layer_1" class="st0">
	<g class="st1">
		<g>
			<g>
				<path class="st2" d="M405.6,340V44.8h104.5V221h45.7V44.8h104.5v468.7c0,28.8-23.4,52.2-52.2,52.2h0
					c-28.8,0-52.2-23.4-52.2-52.2v-201h-45.7V340c0,28.8-23.4,52.2-52.2,52.2h0C429,392.2,405.6,368.8,405.6,340z"/>
				<path class="st2" d="M818.7,318.9l-13.1-84.9h-6.5l6.5,84.9v170.1c0,28.8-23.4,52.2-52.2,52.2h0c-28.8,0-52.2-23.4-52.2-52.2
					V44.8h127l49.3,208.9l6.5,78.3h6.5l6.5-78.3l49.3-208.9h127v331.7c0,28.8-23.4,52.2-52.2,52.2h0c-28.8,0-52.2-23.4-52.2-52.2
					v-57.5l6.5-84.9h-6.5l-13.1,84.9L919.5,476c-3.5,15.1-16.9,25.7-32.3,25.7h0c-15.5,0-28.9-10.7-32.3-25.7L818.7,318.9z"/>
				<path class="st2" d="M1349.2,345.9c0,0,6.5,39.2,6.5,84.9c0,68.3-42.1,111-121.1,111c-87.8,0-127-39.2-127-124V162.3
					c0-84.9,39.2-124,127-124c78.9,0,121.1,42.1,121.1,111c0,39.2-6.5,78.3-6.5,78.3h-91.4v-65.3c0-22.6-10.1-32.6-23.1-32.6
					c-12.5,0-22.6,10.1-22.6,32.6v255.4c0,23.1,10.1,32.6,22.6,32.6c13.1,0,23.1-9.5,23.1-32.6v-71.8H1349.2z"/>
				<path class="st2" d="M1544.4,535.2h-99.5c-33.8,0-61.2-27.4-61.2-61.2V44.8h104.5v399.1h117.5V474
					C1605.6,507.8,1578.2,535.2,1544.4,535.2z"/>
			</g>
		</g>
		<path class="st3" d="M457.1,407.2L457.1,407.2c-28.4,0-51.5,23.1-51.5,51.5v44.5c0,28.4,23.1,51.5,51.5,51.5h0
			c28.4,0,51.5-23.1,51.5-51.5v-44.5C508.6,430.2,485.6,407.2,457.1,407.2z"/>
		<path class="st3" d="M608.7,579.8L608.7,579.8c-28.4,0-51.5,23.1-51.5,51.5v0c0,28.4,23.1,51.5,51.5,51.5h0
			c28.4,0,51.5-23.1,51.5-51.5v0C660.2,602.9,637.2,579.8,608.7,579.8z"/>
		<path class="st4" d="M457.1,565.7L457.1,565.7c-28.4,0-51.5,23.1-51.5,51.5v0c0,28.4,23.1,51.5,51.5,51.5h0
			c28.4,0,51.5-23.1,51.5-51.5v0C508.6,588.7,485.6,565.7,457.1,565.7z"/>
		<path class="st5" d="M457.1,679.4L457.1,679.4c-21.1,0-38.3,17.1-38.3,38.3v0c0,21.1,17.1,38.3,38.3,38.3h0
			c21.1,0,38.3-17.1,38.3-38.3v0C495.4,696.5,478.2,679.4,457.1,679.4z"/>
		<path class="st3" d="M1159.2,547.9L1159.2,547.9c-28.4,0-51.5,23.1-51.5,51.5v0c0,28.4,23.1,51.5,51.5,51.5l0,0
			c28.4,0,51.5-23.1,51.5-51.5v0C1210.7,571,1187.6,547.9,1159.2,547.9z"/>
		<path class="st4" d="M1159.2,661.6L1159.2,661.6c-21.1,0-38.3,17.1-38.3,38.3v0c0,21.1,17.1,38.3,38.3,38.3l0,0
			c21.1,0,38.3-17.1,38.3-38.3v0C1197.5,678.8,1180.3,661.6,1159.2,661.6z"/>
		<path class="st3" d="M1435.1,555.8L1435.1,555.8c-28.4,0-51.5,23.1-51.5,51.5v0c0,28.4,23.1,51.5,51.5,51.5h0
			c28.4,0,51.5-23.1,51.5-51.5v0C1486.6,578.9,1463.6,555.8,1435.1,555.8z"/>
		<path class="st4" d="M1435.1,669.5L1435.1,669.5c-21.1,0-38.3,17.1-38.3,38.3v0c0,21.1,17.1,38.3,38.3,38.3h0
			c21.1,0,38.3-17.1,38.3-38.3v0C1473.4,686.7,1456.3,669.5,1435.1,669.5z"/>
		<path class="st3" d="M1021.8,443.3L1021.8,443.3c-28.4,0-51.5,23.1-51.5,51.5v44.5c0,28.4,23.1,51.5,51.5,51.5h0
			c28.4,0,51.5-23.1,51.5-51.5v-44.5C1073.3,466.4,1050.2,443.3,1021.8,443.3z"/>
		<path class="st4" d="M1021.8,601.8L1021.8,601.8c-28.4,0-51.5,23.1-51.5,51.5v0c0,28.4,23.1,51.5,51.5,51.5h0
			c28.4,0,51.5-23.1,51.5-51.5v0C1073.3,624.9,1050.2,601.8,1021.8,601.8z"/>
		<path class="st5" d="M1021.8,715.5L1021.8,715.5c-21.1,0-38.3,17.1-38.3,38.3v0c0,21.1,17.1,38.3,38.3,38.3h0
			c21.1,0,38.3-17.1,38.3-38.3v0C1060,732.7,1042.9,715.5,1021.8,715.5z"/>
		<path class="st4" d="M608.7,695.9L608.7,695.9c-21.1,0-38.3,17.1-38.3,38.3v0c0,21.1,17.1,38.3,38.3,38.3h0
			c21.1,0,38.3-17.1,38.3-38.3v0C647,713,629.8,695.9,608.7,695.9z"/>
		<path class="st4" d="M753.3,676.6L753.3,676.6c-21.1,0-38.3,17.1-38.3,38.3v0c0,21.1,17.1,38.3,38.3,38.3h0
			c21.1,0,38.3-17.1,38.3-38.3v0C791.5,693.8,774.4,676.6,753.3,676.6z"/>
		<path class="st5" d="M608.7,785.6L608.7,785.6c-14.8,0-26.9,12-26.9,26.9l0,0c0,14.8,12,26.9,26.9,26.9h0
			c14.8,0,26.9-12,26.9-26.9l0,0C635.6,797.7,623.5,785.6,608.7,785.6z"/>
		<path class="st5" d="M1435.1,759.3L1435.1,759.3c-14.8,0-26.9,12-26.9,26.9l0,0c0,14.8,12,26.9,26.9,26.9l0,0
			c14.8,0,26.9-12,26.9-26.9l0,0C1462,771.3,1450,759.3,1435.1,759.3z"/>
		<path class="st3" d="M1317.5,545.4L1317.5,545.4c-21.1,0-38.3,17.1-38.3,38.3v0c0,21.1,17.1,38.3,38.3,38.3h0
			c21.1,0,38.3-17.1,38.3-38.3v0C1355.8,562.5,1338.6,545.4,1317.5,545.4z"/>
		<path class="st4" d="M1317.5,635.2L1317.5,635.2c-14.8,0-26.9,12-26.9,26.9l0,0c0,14.8,12,26.9,26.9,26.9h0
			c14.8,0,26.9-12,26.9-26.9l0,0C1344.3,647.2,1332.3,635.2,1317.5,635.2z"/>
		<path class="st3" d="M887.2,520.1L887.2,520.1c-18.1,0-32.8,14.7-32.8,32.8v0c0,18.1,14.7,32.8,32.8,32.8h0
			c18.1,0,32.8-14.7,32.8-32.8v0C920,534.8,905.3,520.1,887.2,520.1z"/>
		<path class="st4" d="M887.2,597L887.2,597c-12.7,0-23,10.3-23,23v0c0,12.7,10.3,23,23,23h0c12.7,0,23-10.3,23-23v0
			C910.2,607.3,899.9,597,887.2,597z"/>
		<path class="st3" d="M753.3,556.8L753.3,556.8c-28.8,0-52.1,23.3-52.1,52.1v0c0,28.8,23.3,52.1,52.1,52.1h0
			c28.8,0,52.1-23.3,52.1-52.1v0C805.4,580.2,782.1,556.8,753.3,556.8z"/>
	</g>
</g>
<g id="Layer_2">
	<rect class="st2" width="1229" height="820.4"/>
	<g>
		<g>
			<path class="st5" d="M14.4,311.4V16.1h104.5v176.3h45.7V16.1H269v468.7c0,28.8-23.4,52.2-52.2,52.2h0
				c-28.8,0-52.2-23.4-52.2-52.2v-201h-45.7v27.6c0,28.8-23.4,52.2-52.2,52.2h0C37.8,363.6,14.4,340.2,14.4,311.4z"/>
			<path class="st5" d="M427.5,290.3l-13.1-84.9h-6.5l6.5,84.9v170.1c0,28.8-23.4,52.2-52.2,52.2h0c-28.8,0-52.2-23.4-52.2-52.2
				V16.1h127l49.3,208.9l6.5,78.3h6.5l6.5-78.3l49.3-208.9h127v331.7c0,28.8-23.4,52.2-52.2,52.2h0c-28.8,0-52.2-23.4-52.2-52.2
				v-57.5l6.5-84.9h-6.5l-13.1,84.9l-36.2,157.1c-3.5,15.1-16.9,25.7-32.3,25.7h0c-15.5,0-28.9-10.7-32.3-25.7L427.5,290.3z"/>
			<path class="st5" d="M958,317.3c0,0,6.5,39.2,6.5,84.9c0,68.3-42.1,111-121.1,111c-87.8,0-127-39.2-127-124V133.7
				c0-84.9,39.2-124,127-124c78.9,0,121.1,42.1,121.1,111c0,39.2-6.5,78.3-6.5,78.3h-91.4v-65.3c0-22.6-10.1-32.6-23.1-32.6
				c-12.5,0-22.6,10.1-22.6,32.6v255.4c0,23.1,10.1,32.6,22.6,32.6c13.1,0,23.1-9.5,23.1-32.6v-71.8H958z"/>
			<path class="st5" d="M1153.2,506.6h-99.5c-33.8,0-61.2-27.4-61.2-61.2V16.1h104.5v399.1h117.5v30.2
				C1214.4,479.2,1187,506.6,1153.2,506.6z"/>
		</g>
	</g>
	<path class="st5" d="M65.9,378.6L65.9,378.6c-28.4,0-51.5,23.1-51.5,51.5v44.5c0,28.4,23.1,51.5,51.5,51.5h0
		c28.4,0,51.5-23.1,51.5-51.5v-44.5C117.4,401.6,94.4,378.6,65.9,378.6z"/>
	<path class="st5" d="M217.5,551.2L217.5,551.2c-28.4,0-51.5,23.1-51.5,51.5v0c0,28.4,23.1,51.5,51.5,51.5h0
		c28.4,0,51.5-23.1,51.5-51.5v0C269,574.3,245.9,551.2,217.5,551.2z"/>
	<path class="st4" d="M65.9,537L65.9,537c-28.4,0-51.5,23.1-51.5,51.5v0c0,28.4,23.1,51.5,51.5,51.5h0c28.4,0,51.5-23.1,51.5-51.5v0
		C117.4,560.1,94.4,537,65.9,537z"/>
	<path class="st3" d="M65.9,650.7L65.9,650.7c-21.1,0-38.3,17.1-38.3,38.3v0c0,21.1,17.1,38.3,38.3,38.3h0
		c21.1,0,38.3-17.1,38.3-38.3v0C104.2,667.9,87,650.7,65.9,650.7z"/>
	<path class="st5" d="M768,519.3L768,519.3c-28.4,0-51.5,23.1-51.5,51.5v0c0,28.4,23.1,51.5,51.5,51.5h0c28.4,0,51.5-23.1,51.5-51.5
		v0C819.5,542.4,796.4,519.3,768,519.3z"/>
	<path class="st3" d="M768,633L768,633c-21.1,0-38.3,17.1-38.3,38.3v0c0,21.1,17.1,38.3,38.3,38.3h0c21.1,0,38.3-17.1,38.3-38.3v0
		C806.3,650.2,789.1,633,768,633z"/>
	<path class="st5" d="M1043.9,527.2L1043.9,527.2c-28.4,0-51.5,23.1-51.5,51.5v0c0,28.4,23.1,51.5,51.5,51.5h0
		c28.4,0,51.5-23.1,51.5-51.5v0C1095.4,550.3,1072.4,527.2,1043.9,527.2z"/>
	<path class="st4" d="M1043.9,640.9L1043.9,640.9c-21.1,0-38.3,17.1-38.3,38.3v0c0,21.1,17.1,38.3,38.3,38.3l0,0
		c21.1,0,38.3-17.1,38.3-38.3v0C1082.2,658.1,1065.1,640.9,1043.9,640.9z"/>
	<path class="st5" d="M630.6,414.7L630.6,414.7c-28.4,0-51.5,23.1-51.5,51.5v44.5c0,28.4,23.1,51.5,51.5,51.5h0
		c28.4,0,51.5-23.1,51.5-51.5v-44.5C682.1,437.8,659,414.7,630.6,414.7z"/>
	<path class="st4" d="M630.6,573.2L630.6,573.2c-28.4,0-51.5,23.1-51.5,51.5v0c0,28.4,23.1,51.5,51.5,51.5h0
		c28.4,0,51.5-23.1,51.5-51.5v0C682.1,596.3,659,573.2,630.6,573.2z"/>
	<path class="st3" d="M630.6,686.9L630.6,686.9c-21.1,0-38.3,17.1-38.3,38.3v0c0,21.1,17.1,38.3,38.3,38.3h0
		c21.1,0,38.3-17.1,38.3-38.3v0C668.8,704.1,651.7,686.9,630.6,686.9z"/>
	<path class="st4" d="M217.5,667.2L217.5,667.2c-21.1,0-38.3,17.1-38.3,38.3v0c0,21.1,17.1,38.3,38.3,38.3h0
		c21.1,0,38.3-17.1,38.3-38.3v0C255.8,684.4,238.6,667.2,217.5,667.2z"/>
	<path class="st3" d="M362.1,648L362.1,648c-21.1,0-38.3,17.1-38.3,38.3v0c0,21.1,17.1,38.3,38.3,38.3h0c21.1,0,38.3-17.1,38.3-38.3
		v0C400.3,665.2,383.2,648,362.1,648z"/>
	<path class="st3" d="M217.5,757L217.5,757c-14.8,0-26.9,12-26.9,26.9v0c0,14.8,12,26.9,26.9,26.9h0c14.8,0,26.9-12,26.9-26.9v0
		C244.4,769.1,232.3,757,217.5,757z"/>
	<path class="st3" d="M1043.9,730.7L1043.9,730.7c-14.8,0-26.9,12-26.9,26.9v0c0,14.8,12,26.9,26.9,26.9l0,0
		c14.8,0,26.9-12,26.9-26.9v0C1070.8,742.7,1058.8,730.7,1043.9,730.7z"/>
	<path class="st5" d="M926.3,516.8L926.3,516.8c-21.1,0-38.3,17.1-38.3,38.3v0c0,21.1,17.1,38.3,38.3,38.3h0
		c21.1,0,38.3-17.1,38.3-38.3v0C964.5,533.9,947.4,516.8,926.3,516.8z"/>
	<path class="st3" d="M926.3,606.6L926.3,606.6c-14.8,0-26.9,12-26.9,26.9v0c0,14.8,12,26.9,26.9,26.9l0,0c14.8,0,26.9-12,26.9-26.9
		v0C953.1,618.6,941.1,606.6,926.3,606.6z"/>
	<path class="st5" d="M496,491.5L496,491.5c-18.1,0-32.8,14.7-32.8,32.8v0c0,18.1,14.7,32.8,32.8,32.8h0c18.1,0,32.8-14.7,32.8-32.8
		v0C528.8,506.2,514.1,491.5,496,491.5z"/>
	<path class="st3" d="M496,568.4L496,568.4c-12.7,0-23,10.3-23,23v0c0,12.7,10.3,23,23,23h0c12.7,0,23-10.3,23-23v0
		C519,578.7,508.7,568.4,496,568.4z"/>
	<path class="st5" d="M362.1,528.2L362.1,528.2c-28.8,0-52.1,23.3-52.1,52.1v0c0,28.8,23.3,52.1,52.1,52.1h0
		c28.8,0,52.1-23.3,52.1-52.1v0C414.2,551.6,390.9,528.2,362.1,528.2z"/>
</g>
</svg>
