<?xml version="1.0" encoding="utf-8"?>
<!-- Generator: Adobe Illustrator 22.0.0, SVG Export Plug-In . SVG Version: 6.00 Build 0)  -->
<svg version="1.1" id="Layer_1" xmlns="http://www.w3.org/2000/svg" xmlns:xlink="http://www.w3.org/1999/xlink" x="0px" y="0px"
	 viewBox="0 0 5000 3289.5" style="enable-background:new 0 0 5000 3289.5;" xml:space="preserve">
<style type="text/css">
	.st0{fill:#FDDCFF;}
	.st1{opacity:0.4;}
	.st2{fill:#FE59FE;}
	.st3{fill:#FE9FFE;}
	.st4{fill:#FEC7FE;}
	.st5{fill:#980FFE;}
	.st6{fill:#222222;}
	.st7{fill:#FFFFFF;}
</style>
<rect class="st0" width="5000" height="3289.5"/>
<g>
	<g class="st1">
		<path class="st2" d="M1791.3,3086v80.2c0,391.4,317.3,708.7,708.7,708.7h0c391.4,0,708.7-317.3,708.7-708.7V3086L2500,2377.3
			L1791.3,3086z"/>
		<path class="st2" d="M5000,1374.9L5000,1374.9c0-391.4-317.3-708.8-708.7-708.8h-80.2l-708.7,708.8l708.7,708.8h80.2
			C4682.7,2083.7,5000,1766.4,5000,1374.9z"/>
		<path class="st2" d="M788.9,666.2h-80.2C317.3,666.2,0,983.5,0,1374.9v0c0,391.4,317.3,708.7,708.7,708.7h80.2l708.7-708.8
			L788.9,666.2z"/>
		<path class="st3" d="M3208.8,3086l56.7,56.7c276.8,276.8,725.5,276.8,1002.3,0l0,0c276.8-276.8,276.8-725.5,0-1002.3l-56.7-56.7
			H3208.8V3086z"/>
		<polygon class="st0" points="788.9,666.2 1497.7,1374.9 2206.4,666.2 		"/>
		<path class="st3" d="M788.9,2083.7l-56.7,56.7c-276.8,276.8-276.8,725.5,0,1002.3l0,0c276.8,276.8,725.5,276.8,1002.3,0l56.7-56.7
			V2083.7H788.9z"/>
		<g>
			<polygon class="st4" points="3502.3,1374.9 2793.6,2083.7 2500,2377.3 3208.8,3086 3208.8,2083.7 4211.1,2083.7 			"/>
			<polygon class="st4" points="1497.7,1374.9 788.9,2083.7 1791.3,2083.7 1791.3,3086 2500,2377.3 2206.4,2083.7 			"/>
		</g>
		<polygon class="st0" points="3502.3,1374.9 4211.1,666.2 2793.6,666.2 		"/>
		<path class="st5" d="M4267.8-392.8L4267.8-392.8c-276.8-276.8-725.5-276.8-1002.3,0L2500,372.6l-765.4-765.4
			c-276.8-276.8-725.5-276.8-1002.3,0l0,0c-276.8,276.8-276.8,725.5,0,1002.3l56.7,56.7h1417.5h587.1h1417.5l56.7-56.7
			C4544.6,332.7,4544.6-116,4267.8-392.8z"/>
		<polygon class="st0" points="2500,2377.3 2793.6,2083.7 2206.4,2083.7 		"/>
		<polygon class="st0" points="2206.4,666.2 1497.7,1374.9 2206.4,2083.7 2793.6,2083.7 3502.3,1374.9 2793.6,666.2 		"/>
	</g>
	<g>
		<path class="st2" d="M2244.9,2158.8v28.9c0,140.9,114.2,255.1,255.1,255.1h0c140.9,0,255.1-114.2,255.1-255.1v-28.9L2500,1903.7
			L2244.9,2158.8z"/>
		<path class="st2" d="M3400,1542.8L3400,1542.8c0-140.9-114.2-255.2-255.1-255.2H3116l-255.1,255.1L3116,1798h28.9
			C3285.8,1798,3400,1683.7,3400,1542.8z"/>
		<path class="st2" d="M1884,1287.7h-28.9c-140.9,0-255.1,114.2-255.1,255.1v0c0,140.9,114.2,255.1,255.1,255.1h28.9l255.1-255.2
			L1884,1287.7z"/>
		<path class="st3" d="M2755.1,2158.8l20.4,20.4c99.6,99.6,261.2,99.6,360.8,0l0,0c99.6-99.6,99.6-261.2,0-360.8L3116,1798h-360.8
			V2158.8z"/>
		<polygon class="st0" points="1884,1287.7 2139.2,1542.8 2394.3,1287.7 		"/>
		<path class="st3" d="M1884,1798l-20.4,20.4c-99.6,99.6-99.6,261.2,0,360.8l0,0c99.6,99.6,261.2,99.6,360.8,0l20.4-20.4V1798H1884z
			"/>
		<g>
			<polygon class="st4" points="2860.8,1542.8 2605.7,1798 2500,1903.7 2755.1,2158.8 2755.1,1798 3116,1798 			"/>
			<polygon class="st4" points="2139.2,1542.8 1884,1798 2244.9,1798 2244.9,2158.8 2500,1903.7 2394.3,1798 			"/>
		</g>
		<polygon class="st0" points="2860.8,1542.8 3116,1287.7 2605.7,1287.7 		"/>
		<path class="st5" d="M3136.4,906.4L3136.4,906.4c-99.6-99.6-261.2-99.6-360.8,0L2500,1182l-275.6-275.6
			c-99.6-99.6-261.2-99.6-360.8,0l0,0c-99.6,99.6-99.6,261.2,0,360.8l20.4,20.4h510.3h211.4H3116l20.4-20.4
			C3236,1167.6,3236,1006.1,3136.4,906.4z"/>
		<polygon class="st0" points="2500,1903.7 2605.7,1798 2394.3,1798 		"/>
		<polygon class="st0" points="2394.3,1287.7 2139.2,1542.8 2394.3,1798 2605.7,1798 2860.8,1542.8 2605.7,1287.7 		"/>
	</g>
	<g>
		<g>
			<g>
				<path class="st6" d="M1752.4,1606.1v-214.9h36.8v87.3h36.6v-87.3h37.1v214.9h-37.1V1511h-36.6v95.2H1752.4z"/>
				<path class="st6" d="M1930.4,1514l21.2-14v-6.1c0-13.7-5.9-19.8-13.7-19.8c-7.5,0-14,6.1-14,18.4v12.3h-30.4c0,0-3.3-7.8-3.3-17
					c0-26,18.7-44.4,47.7-44.4c30.7,0,49.1,18.4,49.1,50.5v75.3c0,24.6,6.1,30.7,6.1,30.7v6.1h-33.8c0,0-6.1-9.2-6.1-26.2h-1.7
					c0,0-7.5,29.3-33.8,29.3c-18.4,0-30.4-12.3-30.4-36.8C1887.4,1546.1,1899.4,1533.6,1930.4,1514z M1951.6,1528l-15.1,10.6
					c-10.9,7.3-15.6,12.3-15.6,24.6c0,9.2,4.7,13.7,14,13.7c9.2,0,16.7-7.5,16.7-21.5V1528z"/>
				<path class="st6" d="M2107.1,1560.1v3.1c0,29-17,46-49.1,46c-32.4,0-49.1-17-49.1-43c0-9.2,2.8-17,2.8-17h30.7v12.6
					c0,10.6,6.1,16.7,15.6,16.7c7.5,0,13.7-6.1,13.7-15.3v-3.1c0-21.5-62.8-27.6-62.8-70.6c0-29,16.7-46,49.7-46
					c28.5,0,45.5,17,45.5,43c0,9.2-3.1,15.3-3.1,15.3h-29.3v-10.9c0-10.6-6.1-16.7-13.7-16.7c-7.8,0-14,6.1-14,15.3
					C2044,1511,2107.1,1517.1,2107.1,1560.1z"/>
				<path class="st6" d="M2200.5,1606.1l-26-107.4l-6.1-30.7h-1.7l1.7,30.7v107.4h-36.8v-214.9h47.4l29,119.7l3.1,30.7h1.7l3.1-30.7
					l29.3-119.7h47.4v214.9h-36.8v-107.4l1.7-30.7h-1.7l-6.1,30.7l-26,107.4H2200.5z"/>
				<path class="st6" d="M2353.8,1615.3l-43-168.8h35.4l20.1,95.2l3.1,27.6h1.4l3.1-27.6l12.3-95.2h35.4l-34,168.8
					c-7.8,39.9-22.9,55.3-44.4,55.3c-12.3,0-21.5-4.5-21.5-4.5V1636c0,0,6.1,2.5,12.3,2.5
					C2343.1,1638.5,2349.3,1632.4,2353.8,1615.3z"/>
				<path class="st6" d="M2544.4,1518.8c0,0,3.1,18.1,3.1,36.6c0,35.4-18.4,53.9-53.6,53.9c-36.8,0-55.3-18.4-55.3-58.3v-104.4
					c0-39.9,18.4-58.3,55.3-58.3c33.8,0,53.6,19.8,53.6,53.9c0,16.7-3.1,33.5-3.1,33.5H2512v-29c0-19.8-6.1-26-18.1-26
					c-12.3,0-18.4,6.1-18.4,26v104.4c0,19.8,6.1,26,18.4,26c12,0,18.1-6.1,18.1-26v-32.1H2544.4z"/>
				<path class="st6" d="M2671.9,1557c0,33.8-18.4,52.2-50.5,52.2c-32.4,0-50.8-18.4-50.8-52.2v-61.4c0-33.8,18.4-52.2,50.8-52.2
					c32.1,0,50.5,18.4,50.5,52.2V1557z M2605.8,1557c0,15.3,6.4,21.5,15.6,21.5c8.9,0,15.1-6.1,15.1-21.5v-61.4
					c0-15.3-6.1-21.5-15.1-21.5c-9.2,0-15.6,6.1-15.6,21.5V1557z"/>
				<path class="st6" d="M2764,1606.1V1497c0-15.3-6.1-21.5-13.7-21.5c-9.2,0-17,7.8-17,21.5v109.1h-35.2v-159.6h35.2v12.3
					l-3.1,13.7h1.4c0,0,9.5-29,33.8-29c20.1,0,34,14,34,44.4v118.3H2764z"/>
				<path class="st6" d="M2899,1477.2h-26v84.6c0,10.6,4.5,15.1,12,15.1c7.8,0,14-3.1,14-3.1v31c0,0-7.8,4.5-22.9,4.5
					c-23.2,0-38.5-15.3-38.5-43v-89h-18.4v-30.7h18.4v-36.8h35.4v36.8h26V1477.2z"/>
				<path class="st6" d="M2955.7,1536.9v20.1c0,15.3,6.4,21.5,15.6,21.5c8.9,0,15.1-6.1,15.1-18.4v-9.2h31c0,0,3.1,6.1,3.1,15.3
					c0,24.6-17,43-49.1,43c-32.7,0-50.8-18.4-50.8-52.2v-61.4c0-33.8,18.4-52.2,50.8-52.2c32.1,0,50.5,18.4,50.5,52.2v41.3H2955.7z
					 M2955.7,1507.9h30.7v-12.3c0-15.3-6.1-21.5-15.1-21.5c-9.2,0-15.6,6.1-15.6,21.5V1507.9z"/>
				<path class="st6" d="M3113.9,1606.1V1497c0-15.3-6.1-21.5-13.7-21.5c-9.2,0-17,7.8-17,21.5v109.1h-35.2v-159.6h35.2v12.3
					l-3.1,13.7h1.4c0,0,9.5-29,33.8-29c20.1,0,34,14,34,44.4v118.3H3113.9z"/>
				<path class="st6" d="M3249,1477.2h-26v84.6c0,10.6,4.5,15.1,12,15.1c7.8,0,14-3.1,14-3.1v31c0,0-7.8,4.5-22.9,4.5
					c-23.2,0-38.5-15.3-38.5-43v-89h-18.4v-30.7h18.4v-36.8h35.4v36.8h26V1477.2z"/>
			</g>
			<g>
				<path class="st6" d="M2227.6,1859H2131v-214.9h36.8v182.5h59.7V1859z"/>
				<path class="st6" d="M2273.7,1789.8v20.1c0,15.3,6.4,21.5,15.6,21.5c8.9,0,15.1-6.1,15.1-18.4v-9.2h31c0,0,3.1,6.1,3.1,15.3
					c0,24.6-17,43-49.1,43c-32.7,0-50.8-18.4-50.8-52.2v-61.4c0-33.8,18.4-52.2,50.8-52.2c32.1,0,50.5,18.4,50.5,52.2v41.3H2273.7z
					 M2273.7,1760.8h30.7v-12.3c0-15.3-6.1-21.5-15.1-21.5c-9.2,0-15.6,6.1-15.6,21.5V1760.8z"/>
				<path class="st6" d="M2402.9,1766.9l21.2-14v-6.1c0-13.7-5.9-19.8-13.7-19.8c-7.5,0-14,6.1-14,18.4v12.3H2366
					c0,0-3.3-7.8-3.3-17c0-26,18.7-44.4,47.7-44.4c30.7,0,49.1,18.4,49.1,50.5v75.3c0,24.6,6.1,30.7,6.1,30.7v6.1h-33.8
					c0,0-6.1-9.2-6.1-26.2h-1.7c0,0-7.5,29.3-33.8,29.3c-18.4,0-30.4-12.3-30.4-36.8C2359.9,1799,2371.9,1786.4,2402.9,1766.9z
					 M2424.1,1780.9l-15.1,10.6c-10.9,7.3-15.6,12.3-15.6,24.6c0,9.2,4.7,13.7,14,13.7c9.2,0,16.7-7.5,16.7-21.5V1780.9z"/>
				<path class="st6" d="M2590.1,1699.4l-27.6,75.3l30.7,84.3h-35.4l-24.3-69.2h-10.9v69.2h-35.2v-224.1h35.2v124.2h10.9l21.2-59.7
					H2590.1z"/>
				<path class="st6" d="M2637.6,1789.8v20.1c0,15.3,6.4,21.5,15.6,21.5c8.9,0,15.1-6.1,15.1-18.4v-9.2h31c0,0,3.1,6.1,3.1,15.3
					c0,24.6-17,43-49.1,43c-32.7,0-50.8-18.4-50.8-52.2v-61.4c0-33.8,18.4-52.2,50.8-52.2c32.1,0,50.5,18.4,50.5,52.2v41.3H2637.6z
					 M2637.6,1760.8h30.7v-12.3c0-15.3-6.1-21.5-15.1-21.5c-9.2,0-15.6,6.1-15.6,21.5V1760.8z"/>
				<path class="st6" d="M2728.3,1745.4c0-35.2,14-49.1,33.8-49.1c24.6,0,33.8,29,33.8,29h1.4l-3.1-13.7v-76.7h35.4V1859h-35.4
					v-12.3l3.1-14h-1.4c0,0-9.2,29.3-33.8,29.3c-19.8,0-33.8-13.7-33.8-49.1V1745.4z M2794.1,1749.9c0-15.3-6.1-21.5-15.1-21.5
					c-9.2,0-15.6,6.1-15.6,21.5v58.3c0,15.3,6.4,21.5,15.6,21.5c8.9,0,15.1-6.1,15.1-21.5V1749.9z"/>
			</g>
		</g>
	</g>
	<g>
		<g>
			<g>
				<path class="st2" d="M2500,1026.6l-47.9-120.3c24.5-10.5,24.5-66.6,24.5-66.6c-66.4,0-110.9,31.5-117.9,64.2l43.2,22.2l-14,25.7
					L2500,1026.6z"/>
				<path class="st2" d="M2500,1026.6l47.9-120.3c-24.5-10.5-24.5-66.6-24.5-66.6c66.4,0,110.9,31.5,117.9,64.2l-43.2,22.2l14,25.7
					L2500,1026.6z"/>
			</g>
		</g>
		<g>
			<circle class="st6" cx="2450.7" cy="877.6" r="15.9"/>
			<path class="st6" d="M2420.4,788.3c0,0,13.8,29.2,2.4,43.1c-11.5,13.8-29.6,50.6-4.3,81.8c0,0-8.3-27.6,4.3-35.5
				c0,0-10.7,34,11.8,55.7c0,0-8.3-29.4,3.4-46.9c0,0-2.2,15.7-0.2,26.3l28.8-26.5l3.2-90.8L2420.4,788.3z"/>
			<path class="st6" d="M2573.2,815.1c0,0-9.1,56.9,9.9,62.4c0,0-13.4,3.2-21.3-9.1c0,0-4.7,15,11.1,32c0,0-32,5.9-40.3-16.6
				c-8.3-22.5,0-68.7,0-68.7H2573.2z"/>
		</g>
		<path class="st6" d="M2422.9,765l20.1-44.8c6.3-14,20.1-22.9,35.4-22.9h50c18.7,0,34.7,13.3,38.2,31.7l12.8,68.7L2422.9,765z"/>
		<path class="st7" d="M2500,900.4L2500,900.4c-27.4,0-50.3-33.5-52.9-60.7l-5.5-56.1h116.8l-5.5,56.1
			C2550.3,867,2527.4,900.4,2500,900.4z"/>
		<g>
			<g>
				<path class="st6" d="M2501.2,1028.9c-20.9,0-40.5-8.1-55.3-22.9c-30.5-30.5-30.5-80.1,0-110.6c14.8-14.8,34.4-22.9,55.3-22.9
					s40.5,8.1,55.3,22.9l0,0l0,0c30.5,30.5,30.5,80.1,0,110.6C2541.7,1020.7,2522.1,1028.9,2501.2,1028.9z M2501.2,895.8
					c-14.7,0-28.4,5.7-38.8,16.1c-21.4,21.4-21.4,56.2,0,77.6c10.4,10.4,24.1,16.1,38.8,16.1c14.7,0,28.4-5.7,38.8-16.1
					c21.4-21.4,21.4-56.2,0-77.6l0,0C2529.6,901.5,2515.8,895.8,2501.2,895.8z"/>
			</g>
			<g>
				<path class="st6" d="M2585.2,1046.4c-3,0-6-1.1-8.3-3.4l-37-37c-4.6-4.6-4.6-12,0-16.5c4.6-4.6,12-4.6,16.5,0l37,37
					c4.6,4.6,4.6,12,0,16.5C2591.2,1045.3,2588.2,1046.4,2585.2,1046.4z"/>
			</g>
		</g>
		<path class="st6" d="M2373.7,762.6c-4.5,0-6.4,5.8-2.8,8.4c37.7,27.4,163,108,241.1,33.6C2660.3,758.8,2634.1,762.5,2373.7,762.6z
			"/>
	</g>
</g>
</svg>
