<?xml version="1.0" encoding="utf-8"?>
<!-- Generator: Adobe Illustrator 22.0.0, SVG Export Plug-In . SVG Version: 6.00 Build 0)  -->
<svg version="1.1" xmlns="http://www.w3.org/2000/svg" xmlns:xlink="http://www.w3.org/1999/xlink" x="0px" y="0px"
	 viewBox="0 0 1608.4 278.2" style="enable-background:new 0 0 1608.4 278.2;" xml:space="preserve">
<style type="text/css">
	.st0{display:none;}
	.st1{display:inline;}
	.st2{fill:#011151;}
	.st3{fill:#01327F;}
	.st4{fill:#015FC3;}
	.st5{fill:#389AFE;}
</style>
<g id="Layer_1" class="st0">
	<g class="st1">
		<g>
			<g>
				<path class="st2" d="M265.2,605.8V310.6h104.5v176.3h45.7V310.6h104.5v468.7c0,28.8-23.4,52.2-52.2,52.2h0
					c-28.8,0-52.2-23.4-52.2-52.2v-201h-45.7v27.6c0,28.8-23.4,52.2-52.2,52.2h0C288.6,658,265.2,634.6,265.2,605.8z"/>
				<path class="st2" d="M678.3,584.8l-13.1-84.9h-6.5l6.5,84.9v170.1c0,28.8-23.4,52.2-52.2,52.2h0c-28.8,0-52.2-23.4-52.2-52.2
					V310.6h127L737,519.5l6.5,78.3h6.5l6.5-78.3l49.3-208.9h127v331.7c0,28.8-23.4,52.2-52.2,52.2h0c-28.8,0-52.2-23.4-52.2-52.2
					v-57.5l6.5-84.9h-6.5l-13.1,84.9l-36.2,157.1c-3.5,15.1-16.9,25.7-32.3,25.7h0c-15.5,0-28.9-10.7-32.3-25.7L678.3,584.8z"/>
				<path class="st2" d="M1208.8,611.7c0,0,6.5,39.2,6.5,84.9c0,68.3-42.1,111-121.1,111c-87.8,0-127-39.2-127-124V428.1
					c0-84.9,39.2-124,127-124c78.9,0,121.1,42.1,121.1,111c0,39.2-6.5,78.3-6.5,78.3h-91.4v-65.3c0-22.6-10.1-32.6-23.1-32.6
					c-12.5,0-22.6,10.1-22.6,32.6v255.4c0,23.1,10.1,32.6,22.6,32.6c13.1,0,23.1-9.5,23.1-32.6v-71.8H1208.8z"/>
				<path class="st2" d="M1404,801h-99.5c-33.8,0-61.2-27.4-61.2-61.2V310.6h104.5v399.1h117.5v30.2
					C1465.2,773.6,1437.8,801,1404,801z"/>
			</g>
		</g>
		<path class="st3" d="M316.7,673L316.7,673c-28.4,0-51.5,23.1-51.5,51.5V769c0,28.4,23.1,51.5,51.5,51.5h0
			c28.4,0,51.5-23.1,51.5-51.5l0-44.5C368.2,696,345.2,673,316.7,673z"/>
		<path class="st3" d="M468.3,845.7L468.3,845.7c-28.4,0-51.5,23.1-51.5,51.5v0c0,28.4,23.1,51.5,51.5,51.5h0
			c28.4,0,51.5-23.1,51.5-51.5v0C519.8,868.7,496.8,845.7,468.3,845.7z"/>
		<path class="st4" d="M316.7,831.5L316.7,831.5c-28.4,0-51.5,23.1-51.5,51.5v0c0,28.4,23.1,51.5,51.5,51.5h0
			c28.4,0,51.5-23.1,51.5-51.5v0C368.2,854.5,345.2,831.5,316.7,831.5z"/>
		<path class="st5" d="M316.7,945.2L316.7,945.2c-21.1,0-38.3,17.1-38.3,38.3v0c0,21.1,17.1,38.3,38.3,38.3h0
			c21.1,0,38.3-17.1,38.3-38.3v0C355,962.3,337.9,945.2,316.7,945.2z"/>
		<path class="st3" d="M1018.8,813.8L1018.8,813.8c-28.4,0-51.5,23.1-51.5,51.5v0c0,28.4,23.1,51.5,51.5,51.5h0
			c28.4,0,51.5-23.1,51.5-51.5v0C1070.3,836.8,1047.2,813.8,1018.8,813.8z"/>
		<path class="st4" d="M1018.8,927.5L1018.8,927.5c-21.1,0-38.3,17.1-38.3,38.3v0c0,21.1,17.1,38.3,38.3,38.3h0
			c21.1,0,38.3-17.1,38.3-38.3v0C1057.1,944.6,1039.9,927.5,1018.8,927.5z"/>
		<path class="st3" d="M1294.7,821.6L1294.7,821.6c-28.4,0-51.5,23.1-51.5,51.5v0c0,28.4,23.1,51.5,51.5,51.5h0
			c28.4,0,51.5-23.1,51.5-51.5v0C1346.2,844.7,1323.2,821.6,1294.7,821.6z"/>
		<path class="st4" d="M1294.7,935.3L1294.7,935.3c-21.1,0-38.3,17.1-38.3,38.3v0c0,21.1,17.1,38.3,38.3,38.3h0
			c21.1,0,38.3-17.1,38.3-38.3v0C1333,952.5,1315.9,935.3,1294.7,935.3z"/>
		<path class="st3" d="M881.4,709.1L881.4,709.1c-28.4,0-51.5,23.1-51.5,51.5v44.5c0,28.4,23.1,51.5,51.5,51.5h0
			c28.4,0,51.5-23.1,51.5-51.5v-44.5C932.9,732.2,909.8,709.1,881.4,709.1z"/>
		<path class="st4" d="M881.4,867.6L881.4,867.6c-28.4,0-51.5,23.1-51.5,51.5v0c0,28.4,23.1,51.5,51.5,51.5h0
			c28.4,0,51.5-23.1,51.5-51.5v0C932.9,890.7,909.8,867.6,881.4,867.6z"/>
		<path class="st5" d="M881.4,981.3L881.4,981.3c-21.1,0-38.3,17.1-38.3,38.3v0c0,21.1,17.1,38.3,38.3,38.3h0
			c21.1,0,38.3-17.1,38.3-38.3v0C919.6,998.5,902.5,981.3,881.4,981.3z"/>
		<path class="st4" d="M468.3,961.7L468.3,961.7c-21.1,0-38.3,17.1-38.3,38.3v0c0,21.1,17.1,38.3,38.3,38.3h0
			c21.1,0,38.3-17.1,38.3-38.3v0C506.6,978.8,489.4,961.7,468.3,961.7z"/>
		<path class="st4" d="M612.9,942.4L612.9,942.4c-21.1,0-38.3,17.1-38.3,38.3v0c0,21.1,17.1,38.3,38.3,38.3h0
			c21.1,0,38.3-17.1,38.3-38.3v0C651.2,959.6,634,942.4,612.9,942.4z"/>
		<path class="st5" d="M468.3,1051.5L468.3,1051.5c-14.8,0-26.9,12-26.9,26.9v0c0,14.8,12,26.9,26.9,26.9h0
			c14.8,0,26.9-12,26.9-26.9v0C495.2,1063.5,483.1,1051.5,468.3,1051.5z"/>
		<path class="st5" d="M1294.7,1025.1L1294.7,1025.1c-14.8,0-26.9,12-26.9,26.9v0c0,14.8,12,26.9,26.9,26.9h0
			c14.8,0,26.9-12,26.9-26.9v0C1321.6,1037.1,1309.6,1025.1,1294.7,1025.1z"/>
		<path class="st3" d="M1177.1,811.2L1177.1,811.2c-21.1,0-38.3,17.1-38.3,38.3v0c0,21.1,17.1,38.3,38.3,38.3h0
			c21.1,0,38.3-17.1,38.3-38.3v0C1215.4,828.4,1198.2,811.2,1177.1,811.2z"/>
		<path class="st4" d="M1177.1,901L1177.1,901c-14.8,0-26.9,12-26.9,26.9v0c0,14.8,12,26.9,26.9,26.9h0c14.8,0,26.9-12,26.9-26.9v0
			C1203.9,913,1191.9,901,1177.1,901z"/>
		<path class="st3" d="M746.8,785.9L746.8,785.9c-18.1,0-32.8,14.7-32.8,32.8v0c0,18.1,14.7,32.8,32.8,32.8h0
			c18.1,0,32.8-14.7,32.8-32.8v0C779.6,800.6,764.9,785.9,746.8,785.9z"/>
		<path class="st4" d="M746.8,862.9L746.8,862.9c-12.7,0-23,10.3-23,23v0c0,12.7,10.3,23,23,23h0c12.7,0,23-10.3,23-23v0
			C769.8,873.2,759.5,862.9,746.8,862.9z"/>
		<path class="st3" d="M612.9,822.7L612.9,822.7c-28.8,0-52.1,23.3-52.1,52.1v0c0,28.8,23.3,52.1,52.1,52.1h0
			c28.8,0,52.1-23.3,52.1-52.1v0C665,846,641.7,822.7,612.9,822.7z"/>
	</g>
</g>
<g id="Layer_2">
	<g>
		<path class="st3" d="M16.9,125.5L16.9,125.5c-9.3,0-16.9,7.6-16.9,16.9l0,14.6c0,9.3,7.6,16.9,16.9,16.9h0
			c9.3,0,16.9-7.6,16.9-16.9v-14.6C33.8,133.1,26.3,125.5,16.9,125.5z"/>
		<path class="st3" d="M66.7,182.3L66.7,182.3c-9.3,0-16.9,7.6-16.9,16.9v0c0,9.3,7.6,16.9,16.9,16.9h0c9.3,0,16.9-7.6,16.9-16.9v0
			C83.7,189.8,76.1,182.3,66.7,182.3z"/>
		<path class="st4" d="M16.9,177.6L16.9,177.6c-9.3,0-16.9,7.6-16.9,16.9v0c0,9.3,7.6,16.9,16.9,16.9h0c9.3,0,16.9-7.6,16.9-16.9v0
			C33.8,185.2,26.3,177.6,16.9,177.6z"/>
		<path class="st5" d="M16.9,214.9L16.9,214.9c-6.9,0-12.6,5.6-12.6,12.6v0c0,6.9,5.6,12.6,12.6,12.6h0c6.9,0,12.6-5.6,12.6-12.6v0
			C29.5,220.6,23.9,214.9,16.9,214.9z"/>
		<g>
			<path class="st3" d="M241.6,163.3L241.6,163.3c-9.3,0-16.9,7.6-16.9,16.9v14.6c0,9.3,7.6,16.9,16.9,16.9h0
				c9.3,0,16.9-7.6,16.9-16.9v-14.6C258.6,170.8,251,163.3,241.6,163.3z"/>
			<path class="st4" d="M241.6,215.3L241.6,215.3c-9.3,0-16.9,7.6-16.9,16.9v0c0,9.3,7.6,16.9,16.9,16.9h0c9.3,0,16.9-7.6,16.9-16.9
				v0C258.6,222.9,251,215.3,241.6,215.3z"/>
			<path class="st5" d="M241.6,252.7L241.6,252.7c-6.9,0-12.6,5.6-12.6,12.6v0c0,6.9,5.6,12.6,12.6,12.6h0c6.9,0,12.6-5.6,12.6-12.6
				v0C254.2,258.3,248.6,252.7,241.6,252.7z"/>
		</g>
		<g>
			<path class="st3" d="M514.1,163.3L514.1,163.3c-9.3,0-16.9,7.6-16.9,16.9v0c0,9.3,7.6,16.9,16.9,16.9l0,0
				c9.3,0,16.9-7.6,16.9-16.9v0C531.1,170.8,523.5,163.3,514.1,163.3z"/>
			<path class="st4" d="M514.1,200.6L514.1,200.6c-6.9,0-12.6,5.6-12.6,12.6v0c0,6.9,5.6,12.6,12.6,12.6l0,0
				c6.9,0,12.6-5.6,12.6-12.6v0C526.7,206.2,521.1,200.6,514.1,200.6z"/>
		</g>
		<path class="st3" d="M378.9,136.9L378.9,136.9c-9.3,0-16.9,7.6-16.9,16.9v14.6c0,9.3,7.6,16.9,16.9,16.9h0
			c9.3,0,16.9-7.6,16.9-16.9v-14.6C395.9,144.5,388.3,136.9,378.9,136.9z"/>
		<path class="st4" d="M378.9,189L378.9,189c-9.3,0-16.9,7.6-16.9,16.9v0c0,9.3,7.6,16.9,16.9,16.9h0c9.3,0,16.9-7.6,16.9-16.9v0
			C395.9,196.5,388.3,189,378.9,189z"/>
		<path class="st5" d="M378.9,226.3L378.9,226.3c-6.9,0-12.6,5.6-12.6,12.6v0c0,6.9,5.6,12.6,12.6,12.6h0c6.9,0,12.6-5.6,12.6-12.6
			v0C391.5,232,385.9,226.3,378.9,226.3z"/>
		<g>
			<path class="st3" d="M994.7,163.3L994.7,163.3c-9.3,0-16.9,7.6-16.9,16.9v14.6c0,9.3,7.6,16.9,16.9,16.9h0
				c9.3,0,16.9-7.6,16.9-16.9v-14.6C1011.7,170.8,1004.1,163.3,994.7,163.3z"/>
			<path class="st4" d="M994.7,215.3L994.7,215.3c-9.3,0-16.9,7.6-16.9,16.9v0c0,9.3,7.6,16.9,16.9,16.9h0c9.3,0,16.9-7.6,16.9-16.9
				v0C1011.7,222.9,1004.1,215.3,994.7,215.3z"/>
			<path class="st5" d="M994.7,252.7L994.7,252.7c-6.9,0-12.6,5.6-12.6,12.6v0c0,6.9,5.6,12.6,12.6,12.6h0c6.9,0,12.6-5.6,12.6-12.6
				v0C1007.3,258.3,1001.7,252.7,994.7,252.7z"/>
		</g>
		<g>
			<path class="st3" d="M701.2,163.3L701.2,163.3c-9.3,0-16.9,7.6-16.9,16.9v14.6c0,9.3,7.6,16.9,16.9,16.9l0,0
				c9.3,0,16.9-7.6,16.9-16.9v-14.6C718.1,170.8,710.6,163.3,701.2,163.3z"/>
			<path class="st4" d="M701.2,215.3L701.2,215.3c-9.3,0-16.9,7.6-16.9,16.9v0c0,9.3,7.6,16.9,16.9,16.9l0,0
				c9.3,0,16.9-7.6,16.9-16.9v0C718.1,222.9,710.6,215.3,701.2,215.3z"/>
			<path class="st5" d="M701.2,252.7L701.2,252.7c-6.9,0-12.6,5.6-12.6,12.6v0c0,6.9,5.6,12.6,12.6,12.6l0,0
				c6.9,0,12.6-5.6,12.6-12.6v0C713.8,258.3,708.2,252.7,701.2,252.7z"/>
		</g>
		<path class="st4" d="M66.7,220.4L66.7,220.4c-6.9,0-12.6,5.6-12.6,12.6v0c0,6.9,5.6,12.6,12.6,12.6h0c6.9,0,12.6-5.6,12.6-12.6v0
			C79.3,226,73.7,220.4,66.7,220.4z"/>
		<path class="st5" d="M66.7,249.9L66.7,249.9c-4.9,0-8.8,4-8.8,8.8v0c0,4.9,4,8.8,8.8,8.8h0c4.9,0,8.8-4,8.8-8.8v0
			C75.6,253.8,71.6,249.9,66.7,249.9z"/>
		<g>
			<path class="st3" d="M610.1,163.3L610.1,163.3c-9.3,0-16.9,7.6-16.9,16.9v0c0,9.3,7.6,16.9,16.9,16.9h0c9.3,0,16.9-7.6,16.9-16.9
				v0C627,170.8,619.5,163.3,610.1,163.3z"/>
			<path class="st4" d="M610.1,201.4L610.1,201.4c-6.9,0-12.6,5.6-12.6,12.6v0c0,6.9,5.6,12.6,12.6,12.6h0c6.9,0,12.6-5.6,12.6-12.6
				v0C622.7,207,617.1,201.4,610.1,201.4z"/>
			<path class="st5" d="M610.1,230.9L610.1,230.9c-4.9,0-8.8,4-8.8,8.8v0c0,4.9,4,8.8,8.8,8.8l0,0c4.9,0,8.8-4,8.8-8.8v0
				C618.9,234.8,615,230.9,610.1,230.9z"/>
		</g>
		<g>
			<path class="st3" d="M801,163.3L801,163.3c-9.3,0-16.9,7.6-16.9,16.9v0c0,9.3,7.6,16.9,16.9,16.9h0c9.3,0,16.9-7.6,16.9-16.9v0
				C817.9,170.8,810.3,163.3,801,163.3z"/>
			<path class="st4" d="M801,201.4L801,201.4c-6.9,0-12.6,5.6-12.6,12.6v0c0,6.9,5.6,12.6,12.6,12.6h0c6.9,0,12.6-5.6,12.6-12.6v0
				C813.6,207,807.9,201.4,801,201.4z"/>
			<path class="st5" d="M801,230.9L801,230.9c-4.9,0-8.8,4-8.8,8.8v0c0,4.9,4,8.8,8.8,8.8l0,0c4.9,0,8.8-4,8.8-8.8v0
				C809.8,234.8,805.9,230.9,801,230.9z"/>
		</g>
		<g>
			<path class="st3" d="M161.1,163.3L161.1,163.3c-9.3,0-16.9,7.6-16.9,16.9v0c0,9.3,7.6,16.9,16.9,16.9h0c9.3,0,16.9-7.6,16.9-16.9
				v0C178,170.8,170.5,163.3,161.1,163.3z"/>
			<path class="st4" d="M161.1,201.4L161.1,201.4c-6.9,0-12.6,5.6-12.6,12.6v0c0,6.9,5.6,12.6,12.6,12.6h0c6.9,0,12.6-5.6,12.6-12.6
				v0C173.7,207,168.1,201.4,161.1,201.4z"/>
			<path class="st5" d="M161.1,230.9L161.1,230.9c-4.9,0-8.8,4-8.8,8.8v0c0,4.9,4,8.8,8.8,8.8h0c4.9,0,8.8-4,8.8-8.8v0
				C169.9,234.8,166,230.9,161.1,230.9z"/>
		</g>
		<g>
			<path class="st3" d="M1591.5,163.3L1591.5,163.3c-9.3,0-16.9,7.6-16.9,16.9v0c0,9.3,7.6,16.9,16.9,16.9l0,0
				c9.3,0,16.9-7.6,16.9-16.9v0C1608.4,170.8,1600.8,163.3,1591.5,163.3z"/>
			<path class="st4" d="M1591.5,200.6L1591.5,200.6c-6.9,0-12.6,5.6-12.6,12.6v0c0,6.9,5.6,12.6,12.6,12.6l0,0
				c6.9,0,12.6-5.6,12.6-12.6v0C1604.1,206.2,1598.4,200.6,1591.5,200.6z"/>
			<path class="st5" d="M1591.5,230.1L1591.5,230.1c-4.9,0-8.8,4-8.8,8.8v0c0,4.9,4,8.8,8.8,8.8l0,0c4.9,0,8.8-4,8.8-8.8v0
				C1600.3,234.1,1596.4,230.1,1591.5,230.1z"/>
		</g>
		<g>
			<path class="st3" d="M566.2,163.3L566.2,163.3c-6.9,0-12.6,5.6-12.6,12.6v0c0,6.9,5.6,12.6,12.6,12.6l0,0
				c6.9,0,12.6-5.6,12.6-12.6v0C578.7,168.9,573.1,163.3,566.2,163.3z"/>
			<path class="st4" d="M566.2,192.8L566.2,192.8c-4.9,0-8.8,4-8.8,8.8v0c0,4.9,4,8.8,8.8,8.8l0,0c4.9,0,8.8-4,8.8-8.8v0
				C575,196.7,571,192.8,566.2,192.8z"/>
		</g>
		<g>
			<path class="st3" d="M652.8,163.3L652.8,163.3c-6.9,0-12.6,5.6-12.6,12.6v0c0,6.9,5.6,12.6,12.6,12.6h0c6.9,0,12.6-5.6,12.6-12.6
				v0C665.4,168.9,659.8,163.3,652.8,163.3z"/>
			<path class="st4" d="M652.8,192.8L652.8,192.8c-4.9,0-8.8,4-8.8,8.8v0c0,4.9,4,8.8,8.8,8.8h0c4.9,0,8.8-4,8.8-8.8v0
				C661.7,196.7,657.7,192.8,652.8,192.8z"/>
		</g>
		<g>
			<path class="st3" d="M113.9,163.3L113.9,163.3c-6.9,0-12.6,5.6-12.6,12.6v0c0,6.9,5.6,12.6,12.6,12.6h0c6.9,0,12.6-5.6,12.6-12.6
				v0C126.5,168.9,120.9,163.3,113.9,163.3z"/>
			<path class="st4" d="M113.9,192.8L113.9,192.8c-4.9,0-8.8,4-8.8,8.8v0c0,4.9,4,8.8,8.8,8.8h0c4.9,0,8.8-4,8.8-8.8v0
				C122.8,196.7,118.8,192.8,113.9,192.8z"/>
		</g>
		<g>
			<path class="st3" d="M1329.3,163.3L1329.3,163.3c-9.3,0-16.9,7.6-16.9,16.9v0c0,9.3,7.6,16.9,16.9,16.9l0,0
				c9.3,0,16.9-7.6,16.9-16.9v0C1346.2,170.8,1338.6,163.3,1329.3,163.3z"/>
			<path class="st4" d="M1329.3,201.4L1329.3,201.4c-6.9,0-12.6,5.6-12.6,12.6v0c0,6.9,5.6,12.6,12.6,12.6l0,0
				c6.9,0,12.6-5.6,12.6-12.6v0C1341.8,207,1336.2,201.4,1329.3,201.4z"/>
			<path class="st5" d="M1329.3,230.9L1329.3,230.9c-4.9,0-8.8,4-8.8,8.8v0c0,4.9,4,8.8,8.8,8.8l0,0c4.9,0,8.8-4,8.8-8.8v0
				C1338.1,234.8,1334.1,230.9,1329.3,230.9z"/>
		</g>
		<g>
			<path class="st3" d="M1282.1,163.3L1282.1,163.3c-6.9,0-12.6,5.6-12.6,12.6v0c0,6.9,5.6,12.6,12.6,12.6l0,0
				c6.9,0,12.6-5.6,12.6-12.6v0C1294.7,168.9,1289,163.3,1282.1,163.3z"/>
			<path class="st4" d="M1282.1,192.8L1282.1,192.8c-4.9,0-8.8,4-8.8,8.8v0c0,4.9,4,8.8,8.8,8.8l0,0c4.9,0,8.8-4,8.8-8.8v0
				C1290.9,196.7,1287,192.8,1282.1,192.8z"/>
		</g>
		<g>
			<path class="st3" d="M198.2,163.3L198.2,163.3c-6.9,0-12.6,5.6-12.6,12.6v0c0,6.9,5.6,12.6,12.6,12.6h0c6.9,0,12.6-5.6,12.6-12.6
				v0C210.8,168.9,205.2,163.3,198.2,163.3z"/>
			<path class="st4" d="M198.2,192.8L198.2,192.8c-4.9,0-8.8,4-8.8,8.8v0c0,4.9,4,8.8,8.8,8.8h0c4.9,0,8.8-4,8.8-8.8v0
				C207,196.7,203.1,192.8,198.2,192.8z"/>
		</g>
		<path class="st3" d="M334.7,162.1L334.7,162.1c-6,0-10.8,4.8-10.8,10.8v0c0,6,4.8,10.8,10.8,10.8l0,0c6,0,10.8-4.8,10.8-10.8v0
			C345.5,166.9,340.7,162.1,334.7,162.1z"/>
		<path class="st4" d="M334.7,187.4L334.7,187.4c-4.2,0-7.6,3.4-7.6,7.6v0c0,4.2,3.4,7.6,7.6,7.6l0,0c4.2,0,7.6-3.4,7.6-7.6v0
			C342.3,190.8,338.9,187.4,334.7,187.4z"/>
		<g>
			<path class="st4" d="M290.7,213.5L290.7,213.5c-6.9,0-12.6,5.6-12.6,12.6v0c0,6.9,5.6,12.6,12.6,12.6l0,0
				c6.9,0,12.6-5.6,12.6-12.6v0C303.3,219.2,297.7,213.5,290.7,213.5z"/>
			<path class="st3" d="M290.7,174.2L290.7,174.2c-9.5,0-17.1,7.7-17.1,17.1v0c0,9.5,7.7,17.1,17.1,17.1h0c9.5,0,17.1-7.7,17.1-17.1
				v0C307.8,181.9,300.2,174.2,290.7,174.2z"/>
		</g>
		<g>
			<g>
				<path class="st3" d="M1505.7,163.3L1505.7,163.3c-6.9,0-12.6,5.6-12.6,12.6v0c0,6.9,5.6,12.6,12.6,12.6h0
					c6.9,0,12.6-5.6,12.6-12.6v0C1518.3,168.9,1512.6,163.3,1505.7,163.3z"/>
				<path class="st4" d="M1505.7,192.8L1505.7,192.8c-4.9,0-8.8,4-8.8,8.8v0c0,4.9,4,8.8,8.8,8.8h0c4.9,0,8.8-4,8.8-8.8v0
					C1514.5,196.7,1510.6,192.8,1505.7,192.8z"/>
			</g>
			<g>
				<path class="st4" d="M1460.1,202.6L1460.1,202.6c-6.9,0-12.6,5.6-12.6,12.6v0c0,6.9,5.6,12.6,12.6,12.6l0,0
					c6.9,0,12.6-5.6,12.6-12.6v0C1472.7,208.2,1467.1,202.6,1460.1,202.6z"/>
				<path class="st3" d="M1460.1,163.3L1460.1,163.3c-9.5,0-17.1,7.7-17.1,17.1v0c0,9.5,7.7,17.1,17.1,17.1l0,0
					c9.5,0,17.1-7.7,17.1-17.1v0C1477.2,170.9,1469.6,163.3,1460.1,163.3z"/>
			</g>
		</g>
		<g>
			<path class="st3" d="M1242.6,163.3L1242.6,163.3c-6.9,0-12.6,5.6-12.6,12.6v0c0,6.9,5.6,12.6,12.6,12.6h0
				c6.9,0,12.6-5.6,12.6-12.6v0C1255.2,168.9,1249.6,163.3,1242.6,163.3z"/>
			<path class="st4" d="M1242.6,192.8L1242.6,192.8c-4.9,0-8.8,4-8.8,8.8v0c0,4.9,4,8.8,8.8,8.8h0c4.9,0,8.8-4,8.8-8.8v0
				C1251.5,196.7,1247.5,192.8,1242.6,192.8z"/>
		</g>
		<g>
			<path class="st3" d="M1544.7,163.3L1544.7,163.3c-6.9,0-12.6,5.6-12.6,12.6v0c0,6.9,5.6,12.6,12.6,12.6h0
				c6.9,0,12.6-5.6,12.6-12.6v0C1557.2,168.9,1551.6,163.3,1544.7,163.3z"/>
			<path class="st4" d="M1544.7,192.8L1544.7,192.8c-4.9,0-8.8,4-8.8,8.8v0c0,4.9,4,8.8,8.8,8.8h0c4.9,0,8.8-4,8.8-8.8v0
				C1553.5,196.7,1549.5,192.8,1544.7,192.8z"/>
		</g>
		<g>
			<path class="st4" d="M1197.1,202.6L1197.1,202.6c-6.9,0-12.6,5.6-12.6,12.6v0c0,6.9,5.6,12.6,12.6,12.6l0,0
				c6.9,0,12.6-5.6,12.6-12.6v0C1209.6,208.2,1204,202.6,1197.1,202.6z"/>
			<path class="st3" d="M1197.1,163.3L1197.1,163.3c-9.5,0-17.1,7.7-17.1,17.1v0c0,9.5,7.7,17.1,17.1,17.1l0,0
				c9.5,0,17.1-7.7,17.1-17.1v0C1214.2,170.9,1206.5,163.3,1197.1,163.3z"/>
		</g>
		<g>
			<g>
				<path class="st3" d="M909,163.3L909,163.3c-6.9,0-12.6,5.6-12.6,12.6v0c0,6.9,5.6,12.6,12.6,12.6l0,0c6.9,0,12.6-5.6,12.6-12.6
					v0C921.6,168.9,915.9,163.3,909,163.3z"/>
				<path class="st4" d="M909,192.8L909,192.8c-4.9,0-8.8,4-8.8,8.8v0c0,4.9,4,8.8,8.8,8.8l0,0c4.9,0,8.8-4,8.8-8.8v0
					C917.8,196.7,913.9,192.8,909,192.8z"/>
			</g>
			<g>
				<path class="st4" d="M863.4,202.6L863.4,202.6c-6.9,0-12.6,5.6-12.6,12.6v0c0,6.9,5.6,12.6,12.6,12.6l0,0
					c6.9,0,12.6-5.6,12.6-12.6v0C876,208.2,870.4,202.6,863.4,202.6z"/>
				<path class="st3" d="M863.4,163.3L863.4,163.3c-9.5,0-17.1,7.7-17.1,17.1v0c0,9.5,7.7,17.1,17.1,17.1l0,0
					c9.5,0,17.1-7.7,17.1-17.1v0C880.5,170.9,872.9,163.3,863.4,163.3z"/>
			</g>
		</g>
		<g>
			<path class="st4" d="M1054,202.6L1054,202.6c-6.9,0-12.6,5.6-12.6,12.6v0c0,6.9,5.6,12.6,12.6,12.6l0,0c6.9,0,12.6-5.6,12.6-12.6
				v0C1066.5,208.2,1060.9,202.6,1054,202.6z"/>
			<path class="st3" d="M1054,163.3L1054,163.3c-9.5,0-17.1,7.7-17.1,17.1v0c0,9.5,7.7,17.1,17.1,17.1l0,0c9.5,0,17.1-7.7,17.1-17.1
				v0C1071.1,170.9,1063.4,163.3,1054,163.3z"/>
		</g>
		<g>
			<path class="st3" d="M1375.1,163.6L1375.1,163.6c-9.3,0-16.9,7.6-16.9,16.9v14.6c0,9.3,7.6,16.9,16.9,16.9l0,0
				c9.3,0,16.9-7.6,16.9-16.9v-14.6C1392.1,171.2,1384.5,163.6,1375.1,163.6z"/>
			<path class="st4" d="M1375.1,215.7L1375.1,215.7c-9.3,0-16.9,7.6-16.9,16.9v0c0,9.3,7.6,16.9,16.9,16.9l0,0
				c9.3,0,16.9-7.6,16.9-16.9v0C1392.1,223.3,1384.5,215.7,1375.1,215.7z"/>
			<path class="st5" d="M1375.1,253.1L1375.1,253.1c-6.9,0-12.6,5.6-12.6,12.6v0c0,6.9,5.6,12.6,12.6,12.6l0,0
				c6.9,0,12.6-5.6,12.6-12.6v0C1387.7,258.7,1382.1,253.1,1375.1,253.1z"/>
			<path class="st4" d="M1421.6,202.6L1421.6,202.6c-6.9,0-12.6,5.6-12.6,12.6v0c0,6.9,5.6,12.6,12.6,12.6h0
				c6.9,0,12.6-5.6,12.6-12.6v0C1434.1,208.2,1428.5,202.6,1421.6,202.6z"/>
			<path class="st3" d="M1421.6,163.3L1421.6,163.3c-9.5,0-17.1,7.7-17.1,17.1v0c0,9.5,7.7,17.1,17.1,17.1h0
				c9.5,0,17.1-7.7,17.1-17.1v0C1438.7,170.9,1431,163.3,1421.6,163.3z"/>
		</g>
		<g>
			<path class="st4" d="M953.7,202.6L953.7,202.6c-6.9,0-12.6,5.6-12.6,12.6v0c0,6.9,5.6,12.6,12.6,12.6l0,0
				c6.9,0,12.6-5.6,12.6-12.6v0C966.3,208.2,960.6,202.6,953.7,202.6z"/>
			<path class="st3" d="M953.7,163.3L953.7,163.3c-9.5,0-17.1,7.7-17.1,17.1v0c0,9.5,7.7,17.1,17.1,17.1l0,0
				c9.5,0,17.1-7.7,17.1-17.1v0C970.8,170.9,963.2,163.3,953.7,163.3z"/>
		</g>
		<g>
			<path class="st4" d="M744,202.6L744,202.6c-6.9,0-12.6,5.6-12.6,12.6v0c0,6.9,5.6,12.6,12.6,12.6h0c6.9,0,12.6-5.6,12.6-12.6v0
				C756.6,208.2,751,202.6,744,202.6z"/>
			<path class="st3" d="M744,163.3L744,163.3c-9.5,0-17.1,7.7-17.1,17.1v0c0,9.5,7.7,17.1,17.1,17.1h0c9.5,0,17.1-7.7,17.1-17.1v0
				C761.2,170.9,753.5,163.3,744,163.3z"/>
		</g>
		<g>
			<path class="st3" d="M1119.2,163.3L1119.2,163.3c-9.3,0-16.9,7.6-16.9,16.9v0c0,9.3,7.6,16.9,16.9,16.9l0,0
				c9.3,0,16.9-7.6,16.9-16.9v0C1136.2,170.8,1128.6,163.3,1119.2,163.3z"/>
			<path class="st4" d="M1119.2,200.6L1119.2,200.6c-6.9,0-12.6,5.6-12.6,12.6v0c0,6.9,5.6,12.6,12.6,12.6l0,0
				c6.9,0,12.6-5.6,12.6-12.6v0C1131.8,206.2,1126.2,200.6,1119.2,200.6z"/>
			<path class="st5" d="M1119.2,230.1L1119.2,230.1c-4.9,0-8.8,4-8.8,8.8v0c0,4.9,4,8.8,8.8,8.8l0,0c4.9,0,8.8-4,8.8-8.8v0
				C1128.1,234.1,1124.1,230.1,1119.2,230.1z"/>
		</g>
		<g>
			<path class="st2" d="M258.6,124.4v2.1c0,20.3-11.9,32.2-36.5,32.2c-24.8,0-36.5-11.9-36.5-30c0-6.4,2.1-11.9,2.1-11.9h27.9v7.6
				c0,4.3,2.1,6.4,5.5,6.4c3.1,0,5.3-2.1,5.3-6.4v-1c0-10.9-40.8-17.2-40.8-48.4c0-20.3,11.7-32.2,34.3-32.2
				c24.6,0,36.5,11.9,36.5,30c0,6.4-2.1,10.7-2.1,10.7h-27.9v-7.6c0-3.1-2.1-5.3-4.3-5.3s-4.3,2.1-4.3,5.3
				C217.8,86.8,258.6,93.4,258.6,124.4z"/>
			<path class="st2" d="M446.4,87.9l2.1,30h2.1l2.1-30l2.1-42.9h33.2l-21.5,115.8c-5.5,27.9-18.1,40.8-35.3,40.8
				c-9.8,0-17.4-3.1-17.4-3.1v-27.9c0,0,4.5,1,8.6,1c6.6,0,10.7-4.3,11.9-10.7L406.6,45h33.2L446.4,87.9z"/>
			<path class="st2" d="M668.5,122.3c0,24.6-11.9,36.5-37.6,36.5c-25.7,0-37.6-11.9-37.6-36.5V79.4c0-24.6,11.9-36.5,37.6-36.5
				c25.7,0,37.6,11.9,37.6,36.5V122.3z M636.1,79.4c0-6.4-2-8.6-5.3-8.6c-3.1,0-5.3,2.1-5.3,8.6v42.9c0,6.4,2.1,8.6,5.3,8.6
				c3.3,0,5.3-2.1,5.3-8.6V79.4z"/>
			<path class="st2" d="M716.6,53.6l-3.1,10.7h2.1c0,0,4.3-21.5,22.4-21.5c11.9,0,21.5,9.8,21.5,30v67.6c0,8.9-7.2,16.1-16.1,16.1
				l0,0c-8.9,0-16.1-7.2-16.1-16.1v-59c0-5.5-2.1-8.6-5.3-8.6c-3.3,0-5.5,3.1-5.5,8.6v59c0,8.9-7.2,16.1-16.1,16.1l0,0
				c-8.9,0-16.1-7.2-16.1-16.1V45h32.2V53.6z"/>
			<path class="st2" d="M831.3,72.9h-16v47.2c0,6.4,2.1,8.6,6.4,8.6c4.3,0,9.6-2.1,9.6-2.1v27.9c0,0-7.4,4.3-18.1,4.3
				c-20.3,0-30-9.6-30-32.2V72.9h-10.7V45h10.7V19.3h32.2V45h16V72.9z"/>
			<path class="st2" d="M846.3,122.3V79.4c0-24.6,11.9-36.5,37.6-36.5s37.6,11.9,37.6,36.5v28.9h-42.9v14c0,6.4,2.1,8.6,5.3,8.6
				c3.3,0,5.3-2.1,5.3-8.6V118h28.1c0,0,2.1,4.3,2.1,10.7c0,18.1-11.9,30-35.5,30C858.2,158.7,846.3,146.8,846.3,122.3z M878.7,86.8
				h10.5v-7.4c0-6.4-1.9-8.6-5.3-8.6c-3.1,0-5.3,2.1-5.3,8.6V86.8z"/>
			<path class="st2" d="M968.7,53.6l-3.1,10.7h2.1c0,0,4.3-21.5,22.4-21.5c11.9,0,21.5,9.8,21.5,30v67.6c0,8.9-7.2,16.1-16.1,16.1
				l0,0c-8.9,0-16.1-7.2-16.1-16.1v-59c0-5.5-2.1-8.6-5.3-8.6c-3.3,0-5.5,3.1-5.5,8.6v59c0,8.9-7.2,16.1-16.1,16.1l0,0
				c-8.9,0-16.1-7.2-16.1-16.1V45h32.2V53.6z"/>
			<path class="st2" d="M1083.4,72.9h-16v47.2c0,6.4,2.1,8.6,6.4,8.6s9.6-2.1,9.6-2.1v27.9c0,0-7.4,4.3-18.1,4.3
				c-20.3,0-30-9.6-30-32.2V72.9h-10.7V45h10.7V19.3h32.2V45h16V72.9z"/>
			<path class="st2" d="M1179.9,122.3V79.4c0-24.6,11.9-36.5,37.6-36.5s37.6,11.9,37.6,36.5v28.9h-42.9v14c0,6.4,2.1,8.6,5.3,8.6
				c3.3,0,5.3-2.1,5.3-8.6V118h28.1c0,0,2.1,4.3,2.1,10.7c0,18.1-11.9,30-35.5,30C1191.8,158.7,1179.9,146.8,1179.9,122.3z
				 M1212.3,86.8h10.5v-7.4c0-6.4-1.9-8.6-5.3-8.6c-3.1,0-5.3,2.1-5.3,8.6V86.8z"/>
			<path class="st2" d="M1271.4,85.8c0,0-2.3-6.4-2.3-12.9c0-18.3,12.1-30.3,35.2-30c19.9,0.2,35.7,16.6,35.7,36.5v49.3
				c0,17.2,5.3,23.6,5.3,23.6l0,0c0,2.4-1.9,4.3-4.3,4.3h-10.9c-10.5,0-19.1-8.4-19.2-18.9c0-0.1,0-0.3,0-0.4h-2.1
				c0,0-4.3,21.5-22.4,21.5c-11.9,0-20.5-8.6-20.5-26.9c0-19.3,8.6-27.7,27.9-39.6l14-8.6v-6.4c0-4.3-2.1-6.4-4.3-6.4
				c-2.1,0-4.3,2.1-4.3,6.4v8.6H1271.4z M1307.8,108.2l-5.5,3.3c-2.1,1.4-5.3,4.3-5.3,9.6c0,4.5,2.1,7.6,5.3,7.6
				c3.3,0,5.5-3.1,5.5-8.6V108.2z"/>
			<path class="st2" d="M1435.6,45l-17.2,52.7l12.6,38.4c3.3,10.1-4.2,20.5-14.8,20.5l0,0c-7,0-13.1-4.6-15-11.3l-9.6-33.7h-2.1v29
				c0,8.9-7.2,16.1-16.1,16.1l0,0c-8.9,0-16.1-7.2-16.1-16.1V0h32.2v83.7h2.1l10.7-38.6H1435.6z"/>
			<path class="st2" d="M1443,122.3V79.4c0-24.6,11.9-36.5,37.6-36.5s37.6,11.9,37.6,36.5v28.9h-42.9v14c0,6.4,2.1,8.6,5.3,8.6
				c3.3,0,5.3-2.1,5.3-8.6V118h28.1c0,0,2.1,4.3,2.1,10.7c0,18.1-11.9,30-35.5,30C1454.9,158.7,1443,146.8,1443,122.3z M1475.4,86.8
				h10.5v-7.4c0-6.4-2-8.6-5.3-8.6c-3.1,0-5.3,2.1-5.3,8.6V86.8z"/>
			<path class="st2" d="M1575,148l3.3-10.7h-2.1c0,0-4.3,21.5-22.6,21.5c-11.7,0-21.5-9.6-21.5-32.2V75.1c0-22.4,9.8-32.2,21.5-32.2
				c18.3,0,22.6,21.5,22.6,21.5h2.1l-3.3-10.7V0h32.4v139.6c0,9.4-7.6,17-17,17h-6.8C1578.8,156.6,1575,152.7,1575,148L1575,148z
				 M1564.5,120.1c0,5.5,2.1,8.6,5.3,8.6c3.3,0,5.3-3.1,5.3-8.6V81.5c0-5.5-1.9-8.6-5.3-8.6c-3.1,0-5.3,3.1-5.3,8.6V120.1z"/>
			<path class="st2" d="M0,104.4v-98h34.3v57.9h15V6.4h34.3v154c0,9.5-7.7,17.2-17.2,17.2h0c-9.5,0-17.2-7.7-17.2-17.2v-66h-15v10
				c0,9.5-7.7,17.2-17.2,17.2h0C7.7,121.6,0,113.9,0,104.4z"/>
			<path class="st2" d="M312.2,96l-4.3-27.9h-2.1l2.1,27.9v55.9c0,9.5-7.7,17.2-17.2,17.2h0c-9.5,0-17.2-7.7-17.2-17.2V5.9h41.7
				l16.2,68.6l2.1,25.7h2.1l2.1-25.7l16.2-68.6h41.7v109c0,9.5-7.7,17.2-17.2,17.2h0c-9.5,0-17.2-7.7-17.2-17.2V96l2.1-27.9h-2.1
				L357.2,96l-11.9,51.6c-1.1,4.9-5.5,8.5-10.6,8.5l0,0c-5.1,0-9.5-3.5-10.6-8.5L312.2,96z"/>
			<path class="st2" d="M576.6,93.6c0,0,2.1,12.9,2.1,27.9c0,22.4-13.8,36.5-39.8,36.5c-28.9,0-41.7-12.9-41.7-40.8V44.2
				c0-27.9,12.9-40.8,41.7-40.8c25.9,0,39.8,13.8,39.8,36.5c0,12.9-2.1,25.7-2.1,25.7h-30V44.2c0-7.4-3.3-10.7-7.6-10.7
				c-4.1,0-7.4,3.3-7.4,10.7v72.9c0,7.6,3.3,10.7,7.4,10.7c4.3,0,7.6-3.1,7.6-10.7V93.6H576.6z"/>
			<path class="st2" d="M1155.1,157.8h-32.7c-11.1,0-20.1-9-20.1-20.1V4.6h34.3v123.1h38.6v9.9
				C1175.3,148.8,1166.2,157.8,1155.1,157.8z"/>
			<path class="st2" d="M104.1,85.8c0,0-2.3-6.4-2.3-12.9c0-18.3,12.1-30.3,35.2-30c19.9,0.2,35.7,16.6,35.7,36.5v49.3
				c0,17.2,5.3,23.6,5.3,23.6l0,0c0,2.4-1.9,4.3-4.3,4.3h-10.9c-10.5,0-19.1-8.4-19.2-18.9c0-0.1,0-0.3,0-0.4h-2.1
				c0,0-4.3,21.5-22.4,21.5c-11.9,0-20.5-8.6-20.5-26.9c0-19.3,8.6-27.7,27.9-39.6l14-8.6v-6.4c0-4.3-2.1-6.4-4.3-6.4
				c-2.1,0-4.3,2.1-4.3,6.4v8.6H104.1z M140.6,108.2l-5.5,3.3c-2.1,1.4-5.3,4.3-5.3,9.6c0,4.5,2.1,7.6,5.3,7.6
				c3.3,0,5.5-3.1,5.5-8.6V108.2z"/>
		</g>
	</g>
</g>
</svg>
