<?xml version="1.0" encoding="utf-8"?>
<!-- Generator: Adobe Illustrator 22.0.0, SVG Export Plug-In . SVG Version: 6.00 Build 0)  -->
<svg version="1.1" id="Layer_1" xmlns="http://www.w3.org/2000/svg" xmlns:xlink="http://www.w3.org/1999/xlink" x="0px" y="0px"
	 viewBox="0 0 3000 2000" style="enable-background:new 0 0 3000 2000;" xml:space="preserve">
<style type="text/css">
	.st0{fill:#011151;}
	.st1{fill:#63F0FA;}
	.st2{fill:#015FC3;}
	.st3{fill:#FFFFFF;}
</style>
<rect class="st0" width="3000" height="2000"/>
<g>
	<g>
		<g>
			<path class="st1" d="M75.7,415.7v-46.2h7.9v18.8h7.9v-18.8h8v46.2h-8v-20.5h-7.9v20.5H75.7z"/>
			<path class="st1" d="M120,415.7l-5.6-23.1l-1.3-6.6h-0.4l0.4,6.6v23.1h-7.9v-46.2h10.2l6.2,25.7l0.7,6.6h0.4l0.7-6.6l6.3-25.7
				h10.2v46.2H132v-23.1l0.4-6.6H132l-1.3,6.6l-5.6,23.1H120z"/>
			<path class="st1" d="M167.9,396.9c0,0,0.7,3.9,0.7,7.9c0,7.6-4,11.6-11.5,11.6c-7.9,0-11.9-4-11.9-12.5v-22.4
				c0-8.6,4-12.5,11.9-12.5c7.3,0,11.5,4.3,11.5,11.6c0,3.6-0.7,7.2-0.7,7.2h-7v-6.2c0-4.3-1.3-5.6-3.9-5.6c-2.6,0-4,1.3-4,5.6V404
				c0,4.3,1.3,5.6,4,5.6c2.6,0,3.9-1.3,3.9-5.6v-6.9h7V396.9z"/>
			<path class="st1" d="M194.4,415.7h-20.8v-46.2h7.9v39.2h12.8v7H194.4z"/>
			<path class="st1" d="M233.1,375.4l-13.9,40.3h-7.9l13.6-39.2H210v-7h23.2v5.9H233.1z"/>
			<path class="st1" d="M259.7,405.5c0,7.2-3.6,10.9-11.5,10.9s-11.6-3.7-11.6-10.9v-25.7c0-7.3,3.7-10.9,11.6-10.9
				c7.9,0,11.5,3.6,11.5,10.9V405.5z M251.8,379.8c0-2.6-1.3-4-3.6-4s-3.7,1.3-3.7,4v25.7c0,2.6,1.3,3.9,3.7,3.9
				c2.3,0,3.6-1.3,3.6-3.9V379.8z"/>
			<path class="st1" d="M287.6,405.5c0,7.2-3.6,10.9-11.5,10.9s-11.6-3.7-11.6-10.9v-25.7c0-7.3,3.7-10.9,11.6-10.9
				s11.5,3.6,11.5,10.9V405.5z M279.7,379.8c0-2.6-1.3-4-3.6-4c-2.3,0-3.7,1.3-3.7,4v25.7c0,2.6,1.3,3.9,3.7,3.9
				c2.3,0,3.6-1.3,3.6-3.9V379.8z"/>
			<path class="st1" d="M325.2,390.9c0,0,6.7,1,6.7,9.3v2.9c0,8.3-3.7,12.5-13.2,12.5h-10.6v-46.2h9.9c8.6,0,12.5,4,12.5,11.8v1.6
				c0,6.7-5.3,7.7-5.3,7.7V390.9z M318,387.6c3.2,0,4.6-1.3,4.6-4.6v-2c0-3.3-1.3-4.6-4.6-4.6h-2v11.2H318z M318.7,408.7
				c3.6,0,5.2-1.6,5.2-5.6v-2.9c0-4-1.6-5.6-5.2-5.6H316v14.2h2.7V408.7z"/>
			<path class="st1" d="M357.9,405.1c0,7.3-4,11.2-10.9,11.2c-7,0-10.9-4-10.9-11.2v-13.2c0-7.3,4-11.2,10.9-11.2s10.9,4,10.9,11.2
				V405.1z M343.7,405.1c0,3.3,1.4,4.6,3.4,4.6c1.9,0,3.2-1.3,3.2-4.6v-13.2c0-3.3-1.3-4.6-3.2-4.6c-2,0-3.4,1.3-3.4,4.6V405.1z"/>
			<path class="st1" d="M362.6,367.5h7.6v48.2h-7.6V367.5z"/>
			<path class="st1" d="M375,391.3c0-7.6,3-10.6,7.3-10.6c5.3,0,7.3,6.2,7.3,6.2h0.3l-0.7-2.9v-16.5h7.6v48.2h-7.6v-2.6l0.7-3h-0.3
				c0,0-2,6.3-7.3,6.3c-4.3,0-7.3-2.9-7.3-10.6V391.3z M389.1,392.2c0-3.3-1.3-4.6-3.2-4.6c-2,0-3.4,1.3-3.4,4.6v12.5
				c0,3.3,1.4,4.6,3.4,4.6c1.9,0,3.2-1.3,3.2-4.6V392.2z"/>
		</g>
	</g>
</g>
<g>
	<g>
		<g>
			<path class="st2" d="M77.6,1919.3V817.1h188.9v448H454v-448h190.4v1102.2H454v-488.1H266.5v488.1L77.6,1919.3L77.6,1919.3z"/>
			<path class="st2" d="M1135.1,1919.3L1002,1368.2l-31.5-157.5h-8.6l8.6,157.5v551.1H781.6V817.1h243.3l148.9,614.1l15.7,157.5h8.6
				l15.8-157.5l150.3-614.1h243.3v1102.2h-189v-551.1l8.6-157.5h-8.6l-31.5,157.5l-133.1,551.1L1135.1,1919.3L1135.1,1919.3z"/>
			<path class="st2" d="M2278.9,1471.2c0,0,15.7,93.1,15.7,187.5c0,181.8-94.5,276.3-274.8,276.3c-188.9,0-283.4-94.5-283.4-299.2
				v-535.3c0-204.7,94.5-299.2,283.4-299.2c173.2,0,274.8,101.6,274.8,276.3c0,85.9-15.7,171.8-15.7,171.8h-166.1v-148.9
				c0-101.6-31.5-133.1-93.1-133.1c-63,0-94.5,31.5-94.5,133.1v535.3c0,101.6,31.5,133.1,94.5,133.1c61.6,0,93.1-31.5,93.1-133.1
				v-164.6L2278.9,1471.2L2278.9,1471.2z"/>
			<path class="st2" d="M2909.6,1919.3h-495.3V817.1h188.9v936.1h306.3v166.1H2909.6z"/>
		</g>
	</g>
</g>
<g>
	<g>
		<path class="st3" d="M73.5,74.9v-4.7h32.8v4.7H92.5v39h-5.3v-39H73.5z"/>
		<path class="st3" d="M106.8,126.1c-0.9,0-1.6,0-2.3-0.2c-0.7-0.1-1.1-0.3-1.4-0.4l1.3-4.4l0.5,0.1c1.7,0.4,3.1,0.3,4.2-0.2
			s2.1-2,3-4.4l0.9-2.6l-12-32.9h5.4l9,26.1h0.4l9-26.1h5.4l-13.9,37.5c-0.6,1.7-1.4,3.1-2.3,4.2s-2,1.9-3.2,2.5
			C109.7,125.9,108.4,126.1,106.8,126.1z"/>
		<path class="st3" d="M133.2,126.1v-45h4.8v5.2h0.6c0.4-0.6,0.9-1.3,1.6-2.2c0.7-0.9,1.6-1.7,2.9-2.4c1.2-0.7,2.9-1.1,5.1-1.1
			c2.8,0,5.2,0.7,7.3,2.1s3.7,3.3,4.9,5.9c1.2,2.5,1.8,5.5,1.8,9s-0.6,6.5-1.8,9s-2.8,4.5-4.9,5.9c-2.1,1.4-4.5,2.1-7.2,2.1
			c-2.1,0-3.8-0.4-5-1.1c-1.3-0.7-2.2-1.5-2.9-2.4s-1.2-1.7-1.6-2.2h-0.4v17.3L133.2,126.1L133.2,126.1z M147.5,110.1
			c2.1,0,3.8-0.6,5.2-1.7s2.5-2.6,3.2-4.5s1.1-4,1.1-6.3s-0.4-4.4-1.1-6.2c-0.7-1.9-1.8-3.3-3.1-4.4c-1.4-1.1-3.2-1.6-5.3-1.6
			s-3.8,0.5-5.2,1.5s-2.4,2.5-3.1,4.3c-0.7,1.8-1.1,4-1.1,6.5s0.4,4.6,1.1,6.5c0.7,1.9,1.8,3.4,3.2,4.4
			C143.7,109.5,145.4,110.1,147.5,110.1z"/>
		<path class="st3" d="M179.3,114.6c-2.9,0-5.5-0.7-7.8-2.1s-4-3.4-5.2-5.9s-1.9-5.5-1.9-8.8c0-3.4,0.6-6.4,1.9-9
			c1.2-2.5,3-4.5,5.2-5.9s4.8-2.1,7.8-2.1s5.6,0.7,7.8,2.1s4,3.4,5.2,5.9s1.9,5.5,1.9,9c0,3.4-0.6,6.3-1.9,8.8
			c-1.3,2.5-3,4.5-5.2,5.9S182.3,114.6,179.3,114.6z M179.3,110.1c2.3,0,4.1-0.6,5.6-1.7c1.4-1.2,2.5-2.7,3.2-4.6s1.1-3.9,1.1-6.1
			s-0.4-4.3-1.1-6.2c-0.7-1.9-1.8-3.4-3.2-4.6s-3.3-1.7-5.6-1.7c-2.2,0-4.1,0.6-5.5,1.7c-1.4,1.2-2.5,2.7-3.2,4.6s-1.1,3.9-1.1,6.2
			c0,2.2,0.4,4.2,1.1,6.1c0.7,1.9,1.8,3.4,3.2,4.6C175.3,109.5,177.1,110.1,179.3,110.1z"/>
		<path class="st3" d="M211.5,126.8c-3.7,0-6.5-0.7-8.7-2c-2.1-1.3-3.7-2.9-4.7-4.6l4-2.8c0.4,0.6,1,1.3,1.7,2.1
			c0.7,0.8,1.7,1.4,2.9,2s2.8,0.8,4.8,0.8c2.6,0,4.8-0.6,6.5-1.9s2.6-3.3,2.6-6v-6.6h-0.5c-0.4,0.6-0.9,1.3-1.5,2.2
			c-0.7,0.9-1.6,1.6-2.9,2.3s-3,1-5.1,1c-2.6,0-5-0.6-7.1-1.9c-2.1-1.2-3.7-3.1-5-5.4c-1.2-2.4-1.8-5.3-1.8-8.7
			c0-3.4,0.6-6.3,1.8-8.8s2.8-4.4,4.9-5.8s4.5-2.1,7.3-2.1c2.1,0,3.8,0.4,5.1,1.1s2.2,1.5,2.9,2.4s1.2,1.6,1.6,2.2h0.5v-5.2h4.8
			v33.7c0,2.8-0.6,5.1-1.9,6.9c-1.3,1.8-3,3.1-5.1,3.9C216.5,126.4,214.1,126.8,211.5,126.8z M211.3,108.8c3,0,5.3-1,7-3.1
			s2.4-4.9,2.4-8.5c0-2.4-0.4-4.4-1.1-6.2c-0.7-1.8-1.8-3.2-3.1-4.2c-1.4-1-3.1-1.5-5.2-1.5c-2.1,0-3.9,0.5-5.3,1.6
			c-1.4,1.1-2.5,2.5-3.2,4.4s-1.1,3.8-1.1,6c0,2.3,0.4,4.3,1.1,6c0.7,1.7,1.8,3.1,3.2,4.1C207.5,108.4,209.2,108.8,211.3,108.8z"/>
		<path class="st3" d="M231.3,113.9V81.1h4.8v5h0.4c0.6-1.6,1.7-2.9,3.3-3.9s3.3-1.5,5.3-1.5c0.4,0,0.8,0,1.4,0c0.5,0,1,0,1.3,0v5.1
			c-0.2,0-0.6-0.1-1.2-0.2c-0.6-0.1-1.3-0.1-1.9-0.1c-1.6,0-3,0.3-4.2,1c-1.3,0.7-2.2,1.6-2.9,2.7c-0.7,1.2-1.1,2.5-1.1,4v20.7
			C236.5,113.9,231.3,113.9,231.3,113.9z"/>
		<path class="st3" d="M259.7,114.6c-2.1,0-4-0.4-5.7-1.2s-3-1.9-4-3.4s-1.5-3.3-1.5-5.4c0-1.9,0.4-3.4,1.1-4.6
			c0.7-1.2,1.7-2.1,3-2.8c1.2-0.7,2.6-1.2,4.1-1.5c1.5-0.3,3-0.6,4.5-0.8c2-0.3,3.6-0.4,4.8-0.6c1.2-0.1,2.1-0.4,2.7-0.7
			c0.6-0.3,0.9-0.9,0.9-1.7v-0.2c0-2.1-0.6-3.7-1.7-4.9c-1.1-1.2-2.9-1.7-5.2-1.7c-2.4,0-4.3,0.5-5.6,1.6c-1.4,1-2.3,2.2-2.9,3.4
			l-4.8-1.7c0.9-2,2-3.5,3.4-4.7s3-1.9,4.7-2.3c1.7-0.4,3.4-0.7,5-0.7c1.1,0,2.3,0.1,3.6,0.4c1.4,0.2,2.7,0.8,4,1.5
			c1.3,0.8,2.4,1.9,3.2,3.5s1.3,3.6,1.3,6.2v21.6h-5v-4.5h-0.2c-0.3,0.7-0.9,1.5-1.7,2.3c-0.8,0.8-1.9,1.5-3.2,2.1
			S261.6,114.6,259.7,114.6z M260.5,110.1c2,0,3.7-0.4,5-1.2c1.4-0.8,2.4-1.8,3.1-3s1.1-2.5,1.1-3.9v-4.6c-0.2,0.3-0.7,0.5-1.4,0.7
			c-0.7,0.2-1.5,0.4-2.5,0.5c-0.9,0.2-1.8,0.3-2.7,0.4c-0.9,0.1-1.6,0.2-2.1,0.2c-1.3,0.2-2.5,0.5-3.7,0.8c-1.1,0.4-2,0.9-2.7,1.7
			c-0.7,0.7-1,1.8-1,3c0,1.7,0.6,3.1,1.9,3.9C256.8,109.7,258.5,110.1,260.5,110.1z"/>
		<path class="st3" d="M280.3,126.1v-45h4.8v5.2h0.6c0.4-0.6,0.9-1.3,1.6-2.2c0.7-0.9,1.6-1.7,2.9-2.4c1.2-0.7,2.9-1.1,5.1-1.1
			c2.8,0,5.2,0.7,7.3,2.1c2.1,1.4,3.7,3.3,4.9,5.9c1.2,2.5,1.8,5.5,1.8,9s-0.6,6.5-1.8,9s-2.8,4.5-4.9,5.9s-4.5,2.1-7.2,2.1
			c-2.1,0-3.8-0.4-5-1.1c-1.3-0.7-2.2-1.5-2.9-2.4c-0.7-0.9-1.2-1.7-1.6-2.2h-0.4v17.3L280.3,126.1L280.3,126.1z M294.6,110.1
			c2.1,0,3.8-0.6,5.2-1.7c1.4-1.1,2.5-2.6,3.2-4.5s1.1-4,1.1-6.3s-0.4-4.4-1.1-6.2c-0.7-1.9-1.8-3.3-3.1-4.4
			c-1.4-1.1-3.2-1.6-5.3-1.6c-2.1,0-3.8,0.5-5.2,1.5c-1.4,1-2.4,2.5-3.1,4.3s-1.1,4-1.1,6.5s0.4,4.6,1.1,6.5s1.8,3.4,3.2,4.4
			C290.9,109.5,292.6,110.1,294.6,110.1z"/>
		<path class="st3" d="M318.3,94.2v19.7h-5V70.2h5v16.1h0.5c0.8-1.7,1.9-3.1,3.4-4.1s3.6-1.5,6.2-1.5c2.2,0,4.2,0.4,5.9,1.3
			c1.7,0.9,3,2.2,3.9,4.1c0.9,1.8,1.4,4.1,1.4,7v20.8h-5V93.4c0-2.6-0.7-4.6-2-6.1c-1.3-1.4-3.2-2.1-5.6-2.1c-1.7,0-3.1,0.4-4.4,1.1
			s-2.3,1.7-3.1,3C318.7,90.7,318.3,92.3,318.3,94.2z"/>
		<path class="st3" d="M346.7,126.1c-0.9,0-1.6,0-2.3-0.2c-0.7-0.1-1.1-0.3-1.4-0.4l1.3-4.4l0.5,0.1c1.7,0.4,3.1,0.3,4.2-0.2
			s2.1-2,3-4.4l0.9-2.6l-12.1-32.9h5.4l9,26.1h0.4l9-26.1h5.4l-13.9,37.5c-0.6,1.7-1.4,3.1-2.3,4.2s-2,1.9-3.2,2.5
			C349.6,125.9,348.2,126.1,346.7,126.1z"/>
	</g>
</g>
<g>
	<g>
		<path class="st3" d="M1523.9,113.9V70.2h5.3v19.5h23.3V70.2h5.3v43.7h-5.3V94.4h-23.3v19.5H1523.9z"/>
		<path class="st3" d="M1577.9,114.6c-3.1,0-5.9-0.7-8.2-2.1s-4.1-3.4-5.3-5.9c-1.2-2.5-1.8-5.5-1.8-8.8c0-3.4,0.6-6.3,1.8-8.9
			c1.2-2.6,2.9-4.6,5.1-6s4.8-2.2,7.7-2.2c1.7,0,3.4,0.3,5.1,0.8c1.7,0.6,3.2,1.5,4.6,2.8s2.5,2.9,3.3,5s1.2,4.7,1.2,7.7v2.2h-25.3
			v-4.3h22.5l-2.3,1.6c0-2.2-0.3-4.1-1-5.8c-0.7-1.7-1.7-3-3.1-4s-3-1.5-5.1-1.5c-2,0-3.7,0.5-5.2,1.5c-1.4,1-2.5,2.3-3.3,3.9
			s-1.1,3.3-1.1,5.1v2.9c0,2.5,0.4,4.6,1.3,6.3c0.9,1.7,2.1,3,3.6,3.9s3.3,1.3,5.4,1.3c1.3,0,2.5-0.2,3.6-0.6s2-1,2.8-1.7
			c0.8-0.8,1.4-1.7,1.8-2.9l4.9,1.4c-0.5,1.6-1.4,3.1-2.6,4.3c-1.2,1.2-2.7,2.2-4.5,2.9C1582.1,114.2,1580.1,114.6,1577.9,114.6z"/>
		<path class="st3" d="M1604.8,114.6c-2.1,0-4-0.4-5.7-1.2s-3-1.9-4-3.4s-1.5-3.3-1.5-5.4c0-1.9,0.4-3.4,1.1-4.6s1.7-2.1,3-2.8
			c1.2-0.7,2.6-1.2,4.1-1.5s3-0.6,4.5-0.8c2-0.3,3.6-0.4,4.8-0.6c1.2-0.1,2.1-0.4,2.7-0.7c0.6-0.3,0.9-0.9,0.9-1.7v-0.2
			c0-2.1-0.6-3.7-1.7-4.9c-1.1-1.2-2.9-1.7-5.2-1.7c-2.4,0-4.3,0.5-5.6,1.6c-1.4,1-2.3,2.2-2.9,3.4l-4.8-1.7c0.9-2,2-3.5,3.4-4.7
			s3-1.9,4.7-2.3s3.4-0.7,5-0.7c1.1,0,2.3,0.1,3.6,0.4c1.4,0.2,2.7,0.8,4,1.5c1.3,0.8,2.4,1.9,3.2,3.5s1.3,3.6,1.3,6.2v21.6h-5v-4.5
			h-0.2c-0.3,0.7-0.9,1.5-1.7,2.3c-0.8,0.8-1.9,1.5-3.2,2.1S1606.7,114.6,1604.8,114.6z M1605.6,110.1c2,0,3.7-0.4,5-1.2
			c1.4-0.8,2.4-1.8,3.1-3s1.1-2.5,1.1-3.9v-4.6c-0.2,0.3-0.7,0.5-1.4,0.7c-0.7,0.2-1.5,0.4-2.5,0.5c-0.9,0.2-1.8,0.3-2.7,0.4
			c-0.9,0.1-1.6,0.2-2.1,0.2c-1.3,0.2-2.5,0.5-3.7,0.8s-2,0.9-2.7,1.7c-0.7,0.7-1,1.8-1,3c0,1.7,0.6,3.1,1.9,3.9
			C1601.9,109.7,1603.5,110.1,1605.6,110.1z"/>
		<path class="st3" d="M1637.7,114.6c-2.7,0-5.1-0.7-7.2-2.1s-3.7-3.4-4.9-5.9s-1.8-5.6-1.8-9s0.6-6.4,1.8-9
			c1.2-2.5,2.8-4.5,4.9-5.9s4.5-2.1,7.3-2.1c2.1,0,3.8,0.4,5.1,1.1c1.2,0.7,2.2,1.5,2.9,2.4c0.7,0.9,1.2,1.6,1.6,2.2h0.4V70.2h5
			v43.7h-4.8v-5h-0.6c-0.4,0.6-0.9,1.3-1.6,2.2s-1.7,1.7-2.9,2.4S1639.8,114.6,1637.7,114.6z M1638.3,110.1c2,0,3.7-0.5,5.1-1.6
			s2.4-2.5,3.2-4.4c0.7-1.9,1.1-4.1,1.1-6.5s-0.4-4.6-1.1-6.5s-1.8-3.3-3.1-4.3c-1.4-1-3.1-1.5-5.2-1.5s-3.9,0.5-5.3,1.6
			s-2.5,2.6-3.2,4.4c-0.7,1.9-1.1,3.9-1.1,6.2c0,2.3,0.4,4.4,1.1,6.3s1.8,3.4,3.2,4.5C1634.5,109.5,1636.3,110.1,1638.3,110.1z"/>
		<path class="st3" d="M1663.3,70.2v43.7h-5V70.2H1663.3z"/>
		<path class="st3" d="M1671.6,75.7c-1,0-1.8-0.3-2.5-1s-1.1-1.5-1.1-2.4s0.4-1.7,1.1-2.4c0.7-0.7,1.5-1,2.5-1s1.8,0.3,2.5,1
			s1.1,1.5,1.1,2.4s-0.4,1.7-1.1,2.4S1672.5,75.7,1671.6,75.7z M1669.1,113.9V81.1h5v32.8C1674.1,113.9,1669.1,113.9,1669.1,113.9z"
			/>
		<path class="st3" d="M1684.8,94.2v19.7h-5V81.1h4.8v5.2h0.5c0.8-1.7,1.9-3,3.5-4s3.6-1.5,6.1-1.5c2.2,0,4.1,0.4,5.8,1.3
			c1.7,0.9,3,2.3,3.9,4.1c0.9,1.8,1.4,4.1,1.4,6.9v20.8h-5V93.4c0-2.6-0.7-4.6-2-6c-1.3-1.5-3.2-2.2-5.5-2.2c-1.6,0-3,0.4-4.3,1.1
			s-2.3,1.7-3,3C1685.1,90.7,1684.8,92.3,1684.8,94.2z"/>
		<path class="st3" d="M1724.9,114.6c-3.1,0-5.9-0.7-8.2-2.1s-4.1-3.4-5.3-5.9c-1.2-2.5-1.8-5.5-1.8-8.8c0-3.4,0.6-6.3,1.8-8.9
			c1.2-2.6,2.9-4.6,5.1-6s4.8-2.2,7.7-2.2c1.7,0,3.4,0.3,5.1,0.8c1.7,0.6,3.2,1.5,4.6,2.8s2.5,2.9,3.3,5s1.2,4.7,1.2,7.7v2.2h-25.3
			v-4.3h22.5l-2.3,1.6c0-2.2-0.3-4.1-1-5.8c-0.7-1.7-1.7-3-3.1-4s-3-1.5-5.1-1.5c-2,0-3.7,0.5-5.2,1.5c-1.4,1-2.5,2.3-3.3,3.9
			s-1.1,3.3-1.1,5.1v2.9c0,2.5,0.4,4.6,1.3,6.3c0.9,1.7,2.1,3,3.6,3.9s3.3,1.3,5.4,1.3c1.3,0,2.5-0.2,3.6-0.6s2-1,2.8-1.7
			c0.8-0.8,1.4-1.7,1.8-2.9l4.9,1.4c-0.5,1.6-1.4,3.1-2.6,4.3c-1.2,1.2-2.7,2.2-4.5,2.9C1729.1,114.2,1727.1,114.6,1724.9,114.6z"/>
		<path class="st3" d="M1771.4,81.1v4.3h-16.9v-4.3H1771.4z M1759.4,73.3h5v31.2c0,1.7,0.4,2.9,1.1,3.7s1.8,1.2,3.3,1.2
			c0.3,0,0.7,0,1-0.1c0.4,0,0.8-0.1,1.2-0.2l1.1,4.5c-0.5,0.2-1,0.3-1.7,0.4s-1.4,0.2-2,0.2c-2.6,0-4.8-0.8-6.4-2.3
			c-1.7-1.6-2.5-3.6-2.5-6.1L1759.4,73.3L1759.4,73.3z"/>
		<path class="st3" d="M1779.3,126.1c-0.9,0-1.6,0-2.3-0.2c-0.7-0.1-1.1-0.3-1.4-0.4l1.3-4.4l0.5,0.1c1.7,0.4,3.1,0.3,4.2-0.2
			s2.1-2,3-4.4l0.9-2.6l-12.1-32.9h5.4l9,26.1h0.4l9-26.1h5.4l-13.9,37.5c-0.6,1.7-1.4,3.1-2.3,4.2s-2,1.9-3.2,2.5
			C1782.2,125.9,1780.8,126.1,1779.3,126.1z"/>
		<path class="st3" d="M1805.6,126.1v-45h4.8v5.2h0.6c0.4-0.6,0.9-1.3,1.6-2.2c0.7-0.9,1.6-1.7,2.9-2.4s2.9-1.1,5.1-1.1
			c2.8,0,5.2,0.7,7.3,2.1s3.7,3.3,4.9,5.9c1.2,2.5,1.8,5.5,1.8,9s-0.6,6.5-1.8,9s-2.8,4.5-4.9,5.9s-4.5,2.1-7.2,2.1
			c-2.1,0-3.8-0.4-5-1.1s-2.2-1.5-2.9-2.4s-1.2-1.7-1.6-2.2h-0.4v17.3L1805.6,126.1L1805.6,126.1z M1819.9,110.1
			c2.1,0,3.8-0.6,5.2-1.7c1.4-1.1,2.5-2.6,3.2-4.5s1.1-4,1.1-6.3s-0.4-4.4-1.1-6.2c-0.7-1.9-1.8-3.3-3.1-4.4
			c-1.4-1.1-3.2-1.6-5.3-1.6c-2.1,0-3.8,0.5-5.2,1.5s-2.4,2.5-3.1,4.3s-1.1,4-1.1,6.5s0.4,4.6,1.1,6.5s1.8,3.4,3.2,4.4
			C1816.2,109.5,1817.9,110.1,1819.9,110.1z"/>
		<path class="st3" d="M1852.2,114.6c-3.1,0-5.9-0.7-8.2-2.1c-2.3-1.4-4.1-3.4-5.3-5.9c-1.2-2.5-1.8-5.5-1.8-8.8
			c0-3.4,0.6-6.3,1.8-8.9c1.2-2.6,2.9-4.6,5.1-6s4.8-2.2,7.7-2.2c1.7,0,3.4,0.3,5.1,0.8c1.7,0.6,3.2,1.5,4.6,2.8s2.5,2.9,3.3,5
			s1.2,4.7,1.2,7.7v2.2h-25.3v-4.3h22.5l-2.3,1.6c0-2.2-0.3-4.1-1-5.8s-1.7-3-3.1-4s-3-1.5-5.1-1.5s-3.7,0.5-5.2,1.5
			c-1.4,1-2.5,2.3-3.3,3.9s-1.1,3.3-1.1,5.1v2.9c0,2.5,0.4,4.6,1.3,6.3c0.9,1.7,2.1,3,3.6,3.9s3.3,1.3,5.4,1.3
			c1.3,0,2.5-0.2,3.6-0.6s2-1,2.8-1.7c0.8-0.8,1.4-1.7,1.8-2.9l4.9,1.4c-0.5,1.6-1.4,3.1-2.6,4.3c-1.2,1.2-2.7,2.2-4.5,2.9
			S1854.5,114.6,1852.2,114.6z"/>
		<path class="st3" d="M1883.7,81.1v4.3H1866v-4.3H1883.7z M1871.3,113.9V76.6c0-1.9,0.4-3.4,1.3-4.7c0.9-1.2,2-2.2,3.4-2.8
			c1.4-0.6,2.9-0.9,4.4-0.9c1.2,0,2.3,0.1,3.1,0.3s1.4,0.4,1.7,0.6l-1.5,4.3c-0.3-0.1-0.6-0.2-1-0.3c-0.4-0.1-1-0.2-1.8-0.2
			c-1.7,0-2.9,0.4-3.6,1.3s-1.1,2.1-1.1,3.7v36H1871.3z"/>
		<path class="st3" d="M1896,114.6c-2.1,0-4-0.4-5.7-1.2s-3-1.9-4-3.4s-1.5-3.3-1.5-5.4c0-1.9,0.4-3.4,1.1-4.6s1.7-2.1,3-2.8
			s2.6-1.2,4.1-1.5s3-0.6,4.5-0.8c2-0.3,3.6-0.4,4.8-0.6c1.2-0.1,2.1-0.4,2.7-0.7c0.6-0.3,0.9-0.9,0.9-1.7v-0.2
			c0-2.1-0.6-3.7-1.7-4.9c-1.1-1.2-2.9-1.7-5.2-1.7c-2.4,0-4.3,0.5-5.6,1.6c-1.4,1-2.3,2.2-2.9,3.4l-4.8-1.7c0.9-2,2-3.5,3.4-4.7
			s3-1.9,4.7-2.3s3.4-0.7,5-0.7c1.1,0,2.3,0.1,3.6,0.4c1.4,0.2,2.7,0.8,4,1.5c1.3,0.8,2.4,1.9,3.2,3.5s1.3,3.6,1.3,6.2v21.6h-5v-4.5
			h-0.2c-0.3,0.7-0.9,1.5-1.7,2.3c-0.8,0.8-1.9,1.5-3.2,2.1S1897.9,114.6,1896,114.6z M1896.8,110.1c2,0,3.7-0.4,5-1.2
			c1.4-0.8,2.4-1.8,3.1-3s1.1-2.5,1.1-3.9v-4.6c-0.2,0.3-0.7,0.5-1.4,0.7s-1.5,0.4-2.5,0.5c-0.9,0.2-1.8,0.3-2.7,0.4
			c-0.9,0.1-1.6,0.2-2.1,0.2c-1.3,0.2-2.5,0.5-3.7,0.8c-1.1,0.4-2,0.9-2.7,1.7c-0.7,0.7-1,1.8-1,3c0,1.7,0.6,3.1,1.9,3.9
			C1893.1,109.7,1894.7,110.1,1896.8,110.1z"/>
		<path class="st3" d="M1929.8,114.6c-3,0-5.7-0.7-7.9-2.2c-2.2-1.5-3.9-3.5-5.1-6s-1.8-5.4-1.8-8.7c0-3.3,0.6-6.3,1.8-8.8
			s3-4.5,5.2-6c2.2-1.4,4.8-2.2,7.8-2.2c2.3,0,4.4,0.4,6.2,1.3s3.4,2,4.5,3.6c1.2,1.5,1.9,3.3,2.2,5.4h-5c-0.3-1-0.7-1.9-1.4-2.8
			c-0.7-0.9-1.5-1.6-2.6-2.1s-2.4-0.8-3.9-0.8c-2,0-3.7,0.5-5.1,1.5c-1.5,1-2.6,2.4-3.4,4.3s-1.2,4-1.2,6.5s0.4,4.7,1.2,6.6
			c0.8,1.9,1.9,3.3,3.4,4.4c1.5,1,3.2,1.6,5.2,1.6s3.7-0.5,5.1-1.5s2.3-2.4,2.8-4.2h5c-0.3,1.9-1,3.7-2.1,5.2s-2.6,2.8-4.4,3.7
			S1932.3,114.6,1929.8,114.6z"/>
		<path class="st3" d="M1960.1,114.6c-3.1,0-5.9-0.7-8.2-2.1s-4.1-3.4-5.3-5.9c-1.2-2.5-1.8-5.5-1.8-8.8c0-3.4,0.6-6.3,1.8-8.9
			c1.2-2.6,2.9-4.6,5.1-6s4.8-2.2,7.7-2.2c1.7,0,3.4,0.3,5.1,0.8c1.7,0.6,3.2,1.5,4.6,2.8s2.5,2.9,3.3,5s1.2,4.7,1.2,7.7v2.2h-25.3
			v-4.3h22.5l-2.3,1.6c0-2.2-0.3-4.1-1-5.8c-0.7-1.7-1.7-3-3.1-4s-3-1.5-5.1-1.5c-2,0-3.7,0.5-5.2,1.5c-1.4,1-2.5,2.3-3.3,3.9
			s-1.1,3.3-1.1,5.1v2.9c0,2.5,0.4,4.6,1.3,6.3c0.9,1.7,2.1,3,3.6,3.9s3.3,1.3,5.4,1.3c1.3,0,2.5-0.2,3.6-0.6s2-1,2.8-1.7
			c0.8-0.8,1.4-1.7,1.8-2.9l4.9,1.4c-0.5,1.6-1.4,3.1-2.6,4.3c-1.2,1.2-2.7,2.2-4.5,2.9C1964.3,114.2,1962.3,114.6,1960.1,114.6z"/>
	</g>
</g>
<g>
	<g>
		<path class="st3" d="M1547.4,483.4l-3.3,26.6h-25.6l24.7-149.6h35.2l24.7,149.6h-25.6l-3.3-26.6H1547.4z M1563.5,409.6l-2.1-24.5
			h-1.2l-2.1,24.5l-7.6,52.2h20.4L1563.5,409.6z"/>
		<path class="st3" d="M1670.9,429.8c0,0,21.6,3.3,21.6,30.1v9.5c0,26.8-11.8,40.6-42.7,40.6h-34.2V360.5h32
			c27.8,0,40.6,12.8,40.6,38.1v5.2c0,21.8-17.3,25.1-17.3,25.1V429.8z M1647.6,419.2c10.5,0,14.8-4.3,14.8-14.8V398
			c0-10.7-4.3-15-14.8-15h-6.4v36.1h6.4V419.2z M1649.7,487.5c11.7,0,16.9-5.2,16.9-18.1v-9.5c0-12.8-5.2-18.3-16.9-18.3h-8.5v45.8
			h8.5V487.5z"/>
		<path class="st3" d="M1780.1,449.3c0,0,2.1,12.6,2.1,25.4c0,24.7-12.8,37.5-37.3,37.5c-25.6,0-38.5-12.8-38.5-40.6V399
			c0-27.8,12.8-40.6,38.5-40.6c23.5,0,37.3,13.8,37.3,37.5c0,11.7-2.1,23.3-2.1,23.3h-22.5V399c0-13.8-4.3-18.1-12.6-18.1
			c-8.5,0-12.8,4.3-12.8,18.1v72.6c0,13.8,4.3,18.1,12.8,18.1c8.4,0,12.6-4.3,12.6-18.1v-22.3L1780.1,449.3L1780.1,449.3z"/>
		<path class="st3" d="M1797.7,360.5h33c27.8,0,41.8,14,41.8,41.8v66c0,28-14,41.8-41.8,41.8h-33V360.5z M1830.8,487.5
			c10.7,0,15.9-5.2,15.9-19.2v-66c0-14-5.2-19.2-15.9-19.2h-7.4v104.5L1830.8,487.5L1830.8,487.5z"/>
		<path class="st3" d="M1889,510.1V360.5h65.1V383h-39.4v38.3h27.6v22.5h-27.6v43.7h41.6V510H1889V510.1z"/>
		<path class="st3" d="M1970.1,510.1V360.5h65.1V383h-39.4v42.5h27.6V448h-27.6v62h-25.7V510.1z"/>
		<path class="st3" d="M2109.6,494.1h-1c0,0-5.4,18.1-26.8,18.1c-22.3,0-35.2-12.8-35.2-40.6V399c0-27.8,12.8-40.6,38.5-40.6
			c23.5,0,36.3,12.8,36.3,37.5c0,8.2-1.2,18.1-1.2,18.1h-22.5v-15c0-13.8-4.3-18.1-12.6-18.1c-8.5,0-12.8,4.3-12.8,18.1v72.6
			c0,12.8,5.2,18.1,13.8,18.1c8.5,0,13.8-5.2,13.8-18.1v-15H2084v-22.5h41.8V510H2114L2109.6,494.1z"/>
		<path class="st3" d="M2141.7,510.1V360.5h25.6v60.8h25.4v-60.8h25.8v149.6h-25.8v-66.2h-25.4v66.2L2141.7,510.1L2141.7,510.1z"/>
		<path class="st3" d="M2262,510.1h-25.6V360.5h25.6V510.1z"/>
		<path class="st3" d="M2297.3,360.5h25.6V478c0,23.5-10.7,34.2-30.9,34.2c-10.9,0-18.3-3.5-18.3-3.5v-22.1c0,0,6.4,2.1,11.8,2.1
			c8.5,0,11.7-3.3,11.7-14L2297.3,360.5L2297.3,360.5z"/>
		<path class="st3" d="M2366.2,420.3h7.4l20.2-59.8h28l-24.7,70.5l26.8,79.1h-28l-22.3-67.2h-7.4v67.2h-25.6V360.5h25.6V420.3z"/>
		<path class="st3" d="M2503.2,510.1H2436V360.5h25.6v127h41.6L2503.2,510.1L2503.2,510.1z"/>
		<path class="st3" d="M2563.7,510.1l-18.1-74.8l-4.3-21.4h-1.2l1.2,21.4v74.8h-25.6V360.5h33l20.2,83.3l2.1,21.4h1.2l2.1-21.4
			l20.4-83.3h33v149.6h-25.6v-74.8l1.2-21.4h-1.2l-4.3,21.4l-18.1,74.8L2563.7,510.1L2563.7,510.1z"/>
		<path class="st3" d="M2645.8,510.1V360.5h28.7l26.6,94h1.2l-3.3-21.4v-72.6h25.8v149.6h-28.9l-26.6-94.2h-1.2l3.3,21.6v72.6
			L2645.8,510.1L2645.8,510.1z"/>
		<path class="st3" d="M1604.1,704.7c0,27.8-12.8,40.6-38.5,40.6c-25.6,0-38.5-12.8-38.5-40.6V632c0-27.8,12.8-40.6,38.5-40.6
			c25.6,0,38.5,12.8,38.5,40.6V704.7z M1578.3,632c0-13.8-4.3-18.1-12.6-18.1c-8.5,0-12.8,4.3-12.8,18.1v72.6
			c0,13.8,4.3,18.1,12.8,18.1c8.4,0,12.6-4.3,12.6-18.1V632z"/>
		<path class="st3" d="M1646.4,743.1h-25.6V593.6h33c27.8,0,41.8,14,41.8,41.8V648c0,28-14,41.8-41.8,41.8h-7.4V743.1z
			 M1669.7,635.3c0-14-5.2-19.2-19-19.2h-4.3v51.1h4.3c13.8,0,19-5.2,19-19.2V635.3z"/>
		<path class="st3" d="M1755.4,756.3c0,6,3.1,9.3,10.7,9.3c5.4,0,10.7-2.1,10.7-2.1v17.1c0,0-5.2,3.1-15,3.1
			c-17.1,0-26.6-10.7-26.6-22.3c0-9.7,4.3-16.1,4.3-16.1c-18.3-2.1-29.9-14-29.9-40.6V632c0-27.8,12.8-40.6,38.5-40.6
			c25.6,0,38.5,12.8,38.5,40.6v72.6c0,24.7-11.8,36.3-28,39.6C1758.5,744.3,1755.4,750.7,1755.4,756.3z M1760.6,632
			c0-13.8-4.3-18.1-12.6-18.1c-8.5,0-12.8,4.3-12.8,18.1v72.6c0,13.8,4.3,18.1,12.8,18.1c8.4,0,12.6-4.3,12.6-18.1V632z"/>
		<path class="st3" d="M1877.8,641.8c0,26.6-19.4,29.7-19.4,29.7v1.2c0,0,16.1,3.3,16.1,21.4v27.8c0,9.5,4.3,14,8.5,14v7.4h-18
			c-9.7,0-16.1-6.4-16.1-21.4V695c0-8.4-3.3-11.7-12.8-11.7h-7.4v59.8h-25.6V593.6h33c27.8,0,41.8,14,41.8,41.8L1877.8,641.8
			L1877.8,641.8z M1836.1,660.8c10.7,0,15.9-5.2,15.9-19v-6.4c0-14-5.2-19.2-15.9-19.2h-7.4v44.7L1836.1,660.8L1836.1,660.8z"/>
		<path class="st3" d="M1938.8,644.9c0,0,1.2-8.7,1.2-15c0-11.7-4.3-15.9-10.7-15.9c-7.4,0-11.8,4.3-11.8,15v2.1
			c0,22.3,48.2,35.2,48.2,72.4v4.3c0,24.7-12.8,37.5-37.3,37.5c-22.5,0-36.5-14-36.5-34.2c0-10.7,2.3-19.2,2.3-19.2h22.3
			c0,0-1.2,8.5-1.2,15c0,11.7,4.5,15.9,13,15.9c7.4,0,11.7-4.3,11.7-15v-4.3c0-22.3-48.2-35.2-48.2-72.4V629
			c0-24.7,13-37.5,37.5-37.5c24.7,0,34.2,12.8,34.2,34.2c0,10.7-2.1,19.2-2.1,19.2H1938.8z"/>
		<path class="st3" d="M1975.4,593.6h74.8v22.5h-24.7v127h-25.6v-127h-24.5V593.6z"/>
		<path class="st3" d="M2139.5,593.6v112.1c0,26.8-12.8,39.6-38.5,39.6c-25.6,0-38.5-12.8-38.5-39.6V593.6h25.6v112.1
			c0,12.8,4.3,17.1,12.8,17.1s12.8-4.3,12.8-17.1V593.6H2139.5z"/>
		<path class="st3" d="M2210,593.6h26.8l-24.7,149.6H2177l-24.7-149.6h26.8L2192,694l2.1,23.5h1.2l2.1-23.5L2210,593.6z"/>
		<path class="st3" d="M2264,743.1l-17.1-149.6h25.6l8.5,91.9l1.2,19.2h1l2.1-19.2l15-91.9h20.4l15,91.9l2.1,19.2h1l1.2-19.2
			l8.4-91.9h25.6l-17.1,149.6h-29.7l-15-87.6l-1.2-19.2h-1.2l-1,19.2l-15,87.6H2264z"/>
		<path class="st3" d="M2426.3,638.5l15-44.9h26.8l-25.8,70.5l28,79h-26.8l-17.1-53.4h-1l-17.3,53.4h-26.6l27.8-79l-25.6-70.5h26.6
			l15.1,44.9H2426.3z"/>
		<path class="st3" d="M2531,743.1h-25.6v-52.2l-29.9-97.3h26.6l15.5,64.1h1.2l15.3-64.1h26.8l-29.9,97.3L2531,743.1L2531,743.1z"/>
		<path class="st3" d="M2596,720.6h43.9v22.5h-71.7v-19.2l43.9-107.8h-41.8v-22.5h69.5v19.2L2596,720.6z"/>
		<path class="st3" d="M1552.8,912.1l14.8-9.7v-4.3c0-9.5-4.1-13.8-9.5-13.8c-5.2,0-9.7,4.3-9.7,12.8v8.5h-21.2
			c0,0-2.3-5.4-2.3-11.8c0-18.1,13-30.9,33.2-30.9c21.4,0,34.2,12.8,34.2,35.2v52.4c0,17.1,4.3,21.4,4.3,21.4v4.3H1573
			c0,0-4.3-6.4-4.3-18.3h-1.2c0,0-5.2,20.4-23.5,20.4c-12.8,0-21.2-8.5-21.2-25.6C1522.9,934.5,1531.2,925.7,1552.8,912.1z
			 M1567.6,921.8l-10.5,7.4c-7.6,5.1-10.9,8.5-10.9,17.1c0,6.4,3.3,9.5,9.7,9.5c6.4,0,11.7-5.2,11.7-15L1567.6,921.8L1567.6,921.8z"
			/>
		<path class="st3" d="M1679.6,944.2c0,24.7-9.7,34.2-23.7,34.2c-16.9,0-23.5-20.4-23.5-20.4h-1l2.1,9.7v8.5H1609v-156h24.5v53.4
			l-2.1,9.5h1c0,0,6.6-20.2,23.5-20.2c14,0,23.7,9.7,23.7,34.2V944.2z M1633.6,940.9c0,10.7,4.3,15,10.7,15c6.4,0,10.7-4.3,10.7-15
			v-40.6c0-10.7-4.3-15-10.7-15c-6.4,0-10.7,4.3-10.7,15V940.9z"/>
		<path class="st3" d="M1693.3,899.3c0-23.5,12.8-36.3,35.3-36.3c21.2,0,34.2,12.8,34.2,33c0,7.6-2.1,15.2-2.1,15.2h-21.6v-11.8
			c0-10.7-4.3-15-10.5-15c-6.4,0-10.9,4.3-10.9,15V942c0,10.7,4.5,15,10.9,15c6.2,0,10.5-4.3,10.5-15v-12.8h21.6
			c0,0,2.1,6.4,2.1,16.1c0,20.2-13,33-34.2,33c-22.5,0-35.3-12.8-35.3-36.3V899.3z"/>
		<path class="st3" d="M1775.7,897.2c0-24.5,9.7-34.2,23.5-34.2c17.1,0,23.5,20.2,23.5,20.2h1l-2.1-9.5v-53.4h24.7v156h-24.7v-8.5
			l2.1-9.7h-1c0,0-6.4,20.4-23.5,20.4c-13.8,0-23.5-9.5-23.5-34.2V897.2z M1821.6,900.3c0-10.7-4.3-15-10.5-15
			c-6.4,0-10.9,4.3-10.9,15v40.6c0,10.7,4.5,15,10.9,15c6.2,0,10.5-4.3,10.5-15V900.3z"/>
		<path class="st3" d="M1885.2,928.1v14c0,10.7,4.5,15,10.9,15c6.2,0,10.5-4.3,10.5-12.8v-6.4h21.6c0,0,2.1,4.3,2.1,10.7
			c0,17.1-11.8,29.9-34.2,29.9c-22.7,0-35.3-12.8-35.3-36.3v-42.7c0-23.5,12.8-36.3,35.3-36.3c22.3,0,35.2,12.8,35.2,36.3v28.7
			h-46.1V928.1z M1885.2,907.9h21.4v-8.5c0-10.7-4.3-15-10.5-15c-6.4,0-10.9,4.3-10.9,15V907.9z"/>
		<path class="st3" d="M2048.5,886.5h-18.1v89.7h-24.7v-89.7h-25.4v89.7h-24.7v-89.7h-12.8v-21.4h14c0,0-5.4-6.4-5.4-13.8
			c0-11.8,10.7-22.5,26.8-22.5c12.6,0,18.1,3.1,18.1,3.1v21.6c0,0-4.9-2.1-12.4-2.1c-5.6,0-7.8,2.1-7.8,6.6c0,4.1,3.1,7.2,3.1,7.2
			h27.8c0,0-5.4-8.5-5.4-15.9c0-16.1,13-28.9,30.1-28.9c9.5,0,14.8,3.1,14.8,3.1v21.6c0,0-4.9-2.1-10.1-2.1
			c-5.8,0-10.1,4.3-10.1,10.7c0,5.2,4.3,11.7,4.3,11.7h18.1v21.1H2048.5z"/>
		<path class="st3" d="M2129.5,913.3c0,21.2-14,35.2-35.3,35.2c-10.7,0-16.1-3.1-16.1-3.1s-1,2.1-1,6.2c0,3.3,2.1,5.4,7.4,5.4h15.2
			c21.4,0,34.2,12.8,34.2,32s-12.8,32-41.8,32c-23.5,0-35.2-11.7-35.2-26.6c0-18.3,17.1-22.5,17.1-22.5v-0.8c0,0-14-2.3-14-16.3
			c0-10.1,8.5-16.1,8.5-16.1s-9.7-7.4-9.7-25.4v-15.1c0-21.4,14-35.2,35.3-35.2c10.7,0,19.2,4.3,19.2,4.3s4.3-3.1,4.3-9.5V846h20.4
			c0,0,1,4.3,1,7.6c0,17.1-17.1,21.4-17.1,21.4s7.6,8.4,7.6,23.3L2129.5,913.3L2129.5,913.3z M2084.4,975.3c0,0-5.2,5.2-5.2,12.8
			c0,8.5,5.2,13.8,16.1,13.8c9.5,0,14.8-5.2,14.8-12.8c0-8.5-5.2-13.8-13.8-13.8H2084.4z M2082.3,913.3c0,9.5,5.4,14.8,11.8,14.8
			c6.4,0,11.7-5.2,11.7-14.8v-15.1c0-9.5-5.2-15-11.7-15c-6.4,0-11.8,5.4-11.8,15V913.3z"/>
		<path class="st3" d="M2194.1,976.2v-75.9c0-10.7-4.3-15-9.5-15c-6.4,0-11.8,5.4-11.8,15v75.9h-24.5v-156h24.5v53.4l-2.1,9.5h1
			c0,0,6.6-20.2,23.5-20.2c14,0,23.7,9.7,23.7,30.9v82.4L2194.1,976.2L2194.1,976.2z"/>
		<path class="st3" d="M2234.2,826.7h24.5v25.6h-24.5V826.7z M2234.2,865.1h24.5v111.1h-24.5V865.1z"/>
		<path class="st3" d="M2274.5,865.1h24.5v126.1c0,18.3-12.8,29.9-27.8,29.9c-9.7,0-15-3.1-15-3.1v-21.4c0,0,4.3,2.1,9.5,2.1
			c5.4,0,8.7-3.3,8.7-10.7V865.1H2274.5z M2274.5,826.7h24.5v25.6h-24.5V826.7z"/>
		<path class="st3" d="M2385.9,865.1l-19.2,52.4l21.4,58.7h-24.7l-16.9-48.2h-7.6v48.2h-24.5v-156h24.5v86.4h7.6l14.8-41.6
			L2385.9,865.1L2385.9,865.1z"/>
		<path class="st3" d="M2398.3,820.3h24.5v156h-24.5V820.3z"/>
		<path class="st3" d="M2525.8,976.2v-75.9c0-10.7-4.3-15-9.7-15c-5.2,0-9.5,5.4-9.5,15v75.9h-24.7v-75.9c0-10.7-4.3-15-9.5-15
			c-5.4,0-9.7,5.4-9.7,15v75.9h-24.5V865.1h24.5v8.5l-2.1,9.5h1c0,0,5.4-20.2,21.4-20.2c18.3,0,21.6,20.2,21.6,20.2h1
			c0,0,5.4-20.2,21.4-20.2c15,0,23.5,8.5,23.5,30.9v82.4H2525.8z"/>
		<path class="st3" d="M2611.7,976.2v-75.9c0-10.7-4.3-15-9.5-15c-6.4,0-11.8,5.4-11.8,15v75.9h-24.5V865.1h24.5v8.5l-2.1,9.5h1
			c0,0,6.6-20.2,23.5-20.2c14,0,23.7,9.7,23.7,30.9v82.4H2611.7z"/>
		<path class="st3" d="M1596.5,1175.1c0,23.5-12.8,36.3-35.2,36.3c-22.5,0-35.3-12.8-35.3-36.3v-42.7c0-23.5,12.8-36.3,35.3-36.3
			c22.3,0,35.2,12.8,35.2,36.3V1175.1z M1550.5,1175.1c0,10.7,4.5,15,10.9,15c6.2,0,10.5-4.3,10.5-15v-42.7c0-10.7-4.3-15-10.5-15
			c-6.4,0-10.9,4.3-10.9,15V1175.1z"/>
		<path class="st3" d="M1681.5,1177.3c0,24.7-9.7,34.2-23.7,34.2c-16.9,0-23.5-20.4-23.5-20.4h-1l2.1,9.7v51.3H1611v-153.8h24.5v8.5
			l-2.1,9.5h1c0,0,6.6-20.2,23.5-20.2c14,0,23.7,9.7,23.7,34.2L1681.5,1177.3L1681.5,1177.3z M1635.5,1174c0,10.7,4.3,15,10.7,15
			c6.4,0,10.7-4.3,10.7-15v-40.6c0-10.7-4.3-15-10.7-15c-6.4,0-10.7,4.3-10.7,15V1174z"/>
		<path class="st3" d="M1695.6,1130.3c0-24.5,9.7-34.2,23.5-34.2c17.1,0,23.5,20.2,23.5,20.2h1l-2.1-9.5v-8.5h24.7V1252h-24.7v-51.3
			l2.1-9.7h-1c0,0-6.4,20.4-23.5,20.4c-13.8,0-23.5-9.5-23.5-34.2V1130.3z M1741.4,1133.4c0-10.7-4.3-15-10.5-15
			c-6.4,0-10.9,4.3-10.9,15v40.6c0,10.7,4.5,15,10.9,15c6.2,0,10.5-4.3,10.5-15V1133.4z"/>
		<path class="st3" d="M1824.2,1122.7c-12.6,0-18.1,5.4-18.1,19.4v67.2h-24.5v-111.1h24.5v9.7l-2.1,10.5h1c0,0,5.4-21.2,23.5-21.2
			h4.3v25.4L1824.2,1122.7L1824.2,1122.7z"/>
		<path class="st3" d="M1910.3,1177.3v2.1c0,20.2-11.8,32-34.2,32c-22.5,0-34.2-11.8-34.2-29.9c0-6.4,1.9-11.8,1.9-11.8h21.4v8.7
			c0,7.4,4.3,11.7,10.9,11.7c5.2,0,9.5-4.3,9.5-10.7v-2.1c0-15-43.7-19.2-43.7-49.1c0-20.2,11.7-32,34.6-32
			c19.8,0,31.7,11.8,31.7,29.9c0,6.4-2.1,10.7-2.1,10.7h-20.4v-7.6c0-7.4-4.3-11.7-9.5-11.7c-5.4,0-9.7,4.3-9.7,10.7
			C1866.4,1143.1,1910.3,1147.4,1910.3,1177.3z"/>
		<path class="st3" d="M1974.6,1119.6h-18.1v58.9c0,7.4,3.1,10.5,8.4,10.5c5.4,0,9.7-2.1,9.7-2.1v21.6c0,0-5.4,3.1-15.9,3.1
			c-16.1,0-26.8-10.7-26.8-29.9v-62H1919v-21.4h12.8v-25.6h24.7v25.6h18.1V1119.6z"/>
		<path class="st3" d="M2040.7,1119.6h-18.1v58.9c0,7.4,3.1,10.5,8.4,10.5c5.4,0,9.7-2.1,9.7-2.1v21.6c0,0-5.4,3.1-15.9,3.1
			c-16.1,0-26.8-10.7-26.8-29.9v-62h-12.8v-21.4h12.8v-25.6h24.7v25.6h18.1L2040.7,1119.6L2040.7,1119.6z"/>
		<path class="st3" d="M2078.2,1098.2v75.7c0,10.7,4.3,15,9.7,15c6.2,0,11.7-5.2,11.7-15v-75.7h24.7v111.1h-24.7v-8.5l2.1-9.7h-1.2
			c0,0-6.4,20.4-23.5,20.4c-13.8,0-23.3-9.5-23.3-30.9v-82.4H2078.2z"/>
		<path class="st3" d="M2161.3,1098.2l9.7,68.4l1.2,18.1h1l1.2-18.1l9.5-68.4h25.6l-20.4,111.1h-33l-20.4-111.1H2161.3z"/>
		<path class="st3" d="M2234.7,1209.3l-16.1-111.1h24.5l6.6,62l1,19.2h1.2l1-19.2l11.7-62h18.3l11.8,62l1,19.2h1.2l1-19.2l6.4-62
			h24.5l-15.9,111.1H2287l-11.8-57.7l-1-19.2h-1.2l-1,19.2l-11.7,57.7H2234.7z"/>
		<path class="st3" d="M2374.4,1130.3h1l10.7-32h25.6l-20.4,52.4l23.7,58.7h-26.8l-12.8-38.5h-1l-13,38.5h-26.6l23.5-58.7
			l-20.4-52.4h25.6L2374.4,1130.3z"/>
		<path class="st3" d="M2449.3,1215.7l-29.9-117.5h24.7l14,66.2l2.1,19.2h1l2.1-19.2l8.5-66.2h24.7l-23.7,117.5
			c-5.4,27.8-15.9,38.5-30.9,38.5c-8.5,0-15-3.1-15-3.1v-21c0,0,4.3,1.7,8.5,1.7C2441.9,1231.8,2446.2,1227.6,2449.3,1215.7z"/>
		<path class="st3" d="M2533.6,1215.7l-29.9-117.5h24.7l14,66.2l2.1,19.2h1l2.1-19.2l8.5-66.2h24.7l-23.7,117.5
			c-5.4,27.8-15.9,38.5-30.9,38.5c-8.5,0-15-3.1-15-3.1v-21c0,0,4.3,1.7,8.5,1.7C2526.2,1231.8,2530.5,1227.6,2533.6,1215.7z"/>
		<path class="st3" d="M2651.2,1116.1L2616,1188h35.2v21.4h-62.9v-18.3l35.3-71.5h-33.2v-21.4h60.8L2651.2,1116.1L2651.2,1116.1z"/>
		<path class="st3" d="M1600.8,1409.4c0,23.3-11.7,35.2-37.3,35.2c-25.6,0-37.5-11.8-37.5-35.2v-83.3c0-23.7,11.8-35.3,37.5-35.3
			c25.6,0,37.3,11.7,37.3,35.3V1409.4z M1575.1,1326.1c0-8.5-4.3-12.8-11.7-12.8c-7.6,0-11.8,4.3-11.8,12.8v83.3
			c0,8.4,4.3,12.6,11.8,12.6c7.4,0,11.7-4.3,11.7-12.6V1326.1z"/>
		<path class="st3" d="M1658.2,1292.9v149.6h-25.6V1339l2.1-14h-1c0,0-5.4,6.4-20.4,6.4v-23.5c16.1,0,23.5-7.6,24.5-15H1658.2z"/>
		<path class="st3" d="M1748.8,1442.4h-75.9V1422c0-43.7,50.1-54.4,50.1-80v-15.9c0-8.5-4.3-12.8-10.5-12.8
			c-7.6,0-11.8,4.3-11.8,13.8c0,15,1.9,25.6,2.1,25.6h-24.5c0,0-3.3-10.7-3.3-25.6c0-23.5,12.8-36.3,37.5-36.3
			c24.5,0,36.3,12.8,36.3,35.3v15c0,41.6-50.3,52.2-50.3,78.9h50.3L1748.8,1442.4L1748.8,1442.4z"/>
		<path class="st3" d="M1832.7,1313.2l-25.6,28.7l-10.7,6.4v1c0,0,5.4-3.1,11.7-3.1c0,0,25.8,0,25.8,33.2v29.9
			c0,22.3-13,35.2-37.5,35.2c-22.3,0-35.2-12.8-35.2-32c0-10.7,1.9-20.2,1.9-20.2h23.5c0,0-1,9.5-1,17.1c0,8.4,4.3,12.6,10.7,12.6
			c7.6,0,11.7-4.3,11.7-12.6v-29.9c0-8.7-5.2-14-12.6-14c-7.6,0-13,4.3-13,4.3l-10.7-18.3l32.2-36.1h-41.8v-22.5h70.5L1832.7,1313.2
			L1832.7,1313.2z"/>
		<path class="st3" d="M1908.9,1292.9l-36.3,98.3h21.4V1374l10.7-32h15v49.1h9.7v22.5h-9.7v28.7H1894v-28.7h-49.1v-19.4l37.5-101.4
			h26.5V1292.9z"/>
		<path class="st3" d="M1969.1,1339.9l-3.3,13.8h1.2c0,0,6.4-9.5,20.2-9.5c14,0,26.8,12.8,26.8,35.3v29.9
			c0,22.3-12.8,35.2-36.3,35.2s-36.3-12.8-36.3-32c0-10.7,2.1-20.2,2.1-20.2h22.3c0,0-1,9.5-1,17.1c0,7.4,5.4,12.6,12.8,12.6
			c6.4,0,10.7-4.3,10.7-12.6v-29.9c0-8.7-4.3-13-11.7-13c-8.5,0-11.8,8.7-11.8,8.7h-22.3l3.1-82.4h65.3v22.5h-40.6L1969.1,1339.9z"
			/>
		<path class="st3" d="M2074.7,1333.4c0,0,1.2-4.3,1.2-8.9c0-7-4.3-11.3-10.7-11.3c-7.4,0-11.7,4.3-11.7,12.8v22.3l-3.3,11.3h1
			c0,0,7.6-13.4,21.4-13.4c18.3,0,30.1,11.7,30.1,35.3v27.8c0,23.3-11.8,35.2-37.5,35.2s-37.3-11.8-37.3-35.2V1326
			c0-23.7,11.7-35.3,37.3-35.3c22.5,0,35.3,12.8,35.3,29.9c0,7.6-2.1,12.8-2.1,12.8L2074.7,1333.4L2074.7,1333.4z M2076.8,1381.6
			c0-8.7-4.3-13-11.7-13s-11.7,4.3-11.7,13v27.8c0,8.4,4.3,12.6,11.7,12.6s11.7-4.3,11.7-12.6V1381.6z"/>
		<path class="st3" d="M2187.8,1312.1l-45.1,130.3h-25.6l43.9-127h-48.2v-22.5h75L2187.8,1312.1L2187.8,1312.1z"/>
		<path class="st3" d="M2273.9,1408.2c0,22.3-14,36.3-38.5,36.3c-24.7,0-38.7-14-38.7-36.3v-15c0-22.5,16.1-27.8,16.1-27.8v-1.2
			c0,0-13.8-5.2-13.8-24.5v-15c0-20.4,13.8-34.2,36.3-34.2c22.3,0,36.3,13.8,36.3,34.2v15c0,19.2-14,24.5-14,24.5v1.2
			c0,0,16.1,5.2,16.1,27.8v15H2273.9z M2248.1,1390.2c0-7.6-5.2-12.8-12.6-12.8c-7.6,0-13,5.2-13,12.8v19.2c0,7.4,5.4,12.6,13,12.6
			c7.4,0,12.6-5.2,12.6-12.6V1390.2z M2246,1324.9c0-7.4-4.3-11.7-10.5-11.7c-6.4,0-10.7,4.3-10.7,11.7v18.1
			c0,7.6,3.1,11.8,10.7,11.8c7.4,0,10.5-4.3,10.5-11.8V1324.9z"/>
		<path class="st3" d="M2314.2,1401.8c0,0-1.2,4.3-1.2,8.9c0,7,4.3,11.3,10.7,11.3c7.4,0,11.7-4.3,11.7-12.6v-22.5l3.3-11.3h-1.2
			c0,0-7.4,13.4-21.2,13.4c-18.3,0-30.1-11.7-30.1-35.3v-27.6c0-23.7,11.8-35.3,37.5-35.3c25.6,0,37.5,11.7,37.5,35.3v83.3
			c0,23.3-11.8,35.2-37.5,35.2c-22.3,0-35.2-12.8-35.2-29.9c0-7.6,2.1-12.8,2.1-12.8L2314.2,1401.8L2314.2,1401.8z M2311.8,1353.6
			c0,8.5,4.5,12.8,11.8,12.8c7.4,0,11.7-4.3,11.7-12.8V1326c0-8.5-4.3-12.8-11.7-12.8s-11.8,4.3-11.8,12.8V1353.6z"/>
		<path class="st3" d="M1571.8,1577.2c0,0,1.2-8.7,1.2-15c0-11.7-4.3-15.9-10.7-15.9c-7.4,0-11.8,4.3-11.8,15v2.1
			c0,22.3,48.2,35.2,48.2,72.4v4.3c0,20.8-9.1,33.2-26.8,36.5v13.8h-20.2v-13.6h0.4c-17.1-3.3-27.2-15.9-27.2-33.4
			c0-10.7,2.3-19.2,2.3-19.2h22.3c0,0-1.2,8.5-1.2,15c0,11.7,4.5,15.9,13,15.9c7.4,0,11.7-4.3,11.7-15v-4.3
			c0-22.3-48.2-35.2-48.2-72.4v-2.1c0-20.8,9.3-33.4,26.8-36.7V1511h20.2v13.6c17.7,3.1,24.7,15.3,24.7,33.4
			c0,10.7-2.1,19.2-2.1,19.2H1571.8z"/>
		<path class="st3" d="M1692.7,1624.2c0,0,2.1,10.7,2.1,17.1c0,23.5-12.8,36.3-37.5,36.3c-25.6,0-38.5-12.8-38.5-39.6v-21.2h-9.5
			v-13h9.5v-8.5h-9.5v-12.8h9.5v-19c0-27.4,12.8-39.6,38.5-39.6c23.5,0,37.5,13.8,37.5,36.3c0,6.4-2.1,15-2.1,15h-22.5v-10.7
			c0-13.8-4.3-18.1-12.8-18.1s-12.8,4.3-12.8,17.1v19h32v12.8h-32v8.5h32v13h-32v21.2c0,12.8,4.3,17.1,12.8,17.1s12.8-4.3,12.8-18.1
			v-12.8L1692.7,1624.2L1692.7,1624.2z"/>
		<path class="st3" d="M1705.4,1593.1h10.5c0,0-4.1-12.4-4.1-31.3c0-24.7,12.8-38.1,37.3-38.1c22.5,0,35.3,12.2,35.3,33.2
			c0,5.2-1.2,19-1.2,19h-23.5V1560c0-9.3-4.3-13.8-10.7-13.8c-7.4,0-11.7,4.3-11.7,13.8c0,20,4.3,33,4.3,33h25.4v15.1h-22.3
			c0,0,3.3,7.4,3.3,18.1c0,19.2-8.5,26.6-8.5,26.6h47v22.5h-79.2V1653c0,0,15.1-7.4,15.1-24.5c0-12.8-3.3-20.2-3.3-20.2h-13.8
			L1705.4,1593.1L1705.4,1593.1z"/>
		<path class="st3" d="M1846.1,1628.5h22.5v16.1h-22.5v30.9h-25.6v-30.9h-22.3v-16.1h22.3v-5.2l-1.2-4.3h-21.2v-16.1h15.9
			l-23.5-76.9h26.6l15.5,64.1h1.2l15.3-64.1h26.8l-23.5,76.9h16.1v16.1h-21.6l-1,4.3v5.2H1846.1z"/>
		<path class="st3" d="M1971.1,1662.7c0,0-5.4,15-22.5,15s-27.8-10.7-27.8-35.2v-38.7c0-24.5,10.7-35.2,23.5-35.2
			c12.4,0,20.4,11.7,20.4,11.7v-9.5h24.5v74.8c0,7.4,3.1,10.7,7.4,10.7s8.5-3.3,8.5-10.7V1591c0-27.6-20.2-48-50.1-48
			c-30.1,0-50.3,20.4-50.3,48v62c0,28,20.4,48.2,50.3,48.2c22.3,0,35.2-5.2,35.2-5.2v19.2c0,0-12.8,5.2-35.2,5.2
			c-41.6,0-70.5-28.7-70.5-67.4v-62c0-38.3,28.9-67.2,70.7-67.2c41.4,0,70.3,28.9,70.3,67.2v56.7c0,18.1-12.8,29.9-28.9,29.9
			c-20.2,0-24.5-15-24.5-15h-1V1662.7z M1945.4,1641.3c0,10.7,3.1,13.8,8.5,13.8c7.4,0,10.7-8.4,10.7-8.4v-47.2
			c0,0-3.3-8.5-10.7-8.5c-5.4,0-8.5,3.3-8.5,14V1641.3z"/>
		<path class="st3" d="M2073.9,1634.9l-6.8,40.6h-21.4l6.8-40.6h-14.4v-19.2h17.7l5.2-29.9h-14.2v-19.2h17.5l7-40.6h21.4l-7,40.6
			h13.8l7.2-40.6h21.4l-7.2,40.6h14.6v19.2h-17.7l-5.4,29.9h14.6v19.2h-17.7l-7,40.6h-21.2l6.8-40.6H2073.9z M2096.5,1585.8h-14
			l-5.2,29.9h13.8L2096.5,1585.8z"/>
		<path class="st3" d="M2168.4,1634.9v-10.7c0-25.6,26.6-31.1,26.6-47v-15c0-11.7-4.3-15.9-11.7-15.9s-11.8,4.3-11.8,15.9v15H2147
			c0,0-1-10.7-1-18.1c0-21.6,15-35.3,37.3-35.3c25.6,0,37.5,13.8,37.5,38.5v15c0,24.5-26.8,29.9-26.8,47v10.7L2168.4,1634.9
			L2168.4,1634.9z M2168.4,1647.7h25.6v27.8h-25.6V1647.7z"/>
		<path class="st3" d="M2270.3,1605v10.7c0,25.6-26.6,31.1-26.6,47v19.2c0,11.8,4.3,16.1,11.8,16.1c7.4,0,11.7-4.3,11.7-16.1v-15
			h24.7c0,0,1,10.7,1,18.3c0,21.4-15,35.2-37.3,35.2c-25.6,0-37.5-13.8-37.5-38.5v-19.2c0-24.7,26.6-29.9,26.6-47V1605H2270.3z
			 M2270.3,1592.2h-25.6v-27.8h25.6V1592.2z"/>
		<path class="st3" d="M2306.1,1525.9h25.6v40.6l-4.3,68.4h-17.1l-4.3-68.4v-40.6H2306.1z M2306.1,1647.7h25.6v27.8h-25.6V1647.7z"
			/>
		<path class="st3" d="M2347.9,1564.4h25.6v27.8h-25.6V1564.4z M2347.9,1673.4l4.3-68.4h17.1l4.3,68.4v44.9H2348v-44.9H2347.9z"/>
		<path class="st3" d="M1549.5,1888.2v-29.7h-26.6v-20.4h26.6v-29.9h20.2v29.9h26.8v20.4h-26.8v29.7H1549.5z"/>
		<path class="st3" d="M1608.9,1838.1h71.7v20.4h-71.7V1838.1z"/>
		<path class="st3" d="M1693,1827.4l15.1-15l21.4,21.4l21.2-21.4l15.2,15l-21.6,21.4l21.6,21.4l-15.2,15l-21.2-21.4l-21.4,21.4
			l-15.1-15l21.4-21.4L1693,1827.4z"/>
		<path class="st3" d="M1774.9,1838.1h70.7v20.4h-70.7V1838.1z M1800.5,1800.8h21.4v24.5h-21.4V1800.8z M1800.5,1871.1h21.4v24.7
			h-21.4V1871.1z"/>
		<path class="st3" d="M1858.9,1819.8h66.4v20.4h-66.4V1819.8z M1858.9,1857.3h66.4v20.4h-66.4V1857.3z"/>
		<path class="st3" d="M1987.3,1815.5c0,11.8-9.5,21.4-24.7,21.4c-15,0-24.5-9.5-24.5-21.4v-35.9c0-12,9.5-21.8,24.5-21.8
			c15.1,0,24.7,9.7,24.7,21.6V1815.5z M2029.1,1759h18.1l-76.9,149.6h-18.1L2029.1,1759z M1969.2,1779.6c0-4.9-2.5-6.6-6.6-6.6
			c-4.3,0-6.2,1.7-6.2,6.6v35.9c0,4.3,1.9,6.4,6.2,6.4c4.5,0,6.6-2.1,6.6-6.4V1779.6z M2012,1852.1c0-11.8,9.5-21.6,24.5-21.6
			s24.5,9.7,24.5,21.6v35.9c0,12-9.5,21.8-24.5,21.8s-24.5-9.7-24.5-21.6V1852.1z M2030,1888c0,4.9,2.3,6.8,6.4,6.8
			c4.3,0,6.4-1.9,6.4-6.8v-35.9c0-4.3-2.1-6.4-6.4-6.4s-6.4,2.1-6.4,6.4V1888z"/>
		<path class="st3" d="M2108.3,1803.9l24.5,42.7l5.4-23.5h23.5l-12.8,51.3l20.2,34.2h-27.6l-6.6-9.7c0,0-6.4,11.8-23.3,11.8
			c-24.1,0-38.5-14-38.5-37.5v-7.4c0-26.8,19.2-42.7,19.2-42.7l-7.6-12.8c0,0-6.4-10.7-6.4-22.3c0-18.3,12.8-31.1,35.3-31.1
			c22.3,0,35.2,12.8,35.2,34.2c0,4.3-1,12.8-1,12.8h-23.7v-9.5c0-10.7-4.3-15-10.5-15c-6.4,0-9.7,3.1-9.7,10.7
			C2104,1797.5,2108.3,1803.9,2108.3,1803.9z M2106.1,1846.6c0,0-7.6,6.4-7.6,19.2v7.4c0,10.7,5.1,16.1,13,16.1
			c9.5,0,11.7-10.7,11.7-10.7L2106.1,1846.6z"/>
		<path class="st3" d="M2228.5,1919.3c-34.2,0-53.2-19.2-53.2-54.6v-40.6c0-35.2,19-54.4,53.2-54.4c34.4,0,53.4,19.2,53.4,54.4v40.6
			C2281.9,1900,2262.9,1919.3,2228.5,1919.3z M2228.5,1905.5c25.8,0,39.6-14,39.6-40.8v-40.6c0-26.6-13.8-40.4-39.6-40.4
			c-25.4,0-39.4,13.8-39.4,40.4v40.6C2189.1,1891.5,2203,1905.5,2228.5,1905.5z M2221.1,1864.7c0,6.4,3.1,9.7,7.4,9.7
			c4.3,0,7.6-3.3,7.6-9.7v-12.6h17.1c0,0,1.2,8.4,1.2,14.8c0,15.1-9.7,24.7-25.8,24.7c-15.9,0-25.4-9.5-25.4-26.8v-40.6
			c0-16.9,9.5-26.6,25.4-26.6c16.1,0,25.8,9.7,25.8,24.5c0,6.4-1.2,12.8-1.2,12.8h-17.1v-10.7c0-6.4-3.7-9.5-7.6-9.5
			c-4.3,0-7.4,3.1-7.4,9.5V1864.7z"/>
	</g>
</g>
</svg>
