<?xml version="1.0" encoding="utf-8"?>
<!-- Generator: Adobe Illustrator 22.0.0, SVG Export Plug-In . SVG Version: 6.00 Build 0)  -->
<svg version="1.1" id="Layer_1" xmlns="http://www.w3.org/2000/svg" xmlns:xlink="http://www.w3.org/1999/xlink" x="0px" y="0px"
	 viewBox="0 0 1000 829.8" style="enable-background:new 0 0 1000 829.8;" xml:space="preserve">
<style type="text/css">
	.st0{fill:#FE59FE;}
	.st1{fill:#222222;}
	.st2{fill:#FFFFFF;}
</style>
<g>
	<g>
		<g>
			<g>
				<path class="st0" d="M482.5,782.8L368.7,496.9c58.3-25,58.3-158.2,58.3-158.2c-157.9,0-263.7,74.9-280.4,152.7l102.7,52.7
					L216,605.1L482.5,782.8z"/>
				<path class="st0" d="M482.5,782.8l113.8-285.9C538,471.9,538,338.7,538,338.7c157.9,0,263.7,74.9,280.4,152.7l-102.7,52.7
					l33.3,61.1L482.5,782.8z"/>
			</g>
		</g>
		<g>
			<path class="st1" d="M293.3,216.3c0,0,32.9,69.5,5.6,102.3c-27.2,32.9-70.4,120.2-10.3,194.3c0,0-19.7-65.7,10.3-84.5
				c0,0-25.3,80.7,28.2,132.4c0,0-19.7-69.8,8-111.4c0,0-5.2,37.3-0.5,62.6l68.5-62.9l7.5-215.9L293.3,216.3z"/>
			<path class="st1" d="M656.6,280.2c0,0-21.6,135.2,23.5,148.3c0,0-31.9,7.5-50.7-21.6c0,0-11.3,35.7,26.3,76
				c0,0-76,14.1-95.8-39.4s0-163.4,0-163.4H656.6z"/>
		</g>
		<path class="st2" d="M482.5,483L482.5,483c-65,0-119.5-79.5-125.8-144.3l-13-133.3h277.6l-13,133.3C602,403.5,547.6,483,482.5,483
			z"/>
		<g>
			<g>
				<path class="st1" d="M485.3,788.4c-49.7,0-96.4-19.3-131.5-54.5c-72.5-72.5-72.5-190.5,0-263c35.1-35.1,81.8-54.5,131.5-54.5
					s96.4,19.3,131.5,54.5l0,0l0,0c72.5,72.5,72.5,190.5,0,263C581.7,769,535,788.4,485.3,788.4z M485.3,471.9
					c-34.9,0-67.6,13.6-92.3,38.2c-50.9,50.9-50.9,133.6,0,184.5c24.6,24.6,57.4,38.2,92.3,38.2c34.9,0,67.6-13.6,92.3-38.2
					c50.9-50.9,50.9-133.6,0-184.5l0,0C552.9,485.5,520.1,471.9,485.3,471.9z"/>
			</g>
			<g>
				<path class="st1" d="M685.2,830c-7.1,0-14.2-2.7-19.6-8.1l-88-88c-10.8-10.8-10.8-28.4,0-39.3c10.8-10.8,28.4-10.8,39.3,0l88,88
					c10.8,10.8,10.8,28.4,0,39.3C699.4,827.3,692.3,830,685.2,830z"/>
			</g>
		</g>
		<path class="st1" d="M656.2,157.8l-15.3-82.4C632.8,31.7,594.6,0,550.2,0H431.2c-36.4,0-69.3,21.4-84.2,54.5l-45.2,100.8
			c-37.3,0.1-77.1,0.1-119.5,0.1c-10.8,0-15.3,13.7-6.6,20.1c89.7,65.2,387.4,256.8,573.2,79.9C821.7,186.1,823.2,164.4,656.2,157.8
			z"/>
	</g>
</g>
</svg>
